<?xml version="1.0" encoding="UTF-8" standalone="no"?>
<!DOCTYPE svg PUBLIC "-//W3C//DTD SVG 1.1//EN"
 "http://www.w3.org/Graphics/SVG/1.1/DTD/svg11.dtd">
<!-- Generated by graphviz version 14.1.4 (20260321.0153)
 -->
<!-- Title: ImFusion::LabelDataComponent Pages: 1 -->
<svg width="740pt" height="98pt"
 viewBox="0.00 0.00 740.00 98.00" xmlns="http://www.w3.org/2000/svg" xmlns:xlink="http://www.w3.org/1999/xlink">
<g id="graph0" class="graph" transform="scale(1 1) rotate(0) translate(4 94.12)">
<title>ImFusion::LabelDataComponent</title>
<!-- Node1 -->
<g id="Node000001" class="node">
<title>Node1</title>
<g id="a_Node000001"><a xlink:title="DataComponent to store meta data of a label map.">
<polygon fill="#999999" stroke="#666666" points="732.25,-57.5 575.25,-57.5 575.25,-38.25 732.25,-38.25 732.25,-57.5"/>
<text xml:space="preserve" text-anchor="middle" x="653.75" y="-44" font-family="Helvetica,sans-Serif" font-size="10.00">ImFusion::LabelDataComponent</text>
</a>
</g>
</g>
<!-- Node2 -->
<g id="Node000002" class="node">
<title>Node2</title>
<g id="a_Node000002"><a xlink:href="class_im_fusion_1_1_data_component.html" target="_top" xlink:title=" ">
<polygon fill="white" stroke="#666666" points="509.25,-90.12 375.5,-90.12 375.5,-59.62 509.25,-59.62 509.25,-90.12"/>
<text xml:space="preserve" text-anchor="start" x="383.5" y="-76.62" font-family="Helvetica,sans-Serif" font-size="10.00">ImFusion::DataComponent</text>
<text xml:space="preserve" text-anchor="middle" x="442.38" y="-65.38" font-family="Helvetica,sans-Serif" font-size="10.00">&lt; LabelDataComponent &gt;</text>
</a>
</g>
</g>
<!-- Node2&#45;&gt;Node1 -->
<g id="edge1_Node000001_Node000002" class="edge">
<title>Node2&#45;&gt;Node1</title>
<g id="a_edge1_Node000001_Node000002"><a xlink:title=" ">
<path fill="none" stroke="#63b8ff" d="M521,-64.87C538.58,-62.6 557.26,-60.19 574.86,-57.92"/>
<polygon fill="#63b8ff" stroke="#63b8ff" points="520.59,-61.39 511.12,-66.14 521.49,-68.33 520.59,-61.39"/>
</a>
</g>
</g>
<!-- Node3 -->
<g id="Node000003" class="node">
<title>Node3</title>
<g id="a_Node000003"><a xlink:href="class_im_fusion_1_1_data_component_base.html" target="_top" xlink:title="Data components provide a way to generically attach custom information objects.">
<polygon fill="white" stroke="#666666" points="309.5,-84.5 153.25,-84.5 153.25,-65.25 309.5,-65.25 309.5,-84.5"/>
<text xml:space="preserve" text-anchor="middle" x="231.38" y="-71" font-family="Helvetica,sans-Serif" font-size="10.00">ImFusion::DataComponentBase</text>
</a>
</g>
</g>
<!-- Node3&#45;&gt;Node2 -->
<g id="edge2_Node000002_Node000003" class="edge">
<title>Node3&#45;&gt;Node2</title>
<g id="a_edge2_Node000002_Node000003"><a xlink:title=" ">
<path fill="none" stroke="#63b8ff" d="M321.37,-74.88C339.45,-74.88 358.17,-74.88 375.29,-74.88"/>
<polygon fill="#63b8ff" stroke="#63b8ff" points="321.42,-71.38 311.42,-74.88 321.42,-78.38 321.42,-71.38"/>
</a>
</g>
</g>
<!-- Node4 -->
<g id="Node000004" class="node">
<title>Node4</title>
<g id="a_Node000004"><a xlink:href="class_im_fusion_1_1_configurable.html" target="_top" xlink:title="Base interface for classes that support object serialization from/to Properties objects.">
<polygon fill="white" stroke="#666666" points="117.25,-84.5 0,-84.5 0,-65.25 117.25,-65.25 117.25,-84.5"/>
<text xml:space="preserve" text-anchor="middle" x="58.62" y="-71" font-family="Helvetica,sans-Serif" font-size="10.00">ImFusion::Configurable</text>
</a>
</g>
</g>
<!-- Node4&#45;&gt;Node3 -->
<g id="edge3_Node000003_Node000004" class="edge">
<title>Node4&#45;&gt;Node3</title>
<g id="a_edge3_Node000003_Node000004"><a xlink:title=" ">
<path fill="none" stroke="#63b8ff" d="M128.88,-74.88C136.8,-74.88 144.92,-74.88 152.95,-74.88"/>
<polygon fill="#63b8ff" stroke="#63b8ff" points="128.95,-71.38 118.95,-74.88 128.95,-78.38 128.95,-71.38"/>
</a>
</g>
</g>
<!-- Node5 -->
<g id="Node000005" class="node">
<title>Node5</title>
<g id="a_Node000005"><a xlink:href="class_im_fusion_1_1_lazy_instantiated_data_component.html" target="_top" xlink:title=" ">
<polygon fill="white" stroke="#666666" points="539.25,-41.75 345.5,-41.75 345.5,0 539.25,0 539.25,-41.75"/>
<text xml:space="preserve" text-anchor="start" x="353.5" y="-28.25" font-family="Helvetica,sans-Serif" font-size="10.00">ImFusion::LazyInstantiated</text>
<text xml:space="preserve" text-anchor="start" x="353.5" y="-17" font-family="Helvetica,sans-Serif" font-size="10.00">DataComponent&lt; LabelDataComponent,</text>
<text xml:space="preserve" text-anchor="middle" x="442.38" y="-5.75" font-family="Helvetica,sans-Serif" font-size="10.00"> SharedImageSet &gt;</text>
</a>
</g>
</g>
<!-- Node5&#45;&gt;Node1 -->
<g id="edge4_Node000001_Node000005" class="edge">
<title>Node5&#45;&gt;Node1</title>
<g id="a_edge4_Node000001_Node000005"><a xlink:title=" ">
<path fill="none" stroke="#63b8ff" d="M550.87,-34.74C558.93,-35.78 566.97,-36.81 574.79,-37.82"/>
<polygon fill="#63b8ff" stroke="#63b8ff" points="551.35,-31.27 540.98,-33.46 550.45,-38.21 551.35,-31.27"/>
</a>
</g>
</g>
<!-- Node6 -->
<g id="Node000006" class="node">
<title>Node6</title>
<g id="a_Node000006"><a xlink:href="struct_im_fusion_1_1_persistent_data_component.html" target="_top" xlink:title="Base class for DataComponents that must never be deleted from a DataComponentList.">
<polygon fill="white" stroke="#666666" points="295.25,-36.12 167.5,-36.12 167.5,-5.62 295.25,-5.62 295.25,-36.12"/>
<text xml:space="preserve" text-anchor="start" x="175.5" y="-22.62" font-family="Helvetica,sans-Serif" font-size="10.00">ImFusion::PersistentData</text>
<text xml:space="preserve" text-anchor="middle" x="231.38" y="-11.38" font-family="Helvetica,sans-Serif" font-size="10.00">Component</text>
</a>
</g>
</g>
<!-- Node6&#45;&gt;Node5 -->
<g id="edge5_Node000005_Node000006" class="edge">
<title>Node6&#45;&gt;Node5</title>
<g id="a_edge5_Node000005_Node000006"><a xlink:title=" ">
<path fill="none" stroke="#63b8ff" d="M306.85,-20.88C319.26,-20.88 332.29,-20.88 345.15,-20.88"/>
<polygon fill="#63b8ff" stroke="#63b8ff" points="307.16,-17.38 297.16,-20.88 307.16,-24.38 307.16,-17.38"/>
</a>
</g>
</g>
</g>
</svg>
