<?xml version="1.0" encoding="UTF-8" standalone="no"?>
<!DOCTYPE svg PUBLIC "-//W3C//DTD SVG 1.1//EN"
 "http://www.w3.org/Graphics/SVG/1.1/DTD/svg11.dtd">
<!-- Generated by graphviz version 14.1.4 (20260321.0153)
 -->
<!-- Title: ImFusion::GlImplicitlyPlanarPointBasedAnnotation Pages: 1 -->
<!--zoomable 370 -->

<svg id="main" version="1.1" xmlns="http://www.w3.org/2000/svg" xmlns:xlink="http://www.w3.org/1999/xlink" xml:space="preserve" onload="init(evt)">

<style type="text/css"><![CDATA[
.node, .edge {opacity: 0.7;}
.node.selected, .edge.selected {opacity: 1;}
.edge:hover path { stroke: red; }
.edge:hover polygon { stroke: red; fill: red; }
]]></style>

<defs>
  <circle id="rim" cx="0" cy="0" r="7"/>
  <circle id="rim2" cx="0" cy="0" r="3.5"/>
  <g id="zoomPlus">
    <use xlink:href="#rim" fill="#404040"><set attributeName="fill" to="#808080" begin="zoomplus.mouseover" end="zoomplus.mouseout"/></use>
    <path d="M-4,0h8M0,-4v8" fill="none" stroke="white" stroke-width="1.5" pointer-events="none"/>
  </g>
  <g id="zoomMin">
    <use xlink:href="#rim" fill="#404040"><set attributeName="fill" to="#808080" begin="zoomminus.mouseover" end="zoomminus.mouseout"/></use>
    <path d="M-4,0h8" fill="none" stroke="white" stroke-width="1.5" pointer-events="none"/>
  </g>
  <g id="arrowUp" transform="translate(30 24)">
    <use xlink:href="#rim"/>
    <path pointer-events="none" fill="none" stroke="white" stroke-width="1.5" d="M0,-3.0v7 M-2.5,-0.5L0,-3.0L2.5,-0.5"/>
  </g>
  <g id="arrowRight" transform="rotate(90) translate(36 -43)">
    <use xlink:href="#rim"/>
    <path pointer-events="none" fill="none" stroke="white" stroke-width="1.5" d="M0,-3.0v7 M-2.5,-0.5L0,-3.0L2.5,-0.5"/>
  </g>
  <g id="arrowDown" transform="rotate(180) translate(-30 -48)">
    <use xlink:href="#rim"/>
    <path pointer-events="none" fill="none" stroke="white" stroke-width="1.5" d="M0,-3.0v7 M-2.5,-0.5L0,-3.0L2.5,-0.5"/>
  </g>
  <g id="arrowLeft" transform="rotate(270) translate(-36 17)">
    <use xlink:href="#rim"/>
    <path pointer-events="none" fill="none" stroke="white" stroke-width="1.5" d="M0,-3.0v7 M-2.5,-0.5L0,-3.0L2.5,-0.5"/>
  </g>
  <g id="resetDef">
    <use xlink:href="#rim2" fill="#404040"><set attributeName="fill" to="#808080" begin="reset.mouseover" end="reset.mouseout"/></use>
  </g>
</defs>
<script type="application/ecmascript">
var viewWidth = 551;
var viewHeight = 370;
var sectionId = 'dynsection-0';
</script>
<script type="application/ecmascript" xlink:href="svg.min.js"/>
<svg id="graph" class="graph">
<g id="viewport">
<title>ImFusion::GlImplicitlyPlanarPointBasedAnnotation</title>
<!-- Node1 -->
<g id="Node000001" class="node">
<title>Node1</title>
<g id="a_Node000001"><a xlink:title="Interface extension for point&#45;based annotations that span an area despite consisting of only 2 points...">
<polygon fill="#999999" stroke="#666666" points="359,-141 220,-141 220,-110.5 359,-110.5 359,-141"/>
<text xml:space="preserve" text-anchor="start" x="228" y="-127.5" font-family="Helvetica,sans-Serif" font-size="10.00">ImFusion::GlImplicitlyPlanar</text>
<text xml:space="preserve" text-anchor="middle" x="289.5" y="-116.25" font-family="Helvetica,sans-Serif" font-size="10.00">PointBasedAnnotation</text>
</a>
</g>
</g>
<!-- Node7 -->
<g id="Node000007" class="node">
<title>Node7</title>
<g id="a_Node000007"><a xlink:href="class_im_fusion_1_1_gl_circle.html" target="_top" xlink:title="Circle annotation.">
<polygon fill="white" stroke="#666666" points="150.38,-74.5 52.62,-74.5 52.62,-55.25 150.38,-55.25 150.38,-74.5"/>
<text xml:space="preserve" text-anchor="middle" x="101.5" y="-61" font-family="Helvetica,sans-Serif" font-size="10.00">ImFusion::GlCircle</text>
</a>
</g>
</g>
<!-- Node1&#45;&gt;Node7 -->
<g id="edge6_Node000001_Node000007" class="edge">
<title>Node1&#45;&gt;Node7</title>
<g id="a_edge6_Node000001_Node000007"><a xlink:title=" ">
<path fill="none" stroke="#63b8ff" d="M231.94,-106.72C198.41,-96.22 157.56,-83.43 130.61,-74.99"/>
<polygon fill="#63b8ff" stroke="#63b8ff" points="230.51,-109.94 241.1,-109.59 232.6,-103.26 230.51,-109.94"/>
</a>
</g>
</g>
<!-- Node9 -->
<g id="Node000009" class="node">
<title>Node9</title>
<g id="a_Node000009"><a xlink:href="class_im_fusion_1_1_gl_ellipse.html" target="_top" xlink:title="Ellipse annotation.">
<polygon fill="white" stroke="#666666" points="283.25,-74.5 181.75,-74.5 181.75,-55.25 283.25,-55.25 283.25,-74.5"/>
<text xml:space="preserve" text-anchor="middle" x="232.5" y="-61" font-family="Helvetica,sans-Serif" font-size="10.00">ImFusion::GlEllipse</text>
</a>
</g>
</g>
<!-- Node1&#45;&gt;Node9 -->
<g id="edge8_Node000001_Node000009" class="edge">
<title>Node1&#45;&gt;Node9</title>
<g id="a_edge8_Node000001_Node000009"><a xlink:title=" ">
<path fill="none" stroke="#63b8ff" d="M267.41,-101.93C258.29,-92.52 248.25,-82.14 241.29,-74.95"/>
<polygon fill="#63b8ff" stroke="#63b8ff" points="264.89,-104.36 274.36,-109.11 269.92,-99.49 264.89,-104.36"/>
</a>
</g>
</g>
<!-- Node11 -->
<g id="Node000011" class="node">
<title>Node11</title>
<g id="a_Node000011"><a xlink:href="class_im_fusion_1_1_gl_loop.html" target="_top" xlink:title="Loop annotation.">
<polygon fill="white" stroke="#666666" points="394.12,-74.5 300.88,-74.5 300.88,-55.25 394.12,-55.25 394.12,-74.5"/>
<text xml:space="preserve" text-anchor="middle" x="347.5" y="-61" font-family="Helvetica,sans-Serif" font-size="10.00">ImFusion::GlLoop</text>
</a>
</g>
</g>
<!-- Node1&#45;&gt;Node11 -->
<g id="edge10_Node000001_Node000011" class="edge">
<title>Node1&#45;&gt;Node11</title>
<g id="a_edge10_Node000001_Node000011"><a xlink:title=" ">
<path fill="none" stroke="#63b8ff" d="M311.69,-102.22C321.05,-92.73 331.4,-82.22 338.56,-74.95"/>
<polygon fill="#63b8ff" stroke="#63b8ff" points="309.42,-99.54 304.9,-109.12 314.41,-104.45 309.42,-99.54"/>
</a>
</g>
</g>
<!-- Node12 -->
<g id="Node000012" class="node">
<title>Node12</title>
<g id="a_Node000012"><a xlink:href="class_im_fusion_1_1_gl_parallelogram.html" target="_top" xlink:title="Parallelogram annotation.">
<polygon fill="white" stroke="#666666" points="543.25,-74.5 411.75,-74.5 411.75,-55.25 543.25,-55.25 543.25,-74.5"/>
<text xml:space="preserve" text-anchor="middle" x="477.5" y="-61" font-family="Helvetica,sans-Serif" font-size="10.00">ImFusion::GlParallelogram</text>
</a>
</g>
</g>
<!-- Node1&#45;&gt;Node12 -->
<g id="edge11_Node000001_Node000012" class="edge">
<title>Node1&#45;&gt;Node12</title>
<g id="a_edge11_Node000001_Node000012"><a xlink:title=" ">
<path fill="none" stroke="#63b8ff" d="M347.06,-106.72C380.59,-96.22 421.44,-83.43 448.39,-74.99"/>
<polygon fill="#63b8ff" stroke="#63b8ff" points="346.4,-103.26 337.9,-109.59 348.49,-109.94 346.4,-103.26"/>
</a>
</g>
</g>
<!-- Node2 -->
<g id="Node000002" class="node">
<title>Node2</title>
<g id="a_Node000002"><a xlink:href="class_im_fusion_1_1_gl_point_based_annotation.html" target="_top" xlink:title="Base class for implementing point&#45;based annotations.">
<polygon fill="white" stroke="#666666" points="374,-196.25 205,-196.25 205,-177 374,-177 374,-196.25"/>
<text xml:space="preserve" text-anchor="middle" x="289.5" y="-182.75" font-family="Helvetica,sans-Serif" font-size="10.00">ImFusion::GlPointBasedAnnotation</text>
</a>
</g>
</g>
<!-- Node2&#45;&gt;Node1 -->
<g id="edge1_Node000001_Node000002" class="edge">
<title>Node2&#45;&gt;Node1</title>
<g id="a_edge1_Node000001_Node000002"><a xlink:title=" ">
<path fill="none" stroke="#63b8ff" d="M289.5,-165.42C289.5,-157.49 289.5,-148.56 289.5,-141.28"/>
<polygon fill="#63b8ff" stroke="#63b8ff" points="286,-165.17 289.5,-175.17 293,-165.17 286,-165.17"/>
</a>
</g>
</g>
<!-- Node3 -->
<g id="Node000003" class="node">
<title>Node3</title>
<g id="a_Node000003"><a xlink:href="class_im_fusion_1_1_gl_annotation.html" target="_top" xlink:title="Base class for implementing annotations.">
<polygon fill="white" stroke="#666666" points="348.88,-251.5 230.12,-251.5 230.12,-232.25 348.88,-232.25 348.88,-251.5"/>
<text xml:space="preserve" text-anchor="middle" x="289.5" y="-238" font-family="Helvetica,sans-Serif" font-size="10.00">ImFusion::GlAnnotation</text>
</a>
</g>
</g>
<!-- Node3&#45;&gt;Node2 -->
<g id="edge2_Node000002_Node000003" class="edge">
<title>Node3&#45;&gt;Node2</title>
<g id="a_edge2_Node000002_Node000003"><a xlink:title=" ">
<path fill="none" stroke="#63b8ff" d="M289.5,-220.63C289.5,-212.34 289.5,-203.17 289.5,-196.61"/>
<polygon fill="#63b8ff" stroke="#63b8ff" points="286,-220.57 289.5,-230.57 293,-220.57 286,-220.57"/>
</a>
</g>
</g>
<!-- Node4 -->
<g id="Node000004" class="node">
<title>Node4</title>
<g id="a_Node000004"><a xlink:href="class_im_fusion_1_1_gl_object.html" target="_top" xlink:title="Abstract base class for an renderable OpenGL object that can be hosted in a GlView.">
<polygon fill="white" stroke="#666666" points="269.88,-306.75 169.12,-306.75 169.12,-287.5 269.88,-287.5 269.88,-306.75"/>
<text xml:space="preserve" text-anchor="middle" x="219.5" y="-293.25" font-family="Helvetica,sans-Serif" font-size="10.00">ImFusion::GlObject</text>
</a>
</g>
</g>
<!-- Node4&#45;&gt;Node3 -->
<g id="edge3_Node000003_Node000004" class="edge">
<title>Node4&#45;&gt;Node3</title>
<g id="a_edge3_Node000003_Node000004"><a xlink:title=" ">
<path fill="none" stroke="#63b8ff" d="M240.45,-280.19C252.67,-270.89 267.64,-259.51 277.8,-251.77"/>
<polygon fill="#63b8ff" stroke="#63b8ff" points="238.42,-277.34 232.58,-286.18 242.66,-282.91 238.42,-277.34"/>
</a>
</g>
</g>
<!-- Node5 -->
<g id="Node000005" class="node">
<title>Node5</title>
<g id="a_Node000005"><a xlink:href="class_im_fusion_1_1_configurable.html" target="_top" xlink:title="Base interface for classes that support object serialization from/to Properties objects.">
<polygon fill="white" stroke="#666666" points="278.12,-362 160.88,-362 160.88,-342.75 278.12,-342.75 278.12,-362"/>
<text xml:space="preserve" text-anchor="middle" x="219.5" y="-348.5" font-family="Helvetica,sans-Serif" font-size="10.00">ImFusion::Configurable</text>
</a>
</g>
</g>
<!-- Node5&#45;&gt;Node4 -->
<g id="edge4_Node000004_Node000005" class="edge">
<title>Node5&#45;&gt;Node4</title>
<g id="a_edge4_Node000004_Node000005"><a xlink:title=" ">
<path fill="none" stroke="#63b8ff" d="M219.5,-331.13C219.5,-322.84 219.5,-313.67 219.5,-307.11"/>
<polygon fill="#63b8ff" stroke="#63b8ff" points="216,-331.07 219.5,-341.07 223,-331.07 216,-331.07"/>
</a>
</g>
</g>
<!-- Node6 -->
<g id="Node000006" class="node">
<title>Node6</title>
<g id="a_Node000006"><a xlink:href="class_im_fusion_1_1_utils_1_1_not_copyable.html" target="_top" xlink:title="Inherit from this class if your class should be neither copy&#45;constructible nor assignable.">
<polygon fill="white" stroke="#666666" points="433.38,-306.75 287.62,-306.75 287.62,-287.5 433.38,-287.5 433.38,-306.75"/>
<text xml:space="preserve" text-anchor="middle" x="360.5" y="-293.25" font-family="Helvetica,sans-Serif" font-size="10.00">ImFusion::Utils::NotCopyable</text>
</a>
</g>
</g>
<!-- Node6&#45;&gt;Node3 -->
<g id="edge5_Node000003_Node000006" class="edge">
<title>Node6&#45;&gt;Node3</title>
<g id="a_edge5_Node000003_Node000006"><a xlink:title=" ">
<path fill="none" stroke="#8b1a1a" d="M339.25,-280.19C326.86,-270.89 311.68,-259.51 301.37,-251.77"/>
<polygon fill="#8b1a1a" stroke="#8b1a1a" points="337.14,-282.98 347.24,-286.18 341.34,-277.38 337.14,-282.98"/>
</a>
</g>
</g>
<!-- Node8 -->
<g id="Node000008" class="node">
<title>Node8</title>
<g id="a_Node000008"><a xlink:href="class_im_fusion_1_1_gl_curved_view_circle.html" target="_top" xlink:title="Circle annotation for curved views.">
<polygon fill="white" stroke="#666666" points="151,-19.25 0,-19.25 0,0 151,0 151,-19.25"/>
<text xml:space="preserve" text-anchor="middle" x="75.5" y="-5.75" font-family="Helvetica,sans-Serif" font-size="10.00">ImFusion::GlCurvedViewCircle</text>
</a>
</g>
</g>
<!-- Node7&#45;&gt;Node8 -->
<g id="edge7_Node000007_Node000008" class="edge">
<title>Node7&#45;&gt;Node8</title>
<g id="a_edge7_Node000007_Node000008"><a xlink:title=" ">
<path fill="none" stroke="#63b8ff" d="M92.18,-44.79C87.99,-36.21 83.24,-26.48 79.89,-19.61"/>
<polygon fill="#63b8ff" stroke="#63b8ff" points="89.01,-46.27 96.54,-53.72 95.3,-43.2 89.01,-46.27"/>
</a>
</g>
</g>
<!-- Node10 -->
<g id="Node000010" class="node">
<title>Node10</title>
<g id="a_Node000010"><a xlink:href="class_im_fusion_1_1_gl_curved_view_ellipse.html" target="_top" xlink:title="Ellipse annotation for curved views.">
<polygon fill="white" stroke="#666666" points="323.88,-19.25 169.12,-19.25 169.12,0 323.88,0 323.88,-19.25"/>
<text xml:space="preserve" text-anchor="middle" x="246.5" y="-5.75" font-family="Helvetica,sans-Serif" font-size="10.00">ImFusion::GlCurvedViewEllipse</text>
</a>
</g>
</g>
<!-- Node9&#45;&gt;Node10 -->
<g id="edge9_Node000009_Node000010" class="edge">
<title>Node9&#45;&gt;Node10</title>
<g id="a_edge9_Node000009_Node000010"><a xlink:title=" ">
<path fill="none" stroke="#63b8ff" d="M237.67,-44.21C239.89,-35.77 242.37,-26.33 244.14,-19.61"/>
<polygon fill="#63b8ff" stroke="#63b8ff" points="234.35,-43.06 235.2,-53.62 241.12,-44.84 234.35,-43.06"/>
</a>
</g>
</g>
<!-- Node13 -->
<g id="Node000013" class="node">
<title>Node13</title>
<g id="a_Node000013"><a xlink:href="class_im_fusion_1_1_gl_rectangle.html" target="_top" xlink:title="Rectangle annotation.">
<polygon fill="white" stroke="#666666" points="535.75,-19.25 419.25,-19.25 419.25,0 535.75,0 535.75,-19.25"/>
<text xml:space="preserve" text-anchor="middle" x="477.5" y="-5.75" font-family="Helvetica,sans-Serif" font-size="10.00">ImFusion::GlRectangle</text>
</a>
</g>
</g>
<!-- Node12&#45;&gt;Node13 -->
<g id="edge12_Node000012_Node000013" class="edge">
<title>Node12&#45;&gt;Node13</title>
<g id="a_edge12_Node000012_Node000013"><a xlink:title=" ">
<path fill="none" stroke="#63b8ff" d="M477.5,-43.63C477.5,-35.34 477.5,-26.17 477.5,-19.61"/>
<polygon fill="#63b8ff" stroke="#63b8ff" points="474,-43.57 477.5,-53.57 481,-43.57 474,-43.57"/>
</a>
</g>
</g>
</g>
</svg>

<g id="navigator" transform="translate(0 0)" fill="#404254">
  <rect fill="#f2f5e9" fill-opacity="0.5" stroke="#606060" stroke-width=".5" x="0" y="0" width="60" height="60"/>
  <use id="zoomplus" xlink:href="#zoomPlus" x="17" y="9" onmousedown="handleZoom(evt,'in')"/>
  <use id="zoomminus" xlink:href="#zoomMin" x="42" y="9" onmousedown="handleZoom(evt,'out')"/>
  <use id="reset" xlink:href="#resetDef" x="30" y="36" onmousedown="handleReset()"/>
   <use id="arrowup" xlink:href="#arrowUp" x="0" y="0" onmousedown="handlePan(0,-1)"/>
  <use id="arrowright" xlink:href="#arrowRight" x="0" y="0" onmousedown="handlePan(1,0)"/>
  <use id="arrowdown" xlink:href="#arrowDown" x="0" y="0" onmousedown="handlePan(0,1)"/>
  <use id="arrowleft" xlink:href="#arrowLeft" x="0" y="0" onmousedown="handlePan(-1,0)"/>
</g>
<svg viewBox="0 0 15 15" width="100%" height="30px" preserveAspectRatio="xMaxYMin meet">
 <g id="arrow_out" transform="scale(0.3 0.3)">
  <a xlink:href="class_im_fusion_1_1_gl_implicitly_planar_point_based_annotation__inherit__graph_org.svg" target="_base">
   <rect id="button" ry="5" rx="5" y="6" x="6" height="38" width="38"
        fill="#f2f5e9" fill-opacity="0.5" stroke="#606060" stroke-width="1.0"/>
   <path id="arrow"
     d="M 11.500037,31.436501 C 11.940474,20.09759 22.043105,11.32322 32.158766,21.979434 L 37.068811,17.246167 C 37.068811,17.246167 37.088388,32 37.088388,32 L 22.160133,31.978069 C 22.160133,31.978069 26.997745,27.140456 26.997745,27.140456 C 18.528582,18.264221 13.291696,25.230495 11.500037,31.436501 z"
     style="fill:#404040;"/>
  </a>
 </g>
</svg>

<style type='text/css'>
<![CDATA[
[data-mouse-over-selected='false'] { opacity: 0.7; }
[data-mouse-over-selected='true']  { opacity: 1.0; }
]]>
</style>
<script type="application/ecmascript"><![CDATA[
document.addEventListener('DOMContentLoaded', (event) => {
  highlightEdges();
  highlightAdjacentNodes();
});
]]></script>
</svg>
