<?xml version="1.0" encoding="UTF-8" standalone="no"?>
<!DOCTYPE svg PUBLIC "-//W3C//DTD SVG 1.1//EN"
 "http://www.w3.org/Graphics/SVG/1.1/DTD/svg11.dtd">
<!-- Generated by graphviz version 14.1.4 (20260321.0153)
 -->
<!-- Title: ImFusion::InteractiveSegmentationController Pages: 1 -->
<svg width="341pt" height="204pt"
 viewBox="0.00 0.00 341.00 204.00" xmlns="http://www.w3.org/2000/svg" xmlns:xlink="http://www.w3.org/1999/xlink">
<g id="graph0" class="graph" transform="scale(1 1) rotate(0) translate(4 200.25)">
<title>ImFusion::InteractiveSegmentationController</title>
<!-- Node1 -->
<g id="Node000001" class="node">
<title>Node1</title>
<g id="a_Node000001"><a xlink:title="Controller for interactive segmentation.">
<polygon fill="#999999" stroke="#666666" points="226.75,-30.5 58.5,-30.5 58.5,0 226.75,0 226.75,-30.5"/>
<text xml:space="preserve" text-anchor="start" x="66.5" y="-17" font-family="Helvetica,sans-Serif" font-size="10.00">ImFusion::InteractiveSegmentation</text>
<text xml:space="preserve" text-anchor="middle" x="142.62" y="-5.75" font-family="Helvetica,sans-Serif" font-size="10.00">Controller</text>
</a>
</g>
</g>
<!-- Node2 -->
<g id="Node000002" class="node">
<title>Node2</title>
<g id="a_Node000002"><a xlink:title=" ">
<polygon fill="white" stroke="#bfbfbf" points="110.75,-85.75 56.5,-85.75 56.5,-66.5 110.75,-66.5 110.75,-85.75"/>
<text xml:space="preserve" text-anchor="middle" x="83.62" y="-72.25" font-family="Helvetica,sans-Serif" font-size="10.00">QWidget</text>
</a>
</g>
</g>
<!-- Node2&#45;&gt;Node1 -->
<g id="edge1_Node000001_Node000002" class="edge">
<title>Node2&#45;&gt;Node1</title>
<g id="a_edge1_Node000001_Node000002"><a xlink:title=" ">
<path fill="none" stroke="#63b8ff" d="M100.54,-58.25C109.23,-49.57 119.73,-39.1 128.06,-30.78"/>
<polygon fill="#63b8ff" stroke="#63b8ff" points="98.26,-55.57 93.66,-65.11 103.21,-60.53 98.26,-55.57"/>
</a>
</g>
</g>
<!-- Node3 -->
<g id="Node000003" class="node">
<title>Node3</title>
<g id="a_Node000003"><a xlink:href="class_im_fusion_1_1_algorithm_controller.html" target="_top" xlink:title="Specialization of the Controller interface to be used with Algorithm instances.">
<polygon fill="white" stroke="#666666" points="274.5,-85.75 128.75,-85.75 128.75,-66.5 274.5,-66.5 274.5,-85.75"/>
<text xml:space="preserve" text-anchor="middle" x="201.62" y="-72.25" font-family="Helvetica,sans-Serif" font-size="10.00">ImFusion::AlgorithmController</text>
</a>
</g>
</g>
<!-- Node3&#45;&gt;Node1 -->
<g id="edge2_Node000001_Node000003" class="edge">
<title>Node3&#45;&gt;Node1</title>
<g id="a_edge2_Node000001_Node000003"><a xlink:title=" ">
<path fill="none" stroke="#63b8ff" d="M184.71,-58.25C176.02,-49.57 165.52,-39.1 157.19,-30.78"/>
<polygon fill="#63b8ff" stroke="#63b8ff" points="182.04,-60.53 191.59,-65.11 186.99,-55.57 182.04,-60.53"/>
</a>
</g>
</g>
<!-- Node4 -->
<g id="Node000004" class="node">
<title>Node4</title>
<g id="a_Node000004"><a xlink:href="class_im_fusion_1_1_controller.html" target="_top" xlink:title="Base interface for a GUI element within MainWindowBase.">
<polygon fill="white" stroke="#666666" points="185.88,-141 81.38,-141 81.38,-121.75 185.88,-121.75 185.88,-141"/>
<text xml:space="preserve" text-anchor="middle" x="133.62" y="-127.5" font-family="Helvetica,sans-Serif" font-size="10.00">ImFusion::Controller</text>
</a>
</g>
</g>
<!-- Node4&#45;&gt;Node3 -->
<g id="edge3_Node000003_Node000004" class="edge">
<title>Node4&#45;&gt;Node3</title>
<g id="a_edge3_Node000003_Node000004"><a xlink:title=" ">
<path fill="none" stroke="#63b8ff" d="M153.97,-114.44C165.85,-105.14 180.39,-93.76 190.26,-86.02"/>
<polygon fill="#63b8ff" stroke="#63b8ff" points="152.07,-111.49 146.35,-120.41 156.38,-117 152.07,-111.49"/>
</a>
</g>
</g>
<!-- Node5 -->
<g id="Node000005" class="node">
<title>Node5</title>
<g id="a_Node000005"><a xlink:href="class_im_fusion_1_1_configurable.html" target="_top" xlink:title="Base interface for classes that support object serialization from/to Properties objects.">
<polygon fill="white" stroke="#666666" points="117.25,-196.25 0,-196.25 0,-177 117.25,-177 117.25,-196.25"/>
<text xml:space="preserve" text-anchor="middle" x="58.62" y="-182.75" font-family="Helvetica,sans-Serif" font-size="10.00">ImFusion::Configurable</text>
</a>
</g>
</g>
<!-- Node5&#45;&gt;Node4 -->
<g id="edge4_Node000004_Node000005" class="edge">
<title>Node5&#45;&gt;Node4</title>
<g id="a_edge4_Node000004_Node000005"><a xlink:title=" ">
<path fill="none" stroke="#63b8ff" d="M80.62,-170.01C93.7,-160.72 109.83,-149.27 120.84,-141.45"/>
<polygon fill="#63b8ff" stroke="#63b8ff" points="78.71,-167.07 72.58,-175.72 82.76,-172.78 78.71,-167.07"/>
</a>
</g>
</g>
<!-- Node6 -->
<g id="Node000006" class="node">
<title>Node6</title>
<g id="a_Node000006"><a xlink:href="class_im_fusion_1_1_utils_1_1_not_copyable.html" target="_top" xlink:title="Inherit from this class if your class should be neither copy&#45;constructible nor assignable.">
<polygon fill="white" stroke="#666666" points="281.5,-196.25 135.75,-196.25 135.75,-177 281.5,-177 281.5,-196.25"/>
<text xml:space="preserve" text-anchor="middle" x="208.62" y="-182.75" font-family="Helvetica,sans-Serif" font-size="10.00">ImFusion::Utils::NotCopyable</text>
</a>
</g>
</g>
<!-- Node6&#45;&gt;Node4 -->
<g id="edge5_Node000004_Node000006" class="edge">
<title>Node6&#45;&gt;Node4</title>
<g id="a_edge5_Node000004_Node000006"><a xlink:title=" ">
<path fill="none" stroke="#8b1a1a" d="M186.63,-170.01C173.55,-160.72 157.42,-149.27 146.41,-141.45"/>
<polygon fill="#8b1a1a" stroke="#8b1a1a" points="184.49,-172.78 194.67,-175.72 188.54,-167.07 184.49,-172.78"/>
</a>
</g>
</g>
<!-- Node7 -->
<g id="Node000007" class="node">
<title>Node7</title>
<g id="a_Node000007"><a xlink:href="class_im_fusion_1_1_signal_receiver.html" target="_top" xlink:title="Base class for classes that can contain slots (i.e.">
<polygon fill="white" stroke="#666666" points="332.88,-141 204.38,-141 204.38,-121.75 332.88,-121.75 332.88,-141"/>
<text xml:space="preserve" text-anchor="middle" x="268.62" y="-127.5" font-family="Helvetica,sans-Serif" font-size="10.00">ImFusion::SignalReceiver</text>
</a>
</g>
</g>
<!-- Node7&#45;&gt;Node3 -->
<g id="edge6_Node000003_Node000007" class="edge">
<title>Node7&#45;&gt;Node3</title>
<g id="a_edge6_Node000003_Node000007"><a xlink:title=" ">
<path fill="none" stroke="#63b8ff" d="M248.58,-114.44C236.88,-105.14 222.55,-93.76 212.82,-86.02"/>
<polygon fill="#63b8ff" stroke="#63b8ff" points="246.07,-116.92 256.07,-120.4 250.42,-111.44 246.07,-116.92"/>
</a>
</g>
</g>
</g>
</svg>
