<?xml version="1.0" encoding="UTF-8" standalone="no"?>
<!DOCTYPE svg PUBLIC "-//W3C//DTD SVG 1.1//EN"
 "http://www.w3.org/Graphics/SVG/1.1/DTD/svg11.dtd">
<!-- Generated by graphviz version 14.1.4 (20260321.0153)
 -->
<!-- Title: ImFusion::PolymorphicSubProperty&lt; T &gt; Pages: 1 -->
<svg width="284pt" height="160pt"
 viewBox="0.00 0.00 284.00 160.00" xmlns="http://www.w3.org/2000/svg" xmlns:xlink="http://www.w3.org/1999/xlink">
<g id="graph0" class="graph" transform="scale(1 1) rotate(0) translate(4 156.25)">
<title>ImFusion::PolymorphicSubProperty&lt; T &gt;</title>
<!-- Node1 -->
<g id="Node000001" class="node">
<title>Node1</title>
<g id="a_Node000001"><a xlink:title="This class extends SubProperty to represent a nested record of a polymorphic Configurable entity.">
<polygon fill="#999999" stroke="#666666" points="204.88,-30.5 71.12,-30.5 71.12,0 204.88,0 204.88,-30.5"/>
<text xml:space="preserve" text-anchor="start" x="79.12" y="-17" font-family="Helvetica,sans-Serif" font-size="10.00">ImFusion::PolymorphicSub</text>
<text xml:space="preserve" text-anchor="middle" x="138" y="-5.75" font-family="Helvetica,sans-Serif" font-size="10.00">Property&lt; T &gt;</text>
</a>
</g>
</g>
<!-- Node2 -->
<g id="Node000002" class="node">
<title>Node2</title>
<g id="a_Node000002"><a xlink:href="class_im_fusion_1_1_sub_property.html" target="_top" xlink:title=" ">
<polygon fill="white" stroke="#666666" points="199.25,-97 76.75,-97 76.75,-66.5 199.25,-66.5 199.25,-97"/>
<text xml:space="preserve" text-anchor="start" x="84.75" y="-83.5" font-family="Helvetica,sans-Serif" font-size="10.00">ImFusion::SubProperty</text>
<text xml:space="preserve" text-anchor="middle" x="138" y="-72.25" font-family="Helvetica,sans-Serif" font-size="10.00">&lt; std::unique_ptr&lt; T &gt; &gt;</text>
</a>
</g>
</g>
<!-- Node2&#45;&gt;Node1 -->
<g id="edge1_Node000001_Node000002" class="edge">
<title>Node2&#45;&gt;Node1</title>
<g id="a_edge1_Node000001_Node000002"><a xlink:title=" ">
<path fill="none" stroke="#63b8ff" d="M138,-54.81C138,-46.64 138,-37.91 138,-30.83"/>
<polygon fill="#63b8ff" stroke="#63b8ff" points="134.5,-54.6 138,-64.6 141.5,-54.6 134.5,-54.6"/>
</a>
</g>
</g>
<!-- Node3 -->
<g id="Node000003" class="node">
<title>Node3</title>
<g id="a_Node000003"><a xlink:href="class_im_fusion_1_1_parameter_base.html" target="_top" xlink:title="Shared base interface of Parameter and SubProperty so that Configurable can maintain a collection of ...">
<polygon fill="white" stroke="#666666" points="130,-152.25 0,-152.25 0,-133 130,-133 130,-152.25"/>
<text xml:space="preserve" text-anchor="middle" x="65" y="-138.75" font-family="Helvetica,sans-Serif" font-size="10.00">ImFusion::ParameterBase</text>
</a>
</g>
</g>
<!-- Node3&#45;&gt;Node2 -->
<g id="edge2_Node000002_Node000003" class="edge">
<title>Node3&#45;&gt;Node2</title>
<g id="a_edge2_Node000002_Node000003"><a xlink:title=" ">
<path fill="none" stroke="#63b8ff" d="M84.92,-125.56C95.87,-116.73 109.35,-105.86 119.98,-97.28"/>
<polygon fill="#63b8ff" stroke="#63b8ff" points="82.85,-122.73 77.27,-131.73 87.25,-128.18 82.85,-122.73"/>
</a>
</g>
</g>
<!-- Node4 -->
<g id="Node000004" class="node">
<title>Node4</title>
<g id="a_Node000004"><a xlink:href="class_im_fusion_1_1_signal_receiver.html" target="_top" xlink:title="Base class for classes that can contain slots (i.e.">
<polygon fill="white" stroke="#666666" points="276.25,-152.25 147.75,-152.25 147.75,-133 276.25,-133 276.25,-152.25"/>
<text xml:space="preserve" text-anchor="middle" x="212" y="-138.75" font-family="Helvetica,sans-Serif" font-size="10.00">ImFusion::SignalReceiver</text>
</a>
</g>
</g>
<!-- Node4&#45;&gt;Node2 -->
<g id="edge3_Node000002_Node000004" class="edge">
<title>Node4&#45;&gt;Node2</title>
<g id="a_edge3_Node000002_Node000004"><a xlink:title=" ">
<path fill="none" stroke="#63b8ff" d="M191.8,-125.56C180.7,-116.73 167.04,-105.86 156.27,-97.28"/>
<polygon fill="#63b8ff" stroke="#63b8ff" points="189.57,-128.25 199.58,-131.74 193.93,-122.78 189.57,-128.25"/>
</a>
</g>
</g>
</g>
</svg>
