<?xml version="1.0" encoding="UTF-8" standalone="no"?>
<!DOCTYPE svg PUBLIC "-//W3C//DTD SVG 1.1//EN"
 "http://www.w3.org/Graphics/SVG/1.1/DTD/svg11.dtd">
<!-- Generated by graphviz version 14.1.4 (20260321.0153)
 -->
<!-- Title: ImFusion::ViewGroup Pages: 1 -->
<svg width="300pt" height="138pt"
 viewBox="0.00 0.00 300.00 138.00" xmlns="http://www.w3.org/2000/svg" xmlns:xlink="http://www.w3.org/1999/xlink">
<g id="graph0" class="graph" transform="scale(1 1) rotate(0) translate(4 134.25)">
<title>ImFusion::ViewGroup</title>
<!-- Node1 -->
<g id="Node000001" class="node">
<title>Node1</title>
<g id="a_Node000001"><a xlink:title="Non&#45;owning container of multiple views that share and sync properties with each other.">
<polygon fill="#999999" stroke="#666666" points="292.25,-74.25 181.75,-74.25 181.75,-55 292.25,-55 292.25,-74.25"/>
<text xml:space="preserve" text-anchor="middle" x="237" y="-60.75" font-family="Helvetica,sans-Serif" font-size="10.00">ImFusion::ViewGroup</text>
</a>
</g>
</g>
<!-- Node2 -->
<g id="Node000002" class="node">
<title>Node2</title>
<g id="a_Node000002"><a xlink:title=" ">
<polygon fill="white" stroke="#bfbfbf" points="98.88,-130.25 46.88,-130.25 46.88,-111 98.88,-111 98.88,-130.25"/>
<text xml:space="preserve" text-anchor="middle" x="72.88" y="-116.75" font-family="Helvetica,sans-Serif" font-size="10.00">QObject</text>
</a>
</g>
</g>
<!-- Node2&#45;&gt;Node1 -->
<g id="edge1_Node000001_Node000002" class="edge">
<title>Node2&#45;&gt;Node1</title>
<g id="a_edge1_Node000001_Node000002"><a xlink:title=" ">
<path fill="none" stroke="#63b8ff" d="M110.11,-112.7C121.61,-109.88 134.31,-106.44 145.75,-102.62 169.94,-94.56 196.77,-82.9 214.84,-74.62"/>
<polygon fill="#63b8ff" stroke="#63b8ff" points="109.49,-109.25 100.57,-114.96 111.1,-116.06 109.49,-109.25"/>
</a>
</g>
</g>
<!-- Node3 -->
<g id="Node000003" class="node">
<title>Node3</title>
<g id="a_Node000003"><a xlink:href="class_im_fusion_1_1_configurable.html" target="_top" xlink:title="Base interface for classes that support object serialization from/to Properties objects.">
<polygon fill="white" stroke="#666666" points="131.5,-93.25 14.25,-93.25 14.25,-74 131.5,-74 131.5,-93.25"/>
<text xml:space="preserve" text-anchor="middle" x="72.88" y="-79.75" font-family="Helvetica,sans-Serif" font-size="10.00">ImFusion::Configurable</text>
</a>
</g>
</g>
<!-- Node3&#45;&gt;Node1 -->
<g id="edge2_Node000001_Node000003" class="edge">
<title>Node3&#45;&gt;Node1</title>
<g id="a_edge2_Node000001_Node000003"><a xlink:title=" ">
<path fill="none" stroke="#63b8ff" d="M143.05,-75.52C155.84,-74.02 169.03,-72.47 181.31,-71.03"/>
<polygon fill="#63b8ff" stroke="#63b8ff" points="142.98,-72 133.45,-76.64 143.79,-78.96 142.98,-72"/>
</a>
</g>
</g>
<!-- Node4 -->
<g id="Node000004" class="node">
<title>Node4</title>
<g id="a_Node000004"><a xlink:href="class_im_fusion_1_1_signal_receiver.html" target="_top" xlink:title="Base class for classes that can contain slots (i.e.">
<polygon fill="white" stroke="#666666" points="137.12,-56.25 8.62,-56.25 8.62,-37 137.12,-37 137.12,-56.25"/>
<text xml:space="preserve" text-anchor="middle" x="72.88" y="-42.75" font-family="Helvetica,sans-Serif" font-size="10.00">ImFusion::SignalReceiver</text>
</a>
</g>
</g>
<!-- Node4&#45;&gt;Node1 -->
<g id="edge3_Node000001_Node000004" class="edge">
<title>Node4&#45;&gt;Node1</title>
<g id="a_edge3_Node000001_Node000004"><a xlink:title=" ">
<path fill="none" stroke="#63b8ff" d="M148.86,-54.95C159.86,-56.17 171.01,-57.41 181.5,-58.57"/>
<polygon fill="#63b8ff" stroke="#63b8ff" points="149.32,-51.48 138.99,-53.85 148.54,-58.44 149.32,-51.48"/>
</a>
</g>
</g>
<!-- Node5 -->
<g id="Node000005" class="node">
<title>Node5</title>
<g id="a_Node000005"><a xlink:href="class_im_fusion_1_1_utils_1_1_not_copyable.html" target="_top" xlink:title="Inherit from this class if your class should be neither copy&#45;constructible nor assignable.">
<polygon fill="white" stroke="#666666" points="145.75,-19.25 0,-19.25 0,0 145.75,0 145.75,-19.25"/>
<text xml:space="preserve" text-anchor="middle" x="72.88" y="-5.75" font-family="Helvetica,sans-Serif" font-size="10.00">ImFusion::Utils::NotCopyable</text>
</a>
</g>
</g>
<!-- Node5&#45;&gt;Node1 -->
<g id="edge4_Node000001_Node000005" class="edge">
<title>Node5&#45;&gt;Node1</title>
<g id="a_edge4_Node000001_Node000005"><a xlink:title=" ">
<path fill="none" stroke="#8b1a1a" d="M129.09,-22.59C134.75,-24.18 140.39,-25.86 145.75,-27.62 169.56,-35.44 196.01,-46.59 214.08,-54.6"/>
<polygon fill="#8b1a1a" stroke="#8b1a1a" points="130.28,-19.29 119.72,-20.07 128.46,-26.05 130.28,-19.29"/>
</a>
</g>
</g>
</g>
</svg>
