<?xml version="1.0" encoding="UTF-8" standalone="no"?>
<!DOCTYPE svg PUBLIC "-//W3C//DTD SVG 1.1//EN"
 "http://www.w3.org/Graphics/SVG/1.1/DTD/svg11.dtd">
<!-- Generated by graphviz version 14.1.4 (20260321.0153)
 -->
<!-- Title: ImFusion::LinearGridRegistration Pages: 1 -->
<svg width="370pt" height="260pt"
 viewBox="0.00 0.00 370.00 260.00" xmlns="http://www.w3.org/2000/svg" xmlns:xlink="http://www.w3.org/1999/xlink">
<g id="graph0" class="graph" transform="scale(1 1) rotate(0) translate(4 255.5)">
<title>ImFusion::LinearGridRegistration</title>
<!-- Node1 -->
<g id="Node000001" class="node">
<title>Node1</title>
<g id="a_Node000001"><a xlink:title="Registers a set of images arranged in a 2D grid.">
<polygon fill="#999999" stroke="#666666" points="297.25,-19.25 138,-19.25 138,0 297.25,0 297.25,-19.25"/>
<text xml:space="preserve" text-anchor="middle" x="217.62" y="-5.75" font-family="Helvetica,sans-Serif" font-size="10.00">ImFusion::LinearGridRegistration</text>
</a>
</g>
</g>
<!-- Node2 -->
<g id="Node000002" class="node">
<title>Node2</title>
<g id="a_Node000002"><a xlink:href="class_im_fusion_1_1_parametric_image_registration.html" target="_top" xlink:title="Base class for parametric image registration algorithms.">
<polygon fill="white" stroke="#666666" points="286,-85.75 149.25,-85.75 149.25,-55.25 286,-55.25 286,-85.75"/>
<text xml:space="preserve" text-anchor="start" x="157.25" y="-72.25" font-family="Helvetica,sans-Serif" font-size="10.00">ImFusion::ParametricImage</text>
<text xml:space="preserve" text-anchor="middle" x="217.62" y="-61" font-family="Helvetica,sans-Serif" font-size="10.00">Registration</text>
</a>
</g>
</g>
<!-- Node2&#45;&gt;Node1 -->
<g id="edge1_Node000001_Node000002" class="edge">
<title>Node2&#45;&gt;Node1</title>
<g id="a_edge1_Node000001_Node000002"><a xlink:title=" ">
<path fill="none" stroke="#63b8ff" d="M217.62,-43.48C217.62,-34.98 217.62,-26.09 217.62,-19.7"/>
<polygon fill="#63b8ff" stroke="#63b8ff" points="214.13,-43.43 217.63,-53.43 221.13,-43.43 214.13,-43.43"/>
</a>
</g>
</g>
<!-- Node3 -->
<g id="Node000003" class="node">
<title>Node3</title>
<g id="a_Node000003"><a xlink:href="class_im_fusion_1_1_abstract_image_registration.html" target="_top" xlink:title="The AbstractImageRegistration class is an interface for all image&#45;based registrations.">
<polygon fill="white" stroke="#666666" points="223,-141 44.25,-141 44.25,-121.75 223,-121.75 223,-141"/>
<text xml:space="preserve" text-anchor="middle" x="133.62" y="-127.5" font-family="Helvetica,sans-Serif" font-size="10.00">ImFusion::AbstractImageRegistration</text>
</a>
</g>
</g>
<!-- Node3&#45;&gt;Node2 -->
<g id="edge2_Node000002_Node000003" class="edge">
<title>Node3&#45;&gt;Node2</title>
<g id="a_edge2_Node000002_Node000003"><a xlink:title=" ">
<path fill="none" stroke="#63b8ff" d="M155.79,-114.84C168.52,-105.92 184.41,-94.78 196.89,-86.03"/>
<polygon fill="#63b8ff" stroke="#63b8ff" points="153.8,-111.96 147.62,-120.56 157.82,-117.69 153.8,-111.96"/>
</a>
</g>
</g>
<!-- Node4 -->
<g id="Node000004" class="node">
<title>Node4</title>
<g id="a_Node000004"><a xlink:href="class_im_fusion_1_1_algorithm.html" target="_top" xlink:title="Interface for describing algorithms that can be made available in the ImFusion Suite through Algorith...">
<polygon fill="white" stroke="#666666" points="185.5,-196.25 81.75,-196.25 81.75,-177 185.5,-177 185.5,-196.25"/>
<text xml:space="preserve" text-anchor="middle" x="133.62" y="-182.75" font-family="Helvetica,sans-Serif" font-size="10.00">ImFusion::Algorithm</text>
</a>
</g>
</g>
<!-- Node4&#45;&gt;Node3 -->
<g id="edge3_Node000003_Node000004" class="edge">
<title>Node4&#45;&gt;Node3</title>
<g id="a_edge3_Node000003_Node000004"><a xlink:title=" ">
<path fill="none" stroke="#63b8ff" d="M133.62,-165.38C133.62,-157.09 133.62,-147.92 133.62,-141.36"/>
<polygon fill="#63b8ff" stroke="#63b8ff" points="130.13,-165.32 133.63,-175.32 137.13,-165.32 130.13,-165.32"/>
</a>
</g>
</g>
<!-- Node5 -->
<g id="Node000005" class="node">
<title>Node5</title>
<g id="a_Node000005"><a xlink:href="class_im_fusion_1_1_configurable.html" target="_top" xlink:title="Base interface for classes that support object serialization from/to Properties objects.">
<polygon fill="white" stroke="#666666" points="117.25,-251.5 0,-251.5 0,-232.25 117.25,-232.25 117.25,-251.5"/>
<text xml:space="preserve" text-anchor="middle" x="58.62" y="-238" font-family="Helvetica,sans-Serif" font-size="10.00">ImFusion::Configurable</text>
</a>
</g>
</g>
<!-- Node5&#45;&gt;Node4 -->
<g id="edge4_Node000004_Node000005" class="edge">
<title>Node5&#45;&gt;Node4</title>
<g id="a_edge4_Node000004_Node000005"><a xlink:title=" ">
<path fill="none" stroke="#63b8ff" d="M80.62,-225.26C93.7,-215.97 109.83,-204.52 120.84,-196.7"/>
<polygon fill="#63b8ff" stroke="#63b8ff" points="78.71,-222.32 72.58,-230.97 82.76,-228.03 78.71,-222.32"/>
</a>
</g>
</g>
<!-- Node6 -->
<g id="Node000006" class="node">
<title>Node6</title>
<g id="a_Node000006"><a xlink:href="class_im_fusion_1_1_utils_1_1_not_copyable.html" target="_top" xlink:title="Inherit from this class if your class should be neither copy&#45;constructible nor assignable.">
<polygon fill="white" stroke="#666666" points="281.5,-251.5 135.75,-251.5 135.75,-232.25 281.5,-232.25 281.5,-251.5"/>
<text xml:space="preserve" text-anchor="middle" x="208.62" y="-238" font-family="Helvetica,sans-Serif" font-size="10.00">ImFusion::Utils::NotCopyable</text>
</a>
</g>
</g>
<!-- Node6&#45;&gt;Node4 -->
<g id="edge5_Node000004_Node000006" class="edge">
<title>Node6&#45;&gt;Node4</title>
<g id="a_edge5_Node000004_Node000006"><a xlink:title=" ">
<path fill="none" stroke="#8b1a1a" d="M186.63,-225.26C173.55,-215.97 157.42,-204.52 146.41,-196.7"/>
<polygon fill="#8b1a1a" stroke="#8b1a1a" points="184.49,-228.03 194.67,-230.97 188.54,-222.32 184.49,-228.03"/>
</a>
</g>
</g>
<!-- Node7 -->
<g id="Node000007" class="node">
<title>Node7</title>
<g id="a_Node000007"><a xlink:href="class_im_fusion_1_1_cost_function.html" target="_top" xlink:title="Interface for a cost function that can be optimized.">
<polygon fill="white" stroke="#666666" points="362.12,-141 241.12,-141 241.12,-121.75 362.12,-121.75 362.12,-141"/>
<text xml:space="preserve" text-anchor="middle" x="301.62" y="-127.5" font-family="Helvetica,sans-Serif" font-size="10.00">ImFusion::CostFunction</text>
</a>
</g>
</g>
<!-- Node7&#45;&gt;Node2 -->
<g id="edge6_Node000002_Node000007" class="edge">
<title>Node7&#45;&gt;Node2</title>
<g id="a_edge6_Node000002_Node000007"><a xlink:title=" ">
<path fill="none" stroke="#63b8ff" d="M279.46,-114.84C266.73,-105.92 250.84,-94.78 238.36,-86.03"/>
<polygon fill="#63b8ff" stroke="#63b8ff" points="277.43,-117.69 287.63,-120.56 281.45,-111.96 277.43,-117.69"/>
</a>
</g>
</g>
</g>
</svg>
