<?xml version="1.0" encoding="UTF-8" standalone="no"?>
<!DOCTYPE svg PUBLIC "-//W3C//DTD SVG 1.1//EN"
 "http://www.w3.org/Graphics/SVG/1.1/DTD/svg11.dtd">
<!-- Generated by graphviz version 14.1.4 (20260321.0153)
 -->
<!-- Title: ImFusion::GlScalarBarOverlay Pages: 1 -->
<svg width="157pt" height="138pt"
 viewBox="0.00 0.00 157.00 138.00" xmlns="http://www.w3.org/2000/svg" xmlns:xlink="http://www.w3.org/1999/xlink">
<g id="graph0" class="graph" transform="scale(1 1) rotate(0) translate(4 133.75)">
<title>ImFusion::GlScalarBarOverlay</title>
<!-- Node1 -->
<g id="Node000001" class="node">
<title>Node1</title>
<g id="a_Node000001"><a xlink:title="Overlay for displaying one or multiple named scalar values represented as colored bars.">
<polygon fill="#999999" stroke="#666666" points="148.75,-19.25 0,-19.25 0,0 148.75,0 148.75,-19.25"/>
<text xml:space="preserve" text-anchor="middle" x="74.38" y="-5.75" font-family="Helvetica,sans-Serif" font-size="10.00">ImFusion::GlScalarBarOverlay</text>
</a>
</g>
</g>
<!-- Node2 -->
<g id="Node000002" class="node">
<title>Node2</title>
<g id="a_Node000002"><a xlink:href="class_im_fusion_1_1_gl_overlay.html" target="_top" xlink:title="Abstract base class for OpenGL overlays.">
<polygon fill="white" stroke="#666666" points="127.38,-74.5 21.38,-74.5 21.38,-55.25 127.38,-55.25 127.38,-74.5"/>
<text xml:space="preserve" text-anchor="middle" x="74.38" y="-61" font-family="Helvetica,sans-Serif" font-size="10.00">ImFusion::GlOverlay</text>
</a>
</g>
</g>
<!-- Node2&#45;&gt;Node1 -->
<g id="edge1_Node000001_Node000002" class="edge">
<title>Node2&#45;&gt;Node1</title>
<g id="a_edge1_Node000001_Node000002"><a xlink:title=" ">
<path fill="none" stroke="#63b8ff" d="M74.38,-43.63C74.38,-35.34 74.38,-26.17 74.38,-19.61"/>
<polygon fill="#63b8ff" stroke="#63b8ff" points="70.88,-43.57 74.38,-53.57 77.88,-43.57 70.88,-43.57"/>
</a>
</g>
</g>
<!-- Node3 -->
<g id="Node000003" class="node">
<title>Node3</title>
<g id="a_Node000003"><a xlink:href="class_im_fusion_1_1_utils_1_1_not_copyable.html" target="_top" xlink:title="Inherit from this class if your class should be neither copy&#45;constructible nor assignable.">
<polygon fill="white" stroke="#666666" points="147.25,-129.75 1.5,-129.75 1.5,-110.5 147.25,-110.5 147.25,-129.75"/>
<text xml:space="preserve" text-anchor="middle" x="74.38" y="-116.25" font-family="Helvetica,sans-Serif" font-size="10.00">ImFusion::Utils::NotCopyable</text>
</a>
</g>
</g>
<!-- Node3&#45;&gt;Node2 -->
<g id="edge2_Node000002_Node000003" class="edge">
<title>Node3&#45;&gt;Node2</title>
<g id="a_edge2_Node000002_Node000003"><a xlink:title=" ">
<path fill="none" stroke="#8b1a1a" d="M74.38,-98.88C74.38,-90.59 74.38,-81.42 74.38,-74.86"/>
<polygon fill="#8b1a1a" stroke="#8b1a1a" points="70.88,-98.82 74.38,-108.82 77.88,-98.82 70.88,-98.82"/>
</a>
</g>
</g>
</g>
</svg>
