<?xml version="1.0" encoding="UTF-8" standalone="no"?>
<!DOCTYPE svg PUBLIC "-//W3C//DTD SVG 1.1//EN"
 "http://www.w3.org/Graphics/SVG/1.1/DTD/svg11.dtd">
<!-- Generated by graphviz version 14.1.4 (20260321.0153)
 -->
<!-- Title: ImFusion::GlCurvedViewCircle Pages: 1 -->
<svg width="377pt" height="370pt"
 viewBox="0.00 0.00 377.00 370.00" xmlns="http://www.w3.org/2000/svg" xmlns:xlink="http://www.w3.org/1999/xlink">

<svg id="main" version="1.1" xmlns="http://www.w3.org/2000/svg" xmlns:xlink="http://www.w3.org/1999/xlink" xml:space="preserve">

<style type="text/css"><![CDATA[
.node, .edge {opacity: 0.7;}
.node.selected, .edge.selected {opacity: 1;}
.edge:hover path { stroke: red; }
.edge:hover polygon { stroke: red; fill: red; }
]]></style>
<script type="application/ecmascript" xlink:href="svg.min.js"/>
<svg id="graph" class="graph">
<g id="graph0" class="graph" transform="scale(1 1) rotate(0) translate(4 366)">
<title>ImFusion::GlCurvedViewCircle</title>
<!-- Node1 -->
<g id="Node000001" class="node">
<title>Node1</title>
<g id="a_Node000001"><a xlink:title="Circle annotation for curved views.">
<polygon fill="#999999" stroke="#666666" points="307.88,-19.25 156.88,-19.25 156.88,0 307.88,0 307.88,-19.25"/>
<text xml:space="preserve" text-anchor="middle" x="232.38" y="-5.75" font-family="Helvetica,sans-Serif" font-size="10.00">ImFusion::GlCurvedViewCircle</text>
</a>
</g>
</g>
<!-- Node2 -->
<g id="Node000002" class="node">
<title>Node2</title>
<g id="a_Node000002"><a xlink:href="class_im_fusion_1_1_gl_circle.html" target="_top" xlink:title="Circle annotation.">
<polygon fill="white" stroke="#666666" points="243.25,-74.5 145.5,-74.5 145.5,-55.25 243.25,-55.25 243.25,-74.5"/>
<text xml:space="preserve" text-anchor="middle" x="194.38" y="-61" font-family="Helvetica,sans-Serif" font-size="10.00">ImFusion::GlCircle</text>
</a>
</g>
</g>
<!-- Node2&#45;&gt;Node1 -->
<g id="edge1_Node000001_Node000002" class="edge">
<title>Node2&#45;&gt;Node1</title>
<g id="a_edge1_Node000001_Node000002"><a xlink:title=" ">
<path fill="none" stroke="#63b8ff" d="M207.17,-45.94C213.49,-37.09 220.84,-26.79 225.96,-19.61"/>
<polygon fill="#63b8ff" stroke="#63b8ff" points="204.49,-43.68 201.53,-53.85 210.19,-47.74 204.49,-43.68"/>
</a>
</g>
</g>
<!-- Node3 -->
<g id="Node000003" class="node">
<title>Node3</title>
<g id="a_Node000003"><a xlink:href="class_im_fusion_1_1_gl_implicitly_planar_point_based_annotation.html" target="_top" xlink:title="Interface extension for point&#45;based annotations that span an area despite consisting of only 2 points...">
<polygon fill="white" stroke="#666666" points="245.88,-141 106.88,-141 106.88,-110.5 245.88,-110.5 245.88,-141"/>
<text xml:space="preserve" text-anchor="start" x="114.88" y="-127.5" font-family="Helvetica,sans-Serif" font-size="10.00">ImFusion::GlImplicitlyPlanar</text>
<text xml:space="preserve" text-anchor="middle" x="176.38" y="-116.25" font-family="Helvetica,sans-Serif" font-size="10.00">PointBasedAnnotation</text>
</a>
</g>
</g>
<!-- Node3&#45;&gt;Node2 -->
<g id="edge2_Node000002_Node000003" class="edge">
<title>Node3&#45;&gt;Node2</title>
<g id="a_edge2_Node000002_Node000003"><a xlink:title=" ">
<path fill="none" stroke="#63b8ff" d="M184.15,-99.32C186.8,-90.64 189.6,-81.48 191.6,-74.95"/>
<polygon fill="#63b8ff" stroke="#63b8ff" points="180.84,-98.16 181.27,-108.75 187.54,-100.21 180.84,-98.16"/>
</a>
</g>
</g>
<!-- Node4 -->
<g id="Node000004" class="node">
<title>Node4</title>
<g id="a_Node000004"><a xlink:href="class_im_fusion_1_1_gl_point_based_annotation.html" target="_top" xlink:title="Base class for implementing point&#45;based annotations.">
<polygon fill="white" stroke="#666666" points="242.88,-196.25 73.88,-196.25 73.88,-177 242.88,-177 242.88,-196.25"/>
<text xml:space="preserve" text-anchor="middle" x="158.38" y="-182.75" font-family="Helvetica,sans-Serif" font-size="10.00">ImFusion::GlPointBasedAnnotation</text>
</a>
</g>
</g>
<!-- Node4&#45;&gt;Node3 -->
<g id="edge3_Node000003_Node000004" class="edge">
<title>Node4&#45;&gt;Node3</title>
<g id="a_edge3_Node000003_Node000004"><a xlink:title=" ">
<path fill="none" stroke="#63b8ff" d="M164.47,-165.7C166.91,-157.7 169.68,-148.65 171.93,-141.28"/>
<polygon fill="#63b8ff" stroke="#63b8ff" points="161.13,-164.65 161.55,-175.24 167.82,-166.7 161.13,-164.65"/>
</a>
</g>
</g>
<!-- Node5 -->
<g id="Node000005" class="node">
<title>Node5</title>
<g id="a_Node000005"><a xlink:href="class_im_fusion_1_1_gl_annotation.html" target="_top" xlink:title="Base class for implementing annotations.">
<polygon fill="white" stroke="#666666" points="197.75,-251.5 79,-251.5 79,-232.25 197.75,-232.25 197.75,-251.5"/>
<text xml:space="preserve" text-anchor="middle" x="138.38" y="-238" font-family="Helvetica,sans-Serif" font-size="10.00">ImFusion::GlAnnotation</text>
</a>
</g>
</g>
<!-- Node5&#45;&gt;Node4 -->
<g id="edge4_Node000004_Node000005" class="edge">
<title>Node5&#45;&gt;Node4</title>
<g id="a_edge4_Node000004_Node000005"><a xlink:title=" ">
<path fill="none" stroke="#63b8ff" d="M145.65,-221.5C148.85,-212.99 152.45,-203.4 155,-196.61"/>
<polygon fill="#63b8ff" stroke="#63b8ff" points="142.45,-220.07 142.21,-230.66 149,-222.53 142.45,-220.07"/>
</a>
</g>
</g>
<!-- Node6 -->
<g id="Node000006" class="node">
<title>Node6</title>
<g id="a_Node000006"><a xlink:href="class_im_fusion_1_1_gl_object.html" target="_top" xlink:title="Abstract base class for an renderable OpenGL object that can be hosted in a GlView.">
<polygon fill="white" stroke="#666666" points="100.75,-306.75 0,-306.75 0,-287.5 100.75,-287.5 100.75,-306.75"/>
<text xml:space="preserve" text-anchor="middle" x="50.38" y="-293.25" font-family="Helvetica,sans-Serif" font-size="10.00">ImFusion::GlObject</text>
</a>
</g>
</g>
<!-- Node6&#45;&gt;Node5 -->
<g id="edge5_Node000005_Node000006" class="edge">
<title>Node6&#45;&gt;Node5</title>
<g id="a_edge5_Node000005_Node000006"><a xlink:title=" ">
<path fill="none" stroke="#63b8ff" d="M74.84,-281.32C90.41,-271.9 110.08,-260 123.37,-251.95"/>
<polygon fill="#63b8ff" stroke="#63b8ff" points="73.34,-278.14 66.6,-286.31 76.97,-284.13 73.34,-278.14"/>
</a>
</g>
</g>
<!-- Node7 -->
<g id="Node000007" class="node">
<title>Node7</title>
<g id="a_Node000007"><a xlink:href="class_im_fusion_1_1_configurable.html" target="_top" xlink:title="Base interface for classes that support object serialization from/to Properties objects.">
<polygon fill="white" stroke="#666666" points="230,-362 112.75,-362 112.75,-342.75 230,-342.75 230,-362"/>
<text xml:space="preserve" text-anchor="middle" x="171.38" y="-348.5" font-family="Helvetica,sans-Serif" font-size="10.00">ImFusion::Configurable</text>
</a>
</g>
</g>
<!-- Node7&#45;&gt;Node6 -->
<g id="edge6_Node000006_Node000007" class="edge">
<title>Node7&#45;&gt;Node6</title>
<g id="a_edge6_Node000006_Node000007"><a xlink:title=" ">
<path fill="none" stroke="#63b8ff" d="M140.46,-337.77C118.66,-328.18 90.07,-315.59 71,-307.2"/>
<polygon fill="#63b8ff" stroke="#63b8ff" points="138.9,-340.91 149.46,-341.73 141.72,-334.5 138.9,-340.91"/>
</a>
</g>
</g>
<!-- Node9 -->
<g id="Node000009" class="node">
<title>Node9</title>
<g id="a_Node000009"><a xlink:href="class_im_fusion_1_1_curved_view_primitive.html" target="_top" xlink:title="Interface for curved view primitives.">
<polygon fill="white" stroke="#666666" points="369.38,-251.5 215.38,-251.5 215.38,-232.25 369.38,-232.25 369.38,-251.5"/>
<text xml:space="preserve" text-anchor="middle" x="292.38" y="-238" font-family="Helvetica,sans-Serif" font-size="10.00">ImFusion::CurvedViewPrimitive</text>
</a>
</g>
</g>
<!-- Node7&#45;&gt;Node9 -->
<g id="edge9_Node000009_Node000007" class="edge">
<title>Node7&#45;&gt;Node9</title>
<g id="a_edge9_Node000009_Node000007"><a xlink:title=" ">
<path fill="none" stroke="#63b8ff" d="M223.13,-338.55C241.2,-331.76 260.22,-321.63 273.38,-306.75 287.32,-290.97 291.04,-265.34 292.03,-251.85"/>
<polygon fill="#63b8ff" stroke="#63b8ff" points="222.1,-335.2 213.79,-341.77 224.38,-341.82 222.1,-335.2"/>
</a>
</g>
</g>
<!-- Node8 -->
<g id="Node000008" class="node">
<title>Node8</title>
<g id="a_Node000008"><a xlink:href="class_im_fusion_1_1_utils_1_1_not_copyable.html" target="_top" xlink:title="Inherit from this class if your class should be neither copy&#45;constructible nor assignable.">
<polygon fill="white" stroke="#666666" points="264.25,-306.75 118.5,-306.75 118.5,-287.5 264.25,-287.5 264.25,-306.75"/>
<text xml:space="preserve" text-anchor="middle" x="191.38" y="-293.25" font-family="Helvetica,sans-Serif" font-size="10.00">ImFusion::Utils::NotCopyable</text>
</a>
</g>
</g>
<!-- Node8&#45;&gt;Node5 -->
<g id="edge7_Node000005_Node000008" class="edge">
<title>Node8&#45;&gt;Node5</title>
<g id="a_edge7_Node000005_Node000008"><a xlink:title=" ">
<path fill="none" stroke="#8b1a1a" d="M174.65,-279.32C165.6,-270.23 154.77,-259.35 147.32,-251.86"/>
<polygon fill="#8b1a1a" stroke="#8b1a1a" points="172.02,-281.64 181.56,-286.26 176.98,-276.7 172.02,-281.64"/>
</a>
</g>
</g>
<!-- Node9&#45;&gt;Node1 -->
<g id="edge8_Node000001_Node000009" class="edge">
<title>Node9&#45;&gt;Node1</title>
<g id="a_edge8_Node000001_Node000009"><a xlink:title=" ">
<path fill="none" stroke="#63b8ff" d="M289.42,-220.51C284.08,-185.95 271.59,-113.86 252.38,-55.25 248.2,-42.5 241.56,-28.49 237.09,-19.63"/>
<polygon fill="#63b8ff" stroke="#63b8ff" points="285.94,-220.94 290.89,-230.31 292.87,-219.91 285.94,-220.94"/>
</a>
</g>
</g>
</g>
</svg>
</svg>

<style type='text/css'>
<![CDATA[
[data-mouse-over-selected='false'] { opacity: 0.7; }
[data-mouse-over-selected='true']  { opacity: 1.0; }
]]>
</style>
<script type="application/ecmascript"><![CDATA[
document.addEventListener('DOMContentLoaded', (event) => {
  highlightEdges();
  highlightAdjacentNodes();
});
]]></script>
</svg>
