<?xml version="1.0" encoding="UTF-8" standalone="no"?>
<!DOCTYPE svg PUBLIC "-//W3C//DTD SVG 1.1//EN"
 "http://www.w3.org/Graphics/SVG/1.1/DTD/svg11.dtd">
<!-- Generated by graphviz version 14.1.4 (20260321.0153)
 -->
<!-- Title: ImFusion::SimilarityMeasureFactory Pages: 1 -->
<svg width="290pt" height="94pt"
 viewBox="0.00 0.00 290.00 94.00" xmlns="http://www.w3.org/2000/svg" xmlns:xlink="http://www.w3.org/1999/xlink">
<g id="graph0" class="graph" transform="scale(1 1) rotate(0) translate(4 89.75)">
<title>ImFusion::SimilarityMeasureFactory</title>
<!-- Node1 -->
<g id="Node000001" class="node">
<title>Node1</title>
<g id="a_Node000001"><a xlink:title="The SimilarityMeasureFactory class provides a generic interface to any kind of SimilarityMeasure.">
<polygon fill="#999999" stroke="#666666" points="203.88,-30.5 63.38,-30.5 63.38,0 203.88,0 203.88,-30.5"/>
<text xml:space="preserve" text-anchor="start" x="71.38" y="-17" font-family="Helvetica,sans-Serif" font-size="10.00">ImFusion::SimilarityMeasure</text>
<text xml:space="preserve" text-anchor="middle" x="133.62" y="-5.75" font-family="Helvetica,sans-Serif" font-size="10.00">Factory</text>
</a>
</g>
</g>
<!-- Node2 -->
<g id="Node000002" class="node">
<title>Node2</title>
<g id="a_Node000002"><a xlink:href="class_im_fusion_1_1_configurable.html" target="_top" xlink:title="Base interface for classes that support object serialization from/to Properties objects.">
<polygon fill="white" stroke="#666666" points="117.25,-85.75 0,-85.75 0,-66.5 117.25,-66.5 117.25,-85.75"/>
<text xml:space="preserve" text-anchor="middle" x="58.62" y="-72.25" font-family="Helvetica,sans-Serif" font-size="10.00">ImFusion::Configurable</text>
</a>
</g>
</g>
<!-- Node2&#45;&gt;Node1 -->
<g id="edge1_Node000001_Node000002" class="edge">
<title>Node2&#45;&gt;Node1</title>
<g id="a_edge1_Node000001_Node000002"><a xlink:title=" ">
<path fill="none" stroke="#63b8ff" d="M78.75,-59.32C90.06,-50.45 104.08,-39.44 115.11,-30.78"/>
<polygon fill="#63b8ff" stroke="#63b8ff" points="76.91,-56.32 71.21,-65.25 81.23,-61.83 76.91,-56.32"/>
</a>
</g>
</g>
<!-- Node3 -->
<g id="Node000003" class="node">
<title>Node3</title>
<g id="a_Node000003"><a xlink:href="class_im_fusion_1_1_utils_1_1_not_copyable.html" target="_top" xlink:title="Inherit from this class if your class should be neither copy&#45;constructible nor assignable.">
<polygon fill="white" stroke="#666666" points="281.5,-85.75 135.75,-85.75 135.75,-66.5 281.5,-66.5 281.5,-85.75"/>
<text xml:space="preserve" text-anchor="middle" x="208.62" y="-72.25" font-family="Helvetica,sans-Serif" font-size="10.00">ImFusion::Utils::NotCopyable</text>
</a>
</g>
</g>
<!-- Node3&#45;&gt;Node1 -->
<g id="edge2_Node000001_Node000003" class="edge">
<title>Node3&#45;&gt;Node1</title>
<g id="a_edge2_Node000001_Node000003"><a xlink:title=" ">
<path fill="none" stroke="#8b1a1a" d="M188.5,-59.32C177.19,-50.45 163.17,-39.44 152.14,-30.78"/>
<polygon fill="#8b1a1a" stroke="#8b1a1a" points="186.02,-61.83 196.04,-65.25 190.34,-56.32 186.02,-61.83"/>
</a>
</g>
</g>
</g>
</svg>
