<?xml version="1.0" encoding="UTF-8" standalone="no"?>
<!DOCTYPE svg PUBLIC "-//W3C//DTD SVG 1.1//EN"
 "http://www.w3.org/Graphics/SVG/1.1/DTD/svg11.dtd">
<!-- Generated by graphviz version 14.1.4 (20260321.0153)
 -->
<!-- Title: ImFusion::MeshManipulator Pages: 1 -->
<svg width="280pt" height="149pt"
 viewBox="0.00 0.00 280.00 149.00" xmlns="http://www.w3.org/2000/svg" xmlns:xlink="http://www.w3.org/1999/xlink">
<g id="graph0" class="graph" transform="scale(1 1) rotate(0) translate(4 145)">
<title>ImFusion::MeshManipulator</title>
<!-- Node1 -->
<g id="Node000001" class="node">
<title>Node1</title>
<g id="a_Node000001"><a xlink:title="Mesh manipulator with 3d controls.">
<polygon fill="#999999" stroke="#666666" points="208.75,-19.25 72,-19.25 72,0 208.75,0 208.75,-19.25"/>
<text xml:space="preserve" text-anchor="middle" x="140.38" y="-5.75" font-family="Helvetica,sans-Serif" font-size="10.00">ImFusion::MeshManipulator</text>
</a>
</g>
</g>
<!-- Node2 -->
<g id="Node000002" class="node">
<title>Node2</title>
<g id="a_Node000002"><a xlink:href="class_im_fusion_1_1_manipulator.html" target="_top" xlink:title="Abstract base class for manipulator objects.">
<polygon fill="white" stroke="#666666" points="134.75,-74.5 22,-74.5 22,-55.25 134.75,-55.25 134.75,-74.5"/>
<text xml:space="preserve" text-anchor="middle" x="78.38" y="-61" font-family="Helvetica,sans-Serif" font-size="10.00">ImFusion::Manipulator</text>
</a>
</g>
</g>
<!-- Node2&#45;&gt;Node1 -->
<g id="edge1_Node000001_Node000002" class="edge">
<title>Node2&#45;&gt;Node1</title>
<g id="a_edge1_Node000001_Node000002"><a xlink:title=" ">
<path fill="none" stroke="#63b8ff" d="M97.57,-47.39C108.28,-38.19 121.19,-27.1 130.01,-19.52"/>
<polygon fill="#63b8ff" stroke="#63b8ff" points="95.35,-44.69 90.04,-53.86 99.91,-50 95.35,-44.69"/>
</a>
</g>
</g>
<!-- Node3 -->
<g id="Node000003" class="node">
<title>Node3</title>
<g id="a_Node000003"><a xlink:href="class_im_fusion_1_1_g_u_i_1_1_view_object_1_1_event_handler.html" target="_top" xlink:title="Interface to be used as base class for event handlers of ViewObjects.">
<polygon fill="white" stroke="#666666" points="136.75,-141 0,-141 0,-110.5 136.75,-110.5 136.75,-141"/>
<text xml:space="preserve" text-anchor="start" x="8" y="-127.5" font-family="Helvetica,sans-Serif" font-size="10.00">ImFusion::GUI::ViewObject</text>
<text xml:space="preserve" text-anchor="middle" x="68.38" y="-116.25" font-family="Helvetica,sans-Serif" font-size="10.00">::EventHandler</text>
</a>
</g>
</g>
<!-- Node3&#45;&gt;Node2 -->
<g id="edge2_Node000002_Node000003" class="edge">
<title>Node3&#45;&gt;Node2</title>
<g id="a_edge2_Node000002_Node000003"><a xlink:title=" ">
<path fill="none" stroke="#63b8ff" d="M72.74,-99.03C74.2,-90.43 75.74,-81.41 76.83,-74.95"/>
<polygon fill="#63b8ff" stroke="#63b8ff" points="69.32,-98.26 71.1,-108.7 76.23,-99.43 69.32,-98.26"/>
</a>
</g>
</g>
<!-- Node4 -->
<g id="Node000004" class="node">
<title>Node4</title>
<g id="a_Node000004"><a xlink:href="class_im_fusion_1_1_gl_object.html" target="_top" xlink:title="Abstract base class for an renderable OpenGL object that can be hosted in a GlView.">
<polygon fill="white" stroke="#666666" points="258.75,-74.5 158,-74.5 158,-55.25 258.75,-55.25 258.75,-74.5"/>
<text xml:space="preserve" text-anchor="middle" x="208.38" y="-61" font-family="Helvetica,sans-Serif" font-size="10.00">ImFusion::GlObject</text>
</a>
</g>
</g>
<!-- Node4&#45;&gt;Node1 -->
<g id="edge3_Node000001_Node000004" class="edge">
<title>Node4&#45;&gt;Node1</title>
<g id="a_edge3_Node000001_Node000004"><a xlink:title=" ">
<path fill="none" stroke="#63b8ff" d="M188.03,-47.94C176.15,-38.64 161.61,-27.26 151.74,-19.52"/>
<polygon fill="#63b8ff" stroke="#63b8ff" points="185.62,-50.5 195.65,-53.91 189.93,-44.99 185.62,-50.5"/>
</a>
</g>
</g>
<!-- Node5 -->
<g id="Node000005" class="node">
<title>Node5</title>
<g id="a_Node000005"><a xlink:href="class_im_fusion_1_1_configurable.html" target="_top" xlink:title="Base interface for classes that support object serialization from/to Properties objects.">
<polygon fill="white" stroke="#666666" points="272,-135.38 154.75,-135.38 154.75,-116.12 272,-116.12 272,-135.38"/>
<text xml:space="preserve" text-anchor="middle" x="213.38" y="-121.88" font-family="Helvetica,sans-Serif" font-size="10.00">ImFusion::Configurable</text>
</a>
</g>
</g>
<!-- Node5&#45;&gt;Node4 -->
<g id="edge4_Node000004_Node000005" class="edge">
<title>Node5&#45;&gt;Node4</title>
<g id="a_edge4_Node000004_Node000005"><a xlink:title=" ">
<path fill="none" stroke="#63b8ff" d="M211.67,-104.66C210.81,-94.55 209.81,-82.8 209.14,-74.9"/>
<polygon fill="#63b8ff" stroke="#63b8ff" points="208.15,-104.63 212.49,-114.3 215.13,-104.04 208.15,-104.63"/>
</a>
</g>
</g>
</g>
</svg>
