<?xml version="1.0" encoding="UTF-8" standalone="no"?>
<!DOCTYPE svg PUBLIC "-//W3C//DTD SVG 1.1//EN"
 "http://www.w3.org/Graphics/SVG/1.1/DTD/svg11.dtd">
<!-- Generated by graphviz version 14.1.4 (20260321.0153)
 -->
<!-- Title: ImFusion::GUI::QtDisplayWindow Pages: 1 -->
<svg width="214pt" height="160pt"
 viewBox="0.00 0.00 214.00 160.00" xmlns="http://www.w3.org/2000/svg" xmlns:xlink="http://www.w3.org/1999/xlink">
<g id="graph0" class="graph" transform="scale(1 1) rotate(0) translate(4 156.25)">
<title>ImFusion::GUI::QtDisplayWindow</title>
<!-- Node1 -->
<g id="Node000001" class="node">
<title>Node1</title>
<g id="a_Node000001"><a xlink:title="Specialization of a QWindow that allows for rendering the contents of a Display directly into the win...">
<polygon fill="#999999" stroke="#666666" points="150.38,-30.5 20.38,-30.5 20.38,0 150.38,0 150.38,-30.5"/>
<text xml:space="preserve" text-anchor="start" x="28.38" y="-17" font-family="Helvetica,sans-Serif" font-size="10.00">ImFusion::GUI::QtDisplay</text>
<text xml:space="preserve" text-anchor="middle" x="85.38" y="-5.75" font-family="Helvetica,sans-Serif" font-size="10.00">Window</text>
</a>
</g>
</g>
<!-- Node2 -->
<g id="Node000002" class="node">
<title>Node2</title>
<g id="a_Node000002"><a xlink:title=" ">
<polygon fill="white" stroke="#bfbfbf" points="58.75,-91.38 0,-91.38 0,-72.12 58.75,-72.12 58.75,-91.38"/>
<text xml:space="preserve" text-anchor="middle" x="29.38" y="-77.88" font-family="Helvetica,sans-Serif" font-size="10.00">QWindow</text>
</a>
</g>
</g>
<!-- Node2&#45;&gt;Node1 -->
<g id="edge1_Node000001_Node000002" class="edge">
<title>Node2&#45;&gt;Node1</title>
<g id="a_edge1_Node000001_Node000002"><a xlink:title=" ">
<path fill="none" stroke="#63b8ff" d="M44.57,-63.25C53.46,-53.01 64.55,-40.24 72.92,-30.59"/>
<polygon fill="#63b8ff" stroke="#63b8ff" points="42.07,-60.79 38.15,-70.64 47.35,-65.38 42.07,-60.79"/>
</a>
</g>
</g>
<!-- Node3 -->
<g id="Node000003" class="node">
<title>Node3</title>
<g id="a_Node000003"><a xlink:href="class_im_fusion_1_1_g_u_i_1_1_qt_display_wrapper_base.html" target="_top" xlink:title="Abstract base interface for wrappers of a Display that embed them in a Qt&#45;based GUI application.">
<polygon fill="white" stroke="#666666" points="206.38,-97 76.38,-97 76.38,-66.5 206.38,-66.5 206.38,-97"/>
<text xml:space="preserve" text-anchor="start" x="84.38" y="-83.5" font-family="Helvetica,sans-Serif" font-size="10.00">ImFusion::GUI::QtDisplay</text>
<text xml:space="preserve" text-anchor="middle" x="141.38" y="-72.25" font-family="Helvetica,sans-Serif" font-size="10.00">WrapperBase</text>
</a>
</g>
</g>
<!-- Node3&#45;&gt;Node1 -->
<g id="edge2_Node000001_Node000003" class="edge">
<title>Node3&#45;&gt;Node1</title>
<g id="a_edge2_Node000001_Node000003"><a xlink:title=" ">
<path fill="none" stroke="#63b8ff" d="M121.3,-57.63C113.54,-48.69 104.9,-38.74 98.03,-30.83"/>
<polygon fill="#63b8ff" stroke="#63b8ff" points="118.48,-59.71 127.68,-64.97 123.76,-55.13 118.48,-59.71"/>
</a>
</g>
</g>
<!-- Node4 -->
<g id="Node000004" class="node">
<title>Node4</title>
<g id="a_Node000004"><a xlink:href="class_im_fusion_1_1_signal_receiver.html" target="_top" xlink:title="Base class for classes that can contain slots (i.e.">
<polygon fill="white" stroke="#666666" points="205.62,-152.25 77.12,-152.25 77.12,-133 205.62,-133 205.62,-152.25"/>
<text xml:space="preserve" text-anchor="middle" x="141.38" y="-138.75" font-family="Helvetica,sans-Serif" font-size="10.00">ImFusion::SignalReceiver</text>
</a>
</g>
</g>
<!-- Node4&#45;&gt;Node3 -->
<g id="edge3_Node000003_Node000004" class="edge">
<title>Node4&#45;&gt;Node3</title>
<g id="a_edge3_Node000003_Node000004"><a xlink:title=" ">
<path fill="none" stroke="#63b8ff" d="M141.38,-121.42C141.38,-113.49 141.38,-104.56 141.38,-97.28"/>
<polygon fill="#63b8ff" stroke="#63b8ff" points="137.88,-121.17 141.38,-131.17 144.88,-121.17 137.88,-121.17"/>
</a>
</g>
</g>
</g>
</svg>
