<?xml version="1.0" encoding="UTF-8" standalone="no"?>
<!DOCTYPE svg PUBLIC "-//W3C//DTD SVG 1.1//EN"
 "http://www.w3.org/Graphics/SVG/1.1/DTD/svg11.dtd">
<!-- Generated by graphviz version 14.1.4 (20260321.0153)
 -->
<!-- Title: ImFusion::GL::MultiAbstractIncludeBase Pages: 1 -->
<!--zoomable 110 -->

<svg id="main" version="1.1" xmlns="http://www.w3.org/2000/svg" xmlns:xlink="http://www.w3.org/1999/xlink" xml:space="preserve" onload="init(evt)">

<style type="text/css"><![CDATA[
.node, .edge {opacity: 0.7;}
.node.selected, .edge.selected {opacity: 1;}
.edge:hover path { stroke: red; }
.edge:hover polygon { stroke: red; fill: red; }
]]></style>

<defs>
  <circle id="rim" cx="0" cy="0" r="7"/>
  <circle id="rim2" cx="0" cy="0" r="3.5"/>
  <g id="zoomPlus">
    <use xlink:href="#rim" fill="#404040"><set attributeName="fill" to="#808080" begin="zoomplus.mouseover" end="zoomplus.mouseout"/></use>
    <path d="M-4,0h8M0,-4v8" fill="none" stroke="white" stroke-width="1.5" pointer-events="none"/>
  </g>
  <g id="zoomMin">
    <use xlink:href="#rim" fill="#404040"><set attributeName="fill" to="#808080" begin="zoomminus.mouseover" end="zoomminus.mouseout"/></use>
    <path d="M-4,0h8" fill="none" stroke="white" stroke-width="1.5" pointer-events="none"/>
  </g>
  <g id="arrowUp" transform="translate(30 24)">
    <use xlink:href="#rim"/>
    <path pointer-events="none" fill="none" stroke="white" stroke-width="1.5" d="M0,-3.0v7 M-2.5,-0.5L0,-3.0L2.5,-0.5"/>
  </g>
  <g id="arrowRight" transform="rotate(90) translate(36 -43)">
    <use xlink:href="#rim"/>
    <path pointer-events="none" fill="none" stroke="white" stroke-width="1.5" d="M0,-3.0v7 M-2.5,-0.5L0,-3.0L2.5,-0.5"/>
  </g>
  <g id="arrowDown" transform="rotate(180) translate(-30 -48)">
    <use xlink:href="#rim"/>
    <path pointer-events="none" fill="none" stroke="white" stroke-width="1.5" d="M0,-3.0v7 M-2.5,-0.5L0,-3.0L2.5,-0.5"/>
  </g>
  <g id="arrowLeft" transform="rotate(270) translate(-36 17)">
    <use xlink:href="#rim"/>
    <path pointer-events="none" fill="none" stroke="white" stroke-width="1.5" d="M0,-3.0v7 M-2.5,-0.5L0,-3.0L2.5,-0.5"/>
  </g>
  <g id="resetDef">
    <use xlink:href="#rim2" fill="#404040"><set attributeName="fill" to="#808080" begin="reset.mouseover" end="reset.mouseout"/></use>
  </g>
</defs>
<script type="application/ecmascript">
var viewWidth = 692;
var viewHeight = 110;
var sectionId = 'dynsection-0';
</script>
<script type="application/ecmascript" xlink:href="svg.min.js"/>
<svg id="graph" class="graph">
<g id="viewport">
<title>ImFusion::GL::MultiAbstractIncludeBase</title>
<!-- Node1 -->
<g id="Node000001" class="node">
<title>Node1</title>
<g id="a_Node000001"><a xlink:title="Non&#45;templated base class of MultiIncludable to implement polymorphic interface.">
<polygon fill="#999999" stroke="#666666" points="506.25,-66.12 367.25,-66.12 367.25,-35.62 506.25,-35.62 506.25,-66.12"/>
<text xml:space="preserve" text-anchor="start" x="375.25" y="-52.62" font-family="Helvetica,sans-Serif" font-size="10.00">ImFusion::GL::MultiAbstract</text>
<text xml:space="preserve" text-anchor="middle" x="436.75" y="-41.38" font-family="Helvetica,sans-Serif" font-size="10.00">IncludeBase</text>
</a>
</g>
</g>
<!-- Node4 -->
<g id="Node000004" class="node">
<title>Node4</title>
<g id="a_Node000004"><a xlink:href="class_im_fusion_1_1_g_l_1_1_multi_abstract_include.html" target="_top" xlink:title=" ">
<polygon fill="white" stroke="#666666" points="684.25,-101.75 542.25,-101.75 542.25,-60 684.25,-60 684.25,-101.75"/>
<text xml:space="preserve" text-anchor="start" x="550.25" y="-88.25" font-family="Helvetica,sans-Serif" font-size="10.00">ImFusion::GL::MultiAbstract</text>
<text xml:space="preserve" text-anchor="start" x="550.25" y="-77" font-family="Helvetica,sans-Serif" font-size="10.00">Include&lt; BaseIncludeType,</text>
<text xml:space="preserve" text-anchor="middle" x="613.25" y="-65.75" font-family="Helvetica,sans-Serif" font-size="10.00"> IncludeArgumentsTypes... &gt;</text>
</a>
</g>
</g>
<!-- Node1&#45;&gt;Node4 -->
<g id="edge3_Node000001_Node000004" class="edge">
<title>Node1&#45;&gt;Node4</title>
<g id="a_edge3_Node000001_Node000004"><a xlink:title=" ">
<path fill="none" stroke="#63b8ff" d="M517.9,-64.65C525.87,-66.02 533.92,-67.41 541.78,-68.76"/>
<polygon fill="#63b8ff" stroke="#63b8ff" points="518.66,-61.23 508.21,-62.99 517.47,-68.13 518.66,-61.23"/>
</a>
</g>
</g>
<!-- Node5 -->
<g id="Node000005" class="node">
<title>Node5</title>
<g id="a_Node000005"><a xlink:href="class_im_fusion_1_1_g_l_1_1_multi_abstract_include.html" target="_top" xlink:title="Concrete type for an instance of a Multi&#45;AbstractInclude.">
<polygon fill="white" stroke="#666666" points="682.75,-41.75 543.75,-41.75 543.75,0 682.75,0 682.75,-41.75"/>
<text xml:space="preserve" text-anchor="start" x="551.75" y="-28.25" font-family="Helvetica,sans-Serif" font-size="10.00">ImFusion::GL::MultiAbstract</text>
<text xml:space="preserve" text-anchor="start" x="551.75" y="-17" font-family="Helvetica,sans-Serif" font-size="10.00">Include&lt; BaseIncludeType,</text>
<text xml:space="preserve" text-anchor="middle" x="613.25" y="-5.75" font-family="Helvetica,sans-Serif" font-size="10.00"> IncludeArgumentsTypes &gt;</text>
</a>
</g>
</g>
<!-- Node1&#45;&gt;Node5 -->
<g id="edge4_Node000001_Node000005" class="edge">
<title>Node1&#45;&gt;Node5</title>
<g id="a_edge4_Node000001_Node000005"><a xlink:title=" ">
<path fill="none" stroke="#63b8ff" d="M517.88,-37.1C526.44,-35.63 535.09,-34.14 543.5,-32.69"/>
<polygon fill="#63b8ff" stroke="#63b8ff" points="517.47,-33.62 508.21,-38.76 518.66,-40.52 517.47,-33.62"/>
</a>
</g>
</g>
<!-- Node2 -->
<g id="Node000002" class="node">
<title>Node2</title>
<g id="a_Node000002"><a xlink:href="class_im_fusion_1_1_g_l_1_1_abstract_include.html" target="_top" xlink:title="Base class for abstract GLSL includes.">
<polygon fill="white" stroke="#666666" points="331.25,-60.5 181.75,-60.5 181.75,-41.25 331.25,-41.25 331.25,-60.5"/>
<text xml:space="preserve" text-anchor="middle" x="256.5" y="-47" font-family="Helvetica,sans-Serif" font-size="10.00">ImFusion::GL::AbstractInclude</text>
</a>
</g>
</g>
<!-- Node2&#45;&gt;Node1 -->
<g id="edge1_Node000001_Node000002" class="edge">
<title>Node2&#45;&gt;Node1</title>
<g id="a_edge1_Node000001_Node000002"><a xlink:title=" ">
<path fill="none" stroke="#63b8ff" d="M342.84,-50.88C350.87,-50.88 358.94,-50.88 366.79,-50.88"/>
<polygon fill="#63b8ff" stroke="#63b8ff" points="343.06,-47.38 333.06,-50.88 343.06,-54.38 343.06,-47.38"/>
</a>
</g>
</g>
<!-- Node3 -->
<g id="Node000003" class="node">
<title>Node3</title>
<g id="a_Node000003"><a xlink:href="class_im_fusion_1_1_utils_1_1_not_copyable.html" target="_top" xlink:title="Inherit from this class if your class should be neither copy&#45;constructible nor assignable.">
<polygon fill="white" stroke="#666666" points="145.75,-60.5 0,-60.5 0,-41.25 145.75,-41.25 145.75,-60.5"/>
<text xml:space="preserve" text-anchor="middle" x="72.88" y="-47" font-family="Helvetica,sans-Serif" font-size="10.00">ImFusion::Utils::NotCopyable</text>
</a>
</g>
</g>
<!-- Node3&#45;&gt;Node2 -->
<g id="edge2_Node000002_Node000003" class="edge">
<title>Node3&#45;&gt;Node2</title>
<g id="a_edge2_Node000002_Node000003"><a xlink:title=" ">
<path fill="none" stroke="#8b1a1a" d="M157.68,-50.88C165.58,-50.88 173.56,-50.88 181.36,-50.88"/>
<polygon fill="#8b1a1a" stroke="#8b1a1a" points="157.69,-47.38 147.69,-50.88 157.69,-54.38 157.69,-47.38"/>
</a>
</g>
</g>
</g>
</svg>

<g id="navigator" transform="translate(0 0)" fill="#404254">
  <rect fill="#f2f5e9" fill-opacity="0.5" stroke="#606060" stroke-width=".5" x="0" y="0" width="60" height="60"/>
  <use id="zoomplus" xlink:href="#zoomPlus" x="17" y="9" onmousedown="handleZoom(evt,'in')"/>
  <use id="zoomminus" xlink:href="#zoomMin" x="42" y="9" onmousedown="handleZoom(evt,'out')"/>
  <use id="reset" xlink:href="#resetDef" x="30" y="36" onmousedown="handleReset()"/>
   <use id="arrowup" xlink:href="#arrowUp" x="0" y="0" onmousedown="handlePan(0,-1)"/>
  <use id="arrowright" xlink:href="#arrowRight" x="0" y="0" onmousedown="handlePan(1,0)"/>
  <use id="arrowdown" xlink:href="#arrowDown" x="0" y="0" onmousedown="handlePan(0,1)"/>
  <use id="arrowleft" xlink:href="#arrowLeft" x="0" y="0" onmousedown="handlePan(-1,0)"/>
</g>
<svg viewBox="0 0 15 15" width="100%" height="30px" preserveAspectRatio="xMaxYMin meet">
 <g id="arrow_out" transform="scale(0.3 0.3)">
  <a xlink:href="class_im_fusion_1_1_g_l_1_1_multi_abstract_include_base__inherit__graph_org.svg" target="_base">
   <rect id="button" ry="5" rx="5" y="6" x="6" height="38" width="38"
        fill="#f2f5e9" fill-opacity="0.5" stroke="#606060" stroke-width="1.0"/>
   <path id="arrow"
     d="M 11.500037,31.436501 C 11.940474,20.09759 22.043105,11.32322 32.158766,21.979434 L 37.068811,17.246167 C 37.068811,17.246167 37.088388,32 37.088388,32 L 22.160133,31.978069 C 22.160133,31.978069 26.997745,27.140456 26.997745,27.140456 C 18.528582,18.264221 13.291696,25.230495 11.500037,31.436501 z"
     style="fill:#404040;"/>
  </a>
 </g>
</svg>

<style type='text/css'>
<![CDATA[
[data-mouse-over-selected='false'] { opacity: 0.7; }
[data-mouse-over-selected='true']  { opacity: 1.0; }
]]>
</style>
<script type="application/ecmascript"><![CDATA[
document.addEventListener('DOMContentLoaded', (event) => {
  highlightEdges();
  highlightAdjacentNodes();
});
]]></script>
</svg>
