<?xml version="1.0" encoding="UTF-8" standalone="no"?>
<!DOCTYPE svg PUBLIC "-//W3C//DTD SVG 1.1//EN"
 "http://www.w3.org/Graphics/SVG/1.1/DTD/svg11.dtd">
<!-- Generated by graphviz version 14.1.4 (20260321.0153)
 -->
<!-- Title: ImFusion::GlPolyRigidDeformation Pages: 1 -->
<svg width="929pt" height="113pt"
 viewBox="0.00 0.00 929.00 113.00" xmlns="http://www.w3.org/2000/svg" xmlns:xlink="http://www.w3.org/1999/xlink">
<g id="graph0" class="graph" transform="scale(1 1) rotate(0) translate(4 109.25)">
<title>ImFusion::GlPolyRigidDeformation</title>
<!-- Node1 -->
<g id="Node000001" class="node">
<title>Node1</title>
<g id="a_Node000001"><a xlink:title="Poly&#45;rigid deformation class.">
<polygon fill="#999999" stroke="#666666" points="920.75,-43.25 753.25,-43.25 753.25,-24 920.75,-24 920.75,-43.25"/>
<text xml:space="preserve" text-anchor="middle" x="837" y="-29.75" font-family="Helvetica,sans-Serif" font-size="10.00">ImFusion::GlPolyRigidDeformation</text>
</a>
</g>
</g>
<!-- Node2 -->
<g id="Node000002" class="node">
<title>Node2</title>
<g id="a_Node000002"><a xlink:href="class_im_fusion_1_1_parametric_deformation.html" target="_top" xlink:title="Base interface for a parametric deformation in 2D or 3D.">
<polygon fill="white" stroke="#666666" points="717.25,-62.25 554.25,-62.25 554.25,-43 717.25,-43 717.25,-62.25"/>
<text xml:space="preserve" text-anchor="middle" x="635.75" y="-48.75" font-family="Helvetica,sans-Serif" font-size="10.00">ImFusion::ParametricDeformation</text>
</a>
</g>
</g>
<!-- Node2&#45;&gt;Node1 -->
<g id="edge1_Node000001_Node000002" class="edge">
<title>Node2&#45;&gt;Node1</title>
<g id="a_edge1_Node000001_Node000002"><a xlink:title=" ">
<path fill="none" stroke="#63b8ff" d="M728.79,-43.85C736.82,-43.08 744.91,-42.31 752.86,-41.55"/>
<polygon fill="#63b8ff" stroke="#63b8ff" points="728.63,-40.35 719.01,-44.78 729.3,-47.32 728.63,-40.35"/>
</a>
</g>
</g>
<!-- Node3 -->
<g id="Node000003" class="node">
<title>Node3</title>
<g id="a_Node000003"><a xlink:href="class_im_fusion_1_1_deformation.html" target="_top" xlink:title="Base class for different kinds of non&#45;linear image transformations.">
<polygon fill="white" stroke="#666666" points="518.25,-62.25 402.5,-62.25 402.5,-43 518.25,-43 518.25,-62.25"/>
<text xml:space="preserve" text-anchor="middle" x="460.38" y="-48.75" font-family="Helvetica,sans-Serif" font-size="10.00">ImFusion::Deformation</text>
</a>
</g>
</g>
<!-- Node3&#45;&gt;Node2 -->
<g id="edge2_Node000002_Node000003" class="edge">
<title>Node3&#45;&gt;Node2</title>
<g id="a_edge2_Node000002_Node000003"><a xlink:title=" ">
<path fill="none" stroke="#63b8ff" d="M530,-52.62C537.9,-52.62 546,-52.62 554.03,-52.62"/>
<polygon fill="#63b8ff" stroke="#63b8ff" points="530.14,-49.13 520.14,-52.63 530.14,-56.13 530.14,-49.13"/>
</a>
</g>
</g>
<!-- Node4 -->
<g id="Node000004" class="node">
<title>Node4</title>
<g id="a_Node000004"><a xlink:href="class_im_fusion_1_1_g_l_1_1_abstract_include.html" target="_top" xlink:title="Base class for abstract GLSL includes.">
<polygon fill="white" stroke="#666666" points="348.88,-105.25 199.38,-105.25 199.38,-86 348.88,-86 348.88,-105.25"/>
<text xml:space="preserve" text-anchor="middle" x="274.12" y="-91.75" font-family="Helvetica,sans-Serif" font-size="10.00">ImFusion::GL::AbstractInclude</text>
</a>
</g>
</g>
<!-- Node4&#45;&gt;Node3 -->
<g id="edge3_Node000003_Node000004" class="edge">
<title>Node4&#45;&gt;Node3</title>
<g id="a_edge3_Node000003_Node000004"><a xlink:title=" ">
<path fill="none" stroke="#63b8ff" d="M336.99,-83.18C346.88,-81.07 356.98,-78.84 366.5,-76.62 384.83,-72.35 405.07,-67.18 421.97,-62.73"/>
<polygon fill="#63b8ff" stroke="#63b8ff" points="336.51,-79.7 327.45,-85.19 337.96,-86.55 336.51,-79.7"/>
</a>
</g>
</g>
<!-- Node5 -->
<g id="Node000005" class="node">
<title>Node5</title>
<g id="a_Node000005"><a xlink:href="class_im_fusion_1_1_utils_1_1_not_copyable.html" target="_top" xlink:title="Inherit from this class if your class should be neither copy&#45;constructible nor assignable.">
<polygon fill="white" stroke="#666666" points="145.75,-105.25 0,-105.25 0,-86 145.75,-86 145.75,-105.25"/>
<text xml:space="preserve" text-anchor="middle" x="72.88" y="-91.75" font-family="Helvetica,sans-Serif" font-size="10.00">ImFusion::Utils::NotCopyable</text>
</a>
</g>
</g>
<!-- Node5&#45;&gt;Node4 -->
<g id="edge4_Node000004_Node000005" class="edge">
<title>Node5&#45;&gt;Node4</title>
<g id="a_edge4_Node000004_Node000005"><a xlink:title=" ">
<path fill="none" stroke="#8b1a1a" d="M157.57,-95.62C171.37,-95.62 185.6,-95.62 199.15,-95.62"/>
<polygon fill="#8b1a1a" stroke="#8b1a1a" points="157.6,-92.13 147.6,-95.63 157.6,-99.13 157.6,-92.13"/>
</a>
</g>
</g>
<!-- Node6 -->
<g id="Node000006" class="node">
<title>Node6</title>
<g id="a_Node000006"><a xlink:href="class_im_fusion_1_1_g_l_1_1_multi_includable.html" target="_top" xlink:title=" ">
<polygon fill="white" stroke="#666666" points="366.5,-67.88 181.75,-67.88 181.75,-37.38 366.5,-37.38 366.5,-67.88"/>
<text xml:space="preserve" text-anchor="start" x="189.75" y="-54.38" font-family="Helvetica,sans-Serif" font-size="10.00">ImFusion::GL::MultiIncludable</text>
<text xml:space="preserve" text-anchor="middle" x="274.12" y="-43.12" font-family="Helvetica,sans-Serif" font-size="10.00">&lt; Deformation, const SharedImage * &gt;</text>
</a>
</g>
</g>
<!-- Node6&#45;&gt;Node3 -->
<g id="edge5_Node000003_Node000006" class="edge">
<title>Node6&#45;&gt;Node3</title>
<g id="a_edge5_Node000003_Node000006"><a xlink:title=" ">
<path fill="none" stroke="#63b8ff" d="M378.48,-52.62C386.57,-52.62 394.55,-52.62 402.15,-52.62"/>
<polygon fill="#63b8ff" stroke="#63b8ff" points="378.49,-49.13 368.49,-52.63 378.49,-56.13 378.49,-49.13"/>
</a>
</g>
</g>
<!-- Node7 -->
<g id="Node000007" class="node">
<title>Node7</title>
<g id="a_Node000007"><a xlink:href="class_im_fusion_1_1_configurable.html" target="_top" xlink:title="Base interface for classes that support object serialization from/to Properties objects.">
<polygon fill="white" stroke="#666666" points="332.75,-19.25 215.5,-19.25 215.5,0 332.75,0 332.75,-19.25"/>
<text xml:space="preserve" text-anchor="middle" x="274.12" y="-5.75" font-family="Helvetica,sans-Serif" font-size="10.00">ImFusion::Configurable</text>
</a>
</g>
</g>
<!-- Node7&#45;&gt;Node3 -->
<g id="edge6_Node000003_Node000007" class="edge">
<title>Node7&#45;&gt;Node3</title>
<g id="a_edge6_Node000003_Node000007"><a xlink:title=" ">
<path fill="none" stroke="#63b8ff" d="M336.99,-22.07C346.88,-24.18 356.98,-26.41 366.5,-28.62 384.83,-32.9 405.07,-38.07 421.97,-42.52"/>
<polygon fill="#63b8ff" stroke="#63b8ff" points="337.96,-18.7 327.45,-20.06 336.51,-25.55 337.96,-18.7"/>
</a>
</g>
</g>
<!-- Node8 -->
<g id="Node000008" class="node">
<title>Node8</title>
<g id="a_Node000008"><a xlink:href="class_im_fusion_1_1_signal_receiver.html" target="_top" xlink:title="Base class for classes that can contain slots (i.e.">
<polygon fill="white" stroke="#666666" points="700,-25.25 571.5,-25.25 571.5,-6 700,-6 700,-25.25"/>
<text xml:space="preserve" text-anchor="middle" x="635.75" y="-11.75" font-family="Helvetica,sans-Serif" font-size="10.00">ImFusion::SignalReceiver</text>
</a>
</g>
</g>
<!-- Node8&#45;&gt;Node1 -->
<g id="edge7_Node000001_Node000008" class="edge">
<title>Node8&#45;&gt;Node1</title>
<g id="a_edge7_Node000001_Node000008"><a xlink:title=" ">
<path fill="none" stroke="#63b8ff" d="M711.53,-22.38C725.06,-23.6 739.24,-24.88 752.99,-26.13"/>
<polygon fill="#63b8ff" stroke="#63b8ff" points="712.12,-18.92 701.85,-21.51 711.49,-25.89 712.12,-18.92"/>
</a>
</g>
</g>
</g>
</svg>
