<?xml version="1.0" encoding="UTF-8" standalone="no"?>
<!DOCTYPE svg PUBLIC "-//W3C//DTD SVG 1.1//EN"
 "http://www.w3.org/Graphics/SVG/1.1/DTD/svg11.dtd">
<!-- Generated by graphviz version 14.1.4 (20260321.0153)
 -->
<!-- Title: ImFusion::IMURawMetadata Pages: 1 -->
<svg width="164pt" height="204pt"
 viewBox="0.00 0.00 164.00 204.00" xmlns="http://www.w3.org/2000/svg" xmlns:xlink="http://www.w3.org/1999/xlink">
<g id="graph0" class="graph" transform="scale(1 1) rotate(0) translate(4 200.25)">
<title>ImFusion::IMURawMetadata</title>
<!-- Node1 -->
<g id="Node000001" class="node">
<title>Node1</title>
<g id="a_Node000001"><a xlink:title="Metadata for (multiple) IMU sensor raw data.">
<polygon fill="#999999" stroke="#666666" points="149.12,-19.25 7.12,-19.25 7.12,0 149.12,0 149.12,-19.25"/>
<text xml:space="preserve" text-anchor="middle" x="78.12" y="-5.75" font-family="Helvetica,sans-Serif" font-size="10.00">ImFusion::IMURawMetadata</text>
</a>
</g>
</g>
<!-- Node2 -->
<g id="Node000002" class="node">
<title>Node2</title>
<g id="a_Node000002"><a xlink:href="class_im_fusion_1_1_data_component.html" target="_top" xlink:title=" ">
<polygon fill="white" stroke="#666666" points="145,-85.75 11.25,-85.75 11.25,-55.25 145,-55.25 145,-85.75"/>
<text xml:space="preserve" text-anchor="start" x="19.25" y="-72.25" font-family="Helvetica,sans-Serif" font-size="10.00">ImFusion::DataComponent</text>
<text xml:space="preserve" text-anchor="middle" x="78.12" y="-61" font-family="Helvetica,sans-Serif" font-size="10.00">&lt; IMURawMetadata &gt;</text>
</a>
</g>
</g>
<!-- Node2&#45;&gt;Node1 -->
<g id="edge1_Node000001_Node000002" class="edge">
<title>Node2&#45;&gt;Node1</title>
<g id="a_edge1_Node000001_Node000002"><a xlink:title=" ">
<path fill="none" stroke="#63b8ff" d="M78.12,-43.48C78.12,-34.98 78.12,-26.09 78.12,-19.7"/>
<polygon fill="#63b8ff" stroke="#63b8ff" points="74.63,-43.43 78.13,-53.43 81.63,-43.43 74.63,-43.43"/>
</a>
</g>
</g>
<!-- Node3 -->
<g id="Node000003" class="node">
<title>Node3</title>
<g id="a_Node000003"><a xlink:href="class_im_fusion_1_1_data_component_base.html" target="_top" xlink:title="Data components provide a way to generically attach custom information objects.">
<polygon fill="white" stroke="#666666" points="156.25,-141 0,-141 0,-121.75 156.25,-121.75 156.25,-141"/>
<text xml:space="preserve" text-anchor="middle" x="78.12" y="-127.5" font-family="Helvetica,sans-Serif" font-size="10.00">ImFusion::DataComponentBase</text>
</a>
</g>
</g>
<!-- Node3&#45;&gt;Node2 -->
<g id="edge2_Node000002_Node000003" class="edge">
<title>Node3&#45;&gt;Node2</title>
<g id="a_edge2_Node000002_Node000003"><a xlink:title=" ">
<path fill="none" stroke="#63b8ff" d="M78.12,-110.17C78.12,-102.24 78.12,-93.31 78.12,-86.03"/>
<polygon fill="#63b8ff" stroke="#63b8ff" points="74.63,-109.92 78.13,-119.92 81.63,-109.92 74.63,-109.92"/>
</a>
</g>
</g>
<!-- Node4 -->
<g id="Node000004" class="node">
<title>Node4</title>
<g id="a_Node000004"><a xlink:href="class_im_fusion_1_1_configurable.html" target="_top" xlink:title="Base interface for classes that support object serialization from/to Properties objects.">
<polygon fill="white" stroke="#666666" points="136.75,-196.25 19.5,-196.25 19.5,-177 136.75,-177 136.75,-196.25"/>
<text xml:space="preserve" text-anchor="middle" x="78.12" y="-182.75" font-family="Helvetica,sans-Serif" font-size="10.00">ImFusion::Configurable</text>
</a>
</g>
</g>
<!-- Node4&#45;&gt;Node3 -->
<g id="edge3_Node000003_Node000004" class="edge">
<title>Node4&#45;&gt;Node3</title>
<g id="a_edge3_Node000003_Node000004"><a xlink:title=" ">
<path fill="none" stroke="#63b8ff" d="M78.12,-165.38C78.12,-157.09 78.12,-147.92 78.12,-141.36"/>
<polygon fill="#63b8ff" stroke="#63b8ff" points="74.63,-165.32 78.13,-175.32 81.63,-165.32 74.63,-165.32"/>
</a>
</g>
</g>
</g>
</svg>
