<?xml version="1.0" encoding="UTF-8" standalone="no"?>
<!DOCTYPE svg PUBLIC "-//W3C//DTD SVG 1.1//EN"
 "http://www.w3.org/Graphics/SVG/1.1/DTD/svg11.dtd">
<!-- Generated by graphviz version 14.1.4 (20260321.0153)
 -->
<!-- Title: ImFusion::ParametricImageRegistration Pages: 1 -->
<svg width="1083pt" height="223pt"
 viewBox="0.00 0.00 1083.00 223.00" xmlns="http://www.w3.org/2000/svg" xmlns:xlink="http://www.w3.org/1999/xlink">
<g id="graph0" class="graph" transform="scale(1 1) rotate(0) translate(4 218.88)">
<title>ImFusion::ParametricImageRegistration</title>
<!-- Node1 -->
<g id="Node000001" class="node">
<title>Node1</title>
<g id="a_Node000001"><a xlink:title="Base class for parametric image registration algorithms.">
<polygon fill="#999999" stroke="#666666" points="673,-152.88 536.25,-152.88 536.25,-122.38 673,-122.38 673,-152.88"/>
<text xml:space="preserve" text-anchor="start" x="544.25" y="-139.38" font-family="Helvetica,sans-Serif" font-size="10.00">ImFusion::ParametricImage</text>
<text xml:space="preserve" text-anchor="middle" x="604.62" y="-128.12" font-family="Helvetica,sans-Serif" font-size="10.00">Registration</text>
</a>
</g>
</g>
<!-- Node7 -->
<g id="Node000007" class="node">
<title>Node7</title>
<g id="a_Node000007"><a xlink:href="class_im_fusion_1_1_gated_linear4_d_image_registration.html" target="_top" xlink:title="Registers two volume clips using a rigid/affine transformation, including a gating phase offset betwe...">
<polygon fill="white" stroke="#666666" points="870.5,-214.88 715.75,-214.88 715.75,-184.38 870.5,-184.38 870.5,-214.88"/>
<text xml:space="preserve" text-anchor="start" x="723.75" y="-201.38" font-family="Helvetica,sans-Serif" font-size="10.00">ImFusion::GatedLinear4DImage</text>
<text xml:space="preserve" text-anchor="middle" x="793.12" y="-190.12" font-family="Helvetica,sans-Serif" font-size="10.00">Registration</text>
</a>
</g>
</g>
<!-- Node1&#45;&gt;Node7 -->
<g id="edge6_Node000001_Node000007" class="edge">
<title>Node1&#45;&gt;Node7</title>
<g id="a_edge6_Node000001_Node000007"><a xlink:title=" ">
<path fill="none" stroke="#63b8ff" d="M656.73,-157.23C673.31,-163.37 691.86,-170.01 709,-175.62 717.56,-178.43 726.68,-181.24 735.62,-183.9"/>
<polygon fill="#63b8ff" stroke="#63b8ff" points="658.15,-154.02 647.56,-153.81 655.71,-160.58 658.15,-154.02"/>
</a>
</g>
</g>
<!-- Node8 -->
<g id="Node000008" class="node">
<title>Node8</title>
<g id="a_Node000008"><a xlink:href="class_im_fusion_1_1_linear_grid_registration.html" target="_top" xlink:title="Registers a set of images arranged in a 2D grid.">
<polygon fill="white" stroke="#666666" points="872.75,-166.25 713.5,-166.25 713.5,-147 872.75,-147 872.75,-166.25"/>
<text xml:space="preserve" text-anchor="middle" x="793.12" y="-152.75" font-family="Helvetica,sans-Serif" font-size="10.00">ImFusion::LinearGridRegistration</text>
</a>
</g>
</g>
<!-- Node1&#45;&gt;Node8 -->
<g id="edge7_Node000001_Node000008" class="edge">
<title>Node1&#45;&gt;Node8</title>
<g id="a_edge7_Node000001_Node000008"><a xlink:title=" ">
<path fill="none" stroke="#63b8ff" d="M684.83,-145.69C694.24,-146.65 703.84,-147.63 713.24,-148.59"/>
<polygon fill="#63b8ff" stroke="#63b8ff" points="685.29,-142.22 674.99,-144.69 684.58,-149.19 685.29,-142.22"/>
</a>
</g>
</g>
<!-- Node9 -->
<g id="Node000009" class="node">
<title>Node9</title>
<g id="a_Node000009"><a xlink:href="class_im_fusion_1_1_linear_image_registration.html" target="_top" xlink:title="Registers two images using a rigid/affine transformation.">
<polygon fill="white" stroke="#666666" points="877.25,-129.25 709,-129.25 709,-110 877.25,-110 877.25,-129.25"/>
<text xml:space="preserve" text-anchor="middle" x="793.12" y="-115.75" font-family="Helvetica,sans-Serif" font-size="10.00">ImFusion::LinearImageRegistration</text>
</a>
</g>
</g>
<!-- Node1&#45;&gt;Node9 -->
<g id="edge8_Node000001_Node000009" class="edge">
<title>Node1&#45;&gt;Node9</title>
<g id="a_edge8_Node000001_Node000009"><a xlink:title=" ">
<path fill="none" stroke="#63b8ff" d="M684.91,-129.97C692.8,-129.21 700.82,-128.44 708.75,-127.67"/>
<polygon fill="#63b8ff" stroke="#63b8ff" points="684.61,-126.49 674.99,-130.93 685.28,-133.45 684.61,-126.49"/>
</a>
</g>
</g>
<!-- Node10 -->
<g id="Node000010" class="node">
<title>Node10</title>
<g id="a_Node000010"><a xlink:href="class_im_fusion_1_1_parametric_deformable_registration.html" target="_top" xlink:title="Registers two images with a non&#45;linear deformation based on TPSs.">
<polygon fill="white" stroke="#666666" points="873.12,-91.88 713.12,-91.88 713.12,-61.38 873.12,-61.38 873.12,-91.88"/>
<text xml:space="preserve" text-anchor="start" x="721.12" y="-78.38" font-family="Helvetica,sans-Serif" font-size="10.00">ImFusion::ParametricDeformable</text>
<text xml:space="preserve" text-anchor="middle" x="793.12" y="-67.12" font-family="Helvetica,sans-Serif" font-size="10.00">Registration</text>
</a>
</g>
</g>
<!-- Node1&#45;&gt;Node10 -->
<g id="edge9_Node000001_Node000010" class="edge">
<title>Node1&#45;&gt;Node10</title>
<g id="a_edge9_Node000001_Node000010"><a xlink:title=" ">
<path fill="none" stroke="#63b8ff" d="M658.06,-118.14C674.32,-112.29 692.33,-106.01 709,-100.62 717.72,-97.81 727,-94.97 736.09,-92.28"/>
<polygon fill="#63b8ff" stroke="#63b8ff" points="657.3,-114.69 649.09,-121.39 659.69,-121.27 657.3,-114.69"/>
</a>
</g>
</g>
<!-- Node2 -->
<g id="Node000002" class="node">
<title>Node2</title>
<g id="a_Node000002"><a xlink:href="class_im_fusion_1_1_abstract_image_registration.html" target="_top" xlink:title="The AbstractImageRegistration class is an interface for all image&#45;based registrations.">
<polygon fill="white" stroke="#666666" points="500.25,-166.25 321.5,-166.25 321.5,-147 500.25,-147 500.25,-166.25"/>
<text xml:space="preserve" text-anchor="middle" x="410.88" y="-152.75" font-family="Helvetica,sans-Serif" font-size="10.00">ImFusion::AbstractImageRegistration</text>
</a>
</g>
</g>
<!-- Node2&#45;&gt;Node1 -->
<g id="edge1_Node000001_Node000002" class="edge">
<title>Node2&#45;&gt;Node1</title>
<g id="a_edge1_Node000001_Node000002"><a xlink:title=" ">
<path fill="none" stroke="#63b8ff" d="M512.14,-146.69C520.21,-145.89 528.24,-145.09 536,-144.33"/>
<polygon fill="#63b8ff" stroke="#63b8ff" points="511.85,-143.2 502.24,-147.67 512.54,-150.17 511.85,-143.2"/>
</a>
</g>
</g>
<!-- Node3 -->
<g id="Node000003" class="node">
<title>Node3</title>
<g id="a_Node000003"><a xlink:href="class_im_fusion_1_1_algorithm.html" target="_top" xlink:title="Interface for describing algorithms that can be made available in the ImFusion Suite through Algorith...">
<polygon fill="white" stroke="#666666" points="285.5,-166.25 181.75,-166.25 181.75,-147 285.5,-147 285.5,-166.25"/>
<text xml:space="preserve" text-anchor="middle" x="233.62" y="-152.75" font-family="Helvetica,sans-Serif" font-size="10.00">ImFusion::Algorithm</text>
</a>
</g>
</g>
<!-- Node3&#45;&gt;Node2 -->
<g id="edge2_Node000002_Node000003" class="edge">
<title>Node3&#45;&gt;Node2</title>
<g id="a_edge2_Node000002_Node000003"><a xlink:title=" ">
<path fill="none" stroke="#63b8ff" d="M297.27,-156.62C305.01,-156.62 313.03,-156.62 321.06,-156.62"/>
<polygon fill="#63b8ff" stroke="#63b8ff" points="297.3,-153.13 287.3,-156.63 297.3,-160.13 297.3,-153.13"/>
</a>
</g>
</g>
<!-- Node4 -->
<g id="Node000004" class="node">
<title>Node4</title>
<g id="a_Node000004"><a xlink:href="class_im_fusion_1_1_configurable.html" target="_top" xlink:title="Base interface for classes that support object serialization from/to Properties objects.">
<polygon fill="white" stroke="#666666" points="131.5,-185.25 14.25,-185.25 14.25,-166 131.5,-166 131.5,-185.25"/>
<text xml:space="preserve" text-anchor="middle" x="72.88" y="-171.75" font-family="Helvetica,sans-Serif" font-size="10.00">ImFusion::Configurable</text>
</a>
</g>
</g>
<!-- Node4&#45;&gt;Node3 -->
<g id="edge3_Node000003_Node000004" class="edge">
<title>Node4&#45;&gt;Node3</title>
<g id="a_edge3_Node000003_Node000004"><a xlink:title=" ">
<path fill="none" stroke="#63b8ff" d="M142.89,-167.36C155.85,-165.81 169.18,-164.22 181.47,-162.75"/>
<polygon fill="#63b8ff" stroke="#63b8ff" points="142.65,-163.87 133.14,-168.53 143.48,-170.82 142.65,-163.87"/>
</a>
</g>
</g>
<!-- Node5 -->
<g id="Node000005" class="node">
<title>Node5</title>
<g id="a_Node000005"><a xlink:href="class_im_fusion_1_1_utils_1_1_not_copyable.html" target="_top" xlink:title="Inherit from this class if your class should be neither copy&#45;constructible nor assignable.">
<polygon fill="white" stroke="#666666" points="145.75,-148.25 0,-148.25 0,-129 145.75,-129 145.75,-148.25"/>
<text xml:space="preserve" text-anchor="middle" x="72.88" y="-134.75" font-family="Helvetica,sans-Serif" font-size="10.00">ImFusion::Utils::NotCopyable</text>
</a>
</g>
</g>
<!-- Node5&#45;&gt;Node3 -->
<g id="edge4_Node000003_Node000005" class="edge">
<title>Node5&#45;&gt;Node3</title>
<g id="a_edge4_Node000003_Node000005"><a xlink:title=" ">
<path fill="none" stroke="#8b1a1a" d="M157.08,-148.06C165.34,-149 173.54,-149.93 181.33,-150.81"/>
<polygon fill="#8b1a1a" stroke="#8b1a1a" points="157.65,-144.6 147.32,-146.95 156.86,-151.56 157.65,-144.6"/>
</a>
</g>
</g>
<!-- Node6 -->
<g id="Node000006" class="node">
<title>Node6</title>
<g id="a_Node000006"><a xlink:href="class_im_fusion_1_1_cost_function.html" target="_top" xlink:title="Interface for a cost function that can be optimized.">
<polygon fill="white" stroke="#666666" points="471.38,-129.25 350.38,-129.25 350.38,-110 471.38,-110 471.38,-129.25"/>
<text xml:space="preserve" text-anchor="middle" x="410.88" y="-115.75" font-family="Helvetica,sans-Serif" font-size="10.00">ImFusion::CostFunction</text>
</a>
</g>
</g>
<!-- Node6&#45;&gt;Node1 -->
<g id="edge5_Node000001_Node000006" class="edge">
<title>Node6&#45;&gt;Node1</title>
<g id="a_edge5_Node000001_Node000006"><a xlink:title=" ">
<path fill="none" stroke="#63b8ff" d="M482.93,-126.3C500.24,-127.92 518.7,-129.65 535.84,-131.26"/>
<polygon fill="#63b8ff" stroke="#63b8ff" points="483.55,-122.84 473.26,-125.39 482.89,-129.81 483.55,-122.84"/>
</a>
</g>
</g>
<!-- Node11 -->
<g id="Node000011" class="node">
<title>Node11</title>
<g id="a_Node000011"><a xlink:href="class_im_fusion_1_1_f_f_d_image_registration.html" target="_top" xlink:title="Registers two images with a non&#45;linear deformation based on FFDs.">
<polygon fill="white" stroke="#666666" points="1074.75,-154.25 913.25,-154.25 913.25,-135 1074.75,-135 1074.75,-154.25"/>
<text xml:space="preserve" text-anchor="middle" x="994" y="-140.75" font-family="Helvetica,sans-Serif" font-size="10.00">ImFusion::FFDImageRegistration</text>
</a>
</g>
</g>
<!-- Node10&#45;&gt;Node11 -->
<g id="edge10_Node000010_Node000011" class="edge">
<title>Node10&#45;&gt;Node11</title>
<g id="a_edge10_Node000010_Node000011"><a xlink:title=" ">
<path fill="none" stroke="#63b8ff" d="M867.17,-96.22C870.62,-97.61 873.99,-99.08 877.25,-100.62 894.84,-108.99 895.47,-117.67 913.25,-125.62 921.18,-129.17 929.85,-132.1 938.47,-134.52"/>
<polygon fill="#63b8ff" stroke="#63b8ff" points="868.69,-93.05 858.1,-92.81 866.23,-99.6 868.69,-93.05"/>
</a>
</g>
</g>
<!-- Node12 -->
<g id="Node000012" class="node">
<title>Node12</title>
<g id="a_Node000012"><a xlink:href="class_im_fusion_1_1_other_parametric_deformable_registration.html" target="_top" xlink:title="Registers two images with any other parametric deformation already set on the moving image.">
<polygon fill="white" stroke="#666666" points="1060.88,-116.88 927.12,-116.88 927.12,-86.38 1060.88,-86.38 1060.88,-116.88"/>
<text xml:space="preserve" text-anchor="start" x="935.12" y="-103.38" font-family="Helvetica,sans-Serif" font-size="10.00">ImFusion::OtherParametric</text>
<text xml:space="preserve" text-anchor="middle" x="994" y="-92.12" font-family="Helvetica,sans-Serif" font-size="10.00">DeformableRegistration</text>
</a>
</g>
</g>
<!-- Node10&#45;&gt;Node12 -->
<g id="edge11_Node000010_Node000012" class="edge">
<title>Node10&#45;&gt;Node12</title>
<g id="a_edge11_Node000010_Node000012"><a xlink:title=" ">
<path fill="none" stroke="#63b8ff" d="M884.84,-88.03C898.96,-89.8 913.32,-91.61 926.77,-93.3"/>
<polygon fill="#63b8ff" stroke="#63b8ff" points="885.44,-84.58 875.08,-86.8 884.57,-91.52 885.44,-84.58"/>
</a>
</g>
</g>
<!-- Node13 -->
<g id="Node000013" class="node">
<title>Node13</title>
<g id="a_Node000013"><a xlink:href="class_im_fusion_1_1_poly_rigid_image_registration.html" target="_top" xlink:title="Registers two images with a non&#45;linear poly&#45;rigid deformation.">
<polygon fill="white" stroke="#666666" points="1059.75,-67.88 928.25,-67.88 928.25,-37.38 1059.75,-37.38 1059.75,-67.88"/>
<text xml:space="preserve" text-anchor="start" x="936.25" y="-54.38" font-family="Helvetica,sans-Serif" font-size="10.00">ImFusion::PolyRigidImage</text>
<text xml:space="preserve" text-anchor="middle" x="994" y="-43.12" font-family="Helvetica,sans-Serif" font-size="10.00">Registration</text>
</a>
</g>
</g>
<!-- Node10&#45;&gt;Node13 -->
<g id="edge12_Node000010_Node000013" class="edge">
<title>Node10&#45;&gt;Node13</title>
<g id="a_edge12_Node000010_Node000013"><a xlink:title=" ">
<path fill="none" stroke="#63b8ff" d="M884.69,-65.7C899.3,-63.93 914.17,-62.14 928.02,-60.47"/>
<polygon fill="#63b8ff" stroke="#63b8ff" points="884.59,-62.18 875.09,-66.85 885.43,-69.13 884.59,-62.18"/>
</a>
</g>
</g>
<!-- Node14 -->
<g id="Node000014" class="node">
<title>Node14</title>
<g id="a_Node000014"><a xlink:href="class_im_fusion_1_1_t_p_s_image_registration.html" target="_top" xlink:title="Registers two images with a non&#45;linear deformation based on TPSs.">
<polygon fill="white" stroke="#666666" points="1074.75,-19.25 913.25,-19.25 913.25,0 1074.75,0 1074.75,-19.25"/>
<text xml:space="preserve" text-anchor="middle" x="994" y="-5.75" font-family="Helvetica,sans-Serif" font-size="10.00">ImFusion::TPSImageRegistration</text>
</a>
</g>
</g>
<!-- Node10&#45;&gt;Node14 -->
<g id="edge13_Node000010_Node000014" class="edge">
<title>Node10&#45;&gt;Node14</title>
<g id="a_edge13_Node000010_Node000014"><a xlink:title=" ">
<path fill="none" stroke="#63b8ff" d="M839.43,-56.51C861.43,-47.23 888.42,-36.54 913.25,-28.62 923.56,-25.34 934.77,-22.33 945.45,-19.72"/>
<polygon fill="#63b8ff" stroke="#63b8ff" points="838.28,-53.2 830.46,-60.35 841.03,-59.64 838.28,-53.2"/>
</a>
</g>
</g>
</g>
</svg>
