<?xml version="1.0" encoding="UTF-8" standalone="no"?>
<!DOCTYPE svg PUBLIC "-//W3C//DTD SVG 1.1//EN"
 "http://www.w3.org/Graphics/SVG/1.1/DTD/svg11.dtd">
<!-- Generated by graphviz version 14.1.4 (20260321.0153)
 -->
<!-- Title: ImFusion::Seg::SegmentedStructureWithReference Pages: 1 -->
<svg width="296pt" height="172pt"
 viewBox="0.00 0.00 296.00 172.00" xmlns="http://www.w3.org/2000/svg" xmlns:xlink="http://www.w3.org/1999/xlink">
<g id="graph0" class="graph" transform="scale(1 1) rotate(0) translate(4 167.5)">
<title>ImFusion::Seg::SegmentedStructureWithReference</title>
<!-- Node1 -->
<g id="Node000001" class="node">
<title>Node1</title>
<g id="a_Node000001"><a xlink:title=" ">
<polygon fill="#999999" stroke="#666666" points="211.25,-97 76,-97 76,-66.5 211.25,-66.5 211.25,-97"/>
<text xml:space="preserve" text-anchor="start" x="84" y="-83.5" font-family="Helvetica,sans-Serif" font-size="10.00">ImFusion::Seg::Segmented</text>
<text xml:space="preserve" text-anchor="middle" x="143.62" y="-72.25" font-family="Helvetica,sans-Serif" font-size="10.00">StructureWithReference</text>
</a>
</g>
</g>
<!-- Node3 -->
<g id="Node000003" class="node">
<title>Node3</title>
<g id="a_Node000003"><a xlink:href="class_im_fusion_1_1_seg_1_1_segmented_ellipse_structure.html" target="_top" xlink:title=" ">
<polygon fill="white" stroke="#bfbfbf" points="135.25,-30.5 0,-30.5 0,0 135.25,0 135.25,-30.5"/>
<text xml:space="preserve" text-anchor="start" x="8" y="-17" font-family="Helvetica,sans-Serif" font-size="10.00">ImFusion::Seg::Segmented</text>
<text xml:space="preserve" text-anchor="middle" x="67.62" y="-5.75" font-family="Helvetica,sans-Serif" font-size="10.00">EllipseStructure</text>
</a>
</g>
</g>
<!-- Node1&#45;&gt;Node3 -->
<g id="edge2_Node000001_Node000003" class="edge">
<title>Node1&#45;&gt;Node3</title>
<g id="a_edge2_Node000001_Node000003"><a xlink:title=" ">
<path fill="none" stroke="#63b8ff" d="M117.69,-58.74C106.83,-49.53 94.51,-39.06 84.8,-30.83"/>
<polygon fill="#63b8ff" stroke="#63b8ff" points="115.34,-61.33 125.23,-65.13 119.87,-56 115.34,-61.33"/>
</a>
</g>
</g>
<!-- Node4 -->
<g id="Node000004" class="node">
<title>Node4</title>
<g id="a_Node000004"><a xlink:href="class_im_fusion_1_1_seg_1_1_segmented_line2_d_structure.html" target="_top" xlink:title=" ">
<polygon fill="white" stroke="#bfbfbf" points="288.25,-30.5 153,-30.5 153,0 288.25,0 288.25,-30.5"/>
<text xml:space="preserve" text-anchor="start" x="161" y="-17" font-family="Helvetica,sans-Serif" font-size="10.00">ImFusion::Seg::Segmented</text>
<text xml:space="preserve" text-anchor="middle" x="220.62" y="-5.75" font-family="Helvetica,sans-Serif" font-size="10.00">Line2DStructure</text>
</a>
</g>
</g>
<!-- Node1&#45;&gt;Node4 -->
<g id="edge3_Node000001_Node000004" class="edge">
<title>Node1&#45;&gt;Node4</title>
<g id="a_edge3_Node000001_Node000004"><a xlink:title=" ">
<path fill="none" stroke="#63b8ff" d="M169.9,-58.74C180.9,-49.53 193.39,-39.06 203.22,-30.83"/>
<polygon fill="#63b8ff" stroke="#63b8ff" points="167.68,-56.04 162.26,-65.14 172.17,-61.4 167.68,-56.04"/>
</a>
</g>
</g>
<!-- Node2 -->
<g id="Node000002" class="node">
<title>Node2</title>
<g id="a_Node000002"><a xlink:href="class_im_fusion_1_1_seg_1_1_segmented_structure.html" target="_top" xlink:title="Interface class that offers methods to obtain measuring markers on a segmented object.">
<polygon fill="white" stroke="#666666" points="211.25,-163.5 76,-163.5 76,-133 211.25,-133 211.25,-163.5"/>
<text xml:space="preserve" text-anchor="start" x="84" y="-150" font-family="Helvetica,sans-Serif" font-size="10.00">ImFusion::Seg::Segmented</text>
<text xml:space="preserve" text-anchor="middle" x="143.62" y="-138.75" font-family="Helvetica,sans-Serif" font-size="10.00">Structure</text>
</a>
</g>
</g>
<!-- Node2&#45;&gt;Node1 -->
<g id="edge1_Node000001_Node000002" class="edge">
<title>Node2&#45;&gt;Node1</title>
<g id="a_edge1_Node000001_Node000002"><a xlink:title=" ">
<path fill="none" stroke="#63b8ff" d="M143.62,-121.31C143.62,-113.14 143.62,-104.41 143.62,-97.33"/>
<polygon fill="#63b8ff" stroke="#63b8ff" points="140.13,-121.1 143.63,-131.1 147.13,-121.1 140.13,-121.1"/>
</a>
</g>
</g>
</g>
</svg>
