<?xml version="1.0" encoding="UTF-8" standalone="no"?>
<!DOCTYPE svg PUBLIC "-//W3C//DTD SVG 1.1//EN"
 "http://www.w3.org/Graphics/SVG/1.1/DTD/svg11.dtd">
<!-- Generated by graphviz version 14.1.4 (20260321.0153)
 -->
<!-- Title: ImFusion::UnpackVideoIoAlgorithm Pages: 1 -->
<svg width="290pt" height="248pt"
 viewBox="0.00 0.00 290.00 248.00" xmlns="http://www.w3.org/2000/svg" xmlns:xlink="http://www.w3.org/1999/xlink">
<g id="graph0" class="graph" transform="scale(1 1) rotate(0) translate(4 244.25)">
<title>ImFusion::UnpackVideoIoAlgorithm</title>
<!-- Node1 -->
<g id="Node000001" class="node">
<title>Node1</title>
<g id="a_Node000001"><a xlink:title="Derived class for different factory name when reading.">
<polygon fill="#999999" stroke="#666666" points="218.88,-19.25 48.38,-19.25 48.38,0 218.88,0 218.88,-19.25"/>
<text xml:space="preserve" text-anchor="middle" x="133.62" y="-5.75" font-family="Helvetica,sans-Serif" font-size="10.00">ImFusion::UnpackVideoIoAlgorithm</text>
</a>
</g>
</g>
<!-- Node2 -->
<g id="Node000002" class="node">
<title>Node2</title>
<g id="a_Node000002"><a xlink:href="class_im_fusion_1_1_video_io_algorithm.html" target="_top" xlink:title="Algorithm for reading video files as image set, and writing them.">
<polygon fill="white" stroke="#666666" points="202,-74.5 65.25,-74.5 65.25,-55.25 202,-55.25 202,-74.5"/>
<text xml:space="preserve" text-anchor="middle" x="133.62" y="-61" font-family="Helvetica,sans-Serif" font-size="10.00">ImFusion::VideoIoAlgorithm</text>
</a>
</g>
</g>
<!-- Node2&#45;&gt;Node1 -->
<g id="edge1_Node000001_Node000002" class="edge">
<title>Node2&#45;&gt;Node1</title>
<g id="a_edge1_Node000001_Node000002"><a xlink:title=" ">
<path fill="none" stroke="#63b8ff" d="M133.62,-43.63C133.62,-35.34 133.62,-26.17 133.62,-19.61"/>
<polygon fill="#63b8ff" stroke="#63b8ff" points="130.13,-43.57 133.63,-53.57 137.13,-43.57 130.13,-43.57"/>
</a>
</g>
</g>
<!-- Node3 -->
<g id="Node000003" class="node">
<title>Node3</title>
<g id="a_Node000003"><a xlink:href="class_im_fusion_1_1_io_algorithm.html" target="_top" xlink:title="Interface for describing IO algorithms.">
<polygon fill="white" stroke="#666666" points="189.62,-129.75 77.62,-129.75 77.62,-110.5 189.62,-110.5 189.62,-129.75"/>
<text xml:space="preserve" text-anchor="middle" x="133.62" y="-116.25" font-family="Helvetica,sans-Serif" font-size="10.00">ImFusion::IoAlgorithm</text>
</a>
</g>
</g>
<!-- Node3&#45;&gt;Node2 -->
<g id="edge2_Node000002_Node000003" class="edge">
<title>Node3&#45;&gt;Node2</title>
<g id="a_edge2_Node000002_Node000003"><a xlink:title=" ">
<path fill="none" stroke="#63b8ff" d="M133.62,-98.88C133.62,-90.59 133.62,-81.42 133.62,-74.86"/>
<polygon fill="#63b8ff" stroke="#63b8ff" points="130.13,-98.82 133.63,-108.82 137.13,-98.82 130.13,-98.82"/>
</a>
</g>
</g>
<!-- Node4 -->
<g id="Node000004" class="node">
<title>Node4</title>
<g id="a_Node000004"><a xlink:href="class_im_fusion_1_1_algorithm.html" target="_top" xlink:title="Interface for describing algorithms that can be made available in the ImFusion Suite through Algorith...">
<polygon fill="white" stroke="#666666" points="185.5,-185 81.75,-185 81.75,-165.75 185.5,-165.75 185.5,-185"/>
<text xml:space="preserve" text-anchor="middle" x="133.62" y="-171.5" font-family="Helvetica,sans-Serif" font-size="10.00">ImFusion::Algorithm</text>
</a>
</g>
</g>
<!-- Node4&#45;&gt;Node3 -->
<g id="edge3_Node000003_Node000004" class="edge">
<title>Node4&#45;&gt;Node3</title>
<g id="a_edge3_Node000003_Node000004"><a xlink:title=" ">
<path fill="none" stroke="#63b8ff" d="M133.62,-154.13C133.62,-145.84 133.62,-136.67 133.62,-130.11"/>
<polygon fill="#63b8ff" stroke="#63b8ff" points="130.13,-154.07 133.63,-164.07 137.13,-154.07 130.13,-154.07"/>
</a>
</g>
</g>
<!-- Node5 -->
<g id="Node000005" class="node">
<title>Node5</title>
<g id="a_Node000005"><a xlink:href="class_im_fusion_1_1_configurable.html" target="_top" xlink:title="Base interface for classes that support object serialization from/to Properties objects.">
<polygon fill="white" stroke="#666666" points="117.25,-240.25 0,-240.25 0,-221 117.25,-221 117.25,-240.25"/>
<text xml:space="preserve" text-anchor="middle" x="58.62" y="-226.75" font-family="Helvetica,sans-Serif" font-size="10.00">ImFusion::Configurable</text>
</a>
</g>
</g>
<!-- Node5&#45;&gt;Node4 -->
<g id="edge4_Node000004_Node000005" class="edge">
<title>Node5&#45;&gt;Node4</title>
<g id="a_edge4_Node000004_Node000005"><a xlink:title=" ">
<path fill="none" stroke="#63b8ff" d="M80.62,-214.01C93.7,-204.72 109.83,-193.27 120.84,-185.45"/>
<polygon fill="#63b8ff" stroke="#63b8ff" points="78.71,-211.07 72.58,-219.72 82.76,-216.78 78.71,-211.07"/>
</a>
</g>
</g>
<!-- Node6 -->
<g id="Node000006" class="node">
<title>Node6</title>
<g id="a_Node000006"><a xlink:href="class_im_fusion_1_1_utils_1_1_not_copyable.html" target="_top" xlink:title="Inherit from this class if your class should be neither copy&#45;constructible nor assignable.">
<polygon fill="white" stroke="#666666" points="281.5,-240.25 135.75,-240.25 135.75,-221 281.5,-221 281.5,-240.25"/>
<text xml:space="preserve" text-anchor="middle" x="208.62" y="-226.75" font-family="Helvetica,sans-Serif" font-size="10.00">ImFusion::Utils::NotCopyable</text>
</a>
</g>
</g>
<!-- Node6&#45;&gt;Node4 -->
<g id="edge5_Node000004_Node000006" class="edge">
<title>Node6&#45;&gt;Node4</title>
<g id="a_edge5_Node000004_Node000006"><a xlink:title=" ">
<path fill="none" stroke="#8b1a1a" d="M186.63,-214.01C173.55,-204.72 157.42,-193.27 146.41,-185.45"/>
<polygon fill="#8b1a1a" stroke="#8b1a1a" points="184.49,-216.78 194.67,-219.72 188.54,-211.07 184.49,-216.78"/>
</a>
</g>
</g>
</g>
</svg>
