<?xml version="1.0" encoding="UTF-8" standalone="no"?>
<!DOCTYPE svg PUBLIC "-//W3C//DTD SVG 1.1//EN"
 "http://www.w3.org/Graphics/SVG/1.1/DTD/svg11.dtd">
<!-- Generated by graphviz version 14.1.4 (20260321.0153)
 -->
<!-- Title: ImFusion::BoolParamControl Pages: 1 -->
<svg width="224pt" height="138pt"
 viewBox="0.00 0.00 224.00 138.00" xmlns="http://www.w3.org/2000/svg" xmlns:xlink="http://www.w3.org/1999/xlink">
<g id="graph0" class="graph" transform="scale(1 1) rotate(0) translate(4 133.75)">
<title>ImFusion::BoolParamControl</title>
<!-- Node1 -->
<g id="Node000001" class="node">
<title>Node1</title>
<g id="a_Node000001"><a xlink:title="Represent a ParamType::Bool with a QCheckBox.">
<polygon fill="#999999" stroke="#666666" points="155,-19.25 13,-19.25 13,0 155,0 155,-19.25"/>
<text xml:space="preserve" text-anchor="middle" x="84" y="-5.75" font-family="Helvetica,sans-Serif" font-size="10.00">ImFusion::BoolParamControl</text>
</a>
</g>
</g>
<!-- Node2 -->
<g id="Node000002" class="node">
<title>Node2</title>
<g id="a_Node000002"><a xlink:href="class_im_fusion_1_1_param_control.html" target="_top" xlink:title="Base class for parameter controls.">
<polygon fill="white" stroke="#666666" points="145.25,-74.5 22.75,-74.5 22.75,-55.25 145.25,-55.25 145.25,-74.5"/>
<text xml:space="preserve" text-anchor="middle" x="84" y="-61" font-family="Helvetica,sans-Serif" font-size="10.00">ImFusion::ParamControl</text>
</a>
</g>
</g>
<!-- Node2&#45;&gt;Node1 -->
<g id="edge1_Node000001_Node000002" class="edge">
<title>Node2&#45;&gt;Node1</title>
<g id="a_edge1_Node000001_Node000002"><a xlink:title=" ">
<path fill="none" stroke="#63b8ff" d="M84,-43.63C84,-35.34 84,-26.17 84,-19.61"/>
<polygon fill="#63b8ff" stroke="#63b8ff" points="80.5,-43.57 84,-53.57 87.5,-43.57 80.5,-43.57"/>
</a>
</g>
</g>
<!-- Node3 -->
<g id="Node000003" class="node">
<title>Node3</title>
<g id="a_Node000003"><a xlink:title=" ">
<polygon fill="white" stroke="#bfbfbf" points="52,-129.75 0,-129.75 0,-110.5 52,-110.5 52,-129.75"/>
<text xml:space="preserve" text-anchor="middle" x="26" y="-116.25" font-family="Helvetica,sans-Serif" font-size="10.00">QObject</text>
</a>
</g>
</g>
<!-- Node3&#45;&gt;Node2 -->
<g id="edge2_Node000002_Node000003" class="edge">
<title>Node3&#45;&gt;Node2</title>
<g id="a_edge2_Node000002_Node000003"><a xlink:title=" ">
<path fill="none" stroke="#63b8ff" d="M44.26,-102.36C54.22,-93.22 66.14,-82.28 74.31,-74.77"/>
<polygon fill="#63b8ff" stroke="#63b8ff" points="41.95,-99.73 36.95,-109.07 46.69,-104.88 41.95,-99.73"/>
</a>
</g>
</g>
<!-- Node4 -->
<g id="Node000004" class="node">
<title>Node4</title>
<g id="a_Node000004"><a xlink:href="class_im_fusion_1_1_utils_1_1_not_copyable.html" target="_top" xlink:title="Inherit from this class if your class should be neither copy&#45;constructible nor assignable.">
<polygon fill="white" stroke="#666666" points="215.88,-129.75 70.12,-129.75 70.12,-110.5 215.88,-110.5 215.88,-129.75"/>
<text xml:space="preserve" text-anchor="middle" x="143" y="-116.25" font-family="Helvetica,sans-Serif" font-size="10.00">ImFusion::Utils::NotCopyable</text>
</a>
</g>
</g>
<!-- Node4&#45;&gt;Node2 -->
<g id="edge3_Node000002_Node000004" class="edge">
<title>Node4&#45;&gt;Node2</title>
<g id="a_edge3_Node000002_Node000004"><a xlink:title=" ">
<path fill="none" stroke="#8b1a1a" d="M124.73,-102.64C114.54,-93.44 102.26,-82.35 93.86,-74.77"/>
<polygon fill="#8b1a1a" stroke="#8b1a1a" points="122.1,-104.98 131.87,-109.08 126.79,-99.78 122.1,-104.98"/>
</a>
</g>
</g>
</g>
</svg>
