<?xml version="1.0" encoding="UTF-8" standalone="no"?>
<!DOCTYPE svg PUBLIC "-//W3C//DTD SVG 1.1//EN"
 "http://www.w3.org/Graphics/SVG/1.1/DTD/svg11.dtd">
<!-- Generated by graphviz version 14.1.4 (20260321.0153)
 -->
<!-- Title: ImFusion::IoAlgorithm Pages: 1 -->
<svg width="845pt" height="815pt"
 viewBox="0.00 0.00 845.00 815.00" xmlns="http://www.w3.org/2000/svg" xmlns:xlink="http://www.w3.org/1999/xlink">
<g id="graph0" class="graph" transform="scale(1 1) rotate(0) translate(4 811.25)">
<title>ImFusion::IoAlgorithm</title>
<!-- Node1 -->
<g id="Node000001" class="node">
<title>Node1</title>
<g id="a_Node000001"><a xlink:title="Interface for describing IO algorithms.">
<polygon fill="#999999" stroke="#666666" points="433.5,-401.25 321.5,-401.25 321.5,-382 433.5,-382 433.5,-401.25"/>
<text xml:space="preserve" text-anchor="middle" x="377.5" y="-387.75" font-family="Helvetica,sans-Serif" font-size="10.00">ImFusion::IoAlgorithm</text>
</a>
</g>
</g>
<!-- Node5 -->
<g id="Node000005" class="node">
<title>Node5</title>
<g id="a_Node000005"><a xlink:href="class_im_fusion_1_1_csv_io_algorithm.html" target="_top" xlink:title="IO algorithm for moving tensors to and from CSV files.">
<polygon fill="white" stroke="#666666" points="614.88,-807.25 484.88,-807.25 484.88,-788 614.88,-788 614.88,-807.25"/>
<text xml:space="preserve" text-anchor="middle" x="549.88" y="-793.75" font-family="Helvetica,sans-Serif" font-size="10.00">ImFusion::CsvIoAlgorithm</text>
</a>
</g>
</g>
<!-- Node1&#45;&gt;Node5 -->
<g id="edge4_Node000001_Node000005" class="edge">
<title>Node1&#45;&gt;Node5</title>
<g id="a_edge4_Node000001_Node000005"><a xlink:title=" ">
<path fill="none" stroke="#63b8ff" d="M380.57,-412.64C388.14,-485.5 416.77,-725.69 469.5,-778.62 473.8,-782.94 478.89,-786.34 484.4,-789.02"/>
<polygon fill="#63b8ff" stroke="#63b8ff" points="384.07,-412.51 379.58,-402.91 377.1,-413.21 384.07,-412.51"/>
</a>
</g>
</g>
<!-- Node6 -->
<g id="Node000006" class="node">
<title>Node6</title>
<g id="a_Node000006"><a xlink:href="class_im_fusion_1_1_dicom_1_1_dicom_seg_io_algorithm.html" target="_top" xlink:title=" ">
<polygon fill="white" stroke="#bfbfbf" points="621.25,-769.88 478.5,-769.88 478.5,-739.38 621.25,-739.38 621.25,-769.88"/>
<text xml:space="preserve" text-anchor="start" x="486.5" y="-756.38" font-family="Helvetica,sans-Serif" font-size="10.00">ImFusion::Dicom::DicomSeg</text>
<text xml:space="preserve" text-anchor="middle" x="549.88" y="-745.12" font-family="Helvetica,sans-Serif" font-size="10.00">IoAlgorithm</text>
</a>
</g>
</g>
<!-- Node1&#45;&gt;Node6 -->
<g id="edge5_Node000001_Node000006" class="edge">
<title>Node1&#45;&gt;Node6</title>
<g id="a_edge5_Node000001_Node000006"><a xlink:title=" ">
<path fill="none" stroke="#63b8ff" d="M381.42,-412.48C391.11,-478.9 424.18,-683.86 469.5,-730.62 472.61,-733.83 476.12,-736.61 479.91,-739.02"/>
<polygon fill="#63b8ff" stroke="#63b8ff" points="384.93,-412.35 380.05,-402.94 378,-413.34 384.93,-412.35"/>
</a>
</g>
</g>
<!-- Node7 -->
<g id="Node000007" class="node">
<title>Node7</title>
<g id="a_Node000007"><a xlink:href="class_im_fusion_1_1_dicom_io_algorithm.html" target="_top" xlink:title="IoAlgorithm for reading and writing DICOM files.">
<polygon fill="white" stroke="#666666" points="620.12,-721.25 479.62,-721.25 479.62,-702 620.12,-702 620.12,-721.25"/>
<text xml:space="preserve" text-anchor="middle" x="549.88" y="-707.75" font-family="Helvetica,sans-Serif" font-size="10.00">ImFusion::DicomIoAlgorithm</text>
</a>
</g>
</g>
<!-- Node1&#45;&gt;Node7 -->
<g id="edge6_Node000001_Node000007" class="edge">
<title>Node1&#45;&gt;Node7</title>
<g id="a_edge6_Node000001_Node000007"><a xlink:title=" ">
<path fill="none" stroke="#63b8ff" d="M378.2,-413.14C378.66,-468.27 387.87,-615.65 469.5,-692.62 473.31,-696.22 477.68,-699.18 482.37,-701.6"/>
<polygon fill="#63b8ff" stroke="#63b8ff" points="381.7,-413.26 378.22,-403.26 374.7,-413.25 381.7,-413.26"/>
</a>
</g>
</g>
<!-- Node11 -->
<g id="Node000011" class="node">
<title>Node11</title>
<g id="a_Node000011"><a xlink:href="class_im_fusion_1_1_frame_based_point_cloud_io_algorithm.html" target="_top" xlink:title="Algorithm for reading and writing frame&#45;dependent point clouds.">
<polygon fill="white" stroke="#666666" points="620.12,-683.88 479.62,-683.88 479.62,-653.38 620.12,-653.38 620.12,-683.88"/>
<text xml:space="preserve" text-anchor="start" x="487.62" y="-670.38" font-family="Helvetica,sans-Serif" font-size="10.00">ImFusion::FrameBasedPoint</text>
<text xml:space="preserve" text-anchor="middle" x="549.88" y="-659.12" font-family="Helvetica,sans-Serif" font-size="10.00">CloudIoAlgorithm</text>
</a>
</g>
</g>
<!-- Node1&#45;&gt;Node11 -->
<g id="edge10_Node000001_Node000011" class="edge">
<title>Node1&#45;&gt;Node11</title>
<g id="a_edge10_Node000001_Node000011"><a xlink:title=" ">
<path fill="none" stroke="#63b8ff" d="M379.9,-412.98C384.24,-461.36 401.6,-580.14 469.5,-644.62 472.84,-647.8 476.59,-650.55 480.58,-652.94"/>
<polygon fill="#63b8ff" stroke="#63b8ff" points="383.39,-412.75 379.13,-403.05 376.41,-413.29 383.39,-412.75"/>
</a>
</g>
</g>
<!-- Node12 -->
<g id="Node000012" class="node">
<title>Node12</title>
<g id="a_Node000012"><a xlink:href="class_im_fusion_1_1_h_d_f5_io_algorithm.html" target="_top" xlink:title="Algorithm for reading HDF5 files.">
<polygon fill="white" stroke="#666666" points="619,-635.25 480.75,-635.25 480.75,-616 619,-616 619,-635.25"/>
<text xml:space="preserve" text-anchor="middle" x="549.88" y="-621.75" font-family="Helvetica,sans-Serif" font-size="10.00">ImFusion::HDF5IoAlgorithm</text>
</a>
</g>
</g>
<!-- Node1&#45;&gt;Node12 -->
<g id="edge11_Node000001_Node000012" class="edge">
<title>Node1&#45;&gt;Node12</title>
<g id="a_edge11_Node000001_Node000012"><a xlink:title=" ">
<path fill="none" stroke="#63b8ff" d="M381.15,-412.94C387.7,-456.36 408.82,-555.24 469.5,-606.62 473.72,-610.2 478.49,-613.12 483.56,-615.51"/>
<polygon fill="#63b8ff" stroke="#63b8ff" points="384.62,-412.51 379.78,-403.09 377.68,-413.47 384.62,-412.51"/>
</a>
</g>
</g>
<!-- Node13 -->
<g id="Node000013" class="node">
<title>Node13</title>
<g id="a_Node000013"><a xlink:href="class_im_fusion_1_1_im_fusion_file_io_algorithm.html" target="_top" xlink:title="IoAlgorithm to for the ImFusionFile format.">
<polygon fill="white" stroke="#666666" points="613.38,-597.88 486.38,-597.88 486.38,-567.38 613.38,-567.38 613.38,-597.88"/>
<text xml:space="preserve" text-anchor="start" x="494.38" y="-584.38" font-family="Helvetica,sans-Serif" font-size="10.00">ImFusion::ImFusionFileIo</text>
<text xml:space="preserve" text-anchor="middle" x="549.88" y="-573.12" font-family="Helvetica,sans-Serif" font-size="10.00">Algorithm</text>
</a>
</g>
</g>
<!-- Node1&#45;&gt;Node13 -->
<g id="edge12_Node000001_Node000013" class="edge">
<title>Node1&#45;&gt;Node13</title>
<g id="a_edge12_Node000001_Node000013"><a xlink:title=" ">
<path fill="none" stroke="#63b8ff" d="M384.18,-412.51C394.88,-447.87 421.38,-519.49 469.5,-558.62 474.53,-562.71 480.24,-566.1 486.24,-568.92"/>
<polygon fill="#63b8ff" stroke="#63b8ff" points="387.6,-411.72 381.47,-403.08 380.87,-413.66 387.6,-411.72"/>
</a>
</g>
</g>
<!-- Node14 -->
<g id="Node000014" class="node">
<title>Node14</title>
<g id="a_Node000014"><a xlink:href="class_im_fusion_1_1_image_io_algorithm.html" target="_top" xlink:title="Algorithm for reading and writing all supported 2D image formats.">
<polygon fill="white" stroke="#666666" points="619.38,-549.25 480.38,-549.25 480.38,-530 619.38,-530 619.38,-549.25"/>
<text xml:space="preserve" text-anchor="middle" x="549.88" y="-535.75" font-family="Helvetica,sans-Serif" font-size="10.00">ImFusion::ImageIoAlgorithm</text>
</a>
</g>
</g>
<!-- Node1&#45;&gt;Node14 -->
<g id="edge13_Node000001_Node000014" class="edge">
<title>Node1&#45;&gt;Node14</title>
<g id="a_edge13_Node000001_Node000014"><a xlink:title=" ">
<path fill="none" stroke="#63b8ff" d="M386.89,-411.84C400.04,-440.88 428.32,-493.96 469.5,-521.62 474.19,-524.78 479.36,-527.38 484.73,-529.54"/>
<polygon fill="#63b8ff" stroke="#63b8ff" points="390.27,-410.82 383.07,-403.05 383.85,-413.61 390.27,-410.82"/>
</a>
</g>
</g>
<!-- Node15 -->
<g id="Node000015" class="node">
<title>Node15</title>
<g id="a_Node000015"><a xlink:href="class_im_fusion_1_1_image_set_io_algorithm.html" target="_top" xlink:title="Algorithm for reading all 2D images in a directory into an image set.">
<polygon fill="white" stroke="#666666" points="626.88,-512.25 472.88,-512.25 472.88,-493 626.88,-493 626.88,-512.25"/>
<text xml:space="preserve" text-anchor="middle" x="549.88" y="-498.75" font-family="Helvetica,sans-Serif" font-size="10.00">ImFusion::ImageSetIoAlgorithm</text>
</a>
</g>
</g>
<!-- Node1&#45;&gt;Node15 -->
<g id="edge14_Node000001_Node000015" class="edge">
<title>Node1&#45;&gt;Node15</title>
<g id="a_edge14_Node000001_Node000015"><a xlink:title=" ">
<path fill="none" stroke="#63b8ff" d="M391.77,-410.67C407.71,-432.06 436.48,-466.17 469.5,-484.62 475.17,-487.8 481.37,-490.41 487.72,-492.56"/>
<polygon fill="#63b8ff" stroke="#63b8ff" points="394.78,-408.86 386.08,-402.81 389.11,-412.97 394.78,-408.86"/>
</a>
</g>
</g>
<!-- Node16 -->
<g id="Node000016" class="node">
<title>Node16</title>
<g id="a_Node000016"><a xlink:href="class_im_fusion_1_1_interfile_io_algorithm.html" target="_top" xlink:title="IoAlgorithm for loading and saving images stored in Interfile format.">
<polygon fill="white" stroke="#666666" points="622,-475.25 477.75,-475.25 477.75,-456 622,-456 622,-475.25"/>
<text xml:space="preserve" text-anchor="middle" x="549.88" y="-461.75" font-family="Helvetica,sans-Serif" font-size="10.00">ImFusion::InterfileIoAlgorithm</text>
</a>
</g>
</g>
<!-- Node1&#45;&gt;Node16 -->
<g id="edge15_Node000001_Node000016" class="edge">
<title>Node1&#45;&gt;Node16</title>
<g id="a_edge15_Node000001_Node000016"><a xlink:title=" ">
<path fill="none" stroke="#63b8ff" d="M400.83,-408.27C418.6,-420.78 444.54,-437.44 469.5,-447.62 477.09,-450.72 485.31,-453.34 493.5,-455.53"/>
<polygon fill="#63b8ff" stroke="#63b8ff" points="403.01,-405.53 392.85,-402.53 398.92,-411.21 403.01,-405.53"/>
</a>
</g>
</g>
<!-- Node17 -->
<g id="Node000017" class="node">
<title>Node17</title>
<g id="a_Node000017"><a xlink:href="class_im_fusion_1_1_mesh_io_algorithm.html" target="_top" xlink:title="Algorithm for reading and writing meshes.">
<polygon fill="white" stroke="#666666" points="617.88,-438.25 481.88,-438.25 481.88,-419 617.88,-419 617.88,-438.25"/>
<text xml:space="preserve" text-anchor="middle" x="549.88" y="-424.75" font-family="Helvetica,sans-Serif" font-size="10.00">ImFusion::MeshIoAlgorithm</text>
</a>
</g>
</g>
<!-- Node1&#45;&gt;Node17 -->
<g id="edge16_Node000001_Node000017" class="edge">
<title>Node1&#45;&gt;Node17</title>
<g id="a_edge16_Node000001_Node000017"><a xlink:title=" ">
<path fill="none" stroke="#63b8ff" d="M436.07,-404.13C457.66,-408.82 481.91,-414.08 502.38,-418.53"/>
<polygon fill="#63b8ff" stroke="#63b8ff" points="437.05,-400.76 426.53,-402.06 435.56,-407.6 437.05,-400.76"/>
</a>
</g>
</g>
<!-- Node18 -->
<g id="Node000018" class="node">
<title>Node18</title>
<g id="a_Node000018"><a xlink:href="class_im_fusion_1_1_meta_image_io_algorithm.html" target="_top" xlink:title="Algorithm for reading and writing MetaImage files.">
<polygon fill="white" stroke="#666666" points="630.25,-401.25 469.5,-401.25 469.5,-382 630.25,-382 630.25,-401.25"/>
<text xml:space="preserve" text-anchor="middle" x="549.88" y="-387.75" font-family="Helvetica,sans-Serif" font-size="10.00">ImFusion::MetaImageIoAlgorithm</text>
</a>
</g>
</g>
<!-- Node1&#45;&gt;Node18 -->
<g id="edge17_Node000001_Node000018" class="edge">
<title>Node1&#45;&gt;Node18</title>
<g id="a_edge17_Node000001_Node000018"><a xlink:title=" ">
<path fill="none" stroke="#63b8ff" d="M445.14,-391.62C452.99,-391.62 461.07,-391.62 469.09,-391.62"/>
<polygon fill="#63b8ff" stroke="#63b8ff" points="445.33,-388.13 435.33,-391.63 445.33,-395.13 445.33,-388.13"/>
</a>
</g>
</g>
<!-- Node19 -->
<g id="Node000019" class="node">
<title>Node19</title>
<g id="a_Node000019"><a xlink:href="class_im_fusion_1_1_nifti_io_algorithm.html" target="_top" xlink:title="Algorithm for reading and writing NIFTI data.">
<polygon fill="white" stroke="#666666" points="614.88,-364.25 484.88,-364.25 484.88,-345 614.88,-345 614.88,-364.25"/>
<text xml:space="preserve" text-anchor="middle" x="549.88" y="-350.75" font-family="Helvetica,sans-Serif" font-size="10.00">ImFusion::NiftiIoAlgorithm</text>
</a>
</g>
</g>
<!-- Node1&#45;&gt;Node19 -->
<g id="edge18_Node000001_Node000019" class="edge">
<title>Node1&#45;&gt;Node19</title>
<g id="a_edge18_Node000001_Node000019"><a xlink:title=" ">
<path fill="none" stroke="#63b8ff" d="M436.07,-379.12C457.66,-374.43 481.91,-369.17 502.38,-364.72"/>
<polygon fill="#63b8ff" stroke="#63b8ff" points="435.56,-375.65 426.53,-381.19 437.05,-382.49 435.56,-375.65"/>
</a>
</g>
</g>
<!-- Node20 -->
<g id="Node000020" class="node">
<title>Node20</title>
<g id="a_Node000020"><a xlink:href="class_im_fusion_1_1_nrrd_io_algorithm.html" target="_top" xlink:title="Algorithm for reading NRRD images.">
<polygon fill="white" stroke="#666666" points="615.25,-327.25 484.5,-327.25 484.5,-308 615.25,-308 615.25,-327.25"/>
<text xml:space="preserve" text-anchor="middle" x="549.88" y="-313.75" font-family="Helvetica,sans-Serif" font-size="10.00">ImFusion::NrrdIoAlgorithm</text>
</a>
</g>
</g>
<!-- Node1&#45;&gt;Node20 -->
<g id="edge19_Node000001_Node000020" class="edge">
<title>Node1&#45;&gt;Node20</title>
<g id="a_edge19_Node000001_Node000020"><a xlink:title=" ">
<path fill="none" stroke="#63b8ff" d="M400.83,-374.98C418.6,-362.47 444.54,-345.81 469.5,-335.62 477.09,-332.53 485.31,-329.91 493.5,-327.72"/>
<polygon fill="#63b8ff" stroke="#63b8ff" points="398.92,-372.04 392.85,-380.72 403.01,-377.72 398.92,-372.04"/>
</a>
</g>
</g>
<!-- Node21 -->
<g id="Node000021" class="node">
<title>Node21</title>
<g id="a_Node000021"><a xlink:href="class_im_fusion_1_1_point_cloud_io_algorithm.html" target="_top" xlink:title="Algorithm for reading and writing point clouds.">
<polygon fill="white" stroke="#666666" points="629.88,-290.25 469.88,-290.25 469.88,-271 629.88,-271 629.88,-290.25"/>
<text xml:space="preserve" text-anchor="middle" x="549.88" y="-276.75" font-family="Helvetica,sans-Serif" font-size="10.00">ImFusion::PointCloudIoAlgorithm</text>
</a>
</g>
</g>
<!-- Node1&#45;&gt;Node21 -->
<g id="edge20_Node000001_Node000021" class="edge">
<title>Node1&#45;&gt;Node21</title>
<g id="a_edge20_Node000001_Node000021"><a xlink:title=" ">
<path fill="none" stroke="#63b8ff" d="M391.77,-372.58C407.71,-351.19 436.48,-317.08 469.5,-298.62 475.17,-295.45 481.37,-292.84 487.72,-290.69"/>
<polygon fill="#63b8ff" stroke="#63b8ff" points="389.11,-370.28 386.08,-380.44 394.78,-374.39 389.11,-370.28"/>
</a>
</g>
</g>
<!-- Node22 -->
<g id="Node000022" class="node">
<title>Node22</title>
<g id="a_Node000022"><a xlink:href="class_im_fusion_1_1_raw_image_io_algorithm.html" target="_top" xlink:title="Algorithm for reading and writing raw image data.">
<polygon fill="white" stroke="#666666" points="629.5,-253.25 470.25,-253.25 470.25,-234 629.5,-234 629.5,-253.25"/>
<text xml:space="preserve" text-anchor="middle" x="549.88" y="-239.75" font-family="Helvetica,sans-Serif" font-size="10.00">ImFusion::RawImageIoAlgorithm</text>
</a>
</g>
</g>
<!-- Node1&#45;&gt;Node22 -->
<g id="edge21_Node000001_Node000022" class="edge">
<title>Node1&#45;&gt;Node22</title>
<g id="a_edge21_Node000001_Node000022"><a xlink:title=" ">
<path fill="none" stroke="#63b8ff" d="M386.89,-371.41C400.04,-342.37 428.32,-289.29 469.5,-261.62 474.19,-258.47 479.36,-255.87 484.73,-253.71"/>
<polygon fill="#63b8ff" stroke="#63b8ff" points="383.85,-369.64 383.07,-380.2 390.27,-372.43 383.85,-369.64"/>
</a>
</g>
</g>
<!-- Node23 -->
<g id="Node000023" class="node">
<title>Node23</title>
<g id="a_Node000023"><a xlink:href="class_im_fusion_1_1_registration_results_io_algorithm.html" target="_top" xlink:title="Algorithm for loading ImFusion Registration Results (irr) files.">
<polygon fill="white" stroke="#666666" points="624.25,-215.88 475.5,-215.88 475.5,-185.38 624.25,-185.38 624.25,-215.88"/>
<text xml:space="preserve" text-anchor="start" x="483.5" y="-202.38" font-family="Helvetica,sans-Serif" font-size="10.00">ImFusion::RegistrationResults</text>
<text xml:space="preserve" text-anchor="middle" x="549.88" y="-191.12" font-family="Helvetica,sans-Serif" font-size="10.00">IoAlgorithm</text>
</a>
</g>
</g>
<!-- Node1&#45;&gt;Node23 -->
<g id="edge22_Node000001_Node000023" class="edge">
<title>Node1&#45;&gt;Node23</title>
<g id="a_edge22_Node000001_Node000023"><a xlink:title=" ">
<path fill="none" stroke="#63b8ff" d="M384.18,-370.74C394.88,-335.38 421.38,-263.76 469.5,-224.62 473.41,-221.45 477.73,-218.69 482.29,-216.29"/>
<polygon fill="#63b8ff" stroke="#63b8ff" points="380.87,-369.59 381.47,-380.17 387.6,-371.53 380.87,-369.59"/>
</a>
</g>
</g>
<!-- Node24 -->
<g id="Node000024" class="node">
<title>Node24</title>
<g id="a_Node000024"><a xlink:href="class_im_fusion_1_1_tensor_io_algorithm.html" target="_top" xlink:title="IO algorithm for moving tensors to and from binary files.">
<polygon fill="white" stroke="#666666" points="620.5,-167.25 479.25,-167.25 479.25,-148 620.5,-148 620.5,-167.25"/>
<text xml:space="preserve" text-anchor="middle" x="549.88" y="-153.75" font-family="Helvetica,sans-Serif" font-size="10.00">ImFusion::TensorIoAlgorithm</text>
</a>
</g>
</g>
<!-- Node1&#45;&gt;Node24 -->
<g id="edge23_Node000001_Node000024" class="edge">
<title>Node1&#45;&gt;Node24</title>
<g id="a_edge23_Node000001_Node000024"><a xlink:title=" ">
<path fill="none" stroke="#63b8ff" d="M381.15,-370.31C387.7,-326.89 408.82,-228.01 469.5,-176.62 473.72,-173.05 478.49,-170.13 483.56,-167.74"/>
<polygon fill="#63b8ff" stroke="#63b8ff" points="377.68,-369.78 379.78,-380.16 384.62,-370.74 377.68,-369.78"/>
</a>
</g>
</g>
<!-- Node25 -->
<g id="Node000025" class="node">
<title>Node25</title>
<g id="a_Node000025"><a xlink:href="class_im_fusion_1_1_tracking_sequence_i_o.html" target="_top" xlink:title="IO class to (de)serialize TrackingSequence objects.">
<polygon fill="white" stroke="#666666" points="626.88,-130.25 472.88,-130.25 472.88,-111 626.88,-111 626.88,-130.25"/>
<text xml:space="preserve" text-anchor="middle" x="549.88" y="-116.75" font-family="Helvetica,sans-Serif" font-size="10.00">ImFusion::TrackingSequenceIO</text>
</a>
</g>
</g>
<!-- Node1&#45;&gt;Node25 -->
<g id="edge24_Node000001_Node000025" class="edge">
<title>Node1&#45;&gt;Node25</title>
<g id="a_edge24_Node000001_Node000025"><a xlink:title=" ">
<path fill="none" stroke="#63b8ff" d="M379.56,-370.24C383.2,-321.35 399.21,-200.8 469.5,-138.62 473.1,-135.44 477.14,-132.79 481.45,-130.58"/>
<polygon fill="#63b8ff" stroke="#63b8ff" points="376.08,-369.83 378.95,-380.03 383.07,-370.27 376.08,-369.83"/>
</a>
</g>
</g>
<!-- Node26 -->
<g id="Node000026" class="node">
<title>Node26</title>
<g id="a_Node000026"><a xlink:href="class_im_fusion_1_1_tree_io_algorithm.html" target="_top" xlink:title="Algorithm for reading and writing trees.">
<polygon fill="white" stroke="#666666" points="615.62,-93.25 484.12,-93.25 484.12,-74 615.62,-74 615.62,-93.25"/>
<text xml:space="preserve" text-anchor="middle" x="549.88" y="-79.75" font-family="Helvetica,sans-Serif" font-size="10.00">ImFusion::TreeIoAlgorithm</text>
</a>
</g>
</g>
<!-- Node1&#45;&gt;Node26 -->
<g id="edge25_Node000001_Node000026" class="edge">
<title>Node1&#45;&gt;Node26</title>
<g id="a_edge25_Node000001_Node000026"><a xlink:title=" ">
<path fill="none" stroke="#63b8ff" d="M378.43,-370.12C379.5,-316.29 390.12,-174.82 469.5,-101.62 473.76,-97.7 478.69,-94.57 483.97,-92.08"/>
<polygon fill="#63b8ff" stroke="#63b8ff" points="374.93,-370.02 378.34,-380.05 381.93,-370.08 374.93,-370.02"/>
</a>
</g>
</g>
<!-- Node27 -->
<g id="Node000027" class="node">
<title>Node27</title>
<g id="a_Node000027"><a xlink:href="class_im_fusion_1_1_video_io_algorithm.html" target="_top" xlink:title="Algorithm for reading video files as image set, and writing them.">
<polygon fill="white" stroke="#666666" points="618.25,-56.25 481.5,-56.25 481.5,-37 618.25,-37 618.25,-56.25"/>
<text xml:space="preserve" text-anchor="middle" x="549.88" y="-42.75" font-family="Helvetica,sans-Serif" font-size="10.00">ImFusion::VideoIoAlgorithm</text>
</a>
</g>
</g>
<!-- Node1&#45;&gt;Node27 -->
<g id="edge26_Node000001_Node000027" class="edge">
<title>Node1&#45;&gt;Node27</title>
<g id="a_edge26_Node000001_Node000027"><a xlink:title=" ">
<path fill="none" stroke="#63b8ff" d="M381.52,-370.54C391.3,-305.19 424.1,-107.88 469.5,-64.62 472.98,-61.31 476.93,-58.56 481.18,-56.28"/>
<polygon fill="#63b8ff" stroke="#63b8ff" points="378.08,-369.86 380.09,-380.27 385.01,-370.88 378.08,-369.86"/>
</a>
</g>
</g>
<!-- Node30 -->
<g id="Node000030" class="node">
<title>Node30</title>
<g id="a_Node000030"><a xlink:href="class_im_fusion_1_1_zip_io_algorithm.html" target="_top" xlink:title="Loads data from a ZIP archive.">
<polygon fill="white" stroke="#666666" points="612.62,-19.25 487.12,-19.25 487.12,0 612.62,0 612.62,-19.25"/>
<text xml:space="preserve" text-anchor="middle" x="549.88" y="-5.75" font-family="Helvetica,sans-Serif" font-size="10.00">ImFusion::ZipIoAlgorithm</text>
</a>
</g>
</g>
<!-- Node1&#45;&gt;Node30 -->
<g id="edge29_Node000001_Node000030" class="edge">
<title>Node1&#45;&gt;Node30</title>
<g id="a_edge29_Node000001_Node000030"><a xlink:title=" ">
<path fill="none" stroke="#63b8ff" d="M380.89,-370.48C389.25,-300.28 419.42,-76.62 469.5,-27.62 474.45,-22.78 480.41,-19.14 486.82,-16.4"/>
<polygon fill="#63b8ff" stroke="#63b8ff" points="377.44,-369.89 379.76,-380.22 384.39,-370.7 377.44,-369.89"/>
</a>
</g>
</g>
<!-- Node2 -->
<g id="Node000002" class="node">
<title>Node2</title>
<g id="a_Node000002"><a xlink:href="class_im_fusion_1_1_algorithm.html" target="_top" xlink:title="Interface for describing algorithms that can be made available in the ImFusion Suite through Algorith...">
<polygon fill="white" stroke="#666666" points="285.5,-401.25 181.75,-401.25 181.75,-382 285.5,-382 285.5,-401.25"/>
<text xml:space="preserve" text-anchor="middle" x="233.62" y="-387.75" font-family="Helvetica,sans-Serif" font-size="10.00">ImFusion::Algorithm</text>
</a>
</g>
</g>
<!-- Node2&#45;&gt;Node1 -->
<g id="edge1_Node000001_Node000002" class="edge">
<title>Node2&#45;&gt;Node1</title>
<g id="a_edge1_Node000001_Node000002"><a xlink:title=" ">
<path fill="none" stroke="#63b8ff" d="M297.29,-391.62C305.2,-391.62 313.25,-391.62 321.04,-391.62"/>
<polygon fill="#63b8ff" stroke="#63b8ff" points="297.36,-388.13 287.36,-391.63 297.36,-395.13 297.36,-388.13"/>
</a>
</g>
</g>
<!-- Node3 -->
<g id="Node000003" class="node">
<title>Node3</title>
<g id="a_Node000003"><a xlink:href="class_im_fusion_1_1_configurable.html" target="_top" xlink:title="Base interface for classes that support object serialization from/to Properties objects.">
<polygon fill="white" stroke="#666666" points="131.5,-420.25 14.25,-420.25 14.25,-401 131.5,-401 131.5,-420.25"/>
<text xml:space="preserve" text-anchor="middle" x="72.88" y="-406.75" font-family="Helvetica,sans-Serif" font-size="10.00">ImFusion::Configurable</text>
</a>
</g>
</g>
<!-- Node3&#45;&gt;Node2 -->
<g id="edge2_Node000002_Node000003" class="edge">
<title>Node3&#45;&gt;Node2</title>
<g id="a_edge2_Node000002_Node000003"><a xlink:title=" ">
<path fill="none" stroke="#63b8ff" d="M142.89,-402.36C155.85,-400.81 169.18,-399.22 181.47,-397.75"/>
<polygon fill="#63b8ff" stroke="#63b8ff" points="142.65,-398.87 133.14,-403.53 143.48,-405.82 142.65,-398.87"/>
</a>
</g>
</g>
<!-- Node4 -->
<g id="Node000004" class="node">
<title>Node4</title>
<g id="a_Node000004"><a xlink:href="class_im_fusion_1_1_utils_1_1_not_copyable.html" target="_top" xlink:title="Inherit from this class if your class should be neither copy&#45;constructible nor assignable.">
<polygon fill="white" stroke="#666666" points="145.75,-383.25 0,-383.25 0,-364 145.75,-364 145.75,-383.25"/>
<text xml:space="preserve" text-anchor="middle" x="72.88" y="-369.75" font-family="Helvetica,sans-Serif" font-size="10.00">ImFusion::Utils::NotCopyable</text>
</a>
</g>
</g>
<!-- Node4&#45;&gt;Node2 -->
<g id="edge3_Node000002_Node000004" class="edge">
<title>Node4&#45;&gt;Node2</title>
<g id="a_edge3_Node000002_Node000004"><a xlink:title=" ">
<path fill="none" stroke="#8b1a1a" d="M157.08,-383.06C165.34,-384 173.54,-384.93 181.33,-385.81"/>
<polygon fill="#8b1a1a" stroke="#8b1a1a" points="157.65,-379.6 147.32,-381.95 156.86,-386.56 157.65,-379.6"/>
</a>
</g>
</g>
<!-- Node8 -->
<g id="Node000008" class="node">
<title>Node8</title>
<g id="a_Node000008"><a xlink:href="class_im_fusion_1_1_dicom_i_o_algorithm_browser.html" target="_top" xlink:title=" ">
<polygon fill="white" stroke="#bfbfbf" points="822.88,-769.88 680.12,-769.88 680.12,-739.38 822.88,-739.38 822.88,-769.88"/>
<text xml:space="preserve" text-anchor="start" x="688.12" y="-756.38" font-family="Helvetica,sans-Serif" font-size="10.00">ImFusion::DicomIOAlgorithm</text>
<text xml:space="preserve" text-anchor="middle" x="751.5" y="-745.12" font-family="Helvetica,sans-Serif" font-size="10.00">Browser</text>
</a>
</g>
</g>
<!-- Node7&#45;&gt;Node8 -->
<g id="edge7_Node000007_Node000008" class="edge">
<title>Node7&#45;&gt;Node8</title>
<g id="a_edge7_Node000007_Node000008"><a xlink:title=" ">
<path fill="none" stroke="#63b8ff" d="M608.92,-724.13C631.06,-728.9 656.55,-734.39 679.75,-739.38"/>
<polygon fill="#63b8ff" stroke="#63b8ff" points="609.67,-720.71 599.16,-722.03 608.2,-727.55 609.67,-720.71"/>
</a>
</g>
</g>
<!-- Node9 -->
<g id="Node000009" class="node">
<title>Node9</title>
<g id="a_Node000009"><a xlink:href="class_im_fusion_1_1_dicom_i_o_algorithm_file.html" target="_top" xlink:title=" ">
<polygon fill="white" stroke="#bfbfbf" points="830.75,-721.25 672.25,-721.25 672.25,-702 830.75,-702 830.75,-721.25"/>
<text xml:space="preserve" text-anchor="middle" x="751.5" y="-707.75" font-family="Helvetica,sans-Serif" font-size="10.00">ImFusion::DicomIOAlgorithmFile</text>
</a>
</g>
</g>
<!-- Node7&#45;&gt;Node9 -->
<g id="edge8_Node000007_Node000009" class="edge">
<title>Node7&#45;&gt;Node9</title>
<g id="a_edge8_Node000007_Node000009"><a xlink:title=" ">
<path fill="none" stroke="#63b8ff" d="M631.9,-711.62C645.13,-711.62 658.82,-711.62 671.99,-711.62"/>
<polygon fill="#63b8ff" stroke="#63b8ff" points="631.93,-708.13 621.93,-711.63 631.93,-715.13 631.93,-708.13"/>
</a>
</g>
</g>
<!-- Node10 -->
<g id="Node000010" class="node">
<title>Node10</title>
<g id="a_Node000010"><a xlink:href="class_im_fusion_1_1_dicom_i_o_algorithm_folder.html" target="_top" xlink:title=" ">
<polygon fill="white" stroke="#bfbfbf" points="822.88,-683.88 680.12,-683.88 680.12,-653.38 822.88,-653.38 822.88,-683.88"/>
<text xml:space="preserve" text-anchor="start" x="688.12" y="-670.38" font-family="Helvetica,sans-Serif" font-size="10.00">ImFusion::DicomIOAlgorithm</text>
<text xml:space="preserve" text-anchor="middle" x="751.5" y="-659.12" font-family="Helvetica,sans-Serif" font-size="10.00">Folder</text>
</a>
</g>
</g>
<!-- Node7&#45;&gt;Node10 -->
<g id="edge9_Node000007_Node000010" class="edge">
<title>Node7&#45;&gt;Node10</title>
<g id="a_edge9_Node000007_Node000010"><a xlink:title=" ">
<path fill="none" stroke="#63b8ff" d="M608.92,-699.12C631.06,-694.35 656.55,-688.86 679.75,-683.87"/>
<polygon fill="#63b8ff" stroke="#63b8ff" points="608.2,-695.7 599.16,-701.22 609.67,-702.54 608.2,-695.7"/>
</a>
</g>
</g>
<!-- Node28 -->
<g id="Node000028" class="node">
<title>Node28</title>
<g id="a_Node000028"><a xlink:href="class_im_fusion_1_1_unpack_video_io_algorithm.html" target="_top" xlink:title="Derived class for different factory name when reading.">
<polygon fill="white" stroke="#666666" points="836.75,-74.25 666.25,-74.25 666.25,-55 836.75,-55 836.75,-74.25"/>
<text xml:space="preserve" text-anchor="middle" x="751.5" y="-60.75" font-family="Helvetica,sans-Serif" font-size="10.00">ImFusion::UnpackVideoIoAlgorithm</text>
</a>
</g>
</g>
<!-- Node27&#45;&gt;Node28 -->
<g id="edge27_Node000027_Node000028" class="edge">
<title>Node27&#45;&gt;Node28</title>
<g id="a_edge27_Node000027_Node000028"><a xlink:title=" ">
<path fill="none" stroke="#63b8ff" d="M629.91,-53.75C641.72,-54.82 653.94,-55.92 665.86,-56.99"/>
<polygon fill="#63b8ff" stroke="#63b8ff" points="630.52,-50.29 620.24,-52.88 629.89,-57.26 630.52,-50.29"/>
</a>
</g>
</g>
<!-- Node29 -->
<g id="Node000029" class="node">
<title>Node29</title>
<g id="a_Node000029"><a xlink:href="class_im_fusion_1_1_video_file_io_algorithm.html" target="_top" xlink:title="Derived class for different factory name when writing.">
<polygon fill="white" stroke="#666666" points="827.75,-37.25 675.25,-37.25 675.25,-18 827.75,-18 827.75,-37.25"/>
<text xml:space="preserve" text-anchor="middle" x="751.5" y="-23.75" font-family="Helvetica,sans-Serif" font-size="10.00">ImFusion::VideoFileIoAlgorithm</text>
</a>
</g>
</g>
<!-- Node27&#45;&gt;Node29 -->
<g id="edge28_Node000027_Node000029" class="edge">
<title>Node27&#45;&gt;Node29</title>
<g id="a_edge28_Node000027_Node000029"><a xlink:title=" ">
<path fill="none" stroke="#63b8ff" d="M629.93,-39.1C644.76,-37.69 660.22,-36.22 674.94,-34.82"/>
<polygon fill="#63b8ff" stroke="#63b8ff" points="629.87,-35.59 620.24,-40.02 630.53,-42.56 629.87,-35.59"/>
</a>
</g>
</g>
</g>
</svg>
