<?xml version="1.0" encoding="UTF-8" standalone="no"?>
<!DOCTYPE svg PUBLIC "-//W3C//DTD SVG 1.1//EN"
 "http://www.w3.org/Graphics/SVG/1.1/DTD/svg11.dtd">
<!-- Generated by graphviz version 14.1.4 (20260321.0153)
 -->
<!-- Title: ImFusion::GUI::View Pages: 1 -->
<svg width="630pt" height="175pt"
 viewBox="0.00 0.00 630.00 175.00" xmlns="http://www.w3.org/2000/svg" xmlns:xlink="http://www.w3.org/1999/xlink">
<g id="graph0" class="graph" transform="scale(1 1) rotate(0) translate(4 171.25)">
<title>ImFusion::GUI::View</title>
<!-- Node1 -->
<g id="Node000001" class="node">
<title>Node1</title>
<g id="a_Node000001"><a xlink:title="Base interface for a rendering view (e.g.">
<polygon fill="#999999" stroke="#666666" points="272.75,-130.25 164.5,-130.25 164.5,-111 272.75,-111 272.75,-130.25"/>
<text xml:space="preserve" text-anchor="middle" x="218.62" y="-116.75" font-family="Helvetica,sans-Serif" font-size="10.00">ImFusion::GUI::View</text>
</a>
</g>
</g>
<!-- Node4 -->
<g id="Node000004" class="node">
<title>Node4</title>
<g id="a_Node000004"><a xlink:href="class_im_fusion_1_1_g_u_i_1_1_slice_view.html" target="_top" xlink:title="2D renderer for SharedImageSets that can be hosted inside a Display.">
<polygon fill="white" stroke="#666666" points="444.38,-167.25 314.38,-167.25 314.38,-148 444.38,-148 444.38,-167.25"/>
<text xml:space="preserve" text-anchor="middle" x="379.38" y="-153.75" font-family="Helvetica,sans-Serif" font-size="10.00">ImFusion::GUI::SliceView</text>
</a>
</g>
</g>
<!-- Node1&#45;&gt;Node4 -->
<g id="edge3_Node000001_Node000004" class="edge">
<title>Node1&#45;&gt;Node4</title>
<g id="a_edge3_Node000001_Node000004"><a xlink:title=" ">
<path fill="none" stroke="#63b8ff" d="M274.1,-133.32C294.01,-137.96 316.24,-143.14 335.05,-147.53"/>
<polygon fill="#63b8ff" stroke="#63b8ff" points="275.01,-129.94 264.48,-131.08 273.42,-136.76 275.01,-129.94"/>
</a>
</g>
</g>
<!-- Node5 -->
<g id="Node000005" class="node">
<title>Node5</title>
<g id="a_Node000005"><a xlink:href="class_im_fusion_1_1_g_u_i_1_1_volume_view.html" target="_top" xlink:title="Volumetric 3D renderer for SharedImageSets that can be hosted inside a Display.">
<polygon fill="white" stroke="#666666" points="450,-130.25 308.75,-130.25 308.75,-111 450,-111 450,-130.25"/>
<text xml:space="preserve" text-anchor="middle" x="379.38" y="-116.75" font-family="Helvetica,sans-Serif" font-size="10.00">ImFusion::GUI::VolumeView</text>
</a>
</g>
</g>
<!-- Node1&#45;&gt;Node5 -->
<g id="edge4_Node000001_Node000005" class="edge">
<title>Node1&#45;&gt;Node5</title>
<g id="a_edge4_Node000001_Node000005"><a xlink:title=" ">
<path fill="none" stroke="#63b8ff" d="M284.32,-120.62C292.22,-120.62 300.32,-120.62 308.3,-120.62"/>
<polygon fill="#63b8ff" stroke="#63b8ff" points="284.44,-117.13 274.44,-120.63 284.44,-124.13 284.44,-117.13"/>
</a>
</g>
</g>
<!-- Node6 -->
<g id="Node000006" class="node">
<title>Node6</title>
<g id="a_Node000006"><a xlink:href="class_im_fusion_1_1_interactive_view.html" target="_top" xlink:title="Abstract base class for a view that can be hosted by a DisplayWidget.">
<polygon fill="white" stroke="#666666" points="444.38,-93.25 314.38,-93.25 314.38,-74 444.38,-74 444.38,-93.25"/>
<text xml:space="preserve" text-anchor="middle" x="379.38" y="-79.75" font-family="Helvetica,sans-Serif" font-size="10.00">ImFusion::InteractiveView</text>
</a>
</g>
</g>
<!-- Node1&#45;&gt;Node6 -->
<g id="edge5_Node000001_Node000006" class="edge">
<title>Node1&#45;&gt;Node6</title>
<g id="a_edge5_Node000001_Node000006"><a xlink:title=" ">
<path fill="none" stroke="#63b8ff" d="M274.1,-107.93C294.01,-103.29 316.24,-98.11 335.05,-93.72"/>
<polygon fill="#63b8ff" stroke="#63b8ff" points="273.42,-104.49 264.48,-110.17 275.01,-111.31 273.42,-104.49"/>
</a>
</g>
</g>
<!-- Node2 -->
<g id="Node000002" class="node">
<title>Node2</title>
<g id="a_Node000002"><a xlink:href="class_im_fusion_1_1_configurable.html" target="_top" xlink:title="Base interface for classes that support object serialization from/to Properties objects.">
<polygon fill="white" stroke="#666666" points="122.88,-149.25 5.62,-149.25 5.62,-130 122.88,-130 122.88,-149.25"/>
<text xml:space="preserve" text-anchor="middle" x="64.25" y="-135.75" font-family="Helvetica,sans-Serif" font-size="10.00">ImFusion::Configurable</text>
</a>
</g>
</g>
<!-- Node2&#45;&gt;Node1 -->
<g id="edge1_Node000001_Node000002" class="edge">
<title>Node2&#45;&gt;Node1</title>
<g id="a_edge1_Node000001_Node000002"><a xlink:title=" ">
<path fill="none" stroke="#63b8ff" d="M134.47,-130.99C144.47,-129.75 154.63,-128.48 164.25,-127.28"/>
<polygon fill="#63b8ff" stroke="#63b8ff" points="134.28,-127.49 124.79,-132.2 135.15,-134.44 134.28,-127.49"/>
</a>
</g>
</g>
<!-- Node3 -->
<g id="Node000003" class="node">
<title>Node3</title>
<g id="a_Node000003"><a xlink:href="class_im_fusion_1_1_signal_receiver.html" target="_top" xlink:title="Base class for classes that can contain slots (i.e.">
<polygon fill="white" stroke="#666666" points="128.5,-112.25 0,-112.25 0,-93 128.5,-93 128.5,-112.25"/>
<text xml:space="preserve" text-anchor="middle" x="64.25" y="-98.75" font-family="Helvetica,sans-Serif" font-size="10.00">ImFusion::SignalReceiver</text>
</a>
</g>
</g>
<!-- Node3&#45;&gt;Node1 -->
<g id="edge2_Node000001_Node000003" class="edge">
<title>Node3&#45;&gt;Node1</title>
<g id="a_edge2_Node000001_Node000003"><a xlink:title=" ">
<path fill="none" stroke="#63b8ff" d="M140.36,-111.5C148.44,-112.45 156.53,-113.41 164.28,-114.32"/>
<polygon fill="#63b8ff" stroke="#63b8ff" points="140.83,-108.03 130.49,-110.33 140.01,-114.98 140.83,-108.03"/>
</a>
</g>
</g>
<!-- Node7 -->
<g id="Node000007" class="node">
<title>Node7</title>
<g id="a_Node000007"><a xlink:href="class_im_fusion_1_1_curve_editor_view.html" target="_top" xlink:title="Curve editor view.">
<polygon fill="white" stroke="#666666" points="622,-167.25 486,-167.25 486,-148 622,-148 622,-167.25"/>
<text xml:space="preserve" text-anchor="middle" x="554" y="-153.75" font-family="Helvetica,sans-Serif" font-size="10.00">ImFusion::CurveEditorView</text>
</a>
</g>
</g>
<!-- Node6&#45;&gt;Node7 -->
<g id="edge6_Node000006_Node000007" class="edge">
<title>Node6&#45;&gt;Node7</title>
<g id="a_edge6_Node000006_Node000007"><a xlink:title=" ">
<path fill="none" stroke="#63b8ff" d="M443.2,-98.03C445.54,-99.14 447.82,-100.34 450,-101.62 470.04,-113.44 466.02,-127.72 486,-139.62 491.28,-142.77 497.11,-145.38 503.07,-147.53"/>
<polygon fill="#63b8ff" stroke="#63b8ff" points="444.6,-94.82 434.02,-94.25 441.94,-101.29 444.6,-94.82"/>
</a>
</g>
</g>
<!-- Node8 -->
<g id="Node000008" class="node">
<title>Node8</title>
<g id="a_Node000008"><a xlink:href="class_im_fusion_1_1_curved_view.html" target="_top" xlink:title="Interactive 2D view of one or multiple images.">
<polygon fill="white" stroke="#666666" points="611.88,-130.25 496.12,-130.25 496.12,-111 611.88,-111 611.88,-130.25"/>
<text xml:space="preserve" text-anchor="middle" x="554" y="-116.75" font-family="Helvetica,sans-Serif" font-size="10.00">ImFusion::CurvedView</text>
</a>
</g>
</g>
<!-- Node6&#45;&gt;Node8 -->
<g id="edge7_Node000006_Node000008" class="edge">
<title>Node6&#45;&gt;Node8</title>
<g id="a_edge7_Node000006_Node000008"><a xlink:title=" ">
<path fill="none" stroke="#63b8ff" d="M438.71,-96.13C460.58,-100.82 485.15,-106.08 505.89,-110.53"/>
<polygon fill="#63b8ff" stroke="#63b8ff" points="439.54,-92.73 429.03,-94.05 438.07,-99.57 439.54,-92.73"/>
</a>
</g>
</g>
<!-- Node9 -->
<g id="Node000009" class="node">
<title>Node9</title>
<g id="a_Node000009"><a xlink:href="class_im_fusion_1_1_image_view2_d.html" target="_top" xlink:title="High&#45;level wrapper class for 2D/MPR rendering of one or multiple images.">
<polygon fill="white" stroke="#666666" points="616,-93.25 492,-93.25 492,-74 616,-74 616,-93.25"/>
<text xml:space="preserve" text-anchor="middle" x="554" y="-79.75" font-family="Helvetica,sans-Serif" font-size="10.00">ImFusion::ImageView2D</text>
</a>
</g>
</g>
<!-- Node6&#45;&gt;Node9 -->
<g id="edge8_Node000006_Node000009" class="edge">
<title>Node6&#45;&gt;Node9</title>
<g id="a_edge8_Node000006_Node000009"><a xlink:title=" ">
<path fill="none" stroke="#63b8ff" d="M455.94,-83.62C467.84,-83.62 480.01,-83.62 491.53,-83.62"/>
<polygon fill="#63b8ff" stroke="#63b8ff" points="456.17,-80.13 446.17,-83.63 456.17,-87.13 456.17,-80.13"/>
</a>
</g>
</g>
<!-- Node10 -->
<g id="Node000010" class="node">
<title>Node10</title>
<g id="a_Node000010"><a xlink:href="class_im_fusion_1_1_image_view3_d.html" target="_top" xlink:title="Qt widget for 3d rendering of one or multiple images.">
<polygon fill="white" stroke="#666666" points="616,-56.25 492,-56.25 492,-37 616,-37 616,-56.25"/>
<text xml:space="preserve" text-anchor="middle" x="554" y="-42.75" font-family="Helvetica,sans-Serif" font-size="10.00">ImFusion::ImageView3D</text>
</a>
</g>
</g>
<!-- Node6&#45;&gt;Node10 -->
<g id="edge9_Node000006_Node000010" class="edge">
<title>Node6&#45;&gt;Node10</title>
<g id="a_edge9_Node000006_Node000010"><a xlink:title=" ">
<path fill="none" stroke="#63b8ff" d="M438.71,-71.12C460.58,-66.43 485.15,-61.17 505.89,-56.72"/>
<polygon fill="#63b8ff" stroke="#63b8ff" points="438.07,-67.68 429.03,-73.2 439.54,-74.52 438.07,-67.68"/>
</a>
</g>
</g>
<!-- Node11 -->
<g id="Node000011" class="node">
<title>Node11</title>
<g id="a_Node000011"><a xlink:href="class_im_fusion_1_1_plot_view.html" target="_top" xlink:title="View for plotting data.">
<polygon fill="white" stroke="#666666" points="604.75,-19.25 503.25,-19.25 503.25,0 604.75,0 604.75,-19.25"/>
<text xml:space="preserve" text-anchor="middle" x="554" y="-5.75" font-family="Helvetica,sans-Serif" font-size="10.00">ImFusion::PlotView</text>
</a>
</g>
</g>
<!-- Node6&#45;&gt;Node11 -->
<g id="edge10_Node000006_Node000011" class="edge">
<title>Node6&#45;&gt;Node11</title>
<g id="a_edge10_Node000006_Node000011"><a xlink:title=" ">
<path fill="none" stroke="#63b8ff" d="M406.38,-67.71C427.29,-55.44 457.75,-38.75 486,-27.62 493.51,-24.67 501.68,-22.03 509.64,-19.74"/>
<polygon fill="#63b8ff" stroke="#63b8ff" points="404.76,-64.61 397.95,-72.73 408.34,-70.62 404.76,-64.61"/>
</a>
</g>
</g>
</g>
</svg>
