<?xml version="1.0" encoding="UTF-8" standalone="no"?>
<!DOCTYPE svg PUBLIC "-//W3C//DTD SVG 1.1//EN"
 "http://www.w3.org/Graphics/SVG/1.1/DTD/svg11.dtd">
<!-- Generated by graphviz version 14.1.4 (20260321.0153)
 -->
<!-- Title: ImFusion::MeshPickingManipulator Pages: 1 -->
<svg width="391pt" height="315pt"
 viewBox="0.00 0.00 391.00 315.00" xmlns="http://www.w3.org/2000/svg" xmlns:xlink="http://www.w3.org/1999/xlink">
<g id="graph0" class="graph" transform="scale(1 1) rotate(0) translate(4 310.75)">
<title>ImFusion::MeshPickingManipulator</title>
<!-- Node1 -->
<g id="Node000001" class="node">
<title>Node1</title>
<g id="a_Node000001"><a xlink:title="Mesh picking manipulator The MeshPickingManipulator can return the list of selected vertices/faces/ed...">
<polygon fill="#999999" stroke="#666666" points="237.88,-19.25 68.88,-19.25 68.88,0 237.88,0 237.88,-19.25"/>
<text xml:space="preserve" text-anchor="middle" x="153.38" y="-5.75" font-family="Helvetica,sans-Serif" font-size="10.00">ImFusion::MeshPickingManipulator</text>
</a>
</g>
</g>
<!-- Node2 -->
<g id="Node000002" class="node">
<title>Node2</title>
<g id="a_Node000002"><a xlink:href="class_im_fusion_1_1_manipulator.html" target="_top" xlink:title="Abstract base class for manipulator objects.">
<polygon fill="white" stroke="#666666" points="148.75,-74.5 36,-74.5 36,-55.25 148.75,-55.25 148.75,-74.5"/>
<text xml:space="preserve" text-anchor="middle" x="92.38" y="-61" font-family="Helvetica,sans-Serif" font-size="10.00">ImFusion::Manipulator</text>
</a>
</g>
</g>
<!-- Node2&#45;&gt;Node1 -->
<g id="edge1_Node000001_Node000002" class="edge">
<title>Node2&#45;&gt;Node1</title>
<g id="a_edge1_Node000001_Node000002"><a xlink:title=" ">
<path fill="none" stroke="#63b8ff" d="M111.26,-47.39C121.8,-38.19 134.5,-27.1 143.18,-19.52"/>
<polygon fill="#63b8ff" stroke="#63b8ff" points="109.09,-44.63 103.86,-53.85 113.7,-49.91 109.09,-44.63"/>
</a>
</g>
</g>
<!-- Node3 -->
<g id="Node000003" class="node">
<title>Node3</title>
<g id="a_Node000003"><a xlink:href="class_im_fusion_1_1_g_u_i_1_1_view_object_1_1_event_handler.html" target="_top" xlink:title="Interface to be used as base class for event handlers of ViewObjects.">
<polygon fill="white" stroke="#666666" points="136.75,-141 0,-141 0,-110.5 136.75,-110.5 136.75,-141"/>
<text xml:space="preserve" text-anchor="start" x="8" y="-127.5" font-family="Helvetica,sans-Serif" font-size="10.00">ImFusion::GUI::ViewObject</text>
<text xml:space="preserve" text-anchor="middle" x="68.38" y="-116.25" font-family="Helvetica,sans-Serif" font-size="10.00">::EventHandler</text>
</a>
</g>
</g>
<!-- Node3&#45;&gt;Node2 -->
<g id="edge2_Node000002_Node000003" class="edge">
<title>Node3&#45;&gt;Node2</title>
<g id="a_edge2_Node000002_Node000003"><a xlink:title=" ">
<path fill="none" stroke="#63b8ff" d="M78.62,-99.61C82.2,-90.84 85.98,-81.56 88.68,-74.95"/>
<polygon fill="#63b8ff" stroke="#63b8ff" points="75.41,-98.21 74.88,-108.8 81.89,-100.86 75.41,-98.21"/>
</a>
</g>
</g>
<!-- Node4 -->
<g id="Node000004" class="node">
<title>Node4</title>
<g id="a_Node000004"><a xlink:href="class_im_fusion_1_1_gl_point.html" target="_top" xlink:title="Point annotation.">
<polygon fill="white" stroke="#666666" points="273.75,-74.5 179,-74.5 179,-55.25 273.75,-55.25 273.75,-74.5"/>
<text xml:space="preserve" text-anchor="middle" x="226.38" y="-61" font-family="Helvetica,sans-Serif" font-size="10.00">ImFusion::GlPoint</text>
</a>
</g>
</g>
<!-- Node4&#45;&gt;Node1 -->
<g id="edge3_Node000001_Node000004" class="edge">
<title>Node4&#45;&gt;Node1</title>
<g id="a_edge3_Node000001_Node000004"><a xlink:title=" ">
<path fill="none" stroke="#63b8ff" d="M204.91,-48.22C192.09,-38.87 176.28,-27.33 165.58,-19.52"/>
<polygon fill="#63b8ff" stroke="#63b8ff" points="202.63,-50.88 212.77,-53.95 206.75,-45.23 202.63,-50.88"/>
</a>
</g>
</g>
<!-- Node5 -->
<g id="Node000005" class="node">
<title>Node5</title>
<g id="a_Node000005"><a xlink:href="class_im_fusion_1_1_gl_point_based_annotation.html" target="_top" xlink:title="Base class for implementing point&#45;based annotations.">
<polygon fill="white" stroke="#666666" points="323.88,-135.38 154.88,-135.38 154.88,-116.12 323.88,-116.12 323.88,-135.38"/>
<text xml:space="preserve" text-anchor="middle" x="239.38" y="-121.88" font-family="Helvetica,sans-Serif" font-size="10.00">ImFusion::GlPointBasedAnnotation</text>
</a>
</g>
</g>
<!-- Node5&#45;&gt;Node4 -->
<g id="edge4_Node000004_Node000005" class="edge">
<title>Node5&#45;&gt;Node4</title>
<g id="a_edge4_Node000004_Node000005"><a xlink:title=" ">
<path fill="none" stroke="#63b8ff" d="M234.94,-104.66C232.71,-94.55 230.11,-82.8 228.37,-74.9"/>
<polygon fill="#63b8ff" stroke="#63b8ff" points="231.5,-105.32 237.07,-114.33 238.34,-103.81 231.5,-105.32"/>
</a>
</g>
</g>
<!-- Node6 -->
<g id="Node000006" class="node">
<title>Node6</title>
<g id="a_Node000006"><a xlink:href="class_im_fusion_1_1_gl_annotation.html" target="_top" xlink:title="Base class for implementing annotations.">
<polygon fill="white" stroke="#666666" points="298.75,-196.25 180,-196.25 180,-177 298.75,-177 298.75,-196.25"/>
<text xml:space="preserve" text-anchor="middle" x="239.38" y="-182.75" font-family="Helvetica,sans-Serif" font-size="10.00">ImFusion::GlAnnotation</text>
</a>
</g>
</g>
<!-- Node6&#45;&gt;Node5 -->
<g id="edge5_Node000005_Node000006" class="edge">
<title>Node6&#45;&gt;Node5</title>
<g id="a_edge5_Node000005_Node000006"><a xlink:title=" ">
<path fill="none" stroke="#63b8ff" d="M239.38,-165.2C239.38,-155.17 239.38,-143.58 239.38,-135.78"/>
<polygon fill="#63b8ff" stroke="#63b8ff" points="235.88,-165.17 239.38,-175.17 242.88,-165.17 235.88,-165.17"/>
</a>
</g>
</g>
<!-- Node7 -->
<g id="Node000007" class="node">
<title>Node7</title>
<g id="a_Node000007"><a xlink:href="class_im_fusion_1_1_gl_object.html" target="_top" xlink:title="Abstract base class for an renderable OpenGL object that can be hosted in a GlView.">
<polygon fill="white" stroke="#666666" points="219.75,-251.5 119,-251.5 119,-232.25 219.75,-232.25 219.75,-251.5"/>
<text xml:space="preserve" text-anchor="middle" x="169.38" y="-238" font-family="Helvetica,sans-Serif" font-size="10.00">ImFusion::GlObject</text>
</a>
</g>
</g>
<!-- Node7&#45;&gt;Node6 -->
<g id="edge6_Node000006_Node000007" class="edge">
<title>Node7&#45;&gt;Node6</title>
<g id="a_edge6_Node000006_Node000007"><a xlink:title=" ">
<path fill="none" stroke="#63b8ff" d="M190.32,-224.94C202.55,-215.64 217.51,-204.26 227.68,-196.52"/>
<polygon fill="#63b8ff" stroke="#63b8ff" points="188.29,-222.09 182.45,-230.93 192.53,-227.66 188.29,-222.09"/>
</a>
</g>
</g>
<!-- Node8 -->
<g id="Node000008" class="node">
<title>Node8</title>
<g id="a_Node000008"><a xlink:href="class_im_fusion_1_1_configurable.html" target="_top" xlink:title="Base interface for classes that support object serialization from/to Properties objects.">
<polygon fill="white" stroke="#666666" points="228,-306.75 110.75,-306.75 110.75,-287.5 228,-287.5 228,-306.75"/>
<text xml:space="preserve" text-anchor="middle" x="169.38" y="-293.25" font-family="Helvetica,sans-Serif" font-size="10.00">ImFusion::Configurable</text>
</a>
</g>
</g>
<!-- Node8&#45;&gt;Node7 -->
<g id="edge7_Node000007_Node000008" class="edge">
<title>Node8&#45;&gt;Node7</title>
<g id="a_edge7_Node000007_Node000008"><a xlink:title=" ">
<path fill="none" stroke="#63b8ff" d="M169.38,-275.88C169.38,-267.59 169.38,-258.42 169.38,-251.86"/>
<polygon fill="#63b8ff" stroke="#63b8ff" points="165.88,-275.82 169.38,-285.82 172.88,-275.82 165.88,-275.82"/>
</a>
</g>
</g>
<!-- Node9 -->
<g id="Node000009" class="node">
<title>Node9</title>
<g id="a_Node000009"><a xlink:href="class_im_fusion_1_1_utils_1_1_not_copyable.html" target="_top" xlink:title="Inherit from this class if your class should be neither copy&#45;constructible nor assignable.">
<polygon fill="white" stroke="#666666" points="383.25,-251.5 237.5,-251.5 237.5,-232.25 383.25,-232.25 383.25,-251.5"/>
<text xml:space="preserve" text-anchor="middle" x="310.38" y="-238" font-family="Helvetica,sans-Serif" font-size="10.00">ImFusion::Utils::NotCopyable</text>
</a>
</g>
</g>
<!-- Node9&#45;&gt;Node6 -->
<g id="edge8_Node000006_Node000009" class="edge">
<title>Node9&#45;&gt;Node6</title>
<g id="a_edge8_Node000006_Node000009"><a xlink:title=" ">
<path fill="none" stroke="#8b1a1a" d="M289.13,-224.94C276.73,-215.64 261.55,-204.26 251.24,-196.52"/>
<polygon fill="#8b1a1a" stroke="#8b1a1a" points="287.02,-227.73 297.12,-230.93 291.22,-222.13 287.02,-227.73"/>
</a>
</g>
</g>
</g>
</svg>
