<?xml version="1.0" encoding="UTF-8" standalone="no"?>
<!DOCTYPE svg PUBLIC "-//W3C//DTD SVG 1.1//EN"
 "http://www.w3.org/Graphics/SVG/1.1/DTD/svg11.dtd">
<!-- Generated by graphviz version 14.1.4 (20260321.0153)
 -->
<!-- Title: ImFusion::LiveImageBasedGating Pages: 1 -->
<svg width="290pt" height="216pt"
 viewBox="0.00 0.00 290.00 216.00" xmlns="http://www.w3.org/2000/svg" xmlns:xlink="http://www.w3.org/1999/xlink">
<g id="graph0" class="graph" transform="scale(1 1) rotate(0) translate(4 211.5)">
<title>ImFusion::LiveImageBasedGating</title>
<!-- Node1 -->
<g id="Node000001" class="node">
<title>Node1</title>
<g id="a_Node000001"><a xlink:title="Compute cardiac or respiratory gating parameters by detecting periodic structural change in the image...">
<polygon fill="#999999" stroke="#666666" points="201.25,-30.5 66,-30.5 66,0 201.25,0 201.25,-30.5"/>
<text xml:space="preserve" text-anchor="start" x="74" y="-17" font-family="Helvetica,sans-Serif" font-size="10.00">ImFusion::LiveImageBased</text>
<text xml:space="preserve" text-anchor="middle" x="133.62" y="-5.75" font-family="Helvetica,sans-Serif" font-size="10.00">Gating</text>
</a>
</g>
</g>
<!-- Node2 -->
<g id="Node000002" class="node">
<title>Node2</title>
<g id="a_Node000002"><a xlink:href="class_im_fusion_1_1_image_based_gating_algorithm.html" target="_top" xlink:title="Compute cardiac or respiratory gating parameters by detecting periodic structural change in the image...">
<polygon fill="white" stroke="#666666" points="206.5,-97 60.75,-97 60.75,-66.5 206.5,-66.5 206.5,-97"/>
<text xml:space="preserve" text-anchor="start" x="68.75" y="-83.5" font-family="Helvetica,sans-Serif" font-size="10.00">ImFusion::ImageBasedGating</text>
<text xml:space="preserve" text-anchor="middle" x="133.62" y="-72.25" font-family="Helvetica,sans-Serif" font-size="10.00">Algorithm</text>
</a>
</g>
</g>
<!-- Node2&#45;&gt;Node1 -->
<g id="edge1_Node000001_Node000002" class="edge">
<title>Node2&#45;&gt;Node1</title>
<g id="a_edge1_Node000001_Node000002"><a xlink:title=" ">
<path fill="none" stroke="#63b8ff" d="M133.62,-54.81C133.62,-46.64 133.62,-37.91 133.62,-30.83"/>
<polygon fill="#63b8ff" stroke="#63b8ff" points="130.13,-54.6 133.63,-64.6 137.13,-54.6 130.13,-54.6"/>
</a>
</g>
</g>
<!-- Node3 -->
<g id="Node000003" class="node">
<title>Node3</title>
<g id="a_Node000003"><a xlink:href="class_im_fusion_1_1_algorithm.html" target="_top" xlink:title="Interface for describing algorithms that can be made available in the ImFusion Suite through Algorith...">
<polygon fill="white" stroke="#666666" points="185.5,-152.25 81.75,-152.25 81.75,-133 185.5,-133 185.5,-152.25"/>
<text xml:space="preserve" text-anchor="middle" x="133.62" y="-138.75" font-family="Helvetica,sans-Serif" font-size="10.00">ImFusion::Algorithm</text>
</a>
</g>
</g>
<!-- Node3&#45;&gt;Node2 -->
<g id="edge2_Node000002_Node000003" class="edge">
<title>Node3&#45;&gt;Node2</title>
<g id="a_edge2_Node000002_Node000003"><a xlink:title=" ">
<path fill="none" stroke="#63b8ff" d="M133.62,-121.42C133.62,-113.49 133.62,-104.56 133.62,-97.28"/>
<polygon fill="#63b8ff" stroke="#63b8ff" points="130.13,-121.17 133.63,-131.17 137.13,-121.17 130.13,-121.17"/>
</a>
</g>
</g>
<!-- Node4 -->
<g id="Node000004" class="node">
<title>Node4</title>
<g id="a_Node000004"><a xlink:href="class_im_fusion_1_1_configurable.html" target="_top" xlink:title="Base interface for classes that support object serialization from/to Properties objects.">
<polygon fill="white" stroke="#666666" points="117.25,-207.5 0,-207.5 0,-188.25 117.25,-188.25 117.25,-207.5"/>
<text xml:space="preserve" text-anchor="middle" x="58.62" y="-194" font-family="Helvetica,sans-Serif" font-size="10.00">ImFusion::Configurable</text>
</a>
</g>
</g>
<!-- Node4&#45;&gt;Node3 -->
<g id="edge3_Node000003_Node000004" class="edge">
<title>Node4&#45;&gt;Node3</title>
<g id="a_edge3_Node000003_Node000004"><a xlink:title=" ">
<path fill="none" stroke="#63b8ff" d="M80.62,-181.26C93.7,-171.97 109.83,-160.52 120.84,-152.7"/>
<polygon fill="#63b8ff" stroke="#63b8ff" points="78.71,-178.32 72.58,-186.97 82.76,-184.03 78.71,-178.32"/>
</a>
</g>
</g>
<!-- Node5 -->
<g id="Node000005" class="node">
<title>Node5</title>
<g id="a_Node000005"><a xlink:href="class_im_fusion_1_1_utils_1_1_not_copyable.html" target="_top" xlink:title="Inherit from this class if your class should be neither copy&#45;constructible nor assignable.">
<polygon fill="white" stroke="#666666" points="281.5,-207.5 135.75,-207.5 135.75,-188.25 281.5,-188.25 281.5,-207.5"/>
<text xml:space="preserve" text-anchor="middle" x="208.62" y="-194" font-family="Helvetica,sans-Serif" font-size="10.00">ImFusion::Utils::NotCopyable</text>
</a>
</g>
</g>
<!-- Node5&#45;&gt;Node3 -->
<g id="edge4_Node000003_Node000005" class="edge">
<title>Node5&#45;&gt;Node3</title>
<g id="a_edge4_Node000003_Node000005"><a xlink:title=" ">
<path fill="none" stroke="#8b1a1a" d="M186.63,-181.26C173.55,-171.97 157.42,-160.52 146.41,-152.7"/>
<polygon fill="#8b1a1a" stroke="#8b1a1a" points="184.49,-184.03 194.67,-186.97 188.54,-178.32 184.49,-184.03"/>
</a>
</g>
</g>
</g>
</svg>
