<?xml version="1.0" encoding="UTF-8" standalone="no"?>
<!DOCTYPE svg PUBLIC "-//W3C//DTD SVG 1.1//EN"
 "http://www.w3.org/Graphics/SVG/1.1/DTD/svg11.dtd">
<!-- Generated by graphviz version 14.1.4 (20260321.0153)
 -->
<!-- Title: ImFusion::DicomIoController Pages: 1 -->
<svg width="341pt" height="248pt"
 viewBox="0.00 0.00 341.00 248.00" xmlns="http://www.w3.org/2000/svg" xmlns:xlink="http://www.w3.org/1999/xlink">

<svg id="main" version="1.1" xmlns="http://www.w3.org/2000/svg" xmlns:xlink="http://www.w3.org/1999/xlink" xml:space="preserve">

<style type="text/css"><![CDATA[
.node, .edge {opacity: 0.7;}
.node.selected, .edge.selected {opacity: 1;}
.edge:hover path { stroke: red; }
.edge:hover polygon { stroke: red; fill: red; }
]]></style>
<script type="application/ecmascript" xlink:href="svg.min.js"/>
<svg id="graph" class="graph">
<g id="graph0" class="graph" transform="scale(1 1) rotate(0) translate(4 244.25)">
<title>ImFusion::DicomIoController</title>
<!-- Node1 -->
<g id="Node000001" class="node">
<title>Node1</title>
<g id="a_Node000001"><a xlink:title=" ">
<polygon fill="#999999" stroke="#666666" points="213.25,-19.25 72,-19.25 72,0 213.25,0 213.25,-19.25"/>
<text xml:space="preserve" text-anchor="middle" x="142.62" y="-5.75" font-family="Helvetica,sans-Serif" font-size="10.00">ImFusion::DicomIoController</text>
</a>
</g>
</g>
<!-- Node2 -->
<g id="Node000002" class="node">
<title>Node2</title>
<g id="a_Node000002"><a xlink:href="class_im_fusion_1_1_io_controller.html" target="_top" xlink:title="Controller for image IO.">
<polygon fill="white" stroke="#666666" points="199,-74.5 86.25,-74.5 86.25,-55.25 199,-55.25 199,-74.5"/>
<text xml:space="preserve" text-anchor="middle" x="142.62" y="-61" font-family="Helvetica,sans-Serif" font-size="10.00">ImFusion::IoController</text>
</a>
</g>
</g>
<!-- Node2&#45;&gt;Node1 -->
<g id="edge1_Node000001_Node000002" class="edge">
<title>Node2&#45;&gt;Node1</title>
<g id="a_edge1_Node000001_Node000002"><a xlink:title=" ">
<path fill="none" stroke="#63b8ff" d="M142.62,-43.63C142.62,-35.34 142.62,-26.17 142.62,-19.61"/>
<polygon fill="#63b8ff" stroke="#63b8ff" points="139.13,-43.57 142.63,-53.57 146.13,-43.57 139.13,-43.57"/>
</a>
</g>
</g>
<!-- Node3 -->
<g id="Node000003" class="node">
<title>Node3</title>
<g id="a_Node000003"><a xlink:title=" ">
<polygon fill="white" stroke="#bfbfbf" points="110.62,-129.75 58.62,-129.75 58.62,-110.5 110.62,-110.5 110.62,-129.75"/>
<text xml:space="preserve" text-anchor="middle" x="84.62" y="-116.25" font-family="Helvetica,sans-Serif" font-size="10.00">QObject</text>
</a>
</g>
</g>
<!-- Node3&#45;&gt;Node2 -->
<g id="edge2_Node000002_Node000003" class="edge">
<title>Node3&#45;&gt;Node2</title>
<g id="a_edge2_Node000002_Node000003"><a xlink:title=" ">
<path fill="none" stroke="#63b8ff" d="M102.89,-102.36C112.84,-93.22 124.76,-82.28 132.93,-74.77"/>
<polygon fill="#63b8ff" stroke="#63b8ff" points="100.58,-99.73 95.58,-109.07 105.31,-104.88 100.58,-99.73"/>
</a>
</g>
</g>
<!-- Node4 -->
<g id="Node000004" class="node">
<title>Node4</title>
<g id="a_Node000004"><a xlink:href="class_im_fusion_1_1_algorithm_controller.html" target="_top" xlink:title="Specialization of the Controller interface to be used with Algorithm instances.">
<polygon fill="white" stroke="#666666" points="274.5,-129.75 128.75,-129.75 128.75,-110.5 274.5,-110.5 274.5,-129.75"/>
<text xml:space="preserve" text-anchor="middle" x="201.62" y="-116.25" font-family="Helvetica,sans-Serif" font-size="10.00">ImFusion::AlgorithmController</text>
</a>
</g>
</g>
<!-- Node4&#45;&gt;Node2 -->
<g id="edge3_Node000002_Node000004" class="edge">
<title>Node4&#45;&gt;Node2</title>
<g id="a_edge3_Node000002_Node000004"><a xlink:title=" ">
<path fill="none" stroke="#63b8ff" d="M183.36,-102.64C173.17,-93.44 160.88,-82.35 152.49,-74.77"/>
<polygon fill="#63b8ff" stroke="#63b8ff" points="180.72,-104.98 190.49,-109.08 185.41,-99.78 180.72,-104.98"/>
</a>
</g>
</g>
<!-- Node5 -->
<g id="Node000005" class="node">
<title>Node5</title>
<g id="a_Node000005"><a xlink:href="class_im_fusion_1_1_controller.html" target="_top" xlink:title="Base interface for a GUI element within MainWindowBase.">
<polygon fill="white" stroke="#666666" points="185.88,-185 81.38,-185 81.38,-165.75 185.88,-165.75 185.88,-185"/>
<text xml:space="preserve" text-anchor="middle" x="133.62" y="-171.5" font-family="Helvetica,sans-Serif" font-size="10.00">ImFusion::Controller</text>
</a>
</g>
</g>
<!-- Node5&#45;&gt;Node4 -->
<g id="edge4_Node000004_Node000005" class="edge">
<title>Node5&#45;&gt;Node4</title>
<g id="a_edge4_Node000004_Node000005"><a xlink:title=" ">
<path fill="none" stroke="#63b8ff" d="M153.97,-158.44C165.85,-149.14 180.39,-137.76 190.26,-130.02"/>
<polygon fill="#63b8ff" stroke="#63b8ff" points="152.07,-155.49 146.35,-164.41 156.38,-161 152.07,-155.49"/>
</a>
</g>
</g>
<!-- Node6 -->
<g id="Node000006" class="node">
<title>Node6</title>
<g id="a_Node000006"><a xlink:href="class_im_fusion_1_1_configurable.html" target="_top" xlink:title="Base interface for classes that support object serialization from/to Properties objects.">
<polygon fill="white" stroke="#666666" points="117.25,-240.25 0,-240.25 0,-221 117.25,-221 117.25,-240.25"/>
<text xml:space="preserve" text-anchor="middle" x="58.62" y="-226.75" font-family="Helvetica,sans-Serif" font-size="10.00">ImFusion::Configurable</text>
</a>
</g>
</g>
<!-- Node6&#45;&gt;Node5 -->
<g id="edge5_Node000005_Node000006" class="edge">
<title>Node6&#45;&gt;Node5</title>
<g id="a_edge5_Node000005_Node000006"><a xlink:title=" ">
<path fill="none" stroke="#63b8ff" d="M80.62,-214.01C93.7,-204.72 109.83,-193.27 120.84,-185.45"/>
<polygon fill="#63b8ff" stroke="#63b8ff" points="78.71,-211.07 72.58,-219.72 82.76,-216.78 78.71,-211.07"/>
</a>
</g>
</g>
<!-- Node7 -->
<g id="Node000007" class="node">
<title>Node7</title>
<g id="a_Node000007"><a xlink:href="class_im_fusion_1_1_utils_1_1_not_copyable.html" target="_top" xlink:title="Inherit from this class if your class should be neither copy&#45;constructible nor assignable.">
<polygon fill="white" stroke="#666666" points="281.5,-240.25 135.75,-240.25 135.75,-221 281.5,-221 281.5,-240.25"/>
<text xml:space="preserve" text-anchor="middle" x="208.62" y="-226.75" font-family="Helvetica,sans-Serif" font-size="10.00">ImFusion::Utils::NotCopyable</text>
</a>
</g>
</g>
<!-- Node7&#45;&gt;Node5 -->
<g id="edge6_Node000005_Node000007" class="edge">
<title>Node7&#45;&gt;Node5</title>
<g id="a_edge6_Node000005_Node000007"><a xlink:title=" ">
<path fill="none" stroke="#8b1a1a" d="M186.63,-214.01C173.55,-204.72 157.42,-193.27 146.41,-185.45"/>
<polygon fill="#8b1a1a" stroke="#8b1a1a" points="184.49,-216.78 194.67,-219.72 188.54,-211.07 184.49,-216.78"/>
</a>
</g>
</g>
<!-- Node8 -->
<g id="Node000008" class="node">
<title>Node8</title>
<g id="a_Node000008"><a xlink:href="class_im_fusion_1_1_signal_receiver.html" target="_top" xlink:title="Base class for classes that can contain slots (i.e.">
<polygon fill="white" stroke="#666666" points="332.88,-185 204.38,-185 204.38,-165.75 332.88,-165.75 332.88,-185"/>
<text xml:space="preserve" text-anchor="middle" x="268.62" y="-171.5" font-family="Helvetica,sans-Serif" font-size="10.00">ImFusion::SignalReceiver</text>
</a>
</g>
</g>
<!-- Node8&#45;&gt;Node4 -->
<g id="edge7_Node000004_Node000008" class="edge">
<title>Node8&#45;&gt;Node4</title>
<g id="a_edge7_Node000004_Node000008"><a xlink:title=" ">
<path fill="none" stroke="#63b8ff" d="M248.58,-158.44C236.88,-149.14 222.55,-137.76 212.82,-130.02"/>
<polygon fill="#63b8ff" stroke="#63b8ff" points="246.07,-160.92 256.07,-164.4 250.42,-155.44 246.07,-160.92"/>
</a>
</g>
</g>
</g>
</svg>
</svg>

<style type='text/css'>
<![CDATA[
[data-mouse-over-selected='false'] { opacity: 0.7; }
[data-mouse-over-selected='true']  { opacity: 1.0; }
]]>
</style>
<script type="application/ecmascript"><![CDATA[
document.addEventListener('DOMContentLoaded', (event) => {
  highlightEdges();
  highlightAdjacentNodes();
});
]]></script>
</svg>
