<?xml version="1.0" encoding="UTF-8" standalone="no"?>
<!DOCTYPE svg PUBLIC "-//W3C//DTD SVG 1.1//EN"
 "http://www.w3.org/Graphics/SVG/1.1/DTD/svg11.dtd">
<!-- Generated by graphviz version 14.1.4 (20260321.0153)
 -->
<!-- Title: ImFusion::TrackingInstrumentFiducialsData Pages: 1 -->
<svg width="684pt" height="88pt"
 viewBox="0.00 0.00 684.00 88.00" xmlns="http://www.w3.org/2000/svg" xmlns:xlink="http://www.w3.org/1999/xlink">
<g id="graph0" class="graph" transform="scale(1 1) rotate(0) translate(4 83.5)">
<title>ImFusion::TrackingInstrumentFiducialsData</title>
<!-- Node1 -->
<g id="Node000001" class="node">
<title>Node1</title>
<g id="a_Node000001"><a xlink:title="Data component to store raw fiducial locations from optical tracking sequences.">
<polygon fill="#999999" stroke="#666666" points="676,-48.88 529.5,-48.88 529.5,-18.38 676,-18.38 676,-48.88"/>
<text xml:space="preserve" text-anchor="start" x="537.5" y="-35.38" font-family="Helvetica,sans-Serif" font-size="10.00">ImFusion::TrackingInstrument</text>
<text xml:space="preserve" text-anchor="middle" x="602.75" y="-24.12" font-family="Helvetica,sans-Serif" font-size="10.00">FiducialsData</text>
</a>
</g>
</g>
<!-- Node2 -->
<g id="Node000002" class="node">
<title>Node2</title>
<g id="a_Node000002"><a xlink:href="class_im_fusion_1_1_data_component.html" target="_top" xlink:title=" ">
<polygon fill="white" stroke="#666666" points="493.5,-79.5 345.5,-79.5 345.5,-37.75 493.5,-37.75 493.5,-79.5"/>
<text xml:space="preserve" text-anchor="start" x="353.5" y="-66" font-family="Helvetica,sans-Serif" font-size="10.00">ImFusion::DataComponent</text>
<text xml:space="preserve" text-anchor="start" x="353.5" y="-54.75" font-family="Helvetica,sans-Serif" font-size="10.00">&lt; TrackingInstrumentFiducials</text>
<text xml:space="preserve" text-anchor="middle" x="419.5" y="-43.5" font-family="Helvetica,sans-Serif" font-size="10.00">Data &gt;</text>
</a>
</g>
</g>
<!-- Node2&#45;&gt;Node1 -->
<g id="edge1_Node000001_Node000002" class="edge">
<title>Node2&#45;&gt;Node1</title>
<g id="a_edge1_Node000001_Node000002"><a xlink:title=" ">
<path fill="none" stroke="#63b8ff" d="M505.18,-46.94C513.16,-45.84 521.21,-44.73 529.07,-43.65"/>
<polygon fill="#63b8ff" stroke="#63b8ff" points="504.89,-43.45 495.46,-48.29 505.84,-50.39 504.89,-43.45"/>
</a>
</g>
</g>
<!-- Node3 -->
<g id="Node000003" class="node">
<title>Node3</title>
<g id="a_Node000003"><a xlink:href="class_im_fusion_1_1_data_component_base.html" target="_top" xlink:title="Data components provide a way to generically attach custom information objects.">
<polygon fill="white" stroke="#666666" points="309.5,-68.25 153.25,-68.25 153.25,-49 309.5,-49 309.5,-68.25"/>
<text xml:space="preserve" text-anchor="middle" x="231.38" y="-54.75" font-family="Helvetica,sans-Serif" font-size="10.00">ImFusion::DataComponentBase</text>
</a>
</g>
</g>
<!-- Node3&#45;&gt;Node2 -->
<g id="edge2_Node000002_Node000003" class="edge">
<title>Node3&#45;&gt;Node2</title>
<g id="a_edge2_Node000002_Node000003"><a xlink:title=" ">
<path fill="none" stroke="#63b8ff" d="M321.25,-58.62C329.28,-58.62 337.34,-58.62 345.21,-58.62"/>
<polygon fill="#63b8ff" stroke="#63b8ff" points="321.47,-55.13 311.47,-58.63 321.47,-62.13 321.47,-55.13"/>
</a>
</g>
</g>
<!-- Node4 -->
<g id="Node000004" class="node">
<title>Node4</title>
<g id="a_Node000004"><a xlink:href="class_im_fusion_1_1_configurable.html" target="_top" xlink:title="Base interface for classes that support object serialization from/to Properties objects.">
<polygon fill="white" stroke="#666666" points="117.25,-68.25 0,-68.25 0,-49 117.25,-49 117.25,-68.25"/>
<text xml:space="preserve" text-anchor="middle" x="58.62" y="-54.75" font-family="Helvetica,sans-Serif" font-size="10.00">ImFusion::Configurable</text>
</a>
</g>
</g>
<!-- Node4&#45;&gt;Node3 -->
<g id="edge3_Node000003_Node000004" class="edge">
<title>Node4&#45;&gt;Node3</title>
<g id="a_edge3_Node000003_Node000004"><a xlink:title=" ">
<path fill="none" stroke="#63b8ff" d="M128.88,-58.62C136.8,-58.62 144.92,-58.62 152.95,-58.62"/>
<polygon fill="#63b8ff" stroke="#63b8ff" points="128.95,-55.13 118.95,-58.63 128.95,-62.13 128.95,-55.13"/>
</a>
</g>
</g>
<!-- Node5 -->
<g id="Node000005" class="node">
<title>Node5</title>
<g id="a_Node000005"><a xlink:href="class_im_fusion_1_1_binary_serializable.html" target="_top" xlink:title="Interface for class which can be serialized and deserialized.">
<polygon fill="white" stroke="#666666" points="489.75,-19.25 349.25,-19.25 349.25,0 489.75,0 489.75,-19.25"/>
<text xml:space="preserve" text-anchor="middle" x="419.5" y="-5.75" font-family="Helvetica,sans-Serif" font-size="10.00">ImFusion::BinarySerializable</text>
</a>
</g>
</g>
<!-- Node5&#45;&gt;Node1 -->
<g id="edge4_Node000001_Node000005" class="edge">
<title>Node5&#45;&gt;Node1</title>
<g id="a_edge4_Node000001_Node000005"><a xlink:title=" ">
<path fill="none" stroke="#63b8ff" d="M501.26,-20.32C510.52,-21.55 519.93,-22.79 529.07,-24"/>
<polygon fill="#63b8ff" stroke="#63b8ff" points="501.93,-16.88 491.56,-19.03 501.01,-23.82 501.93,-16.88"/>
</a>
</g>
</g>
</g>
</svg>
