<?xml version="1.0" encoding="UTF-8" standalone="no"?>
<!DOCTYPE svg PUBLIC "-//W3C//DTD SVG 1.1//EN"
 "http://www.w3.org/Graphics/SVG/1.1/DTD/svg11.dtd">
<!-- Generated by graphviz version 14.1.4 (20260321.0153)
 -->
<!-- Title: ImFusion::DisplayWidget Pages: 1 -->
<svg width="366pt" height="138pt"
 viewBox="0.00 0.00 366.00 138.00" xmlns="http://www.w3.org/2000/svg" xmlns:xlink="http://www.w3.org/1999/xlink">
<g id="graph0" class="graph" transform="scale(1 1) rotate(0) translate(4 133.75)">
<title>ImFusion::DisplayWidget</title>
<!-- Node1 -->
<g id="Node000001" class="node">
<title>Node1</title>
<g id="a_Node000001"><a xlink:title="Render surface that hosts InteractiveViews and will call their render method on repaints.">
<polygon fill="#999999" stroke="#666666" points="198.5,-74.5 72.25,-74.5 72.25,-55.25 198.5,-55.25 198.5,-74.5"/>
<text xml:space="preserve" text-anchor="middle" x="135.38" y="-61" font-family="Helvetica,sans-Serif" font-size="10.00">ImFusion::DisplayWidget</text>
</a>
</g>
</g>
<!-- Node5 -->
<g id="Node000005" class="node">
<title>Node5</title>
<g id="a_Node000005"><a xlink:href="class_im_fusion_1_1_display_widget_multi.html" target="_top" xlink:title="Specialized version of DisplayWidget that manages specific views and provides an automatic layout.">
<polygon fill="white" stroke="#666666" points="209,-19.25 61.75,-19.25 61.75,0 209,0 209,-19.25"/>
<text xml:space="preserve" text-anchor="middle" x="135.38" y="-5.75" font-family="Helvetica,sans-Serif" font-size="10.00">ImFusion::DisplayWidgetMulti</text>
</a>
</g>
</g>
<!-- Node1&#45;&gt;Node5 -->
<g id="edge4_Node000001_Node000005" class="edge">
<title>Node1&#45;&gt;Node5</title>
<g id="a_edge4_Node000001_Node000005"><a xlink:title=" ">
<path fill="none" stroke="#63b8ff" d="M135.38,-43.63C135.38,-35.34 135.38,-26.17 135.38,-19.61"/>
<polygon fill="#63b8ff" stroke="#63b8ff" points="131.88,-43.57 135.38,-53.57 138.88,-43.57 131.88,-43.57"/>
</a>
</g>
</g>
<!-- Node2 -->
<g id="Node000002" class="node">
<title>Node2</title>
<g id="a_Node000002"><a xlink:title=" ">
<polygon fill="white" stroke="#bfbfbf" points="58.75,-129.75 0,-129.75 0,-110.5 58.75,-110.5 58.75,-129.75"/>
<text xml:space="preserve" text-anchor="middle" x="29.38" y="-116.25" font-family="Helvetica,sans-Serif" font-size="10.00">QWindow</text>
</a>
</g>
</g>
<!-- Node2&#45;&gt;Node1 -->
<g id="edge1_Node000001_Node000002" class="edge">
<title>Node2&#45;&gt;Node1</title>
<g id="a_edge1_Node000001_Node000002"><a xlink:title=" ">
<path fill="none" stroke="#63b8ff" d="M57.51,-104.99C76.46,-95.47 100.91,-83.19 117.31,-74.95"/>
<polygon fill="#63b8ff" stroke="#63b8ff" points="56.07,-101.8 48.71,-109.41 59.22,-108.05 56.07,-101.8"/>
</a>
</g>
</g>
<!-- Node3 -->
<g id="Node000003" class="node">
<title>Node3</title>
<g id="a_Node000003"><a xlink:href="class_im_fusion_1_1_configurable.html" target="_top" xlink:title="Base interface for classes that support object serialization from/to Properties objects.">
<polygon fill="white" stroke="#666666" points="194,-129.75 76.75,-129.75 76.75,-110.5 194,-110.5 194,-129.75"/>
<text xml:space="preserve" text-anchor="middle" x="135.38" y="-116.25" font-family="Helvetica,sans-Serif" font-size="10.00">ImFusion::Configurable</text>
</a>
</g>
</g>
<!-- Node3&#45;&gt;Node1 -->
<g id="edge2_Node000001_Node000003" class="edge">
<title>Node3&#45;&gt;Node1</title>
<g id="a_edge2_Node000001_Node000003"><a xlink:title=" ">
<path fill="none" stroke="#63b8ff" d="M135.38,-98.88C135.38,-90.59 135.38,-81.42 135.38,-74.86"/>
<polygon fill="#63b8ff" stroke="#63b8ff" points="131.88,-98.82 135.38,-108.82 138.88,-98.82 131.88,-98.82"/>
</a>
</g>
</g>
<!-- Node4 -->
<g id="Node000004" class="node">
<title>Node4</title>
<g id="a_Node000004"><a xlink:href="class_im_fusion_1_1_utils_1_1_not_copyable.html" target="_top" xlink:title="Inherit from this class if your class should be neither copy&#45;constructible nor assignable.">
<polygon fill="white" stroke="#666666" points="358.25,-129.75 212.5,-129.75 212.5,-110.5 358.25,-110.5 358.25,-129.75"/>
<text xml:space="preserve" text-anchor="middle" x="285.38" y="-116.25" font-family="Helvetica,sans-Serif" font-size="10.00">ImFusion::Utils::NotCopyable</text>
</a>
</g>
</g>
<!-- Node4&#45;&gt;Node1 -->
<g id="edge3_Node000001_Node000004" class="edge">
<title>Node4&#45;&gt;Node1</title>
<g id="a_edge3_Node000001_Node000004"><a xlink:title=" ">
<path fill="none" stroke="#8b1a1a" d="M249.25,-106.3C221.98,-96.62 185.23,-83.57 160.95,-74.95"/>
<polygon fill="#8b1a1a" stroke="#8b1a1a" points="247.91,-109.54 258.5,-109.59 250.25,-102.94 247.91,-109.54"/>
</a>
</g>
</g>
</g>
</svg>
