<?xml version="1.0" encoding="UTF-8" standalone="no"?>
<!DOCTYPE svg PUBLIC "-//W3C//DTD SVG 1.1//EN"
 "http://www.w3.org/Graphics/SVG/1.1/DTD/svg11.dtd">
<!-- Generated by graphviz version 14.1.4 (20260321.0153)
 -->
<!-- Title: ImFusion::AnnotationAction Pages: 1 -->
<svg width="661pt" height="808pt"
 viewBox="0.00 0.00 661.00 808.00" xmlns="http://www.w3.org/2000/svg" xmlns:xlink="http://www.w3.org/1999/xlink">
<g id="graph0" class="graph" transform="scale(1 1) rotate(0) translate(4 803.88)">
<title>ImFusion::AnnotationAction</title>
<!-- Node1 -->
<g id="Node000001" class="node">
<title>Node1</title>
<g id="a_Node000001"><a xlink:title=" ">
<polygon fill="#999999" stroke="#666666" points="290,-406.25 153.25,-406.25 153.25,-387 290,-387 290,-406.25"/>
<text xml:space="preserve" text-anchor="middle" x="221.62" y="-392.75" font-family="Helvetica,sans-Serif" font-size="10.00">ImFusion::AnnotationAction</text>
</a>
</g>
</g>
<!-- Node3 -->
<g id="Node000003" class="node">
<title>Node3</title>
<g id="a_Node000003"><a xlink:href="class_im_fusion_1_1_brush_action.html" target="_top" xlink:title=" ">
<polygon fill="white" stroke="#bfbfbf" points="466.5,-794.25 350.75,-794.25 350.75,-775 466.5,-775 466.5,-794.25"/>
<text xml:space="preserve" text-anchor="middle" x="408.62" y="-780.75" font-family="Helvetica,sans-Serif" font-size="10.00">ImFusion::BrushAction</text>
</a>
</g>
</g>
<!-- Node1&#45;&gt;Node3 -->
<g id="edge2_Node000001_Node000003" class="edge">
<title>Node1&#45;&gt;Node3</title>
<g id="a_edge2_Node000001_Node000003"><a xlink:title=" ">
<path fill="none" stroke="#63b8ff" d="M225.67,-417.63C236.34,-488.34 274.18,-716.06 326,-765.62 332.83,-772.16 341.46,-776.6 350.53,-779.59"/>
<polygon fill="#63b8ff" stroke="#63b8ff" points="229.2,-417.54 224.27,-408.16 222.27,-418.57 229.2,-417.54"/>
</a>
</g>
</g>
<!-- Node5 -->
<g id="Node000005" class="node">
<title>Node5</title>
<g id="a_Node000005"><a xlink:href="class_im_fusion_1_1_connected_components_action.html" target="_top" xlink:title=" ">
<polygon fill="white" stroke="#bfbfbf" points="491.25,-756.88 326,-756.88 326,-726.38 491.25,-726.38 491.25,-756.88"/>
<text xml:space="preserve" text-anchor="start" x="334" y="-743.38" font-family="Helvetica,sans-Serif" font-size="10.00">ImFusion::ConnectedComponents</text>
<text xml:space="preserve" text-anchor="middle" x="408.62" y="-732.12" font-family="Helvetica,sans-Serif" font-size="10.00">Action</text>
</a>
</g>
</g>
<!-- Node1&#45;&gt;Node5 -->
<g id="edge4_Node000001_Node000005" class="edge">
<title>Node1&#45;&gt;Node5</title>
<g id="a_edge4_Node000001_Node000005"><a xlink:title=" ">
<path fill="none" stroke="#63b8ff" d="M223,-418.2C225.2,-475.54 239.26,-633.08 326,-717.62 329.28,-720.82 332.96,-723.6 336.9,-726"/>
<polygon fill="#63b8ff" stroke="#63b8ff" points="226.5,-418.12 222.72,-408.22 219.5,-418.32 226.5,-418.12"/>
</a>
</g>
</g>
<!-- Node6 -->
<g id="Node000006" class="node">
<title>Node6</title>
<g id="a_Node000006"><a xlink:href="class_im_fusion_1_1_default_action.html" target="_top" xlink:title=" ">
<polygon fill="white" stroke="#bfbfbf" points="469.5,-708.25 347.75,-708.25 347.75,-689 469.5,-689 469.5,-708.25"/>
<text xml:space="preserve" text-anchor="middle" x="408.62" y="-694.75" font-family="Helvetica,sans-Serif" font-size="10.00">ImFusion::DefaultAction</text>
</a>
</g>
</g>
<!-- Node1&#45;&gt;Node6 -->
<g id="edge5_Node000001_Node000006" class="edge">
<title>Node1&#45;&gt;Node6</title>
<g id="a_edge5_Node000001_Node000006"><a xlink:title=" ">
<path fill="none" stroke="#63b8ff" d="M223.69,-417.8C227.54,-470.78 245.24,-609.88 326,-680.62 332.22,-686.08 339.72,-689.99 347.62,-692.78"/>
<polygon fill="#63b8ff" stroke="#63b8ff" points="227.19,-417.81 223.08,-408.05 220.21,-418.24 227.19,-417.81"/>
</a>
</g>
</g>
<!-- Node7 -->
<g id="Node000007" class="node">
<title>Node7</title>
<g id="a_Node000007"><a xlink:href="class_im_fusion_1_1_define_r_o_i_action.html" target="_top" xlink:title=" ">
<polygon fill="white" stroke="#bfbfbf" points="477,-671.25 340.25,-671.25 340.25,-652 477,-652 477,-671.25"/>
<text xml:space="preserve" text-anchor="middle" x="408.62" y="-657.75" font-family="Helvetica,sans-Serif" font-size="10.00">ImFusion::DefineROIAction</text>
</a>
</g>
</g>
<!-- Node1&#45;&gt;Node7 -->
<g id="edge6_Node000001_Node000007" class="edge">
<title>Node1&#45;&gt;Node7</title>
<g id="a_edge6_Node000001_Node000007"><a xlink:title=" ">
<path fill="none" stroke="#63b8ff" d="M225,-417.92C231.54,-466.08 254.42,-583.85 326,-643.62 330.23,-647.16 335.01,-650.04 340.07,-652.39"/>
<polygon fill="#63b8ff" stroke="#63b8ff" points="228.47,-417.52 223.77,-408.03 221.53,-418.38 228.47,-417.52"/>
</a>
</g>
</g>
<!-- Node8 -->
<g id="Node000008" class="node">
<title>Node8</title>
<g id="a_Node000008"><a xlink:href="class_im_fusion_1_1_draw_contour_action.html" target="_top" xlink:title="An action that allow to draw contours.">
<polygon fill="white" stroke="#666666" points="482.62,-634.25 334.62,-634.25 334.62,-615 482.62,-615 482.62,-634.25"/>
<text xml:space="preserve" text-anchor="middle" x="408.62" y="-620.75" font-family="Helvetica,sans-Serif" font-size="10.00">ImFusion::DrawContourAction</text>
</a>
</g>
</g>
<!-- Node1&#45;&gt;Node8 -->
<g id="edge7_Node000001_Node000008" class="edge">
<title>Node1&#45;&gt;Node8</title>
<g id="a_edge7_Node000001_Node000008"><a xlink:title=" ">
<path fill="none" stroke="#63b8ff" d="M226.65,-417.61C235.98,-460.31 263.28,-557.42 326,-606.62 330,-609.76 334.43,-612.37 339.09,-614.55"/>
<polygon fill="#63b8ff" stroke="#63b8ff" points="230.1,-417.01 224.65,-407.92 223.24,-418.42 230.1,-417.01"/>
</a>
</g>
</g>
<!-- Node9 -->
<g id="Node000009" class="node">
<title>Node9</title>
<g id="a_Node000009"><a xlink:href="class_im_fusion_1_1_empty_action.html" target="_top" xlink:title=" ">
<polygon fill="white" stroke="#bfbfbf" points="468,-597.25 349.25,-597.25 349.25,-578 468,-578 468,-597.25"/>
<text xml:space="preserve" text-anchor="middle" x="408.62" y="-583.75" font-family="Helvetica,sans-Serif" font-size="10.00">ImFusion::EmptyAction</text>
</a>
</g>
</g>
<!-- Node1&#45;&gt;Node9 -->
<g id="edge8_Node000001_Node000009" class="edge">
<title>Node1&#45;&gt;Node9</title>
<g id="a_edge8_Node000001_Node000009"><a xlink:title=" ">
<path fill="none" stroke="#63b8ff" d="M228.85,-417.17C241.1,-453.91 271.94,-530.65 326,-569.62 332.83,-574.55 340.75,-578.16 348.92,-580.81"/>
<polygon fill="#63b8ff" stroke="#63b8ff" points="232.24,-416.26 225.86,-407.8 225.57,-418.39 232.24,-416.26"/>
</a>
</g>
</g>
<!-- Node10 -->
<g id="Node000010" class="node">
<title>Node10</title>
<g id="a_Node000010"><a xlink:href="class_im_fusion_1_1_erase_action.html" target="_top" xlink:title=" ">
<polygon fill="white" stroke="#bfbfbf" points="466.5,-560.25 350.75,-560.25 350.75,-541 466.5,-541 466.5,-560.25"/>
<text xml:space="preserve" text-anchor="middle" x="408.62" y="-546.75" font-family="Helvetica,sans-Serif" font-size="10.00">ImFusion::EraseAction</text>
</a>
</g>
</g>
<!-- Node1&#45;&gt;Node10 -->
<g id="edge9_Node000001_Node000010" class="edge">
<title>Node1&#45;&gt;Node10</title>
<g id="a_edge9_Node000001_Node000010"><a xlink:title=" ">
<path fill="none" stroke="#63b8ff" d="M232.28,-416.75C247.73,-446.69 280.91,-502.53 326,-531.62 333.46,-536.44 342,-540.03 350.68,-542.72"/>
<polygon fill="#63b8ff" stroke="#63b8ff" points="235.52,-415.39 227.92,-408.01 229.26,-418.52 235.52,-415.39"/>
</a>
</g>
</g>
<!-- Node11 -->
<g id="Node000011" class="node">
<title>Node11</title>
<g id="a_Node000011"><a xlink:href="class_im_fusion_1_1_geometric_annotations_action.html" target="_top" xlink:title=" ">
<polygon fill="white" stroke="#bfbfbf" points="488.25,-522.88 329,-522.88 329,-492.38 488.25,-492.38 488.25,-522.88"/>
<text xml:space="preserve" text-anchor="start" x="337" y="-509.38" font-family="Helvetica,sans-Serif" font-size="10.00">ImFusion::GeometricAnnotations</text>
<text xml:space="preserve" text-anchor="middle" x="408.62" y="-498.12" font-family="Helvetica,sans-Serif" font-size="10.00">Action</text>
</a>
</g>
</g>
<!-- Node1&#45;&gt;Node11 -->
<g id="edge10_Node000001_Node000011" class="edge">
<title>Node1&#45;&gt;Node11</title>
<g id="a_edge10_Node000001_Node000011"><a xlink:title=" ">
<path fill="none" stroke="#63b8ff" d="M239.38,-414.62C258.56,-434.23 291.77,-465.24 326,-483.62 331.86,-486.77 338.18,-489.55 344.61,-492"/>
<polygon fill="#63b8ff" stroke="#63b8ff" points="242.09,-412.4 232.65,-407.6 237.04,-417.24 242.09,-412.4"/>
</a>
</g>
</g>
<!-- Node12 -->
<g id="Node000012" class="node">
<title>Node12</title>
<g id="a_Node000012"><a xlink:href="class_im_fusion_1_1_import_action.html" target="_top" xlink:title="Action for importing labelmaps or annotations from a file.">
<polygon fill="white" stroke="#666666" points="467.62,-474.25 349.62,-474.25 349.62,-455 467.62,-455 467.62,-474.25"/>
<text xml:space="preserve" text-anchor="middle" x="408.62" y="-460.75" font-family="Helvetica,sans-Serif" font-size="10.00">ImFusion::ImportAction</text>
</a>
</g>
</g>
<!-- Node1&#45;&gt;Node12 -->
<g id="edge11_Node000001_Node000012" class="edge">
<title>Node1&#45;&gt;Node12</title>
<g id="a_edge11_Node000001_Node000012"><a xlink:title=" ">
<path fill="none" stroke="#63b8ff" d="M250.95,-412.08C271.35,-422.7 299.77,-436.47 326,-445.62 335.75,-449.03 346.38,-452 356.63,-454.53"/>
<polygon fill="#63b8ff" stroke="#63b8ff" points="252.61,-409 242.13,-407.41 249.34,-415.18 252.61,-409"/>
</a>
</g>
</g>
<!-- Node13 -->
<g id="Node000013" class="node">
<title>Node13</title>
<g id="a_Node000013"><a xlink:href="class_im_fusion_1_1_interactive_deformation_action.html" target="_top" xlink:title=" ">
<polygon fill="white" stroke="#bfbfbf" points="489.38,-436.88 327.88,-436.88 327.88,-406.38 489.38,-406.38 489.38,-436.88"/>
<text xml:space="preserve" text-anchor="start" x="335.88" y="-423.38" font-family="Helvetica,sans-Serif" font-size="10.00">ImFusion::InteractiveDeformation</text>
<text xml:space="preserve" text-anchor="middle" x="408.62" y="-412.12" font-family="Helvetica,sans-Serif" font-size="10.00">Action</text>
</a>
</g>
</g>
<!-- Node1&#45;&gt;Node13 -->
<g id="edge12_Node000001_Node000013" class="edge">
<title>Node1&#45;&gt;Node13</title>
<g id="a_edge12_Node000001_Node000013"><a xlink:title=" ">
<path fill="none" stroke="#63b8ff" d="M301.63,-407.3C310.22,-408.46 318.96,-409.64 327.56,-410.81"/>
<polygon fill="#63b8ff" stroke="#63b8ff" points="302.34,-403.87 291.96,-405.99 301.4,-410.8 302.34,-403.87"/>
</a>
</g>
</g>
<!-- Node14 -->
<g id="Node000014" class="node">
<title>Node14</title>
<g id="a_Node000014"><a xlink:href="class_im_fusion_1_1_label_map_propagation_action.html" target="_top" xlink:title=" ">
<polygon fill="white" stroke="#bfbfbf" points="486.75,-387.88 330.5,-387.88 330.5,-357.38 486.75,-357.38 486.75,-387.88"/>
<text xml:space="preserve" text-anchor="start" x="338.5" y="-374.38" font-family="Helvetica,sans-Serif" font-size="10.00">ImFusion::LabelMapPropagation</text>
<text xml:space="preserve" text-anchor="middle" x="408.62" y="-363.12" font-family="Helvetica,sans-Serif" font-size="10.00">Action</text>
</a>
</g>
</g>
<!-- Node1&#45;&gt;Node14 -->
<g id="edge13_Node000001_Node000014" class="edge">
<title>Node1&#45;&gt;Node14</title>
<g id="a_edge13_Node000001_Node000014"><a xlink:title=" ">
<path fill="none" stroke="#63b8ff" d="M301.79,-386.36C311.17,-385.14 320.74,-383.9 330.1,-382.68"/>
<polygon fill="#63b8ff" stroke="#63b8ff" points="301.43,-382.87 291.96,-387.63 302.33,-389.81 301.43,-382.87"/>
</a>
</g>
</g>
<!-- Node15 -->
<g id="Node000015" class="node">
<title>Node15</title>
<g id="a_Node000015"><a xlink:href="class_im_fusion_1_1_measurement_action.html" target="_top" xlink:title=" ">
<polygon fill="white" stroke="#bfbfbf" points="483.38,-339.25 333.88,-339.25 333.88,-320 483.38,-320 483.38,-339.25"/>
<text xml:space="preserve" text-anchor="middle" x="408.62" y="-325.75" font-family="Helvetica,sans-Serif" font-size="10.00">ImFusion::MeasurementAction</text>
</a>
</g>
</g>
<!-- Node1&#45;&gt;Node15 -->
<g id="edge14_Node000001_Node000015" class="edge">
<title>Node1&#45;&gt;Node15</title>
<g id="a_edge14_Node000001_Node000015"><a xlink:title=" ">
<path fill="none" stroke="#63b8ff" d="M251.36,-381.33C271.75,-370.97 299.99,-357.58 326,-348.62 335.9,-345.21 346.69,-342.22 357.09,-339.67"/>
<polygon fill="#63b8ff" stroke="#63b8ff" points="249.82,-378.19 242.54,-385.88 253.03,-384.41 249.82,-378.19"/>
</a>
</g>
</g>
<!-- Node16 -->
<g id="Node000016" class="node">
<title>Node16</title>
<g id="a_Node000016"><a xlink:href="class_im_fusion_1_1_refine_action.html" target="_top" xlink:title=" ">
<polygon fill="white" stroke="#bfbfbf" points="468,-302.25 349.25,-302.25 349.25,-283 468,-283 468,-302.25"/>
<text xml:space="preserve" text-anchor="middle" x="408.62" y="-288.75" font-family="Helvetica,sans-Serif" font-size="10.00">ImFusion::RefineAction</text>
</a>
</g>
</g>
<!-- Node1&#45;&gt;Node16 -->
<g id="edge15_Node000001_Node000016" class="edge">
<title>Node1&#45;&gt;Node16</title>
<g id="a_edge15_Node000001_Node000016"><a xlink:title=" ">
<path fill="none" stroke="#63b8ff" d="M239.19,-378.4C258.21,-358.63 291.27,-327.63 326,-310.62 333.17,-307.11 341.02,-304.28 348.94,-302"/>
<polygon fill="#63b8ff" stroke="#63b8ff" points="236.82,-375.81 232.53,-385.5 241.92,-380.61 236.82,-375.81"/>
</a>
</g>
</g>
<!-- Node17 -->
<g id="Node000017" class="node">
<title>Node17</title>
<g id="a_Node000017"><a xlink:href="class_im_fusion_1_1_related_data_action.html" target="_top" xlink:title=" ">
<polygon fill="white" stroke="#bfbfbf" points="481.12,-265.25 336.12,-265.25 336.12,-246 481.12,-246 481.12,-265.25"/>
<text xml:space="preserve" text-anchor="middle" x="408.62" y="-251.75" font-family="Helvetica,sans-Serif" font-size="10.00">ImFusion::RelatedDataAction</text>
</a>
</g>
</g>
<!-- Node1&#45;&gt;Node17 -->
<g id="edge16_Node000001_Node000017" class="edge">
<title>Node1&#45;&gt;Node17</title>
<g id="a_edge16_Node000001_Node000017"><a xlink:title=" ">
<path fill="none" stroke="#63b8ff" d="M233.41,-377.05C249.69,-349.44 283.24,-299.52 326,-273.62 331.21,-270.47 336.91,-267.86 342.8,-265.71"/>
<polygon fill="#63b8ff" stroke="#63b8ff" points="230.53,-375.03 228.61,-385.45 236.61,-378.51 230.53,-375.03"/>
</a>
</g>
</g>
<!-- Node18 -->
<g id="Node000018" class="node">
<title>Node18</title>
<g id="a_Node000018"><a xlink:href="class_im_fusion_1_1_replace_values_action.html" target="_top" xlink:title=" ">
<polygon fill="white" stroke="#bfbfbf" points="486.38,-228.25 330.88,-228.25 330.88,-209 486.38,-209 486.38,-228.25"/>
<text xml:space="preserve" text-anchor="middle" x="408.62" y="-214.75" font-family="Helvetica,sans-Serif" font-size="10.00">ImFusion::ReplaceValuesAction</text>
</a>
</g>
</g>
<!-- Node1&#45;&gt;Node18 -->
<g id="edge17_Node000001_Node000018" class="edge">
<title>Node1&#45;&gt;Node18</title>
<g id="a_edge17_Node000001_Node000018"><a xlink:title=" ">
<path fill="none" stroke="#63b8ff" d="M229.85,-376.18C243.17,-341.65 274.98,-272.07 326,-236.62 330.53,-233.48 335.51,-230.87 340.71,-228.71"/>
<polygon fill="#63b8ff" stroke="#63b8ff" points="226.63,-374.81 226.44,-385.4 233.19,-377.24 226.63,-374.81"/>
</a>
</g>
</g>
<!-- Node19 -->
<g id="Node000019" class="node">
<title>Node19</title>
<g id="a_Node000019"><a xlink:href="class_im_fusion_1_1_run_algorithm_action.html" target="_top" xlink:title=" ">
<polygon fill="white" stroke="#bfbfbf" points="483.38,-191.25 333.88,-191.25 333.88,-172 483.38,-172 483.38,-191.25"/>
<text xml:space="preserve" text-anchor="middle" x="408.62" y="-177.75" font-family="Helvetica,sans-Serif" font-size="10.00">ImFusion::RunAlgorithmAction</text>
</a>
</g>
</g>
<!-- Node1&#45;&gt;Node19 -->
<g id="edge18_Node000001_Node000019" class="edge">
<title>Node1&#45;&gt;Node19</title>
<g id="a_edge18_Node000001_Node000019"><a xlink:title=" ">
<path fill="none" stroke="#63b8ff" d="M227.41,-375.52C237.81,-334.73 266.47,-245.09 326,-199.62 330.15,-196.45 334.75,-193.82 339.59,-191.63"/>
<polygon fill="#63b8ff" stroke="#63b8ff" points="224.06,-374.5 225.11,-385.04 230.86,-376.14 224.06,-374.5"/>
</a>
</g>
</g>
<!-- Node20 -->
<g id="Node000020" class="node">
<title>Node20</title>
<g id="a_Node000020"><a xlink:href="class_im_fusion_1_1_slice_interpolation_action.html" target="_top" xlink:title=" ">
<polygon fill="white" stroke="#bfbfbf" points="477.38,-153.88 339.88,-153.88 339.88,-123.38 477.38,-123.38 477.38,-153.88"/>
<text xml:space="preserve" text-anchor="start" x="347.88" y="-140.38" font-family="Helvetica,sans-Serif" font-size="10.00">ImFusion::SliceInterpolation</text>
<text xml:space="preserve" text-anchor="middle" x="408.62" y="-129.12" font-family="Helvetica,sans-Serif" font-size="10.00">Action</text>
</a>
</g>
</g>
<!-- Node1&#45;&gt;Node20 -->
<g id="edge19_Node000001_Node000020" class="edge">
<title>Node1&#45;&gt;Node20</title>
<g id="a_edge19_Node000001_Node000020"><a xlink:title=" ">
<path fill="none" stroke="#63b8ff" d="M225.81,-375.84C233.89,-330.28 259.49,-221.01 326,-162.62 330.11,-159.02 334.73,-155.96 339.64,-153.35"/>
<polygon fill="#63b8ff" stroke="#63b8ff" points="222.4,-374.98 224.22,-385.42 229.31,-376.12 222.4,-374.98"/>
</a>
</g>
</g>
<!-- Node21 -->
<g id="Node000021" class="node">
<title>Node21</title>
<g id="a_Node000021"><a xlink:href="class_im_fusion_1_1_template_deformation_action.html" target="_top" xlink:title=" ">
<polygon fill="white" stroke="#bfbfbf" points="486.38,-104.88 330.88,-104.88 330.88,-74.38 486.38,-74.38 486.38,-104.88"/>
<text xml:space="preserve" text-anchor="start" x="338.88" y="-91.38" font-family="Helvetica,sans-Serif" font-size="10.00">ImFusion::TemplateDeformation</text>
<text xml:space="preserve" text-anchor="middle" x="408.62" y="-80.12" font-family="Helvetica,sans-Serif" font-size="10.00">Action</text>
</a>
</g>
</g>
<!-- Node1&#45;&gt;Node21 -->
<g id="edge20_Node000001_Node000021" class="edge">
<title>Node1&#45;&gt;Node21</title>
<g id="a_edge20_Node000001_Node000021"><a xlink:title=" ">
<path fill="none" stroke="#63b8ff" d="M224.15,-375.3C229.03,-323.06 248.87,-187.68 326,-114.62 329.87,-110.96 334.27,-107.82 338.97,-105.15"/>
<polygon fill="#63b8ff" stroke="#63b8ff" points="220.67,-374.93 223.33,-385.19 227.64,-375.51 220.67,-374.93"/>
</a>
</g>
</g>
<!-- Node22 -->
<g id="Node000022" class="node">
<title>Node22</title>
<g id="a_Node000022"><a xlink:href="class_im_fusion_1_1_thresholding_action.html" target="_top" xlink:title=" ">
<polygon fill="white" stroke="#bfbfbf" points="481.5,-56.25 335.75,-56.25 335.75,-37 481.5,-37 481.5,-56.25"/>
<text xml:space="preserve" text-anchor="middle" x="408.62" y="-42.75" font-family="Helvetica,sans-Serif" font-size="10.00">ImFusion::ThresholdingAction</text>
</a>
</g>
</g>
<!-- Node1&#45;&gt;Node22 -->
<g id="edge21_Node000001_Node000022" class="edge">
<title>Node1&#45;&gt;Node22</title>
<g id="a_edge21_Node000001_Node000022"><a xlink:title=" ">
<path fill="none" stroke="#63b8ff" d="M222.48,-375.28C223.32,-316.49 234.13,-150.94 326,-65.62 329.84,-62.06 334.21,-59.12 338.89,-56.71"/>
<polygon fill="#63b8ff" stroke="#63b8ff" points="218.98,-375.18 222.44,-385.19 225.98,-375.21 218.98,-375.18"/>
</a>
</g>
</g>
<!-- Node23 -->
<g id="Node000023" class="node">
<title>Node23</title>
<g id="a_Node000023"><a xlink:href="class_im_fusion_1_1_undo_action.html" target="_top" xlink:title=" ">
<polygon fill="white" stroke="#bfbfbf" points="465.38,-19.25 351.88,-19.25 351.88,0 465.38,0 465.38,-19.25"/>
<text xml:space="preserve" text-anchor="middle" x="408.62" y="-5.75" font-family="Helvetica,sans-Serif" font-size="10.00">ImFusion::UndoAction</text>
</a>
</g>
</g>
<!-- Node1&#45;&gt;Node23 -->
<g id="edge22_Node000001_Node000023" class="edge">
<title>Node1&#45;&gt;Node23</title>
<g id="a_edge22_Node000001_Node000023"><a xlink:title=" ">
<path fill="none" stroke="#63b8ff" d="M225.65,-375.6C236.24,-304.81 273.9,-76.89 326,-27.62 333.07,-20.95 342.02,-16.53 351.4,-13.65"/>
<polygon fill="#63b8ff" stroke="#63b8ff" points="222.25,-374.67 224.26,-385.08 229.17,-375.69 222.25,-374.67"/>
</a>
</g>
</g>
<!-- Node2 -->
<g id="Node000002" class="node">
<title>Node2</title>
<g id="a_Node000002"><a xlink:href="class_im_fusion_1_1_configurable.html" target="_top" xlink:title="Base interface for classes that support object serialization from/to Properties objects.">
<polygon fill="white" stroke="#666666" points="117.25,-406.25 0,-406.25 0,-387 117.25,-387 117.25,-406.25"/>
<text xml:space="preserve" text-anchor="middle" x="58.62" y="-392.75" font-family="Helvetica,sans-Serif" font-size="10.00">ImFusion::Configurable</text>
</a>
</g>
</g>
<!-- Node2&#45;&gt;Node1 -->
<g id="edge1_Node000001_Node000002" class="edge">
<title>Node2&#45;&gt;Node1</title>
<g id="a_edge1_Node000001_Node000002"><a xlink:title=" ">
<path fill="none" stroke="#63b8ff" d="M129.19,-396.62C137.09,-396.62 145.13,-396.62 153,-396.62"/>
<polygon fill="#63b8ff" stroke="#63b8ff" points="129.26,-393.13 119.26,-396.63 129.26,-400.13 129.26,-393.13"/>
</a>
</g>
</g>
<!-- Node4 -->
<g id="Node000004" class="node">
<title>Node4</title>
<g id="a_Node000004"><a xlink:href="class_im_fusion_1_1_interactive_seg_action.html" target="_top" xlink:title=" ">
<polygon fill="white" stroke="#bfbfbf" points="652.75,-799.88 527.25,-799.88 527.25,-769.38 652.75,-769.38 652.75,-799.88"/>
<text xml:space="preserve" text-anchor="start" x="535.25" y="-786.38" font-family="Helvetica,sans-Serif" font-size="10.00">ImFusion::InteractiveSeg</text>
<text xml:space="preserve" text-anchor="middle" x="590" y="-775.12" font-family="Helvetica,sans-Serif" font-size="10.00">Action</text>
</a>
</g>
</g>
<!-- Node3&#45;&gt;Node4 -->
<g id="edge3_Node000003_Node000004" class="edge">
<title>Node3&#45;&gt;Node4</title>
<g id="a_edge3_Node000003_Node000004"><a xlink:title=" ">
<path fill="none" stroke="#63b8ff" d="M478.34,-784.62C494.35,-784.62 511.32,-784.62 527.02,-784.62"/>
<polygon fill="#63b8ff" stroke="#63b8ff" points="478.39,-781.13 468.39,-784.63 478.39,-788.13 478.39,-781.13"/>
</a>
</g>
</g>
</g>
</svg>
