<?xml version="1.0" encoding="UTF-8" standalone="no"?>
<!DOCTYPE svg PUBLIC "-//W3C//DTD SVG 1.1//EN"
 "http://www.w3.org/Graphics/SVG/1.1/DTD/svg11.dtd">
<!-- Generated by graphviz version 14.1.4 (20260321.0153)
 -->
<!-- Title: ImFusion::DicomLoader Pages: 1 -->
<svg width="330pt" height="83pt"
 viewBox="0.00 0.00 330.00 83.00" xmlns="http://www.w3.org/2000/svg" xmlns:xlink="http://www.w3.org/1999/xlink">
<g id="graph0" class="graph" transform="scale(1 1) rotate(0) translate(4 78.5)">
<title>ImFusion::DicomLoader</title>
<!-- Node1 -->
<g id="Node000001" class="node">
<title>Node1</title>
<g id="a_Node000001"><a xlink:title="The DicomLoader class loads images from DICOM files.">
<polygon fill="#999999" stroke="#666666" points="224,-19.25 103.75,-19.25 103.75,0 224,0 224,-19.25"/>
<text xml:space="preserve" text-anchor="middle" x="163.88" y="-5.75" font-family="Helvetica,sans-Serif" font-size="10.00">ImFusion::DicomLoader</text>
</a>
</g>
</g>
<!-- Node2 -->
<g id="Node000002" class="node">
<title>Node2</title>
<g id="a_Node000002"><a xlink:href="class_im_fusion_1_1_dicom_1_1_error_recorder.html" target="_top" xlink:title="Error handling interface for the Dicom module.">
<polygon fill="white" stroke="#666666" points="157.75,-74.5 0,-74.5 0,-55.25 157.75,-55.25 157.75,-74.5"/>
<text xml:space="preserve" text-anchor="middle" x="78.88" y="-61" font-family="Helvetica,sans-Serif" font-size="10.00">ImFusion::Dicom::ErrorRecorder</text>
</a>
</g>
</g>
<!-- Node2&#45;&gt;Node1 -->
<g id="edge1_Node000001_Node000002" class="edge">
<title>Node2&#45;&gt;Node1</title>
<g id="a_edge1_Node000001_Node000002"><a xlink:title=" ">
<path fill="none" stroke="#63b8ff" d="M102.93,-48.8C117.9,-39.42 136.66,-27.67 149.39,-19.7"/>
<polygon fill="#63b8ff" stroke="#63b8ff" points="101.19,-45.76 94.58,-54.04 104.91,-51.7 101.19,-45.76"/>
</a>
</g>
</g>
<!-- Node3 -->
<g id="Node000003" class="node">
<title>Node3</title>
<g id="a_Node000003"><a xlink:href="class_im_fusion_1_1_utils_1_1_not_copyable.html" target="_top" xlink:title="Inherit from this class if your class should be neither copy&#45;constructible nor assignable.">
<polygon fill="white" stroke="#666666" points="321.75,-74.5 176,-74.5 176,-55.25 321.75,-55.25 321.75,-74.5"/>
<text xml:space="preserve" text-anchor="middle" x="248.88" y="-61" font-family="Helvetica,sans-Serif" font-size="10.00">ImFusion::Utils::NotCopyable</text>
</a>
</g>
</g>
<!-- Node3&#45;&gt;Node1 -->
<g id="edge2_Node000001_Node000003" class="edge">
<title>Node3&#45;&gt;Node1</title>
<g id="a_edge2_Node000001_Node000003"><a xlink:title=" ">
<path fill="none" stroke="#8b1a1a" d="M224.82,-48.8C209.85,-39.42 191.09,-27.67 178.36,-19.7"/>
<polygon fill="#8b1a1a" stroke="#8b1a1a" points="222.84,-51.7 233.17,-54.04 226.56,-45.76 222.84,-51.7"/>
</a>
</g>
</g>
</g>
</svg>
