<?xml version="1.0" encoding="UTF-8" standalone="no"?>
<!DOCTYPE svg PUBLIC "-//W3C//DTD SVG 1.1//EN"
 "http://www.w3.org/Graphics/SVG/1.1/DTD/svg11.dtd">
<!-- Generated by graphviz version 14.1.4 (20260321.0153)
 -->
<!-- Title: ImFusion::Node Pages: 1 -->
<svg width="623pt" height="125pt"
 viewBox="0.00 0.00 623.00 125.00" xmlns="http://www.w3.org/2000/svg" xmlns:xlink="http://www.w3.org/1999/xlink">
<g id="graph0" class="graph" transform="scale(1 1) rotate(0) translate(4 120.88)">
<title>ImFusion::Node</title>
<!-- Node1 -->
<g id="Node000001" class="node">
<title>Node1</title>
<g id="a_Node000001"><a xlink:title="Class representing a tree node.">
<polygon fill="#999999" stroke="#666666" points="267.5,-62.25 181.75,-62.25 181.75,-43 267.5,-43 267.5,-62.25"/>
<text xml:space="preserve" text-anchor="middle" x="224.62" y="-48.75" font-family="Helvetica,sans-Serif" font-size="10.00">ImFusion::Node</text>
</a>
</g>
</g>
<!-- Node4 -->
<g id="Node000004" class="node">
<title>Node4</title>
<g id="a_Node000004"><a xlink:href="class_im_fusion_1_1_typed_node.html" target="_top" xlink:title=" ">
<polygon fill="white" stroke="#666666" points="427.5,-116.88 315.5,-116.88 315.5,-86.38 427.5,-86.38 427.5,-116.88"/>
<text xml:space="preserve" text-anchor="start" x="323.5" y="-103.38" font-family="Helvetica,sans-Serif" font-size="10.00">ImFusion::TypedNode</text>
<text xml:space="preserve" text-anchor="middle" x="371.5" y="-92.12" font-family="Helvetica,sans-Serif" font-size="10.00">&lt; std::vector&lt; int &gt; &gt;</text>
</a>
</g>
</g>
<!-- Node1&#45;&gt;Node4 -->
<g id="edge3_Node000001_Node000004" class="edge">
<title>Node1&#45;&gt;Node4</title>
<g id="a_edge3_Node000001_Node000004"><a xlink:title=" ">
<path fill="none" stroke="#63b8ff" d="M266.03,-66.29C284.04,-72.38 305.37,-79.6 324.04,-85.91"/>
<polygon fill="#63b8ff" stroke="#63b8ff" points="267.32,-63.03 256.73,-63.14 265.08,-69.66 267.32,-63.03"/>
</a>
</g>
</g>
<!-- Node6 -->
<g id="Node000006" class="node">
<title>Node6</title>
<g id="a_Node000006"><a xlink:href="class_im_fusion_1_1_typed_node.html" target="_top" xlink:title=" ">
<polygon fill="white" stroke="#666666" points="427.5,-67.88 315.5,-67.88 315.5,-37.38 427.5,-37.38 427.5,-67.88"/>
<text xml:space="preserve" text-anchor="start" x="323.5" y="-54.38" font-family="Helvetica,sans-Serif" font-size="10.00">ImFusion::TypedNode</text>
<text xml:space="preserve" text-anchor="middle" x="371.5" y="-43.12" font-family="Helvetica,sans-Serif" font-size="10.00">&lt; vec3 &gt;</text>
</a>
</g>
</g>
<!-- Node1&#45;&gt;Node6 -->
<g id="edge5_Node000001_Node000006" class="edge">
<title>Node1&#45;&gt;Node6</title>
<g id="a_edge5_Node000001_Node000006"><a xlink:title=" ">
<path fill="none" stroke="#63b8ff" d="M279.34,-52.62C291.04,-52.62 303.44,-52.62 315.21,-52.62"/>
<polygon fill="#63b8ff" stroke="#63b8ff" points="279.43,-49.13 269.43,-52.63 279.43,-56.13 279.43,-49.13"/>
</a>
</g>
</g>
<!-- Node8 -->
<g id="Node000008" class="node">
<title>Node8</title>
<g id="a_Node000008"><a xlink:href="class_im_fusion_1_1_typed_node.html" target="_top" xlink:title="Class representing a typed tree node.">
<polygon fill="white" stroke="#666666" points="439.5,-19.25 303.5,-19.25 303.5,0 439.5,0 439.5,-19.25"/>
<text xml:space="preserve" text-anchor="middle" x="371.5" y="-5.75" font-family="Helvetica,sans-Serif" font-size="10.00">ImFusion::TypedNode&lt; T &gt;</text>
</a>
</g>
</g>
<!-- Node1&#45;&gt;Node8 -->
<g id="edge7_Node000001_Node000008" class="edge">
<title>Node1&#45;&gt;Node8</title>
<g id="a_edge7_Node000001_Node000008"><a xlink:title=" ">
<path fill="none" stroke="#63b8ff" d="M268.72,-39.15C280.02,-35.67 292.21,-31.97 303.5,-28.62 313.47,-25.68 324.3,-22.56 334.29,-19.73"/>
<polygon fill="#63b8ff" stroke="#63b8ff" points="267.75,-35.79 259.23,-42.09 269.81,-42.48 267.75,-35.79"/>
</a>
</g>
</g>
<!-- Node2 -->
<g id="Node000002" class="node">
<title>Node2</title>
<g id="a_Node000002"><a xlink:href="class_im_fusion_1_1_configurable.html" target="_top" xlink:title="Base interface for classes that support object serialization from/to Properties objects.">
<polygon fill="white" stroke="#666666" points="131.5,-81.25 14.25,-81.25 14.25,-62 131.5,-62 131.5,-81.25"/>
<text xml:space="preserve" text-anchor="middle" x="72.88" y="-67.75" font-family="Helvetica,sans-Serif" font-size="10.00">ImFusion::Configurable</text>
</a>
</g>
</g>
<!-- Node2&#45;&gt;Node1 -->
<g id="edge1_Node000001_Node000002" class="edge">
<title>Node2&#45;&gt;Node1</title>
<g id="a_edge1_Node000001_Node000002"><a xlink:title=" ">
<path fill="none" stroke="#63b8ff" d="M142.82,-62.88C156.08,-61.2 169.58,-59.48 181.67,-57.95"/>
<polygon fill="#63b8ff" stroke="#63b8ff" points="142.75,-59.36 133.27,-64.09 143.63,-66.3 142.75,-59.36"/>
</a>
</g>
</g>
<!-- Node3 -->
<g id="Node000003" class="node">
<title>Node3</title>
<g id="a_Node000003"><a xlink:href="class_im_fusion_1_1_utils_1_1_not_copyable.html" target="_top" xlink:title="Inherit from this class if your class should be neither copy&#45;constructible nor assignable.">
<polygon fill="white" stroke="#666666" points="145.75,-44.25 0,-44.25 0,-25 145.75,-25 145.75,-44.25"/>
<text xml:space="preserve" text-anchor="middle" x="72.88" y="-30.75" font-family="Helvetica,sans-Serif" font-size="10.00">ImFusion::Utils::NotCopyable</text>
</a>
</g>
</g>
<!-- Node3&#45;&gt;Node1 -->
<g id="edge2_Node000001_Node000003" class="edge">
<title>Node3&#45;&gt;Node1</title>
<g id="a_edge2_Node000001_Node000003"><a xlink:title=" ">
<path fill="none" stroke="#63b8ff" d="M157.47,-44.67C165.75,-45.67 173.89,-46.65 181.47,-47.56"/>
<polygon fill="#63b8ff" stroke="#63b8ff" points="157.97,-41.21 147.62,-43.49 157.13,-48.16 157.97,-41.21"/>
</a>
</g>
</g>
<!-- Node5 -->
<g id="Node000005" class="node">
<title>Node5</title>
<g id="a_Node000005"><a xlink:href="class_im_fusion_1_1_mesh_octree_node.html" target="_top" xlink:title="Class representing a mesh octree node.">
<polygon fill="white" stroke="#666666" points="614.5,-111.25 475.5,-111.25 475.5,-92 614.5,-92 614.5,-111.25"/>
<text xml:space="preserve" text-anchor="middle" x="545" y="-97.75" font-family="Helvetica,sans-Serif" font-size="10.00">ImFusion::MeshOctreeNode</text>
</a>
</g>
</g>
<!-- Node4&#45;&gt;Node5 -->
<g id="edge4_Node000004_Node000005" class="edge">
<title>Node4&#45;&gt;Node5</title>
<g id="a_edge4_Node000004_Node000005"><a xlink:title=" ">
<path fill="none" stroke="#63b8ff" d="M438.89,-101.62C450.75,-101.62 463.13,-101.62 475.06,-101.62"/>
<polygon fill="#63b8ff" stroke="#63b8ff" points="439.22,-98.13 429.22,-101.63 439.22,-105.13 439.22,-98.13"/>
</a>
</g>
</g>
<!-- Node7 -->
<g id="Node000007" class="node">
<title>Node7</title>
<g id="a_Node000007"><a xlink:href="class_im_fusion_1_1_point_node.html" target="_top" xlink:title="Class representing a tree point node.">
<polygon fill="white" stroke="#666666" points="599.12,-62.25 490.88,-62.25 490.88,-43 599.12,-43 599.12,-62.25"/>
<text xml:space="preserve" text-anchor="middle" x="545" y="-48.75" font-family="Helvetica,sans-Serif" font-size="10.00">ImFusion::PointNode</text>
</a>
</g>
</g>
<!-- Node6&#45;&gt;Node7 -->
<g id="edge6_Node000006_Node000007" class="edge">
<title>Node6&#45;&gt;Node7</title>
<g id="a_edge6_Node000006_Node000007"><a xlink:title=" ">
<path fill="none" stroke="#63b8ff" d="M438.8,-52.62C455.97,-52.62 474.24,-52.62 490.65,-52.62"/>
<polygon fill="#63b8ff" stroke="#63b8ff" points="439.22,-49.13 429.22,-52.63 439.22,-56.13 439.22,-49.13"/>
</a>
</g>
</g>
</g>
</svg>
