<?xml version="1.0" encoding="UTF-8" standalone="no"?>
<!DOCTYPE svg PUBLIC "-//W3C//DTD SVG 1.1//EN"
 "http://www.w3.org/Graphics/SVG/1.1/DTD/svg11.dtd">
<!-- Generated by graphviz version 14.1.4 (20260321.0153)
 -->
<!-- Title: ImFusion::GUI::QtDisplayWrapperBase Pages: 1 -->
<svg width="286pt" height="160pt"
 viewBox="0.00 0.00 286.00 160.00" xmlns="http://www.w3.org/2000/svg" xmlns:xlink="http://www.w3.org/1999/xlink">
<g id="graph0" class="graph" transform="scale(1 1) rotate(0) translate(4 156.25)">
<title>ImFusion::GUI::QtDisplayWrapperBase</title>
<!-- Node1 -->
<g id="Node000001" class="node">
<title>Node1</title>
<g id="a_Node000001"><a xlink:title="Abstract base interface for wrappers of a Display that embed them in a Qt&#45;based GUI application.">
<polygon fill="#999999" stroke="#666666" points="204,-97 74,-97 74,-66.5 204,-66.5 204,-97"/>
<text xml:space="preserve" text-anchor="start" x="82" y="-83.5" font-family="Helvetica,sans-Serif" font-size="10.00">ImFusion::GUI::QtDisplay</text>
<text xml:space="preserve" text-anchor="middle" x="139" y="-72.25" font-family="Helvetica,sans-Serif" font-size="10.00">WrapperBase</text>
</a>
</g>
</g>
<!-- Node3 -->
<g id="Node000003" class="node">
<title>Node3</title>
<g id="a_Node000003"><a xlink:href="class_im_fusion_1_1_g_u_i_1_1_qt_display_widget.html" target="_top" xlink:title="Specialization of a QOpenGLWidget that allows for rendering the contents of a Display into a QtWidget...">
<polygon fill="white" stroke="#666666" points="130,-30.5 0,-30.5 0,0 130,0 130,-30.5"/>
<text xml:space="preserve" text-anchor="start" x="8" y="-17" font-family="Helvetica,sans-Serif" font-size="10.00">ImFusion::GUI::QtDisplay</text>
<text xml:space="preserve" text-anchor="middle" x="65" y="-5.75" font-family="Helvetica,sans-Serif" font-size="10.00">Widget</text>
</a>
</g>
</g>
<!-- Node1&#45;&gt;Node3 -->
<g id="edge2_Node000001_Node000003" class="edge">
<title>Node1&#45;&gt;Node3</title>
<g id="a_edge2_Node000001_Node000003"><a xlink:title=" ">
<path fill="none" stroke="#63b8ff" d="M113.75,-58.74C103.18,-49.53 91.17,-39.06 81.73,-30.83"/>
<polygon fill="#63b8ff" stroke="#63b8ff" points="111.23,-61.19 121.07,-65.12 115.83,-55.91 111.23,-61.19"/>
</a>
</g>
</g>
<!-- Node4 -->
<g id="Node000004" class="node">
<title>Node4</title>
<g id="a_Node000004"><a xlink:href="class_im_fusion_1_1_g_u_i_1_1_qt_display_window.html" target="_top" xlink:title="Specialization of a QWindow that allows for rendering the contents of a Display directly into the win...">
<polygon fill="white" stroke="#666666" points="278,-30.5 148,-30.5 148,0 278,0 278,-30.5"/>
<text xml:space="preserve" text-anchor="start" x="156" y="-17" font-family="Helvetica,sans-Serif" font-size="10.00">ImFusion::GUI::QtDisplay</text>
<text xml:space="preserve" text-anchor="middle" x="213" y="-5.75" font-family="Helvetica,sans-Serif" font-size="10.00">Window</text>
</a>
</g>
</g>
<!-- Node1&#45;&gt;Node4 -->
<g id="edge3_Node000001_Node000004" class="edge">
<title>Node1&#45;&gt;Node4</title>
<g id="a_edge3_Node000001_Node000004"><a xlink:title=" ">
<path fill="none" stroke="#63b8ff" d="M164.25,-58.74C174.82,-49.53 186.83,-39.06 196.27,-30.83"/>
<polygon fill="#63b8ff" stroke="#63b8ff" points="162.17,-55.91 156.93,-65.12 166.77,-61.19 162.17,-55.91"/>
</a>
</g>
</g>
<!-- Node2 -->
<g id="Node000002" class="node">
<title>Node2</title>
<g id="a_Node000002"><a xlink:href="class_im_fusion_1_1_signal_receiver.html" target="_top" xlink:title="Base class for classes that can contain slots (i.e.">
<polygon fill="white" stroke="#666666" points="203.25,-152.25 74.75,-152.25 74.75,-133 203.25,-133 203.25,-152.25"/>
<text xml:space="preserve" text-anchor="middle" x="139" y="-138.75" font-family="Helvetica,sans-Serif" font-size="10.00">ImFusion::SignalReceiver</text>
</a>
</g>
</g>
<!-- Node2&#45;&gt;Node1 -->
<g id="edge1_Node000001_Node000002" class="edge">
<title>Node2&#45;&gt;Node1</title>
<g id="a_edge1_Node000001_Node000002"><a xlink:title=" ">
<path fill="none" stroke="#63b8ff" d="M139,-121.42C139,-113.49 139,-104.56 139,-97.28"/>
<polygon fill="#63b8ff" stroke="#63b8ff" points="135.5,-121.17 139,-131.17 142.5,-121.17 135.5,-121.17"/>
</a>
</g>
</g>
</g>
</svg>
