<?xml version="1.0" encoding="UTF-8" standalone="no"?>
<!DOCTYPE svg PUBLIC "-//W3C//DTD SVG 1.1//EN"
 "http://www.w3.org/Graphics/SVG/1.1/DTD/svg11.dtd">
<!-- Generated by graphviz version 14.1.4 (20260321.0153)
 -->
<!-- Title: ImFusion::Dicom::OverlayDataComponent Pages: 1 -->
<svg width="352pt" height="204pt"
 viewBox="0.00 0.00 352.00 204.00" xmlns="http://www.w3.org/2000/svg" xmlns:xlink="http://www.w3.org/1999/xlink">
<g id="graph0" class="graph" transform="scale(1 1) rotate(0) translate(4 200.25)">
<title>ImFusion::Dicom::OverlayDataComponent</title>
<!-- Node1 -->
<g id="Node000001" class="node">
<title>Node1</title>
<g id="a_Node000001"><a xlink:title="DataComponent providing DICOM overlays.">
<polygon fill="#999999" stroke="#666666" points="245.12,-30.5 114.38,-30.5 114.38,0 245.12,0 245.12,-30.5"/>
<text xml:space="preserve" text-anchor="start" x="122.38" y="-17" font-family="Helvetica,sans-Serif" font-size="10.00">ImFusion::Dicom::Overlay</text>
<text xml:space="preserve" text-anchor="middle" x="179.75" y="-5.75" font-family="Helvetica,sans-Serif" font-size="10.00">DataComponent</text>
</a>
</g>
</g>
<!-- Node2 -->
<g id="Node000002" class="node">
<title>Node2</title>
<g id="a_Node000002"><a xlink:href="class_im_fusion_1_1_temporary_data_component.html" target="_top" xlink:title="Specialization of DataComponentBase that disables serialization, copying and assignment.">
<polygon fill="white" stroke="#666666" points="179.5,-85.75 0,-85.75 0,-66.5 179.5,-66.5 179.5,-85.75"/>
<text xml:space="preserve" text-anchor="middle" x="89.75" y="-72.25" font-family="Helvetica,sans-Serif" font-size="10.00">ImFusion::TemporaryDataComponent</text>
</a>
</g>
</g>
<!-- Node2&#45;&gt;Node1 -->
<g id="edge1_Node000001_Node000002" class="edge">
<title>Node2&#45;&gt;Node1</title>
<g id="a_edge1_Node000001_Node000002"><a xlink:title=" ">
<path fill="none" stroke="#63b8ff" d="M112.69,-60.12C126.46,-51.11 143.9,-39.7 157.54,-30.78"/>
<polygon fill="#63b8ff" stroke="#63b8ff" points="111.14,-56.95 104.69,-65.35 114.97,-62.81 111.14,-56.95"/>
</a>
</g>
</g>
<!-- Node3 -->
<g id="Node000003" class="node">
<title>Node3</title>
<g id="a_Node000003"><a xlink:href="class_im_fusion_1_1_data_component_base.html" target="_top" xlink:title="Data components provide a way to generically attach custom information objects.">
<polygon fill="white" stroke="#666666" points="167.88,-141 11.62,-141 11.62,-121.75 167.88,-121.75 167.88,-141"/>
<text xml:space="preserve" text-anchor="middle" x="89.75" y="-127.5" font-family="Helvetica,sans-Serif" font-size="10.00">ImFusion::DataComponentBase</text>
</a>
</g>
</g>
<!-- Node3&#45;&gt;Node2 -->
<g id="edge2_Node000002_Node000003" class="edge">
<title>Node3&#45;&gt;Node2</title>
<g id="a_edge2_Node000002_Node000003"><a xlink:title=" ">
<path fill="none" stroke="#63b8ff" d="M89.75,-110.13C89.75,-101.84 89.75,-92.67 89.75,-86.11"/>
<polygon fill="#63b8ff" stroke="#63b8ff" points="86.25,-110.07 89.75,-120.07 93.25,-110.07 86.25,-110.07"/>
</a>
</g>
</g>
<!-- Node4 -->
<g id="Node000004" class="node">
<title>Node4</title>
<g id="a_Node000004"><a xlink:href="class_im_fusion_1_1_configurable.html" target="_top" xlink:title="Base interface for classes that support object serialization from/to Properties objects.">
<polygon fill="white" stroke="#666666" points="148.38,-196.25 31.12,-196.25 31.12,-177 148.38,-177 148.38,-196.25"/>
<text xml:space="preserve" text-anchor="middle" x="89.75" y="-182.75" font-family="Helvetica,sans-Serif" font-size="10.00">ImFusion::Configurable</text>
</a>
</g>
</g>
<!-- Node4&#45;&gt;Node3 -->
<g id="edge3_Node000003_Node000004" class="edge">
<title>Node4&#45;&gt;Node3</title>
<g id="a_edge3_Node000003_Node000004"><a xlink:title=" ">
<path fill="none" stroke="#63b8ff" d="M89.75,-165.38C89.75,-157.09 89.75,-147.92 89.75,-141.36"/>
<polygon fill="#63b8ff" stroke="#63b8ff" points="86.25,-165.32 89.75,-175.32 93.25,-165.32 86.25,-165.32"/>
</a>
</g>
</g>
<!-- Node5 -->
<g id="Node000005" class="node">
<title>Node5</title>
<g id="a_Node000005"><a xlink:href="class_im_fusion_1_1_utils_1_1_not_copyable.html" target="_top" xlink:title="Inherit from this class if your class should be neither copy&#45;constructible nor assignable.">
<polygon fill="white" stroke="#666666" points="343.62,-85.75 197.88,-85.75 197.88,-66.5 343.62,-66.5 343.62,-85.75"/>
<text xml:space="preserve" text-anchor="middle" x="270.75" y="-72.25" font-family="Helvetica,sans-Serif" font-size="10.00">ImFusion::Utils::NotCopyable</text>
</a>
</g>
</g>
<!-- Node5&#45;&gt;Node1 -->
<g id="edge4_Node000001_Node000005" class="edge">
<title>Node5&#45;&gt;Node1</title>
<g id="a_edge4_Node000001_Node000005"><a xlink:title=" ">
<path fill="none" stroke="#63b8ff" d="M247.55,-60.12C233.63,-51.11 216,-39.7 202.21,-30.78"/>
<polygon fill="#63b8ff" stroke="#63b8ff" points="245.36,-62.87 255.66,-65.36 249.16,-56.99 245.36,-62.87"/>
</a>
</g>
</g>
</g>
</svg>
