<?xml version="1.0" encoding="UTF-8" standalone="no"?>
<!DOCTYPE svg PUBLIC "-//W3C//DTD SVG 1.1//EN"
 "http://www.w3.org/Graphics/SVG/1.1/DTD/svg11.dtd">
<!-- Generated by graphviz version 14.1.4 (20260321.0153)
 -->
<!-- Title: ImFusion::Experiments Pages: 1 -->
<svg width="272pt" height="83pt"
 viewBox="0.00 0.00 272.00 83.00" xmlns="http://www.w3.org/2000/svg" xmlns:xlink="http://www.w3.org/1999/xlink">
<g id="graph0" class="graph" transform="scale(1 1) rotate(0) translate(4 78.5)">
<title>ImFusion::Experiments</title>
<!-- Node1 -->
<g id="Node000001" class="node">
<title>Node1</title>
<g id="a_Node000001"><a xlink:title=" ">
<polygon fill="#999999" stroke="#666666" points="192.88,-19.25 75.62,-19.25 75.62,0 192.88,0 192.88,-19.25"/>
<text xml:space="preserve" text-anchor="middle" x="134.25" y="-5.75" font-family="Helvetica,sans-Serif" font-size="10.00">ImFusion::Experiments</text>
</a>
</g>
</g>
<!-- Node2 -->
<g id="Node000002" class="node">
<title>Node2</title>
<g id="a_Node000002"><a xlink:href="class_im_fusion_1_1_signal_receiver.html" target="_top" xlink:title="Base class for classes that can contain slots (i.e.">
<polygon fill="white" stroke="#666666" points="128.5,-74.5 0,-74.5 0,-55.25 128.5,-55.25 128.5,-74.5"/>
<text xml:space="preserve" text-anchor="middle" x="64.25" y="-61" font-family="Helvetica,sans-Serif" font-size="10.00">ImFusion::SignalReceiver</text>
</a>
</g>
</g>
<!-- Node2&#45;&gt;Node1 -->
<g id="edge1_Node000001_Node000002" class="edge">
<title>Node2&#45;&gt;Node1</title>
<g id="a_edge1_Node000001_Node000002"><a xlink:title=" ">
<path fill="none" stroke="#63b8ff" d="M85.2,-47.94C97.42,-38.64 112.39,-27.26 122.55,-19.52"/>
<polygon fill="#63b8ff" stroke="#63b8ff" points="83.17,-45.09 77.33,-53.93 87.41,-50.66 83.17,-45.09"/>
</a>
</g>
</g>
<!-- Node3 -->
<g id="Node000003" class="node">
<title>Node3</title>
<g id="a_Node000003"><a xlink:href="class_im_fusion_1_1_configurable.html" target="_top" xlink:title="Base interface for classes that support object serialization from/to Properties objects.">
<polygon fill="white" stroke="#666666" points="263.88,-74.5 146.62,-74.5 146.62,-55.25 263.88,-55.25 263.88,-74.5"/>
<text xml:space="preserve" text-anchor="middle" x="205.25" y="-61" font-family="Helvetica,sans-Serif" font-size="10.00">ImFusion::Configurable</text>
</a>
</g>
</g>
<!-- Node3&#45;&gt;Node1 -->
<g id="edge2_Node000001_Node000003" class="edge">
<title>Node3&#45;&gt;Node1</title>
<g id="a_edge2_Node000001_Node000003"><a xlink:title=" ">
<path fill="none" stroke="#63b8ff" d="M184,-47.94C171.61,-38.64 156.43,-27.26 146.12,-19.52"/>
<polygon fill="#63b8ff" stroke="#63b8ff" points="181.89,-50.73 191.99,-53.93 186.09,-45.13 181.89,-50.73"/>
</a>
</g>
</g>
</g>
</svg>
