<?xml version="1.0" encoding="UTF-8" standalone="no"?>
<!DOCTYPE svg PUBLIC "-//W3C//DTD SVG 1.1//EN"
 "http://www.w3.org/Graphics/SVG/1.1/DTD/svg11.dtd">
<!-- Generated by graphviz version 14.1.4 (20260321.0153)
 -->
<!-- Title: ImFusion::SmartSplineManipulator Pages: 1 -->
<svg width="174pt" height="216pt"
 viewBox="0.00 0.00 174.00 216.00" xmlns="http://www.w3.org/2000/svg" xmlns:xlink="http://www.w3.org/1999/xlink">
<g id="graph0" class="graph" transform="scale(1 1) rotate(0) translate(4 211.5)">
<title>ImFusion::SmartSplineManipulator</title>
<!-- Node1 -->
<g id="Node000001" class="node">
<title>Node1</title>
<g id="a_Node000001"><a xlink:title="Manipulator for smart spline annotations.">
<polygon fill="#999999" stroke="#666666" points="166,-19.25 0,-19.25 0,0 166,0 166,-19.25"/>
<text xml:space="preserve" text-anchor="middle" x="83" y="-5.75" font-family="Helvetica,sans-Serif" font-size="10.00">ImFusion::SmartSplineManipulator</text>
</a>
</g>
</g>
<!-- Node2 -->
<g id="Node000002" class="node">
<title>Node2</title>
<g id="a_Node000002"><a xlink:href="class_im_fusion_1_1_point_based_annotation_manipulator.html" target="_top" xlink:title="Manipulator for point&#45;based annotations.">
<polygon fill="white" stroke="#666666" points="162.62,-85.75 3.38,-85.75 3.38,-55.25 162.62,-55.25 162.62,-85.75"/>
<text xml:space="preserve" text-anchor="start" x="11.38" y="-72.25" font-family="Helvetica,sans-Serif" font-size="10.00">ImFusion::PointBasedAnnotation</text>
<text xml:space="preserve" text-anchor="middle" x="83" y="-61" font-family="Helvetica,sans-Serif" font-size="10.00">Manipulator</text>
</a>
</g>
</g>
<!-- Node2&#45;&gt;Node1 -->
<g id="edge1_Node000001_Node000002" class="edge">
<title>Node2&#45;&gt;Node1</title>
<g id="a_edge1_Node000001_Node000002"><a xlink:title=" ">
<path fill="none" stroke="#63b8ff" d="M83,-43.48C83,-34.98 83,-26.09 83,-19.7"/>
<polygon fill="#63b8ff" stroke="#63b8ff" points="79.5,-43.43 83,-53.43 86.5,-43.43 79.5,-43.43"/>
</a>
</g>
</g>
<!-- Node3 -->
<g id="Node000003" class="node">
<title>Node3</title>
<g id="a_Node000003"><a xlink:href="class_im_fusion_1_1_manipulator.html" target="_top" xlink:title="Abstract base class for manipulator objects.">
<polygon fill="white" stroke="#666666" points="139.38,-141 26.62,-141 26.62,-121.75 139.38,-121.75 139.38,-141"/>
<text xml:space="preserve" text-anchor="middle" x="83" y="-127.5" font-family="Helvetica,sans-Serif" font-size="10.00">ImFusion::Manipulator</text>
</a>
</g>
</g>
<!-- Node3&#45;&gt;Node2 -->
<g id="edge2_Node000002_Node000003" class="edge">
<title>Node3&#45;&gt;Node2</title>
<g id="a_edge2_Node000002_Node000003"><a xlink:title=" ">
<path fill="none" stroke="#63b8ff" d="M83,-110.17C83,-102.24 83,-93.31 83,-86.03"/>
<polygon fill="#63b8ff" stroke="#63b8ff" points="79.5,-109.92 83,-119.92 86.5,-109.92 79.5,-109.92"/>
</a>
</g>
</g>
<!-- Node4 -->
<g id="Node000004" class="node">
<title>Node4</title>
<g id="a_Node000004"><a xlink:href="class_im_fusion_1_1_g_u_i_1_1_view_object_1_1_event_handler.html" target="_top" xlink:title="Interface to be used as base class for event handlers of ViewObjects.">
<polygon fill="white" stroke="#666666" points="151.38,-207.5 14.62,-207.5 14.62,-177 151.38,-177 151.38,-207.5"/>
<text xml:space="preserve" text-anchor="start" x="22.62" y="-194" font-family="Helvetica,sans-Serif" font-size="10.00">ImFusion::GUI::ViewObject</text>
<text xml:space="preserve" text-anchor="middle" x="83" y="-182.75" font-family="Helvetica,sans-Serif" font-size="10.00">::EventHandler</text>
</a>
</g>
</g>
<!-- Node4&#45;&gt;Node3 -->
<g id="edge3_Node000003_Node000004" class="edge">
<title>Node4&#45;&gt;Node3</title>
<g id="a_edge3_Node000003_Node000004"><a xlink:title=" ">
<path fill="none" stroke="#63b8ff" d="M83,-165.23C83,-156.73 83,-147.84 83,-141.45"/>
<polygon fill="#63b8ff" stroke="#63b8ff" points="79.5,-165.18 83,-175.18 86.5,-165.18 79.5,-165.18"/>
</a>
</g>
</g>
</g>
</svg>
