<?xml version="1.0" encoding="UTF-8" standalone="no"?>
<!DOCTYPE svg PUBLIC "-//W3C//DTD SVG 1.1//EN"
 "http://www.w3.org/Graphics/SVG/1.1/DTD/svg11.dtd">
<!-- Generated by graphviz version 14.1.4 (20260321.0153)
 -->
<!-- Title: ImFusion::GlTrackingSequenceLegacy Pages: 1 -->
<svg width="340pt" height="260pt"
 viewBox="0.00 0.00 340.00 260.00" xmlns="http://www.w3.org/2000/svg" xmlns:xlink="http://www.w3.org/1999/xlink">

<svg id="main" version="1.1" xmlns="http://www.w3.org/2000/svg" xmlns:xlink="http://www.w3.org/1999/xlink" xml:space="preserve">

<style type="text/css"><![CDATA[
.node, .edge {opacity: 0.7;}
.node.selected, .edge.selected {opacity: 1;}
.edge:hover path { stroke: red; }
.edge:hover polygon { stroke: red; fill: red; }
]]></style>
<script type="application/ecmascript" xlink:href="svg.min.js"/>
<svg id="graph" class="graph">
<g id="graph0" class="graph" transform="scale(1 1) rotate(0) translate(4 255.5)">
<title>ImFusion::GlTrackingSequenceLegacy</title>
<!-- Node1 -->
<g id="Node000001" class="node">
<title>Node1</title>
<g id="a_Node000001"><a xlink:title=" ">
<polygon fill="#999999" stroke="#666666" points="274.25,-30.5 121,-30.5 121,0 274.25,0 274.25,-30.5"/>
<text xml:space="preserve" text-anchor="start" x="129" y="-17" font-family="Helvetica,sans-Serif" font-size="10.00">ImFusion::GlTrackingSequence</text>
<text xml:space="preserve" text-anchor="middle" x="197.62" y="-5.75" font-family="Helvetica,sans-Serif" font-size="10.00">Legacy</text>
</a>
</g>
</g>
<!-- Node2 -->
<g id="Node000002" class="node">
<title>Node2</title>
<g id="a_Node000002"><a xlink:href="class_im_fusion_1_1_gl3_d_object.html" target="_top" xlink:title="Abstract base class for 3D objects for which a center and an extent (i.e. a bounding box) can be spec...">
<polygon fill="white" stroke="#666666" points="185.38,-85.75 71.88,-85.75 71.88,-66.5 185.38,-66.5 185.38,-85.75"/>
<text xml:space="preserve" text-anchor="middle" x="128.62" y="-72.25" font-family="Helvetica,sans-Serif" font-size="10.00">ImFusion::Gl3DObject</text>
</a>
</g>
</g>
<!-- Node2&#45;&gt;Node1 -->
<g id="edge1_Node000001_Node000002" class="edge">
<title>Node2&#45;&gt;Node1</title>
<g id="a_edge1_Node000001_Node000002"><a xlink:title=" ">
<path fill="none" stroke="#63b8ff" d="M147.77,-58.79C158.06,-50.01 170.64,-39.27 180.59,-30.78"/>
<polygon fill="#63b8ff" stroke="#63b8ff" points="145.59,-56.05 140.26,-65.2 150.13,-61.37 145.59,-56.05"/>
</a>
</g>
</g>
<!-- Node3 -->
<g id="Node000003" class="node">
<title>Node3</title>
<g id="a_Node000003"><a xlink:href="class_im_fusion_1_1_gl_annotation.html" target="_top" xlink:title="Base class for implementing annotations.">
<polygon fill="white" stroke="#666666" points="188,-141 69.25,-141 69.25,-121.75 188,-121.75 188,-141"/>
<text xml:space="preserve" text-anchor="middle" x="128.62" y="-127.5" font-family="Helvetica,sans-Serif" font-size="10.00">ImFusion::GlAnnotation</text>
</a>
</g>
</g>
<!-- Node3&#45;&gt;Node2 -->
<g id="edge2_Node000002_Node000003" class="edge">
<title>Node3&#45;&gt;Node2</title>
<g id="a_edge2_Node000002_Node000003"><a xlink:title=" ">
<path fill="none" stroke="#63b8ff" d="M128.62,-110.13C128.62,-101.84 128.62,-92.67 128.62,-86.11"/>
<polygon fill="#63b8ff" stroke="#63b8ff" points="125.13,-110.07 128.63,-120.07 132.13,-110.07 125.13,-110.07"/>
</a>
</g>
</g>
<!-- Node4 -->
<g id="Node000004" class="node">
<title>Node4</title>
<g id="a_Node000004"><a xlink:href="class_im_fusion_1_1_gl_object.html" target="_top" xlink:title="Abstract base class for an renderable OpenGL object that can be hosted in a GlView.">
<polygon fill="white" stroke="#666666" points="109,-196.25 8.25,-196.25 8.25,-177 109,-177 109,-196.25"/>
<text xml:space="preserve" text-anchor="middle" x="58.62" y="-182.75" font-family="Helvetica,sans-Serif" font-size="10.00">ImFusion::GlObject</text>
</a>
</g>
</g>
<!-- Node4&#45;&gt;Node3 -->
<g id="edge3_Node000003_Node000004" class="edge">
<title>Node4&#45;&gt;Node3</title>
<g id="a_edge3_Node000003_Node000004"><a xlink:title=" ">
<path fill="none" stroke="#63b8ff" d="M79.57,-169.69C91.8,-160.39 106.76,-149.01 116.93,-141.27"/>
<polygon fill="#63b8ff" stroke="#63b8ff" points="77.54,-166.84 71.7,-175.68 81.78,-172.41 77.54,-166.84"/>
</a>
</g>
</g>
<!-- Node5 -->
<g id="Node000005" class="node">
<title>Node5</title>
<g id="a_Node000005"><a xlink:href="class_im_fusion_1_1_configurable.html" target="_top" xlink:title="Base interface for classes that support object serialization from/to Properties objects.">
<polygon fill="white" stroke="#666666" points="117.25,-251.5 0,-251.5 0,-232.25 117.25,-232.25 117.25,-251.5"/>
<text xml:space="preserve" text-anchor="middle" x="58.62" y="-238" font-family="Helvetica,sans-Serif" font-size="10.00">ImFusion::Configurable</text>
</a>
</g>
</g>
<!-- Node5&#45;&gt;Node4 -->
<g id="edge4_Node000004_Node000005" class="edge">
<title>Node5&#45;&gt;Node4</title>
<g id="a_edge4_Node000004_Node000005"><a xlink:title=" ">
<path fill="none" stroke="#63b8ff" d="M58.62,-220.63C58.62,-212.34 58.62,-203.17 58.62,-196.61"/>
<polygon fill="#63b8ff" stroke="#63b8ff" points="55.13,-220.57 58.63,-230.57 62.13,-220.57 55.13,-220.57"/>
</a>
</g>
</g>
<!-- Node6 -->
<g id="Node000006" class="node">
<title>Node6</title>
<g id="a_Node000006"><a xlink:href="class_im_fusion_1_1_utils_1_1_not_copyable.html" target="_top" xlink:title="Inherit from this class if your class should be neither copy&#45;constructible nor assignable.">
<polygon fill="white" stroke="#666666" points="272.5,-196.25 126.75,-196.25 126.75,-177 272.5,-177 272.5,-196.25"/>
<text xml:space="preserve" text-anchor="middle" x="199.62" y="-182.75" font-family="Helvetica,sans-Serif" font-size="10.00">ImFusion::Utils::NotCopyable</text>
</a>
</g>
</g>
<!-- Node6&#45;&gt;Node3 -->
<g id="edge5_Node000003_Node000006" class="edge">
<title>Node6&#45;&gt;Node3</title>
<g id="a_edge5_Node000003_Node000006"><a xlink:title=" ">
<path fill="none" stroke="#8b1a1a" d="M178.38,-169.69C165.98,-160.39 150.8,-149.01 140.49,-141.27"/>
<polygon fill="#8b1a1a" stroke="#8b1a1a" points="176.27,-172.48 186.37,-175.68 180.47,-166.88 176.27,-172.48"/>
</a>
</g>
</g>
<!-- Node7 -->
<g id="Node000007" class="node">
<title>Node7</title>
<g id="a_Node000007"><a xlink:href="class_im_fusion_1_1_signal_receiver.html" target="_top" xlink:title="Base class for classes that can contain slots (i.e.">
<polygon fill="white" stroke="#666666" points="331.88,-85.75 203.38,-85.75 203.38,-66.5 331.88,-66.5 331.88,-85.75"/>
<text xml:space="preserve" text-anchor="middle" x="267.62" y="-72.25" font-family="Helvetica,sans-Serif" font-size="10.00">ImFusion::SignalReceiver</text>
</a>
</g>
</g>
<!-- Node7&#45;&gt;Node1 -->
<g id="edge6_Node000001_Node000007" class="edge">
<title>Node7&#45;&gt;Node1</title>
<g id="a_edge6_Node000001_Node000007"><a xlink:title=" ">
<path fill="none" stroke="#63b8ff" d="M248.2,-58.79C237.76,-50.01 225,-39.27 214.9,-30.78"/>
<polygon fill="#63b8ff" stroke="#63b8ff" points="245.93,-61.45 255.84,-65.21 250.44,-56.09 245.93,-61.45"/>
</a>
</g>
</g>
</g>
</svg>
</svg>

<style type='text/css'>
<![CDATA[
[data-mouse-over-selected='false'] { opacity: 0.7; }
[data-mouse-over-selected='true']  { opacity: 1.0; }
]]>
</style>
<script type="application/ecmascript"><![CDATA[
document.addEventListener('DOMContentLoaded', (event) => {
  highlightEdges();
  highlightAdjacentNodes();
});
]]></script>
</svg>
