<?xml version="1.0" encoding="UTF-8" standalone="no"?>
<!DOCTYPE svg PUBLIC "-//W3C//DTD SVG 1.1//EN"
 "http://www.w3.org/Graphics/SVG/1.1/DTD/svg11.dtd">
<!-- Generated by graphviz version 14.1.4 (20260321.0153)
 -->
<!-- Title: ImFusion::Gated4DImageSetDisplayDataController Pages: 1 -->
<svg width="351pt" height="204pt"
 viewBox="0.00 0.00 351.00 204.00" xmlns="http://www.w3.org/2000/svg" xmlns:xlink="http://www.w3.org/1999/xlink">
<g id="graph0" class="graph" transform="scale(1 1) rotate(0) translate(4 200.25)">
<title>ImFusion::Gated4DImageSetDisplayDataController</title>
<!-- Node1 -->
<g id="Node000001" class="node">
<title>Node1</title>
<g id="a_Node000001"><a xlink:title="GUI controller for synchronizing multiple 4D datasets through gating metadata.">
<polygon fill="#999999" stroke="#666666" points="277.38,-30.5 133.88,-30.5 133.88,0 277.38,0 277.38,-30.5"/>
<text xml:space="preserve" text-anchor="start" x="141.88" y="-17" font-family="Helvetica,sans-Serif" font-size="10.00">ImFusion::Gated4DImageSet</text>
<text xml:space="preserve" text-anchor="middle" x="205.62" y="-5.75" font-family="Helvetica,sans-Serif" font-size="10.00">DisplayDataController</text>
</a>
</g>
</g>
<!-- Node2 -->
<g id="Node000002" class="node">
<title>Node2</title>
<g id="a_Node000002"><a xlink:href="class_im_fusion_1_1_data_controller.html" target="_top" xlink:title="Specialization of the Controller interface to be used with Data instances.">
<polygon fill="white" stroke="#666666" points="196.38,-85.75 70.88,-85.75 70.88,-66.5 196.38,-66.5 196.38,-85.75"/>
<text xml:space="preserve" text-anchor="middle" x="133.62" y="-72.25" font-family="Helvetica,sans-Serif" font-size="10.00">ImFusion::DataController</text>
</a>
</g>
</g>
<!-- Node2&#45;&gt;Node1 -->
<g id="edge1_Node000001_Node000002" class="edge">
<title>Node2&#45;&gt;Node1</title>
<g id="a_edge1_Node000001_Node000002"><a xlink:title=" ">
<path fill="none" stroke="#63b8ff" d="M153.28,-59.06C164.07,-50.23 177.37,-39.36 187.85,-30.78"/>
<polygon fill="#63b8ff" stroke="#63b8ff" points="151.26,-56.19 145.73,-65.23 155.69,-61.6 151.26,-56.19"/>
</a>
</g>
</g>
<!-- Node3 -->
<g id="Node000003" class="node">
<title>Node3</title>
<g id="a_Node000003"><a xlink:href="class_im_fusion_1_1_controller.html" target="_top" xlink:title="Base interface for a GUI element within MainWindowBase.">
<polygon fill="white" stroke="#666666" points="185.88,-141 81.38,-141 81.38,-121.75 185.88,-121.75 185.88,-141"/>
<text xml:space="preserve" text-anchor="middle" x="133.62" y="-127.5" font-family="Helvetica,sans-Serif" font-size="10.00">ImFusion::Controller</text>
</a>
</g>
</g>
<!-- Node3&#45;&gt;Node2 -->
<g id="edge2_Node000002_Node000003" class="edge">
<title>Node3&#45;&gt;Node2</title>
<g id="a_edge2_Node000002_Node000003"><a xlink:title=" ">
<path fill="none" stroke="#63b8ff" d="M133.62,-110.13C133.62,-101.84 133.62,-92.67 133.62,-86.11"/>
<polygon fill="#63b8ff" stroke="#63b8ff" points="130.13,-110.07 133.63,-120.07 137.13,-110.07 130.13,-110.07"/>
</a>
</g>
</g>
<!-- Node4 -->
<g id="Node000004" class="node">
<title>Node4</title>
<g id="a_Node000004"><a xlink:href="class_im_fusion_1_1_configurable.html" target="_top" xlink:title="Base interface for classes that support object serialization from/to Properties objects.">
<polygon fill="white" stroke="#666666" points="117.25,-196.25 0,-196.25 0,-177 117.25,-177 117.25,-196.25"/>
<text xml:space="preserve" text-anchor="middle" x="58.62" y="-182.75" font-family="Helvetica,sans-Serif" font-size="10.00">ImFusion::Configurable</text>
</a>
</g>
</g>
<!-- Node4&#45;&gt;Node3 -->
<g id="edge3_Node000003_Node000004" class="edge">
<title>Node4&#45;&gt;Node3</title>
<g id="a_edge3_Node000003_Node000004"><a xlink:title=" ">
<path fill="none" stroke="#63b8ff" d="M80.62,-170.01C93.7,-160.72 109.83,-149.27 120.84,-141.45"/>
<polygon fill="#63b8ff" stroke="#63b8ff" points="78.71,-167.07 72.58,-175.72 82.76,-172.78 78.71,-167.07"/>
</a>
</g>
</g>
<!-- Node5 -->
<g id="Node000005" class="node">
<title>Node5</title>
<g id="a_Node000005"><a xlink:href="class_im_fusion_1_1_utils_1_1_not_copyable.html" target="_top" xlink:title="Inherit from this class if your class should be neither copy&#45;constructible nor assignable.">
<polygon fill="white" stroke="#666666" points="281.5,-196.25 135.75,-196.25 135.75,-177 281.5,-177 281.5,-196.25"/>
<text xml:space="preserve" text-anchor="middle" x="208.62" y="-182.75" font-family="Helvetica,sans-Serif" font-size="10.00">ImFusion::Utils::NotCopyable</text>
</a>
</g>
</g>
<!-- Node5&#45;&gt;Node3 -->
<g id="edge4_Node000003_Node000005" class="edge">
<title>Node5&#45;&gt;Node3</title>
<g id="a_edge4_Node000003_Node000005"><a xlink:title=" ">
<path fill="none" stroke="#8b1a1a" d="M186.63,-170.01C173.55,-160.72 157.42,-149.27 146.41,-141.45"/>
<polygon fill="#8b1a1a" stroke="#8b1a1a" points="184.49,-172.78 194.67,-175.72 188.54,-167.07 184.49,-172.78"/>
</a>
</g>
</g>
<!-- Node6 -->
<g id="Node000006" class="node">
<title>Node6</title>
<g id="a_Node000006"><a xlink:href="class_im_fusion_1_1_signal_receiver.html" target="_top" xlink:title="Base class for classes that can contain slots (i.e.">
<polygon fill="white" stroke="#666666" points="342.88,-85.75 214.38,-85.75 214.38,-66.5 342.88,-66.5 342.88,-85.75"/>
<text xml:space="preserve" text-anchor="middle" x="278.62" y="-72.25" font-family="Helvetica,sans-Serif" font-size="10.00">ImFusion::SignalReceiver</text>
</a>
</g>
</g>
<!-- Node6&#45;&gt;Node1 -->
<g id="edge5_Node000001_Node000006" class="edge">
<title>Node6&#45;&gt;Node1</title>
<g id="a_edge5_Node000001_Node000006"><a xlink:title=" ">
<path fill="none" stroke="#63b8ff" d="M258.7,-59.06C247.75,-50.23 234.28,-39.36 223.64,-30.78"/>
<polygon fill="#63b8ff" stroke="#63b8ff" points="256.38,-61.68 266.36,-65.23 260.77,-56.23 256.38,-61.68"/>
</a>
</g>
</g>
</g>
</svg>
