<?xml version="1.0" encoding="UTF-8" standalone="no"?>
<!DOCTYPE svg PUBLIC "-//W3C//DTD SVG 1.1//EN"
 "http://www.w3.org/Graphics/SVG/1.1/DTD/svg11.dtd">
<!-- Generated by graphviz version 14.1.4 (20260321.0153)
 -->
<!-- Title: ImFusion::SimilarityMeasurePixelWise_CPU Pages: 1 -->
<svg width="850pt" height="137pt"
 viewBox="0.00 0.00 850.00 137.00" xmlns="http://www.w3.org/2000/svg" xmlns:xlink="http://www.w3.org/1999/xlink">
<g id="graph0" class="graph" transform="scale(1 1) rotate(0) translate(4 132.5)">
<title>ImFusion::SimilarityMeasurePixelWise_CPU</title>
<!-- Node1 -->
<g id="Node000001" class="node">
<title>Node1</title>
<g id="a_Node000001"><a xlink:title=" ">
<polygon fill="#999999" stroke="#666666" points="665.5,-79.5 525,-79.5 525,-49 665.5,-49 665.5,-79.5"/>
<text xml:space="preserve" text-anchor="start" x="533" y="-66" font-family="Helvetica,sans-Serif" font-size="10.00">ImFusion::SimilarityMeasure</text>
<text xml:space="preserve" text-anchor="middle" x="595.25" y="-54.75" font-family="Helvetica,sans-Serif" font-size="10.00">PixelWise_CPU</text>
</a>
</g>
</g>
<!-- Node5 -->
<g id="Node000005" class="node">
<title>Node5</title>
<g id="a_Node000005"><a xlink:href="class_im_fusion_1_1_similarity_measure_n_c_c___c_p_u.html" target="_top" xlink:title=" ">
<polygon fill="white" stroke="#bfbfbf" points="842,-128.5 701.5,-128.5 701.5,-98 842,-98 842,-128.5"/>
<text xml:space="preserve" text-anchor="start" x="709.5" y="-115" font-family="Helvetica,sans-Serif" font-size="10.00">ImFusion::SimilarityMeasure</text>
<text xml:space="preserve" text-anchor="middle" x="771.75" y="-103.75" font-family="Helvetica,sans-Serif" font-size="10.00">NCC_CPU</text>
</a>
</g>
</g>
<!-- Node1&#45;&gt;Node5 -->
<g id="edge4_Node000001_Node000005" class="edge">
<title>Node1&#45;&gt;Node5</title>
<g id="a_edge4_Node000001_Node000005"><a xlink:title=" ">
<path fill="none" stroke="#63b8ff" d="M662.97,-82.98C680.04,-87.78 698.22,-92.88 714.69,-97.51"/>
<polygon fill="#63b8ff" stroke="#63b8ff" points="663.97,-79.63 653.4,-80.3 662.08,-86.37 663.97,-79.63"/>
</a>
</g>
</g>
<!-- Node6 -->
<g id="Node000006" class="node">
<title>Node6</title>
<g id="a_Node000006"><a xlink:href="class_im_fusion_1_1_similarity_measure_s_a_d___c_p_u.html" target="_top" xlink:title=" ">
<polygon fill="white" stroke="#bfbfbf" points="842,-79.5 701.5,-79.5 701.5,-49 842,-49 842,-79.5"/>
<text xml:space="preserve" text-anchor="start" x="709.5" y="-66" font-family="Helvetica,sans-Serif" font-size="10.00">ImFusion::SimilarityMeasure</text>
<text xml:space="preserve" text-anchor="middle" x="771.75" y="-54.75" font-family="Helvetica,sans-Serif" font-size="10.00">SAD_CPU</text>
</a>
</g>
</g>
<!-- Node1&#45;&gt;Node6 -->
<g id="edge5_Node000001_Node000006" class="edge">
<title>Node1&#45;&gt;Node6</title>
<g id="a_edge5_Node000001_Node000006"><a xlink:title=" ">
<path fill="none" stroke="#63b8ff" d="M677.48,-64.25C685.39,-64.25 693.36,-64.25 701.14,-64.25"/>
<polygon fill="#63b8ff" stroke="#63b8ff" points="677.48,-60.75 667.48,-64.25 677.48,-67.75 677.48,-60.75"/>
</a>
</g>
</g>
<!-- Node7 -->
<g id="Node000007" class="node">
<title>Node7</title>
<g id="a_Node000007"><a xlink:href="class_im_fusion_1_1_similarity_measure_s_s_d___c_p_u.html" target="_top" xlink:title=" ">
<polygon fill="white" stroke="#bfbfbf" points="842,-30.5 701.5,-30.5 701.5,0 842,0 842,-30.5"/>
<text xml:space="preserve" text-anchor="start" x="709.5" y="-17" font-family="Helvetica,sans-Serif" font-size="10.00">ImFusion::SimilarityMeasure</text>
<text xml:space="preserve" text-anchor="middle" x="771.75" y="-5.75" font-family="Helvetica,sans-Serif" font-size="10.00">SSD_CPU</text>
</a>
</g>
</g>
<!-- Node1&#45;&gt;Node7 -->
<g id="edge6_Node000001_Node000007" class="edge">
<title>Node1&#45;&gt;Node7</title>
<g id="a_edge6_Node000001_Node000007"><a xlink:title=" ">
<path fill="none" stroke="#63b8ff" d="M662.97,-45.52C680.04,-40.72 698.22,-35.62 714.69,-30.99"/>
<polygon fill="#63b8ff" stroke="#63b8ff" points="662.08,-42.13 653.4,-48.2 663.97,-48.87 662.08,-42.13"/>
</a>
</g>
</g>
<!-- Node2 -->
<g id="Node000002" class="node">
<title>Node2</title>
<g id="a_Node000002"><a xlink:href="class_im_fusion_1_1_similarity_measure_impl_pixel_wise.html" target="_top" xlink:title=" ">
<polygon fill="white" stroke="#bfbfbf" points="489,-79.5 348.5,-79.5 348.5,-49 489,-49 489,-79.5"/>
<text xml:space="preserve" text-anchor="start" x="356.5" y="-66" font-family="Helvetica,sans-Serif" font-size="10.00">ImFusion::SimilarityMeasure</text>
<text xml:space="preserve" text-anchor="middle" x="418.75" y="-54.75" font-family="Helvetica,sans-Serif" font-size="10.00">ImplPixelWise</text>
</a>
</g>
</g>
<!-- Node2&#45;&gt;Node1 -->
<g id="edge1_Node000001_Node000002" class="edge">
<title>Node2&#45;&gt;Node1</title>
<g id="a_edge1_Node000001_Node000002"><a xlink:title=" ">
<path fill="none" stroke="#63b8ff" d="M500.98,-64.25C508.89,-64.25 516.86,-64.25 524.64,-64.25"/>
<polygon fill="#63b8ff" stroke="#63b8ff" points="500.98,-60.75 490.98,-64.25 500.98,-67.75 500.98,-60.75"/>
</a>
</g>
</g>
<!-- Node3 -->
<g id="Node000003" class="node">
<title>Node3</title>
<g id="a_Node000003"><a xlink:href="class_im_fusion_1_1_similarity_measure_impl.html" target="_top" xlink:title="Base class of a similarity measure between two images.">
<polygon fill="white" stroke="#666666" points="312.5,-73.88 153.25,-73.88 153.25,-54.62 312.5,-54.62 312.5,-73.88"/>
<text xml:space="preserve" text-anchor="middle" x="232.88" y="-60.38" font-family="Helvetica,sans-Serif" font-size="10.00">ImFusion::SimilarityMeasureImpl</text>
</a>
</g>
</g>
<!-- Node3&#45;&gt;Node2 -->
<g id="edge2_Node000002_Node000003" class="edge">
<title>Node3&#45;&gt;Node2</title>
<g id="a_edge2_Node000002_Node000003"><a xlink:title=" ">
<path fill="none" stroke="#63b8ff" d="M324.21,-64.25C332.22,-64.25 340.24,-64.25 348.04,-64.25"/>
<polygon fill="#63b8ff" stroke="#63b8ff" points="324.44,-60.75 314.44,-64.25 324.44,-67.75 324.44,-60.75"/>
</a>
</g>
</g>
<!-- Node4 -->
<g id="Node000004" class="node">
<title>Node4</title>
<g id="a_Node000004"><a xlink:href="class_im_fusion_1_1_configurable.html" target="_top" xlink:title="Base interface for classes that support object serialization from/to Properties objects.">
<polygon fill="white" stroke="#666666" points="117.25,-73.88 0,-73.88 0,-54.62 117.25,-54.62 117.25,-73.88"/>
<text xml:space="preserve" text-anchor="middle" x="58.62" y="-60.38" font-family="Helvetica,sans-Serif" font-size="10.00">ImFusion::Configurable</text>
</a>
</g>
</g>
<!-- Node4&#45;&gt;Node3 -->
<g id="edge3_Node000003_Node000004" class="edge">
<title>Node4&#45;&gt;Node3</title>
<g id="a_edge3_Node000003_Node000004"><a xlink:title=" ">
<path fill="none" stroke="#63b8ff" d="M128.83,-64.25C136.7,-64.25 144.77,-64.25 152.76,-64.25"/>
<polygon fill="#63b8ff" stroke="#63b8ff" points="128.97,-60.75 118.97,-64.25 128.97,-67.75 128.97,-60.75"/>
</a>
</g>
</g>
</g>
</svg>
