<?xml version="1.0" encoding="UTF-8" standalone="no"?>
<!DOCTYPE svg PUBLIC "-//W3C//DTD SVG 1.1//EN"
 "http://www.w3.org/Graphics/SVG/1.1/DTD/svg11.dtd">
<!-- Generated by graphviz version 14.1.4 (20260321.0153)
 -->
<!-- Title: ImFusion::SimilarityMeasureImpl Pages: 1 -->
<!--zoomable 627 -->

<svg id="main" version="1.1" xmlns="http://www.w3.org/2000/svg" xmlns:xlink="http://www.w3.org/1999/xlink" xml:space="preserve" onload="init(evt)">

<style type="text/css"><![CDATA[
.node, .edge {opacity: 0.7;}
.node.selected, .edge.selected {opacity: 1;}
.edge:hover path { stroke: red; }
.edge:hover polygon { stroke: red; fill: red; }
]]></style>

<defs>
  <circle id="rim" cx="0" cy="0" r="7"/>
  <circle id="rim2" cx="0" cy="0" r="3.5"/>
  <g id="zoomPlus">
    <use xlink:href="#rim" fill="#404040"><set attributeName="fill" to="#808080" begin="zoomplus.mouseover" end="zoomplus.mouseout"/></use>
    <path d="M-4,0h8M0,-4v8" fill="none" stroke="white" stroke-width="1.5" pointer-events="none"/>
  </g>
  <g id="zoomMin">
    <use xlink:href="#rim" fill="#404040"><set attributeName="fill" to="#808080" begin="zoomminus.mouseover" end="zoomminus.mouseout"/></use>
    <path d="M-4,0h8" fill="none" stroke="white" stroke-width="1.5" pointer-events="none"/>
  </g>
  <g id="arrowUp" transform="translate(30 24)">
    <use xlink:href="#rim"/>
    <path pointer-events="none" fill="none" stroke="white" stroke-width="1.5" d="M0,-3.0v7 M-2.5,-0.5L0,-3.0L2.5,-0.5"/>
  </g>
  <g id="arrowRight" transform="rotate(90) translate(36 -43)">
    <use xlink:href="#rim"/>
    <path pointer-events="none" fill="none" stroke="white" stroke-width="1.5" d="M0,-3.0v7 M-2.5,-0.5L0,-3.0L2.5,-0.5"/>
  </g>
  <g id="arrowDown" transform="rotate(180) translate(-30 -48)">
    <use xlink:href="#rim"/>
    <path pointer-events="none" fill="none" stroke="white" stroke-width="1.5" d="M0,-3.0v7 M-2.5,-0.5L0,-3.0L2.5,-0.5"/>
  </g>
  <g id="arrowLeft" transform="rotate(270) translate(-36 17)">
    <use xlink:href="#rim"/>
    <path pointer-events="none" fill="none" stroke="white" stroke-width="1.5" d="M0,-3.0v7 M-2.5,-0.5L0,-3.0L2.5,-0.5"/>
  </g>
  <g id="resetDef">
    <use xlink:href="#rim2" fill="#404040"><set attributeName="fill" to="#808080" begin="reset.mouseover" end="reset.mouseout"/></use>
  </g>
</defs>
<script type="application/ecmascript">
var viewWidth = 878;
var viewHeight = 627;
var sectionId = 'dynsection-0';
</script>
<script type="application/ecmascript" xlink:href="svg.min.js"/>
<svg id="graph" class="graph">
<g id="viewport">
<title>ImFusion::SimilarityMeasureImpl</title>
<!-- Node1 -->
<g id="Node000001" class="node">
<title>Node1</title>
<g id="a_Node000001"><a xlink:title="Base class of a similarity measure between two images.">
<polygon fill="#999999" stroke="#666666" points="312.5,-235.88 153.25,-235.88 153.25,-216.62 312.5,-216.62 312.5,-235.88"/>
<text xml:space="preserve" text-anchor="middle" x="232.88" y="-222.38" font-family="Helvetica,sans-Serif" font-size="10.00">ImFusion::SimilarityMeasureImpl</text>
</a>
</g>
</g>
<!-- Node3 -->
<g id="Node000003" class="node">
<title>Node3</title>
<g id="a_Node000003"><a xlink:href="class_im_fusion_1_1_similarity_measure_dot_product.html" target="_top" xlink:title=" ">
<polygon fill="white" stroke="#bfbfbf" points="502.88,-449.5 362.38,-449.5 362.38,-419 502.88,-419 502.88,-449.5"/>
<text xml:space="preserve" text-anchor="start" x="370.38" y="-436" font-family="Helvetica,sans-Serif" font-size="10.00">ImFusion::SimilarityMeasure</text>
<text xml:space="preserve" text-anchor="middle" x="432.62" y="-424.75" font-family="Helvetica,sans-Serif" font-size="10.00">DotProduct</text>
</a>
</g>
</g>
<!-- Node1&#45;&gt;Node3 -->
<g id="edge2_Node000001_Node000003" class="edge">
<title>Node1&#45;&gt;Node3</title>
<g id="a_edge2_Node000001_Node000003"><a xlink:title=" ">
<path fill="none" stroke="#63b8ff" d="M241.21,-247.08C255.67,-285.08 291.48,-365.75 348.5,-409.25 353.29,-412.91 358.62,-416.03 364.19,-418.7"/>
<polygon fill="#63b8ff" stroke="#63b8ff" points="244.52,-245.94 237.79,-237.76 237.95,-248.35 244.52,-245.94"/>
</a>
</g>
</g>
<!-- Node4 -->
<g id="Node000004" class="node">
<title>Node4</title>
<g id="a_Node000004"><a xlink:href="class_im_fusion_1_1_similarity_measure_impl_hist_based.html" target="_top" xlink:title=" ">
<polygon fill="white" stroke="#bfbfbf" points="502.88,-400.5 362.38,-400.5 362.38,-370 502.88,-370 502.88,-400.5"/>
<text xml:space="preserve" text-anchor="start" x="370.38" y="-387" font-family="Helvetica,sans-Serif" font-size="10.00">ImFusion::SimilarityMeasure</text>
<text xml:space="preserve" text-anchor="middle" x="432.62" y="-375.75" font-family="Helvetica,sans-Serif" font-size="10.00">ImplHistBased</text>
</a>
</g>
</g>
<!-- Node1&#45;&gt;Node4 -->
<g id="edge3_Node000001_Node000004" class="edge">
<title>Node1&#45;&gt;Node4</title>
<g id="a_edge3_Node000001_Node000004"><a xlink:title=" ">
<path fill="none" stroke="#63b8ff" d="M245.46,-245.89C263.71,-275.12 301.9,-329.88 348.5,-360.25 354.05,-363.87 360.16,-366.99 366.45,-369.66"/>
<polygon fill="#63b8ff" stroke="#63b8ff" points="248.64,-244.38 240.45,-237.66 242.67,-248.02 248.64,-244.38"/>
</a>
</g>
</g>
<!-- Node5 -->
<g id="Node000005" class="node">
<title>Node5</title>
<g id="a_Node000005"><a xlink:href="class_im_fusion_1_1_similarity_measure_impl_pixel_wise.html" target="_top" xlink:title=" ">
<polygon fill="white" stroke="#bfbfbf" points="502.88,-351.5 362.38,-351.5 362.38,-321 502.88,-321 502.88,-351.5"/>
<text xml:space="preserve" text-anchor="start" x="370.38" y="-338" font-family="Helvetica,sans-Serif" font-size="10.00">ImFusion::SimilarityMeasure</text>
<text xml:space="preserve" text-anchor="middle" x="432.62" y="-326.75" font-family="Helvetica,sans-Serif" font-size="10.00">ImplPixelWise</text>
</a>
</g>
</g>
<!-- Node1&#45;&gt;Node5 -->
<g id="edge4_Node000001_Node000005" class="edge">
<title>Node1&#45;&gt;Node5</title>
<g id="a_edge4_Node000001_Node000005"><a xlink:title=" ">
<path fill="none" stroke="#63b8ff" d="M252.61,-243.75C274.2,-263.04 311.48,-293.8 348.5,-312.25 354.68,-315.33 361.33,-318.08 368.07,-320.52"/>
<polygon fill="#63b8ff" stroke="#63b8ff" points="255.24,-241.4 245.49,-237.27 250.53,-246.58 255.24,-241.4"/>
</a>
</g>
</g>
<!-- Node15 -->
<g id="Node000015" class="node">
<title>Node15</title>
<g id="a_Node000015"><a xlink:href="class_im_fusion_1_1_similarity_measure_l_c2.html" target="_top" xlink:title=" ">
<polygon fill="white" stroke="#bfbfbf" points="511.88,-302.88 353.38,-302.88 353.38,-283.62 511.88,-283.62 511.88,-302.88"/>
<text xml:space="preserve" text-anchor="middle" x="432.62" y="-289.38" font-family="Helvetica,sans-Serif" font-size="10.00">ImFusion::SimilarityMeasureLC2</text>
</a>
</g>
</g>
<!-- Node1&#45;&gt;Node15 -->
<g id="edge14_Node000001_Node000015" class="edge">
<title>Node1&#45;&gt;Node15</title>
<g id="a_edge14_Node000001_Node000015"><a xlink:title=" ">
<path fill="none" stroke="#63b8ff" d="M274.13,-239.89C311.99,-252.72 367.8,-271.63 401.82,-283.15"/>
<polygon fill="#63b8ff" stroke="#63b8ff" points="275.51,-236.66 264.91,-236.77 273.26,-243.29 275.51,-236.66"/>
</a>
</g>
</g>
<!-- Node18 -->
<g id="Node000018" class="node">
<title>Node18</title>
<g id="a_Node000018"><a xlink:href="class_im_fusion_1_1_similarity_measure_l_n_c_c.html" target="_top" xlink:title=" ">
<polygon fill="white" stroke="#bfbfbf" points="516.75,-235.88 348.5,-235.88 348.5,-216.62 516.75,-216.62 516.75,-235.88"/>
<text xml:space="preserve" text-anchor="middle" x="432.62" y="-222.38" font-family="Helvetica,sans-Serif" font-size="10.00">ImFusion::SimilarityMeasureLNCC</text>
</a>
</g>
</g>
<!-- Node1&#45;&gt;Node18 -->
<g id="edge17_Node000001_Node000018" class="edge">
<title>Node1&#45;&gt;Node18</title>
<g id="a_edge17_Node000001_Node000018"><a xlink:title=" ">
<path fill="none" stroke="#63b8ff" d="M324.14,-226.25C332.16,-226.25 340.25,-226.25 348.21,-226.25"/>
<polygon fill="#63b8ff" stroke="#63b8ff" points="324.4,-222.75 314.4,-226.25 324.4,-229.75 324.4,-222.75"/>
</a>
</g>
</g>
<!-- Node21 -->
<g id="Node000021" class="node">
<title>Node21</title>
<g id="a_Node000021"><a xlink:href="class_im_fusion_1_1_similarity_measure_m_i.html" target="_top" xlink:title="Computes the Mutual Information of two images.">
<polygon fill="white" stroke="#666666" points="508.5,-192.88 356.75,-192.88 356.75,-173.62 508.5,-173.62 508.5,-192.88"/>
<text xml:space="preserve" text-anchor="middle" x="432.62" y="-179.38" font-family="Helvetica,sans-Serif" font-size="10.00">ImFusion::SimilarityMeasureMI</text>
</a>
</g>
</g>
<!-- Node1&#45;&gt;Node21 -->
<g id="edge20_Node000001_Node000021" class="edge">
<title>Node1&#45;&gt;Node21</title>
<g id="a_edge20_Node000001_Node000021"><a xlink:title=" ">
<path fill="none" stroke="#63b8ff" d="M291.34,-213.75C321.18,-207.27 357.16,-199.44 385.21,-193.34"/>
<polygon fill="#63b8ff" stroke="#63b8ff" points="290.75,-210.3 281.72,-215.85 292.23,-217.14 290.75,-210.3"/>
</a>
</g>
</g>
<!-- Node24 -->
<g id="Node000024" class="node">
<title>Node24</title>
<g id="a_Node000024"><a xlink:href="class_im_fusion_1_1_similarity_measure_m_l.html" target="_top" xlink:title="Machine Learning based similarity measure.">
<polygon fill="white" stroke="#666666" points="509.62,-155.88 355.62,-155.88 355.62,-136.62 509.62,-136.62 509.62,-155.88"/>
<text xml:space="preserve" text-anchor="middle" x="432.62" y="-142.38" font-family="Helvetica,sans-Serif" font-size="10.00">ImFusion::SimilarityMeasureML</text>
</a>
</g>
</g>
<!-- Node1&#45;&gt;Node24 -->
<g id="edge23_Node000001_Node000024" class="edge">
<title>Node1&#45;&gt;Node24</title>
<g id="a_edge23_Node000001_Node000024"><a xlink:title=" ">
<path fill="none" stroke="#63b8ff" d="M258.63,-210.19C281.21,-196.19 315.93,-176.31 348.5,-164.25 356.81,-161.17 365.79,-158.55 374.67,-156.34"/>
<polygon fill="#63b8ff" stroke="#63b8ff" points="257.03,-207.06 250.44,-215.35 260.76,-212.98 257.03,-207.06"/>
</a>
</g>
</g>
<!-- Node25 -->
<g id="Node000025" class="node">
<title>Node25</title>
<g id="a_Node000025"><a xlink:href="class_im_fusion_1_1_similarity_measure_s_s_i_m.html" target="_top" xlink:title=" ">
<polygon fill="white" stroke="#bfbfbf" points="515.25,-95.88 350,-95.88 350,-76.62 515.25,-76.62 515.25,-95.88"/>
<text xml:space="preserve" text-anchor="middle" x="432.62" y="-82.38" font-family="Helvetica,sans-Serif" font-size="10.00">ImFusion::SimilarityMeasureSSIM</text>
</a>
</g>
</g>
<!-- Node1&#45;&gt;Node25 -->
<g id="edge24_Node000001_Node000025" class="edge">
<title>Node1&#45;&gt;Node25</title>
<g id="a_edge24_Node000001_Node000025"><a xlink:title=" ">
<path fill="none" stroke="#63b8ff" d="M251.52,-208.46C273.09,-187.34 311.32,-151.89 348.5,-127.25 367.14,-114.89 390.05,-103.87 407.09,-96.37"/>
<polygon fill="#63b8ff" stroke="#63b8ff" points="249.31,-205.72 244.67,-215.24 254.24,-210.69 249.31,-205.72"/>
</a>
</g>
</g>
<!-- Node28 -->
<g id="Node000028" class="node">
<title>Node28</title>
<g id="a_Node000028"><a xlink:href="class_im_fusion_1_1_similarity_measure_wrapper.html" target="_top" xlink:title="Wrapper for safe and configurable use of various similarity measures.">
<polygon fill="white" stroke="#666666" points="502.88,-58.5 362.38,-58.5 362.38,-28 502.88,-28 502.88,-58.5"/>
<text xml:space="preserve" text-anchor="start" x="370.38" y="-45" font-family="Helvetica,sans-Serif" font-size="10.00">ImFusion::SimilarityMeasure</text>
<text xml:space="preserve" text-anchor="middle" x="432.62" y="-33.75" font-family="Helvetica,sans-Serif" font-size="10.00">Wrapper</text>
</a>
</g>
</g>
<!-- Node1&#45;&gt;Node28 -->
<g id="edge27_Node000001_Node000028" class="edge">
<title>Node1&#45;&gt;Node28</title>
<g id="a_edge27_Node000001_Node000028"><a xlink:title=" ">
<path fill="none" stroke="#63b8ff" d="M242.83,-206.23C258.99,-172.41 296.26,-104.04 348.5,-67.25 353.04,-64.05 358.01,-61.27 363.18,-58.86"/>
<polygon fill="#63b8ff" stroke="#63b8ff" points="239.84,-204.36 238.8,-214.91 246.19,-207.31 239.84,-204.36"/>
</a>
</g>
</g>
<!-- Node2 -->
<g id="Node000002" class="node">
<title>Node2</title>
<g id="a_Node000002"><a xlink:href="class_im_fusion_1_1_configurable.html" target="_top" xlink:title="Base interface for classes that support object serialization from/to Properties objects.">
<polygon fill="white" stroke="#666666" points="117.25,-235.88 0,-235.88 0,-216.62 117.25,-216.62 117.25,-235.88"/>
<text xml:space="preserve" text-anchor="middle" x="58.62" y="-222.38" font-family="Helvetica,sans-Serif" font-size="10.00">ImFusion::Configurable</text>
</a>
</g>
</g>
<!-- Node2&#45;&gt;Node1 -->
<g id="edge1_Node000001_Node000002" class="edge">
<title>Node2&#45;&gt;Node1</title>
<g id="a_edge1_Node000001_Node000002"><a xlink:title=" ">
<path fill="none" stroke="#63b8ff" d="M128.83,-226.25C136.7,-226.25 144.77,-226.25 152.76,-226.25"/>
<polygon fill="#63b8ff" stroke="#63b8ff" points="128.97,-222.75 118.97,-226.25 128.97,-229.75 128.97,-222.75"/>
</a>
</g>
</g>
<!-- Node6 -->
<g id="Node000006" class="node">
<title>Node6</title>
<g id="a_Node000006"><a xlink:href="class_im_fusion_1_1_similarity_measure_pixel_wise___c_p_u.html" target="_top" xlink:title=" ">
<polygon fill="white" stroke="#bfbfbf" points="693.25,-545.5 552.75,-545.5 552.75,-515 693.25,-515 693.25,-545.5"/>
<text xml:space="preserve" text-anchor="start" x="560.75" y="-532" font-family="Helvetica,sans-Serif" font-size="10.00">ImFusion::SimilarityMeasure</text>
<text xml:space="preserve" text-anchor="middle" x="623" y="-520.75" font-family="Helvetica,sans-Serif" font-size="10.00">PixelWise_CPU</text>
</a>
</g>
</g>
<!-- Node5&#45;&gt;Node6 -->
<g id="edge5_Node000005_Node000006" class="edge">
<title>Node5&#45;&gt;Node6</title>
<g id="a_edge5_Node000005_Node000006"><a xlink:title=" ">
<path fill="none" stroke="#63b8ff" d="M512.03,-357.66C513.66,-358.8 515.24,-359.99 516.75,-361.25 543.64,-383.63 534.68,-401.29 552.75,-431.25 571.17,-461.78 595.66,-495.42 610.04,-514.58"/>
<polygon fill="#63b8ff" stroke="#63b8ff" points="513.9,-354.7 503.52,-352.57 510.31,-360.71 513.9,-354.7"/>
</a>
</g>
</g>
<!-- Node10 -->
<g id="Node000010" class="node">
<title>Node10</title>
<g id="a_Node000010"><a xlink:href="class_im_fusion_1_1_similarity_measure_pixel_wise___g_l.html" target="_top" xlink:title=" ">
<polygon fill="white" stroke="#bfbfbf" points="693.25,-422.5 552.75,-422.5 552.75,-392 693.25,-392 693.25,-422.5"/>
<text xml:space="preserve" text-anchor="start" x="560.75" y="-409" font-family="Helvetica,sans-Serif" font-size="10.00">ImFusion::SimilarityMeasure</text>
<text xml:space="preserve" text-anchor="middle" x="623" y="-397.75" font-family="Helvetica,sans-Serif" font-size="10.00">PixelWise_GL</text>
</a>
</g>
</g>
<!-- Node5&#45;&gt;Node10 -->
<g id="edge9_Node000005_Node000010" class="edge">
<title>Node5&#45;&gt;Node10</title>
<g id="a_edge9_Node000005_Node000010"><a xlink:title=" ">
<path fill="none" stroke="#63b8ff" d="M502.6,-355.6C507.44,-357.39 512.2,-359.27 516.75,-361.25 533.74,-368.64 535.97,-374.41 552.75,-382.25 559.81,-385.55 567.44,-388.7 574.97,-391.58"/>
<polygon fill="#63b8ff" stroke="#63b8ff" points="503.97,-352.37 493.37,-352.38 501.65,-358.98 503.97,-352.37"/>
</a>
</g>
</g>
<!-- Node7 -->
<g id="Node000007" class="node">
<title>Node7</title>
<g id="a_Node000007"><a xlink:href="class_im_fusion_1_1_similarity_measure_n_c_c___c_p_u.html" target="_top" xlink:title=" ">
<polygon fill="white" stroke="#bfbfbf" points="869.75,-618.5 729.25,-618.5 729.25,-588 869.75,-588 869.75,-618.5"/>
<text xml:space="preserve" text-anchor="start" x="737.25" y="-605" font-family="Helvetica,sans-Serif" font-size="10.00">ImFusion::SimilarityMeasure</text>
<text xml:space="preserve" text-anchor="middle" x="799.5" y="-593.75" font-family="Helvetica,sans-Serif" font-size="10.00">NCC_CPU</text>
</a>
</g>
</g>
<!-- Node6&#45;&gt;Node7 -->
<g id="edge6_Node000006_Node000007" class="edge">
<title>Node6&#45;&gt;Node7</title>
<g id="a_edge6_Node000006_Node000007"><a xlink:title=" ">
<path fill="none" stroke="#63b8ff" d="M666.82,-550.74C685.79,-559.56 708.48,-569.78 729.25,-578.25 736.94,-581.39 745.19,-584.54 753.22,-587.51"/>
<polygon fill="#63b8ff" stroke="#63b8ff" points="668.32,-547.57 657.78,-546.5 665.36,-553.91 668.32,-547.57"/>
</a>
</g>
</g>
<!-- Node8 -->
<g id="Node000008" class="node">
<title>Node8</title>
<g id="a_Node000008"><a xlink:href="class_im_fusion_1_1_similarity_measure_s_a_d___c_p_u.html" target="_top" xlink:title=" ">
<polygon fill="white" stroke="#bfbfbf" points="869.75,-569.5 729.25,-569.5 729.25,-539 869.75,-539 869.75,-569.5"/>
<text xml:space="preserve" text-anchor="start" x="737.25" y="-556" font-family="Helvetica,sans-Serif" font-size="10.00">ImFusion::SimilarityMeasure</text>
<text xml:space="preserve" text-anchor="middle" x="799.5" y="-544.75" font-family="Helvetica,sans-Serif" font-size="10.00">SAD_CPU</text>
</a>
</g>
</g>
<!-- Node6&#45;&gt;Node8 -->
<g id="edge7_Node000006_Node000008" class="edge">
<title>Node6&#45;&gt;Node8</title>
<g id="a_edge7_Node000006_Node000008"><a xlink:title=" ">
<path fill="none" stroke="#63b8ff" d="M704.95,-541.38C712.95,-542.48 721.02,-543.59 728.89,-544.68"/>
<polygon fill="#63b8ff" stroke="#63b8ff" points="705.6,-537.94 695.22,-540.05 704.65,-544.88 705.6,-537.94"/>
</a>
</g>
</g>
<!-- Node9 -->
<g id="Node000009" class="node">
<title>Node9</title>
<g id="a_Node000009"><a xlink:href="class_im_fusion_1_1_similarity_measure_s_s_d___c_p_u.html" target="_top" xlink:title=" ">
<polygon fill="white" stroke="#bfbfbf" points="869.75,-520.5 729.25,-520.5 729.25,-490 869.75,-490 869.75,-520.5"/>
<text xml:space="preserve" text-anchor="start" x="737.25" y="-507" font-family="Helvetica,sans-Serif" font-size="10.00">ImFusion::SimilarityMeasure</text>
<text xml:space="preserve" text-anchor="middle" x="799.5" y="-495.75" font-family="Helvetica,sans-Serif" font-size="10.00">SSD_CPU</text>
</a>
</g>
</g>
<!-- Node6&#45;&gt;Node9 -->
<g id="edge8_Node000006_Node000009" class="edge">
<title>Node6&#45;&gt;Node9</title>
<g id="a_edge8_Node000006_Node000009"><a xlink:title=" ">
<path fill="none" stroke="#63b8ff" d="M704.95,-518.65C712.95,-517.51 721.02,-516.35 728.89,-515.22"/>
<polygon fill="#63b8ff" stroke="#63b8ff" points="704.62,-515.16 695.22,-520.05 705.61,-522.09 704.62,-515.16"/>
</a>
</g>
</g>
<!-- Node11 -->
<g id="Node000011" class="node">
<title>Node11</title>
<g id="a_Node000011"><a xlink:href="class_im_fusion_1_1_similarity_measure_n_c_c___g_l.html" target="_top" xlink:title=" ">
<polygon fill="white" stroke="#bfbfbf" points="869.75,-471.5 729.25,-471.5 729.25,-441 869.75,-441 869.75,-471.5"/>
<text xml:space="preserve" text-anchor="start" x="737.25" y="-458" font-family="Helvetica,sans-Serif" font-size="10.00">ImFusion::SimilarityMeasure</text>
<text xml:space="preserve" text-anchor="middle" x="799.5" y="-446.75" font-family="Helvetica,sans-Serif" font-size="10.00">NCC_GL</text>
</a>
</g>
</g>
<!-- Node10&#45;&gt;Node11 -->
<g id="edge10_Node000010_Node000011" class="edge">
<title>Node10&#45;&gt;Node11</title>
<g id="a_edge10_Node000010_Node000011"><a xlink:title=" ">
<path fill="none" stroke="#63b8ff" d="M690.72,-425.98C707.79,-430.78 725.97,-435.88 742.44,-440.51"/>
<polygon fill="#63b8ff" stroke="#63b8ff" points="691.72,-422.63 681.15,-423.3 689.83,-429.37 691.72,-422.63"/>
</a>
</g>
</g>
<!-- Node12 -->
<g id="Node000012" class="node">
<title>Node12</title>
<g id="a_Node000012"><a xlink:href="class_im_fusion_1_1_similarity_measure_n_g_f___g_l.html" target="_top" xlink:title=" ">
<polygon fill="white" stroke="#bfbfbf" points="869.75,-422.5 729.25,-422.5 729.25,-392 869.75,-392 869.75,-422.5"/>
<text xml:space="preserve" text-anchor="start" x="737.25" y="-409" font-family="Helvetica,sans-Serif" font-size="10.00">ImFusion::SimilarityMeasure</text>
<text xml:space="preserve" text-anchor="middle" x="799.5" y="-397.75" font-family="Helvetica,sans-Serif" font-size="10.00">NGF_GL</text>
</a>
</g>
</g>
<!-- Node10&#45;&gt;Node12 -->
<g id="edge11_Node000010_Node000012" class="edge">
<title>Node10&#45;&gt;Node12</title>
<g id="a_edge11_Node000010_Node000012"><a xlink:title=" ">
<path fill="none" stroke="#63b8ff" d="M705.23,-407.25C713.14,-407.25 721.11,-407.25 728.89,-407.25"/>
<polygon fill="#63b8ff" stroke="#63b8ff" points="705.23,-403.75 695.23,-407.25 705.23,-410.75 705.23,-403.75"/>
</a>
</g>
</g>
<!-- Node13 -->
<g id="Node000013" class="node">
<title>Node13</title>
<g id="a_Node000013"><a xlink:href="class_im_fusion_1_1_similarity_measure_s_a_d___g_l.html" target="_top" xlink:title=" ">
<polygon fill="white" stroke="#bfbfbf" points="869.75,-373.5 729.25,-373.5 729.25,-343 869.75,-343 869.75,-373.5"/>
<text xml:space="preserve" text-anchor="start" x="737.25" y="-360" font-family="Helvetica,sans-Serif" font-size="10.00">ImFusion::SimilarityMeasure</text>
<text xml:space="preserve" text-anchor="middle" x="799.5" y="-348.75" font-family="Helvetica,sans-Serif" font-size="10.00">SAD_GL</text>
</a>
</g>
</g>
<!-- Node10&#45;&gt;Node13 -->
<g id="edge12_Node000010_Node000013" class="edge">
<title>Node10&#45;&gt;Node13</title>
<g id="a_edge12_Node000010_Node000013"><a xlink:title=" ">
<path fill="none" stroke="#63b8ff" d="M690.72,-388.52C707.79,-383.72 725.97,-378.62 742.44,-373.99"/>
<polygon fill="#63b8ff" stroke="#63b8ff" points="689.83,-385.13 681.15,-391.2 691.72,-391.87 689.83,-385.13"/>
</a>
</g>
</g>
<!-- Node14 -->
<g id="Node000014" class="node">
<title>Node14</title>
<g id="a_Node000014"><a xlink:href="class_im_fusion_1_1_similarity_measure_s_s_d___g_l.html" target="_top" xlink:title=" ">
<polygon fill="white" stroke="#bfbfbf" points="869.75,-324.5 729.25,-324.5 729.25,-294 869.75,-294 869.75,-324.5"/>
<text xml:space="preserve" text-anchor="start" x="737.25" y="-311" font-family="Helvetica,sans-Serif" font-size="10.00">ImFusion::SimilarityMeasure</text>
<text xml:space="preserve" text-anchor="middle" x="799.5" y="-299.75" font-family="Helvetica,sans-Serif" font-size="10.00">SSD_GL</text>
</a>
</g>
</g>
<!-- Node10&#45;&gt;Node14 -->
<g id="edge13_Node000010_Node000014" class="edge">
<title>Node10&#45;&gt;Node14</title>
<g id="a_edge13_Node000010_Node000014"><a xlink:title=" ">
<path fill="none" stroke="#63b8ff" d="M687.11,-386.38C689.23,-385.08 691.29,-383.7 693.25,-382.25 714.69,-366.39 707.81,-350.11 729.25,-334.25 734.08,-330.68 739.47,-327.57 745.05,-324.89"/>
<polygon fill="#63b8ff" stroke="#63b8ff" points="685.9,-383.05 678.78,-390.89 689.24,-389.2 685.9,-383.05"/>
</a>
</g>
</g>
<!-- Node16 -->
<g id="Node000016" class="node">
<title>Node16</title>
<g id="a_Node000016"><a xlink:href="class_im_fusion_1_1_similarity_measure_l_c2___c_p_u.html" target="_top" xlink:title=" ">
<polygon fill="white" stroke="#bfbfbf" points="693.25,-373.5 552.75,-373.5 552.75,-343 693.25,-343 693.25,-373.5"/>
<text xml:space="preserve" text-anchor="start" x="560.75" y="-360" font-family="Helvetica,sans-Serif" font-size="10.00">ImFusion::SimilarityMeasure</text>
<text xml:space="preserve" text-anchor="middle" x="623" y="-348.75" font-family="Helvetica,sans-Serif" font-size="10.00">LC2_CPU</text>
</a>
</g>
</g>
<!-- Node15&#45;&gt;Node16 -->
<g id="edge15_Node000015_Node000016" class="edge">
<title>Node15&#45;&gt;Node16</title>
<g id="a_edge15_Node000015_Node000016"><a xlink:title=" ">
<path fill="none" stroke="#63b8ff" d="M499.26,-306.27C505.25,-308.05 511.16,-310.04 516.75,-312.25 533.98,-319.06 535.97,-325.41 552.75,-333.25 559.81,-336.55 567.44,-339.7 574.97,-342.58"/>
<polygon fill="#63b8ff" stroke="#63b8ff" points="500.48,-302.98 489.91,-303.69 498.62,-309.73 500.48,-302.98"/>
</a>
</g>
</g>
<!-- Node17 -->
<g id="Node000017" class="node">
<title>Node17</title>
<g id="a_Node000017"><a xlink:href="class_im_fusion_1_1_similarity_measure_l_c2___g_p_u.html" target="_top" xlink:title=" ">
<polygon fill="white" stroke="#bfbfbf" points="693.25,-324.5 552.75,-324.5 552.75,-294 693.25,-294 693.25,-324.5"/>
<text xml:space="preserve" text-anchor="start" x="560.75" y="-311" font-family="Helvetica,sans-Serif" font-size="10.00">ImFusion::SimilarityMeasure</text>
<text xml:space="preserve" text-anchor="middle" x="623" y="-299.75" font-family="Helvetica,sans-Serif" font-size="10.00">LC2_GPU</text>
</a>
</g>
</g>
<!-- Node15&#45;&gt;Node17 -->
<g id="edge16_Node000015_Node000017" class="edge">
<title>Node15&#45;&gt;Node17</title>
<g id="a_edge16_Node000015_Node000017"><a xlink:title=" ">
<path fill="none" stroke="#63b8ff" d="M523.47,-300.88C533.16,-301.7 542.91,-302.53 552.31,-303.33"/>
<polygon fill="#63b8ff" stroke="#63b8ff" points="523.92,-297.41 513.66,-300.05 523.32,-304.38 523.92,-297.41"/>
</a>
</g>
</g>
<!-- Node19 -->
<g id="Node000019" class="node">
<title>Node19</title>
<g id="a_Node000019"><a xlink:href="class_im_fusion_1_1_similarity_measure_l_n_c_c___c_p_u.html" target="_top" xlink:title=" ">
<polygon fill="white" stroke="#bfbfbf" points="693.25,-275.5 552.75,-275.5 552.75,-245 693.25,-245 693.25,-275.5"/>
<text xml:space="preserve" text-anchor="start" x="560.75" y="-262" font-family="Helvetica,sans-Serif" font-size="10.00">ImFusion::SimilarityMeasure</text>
<text xml:space="preserve" text-anchor="middle" x="623" y="-250.75" font-family="Helvetica,sans-Serif" font-size="10.00">LNCC_CPU</text>
</a>
</g>
</g>
<!-- Node18&#45;&gt;Node19 -->
<g id="edge18_Node000018_Node000019" class="edge">
<title>Node18&#45;&gt;Node19</title>
<g id="a_edge18_Node000018_Node000019"><a xlink:title=" ">
<path fill="none" stroke="#63b8ff" d="M500.51,-238.32C517.38,-241.37 535.53,-244.64 552.52,-247.71"/>
<polygon fill="#63b8ff" stroke="#63b8ff" points="501.59,-234.96 491.12,-236.63 500.34,-241.85 501.59,-234.96"/>
</a>
</g>
</g>
<!-- Node20 -->
<g id="Node000020" class="node">
<title>Node20</title>
<g id="a_Node000020"><a xlink:href="class_im_fusion_1_1_similarity_measure_l_n_c_c___g_l.html" target="_top" xlink:title=" ">
<polygon fill="white" stroke="#bfbfbf" points="693.25,-226.5 552.75,-226.5 552.75,-196 693.25,-196 693.25,-226.5"/>
<text xml:space="preserve" text-anchor="start" x="560.75" y="-213" font-family="Helvetica,sans-Serif" font-size="10.00">ImFusion::SimilarityMeasure</text>
<text xml:space="preserve" text-anchor="middle" x="623" y="-201.75" font-family="Helvetica,sans-Serif" font-size="10.00">LNCC_GL</text>
</a>
</g>
</g>
<!-- Node18&#45;&gt;Node20 -->
<g id="edge19_Node000018_Node000020" class="edge">
<title>Node18&#45;&gt;Node20</title>
<g id="a_edge19_Node000018_Node000020"><a xlink:title=" ">
<path fill="none" stroke="#63b8ff" d="M528.47,-218.7C536.54,-218.06 544.61,-217.41 552.43,-216.79"/>
<polygon fill="#63b8ff" stroke="#63b8ff" points="528.27,-215.2 518.58,-219.49 528.83,-222.18 528.27,-215.2"/>
</a>
</g>
</g>
<!-- Node22 -->
<g id="Node000022" class="node">
<title>Node22</title>
<g id="a_Node000022"><a xlink:href="class_im_fusion_1_1_similarity_measure_m_i___c_p_u.html" target="_top" xlink:title="CPU implementation of Mutual Information.">
<polygon fill="white" stroke="#666666" points="693.25,-177.5 552.75,-177.5 552.75,-147 693.25,-147 693.25,-177.5"/>
<text xml:space="preserve" text-anchor="start" x="560.75" y="-164" font-family="Helvetica,sans-Serif" font-size="10.00">ImFusion::SimilarityMeasure</text>
<text xml:space="preserve" text-anchor="middle" x="623" y="-152.75" font-family="Helvetica,sans-Serif" font-size="10.00">MI_CPU</text>
</a>
</g>
</g>
<!-- Node21&#45;&gt;Node22 -->
<g id="edge21_Node000021_Node000022" class="edge">
<title>Node21&#45;&gt;Node22</title>
<g id="a_edge21_Node000021_Node000022"><a xlink:title=" ">
<path fill="none" stroke="#63b8ff" d="M520.08,-173.61C530.9,-172.41 541.84,-171.19 552.36,-170.01"/>
<polygon fill="#63b8ff" stroke="#63b8ff" points="519.94,-170.11 510.39,-174.69 520.72,-177.06 519.94,-170.11"/>
</a>
</g>
</g>
<!-- Node23 -->
<g id="Node000023" class="node">
<title>Node23</title>
<g id="a_Node000023"><a xlink:href="class_im_fusion_1_1_similarity_measure_m_i___g_l.html" target="_top" xlink:title="GPU implementation of Mutual Information using modern OpenGL.">
<polygon fill="white" stroke="#666666" points="693.25,-128.5 552.75,-128.5 552.75,-98 693.25,-98 693.25,-128.5"/>
<text xml:space="preserve" text-anchor="start" x="560.75" y="-115" font-family="Helvetica,sans-Serif" font-size="10.00">ImFusion::SimilarityMeasure</text>
<text xml:space="preserve" text-anchor="middle" x="623" y="-103.75" font-family="Helvetica,sans-Serif" font-size="10.00">MI_GL</text>
</a>
</g>
</g>
<!-- Node21&#45;&gt;Node23 -->
<g id="edge22_Node000021_Node000023" class="edge">
<title>Node21&#45;&gt;Node23</title>
<g id="a_edge22_Node000021_Node000023"><a xlink:title=" ">
<path fill="none" stroke="#63b8ff" d="M505.77,-169.68C509.53,-168.33 513.22,-166.86 516.75,-165.25 534.94,-156.94 535.15,-147.75 552.75,-138.25 559.05,-134.85 565.91,-131.74 572.77,-128.96"/>
<polygon fill="#63b8ff" stroke="#63b8ff" points="504.89,-166.28 496.43,-172.66 507.02,-172.95 504.89,-166.28"/>
</a>
</g>
</g>
<!-- Node26 -->
<g id="Node000026" class="node">
<title>Node26</title>
<g id="a_Node000026"><a xlink:href="class_im_fusion_1_1_similarity_measure_s_s_i_m___c_p_u.html" target="_top" xlink:title=" ">
<polygon fill="white" stroke="#bfbfbf" points="693.25,-79.5 552.75,-79.5 552.75,-49 693.25,-49 693.25,-79.5"/>
<text xml:space="preserve" text-anchor="start" x="560.75" y="-66" font-family="Helvetica,sans-Serif" font-size="10.00">ImFusion::SimilarityMeasure</text>
<text xml:space="preserve" text-anchor="middle" x="623" y="-54.75" font-family="Helvetica,sans-Serif" font-size="10.00">SSIM_CPU</text>
</a>
</g>
</g>
<!-- Node25&#45;&gt;Node26 -->
<g id="edge25_Node000025_Node000026" class="edge">
<title>Node25&#45;&gt;Node26</title>
<g id="a_edge25_Node000025_Node000026"><a xlink:title=" ">
<path fill="none" stroke="#63b8ff" d="M526.9,-75.36C535.44,-74.36 544,-73.36 552.28,-72.39"/>
<polygon fill="#63b8ff" stroke="#63b8ff" points="526.73,-71.85 517.2,-76.49 527.54,-78.81 526.73,-71.85"/>
</a>
</g>
</g>
<!-- Node27 -->
<g id="Node000027" class="node">
<title>Node27</title>
<g id="a_Node000027"><a xlink:href="class_im_fusion_1_1_similarity_measure_s_s_i_m___g_l.html" target="_top" xlink:title=" ">
<polygon fill="white" stroke="#bfbfbf" points="693.25,-30.5 552.75,-30.5 552.75,0 693.25,0 693.25,-30.5"/>
<text xml:space="preserve" text-anchor="start" x="560.75" y="-17" font-family="Helvetica,sans-Serif" font-size="10.00">ImFusion::SimilarityMeasure</text>
<text xml:space="preserve" text-anchor="middle" x="623" y="-5.75" font-family="Helvetica,sans-Serif" font-size="10.00">SSIM_GL</text>
</a>
</g>
</g>
<!-- Node25&#45;&gt;Node27 -->
<g id="edge26_Node000025_Node000027" class="edge">
<title>Node25&#45;&gt;Node27</title>
<g id="a_edge26_Node000025_Node000027"><a xlink:title=" ">
<path fill="none" stroke="#63b8ff" d="M502.64,-72.87C507.5,-71.2 512.25,-69.34 516.75,-67.25 534.89,-58.84 535.15,-49.75 552.75,-40.25 559.05,-36.85 565.91,-33.74 572.77,-30.96"/>
<polygon fill="#63b8ff" stroke="#63b8ff" points="501.86,-69.45 493.35,-75.77 503.94,-76.14 501.86,-69.45"/>
</a>
</g>
</g>
</g>
</svg>

<g id="navigator" transform="translate(0 0)" fill="#404254">
  <rect fill="#f2f5e9" fill-opacity="0.5" stroke="#606060" stroke-width=".5" x="0" y="0" width="60" height="60"/>
  <use id="zoomplus" xlink:href="#zoomPlus" x="17" y="9" onmousedown="handleZoom(evt,'in')"/>
  <use id="zoomminus" xlink:href="#zoomMin" x="42" y="9" onmousedown="handleZoom(evt,'out')"/>
  <use id="reset" xlink:href="#resetDef" x="30" y="36" onmousedown="handleReset()"/>
   <use id="arrowup" xlink:href="#arrowUp" x="0" y="0" onmousedown="handlePan(0,-1)"/>
  <use id="arrowright" xlink:href="#arrowRight" x="0" y="0" onmousedown="handlePan(1,0)"/>
  <use id="arrowdown" xlink:href="#arrowDown" x="0" y="0" onmousedown="handlePan(0,1)"/>
  <use id="arrowleft" xlink:href="#arrowLeft" x="0" y="0" onmousedown="handlePan(-1,0)"/>
</g>
<svg viewBox="0 0 15 15" width="100%" height="30px" preserveAspectRatio="xMaxYMin meet">
 <g id="arrow_out" transform="scale(0.3 0.3)">
  <a xlink:href="class_im_fusion_1_1_similarity_measure_impl__inherit__graph_org.svg" target="_base">
   <rect id="button" ry="5" rx="5" y="6" x="6" height="38" width="38"
        fill="#f2f5e9" fill-opacity="0.5" stroke="#606060" stroke-width="1.0"/>
   <path id="arrow"
     d="M 11.500037,31.436501 C 11.940474,20.09759 22.043105,11.32322 32.158766,21.979434 L 37.068811,17.246167 C 37.068811,17.246167 37.088388,32 37.088388,32 L 22.160133,31.978069 C 22.160133,31.978069 26.997745,27.140456 26.997745,27.140456 C 18.528582,18.264221 13.291696,25.230495 11.500037,31.436501 z"
     style="fill:#404040;"/>
  </a>
 </g>
</svg>

<style type='text/css'>
<![CDATA[
[data-mouse-over-selected='false'] { opacity: 0.7; }
[data-mouse-over-selected='true']  { opacity: 1.0; }
]]>
</style>
<script type="application/ecmascript"><![CDATA[
document.addEventListener('DOMContentLoaded', (event) => {
  highlightEdges();
  highlightAdjacentNodes();
});
]]></script>
</svg>
