<?xml version="1.0" encoding="UTF-8" standalone="no"?>
<!DOCTYPE svg PUBLIC "-//W3C//DTD SVG 1.1//EN"
 "http://www.w3.org/Graphics/SVG/1.1/DTD/svg11.dtd">
<!-- Generated by graphviz version 14.1.4 (20260321.0153)
 -->
<!-- Title: ImFusion::GlVolumeRendererBasic Pages: 1 -->
<svg width="436pt" height="149pt"
 viewBox="0.00 0.00 436.00 149.00" xmlns="http://www.w3.org/2000/svg" xmlns:xlink="http://www.w3.org/1999/xlink">
<g id="graph0" class="graph" transform="scale(1 1) rotate(0) translate(4 145)">
<title>ImFusion::GlVolumeRendererBasic</title>
<!-- Node1 -->
<g id="Node000001" class="node">
<title>Node1</title>
<g id="a_Node000001"><a xlink:title="Basic implementation of a direct volume renderer that supports different compositing modes.">
<polygon fill="#999999" stroke="#666666" points="277.75,-30.5 132.75,-30.5 132.75,0 277.75,0 277.75,-30.5"/>
<text xml:space="preserve" text-anchor="start" x="140.75" y="-17" font-family="Helvetica,sans-Serif" font-size="10.00">ImFusion::GlVolumeRenderer</text>
<text xml:space="preserve" text-anchor="middle" x="205.25" y="-5.75" font-family="Helvetica,sans-Serif" font-size="10.00">Basic</text>
</a>
</g>
</g>
<!-- Node2 -->
<g id="Node000002" class="node">
<title>Node2</title>
<g id="a_Node000002"><a xlink:href="class_im_fusion_1_1_gl_volume_renderer.html" target="_top" xlink:title="Interface for a class that can render volumetric data into a GlVolumeView.">
<polygon fill="white" stroke="#666666" points="277.75,-85.75 132.75,-85.75 132.75,-66.5 277.75,-66.5 277.75,-85.75"/>
<text xml:space="preserve" text-anchor="middle" x="205.25" y="-72.25" font-family="Helvetica,sans-Serif" font-size="10.00">ImFusion::GlVolumeRenderer</text>
</a>
</g>
</g>
<!-- Node2&#45;&gt;Node1 -->
<g id="edge1_Node000001_Node000002" class="edge">
<title>Node2&#45;&gt;Node1</title>
<g id="a_edge1_Node000001_Node000002"><a xlink:title=" ">
<path fill="none" stroke="#63b8ff" d="M205.25,-54.92C205.25,-46.99 205.25,-38.06 205.25,-30.78"/>
<polygon fill="#63b8ff" stroke="#63b8ff" points="201.75,-54.67 205.25,-64.67 208.75,-54.67 201.75,-54.67"/>
</a>
</g>
</g>
<!-- Node3 -->
<g id="Node000003" class="node">
<title>Node3</title>
<g id="a_Node000003"><a xlink:href="class_im_fusion_1_1_signal_receiver.html" target="_top" xlink:title="Base class for classes that can contain slots (i.e.">
<polygon fill="white" stroke="#666666" points="128.5,-141 0,-141 0,-121.75 128.5,-121.75 128.5,-141"/>
<text xml:space="preserve" text-anchor="middle" x="64.25" y="-127.5" font-family="Helvetica,sans-Serif" font-size="10.00">ImFusion::SignalReceiver</text>
</a>
</g>
</g>
<!-- Node3&#45;&gt;Node2 -->
<g id="edge2_Node000002_Node000003" class="edge">
<title>Node3&#45;&gt;Node2</title>
<g id="a_edge2_Node000002_Node000003"><a xlink:title=" ">
<path fill="none" stroke="#63b8ff" d="M98.89,-117.29C124.45,-107.64 158.59,-94.75 181.21,-86.2"/>
<polygon fill="#63b8ff" stroke="#63b8ff" points="97.7,-114 89.58,-120.81 100.18,-120.55 97.7,-114"/>
</a>
</g>
</g>
<!-- Node4 -->
<g id="Node000004" class="node">
<title>Node4</title>
<g id="a_Node000004"><a xlink:href="class_im_fusion_1_1_configurable.html" target="_top" xlink:title="Base interface for classes that support object serialization from/to Properties objects.">
<polygon fill="white" stroke="#666666" points="263.88,-141 146.62,-141 146.62,-121.75 263.88,-121.75 263.88,-141"/>
<text xml:space="preserve" text-anchor="middle" x="205.25" y="-127.5" font-family="Helvetica,sans-Serif" font-size="10.00">ImFusion::Configurable</text>
</a>
</g>
</g>
<!-- Node4&#45;&gt;Node2 -->
<g id="edge3_Node000002_Node000004" class="edge">
<title>Node4&#45;&gt;Node2</title>
<g id="a_edge3_Node000002_Node000004"><a xlink:title=" ">
<path fill="none" stroke="#63b8ff" d="M205.25,-110.13C205.25,-101.84 205.25,-92.67 205.25,-86.11"/>
<polygon fill="#63b8ff" stroke="#63b8ff" points="201.75,-110.07 205.25,-120.07 208.75,-110.07 201.75,-110.07"/>
</a>
</g>
</g>
<!-- Node5 -->
<g id="Node000005" class="node">
<title>Node5</title>
<g id="a_Node000005"><a xlink:href="class_im_fusion_1_1_utils_1_1_not_copyable.html" target="_top" xlink:title="Inherit from this class if your class should be neither copy&#45;constructible nor assignable.">
<polygon fill="white" stroke="#666666" points="428.12,-141 282.38,-141 282.38,-121.75 428.12,-121.75 428.12,-141"/>
<text xml:space="preserve" text-anchor="middle" x="355.25" y="-127.5" font-family="Helvetica,sans-Serif" font-size="10.00">ImFusion::Utils::NotCopyable</text>
</a>
</g>
</g>
<!-- Node5&#45;&gt;Node2 -->
<g id="edge4_Node000002_Node000005" class="edge">
<title>Node5&#45;&gt;Node2</title>
<g id="a_edge4_Node000002_Node000005"><a xlink:title=" ">
<path fill="none" stroke="#8b1a1a" d="M319.13,-117.55C291.86,-107.87 255.11,-94.82 230.82,-86.2"/>
<polygon fill="#8b1a1a" stroke="#8b1a1a" points="317.78,-120.79 328.38,-120.84 320.13,-114.19 317.78,-120.79"/>
</a>
</g>
</g>
</g>
</svg>
