<?xml version="1.0" encoding="UTF-8" standalone="no"?>
<!DOCTYPE svg PUBLIC "-//W3C//DTD SVG 1.1//EN"
 "http://www.w3.org/Graphics/SVG/1.1/DTD/svg11.dtd">
<!-- Generated by graphviz version 14.1.4 (20260321.0153)
 -->
<!-- Title: ImFusion::Dicom::SequenceItem Pages: 1 -->
<svg width="822pt" height="474pt"
 viewBox="0.00 0.00 822.00 474.00" xmlns="http://www.w3.org/2000/svg" xmlns:xlink="http://www.w3.org/1999/xlink">
<g id="graph0" class="graph" transform="scale(1 1) rotate(0) translate(4 469.5)">
<title>ImFusion::Dicom::SequenceItem</title>
<!-- Node1 -->
<g id="Node000001" class="node">
<title>Node1</title>
<g id="a_Node000001"><a xlink:title="Base class for sequence items.">
<polygon fill="#999999" stroke="#666666" points="353.75,-225.88 193.75,-225.88 193.75,-206.62 353.75,-206.62 353.75,-225.88"/>
<text xml:space="preserve" text-anchor="middle" x="273.75" y="-212.38" font-family="Helvetica,sans-Serif" font-size="10.00">ImFusion::Dicom::SequenceItem</text>
</a>
</g>
</g>
<!-- Node5 -->
<g id="Node000005" class="node">
<title>Node5</title>
<g id="a_Node000005"><a xlink:href="class_im_fusion_1_1_dicom_1_1_configurable_sequence_item.html" target="_top" xlink:title=" ">
<polygon fill="white" stroke="#bfbfbf" points="582,-465.5 430.25,-465.5 430.25,-435 582,-435 582,-465.5"/>
<text xml:space="preserve" text-anchor="start" x="438.25" y="-452" font-family="Helvetica,sans-Serif" font-size="10.00">ImFusion::Dicom::Configurable</text>
<text xml:space="preserve" text-anchor="middle" x="506.12" y="-440.75" font-family="Helvetica,sans-Serif" font-size="10.00">SequenceItem</text>
</a>
</g>
</g>
<!-- Node1&#45;&gt;Node5 -->
<g id="edge4_Node000001_Node000005" class="edge">
<title>Node1&#45;&gt;Node5</title>
<g id="a_edge4_Node000001_Node000005"><a xlink:title=" ">
<path fill="none" stroke="#63b8ff" d="M279.85,-237.07C291.45,-279.83 324.08,-377.62 389.75,-426.25 401.51,-434.96 415.69,-440.67 430.04,-444.39"/>
<polygon fill="#63b8ff" stroke="#63b8ff" points="283.28,-236.38 277.39,-227.58 276.51,-238.14 283.28,-236.38"/>
</a>
</g>
</g>
<!-- Node7 -->
<g id="Node000007" class="node">
<title>Node7</title>
<g id="a_Node000007"><a xlink:href="class_im_fusion_1_1_dicom_1_1_enhanced_multi_frame_image_i_o_d_1_1_dimension_index_sequence_item.html" target="_top" xlink:title=" ">
<polygon fill="white" stroke="#bfbfbf" points="599.25,-417.12 413,-417.12 413,-375.38 599.25,-375.38 599.25,-417.12"/>
<text xml:space="preserve" text-anchor="start" x="421" y="-403.62" font-family="Helvetica,sans-Serif" font-size="10.00">ImFusion::Dicom::Enhanced</text>
<text xml:space="preserve" text-anchor="start" x="421" y="-392.38" font-family="Helvetica,sans-Serif" font-size="10.00">MultiFrameImageIOD::DimensionIndex</text>
<text xml:space="preserve" text-anchor="middle" x="506.12" y="-381.12" font-family="Helvetica,sans-Serif" font-size="10.00">SequenceItem</text>
</a>
</g>
</g>
<!-- Node1&#45;&gt;Node7 -->
<g id="edge6_Node000001_Node000007" class="edge">
<title>Node1&#45;&gt;Node7</title>
<g id="a_edge6_Node000001_Node000007"><a xlink:title=" ">
<path fill="none" stroke="#63b8ff" d="M284.42,-236.16C301.2,-268.58 338.87,-332.51 389.75,-366.25 396.82,-370.94 404.59,-374.9 412.64,-378.24"/>
<polygon fill="#63b8ff" stroke="#63b8ff" points="287.66,-234.83 280.04,-227.47 281.41,-237.97 287.66,-234.83"/>
</a>
</g>
</g>
<!-- Node8 -->
<g id="Node000008" class="node">
<title>Node8</title>
<g id="a_Node000008"><a xlink:href="class_im_fusion_1_1_dicom_1_1_enhanced_multi_frame_image_i_o_d_1_1_functional_group_macro.html" target="_top" xlink:title="This is a simplified implementation of the function group macros.">
<polygon fill="white" stroke="#666666" points="586.5,-357.12 425.75,-357.12 425.75,-315.38 586.5,-315.38 586.5,-357.12"/>
<text xml:space="preserve" text-anchor="start" x="433.75" y="-343.62" font-family="Helvetica,sans-Serif" font-size="10.00">ImFusion::Dicom::Enhanced</text>
<text xml:space="preserve" text-anchor="start" x="433.75" y="-332.38" font-family="Helvetica,sans-Serif" font-size="10.00">MultiFrameImageIOD::Functional</text>
<text xml:space="preserve" text-anchor="middle" x="506.12" y="-321.12" font-family="Helvetica,sans-Serif" font-size="10.00">GroupMacro</text>
</a>
</g>
</g>
<!-- Node1&#45;&gt;Node8 -->
<g id="edge7_Node000001_Node000008" class="edge">
<title>Node1&#45;&gt;Node8</title>
<g id="a_edge7_Node000001_Node000008"><a xlink:title=" ">
<path fill="none" stroke="#63b8ff" d="M292.64,-234.15C313.98,-254.51 351.57,-287.37 389.75,-306.25 400.88,-311.75 413.13,-316.33 425.37,-320.1"/>
<polygon fill="#63b8ff" stroke="#63b8ff" points="295.23,-231.79 285.62,-227.32 290.35,-236.8 295.23,-231.79"/>
</a>
</g>
</g>
<!-- Node9 -->
<g id="Node000009" class="node">
<title>Node9</title>
<g id="a_Node000009"><a xlink:href="class_im_fusion_1_1_dicom_1_1_enhanced_multi_frame_image_i_o_d_1_1_functional_group_macro_1_1_frame_content_sequence_item.html" target="_top" xlink:title=" ">
<polygon fill="white" stroke="#bfbfbf" points="606.38,-297.12 405.88,-297.12 405.88,-255.38 606.38,-255.38 606.38,-297.12"/>
<text xml:space="preserve" text-anchor="start" x="413.88" y="-283.62" font-family="Helvetica,sans-Serif" font-size="10.00">ImFusion::Dicom::Enhanced</text>
<text xml:space="preserve" text-anchor="start" x="413.88" y="-272.38" font-family="Helvetica,sans-Serif" font-size="10.00">MultiFrameImageIOD::Functional</text>
<text xml:space="preserve" text-anchor="middle" x="506.12" y="-261.12" font-family="Helvetica,sans-Serif" font-size="10.00">GroupMacro::FrameContentSequenceItem</text>
</a>
</g>
</g>
<!-- Node1&#45;&gt;Node9 -->
<g id="edge8_Node000001_Node000009" class="edge">
<title>Node1&#45;&gt;Node9</title>
<g id="a_edge8_Node000001_Node000009"><a xlink:title=" ">
<path fill="none" stroke="#63b8ff" d="M324.23,-229.17C344.53,-234.47 368.27,-240.66 389.75,-246.25 400.57,-249.07 411.95,-252.03 423.19,-254.95"/>
<polygon fill="#63b8ff" stroke="#63b8ff" points="325.37,-225.85 314.81,-226.71 323.6,-232.62 325.37,-225.85"/>
</a>
</g>
</g>
<!-- Node10 -->
<g id="Node000010" class="node">
<title>Node10</title>
<g id="a_Node000010"><a xlink:href="class_im_fusion_1_1_dicom_1_1_enhanced_multi_frame_image_i_o_d_1_1_functional_group_macro_1_1_seed876a03178487ad8b108b4d4990f315.html" target="_top" xlink:title=" ">
<polygon fill="white" stroke="#bfbfbf" points="622.5,-237.12 389.75,-237.12 389.75,-195.38 622.5,-195.38 622.5,-237.12"/>
<text xml:space="preserve" text-anchor="start" x="397.75" y="-223.62" font-family="Helvetica,sans-Serif" font-size="10.00">ImFusion::Dicom::Enhanced</text>
<text xml:space="preserve" text-anchor="start" x="397.75" y="-212.38" font-family="Helvetica,sans-Serif" font-size="10.00">MultiFrameImageIOD::Functional</text>
<text xml:space="preserve" text-anchor="middle" x="506.12" y="-201.12" font-family="Helvetica,sans-Serif" font-size="10.00">GroupMacro::SegmentIdentificationSequenceItem</text>
</a>
</g>
</g>
<!-- Node1&#45;&gt;Node10 -->
<g id="edge9_Node000001_Node000010" class="edge">
<title>Node1&#45;&gt;Node10</title>
<g id="a_edge9_Node000001_Node000010"><a xlink:title=" ">
<path fill="none" stroke="#63b8ff" d="M365.46,-216.25C373.35,-216.25 381.4,-216.25 389.45,-216.25"/>
<polygon fill="#63b8ff" stroke="#63b8ff" points="365.55,-212.75 355.55,-216.25 365.55,-219.75 365.55,-212.75"/>
</a>
</g>
</g>
<!-- Node11 -->
<g id="Node000011" class="node">
<title>Node11</title>
<g id="a_Node000011"><a xlink:href="class_im_fusion_1_1_dicom_1_1_image_plane_1_1_detector_information_sequence.html" target="_top" xlink:title="C.8.4.11 NM Detector Module.">
<polygon fill="white" stroke="#666666" points="582,-177.5 430.25,-177.5 430.25,-147 582,-147 582,-177.5"/>
<text xml:space="preserve" text-anchor="start" x="438.25" y="-164" font-family="Helvetica,sans-Serif" font-size="10.00">ImFusion::Dicom::ImagePlane</text>
<text xml:space="preserve" text-anchor="middle" x="506.12" y="-152.75" font-family="Helvetica,sans-Serif" font-size="10.00">::DetectorInformationSequence</text>
</a>
</g>
</g>
<!-- Node1&#45;&gt;Node11 -->
<g id="edge10_Node000001_Node000011" class="edge">
<title>Node1&#45;&gt;Node11</title>
<g id="a_edge10_Node000001_Node000011"><a xlink:title=" ">
<path fill="none" stroke="#63b8ff" d="M322.44,-203.24C343.08,-197.75 367.54,-191.45 389.75,-186.25 402.7,-183.22 416.51,-180.18 429.91,-177.33"/>
<polygon fill="#63b8ff" stroke="#63b8ff" points="321.62,-199.83 312.87,-205.8 323.43,-206.59 321.62,-199.83"/>
</a>
</g>
</g>
<!-- Node12 -->
<g id="Node000012" class="node">
<title>Node12</title>
<g id="a_Node000012"><a xlink:href="class_im_fusion_1_1_dicom_1_1_modality_l_u_t_1_1_lut_item.html" target="_top" xlink:title=" ">
<polygon fill="white" stroke="#bfbfbf" points="573,-128.5 439.25,-128.5 439.25,-98 573,-98 573,-128.5"/>
<text xml:space="preserve" text-anchor="start" x="447.25" y="-115" font-family="Helvetica,sans-Serif" font-size="10.00">ImFusion::Dicom::Modality</text>
<text xml:space="preserve" text-anchor="middle" x="506.12" y="-103.75" font-family="Helvetica,sans-Serif" font-size="10.00">LUT::LutItem</text>
</a>
</g>
</g>
<!-- Node1&#45;&gt;Node12 -->
<g id="edge11_Node000001_Node000012" class="edge">
<title>Node1&#45;&gt;Node12</title>
<g id="a_edge11_Node000001_Node000012"><a xlink:title=" ">
<path fill="none" stroke="#63b8ff" d="M294.99,-198.94C316.91,-181.09 353.63,-153.72 389.75,-138.25 405.1,-131.67 422.38,-126.75 438.79,-123.09"/>
<polygon fill="#63b8ff" stroke="#63b8ff" points="292.89,-196.13 287.44,-205.21 297.37,-201.51 292.89,-196.13"/>
</a>
</g>
</g>
<!-- Node13 -->
<g id="Node000013" class="node">
<title>Node13</title>
<g id="a_Node000013"><a xlink:href="class_im_fusion_1_1_dicom_1_1_segment_item_1_1_segmented_property_code.html" target="_top" xlink:title=" ">
<polygon fill="white" stroke="#bfbfbf" points="581.62,-79.5 430.62,-79.5 430.62,-49 581.62,-49 581.62,-79.5"/>
<text xml:space="preserve" text-anchor="start" x="438.62" y="-66" font-family="Helvetica,sans-Serif" font-size="10.00">ImFusion::Dicom::Segment</text>
<text xml:space="preserve" text-anchor="middle" x="506.12" y="-54.75" font-family="Helvetica,sans-Serif" font-size="10.00">Item::SegmentedPropertyCode</text>
</a>
</g>
</g>
<!-- Node1&#45;&gt;Node13 -->
<g id="edge12_Node000001_Node000013" class="edge">
<title>Node1&#45;&gt;Node13</title>
<g id="a_edge12_Node000001_Node000013"><a xlink:title=" ">
<path fill="none" stroke="#63b8ff" d="M286.61,-196.82C305,-168.46 343.17,-116.18 389.75,-89.25 402.08,-82.12 416.22,-77.02 430.28,-73.37"/>
<polygon fill="#63b8ff" stroke="#63b8ff" points="283.74,-194.81 281.36,-205.14 289.66,-198.55 283.74,-194.81"/>
</a>
</g>
</g>
<!-- Node14 -->
<g id="Node000014" class="node">
<title>Node14</title>
<g id="a_Node000014"><a xlink:href="class_im_fusion_1_1_dicom_1_1_v_o_i_l_u_t_extension_1_1_v_o_i_l_u_t_1_1_lut_item.html" target="_top" xlink:title=" ">
<polygon fill="white" stroke="#bfbfbf" points="594.38,-30.5 417.88,-30.5 417.88,0 594.38,0 594.38,-30.5"/>
<text xml:space="preserve" text-anchor="start" x="425.88" y="-17" font-family="Helvetica,sans-Serif" font-size="10.00">ImFusion::Dicom::VOILUTExtension</text>
<text xml:space="preserve" text-anchor="middle" x="506.12" y="-5.75" font-family="Helvetica,sans-Serif" font-size="10.00">::VOILUT::LutItem</text>
</a>
</g>
</g>
<!-- Node1&#45;&gt;Node14 -->
<g id="edge13_Node000001_Node000014" class="edge">
<title>Node1&#45;&gt;Node14</title>
<g id="a_edge13_Node000001_Node000014"><a xlink:title=" ">
<path fill="none" stroke="#63b8ff" d="M282.05,-195.79C296.46,-158.53 332.23,-79.83 389.75,-40.25 398.19,-34.44 407.74,-29.95 417.63,-26.48"/>
<polygon fill="#63b8ff" stroke="#63b8ff" points="278.87,-194.32 278.65,-204.91 285.43,-196.76 278.87,-194.32"/>
</a>
</g>
</g>
<!-- Node2 -->
<g id="Node000002" class="node">
<title>Node2</title>
<g id="a_Node000002"><a xlink:href="class_im_fusion_1_1_dicom_1_1_element_list.html" target="_top" xlink:title="Interface for classes that consist of Elements.">
<polygon fill="white" stroke="#666666" points="153.25,-262.88 4.5,-262.88 4.5,-243.62 153.25,-243.62 153.25,-262.88"/>
<text xml:space="preserve" text-anchor="middle" x="78.88" y="-249.38" font-family="Helvetica,sans-Serif" font-size="10.00">ImFusion::Dicom::ElementList</text>
</a>
</g>
</g>
<!-- Node2&#45;&gt;Node1 -->
<g id="edge1_Node000001_Node000002" class="edge">
<title>Node2&#45;&gt;Node1</title>
<g id="a_edge1_Node000001_Node000002"><a xlink:title=" ">
<path fill="none" stroke="#63b8ff" d="M143.71,-241C168.48,-236.25 196.52,-230.87 220.11,-226.35"/>
<polygon fill="#63b8ff" stroke="#63b8ff" points="143.23,-237.53 134.07,-242.85 144.55,-244.41 143.23,-237.53"/>
</a>
</g>
</g>
<!-- Node3 -->
<g id="Node000003" class="node">
<title>Node3</title>
<g id="a_Node000003"><a xlink:href="class_im_fusion_1_1_dicom_1_1_error_recorder.html" target="_top" xlink:title="Error handling interface for the Dicom module.">
<polygon fill="white" stroke="#666666" points="157.75,-225.88 0,-225.88 0,-206.62 157.75,-206.62 157.75,-225.88"/>
<text xml:space="preserve" text-anchor="middle" x="78.88" y="-212.38" font-family="Helvetica,sans-Serif" font-size="10.00">ImFusion::Dicom::ErrorRecorder</text>
</a>
</g>
</g>
<!-- Node3&#45;&gt;Node1 -->
<g id="edge2_Node000001_Node000003" class="edge">
<title>Node3&#45;&gt;Node1</title>
<g id="a_edge2_Node000001_Node000003"><a xlink:title=" ">
<path fill="none" stroke="#63b8ff" d="M169.38,-216.25C177.44,-216.25 185.56,-216.25 193.53,-216.25"/>
<polygon fill="#63b8ff" stroke="#63b8ff" points="169.56,-212.75 159.56,-216.25 169.56,-219.75 169.56,-212.75"/>
</a>
</g>
</g>
<!-- Node4 -->
<g id="Node000004" class="node">
<title>Node4</title>
<g id="a_Node000004"><a xlink:href="class_im_fusion_1_1_utils_1_1_not_copyable.html" target="_top" xlink:title="Inherit from this class if your class should be neither copy&#45;constructible nor assignable.">
<polygon fill="white" stroke="#666666" points="151.75,-188.88 6,-188.88 6,-169.62 151.75,-169.62 151.75,-188.88"/>
<text xml:space="preserve" text-anchor="middle" x="78.88" y="-175.38" font-family="Helvetica,sans-Serif" font-size="10.00">ImFusion::Utils::NotCopyable</text>
</a>
</g>
</g>
<!-- Node4&#45;&gt;Node1 -->
<g id="edge3_Node000001_Node000004" class="edge">
<title>Node4&#45;&gt;Node1</title>
<g id="a_edge3_Node000001_Node000004"><a xlink:title=" ">
<path fill="none" stroke="#63b8ff" d="M143.71,-191.5C168.48,-196.25 196.52,-201.63 220.11,-206.15"/>
<polygon fill="#63b8ff" stroke="#63b8ff" points="144.55,-188.09 134.07,-189.65 143.23,-194.97 144.55,-188.09"/>
</a>
</g>
</g>
<!-- Node6 -->
<g id="Node000006" class="node">
<title>Node6</title>
<g id="a_Node000006"><a xlink:href="class_im_fusion_1_1_dicom_1_1_segment_item.html" target="_top" xlink:title="Element in the (0062,0002) SegmentSequence.">
<polygon fill="white" stroke="#666666" points="814,-459.88 658.5,-459.88 658.5,-440.62 814,-440.62 814,-459.88"/>
<text xml:space="preserve" text-anchor="middle" x="736.25" y="-446.38" font-family="Helvetica,sans-Serif" font-size="10.00">ImFusion::Dicom::SegmentItem</text>
</a>
</g>
</g>
<!-- Node5&#45;&gt;Node6 -->
<g id="edge5_Node000005_Node000006" class="edge">
<title>Node5&#45;&gt;Node6</title>
<g id="a_edge5_Node000005_Node000006"><a xlink:title=" ">
<path fill="none" stroke="#63b8ff" d="M593.71,-450.25C614.87,-450.25 637.36,-450.25 658.05,-450.25"/>
<polygon fill="#63b8ff" stroke="#63b8ff" points="593.97,-446.75 583.97,-450.25 593.97,-453.75 593.97,-446.75"/>
</a>
</g>
</g>
</g>
</svg>
