<?xml version="1.0" encoding="UTF-8" standalone="no"?>
<!DOCTYPE svg PUBLIC "-//W3C//DTD SVG 1.1//EN"
 "http://www.w3.org/Graphics/SVG/1.1/DTD/svg11.dtd">
<!-- Generated by graphviz version 14.1.4 (20260321.0153)
 -->
<!-- Title: ImFusion::Dicom::ElementList Pages: 1 -->
<svg width="989pt" height="806pt"
 viewBox="0.00 0.00 989.00 806.00" xmlns="http://www.w3.org/2000/svg" xmlns:xlink="http://www.w3.org/1999/xlink">
<g id="graph0" class="graph" transform="scale(1 1) rotate(0) translate(4 801.5)">
<title>ImFusion::Dicom::ElementList</title>
<!-- Node1 -->
<g id="Node000001" class="node">
<title>Node1</title>
<g id="a_Node000001"><a xlink:title="Interface for classes that consist of Elements.">
<polygon fill="#999999" stroke="#666666" points="148.75,-588.88 0,-588.88 0,-569.62 148.75,-569.62 148.75,-588.88"/>
<text xml:space="preserve" text-anchor="middle" x="74.38" y="-575.38" font-family="Helvetica,sans-Serif" font-size="10.00">ImFusion::Dicom::ElementList</text>
</a>
</g>
</g>
<!-- Node2 -->
<g id="Node000002" class="node">
<title>Node2</title>
<g id="a_Node000002"><a xlink:href="class_im_fusion_1_1_dicom_1_1_i_o_d.html" target="_top" xlink:title="Base class of a Dicom Information Object Definition (IOD).">
<polygon fill="white" stroke="#666666" points="322.25,-720.88 207.25,-720.88 207.25,-701.62 322.25,-701.62 322.25,-720.88"/>
<text xml:space="preserve" text-anchor="middle" x="264.75" y="-707.38" font-family="Helvetica,sans-Serif" font-size="10.00">ImFusion::Dicom::IOD</text>
</a>
</g>
</g>
<!-- Node1&#45;&gt;Node2 -->
<g id="edge1_Node000001_Node000002" class="edge">
<title>Node1&#45;&gt;Node2</title>
<g id="a_edge1_Node000001_Node000002"><a xlink:title=" ">
<path fill="none" stroke="#63b8ff" d="M98.92,-595.75C138.49,-623.48 217.15,-678.6 249.43,-701.21"/>
<polygon fill="#63b8ff" stroke="#63b8ff" points="100.97,-592.91 90.77,-590.04 96.95,-598.65 100.97,-592.91"/>
</a>
</g>
</g>
<!-- Node10 -->
<g id="Node000010" class="node">
<title>Node10</title>
<g id="a_Node000010"><a xlink:href="class_im_fusion_1_1_dicom_1_1_module.html" target="_top" xlink:title="Base class for Dicom Modules.">
<polygon fill="white" stroke="#666666" points="329,-588.88 200.5,-588.88 200.5,-569.62 329,-569.62 329,-588.88"/>
<text xml:space="preserve" text-anchor="middle" x="264.75" y="-575.38" font-family="Helvetica,sans-Serif" font-size="10.00">ImFusion::Dicom::Module</text>
</a>
</g>
</g>
<!-- Node1&#45;&gt;Node10 -->
<g id="edge9_Node000001_Node000010" class="edge">
<title>Node1&#45;&gt;Node10</title>
<g id="a_edge9_Node000001_Node000010"><a xlink:title=" ">
<path fill="none" stroke="#63b8ff" d="M160.23,-579.25C173.68,-579.25 187.39,-579.25 200.24,-579.25"/>
<polygon fill="#63b8ff" stroke="#63b8ff" points="160.53,-575.75 150.53,-579.25 160.53,-582.75 160.53,-575.75"/>
</a>
</g>
</g>
<!-- Node16 -->
<g id="Node000016" class="node">
<title>Node16</title>
<g id="a_Node000016"><a xlink:href="class_im_fusion_1_1_dicom_1_1_sequence_item.html" target="_top" xlink:title="Base class for sequence items.">
<polygon fill="white" stroke="#666666" points="344.75,-255.88 184.75,-255.88 184.75,-236.62 344.75,-236.62 344.75,-255.88"/>
<text xml:space="preserve" text-anchor="middle" x="264.75" y="-242.38" font-family="Helvetica,sans-Serif" font-size="10.00">ImFusion::Dicom::SequenceItem</text>
</a>
</g>
</g>
<!-- Node1&#45;&gt;Node16 -->
<g id="edge15_Node000001_Node000016" class="edge">
<title>Node1&#45;&gt;Node16</title>
<g id="a_edge15_Node000001_Node000016"><a xlink:title=" ">
<path fill="none" stroke="#63b8ff" d="M86.6,-559.42C122.23,-496.42 232.02,-302.34 258.13,-256.18"/>
<polygon fill="#63b8ff" stroke="#63b8ff" points="83.64,-557.54 81.76,-567.97 89.73,-560.99 83.64,-557.54"/>
</a>
</g>
</g>
<!-- Node3 -->
<g id="Node000003" class="node">
<title>Node3</title>
<g id="a_Node000003"><a xlink:href="class_im_fusion_1_1_dicom_1_1_enhanced_multi_frame_image_i_o_d.html" target="_top" xlink:title="Class representing Enhanced CT Image IOD (PS 3.3 A.38).">
<polygon fill="white" stroke="#666666" points="567.38,-797.5 426.88,-797.5 426.88,-767 567.38,-767 567.38,-797.5"/>
<text xml:space="preserve" text-anchor="start" x="434.88" y="-784" font-family="Helvetica,sans-Serif" font-size="10.00">ImFusion::Dicom::Enhanced</text>
<text xml:space="preserve" text-anchor="middle" x="497.12" y="-772.75" font-family="Helvetica,sans-Serif" font-size="10.00">MultiFrameImageIOD</text>
</a>
</g>
</g>
<!-- Node2&#45;&gt;Node3 -->
<g id="edge2_Node000002_Node000003" class="edge">
<title>Node2&#45;&gt;Node3</title>
<g id="a_edge2_Node000002_Node000003"><a xlink:title=" ">
<path fill="none" stroke="#63b8ff" d="M298.26,-725.95C321.01,-735.81 352.3,-748.54 380.75,-757.25 395.35,-761.72 411.22,-765.7 426.39,-769.11"/>
<polygon fill="#63b8ff" stroke="#63b8ff" points="299.78,-722.79 289.22,-721.98 296.96,-729.2 299.78,-722.79"/>
</a>
</g>
</g>
<!-- Node5 -->
<g id="Node000005" class="node">
<title>Node5</title>
<g id="a_Node000005"><a xlink:href="class_im_fusion_1_1_dicom_1_1_multi_frame_image_i_o_d.html" target="_top" xlink:title="Base IOD for classic DICOM files.">
<polygon fill="white" stroke="#666666" points="570,-748.5 424.25,-748.5 424.25,-718 570,-718 570,-748.5"/>
<text xml:space="preserve" text-anchor="start" x="432.25" y="-735" font-family="Helvetica,sans-Serif" font-size="10.00">ImFusion::Dicom::MultiFrame</text>
<text xml:space="preserve" text-anchor="middle" x="497.12" y="-723.75" font-family="Helvetica,sans-Serif" font-size="10.00">ImageIOD</text>
</a>
</g>
</g>
<!-- Node2&#45;&gt;Node5 -->
<g id="edge4_Node000002_Node000005" class="edge">
<title>Node2&#45;&gt;Node5</title>
<g id="a_edge4_Node000002_Node000005"><a xlink:title=" ">
<path fill="none" stroke="#63b8ff" d="M334.14,-717.78C362.49,-720.49 395.41,-723.63 424.14,-726.38"/>
<polygon fill="#63b8ff" stroke="#63b8ff" points="334.49,-714.3 324.2,-716.83 333.83,-721.27 334.49,-714.3"/>
</a>
</g>
</g>
<!-- Node9 -->
<g id="Node000009" class="node">
<title>Node9</title>
<g id="a_Node000009"><a xlink:href="class_im_fusion_1_1_philips_q_lab_i_o_d.html" target="_top" xlink:title="Loads ultrasound volume stored by Philips QLab software.">
<polygon fill="white" stroke="#666666" points="563.62,-699.88 430.62,-699.88 430.62,-680.62 563.62,-680.62 563.62,-699.88"/>
<text xml:space="preserve" text-anchor="middle" x="497.12" y="-686.38" font-family="Helvetica,sans-Serif" font-size="10.00">ImFusion::PhilipsQLabIOD</text>
</a>
</g>
</g>
<!-- Node2&#45;&gt;Node9 -->
<g id="edge8_Node000002_Node000009" class="edge">
<title>Node2&#45;&gt;Node9</title>
<g id="a_edge8_Node000002_Node000009"><a xlink:title=" ">
<path fill="none" stroke="#63b8ff" d="M334.09,-705.02C364.56,-702.24 400.31,-698.98 430.46,-696.24"/>
<polygon fill="#63b8ff" stroke="#63b8ff" points="333.84,-701.53 324.2,-705.92 334.48,-708.5 333.84,-701.53"/>
</a>
</g>
</g>
<!-- Node4 -->
<g id="Node000004" class="node">
<title>Node4</title>
<g id="a_Node000004"><a xlink:href="class_im_fusion_1_1_dicom_1_1_segmentation_storage_i_o_d.html" target="_top" xlink:title="Class representing Segmentation IOD.">
<polygon fill="white" stroke="#666666" points="806.5,-797.5 649.5,-797.5 649.5,-767 806.5,-767 806.5,-797.5"/>
<text xml:space="preserve" text-anchor="start" x="657.5" y="-784" font-family="Helvetica,sans-Serif" font-size="10.00">ImFusion::Dicom::Segmentation</text>
<text xml:space="preserve" text-anchor="middle" x="728" y="-772.75" font-family="Helvetica,sans-Serif" font-size="10.00">StorageIOD</text>
</a>
</g>
</g>
<!-- Node3&#45;&gt;Node4 -->
<g id="edge3_Node000003_Node000004" class="edge">
<title>Node3&#45;&gt;Node4</title>
<g id="a_edge3_Node000003_Node000004"><a xlink:title=" ">
<path fill="none" stroke="#63b8ff" d="M579.11,-782.25C601.94,-782.25 626.71,-782.25 649.34,-782.25"/>
<polygon fill="#63b8ff" stroke="#63b8ff" points="579.24,-778.75 569.24,-782.25 579.24,-785.75 579.24,-778.75"/>
</a>
</g>
</g>
<!-- Node6 -->
<g id="Node000006" class="node">
<title>Node6</title>
<g id="a_Node000006"><a xlink:href="class_im_fusion_1_1_dicom_1_1_volumetric_image_i_o_d.html" target="_top" xlink:title="The VolumetricImageIOD is a generic IOD for volumetric data that is stored slice by slice.">
<polygon fill="white" stroke="#666666" points="799.75,-748.5 656.25,-748.5 656.25,-718 799.75,-718 799.75,-748.5"/>
<text xml:space="preserve" text-anchor="start" x="664.25" y="-735" font-family="Helvetica,sans-Serif" font-size="10.00">ImFusion::Dicom::Volumetric</text>
<text xml:space="preserve" text-anchor="middle" x="728" y="-723.75" font-family="Helvetica,sans-Serif" font-size="10.00">ImageIOD</text>
</a>
</g>
</g>
<!-- Node5&#45;&gt;Node6 -->
<g id="edge5_Node000005_Node000006" class="edge">
<title>Node5&#45;&gt;Node6</title>
<g id="a_edge5_Node000005_Node000006"><a xlink:title=" ">
<path fill="none" stroke="#63b8ff" d="M581.65,-733.25C606.06,-733.25 632.49,-733.25 656.04,-733.25"/>
<polygon fill="#63b8ff" stroke="#63b8ff" points="581.74,-729.75 571.74,-733.25 581.74,-736.75 581.74,-729.75"/>
</a>
</g>
</g>
<!-- Node7 -->
<g id="Node000007" class="node">
<title>Node7</title>
<g id="a_Node000007"><a xlink:href="class_im_fusion_1_1_dicom_1_1_dicom_ge_signa_excite_i_o_d.html" target="_top" xlink:title="Extra IOD specialization for basic support of loading 4D MRI sequences created by GE Signa Excite dev...">
<polygon fill="white" stroke="#666666" points="980.75,-772.5 842.5,-772.5 842.5,-742 980.75,-742 980.75,-772.5"/>
<text xml:space="preserve" text-anchor="start" x="850.5" y="-759" font-family="Helvetica,sans-Serif" font-size="10.00">ImFusion::Dicom::DicomGe</text>
<text xml:space="preserve" text-anchor="middle" x="911.62" y="-747.75" font-family="Helvetica,sans-Serif" font-size="10.00">SignaExciteIOD</text>
</a>
</g>
</g>
<!-- Node6&#45;&gt;Node7 -->
<g id="edge6_Node000006_Node000007" class="edge">
<title>Node6&#45;&gt;Node7</title>
<g id="a_edge6_Node000006_Node000007"><a xlink:title=" ">
<path fill="none" stroke="#63b8ff" d="M811.13,-744.1C821.47,-745.47 831.96,-746.85 842.05,-748.19"/>
<polygon fill="#63b8ff" stroke="#63b8ff" points="811.87,-740.67 801.5,-742.83 810.96,-747.61 811.87,-740.67"/>
</a>
</g>
</g>
<!-- Node8 -->
<g id="Node000008" class="node">
<title>Node8</title>
<g id="a_Node000008"><a xlink:href="class_im_fusion_1_1_nuclear_medicine_image_i_o_d.html" target="_top" xlink:title="PS 3.3 A.5 Nuclear Medicine Image IOD Does not support saving yet.">
<polygon fill="white" stroke="#666666" points="979.25,-723.5 844,-723.5 844,-693 979.25,-693 979.25,-723.5"/>
<text xml:space="preserve" text-anchor="start" x="852" y="-710" font-family="Helvetica,sans-Serif" font-size="10.00">ImFusion::NuclearMedicine</text>
<text xml:space="preserve" text-anchor="middle" x="911.62" y="-698.75" font-family="Helvetica,sans-Serif" font-size="10.00">ImageIOD</text>
</a>
</g>
</g>
<!-- Node6&#45;&gt;Node8 -->
<g id="edge7_Node000006_Node000008" class="edge">
<title>Node6&#45;&gt;Node8</title>
<g id="a_edge7_Node000006_Node000008"><a xlink:title=" ">
<path fill="none" stroke="#63b8ff" d="M811.19,-721.94C822.02,-720.45 833,-718.93 843.53,-717.48"/>
<polygon fill="#63b8ff" stroke="#63b8ff" points="810.93,-718.44 801.5,-723.27 811.88,-725.37 810.93,-718.44"/>
</a>
</g>
</g>
<!-- Node11 -->
<g id="Node000011" class="node">
<title>Node11</title>
<g id="a_Node000011"><a xlink:href="class_im_fusion_1_1_dicom_1_1_common_module.html" target="_top" xlink:title="Collection of the essential tags describing a Dicom data set combining.">
<polygon fill="white" stroke="#666666" points="581.25,-662.88 413,-662.88 413,-643.62 581.25,-643.62 581.25,-662.88"/>
<text xml:space="preserve" text-anchor="middle" x="497.12" y="-649.38" font-family="Helvetica,sans-Serif" font-size="10.00">ImFusion::Dicom::CommonModule</text>
</a>
</g>
</g>
<!-- Node10&#45;&gt;Node11 -->
<g id="edge10_Node000010_Node000011" class="edge">
<title>Node10&#45;&gt;Node11</title>
<g id="a_edge10_Node000010_Node000011"><a xlink:title=" ">
<path fill="none" stroke="#63b8ff" d="M292.13,-594.92C314.85,-607.72 348.92,-625.27 380.75,-635.25 390.91,-638.44 401.75,-641.07 412.57,-643.25"/>
<polygon fill="#63b8ff" stroke="#63b8ff" points="293.97,-591.94 283.55,-590 290.48,-598.01 293.97,-591.94"/>
</a>
</g>
</g>
<!-- Node12 -->
<g id="Node000012" class="node">
<title>Node12</title>
<g id="a_Node000012"><a xlink:href="class_im_fusion_1_1_dicom_1_1_image_pixel.html" target="_top" xlink:title="Image Pixel Module (PS 3.3 C.7.6.3).">
<polygon fill="white" stroke="#666666" points="570,-625.88 424.25,-625.88 424.25,-606.62 570,-606.62 570,-625.88"/>
<text xml:space="preserve" text-anchor="middle" x="497.12" y="-612.38" font-family="Helvetica,sans-Serif" font-size="10.00">ImFusion::Dicom::ImagePixel</text>
</a>
</g>
</g>
<!-- Node10&#45;&gt;Node12 -->
<g id="edge11_Node000010_Node000012" class="edge">
<title>Node10&#45;&gt;Node12</title>
<g id="a_edge11_Node000010_Node000012"><a xlink:title=" ">
<path fill="none" stroke="#63b8ff" d="M337.61,-591.22C351.9,-593.58 366.8,-596.01 380.75,-598.25 396.96,-600.85 414.47,-603.61 430.82,-606.17"/>
<polygon fill="#63b8ff" stroke="#63b8ff" points="338.24,-587.78 327.81,-589.61 337.1,-594.69 338.24,-587.78"/>
</a>
</g>
</g>
<!-- Node13 -->
<g id="Node000013" class="node">
<title>Node13</title>
<g id="a_Node000013"><a xlink:href="class_im_fusion_1_1_dicom_1_1_image_plane.html" target="_top" xlink:title="Image Plane Module (PS 3.3 C.7.6.2).">
<polygon fill="white" stroke="#666666" points="571.5,-588.88 422.75,-588.88 422.75,-569.62 571.5,-569.62 571.5,-588.88"/>
<text xml:space="preserve" text-anchor="middle" x="497.12" y="-575.38" font-family="Helvetica,sans-Serif" font-size="10.00">ImFusion::Dicom::ImagePlane</text>
</a>
</g>
</g>
<!-- Node10&#45;&gt;Node13 -->
<g id="edge12_Node000010_Node000013" class="edge">
<title>Node10&#45;&gt;Node13</title>
<g id="a_edge12_Node000010_Node000013"><a xlink:title=" ">
<path fill="none" stroke="#63b8ff" d="M340.74,-579.25C367,-579.25 396.45,-579.25 422.59,-579.25"/>
<polygon fill="#63b8ff" stroke="#63b8ff" points="340.82,-575.75 330.82,-579.25 340.82,-582.75 340.82,-575.75"/>
</a>
</g>
</g>
<!-- Node14 -->
<g id="Node000014" class="node">
<title>Node14</title>
<g id="a_Node000014"><a xlink:href="class_im_fusion_1_1_dicom_1_1_modality_l_u_t.html" target="_top" xlink:title="Modality LUT Module (PS 3.3 C.11.1).">
<polygon fill="white" stroke="#666666" points="573.38,-551.88 420.88,-551.88 420.88,-532.62 573.38,-532.62 573.38,-551.88"/>
<text xml:space="preserve" text-anchor="middle" x="497.12" y="-538.38" font-family="Helvetica,sans-Serif" font-size="10.00">ImFusion::Dicom::ModalityLUT</text>
</a>
</g>
</g>
<!-- Node10&#45;&gt;Node14 -->
<g id="edge13_Node000010_Node000014" class="edge">
<title>Node10&#45;&gt;Node14</title>
<g id="a_edge13_Node000010_Node000014"><a xlink:title=" ">
<path fill="none" stroke="#63b8ff" d="M337.61,-567.28C351.9,-564.92 366.8,-562.49 380.75,-560.25 396.96,-557.65 414.47,-554.89 430.82,-552.33"/>
<polygon fill="#63b8ff" stroke="#63b8ff" points="337.1,-563.81 327.81,-568.89 338.24,-570.72 337.1,-563.81"/>
</a>
</g>
</g>
<!-- Node15 -->
<g id="Node000015" class="node">
<title>Node15</title>
<g id="a_Node000015"><a xlink:href="class_im_fusion_1_1_dicom_1_1_pixel_spacing_calibration.html" target="_top" xlink:title="Basic Pixel Spacing Calibration Macro (PS 3.3 Table 10.7) Pixel Measures Macro (PS 3....">
<polygon fill="white" stroke="#666666" points="574.12,-514.5 420.12,-514.5 420.12,-484 574.12,-484 574.12,-514.5"/>
<text xml:space="preserve" text-anchor="start" x="428.12" y="-501" font-family="Helvetica,sans-Serif" font-size="10.00">ImFusion::Dicom::PixelSpacing</text>
<text xml:space="preserve" text-anchor="middle" x="497.12" y="-489.75" font-family="Helvetica,sans-Serif" font-size="10.00">Calibration</text>
</a>
</g>
</g>
<!-- Node10&#45;&gt;Node15 -->
<g id="edge14_Node000010_Node000015" class="edge">
<title>Node10&#45;&gt;Node15</title>
<g id="a_edge14_Node000010_Node000015"><a xlink:title=" ">
<path fill="none" stroke="#63b8ff" d="M292.66,-563.77C315.46,-551.24 349.37,-533.97 380.75,-523.25 393.14,-519.02 406.55,-515.4 419.69,-512.36"/>
<polygon fill="#63b8ff" stroke="#63b8ff" points="291.06,-560.65 284.03,-568.59 294.47,-566.77 291.06,-560.65"/>
</a>
</g>
</g>
<!-- Node17 -->
<g id="Node000017" class="node">
<title>Node17</title>
<g id="a_Node000017"><a xlink:href="class_im_fusion_1_1_dicom_1_1_configurable_sequence_item.html" target="_top" xlink:title=" ">
<polygon fill="white" stroke="#bfbfbf" points="573,-465.5 421.25,-465.5 421.25,-435 573,-435 573,-465.5"/>
<text xml:space="preserve" text-anchor="start" x="429.25" y="-452" font-family="Helvetica,sans-Serif" font-size="10.00">ImFusion::Dicom::Configurable</text>
<text xml:space="preserve" text-anchor="middle" x="497.12" y="-440.75" font-family="Helvetica,sans-Serif" font-size="10.00">SequenceItem</text>
</a>
</g>
</g>
<!-- Node16&#45;&gt;Node17 -->
<g id="edge16_Node000016_Node000017" class="edge">
<title>Node16&#45;&gt;Node17</title>
<g id="a_edge16_Node000016_Node000017"><a xlink:title=" ">
<path fill="none" stroke="#63b8ff" d="M272.68,-266.68C286.68,-304.62 322.07,-385.79 380.75,-426.25 392.62,-434.44 406.71,-439.94 420.88,-443.61"/>
<polygon fill="#63b8ff" stroke="#63b8ff" points="276.04,-265.66 269.4,-257.41 269.44,-268.01 276.04,-265.66"/>
</a>
</g>
</g>
<!-- Node19 -->
<g id="Node000019" class="node">
<title>Node19</title>
<g id="a_Node000019"><a xlink:href="class_im_fusion_1_1_dicom_1_1_enhanced_multi_frame_image_i_o_d_1_1_dimension_index_sequence_item.html" target="_top" xlink:title=" ">
<polygon fill="white" stroke="#bfbfbf" points="590.25,-417.12 404,-417.12 404,-375.38 590.25,-375.38 590.25,-417.12"/>
<text xml:space="preserve" text-anchor="start" x="412" y="-403.62" font-family="Helvetica,sans-Serif" font-size="10.00">ImFusion::Dicom::Enhanced</text>
<text xml:space="preserve" text-anchor="start" x="412" y="-392.38" font-family="Helvetica,sans-Serif" font-size="10.00">MultiFrameImageIOD::DimensionIndex</text>
<text xml:space="preserve" text-anchor="middle" x="497.12" y="-381.12" font-family="Helvetica,sans-Serif" font-size="10.00">SequenceItem</text>
</a>
</g>
</g>
<!-- Node16&#45;&gt;Node19 -->
<g id="edge18_Node000016_Node000019" class="edge">
<title>Node16&#45;&gt;Node19</title>
<g id="a_edge18_Node000016_Node000019"><a xlink:title=" ">
<path fill="none" stroke="#63b8ff" d="M278.83,-265.5C298.01,-292.22 336.37,-340.21 380.75,-366.25 387.89,-370.44 395.62,-374.05 403.57,-377.16"/>
<polygon fill="#63b8ff" stroke="#63b8ff" points="281.7,-263.5 273.1,-257.32 275.97,-267.52 281.7,-263.5"/>
</a>
</g>
</g>
<!-- Node20 -->
<g id="Node000020" class="node">
<title>Node20</title>
<g id="a_Node000020"><a xlink:href="class_im_fusion_1_1_dicom_1_1_enhanced_multi_frame_image_i_o_d_1_1_functional_group_macro.html" target="_top" xlink:title="This is a simplified implementation of the function group macros.">
<polygon fill="white" stroke="#666666" points="577.5,-357.12 416.75,-357.12 416.75,-315.38 577.5,-315.38 577.5,-357.12"/>
<text xml:space="preserve" text-anchor="start" x="424.75" y="-343.62" font-family="Helvetica,sans-Serif" font-size="10.00">ImFusion::Dicom::Enhanced</text>
<text xml:space="preserve" text-anchor="start" x="424.75" y="-332.38" font-family="Helvetica,sans-Serif" font-size="10.00">MultiFrameImageIOD::Functional</text>
<text xml:space="preserve" text-anchor="middle" x="497.12" y="-321.12" font-family="Helvetica,sans-Serif" font-size="10.00">GroupMacro</text>
</a>
</g>
</g>
<!-- Node16&#45;&gt;Node20 -->
<g id="edge19_Node000016_Node000020" class="edge">
<title>Node16&#45;&gt;Node20</title>
<g id="a_edge19_Node000016_Node000020"><a xlink:title=" ">
<path fill="none" stroke="#63b8ff" d="M291.87,-262.06C314.68,-275.33 349,-294.02 380.75,-306.25 392.14,-310.64 404.42,-314.6 416.55,-318.09"/>
<polygon fill="#63b8ff" stroke="#63b8ff" points="293.65,-259.05 283.26,-256.98 290.1,-265.08 293.65,-259.05"/>
</a>
</g>
</g>
<!-- Node21 -->
<g id="Node000021" class="node">
<title>Node21</title>
<g id="a_Node000021"><a xlink:href="class_im_fusion_1_1_dicom_1_1_enhanced_multi_frame_image_i_o_d_1_1_functional_group_macro_1_1_frame_content_sequence_item.html" target="_top" xlink:title=" ">
<polygon fill="white" stroke="#bfbfbf" points="597.38,-297.12 396.88,-297.12 396.88,-255.38 597.38,-255.38 597.38,-297.12"/>
<text xml:space="preserve" text-anchor="start" x="404.88" y="-283.62" font-family="Helvetica,sans-Serif" font-size="10.00">ImFusion::Dicom::Enhanced</text>
<text xml:space="preserve" text-anchor="start" x="404.88" y="-272.38" font-family="Helvetica,sans-Serif" font-size="10.00">MultiFrameImageIOD::Functional</text>
<text xml:space="preserve" text-anchor="middle" x="497.12" y="-261.12" font-family="Helvetica,sans-Serif" font-size="10.00">GroupMacro::FrameContentSequenceItem</text>
</a>
</g>
</g>
<!-- Node16&#45;&gt;Node21 -->
<g id="edge20_Node000016_Node000021" class="edge">
<title>Node16&#45;&gt;Node21</title>
<g id="a_edge20_Node000016_Node000021"><a xlink:title=" ">
<path fill="none" stroke="#63b8ff" d="M354.81,-257.85C368.54,-259.64 382.79,-261.49 396.72,-263.31"/>
<polygon fill="#63b8ff" stroke="#63b8ff" points="355.29,-254.38 344.92,-256.56 354.39,-261.32 355.29,-254.38"/>
</a>
</g>
</g>
<!-- Node22 -->
<g id="Node000022" class="node">
<title>Node22</title>
<g id="a_Node000022"><a xlink:href="class_im_fusion_1_1_dicom_1_1_enhanced_multi_frame_image_i_o_d_1_1_functional_group_macro_1_1_seed876a03178487ad8b108b4d4990f315.html" target="_top" xlink:title=" ">
<polygon fill="white" stroke="#bfbfbf" points="613.5,-237.12 380.75,-237.12 380.75,-195.38 613.5,-195.38 613.5,-237.12"/>
<text xml:space="preserve" text-anchor="start" x="388.75" y="-223.62" font-family="Helvetica,sans-Serif" font-size="10.00">ImFusion::Dicom::Enhanced</text>
<text xml:space="preserve" text-anchor="start" x="388.75" y="-212.38" font-family="Helvetica,sans-Serif" font-size="10.00">MultiFrameImageIOD::Functional</text>
<text xml:space="preserve" text-anchor="middle" x="497.12" y="-201.12" font-family="Helvetica,sans-Serif" font-size="10.00">GroupMacro::SegmentIdentificationSequenceItem</text>
</a>
</g>
</g>
<!-- Node16&#45;&gt;Node22 -->
<g id="edge21_Node000016_Node000022" class="edge">
<title>Node16&#45;&gt;Node22</title>
<g id="a_edge21_Node000016_Node000022"><a xlink:title=" ">
<path fill="none" stroke="#63b8ff" d="M354.72,-234.66C363.11,-233.57 371.7,-232.45 380.29,-231.33"/>
<polygon fill="#63b8ff" stroke="#63b8ff" points="354.39,-231.18 344.92,-235.94 355.29,-238.12 354.39,-231.18"/>
</a>
</g>
</g>
<!-- Node23 -->
<g id="Node000023" class="node">
<title>Node23</title>
<g id="a_Node000023"><a xlink:href="class_im_fusion_1_1_dicom_1_1_image_plane_1_1_detector_information_sequence.html" target="_top" xlink:title="C.8.4.11 NM Detector Module.">
<polygon fill="white" stroke="#666666" points="573,-177.5 421.25,-177.5 421.25,-147 573,-147 573,-177.5"/>
<text xml:space="preserve" text-anchor="start" x="429.25" y="-164" font-family="Helvetica,sans-Serif" font-size="10.00">ImFusion::Dicom::ImagePlane</text>
<text xml:space="preserve" text-anchor="middle" x="497.12" y="-152.75" font-family="Helvetica,sans-Serif" font-size="10.00">::DetectorInformationSequence</text>
</a>
</g>
</g>
<!-- Node16&#45;&gt;Node23 -->
<g id="edge22_Node000016_Node000023" class="edge">
<title>Node16&#45;&gt;Node23</title>
<g id="a_edge22_Node000016_Node000023"><a xlink:title=" ">
<path fill="none" stroke="#63b8ff" d="M291.03,-230.45C313.73,-216.91 348.38,-197.81 380.75,-186.25 393.47,-181.71 407.29,-177.91 420.82,-174.78"/>
<polygon fill="#63b8ff" stroke="#63b8ff" points="289.52,-227.28 282.78,-235.45 293.15,-233.26 289.52,-227.28"/>
</a>
</g>
</g>
<!-- Node24 -->
<g id="Node000024" class="node">
<title>Node24</title>
<g id="a_Node000024"><a xlink:href="class_im_fusion_1_1_dicom_1_1_modality_l_u_t_1_1_lut_item.html" target="_top" xlink:title=" ">
<polygon fill="white" stroke="#bfbfbf" points="564,-128.5 430.25,-128.5 430.25,-98 564,-98 564,-128.5"/>
<text xml:space="preserve" text-anchor="start" x="438.25" y="-115" font-family="Helvetica,sans-Serif" font-size="10.00">ImFusion::Dicom::Modality</text>
<text xml:space="preserve" text-anchor="middle" x="497.12" y="-103.75" font-family="Helvetica,sans-Serif" font-size="10.00">LUT::LutItem</text>
</a>
</g>
</g>
<!-- Node16&#45;&gt;Node24 -->
<g id="edge23_Node000016_Node000024" class="edge">
<title>Node16&#45;&gt;Node24</title>
<g id="a_edge23_Node000016_Node000024"><a xlink:title=" ">
<path fill="none" stroke="#63b8ff" d="M280.03,-227.64C299.86,-203.15 338.15,-160.63 380.75,-138.25 395.81,-130.34 413.23,-124.93 429.9,-121.23"/>
<polygon fill="#63b8ff" stroke="#63b8ff" points="277.54,-225.14 274.08,-235.15 283.03,-229.49 277.54,-225.14"/>
</a>
</g>
</g>
<!-- Node25 -->
<g id="Node000025" class="node">
<title>Node25</title>
<g id="a_Node000025"><a xlink:href="class_im_fusion_1_1_dicom_1_1_segment_item_1_1_segmented_property_code.html" target="_top" xlink:title=" ">
<polygon fill="white" stroke="#bfbfbf" points="572.62,-79.5 421.62,-79.5 421.62,-49 572.62,-49 572.62,-79.5"/>
<text xml:space="preserve" text-anchor="start" x="429.62" y="-66" font-family="Helvetica,sans-Serif" font-size="10.00">ImFusion::Dicom::Segment</text>
<text xml:space="preserve" text-anchor="middle" x="497.12" y="-54.75" font-family="Helvetica,sans-Serif" font-size="10.00">Item::SegmentedPropertyCode</text>
</a>
</g>
</g>
<!-- Node16&#45;&gt;Node25 -->
<g id="edge24_Node000016_Node000025" class="edge">
<title>Node16&#45;&gt;Node25</title>
<g id="a_edge24_Node000016_Node000025"><a xlink:title=" ">
<path fill="none" stroke="#63b8ff" d="M274.56,-226.1C290.52,-192.14 327.54,-123.81 380.75,-89.25 392.87,-81.38 407.06,-75.95 421.27,-72.21"/>
<polygon fill="#63b8ff" stroke="#63b8ff" points="271.55,-224.28 270.59,-234.83 277.92,-227.18 271.55,-224.28"/>
</a>
</g>
</g>
<!-- Node26 -->
<g id="Node000026" class="node">
<title>Node26</title>
<g id="a_Node000026"><a xlink:href="class_im_fusion_1_1_dicom_1_1_v_o_i_l_u_t_extension_1_1_v_o_i_l_u_t_1_1_lut_item.html" target="_top" xlink:title=" ">
<polygon fill="white" stroke="#bfbfbf" points="585.38,-30.5 408.88,-30.5 408.88,0 585.38,0 585.38,-30.5"/>
<text xml:space="preserve" text-anchor="start" x="416.88" y="-17" font-family="Helvetica,sans-Serif" font-size="10.00">ImFusion::Dicom::VOILUTExtension</text>
<text xml:space="preserve" text-anchor="middle" x="497.12" y="-5.75" font-family="Helvetica,sans-Serif" font-size="10.00">::VOILUT::LutItem</text>
</a>
</g>
</g>
<!-- Node16&#45;&gt;Node26 -->
<g id="edge25_Node000016_Node000026" class="edge">
<title>Node16&#45;&gt;Node26</title>
<g id="a_edge25_Node000016_Node000026"><a xlink:title=" ">
<path fill="none" stroke="#63b8ff" d="M271.08,-225.59C283.04,-183.57 316.18,-88.07 380.75,-40.25 389.07,-34.09 398.59,-29.39 408.53,-25.81"/>
<polygon fill="#63b8ff" stroke="#63b8ff" points="267.73,-224.56 268.49,-235.13 274.49,-226.4 267.73,-224.56"/>
</a>
</g>
</g>
<!-- Node18 -->
<g id="Node000018" class="node">
<title>Node18</title>
<g id="a_Node000018"><a xlink:href="class_im_fusion_1_1_dicom_1_1_segment_item.html" target="_top" xlink:title="Element in the (0062,0002) SegmentSequence.">
<polygon fill="white" stroke="#666666" points="805.75,-459.88 650.25,-459.88 650.25,-440.62 805.75,-440.62 805.75,-459.88"/>
<text xml:space="preserve" text-anchor="middle" x="728" y="-446.38" font-family="Helvetica,sans-Serif" font-size="10.00">ImFusion::Dicom::SegmentItem</text>
</a>
</g>
</g>
<!-- Node17&#45;&gt;Node18 -->
<g id="edge17_Node000017_Node000018" class="edge">
<title>Node17&#45;&gt;Node18</title>
<g id="a_edge17_Node000017_Node000018"><a xlink:title=" ">
<path fill="none" stroke="#63b8ff" d="M584.81,-450.25C606.29,-450.25 629.16,-450.25 650.13,-450.25"/>
<polygon fill="#63b8ff" stroke="#63b8ff" points="584.9,-446.75 574.9,-450.25 584.9,-453.75 584.9,-446.75"/>
</a>
</g>
</g>
</g>
</svg>
