<?xml version="1.0" encoding="UTF-8" standalone="no"?>
<!DOCTYPE svg PUBLIC "-//W3C//DTD SVG 1.1//EN"
 "http://www.w3.org/Graphics/SVG/1.1/DTD/svg11.dtd">
<!-- Generated by graphviz version 14.1.4 (20260321.0153)
 -->
<!-- Title: ImFusion::DatasetLicenseEditor Pages: 1 -->
<svg width="155pt" height="160pt"
 viewBox="0.00 0.00 155.00 160.00" xmlns="http://www.w3.org/2000/svg" xmlns:xlink="http://www.w3.org/1999/xlink">
<g id="graph0" class="graph" transform="scale(1 1) rotate(0) translate(4 156.25)">
<title>ImFusion::DatasetLicenseEditor</title>
<!-- Node1 -->
<g id="Node000001" class="node">
<title>Node1</title>
<g id="a_Node000001"><a xlink:title=" ">
<polygon fill="#999999" stroke="#666666" points="138.62,-30.5 7.88,-30.5 7.88,0 138.62,0 138.62,-30.5"/>
<text xml:space="preserve" text-anchor="start" x="15.88" y="-17" font-family="Helvetica,sans-Serif" font-size="10.00">ImFusion::DatasetLicense</text>
<text xml:space="preserve" text-anchor="middle" x="73.25" y="-5.75" font-family="Helvetica,sans-Serif" font-size="10.00">Editor</text>
</a>
</g>
</g>
<!-- Node2 -->
<g id="Node000002" class="node">
<title>Node2</title>
<g id="a_Node000002"><a xlink:href="class_im_fusion_1_1_framed_widget_with_buttons.html" target="_top" xlink:title=" ">
<polygon fill="white" stroke="#bfbfbf" points="146.5,-97 0,-97 0,-66.5 146.5,-66.5 146.5,-97"/>
<text xml:space="preserve" text-anchor="start" x="8" y="-83.5" font-family="Helvetica,sans-Serif" font-size="10.00">ImFusion::FramedWidgetWith</text>
<text xml:space="preserve" text-anchor="middle" x="73.25" y="-72.25" font-family="Helvetica,sans-Serif" font-size="10.00">Buttons</text>
</a>
</g>
</g>
<!-- Node2&#45;&gt;Node1 -->
<g id="edge1_Node000001_Node000002" class="edge">
<title>Node2&#45;&gt;Node1</title>
<g id="a_edge1_Node000001_Node000002"><a xlink:title=" ">
<path fill="none" stroke="#63b8ff" d="M73.25,-54.81C73.25,-46.64 73.25,-37.91 73.25,-30.83"/>
<polygon fill="#63b8ff" stroke="#63b8ff" points="69.75,-54.6 73.25,-64.6 76.75,-54.6 69.75,-54.6"/>
</a>
</g>
</g>
<!-- Node3 -->
<g id="Node000003" class="node">
<title>Node3</title>
<g id="a_Node000003"><a xlink:title=" ">
<polygon fill="white" stroke="#bfbfbf" points="98.88,-152.25 47.62,-152.25 47.62,-133 98.88,-133 98.88,-152.25"/>
<text xml:space="preserve" text-anchor="middle" x="73.25" y="-138.75" font-family="Helvetica,sans-Serif" font-size="10.00">QFrame</text>
</a>
</g>
</g>
<!-- Node3&#45;&gt;Node2 -->
<g id="edge2_Node000002_Node000003" class="edge">
<title>Node3&#45;&gt;Node2</title>
<g id="a_edge2_Node000002_Node000003"><a xlink:title=" ">
<path fill="none" stroke="#63b8ff" d="M73.25,-121.42C73.25,-113.49 73.25,-104.56 73.25,-97.28"/>
<polygon fill="#63b8ff" stroke="#63b8ff" points="69.75,-121.17 73.25,-131.17 76.75,-121.17 69.75,-121.17"/>
</a>
</g>
</g>
</g>
</svg>
