<?xml version="1.0" encoding="UTF-8" standalone="no"?>
<!DOCTYPE svg PUBLIC "-//W3C//DTD SVG 1.1//EN"
 "http://www.w3.org/Graphics/SVG/1.1/DTD/svg11.dtd">
<!-- Generated by graphviz version 14.1.4 (20260321.0153)
 -->
<!-- Title: ImFusion::Dicom::GeneralEquipmentModuleDataComponent Pages: 1 -->
<svg width="173pt" height="227pt"
 viewBox="0.00 0.00 173.00 227.00" xmlns="http://www.w3.org/2000/svg" xmlns:xlink="http://www.w3.org/1999/xlink">
<g id="graph0" class="graph" transform="scale(1 1) rotate(0) translate(4 222.75)">
<title>ImFusion::Dicom::GeneralEquipmentModuleDataComponent</title>
<!-- Node1 -->
<g id="Node000001" class="node">
<title>Node1</title>
<g id="a_Node000001"><a xlink:title="DataComponent mirroring the DICOM General Equipment Module.">
<polygon fill="#999999" stroke="#666666" points="165.25,-30.5 0,-30.5 0,0 165.25,0 165.25,-30.5"/>
<text xml:space="preserve" text-anchor="start" x="8" y="-17" font-family="Helvetica,sans-Serif" font-size="10.00">ImFusion::Dicom::General</text>
<text xml:space="preserve" text-anchor="middle" x="82.62" y="-5.75" font-family="Helvetica,sans-Serif" font-size="10.00">EquipmentModuleDataComponent</text>
</a>
</g>
</g>
<!-- Node2 -->
<g id="Node000002" class="node">
<title>Node2</title>
<g id="a_Node000002"><a xlink:href="class_im_fusion_1_1_data_component.html" target="_top" xlink:title=" ">
<polygon fill="white" stroke="#666666" points="161.5,-108.25 3.75,-108.25 3.75,-66.5 161.5,-66.5 161.5,-108.25"/>
<text xml:space="preserve" text-anchor="start" x="11.75" y="-94.75" font-family="Helvetica,sans-Serif" font-size="10.00">ImFusion::DataComponent</text>
<text xml:space="preserve" text-anchor="start" x="11.75" y="-83.5" font-family="Helvetica,sans-Serif" font-size="10.00">&lt; GeneralEquipmentModuleData</text>
<text xml:space="preserve" text-anchor="middle" x="82.62" y="-72.25" font-family="Helvetica,sans-Serif" font-size="10.00">Component &gt;</text>
</a>
</g>
</g>
<!-- Node2&#45;&gt;Node1 -->
<g id="edge1_Node000001_Node000002" class="edge">
<title>Node2&#45;&gt;Node1</title>
<g id="a_edge1_Node000001_Node000002"><a xlink:title=" ">
<path fill="none" stroke="#63b8ff" d="M82.62,-54.63C82.62,-46.27 82.62,-37.65 82.62,-30.7"/>
<polygon fill="#63b8ff" stroke="#63b8ff" points="79.13,-54.58 82.63,-64.58 86.13,-54.58 79.13,-54.58"/>
</a>
</g>
</g>
<!-- Node3 -->
<g id="Node000003" class="node">
<title>Node3</title>
<g id="a_Node000003"><a xlink:href="class_im_fusion_1_1_data_component_base.html" target="_top" xlink:title="Data components provide a way to generically attach custom information objects.">
<polygon fill="white" stroke="#666666" points="160.75,-163.5 4.5,-163.5 4.5,-144.25 160.75,-144.25 160.75,-163.5"/>
<text xml:space="preserve" text-anchor="middle" x="82.62" y="-150" font-family="Helvetica,sans-Serif" font-size="10.00">ImFusion::DataComponentBase</text>
</a>
</g>
</g>
<!-- Node3&#45;&gt;Node2 -->
<g id="edge2_Node000002_Node000003" class="edge">
<title>Node3&#45;&gt;Node2</title>
<g id="a_edge2_Node000002_Node000003"><a xlink:title=" ">
<path fill="none" stroke="#63b8ff" d="M82.62,-132.45C82.62,-124.86 82.62,-116.26 82.62,-108.68"/>
<polygon fill="#63b8ff" stroke="#63b8ff" points="79.13,-132.39 82.63,-142.39 86.13,-132.39 79.13,-132.39"/>
</a>
</g>
</g>
<!-- Node4 -->
<g id="Node000004" class="node">
<title>Node4</title>
<g id="a_Node000004"><a xlink:href="class_im_fusion_1_1_configurable.html" target="_top" xlink:title="Base interface for classes that support object serialization from/to Properties objects.">
<polygon fill="white" stroke="#666666" points="141.25,-218.75 24,-218.75 24,-199.5 141.25,-199.5 141.25,-218.75"/>
<text xml:space="preserve" text-anchor="middle" x="82.62" y="-205.25" font-family="Helvetica,sans-Serif" font-size="10.00">ImFusion::Configurable</text>
</a>
</g>
</g>
<!-- Node4&#45;&gt;Node3 -->
<g id="edge3_Node000003_Node000004" class="edge">
<title>Node4&#45;&gt;Node3</title>
<g id="a_edge3_Node000003_Node000004"><a xlink:title=" ">
<path fill="none" stroke="#63b8ff" d="M82.62,-187.88C82.62,-179.59 82.62,-170.42 82.62,-163.86"/>
<polygon fill="#63b8ff" stroke="#63b8ff" points="79.13,-187.82 82.63,-197.82 86.13,-187.82 79.13,-187.82"/>
</a>
</g>
</g>
</g>
</svg>
