<?xml version="1.0" encoding="UTF-8" standalone="no"?>
<!DOCTYPE svg PUBLIC "-//W3C//DTD SVG 1.1//EN"
 "http://www.w3.org/Graphics/SVG/1.1/DTD/svg11.dtd">
<!-- Generated by graphviz version 14.1.4 (20260321.0153)
 -->
<!-- Title: ImFusion::LabelMapToContoursAlgorithm Pages: 1 -->
<svg width="350pt" height="160pt"
 viewBox="0.00 0.00 350.00 160.00" xmlns="http://www.w3.org/2000/svg" xmlns:xlink="http://www.w3.org/1999/xlink">
<g id="graph0" class="graph" transform="scale(1 1) rotate(0) translate(4 156.25)">
<title>ImFusion::LabelMapToContoursAlgorithm</title>
<!-- Node1 -->
<g id="Node000001" class="node">
<title>Node1</title>
<g id="a_Node000001"><a xlink:title="Algorithm to generate a closed contour encompassing a label map.">
<polygon fill="#999999" stroke="#666666" points="280,-30.5 125.25,-30.5 125.25,0 280,0 280,-30.5"/>
<text xml:space="preserve" text-anchor="start" x="133.25" y="-17" font-family="Helvetica,sans-Serif" font-size="10.00">ImFusion::LabelMapToContours</text>
<text xml:space="preserve" text-anchor="middle" x="202.62" y="-5.75" font-family="Helvetica,sans-Serif" font-size="10.00">Algorithm</text>
</a>
</g>
</g>
<!-- Node2 -->
<g id="Node000002" class="node">
<title>Node2</title>
<g id="a_Node000002"><a xlink:href="class_im_fusion_1_1_algorithm.html" target="_top" xlink:title="Interface for describing algorithms that can be made available in the ImFusion Suite through Algorith...">
<polygon fill="white" stroke="#666666" points="185.5,-91.38 81.75,-91.38 81.75,-72.12 185.5,-72.12 185.5,-91.38"/>
<text xml:space="preserve" text-anchor="middle" x="133.62" y="-77.88" font-family="Helvetica,sans-Serif" font-size="10.00">ImFusion::Algorithm</text>
</a>
</g>
</g>
<!-- Node2&#45;&gt;Node1 -->
<g id="edge1_Node000001_Node000002" class="edge">
<title>Node2&#45;&gt;Node1</title>
<g id="a_edge1_Node000001_Node000002"><a xlink:title=" ">
<path fill="none" stroke="#63b8ff" d="M151.62,-63.93C162.6,-53.66 176.5,-40.67 187.02,-30.84"/>
<polygon fill="#63b8ff" stroke="#63b8ff" points="149.24,-61.36 144.32,-70.75 154.02,-66.48 149.24,-61.36"/>
</a>
</g>
</g>
<!-- Node3 -->
<g id="Node000003" class="node">
<title>Node3</title>
<g id="a_Node000003"><a xlink:href="class_im_fusion_1_1_configurable.html" target="_top" xlink:title="Base interface for classes that support object serialization from/to Properties objects.">
<polygon fill="white" stroke="#666666" points="117.25,-152.25 0,-152.25 0,-133 117.25,-133 117.25,-152.25"/>
<text xml:space="preserve" text-anchor="middle" x="58.62" y="-138.75" font-family="Helvetica,sans-Serif" font-size="10.00">ImFusion::Configurable</text>
</a>
</g>
</g>
<!-- Node3&#45;&gt;Node2 -->
<g id="edge2_Node000002_Node000003" class="edge">
<title>Node3&#45;&gt;Node2</title>
<g id="a_edge2_Node000002_Node000003"><a xlink:title=" ">
<path fill="none" stroke="#63b8ff" d="M78.85,-125.75C92.72,-114.86 110.63,-100.8 122.13,-91.78"/>
<polygon fill="#63b8ff" stroke="#63b8ff" points="76.91,-122.82 71.21,-131.75 81.23,-128.33 76.91,-122.82"/>
</a>
</g>
</g>
<!-- Node4 -->
<g id="Node000004" class="node">
<title>Node4</title>
<g id="a_Node000004"><a xlink:href="class_im_fusion_1_1_utils_1_1_not_copyable.html" target="_top" xlink:title="Inherit from this class if your class should be neither copy&#45;constructible nor assignable.">
<polygon fill="white" stroke="#666666" points="281.5,-152.25 135.75,-152.25 135.75,-133 281.5,-133 281.5,-152.25"/>
<text xml:space="preserve" text-anchor="middle" x="208.62" y="-138.75" font-family="Helvetica,sans-Serif" font-size="10.00">ImFusion::Utils::NotCopyable</text>
</a>
</g>
</g>
<!-- Node4&#45;&gt;Node2 -->
<g id="edge3_Node000002_Node000004" class="edge">
<title>Node4&#45;&gt;Node2</title>
<g id="a_edge3_Node000002_Node000004"><a xlink:title=" ">
<path fill="none" stroke="#8b1a1a" d="M188.4,-125.75C174.53,-114.86 156.62,-100.8 145.12,-91.78"/>
<polygon fill="#8b1a1a" stroke="#8b1a1a" points="186.02,-128.33 196.04,-131.75 190.34,-122.82 186.02,-128.33"/>
</a>
</g>
</g>
<!-- Node5 -->
<g id="Node000005" class="node">
<title>Node5</title>
<g id="a_Node000005"><a xlink:href="class_im_fusion_1_1_annotation_output_interface.html" target="_top" xlink:title="Interface for passing annotations from an algorithm to the DefaultAlgorithmController.">
<polygon fill="white" stroke="#666666" points="341.75,-97 203.5,-97 203.5,-66.5 341.75,-66.5 341.75,-97"/>
<text xml:space="preserve" text-anchor="start" x="211.5" y="-83.5" font-family="Helvetica,sans-Serif" font-size="10.00">ImFusion::AnnotationOutput</text>
<text xml:space="preserve" text-anchor="middle" x="272.62" y="-72.25" font-family="Helvetica,sans-Serif" font-size="10.00">Interface</text>
</a>
</g>
</g>
<!-- Node5&#45;&gt;Node1 -->
<g id="edge4_Node000001_Node000005" class="edge">
<title>Node5&#45;&gt;Node1</title>
<g id="a_edge4_Node000001_Node000005"><a xlink:title=" ">
<path fill="none" stroke="#63b8ff" d="M248.44,-58.46C238.51,-49.32 227.3,-38.98 218.45,-30.83"/>
<polygon fill="#63b8ff" stroke="#63b8ff" points="245.9,-60.89 255.63,-65.09 250.65,-55.74 245.9,-60.89"/>
</a>
</g>
</g>
</g>
</svg>
