<?xml version="1.0" encoding="UTF-8" standalone="no"?>
<!DOCTYPE svg PUBLIC "-//W3C//DTD SVG 1.1//EN"
 "http://www.w3.org/Graphics/SVG/1.1/DTD/svg11.dtd">
<!-- Generated by graphviz version 14.1.4 (20260321.0153)
 -->
<!-- Title: ImFusion::GUI::ColorBarOverlay Pages: 1 -->
<svg width="436pt" height="138pt"
 viewBox="0.00 0.00 436.00 138.00" xmlns="http://www.w3.org/2000/svg" xmlns:xlink="http://www.w3.org/1999/xlink">
<g id="graph0" class="graph" transform="scale(1 1) rotate(0) translate(4 133.75)">
<title>ImFusion::GUI::ColorBarOverlay</title>
<!-- Node1 -->
<g id="Node000001" class="node">
<title>Node1</title>
<g id="a_Node000001"><a xlink:title=" ">
<polygon fill="#999999" stroke="#666666" points="278.88,-19.25 120.38,-19.25 120.38,0 278.88,0 278.88,-19.25"/>
<text xml:space="preserve" text-anchor="middle" x="199.62" y="-5.75" font-family="Helvetica,sans-Serif" font-size="10.00">ImFusion::GUI::ColorBarOverlay</text>
</a>
</g>
</g>
<!-- Node2 -->
<g id="Node000002" class="node">
<title>Node2</title>
<g id="a_Node000002"><a xlink:href="class_im_fusion_1_1_g_u_i_1_1_view_overlay.html" target="_top" xlink:title="Wraps a GlOverlay in order to display it at specific positions inside a View and handle input events.">
<polygon fill="white" stroke="#666666" points="270.62,-74.5 128.62,-74.5 128.62,-55.25 270.62,-55.25 270.62,-74.5"/>
<text xml:space="preserve" text-anchor="middle" x="199.62" y="-61" font-family="Helvetica,sans-Serif" font-size="10.00">ImFusion::GUI::ViewOverlay</text>
</a>
</g>
</g>
<!-- Node2&#45;&gt;Node1 -->
<g id="edge1_Node000001_Node000002" class="edge">
<title>Node2&#45;&gt;Node1</title>
<g id="a_edge1_Node000001_Node000002"><a xlink:title=" ">
<path fill="none" stroke="#63b8ff" d="M199.62,-43.63C199.62,-35.34 199.62,-26.17 199.62,-19.61"/>
<polygon fill="#63b8ff" stroke="#63b8ff" points="196.13,-43.57 199.63,-53.57 203.13,-43.57 196.13,-43.57"/>
</a>
</g>
</g>
<!-- Node3 -->
<g id="Node000003" class="node">
<title>Node3</title>
<g id="a_Node000003"><a xlink:href="class_im_fusion_1_1_configurable.html" target="_top" xlink:title="Base interface for classes that support object serialization from/to Properties objects.">
<polygon fill="white" stroke="#666666" points="117.25,-129.75 0,-129.75 0,-110.5 117.25,-110.5 117.25,-129.75"/>
<text xml:space="preserve" text-anchor="middle" x="58.62" y="-116.25" font-family="Helvetica,sans-Serif" font-size="10.00">ImFusion::Configurable</text>
</a>
</g>
</g>
<!-- Node3&#45;&gt;Node2 -->
<g id="edge2_Node000002_Node000003" class="edge">
<title>Node3&#45;&gt;Node2</title>
<g id="a_edge2_Node000002_Node000003"><a xlink:title=" ">
<path fill="none" stroke="#63b8ff" d="M93.26,-106.04C118.83,-96.39 152.96,-83.5 175.59,-74.95"/>
<polygon fill="#63b8ff" stroke="#63b8ff" points="92.08,-102.75 83.96,-109.56 94.55,-109.3 92.08,-102.75"/>
</a>
</g>
</g>
<!-- Node4 -->
<g id="Node000004" class="node">
<title>Node4</title>
<g id="a_Node000004"><a xlink:href="class_im_fusion_1_1_signal_receiver.html" target="_top" xlink:title="Base class for classes that can contain slots (i.e.">
<polygon fill="white" stroke="#666666" points="263.88,-129.75 135.38,-129.75 135.38,-110.5 263.88,-110.5 263.88,-129.75"/>
<text xml:space="preserve" text-anchor="middle" x="199.62" y="-116.25" font-family="Helvetica,sans-Serif" font-size="10.00">ImFusion::SignalReceiver</text>
</a>
</g>
</g>
<!-- Node4&#45;&gt;Node2 -->
<g id="edge3_Node000002_Node000004" class="edge">
<title>Node4&#45;&gt;Node2</title>
<g id="a_edge3_Node000002_Node000004"><a xlink:title=" ">
<path fill="none" stroke="#63b8ff" d="M199.62,-98.88C199.62,-90.59 199.62,-81.42 199.62,-74.86"/>
<polygon fill="#63b8ff" stroke="#63b8ff" points="196.13,-98.82 199.63,-108.82 203.13,-98.82 196.13,-98.82"/>
</a>
</g>
</g>
<!-- Node5 -->
<g id="Node000005" class="node">
<title>Node5</title>
<g id="a_Node000005"><a xlink:href="class_im_fusion_1_1_utils_1_1_not_copyable.html" target="_top" xlink:title="Inherit from this class if your class should be neither copy&#45;constructible nor assignable.">
<polygon fill="white" stroke="#666666" points="427.5,-129.75 281.75,-129.75 281.75,-110.5 427.5,-110.5 427.5,-129.75"/>
<text xml:space="preserve" text-anchor="middle" x="354.62" y="-116.25" font-family="Helvetica,sans-Serif" font-size="10.00">ImFusion::Utils::NotCopyable</text>
</a>
</g>
</g>
<!-- Node5&#45;&gt;Node2 -->
<g id="edge4_Node000002_Node000005" class="edge">
<title>Node5&#45;&gt;Node2</title>
<g id="a_edge4_Node000002_Node000005"><a xlink:title=" ">
<path fill="none" stroke="#8b1a1a" d="M317.68,-106.43C289.46,-96.74 251.25,-83.61 226.05,-74.95"/>
<polygon fill="#8b1a1a" stroke="#8b1a1a" points="316.31,-109.66 326.9,-109.6 318.58,-103.04 316.31,-109.66"/>
</a>
</g>
</g>
</g>
</svg>
