<?xml version="1.0" encoding="UTF-8" standalone="no"?>
<!DOCTYPE svg PUBLIC "-//W3C//DTD SVG 1.1//EN"
 "http://www.w3.org/Graphics/SVG/1.1/DTD/svg11.dtd">
<!-- Generated by graphviz version 14.1.4 (20260321.0153)
 -->
<!-- Title: ImFusion::DisplayOptions2d Pages: 1 -->
<svg width="712pt" height="162pt"
 viewBox="0.00 0.00 712.00 162.00" xmlns="http://www.w3.org/2000/svg" xmlns:xlink="http://www.w3.org/1999/xlink">
<g id="graph0" class="graph" transform="scale(1 1) rotate(0) translate(4 157.88)">
<title>ImFusion::DisplayOptions2d</title>
<!-- Node1 -->
<g id="Node000001" class="node">
<title>Node1</title>
<g id="a_Node000001"><a xlink:title="Configures the display options for 2D slice rendering of images.">
<polygon fill="#999999" stroke="#666666" points="703.75,-77.25 564,-77.25 564,-58 703.75,-58 703.75,-77.25"/>
<text xml:space="preserve" text-anchor="middle" x="633.88" y="-63.75" font-family="Helvetica,sans-Serif" font-size="10.00">ImFusion::DisplayOptions2d</text>
</a>
</g>
</g>
<!-- Node2 -->
<g id="Node000002" class="node">
<title>Node2</title>
<g id="a_Node000002"><a xlink:href="class_im_fusion_1_1_data_component.html" target="_top" xlink:title=" ">
<polygon fill="white" stroke="#666666" points="503.62,-153.88 369.88,-153.88 369.88,-123.38 503.62,-123.38 503.62,-153.88"/>
<text xml:space="preserve" text-anchor="start" x="377.88" y="-140.38" font-family="Helvetica,sans-Serif" font-size="10.00">ImFusion::DataComponent</text>
<text xml:space="preserve" text-anchor="middle" x="436.75" y="-129.12" font-family="Helvetica,sans-Serif" font-size="10.00">&lt; DisplayOptions2d &gt;</text>
</a>
</g>
</g>
<!-- Node2&#45;&gt;Node1 -->
<g id="edge1_Node000001_Node000002" class="edge">
<title>Node2&#45;&gt;Node1</title>
<g id="a_edge1_Node000001_Node000002"><a xlink:title=" ">
<path fill="none" stroke="#63b8ff" d="M509.44,-119.78C515.75,-117.82 522.01,-115.75 528,-113.62 557.97,-102.96 591.45,-87.66 612.34,-77.68"/>
<polygon fill="#63b8ff" stroke="#63b8ff" points="508.82,-116.31 500.25,-122.56 510.84,-123.02 508.82,-116.31"/>
</a>
</g>
</g>
<!-- Node3 -->
<g id="Node000003" class="node">
<title>Node3</title>
<g id="a_Node000003"><a xlink:href="class_im_fusion_1_1_data_component_base.html" target="_top" xlink:title="Data components provide a way to generically attach custom information objects.">
<polygon fill="white" stroke="#666666" points="309.5,-148.25 153.25,-148.25 153.25,-129 309.5,-129 309.5,-148.25"/>
<text xml:space="preserve" text-anchor="middle" x="231.38" y="-134.75" font-family="Helvetica,sans-Serif" font-size="10.00">ImFusion::DataComponentBase</text>
</a>
</g>
</g>
<!-- Node3&#45;&gt;Node2 -->
<g id="edge2_Node000002_Node000003" class="edge">
<title>Node3&#45;&gt;Node2</title>
<g id="a_edge2_Node000002_Node000003"><a xlink:title=" ">
<path fill="none" stroke="#63b8ff" d="M321.01,-138.62C337.27,-138.62 353.98,-138.62 369.45,-138.62"/>
<polygon fill="#63b8ff" stroke="#63b8ff" points="321.36,-135.13 311.36,-138.63 321.36,-142.13 321.36,-135.13"/>
</a>
</g>
</g>
<!-- Node4 -->
<g id="Node000004" class="node">
<title>Node4</title>
<g id="a_Node000004"><a xlink:href="class_im_fusion_1_1_configurable.html" target="_top" xlink:title="Base interface for classes that support object serialization from/to Properties objects.">
<polygon fill="white" stroke="#666666" points="117.25,-148.25 0,-148.25 0,-129 117.25,-129 117.25,-148.25"/>
<text xml:space="preserve" text-anchor="middle" x="58.62" y="-134.75" font-family="Helvetica,sans-Serif" font-size="10.00">ImFusion::Configurable</text>
</a>
</g>
</g>
<!-- Node4&#45;&gt;Node3 -->
<g id="edge3_Node000003_Node000004" class="edge">
<title>Node4&#45;&gt;Node3</title>
<g id="a_edge3_Node000003_Node000004"><a xlink:title=" ">
<path fill="none" stroke="#63b8ff" d="M128.88,-138.62C136.8,-138.62 144.92,-138.62 152.95,-138.62"/>
<polygon fill="#63b8ff" stroke="#63b8ff" points="128.95,-135.13 118.95,-138.63 128.95,-142.13 128.95,-135.13"/>
</a>
</g>
</g>
<!-- Node5 -->
<g id="Node000005" class="node">
<title>Node5</title>
<g id="a_Node000005"><a xlink:href="class_im_fusion_1_1_lazy_instantiated_data_component.html" target="_top" xlink:title=" ">
<polygon fill="white" stroke="#666666" points="528,-104.88 345.5,-104.88 345.5,-74.38 528,-74.38 528,-104.88"/>
<text xml:space="preserve" text-anchor="start" x="353.5" y="-91.38" font-family="Helvetica,sans-Serif" font-size="10.00">ImFusion::LazyInstantiated</text>
<text xml:space="preserve" text-anchor="middle" x="436.75" y="-80.12" font-family="Helvetica,sans-Serif" font-size="10.00">DataComponent&lt; DisplayOptions2d &gt;</text>
</a>
</g>
</g>
<!-- Node5&#45;&gt;Node1 -->
<g id="edge4_Node000001_Node000005" class="edge">
<title>Node5&#45;&gt;Node1</title>
<g id="a_edge4_Node000001_Node000005"><a xlink:title=" ">
<path fill="none" stroke="#63b8ff" d="M539.86,-78.11C547.92,-77.2 555.93,-76.3 563.69,-75.43"/>
<polygon fill="#63b8ff" stroke="#63b8ff" points="539.51,-74.63 529.96,-79.23 540.29,-81.59 539.51,-74.63"/>
</a>
</g>
</g>
<!-- Node6 -->
<g id="Node000006" class="node">
<title>Node6</title>
<g id="a_Node000006"><a xlink:href="struct_im_fusion_1_1_persistent_data_component.html" target="_top" xlink:title="Base class for DataComponents that must never be deleted from a DataComponentList.">
<polygon fill="white" stroke="#666666" points="295.25,-104.88 167.5,-104.88 167.5,-74.38 295.25,-74.38 295.25,-104.88"/>
<text xml:space="preserve" text-anchor="start" x="175.5" y="-91.38" font-family="Helvetica,sans-Serif" font-size="10.00">ImFusion::PersistentData</text>
<text xml:space="preserve" text-anchor="middle" x="231.38" y="-80.12" font-family="Helvetica,sans-Serif" font-size="10.00">Component</text>
</a>
</g>
</g>
<!-- Node6&#45;&gt;Node5 -->
<g id="edge5_Node000005_Node000006" class="edge">
<title>Node6&#45;&gt;Node5</title>
<g id="a_edge5_Node000005_Node000006"><a xlink:title=" ">
<path fill="none" stroke="#63b8ff" d="M306.89,-89.62C319.38,-89.62 332.46,-89.62 345.3,-89.62"/>
<polygon fill="#63b8ff" stroke="#63b8ff" points="307.12,-86.13 297.12,-89.63 307.12,-93.13 307.12,-86.13"/>
</a>
</g>
</g>
<!-- Node7 -->
<g id="Node000007" class="node">
<title>Node7</title>
<g id="a_Node000007"><a xlink:href="class_im_fusion_1_1_signal_receiver.html" target="_top" xlink:title="Base class for classes that can contain slots (i.e.">
<polygon fill="white" stroke="#666666" points="501,-56.25 372.5,-56.25 372.5,-37 501,-37 501,-56.25"/>
<text xml:space="preserve" text-anchor="middle" x="436.75" y="-42.75" font-family="Helvetica,sans-Serif" font-size="10.00">ImFusion::SignalReceiver</text>
</a>
</g>
</g>
<!-- Node7&#45;&gt;Node1 -->
<g id="edge6_Node000001_Node000007" class="edge">
<title>Node7&#45;&gt;Node1</title>
<g id="a_edge6_Node000001_Node000007"><a xlink:title=" ">
<path fill="none" stroke="#63b8ff" d="M512.77,-54.7C529.49,-56.5 547.14,-58.4 563.62,-60.17"/>
<polygon fill="#63b8ff" stroke="#63b8ff" points="513.19,-51.22 502.88,-53.63 512.44,-58.18 513.19,-51.22"/>
</a>
</g>
</g>
<!-- Node8 -->
<g id="Node000008" class="node">
<title>Node8</title>
<g id="a_Node000008"><a xlink:href="class_im_fusion_1_1_utils_1_1_not_copyable.html" target="_top" xlink:title="Inherit from this class if your class should be neither copy&#45;constructible nor assignable.">
<polygon fill="white" stroke="#666666" points="509.62,-19.25 363.88,-19.25 363.88,0 509.62,0 509.62,-19.25"/>
<text xml:space="preserve" text-anchor="middle" x="436.75" y="-5.75" font-family="Helvetica,sans-Serif" font-size="10.00">ImFusion::Utils::NotCopyable</text>
</a>
</g>
</g>
<!-- Node8&#45;&gt;Node1 -->
<g id="edge7_Node000001_Node000008" class="edge">
<title>Node8&#45;&gt;Node1</title>
<g id="a_edge7_Node000001_Node000008"><a xlink:title=" ">
<path fill="none" stroke="#8b1a1a" d="M507.04,-22.21C514.16,-23.87 521.25,-25.68 528,-27.62 556.84,-35.94 588.93,-48.72 609.93,-57.59"/>
<polygon fill="#8b1a1a" stroke="#8b1a1a" points="507.87,-18.81 497.35,-20.05 506.35,-25.64 507.87,-18.81"/>
</a>
</g>
</g>
</g>
</svg>
