<?xml version="1.0" encoding="UTF-8" standalone="no"?>
<!DOCTYPE svg PUBLIC "-//W3C//DTD SVG 1.1//EN"
 "http://www.w3.org/Graphics/SVG/1.1/DTD/svg11.dtd">
<!-- Generated by graphviz version 14.1.4 (20260321.0153)
 -->
<!-- Title: ImFusion::SelectionWidget Pages: 1 -->
<svg width="312pt" height="138pt"
 viewBox="0.00 0.00 312.00 138.00" xmlns="http://www.w3.org/2000/svg" xmlns:xlink="http://www.w3.org/1999/xlink">
<g id="graph0" class="graph" transform="scale(1 1) rotate(0) translate(4 133.75)">
<title>ImFusion::SelectionWidget</title>
<!-- Node1 -->
<g id="Node000001" class="node">
<title>Node1</title>
<g id="a_Node000001"><a xlink:title="Widget and scrollbar for handling selection and playback of data.">
<polygon fill="#999999" stroke="#666666" points="225.38,-19.25 91.62,-19.25 91.62,0 225.38,0 225.38,-19.25"/>
<text xml:space="preserve" text-anchor="middle" x="158.5" y="-5.75" font-family="Helvetica,sans-Serif" font-size="10.00">ImFusion::SelectionWidget</text>
</a>
</g>
</g>
<!-- Node2 -->
<g id="Node000002" class="node">
<title>Node2</title>
<g id="a_Node000002"><a xlink:href="class_im_fusion_1_1_expandable_group_box.html" target="_top" xlink:title="This class is a container widget that can expand and collapse another widget.">
<polygon fill="white" stroke="#666666" points="157,-74.5 0,-74.5 0,-55.25 157,-55.25 157,-74.5"/>
<text xml:space="preserve" text-anchor="middle" x="78.5" y="-61" font-family="Helvetica,sans-Serif" font-size="10.00">ImFusion::ExpandableGroupBox</text>
</a>
</g>
</g>
<!-- Node2&#45;&gt;Node1 -->
<g id="edge1_Node000001_Node000002" class="edge">
<title>Node2&#45;&gt;Node1</title>
<g id="a_edge1_Node000001_Node000002"><a xlink:title=" ">
<path fill="none" stroke="#63b8ff" d="M101.55,-48.53C115.57,-39.2 133,-27.6 144.86,-19.7"/>
<polygon fill="#63b8ff" stroke="#63b8ff" points="99.72,-45.55 93.33,-54 103.59,-51.38 99.72,-45.55"/>
</a>
</g>
</g>
<!-- Node3 -->
<g id="Node000003" class="node">
<title>Node3</title>
<g id="a_Node000003"><a xlink:title=" ">
<polygon fill="white" stroke="#bfbfbf" points="104.12,-129.75 52.88,-129.75 52.88,-110.5 104.12,-110.5 104.12,-129.75"/>
<text xml:space="preserve" text-anchor="middle" x="78.5" y="-116.25" font-family="Helvetica,sans-Serif" font-size="10.00">QFrame</text>
</a>
</g>
</g>
<!-- Node3&#45;&gt;Node2 -->
<g id="edge2_Node000002_Node000003" class="edge">
<title>Node3&#45;&gt;Node2</title>
<g id="a_edge2_Node000002_Node000003"><a xlink:title=" ">
<path fill="none" stroke="#63b8ff" d="M78.5,-98.88C78.5,-90.59 78.5,-81.42 78.5,-74.86"/>
<polygon fill="#63b8ff" stroke="#63b8ff" points="75,-98.82 78.5,-108.82 82,-98.82 75,-98.82"/>
</a>
</g>
</g>
<!-- Node4 -->
<g id="Node000004" class="node">
<title>Node4</title>
<g id="a_Node000004"><a xlink:href="class_im_fusion_1_1_signal_receiver.html" target="_top" xlink:title="Base class for classes that can contain slots (i.e.">
<polygon fill="white" stroke="#666666" points="303.75,-74.5 175.25,-74.5 175.25,-55.25 303.75,-55.25 303.75,-74.5"/>
<text xml:space="preserve" text-anchor="middle" x="239.5" y="-61" font-family="Helvetica,sans-Serif" font-size="10.00">ImFusion::SignalReceiver</text>
</a>
</g>
</g>
<!-- Node4&#45;&gt;Node1 -->
<g id="edge3_Node000001_Node000004" class="edge">
<title>Node4&#45;&gt;Node1</title>
<g id="a_edge3_Node000001_Node000004"><a xlink:title=" ">
<path fill="none" stroke="#63b8ff" d="M216.16,-48.53C201.96,-39.2 184.31,-27.6 172.31,-19.7"/>
<polygon fill="#63b8ff" stroke="#63b8ff" points="214.22,-51.44 224.49,-54.01 218.06,-45.59 214.22,-51.44"/>
</a>
</g>
</g>
</g>
</svg>
