<?xml version="1.0" encoding="UTF-8" standalone="no"?>
<!DOCTYPE svg PUBLIC "-//W3C//DTD SVG 1.1//EN"
 "http://www.w3.org/Graphics/SVG/1.1/DTD/svg11.dtd">
<!-- Generated by graphviz version 14.1.4 (20260321.0153)
 -->
<!-- Title: ImFusion::ThumbnailManager Pages: 1 -->
<svg width="187pt" height="204pt"
 viewBox="0.00 0.00 187.00 204.00" xmlns="http://www.w3.org/2000/svg" xmlns:xlink="http://www.w3.org/1999/xlink">
<g id="graph0" class="graph" transform="scale(1 1) rotate(0) translate(4 200.25)">
<title>ImFusion::ThumbnailManager</title>
<!-- Node1 -->
<g id="Node000001" class="node">
<title>Node1</title>
<g id="a_Node000001"><a xlink:title="The ThumbnailManager class generates and manages thumbnails for data instances.">
<polygon fill="#999999" stroke="#666666" points="161.88,-19.25 16.88,-19.25 16.88,0 161.88,0 161.88,-19.25"/>
<text xml:space="preserve" text-anchor="middle" x="89.38" y="-5.75" font-family="Helvetica,sans-Serif" font-size="10.00">ImFusion::ThumbnailManager</text>
</a>
</g>
</g>
<!-- Node2 -->
<g id="Node000002" class="node">
<title>Node2</title>
<g id="a_Node000002"><a xlink:href="class_im_fusion_1_1_g_l_1_1_instance_manager.html" target="_top" xlink:title=" ">
<polygon fill="white" stroke="#666666" points="167.5,-85.75 11.25,-85.75 11.25,-55.25 167.5,-55.25 167.5,-85.75"/>
<text xml:space="preserve" text-anchor="start" x="19.25" y="-72.25" font-family="Helvetica,sans-Serif" font-size="10.00">ImFusion::GL::InstanceManager</text>
<text xml:space="preserve" text-anchor="middle" x="89.38" y="-61" font-family="Helvetica,sans-Serif" font-size="10.00">&lt; ThumbnailManager &gt;</text>
</a>
</g>
</g>
<!-- Node2&#45;&gt;Node1 -->
<g id="edge1_Node000001_Node000002" class="edge">
<title>Node2&#45;&gt;Node1</title>
<g id="a_edge1_Node000001_Node000002"><a xlink:title=" ">
<path fill="none" stroke="#63b8ff" d="M89.38,-43.48C89.38,-34.98 89.38,-26.09 89.38,-19.7"/>
<polygon fill="#63b8ff" stroke="#63b8ff" points="85.88,-43.43 89.38,-53.43 92.88,-43.43 85.88,-43.43"/>
</a>
</g>
</g>
<!-- Node3 -->
<g id="Node000003" class="node">
<title>Node3</title>
<g id="a_Node000003"><a xlink:href="class_im_fusion_1_1_g_l_1_1_instance_manager_base.html" target="_top" xlink:title="Base class for context&#45;aware caching of OpenGL object instances.">
<polygon fill="white" stroke="#666666" points="178.75,-141 0,-141 0,-121.75 178.75,-121.75 178.75,-141"/>
<text xml:space="preserve" text-anchor="middle" x="89.38" y="-127.5" font-family="Helvetica,sans-Serif" font-size="10.00">ImFusion::GL::InstanceManagerBase</text>
</a>
</g>
</g>
<!-- Node3&#45;&gt;Node2 -->
<g id="edge2_Node000002_Node000003" class="edge">
<title>Node3&#45;&gt;Node2</title>
<g id="a_edge2_Node000002_Node000003"><a xlink:title=" ">
<path fill="none" stroke="#8b1a1a" d="M89.38,-110.17C89.38,-102.24 89.38,-93.31 89.38,-86.03"/>
<polygon fill="#8b1a1a" stroke="#8b1a1a" points="85.88,-109.92 89.38,-119.92 92.88,-109.92 85.88,-109.92"/>
</a>
</g>
</g>
<!-- Node4 -->
<g id="Node000004" class="node">
<title>Node4</title>
<g id="a_Node000004"><a xlink:href="class_im_fusion_1_1_utils_1_1_not_copyable.html" target="_top" xlink:title="Inherit from this class if your class should be neither copy&#45;constructible nor assignable.">
<polygon fill="white" stroke="#666666" points="162.25,-196.25 16.5,-196.25 16.5,-177 162.25,-177 162.25,-196.25"/>
<text xml:space="preserve" text-anchor="middle" x="89.38" y="-182.75" font-family="Helvetica,sans-Serif" font-size="10.00">ImFusion::Utils::NotCopyable</text>
</a>
</g>
</g>
<!-- Node4&#45;&gt;Node3 -->
<g id="edge3_Node000003_Node000004" class="edge">
<title>Node4&#45;&gt;Node3</title>
<g id="a_edge3_Node000003_Node000004"><a xlink:title=" ">
<path fill="none" stroke="#8b1a1a" d="M89.38,-165.38C89.38,-157.09 89.38,-147.92 89.38,-141.36"/>
<polygon fill="#8b1a1a" stroke="#8b1a1a" points="85.88,-165.32 89.38,-175.32 92.88,-165.32 85.88,-165.32"/>
</a>
</g>
</g>
</g>
</svg>
