<?xml version="1.0" encoding="UTF-8" standalone="no"?>
<!DOCTYPE svg PUBLIC "-//W3C//DTD SVG 1.1//EN"
 "http://www.w3.org/Graphics/SVG/1.1/DTD/svg11.dtd">
<!-- Generated by graphviz version 14.1.4 (20260321.0153)
 -->
<!-- Title: ImFusion::InteractiveViewOptionsOverlay Pages: 1 -->
<svg width="436pt" height="271pt"
 viewBox="0.00 0.00 436.00 271.00" xmlns="http://www.w3.org/2000/svg" xmlns:xlink="http://www.w3.org/1999/xlink">

<svg id="main" version="1.1" xmlns="http://www.w3.org/2000/svg" xmlns:xlink="http://www.w3.org/1999/xlink" xml:space="preserve">

<style type="text/css"><![CDATA[
.node, .edge {opacity: 0.7;}
.node.selected, .edge.selected {opacity: 1;}
.edge:hover path { stroke: red; }
.edge:hover polygon { stroke: red; fill: red; }
]]></style>
<script type="application/ecmascript" xlink:href="svg.min.js"/>
<svg id="graph" class="graph">
<g id="graph0" class="graph" transform="scale(1 1) rotate(0) translate(4 266.75)">
<title>ImFusion::InteractiveViewOptionsOverlay</title>
<!-- Node1 -->
<g id="Node000001" class="node">
<title>Node1</title>
<g id="a_Node000001"><a xlink:title="Button overlay for InteractiveView that allows for setting up the view or display options of the view...">
<polygon fill="#999999" stroke="#666666" points="206.62,-30.5 76.62,-30.5 76.62,0 206.62,0 206.62,-30.5"/>
<text xml:space="preserve" text-anchor="start" x="84.62" y="-17" font-family="Helvetica,sans-Serif" font-size="10.00">ImFusion::InteractiveView</text>
<text xml:space="preserve" text-anchor="middle" x="141.62" y="-5.75" font-family="Helvetica,sans-Serif" font-size="10.00">OptionsOverlay</text>
</a>
</g>
</g>
<!-- Node2 -->
<g id="Node000002" class="node">
<title>Node2</title>
<g id="a_Node000002"><a xlink:href="class_im_fusion_1_1_interactive_button_overlay.html" target="_top" xlink:title="Interactive overlay for a click&#45;able button.">
<polygon fill="white" stroke="#666666" points="210,-97 73.25,-97 73.25,-66.5 210,-66.5 210,-97"/>
<text xml:space="preserve" text-anchor="start" x="81.25" y="-83.5" font-family="Helvetica,sans-Serif" font-size="10.00">ImFusion::InteractiveButton</text>
<text xml:space="preserve" text-anchor="middle" x="141.62" y="-72.25" font-family="Helvetica,sans-Serif" font-size="10.00">Overlay</text>
</a>
</g>
</g>
<!-- Node2&#45;&gt;Node1 -->
<g id="edge1_Node000001_Node000002" class="edge">
<title>Node2&#45;&gt;Node1</title>
<g id="a_edge1_Node000001_Node000002"><a xlink:title=" ">
<path fill="none" stroke="#63b8ff" d="M141.62,-54.81C141.62,-46.64 141.62,-37.91 141.62,-30.83"/>
<polygon fill="#63b8ff" stroke="#63b8ff" points="138.13,-54.6 141.63,-64.6 145.13,-54.6 138.13,-54.6"/>
</a>
</g>
</g>
<!-- Node3 -->
<g id="Node000003" class="node">
<title>Node3</title>
<g id="a_Node000003"><a xlink:href="class_im_fusion_1_1_interactive_overlay.html" target="_top" xlink:title="Wraps a GlOverlay in order to display it at specific positions in an InteractiveView.">
<polygon fill="white" stroke="#666666" points="212.62,-152.25 70.62,-152.25 70.62,-133 212.62,-133 212.62,-152.25"/>
<text xml:space="preserve" text-anchor="middle" x="141.62" y="-138.75" font-family="Helvetica,sans-Serif" font-size="10.00">ImFusion::InteractiveOverlay</text>
</a>
</g>
</g>
<!-- Node3&#45;&gt;Node2 -->
<g id="edge2_Node000002_Node000003" class="edge">
<title>Node3&#45;&gt;Node2</title>
<g id="a_edge2_Node000002_Node000003"><a xlink:title=" ">
<path fill="none" stroke="#63b8ff" d="M141.62,-121.42C141.62,-113.49 141.62,-104.56 141.62,-97.28"/>
<polygon fill="#63b8ff" stroke="#63b8ff" points="138.13,-121.17 141.63,-131.17 145.13,-121.17 138.13,-121.17"/>
</a>
</g>
</g>
<!-- Node4 -->
<g id="Node000004" class="node">
<title>Node4</title>
<g id="a_Node000004"><a xlink:title=" ">
<polygon fill="white" stroke="#bfbfbf" points="110.62,-207.5 58.62,-207.5 58.62,-188.25 110.62,-188.25 110.62,-207.5"/>
<text xml:space="preserve" text-anchor="middle" x="84.62" y="-194" font-family="Helvetica,sans-Serif" font-size="10.00">QObject</text>
</a>
</g>
</g>
<!-- Node4&#45;&gt;Node3 -->
<g id="edge3_Node000003_Node000004" class="edge">
<title>Node4&#45;&gt;Node3</title>
<g id="a_edge3_Node000003_Node000004"><a xlink:title=" ">
<path fill="none" stroke="#63b8ff" d="M102.57,-180.11C112.36,-170.97 124.07,-160.03 132.1,-152.52"/>
<polygon fill="#63b8ff" stroke="#63b8ff" points="100.32,-177.42 95.4,-186.81 105.1,-182.54 100.32,-177.42"/>
</a>
</g>
</g>
<!-- Node5 -->
<g id="Node000005" class="node">
<title>Node5</title>
<g id="a_Node000005"><a xlink:href="class_im_fusion_1_1_g_u_i_1_1_view_overlay.html" target="_top" xlink:title="Wraps a GlOverlay in order to display it at specific positions inside a View and handle input events.">
<polygon fill="white" stroke="#666666" points="270.62,-207.5 128.62,-207.5 128.62,-188.25 270.62,-188.25 270.62,-207.5"/>
<text xml:space="preserve" text-anchor="middle" x="199.62" y="-194" font-family="Helvetica,sans-Serif" font-size="10.00">ImFusion::GUI::ViewOverlay</text>
</a>
</g>
</g>
<!-- Node5&#45;&gt;Node3 -->
<g id="edge4_Node000003_Node000005" class="edge">
<title>Node5&#45;&gt;Node3</title>
<g id="a_edge4_Node000003_Node000005"><a xlink:title=" ">
<path fill="none" stroke="#63b8ff" d="M181.36,-180.11C171.41,-170.97 159.49,-160.03 151.32,-152.52"/>
<polygon fill="#63b8ff" stroke="#63b8ff" points="178.94,-182.63 188.67,-186.82 183.67,-177.48 178.94,-182.63"/>
</a>
</g>
</g>
<!-- Node6 -->
<g id="Node000006" class="node">
<title>Node6</title>
<g id="a_Node000006"><a xlink:href="class_im_fusion_1_1_configurable.html" target="_top" xlink:title="Base interface for classes that support object serialization from/to Properties objects.">
<polygon fill="white" stroke="#666666" points="117.25,-262.75 0,-262.75 0,-243.5 117.25,-243.5 117.25,-262.75"/>
<text xml:space="preserve" text-anchor="middle" x="58.62" y="-249.25" font-family="Helvetica,sans-Serif" font-size="10.00">ImFusion::Configurable</text>
</a>
</g>
</g>
<!-- Node6&#45;&gt;Node5 -->
<g id="edge5_Node000005_Node000006" class="edge">
<title>Node6&#45;&gt;Node5</title>
<g id="a_edge5_Node000005_Node000006"><a xlink:title=" ">
<path fill="none" stroke="#63b8ff" d="M93.26,-239.04C118.83,-229.39 152.96,-216.5 175.59,-207.95"/>
<polygon fill="#63b8ff" stroke="#63b8ff" points="92.08,-235.75 83.96,-242.56 94.55,-242.3 92.08,-235.75"/>
</a>
</g>
</g>
<!-- Node7 -->
<g id="Node000007" class="node">
<title>Node7</title>
<g id="a_Node000007"><a xlink:href="class_im_fusion_1_1_signal_receiver.html" target="_top" xlink:title="Base class for classes that can contain slots (i.e.">
<polygon fill="white" stroke="#666666" points="263.88,-262.75 135.38,-262.75 135.38,-243.5 263.88,-243.5 263.88,-262.75"/>
<text xml:space="preserve" text-anchor="middle" x="199.62" y="-249.25" font-family="Helvetica,sans-Serif" font-size="10.00">ImFusion::SignalReceiver</text>
</a>
</g>
</g>
<!-- Node7&#45;&gt;Node5 -->
<g id="edge6_Node000005_Node000007" class="edge">
<title>Node7&#45;&gt;Node5</title>
<g id="a_edge6_Node000005_Node000007"><a xlink:title=" ">
<path fill="none" stroke="#63b8ff" d="M199.62,-231.88C199.62,-223.59 199.62,-214.42 199.62,-207.86"/>
<polygon fill="#63b8ff" stroke="#63b8ff" points="196.13,-231.82 199.63,-241.82 203.13,-231.82 196.13,-231.82"/>
</a>
</g>
</g>
<!-- Node8 -->
<g id="Node000008" class="node">
<title>Node8</title>
<g id="a_Node000008"><a xlink:href="class_im_fusion_1_1_utils_1_1_not_copyable.html" target="_top" xlink:title="Inherit from this class if your class should be neither copy&#45;constructible nor assignable.">
<polygon fill="white" stroke="#666666" points="427.5,-262.75 281.75,-262.75 281.75,-243.5 427.5,-243.5 427.5,-262.75"/>
<text xml:space="preserve" text-anchor="middle" x="354.62" y="-249.25" font-family="Helvetica,sans-Serif" font-size="10.00">ImFusion::Utils::NotCopyable</text>
</a>
</g>
</g>
<!-- Node8&#45;&gt;Node5 -->
<g id="edge7_Node000005_Node000008" class="edge">
<title>Node8&#45;&gt;Node5</title>
<g id="a_edge7_Node000005_Node000008"><a xlink:title=" ">
<path fill="none" stroke="#8b1a1a" d="M317.68,-239.43C289.46,-229.74 251.25,-216.61 226.05,-207.95"/>
<polygon fill="#8b1a1a" stroke="#8b1a1a" points="316.31,-242.66 326.9,-242.6 318.58,-236.04 316.31,-242.66"/>
</a>
</g>
</g>
</g>
</svg>
</svg>

<style type='text/css'>
<![CDATA[
[data-mouse-over-selected='false'] { opacity: 0.7; }
[data-mouse-over-selected='true']  { opacity: 1.0; }
]]>
</style>
<script type="application/ecmascript"><![CDATA[
document.addEventListener('DOMContentLoaded', (event) => {
  highlightEdges();
  highlightAdjacentNodes();
});
]]></script>
</svg>
