<?xml version="1.0" encoding="UTF-8" standalone="no"?>
<!DOCTYPE svg PUBLIC "-//W3C//DTD SVG 1.1//EN"
 "http://www.w3.org/Graphics/SVG/1.1/DTD/svg11.dtd">
<!-- Generated by graphviz version 14.1.4 (20260321.0153)
 -->
<!-- Title: ImFusion::LogViewerWidget Pages: 1 -->
<svg width="348pt" height="83pt"
 viewBox="0.00 0.00 348.00 83.00" xmlns="http://www.w3.org/2000/svg" xmlns:xlink="http://www.w3.org/1999/xlink">
<g id="graph0" class="graph" transform="scale(1 1) rotate(0) translate(4 78.5)">
<title>ImFusion::LogViewerWidget</title>
<!-- Node1 -->
<g id="Node000001" class="node">
<title>Node1</title>
<g id="a_Node000001"><a xlink:title="Logging sink that manifests itself as a Qt widget showing formatted log messages and allowing for bas...">
<polygon fill="#999999" stroke="#666666" points="193.62,-19.25 54.62,-19.25 54.62,0 193.62,0 193.62,-19.25"/>
<text xml:space="preserve" text-anchor="middle" x="124.12" y="-5.75" font-family="Helvetica,sans-Serif" font-size="10.00">ImFusion::LogViewerWidget</text>
</a>
</g>
</g>
<!-- Node2 -->
<g id="Node000002" class="node">
<title>Node2</title>
<g id="a_Node000002"><a xlink:title=" ">
<polygon fill="white" stroke="#bfbfbf" points="54.25,-74.5 0,-74.5 0,-55.25 54.25,-55.25 54.25,-74.5"/>
<text xml:space="preserve" text-anchor="middle" x="27.12" y="-61" font-family="Helvetica,sans-Serif" font-size="10.00">QWidget</text>
</a>
</g>
</g>
<!-- Node2&#45;&gt;Node1 -->
<g id="edge1_Node000001_Node000002" class="edge">
<title>Node2&#45;&gt;Node1</title>
<g id="a_edge1_Node000001_Node000002"><a xlink:title=" ">
<path fill="none" stroke="#63b8ff" d="M53.6,-49.34C70.84,-39.88 92.79,-27.83 107.59,-19.7"/>
<polygon fill="#63b8ff" stroke="#63b8ff" points="51.99,-46.23 44.91,-54.11 55.36,-52.37 51.99,-46.23"/>
</a>
</g>
</g>
<!-- Node3 -->
<g id="Node000003" class="node">
<title>Node3</title>
<g id="a_Node000003"><a xlink:href="class_im_fusion_1_1_log_1_1_sink.html" target="_top" xlink:title="Interface for a logger sink that can receive individual log events.">
<polygon fill="white" stroke="#666666" points="176,-74.5 72.25,-74.5 72.25,-55.25 176,-55.25 176,-74.5"/>
<text xml:space="preserve" text-anchor="middle" x="124.12" y="-61" font-family="Helvetica,sans-Serif" font-size="10.00">ImFusion::Log::Sink</text>
</a>
</g>
</g>
<!-- Node3&#45;&gt;Node1 -->
<g id="edge2_Node000001_Node000003" class="edge">
<title>Node3&#45;&gt;Node1</title>
<g id="a_edge2_Node000001_Node000003"><a xlink:title=" ">
<path fill="none" stroke="#63b8ff" d="M124.12,-43.63C124.12,-35.34 124.12,-26.17 124.12,-19.61"/>
<polygon fill="#63b8ff" stroke="#63b8ff" points="120.63,-43.57 124.13,-53.57 127.63,-43.57 120.63,-43.57"/>
</a>
</g>
</g>
<!-- Node4 -->
<g id="Node000004" class="node">
<title>Node4</title>
<g id="a_Node000004"><a xlink:href="class_im_fusion_1_1_utils_1_1_not_copyable.html" target="_top" xlink:title="Inherit from this class if your class should be neither copy&#45;constructible nor assignable.">
<polygon fill="white" stroke="#666666" points="340,-74.5 194.25,-74.5 194.25,-55.25 340,-55.25 340,-74.5"/>
<text xml:space="preserve" text-anchor="middle" x="267.12" y="-61" font-family="Helvetica,sans-Serif" font-size="10.00">ImFusion::Utils::NotCopyable</text>
</a>
</g>
</g>
<!-- Node4&#45;&gt;Node1 -->
<g id="edge3_Node000001_Node000004" class="edge">
<title>Node4&#45;&gt;Node1</title>
<g id="a_edge3_Node000001_Node000004"><a xlink:title=" ">
<path fill="none" stroke="#8b1a1a" d="M232.34,-50.92C206.38,-41.25 171.55,-28.29 148.5,-19.7"/>
<polygon fill="#8b1a1a" stroke="#8b1a1a" points="230.86,-54.1 241.45,-54.31 233.3,-47.54 230.86,-54.1"/>
</a>
</g>
</g>
</g>
</svg>
