<?xml version="1.0" encoding="UTF-8" standalone="no"?>
<!DOCTYPE svg PUBLIC "-//W3C//DTD SVG 1.1//EN"
 "http://www.w3.org/Graphics/SVG/1.1/DTD/svg11.dtd">
<!-- Generated by graphviz version 14.1.4 (20260321.0153)
 -->
<!-- Title: ImFusion::GUI::SliceView Pages: 1 -->
<svg width="272pt" height="138pt"
 viewBox="0.00 0.00 272.00 138.00" xmlns="http://www.w3.org/2000/svg" xmlns:xlink="http://www.w3.org/1999/xlink">
<g id="graph0" class="graph" transform="scale(1 1) rotate(0) translate(4 133.75)">
<title>ImFusion::GUI::SliceView</title>
<!-- Node1 -->
<g id="Node000001" class="node">
<title>Node1</title>
<g id="a_Node000001"><a xlink:title="2D renderer for SharedImageSets that can be hosted inside a Display.">
<polygon fill="#999999" stroke="#666666" points="193.62,-19.25 63.62,-19.25 63.62,0 193.62,0 193.62,-19.25"/>
<text xml:space="preserve" text-anchor="middle" x="128.62" y="-5.75" font-family="Helvetica,sans-Serif" font-size="10.00">ImFusion::GUI::SliceView</text>
</a>
</g>
</g>
<!-- Node2 -->
<g id="Node000002" class="node">
<title>Node2</title>
<g id="a_Node000002"><a xlink:href="class_im_fusion_1_1_g_u_i_1_1_view.html" target="_top" xlink:title="Base interface for a rendering view (e.g.">
<polygon fill="white" stroke="#666666" points="182.75,-74.5 74.5,-74.5 74.5,-55.25 182.75,-55.25 182.75,-74.5"/>
<text xml:space="preserve" text-anchor="middle" x="128.62" y="-61" font-family="Helvetica,sans-Serif" font-size="10.00">ImFusion::GUI::View</text>
</a>
</g>
</g>
<!-- Node2&#45;&gt;Node1 -->
<g id="edge1_Node000001_Node000002" class="edge">
<title>Node2&#45;&gt;Node1</title>
<g id="a_edge1_Node000001_Node000002"><a xlink:title=" ">
<path fill="none" stroke="#63b8ff" d="M128.62,-43.63C128.62,-35.34 128.62,-26.17 128.62,-19.61"/>
<polygon fill="#63b8ff" stroke="#63b8ff" points="125.13,-43.57 128.63,-53.57 132.13,-43.57 125.13,-43.57"/>
</a>
</g>
</g>
<!-- Node3 -->
<g id="Node000003" class="node">
<title>Node3</title>
<g id="a_Node000003"><a xlink:href="class_im_fusion_1_1_configurable.html" target="_top" xlink:title="Base interface for classes that support object serialization from/to Properties objects.">
<polygon fill="white" stroke="#666666" points="117.25,-129.75 0,-129.75 0,-110.5 117.25,-110.5 117.25,-129.75"/>
<text xml:space="preserve" text-anchor="middle" x="58.62" y="-116.25" font-family="Helvetica,sans-Serif" font-size="10.00">ImFusion::Configurable</text>
</a>
</g>
</g>
<!-- Node3&#45;&gt;Node2 -->
<g id="edge2_Node000002_Node000003" class="edge">
<title>Node3&#45;&gt;Node2</title>
<g id="a_edge2_Node000002_Node000003"><a xlink:title=" ">
<path fill="none" stroke="#63b8ff" d="M79.57,-103.19C91.8,-93.89 106.76,-82.51 116.93,-74.77"/>
<polygon fill="#63b8ff" stroke="#63b8ff" points="77.54,-100.34 71.7,-109.18 81.78,-105.91 77.54,-100.34"/>
</a>
</g>
</g>
<!-- Node4 -->
<g id="Node000004" class="node">
<title>Node4</title>
<g id="a_Node000004"><a xlink:href="class_im_fusion_1_1_signal_receiver.html" target="_top" xlink:title="Base class for classes that can contain slots (i.e.">
<polygon fill="white" stroke="#666666" points="263.88,-129.75 135.38,-129.75 135.38,-110.5 263.88,-110.5 263.88,-129.75"/>
<text xml:space="preserve" text-anchor="middle" x="199.62" y="-116.25" font-family="Helvetica,sans-Serif" font-size="10.00">ImFusion::SignalReceiver</text>
</a>
</g>
</g>
<!-- Node4&#45;&gt;Node2 -->
<g id="edge3_Node000002_Node000004" class="edge">
<title>Node4&#45;&gt;Node2</title>
<g id="a_edge3_Node000002_Node000004"><a xlink:title=" ">
<path fill="none" stroke="#63b8ff" d="M178.38,-103.19C165.98,-93.89 150.8,-82.51 140.49,-74.77"/>
<polygon fill="#63b8ff" stroke="#63b8ff" points="176.27,-105.98 186.37,-109.18 180.47,-100.38 176.27,-105.98"/>
</a>
</g>
</g>
</g>
</svg>
