<?xml version="1.0" encoding="UTF-8" standalone="no"?>
<!DOCTYPE svg PUBLIC "-//W3C//DTD SVG 1.1//EN"
 "http://www.w3.org/Graphics/SVG/1.1/DTD/svg11.dtd">
<!-- Generated by graphviz version 14.1.4 (20260321.0153)
 -->
<!-- Title: ImFusion::DisplacementVisualizer Pages: 1 -->
<svg width="290pt" height="138pt"
 viewBox="0.00 0.00 290.00 138.00" xmlns="http://www.w3.org/2000/svg" xmlns:xlink="http://www.w3.org/1999/xlink">
<g id="graph0" class="graph" transform="scale(1 1) rotate(0) translate(4 133.75)">
<title>ImFusion::DisplacementVisualizer</title>
<!-- Node1 -->
<g id="Node000001" class="node">
<title>Node1</title>
<g id="a_Node000001"><a xlink:title="Algorithm/GlObject hybrid to display an image&#39;s displacement as a vector field in an ImageView2D.">
<polygon fill="#999999" stroke="#666666" points="245.5,-19.25 80.25,-19.25 80.25,0 245.5,0 245.5,-19.25"/>
<text xml:space="preserve" text-anchor="middle" x="162.88" y="-5.75" font-family="Helvetica,sans-Serif" font-size="10.00">ImFusion::DisplacementVisualizer</text>
</a>
</g>
</g>
<!-- Node2 -->
<g id="Node000002" class="node">
<title>Node2</title>
<g id="a_Node000002"><a xlink:href="class_im_fusion_1_1_algorithm.html" target="_top" xlink:title="Interface for describing algorithms that can be made available in the ImFusion Suite through Algorith...">
<polygon fill="white" stroke="#666666" points="154.75,-74.5 51,-74.5 51,-55.25 154.75,-55.25 154.75,-74.5"/>
<text xml:space="preserve" text-anchor="middle" x="102.88" y="-61" font-family="Helvetica,sans-Serif" font-size="10.00">ImFusion::Algorithm</text>
</a>
</g>
</g>
<!-- Node2&#45;&gt;Node1 -->
<g id="edge1_Node000001_Node000002" class="edge">
<title>Node2&#45;&gt;Node1</title>
<g id="a_edge1_Node000001_Node000002"><a xlink:title=" ">
<path fill="none" stroke="#63b8ff" d="M121.45,-47.39C131.81,-38.19 144.31,-27.1 152.85,-19.52"/>
<polygon fill="#63b8ff" stroke="#63b8ff" points="119.34,-44.58 114.19,-53.84 123.99,-49.82 119.34,-44.58"/>
</a>
</g>
</g>
<!-- Node3 -->
<g id="Node000003" class="node">
<title>Node3</title>
<g id="a_Node000003"><a xlink:href="class_im_fusion_1_1_configurable.html" target="_top" xlink:title="Base interface for classes that support object serialization from/to Properties objects.">
<polygon fill="white" stroke="#666666" points="281.5,-129.75 164.25,-129.75 164.25,-110.5 281.5,-110.5 281.5,-129.75"/>
<text xml:space="preserve" text-anchor="middle" x="222.88" y="-116.25" font-family="Helvetica,sans-Serif" font-size="10.00">ImFusion::Configurable</text>
</a>
</g>
</g>
<!-- Node3&#45;&gt;Node2 -->
<g id="edge2_Node000002_Node000003" class="edge">
<title>Node3&#45;&gt;Node2</title>
<g id="a_edge2_Node000002_Node000003"><a xlink:title=" ">
<path fill="none" stroke="#63b8ff" d="M192.22,-105.52C170.6,-95.93 142.24,-83.34 123.33,-74.95"/>
<polygon fill="#63b8ff" stroke="#63b8ff" points="190.58,-108.62 201.14,-109.48 193.41,-102.22 190.58,-108.62"/>
</a>
</g>
</g>
<!-- Node5 -->
<g id="Node000005" class="node">
<title>Node5</title>
<g id="a_Node000005"><a xlink:href="class_im_fusion_1_1_gl_object.html" target="_top" xlink:title="Abstract base class for an renderable OpenGL object that can be hosted in a GlView.">
<polygon fill="white" stroke="#666666" points="273.25,-74.5 172.5,-74.5 172.5,-55.25 273.25,-55.25 273.25,-74.5"/>
<text xml:space="preserve" text-anchor="middle" x="222.88" y="-61" font-family="Helvetica,sans-Serif" font-size="10.00">ImFusion::GlObject</text>
</a>
</g>
</g>
<!-- Node3&#45;&gt;Node5 -->
<g id="edge5_Node000005_Node000003" class="edge">
<title>Node3&#45;&gt;Node5</title>
<g id="a_edge5_Node000005_Node000003"><a xlink:title=" ">
<path fill="none" stroke="#63b8ff" d="M222.88,-98.88C222.88,-90.59 222.88,-81.42 222.88,-74.86"/>
<polygon fill="#63b8ff" stroke="#63b8ff" points="219.38,-98.82 222.88,-108.82 226.38,-98.82 219.38,-98.82"/>
</a>
</g>
</g>
<!-- Node4 -->
<g id="Node000004" class="node">
<title>Node4</title>
<g id="a_Node000004"><a xlink:href="class_im_fusion_1_1_utils_1_1_not_copyable.html" target="_top" xlink:title="Inherit from this class if your class should be neither copy&#45;constructible nor assignable.">
<polygon fill="white" stroke="#666666" points="145.75,-129.75 0,-129.75 0,-110.5 145.75,-110.5 145.75,-129.75"/>
<text xml:space="preserve" text-anchor="middle" x="72.88" y="-116.25" font-family="Helvetica,sans-Serif" font-size="10.00">ImFusion::Utils::NotCopyable</text>
</a>
</g>
</g>
<!-- Node4&#45;&gt;Node2 -->
<g id="edge3_Node000002_Node000004" class="edge">
<title>Node4&#45;&gt;Node2</title>
<g id="a_edge3_Node000002_Node000004"><a xlink:title=" ">
<path fill="none" stroke="#8b1a1a" d="M83.46,-100.33C88.34,-91.67 93.9,-81.81 97.81,-74.86"/>
<polygon fill="#8b1a1a" stroke="#8b1a1a" points="80.43,-98.58 78.57,-109.01 86.53,-102.02 80.43,-98.58"/>
</a>
</g>
</g>
<!-- Node5&#45;&gt;Node1 -->
<g id="edge4_Node000001_Node000005" class="edge">
<title>Node5&#45;&gt;Node1</title>
<g id="a_edge4_Node000001_Node000005"><a xlink:title=" ">
<path fill="none" stroke="#63b8ff" d="M204.3,-47.39C193.94,-38.19 181.44,-27.1 172.9,-19.52"/>
<polygon fill="#63b8ff" stroke="#63b8ff" points="201.76,-49.82 211.56,-53.84 206.41,-44.58 201.76,-49.82"/>
</a>
</g>
</g>
</g>
</svg>
