<?xml version="1.0" encoding="UTF-8" standalone="no"?>
<!DOCTYPE svg PUBLIC "-//W3C//DTD SVG 1.1//EN"
 "http://www.w3.org/Graphics/SVG/1.1/DTD/svg11.dtd">
<!-- Generated by graphviz version 14.1.4 (20260321.0153)
 -->
<!-- Title: ImFusion::Interaction2D Pages: 1 -->
<svg width="262pt" height="160pt"
 viewBox="0.00 0.00 262.00 160.00" xmlns="http://www.w3.org/2000/svg" xmlns:xlink="http://www.w3.org/1999/xlink">
<g id="graph0" class="graph" transform="scale(1 1) rotate(0) translate(4 156.25)">
<title>ImFusion::Interaction2D</title>
<!-- Node1 -->
<g id="Node000001" class="node">
<title>Node1</title>
<g id="a_Node000001"><a xlink:title=" ">
<polygon fill="#999999" stroke="#666666" points="182.62,-19.25 61.62,-19.25 61.62,0 182.62,0 182.62,-19.25"/>
<text xml:space="preserve" text-anchor="middle" x="122.12" y="-5.75" font-family="Helvetica,sans-Serif" font-size="10.00">ImFusion::Interaction2D</text>
</a>
</g>
</g>
<!-- Node2 -->
<g id="Node000002" class="node">
<title>Node2</title>
<g id="a_Node000002"><a xlink:href="class_im_fusion_1_1_g_u_i_1_1_slice_view_default_event_handler.html" target="_top" xlink:title="Implementation of an input event handler providing standard mouse, touch, and keyboard interaction wi...">
<polygon fill="white" stroke="#666666" points="187.12,-85.75 57.12,-85.75 57.12,-55.25 187.12,-55.25 187.12,-85.75"/>
<text xml:space="preserve" text-anchor="start" x="65.12" y="-72.25" font-family="Helvetica,sans-Serif" font-size="10.00">ImFusion::GUI::SliceView</text>
<text xml:space="preserve" text-anchor="middle" x="122.12" y="-61" font-family="Helvetica,sans-Serif" font-size="10.00">DefaultEventHandler</text>
</a>
</g>
</g>
<!-- Node2&#45;&gt;Node1 -->
<g id="edge1_Node000001_Node000002" class="edge">
<title>Node2&#45;&gt;Node1</title>
<g id="a_edge1_Node000001_Node000002"><a xlink:title=" ">
<path fill="none" stroke="#63b8ff" d="M122.12,-43.48C122.12,-34.98 122.12,-26.09 122.12,-19.7"/>
<polygon fill="#63b8ff" stroke="#63b8ff" points="118.63,-43.43 122.13,-53.43 125.63,-43.43 118.63,-43.43"/>
</a>
</g>
</g>
<!-- Node3 -->
<g id="Node000003" class="node">
<title>Node3</title>
<g id="a_Node000003"><a xlink:href="class_im_fusion_1_1_g_u_i_1_1_view_1_1_event_handler.html" target="_top" xlink:title="Interface to be used as base class for event handlers of Views.">
<polygon fill="white" stroke="#666666" points="108.25,-152.25 0,-152.25 0,-121.75 108.25,-121.75 108.25,-152.25"/>
<text xml:space="preserve" text-anchor="start" x="8" y="-138.75" font-family="Helvetica,sans-Serif" font-size="10.00">ImFusion::GUI::View</text>
<text xml:space="preserve" text-anchor="middle" x="54.12" y="-127.5" font-family="Helvetica,sans-Serif" font-size="10.00">::EventHandler</text>
</a>
</g>
</g>
<!-- Node3&#45;&gt;Node2 -->
<g id="edge2_Node000002_Node000003" class="edge">
<title>Node3&#45;&gt;Node2</title>
<g id="a_edge2_Node000002_Node000003"><a xlink:title=" ">
<path fill="none" stroke="#63b8ff" d="M77.62,-113.71C87.26,-104.57 98.16,-94.23 106.76,-86.08"/>
<polygon fill="#63b8ff" stroke="#63b8ff" points="75.5,-110.9 70.65,-120.32 80.32,-115.98 75.5,-110.9"/>
</a>
</g>
</g>
<!-- Node4 -->
<g id="Node000004" class="node">
<title>Node4</title>
<g id="a_Node000004"><a xlink:href="class_im_fusion_1_1_signal_receiver.html" target="_top" xlink:title="Base class for classes that can contain slots (i.e.">
<polygon fill="white" stroke="#666666" points="254.38,-146.62 125.88,-146.62 125.88,-127.38 254.38,-127.38 254.38,-146.62"/>
<text xml:space="preserve" text-anchor="middle" x="190.12" y="-133.12" font-family="Helvetica,sans-Serif" font-size="10.00">ImFusion::SignalReceiver</text>
</a>
</g>
</g>
<!-- Node4&#45;&gt;Node2 -->
<g id="edge3_Node000002_Node000004" class="edge">
<title>Node4&#45;&gt;Node2</title>
<g id="a_edge3_Node000002_Node000004"><a xlink:title=" ">
<path fill="none" stroke="#63b8ff" d="M172.39,-119.18C161.57,-108.91 147.87,-95.92 137.51,-86.09"/>
<polygon fill="#63b8ff" stroke="#63b8ff" points="169.91,-121.65 179.57,-125.99 174.73,-116.57 169.91,-121.65"/>
</a>
</g>
</g>
</g>
</svg>
