<?xml version="1.0" encoding="UTF-8" standalone="no"?>
<!DOCTYPE svg PUBLIC "-//W3C//DTD SVG 1.1//EN"
 "http://www.w3.org/Graphics/SVG/1.1/DTD/svg11.dtd">
<!-- Generated by graphviz version 14.1.4 (20260321.0153)
 -->
<!-- Title: ImFusion::SimilarityMeasureSSIM_GL Pages: 1 -->
<svg width="332pt" height="216pt"
 viewBox="0.00 0.00 332.00 216.00" xmlns="http://www.w3.org/2000/svg" xmlns:xlink="http://www.w3.org/1999/xlink">
<g id="graph0" class="graph" transform="scale(1 1) rotate(0) translate(4 211.5)">
<title>ImFusion::SimilarityMeasureSSIM_GL</title>
<!-- Node1 -->
<g id="Node000001" class="node">
<title>Node1</title>
<g id="a_Node000001"><a xlink:title=" ">
<polygon fill="#999999" stroke="#666666" points="237.88,-30.5 97.38,-30.5 97.38,0 237.88,0 237.88,-30.5"/>
<text xml:space="preserve" text-anchor="start" x="105.38" y="-17" font-family="Helvetica,sans-Serif" font-size="10.00">ImFusion::SimilarityMeasure</text>
<text xml:space="preserve" text-anchor="middle" x="167.62" y="-5.75" font-family="Helvetica,sans-Serif" font-size="10.00">SSIM_GL</text>
</a>
</g>
</g>
<!-- Node2 -->
<g id="Node000002" class="node">
<title>Node2</title>
<g id="a_Node000002"><a xlink:href="class_im_fusion_1_1_similarity_measure_s_s_i_m.html" target="_top" xlink:title=" ">
<polygon fill="white" stroke="#bfbfbf" points="165.25,-91.38 0,-91.38 0,-72.12 165.25,-72.12 165.25,-91.38"/>
<text xml:space="preserve" text-anchor="middle" x="82.62" y="-77.88" font-family="Helvetica,sans-Serif" font-size="10.00">ImFusion::SimilarityMeasureSSIM</text>
</a>
</g>
</g>
<!-- Node2&#45;&gt;Node1 -->
<g id="edge1_Node000001_Node000002" class="edge">
<title>Node2&#45;&gt;Node1</title>
<g id="a_edge1_Node000001_Node000002"><a xlink:title=" ">
<path fill="none" stroke="#63b8ff" d="M103.58,-64.85C117.29,-54.45 135.05,-40.97 148.4,-30.84"/>
<polygon fill="#63b8ff" stroke="#63b8ff" points="101.5,-62.03 95.65,-70.87 105.73,-67.61 101.5,-62.03"/>
</a>
</g>
</g>
<!-- Node3 -->
<g id="Node000003" class="node">
<title>Node3</title>
<g id="a_Node000003"><a xlink:href="class_im_fusion_1_1_similarity_measure_impl.html" target="_top" xlink:title="Base class of a similarity measure between two images.">
<polygon fill="white" stroke="#666666" points="162.25,-152.25 3,-152.25 3,-133 162.25,-133 162.25,-152.25"/>
<text xml:space="preserve" text-anchor="middle" x="82.62" y="-138.75" font-family="Helvetica,sans-Serif" font-size="10.00">ImFusion::SimilarityMeasureImpl</text>
</a>
</g>
</g>
<!-- Node3&#45;&gt;Node2 -->
<g id="edge2_Node000002_Node000003" class="edge">
<title>Node3&#45;&gt;Node2</title>
<g id="a_edge2_Node000002_Node000003"><a xlink:title=" ">
<path fill="none" stroke="#63b8ff" d="M82.62,-121.2C82.62,-111.17 82.62,-99.58 82.62,-91.78"/>
<polygon fill="#63b8ff" stroke="#63b8ff" points="79.13,-121.17 82.63,-131.17 86.13,-121.17 79.13,-121.17"/>
</a>
</g>
</g>
<!-- Node4 -->
<g id="Node000004" class="node">
<title>Node4</title>
<g id="a_Node000004"><a xlink:href="class_im_fusion_1_1_configurable.html" target="_top" xlink:title="Base interface for classes that support object serialization from/to Properties objects.">
<polygon fill="white" stroke="#666666" points="141.25,-207.5 24,-207.5 24,-188.25 141.25,-188.25 141.25,-207.5"/>
<text xml:space="preserve" text-anchor="middle" x="82.62" y="-194" font-family="Helvetica,sans-Serif" font-size="10.00">ImFusion::Configurable</text>
</a>
</g>
</g>
<!-- Node4&#45;&gt;Node3 -->
<g id="edge3_Node000003_Node000004" class="edge">
<title>Node4&#45;&gt;Node3</title>
<g id="a_edge3_Node000003_Node000004"><a xlink:title=" ">
<path fill="none" stroke="#63b8ff" d="M82.62,-176.63C82.62,-168.34 82.62,-159.17 82.62,-152.61"/>
<polygon fill="#63b8ff" stroke="#63b8ff" points="79.13,-176.57 82.63,-186.57 86.13,-176.57 79.13,-176.57"/>
</a>
</g>
</g>
<!-- Node5 -->
<g id="Node000005" class="node">
<title>Node5</title>
<g id="a_Node000005"><a xlink:href="class_im_fusion_1_1_similarity_measure_patch_based___g_l.html" target="_top" xlink:title="Helper class for patch based similarity measures.">
<polygon fill="white" stroke="#666666" points="323.88,-97 183.38,-97 183.38,-66.5 323.88,-66.5 323.88,-97"/>
<text xml:space="preserve" text-anchor="start" x="191.38" y="-83.5" font-family="Helvetica,sans-Serif" font-size="10.00">ImFusion::SimilarityMeasure</text>
<text xml:space="preserve" text-anchor="middle" x="253.62" y="-72.25" font-family="Helvetica,sans-Serif" font-size="10.00">PatchBased_GL</text>
</a>
</g>
</g>
<!-- Node5&#45;&gt;Node1 -->
<g id="edge4_Node000001_Node000005" class="edge">
<title>Node5&#45;&gt;Node1</title>
<g id="a_edge4_Node000001_Node000005"><a xlink:title=" ">
<path fill="none" stroke="#8b1a1a" d="M225.02,-59.29C212.55,-49.94 198.26,-39.23 187.06,-30.83"/>
<polygon fill="#8b1a1a" stroke="#8b1a1a" points="222.8,-62.01 232.9,-65.21 227,-56.41 222.8,-62.01"/>
</a>
</g>
</g>
</g>
</svg>
