<?xml version="1.0" encoding="UTF-8" standalone="no"?>
<!DOCTYPE svg PUBLIC "-//W3C//DTD SVG 1.1//EN"
 "http://www.w3.org/Graphics/SVG/1.1/DTD/svg11.dtd">
<!-- Generated by graphviz version 14.1.4 (20260321.0153)
 -->
<!-- Title: ImFusion::GL::Buffer Pages: 1 -->
<svg width="480pt" height="162pt"
 viewBox="0.00 0.00 480.00 162.00" xmlns="http://www.w3.org/2000/svg" xmlns:xlink="http://www.w3.org/1999/xlink">
<g id="graph0" class="graph" transform="scale(1 1) rotate(0) translate(4 157.88)">
<title>ImFusion::GL::Buffer</title>
<!-- Node1 -->
<g id="Node000001" class="node">
<title>Node1</title>
<g id="a_Node000001"><a xlink:title="Wrapper class for OpenGL Buffer Objects.">
<polygon fill="#999999" stroke="#666666" points="289.25,-83.25 181.75,-83.25 181.75,-64 289.25,-64 289.25,-83.25"/>
<text xml:space="preserve" text-anchor="middle" x="235.5" y="-69.75" font-family="Helvetica,sans-Serif" font-size="10.00">ImFusion::GL::Buffer</text>
</a>
</g>
</g>
<!-- Node3 -->
<g id="Node000003" class="node">
<title>Node3</title>
<g id="a_Node000003"><a xlink:href="class_im_fusion_1_1_g_l_1_1_atomic_counter_buffer.html" target="_top" xlink:title="Specialization of Buffer for OpenGL Atomic Counter Objects.">
<polygon fill="white" stroke="#666666" points="471.75,-153.88 325.25,-153.88 325.25,-123.38 471.75,-123.38 471.75,-153.88"/>
<text xml:space="preserve" text-anchor="start" x="333.25" y="-140.38" font-family="Helvetica,sans-Serif" font-size="10.00">ImFusion::GL::AtomicCounter</text>
<text xml:space="preserve" text-anchor="middle" x="398.5" y="-129.12" font-family="Helvetica,sans-Serif" font-size="10.00">Buffer</text>
</a>
</g>
</g>
<!-- Node1&#45;&gt;Node3 -->
<g id="edge2_Node000001_Node000003" class="edge">
<title>Node1&#45;&gt;Node3</title>
<g id="a_edge2_Node000001_Node000003"><a xlink:title=" ">
<path fill="none" stroke="#63b8ff" d="M266.58,-88.54C283.6,-96.72 305.38,-106.77 325.25,-114.62 332.5,-117.49 340.25,-120.32 347.88,-122.96"/>
<polygon fill="#63b8ff" stroke="#63b8ff" points="268.55,-85.61 258.02,-84.39 265.49,-91.91 268.55,-85.61"/>
</a>
</g>
</g>
<!-- Node4 -->
<g id="Node000004" class="node">
<title>Node4</title>
<g id="a_Node000004"><a xlink:href="class_im_fusion_1_1_g_l_1_1_index_buffer.html" target="_top" xlink:title="Specialization of Buffer to store vertex index data (GL_ELEMENT_ARRAY_BUFFER).">
<polygon fill="white" stroke="#666666" points="464.25,-105.25 332.75,-105.25 332.75,-86 464.25,-86 464.25,-105.25"/>
<text xml:space="preserve" text-anchor="middle" x="398.5" y="-91.75" font-family="Helvetica,sans-Serif" font-size="10.00">ImFusion::GL::IndexBuffer</text>
</a>
</g>
</g>
<!-- Node1&#45;&gt;Node4 -->
<g id="edge3_Node000001_Node000004" class="edge">
<title>Node1&#45;&gt;Node4</title>
<g id="a_edge3_Node000001_Node000004"><a xlink:title=" ">
<path fill="none" stroke="#63b8ff" d="M300.76,-82.41C311.15,-83.83 321.91,-85.3 332.33,-86.72"/>
<polygon fill="#63b8ff" stroke="#63b8ff" points="301.55,-78.98 291.16,-81.09 300.6,-85.92 301.55,-78.98"/>
</a>
</g>
</g>
<!-- Node5 -->
<g id="Node000005" class="node">
<title>Node5</title>
<g id="a_Node000005"><a xlink:href="class_im_fusion_1_1_g_l_1_1_shader_storage_buffer.html" target="_top" xlink:title="Specialization of Buffer for OpenGL Shader Storage Buffer Object.">
<polygon fill="white" stroke="#666666" points="471.38,-67.88 325.62,-67.88 325.62,-37.38 471.38,-37.38 471.38,-67.88"/>
<text xml:space="preserve" text-anchor="start" x="333.62" y="-54.38" font-family="Helvetica,sans-Serif" font-size="10.00">ImFusion::GL::ShaderStorage</text>
<text xml:space="preserve" text-anchor="middle" x="398.5" y="-43.12" font-family="Helvetica,sans-Serif" font-size="10.00">Buffer</text>
</a>
</g>
</g>
<!-- Node1&#45;&gt;Node5 -->
<g id="edge4_Node000001_Node000005" class="edge">
<title>Node1&#45;&gt;Node5</title>
<g id="a_edge4_Node000001_Node000005"><a xlink:title=" ">
<path fill="none" stroke="#63b8ff" d="M301.07,-65.2C308.99,-64.17 317.12,-63.11 325.14,-62.06"/>
<polygon fill="#63b8ff" stroke="#63b8ff" points="300.63,-61.73 291.16,-66.49 301.53,-68.67 300.63,-61.73"/>
</a>
</g>
</g>
<!-- Node6 -->
<g id="Node000006" class="node">
<title>Node6</title>
<g id="a_Node000006"><a xlink:href="class_im_fusion_1_1_g_l_1_1_vertex_buffer.html" target="_top" xlink:title="Specialization of Buffer to store vertex array data.">
<polygon fill="white" stroke="#666666" points="466.5,-19.25 330.5,-19.25 330.5,0 466.5,0 466.5,-19.25"/>
<text xml:space="preserve" text-anchor="middle" x="398.5" y="-5.75" font-family="Helvetica,sans-Serif" font-size="10.00">ImFusion::GL::VertexBuffer</text>
</a>
</g>
</g>
<!-- Node1&#45;&gt;Node6 -->
<g id="edge5_Node000001_Node000006" class="edge">
<title>Node1&#45;&gt;Node6</title>
<g id="a_edge5_Node000001_Node000006"><a xlink:title=" ">
<path fill="none" stroke="#63b8ff" d="M263.6,-57.99C280.83,-48.53 303.85,-36.76 325.25,-28.62 334.1,-25.26 343.78,-22.27 353.09,-19.71"/>
<polygon fill="#63b8ff" stroke="#63b8ff" points="262.02,-54.86 255,-62.79 265.44,-60.97 262.02,-54.86"/>
</a>
</g>
</g>
<!-- Node2 -->
<g id="Node000002" class="node">
<title>Node2</title>
<g id="a_Node000002"><a xlink:href="class_im_fusion_1_1_utils_1_1_not_copyable.html" target="_top" xlink:title="Inherit from this class if your class should be neither copy&#45;constructible nor assignable.">
<polygon fill="white" stroke="#666666" points="145.75,-83.25 0,-83.25 0,-64 145.75,-64 145.75,-83.25"/>
<text xml:space="preserve" text-anchor="middle" x="72.88" y="-69.75" font-family="Helvetica,sans-Serif" font-size="10.00">ImFusion::Utils::NotCopyable</text>
</a>
</g>
</g>
<!-- Node2&#45;&gt;Node1 -->
<g id="edge1_Node000001_Node000002" class="edge">
<title>Node2&#45;&gt;Node1</title>
<g id="a_edge1_Node000001_Node000002"><a xlink:title=" ">
<path fill="none" stroke="#8b1a1a" d="M157.6,-73.62C165.67,-73.62 173.69,-73.62 181.33,-73.62"/>
<polygon fill="#8b1a1a" stroke="#8b1a1a" points="157.71,-70.13 147.71,-73.63 157.71,-77.13 157.71,-70.13"/>
</a>
</g>
</g>
</g>
</svg>
