<?xml version="1.0" encoding="UTF-8" standalone="no"?>
<!DOCTYPE svg PUBLIC "-//W3C//DTD SVG 1.1//EN"
 "http://www.w3.org/Graphics/SVG/1.1/DTD/svg11.dtd">
<!-- Generated by graphviz version 14.1.4 (20260321.0153)
 -->
<!-- Title: ImFusion::GlPlotLegend Pages: 1 -->
<svg width="280pt" height="138pt"
 viewBox="0.00 0.00 280.00 138.00" xmlns="http://www.w3.org/2000/svg" xmlns:xlink="http://www.w3.org/1999/xlink">
<g id="graph0" class="graph" transform="scale(1 1) rotate(0) translate(4 133.75)">
<title>ImFusion::GlPlotLegend</title>
<!-- Node1 -->
<g id="Node000001" class="node">
<title>Node1</title>
<g id="a_Node000001"><a xlink:title="Display legend of a plot view as an overlay Color and marker styles replicate the plot style,...">
<polygon fill="#999999" stroke="#666666" points="200.38,-19.25 79.38,-19.25 79.38,0 200.38,0 200.38,-19.25"/>
<text xml:space="preserve" text-anchor="middle" x="139.88" y="-5.75" font-family="Helvetica,sans-Serif" font-size="10.00">ImFusion::GlPlotLegend</text>
</a>
</g>
</g>
<!-- Node2 -->
<g id="Node000002" class="node">
<title>Node2</title>
<g id="a_Node000002"><a xlink:href="class_im_fusion_1_1_gl_overlay.html" target="_top" xlink:title="Abstract base class for OpenGL overlays.">
<polygon fill="white" stroke="#666666" points="125.88,-74.5 19.88,-74.5 19.88,-55.25 125.88,-55.25 125.88,-74.5"/>
<text xml:space="preserve" text-anchor="middle" x="72.88" y="-61" font-family="Helvetica,sans-Serif" font-size="10.00">ImFusion::GlOverlay</text>
</a>
</g>
</g>
<!-- Node2&#45;&gt;Node1 -->
<g id="edge1_Node000001_Node000002" class="edge">
<title>Node2&#45;&gt;Node1</title>
<g id="a_edge1_Node000001_Node000002"><a xlink:title=" ">
<path fill="none" stroke="#63b8ff" d="M92.92,-47.94C104.62,-38.64 118.95,-27.26 128.68,-19.52"/>
<polygon fill="#63b8ff" stroke="#63b8ff" points="91.08,-44.94 85.43,-53.9 95.43,-50.42 91.08,-44.94"/>
</a>
</g>
</g>
<!-- Node3 -->
<g id="Node000003" class="node">
<title>Node3</title>
<g id="a_Node000003"><a xlink:href="class_im_fusion_1_1_utils_1_1_not_copyable.html" target="_top" xlink:title="Inherit from this class if your class should be neither copy&#45;constructible nor assignable.">
<polygon fill="white" stroke="#666666" points="145.75,-129.75 0,-129.75 0,-110.5 145.75,-110.5 145.75,-129.75"/>
<text xml:space="preserve" text-anchor="middle" x="72.88" y="-116.25" font-family="Helvetica,sans-Serif" font-size="10.00">ImFusion::Utils::NotCopyable</text>
</a>
</g>
</g>
<!-- Node3&#45;&gt;Node2 -->
<g id="edge2_Node000002_Node000003" class="edge">
<title>Node3&#45;&gt;Node2</title>
<g id="a_edge2_Node000002_Node000003"><a xlink:title=" ">
<path fill="none" stroke="#8b1a1a" d="M72.88,-98.88C72.88,-90.59 72.88,-81.42 72.88,-74.86"/>
<polygon fill="#8b1a1a" stroke="#8b1a1a" points="69.38,-98.82 72.88,-108.82 76.38,-98.82 69.38,-98.82"/>
</a>
</g>
</g>
<!-- Node4 -->
<g id="Node000004" class="node">
<title>Node4</title>
<g id="a_Node000004"><a xlink:href="class_im_fusion_1_1_signal_receiver.html" target="_top" xlink:title="Base class for classes that can contain slots (i.e.">
<polygon fill="white" stroke="#666666" points="272.12,-74.5 143.62,-74.5 143.62,-55.25 272.12,-55.25 272.12,-74.5"/>
<text xml:space="preserve" text-anchor="middle" x="207.88" y="-61" font-family="Helvetica,sans-Serif" font-size="10.00">ImFusion::SignalReceiver</text>
</a>
</g>
</g>
<!-- Node4&#45;&gt;Node1 -->
<g id="edge3_Node000001_Node000004" class="edge">
<title>Node4&#45;&gt;Node1</title>
<g id="a_edge3_Node000001_Node000004"><a xlink:title=" ">
<path fill="none" stroke="#63b8ff" d="M187.53,-47.94C175.65,-38.64 161.11,-27.26 151.24,-19.52"/>
<polygon fill="#63b8ff" stroke="#63b8ff" points="185.12,-50.5 195.15,-53.91 189.43,-44.99 185.12,-50.5"/>
</a>
</g>
</g>
</g>
</svg>
