<?xml version="1.0" encoding="UTF-8" standalone="no"?>
<!DOCTYPE svg PUBLIC "-//W3C//DTD SVG 1.1//EN"
 "http://www.w3.org/Graphics/SVG/1.1/DTD/svg11.dtd">
<!-- Generated by graphviz version 14.1.4 (20260321.0153)
 -->
<!-- Title: ImFusion::Dicom::SequenceBase Pages: 1 -->
<!--zoomable 582 -->

<svg id="main" version="1.1" xmlns="http://www.w3.org/2000/svg" xmlns:xlink="http://www.w3.org/1999/xlink" xml:space="preserve" onload="init(evt)">

<style type="text/css"><![CDATA[
.node, .edge {opacity: 0.7;}
.node.selected, .edge.selected {opacity: 1;}
.edge:hover path { stroke: red; }
.edge:hover polygon { stroke: red; fill: red; }
]]></style>

<defs>
  <circle id="rim" cx="0" cy="0" r="7"/>
  <circle id="rim2" cx="0" cy="0" r="3.5"/>
  <g id="zoomPlus">
    <use xlink:href="#rim" fill="#404040"><set attributeName="fill" to="#808080" begin="zoomplus.mouseover" end="zoomplus.mouseout"/></use>
    <path d="M-4,0h8M0,-4v8" fill="none" stroke="white" stroke-width="1.5" pointer-events="none"/>
  </g>
  <g id="zoomMin">
    <use xlink:href="#rim" fill="#404040"><set attributeName="fill" to="#808080" begin="zoomminus.mouseover" end="zoomminus.mouseout"/></use>
    <path d="M-4,0h8" fill="none" stroke="white" stroke-width="1.5" pointer-events="none"/>
  </g>
  <g id="arrowUp" transform="translate(30 24)">
    <use xlink:href="#rim"/>
    <path pointer-events="none" fill="none" stroke="white" stroke-width="1.5" d="M0,-3.0v7 M-2.5,-0.5L0,-3.0L2.5,-0.5"/>
  </g>
  <g id="arrowRight" transform="rotate(90) translate(36 -43)">
    <use xlink:href="#rim"/>
    <path pointer-events="none" fill="none" stroke="white" stroke-width="1.5" d="M0,-3.0v7 M-2.5,-0.5L0,-3.0L2.5,-0.5"/>
  </g>
  <g id="arrowDown" transform="rotate(180) translate(-30 -48)">
    <use xlink:href="#rim"/>
    <path pointer-events="none" fill="none" stroke="white" stroke-width="1.5" d="M0,-3.0v7 M-2.5,-0.5L0,-3.0L2.5,-0.5"/>
  </g>
  <g id="arrowLeft" transform="rotate(270) translate(-36 17)">
    <use xlink:href="#rim"/>
    <path pointer-events="none" fill="none" stroke="white" stroke-width="1.5" d="M0,-3.0v7 M-2.5,-0.5L0,-3.0L2.5,-0.5"/>
  </g>
  <g id="resetDef">
    <use xlink:href="#rim2" fill="#404040"><set attributeName="fill" to="#808080" begin="reset.mouseover" end="reset.mouseout"/></use>
  </g>
</defs>
<script type="application/ecmascript">
var viewWidth = 1008;
var viewHeight = 582;
var sectionId = 'dynsection-0';
</script>
<script type="application/ecmascript" xlink:href="svg.min.js"/>
<svg id="graph" class="graph">
<g id="viewport">
<title>ImFusion::Dicom::SequenceBase</title>
<!-- Node1 -->
<g id="Node000001" class="node">
<title>Node1</title>
<g id="a_Node000001"><a xlink:title="Abstract base class for a sequence of elements.">
<polygon fill="#999999" stroke="#666666" points="538.5,-271.88 375.5,-271.88 375.5,-252.62 538.5,-252.62 538.5,-271.88"/>
<text xml:space="preserve" text-anchor="middle" x="457" y="-258.38" font-family="Helvetica,sans-Serif" font-size="10.00">ImFusion::Dicom::SequenceBase</text>
</a>
</g>
</g>
<!-- Node5 -->
<g id="Node000005" class="node">
<title>Node5</title>
<g id="a_Node000005"><a xlink:href="class_im_fusion_1_1_dicom_1_1_sequence.html" target="_top" xlink:title=" ">
<polygon fill="white" stroke="#666666" points="794.12,-574.12 592.12,-574.12 592.12,-532.38 794.12,-532.38 794.12,-574.12"/>
<text xml:space="preserve" text-anchor="start" x="600.12" y="-560.62" font-family="Helvetica,sans-Serif" font-size="10.00">ImFusion::Dicom::Sequence</text>
<text xml:space="preserve" text-anchor="start" x="600.12" y="-549.38" font-family="Helvetica,sans-Serif" font-size="10.00">&lt; ImFusion::Dicom::EnhancedMulti</text>
<text xml:space="preserve" text-anchor="middle" x="693.12" y="-538.12" font-family="Helvetica,sans-Serif" font-size="10.00">FrameImageIOD::FunctionalGroupMacro &gt;</text>
</a>
</g>
</g>
<!-- Node1&#45;&gt;Node5 -->
<g id="edge4_Node000001_Node000005" class="edge">
<title>Node1&#45;&gt;Node5</title>
<g id="a_edge4_Node000001_Node000005"><a xlink:title=" ">
<path fill="none" stroke="#63b8ff" d="M461.14,-283.62C469.65,-333.59 497.89,-458.67 574.5,-523.25 579.74,-527.66 585.54,-531.44 591.68,-534.67"/>
<polygon fill="#63b8ff" stroke="#63b8ff" points="464.62,-283.19 459.59,-273.87 457.71,-284.29 464.62,-283.19"/>
</a>
</g>
</g>
<!-- Node6 -->
<g id="Node000006" class="node">
<title>Node6</title>
<g id="a_Node000006"><a xlink:href="class_im_fusion_1_1_dicom_1_1_sequence.html" target="_top" xlink:title=" ">
<polygon fill="white" stroke="#666666" points="811.75,-514.12 574.5,-514.12 574.5,-472.38 811.75,-472.38 811.75,-514.12"/>
<text xml:space="preserve" text-anchor="start" x="582.5" y="-500.62" font-family="Helvetica,sans-Serif" font-size="10.00">ImFusion::Dicom::Sequence</text>
<text xml:space="preserve" text-anchor="start" x="582.5" y="-489.38" font-family="Helvetica,sans-Serif" font-size="10.00">&lt; ImFusion::Dicom::EnhancedMulti</text>
<text xml:space="preserve" text-anchor="middle" x="693.12" y="-478.12" font-family="Helvetica,sans-Serif" font-size="10.00">FrameImageIOD::DimensionIndexSequenceItem &gt;</text>
</a>
</g>
</g>
<!-- Node1&#45;&gt;Node6 -->
<g id="edge5_Node000001_Node000006" class="edge">
<title>Node1&#45;&gt;Node6</title>
<g id="a_edge5_Node000001_Node000006"><a xlink:title=" ">
<path fill="none" stroke="#63b8ff" d="M463.89,-282.94C476.74,-324.19 511.32,-416.74 574.5,-464.25 578.28,-467.09 582.31,-469.66 586.51,-471.98"/>
<polygon fill="#63b8ff" stroke="#63b8ff" points="467.3,-282.14 461.09,-273.56 460.6,-284.14 467.3,-282.14"/>
</a>
</g>
</g>
<!-- Node7 -->
<g id="Node000007" class="node">
<title>Node7</title>
<g id="a_Node000007"><a xlink:href="class_im_fusion_1_1_dicom_1_1_sequence.html" target="_top" xlink:title=" ">
<polygon fill="white" stroke="#666666" points="789.62,-454.75 596.62,-454.75 596.62,-401.75 789.62,-401.75 789.62,-454.75"/>
<text xml:space="preserve" text-anchor="start" x="604.62" y="-441.25" font-family="Helvetica,sans-Serif" font-size="10.00">ImFusion::Dicom::Sequence</text>
<text xml:space="preserve" text-anchor="start" x="604.62" y="-430" font-family="Helvetica,sans-Serif" font-size="10.00">&lt; ImFusion::Dicom::EnhancedMulti</text>
<text xml:space="preserve" text-anchor="start" x="604.62" y="-418.75" font-family="Helvetica,sans-Serif" font-size="10.00">FrameImageIOD::FunctionalGroupMacro</text>
<text xml:space="preserve" text-anchor="middle" x="693.12" y="-407.5" font-family="Helvetica,sans-Serif" font-size="10.00">::SegmentIdentificationSequenceItem &gt;</text>
</a>
</g>
</g>
<!-- Node1&#45;&gt;Node7 -->
<g id="edge6_Node000001_Node000007" class="edge">
<title>Node1&#45;&gt;Node7</title>
<g id="a_edge6_Node000001_Node000007"><a xlink:title=" ">
<path fill="none" stroke="#63b8ff" d="M470.2,-281.83C489.07,-310.5 528.05,-363.7 574.5,-393.25 581.33,-397.6 588.73,-401.42 596.37,-404.79"/>
<polygon fill="#63b8ff" stroke="#63b8ff" points="473.15,-279.94 464.8,-273.42 467.26,-283.72 473.15,-279.94"/>
</a>
</g>
</g>
<!-- Node8 -->
<g id="Node000008" class="node">
<title>Node8</title>
<g id="a_Node000008"><a xlink:href="class_im_fusion_1_1_dicom_1_1_sequence.html" target="_top" xlink:title=" ">
<polygon fill="white" stroke="#666666" points="789.62,-383.75 596.62,-383.75 596.62,-330.75 789.62,-330.75 789.62,-383.75"/>
<text xml:space="preserve" text-anchor="start" x="604.62" y="-370.25" font-family="Helvetica,sans-Serif" font-size="10.00">ImFusion::Dicom::Sequence</text>
<text xml:space="preserve" text-anchor="start" x="604.62" y="-359" font-family="Helvetica,sans-Serif" font-size="10.00">&lt; ImFusion::Dicom::EnhancedMulti</text>
<text xml:space="preserve" text-anchor="start" x="604.62" y="-347.75" font-family="Helvetica,sans-Serif" font-size="10.00">FrameImageIOD::FunctionalGroupMacro</text>
<text xml:space="preserve" text-anchor="middle" x="693.12" y="-336.5" font-family="Helvetica,sans-Serif" font-size="10.00">::FrameContentSequenceItem &gt;</text>
</a>
</g>
</g>
<!-- Node1&#45;&gt;Node8 -->
<g id="edge7_Node000001_Node000008" class="edge">
<title>Node1&#45;&gt;Node8</title>
<g id="a_edge7_Node000001_Node000008"><a xlink:title=" ">
<path fill="none" stroke="#63b8ff" d="M484.68,-277.81C507.87,-290.89 542.65,-309.44 574.5,-322.25 581.52,-325.07 588.85,-327.78 596.28,-330.36"/>
<polygon fill="#63b8ff" stroke="#63b8ff" points="486.63,-274.89 476.21,-272.98 483.16,-280.97 486.63,-274.89"/>
</a>
</g>
</g>
<!-- Node9 -->
<g id="Node000009" class="node">
<title>Node9</title>
<g id="a_Node000009"><a xlink:href="class_im_fusion_1_1_dicom_1_1_sequence.html" target="_top" xlink:title=" ">
<polygon fill="white" stroke="#666666" points="773.5,-313.12 612.75,-313.12 612.75,-271.38 773.5,-271.38 773.5,-313.12"/>
<text xml:space="preserve" text-anchor="start" x="620.75" y="-299.62" font-family="Helvetica,sans-Serif" font-size="10.00">ImFusion::Dicom::Sequence</text>
<text xml:space="preserve" text-anchor="start" x="620.75" y="-288.38" font-family="Helvetica,sans-Serif" font-size="10.00">&lt; ImFusion::Dicom::ImagePlane</text>
<text xml:space="preserve" text-anchor="middle" x="693.12" y="-277.12" font-family="Helvetica,sans-Serif" font-size="10.00">::DetectorInformationSequence &gt;</text>
</a>
</g>
</g>
<!-- Node1&#45;&gt;Node9 -->
<g id="edge8_Node000001_Node000009" class="edge">
<title>Node1&#45;&gt;Node9</title>
<g id="a_edge8_Node000001_Node000009"><a xlink:title=" ">
<path fill="none" stroke="#63b8ff" d="M548.19,-273.81C569.33,-276.52 591.69,-279.38 612.33,-282.03"/>
<polygon fill="#63b8ff" stroke="#63b8ff" points="548.8,-270.36 538.44,-272.56 547.91,-277.3 548.8,-270.36"/>
</a>
</g>
</g>
<!-- Node10 -->
<g id="Node000010" class="node">
<title>Node10</title>
<g id="a_Node000010"><a xlink:href="class_im_fusion_1_1_dicom_1_1_sequence.html" target="_top" xlink:title=" ">
<polygon fill="white" stroke="#666666" points="773.88,-253.12 612.38,-253.12 612.38,-211.38 773.88,-211.38 773.88,-253.12"/>
<text xml:space="preserve" text-anchor="start" x="620.38" y="-239.62" font-family="Helvetica,sans-Serif" font-size="10.00">ImFusion::Dicom::Sequence</text>
<text xml:space="preserve" text-anchor="start" x="620.38" y="-228.38" font-family="Helvetica,sans-Serif" font-size="10.00">&lt; ImFusion::Dicom::ModalityLUT</text>
<text xml:space="preserve" text-anchor="middle" x="693.12" y="-217.12" font-family="Helvetica,sans-Serif" font-size="10.00">::LutItem &gt;</text>
</a>
</g>
</g>
<!-- Node1&#45;&gt;Node10 -->
<g id="edge9_Node000001_Node000010" class="edge">
<title>Node1&#45;&gt;Node10</title>
<g id="a_edge9_Node000001_Node000010"><a xlink:title=" ">
<path fill="none" stroke="#63b8ff" d="M548.13,-250.7C569.15,-248.01 591.38,-245.16 611.94,-242.53"/>
<polygon fill="#63b8ff" stroke="#63b8ff" points="547.91,-247.2 538.44,-251.94 548.8,-254.14 547.91,-247.2"/>
</a>
</g>
</g>
<!-- Node11 -->
<g id="Node000011" class="node">
<title>Node11</title>
<g id="a_Node000011"><a xlink:href="class_im_fusion_1_1_dicom_1_1_sequence.html" target="_top" xlink:title=" ">
<polygon fill="white" stroke="#666666" points="775.38,-193.12 610.88,-193.12 610.88,-151.38 775.38,-151.38 775.38,-193.12"/>
<text xml:space="preserve" text-anchor="start" x="618.88" y="-179.62" font-family="Helvetica,sans-Serif" font-size="10.00">ImFusion::Dicom::Sequence</text>
<text xml:space="preserve" text-anchor="start" x="618.88" y="-168.38" font-family="Helvetica,sans-Serif" font-size="10.00">&lt; ImFusion::Dicom::SegmentItem</text>
<text xml:space="preserve" text-anchor="middle" x="693.12" y="-157.12" font-family="Helvetica,sans-Serif" font-size="10.00">::SegmentedPropertyCode &gt;</text>
</a>
</g>
</g>
<!-- Node1&#45;&gt;Node11 -->
<g id="edge10_Node000001_Node000011" class="edge">
<title>Node1&#45;&gt;Node11</title>
<g id="a_edge10_Node000001_Node000011"><a xlink:title=" ">
<path fill="none" stroke="#63b8ff" d="M484.16,-246.6C507.27,-233.31 542.22,-214.5 574.5,-202.25 585.93,-197.91 598.22,-194 610.39,-190.55"/>
<polygon fill="#63b8ff" stroke="#63b8ff" points="482.61,-243.45 475.74,-251.51 486.14,-249.5 482.61,-243.45"/>
</a>
</g>
</g>
<!-- Node12 -->
<g id="Node000012" class="node">
<title>Node12</title>
<g id="a_Node000012"><a xlink:href="class_im_fusion_1_1_dicom_1_1_sequence.html" target="_top" xlink:title=" ">
<polygon fill="white" stroke="#666666" points="779.88,-133.5 606.38,-133.5 606.38,-103 779.88,-103 779.88,-133.5"/>
<text xml:space="preserve" text-anchor="start" x="614.38" y="-120" font-family="Helvetica,sans-Serif" font-size="10.00">ImFusion::Dicom::Sequence</text>
<text xml:space="preserve" text-anchor="middle" x="693.12" y="-108.75" font-family="Helvetica,sans-Serif" font-size="10.00">&lt; ImFusion::Dicom::SegmentItem &gt;</text>
</a>
</g>
</g>
<!-- Node1&#45;&gt;Node12 -->
<g id="edge11_Node000001_Node000012" class="edge">
<title>Node1&#45;&gt;Node12</title>
<g id="a_edge11_Node000001_Node000012"><a xlink:title=" ">
<path fill="none" stroke="#63b8ff" d="M470.87,-243.04C490.06,-215.99 528.88,-167.22 574.5,-142.25 584.28,-136.9 595.11,-132.73 606.13,-129.5"/>
<polygon fill="#63b8ff" stroke="#63b8ff" points="468.17,-240.78 465.36,-251 473.93,-244.77 468.17,-240.78"/>
</a>
</g>
</g>
<!-- Node14 -->
<g id="Node000014" class="node">
<title>Node14</title>
<g id="a_Node000014"><a xlink:href="class_im_fusion_1_1_dicom_1_1_sequence.html" target="_top" xlink:title=" ">
<polygon fill="white" stroke="#666666" points="785.88,-85.12 600.38,-85.12 600.38,-43.38 785.88,-43.38 785.88,-85.12"/>
<text xml:space="preserve" text-anchor="start" x="608.38" y="-71.62" font-family="Helvetica,sans-Serif" font-size="10.00">ImFusion::Dicom::Sequence</text>
<text xml:space="preserve" text-anchor="start" x="608.38" y="-60.38" font-family="Helvetica,sans-Serif" font-size="10.00">&lt; ImFusion::Dicom::VOILUTExtension</text>
<text xml:space="preserve" text-anchor="middle" x="693.12" y="-49.12" font-family="Helvetica,sans-Serif" font-size="10.00">::VOILUT::LutItem &gt;</text>
</a>
</g>
</g>
<!-- Node1&#45;&gt;Node14 -->
<g id="edge13_Node000001_Node000014" class="edge">
<title>Node1&#45;&gt;Node14</title>
<g id="a_edge13_Node000001_Node000014"><a xlink:title=" ">
<path fill="none" stroke="#63b8ff" d="M466.3,-241.94C481.94,-206.29 519.24,-132.64 574.5,-94.25 582.29,-88.84 590.97,-84.4 600,-80.77"/>
<polygon fill="#63b8ff" stroke="#63b8ff" points="463.11,-240.5 462.42,-251.07 469.55,-243.23 463.11,-240.5"/>
</a>
</g>
</g>
<!-- Node15 -->
<g id="Node000015" class="node">
<title>Node15</title>
<g id="a_Node000015"><a xlink:href="class_im_fusion_1_1_dicom_1_1_sequence.html" target="_top" xlink:title="Concrete sequence of items of type T, which must be derived from SequenceItem.">
<polygon fill="white" stroke="#666666" points="775.38,-24.88 610.88,-24.88 610.88,-5.62 775.38,-5.62 775.38,-24.88"/>
<text xml:space="preserve" text-anchor="middle" x="693.12" y="-11.38" font-family="Helvetica,sans-Serif" font-size="10.00">ImFusion::Dicom::Sequence&lt; T &gt;</text>
</a>
</g>
</g>
<!-- Node1&#45;&gt;Node15 -->
<g id="edge14_Node000001_Node000015" class="edge">
<title>Node1&#45;&gt;Node15</title>
<g id="a_edge14_Node000001_Node000015"><a xlink:title=" ">
<path fill="none" stroke="#63b8ff" d="M462.08,-241.3C472.18,-195.5 502.89,-86.38 574.5,-34.25 585.12,-26.52 597.71,-21.45 610.63,-18.21"/>
<polygon fill="#63b8ff" stroke="#63b8ff" points="458.68,-240.46 460.07,-250.96 465.53,-241.88 458.68,-240.46"/>
</a>
</g>
</g>
<!-- Node2 -->
<g id="Node000002" class="node">
<title>Node2</title>
<g id="a_Node000002"><a xlink:href="class_im_fusion_1_1_dicom_1_1_element_base.html" target="_top" xlink:title="Abstract base class for DICOM Elements.">
<polygon fill="white" stroke="#666666" points="338.38,-290.88 182.88,-290.88 182.88,-271.62 338.38,-271.62 338.38,-290.88"/>
<text xml:space="preserve" text-anchor="middle" x="260.62" y="-277.38" font-family="Helvetica,sans-Serif" font-size="10.00">ImFusion::Dicom::ElementBase</text>
</a>
</g>
</g>
<!-- Node2&#45;&gt;Node1 -->
<g id="edge1_Node000001_Node000002" class="edge">
<title>Node2&#45;&gt;Node1</title>
<g id="a_edge1_Node000001_Node000002"><a xlink:title=" ">
<path fill="none" stroke="#63b8ff" d="M350.06,-272.61C358.42,-271.79 366.87,-270.96 375.16,-270.15"/>
<polygon fill="#63b8ff" stroke="#63b8ff" points="349.84,-269.11 340.23,-273.57 350.53,-276.08 349.84,-269.11"/>
</a>
</g>
</g>
<!-- Node3 -->
<g id="Node000003" class="node">
<title>Node3</title>
<g id="a_Node000003"><a xlink:href="class_im_fusion_1_1_utils_1_1_not_copyable.html" target="_top" xlink:title="Inherit from this class if your class should be neither copy&#45;constructible nor assignable.">
<polygon fill="white" stroke="#666666" points="145.75,-290.88 0,-290.88 0,-271.62 145.75,-271.62 145.75,-290.88"/>
<text xml:space="preserve" text-anchor="middle" x="72.88" y="-277.38" font-family="Helvetica,sans-Serif" font-size="10.00">ImFusion::Utils::NotCopyable</text>
</a>
</g>
</g>
<!-- Node3&#45;&gt;Node2 -->
<g id="edge2_Node000002_Node000003" class="edge">
<title>Node3&#45;&gt;Node2</title>
<g id="a_edge2_Node000002_Node000003"><a xlink:title=" ">
<path fill="none" stroke="#8b1a1a" d="M157.51,-281.25C165.85,-281.25 174.29,-281.25 182.56,-281.25"/>
<polygon fill="#8b1a1a" stroke="#8b1a1a" points="157.74,-277.75 147.74,-281.25 157.74,-284.75 157.74,-277.75"/>
</a>
</g>
</g>
<!-- Node4 -->
<g id="Node000004" class="node">
<title>Node4</title>
<g id="a_Node000004"><a xlink:href="class_im_fusion_1_1_dicom_1_1_error_recorder.html" target="_top" xlink:title="Error handling interface for the Dicom module.">
<polygon fill="white" stroke="#666666" points="339.5,-253.88 181.75,-253.88 181.75,-234.62 339.5,-234.62 339.5,-253.88"/>
<text xml:space="preserve" text-anchor="middle" x="260.62" y="-240.38" font-family="Helvetica,sans-Serif" font-size="10.00">ImFusion::Dicom::ErrorRecorder</text>
</a>
</g>
</g>
<!-- Node4&#45;&gt;Node1 -->
<g id="edge3_Node000001_Node000004" class="edge">
<title>Node4&#45;&gt;Node1</title>
<g id="a_edge3_Node000001_Node000004"><a xlink:title=" ">
<path fill="none" stroke="#63b8ff" d="M351.09,-252.53C359.09,-253.28 367.16,-254.02 375.09,-254.76"/>
<polygon fill="#63b8ff" stroke="#63b8ff" points="351.63,-249.07 341.35,-251.63 350.99,-256.04 351.63,-249.07"/>
</a>
</g>
</g>
<!-- Node13 -->
<g id="Node000013" class="node">
<title>Node13</title>
<g id="a_Node000013"><a xlink:href="class_im_fusion_1_1_dicom_1_1_configurable_sequence.html" target="_top" xlink:title=" ">
<polygon fill="white" stroke="#bfbfbf" points="999.5,-139.12 847.75,-139.12 847.75,-97.38 999.5,-97.38 999.5,-139.12"/>
<text xml:space="preserve" text-anchor="start" x="855.75" y="-125.62" font-family="Helvetica,sans-Serif" font-size="10.00">ImFusion::Dicom::Configurable</text>
<text xml:space="preserve" text-anchor="start" x="855.75" y="-114.38" font-family="Helvetica,sans-Serif" font-size="10.00">Sequence&lt; ImFusion::Dicom</text>
<text xml:space="preserve" text-anchor="middle" x="923.62" y="-103.12" font-family="Helvetica,sans-Serif" font-size="10.00">::SegmentItem &gt;</text>
</a>
</g>
</g>
<!-- Node12&#45;&gt;Node13 -->
<g id="edge12_Node000012_Node000013" class="edge">
<title>Node12&#45;&gt;Node13</title>
<g id="a_edge12_Node000012_Node000013"><a xlink:title=" ">
<path fill="none" stroke="#63b8ff" d="M791.45,-118.25C810.21,-118.25 829.59,-118.25 847.51,-118.25"/>
<polygon fill="#63b8ff" stroke="#63b8ff" points="791.7,-114.75 781.7,-118.25 791.7,-121.75 791.7,-114.75"/>
</a>
</g>
</g>
<!-- Node16 -->
<g id="Node000016" class="node">
<title>Node16</title>
<g id="a_Node000016"><a xlink:href="class_im_fusion_1_1_dicom_1_1_configurable_sequence.html" target="_top" xlink:title=" ">
<polygon fill="white" stroke="#bfbfbf" points="999.5,-30.5 847.75,-30.5 847.75,0 999.5,0 999.5,-30.5"/>
<text xml:space="preserve" text-anchor="start" x="855.75" y="-17" font-family="Helvetica,sans-Serif" font-size="10.00">ImFusion::Dicom::Configurable</text>
<text xml:space="preserve" text-anchor="middle" x="923.62" y="-5.75" font-family="Helvetica,sans-Serif" font-size="10.00">Sequence&lt; T &gt;</text>
</a>
</g>
</g>
<!-- Node15&#45;&gt;Node16 -->
<g id="edge15_Node000015_Node000016" class="edge">
<title>Node15&#45;&gt;Node16</title>
<g id="a_edge15_Node000015_Node000016"><a xlink:title=" ">
<path fill="none" stroke="#63b8ff" d="M787.06,-15.25C807.2,-15.25 828.26,-15.25 847.61,-15.25"/>
<polygon fill="#63b8ff" stroke="#63b8ff" points="787.16,-11.75 777.16,-15.25 787.16,-18.75 787.16,-11.75"/>
</a>
</g>
</g>
</g>
</svg>

<g id="navigator" transform="translate(0 0)" fill="#404254">
  <rect fill="#f2f5e9" fill-opacity="0.5" stroke="#606060" stroke-width=".5" x="0" y="0" width="60" height="60"/>
  <use id="zoomplus" xlink:href="#zoomPlus" x="17" y="9" onmousedown="handleZoom(evt,'in')"/>
  <use id="zoomminus" xlink:href="#zoomMin" x="42" y="9" onmousedown="handleZoom(evt,'out')"/>
  <use id="reset" xlink:href="#resetDef" x="30" y="36" onmousedown="handleReset()"/>
   <use id="arrowup" xlink:href="#arrowUp" x="0" y="0" onmousedown="handlePan(0,-1)"/>
  <use id="arrowright" xlink:href="#arrowRight" x="0" y="0" onmousedown="handlePan(1,0)"/>
  <use id="arrowdown" xlink:href="#arrowDown" x="0" y="0" onmousedown="handlePan(0,1)"/>
  <use id="arrowleft" xlink:href="#arrowLeft" x="0" y="0" onmousedown="handlePan(-1,0)"/>
</g>
<svg viewBox="0 0 15 15" width="100%" height="30px" preserveAspectRatio="xMaxYMin meet">
 <g id="arrow_out" transform="scale(0.3 0.3)">
  <a xlink:href="class_im_fusion_1_1_dicom_1_1_sequence_base__inherit__graph_org.svg" target="_base">
   <rect id="button" ry="5" rx="5" y="6" x="6" height="38" width="38"
        fill="#f2f5e9" fill-opacity="0.5" stroke="#606060" stroke-width="1.0"/>
   <path id="arrow"
     d="M 11.500037,31.436501 C 11.940474,20.09759 22.043105,11.32322 32.158766,21.979434 L 37.068811,17.246167 C 37.068811,17.246167 37.088388,32 37.088388,32 L 22.160133,31.978069 C 22.160133,31.978069 26.997745,27.140456 26.997745,27.140456 C 18.528582,18.264221 13.291696,25.230495 11.500037,31.436501 z"
     style="fill:#404040;"/>
  </a>
 </g>
</svg>

<style type='text/css'>
<![CDATA[
[data-mouse-over-selected='false'] { opacity: 0.7; }
[data-mouse-over-selected='true']  { opacity: 1.0; }
]]>
</style>
<script type="application/ecmascript"><![CDATA[
document.addEventListener('DOMContentLoaded', (event) => {
  highlightEdges();
  highlightAdjacentNodes();
});
]]></script>
</svg>
