<?xml version="1.0" encoding="UTF-8" standalone="no"?>
<!DOCTYPE svg PUBLIC "-//W3C//DTD SVG 1.1//EN"
 "http://www.w3.org/Graphics/SVG/1.1/DTD/svg11.dtd">
<!-- Generated by graphviz version 14.1.4 (20260321.0153)
 -->
<!-- Title: ImFusion::Image Pages: 1 -->
<svg width="587pt" height="309pt"
 viewBox="0.00 0.00 587.00 309.00" xmlns="http://www.w3.org/2000/svg" xmlns:xlink="http://www.w3.org/1999/xlink">
<g id="graph0" class="graph" transform="scale(1 1) rotate(0) translate(4 305.25)">
<title>ImFusion::Image</title>
<!-- Node1 -->
<g id="Node000001" class="node">
<title>Node1</title>
<g id="a_Node000001"><a xlink:title="Base class and interface for images.">
<polygon fill="#999999" stroke="#666666" points="242.75,-249.25 153.25,-249.25 153.25,-230 242.75,-230 242.75,-249.25"/>
<text xml:space="preserve" text-anchor="middle" x="198" y="-235.75" font-family="Helvetica,sans-Serif" font-size="10.00">ImFusion::Image</text>
</a>
</g>
</g>
<!-- Node3 -->
<g id="Node000003" class="node">
<title>Node3</title>
<g id="a_Node000003"><a xlink:href="class_im_fusion_1_1_custom_image.html" target="_top" xlink:title="Base interface for custom Image types that can be converted from/to MemImages and are supported by Sh...">
<polygon fill="white" stroke="#666666" points="402.75,-286.25 278.75,-286.25 278.75,-267 402.75,-267 402.75,-286.25"/>
<text xml:space="preserve" text-anchor="middle" x="340.75" y="-272.75" font-family="Helvetica,sans-Serif" font-size="10.00">ImFusion::CustomImage</text>
</a>
</g>
</g>
<!-- Node1&#45;&gt;Node3 -->
<g id="edge2_Node000001_Node000003" class="edge">
<title>Node1&#45;&gt;Node3</title>
<g id="a_edge2_Node000001_Node000003"><a xlink:title=" ">
<path fill="none" stroke="#63b8ff" d="M248.53,-252.65C265.86,-257.2 285.05,-262.25 301.34,-266.53"/>
<polygon fill="#63b8ff" stroke="#63b8ff" points="249.49,-249.28 238.92,-250.12 247.71,-256.05 249.49,-249.28"/>
</a>
</g>
</g>
<!-- Node4 -->
<g id="Node000004" class="node">
<title>Node4</title>
<g id="a_Node000004"><a xlink:href="class_im_fusion_1_1_gl_image.html" target="_top" xlink:title="Image representation stored as OpenGL texture.">
<polygon fill="white" stroke="#666666" points="390.38,-249.25 291.12,-249.25 291.12,-230 390.38,-230 390.38,-249.25"/>
<text xml:space="preserve" text-anchor="middle" x="340.75" y="-235.75" font-family="Helvetica,sans-Serif" font-size="10.00">ImFusion::GlImage</text>
</a>
</g>
</g>
<!-- Node1&#45;&gt;Node4 -->
<g id="edge3_Node000001_Node000004" class="edge">
<title>Node1&#45;&gt;Node4</title>
<g id="a_edge3_Node000001_Node000004"><a xlink:title=" ">
<path fill="none" stroke="#63b8ff" d="M254.44,-239.62C266.47,-239.62 279.11,-239.62 290.87,-239.62"/>
<polygon fill="#63b8ff" stroke="#63b8ff" points="254.66,-236.13 244.66,-239.63 254.66,-243.13 254.66,-236.13"/>
</a>
</g>
</g>
<!-- Node6 -->
<g id="Node000006" class="node">
<title>Node6</title>
<g id="a_Node000006"><a xlink:href="class_im_fusion_1_1_mem_image.html" target="_top" xlink:title="Abstract base class for an image residing in main memory.">
<polygon fill="white" stroke="#666666" points="396.38,-160.25 285.12,-160.25 285.12,-141 396.38,-141 396.38,-160.25"/>
<text xml:space="preserve" text-anchor="middle" x="340.75" y="-146.75" font-family="Helvetica,sans-Serif" font-size="10.00">ImFusion::MemImage</text>
</a>
</g>
</g>
<!-- Node1&#45;&gt;Node6 -->
<g id="edge5_Node000001_Node000006" class="edge">
<title>Node1&#45;&gt;Node6</title>
<g id="a_edge5_Node000001_Node000006"><a xlink:title=" ">
<path fill="none" stroke="#63b8ff" d="M224.34,-223.6C253.36,-205.25 300.01,-175.75 324.15,-160.49"/>
<polygon fill="#63b8ff" stroke="#63b8ff" points="222.73,-220.48 216.15,-228.78 226.47,-226.39 222.73,-220.48"/>
</a>
</g>
</g>
<!-- Node2 -->
<g id="Node000002" class="node">
<title>Node2</title>
<g id="a_Node000002"><a xlink:href="class_im_fusion_1_1_configurable.html" target="_top" xlink:title="Base interface for classes that support object serialization from/to Properties objects.">
<polygon fill="white" stroke="#666666" points="117.25,-249.25 0,-249.25 0,-230 117.25,-230 117.25,-249.25"/>
<text xml:space="preserve" text-anchor="middle" x="58.62" y="-235.75" font-family="Helvetica,sans-Serif" font-size="10.00">ImFusion::Configurable</text>
</a>
</g>
</g>
<!-- Node2&#45;&gt;Node1 -->
<g id="edge1_Node000001_Node000002" class="edge">
<title>Node2&#45;&gt;Node1</title>
<g id="a_edge1_Node000001_Node000002"><a xlink:title=" ">
<path fill="none" stroke="#63b8ff" d="M128.99,-239.62C137.15,-239.62 145.31,-239.62 152.98,-239.62"/>
<polygon fill="#63b8ff" stroke="#63b8ff" points="129,-236.13 119,-239.63 129,-243.13 129,-236.13"/>
</a>
</g>
</g>
<!-- Node5 -->
<g id="Node000005" class="node">
<title>Node5</title>
<g id="a_Node000005"><a xlink:href="class_im_fusion_1_1_gl_colormap.html" target="_top" xlink:title="Wrapper around GlImage to create 1D look&#45;up tables that provides presets for common used colormaps.">
<polygon fill="white" stroke="#666666" points="565.75,-301.25 451.5,-301.25 451.5,-282 565.75,-282 565.75,-301.25"/>
<text xml:space="preserve" text-anchor="middle" x="508.62" y="-287.75" font-family="Helvetica,sans-Serif" font-size="10.00">ImFusion::GlColormap</text>
</a>
</g>
</g>
<!-- Node4&#45;&gt;Node5 -->
<g id="edge4_Node000004_Node000005" class="edge">
<title>Node4&#45;&gt;Node5</title>
<g id="a_edge4_Node000004_Node000005"><a xlink:title=" ">
<path fill="none" stroke="#63b8ff" d="M389.14,-253.06C393.76,-254.53 398.36,-256.07 402.75,-257.62 419.09,-263.42 422.36,-266.98 438.75,-272.62 448.01,-275.82 458.12,-278.85 467.66,-281.52"/>
<polygon fill="#63b8ff" stroke="#63b8ff" points="390.44,-249.8 379.85,-250.19 388.37,-256.49 390.44,-249.8"/>
</a>
</g>
</g>
<!-- Node7 -->
<g id="Node000007" class="node">
<title>Node7</title>
<g id="a_Node000007"><a xlink:href="class_im_fusion_1_1_typed_image.html" target="_top" xlink:title=" ">
<polygon fill="white" stroke="#666666" points="566.5,-263.88 450.75,-263.88 450.75,-233.38 566.5,-233.38 566.5,-263.88"/>
<text xml:space="preserve" text-anchor="start" x="458.75" y="-250.38" font-family="Helvetica,sans-Serif" font-size="10.00">ImFusion::TypedImage</text>
<text xml:space="preserve" text-anchor="middle" x="508.62" y="-239.12" font-family="Helvetica,sans-Serif" font-size="10.00">&lt; unsigned int &gt;</text>
</a>
</g>
</g>
<!-- Node6&#45;&gt;Node7 -->
<g id="edge6_Node000006_Node000007" class="edge">
<title>Node6&#45;&gt;Node7</title>
<g id="a_edge6_Node000006_Node000007"><a xlink:title=" ">
<path fill="none" stroke="#63b8ff" d="M361.16,-168C379.94,-184.11 409.74,-207.9 438.75,-223.62 445.01,-227.02 451.83,-230.13 458.66,-232.91"/>
<polygon fill="#63b8ff" stroke="#63b8ff" points="363.62,-165.5 353.78,-161.56 359.01,-170.77 363.62,-165.5"/>
</a>
</g>
</g>
<!-- Node8 -->
<g id="Node000008" class="node">
<title>Node8</title>
<g id="a_Node000008"><a xlink:href="class_im_fusion_1_1_typed_image.html" target="_top" xlink:title=" ">
<polygon fill="white" stroke="#666666" points="566.5,-214.88 450.75,-214.88 450.75,-184.38 566.5,-184.38 566.5,-214.88"/>
<text xml:space="preserve" text-anchor="start" x="458.75" y="-201.38" font-family="Helvetica,sans-Serif" font-size="10.00">ImFusion::TypedImage</text>
<text xml:space="preserve" text-anchor="middle" x="508.62" y="-190.12" font-family="Helvetica,sans-Serif" font-size="10.00">&lt; unsigned char &gt;</text>
</a>
</g>
</g>
<!-- Node6&#45;&gt;Node8 -->
<g id="edge7_Node000006_Node000008" class="edge">
<title>Node6&#45;&gt;Node8</title>
<g id="a_edge7_Node000006_Node000008"><a xlink:title=" ">
<path fill="none" stroke="#63b8ff" d="M386.56,-163.86C407.48,-170.04 432.55,-177.45 454.43,-183.91"/>
<polygon fill="#63b8ff" stroke="#63b8ff" points="387.75,-160.56 377.17,-161.09 385.77,-167.28 387.75,-160.56"/>
</a>
</g>
</g>
<!-- Node9 -->
<g id="Node000009" class="node">
<title>Node9</title>
<g id="a_Node000009"><a xlink:href="class_im_fusion_1_1_typed_image.html" target="_top" xlink:title=" ">
<polygon fill="white" stroke="#666666" points="566.5,-165.88 450.75,-165.88 450.75,-135.38 566.5,-135.38 566.5,-165.88"/>
<text xml:space="preserve" text-anchor="start" x="458.75" y="-152.38" font-family="Helvetica,sans-Serif" font-size="10.00">ImFusion::TypedImage</text>
<text xml:space="preserve" text-anchor="middle" x="508.62" y="-141.12" font-family="Helvetica,sans-Serif" font-size="10.00">&lt; float &gt;</text>
</a>
</g>
</g>
<!-- Node6&#45;&gt;Node9 -->
<g id="edge8_Node000006_Node000009" class="edge">
<title>Node6&#45;&gt;Node9</title>
<g id="a_edge8_Node000006_Node000009"><a xlink:title=" ">
<path fill="none" stroke="#63b8ff" d="M407.67,-150.62C421.78,-150.62 436.59,-150.62 450.35,-150.62"/>
<polygon fill="#63b8ff" stroke="#63b8ff" points="408.04,-147.13 398.04,-150.63 408.04,-154.13 408.04,-147.13"/>
</a>
</g>
</g>
<!-- Node10 -->
<g id="Node000010" class="node">
<title>Node10</title>
<g id="a_Node000010"><a xlink:href="class_im_fusion_1_1_typed_image.html" target="_top" xlink:title=" ">
<polygon fill="white" stroke="#666666" points="566.5,-116.88 450.75,-116.88 450.75,-86.38 566.5,-86.38 566.5,-116.88"/>
<text xml:space="preserve" text-anchor="start" x="458.75" y="-103.38" font-family="Helvetica,sans-Serif" font-size="10.00">ImFusion::TypedImage</text>
<text xml:space="preserve" text-anchor="middle" x="508.62" y="-92.12" font-family="Helvetica,sans-Serif" font-size="10.00">&lt; uint8_t &gt;</text>
</a>
</g>
</g>
<!-- Node6&#45;&gt;Node10 -->
<g id="edge9_Node000006_Node000010" class="edge">
<title>Node6&#45;&gt;Node10</title>
<g id="a_edge9_Node000006_Node000010"><a xlink:title=" ">
<path fill="none" stroke="#63b8ff" d="M386.56,-137.39C407.48,-131.21 432.55,-123.8 454.43,-117.34"/>
<polygon fill="#63b8ff" stroke="#63b8ff" points="385.77,-133.97 377.17,-140.16 387.75,-140.69 385.77,-133.97"/>
</a>
</g>
</g>
<!-- Node11 -->
<g id="Node000011" class="node">
<title>Node11</title>
<g id="a_Node000011"><a xlink:href="class_im_fusion_1_1_typed_image.html" target="_top" xlink:title=" ">
<polygon fill="white" stroke="#666666" points="566.5,-67.88 450.75,-67.88 450.75,-37.38 566.5,-37.38 566.5,-67.88"/>
<text xml:space="preserve" text-anchor="start" x="458.75" y="-54.38" font-family="Helvetica,sans-Serif" font-size="10.00">ImFusion::TypedImage</text>
<text xml:space="preserve" text-anchor="middle" x="508.62" y="-43.12" font-family="Helvetica,sans-Serif" font-size="10.00">&lt; int &gt;</text>
</a>
</g>
</g>
<!-- Node6&#45;&gt;Node11 -->
<g id="edge10_Node000006_Node000011" class="edge">
<title>Node6&#45;&gt;Node11</title>
<g id="a_edge10_Node000006_Node000011"><a xlink:title=" ">
<path fill="none" stroke="#63b8ff" d="M361.16,-133.25C379.94,-117.14 409.74,-93.35 438.75,-77.62 445.01,-74.23 451.83,-71.12 458.66,-68.34"/>
<polygon fill="#63b8ff" stroke="#63b8ff" points="359.01,-130.48 353.78,-139.69 363.62,-135.75 359.01,-130.48"/>
</a>
</g>
</g>
<!-- Node12 -->
<g id="Node000012" class="node">
<title>Node12</title>
<g id="a_Node000012"><a xlink:href="class_im_fusion_1_1_typed_image.html" target="_top" xlink:title="Concrete implementation of a MemImage for a given pixel type.">
<polygon fill="white" stroke="#666666" points="578.5,-19.25 438.75,-19.25 438.75,0 578.5,0 578.5,-19.25"/>
<text xml:space="preserve" text-anchor="middle" x="508.62" y="-5.75" font-family="Helvetica,sans-Serif" font-size="10.00">ImFusion::TypedImage&lt; T &gt;</text>
</a>
</g>
</g>
<!-- Node6&#45;&gt;Node12 -->
<g id="edge11_Node000006_Node000012" class="edge">
<title>Node6&#45;&gt;Node12</title>
<g id="a_edge11_Node000006_Node000012"><a xlink:title=" ">
<path fill="none" stroke="#63b8ff" d="M352.21,-130.74C367.53,-103.54 398.67,-55.12 438.75,-28.62 444.23,-25 450.4,-22.06 456.73,-19.68"/>
<polygon fill="#63b8ff" stroke="#63b8ff" points="349.24,-128.87 347.52,-139.33 355.38,-132.23 349.24,-128.87"/>
</a>
</g>
</g>
</g>
</svg>
