<?xml version="1.0" encoding="UTF-8" standalone="no"?>
<!DOCTYPE svg PUBLIC "-//W3C//DTD SVG 1.1//EN"
 "http://www.w3.org/Graphics/SVG/1.1/DTD/svg11.dtd">
<!-- Generated by graphviz version 14.1.4 (20260321.0153)
 -->
<!-- Title: ImFusion::GlCurvedViewSpline Pages: 1 -->
<svg width="377pt" height="304pt"
 viewBox="0.00 0.00 377.00 304.00" xmlns="http://www.w3.org/2000/svg" xmlns:xlink="http://www.w3.org/1999/xlink">

<svg id="main" version="1.1" xmlns="http://www.w3.org/2000/svg" xmlns:xlink="http://www.w3.org/1999/xlink" xml:space="preserve">

<style type="text/css"><![CDATA[
.node, .edge {opacity: 0.7;}
.node.selected, .edge.selected {opacity: 1;}
.edge:hover path { stroke: red; }
.edge:hover polygon { stroke: red; fill: red; }
]]></style>
<script type="application/ecmascript" xlink:href="svg.min.js"/>
<svg id="graph" class="graph">
<g id="graph0" class="graph" transform="scale(1 1) rotate(0) translate(4 299.5)">
<title>ImFusion::GlCurvedViewSpline</title>
<!-- Node1 -->
<g id="Node000001" class="node">
<title>Node1</title>
<g id="a_Node000001"><a xlink:title="Spline annotation for curved views.">
<polygon fill="#999999" stroke="#666666" points="301.62,-19.25 149.12,-19.25 149.12,0 301.62,0 301.62,-19.25"/>
<text xml:space="preserve" text-anchor="middle" x="225.38" y="-5.75" font-family="Helvetica,sans-Serif" font-size="10.00">ImFusion::GlCurvedViewSpline</text>
</a>
</g>
</g>
<!-- Node2 -->
<g id="Node000002" class="node">
<title>Node2</title>
<g id="a_Node000002"><a xlink:href="class_im_fusion_1_1_gl_spline.html" target="_top" xlink:title="Spline annotation.">
<polygon fill="white" stroke="#666666" points="236,-74.5 136.75,-74.5 136.75,-55.25 236,-55.25 236,-74.5"/>
<text xml:space="preserve" text-anchor="middle" x="186.38" y="-61" font-family="Helvetica,sans-Serif" font-size="10.00">ImFusion::GlSpline</text>
</a>
</g>
</g>
<!-- Node2&#45;&gt;Node1 -->
<g id="edge1_Node000001_Node000002" class="edge">
<title>Node2&#45;&gt;Node1</title>
<g id="a_edge1_Node000001_Node000002"><a xlink:title=" ">
<path fill="none" stroke="#63b8ff" d="M199.51,-45.94C206,-37.09 213.54,-26.79 218.8,-19.61"/>
<polygon fill="#63b8ff" stroke="#63b8ff" points="196.79,-43.73 193.71,-53.86 202.44,-47.86 196.79,-43.73"/>
</a>
</g>
</g>
<!-- Node3 -->
<g id="Node000003" class="node">
<title>Node3</title>
<g id="a_Node000003"><a xlink:href="class_im_fusion_1_1_gl_point_based_annotation.html" target="_top" xlink:title="Base class for implementing point&#45;based annotations.">
<polygon fill="white" stroke="#666666" points="242.88,-129.75 73.88,-129.75 73.88,-110.5 242.88,-110.5 242.88,-129.75"/>
<text xml:space="preserve" text-anchor="middle" x="158.38" y="-116.25" font-family="Helvetica,sans-Serif" font-size="10.00">ImFusion::GlPointBasedAnnotation</text>
</a>
</g>
</g>
<!-- Node3&#45;&gt;Node2 -->
<g id="edge2_Node000002_Node000003" class="edge">
<title>Node3&#45;&gt;Node2</title>
<g id="a_edge2_Node000002_Node000003"><a xlink:title=" ">
<path fill="none" stroke="#63b8ff" d="M168.26,-100.33C172.81,-91.67 178,-81.81 181.65,-74.86"/>
<polygon fill="#63b8ff" stroke="#63b8ff" points="165.26,-98.51 163.7,-108.99 171.45,-101.77 165.26,-98.51"/>
</a>
</g>
</g>
<!-- Node4 -->
<g id="Node000004" class="node">
<title>Node4</title>
<g id="a_Node000004"><a xlink:href="class_im_fusion_1_1_gl_annotation.html" target="_top" xlink:title="Base class for implementing annotations.">
<polygon fill="white" stroke="#666666" points="197.75,-185 79,-185 79,-165.75 197.75,-165.75 197.75,-185"/>
<text xml:space="preserve" text-anchor="middle" x="138.38" y="-171.5" font-family="Helvetica,sans-Serif" font-size="10.00">ImFusion::GlAnnotation</text>
</a>
</g>
</g>
<!-- Node4&#45;&gt;Node3 -->
<g id="edge3_Node000003_Node000004" class="edge">
<title>Node4&#45;&gt;Node3</title>
<g id="a_edge3_Node000003_Node000004"><a xlink:title=" ">
<path fill="none" stroke="#63b8ff" d="M145.65,-155C148.85,-146.49 152.45,-136.9 155,-130.11"/>
<polygon fill="#63b8ff" stroke="#63b8ff" points="142.45,-153.57 142.21,-164.16 149,-156.03 142.45,-153.57"/>
</a>
</g>
</g>
<!-- Node5 -->
<g id="Node000005" class="node">
<title>Node5</title>
<g id="a_Node000005"><a xlink:href="class_im_fusion_1_1_gl_object.html" target="_top" xlink:title="Abstract base class for an renderable OpenGL object that can be hosted in a GlView.">
<polygon fill="white" stroke="#666666" points="100.75,-240.25 0,-240.25 0,-221 100.75,-221 100.75,-240.25"/>
<text xml:space="preserve" text-anchor="middle" x="50.38" y="-226.75" font-family="Helvetica,sans-Serif" font-size="10.00">ImFusion::GlObject</text>
</a>
</g>
</g>
<!-- Node5&#45;&gt;Node4 -->
<g id="edge4_Node000004_Node000005" class="edge">
<title>Node5&#45;&gt;Node4</title>
<g id="a_edge4_Node000004_Node000005"><a xlink:title=" ">
<path fill="none" stroke="#63b8ff" d="M74.84,-214.82C90.41,-205.4 110.08,-193.5 123.37,-185.45"/>
<polygon fill="#63b8ff" stroke="#63b8ff" points="73.34,-211.64 66.6,-219.81 76.97,-217.63 73.34,-211.64"/>
</a>
</g>
</g>
<!-- Node6 -->
<g id="Node000006" class="node">
<title>Node6</title>
<g id="a_Node000006"><a xlink:href="class_im_fusion_1_1_configurable.html" target="_top" xlink:title="Base interface for classes that support object serialization from/to Properties objects.">
<polygon fill="white" stroke="#666666" points="230,-295.5 112.75,-295.5 112.75,-276.25 230,-276.25 230,-295.5"/>
<text xml:space="preserve" text-anchor="middle" x="171.38" y="-282" font-family="Helvetica,sans-Serif" font-size="10.00">ImFusion::Configurable</text>
</a>
</g>
</g>
<!-- Node6&#45;&gt;Node5 -->
<g id="edge5_Node000005_Node000006" class="edge">
<title>Node6&#45;&gt;Node5</title>
<g id="a_edge5_Node000005_Node000006"><a xlink:title=" ">
<path fill="none" stroke="#63b8ff" d="M140.46,-271.27C118.66,-261.68 90.07,-249.09 71,-240.7"/>
<polygon fill="#63b8ff" stroke="#63b8ff" points="138.9,-274.41 149.46,-275.23 141.72,-268 138.9,-274.41"/>
</a>
</g>
</g>
<!-- Node8 -->
<g id="Node000008" class="node">
<title>Node8</title>
<g id="a_Node000008"><a xlink:href="class_im_fusion_1_1_curved_view_primitive.html" target="_top" xlink:title="Interface for curved view primitives.">
<polygon fill="white" stroke="#666666" points="369.38,-185 215.38,-185 215.38,-165.75 369.38,-165.75 369.38,-185"/>
<text xml:space="preserve" text-anchor="middle" x="292.38" y="-171.5" font-family="Helvetica,sans-Serif" font-size="10.00">ImFusion::CurvedViewPrimitive</text>
</a>
</g>
</g>
<!-- Node6&#45;&gt;Node8 -->
<g id="edge8_Node000008_Node000006" class="edge">
<title>Node6&#45;&gt;Node8</title>
<g id="a_edge8_Node000008_Node000006"><a xlink:title=" ">
<path fill="none" stroke="#63b8ff" d="M223.13,-272.05C241.2,-265.26 260.22,-255.13 273.38,-240.25 287.32,-224.47 291.04,-198.84 292.03,-185.35"/>
<polygon fill="#63b8ff" stroke="#63b8ff" points="222.1,-268.7 213.79,-275.27 224.38,-275.32 222.1,-268.7"/>
</a>
</g>
</g>
<!-- Node7 -->
<g id="Node000007" class="node">
<title>Node7</title>
<g id="a_Node000007"><a xlink:href="class_im_fusion_1_1_utils_1_1_not_copyable.html" target="_top" xlink:title="Inherit from this class if your class should be neither copy&#45;constructible nor assignable.">
<polygon fill="white" stroke="#666666" points="264.25,-240.25 118.5,-240.25 118.5,-221 264.25,-221 264.25,-240.25"/>
<text xml:space="preserve" text-anchor="middle" x="191.38" y="-226.75" font-family="Helvetica,sans-Serif" font-size="10.00">ImFusion::Utils::NotCopyable</text>
</a>
</g>
</g>
<!-- Node7&#45;&gt;Node4 -->
<g id="edge6_Node000004_Node000007" class="edge">
<title>Node7&#45;&gt;Node4</title>
<g id="a_edge6_Node000004_Node000007"><a xlink:title=" ">
<path fill="none" stroke="#8b1a1a" d="M174.65,-212.82C165.6,-203.73 154.77,-192.85 147.32,-185.36"/>
<polygon fill="#8b1a1a" stroke="#8b1a1a" points="172.02,-215.14 181.56,-219.76 176.98,-210.2 172.02,-215.14"/>
</a>
</g>
</g>
<!-- Node8&#45;&gt;Node1 -->
<g id="edge7_Node000001_Node000008" class="edge">
<title>Node8&#45;&gt;Node1</title>
<g id="a_edge7_Node000001_Node000008"><a xlink:title=" ">
<path fill="none" stroke="#63b8ff" d="M284.91,-154.64C275.86,-130.92 260,-89.97 245.38,-55.25 240.1,-42.73 233.61,-28.43 229.48,-19.46"/>
<polygon fill="#63b8ff" stroke="#63b8ff" points="281.61,-155.83 288.44,-163.94 288.16,-153.35 281.61,-155.83"/>
</a>
</g>
</g>
</g>
</svg>
</svg>

<style type='text/css'>
<![CDATA[
[data-mouse-over-selected='false'] { opacity: 0.7; }
[data-mouse-over-selected='true']  { opacity: 1.0; }
]]>
</style>
<script type="application/ecmascript"><![CDATA[
document.addEventListener('DOMContentLoaded', (event) => {
  highlightEdges();
  highlightAdjacentNodes();
});
]]></script>
</svg>
