<?xml version="1.0" encoding="UTF-8" standalone="no"?>
<!DOCTYPE svg PUBLIC "-//W3C//DTD SVG 1.1//EN"
 "http://www.w3.org/Graphics/SVG/1.1/DTD/svg11.dtd">
<!-- Generated by graphviz version 14.1.4 (20260321.0153)
 -->
<!-- Title: ImFusion::Dicom::VOILUTExtension Pages: 1 -->
<svg width="185pt" height="138pt"
 viewBox="0.00 0.00 185.00 138.00" xmlns="http://www.w3.org/2000/svg" xmlns:xlink="http://www.w3.org/1999/xlink">
<g id="graph0" class="graph" transform="scale(1 1) rotate(0) translate(4 133.75)">
<title>ImFusion::Dicom::VOILUTExtension</title>
<!-- Node1 -->
<g id="Node000001" class="node">
<title>Node1</title>
<g id="a_Node000001"><a xlink:title="VOI LUT Module (PS 3.3 C.11.2) Loads and saves windowing related values to and from DisplayOptions2d.">
<polygon fill="#999999" stroke="#666666" points="176.5,-19.25 0,-19.25 0,0 176.5,0 176.5,-19.25"/>
<text xml:space="preserve" text-anchor="middle" x="88.25" y="-5.75" font-family="Helvetica,sans-Serif" font-size="10.00">ImFusion::Dicom::VOILUTExtension</text>
</a>
</g>
</g>
<!-- Node2 -->
<g id="Node000002" class="node">
<title>Node2</title>
<g id="a_Node000002"><a xlink:href="class_im_fusion_1_1_dicom_1_1_extension.html" target="_top" xlink:title="Interface for adding custom functionality to DicomLoader and DicomWriter An Extension might be called...">
<polygon fill="white" stroke="#666666" points="158.5,-74.5 18,-74.5 18,-55.25 158.5,-55.25 158.5,-74.5"/>
<text xml:space="preserve" text-anchor="middle" x="88.25" y="-61" font-family="Helvetica,sans-Serif" font-size="10.00">ImFusion::Dicom::Extension</text>
</a>
</g>
</g>
<!-- Node2&#45;&gt;Node1 -->
<g id="edge1_Node000001_Node000002" class="edge">
<title>Node2&#45;&gt;Node1</title>
<g id="a_edge1_Node000001_Node000002"><a xlink:title=" ">
<path fill="none" stroke="#63b8ff" d="M88.25,-43.63C88.25,-35.34 88.25,-26.17 88.25,-19.61"/>
<polygon fill="#63b8ff" stroke="#63b8ff" points="84.75,-43.57 88.25,-53.57 91.75,-43.57 84.75,-43.57"/>
</a>
</g>
</g>
<!-- Node3 -->
<g id="Node000003" class="node">
<title>Node3</title>
<g id="a_Node000003"><a xlink:href="class_im_fusion_1_1_dicom_1_1_error_recorder.html" target="_top" xlink:title="Error handling interface for the Dicom module.">
<polygon fill="white" stroke="#666666" points="167.12,-129.75 9.38,-129.75 9.38,-110.5 167.12,-110.5 167.12,-129.75"/>
<text xml:space="preserve" text-anchor="middle" x="88.25" y="-116.25" font-family="Helvetica,sans-Serif" font-size="10.00">ImFusion::Dicom::ErrorRecorder</text>
</a>
</g>
</g>
<!-- Node3&#45;&gt;Node2 -->
<g id="edge2_Node000002_Node000003" class="edge">
<title>Node3&#45;&gt;Node2</title>
<g id="a_edge2_Node000002_Node000003"><a xlink:title=" ">
<path fill="none" stroke="#63b8ff" d="M88.25,-98.88C88.25,-90.59 88.25,-81.42 88.25,-74.86"/>
<polygon fill="#63b8ff" stroke="#63b8ff" points="84.75,-98.82 88.25,-108.82 91.75,-98.82 84.75,-98.82"/>
</a>
</g>
</g>
</g>
</svg>
