<?xml version="1.0" encoding="UTF-8" standalone="no"?>
<!DOCTYPE svg PUBLIC "-//W3C//DTD SVG 1.1//EN"
 "http://www.w3.org/Graphics/SVG/1.1/DTD/svg11.dtd">
<!-- Generated by graphviz version 14.1.4 (20260321.0153)
 -->
<!-- Title: ImFusion::ImageGatingAlgorithm Pages: 1 -->
<svg width="290pt" height="138pt"
 viewBox="0.00 0.00 290.00 138.00" xmlns="http://www.w3.org/2000/svg" xmlns:xlink="http://www.w3.org/1999/xlink">
<g id="graph0" class="graph" transform="scale(1 1) rotate(0) translate(4 133.75)">
<title>ImFusion::ImageGatingAlgorithm</title>
<!-- Node1 -->
<g id="Node000001" class="node">
<title>Node1</title>
<g id="a_Node000001"><a xlink:title="Algorithm to bin image sets according to a gating signal.">
<polygon fill="#999999" stroke="#666666" points="213.25,-19.25 54,-19.25 54,0 213.25,0 213.25,-19.25"/>
<text xml:space="preserve" text-anchor="middle" x="133.62" y="-5.75" font-family="Helvetica,sans-Serif" font-size="10.00">ImFusion::ImageGatingAlgorithm</text>
</a>
</g>
</g>
<!-- Node2 -->
<g id="Node000002" class="node">
<title>Node2</title>
<g id="a_Node000002"><a xlink:href="class_im_fusion_1_1_algorithm.html" target="_top" xlink:title="Interface for describing algorithms that can be made available in the ImFusion Suite through Algorith...">
<polygon fill="white" stroke="#666666" points="185.5,-74.5 81.75,-74.5 81.75,-55.25 185.5,-55.25 185.5,-74.5"/>
<text xml:space="preserve" text-anchor="middle" x="133.62" y="-61" font-family="Helvetica,sans-Serif" font-size="10.00">ImFusion::Algorithm</text>
</a>
</g>
</g>
<!-- Node2&#45;&gt;Node1 -->
<g id="edge1_Node000001_Node000002" class="edge">
<title>Node2&#45;&gt;Node1</title>
<g id="a_edge1_Node000001_Node000002"><a xlink:title=" ">
<path fill="none" stroke="#63b8ff" d="M133.62,-43.63C133.62,-35.34 133.62,-26.17 133.62,-19.61"/>
<polygon fill="#63b8ff" stroke="#63b8ff" points="130.13,-43.57 133.63,-53.57 137.13,-43.57 130.13,-43.57"/>
</a>
</g>
</g>
<!-- Node3 -->
<g id="Node000003" class="node">
<title>Node3</title>
<g id="a_Node000003"><a xlink:href="class_im_fusion_1_1_configurable.html" target="_top" xlink:title="Base interface for classes that support object serialization from/to Properties objects.">
<polygon fill="white" stroke="#666666" points="117.25,-129.75 0,-129.75 0,-110.5 117.25,-110.5 117.25,-129.75"/>
<text xml:space="preserve" text-anchor="middle" x="58.62" y="-116.25" font-family="Helvetica,sans-Serif" font-size="10.00">ImFusion::Configurable</text>
</a>
</g>
</g>
<!-- Node3&#45;&gt;Node2 -->
<g id="edge2_Node000002_Node000003" class="edge">
<title>Node3&#45;&gt;Node2</title>
<g id="a_edge2_Node000002_Node000003"><a xlink:title=" ">
<path fill="none" stroke="#63b8ff" d="M80.62,-103.51C93.7,-94.22 109.83,-82.77 120.84,-74.95"/>
<polygon fill="#63b8ff" stroke="#63b8ff" points="78.71,-100.57 72.58,-109.22 82.76,-106.28 78.71,-100.57"/>
</a>
</g>
</g>
<!-- Node4 -->
<g id="Node000004" class="node">
<title>Node4</title>
<g id="a_Node000004"><a xlink:href="class_im_fusion_1_1_utils_1_1_not_copyable.html" target="_top" xlink:title="Inherit from this class if your class should be neither copy&#45;constructible nor assignable.">
<polygon fill="white" stroke="#666666" points="281.5,-129.75 135.75,-129.75 135.75,-110.5 281.5,-110.5 281.5,-129.75"/>
<text xml:space="preserve" text-anchor="middle" x="208.62" y="-116.25" font-family="Helvetica,sans-Serif" font-size="10.00">ImFusion::Utils::NotCopyable</text>
</a>
</g>
</g>
<!-- Node4&#45;&gt;Node2 -->
<g id="edge3_Node000002_Node000004" class="edge">
<title>Node4&#45;&gt;Node2</title>
<g id="a_edge3_Node000002_Node000004"><a xlink:title=" ">
<path fill="none" stroke="#8b1a1a" d="M186.63,-103.51C173.55,-94.22 157.42,-82.77 146.41,-74.95"/>
<polygon fill="#8b1a1a" stroke="#8b1a1a" points="184.49,-106.28 194.67,-109.22 188.54,-100.57 184.49,-106.28"/>
</a>
</g>
</g>
</g>
</svg>
