<?xml version="1.0" encoding="UTF-8" standalone="no"?>
<!DOCTYPE svg PUBLIC "-//W3C//DTD SVG 1.1//EN"
 "http://www.w3.org/Graphics/SVG/1.1/DTD/svg11.dtd">
<!-- Generated by graphviz version 14.1.4 (20260321.0153)
 -->
<!-- Title: ImFusion::DicomWriter Pages: 1 -->
<svg width="466pt" height="83pt"
 viewBox="0.00 0.00 466.00 83.00" xmlns="http://www.w3.org/2000/svg" xmlns:xlink="http://www.w3.org/1999/xlink">
<g id="graph0" class="graph" transform="scale(1 1) rotate(0) translate(4 78.5)">
<title>ImFusion::DicomWriter</title>
<!-- Node1 -->
<g id="Node000001" class="node">
<title>Node1</title>
<g id="a_Node000001"><a xlink:title="The DicomWriter class can store a SharedImageSet in a DICOM dataset.">
<polygon fill="#999999" stroke="#666666" points="307.12,-19.25 190.62,-19.25 190.62,0 307.12,0 307.12,-19.25"/>
<text xml:space="preserve" text-anchor="middle" x="248.88" y="-5.75" font-family="Helvetica,sans-Serif" font-size="10.00">ImFusion::DicomWriter</text>
</a>
</g>
</g>
<!-- Node2 -->
<g id="Node000002" class="node">
<title>Node2</title>
<g id="a_Node000002"><a xlink:href="class_im_fusion_1_1_dicom_1_1_error_recorder.html" target="_top" xlink:title="Error handling interface for the Dicom module.">
<polygon fill="white" stroke="#666666" points="157.75,-74.5 0,-74.5 0,-55.25 157.75,-55.25 157.75,-74.5"/>
<text xml:space="preserve" text-anchor="middle" x="78.88" y="-61" font-family="Helvetica,sans-Serif" font-size="10.00">ImFusion::Dicom::ErrorRecorder</text>
</a>
</g>
</g>
<!-- Node2&#45;&gt;Node1 -->
<g id="edge1_Node000001_Node000002" class="edge">
<title>Node2&#45;&gt;Node1</title>
<g id="a_edge1_Node000001_Node000002"><a xlink:title=" ">
<path fill="none" stroke="#63b8ff" d="M118.58,-51.44C149.61,-41.72 192,-28.44 219.9,-19.7"/>
<polygon fill="#63b8ff" stroke="#63b8ff" points="117.65,-48.06 109.16,-54.39 119.75,-54.74 117.65,-48.06"/>
</a>
</g>
</g>
<!-- Node3 -->
<g id="Node000003" class="node">
<title>Node3</title>
<g id="a_Node000003"><a xlink:href="class_im_fusion_1_1_utils_1_1_not_copyable.html" target="_top" xlink:title="Inherit from this class if your class should be neither copy&#45;constructible nor assignable.">
<polygon fill="white" stroke="#666666" points="321.75,-74.5 176,-74.5 176,-55.25 321.75,-55.25 321.75,-74.5"/>
<text xml:space="preserve" text-anchor="middle" x="248.88" y="-61" font-family="Helvetica,sans-Serif" font-size="10.00">ImFusion::Utils::NotCopyable</text>
</a>
</g>
</g>
<!-- Node3&#45;&gt;Node1 -->
<g id="edge2_Node000001_Node000003" class="edge">
<title>Node3&#45;&gt;Node1</title>
<g id="a_edge2_Node000001_Node000003"><a xlink:title=" ">
<path fill="none" stroke="#8b1a1a" d="M248.88,-43.63C248.88,-35.34 248.88,-26.17 248.88,-19.61"/>
<polygon fill="#8b1a1a" stroke="#8b1a1a" points="245.38,-43.57 248.88,-53.57 252.38,-43.57 245.38,-43.57"/>
</a>
</g>
</g>
<!-- Node4 -->
<g id="Node000004" class="node">
<title>Node4</title>
<g id="a_Node000004"><a xlink:href="class_im_fusion_1_1_configurable.html" target="_top" xlink:title="Base interface for classes that support object serialization from/to Properties objects.">
<polygon fill="white" stroke="#666666" points="457.5,-74.5 340.25,-74.5 340.25,-55.25 457.5,-55.25 457.5,-74.5"/>
<text xml:space="preserve" text-anchor="middle" x="398.88" y="-61" font-family="Helvetica,sans-Serif" font-size="10.00">ImFusion::Configurable</text>
</a>
</g>
</g>
<!-- Node4&#45;&gt;Node1 -->
<g id="edge3_Node000001_Node000004" class="edge">
<title>Node4&#45;&gt;Node1</title>
<g id="a_edge3_Node000001_Node000004"><a xlink:title=" ">
<path fill="none" stroke="#63b8ff" d="M362.75,-51.05C335.48,-41.37 298.73,-28.32 274.45,-19.7"/>
<polygon fill="#63b8ff" stroke="#63b8ff" points="361.41,-54.29 372,-54.34 363.75,-47.69 361.41,-54.29"/>
</a>
</g>
</g>
</g>
</svg>
