<?xml version="1.0" encoding="UTF-8" standalone="no"?>
<!DOCTYPE svg PUBLIC "-//W3C//DTD SVG 1.1//EN"
 "http://www.w3.org/Graphics/SVG/1.1/DTD/svg11.dtd">
<!-- Generated by graphviz version 14.1.4 (20260321.0153)
 -->
<!-- Title: ImFusion::Interaction Pages: 1 -->
<!--zoomable 175 -->

<svg id="main" version="1.1" xmlns="http://www.w3.org/2000/svg" xmlns:xlink="http://www.w3.org/1999/xlink" xml:space="preserve" onload="init(evt)">

<style type="text/css"><![CDATA[
.node, .edge {opacity: 0.7;}
.node.selected, .edge.selected {opacity: 1;}
.edge:hover path { stroke: red; }
.edge:hover polygon { stroke: red; fill: red; }
]]></style>

<defs>
  <circle id="rim" cx="0" cy="0" r="7"/>
  <circle id="rim2" cx="0" cy="0" r="3.5"/>
  <g id="zoomPlus">
    <use xlink:href="#rim" fill="#404040"><set attributeName="fill" to="#808080" begin="zoomplus.mouseover" end="zoomplus.mouseout"/></use>
    <path d="M-4,0h8M0,-4v8" fill="none" stroke="white" stroke-width="1.5" pointer-events="none"/>
  </g>
  <g id="zoomMin">
    <use xlink:href="#rim" fill="#404040"><set attributeName="fill" to="#808080" begin="zoomminus.mouseover" end="zoomminus.mouseout"/></use>
    <path d="M-4,0h8" fill="none" stroke="white" stroke-width="1.5" pointer-events="none"/>
  </g>
  <g id="arrowUp" transform="translate(30 24)">
    <use xlink:href="#rim"/>
    <path pointer-events="none" fill="none" stroke="white" stroke-width="1.5" d="M0,-3.0v7 M-2.5,-0.5L0,-3.0L2.5,-0.5"/>
  </g>
  <g id="arrowRight" transform="rotate(90) translate(36 -43)">
    <use xlink:href="#rim"/>
    <path pointer-events="none" fill="none" stroke="white" stroke-width="1.5" d="M0,-3.0v7 M-2.5,-0.5L0,-3.0L2.5,-0.5"/>
  </g>
  <g id="arrowDown" transform="rotate(180) translate(-30 -48)">
    <use xlink:href="#rim"/>
    <path pointer-events="none" fill="none" stroke="white" stroke-width="1.5" d="M0,-3.0v7 M-2.5,-0.5L0,-3.0L2.5,-0.5"/>
  </g>
  <g id="arrowLeft" transform="rotate(270) translate(-36 17)">
    <use xlink:href="#rim"/>
    <path pointer-events="none" fill="none" stroke="white" stroke-width="1.5" d="M0,-3.0v7 M-2.5,-0.5L0,-3.0L2.5,-0.5"/>
  </g>
  <g id="resetDef">
    <use xlink:href="#rim2" fill="#404040"><set attributeName="fill" to="#808080" begin="reset.mouseover" end="reset.mouseout"/></use>
  </g>
</defs>
<script type="application/ecmascript">
var viewWidth = 740;
var viewHeight = 175;
var sectionId = 'dynsection-0';
</script>
<script type="application/ecmascript" xlink:href="svg.min.js"/>
<svg id="graph" class="graph">
<g id="viewport">
<title>ImFusion::Interaction</title>
<!-- Node1 -->
<g id="Node000001" class="node">
<title>Node1</title>
<g id="a_Node000001"><a xlink:title="Base interface class for view and overlay interactions.">
<polygon fill="#999999" stroke="#666666" points="196.25,-111.25 88,-111.25 88,-92 196.25,-92 196.25,-111.25"/>
<text xml:space="preserve" text-anchor="middle" x="142.12" y="-97.75" font-family="Helvetica,sans-Serif" font-size="10.00">ImFusion::Interaction</text>
</a>
</g>
</g>
<!-- Node3 -->
<g id="Node000003" class="node">
<title>Node3</title>
<g id="a_Node000003"><a xlink:href="class_im_fusion_1_1_overlay_interaction.html" target="_top" xlink:title="Base class for all overlay interactions.">
<polygon fill="white" stroke="#666666" points="374.25,-148.25 232.25,-148.25 232.25,-129 374.25,-129 374.25,-148.25"/>
<text xml:space="preserve" text-anchor="middle" x="303.25" y="-134.75" font-family="Helvetica,sans-Serif" font-size="10.00">ImFusion::OverlayInteraction</text>
</a>
</g>
</g>
<!-- Node1&#45;&gt;Node3 -->
<g id="edge2_Node000001_Node000003" class="edge">
<title>Node1&#45;&gt;Node3</title>
<g id="a_edge2_Node000001_Node000003"><a xlink:title=" ">
<path fill="none" stroke="#63b8ff" d="M197.73,-114.32C217.68,-118.96 239.97,-124.14 258.82,-128.53"/>
<polygon fill="#63b8ff" stroke="#63b8ff" points="198.61,-110.93 188.08,-112.08 197.03,-117.75 198.61,-110.93"/>
</a>
</g>
</g>
<!-- Node5 -->
<g id="Node000005" class="node">
<title>Node5</title>
<g id="a_Node000005"><a xlink:href="class_im_fusion_1_1_view_interaction.html" target="_top" xlink:title="Base class for all view interactions.">
<polygon fill="white" stroke="#666666" points="368.25,-93.25 238.25,-93.25 238.25,-74 368.25,-74 368.25,-93.25"/>
<text xml:space="preserve" text-anchor="middle" x="303.25" y="-79.75" font-family="Helvetica,sans-Serif" font-size="10.00">ImFusion::ViewInteraction</text>
</a>
</g>
</g>
<!-- Node1&#45;&gt;Node5 -->
<g id="edge4_Node000001_Node000005" class="edge">
<title>Node1&#45;&gt;Node5</title>
<g id="a_edge4_Node000001_Node000005"><a xlink:title=" ">
<path fill="none" stroke="#63b8ff" d="M207.97,-94.29C217.86,-93.17 228.05,-92.02 237.92,-90.9"/>
<polygon fill="#63b8ff" stroke="#63b8ff" points="207.6,-90.81 198.06,-95.41 208.39,-97.76 207.6,-90.81"/>
</a>
</g>
</g>
<!-- Node2 -->
<g id="Node000002" class="node">
<title>Node2</title>
<g id="a_Node000002"><a xlink:title=" ">
<polygon fill="white" stroke="#bfbfbf" points="52,-111.25 0,-111.25 0,-92 52,-92 52,-111.25"/>
<text xml:space="preserve" text-anchor="middle" x="26" y="-97.75" font-family="Helvetica,sans-Serif" font-size="10.00">QObject</text>
</a>
</g>
</g>
<!-- Node2&#45;&gt;Node1 -->
<g id="edge1_Node000001_Node000002" class="edge">
<title>Node2&#45;&gt;Node1</title>
<g id="a_edge1_Node000001_Node000002"><a xlink:title=" ">
<path fill="none" stroke="#63b8ff" d="M63.81,-101.62C71.48,-101.62 79.7,-101.62 87.82,-101.62"/>
<polygon fill="#63b8ff" stroke="#63b8ff" points="63.84,-98.13 53.84,-101.63 63.84,-105.13 63.84,-98.13"/>
</a>
</g>
</g>
<!-- Node4 -->
<g id="Node000004" class="node">
<title>Node4</title>
<g id="a_Node000004"><a xlink:href="class_im_fusion_1_1_histogram_interaction.html" target="_top" xlink:title="Implements mouse interaction logic for the InteractiveHistogramOverlay.">
<polygon fill="white" stroke="#666666" points="563.5,-167.25 410.25,-167.25 410.25,-148 563.5,-148 563.5,-167.25"/>
<text xml:space="preserve" text-anchor="middle" x="486.88" y="-153.75" font-family="Helvetica,sans-Serif" font-size="10.00">ImFusion::HistogramInteraction</text>
</a>
</g>
</g>
<!-- Node3&#45;&gt;Node4 -->
<g id="edge3_Node000003_Node000004" class="edge">
<title>Node3&#45;&gt;Node4</title>
<g id="a_edge3_Node000003_Node000004"><a xlink:title=" ">
<path fill="none" stroke="#63b8ff" d="M385.96,-147.17C393.97,-148.01 402.07,-148.86 410.02,-149.69"/>
<polygon fill="#63b8ff" stroke="#63b8ff" points="386.55,-143.72 376.24,-146.16 385.82,-150.68 386.55,-143.72"/>
</a>
</g>
</g>
<!-- Node6 -->
<g id="Node000006" class="node">
<title>Node6</title>
<g id="a_Node000006"><a xlink:href="class_im_fusion_1_1_interaction3_d.html" target="_top" xlink:title="Standard 3D view interaction.">
<polygon fill="white" stroke="#666666" points="547.38,-130.25 426.38,-130.25 426.38,-111 547.38,-111 547.38,-130.25"/>
<text xml:space="preserve" text-anchor="middle" x="486.88" y="-116.75" font-family="Helvetica,sans-Serif" font-size="10.00">ImFusion::Interaction3D</text>
</a>
</g>
</g>
<!-- Node5&#45;&gt;Node6 -->
<g id="edge5_Node000005_Node000006" class="edge">
<title>Node5&#45;&gt;Node6</title>
<g id="a_edge5_Node000005_Node000006"><a xlink:title=" ">
<path fill="none" stroke="#63b8ff" d="M364.99,-96C388.17,-100.72 414.29,-106.04 436.31,-110.53"/>
<polygon fill="#63b8ff" stroke="#63b8ff" points="365.86,-92.6 355.36,-94.04 364.46,-99.46 365.86,-92.6"/>
</a>
</g>
</g>
<!-- Node7 -->
<g id="Node000007" class="node">
<title>Node7</title>
<g id="a_Node000007"><a xlink:href="class_im_fusion_1_1_interaction_plot_view.html" target="_top" xlink:title="Interaction class for plot view.">
<polygon fill="white" stroke="#666666" points="560.5,-93.25 413.25,-93.25 413.25,-74 560.5,-74 560.5,-93.25"/>
<text xml:space="preserve" text-anchor="middle" x="486.88" y="-79.75" font-family="Helvetica,sans-Serif" font-size="10.00">ImFusion::InteractionPlotView</text>
</a>
</g>
</g>
<!-- Node5&#45;&gt;Node7 -->
<g id="edge6_Node000005_Node000007" class="edge">
<title>Node5&#45;&gt;Node7</title>
<g id="a_edge6_Node000005_Node000007"><a xlink:title=" ">
<path fill="none" stroke="#63b8ff" d="M379.83,-83.62C390.81,-83.62 402.08,-83.62 413,-83.62"/>
<polygon fill="#63b8ff" stroke="#63b8ff" points="380.05,-80.13 370.05,-83.63 380.05,-87.13 380.05,-80.13"/>
</a>
</g>
</g>
<!-- Node8 -->
<g id="Node000008" class="node">
<title>Node8</title>
<g id="a_Node000008"><a xlink:href="class_im_fusion_1_1_interaction_view2_d.html" target="_top" xlink:title=" ">
<polygon fill="white" stroke="#bfbfbf" points="558.25,-56.25 415.5,-56.25 415.5,-37 558.25,-37 558.25,-56.25"/>
<text xml:space="preserve" text-anchor="middle" x="486.88" y="-42.75" font-family="Helvetica,sans-Serif" font-size="10.00">ImFusion::InteractionView2D</text>
</a>
</g>
</g>
<!-- Node5&#45;&gt;Node8 -->
<g id="edge7_Node000005_Node000008" class="edge">
<title>Node5&#45;&gt;Node8</title>
<g id="a_edge7_Node000005_Node000008"><a xlink:title=" ">
<path fill="none" stroke="#63b8ff" d="M364.99,-71.25C388.17,-66.53 414.29,-61.21 436.31,-56.72"/>
<polygon fill="#63b8ff" stroke="#63b8ff" points="364.46,-67.79 355.36,-73.21 365.86,-74.65 364.46,-67.79"/>
</a>
</g>
</g>
<!-- Node10 -->
<g id="Node000010" class="node">
<title>Node10</title>
<g id="a_Node000010"><a xlink:href="class_im_fusion_1_1_interaction_view3_d.html" target="_top" xlink:title="Standard 2D/3D view interaction.">
<polygon fill="white" stroke="#666666" points="558.25,-19.25 415.5,-19.25 415.5,0 558.25,0 558.25,-19.25"/>
<text xml:space="preserve" text-anchor="middle" x="486.88" y="-5.75" font-family="Helvetica,sans-Serif" font-size="10.00">ImFusion::InteractionView3D</text>
</a>
</g>
</g>
<!-- Node5&#45;&gt;Node10 -->
<g id="edge9_Node000005_Node000010" class="edge">
<title>Node5&#45;&gt;Node10</title>
<g id="a_edge9_Node000005_Node000010"><a xlink:title=" ">
<path fill="none" stroke="#63b8ff" d="M329.9,-67.71C350.86,-55.3 381.59,-38.41 410.25,-27.62 418.33,-24.58 427.1,-21.94 435.71,-19.68"/>
<polygon fill="#63b8ff" stroke="#63b8ff" points="328.23,-64.63 321.47,-72.78 331.84,-70.62 328.23,-64.63"/>
</a>
</g>
</g>
<!-- Node9 -->
<g id="Node000009" class="node">
<title>Node9</title>
<g id="a_Node000009"><a xlink:href="class_im_fusion_1_1_interaction_ortho_view2_d.html" target="_top" xlink:title="Ortho 2D view interaction.">
<polygon fill="white" stroke="#666666" points="731.75,-61.88 599.5,-61.88 599.5,-31.38 731.75,-31.38 731.75,-61.88"/>
<text xml:space="preserve" text-anchor="start" x="607.5" y="-48.38" font-family="Helvetica,sans-Serif" font-size="10.00">ImFusion::InteractionOrtho</text>
<text xml:space="preserve" text-anchor="middle" x="665.62" y="-37.12" font-family="Helvetica,sans-Serif" font-size="10.00">View2D</text>
</a>
</g>
</g>
<!-- Node8&#45;&gt;Node9 -->
<g id="edge8_Node000008_Node000009" class="edge">
<title>Node8&#45;&gt;Node9</title>
<g id="a_edge8_Node000008_Node000009"><a xlink:title=" ">
<path fill="none" stroke="#63b8ff" d="M570.11,-46.62C579.86,-46.62 589.71,-46.62 599.18,-46.62"/>
<polygon fill="#63b8ff" stroke="#63b8ff" points="570.26,-43.13 560.26,-46.63 570.26,-50.13 570.26,-43.13"/>
</a>
</g>
</g>
</g>
</svg>

<g id="navigator" transform="translate(0 0)" fill="#404254">
  <rect fill="#f2f5e9" fill-opacity="0.5" stroke="#606060" stroke-width=".5" x="0" y="0" width="60" height="60"/>
  <use id="zoomplus" xlink:href="#zoomPlus" x="17" y="9" onmousedown="handleZoom(evt,'in')"/>
  <use id="zoomminus" xlink:href="#zoomMin" x="42" y="9" onmousedown="handleZoom(evt,'out')"/>
  <use id="reset" xlink:href="#resetDef" x="30" y="36" onmousedown="handleReset()"/>
   <use id="arrowup" xlink:href="#arrowUp" x="0" y="0" onmousedown="handlePan(0,-1)"/>
  <use id="arrowright" xlink:href="#arrowRight" x="0" y="0" onmousedown="handlePan(1,0)"/>
  <use id="arrowdown" xlink:href="#arrowDown" x="0" y="0" onmousedown="handlePan(0,1)"/>
  <use id="arrowleft" xlink:href="#arrowLeft" x="0" y="0" onmousedown="handlePan(-1,0)"/>
</g>
<svg viewBox="0 0 15 15" width="100%" height="30px" preserveAspectRatio="xMaxYMin meet">
 <g id="arrow_out" transform="scale(0.3 0.3)">
  <a xlink:href="class_im_fusion_1_1_interaction__inherit__graph_org.svg" target="_base">
   <rect id="button" ry="5" rx="5" y="6" x="6" height="38" width="38"
        fill="#f2f5e9" fill-opacity="0.5" stroke="#606060" stroke-width="1.0"/>
   <path id="arrow"
     d="M 11.500037,31.436501 C 11.940474,20.09759 22.043105,11.32322 32.158766,21.979434 L 37.068811,17.246167 C 37.068811,17.246167 37.088388,32 37.088388,32 L 22.160133,31.978069 C 22.160133,31.978069 26.997745,27.140456 26.997745,27.140456 C 18.528582,18.264221 13.291696,25.230495 11.500037,31.436501 z"
     style="fill:#404040;"/>
  </a>
 </g>
</svg>

<style type='text/css'>
<![CDATA[
[data-mouse-over-selected='false'] { opacity: 0.7; }
[data-mouse-over-selected='true']  { opacity: 1.0; }
]]>
</style>
<script type="application/ecmascript"><![CDATA[
document.addEventListener('DOMContentLoaded', (event) => {
  highlightEdges();
  highlightAdjacentNodes();
});
]]></script>
</svg>
