<?xml version="1.0" encoding="UTF-8" standalone="no"?>
<!DOCTYPE svg PUBLIC "-//W3C//DTD SVG 1.1//EN"
 "http://www.w3.org/Graphics/SVG/1.1/DTD/svg11.dtd">
<!-- Generated by graphviz version 14.1.4 (20260321.0153)
 -->
<!-- Title: ImFusion::SimilarityMeasurePatchBased_GL Pages: 1 -->
<svg width="325pt" height="137pt"
 viewBox="0.00 0.00 325.00 137.00" xmlns="http://www.w3.org/2000/svg" xmlns:xlink="http://www.w3.org/1999/xlink">
<g id="graph0" class="graph" transform="scale(1 1) rotate(0) translate(4 132.5)">
<title>ImFusion::SimilarityMeasurePatchBased_GL</title>
<!-- Node1 -->
<g id="Node000001" class="node">
<title>Node1</title>
<g id="a_Node000001"><a xlink:title="Helper class for patch based similarity measures.">
<polygon fill="#999999" stroke="#666666" points="140.5,-79.5 0,-79.5 0,-49 140.5,-49 140.5,-79.5"/>
<text xml:space="preserve" text-anchor="start" x="8" y="-66" font-family="Helvetica,sans-Serif" font-size="10.00">ImFusion::SimilarityMeasure</text>
<text xml:space="preserve" text-anchor="middle" x="70.25" y="-54.75" font-family="Helvetica,sans-Serif" font-size="10.00">PatchBased_GL</text>
</a>
</g>
</g>
<!-- Node2 -->
<g id="Node000002" class="node">
<title>Node2</title>
<g id="a_Node000002"><a xlink:href="class_im_fusion_1_1_similarity_measure_l_c2___g_p_u.html" target="_top" xlink:title=" ">
<polygon fill="white" stroke="#bfbfbf" points="317,-128.5 176.5,-128.5 176.5,-98 317,-98 317,-128.5"/>
<text xml:space="preserve" text-anchor="start" x="184.5" y="-115" font-family="Helvetica,sans-Serif" font-size="10.00">ImFusion::SimilarityMeasure</text>
<text xml:space="preserve" text-anchor="middle" x="246.75" y="-103.75" font-family="Helvetica,sans-Serif" font-size="10.00">LC2_GPU</text>
</a>
</g>
</g>
<!-- Node1&#45;&gt;Node2 -->
<g id="edge1_Node000001_Node000002" class="edge">
<title>Node1&#45;&gt;Node2</title>
<g id="a_edge1_Node000001_Node000002"><a xlink:title=" ">
<path fill="none" stroke="#8b1a1a" d="M137.97,-82.98C155.04,-87.78 173.22,-92.88 189.69,-97.51"/>
<polygon fill="#8b1a1a" stroke="#8b1a1a" points="138.97,-79.63 128.4,-80.3 137.08,-86.37 138.97,-79.63"/>
</a>
</g>
</g>
<!-- Node3 -->
<g id="Node000003" class="node">
<title>Node3</title>
<g id="a_Node000003"><a xlink:href="class_im_fusion_1_1_similarity_measure_l_n_c_c___g_l.html" target="_top" xlink:title=" ">
<polygon fill="white" stroke="#bfbfbf" points="317,-79.5 176.5,-79.5 176.5,-49 317,-49 317,-79.5"/>
<text xml:space="preserve" text-anchor="start" x="184.5" y="-66" font-family="Helvetica,sans-Serif" font-size="10.00">ImFusion::SimilarityMeasure</text>
<text xml:space="preserve" text-anchor="middle" x="246.75" y="-54.75" font-family="Helvetica,sans-Serif" font-size="10.00">LNCC_GL</text>
</a>
</g>
</g>
<!-- Node1&#45;&gt;Node3 -->
<g id="edge2_Node000001_Node000003" class="edge">
<title>Node1&#45;&gt;Node3</title>
<g id="a_edge2_Node000001_Node000003"><a xlink:title=" ">
<path fill="none" stroke="#8b1a1a" d="M152.48,-64.25C160.39,-64.25 168.36,-64.25 176.14,-64.25"/>
<polygon fill="#8b1a1a" stroke="#8b1a1a" points="152.48,-60.75 142.48,-64.25 152.48,-67.75 152.48,-60.75"/>
</a>
</g>
</g>
<!-- Node4 -->
<g id="Node000004" class="node">
<title>Node4</title>
<g id="a_Node000004"><a xlink:href="class_im_fusion_1_1_similarity_measure_s_s_i_m___g_l.html" target="_top" xlink:title=" ">
<polygon fill="white" stroke="#bfbfbf" points="317,-30.5 176.5,-30.5 176.5,0 317,0 317,-30.5"/>
<text xml:space="preserve" text-anchor="start" x="184.5" y="-17" font-family="Helvetica,sans-Serif" font-size="10.00">ImFusion::SimilarityMeasure</text>
<text xml:space="preserve" text-anchor="middle" x="246.75" y="-5.75" font-family="Helvetica,sans-Serif" font-size="10.00">SSIM_GL</text>
</a>
</g>
</g>
<!-- Node1&#45;&gt;Node4 -->
<g id="edge3_Node000001_Node000004" class="edge">
<title>Node1&#45;&gt;Node4</title>
<g id="a_edge3_Node000001_Node000004"><a xlink:title=" ">
<path fill="none" stroke="#8b1a1a" d="M137.97,-45.52C155.04,-40.72 173.22,-35.62 189.69,-30.99"/>
<polygon fill="#8b1a1a" stroke="#8b1a1a" points="137.08,-42.13 128.4,-48.2 138.97,-48.87 137.08,-42.13"/>
</a>
</g>
</g>
</g>
</svg>
