<?xml version="1.0" encoding="UTF-8" standalone="no"?>
<!DOCTYPE svg PUBLIC "-//W3C//DTD SVG 1.1//EN"
 "http://www.w3.org/Graphics/SVG/1.1/DTD/svg11.dtd">
<!-- Generated by graphviz version 14.1.4 (20260321.0153)
 -->
<!-- Title: ImFusion::GlProductReduction Pages: 1 -->
<svg width="300pt" height="204pt"
 viewBox="0.00 0.00 300.00 204.00" xmlns="http://www.w3.org/2000/svg" xmlns:xlink="http://www.w3.org/1999/xlink">
<g id="graph0" class="graph" transform="scale(1 1) rotate(0) translate(4 200.25)">
<title>ImFusion::GlProductReduction</title>
<!-- Node1 -->
<g id="Node000001" class="node">
<title>Node1</title>
<g id="a_Node000001"><a xlink:title="Specialization of GlReduction performing a ReductionOperator::PRODUCT reduction.">
<polygon fill="#999999" stroke="#666666" points="210.38,-19.25 60.12,-19.25 60.12,0 210.38,0 210.38,-19.25"/>
<text xml:space="preserve" text-anchor="middle" x="135.25" y="-5.75" font-family="Helvetica,sans-Serif" font-size="10.00">ImFusion::GlProductReduction</text>
</a>
</g>
</g>
<!-- Node2 -->
<g id="Node000002" class="node">
<title>Node2</title>
<g id="a_Node000002"><a xlink:href="class_im_fusion_1_1_gl_reduction.html" target="_top" xlink:title="High&#45;performance implementation of a reduction of 2D and 3D images using OpenGL.">
<polygon fill="white" stroke="#666666" points="116.5,-80.12 0,-80.12 0,-60.88 116.5,-60.88 116.5,-80.12"/>
<text xml:space="preserve" text-anchor="middle" x="58.25" y="-66.62" font-family="Helvetica,sans-Serif" font-size="10.00">ImFusion::GlReduction</text>
</a>
</g>
</g>
<!-- Node2&#45;&gt;Node1 -->
<g id="edge1_Node000001_Node000002" class="edge">
<title>Node2&#45;&gt;Node1</title>
<g id="a_edge1_Node000001_Node000002"><a xlink:title=" ">
<path fill="none" stroke="#63b8ff" d="M79.01,-53.63C93.26,-42.73 111.65,-28.67 123.45,-19.65"/>
<polygon fill="#63b8ff" stroke="#63b8ff" points="76.97,-50.78 71.15,-59.64 81.22,-56.35 76.97,-50.78"/>
</a>
</g>
</g>
<!-- Node3 -->
<g id="Node000003" class="node">
<title>Node3</title>
<g id="a_Node000003"><a xlink:href="class_im_fusion_1_1_utils_1_1_not_copyable.html" target="_top" xlink:title="Inherit from this class if your class should be neither copy&#45;constructible nor assignable.">
<polygon fill="white" stroke="#666666" points="207.12,-196.25 61.38,-196.25 61.38,-177 207.12,-177 207.12,-196.25"/>
<text xml:space="preserve" text-anchor="middle" x="134.25" y="-182.75" font-family="Helvetica,sans-Serif" font-size="10.00">ImFusion::Utils::NotCopyable</text>
</a>
</g>
</g>
<!-- Node3&#45;&gt;Node2 -->
<g id="edge2_Node000002_Node000003" class="edge">
<title>Node3&#45;&gt;Node2</title>
<g id="a_edge2_Node000002_Node000003"><a xlink:title=" ">
<path fill="none" stroke="#8b1a1a" d="M121.85,-167.24C116.43,-159.2 110.01,-149.64 104.25,-141 89.8,-119.33 72.93,-93.78 64.18,-80.51"/>
<polygon fill="#8b1a1a" stroke="#8b1a1a" points="118.92,-169.16 127.41,-175.49 124.72,-165.24 118.92,-169.16"/>
</a>
</g>
</g>
<!-- Node5 -->
<g id="Node000005" class="node">
<title>Node5</title>
<g id="a_Node000005"><a xlink:href="class_im_fusion_1_1_g_l_1_1_instance_manager_base.html" target="_top" xlink:title="Base class for context&#45;aware caching of OpenGL object instances.">
<polygon fill="white" stroke="#666666" points="291.62,-141 112.88,-141 112.88,-121.75 291.62,-121.75 291.62,-141"/>
<text xml:space="preserve" text-anchor="middle" x="202.25" y="-127.5" font-family="Helvetica,sans-Serif" font-size="10.00">ImFusion::GL::InstanceManagerBase</text>
</a>
</g>
</g>
<!-- Node3&#45;&gt;Node5 -->
<g id="edge5_Node000005_Node000003" class="edge">
<title>Node3&#45;&gt;Node5</title>
<g id="a_edge5_Node000005_Node000003"><a xlink:title=" ">
<path fill="none" stroke="#8b1a1a" d="M154.6,-169.69C166.47,-160.39 181.01,-149.01 190.89,-141.27"/>
<polygon fill="#8b1a1a" stroke="#8b1a1a" points="152.69,-166.74 146.98,-175.66 157.01,-172.25 152.69,-166.74"/>
</a>
</g>
</g>
<!-- Node4 -->
<g id="Node000004" class="node">
<title>Node4</title>
<g id="a_Node000004"><a xlink:href="class_im_fusion_1_1_g_l_1_1_instance_manager.html" target="_top" xlink:title=" ">
<polygon fill="white" stroke="#666666" points="290.38,-85.75 134.12,-85.75 134.12,-55.25 290.38,-55.25 290.38,-85.75"/>
<text xml:space="preserve" text-anchor="start" x="142.12" y="-72.25" font-family="Helvetica,sans-Serif" font-size="10.00">ImFusion::GL::InstanceManager</text>
<text xml:space="preserve" text-anchor="middle" x="212.25" y="-61" font-family="Helvetica,sans-Serif" font-size="10.00">&lt; GlProductReduction &gt;</text>
</a>
</g>
</g>
<!-- Node4&#45;&gt;Node1 -->
<g id="edge3_Node000001_Node000004" class="edge">
<title>Node4&#45;&gt;Node1</title>
<g id="a_edge3_Node000001_Node000004"><a xlink:title=" ">
<path fill="none" stroke="#63b8ff" d="M184.28,-48.12C171.49,-38.33 157.01,-27.26 147.12,-19.7"/>
<polygon fill="#63b8ff" stroke="#63b8ff" points="181.94,-50.73 192.01,-54.03 186.2,-45.17 181.94,-50.73"/>
</a>
</g>
</g>
<!-- Node5&#45;&gt;Node4 -->
<g id="edge4_Node000004_Node000005" class="edge">
<title>Node5&#45;&gt;Node4</title>
<g id="a_edge4_Node000004_Node000005"><a xlink:title=" ">
<path fill="none" stroke="#8b1a1a" d="M205.68,-110.17C207.03,-102.24 208.55,-93.31 209.78,-86.03"/>
<polygon fill="#8b1a1a" stroke="#8b1a1a" points="202.25,-109.5 204.02,-119.94 209.15,-110.67 202.25,-109.5"/>
</a>
</g>
</g>
</g>
</svg>
