<?xml version="1.0" encoding="UTF-8" standalone="no"?>
<!DOCTYPE svg PUBLIC "-//W3C//DTD SVG 1.1//EN"
 "http://www.w3.org/Graphics/SVG/1.1/DTD/svg11.dtd">
<!-- Generated by graphviz version 14.1.4 (20260321.0153)
 -->
<!-- Title: ImFusion::CGSolver Pages: 1 -->
<svg width="158pt" height="149pt"
 viewBox="0.00 0.00 158.00 149.00" xmlns="http://www.w3.org/2000/svg" xmlns:xlink="http://www.w3.org/1999/xlink">
<g id="graph0" class="graph" transform="scale(1 1) rotate(0) translate(4 145)">
<title>ImFusion::CGSolver</title>
<!-- Node1 -->
<g id="Node000001" class="node">
<title>Node1</title>
<g id="a_Node000001"><a xlink:title="Conjugate gradient solver (Eigen implementation).">
<polygon fill="#999999" stroke="#666666" points="127.75,-19.25 22.5,-19.25 22.5,0 127.75,0 127.75,-19.25"/>
<text xml:space="preserve" text-anchor="middle" x="75.12" y="-5.75" font-family="Helvetica,sans-Serif" font-size="10.00">ImFusion::CGSolver</text>
</a>
</g>
</g>
<!-- Node2 -->
<g id="Node000002" class="node">
<title>Node2</title>
<g id="a_Node000002"><a xlink:href="class_im_fusion_1_1_iterative_linear_system_solver.html" target="_top" xlink:title="Interface for iterative linear system solvers.">
<polygon fill="white" stroke="#666666" points="137.12,-85.75 13.12,-85.75 13.12,-55.25 137.12,-55.25 137.12,-85.75"/>
<text xml:space="preserve" text-anchor="start" x="21.12" y="-72.25" font-family="Helvetica,sans-Serif" font-size="10.00">ImFusion::IterativeLinear</text>
<text xml:space="preserve" text-anchor="middle" x="75.12" y="-61" font-family="Helvetica,sans-Serif" font-size="10.00">SystemSolver</text>
</a>
</g>
</g>
<!-- Node2&#45;&gt;Node1 -->
<g id="edge1_Node000001_Node000002" class="edge">
<title>Node2&#45;&gt;Node1</title>
<g id="a_edge1_Node000001_Node000002"><a xlink:title=" ">
<path fill="none" stroke="#63b8ff" d="M75.12,-43.48C75.12,-34.98 75.12,-26.09 75.12,-19.7"/>
<polygon fill="#63b8ff" stroke="#63b8ff" points="71.63,-43.43 75.13,-53.43 78.63,-43.43 71.63,-43.43"/>
</a>
</g>
</g>
<!-- Node3 -->
<g id="Node000003" class="node">
<title>Node3</title>
<g id="a_Node000003"><a xlink:href="class_im_fusion_1_1_linear_system_solver.html" target="_top" xlink:title="Interface for linear system solvers.">
<polygon fill="white" stroke="#666666" points="150.25,-141 0,-141 0,-121.75 150.25,-121.75 150.25,-141"/>
<text xml:space="preserve" text-anchor="middle" x="75.12" y="-127.5" font-family="Helvetica,sans-Serif" font-size="10.00">ImFusion::LinearSystemSolver</text>
</a>
</g>
</g>
<!-- Node3&#45;&gt;Node2 -->
<g id="edge2_Node000002_Node000003" class="edge">
<title>Node3&#45;&gt;Node2</title>
<g id="a_edge2_Node000002_Node000003"><a xlink:title=" ">
<path fill="none" stroke="#63b8ff" d="M75.12,-110.17C75.12,-102.24 75.12,-93.31 75.12,-86.03"/>
<polygon fill="#63b8ff" stroke="#63b8ff" points="71.63,-109.92 75.13,-119.92 78.63,-109.92 71.63,-109.92"/>
</a>
</g>
</g>
</g>
</svg>
