<?xml version="1.0" encoding="UTF-8" standalone="no"?>
<!DOCTYPE svg PUBLIC "-//W3C//DTD SVG 1.1//EN"
 "http://www.w3.org/Graphics/SVG/1.1/DTD/svg11.dtd">
<!-- Generated by graphviz version 14.1.4 (20260321.0153)
 -->
<!-- Title: ImFusion::Dicom::ImagePlane Pages: 1 -->
<svg width="515pt" height="101pt"
 viewBox="0.00 0.00 515.00 101.00" xmlns="http://www.w3.org/2000/svg" xmlns:xlink="http://www.w3.org/1999/xlink">
<g id="graph0" class="graph" transform="scale(1 1) rotate(0) translate(4 97.25)">
<title>ImFusion::Dicom::ImagePlane</title>
<!-- Node1 -->
<g id="Node000001" class="node">
<title>Node1</title>
<g id="a_Node000001"><a xlink:title="Image Plane Module (PS 3.3 C.7.6.2).">
<polygon fill="#999999" stroke="#666666" points="507,-56.25 358.25,-56.25 358.25,-37 507,-37 507,-56.25"/>
<text xml:space="preserve" text-anchor="middle" x="432.62" y="-42.75" font-family="Helvetica,sans-Serif" font-size="10.00">ImFusion::Dicom::ImagePlane</text>
</a>
</g>
</g>
<!-- Node2 -->
<g id="Node000002" class="node">
<title>Node2</title>
<g id="a_Node000002"><a xlink:href="class_im_fusion_1_1_dicom_1_1_module.html" target="_top" xlink:title="Base class for Dicom Modules.">
<polygon fill="white" stroke="#666666" points="322.25,-56.25 193.75,-56.25 193.75,-37 322.25,-37 322.25,-56.25"/>
<text xml:space="preserve" text-anchor="middle" x="258" y="-42.75" font-family="Helvetica,sans-Serif" font-size="10.00">ImFusion::Dicom::Module</text>
</a>
</g>
</g>
<!-- Node2&#45;&gt;Node1 -->
<g id="edge1_Node000001_Node000002" class="edge">
<title>Node2&#45;&gt;Node1</title>
<g id="a_edge1_Node000001_Node000002"><a xlink:title=" ">
<path fill="none" stroke="#63b8ff" d="M333.55,-46.62C341.59,-46.62 349.77,-46.62 357.81,-46.62"/>
<polygon fill="#63b8ff" stroke="#63b8ff" points="333.81,-43.13 323.81,-46.63 333.81,-50.13 333.81,-43.13"/>
</a>
</g>
</g>
<!-- Node3 -->
<g id="Node000003" class="node">
<title>Node3</title>
<g id="a_Node000003"><a xlink:href="class_im_fusion_1_1_dicom_1_1_element_list.html" target="_top" xlink:title="Interface for classes that consist of Elements.">
<polygon fill="white" stroke="#666666" points="153.25,-93.25 4.5,-93.25 4.5,-74 153.25,-74 153.25,-93.25"/>
<text xml:space="preserve" text-anchor="middle" x="78.88" y="-79.75" font-family="Helvetica,sans-Serif" font-size="10.00">ImFusion::Dicom::ElementList</text>
</a>
</g>
</g>
<!-- Node3&#45;&gt;Node2 -->
<g id="edge2_Node000002_Node000003" class="edge">
<title>Node3&#45;&gt;Node2</title>
<g id="a_edge2_Node000002_Node000003"><a xlink:title=" ">
<path fill="none" stroke="#63b8ff" d="M139.42,-71.19C161.94,-66.48 187.29,-61.19 208.66,-56.72"/>
<polygon fill="#63b8ff" stroke="#63b8ff" points="138.83,-67.73 129.76,-73.21 140.26,-74.59 138.83,-67.73"/>
</a>
</g>
</g>
<!-- Node4 -->
<g id="Node000004" class="node">
<title>Node4</title>
<g id="a_Node000004"><a xlink:href="class_im_fusion_1_1_dicom_1_1_error_recorder.html" target="_top" xlink:title="Error handling interface for the Dicom module.">
<polygon fill="white" stroke="#666666" points="157.75,-56.25 0,-56.25 0,-37 157.75,-37 157.75,-56.25"/>
<text xml:space="preserve" text-anchor="middle" x="78.88" y="-42.75" font-family="Helvetica,sans-Serif" font-size="10.00">ImFusion::Dicom::ErrorRecorder</text>
</a>
</g>
</g>
<!-- Node4&#45;&gt;Node2 -->
<g id="edge3_Node000002_Node000004" class="edge">
<title>Node4&#45;&gt;Node2</title>
<g id="a_edge3_Node000002_Node000004"><a xlink:title=" ">
<path fill="none" stroke="#63b8ff" d="M169.44,-46.62C177.49,-46.62 185.52,-46.62 193.28,-46.62"/>
<polygon fill="#63b8ff" stroke="#63b8ff" points="169.59,-43.13 159.59,-46.63 169.59,-50.13 169.59,-43.13"/>
</a>
</g>
</g>
<!-- Node5 -->
<g id="Node000005" class="node">
<title>Node5</title>
<g id="a_Node000005"><a xlink:href="class_im_fusion_1_1_utils_1_1_not_copyable.html" target="_top" xlink:title="Inherit from this class if your class should be neither copy&#45;constructible nor assignable.">
<polygon fill="white" stroke="#666666" points="151.75,-19.25 6,-19.25 6,0 151.75,0 151.75,-19.25"/>
<text xml:space="preserve" text-anchor="middle" x="78.88" y="-5.75" font-family="Helvetica,sans-Serif" font-size="10.00">ImFusion::Utils::NotCopyable</text>
</a>
</g>
</g>
<!-- Node5&#45;&gt;Node2 -->
<g id="edge4_Node000002_Node000005" class="edge">
<title>Node5&#45;&gt;Node2</title>
<g id="a_edge4_Node000002_Node000005"><a xlink:title=" ">
<path fill="none" stroke="#63b8ff" d="M139.42,-22.06C161.94,-26.77 187.29,-32.06 208.66,-36.53"/>
<polygon fill="#63b8ff" stroke="#63b8ff" points="140.26,-18.66 129.76,-20.04 138.83,-25.52 140.26,-18.66"/>
</a>
</g>
</g>
</g>
</svg>
