<?xml version="1.0" encoding="UTF-8" standalone="no"?>
<!DOCTYPE svg PUBLIC "-//W3C//DTD SVG 1.1//EN"
 "http://www.w3.org/Graphics/SVG/1.1/DTD/svg11.dtd">
<!-- Generated by graphviz version 14.1.4 (20260321.0153)
 -->
<!-- Title: ImFusion::PointBasedAnnotationManipulator Pages: 1 -->
<!--zoomable 199 -->

<svg id="main" version="1.1" xmlns="http://www.w3.org/2000/svg" xmlns:xlink="http://www.w3.org/1999/xlink" xml:space="preserve" onload="init(evt)">

<style type="text/css"><![CDATA[
.node, .edge {opacity: 0.7;}
.node.selected, .edge.selected {opacity: 1;}
.edge:hover path { stroke: red; }
.edge:hover polygon { stroke: red; fill: red; }
]]></style>

<defs>
  <circle id="rim" cx="0" cy="0" r="7"/>
  <circle id="rim2" cx="0" cy="0" r="3.5"/>
  <g id="zoomPlus">
    <use xlink:href="#rim" fill="#404040"><set attributeName="fill" to="#808080" begin="zoomplus.mouseover" end="zoomplus.mouseout"/></use>
    <path d="M-4,0h8M0,-4v8" fill="none" stroke="white" stroke-width="1.5" pointer-events="none"/>
  </g>
  <g id="zoomMin">
    <use xlink:href="#rim" fill="#404040"><set attributeName="fill" to="#808080" begin="zoomminus.mouseover" end="zoomminus.mouseout"/></use>
    <path d="M-4,0h8" fill="none" stroke="white" stroke-width="1.5" pointer-events="none"/>
  </g>
  <g id="arrowUp" transform="translate(30 24)">
    <use xlink:href="#rim"/>
    <path pointer-events="none" fill="none" stroke="white" stroke-width="1.5" d="M0,-3.0v7 M-2.5,-0.5L0,-3.0L2.5,-0.5"/>
  </g>
  <g id="arrowRight" transform="rotate(90) translate(36 -43)">
    <use xlink:href="#rim"/>
    <path pointer-events="none" fill="none" stroke="white" stroke-width="1.5" d="M0,-3.0v7 M-2.5,-0.5L0,-3.0L2.5,-0.5"/>
  </g>
  <g id="arrowDown" transform="rotate(180) translate(-30 -48)">
    <use xlink:href="#rim"/>
    <path pointer-events="none" fill="none" stroke="white" stroke-width="1.5" d="M0,-3.0v7 M-2.5,-0.5L0,-3.0L2.5,-0.5"/>
  </g>
  <g id="arrowLeft" transform="rotate(270) translate(-36 17)">
    <use xlink:href="#rim"/>
    <path pointer-events="none" fill="none" stroke="white" stroke-width="1.5" d="M0,-3.0v7 M-2.5,-0.5L0,-3.0L2.5,-0.5"/>
  </g>
  <g id="resetDef">
    <use xlink:href="#rim2" fill="#404040"><set attributeName="fill" to="#808080" begin="reset.mouseover" end="reset.mouseout"/></use>
  </g>
</defs>
<script type="application/ecmascript">
var viewWidth = 691;
var viewHeight = 199;
var sectionId = 'dynsection-0';
</script>
<script type="application/ecmascript" xlink:href="svg.min.js"/>
<svg id="graph" class="graph">
<g id="viewport">
<title>ImFusion::PointBasedAnnotationManipulator</title>
<!-- Node1 -->
<g id="Node000001" class="node">
<title>Node1</title>
<g id="a_Node000001"><a xlink:title="Manipulator for point&#45;based annotations.">
<polygon fill="#999999" stroke="#666666" points="480.75,-104.88 321.5,-104.88 321.5,-74.38 480.75,-74.38 480.75,-104.88"/>
<text xml:space="preserve" text-anchor="start" x="329.5" y="-91.38" font-family="Helvetica,sans-Serif" font-size="10.00">ImFusion::PointBasedAnnotation</text>
<text xml:space="preserve" text-anchor="middle" x="401.12" y="-80.12" font-family="Helvetica,sans-Serif" font-size="10.00">Manipulator</text>
</a>
</g>
</g>
<!-- Node4 -->
<g id="Node000004" class="node">
<title>Node4</title>
<g id="a_Node000004"><a xlink:href="class_im_fusion_1_1_curve_editor_manipulator.html" target="_top" xlink:title=" ">
<polygon fill="white" stroke="#bfbfbf" points="682,-191.25 517.5,-191.25 517.5,-172 682,-172 682,-191.25"/>
<text xml:space="preserve" text-anchor="middle" x="599.75" y="-177.75" font-family="Helvetica,sans-Serif" font-size="10.00">ImFusion::CurveEditorManipulator</text>
</a>
</g>
</g>
<!-- Node1&#45;&gt;Node4 -->
<g id="edge3_Node000001_Node000004" class="edge">
<title>Node1&#45;&gt;Node4</title>
<g id="a_edge3_Node000001_Node000004"><a xlink:title=" ">
<path fill="none" stroke="#63b8ff" d="M431.29,-112.15C453.58,-128.36 485.67,-149.58 516.75,-162.62 525.24,-166.19 534.52,-169.15 543.68,-171.59"/>
<polygon fill="#63b8ff" stroke="#63b8ff" points="433.41,-109.37 423.29,-106.23 429.24,-114.99 433.41,-109.37"/>
</a>
</g>
</g>
<!-- Node5 -->
<g id="Node000005" class="node">
<title>Node5</title>
<g id="a_Node000005"><a xlink:href="class_im_fusion_1_1_curved_view_spline_manipulator.html" target="_top" xlink:title="Manipulator setting the direction of spline based curved views.">
<polygon fill="white" stroke="#666666" points="671.12,-153.88 528.38,-153.88 528.38,-123.38 671.12,-123.38 671.12,-153.88"/>
<text xml:space="preserve" text-anchor="start" x="536.38" y="-140.38" font-family="Helvetica,sans-Serif" font-size="10.00">ImFusion::CurvedViewSpline</text>
<text xml:space="preserve" text-anchor="middle" x="599.75" y="-129.12" font-family="Helvetica,sans-Serif" font-size="10.00">Manipulator</text>
</a>
</g>
</g>
<!-- Node1&#45;&gt;Node5 -->
<g id="edge4_Node000001_Node000005" class="edge">
<title>Node1&#45;&gt;Node5</title>
<g id="a_edge4_Node000001_Node000005"><a xlink:title=" ">
<path fill="none" stroke="#63b8ff" d="M476.19,-108.08C495.8,-112.97 516.78,-118.2 535.74,-122.92"/>
<polygon fill="#63b8ff" stroke="#63b8ff" points="477.17,-104.72 466.62,-105.7 475.48,-111.51 477.17,-104.72"/>
</a>
</g>
</g>
<!-- Node6 -->
<g id="Node000006" class="node">
<title>Node6</title>
<g id="a_Node000006"><a xlink:href="class_im_fusion_1_1_freeform_annotation_manipulator.html" target="_top" xlink:title="Manipulator for freeform annotations.">
<polygon fill="white" stroke="#666666" points="673.75,-104.88 525.75,-104.88 525.75,-74.38 673.75,-74.38 673.75,-104.88"/>
<text xml:space="preserve" text-anchor="start" x="533.75" y="-91.38" font-family="Helvetica,sans-Serif" font-size="10.00">ImFusion::FreeformAnnotation</text>
<text xml:space="preserve" text-anchor="middle" x="599.75" y="-80.12" font-family="Helvetica,sans-Serif" font-size="10.00">Manipulator</text>
</a>
</g>
</g>
<!-- Node1&#45;&gt;Node6 -->
<g id="edge5_Node000001_Node000006" class="edge">
<title>Node1&#45;&gt;Node6</title>
<g id="a_edge5_Node000001_Node000006"><a xlink:title=" ">
<path fill="none" stroke="#63b8ff" d="M492.65,-89.62C503.66,-89.62 514.8,-89.62 525.51,-89.62"/>
<polygon fill="#63b8ff" stroke="#63b8ff" points="492.76,-86.13 482.76,-89.63 492.76,-93.13 492.76,-86.13"/>
</a>
</g>
</g>
<!-- Node7 -->
<g id="Node000007" class="node">
<title>Node7</title>
<g id="a_Node000007"><a xlink:href="class_im_fusion_1_1_loop_manipulator.html" target="_top" xlink:title=" ">
<polygon fill="white" stroke="#bfbfbf" points="666.62,-56.25 532.88,-56.25 532.88,-37 666.62,-37 666.62,-56.25"/>
<text xml:space="preserve" text-anchor="middle" x="599.75" y="-42.75" font-family="Helvetica,sans-Serif" font-size="10.00">ImFusion::LoopManipulator</text>
</a>
</g>
</g>
<!-- Node1&#45;&gt;Node7 -->
<g id="edge6_Node000001_Node000007" class="edge">
<title>Node1&#45;&gt;Node7</title>
<g id="a_edge6_Node000001_Node000007"><a xlink:title=" ">
<path fill="none" stroke="#63b8ff" d="M485.15,-71.47C508.19,-66.43 532.39,-61.14 552.5,-56.74"/>
<polygon fill="#63b8ff" stroke="#63b8ff" points="484.45,-68.04 475.42,-73.6 485.94,-74.88 484.45,-68.04"/>
</a>
</g>
</g>
<!-- Node8 -->
<g id="Node000008" class="node">
<title>Node8</title>
<g id="a_Node000008"><a xlink:href="class_im_fusion_1_1_smart_spline_manipulator.html" target="_top" xlink:title="Manipulator for smart spline annotations.">
<polygon fill="white" stroke="#666666" points="682.75,-19.25 516.75,-19.25 516.75,0 682.75,0 682.75,-19.25"/>
<text xml:space="preserve" text-anchor="middle" x="599.75" y="-5.75" font-family="Helvetica,sans-Serif" font-size="10.00">ImFusion::SmartSplineManipulator</text>
</a>
</g>
</g>
<!-- Node1&#45;&gt;Node8 -->
<g id="edge7_Node000001_Node000008" class="edge">
<title>Node1&#45;&gt;Node8</title>
<g id="a_edge7_Node000001_Node000008"><a xlink:title=" ">
<path fill="none" stroke="#63b8ff" d="M435.84,-68.12C458.07,-54.78 488.25,-38.22 516.75,-27.62 525.08,-24.53 534.1,-21.88 543,-19.65"/>
<polygon fill="#63b8ff" stroke="#63b8ff" points="434.23,-65.01 427.52,-73.21 437.87,-70.99 434.23,-65.01"/>
</a>
</g>
</g>
<!-- Node2 -->
<g id="Node000002" class="node">
<title>Node2</title>
<g id="a_Node000002"><a xlink:href="class_im_fusion_1_1_manipulator.html" target="_top" xlink:title="Abstract base class for manipulator objects.">
<polygon fill="white" stroke="#666666" points="285.5,-99.25 172.75,-99.25 172.75,-80 285.5,-80 285.5,-99.25"/>
<text xml:space="preserve" text-anchor="middle" x="229.12" y="-85.75" font-family="Helvetica,sans-Serif" font-size="10.00">ImFusion::Manipulator</text>
</a>
</g>
</g>
<!-- Node2&#45;&gt;Node1 -->
<g id="edge1_Node000001_Node000002" class="edge">
<title>Node2&#45;&gt;Node1</title>
<g id="a_edge1_Node000001_Node000002"><a xlink:title=" ">
<path fill="none" stroke="#63b8ff" d="M297.16,-89.62C305.06,-89.62 313.17,-89.62 321.2,-89.62"/>
<polygon fill="#63b8ff" stroke="#63b8ff" points="297.3,-86.13 287.3,-89.63 297.3,-93.13 297.3,-86.13"/>
</a>
</g>
</g>
<!-- Node3 -->
<g id="Node000003" class="node">
<title>Node3</title>
<g id="a_Node000003"><a xlink:href="class_im_fusion_1_1_g_u_i_1_1_view_object_1_1_event_handler.html" target="_top" xlink:title="Interface to be used as base class for event handlers of ViewObjects.">
<polygon fill="white" stroke="#666666" points="136.75,-104.88 0,-104.88 0,-74.38 136.75,-74.38 136.75,-104.88"/>
<text xml:space="preserve" text-anchor="start" x="8" y="-91.38" font-family="Helvetica,sans-Serif" font-size="10.00">ImFusion::GUI::ViewObject</text>
<text xml:space="preserve" text-anchor="middle" x="68.38" y="-80.12" font-family="Helvetica,sans-Serif" font-size="10.00">::EventHandler</text>
</a>
</g>
</g>
<!-- Node3&#45;&gt;Node2 -->
<g id="edge2_Node000002_Node000003" class="edge">
<title>Node3&#45;&gt;Node2</title>
<g id="a_edge2_Node000002_Node000003"><a xlink:title=" ">
<path fill="none" stroke="#63b8ff" d="M148.57,-89.62C156.67,-89.62 164.76,-89.62 172.53,-89.62"/>
<polygon fill="#63b8ff" stroke="#63b8ff" points="148.67,-86.13 138.67,-89.63 148.67,-93.13 148.67,-86.13"/>
</a>
</g>
</g>
</g>
</svg>

<g id="navigator" transform="translate(0 0)" fill="#404254">
  <rect fill="#f2f5e9" fill-opacity="0.5" stroke="#606060" stroke-width=".5" x="0" y="0" width="60" height="60"/>
  <use id="zoomplus" xlink:href="#zoomPlus" x="17" y="9" onmousedown="handleZoom(evt,'in')"/>
  <use id="zoomminus" xlink:href="#zoomMin" x="42" y="9" onmousedown="handleZoom(evt,'out')"/>
  <use id="reset" xlink:href="#resetDef" x="30" y="36" onmousedown="handleReset()"/>
   <use id="arrowup" xlink:href="#arrowUp" x="0" y="0" onmousedown="handlePan(0,-1)"/>
  <use id="arrowright" xlink:href="#arrowRight" x="0" y="0" onmousedown="handlePan(1,0)"/>
  <use id="arrowdown" xlink:href="#arrowDown" x="0" y="0" onmousedown="handlePan(0,1)"/>
  <use id="arrowleft" xlink:href="#arrowLeft" x="0" y="0" onmousedown="handlePan(-1,0)"/>
</g>
<svg viewBox="0 0 15 15" width="100%" height="30px" preserveAspectRatio="xMaxYMin meet">
 <g id="arrow_out" transform="scale(0.3 0.3)">
  <a xlink:href="class_im_fusion_1_1_point_based_annotation_manipulator__inherit__graph_org.svg" target="_base">
   <rect id="button" ry="5" rx="5" y="6" x="6" height="38" width="38"
        fill="#f2f5e9" fill-opacity="0.5" stroke="#606060" stroke-width="1.0"/>
   <path id="arrow"
     d="M 11.500037,31.436501 C 11.940474,20.09759 22.043105,11.32322 32.158766,21.979434 L 37.068811,17.246167 C 37.068811,17.246167 37.088388,32 37.088388,32 L 22.160133,31.978069 C 22.160133,31.978069 26.997745,27.140456 26.997745,27.140456 C 18.528582,18.264221 13.291696,25.230495 11.500037,31.436501 z"
     style="fill:#404040;"/>
  </a>
 </g>
</svg>

<style type='text/css'>
<![CDATA[
[data-mouse-over-selected='false'] { opacity: 0.7; }
[data-mouse-over-selected='true']  { opacity: 1.0; }
]]>
</style>
<script type="application/ecmascript"><![CDATA[
document.addEventListener('DOMContentLoaded', (event) => {
  highlightEdges();
  highlightAdjacentNodes();
});
]]></script>
</svg>
