<?xml version="1.0" encoding="UTF-8" standalone="no"?>
<!DOCTYPE svg PUBLIC "-//W3C//DTD SVG 1.1//EN"
 "http://www.w3.org/Graphics/SVG/1.1/DTD/svg11.dtd">
<!-- Generated by graphviz version 14.1.4 (20260321.0153)
 -->
<!-- Title: ImFusion::Interaction3D Pages: 1 -->
<svg width="413pt" height="216pt"
 viewBox="0.00 0.00 413.00 216.00" xmlns="http://www.w3.org/2000/svg" xmlns:xlink="http://www.w3.org/1999/xlink">

<svg id="main" version="1.1" xmlns="http://www.w3.org/2000/svg" xmlns:xlink="http://www.w3.org/1999/xlink" xml:space="preserve">

<style type="text/css"><![CDATA[
.node, .edge {opacity: 0.7;}
.node.selected, .edge.selected {opacity: 1;}
.edge:hover path { stroke: red; }
.edge:hover polygon { stroke: red; fill: red; }
]]></style>
<script type="application/ecmascript" xlink:href="svg.min.js"/>
<svg id="graph" class="graph">
<g id="graph0" class="graph" transform="scale(1 1) rotate(0) translate(4 211.5)">
<title>ImFusion::Interaction3D</title>
<!-- Node1 -->
<g id="Node000001" class="node">
<title>Node1</title>
<g id="a_Node000001"><a xlink:title="Standard 3D view interaction.">
<polygon fill="#999999" stroke="#666666" points="202.5,-19.25 81.5,-19.25 81.5,0 202.5,0 202.5,-19.25"/>
<text xml:space="preserve" text-anchor="middle" x="142" y="-5.75" font-family="Helvetica,sans-Serif" font-size="10.00">ImFusion::Interaction3D</text>
</a>
</g>
</g>
<!-- Node2 -->
<g id="Node000002" class="node">
<title>Node2</title>
<g id="a_Node000002"><a xlink:href="class_im_fusion_1_1_view_interaction.html" target="_top" xlink:title="Base class for all view interactions.">
<polygon fill="white" stroke="#666666" points="130,-80.12 0,-80.12 0,-60.88 130,-60.88 130,-80.12"/>
<text xml:space="preserve" text-anchor="middle" x="65" y="-66.62" font-family="Helvetica,sans-Serif" font-size="10.00">ImFusion::ViewInteraction</text>
</a>
</g>
</g>
<!-- Node2&#45;&gt;Node1 -->
<g id="edge1_Node000001_Node000002" class="edge">
<title>Node2&#45;&gt;Node1</title>
<g id="a_edge1_Node000001_Node000002"><a xlink:title=" ">
<path fill="none" stroke="#63b8ff" d="M85.76,-53.63C100.01,-42.73 118.4,-28.67 130.2,-19.65"/>
<polygon fill="#63b8ff" stroke="#63b8ff" points="83.72,-50.78 77.9,-59.64 87.97,-56.35 83.72,-50.78"/>
</a>
</g>
</g>
<!-- Node3 -->
<g id="Node000003" class="node">
<title>Node3</title>
<g id="a_Node000003"><a xlink:href="class_im_fusion_1_1_interaction.html" target="_top" xlink:title="Base interface class for view and overlay interactions.">
<polygon fill="white" stroke="#666666" points="119.12,-146.62 10.88,-146.62 10.88,-127.38 119.12,-127.38 119.12,-146.62"/>
<text xml:space="preserve" text-anchor="middle" x="65" y="-133.12" font-family="Helvetica,sans-Serif" font-size="10.00">ImFusion::Interaction</text>
</a>
</g>
</g>
<!-- Node3&#45;&gt;Node2 -->
<g id="edge2_Node000002_Node000003" class="edge">
<title>Node3&#45;&gt;Node2</title>
<g id="a_edge2_Node000002_Node000003"><a xlink:title=" ">
<path fill="none" stroke="#63b8ff" d="M65,-115.52C65,-103.69 65,-89.41 65,-80.39"/>
<polygon fill="#63b8ff" stroke="#63b8ff" points="61.5,-115.52 65,-125.52 68.5,-115.52 61.5,-115.52"/>
</a>
</g>
</g>
<!-- Node4 -->
<g id="Node000004" class="node">
<title>Node4</title>
<g id="a_Node000004"><a xlink:title=" ">
<polygon fill="white" stroke="#bfbfbf" points="91,-207.5 39,-207.5 39,-188.25 91,-188.25 91,-207.5"/>
<text xml:space="preserve" text-anchor="middle" x="65" y="-194" font-family="Helvetica,sans-Serif" font-size="10.00">QObject</text>
</a>
</g>
</g>
<!-- Node4&#45;&gt;Node3 -->
<g id="edge3_Node000003_Node000004" class="edge">
<title>Node4&#45;&gt;Node3</title>
<g id="a_edge3_Node000003_Node000004"><a xlink:title=" ">
<path fill="none" stroke="#63b8ff" d="M65,-176.45C65,-166.42 65,-154.83 65,-147.03"/>
<polygon fill="#63b8ff" stroke="#63b8ff" points="61.5,-176.42 65,-186.42 68.5,-176.42 61.5,-176.42"/>
</a>
</g>
</g>
<!-- Node5 -->
<g id="Node000005" class="node">
<title>Node5</title>
<g id="a_Node000005"><a xlink:href="class_im_fusion_1_1_g_u_i_1_1_volume_view_default_event_handler.html" target="_top" xlink:title="Implementation of an input event handler providing standard mouse, touch, and keyboard interaction wi...">
<polygon fill="white" stroke="#666666" points="289.62,-85.75 148.38,-85.75 148.38,-55.25 289.62,-55.25 289.62,-85.75"/>
<text xml:space="preserve" text-anchor="start" x="156.38" y="-72.25" font-family="Helvetica,sans-Serif" font-size="10.00">ImFusion::GUI::VolumeView</text>
<text xml:space="preserve" text-anchor="middle" x="219" y="-61" font-family="Helvetica,sans-Serif" font-size="10.00">DefaultEventHandler</text>
</a>
</g>
</g>
<!-- Node5&#45;&gt;Node1 -->
<g id="edge4_Node000001_Node000005" class="edge">
<title>Node5&#45;&gt;Node1</title>
<g id="a_edge4_Node000001_Node000005"><a xlink:title=" ">
<path fill="none" stroke="#63b8ff" d="M191.03,-48.12C178.24,-38.33 163.76,-27.26 153.87,-19.7"/>
<polygon fill="#63b8ff" stroke="#63b8ff" points="188.69,-50.73 198.76,-54.03 192.95,-45.17 188.69,-50.73"/>
</a>
</g>
</g>
<!-- Node6 -->
<g id="Node000006" class="node">
<title>Node6</title>
<g id="a_Node000006"><a xlink:href="class_im_fusion_1_1_g_u_i_1_1_view_1_1_event_handler.html" target="_top" xlink:title="Interface to be used as base class for event handlers of Views.">
<polygon fill="white" stroke="#666666" points="259.12,-152.25 150.88,-152.25 150.88,-121.75 259.12,-121.75 259.12,-152.25"/>
<text xml:space="preserve" text-anchor="start" x="158.88" y="-138.75" font-family="Helvetica,sans-Serif" font-size="10.00">ImFusion::GUI::View</text>
<text xml:space="preserve" text-anchor="middle" x="205" y="-127.5" font-family="Helvetica,sans-Serif" font-size="10.00">::EventHandler</text>
</a>
</g>
</g>
<!-- Node6&#45;&gt;Node5 -->
<g id="edge5_Node000005_Node000006" class="edge">
<title>Node6&#45;&gt;Node5</title>
<g id="a_edge5_Node000005_Node000006"><a xlink:title=" ">
<path fill="none" stroke="#63b8ff" d="M210.57,-110.34C212.36,-102.09 214.28,-93.24 215.84,-86.08"/>
<polygon fill="#63b8ff" stroke="#63b8ff" points="207.2,-109.37 208.5,-119.88 214.04,-110.85 207.2,-109.37"/>
</a>
</g>
</g>
<!-- Node7 -->
<g id="Node000007" class="node">
<title>Node7</title>
<g id="a_Node000007"><a xlink:href="class_im_fusion_1_1_signal_receiver.html" target="_top" xlink:title="Base class for classes that can contain slots (i.e.">
<polygon fill="white" stroke="#666666" points="405.25,-146.62 276.75,-146.62 276.75,-127.38 405.25,-127.38 405.25,-146.62"/>
<text xml:space="preserve" text-anchor="middle" x="341" y="-133.12" font-family="Helvetica,sans-Serif" font-size="10.00">ImFusion::SignalReceiver</text>
</a>
</g>
</g>
<!-- Node7&#45;&gt;Node5 -->
<g id="edge6_Node000005_Node000007" class="edge">
<title>Node7&#45;&gt;Node5</title>
<g id="a_edge6_Node000005_Node000007"><a xlink:title=" ">
<path fill="none" stroke="#63b8ff" d="M313.74,-121.59C293.7,-110.99 266.57,-96.65 246.48,-86.03"/>
<polygon fill="#63b8ff" stroke="#63b8ff" points="311.96,-124.61 322.44,-126.19 315.24,-118.42 311.96,-124.61"/>
</a>
</g>
</g>
</g>
</svg>
</svg>

<style type='text/css'>
<![CDATA[
[data-mouse-over-selected='false'] { opacity: 0.7; }
[data-mouse-over-selected='true']  { opacity: 1.0; }
]]>
</style>
<script type="application/ecmascript"><![CDATA[
document.addEventListener('DOMContentLoaded', (event) => {
  highlightEdges();
  highlightAdjacentNodes();
});
]]></script>
</svg>
