<?xml version="1.0" encoding="UTF-8" standalone="no"?>
<!DOCTYPE svg PUBLIC "-//W3C//DTD SVG 1.1//EN"
 "http://www.w3.org/Graphics/SVG/1.1/DTD/svg11.dtd">
<!-- Generated by graphviz version 14.1.4 (20260321.0153)
 -->
<!-- Title: ImFusion::InteractiveObject Pages: 1 -->
<svg width="722pt" height="885pt"
 viewBox="0.00 0.00 722.00 885.00" xmlns="http://www.w3.org/2000/svg" xmlns:xlink="http://www.w3.org/1999/xlink">
<g id="graph0" class="graph" transform="scale(1 1) rotate(0) translate(4 880.88)">
<title>ImFusion::InteractiveObject</title>
<!-- Node1 -->
<g id="Node000001" class="node">
<title>Node1</title>
<g id="a_Node000001"><a xlink:title="Wraps a GlObject pairing it with an optional Manipulator in order to attach it to an InteractiveView.">
<polygon fill="#999999" stroke="#666666" points="491.25,-458.25 354.5,-458.25 354.5,-439 491.25,-439 491.25,-458.25"/>
<text xml:space="preserve" text-anchor="middle" x="422.88" y="-444.75" font-family="Helvetica,sans-Serif" font-size="10.00">ImFusion::InteractiveObject</text>
</a>
</g>
</g>
<!-- Node4 -->
<g id="Node000004" class="node">
<title>Node4</title>
<g id="a_Node000004"><a xlink:href="class_im_fusion_1_1_interactive.html" target="_top" xlink:title=" ">
<polygon fill="white" stroke="#666666" points="680.12,-876.88 561.38,-876.88 561.38,-846.38 680.12,-846.38 680.12,-876.88"/>
<text xml:space="preserve" text-anchor="start" x="569.38" y="-863.38" font-family="Helvetica,sans-Serif" font-size="10.00">ImFusion::Interactive</text>
<text xml:space="preserve" text-anchor="middle" x="620.75" y="-852.12" font-family="Helvetica,sans-Serif" font-size="10.00">&lt; ImFusion::GlObject &gt;</text>
</a>
</g>
</g>
<!-- Node1&#45;&gt;Node4 -->
<g id="edge3_Node000001_Node000004" class="edge">
<title>Node1&#45;&gt;Node4</title>
<g id="a_edge3_Node000001_Node000004"><a xlink:title=" ">
<path fill="none" stroke="#63b8ff" d="M426.69,-469.67C436.88,-542.62 473.99,-783.17 527.25,-836.62 536.41,-845.82 548.57,-851.73 561.06,-855.5"/>
<polygon fill="#63b8ff" stroke="#63b8ff" points="430.18,-469.35 425.36,-459.92 423.25,-470.3 430.18,-469.35"/>
</a>
</g>
</g>
<!-- Node5 -->
<g id="Node000005" class="node">
<title>Node5</title>
<g id="a_Node000005"><a xlink:href="class_im_fusion_1_1_interactive.html" target="_top" xlink:title=" ">
<polygon fill="white" stroke="#666666" points="714.25,-827.88 527.25,-827.88 527.25,-797.38 714.25,-797.38 714.25,-827.88"/>
<text xml:space="preserve" text-anchor="start" x="535.25" y="-814.38" font-family="Helvetica,sans-Serif" font-size="10.00">ImFusion::Interactive</text>
<text xml:space="preserve" text-anchor="middle" x="620.75" y="-803.12" font-family="Helvetica,sans-Serif" font-size="10.00">&lt; ImFusion::GlPointBasedAnnotation &gt;</text>
</a>
</g>
</g>
<!-- Node1&#45;&gt;Node5 -->
<g id="edge4_Node000001_Node000005" class="edge">
<title>Node1&#45;&gt;Node5</title>
<g id="a_edge4_Node000001_Node000005"><a xlink:title=" ">
<path fill="none" stroke="#63b8ff" d="M423.71,-469.93C424.46,-529.33 435.01,-698.29 527.25,-787.62 530.95,-791.21 535.12,-794.3 539.58,-796.95"/>
<polygon fill="#63b8ff" stroke="#63b8ff" points="427.21,-470.2 423.68,-460.21 420.21,-470.22 427.21,-470.2"/>
</a>
</g>
</g>
<!-- Node6 -->
<g id="Node000006" class="node">
<title>Node6</title>
<g id="a_Node000006"><a xlink:href="class_im_fusion_1_1_interactive.html" target="_top" xlink:title=" ">
<polygon fill="white" stroke="#666666" points="676.75,-778.88 564.75,-778.88 564.75,-748.38 676.75,-748.38 676.75,-778.88"/>
<text xml:space="preserve" text-anchor="start" x="572.75" y="-765.38" font-family="Helvetica,sans-Serif" font-size="10.00">ImFusion::Interactive</text>
<text xml:space="preserve" text-anchor="middle" x="620.75" y="-754.12" font-family="Helvetica,sans-Serif" font-size="10.00">&lt; ImFusion::GlSlice &gt;</text>
</a>
</g>
</g>
<!-- Node1&#45;&gt;Node6 -->
<g id="edge5_Node000001_Node000006" class="edge">
<title>Node1&#45;&gt;Node6</title>
<g id="a_edge5_Node000001_Node000006"><a xlink:title=" ">
<path fill="none" stroke="#63b8ff" d="M424.92,-470.12C428.73,-523.95 446.36,-665.52 527.25,-739.62 537.53,-749.04 551.02,-754.86 564.51,-758.43"/>
<polygon fill="#63b8ff" stroke="#63b8ff" points="428.42,-469.97 424.32,-460.2 421.43,-470.39 428.42,-469.97"/>
</a>
</g>
</g>
<!-- Node7 -->
<g id="Node000007" class="node">
<title>Node7</title>
<g id="a_Node000007"><a xlink:href="class_im_fusion_1_1_interactive.html" target="_top" xlink:title=" ">
<polygon fill="white" stroke="#666666" points="683.12,-730.5 558.38,-730.5 558.38,-688.75 683.12,-688.75 683.12,-730.5"/>
<text xml:space="preserve" text-anchor="start" x="566.38" y="-717" font-family="Helvetica,sans-Serif" font-size="10.00">ImFusion::Interactive</text>
<text xml:space="preserve" text-anchor="start" x="566.38" y="-705.75" font-family="Helvetica,sans-Serif" font-size="10.00">&lt; ImFusion::GlObject,</text>
<text xml:space="preserve" text-anchor="middle" x="620.75" y="-694.5" font-family="Helvetica,sans-Serif" font-size="10.00"> ImFusion::Manipulator &gt;</text>
</a>
</g>
</g>
<!-- Node1&#45;&gt;Node7 -->
<g id="edge6_Node000001_Node000007" class="edge">
<title>Node1&#45;&gt;Node7</title>
<g id="a_edge6_Node000001_Node000007"><a xlink:title=" ">
<path fill="none" stroke="#63b8ff" d="M427.43,-469.92C436.1,-515.18 462.55,-621.51 527.25,-679.62 536.04,-687.52 546.94,-693.34 558.14,-697.63"/>
<polygon fill="#63b8ff" stroke="#63b8ff" points="430.89,-469.35 425.67,-460.13 424,-470.59 430.89,-469.35"/>
</a>
</g>
</g>
<!-- Node8 -->
<g id="Node000008" class="node">
<title>Node8</title>
<g id="a_Node000008"><a xlink:href="class_im_fusion_1_1_interactive.html" target="_top" xlink:title=" ">
<polygon fill="white" stroke="#666666" points="683.12,-670.5 558.38,-670.5 558.38,-628.75 683.12,-628.75 683.12,-670.5"/>
<text xml:space="preserve" text-anchor="start" x="566.38" y="-657" font-family="Helvetica,sans-Serif" font-size="10.00">ImFusion::Interactive</text>
<text xml:space="preserve" text-anchor="start" x="566.38" y="-645.75" font-family="Helvetica,sans-Serif" font-size="10.00">&lt; ImFusion::GlCircle,</text>
<text xml:space="preserve" text-anchor="middle" x="620.75" y="-634.5" font-family="Helvetica,sans-Serif" font-size="10.00"> ImFusion::Manipulator &gt;</text>
</a>
</g>
</g>
<!-- Node1&#45;&gt;Node8 -->
<g id="edge7_Node000001_Node000008" class="edge">
<title>Node1&#45;&gt;Node8</title>
<g id="a_edge7_Node000001_Node000008"><a xlink:title=" ">
<path fill="none" stroke="#63b8ff" d="M430.73,-468.94C443.82,-504.65 475.72,-578.77 527.25,-619.62 536.25,-626.76 546.99,-632.22 557.92,-636.39"/>
<polygon fill="#63b8ff" stroke="#63b8ff" points="434.15,-468.1 427.52,-459.83 427.55,-470.43 434.15,-468.1"/>
</a>
</g>
</g>
<!-- Node9 -->
<g id="Node000009" class="node">
<title>Node9</title>
<g id="a_Node000009"><a xlink:href="class_im_fusion_1_1_interactive.html" target="_top" xlink:title=" ">
<polygon fill="white" stroke="#666666" points="684.62,-610.88 556.88,-610.88 556.88,-580.38 684.62,-580.38 684.62,-610.88"/>
<text xml:space="preserve" text-anchor="start" x="564.88" y="-597.38" font-family="Helvetica,sans-Serif" font-size="10.00">ImFusion::Interactive</text>
<text xml:space="preserve" text-anchor="middle" x="620.75" y="-586.12" font-family="Helvetica,sans-Serif" font-size="10.00">&lt; ImFusion::GlPolyLine &gt;</text>
</a>
</g>
</g>
<!-- Node1&#45;&gt;Node9 -->
<g id="edge8_Node000001_Node000009" class="edge">
<title>Node1&#45;&gt;Node9</title>
<g id="a_edge8_Node000001_Node000009"><a xlink:title=" ">
<path fill="none" stroke="#63b8ff" d="M435.11,-468.17C451.73,-495.32 485.46,-544.08 527.25,-570.62 536.1,-576.24 546.19,-580.61 556.38,-584"/>
<polygon fill="#63b8ff" stroke="#63b8ff" points="438.31,-466.71 430.19,-459.91 432.3,-470.29 438.31,-466.71"/>
</a>
</g>
</g>
<!-- Node10 -->
<g id="Node000010" class="node">
<title>Node10</title>
<g id="a_Node000010"><a xlink:href="class_im_fusion_1_1_interactive.html" target="_top" xlink:title=" ">
<polygon fill="white" stroke="#666666" points="674.88,-561.88 566.62,-561.88 566.62,-531.38 674.88,-531.38 674.88,-561.88"/>
<text xml:space="preserve" text-anchor="start" x="574.62" y="-548.38" font-family="Helvetica,sans-Serif" font-size="10.00">ImFusion::Interactive</text>
<text xml:space="preserve" text-anchor="middle" x="620.75" y="-537.12" font-family="Helvetica,sans-Serif" font-size="10.00">&lt; ImFusion::GlLine &gt;</text>
</a>
</g>
</g>
<!-- Node1&#45;&gt;Node10 -->
<g id="edge9_Node000001_Node000010" class="edge">
<title>Node1&#45;&gt;Node10</title>
<g id="a_edge9_Node000001_Node000010"><a xlink:title=" ">
<path fill="none" stroke="#63b8ff" d="M443.86,-466C463.77,-482.47 495.81,-506.85 527.25,-521.62 539.44,-527.36 553.18,-531.96 566.27,-535.59"/>
<polygon fill="#63b8ff" stroke="#63b8ff" points="446.18,-463.37 436.28,-459.6 441.67,-468.72 446.18,-463.37"/>
</a>
</g>
</g>
<!-- Node11 -->
<g id="Node000011" class="node">
<title>Node11</title>
<g id="a_Node000011"><a xlink:href="class_im_fusion_1_1_interactive.html" target="_top" xlink:title=" ">
<polygon fill="white" stroke="#666666" points="678.62,-512.88 562.88,-512.88 562.88,-482.38 678.62,-482.38 678.62,-512.88"/>
<text xml:space="preserve" text-anchor="start" x="570.88" y="-499.38" font-family="Helvetica,sans-Serif" font-size="10.00">ImFusion::Interactive</text>
<text xml:space="preserve" text-anchor="middle" x="620.75" y="-488.12" font-family="Helvetica,sans-Serif" font-size="10.00">&lt; ImFusion::GlArrow &gt;</text>
</a>
</g>
</g>
<!-- Node1&#45;&gt;Node11 -->
<g id="edge10_Node000001_Node000011" class="edge">
<title>Node1&#45;&gt;Node11</title>
<g id="a_edge10_Node000001_Node000011"><a xlink:title=" ">
<path fill="none" stroke="#63b8ff" d="M475.09,-461.44C501.95,-468.16 534.93,-476.41 562.61,-483.33"/>
<polygon fill="#63b8ff" stroke="#63b8ff" points="476,-458.06 465.45,-459.03 474.31,-464.85 476,-458.06"/>
</a>
</g>
</g>
<!-- Node12 -->
<g id="Node000012" class="node">
<title>Node12</title>
<g id="a_Node000012"><a xlink:href="class_im_fusion_1_1_interactive.html" target="_top" xlink:title=" ">
<polygon fill="white" stroke="#666666" points="674.88,-463.88 566.62,-463.88 566.62,-433.38 674.88,-433.38 674.88,-463.88"/>
<text xml:space="preserve" text-anchor="start" x="574.62" y="-450.38" font-family="Helvetica,sans-Serif" font-size="10.00">ImFusion::Interactive</text>
<text xml:space="preserve" text-anchor="middle" x="620.75" y="-439.12" font-family="Helvetica,sans-Serif" font-size="10.00">&lt; ImFusion::GlBall &gt;</text>
</a>
</g>
</g>
<!-- Node1&#45;&gt;Node12 -->
<g id="edge11_Node000001_Node000012" class="edge">
<title>Node1&#45;&gt;Node12</title>
<g id="a_edge11_Node000001_Node000012"><a xlink:title=" ">
<path fill="none" stroke="#63b8ff" d="M502.9,-448.62C524.19,-448.62 546.73,-448.62 566.27,-448.62"/>
<polygon fill="#63b8ff" stroke="#63b8ff" points="503.07,-445.13 493.07,-448.63 503.07,-452.13 503.07,-445.13"/>
</a>
</g>
</g>
<!-- Node13 -->
<g id="Node000013" class="node">
<title>Node13</title>
<g id="a_Node000013"><a xlink:href="class_im_fusion_1_1_interactive.html" target="_top" xlink:title=" ">
<polygon fill="white" stroke="#666666" points="695.12,-415.5 546.38,-415.5 546.38,-373.75 695.12,-373.75 695.12,-415.5"/>
<text xml:space="preserve" text-anchor="start" x="554.38" y="-402" font-family="Helvetica,sans-Serif" font-size="10.00">ImFusion::Interactive</text>
<text xml:space="preserve" text-anchor="start" x="554.38" y="-390.75" font-family="Helvetica,sans-Serif" font-size="10.00">&lt; ImFusion::GlPlane,</text>
<text xml:space="preserve" text-anchor="middle" x="620.75" y="-379.5" font-family="Helvetica,sans-Serif" font-size="10.00"> ImFusion::MeshManipulator &gt;</text>
</a>
</g>
</g>
<!-- Node1&#45;&gt;Node13 -->
<g id="edge12_Node000001_Node000013" class="edge">
<title>Node1&#45;&gt;Node13</title>
<g id="a_edge12_Node000001_Node000013"><a xlink:title=" ">
<path fill="none" stroke="#63b8ff" d="M471.21,-435.58C493.7,-429.37 521.12,-421.82 546.24,-414.89"/>
<polygon fill="#63b8ff" stroke="#63b8ff" points="470.43,-432.16 461.72,-438.19 472.29,-438.91 470.43,-432.16"/>
</a>
</g>
</g>
<!-- Node14 -->
<g id="Node000014" class="node">
<title>Node14</title>
<g id="a_Node000014"><a xlink:href="class_im_fusion_1_1_interactive.html" target="_top" xlink:title=" ">
<polygon fill="white" stroke="#666666" points="696.62,-355.5 544.88,-355.5 544.88,-313.75 696.62,-313.75 696.62,-355.5"/>
<text xml:space="preserve" text-anchor="start" x="552.88" y="-342" font-family="Helvetica,sans-Serif" font-size="10.00">ImFusion::Interactive</text>
<text xml:space="preserve" text-anchor="start" x="552.88" y="-330.75" font-family="Helvetica,sans-Serif" font-size="10.00">&lt; ImFusion::GlMesh, ImFusion</text>
<text xml:space="preserve" text-anchor="middle" x="620.75" y="-319.5" font-family="Helvetica,sans-Serif" font-size="10.00">::MeshPickingManipulator &gt;</text>
</a>
</g>
</g>
<!-- Node1&#45;&gt;Node14 -->
<g id="edge13_Node000001_Node000014" class="edge">
<title>Node1&#45;&gt;Node14</title>
<g id="a_edge13_Node000001_Node000014"><a xlink:title=" ">
<path fill="none" stroke="#63b8ff" d="M441.72,-430.61C461.22,-411.82 494.1,-382.65 527.25,-364.62 533.03,-361.48 539.2,-358.6 545.51,-355.97"/>
<polygon fill="#63b8ff" stroke="#63b8ff" points="439.28,-428.1 434.6,-437.6 444.19,-433.09 439.28,-428.1"/>
</a>
</g>
</g>
<!-- Node15 -->
<g id="Node000015" class="node">
<title>Node15</title>
<g id="a_Node000015"><a xlink:href="class_im_fusion_1_1_interactive.html" target="_top" xlink:title=" ">
<polygon fill="white" stroke="#666666" points="677.12,-295.88 564.38,-295.88 564.38,-265.38 677.12,-265.38 677.12,-295.88"/>
<text xml:space="preserve" text-anchor="start" x="572.38" y="-282.38" font-family="Helvetica,sans-Serif" font-size="10.00">ImFusion::Interactive</text>
<text xml:space="preserve" text-anchor="middle" x="620.75" y="-271.12" font-family="Helvetica,sans-Serif" font-size="10.00">&lt; ImFusion::GlPoint &gt;</text>
</a>
</g>
</g>
<!-- Node1&#45;&gt;Node15 -->
<g id="edge14_Node000001_Node000015" class="edge">
<title>Node1&#45;&gt;Node15</title>
<g id="a_edge14_Node000001_Node000015"><a xlink:title=" ">
<path fill="none" stroke="#63b8ff" d="M432.64,-428.64C447.45,-397.26 480.46,-336.71 527.25,-304.62 538.2,-297.12 551.33,-291.96 564.23,-288.42"/>
<polygon fill="#63b8ff" stroke="#63b8ff" points="429.61,-426.85 428.64,-437.4 435.98,-429.76 429.61,-426.85"/>
</a>
</g>
</g>
<!-- Node16 -->
<g id="Node000016" class="node">
<title>Node16</title>
<g id="a_Node000016"><a xlink:href="class_im_fusion_1_1_interactive.html" target="_top" xlink:title=" ">
<polygon fill="white" stroke="#666666" points="695.12,-247.5 546.38,-247.5 546.38,-205.75 695.12,-205.75 695.12,-247.5"/>
<text xml:space="preserve" text-anchor="start" x="554.38" y="-234" font-family="Helvetica,sans-Serif" font-size="10.00">ImFusion::Interactive</text>
<text xml:space="preserve" text-anchor="start" x="554.38" y="-222.75" font-family="Helvetica,sans-Serif" font-size="10.00">&lt; ImFusion::GlBoundingBox,</text>
<text xml:space="preserve" text-anchor="middle" x="620.75" y="-211.5" font-family="Helvetica,sans-Serif" font-size="10.00"> ImFusion::MeshManipulator &gt;</text>
</a>
</g>
</g>
<!-- Node1&#45;&gt;Node16 -->
<g id="edge15_Node000001_Node000016" class="edge">
<title>Node1&#45;&gt;Node16</title>
<g id="a_edge15_Node000001_Node000016"><a xlink:title=" ">
<path fill="none" stroke="#63b8ff" d="M429.45,-427.73C441,-388.45 471.26,-303.34 527.25,-256.62 532.95,-251.87 539.43,-247.86 546.24,-244.48"/>
<polygon fill="#63b8ff" stroke="#63b8ff" points="426.15,-426.53 426.81,-437.11 432.89,-428.43 426.15,-426.53"/>
</a>
</g>
</g>
<!-- Node17 -->
<g id="Node000017" class="node">
<title>Node17</title>
<g id="a_Node000017"><a xlink:href="class_im_fusion_1_1_interactive.html" target="_top" xlink:title=" ">
<polygon fill="white" stroke="#666666" points="689.88,-187.88 551.62,-187.88 551.62,-157.38 689.88,-157.38 689.88,-187.88"/>
<text xml:space="preserve" text-anchor="start" x="559.62" y="-174.38" font-family="Helvetica,sans-Serif" font-size="10.00">ImFusion::Interactive</text>
<text xml:space="preserve" text-anchor="middle" x="620.75" y="-163.12" font-family="Helvetica,sans-Serif" font-size="10.00">&lt; ImFusion::GlPointCloud &gt;</text>
</a>
</g>
</g>
<!-- Node1&#45;&gt;Node17 -->
<g id="edge16_Node000001_Node000017" class="edge">
<title>Node1&#45;&gt;Node17</title>
<g id="a_edge16_Node000001_Node000017"><a xlink:title=" ">
<path fill="none" stroke="#63b8ff" d="M426.22,-427.41C432.75,-378.88 455.63,-259.14 527.25,-196.62 534.25,-190.51 542.61,-185.93 551.41,-182.49"/>
<polygon fill="#63b8ff" stroke="#63b8ff" points="422.77,-426.77 425.03,-437.12 429.72,-427.62 422.77,-426.77"/>
</a>
</g>
</g>
<!-- Node18 -->
<g id="Node000018" class="node">
<title>Node18</title>
<g id="a_Node000018"><a xlink:href="class_im_fusion_1_1_interactive.html" target="_top" xlink:title=" ">
<polygon fill="white" stroke="#666666" points="701.88,-139.12 539.62,-139.12 539.62,-86.12 701.88,-86.12 701.88,-139.12"/>
<text xml:space="preserve" text-anchor="start" x="547.62" y="-125.62" font-family="Helvetica,sans-Serif" font-size="10.00">ImFusion::Interactive</text>
<text xml:space="preserve" text-anchor="start" x="547.62" y="-114.38" font-family="Helvetica,sans-Serif" font-size="10.00">&lt; ImFusion::GlPoint,</text>
<text xml:space="preserve" text-anchor="start" x="547.62" y="-103.12" font-family="Helvetica,sans-Serif" font-size="10.00"> ImFusion::PointBasedAnnotation</text>
<text xml:space="preserve" text-anchor="middle" x="620.75" y="-91.88" font-family="Helvetica,sans-Serif" font-size="10.00">Manipulator &gt;</text>
</a>
</g>
</g>
<!-- Node1&#45;&gt;Node18 -->
<g id="edge17_Node000001_Node000018" class="edge">
<title>Node1&#45;&gt;Node18</title>
<g id="a_edge17_Node000001_Node000018"><a xlink:title=" ">
<path fill="none" stroke="#63b8ff" d="M425.23,-427.39C429.76,-373.52 448.96,-230.06 527.25,-148.62 530.83,-144.9 534.85,-141.55 539.14,-138.54"/>
<polygon fill="#63b8ff" stroke="#63b8ff" points="421.76,-426.8 424.51,-437.03 428.74,-427.32 421.76,-426.8"/>
</a>
</g>
</g>
<!-- Node19 -->
<g id="Node000019" class="node">
<title>Node19</title>
<g id="a_Node000019"><a xlink:href="class_im_fusion_1_1_interactive.html" target="_top" xlink:title="Strongly typed templated version of an InteractiveObject.">
<polygon fill="white" stroke="#666666" points="674.88,-67.88 566.62,-67.88 566.62,-37.38 674.88,-37.38 674.88,-67.88"/>
<text xml:space="preserve" text-anchor="start" x="574.62" y="-54.38" font-family="Helvetica,sans-Serif" font-size="10.00">ImFusion::Interactive</text>
<text xml:space="preserve" text-anchor="middle" x="620.75" y="-43.12" font-family="Helvetica,sans-Serif" font-size="10.00">&lt; T, S &gt;</text>
</a>
</g>
</g>
<!-- Node1&#45;&gt;Node19 -->
<g id="edge18_Node000001_Node000019" class="edge">
<title>Node1&#45;&gt;Node19</title>
<g id="a_edge18_Node000001_Node000019"><a xlink:title=" ">
<path fill="none" stroke="#63b8ff" d="M426.94,-427.5C437.68,-356.37 475.73,-127.27 527.25,-76.62 537.78,-66.27 552.17,-60.22 566.46,-56.73"/>
<polygon fill="#63b8ff" stroke="#63b8ff" points="423.53,-426.63 425.53,-437.03 430.46,-427.65 423.53,-426.63"/>
</a>
</g>
</g>
<!-- Node20 -->
<g id="Node000020" class="node">
<title>Node20</title>
<g id="a_Node000020"><a xlink:href="class_im_fusion_1_1_interactive_annotation.html" target="_top" xlink:title=" ">
<polygon fill="white" stroke="#bfbfbf" points="698.12,-19.25 543.38,-19.25 543.38,0 698.12,0 698.12,-19.25"/>
<text xml:space="preserve" text-anchor="middle" x="620.75" y="-5.75" font-family="Helvetica,sans-Serif" font-size="10.00">ImFusion::InteractiveAnnotation</text>
</a>
</g>
</g>
<!-- Node1&#45;&gt;Node20 -->
<g id="edge19_Node000001_Node000020" class="edge">
<title>Node1&#45;&gt;Node20</title>
<g id="a_edge19_Node000001_Node000020"><a xlink:title=" ">
<path fill="none" stroke="#63b8ff" d="M426.09,-427.73C434.67,-350.88 468.17,-85.46 527.25,-28.62 531.86,-24.19 537.21,-20.67 542.97,-17.88"/>
<polygon fill="#63b8ff" stroke="#63b8ff" points="422.66,-426.91 425.06,-437.23 429.62,-427.67 422.66,-426.91"/>
</a>
</g>
</g>
<!-- Node2 -->
<g id="Node000002" class="node">
<title>Node2</title>
<g id="a_Node000002"><a xlink:href="class_im_fusion_1_1_g_u_i_1_1_view_object.html" target="_top" xlink:title="Wraps a GlObject pairing it with an optional EventHandler in order to attach it to a View.">
<polygon fill="white" stroke="#666666" points="318.5,-458.25 181.75,-458.25 181.75,-439 318.5,-439 318.5,-458.25"/>
<text xml:space="preserve" text-anchor="middle" x="250.12" y="-444.75" font-family="Helvetica,sans-Serif" font-size="10.00">ImFusion::GUI::ViewObject</text>
</a>
</g>
</g>
<!-- Node2&#45;&gt;Node1 -->
<g id="edge1_Node000001_Node000002" class="edge">
<title>Node2&#45;&gt;Node1</title>
<g id="a_edge1_Node000001_Node000002"><a xlink:title=" ">
<path fill="none" stroke="#63b8ff" d="M329.92,-448.62C337.98,-448.62 346.12,-448.62 354.04,-448.62"/>
<polygon fill="#63b8ff" stroke="#63b8ff" points="330.12,-445.13 320.12,-448.63 330.12,-452.13 330.12,-445.13"/>
</a>
</g>
</g>
<!-- Node3 -->
<g id="Node000003" class="node">
<title>Node3</title>
<g id="a_Node000003"><a xlink:href="class_im_fusion_1_1_utils_1_1_not_copyable.html" target="_top" xlink:title="Inherit from this class if your class should be neither copy&#45;constructible nor assignable.">
<polygon fill="white" stroke="#666666" points="145.75,-458.25 0,-458.25 0,-439 145.75,-439 145.75,-458.25"/>
<text xml:space="preserve" text-anchor="middle" x="72.88" y="-444.75" font-family="Helvetica,sans-Serif" font-size="10.00">ImFusion::Utils::NotCopyable</text>
</a>
</g>
</g>
<!-- Node3&#45;&gt;Node2 -->
<g id="edge2_Node000002_Node000003" class="edge">
<title>Node3&#45;&gt;Node2</title>
<g id="a_edge2_Node000002_Node000003"><a xlink:title=" ">
<path fill="none" stroke="#8b1a1a" d="M157.49,-448.62C165.54,-448.62 173.63,-448.62 181.5,-448.62"/>
<polygon fill="#8b1a1a" stroke="#8b1a1a" points="157.68,-445.13 147.68,-448.63 157.68,-452.13 157.68,-445.13"/>
</a>
</g>
</g>
</g>
</svg>
