<?xml version="1.0" encoding="UTF-8" standalone="no"?>
<!DOCTYPE svg PUBLIC "-//W3C//DTD SVG 1.1//EN"
 "http://www.w3.org/Graphics/SVG/1.1/DTD/svg11.dtd">
<!-- Generated by graphviz version 14.1.4 (20260321.0153)
 -->
<!-- Title: ImFusion::RealWorldMappingDataComponent Pages: 1 -->
<svg width="195pt" height="216pt"
 viewBox="0.00 0.00 195.00 216.00" xmlns="http://www.w3.org/2000/svg" xmlns:xlink="http://www.w3.org/1999/xlink">
<g id="graph0" class="graph" transform="scale(1 1) rotate(0) translate(4 211.5)">
<title>ImFusion::RealWorldMappingDataComponent</title>
<!-- Node1 -->
<g id="Node000001" class="node">
<title>Node1</title>
<g id="a_Node000001"><a xlink:title="The RealWorldMappingDataComponent stores information about an image&#39;s real world values.">
<polygon fill="#999999" stroke="#666666" points="165.62,-30.5 21.38,-30.5 21.38,0 165.62,0 165.62,-30.5"/>
<text xml:space="preserve" text-anchor="start" x="29.38" y="-17" font-family="Helvetica,sans-Serif" font-size="10.00">ImFusion::RealWorldMapping</text>
<text xml:space="preserve" text-anchor="middle" x="93.5" y="-5.75" font-family="Helvetica,sans-Serif" font-size="10.00">DataComponent</text>
</a>
</g>
</g>
<!-- Node2 -->
<g id="Node000002" class="node">
<title>Node2</title>
<g id="a_Node000002"><a xlink:href="class_im_fusion_1_1_data_component.html" target="_top" xlink:title=" ">
<polygon fill="white" stroke="#666666" points="187,-97 0,-97 0,-66.5 187,-66.5 187,-97"/>
<text xml:space="preserve" text-anchor="start" x="8" y="-83.5" font-family="Helvetica,sans-Serif" font-size="10.00">ImFusion::DataComponent</text>
<text xml:space="preserve" text-anchor="middle" x="93.5" y="-72.25" font-family="Helvetica,sans-Serif" font-size="10.00">&lt; RealWorldMappingDataComponent &gt;</text>
</a>
</g>
</g>
<!-- Node2&#45;&gt;Node1 -->
<g id="edge1_Node000001_Node000002" class="edge">
<title>Node2&#45;&gt;Node1</title>
<g id="a_edge1_Node000001_Node000002"><a xlink:title=" ">
<path fill="none" stroke="#63b8ff" d="M93.5,-54.81C93.5,-46.64 93.5,-37.91 93.5,-30.83"/>
<polygon fill="#63b8ff" stroke="#63b8ff" points="90,-54.6 93.5,-64.6 97,-54.6 90,-54.6"/>
</a>
</g>
</g>
<!-- Node3 -->
<g id="Node000003" class="node">
<title>Node3</title>
<g id="a_Node000003"><a xlink:href="class_im_fusion_1_1_data_component_base.html" target="_top" xlink:title="Data components provide a way to generically attach custom information objects.">
<polygon fill="white" stroke="#666666" points="171.62,-152.25 15.38,-152.25 15.38,-133 171.62,-133 171.62,-152.25"/>
<text xml:space="preserve" text-anchor="middle" x="93.5" y="-138.75" font-family="Helvetica,sans-Serif" font-size="10.00">ImFusion::DataComponentBase</text>
</a>
</g>
</g>
<!-- Node3&#45;&gt;Node2 -->
<g id="edge2_Node000002_Node000003" class="edge">
<title>Node3&#45;&gt;Node2</title>
<g id="a_edge2_Node000002_Node000003"><a xlink:title=" ">
<path fill="none" stroke="#63b8ff" d="M93.5,-121.42C93.5,-113.49 93.5,-104.56 93.5,-97.28"/>
<polygon fill="#63b8ff" stroke="#63b8ff" points="90,-121.17 93.5,-131.17 97,-121.17 90,-121.17"/>
</a>
</g>
</g>
<!-- Node4 -->
<g id="Node000004" class="node">
<title>Node4</title>
<g id="a_Node000004"><a xlink:href="class_im_fusion_1_1_configurable.html" target="_top" xlink:title="Base interface for classes that support object serialization from/to Properties objects.">
<polygon fill="white" stroke="#666666" points="152.12,-207.5 34.88,-207.5 34.88,-188.25 152.12,-188.25 152.12,-207.5"/>
<text xml:space="preserve" text-anchor="middle" x="93.5" y="-194" font-family="Helvetica,sans-Serif" font-size="10.00">ImFusion::Configurable</text>
</a>
</g>
</g>
<!-- Node4&#45;&gt;Node3 -->
<g id="edge3_Node000003_Node000004" class="edge">
<title>Node4&#45;&gt;Node3</title>
<g id="a_edge3_Node000003_Node000004"><a xlink:title=" ">
<path fill="none" stroke="#63b8ff" d="M93.5,-176.63C93.5,-168.34 93.5,-159.17 93.5,-152.61"/>
<polygon fill="#63b8ff" stroke="#63b8ff" points="90,-176.57 93.5,-186.57 97,-176.57 90,-176.57"/>
</a>
</g>
</g>
</g>
</svg>
