<?xml version="1.0" encoding="UTF-8" standalone="no"?>
<!DOCTYPE svg PUBLIC "-//W3C//DTD SVG 1.1//EN"
 "http://www.w3.org/Graphics/SVG/1.1/DTD/svg11.dtd">
<!-- Generated by graphviz version 14.1.4 (20260321.0153)
 -->
<!-- Title: ImFusion::TrackedSharedImageSet Pages: 1 -->
<svg width="526pt" height="150pt"
 viewBox="0.00 0.00 526.00 150.00" xmlns="http://www.w3.org/2000/svg" xmlns:xlink="http://www.w3.org/1999/xlink">
<g id="graph0" class="graph" transform="scale(1 1) rotate(0) translate(4 146.25)">
<title>ImFusion::TrackedSharedImageSet</title>
<!-- Node1 -->
<g id="Node000001" class="node">
<title>Node1</title>
<g id="a_Node000001"><a xlink:title="Set of images with arbitrarily sampled tracking data.">
<polygon fill="#999999" stroke="#666666" points="517.5,-64.25 347,-64.25 347,-45 517.5,-45 517.5,-64.25"/>
<text xml:space="preserve" text-anchor="middle" x="432.25" y="-50.75" font-family="Helvetica,sans-Serif" font-size="10.00">ImFusion::TrackedSharedImageSet</text>
</a>
</g>
</g>
<!-- Node2 -->
<g id="Node000002" class="node">
<title>Node2</title>
<g id="a_Node000002"><a xlink:href="class_im_fusion_1_1_shared_image_set.html" target="_top" xlink:title="Set of images independent of their storage location.">
<polygon fill="white" stroke="#666666" points="311,-83.25 175.75,-83.25 175.75,-64 311,-64 311,-83.25"/>
<text xml:space="preserve" text-anchor="middle" x="243.38" y="-69.75" font-family="Helvetica,sans-Serif" font-size="10.00">ImFusion::SharedImageSet</text>
</a>
</g>
</g>
<!-- Node2&#45;&gt;Node1 -->
<g id="edge1_Node000001_Node000002" class="edge">
<title>Node2&#45;&gt;Node1</title>
<g id="a_edge1_Node000001_Node000002"><a xlink:title=" ">
<path fill="none" stroke="#63b8ff" d="M322.71,-65.66C330.58,-64.86 338.59,-64.05 346.52,-63.24"/>
<polygon fill="#63b8ff" stroke="#63b8ff" points="322.41,-62.17 312.82,-66.67 323.12,-69.14 322.41,-62.17"/>
</a>
</g>
</g>
<!-- Node3 -->
<g id="Node000003" class="node">
<title>Node3</title>
<g id="a_Node000003"><a xlink:href="class_im_fusion_1_1_data.html" target="_top" xlink:title="Virtual base class for representing data from which all concrete data class such as images need to de...">
<polygon fill="white" stroke="#666666" points="111.62,-142.25 28.12,-142.25 28.12,-123 111.62,-123 111.62,-142.25"/>
<text xml:space="preserve" text-anchor="middle" x="69.88" y="-128.75" font-family="Helvetica,sans-Serif" font-size="10.00">ImFusion::Data</text>
</a>
</g>
</g>
<!-- Node3&#45;&gt;Node2 -->
<g id="edge2_Node000002_Node000003" class="edge">
<title>Node3&#45;&gt;Node2</title>
<g id="a_edge2_Node000002_Node000003"><a xlink:title=" ">
<path fill="none" stroke="#63b8ff" d="M122.86,-119.78C128.59,-118.14 134.31,-116.41 139.75,-114.62 167.63,-105.45 198.85,-92.6 219.45,-83.74"/>
<polygon fill="#63b8ff" stroke="#63b8ff" points="122.08,-116.36 113.37,-122.39 123.94,-123.11 122.08,-116.36"/>
</a>
</g>
</g>
<!-- Node4 -->
<g id="Node000004" class="node">
<title>Node4</title>
<g id="a_Node000004"><a xlink:href="class_im_fusion_1_1_signal_receiver.html" target="_top" xlink:title="Base class for classes that can contain slots (i.e.">
<polygon fill="white" stroke="#666666" points="134.12,-105.25 5.62,-105.25 5.62,-86 134.12,-86 134.12,-105.25"/>
<text xml:space="preserve" text-anchor="middle" x="69.88" y="-91.75" font-family="Helvetica,sans-Serif" font-size="10.00">ImFusion::SignalReceiver</text>
</a>
</g>
</g>
<!-- Node4&#45;&gt;Node2 -->
<g id="edge3_Node000002_Node000004" class="edge">
<title>Node4&#45;&gt;Node2</title>
<g id="a_edge3_Node000002_Node000004"><a xlink:title=" ">
<path fill="none" stroke="#63b8ff" d="M145.43,-86.06C155.44,-84.78 165.66,-83.47 175.52,-82.2"/>
<polygon fill="#63b8ff" stroke="#63b8ff" points="145.22,-82.56 135.75,-87.3 146.11,-89.5 145.22,-82.56"/>
</a>
</g>
</g>
<!-- Node5 -->
<g id="Node000005" class="node">
<title>Node5</title>
<g id="a_Node000005"><a xlink:href="class_im_fusion_1_1_elementwise_data_component_data.html" target="_top" xlink:title="Class for augmenting Data classes with an ElementwiseDataComponentList.">
<polygon fill="white" stroke="#666666" points="139.75,-67.88 0,-67.88 0,-37.38 139.75,-37.38 139.75,-67.88"/>
<text xml:space="preserve" text-anchor="start" x="8" y="-54.38" font-family="Helvetica,sans-Serif" font-size="10.00">ImFusion::ElementwiseData</text>
<text xml:space="preserve" text-anchor="middle" x="69.88" y="-43.12" font-family="Helvetica,sans-Serif" font-size="10.00">ComponentData</text>
</a>
</g>
</g>
<!-- Node5&#45;&gt;Node2 -->
<g id="edge4_Node000002_Node000005" class="edge">
<title>Node5&#45;&gt;Node2</title>
<g id="a_edge4_Node000002_Node000005"><a xlink:title=" ">
<path fill="none" stroke="#63b8ff" d="M151.4,-62.49C159.42,-63.47 167.5,-64.46 175.36,-65.42"/>
<polygon fill="#63b8ff" stroke="#63b8ff" points="151.99,-59.03 141.64,-61.29 151.14,-65.98 151.99,-59.03"/>
</a>
</g>
</g>
<!-- Node6 -->
<g id="Node000006" class="node">
<title>Node6</title>
<g id="a_Node000006"><a xlink:href="class_im_fusion_1_1_selectable.html" target="_top" xlink:title="Interface for Data that supports having a Selection.">
<polygon fill="white" stroke="#666666" points="124,-19.25 15.75,-19.25 15.75,0 124,0 124,-19.25"/>
<text xml:space="preserve" text-anchor="middle" x="69.88" y="-5.75" font-family="Helvetica,sans-Serif" font-size="10.00">ImFusion::Selectable</text>
</a>
</g>
</g>
<!-- Node6&#45;&gt;Node2 -->
<g id="edge5_Node000002_Node000006" class="edge">
<title>Node6&#45;&gt;Node2</title>
<g id="a_edge5_Node000002_Node000006"><a xlink:title=" ">
<path fill="none" stroke="#63b8ff" d="M127.33,-23.31C131.61,-24.91 135.79,-26.68 139.75,-28.62 157.7,-37.44 157.77,-46.86 175.75,-55.62 182.1,-58.72 189.07,-61.35 196.02,-63.56"/>
<polygon fill="#63b8ff" stroke="#63b8ff" points="128.62,-20.05 118.03,-20.13 126.36,-26.67 128.62,-20.05"/>
</a>
</g>
</g>
<!-- Node7 -->
<g id="Node000007" class="node">
<title>Node7</title>
<g id="a_Node000007"><a xlink:href="class_im_fusion_1_1_compound_data.html" target="_top" xlink:title="Interface for datasets that are formed by one or multiple other nested Data instances.">
<polygon fill="white" stroke="#666666" points="308.75,-46.25 178,-46.25 178,-27 308.75,-27 308.75,-46.25"/>
<text xml:space="preserve" text-anchor="middle" x="243.38" y="-32.75" font-family="Helvetica,sans-Serif" font-size="10.00">ImFusion::CompoundData</text>
</a>
</g>
</g>
<!-- Node7&#45;&gt;Node1 -->
<g id="edge6_Node000001_Node000007" class="edge">
<title>Node7&#45;&gt;Node1</title>
<g id="a_edge6_Node000001_Node000007"><a xlink:title=" ">
<path fill="none" stroke="#63b8ff" d="M320.46,-43.95C329.13,-44.79 338.01,-45.64 346.78,-46.49"/>
<polygon fill="#63b8ff" stroke="#63b8ff" points="321.01,-40.49 310.72,-43.02 320.34,-47.46 321.01,-40.49"/>
</a>
</g>
</g>
</g>
</svg>
