<?xml version="1.0" encoding="UTF-8" standalone="no"?>
<!DOCTYPE svg PUBLIC "-//W3C//DTD SVG 1.1//EN"
 "http://www.w3.org/Graphics/SVG/1.1/DTD/svg11.dtd">
<!-- Generated by graphviz version 14.1.4 (20260321.0153)
 -->
<!-- Title: ImFusion::ByteBufferStream Pages: 1 -->
<svg width="149pt" height="260pt"
 viewBox="0.00 0.00 149.00 260.00" xmlns="http://www.w3.org/2000/svg" xmlns:xlink="http://www.w3.org/1999/xlink">
<g id="graph0" class="graph" transform="scale(1 1) rotate(0) translate(4 255.5)">
<title>ImFusion::ByteBufferStream</title>
<!-- Node1 -->
<g id="Node000001" class="node">
<title>Node1</title>
<g id="a_Node000001"><a xlink:title="Specialization of std::istream to easily extract data from a ByteBufferView.">
<polygon fill="#999999" stroke="#666666" points="140.5,-19.25 0,-19.25 0,0 140.5,0 140.5,-19.25"/>
<text xml:space="preserve" text-anchor="middle" x="70.25" y="-5.75" font-family="Helvetica,sans-Serif" font-size="10.00">ImFusion::ByteBufferStream</text>
</a>
</g>
</g>
<!-- Node2 -->
<g id="Node000002" class="node">
<title>Node2</title>
<g id="a_Node000002"><a target="_parent" xlink:href="http://en.cppreference.com/w/cpp/io/basic_istream.html" xlink:title=" ">
<polygon fill="white" stroke="#666666" points="104.12,-74.5 36.38,-74.5 36.38,-55.25 104.12,-55.25 104.12,-74.5"/>
<text xml:space="preserve" text-anchor="middle" x="70.25" y="-61" font-family="Helvetica,sans-Serif" font-size="10.00">std::istream</text>
</a>
</g>
</g>
<!-- Node2&#45;&gt;Node1 -->
<g id="edge1_Node000001_Node000002" class="edge">
<title>Node2&#45;&gt;Node1</title>
<g id="a_edge1_Node000001_Node000002"><a xlink:title=" ">
<path fill="none" stroke="#63b8ff" d="M70.25,-43.63C70.25,-35.34 70.25,-26.17 70.25,-19.61"/>
<polygon fill="#63b8ff" stroke="#63b8ff" points="66.75,-43.57 70.25,-53.57 73.75,-43.57 66.75,-43.57"/>
</a>
</g>
</g>
<!-- Node3 -->
<g id="Node000003" class="node">
<title>Node3</title>
<g id="a_Node000003"><a target="_parent" xlink:href="http://en.cppreference.com/w/cpp/io/basic_istream.html" xlink:title=" ">
<polygon fill="white" stroke="#666666" points="118.38,-141 22.12,-141 22.12,-110.5 118.38,-110.5 118.38,-141"/>
<text xml:space="preserve" text-anchor="start" x="30.12" y="-127.5" font-family="Helvetica,sans-Serif" font-size="10.00">std::basic_istream</text>
<text xml:space="preserve" text-anchor="middle" x="70.25" y="-116.25" font-family="Helvetica,sans-Serif" font-size="10.00">&lt; Char &gt;</text>
</a>
</g>
</g>
<!-- Node3&#45;&gt;Node2 -->
<g id="edge2_Node000002_Node000003" class="edge">
<title>Node3&#45;&gt;Node2</title>
<g id="a_edge2_Node000002_Node000003"><a xlink:title=" ">
<path fill="none" stroke="#63b8ff" d="M70.25,-98.73C70.25,-90.23 70.25,-81.34 70.25,-74.95"/>
<polygon fill="#63b8ff" stroke="#63b8ff" points="66.75,-98.68 70.25,-108.68 73.75,-98.68 66.75,-98.68"/>
</a>
</g>
</g>
<!-- Node4 -->
<g id="Node000004" class="node">
<title>Node4</title>
<g id="a_Node000004"><a target="_parent" xlink:href="http://en.cppreference.com/w/cpp/io/basic_ios.html" xlink:title=" ">
<polygon fill="white" stroke="#666666" points="128.12,-196.25 12.38,-196.25 12.38,-177 128.12,-177 128.12,-196.25"/>
<text xml:space="preserve" text-anchor="middle" x="70.25" y="-182.75" font-family="Helvetica,sans-Serif" font-size="10.00">std::basic_ios&lt; Char &gt;</text>
</a>
</g>
</g>
<!-- Node4&#45;&gt;Node3 -->
<g id="edge3_Node000003_Node000004" class="edge">
<title>Node4&#45;&gt;Node3</title>
<g id="a_edge3_Node000003_Node000004"><a xlink:title=" ">
<path fill="none" stroke="#63b8ff" d="M70.25,-165.42C70.25,-157.49 70.25,-148.56 70.25,-141.28"/>
<polygon fill="#63b8ff" stroke="#63b8ff" points="66.75,-165.17 70.25,-175.17 73.75,-165.17 66.75,-165.17"/>
</a>
</g>
</g>
<!-- Node5 -->
<g id="Node000005" class="node">
<title>Node5</title>
<g id="a_Node000005"><a target="_parent" xlink:href="http://en.cppreference.com/w/cpp/io/ios_base.html" xlink:title=" ">
<polygon fill="white" stroke="#666666" points="107.5,-251.5 33,-251.5 33,-232.25 107.5,-232.25 107.5,-251.5"/>
<text xml:space="preserve" text-anchor="middle" x="70.25" y="-238" font-family="Helvetica,sans-Serif" font-size="10.00">std::ios_base</text>
</a>
</g>
</g>
<!-- Node5&#45;&gt;Node4 -->
<g id="edge4_Node000004_Node000005" class="edge">
<title>Node5&#45;&gt;Node4</title>
<g id="a_edge4_Node000004_Node000005"><a xlink:title=" ">
<path fill="none" stroke="#63b8ff" d="M70.25,-220.63C70.25,-212.34 70.25,-203.17 70.25,-196.61"/>
<polygon fill="#63b8ff" stroke="#63b8ff" points="66.75,-220.57 70.25,-230.57 73.75,-220.57 66.75,-220.57"/>
</a>
</g>
</g>
</g>
</svg>
