<?xml version="1.0" encoding="UTF-8" standalone="no"?>
<!DOCTYPE svg PUBLIC "-//W3C//DTD SVG 1.1//EN"
 "http://www.w3.org/Graphics/SVG/1.1/DTD/svg11.dtd">
<!-- Generated by graphviz version 14.1.4 (20260321.0153)
 -->
<!-- Title: ImFusion::DatasetLicenseComponent Pages: 1 -->
<svg width="164pt" height="216pt"
 viewBox="0.00 0.00 164.00 216.00" xmlns="http://www.w3.org/2000/svg" xmlns:xlink="http://www.w3.org/1999/xlink">
<g id="graph0" class="graph" transform="scale(1 1) rotate(0) translate(4 211.5)">
<title>ImFusion::DatasetLicenseComponent</title>
<!-- Node1 -->
<g id="Node000001" class="node">
<title>Node1</title>
<g id="a_Node000001"><a xlink:title="Data component for keeping track of the data&#39;s license (when it comes from a public dataset).">
<polygon fill="#999999" stroke="#666666" points="143.5,-30.5 12.75,-30.5 12.75,0 143.5,0 143.5,-30.5"/>
<text xml:space="preserve" text-anchor="start" x="20.75" y="-17" font-family="Helvetica,sans-Serif" font-size="10.00">ImFusion::DatasetLicense</text>
<text xml:space="preserve" text-anchor="middle" x="78.12" y="-5.75" font-family="Helvetica,sans-Serif" font-size="10.00">Component</text>
</a>
</g>
</g>
<!-- Node2 -->
<g id="Node000002" class="node">
<title>Node2</title>
<g id="a_Node000002"><a xlink:href="class_im_fusion_1_1_data_component.html" target="_top" xlink:title=" ">
<polygon fill="white" stroke="#666666" points="154.38,-97 1.88,-97 1.88,-66.5 154.38,-66.5 154.38,-97"/>
<text xml:space="preserve" text-anchor="start" x="9.88" y="-83.5" font-family="Helvetica,sans-Serif" font-size="10.00">ImFusion::DataComponent</text>
<text xml:space="preserve" text-anchor="middle" x="78.12" y="-72.25" font-family="Helvetica,sans-Serif" font-size="10.00">&lt; DatasetLicenseComponent &gt;</text>
</a>
</g>
</g>
<!-- Node2&#45;&gt;Node1 -->
<g id="edge1_Node000001_Node000002" class="edge">
<title>Node2&#45;&gt;Node1</title>
<g id="a_edge1_Node000001_Node000002"><a xlink:title=" ">
<path fill="none" stroke="#63b8ff" d="M78.12,-54.81C78.12,-46.64 78.12,-37.91 78.12,-30.83"/>
<polygon fill="#63b8ff" stroke="#63b8ff" points="74.63,-54.6 78.13,-64.6 81.63,-54.6 74.63,-54.6"/>
</a>
</g>
</g>
<!-- Node3 -->
<g id="Node000003" class="node">
<title>Node3</title>
<g id="a_Node000003"><a xlink:href="class_im_fusion_1_1_data_component_base.html" target="_top" xlink:title="Data components provide a way to generically attach custom information objects.">
<polygon fill="white" stroke="#666666" points="156.25,-152.25 0,-152.25 0,-133 156.25,-133 156.25,-152.25"/>
<text xml:space="preserve" text-anchor="middle" x="78.12" y="-138.75" font-family="Helvetica,sans-Serif" font-size="10.00">ImFusion::DataComponentBase</text>
</a>
</g>
</g>
<!-- Node3&#45;&gt;Node2 -->
<g id="edge2_Node000002_Node000003" class="edge">
<title>Node3&#45;&gt;Node2</title>
<g id="a_edge2_Node000002_Node000003"><a xlink:title=" ">
<path fill="none" stroke="#63b8ff" d="M78.12,-121.42C78.12,-113.49 78.12,-104.56 78.12,-97.28"/>
<polygon fill="#63b8ff" stroke="#63b8ff" points="74.63,-121.17 78.13,-131.17 81.63,-121.17 74.63,-121.17"/>
</a>
</g>
</g>
<!-- Node4 -->
<g id="Node000004" class="node">
<title>Node4</title>
<g id="a_Node000004"><a xlink:href="class_im_fusion_1_1_configurable.html" target="_top" xlink:title="Base interface for classes that support object serialization from/to Properties objects.">
<polygon fill="white" stroke="#666666" points="136.75,-207.5 19.5,-207.5 19.5,-188.25 136.75,-188.25 136.75,-207.5"/>
<text xml:space="preserve" text-anchor="middle" x="78.12" y="-194" font-family="Helvetica,sans-Serif" font-size="10.00">ImFusion::Configurable</text>
</a>
</g>
</g>
<!-- Node4&#45;&gt;Node3 -->
<g id="edge3_Node000003_Node000004" class="edge">
<title>Node4&#45;&gt;Node3</title>
<g id="a_edge3_Node000003_Node000004"><a xlink:title=" ">
<path fill="none" stroke="#63b8ff" d="M78.12,-176.63C78.12,-168.34 78.12,-159.17 78.12,-152.61"/>
<polygon fill="#63b8ff" stroke="#63b8ff" points="74.63,-176.57 78.13,-186.57 81.63,-176.57 74.63,-176.57"/>
</a>
</g>
</g>
</g>
</svg>
