<?xml version="1.0" encoding="UTF-8" standalone="no"?>
<!DOCTYPE svg PUBLIC "-//W3C//DTD SVG 1.1//EN"
 "http://www.w3.org/Graphics/SVG/1.1/DTD/svg11.dtd">
<!-- Generated by graphviz version 14.1.4 (20260321.0153)
 -->
<!-- Title: ImFusion::GlRectangleBillboard Pages: 1 -->
<svg width="162pt" height="138pt"
 viewBox="0.00 0.00 162.00 138.00" xmlns="http://www.w3.org/2000/svg" xmlns:xlink="http://www.w3.org/1999/xlink">
<g id="graph0" class="graph" transform="scale(1 1) rotate(0) translate(4 133.75)">
<title>ImFusion::GlRectangleBillboard</title>
<!-- Node1 -->
<g id="Node000001" class="node">
<title>Node1</title>
<g id="a_Node000001"><a xlink:title="Renders a fixed size rectangle billboard in the world, always facing towards the camera.">
<polygon fill="#999999" stroke="#666666" points="154,-19.25 0,-19.25 0,0 154,0 154,-19.25"/>
<text xml:space="preserve" text-anchor="middle" x="77" y="-5.75" font-family="Helvetica,sans-Serif" font-size="10.00">ImFusion::GlRectangleBillboard</text>
</a>
</g>
</g>
<!-- Node2 -->
<g id="Node000002" class="node">
<title>Node2</title>
<g id="a_Node000002"><a xlink:href="class_im_fusion_1_1_gl_object.html" target="_top" xlink:title="Abstract base class for an renderable OpenGL object that can be hosted in a GlView.">
<polygon fill="white" stroke="#666666" points="127.38,-74.5 26.62,-74.5 26.62,-55.25 127.38,-55.25 127.38,-74.5"/>
<text xml:space="preserve" text-anchor="middle" x="77" y="-61" font-family="Helvetica,sans-Serif" font-size="10.00">ImFusion::GlObject</text>
</a>
</g>
</g>
<!-- Node2&#45;&gt;Node1 -->
<g id="edge1_Node000001_Node000002" class="edge">
<title>Node2&#45;&gt;Node1</title>
<g id="a_edge1_Node000001_Node000002"><a xlink:title=" ">
<path fill="none" stroke="#63b8ff" d="M77,-43.63C77,-35.34 77,-26.17 77,-19.61"/>
<polygon fill="#63b8ff" stroke="#63b8ff" points="73.5,-43.57 77,-53.57 80.5,-43.57 73.5,-43.57"/>
</a>
</g>
</g>
<!-- Node3 -->
<g id="Node000003" class="node">
<title>Node3</title>
<g id="a_Node000003"><a xlink:href="class_im_fusion_1_1_configurable.html" target="_top" xlink:title="Base interface for classes that support object serialization from/to Properties objects.">
<polygon fill="white" stroke="#666666" points="135.62,-129.75 18.38,-129.75 18.38,-110.5 135.62,-110.5 135.62,-129.75"/>
<text xml:space="preserve" text-anchor="middle" x="77" y="-116.25" font-family="Helvetica,sans-Serif" font-size="10.00">ImFusion::Configurable</text>
</a>
</g>
</g>
<!-- Node3&#45;&gt;Node2 -->
<g id="edge2_Node000002_Node000003" class="edge">
<title>Node3&#45;&gt;Node2</title>
<g id="a_edge2_Node000002_Node000003"><a xlink:title=" ">
<path fill="none" stroke="#63b8ff" d="M77,-98.88C77,-90.59 77,-81.42 77,-74.86"/>
<polygon fill="#63b8ff" stroke="#63b8ff" points="73.5,-98.82 77,-108.82 80.5,-98.82 73.5,-98.82"/>
</a>
</g>
</g>
</g>
</svg>
