<?xml version="1.0" encoding="UTF-8" standalone="no"?>
<!DOCTYPE svg PUBLIC "-//W3C//DTD SVG 1.1//EN"
 "http://www.w3.org/Graphics/SVG/1.1/DTD/svg11.dtd">
<!-- Generated by graphviz version 14.1.4 (20260321.0153)
 -->
<!-- Title: ImFusion::GlView Pages: 1 -->
<svg width="447pt" height="138pt"
 viewBox="0.00 0.00 447.00 138.00" xmlns="http://www.w3.org/2000/svg" xmlns:xlink="http://www.w3.org/1999/xlink">
<g id="graph0" class="graph" transform="scale(1 1) rotate(0) translate(4 134.25)">
<title>ImFusion::GlView</title>
<!-- Node1 -->
<g id="Node000001" class="node">
<title>Node1</title>
<g id="a_Node000001"><a xlink:title="Base class for implementing OpenGL views.">
<polygon fill="#999999" stroke="#666666" points="275.75,-74.25 181.75,-74.25 181.75,-55 275.75,-55 275.75,-74.25"/>
<text xml:space="preserve" text-anchor="middle" x="228.75" y="-60.75" font-family="Helvetica,sans-Serif" font-size="10.00">ImFusion::GlView</text>
</a>
</g>
</g>
<!-- Node3 -->
<g id="Node000003" class="node">
<title>Node3</title>
<g id="a_Node000003"><a xlink:href="class_im_fusion_1_1_gl_curved_view.html" target="_top" xlink:title="Curved slice view.">
<polygon fill="white" stroke="#666666" points="438,-130.25 312.5,-130.25 312.5,-111 438,-111 438,-130.25"/>
<text xml:space="preserve" text-anchor="middle" x="375.25" y="-116.75" font-family="Helvetica,sans-Serif" font-size="10.00">ImFusion::GlCurvedView</text>
</a>
</g>
</g>
<!-- Node1&#45;&gt;Node3 -->
<g id="edge2_Node000001_Node000003" class="edge">
<title>Node1&#45;&gt;Node3</title>
<g id="a_edge2_Node000001_Node000003"><a xlink:title=" ">
<path fill="none" stroke="#63b8ff" d="M259.25,-79.63C274.65,-87.13 293.95,-95.98 311.75,-102.62 319.37,-105.47 327.64,-108.14 335.61,-110.5"/>
<polygon fill="#63b8ff" stroke="#63b8ff" points="261.14,-76.67 250.63,-75.38 258.05,-82.94 261.14,-76.67"/>
</a>
</g>
</g>
<!-- Node4 -->
<g id="Node000004" class="node">
<title>Node4</title>
<g id="a_Node000004"><a xlink:href="class_im_fusion_1_1_gl_plot_view.html" target="_top" xlink:title="View for plotting data.">
<polygon fill="white" stroke="#666666" points="430.88,-93.25 319.62,-93.25 319.62,-74 430.88,-74 430.88,-93.25"/>
<text xml:space="preserve" text-anchor="middle" x="375.25" y="-79.75" font-family="Helvetica,sans-Serif" font-size="10.00">ImFusion::GlPlotView</text>
</a>
</g>
</g>
<!-- Node1&#45;&gt;Node4 -->
<g id="edge3_Node000001_Node000004" class="edge">
<title>Node1&#45;&gt;Node4</title>
<g id="a_edge3_Node000001_Node000004"><a xlink:title=" ">
<path fill="none" stroke="#63b8ff" d="M287.13,-72.17C297.7,-73.56 308.72,-75.01 319.23,-76.39"/>
<polygon fill="#63b8ff" stroke="#63b8ff" points="287.74,-68.72 277.37,-70.89 286.83,-75.66 287.74,-68.72"/>
</a>
</g>
</g>
<!-- Node5 -->
<g id="Node000005" class="node">
<title>Node5</title>
<g id="a_Node000005"><a xlink:href="class_im_fusion_1_1_gl_slice_view.html" target="_top" xlink:title="OpenGL view for 2D slice rendering of one or multiple images and GlObjects.">
<polygon fill="white" stroke="#666666" points="433.12,-56.25 317.38,-56.25 317.38,-37 433.12,-37 433.12,-56.25"/>
<text xml:space="preserve" text-anchor="middle" x="375.25" y="-42.75" font-family="Helvetica,sans-Serif" font-size="10.00">ImFusion::GlSliceView</text>
</a>
</g>
</g>
<!-- Node1&#45;&gt;Node5 -->
<g id="edge4_Node000001_Node000005" class="edge">
<title>Node1&#45;&gt;Node5</title>
<g id="a_edge4_Node000001_Node000005"><a xlink:title=" ">
<path fill="none" stroke="#63b8ff" d="M287.15,-57.48C296.94,-56.26 307.11,-54.99 316.91,-53.77"/>
<polygon fill="#63b8ff" stroke="#63b8ff" points="286.86,-53.98 277.37,-58.69 287.73,-60.93 286.86,-53.98"/>
</a>
</g>
</g>
<!-- Node6 -->
<g id="Node000006" class="node">
<title>Node6</title>
<g id="a_Node000006"><a xlink:href="class_im_fusion_1_1_gl_volume_view.html" target="_top" xlink:title="OpenGL view for 3D rendering and correct compositing of direct volume rendering and classic geometry&#45;...">
<polygon fill="white" stroke="#666666" points="438.75,-19.25 311.75,-19.25 311.75,0 438.75,0 438.75,-19.25"/>
<text xml:space="preserve" text-anchor="middle" x="375.25" y="-5.75" font-family="Helvetica,sans-Serif" font-size="10.00">ImFusion::GlVolumeView</text>
</a>
</g>
</g>
<!-- Node1&#45;&gt;Node6 -->
<g id="edge5_Node000001_Node000006" class="edge">
<title>Node1&#45;&gt;Node6</title>
<g id="a_edge5_Node000001_Node000006"><a xlink:title=" ">
<path fill="none" stroke="#63b8ff" d="M260.35,-49.56C275.59,-42.38 294.41,-34 311.75,-27.62 319.49,-24.78 327.89,-22.1 335.96,-19.71"/>
<polygon fill="#63b8ff" stroke="#63b8ff" points="258.85,-46.4 251.33,-53.87 261.86,-52.71 258.85,-46.4"/>
</a>
</g>
</g>
<!-- Node2 -->
<g id="Node000002" class="node">
<title>Node2</title>
<g id="a_Node000002"><a xlink:href="class_im_fusion_1_1_utils_1_1_not_copyable.html" target="_top" xlink:title="Inherit from this class if your class should be neither copy&#45;constructible nor assignable.">
<polygon fill="white" stroke="#666666" points="145.75,-74.25 0,-74.25 0,-55 145.75,-55 145.75,-74.25"/>
<text xml:space="preserve" text-anchor="middle" x="72.88" y="-60.75" font-family="Helvetica,sans-Serif" font-size="10.00">ImFusion::Utils::NotCopyable</text>
</a>
</g>
</g>
<!-- Node2&#45;&gt;Node1 -->
<g id="edge1_Node000001_Node000002" class="edge">
<title>Node2&#45;&gt;Node1</title>
<g id="a_edge1_Node000001_Node000002"><a xlink:title=" ">
<path fill="none" stroke="#8b1a1a" d="M157.16,-64.62C165.43,-64.62 173.61,-64.62 181.29,-64.62"/>
<polygon fill="#8b1a1a" stroke="#8b1a1a" points="157.37,-61.13 147.37,-64.63 157.37,-68.13 157.37,-61.13"/>
</a>
</g>
</g>
</g>
</svg>
