<?xml version="1.0" encoding="UTF-8" standalone="no"?>
<!DOCTYPE svg PUBLIC "-//W3C//DTD SVG 1.1//EN"
 "http://www.w3.org/Graphics/SVG/1.1/DTD/svg11.dtd">
<!-- Generated by graphviz version 14.1.4 (20260321.0153)
 -->
<!-- Title: ImFusion::GUI::ViewObject Pages: 1 -->
<svg width="760pt" height="922pt"
 viewBox="0.00 0.00 760.00 922.00" xmlns="http://www.w3.org/2000/svg" xmlns:xlink="http://www.w3.org/1999/xlink">
<g id="graph0" class="graph" transform="scale(1 1) rotate(0) translate(4 918.25)">
<title>ImFusion::GUI::ViewObject</title>
<!-- Node1 -->
<g id="Node000001" class="node">
<title>Node1</title>
<g id="a_Node000001"><a xlink:title="Wraps a GlObject pairing it with an optional EventHandler in order to attach it to a View.">
<polygon fill="#999999" stroke="#666666" points="318.5,-692.25 181.75,-692.25 181.75,-673 318.5,-673 318.5,-692.25"/>
<text xml:space="preserve" text-anchor="middle" x="250.12" y="-678.75" font-family="Helvetica,sans-Serif" font-size="10.00">ImFusion::GUI::ViewObject</text>
</a>
</g>
</g>
<!-- Node3 -->
<g id="Node000003" class="node">
<title>Node3</title>
<g id="a_Node000003"><a xlink:href="class_im_fusion_1_1_g_u_i_1_1_typed_view_object.html" target="_top" xlink:title=" ">
<polygon fill="white" stroke="#666666" points="528.75,-868.5 354.5,-868.5 354.5,-826.75 528.75,-826.75 528.75,-868.5"/>
<text xml:space="preserve" text-anchor="start" x="362.5" y="-855" font-family="Helvetica,sans-Serif" font-size="10.00">ImFusion::GUI::TypedView</text>
<text xml:space="preserve" text-anchor="start" x="362.5" y="-843.75" font-family="Helvetica,sans-Serif" font-size="10.00">Object&lt; GlBox, GUI::BoxAnnotation</text>
<text xml:space="preserve" text-anchor="middle" x="441.62" y="-832.5" font-family="Helvetica,sans-Serif" font-size="10.00">EventHandler &gt;</text>
</a>
</g>
</g>
<!-- Node1&#45;&gt;Node3 -->
<g id="edge2_Node000001_Node000003" class="edge">
<title>Node1&#45;&gt;Node3</title>
<g id="a_edge2_Node000001_Node000003"><a xlink:title=" ">
<path fill="none" stroke="#63b8ff" d="M271.14,-700.06C306.19,-730.57 378.52,-793.55 416.36,-826.49"/>
<polygon fill="#63b8ff" stroke="#63b8ff" points="273.68,-697.62 263.84,-693.69 269.08,-702.9 273.68,-697.62"/>
</a>
</g>
</g>
<!-- Node5 -->
<g id="Node000005" class="node">
<title>Node5</title>
<g id="a_Node000005"><a xlink:href="class_im_fusion_1_1_g_u_i_1_1_typed_view_object.html" target="_top" xlink:title=" ">
<polygon fill="white" stroke="#666666" points="522,-752.5 361.25,-752.5 361.25,-710.75 522,-710.75 522,-752.5"/>
<text xml:space="preserve" text-anchor="start" x="369.25" y="-739" font-family="Helvetica,sans-Serif" font-size="10.00">ImFusion::GUI::TypedView</text>
<text xml:space="preserve" text-anchor="start" x="369.25" y="-727.75" font-family="Helvetica,sans-Serif" font-size="10.00">Object&lt; ImFusion::GlCircle,</text>
<text xml:space="preserve" text-anchor="middle" x="441.62" y="-716.5" font-family="Helvetica,sans-Serif" font-size="10.00"> ImFusion::LabelingManipulator &gt;</text>
</a>
</g>
</g>
<!-- Node1&#45;&gt;Node5 -->
<g id="edge4_Node000001_Node000005" class="edge">
<title>Node1&#45;&gt;Node5</title>
<g id="a_edge4_Node000001_Node000005"><a xlink:title=" ">
<path fill="none" stroke="#63b8ff" d="M300.93,-695.5C319.26,-700.24 340.5,-705.74 360.81,-710.99"/>
<polygon fill="#63b8ff" stroke="#63b8ff" points="301.95,-692.15 291.4,-693.04 300.2,-698.93 301.95,-692.15"/>
</a>
</g>
</g>
<!-- Node6 -->
<g id="Node000006" class="node">
<title>Node6</title>
<g id="a_Node000006"><a xlink:href="class_im_fusion_1_1_g_u_i_1_1_slice_indicator.html" target="_top" xlink:title="Interactive renderer to show and manipulate the position/extent of SliceView instances in context of ...">
<polygon fill="white" stroke="#666666" points="514.5,-692.25 368.75,-692.25 368.75,-673 514.5,-673 514.5,-692.25"/>
<text xml:space="preserve" text-anchor="middle" x="441.62" y="-678.75" font-family="Helvetica,sans-Serif" font-size="10.00">ImFusion::GUI::SliceIndicator</text>
</a>
</g>
</g>
<!-- Node1&#45;&gt;Node6 -->
<g id="edge5_Node000001_Node000006" class="edge">
<title>Node1&#45;&gt;Node6</title>
<g id="a_edge5_Node000001_Node000006"><a xlink:title=" ">
<path fill="none" stroke="#63b8ff" d="M329.87,-682.62C342.69,-682.62 355.9,-682.62 368.55,-682.62"/>
<polygon fill="#63b8ff" stroke="#63b8ff" points="330.25,-679.13 320.25,-682.63 330.25,-686.13 330.25,-679.13"/>
</a>
</g>
</g>
<!-- Node7 -->
<g id="Node000007" class="node">
<title>Node7</title>
<g id="a_Node000007"><a xlink:href="class_im_fusion_1_1_g_u_i_1_1_typed_view_object.html" target="_top" xlink:title="Specialization of a ViewObject where the concrete types of the underlying GlObject and EventHandler a...">
<polygon fill="white" stroke="#666666" points="525.75,-654.5 357.5,-654.5 357.5,-612.75 525.75,-612.75 525.75,-654.5"/>
<text xml:space="preserve" text-anchor="start" x="365.5" y="-641" font-family="Helvetica,sans-Serif" font-size="10.00">ImFusion::GUI::TypedView</text>
<text xml:space="preserve" text-anchor="start" x="365.5" y="-629.75" font-family="Helvetica,sans-Serif" font-size="10.00">Object&lt; ObjectType, EventHandler</text>
<text xml:space="preserve" text-anchor="middle" x="441.62" y="-618.5" font-family="Helvetica,sans-Serif" font-size="10.00">Type &gt;</text>
</a>
</g>
</g>
<!-- Node1&#45;&gt;Node7 -->
<g id="edge6_Node000001_Node000007" class="edge">
<title>Node1&#45;&gt;Node7</title>
<g id="a_edge6_Node000001_Node000007"><a xlink:title=" ">
<path fill="none" stroke="#63b8ff" d="M301.01,-669.73C318.49,-665.2 338.64,-660 358.08,-654.97"/>
<polygon fill="#63b8ff" stroke="#63b8ff" points="300.2,-666.32 291.4,-672.21 301.95,-673.1 300.2,-666.32"/>
</a>
</g>
</g>
<!-- Node8 -->
<g id="Node000008" class="node">
<title>Node8</title>
<g id="a_Node000008"><a xlink:href="class_im_fusion_1_1_interactive_object.html" target="_top" xlink:title="Wraps a GlObject pairing it with an optional Manipulator in order to attach it to an InteractiveView.">
<polygon fill="white" stroke="#666666" points="510,-482.25 373.25,-482.25 373.25,-463 510,-463 510,-482.25"/>
<text xml:space="preserve" text-anchor="middle" x="441.62" y="-468.75" font-family="Helvetica,sans-Serif" font-size="10.00">ImFusion::InteractiveObject</text>
</a>
</g>
</g>
<!-- Node1&#45;&gt;Node8 -->
<g id="edge7_Node000001_Node000008" class="edge">
<title>Node1&#45;&gt;Node8</title>
<g id="a_edge7_Node000001_Node000008"><a xlink:title=" ">
<path fill="none" stroke="#63b8ff" d="M267.54,-664.43C306.14,-621.66 401.65,-515.81 431.54,-482.7"/>
<polygon fill="#63b8ff" stroke="#63b8ff" points="265.13,-661.89 261.02,-671.65 270.32,-666.57 265.13,-661.89"/>
</a>
</g>
</g>
<!-- Node2 -->
<g id="Node000002" class="node">
<title>Node2</title>
<g id="a_Node000002"><a xlink:href="class_im_fusion_1_1_utils_1_1_not_copyable.html" target="_top" xlink:title="Inherit from this class if your class should be neither copy&#45;constructible nor assignable.">
<polygon fill="white" stroke="#666666" points="145.75,-692.25 0,-692.25 0,-673 145.75,-673 145.75,-692.25"/>
<text xml:space="preserve" text-anchor="middle" x="72.88" y="-678.75" font-family="Helvetica,sans-Serif" font-size="10.00">ImFusion::Utils::NotCopyable</text>
</a>
</g>
</g>
<!-- Node2&#45;&gt;Node1 -->
<g id="edge1_Node000001_Node000002" class="edge">
<title>Node2&#45;&gt;Node1</title>
<g id="a_edge1_Node000001_Node000002"><a xlink:title=" ">
<path fill="none" stroke="#8b1a1a" d="M157.49,-682.62C165.54,-682.62 173.63,-682.62 181.5,-682.62"/>
<polygon fill="#8b1a1a" stroke="#8b1a1a" points="157.68,-679.13 147.68,-682.63 157.68,-686.13 157.68,-679.13"/>
</a>
</g>
</g>
<!-- Node4 -->
<g id="Node000004" class="node">
<title>Node4</title>
<g id="a_Node000004"><a xlink:href="class_im_fusion_1_1_interactive_cropping_box.html" target="_top" xlink:title=" ">
<polygon fill="white" stroke="#bfbfbf" points="740.5,-914.25 576,-914.25 576,-895 740.5,-895 740.5,-914.25"/>
<text xml:space="preserve" text-anchor="middle" x="658.25" y="-900.75" font-family="Helvetica,sans-Serif" font-size="10.00">ImFusion::InteractiveCroppingBox</text>
</a>
</g>
</g>
<!-- Node3&#45;&gt;Node4 -->
<g id="edge3_Node000003_Node000004" class="edge">
<title>Node3&#45;&gt;Node4</title>
<g id="a_edge3_Node000003_Node000004"><a xlink:title=" ">
<path fill="none" stroke="#63b8ff" d="M517.53,-872.22C533.06,-876.95 549.38,-881.66 564.75,-885.62 577.29,-888.86 590.9,-891.9 603.73,-894.57"/>
<polygon fill="#63b8ff" stroke="#63b8ff" points="518.96,-869 508.38,-869.39 516.9,-875.68 518.96,-869"/>
</a>
</g>
</g>
<!-- Node9 -->
<g id="Node000009" class="node">
<title>Node9</title>
<g id="a_Node000009"><a xlink:href="class_im_fusion_1_1_interactive.html" target="_top" xlink:title=" ">
<polygon fill="white" stroke="#666666" points="717.62,-876.88 598.88,-876.88 598.88,-846.38 717.62,-846.38 717.62,-876.88"/>
<text xml:space="preserve" text-anchor="start" x="606.88" y="-863.38" font-family="Helvetica,sans-Serif" font-size="10.00">ImFusion::Interactive</text>
<text xml:space="preserve" text-anchor="middle" x="658.25" y="-852.12" font-family="Helvetica,sans-Serif" font-size="10.00">&lt; ImFusion::GlObject &gt;</text>
</a>
</g>
</g>
<!-- Node8&#45;&gt;Node9 -->
<g id="edge8_Node000008_Node000009" class="edge">
<title>Node8&#45;&gt;Node9</title>
<g id="a_edge8_Node000008_Node000009"><a xlink:title=" ">
<path fill="none" stroke="#63b8ff" d="M458.83,-491.46C478.73,-515.68 511.91,-559.87 528.75,-603.62 566.39,-701.41 494.87,-758.55 564.75,-836.62 573.63,-846.54 585.99,-852.7 598.79,-856.48"/>
<polygon fill="#63b8ff" stroke="#63b8ff" points="461.52,-489.21 452.41,-483.8 456.15,-493.71 461.52,-489.21"/>
</a>
</g>
</g>
<!-- Node10 -->
<g id="Node000010" class="node">
<title>Node10</title>
<g id="a_Node000010"><a xlink:href="class_im_fusion_1_1_interactive.html" target="_top" xlink:title=" ">
<polygon fill="white" stroke="#666666" points="751.75,-827.88 564.75,-827.88 564.75,-797.38 751.75,-797.38 751.75,-827.88"/>
<text xml:space="preserve" text-anchor="start" x="572.75" y="-814.38" font-family="Helvetica,sans-Serif" font-size="10.00">ImFusion::Interactive</text>
<text xml:space="preserve" text-anchor="middle" x="658.25" y="-803.12" font-family="Helvetica,sans-Serif" font-size="10.00">&lt; ImFusion::GlPointBasedAnnotation &gt;</text>
</a>
</g>
</g>
<!-- Node8&#45;&gt;Node10 -->
<g id="edge9_Node000008_Node000010" class="edge">
<title>Node8&#45;&gt;Node10</title>
<g id="a_edge9_Node000008_Node000010"><a xlink:title=" ">
<path fill="none" stroke="#63b8ff" d="M458.55,-491.57C478.16,-515.91 511.04,-560.21 528.75,-603.62 560.23,-680.78 507.95,-726.66 564.75,-787.62 568.15,-791.28 572.03,-794.42 576.22,-797.11"/>
<polygon fill="#63b8ff" stroke="#63b8ff" points="461.29,-489.38 452.24,-483.87 455.88,-493.82 461.29,-489.38"/>
</a>
</g>
</g>
<!-- Node11 -->
<g id="Node000011" class="node">
<title>Node11</title>
<g id="a_Node000011"><a xlink:href="class_im_fusion_1_1_interactive.html" target="_top" xlink:title=" ">
<polygon fill="white" stroke="#666666" points="714.25,-778.88 602.25,-778.88 602.25,-748.38 714.25,-748.38 714.25,-778.88"/>
<text xml:space="preserve" text-anchor="start" x="610.25" y="-765.38" font-family="Helvetica,sans-Serif" font-size="10.00">ImFusion::Interactive</text>
<text xml:space="preserve" text-anchor="middle" x="658.25" y="-754.12" font-family="Helvetica,sans-Serif" font-size="10.00">&lt; ImFusion::GlSlice &gt;</text>
</a>
</g>
</g>
<!-- Node8&#45;&gt;Node11 -->
<g id="edge10_Node000008_Node000011" class="edge">
<title>Node8&#45;&gt;Node11</title>
<g id="a_edge10_Node000008_Node000011"><a xlink:title=" ">
<path fill="none" stroke="#63b8ff" d="M457.81,-491.39C476.91,-515.85 509.53,-560.6 528.75,-603.62 554.26,-660.71 520.43,-695.52 564.75,-739.62 574.75,-749.57 588.3,-755.56 601.95,-759.12"/>
<polygon fill="#63b8ff" stroke="#63b8ff" points="460.65,-489.34 451.7,-483.68 455.17,-493.69 460.65,-489.34"/>
</a>
</g>
</g>
<!-- Node12 -->
<g id="Node000012" class="node">
<title>Node12</title>
<g id="a_Node000012"><a xlink:href="class_im_fusion_1_1_interactive.html" target="_top" xlink:title=" ">
<polygon fill="white" stroke="#666666" points="720.62,-730.5 595.88,-730.5 595.88,-688.75 720.62,-688.75 720.62,-730.5"/>
<text xml:space="preserve" text-anchor="start" x="603.88" y="-717" font-family="Helvetica,sans-Serif" font-size="10.00">ImFusion::Interactive</text>
<text xml:space="preserve" text-anchor="start" x="603.88" y="-705.75" font-family="Helvetica,sans-Serif" font-size="10.00">&lt; ImFusion::GlObject,</text>
<text xml:space="preserve" text-anchor="middle" x="658.25" y="-694.5" font-family="Helvetica,sans-Serif" font-size="10.00"> ImFusion::Manipulator &gt;</text>
</a>
</g>
</g>
<!-- Node8&#45;&gt;Node12 -->
<g id="edge11_Node000008_Node000012" class="edge">
<title>Node8&#45;&gt;Node12</title>
<g id="a_edge11_Node000008_Node000012"><a xlink:title=" ">
<path fill="none" stroke="#63b8ff" d="M456.32,-491.62C474.09,-516.64 505.55,-562.33 528.75,-603.62 547.06,-636.21 536.68,-654.95 564.75,-679.62 573.63,-687.43 584.56,-693.2 595.77,-697.48"/>
<polygon fill="#63b8ff" stroke="#63b8ff" points="459.36,-489.85 450.7,-483.75 453.67,-493.92 459.36,-489.85"/>
</a>
</g>
</g>
<!-- Node13 -->
<g id="Node000013" class="node">
<title>Node13</title>
<g id="a_Node000013"><a xlink:href="class_im_fusion_1_1_interactive.html" target="_top" xlink:title=" ">
<polygon fill="white" stroke="#666666" points="720.62,-670.5 595.88,-670.5 595.88,-628.75 720.62,-628.75 720.62,-670.5"/>
<text xml:space="preserve" text-anchor="start" x="603.88" y="-657" font-family="Helvetica,sans-Serif" font-size="10.00">ImFusion::Interactive</text>
<text xml:space="preserve" text-anchor="start" x="603.88" y="-645.75" font-family="Helvetica,sans-Serif" font-size="10.00">&lt; ImFusion::GlCircle,</text>
<text xml:space="preserve" text-anchor="middle" x="658.25" y="-634.5" font-family="Helvetica,sans-Serif" font-size="10.00"> ImFusion::Manipulator &gt;</text>
</a>
</g>
</g>
<!-- Node8&#45;&gt;Node13 -->
<g id="edge12_Node000008_Node000013" class="edge">
<title>Node8&#45;&gt;Node13</title>
<g id="a_edge12_Node000008_Node000013"><a xlink:title=" ">
<path fill="none" stroke="#63b8ff" d="M453.82,-492.24C472.71,-523.64 513.89,-585.16 564.75,-619.62 574.11,-625.97 584.91,-631.05 595.75,-635.09"/>
<polygon fill="#63b8ff" stroke="#63b8ff" points="456.94,-490.64 448.85,-483.79 450.9,-494.19 456.94,-490.64"/>
</a>
</g>
</g>
<!-- Node14 -->
<g id="Node000014" class="node">
<title>Node14</title>
<g id="a_Node000014"><a xlink:href="class_im_fusion_1_1_interactive.html" target="_top" xlink:title=" ">
<polygon fill="white" stroke="#666666" points="722.12,-610.88 594.38,-610.88 594.38,-580.38 722.12,-580.38 722.12,-610.88"/>
<text xml:space="preserve" text-anchor="start" x="602.38" y="-597.38" font-family="Helvetica,sans-Serif" font-size="10.00">ImFusion::Interactive</text>
<text xml:space="preserve" text-anchor="middle" x="658.25" y="-586.12" font-family="Helvetica,sans-Serif" font-size="10.00">&lt; ImFusion::GlPolyLine &gt;</text>
</a>
</g>
</g>
<!-- Node8&#45;&gt;Node14 -->
<g id="edge13_Node000008_Node000014" class="edge">
<title>Node8&#45;&gt;Node14</title>
<g id="a_edge13_Node000008_Node000014"><a xlink:title=" ">
<path fill="none" stroke="#63b8ff" d="M459.92,-490.46C482.19,-512.42 523.03,-549.43 564.75,-570.62 573.95,-575.3 584.11,-579.17 594.24,-582.36"/>
<polygon fill="#63b8ff" stroke="#63b8ff" points="462.68,-488.26 453.14,-483.65 457.72,-493.2 462.68,-488.26"/>
</a>
</g>
</g>
<!-- Node15 -->
<g id="Node000015" class="node">
<title>Node15</title>
<g id="a_Node000015"><a xlink:href="class_im_fusion_1_1_interactive.html" target="_top" xlink:title=" ">
<polygon fill="white" stroke="#666666" points="712.38,-561.88 604.12,-561.88 604.12,-531.38 712.38,-531.38 712.38,-561.88"/>
<text xml:space="preserve" text-anchor="start" x="612.12" y="-548.38" font-family="Helvetica,sans-Serif" font-size="10.00">ImFusion::Interactive</text>
<text xml:space="preserve" text-anchor="middle" x="658.25" y="-537.12" font-family="Helvetica,sans-Serif" font-size="10.00">&lt; ImFusion::GlLine &gt;</text>
</a>
</g>
</g>
<!-- Node8&#45;&gt;Node15 -->
<g id="edge14_Node000008_Node000015" class="edge">
<title>Node8&#45;&gt;Node15</title>
<g id="a_edge14_Node000008_Node000015"><a xlink:title=" ">
<path fill="none" stroke="#63b8ff" d="M475.74,-487.14C500.09,-497.51 534.13,-511.38 564.75,-521.62 577.37,-525.85 591.14,-529.87 604.1,-533.41"/>
<polygon fill="#63b8ff" stroke="#63b8ff" points="477.24,-483.98 466.68,-483.25 474.48,-490.41 477.24,-483.98"/>
</a>
</g>
</g>
<!-- Node16 -->
<g id="Node000016" class="node">
<title>Node16</title>
<g id="a_Node000016"><a xlink:href="class_im_fusion_1_1_interactive.html" target="_top" xlink:title=" ">
<polygon fill="white" stroke="#666666" points="716.12,-512.88 600.38,-512.88 600.38,-482.38 716.12,-482.38 716.12,-512.88"/>
<text xml:space="preserve" text-anchor="start" x="608.38" y="-499.38" font-family="Helvetica,sans-Serif" font-size="10.00">ImFusion::Interactive</text>
<text xml:space="preserve" text-anchor="middle" x="658.25" y="-488.12" font-family="Helvetica,sans-Serif" font-size="10.00">&lt; ImFusion::GlArrow &gt;</text>
</a>
</g>
</g>
<!-- Node8&#45;&gt;Node16 -->
<g id="edge15_Node000008_Node000016" class="edge">
<title>Node8&#45;&gt;Node16</title>
<g id="a_edge15_Node000008_Node000016"><a xlink:title=" ">
<path fill="none" stroke="#63b8ff" d="M521.61,-481.82C547.61,-484.85 576.01,-488.16 600.08,-490.97"/>
<polygon fill="#63b8ff" stroke="#63b8ff" points="522.08,-478.36 511.74,-480.68 521.27,-485.31 522.08,-478.36"/>
</a>
</g>
</g>
<!-- Node17 -->
<g id="Node000017" class="node">
<title>Node17</title>
<g id="a_Node000017"><a xlink:href="class_im_fusion_1_1_interactive.html" target="_top" xlink:title=" ">
<polygon fill="white" stroke="#666666" points="712.38,-463.88 604.12,-463.88 604.12,-433.38 712.38,-433.38 712.38,-463.88"/>
<text xml:space="preserve" text-anchor="start" x="612.12" y="-450.38" font-family="Helvetica,sans-Serif" font-size="10.00">ImFusion::Interactive</text>
<text xml:space="preserve" text-anchor="middle" x="658.25" y="-439.12" font-family="Helvetica,sans-Serif" font-size="10.00">&lt; ImFusion::GlBall &gt;</text>
</a>
</g>
</g>
<!-- Node8&#45;&gt;Node17 -->
<g id="edge16_Node000008_Node000017" class="edge">
<title>Node8&#45;&gt;Node17</title>
<g id="a_edge16_Node000008_Node000017"><a xlink:title=" ">
<path fill="none" stroke="#63b8ff" d="M521.41,-463.81C548.87,-460.74 579.01,-457.37 603.92,-454.59"/>
<polygon fill="#63b8ff" stroke="#63b8ff" points="521.29,-460.31 511.74,-464.9 522.07,-467.26 521.29,-460.31"/>
</a>
</g>
</g>
<!-- Node18 -->
<g id="Node000018" class="node">
<title>Node18</title>
<g id="a_Node000018"><a xlink:href="class_im_fusion_1_1_interactive.html" target="_top" xlink:title=" ">
<polygon fill="white" stroke="#666666" points="732.62,-415.5 583.88,-415.5 583.88,-373.75 732.62,-373.75 732.62,-415.5"/>
<text xml:space="preserve" text-anchor="start" x="591.88" y="-402" font-family="Helvetica,sans-Serif" font-size="10.00">ImFusion::Interactive</text>
<text xml:space="preserve" text-anchor="start" x="591.88" y="-390.75" font-family="Helvetica,sans-Serif" font-size="10.00">&lt; ImFusion::GlPlane,</text>
<text xml:space="preserve" text-anchor="middle" x="658.25" y="-379.5" font-family="Helvetica,sans-Serif" font-size="10.00"> ImFusion::MeshManipulator &gt;</text>
</a>
</g>
</g>
<!-- Node8&#45;&gt;Node18 -->
<g id="edge17_Node000008_Node000018" class="edge">
<title>Node8&#45;&gt;Node18</title>
<g id="a_edge17_Node000008_Node000018"><a xlink:title=" ">
<path fill="none" stroke="#63b8ff" d="M477.29,-458.35C501.62,-448.49 534.99,-435.29 564.75,-424.62 572.86,-421.72 581.4,-418.78 589.89,-415.94"/>
<polygon fill="#63b8ff" stroke="#63b8ff" points="476.13,-455.04 468.19,-462.05 478.77,-461.52 476.13,-455.04"/>
</a>
</g>
</g>
<!-- Node19 -->
<g id="Node000019" class="node">
<title>Node19</title>
<g id="a_Node000019"><a xlink:href="class_im_fusion_1_1_interactive.html" target="_top" xlink:title=" ">
<polygon fill="white" stroke="#666666" points="734.12,-355.5 582.38,-355.5 582.38,-313.75 734.12,-313.75 734.12,-355.5"/>
<text xml:space="preserve" text-anchor="start" x="590.38" y="-342" font-family="Helvetica,sans-Serif" font-size="10.00">ImFusion::Interactive</text>
<text xml:space="preserve" text-anchor="start" x="590.38" y="-330.75" font-family="Helvetica,sans-Serif" font-size="10.00">&lt; ImFusion::GlMesh, ImFusion</text>
<text xml:space="preserve" text-anchor="middle" x="658.25" y="-319.5" font-family="Helvetica,sans-Serif" font-size="10.00">::MeshPickingManipulator &gt;</text>
</a>
</g>
</g>
<!-- Node8&#45;&gt;Node19 -->
<g id="edge18_Node000008_Node000019" class="edge">
<title>Node8&#45;&gt;Node19</title>
<g id="a_edge18_Node000008_Node000019"><a xlink:title=" ">
<path fill="none" stroke="#63b8ff" d="M458.72,-454.32C480.56,-430.54 521.79,-389.16 564.75,-364.62 570.32,-361.44 576.28,-358.55 582.38,-355.92"/>
<polygon fill="#63b8ff" stroke="#63b8ff" points="456.21,-451.89 452.11,-461.66 461.41,-456.58 456.21,-451.89"/>
</a>
</g>
</g>
<!-- Node20 -->
<g id="Node000020" class="node">
<title>Node20</title>
<g id="a_Node000020"><a xlink:href="class_im_fusion_1_1_interactive.html" target="_top" xlink:title=" ">
<polygon fill="white" stroke="#666666" points="714.62,-295.88 601.88,-295.88 601.88,-265.38 714.62,-265.38 714.62,-295.88"/>
<text xml:space="preserve" text-anchor="start" x="609.88" y="-282.38" font-family="Helvetica,sans-Serif" font-size="10.00">ImFusion::Interactive</text>
<text xml:space="preserve" text-anchor="middle" x="658.25" y="-271.12" font-family="Helvetica,sans-Serif" font-size="10.00">&lt; ImFusion::GlPoint &gt;</text>
</a>
</g>
</g>
<!-- Node8&#45;&gt;Node20 -->
<g id="edge19_Node000008_Node000020" class="edge">
<title>Node8&#45;&gt;Node20</title>
<g id="a_edge19_Node000008_Node000020"><a xlink:title=" ">
<path fill="none" stroke="#63b8ff" d="M451.4,-452.8C468.12,-417.36 508.01,-343.28 564.75,-304.62 575.72,-297.15 588.87,-292.01 601.76,-288.46"/>
<polygon fill="#63b8ff" stroke="#63b8ff" points="448.41,-450.92 447.42,-461.47 454.77,-453.84 448.41,-450.92"/>
</a>
</g>
</g>
<!-- Node21 -->
<g id="Node000021" class="node">
<title>Node21</title>
<g id="a_Node000021"><a xlink:href="class_im_fusion_1_1_interactive.html" target="_top" xlink:title=" ">
<polygon fill="white" stroke="#666666" points="732.62,-247.5 583.88,-247.5 583.88,-205.75 732.62,-205.75 732.62,-247.5"/>
<text xml:space="preserve" text-anchor="start" x="591.88" y="-234" font-family="Helvetica,sans-Serif" font-size="10.00">ImFusion::Interactive</text>
<text xml:space="preserve" text-anchor="start" x="591.88" y="-222.75" font-family="Helvetica,sans-Serif" font-size="10.00">&lt; ImFusion::GlBoundingBox,</text>
<text xml:space="preserve" text-anchor="middle" x="658.25" y="-211.5" font-family="Helvetica,sans-Serif" font-size="10.00"> ImFusion::MeshManipulator &gt;</text>
</a>
</g>
</g>
<!-- Node8&#45;&gt;Node21 -->
<g id="edge20_Node000008_Node000021" class="edge">
<title>Node8&#45;&gt;Node21</title>
<g id="a_edge20_Node000008_Node000021"><a xlink:title=" ">
<path fill="none" stroke="#63b8ff" d="M448.71,-451.78C462.29,-408.87 499.16,-310.2 564.75,-256.62 570.37,-252.03 576.72,-248.14 583.38,-244.83"/>
<polygon fill="#63b8ff" stroke="#63b8ff" points="445.37,-450.73 445.8,-461.32 452.06,-452.77 445.37,-450.73"/>
</a>
</g>
</g>
<!-- Node22 -->
<g id="Node000022" class="node">
<title>Node22</title>
<g id="a_Node000022"><a xlink:href="class_im_fusion_1_1_interactive.html" target="_top" xlink:title=" ">
<polygon fill="white" stroke="#666666" points="727.38,-187.88 589.12,-187.88 589.12,-157.38 727.38,-157.38 727.38,-187.88"/>
<text xml:space="preserve" text-anchor="start" x="597.12" y="-174.38" font-family="Helvetica,sans-Serif" font-size="10.00">ImFusion::Interactive</text>
<text xml:space="preserve" text-anchor="middle" x="658.25" y="-163.12" font-family="Helvetica,sans-Serif" font-size="10.00">&lt; ImFusion::GlPointCloud &gt;</text>
</a>
</g>
</g>
<!-- Node8&#45;&gt;Node22 -->
<g id="edge21_Node000008_Node000022" class="edge">
<title>Node8&#45;&gt;Node22</title>
<g id="a_edge21_Node000008_Node000022"><a xlink:title=" ">
<path fill="none" stroke="#63b8ff" d="M445.64,-451.45C454.18,-399.65 483.38,-265.73 564.75,-196.62 571.83,-190.61 580.24,-186.08 589.06,-182.67"/>
<polygon fill="#63b8ff" stroke="#63b8ff" points="442.19,-450.85 444.13,-461.27 449.11,-451.92 442.19,-450.85"/>
</a>
</g>
</g>
<!-- Node23 -->
<g id="Node000023" class="node">
<title>Node23</title>
<g id="a_Node000023"><a xlink:href="class_im_fusion_1_1_interactive.html" target="_top" xlink:title=" ">
<polygon fill="white" stroke="#666666" points="739.38,-139.12 577.12,-139.12 577.12,-86.12 739.38,-86.12 739.38,-139.12"/>
<text xml:space="preserve" text-anchor="start" x="585.12" y="-125.62" font-family="Helvetica,sans-Serif" font-size="10.00">ImFusion::Interactive</text>
<text xml:space="preserve" text-anchor="start" x="585.12" y="-114.38" font-family="Helvetica,sans-Serif" font-size="10.00">&lt; ImFusion::GlPoint,</text>
<text xml:space="preserve" text-anchor="start" x="585.12" y="-103.12" font-family="Helvetica,sans-Serif" font-size="10.00"> ImFusion::PointBasedAnnotation</text>
<text xml:space="preserve" text-anchor="middle" x="658.25" y="-91.88" font-family="Helvetica,sans-Serif" font-size="10.00">Manipulator &gt;</text>
</a>
</g>
</g>
<!-- Node8&#45;&gt;Node23 -->
<g id="edge22_Node000008_Node000023" class="edge">
<title>Node8&#45;&gt;Node23</title>
<g id="a_edge22_Node000008_Node000023"><a xlink:title=" ">
<path fill="none" stroke="#63b8ff" d="M444.73,-451.19C451.43,-394.15 477.28,-237.03 564.75,-148.62 568.39,-144.95 572.44,-141.64 576.76,-138.67"/>
<polygon fill="#63b8ff" stroke="#63b8ff" points="441.25,-450.79 443.65,-461.11 448.21,-451.54 441.25,-450.79"/>
</a>
</g>
</g>
<!-- Node24 -->
<g id="Node000024" class="node">
<title>Node24</title>
<g id="a_Node000024"><a xlink:href="class_im_fusion_1_1_interactive.html" target="_top" xlink:title="Strongly typed templated version of an InteractiveObject.">
<polygon fill="white" stroke="#666666" points="712.38,-67.88 604.12,-67.88 604.12,-37.38 712.38,-37.38 712.38,-67.88"/>
<text xml:space="preserve" text-anchor="start" x="612.12" y="-54.38" font-family="Helvetica,sans-Serif" font-size="10.00">ImFusion::Interactive</text>
<text xml:space="preserve" text-anchor="middle" x="658.25" y="-43.12" font-family="Helvetica,sans-Serif" font-size="10.00">&lt; T, S &gt;</text>
</a>
</g>
</g>
<!-- Node8&#45;&gt;Node24 -->
<g id="edge23_Node000008_Node000024" class="edge">
<title>Node8&#45;&gt;Node24</title>
<g id="a_edge23_Node000008_Node000024"><a xlink:title=" ">
<path fill="none" stroke="#63b8ff" d="M442.43,-451.21C443.06,-385.08 454.31,-182.18 564.75,-76.62 575.3,-66.54 589.53,-60.55 603.66,-57.03"/>
<polygon fill="#63b8ff" stroke="#63b8ff" points="438.93,-451.03 442.42,-461.03 445.93,-451.04 438.93,-451.03"/>
</a>
</g>
</g>
<!-- Node25 -->
<g id="Node000025" class="node">
<title>Node25</title>
<g id="a_Node000025"><a xlink:href="class_im_fusion_1_1_interactive_annotation.html" target="_top" xlink:title=" ">
<polygon fill="white" stroke="#bfbfbf" points="735.62,-19.25 580.88,-19.25 580.88,0 735.62,0 735.62,-19.25"/>
<text xml:space="preserve" text-anchor="middle" x="658.25" y="-5.75" font-family="Helvetica,sans-Serif" font-size="10.00">ImFusion::InteractiveAnnotation</text>
</a>
</g>
</g>
<!-- Node8&#45;&gt;Node25 -->
<g id="edge24_Node000008_Node000025" class="edge">
<title>Node8&#45;&gt;Node25</title>
<g id="a_edge24_Node000008_Node000025"><a xlink:title=" ">
<path fill="none" stroke="#63b8ff" d="M445.49,-451.53C456.8,-371.55 500.77,-88.53 564.75,-28.62 569.42,-24.26 574.81,-20.78 580.6,-18.02"/>
<polygon fill="#63b8ff" stroke="#63b8ff" points="442.08,-450.67 444.17,-461.06 449.01,-451.63 442.08,-450.67"/>
</a>
</g>
</g>
</g>
</svg>
