<?xml version="1.0" encoding="UTF-8" standalone="no"?>
<!DOCTYPE svg PUBLIC "-//W3C//DTD SVG 1.1//EN"
 "http://www.w3.org/Graphics/SVG/1.1/DTD/svg11.dtd">
<!-- Generated by graphviz version 14.1.4 (20260321.0153)
 -->
<!-- Title: ImFusion::SimilarityMeasureSSIM_CPU Pages: 1 -->
<svg width="173pt" height="204pt"
 viewBox="0.00 0.00 173.00 204.00" xmlns="http://www.w3.org/2000/svg" xmlns:xlink="http://www.w3.org/1999/xlink">
<g id="graph0" class="graph" transform="scale(1 1) rotate(0) translate(4 200.25)">
<title>ImFusion::SimilarityMeasureSSIM_CPU</title>
<!-- Node1 -->
<g id="Node000001" class="node">
<title>Node1</title>
<g id="a_Node000001"><a xlink:title=" ">
<polygon fill="#999999" stroke="#666666" points="152.88,-30.5 12.38,-30.5 12.38,0 152.88,0 152.88,-30.5"/>
<text xml:space="preserve" text-anchor="start" x="20.38" y="-17" font-family="Helvetica,sans-Serif" font-size="10.00">ImFusion::SimilarityMeasure</text>
<text xml:space="preserve" text-anchor="middle" x="82.62" y="-5.75" font-family="Helvetica,sans-Serif" font-size="10.00">SSIM_CPU</text>
</a>
</g>
</g>
<!-- Node2 -->
<g id="Node000002" class="node">
<title>Node2</title>
<g id="a_Node000002"><a xlink:href="class_im_fusion_1_1_similarity_measure_s_s_i_m.html" target="_top" xlink:title=" ">
<polygon fill="white" stroke="#bfbfbf" points="165.25,-85.75 0,-85.75 0,-66.5 165.25,-66.5 165.25,-85.75"/>
<text xml:space="preserve" text-anchor="middle" x="82.62" y="-72.25" font-family="Helvetica,sans-Serif" font-size="10.00">ImFusion::SimilarityMeasureSSIM</text>
</a>
</g>
</g>
<!-- Node2&#45;&gt;Node1 -->
<g id="edge1_Node000001_Node000002" class="edge">
<title>Node2&#45;&gt;Node1</title>
<g id="a_edge1_Node000001_Node000002"><a xlink:title=" ">
<path fill="none" stroke="#63b8ff" d="M82.62,-54.92C82.62,-46.99 82.62,-38.06 82.62,-30.78"/>
<polygon fill="#63b8ff" stroke="#63b8ff" points="79.13,-54.67 82.63,-64.67 86.13,-54.67 79.13,-54.67"/>
</a>
</g>
</g>
<!-- Node3 -->
<g id="Node000003" class="node">
<title>Node3</title>
<g id="a_Node000003"><a xlink:href="class_im_fusion_1_1_similarity_measure_impl.html" target="_top" xlink:title="Base class of a similarity measure between two images.">
<polygon fill="white" stroke="#666666" points="162.25,-141 3,-141 3,-121.75 162.25,-121.75 162.25,-141"/>
<text xml:space="preserve" text-anchor="middle" x="82.62" y="-127.5" font-family="Helvetica,sans-Serif" font-size="10.00">ImFusion::SimilarityMeasureImpl</text>
</a>
</g>
</g>
<!-- Node3&#45;&gt;Node2 -->
<g id="edge2_Node000002_Node000003" class="edge">
<title>Node3&#45;&gt;Node2</title>
<g id="a_edge2_Node000002_Node000003"><a xlink:title=" ">
<path fill="none" stroke="#63b8ff" d="M82.62,-110.13C82.62,-101.84 82.62,-92.67 82.62,-86.11"/>
<polygon fill="#63b8ff" stroke="#63b8ff" points="79.13,-110.07 82.63,-120.07 86.13,-110.07 79.13,-110.07"/>
</a>
</g>
</g>
<!-- Node4 -->
<g id="Node000004" class="node">
<title>Node4</title>
<g id="a_Node000004"><a xlink:href="class_im_fusion_1_1_configurable.html" target="_top" xlink:title="Base interface for classes that support object serialization from/to Properties objects.">
<polygon fill="white" stroke="#666666" points="141.25,-196.25 24,-196.25 24,-177 141.25,-177 141.25,-196.25"/>
<text xml:space="preserve" text-anchor="middle" x="82.62" y="-182.75" font-family="Helvetica,sans-Serif" font-size="10.00">ImFusion::Configurable</text>
</a>
</g>
</g>
<!-- Node4&#45;&gt;Node3 -->
<g id="edge3_Node000003_Node000004" class="edge">
<title>Node4&#45;&gt;Node3</title>
<g id="a_edge3_Node000003_Node000004"><a xlink:title=" ">
<path fill="none" stroke="#63b8ff" d="M82.62,-165.38C82.62,-157.09 82.62,-147.92 82.62,-141.36"/>
<polygon fill="#63b8ff" stroke="#63b8ff" points="79.13,-165.32 82.63,-175.32 86.13,-165.32 79.13,-165.32"/>
</a>
</g>
</g>
</g>
</svg>
