<?xml version="1.0" encoding="UTF-8" standalone="no"?>
<!DOCTYPE svg PUBLIC "-//W3C//DTD SVG 1.1//EN"
 "http://www.w3.org/Graphics/SVG/1.1/DTD/svg11.dtd">
<!-- Generated by graphviz version 14.1.4 (20260321.0153)
 -->
<!-- Title: ImFusion::DefaultDataAnnotationFactory Pages: 1 -->
<svg width="170pt" height="160pt"
 viewBox="0.00 0.00 170.00 160.00" xmlns="http://www.w3.org/2000/svg" xmlns:xlink="http://www.w3.org/1999/xlink">
<g id="graph0" class="graph" transform="scale(1 1) rotate(0) translate(4 156.25)">
<title>ImFusion::DefaultDataAnnotationFactory</title>
<!-- Node1 -->
<g id="Node000001" class="node">
<title>Node1</title>
<g id="a_Node000001"><a xlink:title="Factory for default data annotations.">
<polygon fill="#999999" stroke="#666666" points="161.5,-30.5 0,-30.5 0,0 161.5,0 161.5,-30.5"/>
<text xml:space="preserve" text-anchor="start" x="8" y="-17" font-family="Helvetica,sans-Serif" font-size="10.00">ImFusion::DefaultDataAnnotation</text>
<text xml:space="preserve" text-anchor="middle" x="80.75" y="-5.75" font-family="Helvetica,sans-Serif" font-size="10.00">Factory</text>
</a>
</g>
</g>
<!-- Node2 -->
<g id="Node000002" class="node">
<title>Node2</title>
<g id="a_Node000002"><a xlink:href="class_im_fusion_1_1_data_annotation_factory.html" target="_top" xlink:title="Interface for data annotation factories.">
<polygon fill="white" stroke="#666666" points="145.75,-97 15.75,-97 15.75,-66.5 145.75,-66.5 145.75,-97"/>
<text xml:space="preserve" text-anchor="start" x="23.75" y="-83.5" font-family="Helvetica,sans-Serif" font-size="10.00">ImFusion::DataAnnotation</text>
<text xml:space="preserve" text-anchor="middle" x="80.75" y="-72.25" font-family="Helvetica,sans-Serif" font-size="10.00">Factory</text>
</a>
</g>
</g>
<!-- Node2&#45;&gt;Node1 -->
<g id="edge1_Node000001_Node000002" class="edge">
<title>Node2&#45;&gt;Node1</title>
<g id="a_edge1_Node000001_Node000002"><a xlink:title=" ">
<path fill="none" stroke="#63b8ff" d="M80.75,-54.81C80.75,-46.64 80.75,-37.91 80.75,-30.83"/>
<polygon fill="#63b8ff" stroke="#63b8ff" points="77.25,-54.6 80.75,-64.6 84.25,-54.6 77.25,-54.6"/>
</a>
</g>
</g>
<!-- Node3 -->
<g id="Node000003" class="node">
<title>Node3</title>
<g id="a_Node000003"><a xlink:href="class_im_fusion_1_1_utils_1_1_not_copyable.html" target="_top" xlink:title="Inherit from this class if your class should be neither copy&#45;constructible nor assignable.">
<polygon fill="white" stroke="#666666" points="153.62,-152.25 7.88,-152.25 7.88,-133 153.62,-133 153.62,-152.25"/>
<text xml:space="preserve" text-anchor="middle" x="80.75" y="-138.75" font-family="Helvetica,sans-Serif" font-size="10.00">ImFusion::Utils::NotCopyable</text>
</a>
</g>
</g>
<!-- Node3&#45;&gt;Node2 -->
<g id="edge2_Node000002_Node000003" class="edge">
<title>Node3&#45;&gt;Node2</title>
<g id="a_edge2_Node000002_Node000003"><a xlink:title=" ">
<path fill="none" stroke="#8b1a1a" d="M80.75,-121.42C80.75,-113.49 80.75,-104.56 80.75,-97.28"/>
<polygon fill="#8b1a1a" stroke="#8b1a1a" points="77.25,-121.17 80.75,-131.17 84.25,-121.17 77.25,-121.17"/>
</a>
</g>
</g>
</g>
</svg>
