<?xml version="1.0" encoding="UTF-8" standalone="no"?>
<!DOCTYPE svg PUBLIC "-//W3C//DTD SVG 1.1//EN"
 "http://www.w3.org/Graphics/SVG/1.1/DTD/svg11.dtd">
<!-- Generated by graphviz version 14.1.4 (20260321.0153)
 -->
<!-- Title: ImFusion::DataDisplayModel Pages: 1 -->
<svg width="278pt" height="83pt"
 viewBox="0.00 0.00 278.00 83.00" xmlns="http://www.w3.org/2000/svg" xmlns:xlink="http://www.w3.org/1999/xlink">
<g id="graph0" class="graph" transform="scale(1 1) rotate(0) translate(4 78.5)">
<title>ImFusion::DataDisplayModel</title>
<!-- Node1 -->
<g id="Node000001" class="node">
<title>Node1</title>
<g id="a_Node000001"><a xlink:title="This class extends a DataItemModel with data visibility information from a DisplayWidgetMulti.">
<polygon fill="#999999" stroke="#666666" points="196.38,-19.25 53.62,-19.25 53.62,0 196.38,0 196.38,-19.25"/>
<text xml:space="preserve" text-anchor="middle" x="125" y="-5.75" font-family="Helvetica,sans-Serif" font-size="10.00">ImFusion::DataDisplayModel</text>
</a>
</g>
</g>
<!-- Node2 -->
<g id="Node000002" class="node">
<title>Node2</title>
<g id="a_Node000002"><a xlink:title=" ">
<polygon fill="white" stroke="#bfbfbf" points="106,-74.5 0,-74.5 0,-55.25 106,-55.25 106,-74.5"/>
<text xml:space="preserve" text-anchor="middle" x="53" y="-61" font-family="Helvetica,sans-Serif" font-size="10.00">QAbstractItemModel</text>
</a>
</g>
</g>
<!-- Node2&#45;&gt;Node1 -->
<g id="edge1_Node000001_Node000002" class="edge">
<title>Node2&#45;&gt;Node1</title>
<g id="a_edge1_Node000001_Node000002"><a xlink:title=" ">
<path fill="none" stroke="#63b8ff" d="M74.17,-48.22C86.81,-38.87 102.41,-27.33 112.97,-19.52"/>
<polygon fill="#63b8ff" stroke="#63b8ff" points="72.39,-45.18 66.43,-53.94 76.55,-50.81 72.39,-45.18"/>
</a>
</g>
</g>
<!-- Node3 -->
<g id="Node000003" class="node">
<title>Node3</title>
<g id="a_Node000003"><a xlink:href="class_im_fusion_1_1_utils_1_1_not_copyable.html" target="_top" xlink:title="Inherit from this class if your class should be neither copy&#45;constructible nor assignable.">
<polygon fill="white" stroke="#666666" points="269.88,-74.5 124.12,-74.5 124.12,-55.25 269.88,-55.25 269.88,-74.5"/>
<text xml:space="preserve" text-anchor="middle" x="197" y="-61" font-family="Helvetica,sans-Serif" font-size="10.00">ImFusion::Utils::NotCopyable</text>
</a>
</g>
</g>
<!-- Node3&#45;&gt;Node1 -->
<g id="edge2_Node000001_Node000003" class="edge">
<title>Node3&#45;&gt;Node1</title>
<g id="a_edge2_Node000001_Node000003"><a xlink:title=" ">
<path fill="none" stroke="#8b1a1a" d="M175.83,-48.22C163.19,-38.87 147.59,-27.33 137.03,-19.52"/>
<polygon fill="#8b1a1a" stroke="#8b1a1a" points="173.45,-50.81 183.57,-53.94 177.61,-45.18 173.45,-50.81"/>
</a>
</g>
</g>
</g>
</svg>
