<?xml version="1.0" encoding="UTF-8" standalone="no"?>
<!DOCTYPE svg PUBLIC "-//W3C//DTD SVG 1.1//EN"
 "http://www.w3.org/Graphics/SVG/1.1/DTD/svg11.dtd">
<!-- Generated by graphviz version 14.1.4 (20260321.0153)
 -->
<!-- Title: ImFusion::UndoAction Pages: 1 -->
<svg width="455pt" height="138pt"
 viewBox="0.00 0.00 455.00 138.00" xmlns="http://www.w3.org/2000/svg" xmlns:xlink="http://www.w3.org/1999/xlink">
<g id="graph0" class="graph" transform="scale(1 1) rotate(0) translate(4 133.75)">
<title>ImFusion::UndoAction</title>
<!-- Node1 -->
<g id="Node000001" class="node">
<title>Node1</title>
<g id="a_Node000001"><a xlink:title=" ">
<polygon fill="#999999" stroke="#666666" points="276.12,-19.25 162.62,-19.25 162.62,0 276.12,0 276.12,-19.25"/>
<text xml:space="preserve" text-anchor="middle" x="219.38" y="-5.75" font-family="Helvetica,sans-Serif" font-size="10.00">ImFusion::UndoAction</text>
</a>
</g>
</g>
<!-- Node2 -->
<g id="Node000002" class="node">
<title>Node2</title>
<g id="a_Node000002"><a xlink:href="class_im_fusion_1_1_annotation_action.html" target="_top" xlink:title=" ">
<polygon fill="white" stroke="#bfbfbf" points="136.75,-74.5 0,-74.5 0,-55.25 136.75,-55.25 136.75,-74.5"/>
<text xml:space="preserve" text-anchor="middle" x="68.38" y="-61" font-family="Helvetica,sans-Serif" font-size="10.00">ImFusion::AnnotationAction</text>
</a>
</g>
</g>
<!-- Node2&#45;&gt;Node1 -->
<g id="edge1_Node000001_Node000002" class="edge">
<title>Node2&#45;&gt;Node1</title>
<g id="a_edge1_Node000001_Node000002"><a xlink:title=" ">
<path fill="none" stroke="#63b8ff" d="M104.74,-51.05C132.19,-41.37 169.19,-28.32 193.63,-19.7"/>
<polygon fill="#63b8ff" stroke="#63b8ff" points="103.68,-47.71 95.42,-54.34 106.01,-54.31 103.68,-47.71"/>
</a>
</g>
</g>
<!-- Node3 -->
<g id="Node000003" class="node">
<title>Node3</title>
<g id="a_Node000003"><a xlink:href="class_im_fusion_1_1_configurable.html" target="_top" xlink:title="Base interface for classes that support object serialization from/to Properties objects.">
<polygon fill="white" stroke="#666666" points="127,-129.75 9.75,-129.75 9.75,-110.5 127,-110.5 127,-129.75"/>
<text xml:space="preserve" text-anchor="middle" x="68.38" y="-116.25" font-family="Helvetica,sans-Serif" font-size="10.00">ImFusion::Configurable</text>
</a>
</g>
</g>
<!-- Node3&#45;&gt;Node2 -->
<g id="edge2_Node000002_Node000003" class="edge">
<title>Node3&#45;&gt;Node2</title>
<g id="a_edge2_Node000002_Node000003"><a xlink:title=" ">
<path fill="none" stroke="#63b8ff" d="M68.38,-98.88C68.38,-90.59 68.38,-81.42 68.38,-74.86"/>
<polygon fill="#63b8ff" stroke="#63b8ff" points="64.88,-98.82 68.38,-108.82 71.88,-98.82 64.88,-98.82"/>
</a>
</g>
</g>
<!-- Node4 -->
<g id="Node000004" class="node">
<title>Node4</title>
<g id="a_Node000004"><a xlink:href="class_im_fusion_1_1_signal_receiver.html" target="_top" xlink:title="Base class for classes that can contain slots (i.e.">
<polygon fill="white" stroke="#666666" points="283.62,-74.5 155.12,-74.5 155.12,-55.25 283.62,-55.25 283.62,-74.5"/>
<text xml:space="preserve" text-anchor="middle" x="219.38" y="-61" font-family="Helvetica,sans-Serif" font-size="10.00">ImFusion::SignalReceiver</text>
</a>
</g>
</g>
<!-- Node4&#45;&gt;Node1 -->
<g id="edge3_Node000001_Node000004" class="edge">
<title>Node4&#45;&gt;Node1</title>
<g id="a_edge3_Node000001_Node000004"><a xlink:title=" ">
<path fill="none" stroke="#63b8ff" d="M219.38,-43.63C219.38,-35.34 219.38,-26.17 219.38,-19.61"/>
<polygon fill="#63b8ff" stroke="#63b8ff" points="215.88,-43.57 219.38,-53.57 222.88,-43.57 215.88,-43.57"/>
</a>
</g>
</g>
<!-- Node5 -->
<g id="Node000005" class="node">
<title>Node5</title>
<g id="a_Node000005"><a xlink:href="class_im_fusion_1_1_utils_1_1_not_copyable.html" target="_top" xlink:title="Inherit from this class if your class should be neither copy&#45;constructible nor assignable.">
<polygon fill="white" stroke="#666666" points="447.25,-74.5 301.5,-74.5 301.5,-55.25 447.25,-55.25 447.25,-74.5"/>
<text xml:space="preserve" text-anchor="middle" x="374.38" y="-61" font-family="Helvetica,sans-Serif" font-size="10.00">ImFusion::Utils::NotCopyable</text>
</a>
</g>
</g>
<!-- Node5&#45;&gt;Node1 -->
<g id="edge4_Node000001_Node000005" class="edge">
<title>Node5&#45;&gt;Node1</title>
<g id="a_edge4_Node000001_Node000005"><a xlink:title=" ">
<path fill="none" stroke="#8b1a1a" d="M337.43,-51.18C309.21,-41.49 271,-28.36 245.8,-19.7"/>
<polygon fill="#8b1a1a" stroke="#8b1a1a" points="336.06,-54.41 346.65,-54.35 338.33,-47.79 336.06,-54.41"/>
</a>
</g>
</g>
</g>
</svg>
