<?xml version="1.0" encoding="UTF-8" standalone="no"?>
<!DOCTYPE svg PUBLIC "-//W3C//DTD SVG 1.1//EN"
 "http://www.w3.org/Graphics/SVG/1.1/DTD/svg11.dtd">
<!-- Generated by graphviz version 14.1.4 (20260321.0153)
 -->
<!-- Title: ImFusion::FrameInfoDataComponent Pages: 1 -->
<svg width="186pt" height="204pt"
 viewBox="0.00 0.00 186.00 204.00" xmlns="http://www.w3.org/2000/svg" xmlns:xlink="http://www.w3.org/1999/xlink">
<g id="graph0" class="graph" transform="scale(1 1) rotate(0) translate(4 200.25)">
<title>ImFusion::FrameInfoDataComponent</title>
<!-- Node1 -->
<g id="Node000001" class="node">
<title>Node1</title>
<g id="a_Node000001"><a xlink:title=" ">
<polygon fill="#999999" stroke="#666666" points="178,-19.25 0,-19.25 0,0 178,0 178,-19.25"/>
<text xml:space="preserve" text-anchor="middle" x="89" y="-5.75" font-family="Helvetica,sans-Serif" font-size="10.00">ImFusion::FrameInfoDataComponent</text>
</a>
</g>
</g>
<!-- Node2 -->
<g id="Node000002" class="node">
<title>Node2</title>
<g id="a_Node000002"><a xlink:href="class_im_fusion_1_1_data_component.html" target="_top" xlink:title=" ">
<polygon fill="white" stroke="#666666" points="163.75,-85.75 14.25,-85.75 14.25,-55.25 163.75,-55.25 163.75,-85.75"/>
<text xml:space="preserve" text-anchor="start" x="22.25" y="-72.25" font-family="Helvetica,sans-Serif" font-size="10.00">ImFusion::DataComponent</text>
<text xml:space="preserve" text-anchor="middle" x="89" y="-61" font-family="Helvetica,sans-Serif" font-size="10.00">&lt; FrameInfoDataComponent &gt;</text>
</a>
</g>
</g>
<!-- Node2&#45;&gt;Node1 -->
<g id="edge1_Node000001_Node000002" class="edge">
<title>Node2&#45;&gt;Node1</title>
<g id="a_edge1_Node000001_Node000002"><a xlink:title=" ">
<path fill="none" stroke="#63b8ff" d="M89,-43.48C89,-34.98 89,-26.09 89,-19.7"/>
<polygon fill="#63b8ff" stroke="#63b8ff" points="85.5,-43.43 89,-53.43 92.5,-43.43 85.5,-43.43"/>
</a>
</g>
</g>
<!-- Node3 -->
<g id="Node000003" class="node">
<title>Node3</title>
<g id="a_Node000003"><a xlink:href="class_im_fusion_1_1_data_component_base.html" target="_top" xlink:title="Data components provide a way to generically attach custom information objects.">
<polygon fill="white" stroke="#666666" points="167.12,-141 10.88,-141 10.88,-121.75 167.12,-121.75 167.12,-141"/>
<text xml:space="preserve" text-anchor="middle" x="89" y="-127.5" font-family="Helvetica,sans-Serif" font-size="10.00">ImFusion::DataComponentBase</text>
</a>
</g>
</g>
<!-- Node3&#45;&gt;Node2 -->
<g id="edge2_Node000002_Node000003" class="edge">
<title>Node3&#45;&gt;Node2</title>
<g id="a_edge2_Node000002_Node000003"><a xlink:title=" ">
<path fill="none" stroke="#63b8ff" d="M89,-110.17C89,-102.24 89,-93.31 89,-86.03"/>
<polygon fill="#63b8ff" stroke="#63b8ff" points="85.5,-109.92 89,-119.92 92.5,-109.92 85.5,-109.92"/>
</a>
</g>
</g>
<!-- Node4 -->
<g id="Node000004" class="node">
<title>Node4</title>
<g id="a_Node000004"><a xlink:href="class_im_fusion_1_1_configurable.html" target="_top" xlink:title="Base interface for classes that support object serialization from/to Properties objects.">
<polygon fill="white" stroke="#666666" points="147.62,-196.25 30.38,-196.25 30.38,-177 147.62,-177 147.62,-196.25"/>
<text xml:space="preserve" text-anchor="middle" x="89" y="-182.75" font-family="Helvetica,sans-Serif" font-size="10.00">ImFusion::Configurable</text>
</a>
</g>
</g>
<!-- Node4&#45;&gt;Node3 -->
<g id="edge3_Node000003_Node000004" class="edge">
<title>Node4&#45;&gt;Node3</title>
<g id="a_edge3_Node000003_Node000004"><a xlink:title=" ">
<path fill="none" stroke="#63b8ff" d="M89,-165.38C89,-157.09 89,-147.92 89,-141.36"/>
<polygon fill="#63b8ff" stroke="#63b8ff" points="85.5,-165.32 89,-175.32 92.5,-165.32 85.5,-165.32"/>
</a>
</g>
</g>
</g>
</svg>
