<?xml version="1.0" encoding="UTF-8" standalone="no"?>
<!DOCTYPE svg PUBLIC "-//W3C//DTD SVG 1.1//EN"
 "http://www.w3.org/Graphics/SVG/1.1/DTD/svg11.dtd">
<!-- Generated by graphviz version 14.1.4 (20260321.0153)
 -->
<!-- Title: ImFusion::Dicom::RealWorldValueMappingExtension Pages: 1 -->
<svg width="166pt" height="149pt"
 viewBox="0.00 0.00 166.00 149.00" xmlns="http://www.w3.org/2000/svg" xmlns:xlink="http://www.w3.org/1999/xlink">
<g id="graph0" class="graph" transform="scale(1 1) rotate(0) translate(4 145)">
<title>ImFusion::Dicom::RealWorldValueMappingExtension</title>
<!-- Node1 -->
<g id="Node000001" class="node">
<title>Node1</title>
<g id="a_Node000001"><a xlink:title="Real World Value Mapping Macro (PS 3.3 C.7.6.16.2.11).">
<polygon fill="#999999" stroke="#666666" points="149.88,-30.5 7.88,-30.5 7.88,0 149.88,0 149.88,-30.5"/>
<text xml:space="preserve" text-anchor="start" x="15.88" y="-17" font-family="Helvetica,sans-Serif" font-size="10.00">ImFusion::Dicom::RealWorld</text>
<text xml:space="preserve" text-anchor="middle" x="78.88" y="-5.75" font-family="Helvetica,sans-Serif" font-size="10.00">ValueMappingExtension</text>
</a>
</g>
</g>
<!-- Node2 -->
<g id="Node000002" class="node">
<title>Node2</title>
<g id="a_Node000002"><a xlink:href="class_im_fusion_1_1_dicom_1_1_extension.html" target="_top" xlink:title="Interface for adding custom functionality to DicomLoader and DicomWriter An Extension might be called...">
<polygon fill="white" stroke="#666666" points="149.12,-85.75 8.62,-85.75 8.62,-66.5 149.12,-66.5 149.12,-85.75"/>
<text xml:space="preserve" text-anchor="middle" x="78.88" y="-72.25" font-family="Helvetica,sans-Serif" font-size="10.00">ImFusion::Dicom::Extension</text>
</a>
</g>
</g>
<!-- Node2&#45;&gt;Node1 -->
<g id="edge1_Node000001_Node000002" class="edge">
<title>Node2&#45;&gt;Node1</title>
<g id="a_edge1_Node000001_Node000002"><a xlink:title=" ">
<path fill="none" stroke="#63b8ff" d="M78.88,-54.92C78.88,-46.99 78.88,-38.06 78.88,-30.78"/>
<polygon fill="#63b8ff" stroke="#63b8ff" points="75.38,-54.67 78.88,-64.67 82.38,-54.67 75.38,-54.67"/>
</a>
</g>
</g>
<!-- Node3 -->
<g id="Node000003" class="node">
<title>Node3</title>
<g id="a_Node000003"><a xlink:href="class_im_fusion_1_1_dicom_1_1_error_recorder.html" target="_top" xlink:title="Error handling interface for the Dicom module.">
<polygon fill="white" stroke="#666666" points="157.75,-141 0,-141 0,-121.75 157.75,-121.75 157.75,-141"/>
<text xml:space="preserve" text-anchor="middle" x="78.88" y="-127.5" font-family="Helvetica,sans-Serif" font-size="10.00">ImFusion::Dicom::ErrorRecorder</text>
</a>
</g>
</g>
<!-- Node3&#45;&gt;Node2 -->
<g id="edge2_Node000002_Node000003" class="edge">
<title>Node3&#45;&gt;Node2</title>
<g id="a_edge2_Node000002_Node000003"><a xlink:title=" ">
<path fill="none" stroke="#63b8ff" d="M78.88,-110.13C78.88,-101.84 78.88,-92.67 78.88,-86.11"/>
<polygon fill="#63b8ff" stroke="#63b8ff" points="75.38,-110.07 78.88,-120.07 82.38,-110.07 75.38,-110.07"/>
</a>
</g>
</g>
</g>
</svg>
