<?xml version="1.0" encoding="UTF-8" standalone="no"?>
<!DOCTYPE svg PUBLIC "-//W3C//DTD SVG 1.1//EN"
 "http://www.w3.org/Graphics/SVG/1.1/DTD/svg11.dtd">
<!-- Generated by graphviz version 14.1.4 (20260321.0153)
 -->
<!-- Title: ImFusion::AnnotationOnlyView Pages: 1 -->
<svg width="208pt" height="83pt"
 viewBox="0.00 0.00 208.00 83.00" xmlns="http://www.w3.org/2000/svg" xmlns:xlink="http://www.w3.org/1999/xlink">
<g id="graph0" class="graph" transform="scale(1 1) rotate(0) translate(4 78.5)">
<title>ImFusion::AnnotationOnlyView</title>
<!-- Node1 -->
<g id="Node000001" class="node">
<title>Node1</title>
<g id="a_Node000001"><a xlink:title=" ">
<polygon fill="#999999" stroke="#666666" points="156.62,-19.25 5.62,-19.25 5.62,0 156.62,0 156.62,-19.25"/>
<text xml:space="preserve" text-anchor="middle" x="81.12" y="-5.75" font-family="Helvetica,sans-Serif" font-size="10.00">ImFusion::AnnotationOnlyView</text>
</a>
</g>
</g>
<!-- Node2 -->
<g id="Node000002" class="node">
<title>Node2</title>
<g id="a_Node000002"><a xlink:title=" ">
<polygon fill="white" stroke="#bfbfbf" points="54.25,-74.5 0,-74.5 0,-55.25 54.25,-55.25 54.25,-74.5"/>
<text xml:space="preserve" text-anchor="middle" x="27.12" y="-61" font-family="Helvetica,sans-Serif" font-size="10.00">QWidget</text>
</a>
</g>
</g>
<!-- Node2&#45;&gt;Node1 -->
<g id="edge1_Node000001_Node000002" class="edge">
<title>Node2&#45;&gt;Node1</title>
<g id="a_edge1_Node000001_Node000002"><a xlink:title=" ">
<path fill="none" stroke="#63b8ff" d="M44.16,-47.07C53.39,-37.98 64.42,-27.1 72.01,-19.61"/>
<polygon fill="#63b8ff" stroke="#63b8ff" points="41.78,-44.51 37.12,-54.02 46.7,-49.49 41.78,-44.51"/>
</a>
</g>
</g>
<!-- Node3 -->
<g id="Node000003" class="node">
<title>Node3</title>
<g id="a_Node000003"><a xlink:href="class_im_fusion_1_1_signal_receiver.html" target="_top" xlink:title="Base class for classes that can contain slots (i.e.">
<polygon fill="white" stroke="#666666" points="200.38,-74.5 71.88,-74.5 71.88,-55.25 200.38,-55.25 200.38,-74.5"/>
<text xml:space="preserve" text-anchor="middle" x="136.12" y="-61" font-family="Helvetica,sans-Serif" font-size="10.00">ImFusion::SignalReceiver</text>
</a>
</g>
</g>
<!-- Node3&#45;&gt;Node1 -->
<g id="edge2_Node000001_Node000003" class="edge">
<title>Node3&#45;&gt;Node1</title>
<g id="a_edge2_Node000001_Node000003"><a xlink:title=" ">
<path fill="none" stroke="#63b8ff" d="M118.77,-47.07C109.38,-37.98 98.14,-27.1 90.4,-19.61"/>
<polygon fill="#63b8ff" stroke="#63b8ff" points="116.34,-49.59 125.96,-54.03 121.21,-44.56 116.34,-49.59"/>
</a>
</g>
</g>
</g>
</svg>
