<?xml version="1.0" encoding="UTF-8" standalone="no"?>
<!DOCTYPE svg PUBLIC "-//W3C//DTD SVG 1.1//EN"
 "http://www.w3.org/Graphics/SVG/1.1/DTD/svg11.dtd">
<!-- Generated by graphviz version 14.1.4 (20260321.0153)
 -->
<!-- Title: ImFusion::MainWindowBase Pages: 1 -->
<svg width="405pt" height="138pt"
 viewBox="0.00 0.00 405.00 138.00" xmlns="http://www.w3.org/2000/svg" xmlns:xlink="http://www.w3.org/1999/xlink">
<g id="graph0" class="graph" transform="scale(1 1) rotate(0) translate(4 133.75)">
<title>ImFusion::MainWindowBase</title>
<!-- Node1 -->
<g id="Node000001" class="node">
<title>Node1</title>
<g id="a_Node000001"><a xlink:title="Extends ApplicationController with additional interfaces for graphical user interfaces.">
<polygon fill="#999999" stroke="#666666" points="244.5,-19.25 103.25,-19.25 103.25,0 244.5,0 244.5,-19.25"/>
<text xml:space="preserve" text-anchor="middle" x="173.88" y="-5.75" font-family="Helvetica,sans-Serif" font-size="10.00">ImFusion::MainWindowBase</text>
</a>
</g>
</g>
<!-- Node2 -->
<g id="Node000002" class="node">
<title>Node2</title>
<g id="a_Node000002"><a xlink:title=" ">
<polygon fill="white" stroke="#bfbfbf" points="79.75,-74.5 0,-74.5 0,-55.25 79.75,-55.25 79.75,-74.5"/>
<text xml:space="preserve" text-anchor="middle" x="39.88" y="-61" font-family="Helvetica,sans-Serif" font-size="10.00">QMainWindow</text>
</a>
</g>
</g>
<!-- Node2&#45;&gt;Node1 -->
<g id="edge1_Node000001_Node000002" class="edge">
<title>Node2&#45;&gt;Node1</title>
<g id="a_edge1_Node000001_Node000002"><a xlink:title=" ">
<path fill="none" stroke="#63b8ff" d="M73.12,-50.66C97.38,-41.02 129.63,-28.21 151.03,-19.7"/>
<polygon fill="#63b8ff" stroke="#63b8ff" points="72.01,-47.34 64.01,-54.28 74.6,-53.84 72.01,-47.34"/>
</a>
</g>
</g>
<!-- Node3 -->
<g id="Node000003" class="node">
<title>Node3</title>
<g id="a_Node000003"><a xlink:href="class_im_fusion_1_1_application_controller.html" target="_top" xlink:title="The basic ApplicationController provides essential interfaces of the SDK but no graphical user interf...">
<polygon fill="white" stroke="#666666" points="250.12,-74.5 97.62,-74.5 97.62,-55.25 250.12,-55.25 250.12,-74.5"/>
<text xml:space="preserve" text-anchor="middle" x="173.88" y="-61" font-family="Helvetica,sans-Serif" font-size="10.00">ImFusion::ApplicationController</text>
</a>
</g>
</g>
<!-- Node3&#45;&gt;Node1 -->
<g id="edge2_Node000001_Node000003" class="edge">
<title>Node3&#45;&gt;Node1</title>
<g id="a_edge2_Node000001_Node000003"><a xlink:title=" ">
<path fill="none" stroke="#63b8ff" d="M173.88,-43.63C173.88,-35.34 173.88,-26.17 173.88,-19.61"/>
<polygon fill="#63b8ff" stroke="#63b8ff" points="170.38,-43.57 173.88,-53.57 177.38,-43.57 170.38,-43.57"/>
</a>
</g>
</g>
<!-- Node4 -->
<g id="Node000004" class="node">
<title>Node4</title>
<g id="a_Node000004"><a xlink:href="class_im_fusion_1_1_utils_1_1_not_copyable.html" target="_top" xlink:title="Inherit from this class if your class should be neither copy&#45;constructible nor assignable.">
<polygon fill="white" stroke="#666666" points="246.75,-129.75 101,-129.75 101,-110.5 246.75,-110.5 246.75,-129.75"/>
<text xml:space="preserve" text-anchor="middle" x="173.88" y="-116.25" font-family="Helvetica,sans-Serif" font-size="10.00">ImFusion::Utils::NotCopyable</text>
</a>
</g>
</g>
<!-- Node4&#45;&gt;Node3 -->
<g id="edge3_Node000003_Node000004" class="edge">
<title>Node4&#45;&gt;Node3</title>
<g id="a_edge3_Node000003_Node000004"><a xlink:title=" ">
<path fill="none" stroke="#8b1a1a" d="M173.88,-98.88C173.88,-90.59 173.88,-81.42 173.88,-74.86"/>
<polygon fill="#8b1a1a" stroke="#8b1a1a" points="170.38,-98.82 173.88,-108.82 177.38,-98.82 170.38,-98.82"/>
</a>
</g>
</g>
<!-- Node5 -->
<g id="Node000005" class="node">
<title>Node5</title>
<g id="a_Node000005"><a xlink:href="class_im_fusion_1_1_signal_receiver.html" target="_top" xlink:title="Base class for classes that can contain slots (i.e.">
<polygon fill="white" stroke="#666666" points="397.12,-74.5 268.62,-74.5 268.62,-55.25 397.12,-55.25 397.12,-74.5"/>
<text xml:space="preserve" text-anchor="middle" x="332.88" y="-61" font-family="Helvetica,sans-Serif" font-size="10.00">ImFusion::SignalReceiver</text>
</a>
</g>
</g>
<!-- Node5&#45;&gt;Node1 -->
<g id="edge4_Node000001_Node000005" class="edge">
<title>Node5&#45;&gt;Node1</title>
<g id="a_edge4_Node000001_Node000005"><a xlink:title=" ">
<path fill="none" stroke="#63b8ff" d="M295.36,-51.31C266.37,-41.6 226.95,-28.4 200.98,-19.7"/>
<polygon fill="#63b8ff" stroke="#63b8ff" points="293.87,-54.5 304.47,-54.36 296.1,-47.87 293.87,-54.5"/>
</a>
</g>
</g>
</g>
</svg>
