<?xml version="1.0" encoding="UTF-8" standalone="no"?>
<!DOCTYPE svg PUBLIC "-//W3C//DTD SVG 1.1//EN"
 "http://www.w3.org/Graphics/SVG/1.1/DTD/svg11.dtd">
<!-- Generated by graphviz version 14.1.4 (20260321.0153)
 -->
<!-- Title: ImFusion::GL::AbstractInclude Pages: 1 -->
<!--zoomable 419 -->

<svg id="main" version="1.1" xmlns="http://www.w3.org/2000/svg" xmlns:xlink="http://www.w3.org/1999/xlink" xml:space="preserve" onload="init(evt)">

<style type="text/css"><![CDATA[
.node, .edge {opacity: 0.7;}
.node.selected, .edge.selected {opacity: 1;}
.edge:hover path { stroke: red; }
.edge:hover polygon { stroke: red; fill: red; }
]]></style>

<defs>
  <circle id="rim" cx="0" cy="0" r="7"/>
  <circle id="rim2" cx="0" cy="0" r="3.5"/>
  <g id="zoomPlus">
    <use xlink:href="#rim" fill="#404040"><set attributeName="fill" to="#808080" begin="zoomplus.mouseover" end="zoomplus.mouseout"/></use>
    <path d="M-4,0h8M0,-4v8" fill="none" stroke="white" stroke-width="1.5" pointer-events="none"/>
  </g>
  <g id="zoomMin">
    <use xlink:href="#rim" fill="#404040"><set attributeName="fill" to="#808080" begin="zoomminus.mouseover" end="zoomminus.mouseout"/></use>
    <path d="M-4,0h8" fill="none" stroke="white" stroke-width="1.5" pointer-events="none"/>
  </g>
  <g id="arrowUp" transform="translate(30 24)">
    <use xlink:href="#rim"/>
    <path pointer-events="none" fill="none" stroke="white" stroke-width="1.5" d="M0,-3.0v7 M-2.5,-0.5L0,-3.0L2.5,-0.5"/>
  </g>
  <g id="arrowRight" transform="rotate(90) translate(36 -43)">
    <use xlink:href="#rim"/>
    <path pointer-events="none" fill="none" stroke="white" stroke-width="1.5" d="M0,-3.0v7 M-2.5,-0.5L0,-3.0L2.5,-0.5"/>
  </g>
  <g id="arrowDown" transform="rotate(180) translate(-30 -48)">
    <use xlink:href="#rim"/>
    <path pointer-events="none" fill="none" stroke="white" stroke-width="1.5" d="M0,-3.0v7 M-2.5,-0.5L0,-3.0L2.5,-0.5"/>
  </g>
  <g id="arrowLeft" transform="rotate(270) translate(-36 17)">
    <use xlink:href="#rim"/>
    <path pointer-events="none" fill="none" stroke="white" stroke-width="1.5" d="M0,-3.0v7 M-2.5,-0.5L0,-3.0L2.5,-0.5"/>
  </g>
  <g id="resetDef">
    <use xlink:href="#rim2" fill="#404040"><set attributeName="fill" to="#808080" begin="reset.mouseover" end="reset.mouseout"/></use>
  </g>
</defs>
<script type="application/ecmascript">
var viewWidth = 917;
var viewHeight = 419;
var sectionId = 'dynsection-0';
</script>
<script type="application/ecmascript" xlink:href="svg.min.js"/>
<svg id="graph" class="graph">
<g id="viewport">
<title>ImFusion::GL::AbstractInclude</title>
<!-- Node1 -->
<g id="Node000001" class="node">
<title>Node1</title>
<g id="a_Node000001"><a xlink:title="Base class for abstract GLSL includes.">
<polygon fill="#999999" stroke="#666666" points="331.25,-246.25 181.75,-246.25 181.75,-227 331.25,-227 331.25,-246.25"/>
<text xml:space="preserve" text-anchor="middle" x="256.5" y="-232.75" font-family="Helvetica,sans-Serif" font-size="10.00">ImFusion::GL::AbstractInclude</text>
</a>
</g>
</g>
<!-- Node3 -->
<g id="Node000003" class="node">
<title>Node3</title>
<g id="a_Node000003"><a xlink:href="class_im_fusion_1_1_deformation.html" target="_top" xlink:title="Base class for different kinds of non&#45;linear image transformations.">
<polygon fill="white" stroke="#666666" points="494.62,-346.25 378.88,-346.25 378.88,-327 494.62,-327 494.62,-346.25"/>
<text xml:space="preserve" text-anchor="middle" x="436.75" y="-332.75" font-family="Helvetica,sans-Serif" font-size="10.00">ImFusion::Deformation</text>
</a>
</g>
</g>
<!-- Node1&#45;&gt;Node3 -->
<g id="edge2_Node000001_Node000003" class="edge">
<title>Node1&#45;&gt;Node3</title>
<g id="a_edge2_Node000001_Node000003"><a xlink:title=" ">
<path fill="none" stroke="#63b8ff" d="M284.87,-251.98C321.79,-272.69 386.53,-309.01 417.81,-326.56"/>
<polygon fill="#63b8ff" stroke="#63b8ff" points="287,-249.16 276.56,-247.32 283.57,-255.26 287,-249.16"/>
</a>
</g>
</g>
<!-- Node10 -->
<g id="Node000010" class="node">
<title>Node10</title>
<g id="a_Node000010"><a xlink:href="class_im_fusion_1_1_g_l_1_1_multi_abstract_include_base.html" target="_top" xlink:title="Non&#45;templated base class of MultiIncludable to implement polymorphic interface.">
<polygon fill="white" stroke="#666666" points="506.25,-251.88 367.25,-251.88 367.25,-221.38 506.25,-221.38 506.25,-251.88"/>
<text xml:space="preserve" text-anchor="start" x="375.25" y="-238.38" font-family="Helvetica,sans-Serif" font-size="10.00">ImFusion::GL::MultiAbstract</text>
<text xml:space="preserve" text-anchor="middle" x="436.75" y="-227.12" font-family="Helvetica,sans-Serif" font-size="10.00">IncludeBase</text>
</a>
</g>
</g>
<!-- Node1&#45;&gt;Node10 -->
<g id="edge9_Node000001_Node000010" class="edge">
<title>Node1&#45;&gt;Node10</title>
<g id="a_edge9_Node000001_Node000010"><a xlink:title=" ">
<path fill="none" stroke="#63b8ff" d="M342.84,-236.62C350.87,-236.62 358.94,-236.62 366.79,-236.62"/>
<polygon fill="#63b8ff" stroke="#63b8ff" points="343.06,-233.13 333.06,-236.63 343.06,-240.13 343.06,-233.13"/>
</a>
</g>
</g>
<!-- Node13 -->
<g id="Node000013" class="node">
<title>Node13</title>
<g id="a_Node000013"><a xlink:href="class_im_fusion_1_1_gl_mask.html" target="_top" xlink:title="Base interface for implementing polymorphic image masks using OpenGL.">
<polygon fill="white" stroke="#666666" points="484.88,-112.25 388.62,-112.25 388.62,-93 484.88,-93 484.88,-112.25"/>
<text xml:space="preserve" text-anchor="middle" x="436.75" y="-98.75" font-family="Helvetica,sans-Serif" font-size="10.00">ImFusion::GlMask</text>
</a>
</g>
</g>
<!-- Node1&#45;&gt;Node13 -->
<g id="edge12_Node000001_Node000013" class="edge">
<title>Node1&#45;&gt;Node13</title>
<g id="a_edge12_Node000001_Node000013"><a xlink:title=" ">
<path fill="none" stroke="#63b8ff" d="M280.07,-219.66C317.8,-191.29 392.53,-135.12 422.68,-112.45"/>
<polygon fill="#63b8ff" stroke="#63b8ff" points="278,-216.84 272.11,-225.64 282.2,-222.43 278,-216.84"/>
</a>
</g>
</g>
<!-- Node2 -->
<g id="Node000002" class="node">
<title>Node2</title>
<g id="a_Node000002"><a xlink:href="class_im_fusion_1_1_utils_1_1_not_copyable.html" target="_top" xlink:title="Inherit from this class if your class should be neither copy&#45;constructible nor assignable.">
<polygon fill="white" stroke="#666666" points="145.75,-246.25 0,-246.25 0,-227 145.75,-227 145.75,-246.25"/>
<text xml:space="preserve" text-anchor="middle" x="72.88" y="-232.75" font-family="Helvetica,sans-Serif" font-size="10.00">ImFusion::Utils::NotCopyable</text>
</a>
</g>
</g>
<!-- Node2&#45;&gt;Node1 -->
<g id="edge1_Node000001_Node000002" class="edge">
<title>Node2&#45;&gt;Node1</title>
<g id="a_edge1_Node000001_Node000002"><a xlink:title=" ">
<path fill="none" stroke="#8b1a1a" d="M157.68,-236.62C165.58,-236.62 173.56,-236.62 181.36,-236.62"/>
<polygon fill="#8b1a1a" stroke="#8b1a1a" points="157.69,-233.13 147.69,-236.63 157.69,-240.13 157.69,-233.13"/>
</a>
</g>
</g>
<!-- Node4 -->
<g id="Node000004" class="node">
<title>Node4</title>
<g id="a_Node000004"><a xlink:href="class_im_fusion_1_1_gl_dense_deformation.html" target="_top" xlink:title="The GlDenseDeformation class represents dense deformations based on a displacement map.">
<polygon fill="white" stroke="#666666" points="700.75,-411.25 546.75,-411.25 546.75,-392 700.75,-392 700.75,-411.25"/>
<text xml:space="preserve" text-anchor="middle" x="623.75" y="-397.75" font-family="Helvetica,sans-Serif" font-size="10.00">ImFusion::GlDenseDeformation</text>
</a>
</g>
</g>
<!-- Node3&#45;&gt;Node4 -->
<g id="edge3_Node000003_Node000004" class="edge">
<title>Node3&#45;&gt;Node4</title>
<g id="a_edge3_Node000003_Node000004"><a xlink:title=" ">
<path fill="none" stroke="#63b8ff" d="M468.04,-351.73C488.6,-361.53 516.6,-374.03 542.25,-382.62 552.33,-386 563.3,-389.01 573.82,-391.59"/>
<polygon fill="#63b8ff" stroke="#63b8ff" points="469.63,-348.6 459.1,-347.4 466.58,-354.9 469.63,-348.6"/>
</a>
</g>
</g>
<!-- Node5 -->
<g id="Node000005" class="node">
<title>Node5</title>
<g id="a_Node000005"><a xlink:href="class_im_fusion_1_1_gl_flatten_tracking_deformation.html" target="_top" xlink:title="Deformation model based on flattening a tracking sequence.">
<polygon fill="white" stroke="#666666" points="693.62,-373.88 553.88,-373.88 553.88,-343.38 693.62,-343.38 693.62,-373.88"/>
<text xml:space="preserve" text-anchor="start" x="561.88" y="-360.38" font-family="Helvetica,sans-Serif" font-size="10.00">ImFusion::GlFlattenTracking</text>
<text xml:space="preserve" text-anchor="middle" x="623.75" y="-349.12" font-family="Helvetica,sans-Serif" font-size="10.00">Deformation</text>
</a>
</g>
</g>
<!-- Node3&#45;&gt;Node5 -->
<g id="edge4_Node000003_Node000005" class="edge">
<title>Node3&#45;&gt;Node5</title>
<g id="a_edge4_Node000003_Node000005"><a xlink:title=" ">
<path fill="none" stroke="#63b8ff" d="M506.06,-344.75C521.5,-346.58 537.91,-348.54 553.39,-350.38"/>
<polygon fill="#63b8ff" stroke="#63b8ff" points="506.86,-341.32 496.52,-343.61 506.04,-348.27 506.86,-341.32"/>
</a>
</g>
</g>
<!-- Node6 -->
<g id="Node000006" class="node">
<title>Node6</title>
<g id="a_Node000006"><a xlink:href="class_im_fusion_1_1_parametric_deformation.html" target="_top" xlink:title="Base interface for a parametric deformation in 2D or 3D.">
<polygon fill="white" stroke="#666666" points="705.25,-325.25 542.25,-325.25 542.25,-306 705.25,-306 705.25,-325.25"/>
<text xml:space="preserve" text-anchor="middle" x="623.75" y="-311.75" font-family="Helvetica,sans-Serif" font-size="10.00">ImFusion::ParametricDeformation</text>
</a>
</g>
</g>
<!-- Node3&#45;&gt;Node6 -->
<g id="edge5_Node000003_Node000006" class="edge">
<title>Node3&#45;&gt;Node6</title>
<g id="a_edge5_Node000003_Node000006"><a xlink:title=" ">
<path fill="none" stroke="#63b8ff" d="M506.4,-328.83C517.99,-327.52 530.11,-326.14 541.97,-324.79"/>
<polygon fill="#63b8ff" stroke="#63b8ff" points="506.06,-325.35 496.52,-329.95 506.85,-332.3 506.06,-325.35"/>
</a>
</g>
</g>
<!-- Node7 -->
<g id="Node000007" class="node">
<title>Node7</title>
<g id="a_Node000007"><a xlink:href="class_im_fusion_1_1_free_form_deformation.html" target="_top" xlink:title="The FreeFormDeformation provides deformations using a free&#45;form deformation (FFD) based on B&#45;splines.">
<polygon fill="white" stroke="#666666" points="903.88,-362.25 746.12,-362.25 746.12,-343 903.88,-343 903.88,-362.25"/>
<text xml:space="preserve" text-anchor="middle" x="825" y="-348.75" font-family="Helvetica,sans-Serif" font-size="10.00">ImFusion::FreeFormDeformation</text>
</a>
</g>
</g>
<!-- Node6&#45;&gt;Node7 -->
<g id="edge6_Node000006_Node000007" class="edge">
<title>Node6&#45;&gt;Node7</title>
<g id="a_edge6_Node000006_Node000007"><a xlink:title=" ">
<path fill="none" stroke="#63b8ff" d="M690.35,-327.81C716.03,-332.57 745.14,-337.98 769.62,-342.53"/>
<polygon fill="#63b8ff" stroke="#63b8ff" points="691.15,-324.4 680.68,-326.01 689.88,-331.28 691.15,-324.4"/>
</a>
</g>
</g>
<!-- Node8 -->
<g id="Node000008" class="node">
<title>Node8</title>
<g id="a_Node000008"><a xlink:href="class_im_fusion_1_1_gl_poly_rigid_deformation.html" target="_top" xlink:title="Poly&#45;rigid deformation class.">
<polygon fill="white" stroke="#666666" points="908.75,-325.25 741.25,-325.25 741.25,-306 908.75,-306 908.75,-325.25"/>
<text xml:space="preserve" text-anchor="middle" x="825" y="-311.75" font-family="Helvetica,sans-Serif" font-size="10.00">ImFusion::GlPolyRigidDeformation</text>
</a>
</g>
</g>
<!-- Node6&#45;&gt;Node8 -->
<g id="edge7_Node000006_Node000008" class="edge">
<title>Node6&#45;&gt;Node8</title>
<g id="a_edge7_Node000006_Node000008"><a xlink:title=" ">
<path fill="none" stroke="#63b8ff" d="M716.79,-315.62C724.82,-315.62 732.91,-315.62 740.86,-315.62"/>
<polygon fill="#63b8ff" stroke="#63b8ff" points="717.02,-312.13 707.02,-315.63 717.02,-319.13 717.02,-312.13"/>
</a>
</g>
</g>
<!-- Node9 -->
<g id="Node000009" class="node">
<title>Node9</title>
<g id="a_Node000009"><a xlink:href="class_im_fusion_1_1_gl_t_p_s_deformation.html" target="_top" xlink:title="The GlTPSDeformation class provides deformations using a thin&#45;plate splines (TPS).">
<polygon fill="white" stroke="#666666" points="897.5,-288.25 752.5,-288.25 752.5,-269 897.5,-269 897.5,-288.25"/>
<text xml:space="preserve" text-anchor="middle" x="825" y="-274.75" font-family="Helvetica,sans-Serif" font-size="10.00">ImFusion::GlTPSDeformation</text>
</a>
</g>
</g>
<!-- Node6&#45;&gt;Node9 -->
<g id="edge8_Node000006_Node000009" class="edge">
<title>Node6&#45;&gt;Node9</title>
<g id="a_edge8_Node000006_Node000009"><a xlink:title=" ">
<path fill="none" stroke="#63b8ff" d="M690.35,-303.44C716.03,-298.68 745.14,-293.27 769.62,-288.72"/>
<polygon fill="#63b8ff" stroke="#63b8ff" points="689.88,-299.97 680.68,-305.24 691.15,-306.85 689.88,-299.97"/>
</a>
</g>
</g>
<!-- Node11 -->
<g id="Node000011" class="node">
<title>Node11</title>
<g id="a_Node000011"><a xlink:href="class_im_fusion_1_1_g_l_1_1_multi_abstract_include.html" target="_top" xlink:title=" ">
<polygon fill="white" stroke="#666666" points="694.75,-287.5 552.75,-287.5 552.75,-245.75 694.75,-245.75 694.75,-287.5"/>
<text xml:space="preserve" text-anchor="start" x="560.75" y="-274" font-family="Helvetica,sans-Serif" font-size="10.00">ImFusion::GL::MultiAbstract</text>
<text xml:space="preserve" text-anchor="start" x="560.75" y="-262.75" font-family="Helvetica,sans-Serif" font-size="10.00">Include&lt; BaseIncludeType,</text>
<text xml:space="preserve" text-anchor="middle" x="623.75" y="-251.5" font-family="Helvetica,sans-Serif" font-size="10.00"> IncludeArgumentsTypes... &gt;</text>
</a>
</g>
</g>
<!-- Node10&#45;&gt;Node11 -->
<g id="edge10_Node000010_Node000011" class="edge">
<title>Node10&#45;&gt;Node11</title>
<g id="a_edge10_Node000010_Node000011"><a xlink:title=" ">
<path fill="none" stroke="#63b8ff" d="M517.95,-249.63C529.37,-251.48 541.04,-253.38 552.26,-255.19"/>
<polygon fill="#63b8ff" stroke="#63b8ff" points="518.56,-246.18 508.13,-248.04 517.44,-253.09 518.56,-246.18"/>
</a>
</g>
</g>
<!-- Node12 -->
<g id="Node000012" class="node">
<title>Node12</title>
<g id="a_Node000012"><a xlink:href="class_im_fusion_1_1_g_l_1_1_multi_abstract_include.html" target="_top" xlink:title="Concrete type for an instance of a Multi&#45;AbstractInclude.">
<polygon fill="white" stroke="#666666" points="693.25,-227.5 554.25,-227.5 554.25,-185.75 693.25,-185.75 693.25,-227.5"/>
<text xml:space="preserve" text-anchor="start" x="562.25" y="-214" font-family="Helvetica,sans-Serif" font-size="10.00">ImFusion::GL::MultiAbstract</text>
<text xml:space="preserve" text-anchor="start" x="562.25" y="-202.75" font-family="Helvetica,sans-Serif" font-size="10.00">Include&lt; BaseIncludeType,</text>
<text xml:space="preserve" text-anchor="middle" x="623.75" y="-191.5" font-family="Helvetica,sans-Serif" font-size="10.00"> IncludeArgumentsTypes &gt;</text>
</a>
</g>
</g>
<!-- Node10&#45;&gt;Node12 -->
<g id="edge11_Node000010_Node000012" class="edge">
<title>Node10&#45;&gt;Node12</title>
<g id="a_edge11_Node000010_Node000012"><a xlink:title=" ">
<path fill="none" stroke="#63b8ff" d="M517.97,-223.62C529.91,-221.68 542.13,-219.7 553.81,-217.81"/>
<polygon fill="#63b8ff" stroke="#63b8ff" points="517.44,-220.16 508.13,-225.21 518.56,-227.07 517.44,-220.16"/>
</a>
</g>
</g>
<!-- Node14 -->
<g id="Node000014" class="node">
<title>Node14</title>
<g id="a_Node000014"><a xlink:href="class_im_fusion_1_1_cropping_mask.html" target="_top" xlink:title="Simple axis&#45;aligned cropping mask with optional roundness.">
<polygon fill="white" stroke="#666666" points="686.5,-167.25 561,-167.25 561,-148 686.5,-148 686.5,-167.25"/>
<text xml:space="preserve" text-anchor="middle" x="623.75" y="-153.75" font-family="Helvetica,sans-Serif" font-size="10.00">ImFusion::CroppingMask</text>
</a>
</g>
</g>
<!-- Node13&#45;&gt;Node14 -->
<g id="edge13_Node000013_Node000014" class="edge">
<title>Node13&#45;&gt;Node14</title>
<g id="a_edge13_Node000013_Node000014"><a xlink:title=" ">
<path fill="none" stroke="#63b8ff" d="M474.01,-116.68C493.96,-124.1 519.26,-133.01 542.25,-139.62 552.16,-142.48 562.86,-145.15 573.13,-147.51"/>
<polygon fill="#63b8ff" stroke="#63b8ff" points="475.25,-113.4 464.65,-113.15 472.78,-119.95 475.25,-113.4"/>
</a>
</g>
</g>
<!-- Node15 -->
<g id="Node000015" class="node">
<title>Node15</title>
<g id="a_Node000015"><a xlink:href="class_im_fusion_1_1_explicit_intensity_mask.html" target="_top" xlink:title="An ExplicitIntensityMask is a combination of an ExplicitMask and an IntensityMask.">
<polygon fill="white" stroke="#666666" points="701.88,-130.25 545.62,-130.25 545.62,-111 701.88,-111 701.88,-130.25"/>
<text xml:space="preserve" text-anchor="middle" x="623.75" y="-116.75" font-family="Helvetica,sans-Serif" font-size="10.00">ImFusion::ExplicitIntensityMask</text>
</a>
</g>
</g>
<!-- Node13&#45;&gt;Node15 -->
<g id="edge14_Node000013_Node000015" class="edge">
<title>Node13&#45;&gt;Node15</title>
<g id="a_edge14_Node000013_Node000015"><a xlink:title=" ">
<path fill="none" stroke="#63b8ff" d="M495.97,-108.29C511.56,-109.81 528.67,-111.47 545.13,-113.07"/>
<polygon fill="#63b8ff" stroke="#63b8ff" points="496.71,-104.85 486.42,-107.36 496.03,-111.81 496.71,-104.85"/>
</a>
</g>
</g>
<!-- Node16 -->
<g id="Node000016" class="node">
<title>Node16</title>
<g id="a_Node000016"><a xlink:href="class_im_fusion_1_1_explicit_mask.html" target="_top" xlink:title="An ExplicitMask holds an individual mask value for every pixel.">
<polygon fill="white" stroke="#666666" points="683.12,-93.25 564.38,-93.25 564.38,-74 683.12,-74 683.12,-93.25"/>
<text xml:space="preserve" text-anchor="middle" x="623.75" y="-79.75" font-family="Helvetica,sans-Serif" font-size="10.00">ImFusion::ExplicitMask</text>
</a>
</g>
</g>
<!-- Node13&#45;&gt;Node16 -->
<g id="edge15_Node000013_Node000016" class="edge">
<title>Node13&#45;&gt;Node16</title>
<g id="a_edge15_Node000013_Node000016"><a xlink:title=" ">
<path fill="none" stroke="#63b8ff" d="M496.27,-96.62C517.91,-94.39 542.43,-91.87 564.08,-89.65"/>
<polygon fill="#63b8ff" stroke="#63b8ff" points="496.01,-93.12 486.42,-97.63 496.72,-100.09 496.01,-93.12"/>
</a>
</g>
</g>
<!-- Node17 -->
<g id="Node000017" class="node">
<title>Node17</title>
<g id="a_Node000017"><a xlink:href="class_im_fusion_1_1_intensity_mask.html" target="_top" xlink:title="Masks pixels with a specific value or values outside a specific range.">
<polygon fill="white" stroke="#666666" points="685.75,-56.25 561.75,-56.25 561.75,-37 685.75,-37 685.75,-56.25"/>
<text xml:space="preserve" text-anchor="middle" x="623.75" y="-42.75" font-family="Helvetica,sans-Serif" font-size="10.00">ImFusion::IntensityMask</text>
</a>
</g>
</g>
<!-- Node13&#45;&gt;Node17 -->
<g id="edge16_Node000013_Node000017" class="edge">
<title>Node13&#45;&gt;Node17</title>
<g id="a_edge16_Node000013_Node000017"><a xlink:title=" ">
<path fill="none" stroke="#63b8ff" d="M472.89,-88.56C492.99,-80.84 518.8,-71.48 542.25,-64.62 552.15,-61.73 562.84,-59.04 573.11,-56.67"/>
<polygon fill="#63b8ff" stroke="#63b8ff" points="471.83,-85.22 463.78,-92.11 474.37,-91.75 471.83,-85.22"/>
</a>
</g>
</g>
<!-- Node18 -->
<g id="Node000018" class="node">
<title>Node18</title>
<g id="a_Node000018"><a xlink:href="class_im_fusion_1_1_skipping_mask.html" target="_top" xlink:title="Basic mask where only every N&#45;th pixel is considered inside.">
<polygon fill="white" stroke="#666666" points="685.75,-19.25 561.75,-19.25 561.75,0 685.75,0 685.75,-19.25"/>
<text xml:space="preserve" text-anchor="middle" x="623.75" y="-5.75" font-family="Helvetica,sans-Serif" font-size="10.00">ImFusion::SkippingMask</text>
</a>
</g>
</g>
<!-- Node13&#45;&gt;Node18 -->
<g id="edge17_Node000013_Node000018" class="edge">
<title>Node13&#45;&gt;Node18</title>
<g id="a_edge17_Node000013_Node000018"><a xlink:title=" ">
<path fill="none" stroke="#63b8ff" d="M456.85,-85.24C476.74,-68.06 509.53,-42.29 542.25,-27.62 549.31,-24.46 556.97,-21.83 564.67,-19.65"/>
<polygon fill="#63b8ff" stroke="#63b8ff" points="454.73,-82.44 449.55,-91.68 459.36,-87.69 454.73,-82.44"/>
</a>
</g>
</g>
</g>
</svg>

<g id="navigator" transform="translate(0 0)" fill="#404254">
  <rect fill="#f2f5e9" fill-opacity="0.5" stroke="#606060" stroke-width=".5" x="0" y="0" width="60" height="60"/>
  <use id="zoomplus" xlink:href="#zoomPlus" x="17" y="9" onmousedown="handleZoom(evt,'in')"/>
  <use id="zoomminus" xlink:href="#zoomMin" x="42" y="9" onmousedown="handleZoom(evt,'out')"/>
  <use id="reset" xlink:href="#resetDef" x="30" y="36" onmousedown="handleReset()"/>
   <use id="arrowup" xlink:href="#arrowUp" x="0" y="0" onmousedown="handlePan(0,-1)"/>
  <use id="arrowright" xlink:href="#arrowRight" x="0" y="0" onmousedown="handlePan(1,0)"/>
  <use id="arrowdown" xlink:href="#arrowDown" x="0" y="0" onmousedown="handlePan(0,1)"/>
  <use id="arrowleft" xlink:href="#arrowLeft" x="0" y="0" onmousedown="handlePan(-1,0)"/>
</g>
<svg viewBox="0 0 15 15" width="100%" height="30px" preserveAspectRatio="xMaxYMin meet">
 <g id="arrow_out" transform="scale(0.3 0.3)">
  <a xlink:href="class_im_fusion_1_1_g_l_1_1_abstract_include__inherit__graph_org.svg" target="_base">
   <rect id="button" ry="5" rx="5" y="6" x="6" height="38" width="38"
        fill="#f2f5e9" fill-opacity="0.5" stroke="#606060" stroke-width="1.0"/>
   <path id="arrow"
     d="M 11.500037,31.436501 C 11.940474,20.09759 22.043105,11.32322 32.158766,21.979434 L 37.068811,17.246167 C 37.068811,17.246167 37.088388,32 37.088388,32 L 22.160133,31.978069 C 22.160133,31.978069 26.997745,27.140456 26.997745,27.140456 C 18.528582,18.264221 13.291696,25.230495 11.500037,31.436501 z"
     style="fill:#404040;"/>
  </a>
 </g>
</svg>

<style type='text/css'>
<![CDATA[
[data-mouse-over-selected='false'] { opacity: 0.7; }
[data-mouse-over-selected='true']  { opacity: 1.0; }
]]>
</style>
<script type="application/ecmascript"><![CDATA[
document.addEventListener('DOMContentLoaded', (event) => {
  highlightEdges();
  highlightAdjacentNodes();
});
]]></script>
</svg>
