<?xml version="1.0" encoding="UTF-8" standalone="no"?>
<!DOCTYPE svg PUBLIC "-//W3C//DTD SVG 1.1//EN"
 "http://www.w3.org/Graphics/SVG/1.1/DTD/svg11.dtd">
<!-- Generated by graphviz version 14.1.4 (20260321.0153)
 -->
<!-- Title: ImFusion::Parameter&lt; T &gt; Pages: 1 -->
<svg width="203pt" height="138pt"
 viewBox="0.00 0.00 203.00 138.00" xmlns="http://www.w3.org/2000/svg" xmlns:xlink="http://www.w3.org/1999/xlink">
<g id="graph0" class="graph" transform="scale(1 1) rotate(0) translate(4 133.75)">
<title>ImFusion::Parameter&lt; T &gt;</title>
<!-- Node1 -->
<g id="Node000001" class="node">
<title>Node1</title>
<g id="a_Node000001"><a xlink:title="The Parameter class represents a single parameter of a Configurable entity.">
<polygon fill="#999999" stroke="#666666" points="163,-74.5 31.5,-74.5 31.5,-55.25 163,-55.25 163,-74.5"/>
<text xml:space="preserve" text-anchor="middle" x="97.25" y="-61" font-family="Helvetica,sans-Serif" font-size="10.00">ImFusion::Parameter&lt; T &gt;</text>
</a>
</g>
</g>
<!-- Node3 -->
<g id="Node000003" class="node">
<title>Node3</title>
<g id="a_Node000003"><a xlink:href="class_im_fusion_1_1_dicom_1_1_dicom_parameter.html" target="_top" xlink:title="A specialized Parameter&lt;T&gt; class that can additionally serialize from and to DICOM.">
<polygon fill="white" stroke="#666666" points="194.5,-19.25 0,-19.25 0,0 194.5,0 194.5,-19.25"/>
<text xml:space="preserve" text-anchor="middle" x="97.25" y="-5.75" font-family="Helvetica,sans-Serif" font-size="10.00">ImFusion::Dicom::DicomParameter&lt; T &gt;</text>
</a>
</g>
</g>
<!-- Node1&#45;&gt;Node3 -->
<g id="edge2_Node000001_Node000003" class="edge">
<title>Node1&#45;&gt;Node3</title>
<g id="a_edge2_Node000001_Node000003"><a xlink:title=" ">
<path fill="none" stroke="#63b8ff" d="M97.25,-43.63C97.25,-35.34 97.25,-26.17 97.25,-19.61"/>
<polygon fill="#63b8ff" stroke="#63b8ff" points="93.75,-43.57 97.25,-53.57 100.75,-43.57 93.75,-43.57"/>
</a>
</g>
</g>
<!-- Node2 -->
<g id="Node000002" class="node">
<title>Node2</title>
<g id="a_Node000002"><a xlink:href="class_im_fusion_1_1_parameter_base.html" target="_top" xlink:title="Shared base interface of Parameter and SubProperty so that Configurable can maintain a collection of ...">
<polygon fill="white" stroke="#666666" points="162.25,-129.75 32.25,-129.75 32.25,-110.5 162.25,-110.5 162.25,-129.75"/>
<text xml:space="preserve" text-anchor="middle" x="97.25" y="-116.25" font-family="Helvetica,sans-Serif" font-size="10.00">ImFusion::ParameterBase</text>
</a>
</g>
</g>
<!-- Node2&#45;&gt;Node1 -->
<g id="edge1_Node000001_Node000002" class="edge">
<title>Node2&#45;&gt;Node1</title>
<g id="a_edge1_Node000001_Node000002"><a xlink:title=" ">
<path fill="none" stroke="#63b8ff" d="M97.25,-98.88C97.25,-90.59 97.25,-81.42 97.25,-74.86"/>
<polygon fill="#63b8ff" stroke="#63b8ff" points="93.75,-98.82 97.25,-108.82 100.75,-98.82 93.75,-98.82"/>
</a>
</g>
</g>
</g>
</svg>
