<?xml version="1.0" encoding="UTF-8" standalone="no"?>
<!DOCTYPE svg PUBLIC "-//W3C//DTD SVG 1.1//EN"
 "http://www.w3.org/Graphics/SVG/1.1/DTD/svg11.dtd">
<!-- Generated by graphviz version 14.1.4 (20260321.0153)
 -->
<!-- Title: ImFusion::GUI::View Pages: 1 -->
<!--zoomable 175 -->

<svg id="main" version="1.1" xmlns="http://www.w3.org/2000/svg" xmlns:xlink="http://www.w3.org/1999/xlink" xml:space="preserve" onload="init(evt)">

<style type="text/css"><![CDATA[
.node, .edge {opacity: 0.7;}
.node.selected, .edge.selected {opacity: 1;}
.edge:hover path { stroke: red; }
.edge:hover polygon { stroke: red; fill: red; }
]]></style>

<defs>
  <circle id="rim" cx="0" cy="0" r="7"/>
  <circle id="rim2" cx="0" cy="0" r="3.5"/>
  <g id="zoomPlus">
    <use xlink:href="#rim" fill="#404040"><set attributeName="fill" to="#808080" begin="zoomplus.mouseover" end="zoomplus.mouseout"/></use>
    <path d="M-4,0h8M0,-4v8" fill="none" stroke="white" stroke-width="1.5" pointer-events="none"/>
  </g>
  <g id="zoomMin">
    <use xlink:href="#rim" fill="#404040"><set attributeName="fill" to="#808080" begin="zoomminus.mouseover" end="zoomminus.mouseout"/></use>
    <path d="M-4,0h8" fill="none" stroke="white" stroke-width="1.5" pointer-events="none"/>
  </g>
  <g id="arrowUp" transform="translate(30 24)">
    <use xlink:href="#rim"/>
    <path pointer-events="none" fill="none" stroke="white" stroke-width="1.5" d="M0,-3.0v7 M-2.5,-0.5L0,-3.0L2.5,-0.5"/>
  </g>
  <g id="arrowRight" transform="rotate(90) translate(36 -43)">
    <use xlink:href="#rim"/>
    <path pointer-events="none" fill="none" stroke="white" stroke-width="1.5" d="M0,-3.0v7 M-2.5,-0.5L0,-3.0L2.5,-0.5"/>
  </g>
  <g id="arrowDown" transform="rotate(180) translate(-30 -48)">
    <use xlink:href="#rim"/>
    <path pointer-events="none" fill="none" stroke="white" stroke-width="1.5" d="M0,-3.0v7 M-2.5,-0.5L0,-3.0L2.5,-0.5"/>
  </g>
  <g id="arrowLeft" transform="rotate(270) translate(-36 17)">
    <use xlink:href="#rim"/>
    <path pointer-events="none" fill="none" stroke="white" stroke-width="1.5" d="M0,-3.0v7 M-2.5,-0.5L0,-3.0L2.5,-0.5"/>
  </g>
  <g id="resetDef">
    <use xlink:href="#rim2" fill="#404040"><set attributeName="fill" to="#808080" begin="reset.mouseover" end="reset.mouseout"/></use>
  </g>
</defs>
<script type="application/ecmascript">
var viewWidth = 630;
var viewHeight = 175;
var sectionId = 'dynsection-0';
</script>
<script type="application/ecmascript" xlink:href="svg.min.js"/>
<svg id="graph" class="graph">
<g id="viewport">
<title>ImFusion::GUI::View</title>
<!-- Node1 -->
<g id="Node000001" class="node">
<title>Node1</title>
<g id="a_Node000001"><a xlink:title="Base interface for a rendering view (e.g.">
<polygon fill="#999999" stroke="#666666" points="272.75,-130.25 164.5,-130.25 164.5,-111 272.75,-111 272.75,-130.25"/>
<text xml:space="preserve" text-anchor="middle" x="218.62" y="-116.75" font-family="Helvetica,sans-Serif" font-size="10.00">ImFusion::GUI::View</text>
</a>
</g>
</g>
<!-- Node4 -->
<g id="Node000004" class="node">
<title>Node4</title>
<g id="a_Node000004"><a xlink:href="class_im_fusion_1_1_g_u_i_1_1_slice_view.html" target="_top" xlink:title="2D renderer for SharedImageSets that can be hosted inside a Display.">
<polygon fill="white" stroke="#666666" points="444.38,-167.25 314.38,-167.25 314.38,-148 444.38,-148 444.38,-167.25"/>
<text xml:space="preserve" text-anchor="middle" x="379.38" y="-153.75" font-family="Helvetica,sans-Serif" font-size="10.00">ImFusion::GUI::SliceView</text>
</a>
</g>
</g>
<!-- Node1&#45;&gt;Node4 -->
<g id="edge3_Node000001_Node000004" class="edge">
<title>Node1&#45;&gt;Node4</title>
<g id="a_edge3_Node000001_Node000004"><a xlink:title=" ">
<path fill="none" stroke="#63b8ff" d="M274.1,-133.32C294.01,-137.96 316.24,-143.14 335.05,-147.53"/>
<polygon fill="#63b8ff" stroke="#63b8ff" points="275.01,-129.94 264.48,-131.08 273.42,-136.76 275.01,-129.94"/>
</a>
</g>
</g>
<!-- Node5 -->
<g id="Node000005" class="node">
<title>Node5</title>
<g id="a_Node000005"><a xlink:href="class_im_fusion_1_1_g_u_i_1_1_volume_view.html" target="_top" xlink:title="Volumetric 3D renderer for SharedImageSets that can be hosted inside a Display.">
<polygon fill="white" stroke="#666666" points="450,-130.25 308.75,-130.25 308.75,-111 450,-111 450,-130.25"/>
<text xml:space="preserve" text-anchor="middle" x="379.38" y="-116.75" font-family="Helvetica,sans-Serif" font-size="10.00">ImFusion::GUI::VolumeView</text>
</a>
</g>
</g>
<!-- Node1&#45;&gt;Node5 -->
<g id="edge4_Node000001_Node000005" class="edge">
<title>Node1&#45;&gt;Node5</title>
<g id="a_edge4_Node000001_Node000005"><a xlink:title=" ">
<path fill="none" stroke="#63b8ff" d="M284.32,-120.62C292.22,-120.62 300.32,-120.62 308.3,-120.62"/>
<polygon fill="#63b8ff" stroke="#63b8ff" points="284.44,-117.13 274.44,-120.63 284.44,-124.13 284.44,-117.13"/>
</a>
</g>
</g>
<!-- Node6 -->
<g id="Node000006" class="node">
<title>Node6</title>
<g id="a_Node000006"><a xlink:href="class_im_fusion_1_1_interactive_view.html" target="_top" xlink:title="Abstract base class for a view that can be hosted by a DisplayWidget.">
<polygon fill="white" stroke="#666666" points="444.38,-93.25 314.38,-93.25 314.38,-74 444.38,-74 444.38,-93.25"/>
<text xml:space="preserve" text-anchor="middle" x="379.38" y="-79.75" font-family="Helvetica,sans-Serif" font-size="10.00">ImFusion::InteractiveView</text>
</a>
</g>
</g>
<!-- Node1&#45;&gt;Node6 -->
<g id="edge5_Node000001_Node000006" class="edge">
<title>Node1&#45;&gt;Node6</title>
<g id="a_edge5_Node000001_Node000006"><a xlink:title=" ">
<path fill="none" stroke="#63b8ff" d="M274.1,-107.93C294.01,-103.29 316.24,-98.11 335.05,-93.72"/>
<polygon fill="#63b8ff" stroke="#63b8ff" points="273.42,-104.49 264.48,-110.17 275.01,-111.31 273.42,-104.49"/>
</a>
</g>
</g>
<!-- Node2 -->
<g id="Node000002" class="node">
<title>Node2</title>
<g id="a_Node000002"><a xlink:href="class_im_fusion_1_1_configurable.html" target="_top" xlink:title="Base interface for classes that support object serialization from/to Properties objects.">
<polygon fill="white" stroke="#666666" points="122.88,-149.25 5.62,-149.25 5.62,-130 122.88,-130 122.88,-149.25"/>
<text xml:space="preserve" text-anchor="middle" x="64.25" y="-135.75" font-family="Helvetica,sans-Serif" font-size="10.00">ImFusion::Configurable</text>
</a>
</g>
</g>
<!-- Node2&#45;&gt;Node1 -->
<g id="edge1_Node000001_Node000002" class="edge">
<title>Node2&#45;&gt;Node1</title>
<g id="a_edge1_Node000001_Node000002"><a xlink:title=" ">
<path fill="none" stroke="#63b8ff" d="M134.47,-130.99C144.47,-129.75 154.63,-128.48 164.25,-127.28"/>
<polygon fill="#63b8ff" stroke="#63b8ff" points="134.28,-127.49 124.79,-132.2 135.15,-134.44 134.28,-127.49"/>
</a>
</g>
</g>
<!-- Node3 -->
<g id="Node000003" class="node">
<title>Node3</title>
<g id="a_Node000003"><a xlink:href="class_im_fusion_1_1_signal_receiver.html" target="_top" xlink:title="Base class for classes that can contain slots (i.e.">
<polygon fill="white" stroke="#666666" points="128.5,-112.25 0,-112.25 0,-93 128.5,-93 128.5,-112.25"/>
<text xml:space="preserve" text-anchor="middle" x="64.25" y="-98.75" font-family="Helvetica,sans-Serif" font-size="10.00">ImFusion::SignalReceiver</text>
</a>
</g>
</g>
<!-- Node3&#45;&gt;Node1 -->
<g id="edge2_Node000001_Node000003" class="edge">
<title>Node3&#45;&gt;Node1</title>
<g id="a_edge2_Node000001_Node000003"><a xlink:title=" ">
<path fill="none" stroke="#63b8ff" d="M140.36,-111.5C148.44,-112.45 156.53,-113.41 164.28,-114.32"/>
<polygon fill="#63b8ff" stroke="#63b8ff" points="140.83,-108.03 130.49,-110.33 140.01,-114.98 140.83,-108.03"/>
</a>
</g>
</g>
<!-- Node7 -->
<g id="Node000007" class="node">
<title>Node7</title>
<g id="a_Node000007"><a xlink:href="class_im_fusion_1_1_curve_editor_view.html" target="_top" xlink:title="Curve editor view.">
<polygon fill="white" stroke="#666666" points="622,-167.25 486,-167.25 486,-148 622,-148 622,-167.25"/>
<text xml:space="preserve" text-anchor="middle" x="554" y="-153.75" font-family="Helvetica,sans-Serif" font-size="10.00">ImFusion::CurveEditorView</text>
</a>
</g>
</g>
<!-- Node6&#45;&gt;Node7 -->
<g id="edge6_Node000006_Node000007" class="edge">
<title>Node6&#45;&gt;Node7</title>
<g id="a_edge6_Node000006_Node000007"><a xlink:title=" ">
<path fill="none" stroke="#63b8ff" d="M443.2,-98.03C445.54,-99.14 447.82,-100.34 450,-101.62 470.04,-113.44 466.02,-127.72 486,-139.62 491.28,-142.77 497.11,-145.38 503.07,-147.53"/>
<polygon fill="#63b8ff" stroke="#63b8ff" points="444.6,-94.82 434.02,-94.25 441.94,-101.29 444.6,-94.82"/>
</a>
</g>
</g>
<!-- Node8 -->
<g id="Node000008" class="node">
<title>Node8</title>
<g id="a_Node000008"><a xlink:href="class_im_fusion_1_1_curved_view.html" target="_top" xlink:title="Interactive 2D view of one or multiple images.">
<polygon fill="white" stroke="#666666" points="611.88,-130.25 496.12,-130.25 496.12,-111 611.88,-111 611.88,-130.25"/>
<text xml:space="preserve" text-anchor="middle" x="554" y="-116.75" font-family="Helvetica,sans-Serif" font-size="10.00">ImFusion::CurvedView</text>
</a>
</g>
</g>
<!-- Node6&#45;&gt;Node8 -->
<g id="edge7_Node000006_Node000008" class="edge">
<title>Node6&#45;&gt;Node8</title>
<g id="a_edge7_Node000006_Node000008"><a xlink:title=" ">
<path fill="none" stroke="#63b8ff" d="M438.71,-96.13C460.58,-100.82 485.15,-106.08 505.89,-110.53"/>
<polygon fill="#63b8ff" stroke="#63b8ff" points="439.54,-92.73 429.03,-94.05 438.07,-99.57 439.54,-92.73"/>
</a>
</g>
</g>
<!-- Node9 -->
<g id="Node000009" class="node">
<title>Node9</title>
<g id="a_Node000009"><a xlink:href="class_im_fusion_1_1_image_view2_d.html" target="_top" xlink:title="High&#45;level wrapper class for 2D/MPR rendering of one or multiple images.">
<polygon fill="white" stroke="#666666" points="616,-93.25 492,-93.25 492,-74 616,-74 616,-93.25"/>
<text xml:space="preserve" text-anchor="middle" x="554" y="-79.75" font-family="Helvetica,sans-Serif" font-size="10.00">ImFusion::ImageView2D</text>
</a>
</g>
</g>
<!-- Node6&#45;&gt;Node9 -->
<g id="edge8_Node000006_Node000009" class="edge">
<title>Node6&#45;&gt;Node9</title>
<g id="a_edge8_Node000006_Node000009"><a xlink:title=" ">
<path fill="none" stroke="#63b8ff" d="M455.94,-83.62C467.84,-83.62 480.01,-83.62 491.53,-83.62"/>
<polygon fill="#63b8ff" stroke="#63b8ff" points="456.17,-80.13 446.17,-83.63 456.17,-87.13 456.17,-80.13"/>
</a>
</g>
</g>
<!-- Node10 -->
<g id="Node000010" class="node">
<title>Node10</title>
<g id="a_Node000010"><a xlink:href="class_im_fusion_1_1_image_view3_d.html" target="_top" xlink:title="Qt widget for 3d rendering of one or multiple images.">
<polygon fill="white" stroke="#666666" points="616,-56.25 492,-56.25 492,-37 616,-37 616,-56.25"/>
<text xml:space="preserve" text-anchor="middle" x="554" y="-42.75" font-family="Helvetica,sans-Serif" font-size="10.00">ImFusion::ImageView3D</text>
</a>
</g>
</g>
<!-- Node6&#45;&gt;Node10 -->
<g id="edge9_Node000006_Node000010" class="edge">
<title>Node6&#45;&gt;Node10</title>
<g id="a_edge9_Node000006_Node000010"><a xlink:title=" ">
<path fill="none" stroke="#63b8ff" d="M438.71,-71.12C460.58,-66.43 485.15,-61.17 505.89,-56.72"/>
<polygon fill="#63b8ff" stroke="#63b8ff" points="438.07,-67.68 429.03,-73.2 439.54,-74.52 438.07,-67.68"/>
</a>
</g>
</g>
<!-- Node11 -->
<g id="Node000011" class="node">
<title>Node11</title>
<g id="a_Node000011"><a xlink:href="class_im_fusion_1_1_plot_view.html" target="_top" xlink:title="View for plotting data.">
<polygon fill="white" stroke="#666666" points="604.75,-19.25 503.25,-19.25 503.25,0 604.75,0 604.75,-19.25"/>
<text xml:space="preserve" text-anchor="middle" x="554" y="-5.75" font-family="Helvetica,sans-Serif" font-size="10.00">ImFusion::PlotView</text>
</a>
</g>
</g>
<!-- Node6&#45;&gt;Node11 -->
<g id="edge10_Node000006_Node000011" class="edge">
<title>Node6&#45;&gt;Node11</title>
<g id="a_edge10_Node000006_Node000011"><a xlink:title=" ">
<path fill="none" stroke="#63b8ff" d="M406.38,-67.71C427.29,-55.44 457.75,-38.75 486,-27.62 493.51,-24.67 501.68,-22.03 509.64,-19.74"/>
<polygon fill="#63b8ff" stroke="#63b8ff" points="404.76,-64.61 397.95,-72.73 408.34,-70.62 404.76,-64.61"/>
</a>
</g>
</g>
</g>
</svg>

<g id="navigator" transform="translate(0 0)" fill="#404254">
  <rect fill="#f2f5e9" fill-opacity="0.5" stroke="#606060" stroke-width=".5" x="0" y="0" width="60" height="60"/>
  <use id="zoomplus" xlink:href="#zoomPlus" x="17" y="9" onmousedown="handleZoom(evt,'in')"/>
  <use id="zoomminus" xlink:href="#zoomMin" x="42" y="9" onmousedown="handleZoom(evt,'out')"/>
  <use id="reset" xlink:href="#resetDef" x="30" y="36" onmousedown="handleReset()"/>
   <use id="arrowup" xlink:href="#arrowUp" x="0" y="0" onmousedown="handlePan(0,-1)"/>
  <use id="arrowright" xlink:href="#arrowRight" x="0" y="0" onmousedown="handlePan(1,0)"/>
  <use id="arrowdown" xlink:href="#arrowDown" x="0" y="0" onmousedown="handlePan(0,1)"/>
  <use id="arrowleft" xlink:href="#arrowLeft" x="0" y="0" onmousedown="handlePan(-1,0)"/>
</g>
<svg viewBox="0 0 15 15" width="100%" height="30px" preserveAspectRatio="xMaxYMin meet">
 <g id="arrow_out" transform="scale(0.3 0.3)">
  <a xlink:href="class_im_fusion_1_1_g_u_i_1_1_view__inherit__graph_org.svg" target="_base">
   <rect id="button" ry="5" rx="5" y="6" x="6" height="38" width="38"
        fill="#f2f5e9" fill-opacity="0.5" stroke="#606060" stroke-width="1.0"/>
   <path id="arrow"
     d="M 11.500037,31.436501 C 11.940474,20.09759 22.043105,11.32322 32.158766,21.979434 L 37.068811,17.246167 C 37.068811,17.246167 37.088388,32 37.088388,32 L 22.160133,31.978069 C 22.160133,31.978069 26.997745,27.140456 26.997745,27.140456 C 18.528582,18.264221 13.291696,25.230495 11.500037,31.436501 z"
     style="fill:#404040;"/>
  </a>
 </g>
</svg>

<style type='text/css'>
<![CDATA[
[data-mouse-over-selected='false'] { opacity: 0.7; }
[data-mouse-over-selected='true']  { opacity: 1.0; }
]]>
</style>
<script type="application/ecmascript"><![CDATA[
document.addEventListener('DOMContentLoaded', (event) => {
  highlightEdges();
  highlightAdjacentNodes();
});
]]></script>
</svg>
