<?xml version="1.0" encoding="UTF-8" standalone="no"?>
<!DOCTYPE svg PUBLIC "-//W3C//DTD SVG 1.1//EN"
 "http://www.w3.org/Graphics/SVG/1.1/DTD/svg11.dtd">
<!-- Generated by graphviz version 14.1.4 (20260321.0153)
 -->
<!-- Title: ImFusion::PhilipsQLabIOD Pages: 1 -->
<svg width="486pt" height="138pt"
 viewBox="0.00 0.00 486.00 138.00" xmlns="http://www.w3.org/2000/svg" xmlns:xlink="http://www.w3.org/1999/xlink">

<svg id="main" version="1.1" xmlns="http://www.w3.org/2000/svg" xmlns:xlink="http://www.w3.org/1999/xlink" xml:space="preserve">

<style type="text/css"><![CDATA[
.node, .edge {opacity: 0.7;}
.node.selected, .edge.selected {opacity: 1;}
.edge:hover path { stroke: red; }
.edge:hover polygon { stroke: red; fill: red; }
]]></style>
<script type="application/ecmascript" xlink:href="svg.min.js"/>
<svg id="graph" class="graph">
<g id="graph0" class="graph" transform="scale(1 1) rotate(0) translate(4 134.25)">
<title>ImFusion::PhilipsQLabIOD</title>
<!-- Node1 -->
<g id="Node000001" class="node">
<title>Node1</title>
<g id="a_Node000001"><a xlink:title="Loads ultrasound volume stored by Philips QLab software.">
<polygon fill="#999999" stroke="#666666" points="477.75,-74.25 344.75,-74.25 344.75,-55 477.75,-55 477.75,-74.25"/>
<text xml:space="preserve" text-anchor="middle" x="411.25" y="-60.75" font-family="Helvetica,sans-Serif" font-size="10.00">ImFusion::PhilipsQLabIOD</text>
</a>
</g>
</g>
<!-- Node2 -->
<g id="Node000002" class="node">
<title>Node2</title>
<g id="a_Node000002"><a xlink:href="class_im_fusion_1_1_dicom_1_1_i_o_d.html" target="_top" xlink:title="Base class of a Dicom Information Object Definition (IOD).">
<polygon fill="white" stroke="#666666" points="308.75,-74.25 193.75,-74.25 193.75,-55 308.75,-55 308.75,-74.25"/>
<text xml:space="preserve" text-anchor="middle" x="251.25" y="-60.75" font-family="Helvetica,sans-Serif" font-size="10.00">ImFusion::Dicom::IOD</text>
</a>
</g>
</g>
<!-- Node2&#45;&gt;Node1 -->
<g id="edge1_Node000001_Node000002" class="edge">
<title>Node2&#45;&gt;Node1</title>
<g id="a_edge1_Node000001_Node000002"><a xlink:title=" ">
<path fill="none" stroke="#63b8ff" d="M320.08,-64.62C328.13,-64.62 336.34,-64.62 344.36,-64.62"/>
<polygon fill="#63b8ff" stroke="#63b8ff" points="320.36,-61.13 310.36,-64.63 320.36,-68.13 320.36,-61.13"/>
</a>
</g>
</g>
<!-- Node3 -->
<g id="Node000003" class="node">
<title>Node3</title>
<g id="a_Node000003"><a xlink:href="class_im_fusion_1_1_dicom_1_1_module_list.html" target="_top" xlink:title="Interface for classes that consist of modules.">
<polygon fill="white" stroke="#666666" points="151,-130.25 6.75,-130.25 6.75,-111 151,-111 151,-130.25"/>
<text xml:space="preserve" text-anchor="middle" x="78.88" y="-116.75" font-family="Helvetica,sans-Serif" font-size="10.00">ImFusion::Dicom::ModuleList</text>
</a>
</g>
</g>
<!-- Node3&#45;&gt;Node2 -->
<g id="edge2_Node000002_Node000003" class="edge">
<title>Node3&#45;&gt;Node2</title>
<g id="a_edge2_Node000002_Node000003"><a xlink:title=" ">
<path fill="none" stroke="#63b8ff" d="M139.78,-107.82C145.88,-106.21 151.97,-104.47 157.75,-102.62 182.56,-94.72 210.06,-83.03 228.57,-74.71"/>
<polygon fill="#63b8ff" stroke="#63b8ff" points="139.11,-104.38 130.28,-110.23 140.83,-111.17 139.11,-104.38"/>
</a>
</g>
</g>
<!-- Node4 -->
<g id="Node000004" class="node">
<title>Node4</title>
<g id="a_Node000004"><a xlink:href="class_im_fusion_1_1_dicom_1_1_element_list.html" target="_top" xlink:title="Interface for classes that consist of Elements.">
<polygon fill="white" stroke="#666666" points="153.25,-93.25 4.5,-93.25 4.5,-74 153.25,-74 153.25,-93.25"/>
<text xml:space="preserve" text-anchor="middle" x="78.88" y="-79.75" font-family="Helvetica,sans-Serif" font-size="10.00">ImFusion::Dicom::ElementList</text>
</a>
</g>
</g>
<!-- Node4&#45;&gt;Node2 -->
<g id="edge3_Node000002_Node000004" class="edge">
<title>Node4&#45;&gt;Node2</title>
<g id="a_edge3_Node000002_Node000004"><a xlink:title=" ">
<path fill="none" stroke="#63b8ff" d="M164.9,-74.14C174.55,-73.07 184.2,-71.99 193.35,-70.97"/>
<polygon fill="#63b8ff" stroke="#63b8ff" points="164.67,-70.65 155.12,-75.23 165.44,-77.6 164.67,-70.65"/>
</a>
</g>
</g>
<!-- Node5 -->
<g id="Node000005" class="node">
<title>Node5</title>
<g id="a_Node000005"><a xlink:href="class_im_fusion_1_1_dicom_1_1_error_recorder.html" target="_top" xlink:title="Error handling interface for the Dicom module.">
<polygon fill="white" stroke="#666666" points="157.75,-56.25 0,-56.25 0,-37 157.75,-37 157.75,-56.25"/>
<text xml:space="preserve" text-anchor="middle" x="78.88" y="-42.75" font-family="Helvetica,sans-Serif" font-size="10.00">ImFusion::Dicom::ErrorRecorder</text>
</a>
</g>
</g>
<!-- Node5&#45;&gt;Node2 -->
<g id="edge4_Node000002_Node000005" class="edge">
<title>Node5&#45;&gt;Node2</title>
<g id="a_edge4_Node000002_Node000005"><a xlink:title=" ">
<path fill="none" stroke="#63b8ff" d="M169.26,-56.07C177.45,-56.93 185.6,-57.79 193.38,-58.62"/>
<polygon fill="#63b8ff" stroke="#63b8ff" points="169.9,-52.62 159.59,-55.05 169.16,-59.58 169.9,-52.62"/>
</a>
</g>
</g>
<!-- Node6 -->
<g id="Node000006" class="node">
<title>Node6</title>
<g id="a_Node000006"><a xlink:href="class_im_fusion_1_1_utils_1_1_not_copyable.html" target="_top" xlink:title="Inherit from this class if your class should be neither copy&#45;constructible nor assignable.">
<polygon fill="white" stroke="#666666" points="151.75,-19.25 6,-19.25 6,0 151.75,0 151.75,-19.25"/>
<text xml:space="preserve" text-anchor="middle" x="78.88" y="-5.75" font-family="Helvetica,sans-Serif" font-size="10.00">ImFusion::Utils::NotCopyable</text>
</a>
</g>
</g>
<!-- Node6&#45;&gt;Node2 -->
<g id="edge5_Node000002_Node000006" class="edge">
<title>Node6&#45;&gt;Node2</title>
<g id="a_edge5_Node000002_Node000006"><a xlink:title=" ">
<path fill="none" stroke="#63b8ff" d="M139.76,-22.48C145.87,-24.09 151.96,-25.81 157.75,-27.62 182.18,-35.28 209.28,-46.45 227.79,-54.51"/>
<polygon fill="#63b8ff" stroke="#63b8ff" points="140.81,-19.14 130.26,-20.09 139.1,-25.93 140.81,-19.14"/>
</a>
</g>
</g>
</g>
</svg>
</svg>

<style type='text/css'>
<![CDATA[
[data-mouse-over-selected='false'] { opacity: 0.7; }
[data-mouse-over-selected='true']  { opacity: 1.0; }
]]>
</style>
<script type="application/ecmascript"><![CDATA[
document.addEventListener('DOMContentLoaded', (event) => {
  highlightEdges();
  highlightAdjacentNodes();
});
]]></script>
</svg>
