<?xml version="1.0" encoding="UTF-8" standalone="no"?>
<!DOCTYPE svg PUBLIC "-//W3C//DTD SVG 1.1//EN"
 "http://www.w3.org/Graphics/SVG/1.1/DTD/svg11.dtd">
<!-- Generated by graphviz version 14.1.4 (20260321.0153)
 -->
<!-- Title: ImFusion::QtAuthorizationProvider Pages: 1 -->
<svg width="156pt" height="172pt"
 viewBox="0.00 0.00 156.00 172.00" xmlns="http://www.w3.org/2000/svg" xmlns:xlink="http://www.w3.org/1999/xlink">
<g id="graph0" class="graph" transform="scale(1 1) rotate(0) translate(4 167.5)">
<title>ImFusion::QtAuthorizationProvider</title>
<!-- Node1 -->
<g id="Node000001" class="node">
<title>Node1</title>
<g id="a_Node000001"><a xlink:title="AuthorizationProvider that shows a Qt LoginDialog.">
<polygon fill="#999999" stroke="#666666" points="139,-97 9,-97 9,-66.5 139,-66.5 139,-97"/>
<text xml:space="preserve" text-anchor="start" x="17" y="-83.5" font-family="Helvetica,sans-Serif" font-size="10.00">ImFusion::QtAuthorization</text>
<text xml:space="preserve" text-anchor="middle" x="74" y="-72.25" font-family="Helvetica,sans-Serif" font-size="10.00">Provider</text>
</a>
</g>
</g>
<!-- Node3 -->
<g id="Node000003" class="node">
<title>Node3</title>
<g id="a_Node000003"><a xlink:href="class_im_fusion_1_1_labels_authorization_provider.html" target="_top" xlink:title="Provides authorization for the remote project as well as DICOMweb and other web resources.">
<polygon fill="white" stroke="#666666" points="148,-30.5 0,-30.5 0,0 148,0 148,-30.5"/>
<text xml:space="preserve" text-anchor="start" x="8" y="-17" font-family="Helvetica,sans-Serif" font-size="10.00">ImFusion::LabelsAuthorization</text>
<text xml:space="preserve" text-anchor="middle" x="74" y="-5.75" font-family="Helvetica,sans-Serif" font-size="10.00">Provider</text>
</a>
</g>
</g>
<!-- Node1&#45;&gt;Node3 -->
<g id="edge2_Node000001_Node000003" class="edge">
<title>Node1&#45;&gt;Node3</title>
<g id="a_edge2_Node000001_Node000003"><a xlink:title=" ">
<path fill="none" stroke="#63b8ff" d="M74,-54.81C74,-46.64 74,-37.91 74,-30.83"/>
<polygon fill="#63b8ff" stroke="#63b8ff" points="70.5,-54.6 74,-64.6 77.5,-54.6 70.5,-54.6"/>
</a>
</g>
</g>
<!-- Node2 -->
<g id="Node000002" class="node">
<title>Node2</title>
<g id="a_Node000002"><a xlink:href="class_im_fusion_1_1_network_1_1_authorization_provider.html" target="_top" xlink:title="Interface for providing the Authorization header for WebRequests.">
<polygon fill="white" stroke="#666666" points="128.5,-163.5 19.5,-163.5 19.5,-133 128.5,-133 128.5,-163.5"/>
<text xml:space="preserve" text-anchor="start" x="27.5" y="-150" font-family="Helvetica,sans-Serif" font-size="10.00">ImFusion::Network::</text>
<text xml:space="preserve" text-anchor="middle" x="74" y="-138.75" font-family="Helvetica,sans-Serif" font-size="10.00">AuthorizationProvider</text>
</a>
</g>
</g>
<!-- Node2&#45;&gt;Node1 -->
<g id="edge1_Node000001_Node000002" class="edge">
<title>Node2&#45;&gt;Node1</title>
<g id="a_edge1_Node000001_Node000002"><a xlink:title=" ">
<path fill="none" stroke="#63b8ff" d="M74,-121.31C74,-113.14 74,-104.41 74,-97.33"/>
<polygon fill="#63b8ff" stroke="#63b8ff" points="70.5,-121.1 74,-131.1 77.5,-121.1 70.5,-121.1"/>
</a>
</g>
</g>
</g>
</svg>
