<?xml version="1.0" encoding="UTF-8" standalone="no"?>
<!DOCTYPE svg PUBLIC "-//W3C//DTD SVG 1.1//EN"
 "http://www.w3.org/Graphics/SVG/1.1/DTD/svg11.dtd">
<!-- Generated by graphviz version 14.1.4 (20260321.0153)
 -->
<!-- Title: ImFusion::Utils::Expected&lt; T, E &gt; Pages: 1 -->
<!--zoomable 251 -->

<svg id="main" version="1.1" xmlns="http://www.w3.org/2000/svg" xmlns:xlink="http://www.w3.org/1999/xlink" xml:space="preserve" onload="init(evt)">

<style type="text/css"><![CDATA[
.node, .edge {opacity: 0.7;}
.node.selected, .edge.selected {opacity: 1;}
.edge:hover path { stroke: red; }
.edge:hover polygon { stroke: red; fill: red; }
]]></style>

<defs>
  <circle id="rim" cx="0" cy="0" r="7"/>
  <circle id="rim2" cx="0" cy="0" r="3.5"/>
  <g id="zoomPlus">
    <use xlink:href="#rim" fill="#404040"><set attributeName="fill" to="#808080" begin="zoomplus.mouseover" end="zoomplus.mouseout"/></use>
    <path d="M-4,0h8M0,-4v8" fill="none" stroke="white" stroke-width="1.5" pointer-events="none"/>
  </g>
  <g id="zoomMin">
    <use xlink:href="#rim" fill="#404040"><set attributeName="fill" to="#808080" begin="zoomminus.mouseover" end="zoomminus.mouseout"/></use>
    <path d="M-4,0h8" fill="none" stroke="white" stroke-width="1.5" pointer-events="none"/>
  </g>
  <g id="arrowUp" transform="translate(30 24)">
    <use xlink:href="#rim"/>
    <path pointer-events="none" fill="none" stroke="white" stroke-width="1.5" d="M0,-3.0v7 M-2.5,-0.5L0,-3.0L2.5,-0.5"/>
  </g>
  <g id="arrowRight" transform="rotate(90) translate(36 -43)">
    <use xlink:href="#rim"/>
    <path pointer-events="none" fill="none" stroke="white" stroke-width="1.5" d="M0,-3.0v7 M-2.5,-0.5L0,-3.0L2.5,-0.5"/>
  </g>
  <g id="arrowDown" transform="rotate(180) translate(-30 -48)">
    <use xlink:href="#rim"/>
    <path pointer-events="none" fill="none" stroke="white" stroke-width="1.5" d="M0,-3.0v7 M-2.5,-0.5L0,-3.0L2.5,-0.5"/>
  </g>
  <g id="arrowLeft" transform="rotate(270) translate(-36 17)">
    <use xlink:href="#rim"/>
    <path pointer-events="none" fill="none" stroke="white" stroke-width="1.5" d="M0,-3.0v7 M-2.5,-0.5L0,-3.0L2.5,-0.5"/>
  </g>
  <g id="resetDef">
    <use xlink:href="#rim2" fill="#404040"><set attributeName="fill" to="#808080" begin="reset.mouseover" end="reset.mouseout"/></use>
  </g>
</defs>
<script type="application/ecmascript">
var viewWidth = 1086;
var viewHeight = 251;
var sectionId = 'dynsection-0';
</script>
<script type="application/ecmascript" xlink:href="svg.min.js"/>
<svg id="graph" class="graph">
<g id="viewport">
<title>ImFusion::Utils::Expected&lt; T, E &gt;</title>
<!-- Node1 -->
<g id="Node000001" class="node">
<title>Node1</title>
<g id="a_Node000001"><a xlink:title="An Expected&lt;T, E&gt; object is an object that contains the storage for another object and manages the li...">
<polygon fill="#999999" stroke="#666666" points="1078,-136.12 948,-136.12 948,-105.62 1078,-105.62 1078,-136.12"/>
<text xml:space="preserve" text-anchor="start" x="956" y="-122.62" font-family="Helvetica,sans-Serif" font-size="10.00">ImFusion::Utils::Expected</text>
<text xml:space="preserve" text-anchor="middle" x="1013" y="-111.38" font-family="Helvetica,sans-Serif" font-size="10.00">&lt; T, E &gt;</text>
</a>
</g>
</g>
<!-- Node2 -->
<g id="Node000002" class="node">
<title>Node2</title>
<g id="a_Node000002"><a xlink:href="struct_im_fusion_1_1_utils_1_1detail_1_1expected__move__assign__base.html" target="_top" xlink:title=" ">
<polygon fill="white" stroke="#bfbfbf" points="909.75,-242.75 785,-242.75 785,-201 909.75,-201 909.75,-242.75"/>
<text xml:space="preserve" text-anchor="start" x="793" y="-229.25" font-family="Helvetica,sans-Serif" font-size="10.00">ImFusion::Utils::detail</text>
<text xml:space="preserve" text-anchor="start" x="793" y="-218" font-family="Helvetica,sans-Serif" font-size="10.00">::expected_move_assign</text>
<text xml:space="preserve" text-anchor="middle" x="847.38" y="-206.75" font-family="Helvetica,sans-Serif" font-size="10.00">_base&lt; T, E, bool &gt;</text>
</a>
</g>
</g>
<!-- Node2&#45;&gt;Node1 -->
<g id="edge1_Node000001_Node000002" class="edge">
<title>Node2&#45;&gt;Node1</title>
<g id="a_edge1_Node000001_Node000002"><a xlink:title=" ">
<path fill="none" stroke="#8b1a1a" d="M906.18,-195.18C908.16,-194.09 910.1,-192.98 912,-191.88 941.23,-174.79 972.72,-151.54 992.4,-136.37"/>
<polygon fill="#8b1a1a" stroke="#8b1a1a" points="904.65,-192.03 897.44,-199.79 907.92,-198.21 904.65,-192.03"/>
</a>
</g>
</g>
<!-- Node3 -->
<g id="Node000003" class="node">
<title>Node3</title>
<g id="a_Node000003"><a xlink:href="struct_im_fusion_1_1_utils_1_1detail_1_1expected__copy__assign__base.html" target="_top" xlink:title=" ">
<polygon fill="white" stroke="#bfbfbf" points="746.75,-242.75 625,-242.75 625,-201 746.75,-201 746.75,-242.75"/>
<text xml:space="preserve" text-anchor="start" x="633" y="-229.25" font-family="Helvetica,sans-Serif" font-size="10.00">ImFusion::Utils::detail</text>
<text xml:space="preserve" text-anchor="start" x="633" y="-218" font-family="Helvetica,sans-Serif" font-size="10.00">::expected_copy_assign</text>
<text xml:space="preserve" text-anchor="middle" x="685.88" y="-206.75" font-family="Helvetica,sans-Serif" font-size="10.00">_base&lt; T, E, bool &gt;</text>
</a>
</g>
</g>
<!-- Node3&#45;&gt;Node2 -->
<g id="edge2_Node000002_Node000003" class="edge">
<title>Node3&#45;&gt;Node2</title>
<g id="a_edge2_Node000002_Node000003"><a xlink:title=" ">
<path fill="none" stroke="#63b8ff" d="M758.53,-221.88C767.25,-221.88 776.1,-221.88 784.66,-221.88"/>
<polygon fill="#63b8ff" stroke="#63b8ff" points="758.69,-218.38 748.69,-221.88 758.69,-225.38 758.69,-218.38"/>
</a>
</g>
</g>
<!-- Node4 -->
<g id="Node000004" class="node">
<title>Node4</title>
<g id="a_Node000004"><a xlink:href="struct_im_fusion_1_1_utils_1_1detail_1_1expected__move__base.html" target="_top" xlink:title=" ">
<polygon fill="white" stroke="#bfbfbf" points="589,-242.75 465.75,-242.75 465.75,-201 589,-201 589,-242.75"/>
<text xml:space="preserve" text-anchor="start" x="473.75" y="-229.25" font-family="Helvetica,sans-Serif" font-size="10.00">ImFusion::Utils::detail</text>
<text xml:space="preserve" text-anchor="start" x="473.75" y="-218" font-family="Helvetica,sans-Serif" font-size="10.00">::expected_move_base&lt;</text>
<text xml:space="preserve" text-anchor="middle" x="527.38" y="-206.75" font-family="Helvetica,sans-Serif" font-size="10.00"> T, E, bool &gt;</text>
</a>
</g>
</g>
<!-- Node4&#45;&gt;Node3 -->
<g id="edge3_Node000003_Node000004" class="edge">
<title>Node4&#45;&gt;Node3</title>
<g id="a_edge3_Node000003_Node000004"><a xlink:title=" ">
<path fill="none" stroke="#63b8ff" d="M600.59,-221.88C608.62,-221.88 616.74,-221.88 624.6,-221.88"/>
<polygon fill="#63b8ff" stroke="#63b8ff" points="600.84,-218.38 590.84,-221.88 600.84,-225.38 600.84,-218.38"/>
</a>
</g>
</g>
<!-- Node5 -->
<g id="Node000005" class="node">
<title>Node5</title>
<g id="a_Node000005"><a xlink:href="struct_im_fusion_1_1_utils_1_1detail_1_1expected__copy__base.html" target="_top" xlink:title=" ">
<polygon fill="white" stroke="#bfbfbf" points="429.75,-242.75 309.5,-242.75 309.5,-201 429.75,-201 429.75,-242.75"/>
<text xml:space="preserve" text-anchor="start" x="317.5" y="-229.25" font-family="Helvetica,sans-Serif" font-size="10.00">ImFusion::Utils::detail</text>
<text xml:space="preserve" text-anchor="start" x="317.5" y="-218" font-family="Helvetica,sans-Serif" font-size="10.00">::expected_copy_base&lt;</text>
<text xml:space="preserve" text-anchor="middle" x="369.62" y="-206.75" font-family="Helvetica,sans-Serif" font-size="10.00"> T, E, bool &gt;</text>
</a>
</g>
</g>
<!-- Node5&#45;&gt;Node4 -->
<g id="edge4_Node000004_Node000005" class="edge">
<title>Node5&#45;&gt;Node4</title>
<g id="a_edge4_Node000004_Node000005"><a xlink:title=" ">
<path fill="none" stroke="#63b8ff" d="M441.25,-221.88C449.31,-221.88 457.48,-221.88 465.4,-221.88"/>
<polygon fill="#63b8ff" stroke="#63b8ff" points="441.47,-218.38 431.47,-221.88 441.47,-225.38 441.47,-218.38"/>
</a>
</g>
</g>
<!-- Node6 -->
<g id="Node000006" class="node">
<title>Node6</title>
<g id="a_Node000006"><a xlink:href="struct_im_fusion_1_1_utils_1_1detail_1_1expected__operations__base.html" target="_top" xlink:title=" ">
<polygon fill="white" stroke="#bfbfbf" points="273.5,-242.75 161.5,-242.75 161.5,-201 273.5,-201 273.5,-242.75"/>
<text xml:space="preserve" text-anchor="start" x="169.5" y="-229.25" font-family="Helvetica,sans-Serif" font-size="10.00">ImFusion::Utils::detail</text>
<text xml:space="preserve" text-anchor="start" x="169.5" y="-218" font-family="Helvetica,sans-Serif" font-size="10.00">::expected_operations</text>
<text xml:space="preserve" text-anchor="middle" x="217.5" y="-206.75" font-family="Helvetica,sans-Serif" font-size="10.00">_base&lt; T, E &gt;</text>
</a>
</g>
</g>
<!-- Node6&#45;&gt;Node5 -->
<g id="edge5_Node000005_Node000006" class="edge">
<title>Node6&#45;&gt;Node5</title>
<g id="a_edge5_Node000005_Node000006"><a xlink:title=" ">
<path fill="none" stroke="#63b8ff" d="M285.41,-221.88C293.3,-221.88 301.31,-221.88 309.09,-221.88"/>
<polygon fill="#63b8ff" stroke="#63b8ff" points="285.49,-218.38 275.49,-221.88 285.49,-225.38 285.49,-218.38"/>
</a>
</g>
</g>
<!-- Node7 -->
<g id="Node000007" class="node">
<title>Node7</title>
<g id="a_Node000007"><a xlink:href="struct_im_fusion_1_1_utils_1_1detail_1_1expected__storage__base.html" target="_top" xlink:title=" ">
<polygon fill="white" stroke="#bfbfbf" points="125.5,-242.75 0,-242.75 0,-201 125.5,-201 125.5,-242.75"/>
<text xml:space="preserve" text-anchor="start" x="8" y="-229.25" font-family="Helvetica,sans-Serif" font-size="10.00">ImFusion::Utils::detail</text>
<text xml:space="preserve" text-anchor="start" x="8" y="-218" font-family="Helvetica,sans-Serif" font-size="10.00">::expected_storage_base</text>
<text xml:space="preserve" text-anchor="middle" x="62.75" y="-206.75" font-family="Helvetica,sans-Serif" font-size="10.00">&lt; T, E, bool, bool &gt;</text>
</a>
</g>
</g>
<!-- Node7&#45;&gt;Node6 -->
<g id="edge6_Node000006_Node000007" class="edge">
<title>Node7&#45;&gt;Node6</title>
<g id="a_edge6_Node000006_Node000007"><a xlink:title=" ">
<path fill="none" stroke="#63b8ff" d="M137.25,-221.88C145.35,-221.88 153.48,-221.88 161.3,-221.88"/>
<polygon fill="#63b8ff" stroke="#63b8ff" points="137.39,-218.38 127.39,-221.88 137.39,-225.38 137.39,-218.38"/>
</a>
</g>
</g>
<!-- Node8 -->
<g id="Node000008" class="node">
<title>Node8</title>
<g id="a_Node000008"><a xlink:href="struct_im_fusion_1_1_utils_1_1detail_1_1expected__delete__ctor__base.html" target="_top" xlink:title=" ">
<polygon fill="white" stroke="#bfbfbf" points="912,-183.38 782.75,-183.38 782.75,-130.38 912,-130.38 912,-183.38"/>
<text xml:space="preserve" text-anchor="start" x="790.75" y="-169.88" font-family="Helvetica,sans-Serif" font-size="10.00">ImFusion::Utils::detail</text>
<text xml:space="preserve" text-anchor="start" x="790.75" y="-158.62" font-family="Helvetica,sans-Serif" font-size="10.00">::expected_delete_ctor</text>
<text xml:space="preserve" text-anchor="start" x="790.75" y="-147.38" font-family="Helvetica,sans-Serif" font-size="10.00">_base&lt; T, E, EnableCopy,</text>
<text xml:space="preserve" text-anchor="middle" x="847.38" y="-136.12" font-family="Helvetica,sans-Serif" font-size="10.00"> EnableMove &gt;</text>
</a>
</g>
</g>
<!-- Node8&#45;&gt;Node1 -->
<g id="edge7_Node000001_Node000008" class="edge">
<title>Node8&#45;&gt;Node1</title>
<g id="a_edge7_Node000001_Node000008"><a xlink:title=" ">
<path fill="none" stroke="#8b1a1a" d="M923.16,-140.42C931.34,-138.62 939.6,-136.8 947.64,-135.04"/>
<polygon fill="#8b1a1a" stroke="#8b1a1a" points="922.6,-136.96 913.58,-142.53 924.1,-143.8 922.6,-136.96"/>
</a>
</g>
</g>
<!-- Node9 -->
<g id="Node000009" class="node">
<title>Node9</title>
<g id="a_Node000009"><a xlink:href="struct_im_fusion_1_1_utils_1_1detail_1_1expected__delete__assign__base.html" target="_top" xlink:title=" ">
<polygon fill="white" stroke="#bfbfbf" points="912,-112.38 782.75,-112.38 782.75,-59.38 912,-59.38 912,-112.38"/>
<text xml:space="preserve" text-anchor="start" x="790.75" y="-98.88" font-family="Helvetica,sans-Serif" font-size="10.00">ImFusion::Utils::detail</text>
<text xml:space="preserve" text-anchor="start" x="790.75" y="-87.62" font-family="Helvetica,sans-Serif" font-size="10.00">::expected_delete_assign</text>
<text xml:space="preserve" text-anchor="start" x="790.75" y="-76.38" font-family="Helvetica,sans-Serif" font-size="10.00">_base&lt; T, E, EnableCopy,</text>
<text xml:space="preserve" text-anchor="middle" x="847.38" y="-65.12" font-family="Helvetica,sans-Serif" font-size="10.00"> EnableMove &gt;</text>
</a>
</g>
</g>
<!-- Node9&#45;&gt;Node1 -->
<g id="edge8_Node000001_Node000009" class="edge">
<title>Node9&#45;&gt;Node1</title>
<g id="a_edge8_Node000001_Node000009"><a xlink:title=" ">
<path fill="none" stroke="#8b1a1a" d="M923.16,-101.87C931.34,-103.62 939.6,-105.39 947.64,-107.11"/>
<polygon fill="#8b1a1a" stroke="#8b1a1a" points="924.1,-98.49 913.59,-99.82 922.63,-105.34 924.1,-98.49"/>
</a>
</g>
</g>
<!-- Node10 -->
<g id="Node000010" class="node">
<title>Node10</title>
<g id="a_Node000010"><a xlink:href="struct_im_fusion_1_1_utils_1_1detail_1_1expected__default__ctor__base.html" target="_top" xlink:title=" ">
<polygon fill="white" stroke="#bfbfbf" points="906.38,-41.75 788.38,-41.75 788.38,0 906.38,0 906.38,-41.75"/>
<text xml:space="preserve" text-anchor="start" x="796.38" y="-28.25" font-family="Helvetica,sans-Serif" font-size="10.00">ImFusion::Utils::detail</text>
<text xml:space="preserve" text-anchor="start" x="796.38" y="-17" font-family="Helvetica,sans-Serif" font-size="10.00">::expected_default_ctor</text>
<text xml:space="preserve" text-anchor="middle" x="847.38" y="-5.75" font-family="Helvetica,sans-Serif" font-size="10.00">_base&lt; T, E, Enable &gt;</text>
</a>
</g>
</g>
<!-- Node10&#45;&gt;Node1 -->
<g id="edge9_Node000001_Node000010" class="edge">
<title>Node10&#45;&gt;Node1</title>
<g id="a_edge9_Node000001_Node000010"><a xlink:title=" ">
<path fill="none" stroke="#8b1a1a" d="M907.58,-47.4C909.08,-48.21 910.55,-49.04 912,-49.88 941.34,-66.77 972.81,-90.07 992.44,-105.3"/>
<polygon fill="#8b1a1a" stroke="#8b1a1a" points="909.31,-44.35 898.83,-42.82 906.07,-50.55 909.31,-44.35"/>
</a>
</g>
</g>
</g>
</svg>

<g id="navigator" transform="translate(0 0)" fill="#404254">
  <rect fill="#f2f5e9" fill-opacity="0.5" stroke="#606060" stroke-width=".5" x="0" y="0" width="60" height="60"/>
  <use id="zoomplus" xlink:href="#zoomPlus" x="17" y="9" onmousedown="handleZoom(evt,'in')"/>
  <use id="zoomminus" xlink:href="#zoomMin" x="42" y="9" onmousedown="handleZoom(evt,'out')"/>
  <use id="reset" xlink:href="#resetDef" x="30" y="36" onmousedown="handleReset()"/>
   <use id="arrowup" xlink:href="#arrowUp" x="0" y="0" onmousedown="handlePan(0,-1)"/>
  <use id="arrowright" xlink:href="#arrowRight" x="0" y="0" onmousedown="handlePan(1,0)"/>
  <use id="arrowdown" xlink:href="#arrowDown" x="0" y="0" onmousedown="handlePan(0,1)"/>
  <use id="arrowleft" xlink:href="#arrowLeft" x="0" y="0" onmousedown="handlePan(-1,0)"/>
</g>
<svg viewBox="0 0 15 15" width="100%" height="30px" preserveAspectRatio="xMaxYMin meet">
 <g id="arrow_out" transform="scale(0.3 0.3)">
  <a xlink:href="class_im_fusion_1_1_utils_1_1_expected__inherit__graph_org.svg" target="_base">
   <rect id="button" ry="5" rx="5" y="6" x="6" height="38" width="38"
        fill="#f2f5e9" fill-opacity="0.5" stroke="#606060" stroke-width="1.0"/>
   <path id="arrow"
     d="M 11.500037,31.436501 C 11.940474,20.09759 22.043105,11.32322 32.158766,21.979434 L 37.068811,17.246167 C 37.068811,17.246167 37.088388,32 37.088388,32 L 22.160133,31.978069 C 22.160133,31.978069 26.997745,27.140456 26.997745,27.140456 C 18.528582,18.264221 13.291696,25.230495 11.500037,31.436501 z"
     style="fill:#404040;"/>
  </a>
 </g>
</svg>

<style type='text/css'>
<![CDATA[
[data-mouse-over-selected='false'] { opacity: 0.7; }
[data-mouse-over-selected='true']  { opacity: 1.0; }
]]>
</style>
<script type="application/ecmascript"><![CDATA[
document.addEventListener('DOMContentLoaded', (event) => {
  highlightEdges();
  highlightAdjacentNodes();
});
]]></script>
</svg>
