<?xml version="1.0" encoding="UTF-8" standalone="no"?>
<!DOCTYPE svg PUBLIC "-//W3C//DTD SVG 1.1//EN"
 "http://www.w3.org/Graphics/SVG/1.1/DTD/svg11.dtd">
<!-- Generated by graphviz version 14.1.4 (20260321.0153)
 -->
<!-- Title: ImFusion::InteractiveCroppingBox Pages: 1 -->
<svg width="182pt" height="216pt"
 viewBox="0.00 0.00 182.00 216.00" xmlns="http://www.w3.org/2000/svg" xmlns:xlink="http://www.w3.org/1999/xlink">
<g id="graph0" class="graph" transform="scale(1 1) rotate(0) translate(4 211.5)">
<title>ImFusion::InteractiveCroppingBox</title>
<!-- Node1 -->
<g id="Node000001" class="node">
<title>Node1</title>
<g id="a_Node000001"><a xlink:title=" ">
<polygon fill="#999999" stroke="#666666" points="169.38,-19.25 4.88,-19.25 4.88,0 169.38,0 169.38,-19.25"/>
<text xml:space="preserve" text-anchor="middle" x="87.12" y="-5.75" font-family="Helvetica,sans-Serif" font-size="10.00">ImFusion::InteractiveCroppingBox</text>
</a>
</g>
</g>
<!-- Node2 -->
<g id="Node000002" class="node">
<title>Node2</title>
<g id="a_Node000002"><a xlink:href="class_im_fusion_1_1_g_u_i_1_1_typed_view_object.html" target="_top" xlink:title=" ">
<polygon fill="white" stroke="#666666" points="174.25,-97 0,-97 0,-55.25 174.25,-55.25 174.25,-97"/>
<text xml:space="preserve" text-anchor="start" x="8" y="-83.5" font-family="Helvetica,sans-Serif" font-size="10.00">ImFusion::GUI::TypedView</text>
<text xml:space="preserve" text-anchor="start" x="8" y="-72.25" font-family="Helvetica,sans-Serif" font-size="10.00">Object&lt; GlBox, GUI::BoxAnnotation</text>
<text xml:space="preserve" text-anchor="middle" x="87.12" y="-61" font-family="Helvetica,sans-Serif" font-size="10.00">EventHandler &gt;</text>
</a>
</g>
</g>
<!-- Node2&#45;&gt;Node1 -->
<g id="edge1_Node000001_Node000002" class="edge">
<title>Node2&#45;&gt;Node1</title>
<g id="a_edge1_Node000001_Node000002"><a xlink:title=" ">
<path fill="none" stroke="#63b8ff" d="M87.12,-43.76C87.12,-34.95 87.12,-26.05 87.12,-19.7"/>
<polygon fill="#63b8ff" stroke="#63b8ff" points="83.63,-43.56 87.13,-53.56 90.63,-43.56 83.63,-43.56"/>
</a>
</g>
</g>
<!-- Node3 -->
<g id="Node000003" class="node">
<title>Node3</title>
<g id="a_Node000003"><a xlink:href="class_im_fusion_1_1_g_u_i_1_1_view_object.html" target="_top" xlink:title="Wraps a GlObject pairing it with an optional EventHandler in order to attach it to a View.">
<polygon fill="white" stroke="#666666" points="155.5,-152.25 18.75,-152.25 18.75,-133 155.5,-133 155.5,-152.25"/>
<text xml:space="preserve" text-anchor="middle" x="87.12" y="-138.75" font-family="Helvetica,sans-Serif" font-size="10.00">ImFusion::GUI::ViewObject</text>
</a>
</g>
</g>
<!-- Node3&#45;&gt;Node2 -->
<g id="edge2_Node000002_Node000003" class="edge">
<title>Node3&#45;&gt;Node2</title>
<g id="a_edge2_Node000002_Node000003"><a xlink:title=" ">
<path fill="none" stroke="#63b8ff" d="M87.12,-121.2C87.12,-113.61 87.12,-105.01 87.12,-97.43"/>
<polygon fill="#63b8ff" stroke="#63b8ff" points="83.63,-121.14 87.13,-131.14 90.63,-121.14 83.63,-121.14"/>
</a>
</g>
</g>
<!-- Node4 -->
<g id="Node000004" class="node">
<title>Node4</title>
<g id="a_Node000004"><a xlink:href="class_im_fusion_1_1_utils_1_1_not_copyable.html" target="_top" xlink:title="Inherit from this class if your class should be neither copy&#45;constructible nor assignable.">
<polygon fill="white" stroke="#666666" points="160,-207.5 14.25,-207.5 14.25,-188.25 160,-188.25 160,-207.5"/>
<text xml:space="preserve" text-anchor="middle" x="87.12" y="-194" font-family="Helvetica,sans-Serif" font-size="10.00">ImFusion::Utils::NotCopyable</text>
</a>
</g>
</g>
<!-- Node4&#45;&gt;Node3 -->
<g id="edge3_Node000003_Node000004" class="edge">
<title>Node4&#45;&gt;Node3</title>
<g id="a_edge3_Node000003_Node000004"><a xlink:title=" ">
<path fill="none" stroke="#8b1a1a" d="M87.12,-176.63C87.12,-168.34 87.12,-159.17 87.12,-152.61"/>
<polygon fill="#8b1a1a" stroke="#8b1a1a" points="83.63,-176.57 87.13,-186.57 90.63,-176.57 83.63,-176.57"/>
</a>
</g>
</g>
</g>
</svg>
