<?xml version="1.0" encoding="UTF-8" standalone="no"?>
<!DOCTYPE svg PUBLIC "-//W3C//DTD SVG 1.1//EN"
 "http://www.w3.org/Graphics/SVG/1.1/DTD/svg11.dtd">
<!-- Generated by graphviz version 14.1.4 (20260321.0153)
 -->
<!-- Title: ImFusion::DicomDataAnnotationFactory Pages: 1 -->
<svg width="167pt" height="160pt"
 viewBox="0.00 0.00 167.00 160.00" xmlns="http://www.w3.org/2000/svg" xmlns:xlink="http://www.w3.org/1999/xlink">
<g id="graph0" class="graph" transform="scale(1 1) rotate(0) translate(4 156.25)">
<title>ImFusion::DicomDataAnnotationFactory</title>
<!-- Node1 -->
<g id="Node000001" class="node">
<title>Node1</title>
<g id="a_Node000001"><a xlink:title=" ">
<polygon fill="#999999" stroke="#666666" points="158.5,-30.5 0,-30.5 0,0 158.5,0 158.5,-30.5"/>
<text xml:space="preserve" text-anchor="start" x="8" y="-17" font-family="Helvetica,sans-Serif" font-size="10.00">ImFusion::DicomDataAnnotation</text>
<text xml:space="preserve" text-anchor="middle" x="79.25" y="-5.75" font-family="Helvetica,sans-Serif" font-size="10.00">Factory</text>
</a>
</g>
</g>
<!-- Node2 -->
<g id="Node000002" class="node">
<title>Node2</title>
<g id="a_Node000002"><a xlink:href="class_im_fusion_1_1_data_annotation_factory.html" target="_top" xlink:title="Interface for data annotation factories.">
<polygon fill="white" stroke="#666666" points="144.25,-97 14.25,-97 14.25,-66.5 144.25,-66.5 144.25,-97"/>
<text xml:space="preserve" text-anchor="start" x="22.25" y="-83.5" font-family="Helvetica,sans-Serif" font-size="10.00">ImFusion::DataAnnotation</text>
<text xml:space="preserve" text-anchor="middle" x="79.25" y="-72.25" font-family="Helvetica,sans-Serif" font-size="10.00">Factory</text>
</a>
</g>
</g>
<!-- Node2&#45;&gt;Node1 -->
<g id="edge1_Node000001_Node000002" class="edge">
<title>Node2&#45;&gt;Node1</title>
<g id="a_edge1_Node000001_Node000002"><a xlink:title=" ">
<path fill="none" stroke="#63b8ff" d="M79.25,-54.81C79.25,-46.64 79.25,-37.91 79.25,-30.83"/>
<polygon fill="#63b8ff" stroke="#63b8ff" points="75.75,-54.6 79.25,-64.6 82.75,-54.6 75.75,-54.6"/>
</a>
</g>
</g>
<!-- Node3 -->
<g id="Node000003" class="node">
<title>Node3</title>
<g id="a_Node000003"><a xlink:href="class_im_fusion_1_1_utils_1_1_not_copyable.html" target="_top" xlink:title="Inherit from this class if your class should be neither copy&#45;constructible nor assignable.">
<polygon fill="white" stroke="#666666" points="152.12,-152.25 6.38,-152.25 6.38,-133 152.12,-133 152.12,-152.25"/>
<text xml:space="preserve" text-anchor="middle" x="79.25" y="-138.75" font-family="Helvetica,sans-Serif" font-size="10.00">ImFusion::Utils::NotCopyable</text>
</a>
</g>
</g>
<!-- Node3&#45;&gt;Node2 -->
<g id="edge2_Node000002_Node000003" class="edge">
<title>Node3&#45;&gt;Node2</title>
<g id="a_edge2_Node000002_Node000003"><a xlink:title=" ">
<path fill="none" stroke="#8b1a1a" d="M79.25,-121.42C79.25,-113.49 79.25,-104.56 79.25,-97.28"/>
<polygon fill="#8b1a1a" stroke="#8b1a1a" points="75.75,-121.17 79.25,-131.17 82.75,-121.17 75.75,-121.17"/>
</a>
</g>
</g>
</g>
</svg>
