<?xml version="1.0" encoding="UTF-8" standalone="no"?>
<!DOCTYPE svg PUBLIC "-//W3C//DTD SVG 1.1//EN"
 "http://www.w3.org/Graphics/SVG/1.1/DTD/svg11.dtd">
<!-- Generated by graphviz version 14.1.4 (20260321.0153)
 -->
<!-- Title: ImFusion::PointCloud Pages: 1 -->
<svg width="149pt" height="149pt"
 viewBox="0.00 0.00 149.00 149.00" xmlns="http://www.w3.org/2000/svg" xmlns:xlink="http://www.w3.org/1999/xlink">
<g id="graph0" class="graph" transform="scale(1 1) rotate(0) translate(4 145)">
<title>ImFusion::PointCloud</title>
<!-- Node1 -->
<g id="Node000001" class="node">
<title>Node1</title>
<g id="a_Node000001"><a xlink:title="Data structure for point clouds.">
<polygon fill="#999999" stroke="#666666" points="125.5,-85.75 15,-85.75 15,-66.5 125.5,-66.5 125.5,-85.75"/>
<text xml:space="preserve" text-anchor="middle" x="70.25" y="-72.25" font-family="Helvetica,sans-Serif" font-size="10.00">ImFusion::PointCloud</text>
</a>
</g>
</g>
<!-- Node3 -->
<g id="Node000003" class="node">
<title>Node3</title>
<g id="a_Node000003"><a xlink:href="class_im_fusion_1_1_frame_based_point_cloud.html" target="_top" xlink:title="Data structure for point clouds with frame&#45;dependent point data.">
<polygon fill="white" stroke="#666666" points="140.5,-30.5 0,-30.5 0,0 140.5,0 140.5,-30.5"/>
<text xml:space="preserve" text-anchor="start" x="8" y="-17" font-family="Helvetica,sans-Serif" font-size="10.00">ImFusion::FrameBasedPoint</text>
<text xml:space="preserve" text-anchor="middle" x="70.25" y="-5.75" font-family="Helvetica,sans-Serif" font-size="10.00">Cloud</text>
</a>
</g>
</g>
<!-- Node1&#45;&gt;Node3 -->
<g id="edge2_Node000001_Node000003" class="edge">
<title>Node1&#45;&gt;Node3</title>
<g id="a_edge2_Node000001_Node000003"><a xlink:title=" ">
<path fill="none" stroke="#63b8ff" d="M70.25,-54.92C70.25,-46.99 70.25,-38.06 70.25,-30.78"/>
<polygon fill="#63b8ff" stroke="#63b8ff" points="66.75,-54.67 70.25,-64.67 73.75,-54.67 66.75,-54.67"/>
</a>
</g>
</g>
<!-- Node2 -->
<g id="Node000002" class="node">
<title>Node2</title>
<g id="a_Node000002"><a xlink:href="class_im_fusion_1_1_data.html" target="_top" xlink:title="Virtual base class for representing data from which all concrete data class such as images need to de...">
<polygon fill="white" stroke="#666666" points="112,-141 28.5,-141 28.5,-121.75 112,-121.75 112,-141"/>
<text xml:space="preserve" text-anchor="middle" x="70.25" y="-127.5" font-family="Helvetica,sans-Serif" font-size="10.00">ImFusion::Data</text>
</a>
</g>
</g>
<!-- Node2&#45;&gt;Node1 -->
<g id="edge1_Node000001_Node000002" class="edge">
<title>Node2&#45;&gt;Node1</title>
<g id="a_edge1_Node000001_Node000002"><a xlink:title=" ">
<path fill="none" stroke="#63b8ff" d="M70.25,-110.13C70.25,-101.84 70.25,-92.67 70.25,-86.11"/>
<polygon fill="#63b8ff" stroke="#63b8ff" points="66.75,-110.07 70.25,-120.07 73.75,-110.07 66.75,-110.07"/>
</a>
</g>
</g>
</g>
</svg>
