<?xml version="1.0" encoding="UTF-8" standalone="no"?>
<!DOCTYPE svg PUBLIC "-//W3C//DTD SVG 1.1//EN"
 "http://www.w3.org/Graphics/SVG/1.1/DTD/svg11.dtd">
<!-- Generated by graphviz version 14.1.4 (20260321.0153)
 -->
<!-- Title: ImFusion::LineToIsosurfaceIntersectionController Pages: 1 -->
<svg width="341pt" height="271pt"
 viewBox="0.00 0.00 341.00 271.00" xmlns="http://www.w3.org/2000/svg" xmlns:xlink="http://www.w3.org/1999/xlink">
<g id="graph0" class="graph" transform="scale(1 1) rotate(0) translate(4 266.75)">
<title>ImFusion::LineToIsosurfaceIntersectionController</title>
<!-- Node1 -->
<g id="Node000001" class="node">
<title>Node1</title>
<g id="a_Node000001"><a xlink:title="Controller for the LineToIsosurfaceIntersectionAlgorithm.">
<polygon fill="#999999" stroke="#666666" points="211,-30.5 74.25,-30.5 74.25,0 211,0 211,-30.5"/>
<text xml:space="preserve" text-anchor="start" x="82.25" y="-17" font-family="Helvetica,sans-Serif" font-size="10.00">ImFusion::LineToIsosurface</text>
<text xml:space="preserve" text-anchor="middle" x="142.62" y="-5.75" font-family="Helvetica,sans-Serif" font-size="10.00">IntersectionController</text>
</a>
</g>
</g>
<!-- Node2 -->
<g id="Node000002" class="node">
<title>Node2</title>
<g id="a_Node000002"><a xlink:href="class_im_fusion_1_1_default_algorithm_controller.html" target="_top" xlink:title="Default algorithm controller, with automatically generated GUI This GUI includes: A PropertiesWidget ...">
<polygon fill="white" stroke="#666666" points="210.25,-97 75,-97 75,-66.5 210.25,-66.5 210.25,-97"/>
<text xml:space="preserve" text-anchor="start" x="83" y="-83.5" font-family="Helvetica,sans-Serif" font-size="10.00">ImFusion::DefaultAlgorithm</text>
<text xml:space="preserve" text-anchor="middle" x="142.62" y="-72.25" font-family="Helvetica,sans-Serif" font-size="10.00">Controller</text>
</a>
</g>
</g>
<!-- Node2&#45;&gt;Node1 -->
<g id="edge1_Node000001_Node000002" class="edge">
<title>Node2&#45;&gt;Node1</title>
<g id="a_edge1_Node000001_Node000002"><a xlink:title=" ">
<path fill="none" stroke="#63b8ff" d="M142.62,-54.81C142.62,-46.64 142.62,-37.91 142.62,-30.83"/>
<polygon fill="#63b8ff" stroke="#63b8ff" points="139.13,-54.6 142.63,-64.6 146.13,-54.6 139.13,-54.6"/>
</a>
</g>
</g>
<!-- Node3 -->
<g id="Node000003" class="node">
<title>Node3</title>
<g id="a_Node000003"><a xlink:title=" ">
<polygon fill="white" stroke="#bfbfbf" points="110.75,-152.25 56.5,-152.25 56.5,-133 110.75,-133 110.75,-152.25"/>
<text xml:space="preserve" text-anchor="middle" x="83.62" y="-138.75" font-family="Helvetica,sans-Serif" font-size="10.00">QWidget</text>
</a>
</g>
</g>
<!-- Node3&#45;&gt;Node2 -->
<g id="edge2_Node000002_Node000003" class="edge">
<title>Node3&#45;&gt;Node2</title>
<g id="a_edge2_Node000002_Node000003"><a xlink:title=" ">
<path fill="none" stroke="#63b8ff" d="M100.54,-124.75C109.23,-116.07 119.73,-105.6 128.06,-97.28"/>
<polygon fill="#63b8ff" stroke="#63b8ff" points="98.26,-122.07 93.66,-131.61 103.21,-127.03 98.26,-122.07"/>
</a>
</g>
</g>
<!-- Node4 -->
<g id="Node000004" class="node">
<title>Node4</title>
<g id="a_Node000004"><a xlink:href="class_im_fusion_1_1_algorithm_controller.html" target="_top" xlink:title="Specialization of the Controller interface to be used with Algorithm instances.">
<polygon fill="white" stroke="#666666" points="274.5,-152.25 128.75,-152.25 128.75,-133 274.5,-133 274.5,-152.25"/>
<text xml:space="preserve" text-anchor="middle" x="201.62" y="-138.75" font-family="Helvetica,sans-Serif" font-size="10.00">ImFusion::AlgorithmController</text>
</a>
</g>
</g>
<!-- Node4&#45;&gt;Node2 -->
<g id="edge3_Node000002_Node000004" class="edge">
<title>Node4&#45;&gt;Node2</title>
<g id="a_edge3_Node000002_Node000004"><a xlink:title=" ">
<path fill="none" stroke="#63b8ff" d="M184.71,-124.75C176.02,-116.07 165.52,-105.6 157.19,-97.28"/>
<polygon fill="#63b8ff" stroke="#63b8ff" points="182.04,-127.03 191.59,-131.61 186.99,-122.07 182.04,-127.03"/>
</a>
</g>
</g>
<!-- Node5 -->
<g id="Node000005" class="node">
<title>Node5</title>
<g id="a_Node000005"><a xlink:href="class_im_fusion_1_1_controller.html" target="_top" xlink:title="Base interface for a GUI element within MainWindowBase.">
<polygon fill="white" stroke="#666666" points="185.88,-207.5 81.38,-207.5 81.38,-188.25 185.88,-188.25 185.88,-207.5"/>
<text xml:space="preserve" text-anchor="middle" x="133.62" y="-194" font-family="Helvetica,sans-Serif" font-size="10.00">ImFusion::Controller</text>
</a>
</g>
</g>
<!-- Node5&#45;&gt;Node4 -->
<g id="edge4_Node000004_Node000005" class="edge">
<title>Node5&#45;&gt;Node4</title>
<g id="a_edge4_Node000004_Node000005"><a xlink:title=" ">
<path fill="none" stroke="#63b8ff" d="M153.97,-180.94C165.85,-171.64 180.39,-160.26 190.26,-152.52"/>
<polygon fill="#63b8ff" stroke="#63b8ff" points="152.07,-177.99 146.35,-186.91 156.38,-183.5 152.07,-177.99"/>
</a>
</g>
</g>
<!-- Node6 -->
<g id="Node000006" class="node">
<title>Node6</title>
<g id="a_Node000006"><a xlink:href="class_im_fusion_1_1_configurable.html" target="_top" xlink:title="Base interface for classes that support object serialization from/to Properties objects.">
<polygon fill="white" stroke="#666666" points="117.25,-262.75 0,-262.75 0,-243.5 117.25,-243.5 117.25,-262.75"/>
<text xml:space="preserve" text-anchor="middle" x="58.62" y="-249.25" font-family="Helvetica,sans-Serif" font-size="10.00">ImFusion::Configurable</text>
</a>
</g>
</g>
<!-- Node6&#45;&gt;Node5 -->
<g id="edge5_Node000005_Node000006" class="edge">
<title>Node6&#45;&gt;Node5</title>
<g id="a_edge5_Node000005_Node000006"><a xlink:title=" ">
<path fill="none" stroke="#63b8ff" d="M80.62,-236.51C93.7,-227.22 109.83,-215.77 120.84,-207.95"/>
<polygon fill="#63b8ff" stroke="#63b8ff" points="78.71,-233.57 72.58,-242.22 82.76,-239.28 78.71,-233.57"/>
</a>
</g>
</g>
<!-- Node7 -->
<g id="Node000007" class="node">
<title>Node7</title>
<g id="a_Node000007"><a xlink:href="class_im_fusion_1_1_utils_1_1_not_copyable.html" target="_top" xlink:title="Inherit from this class if your class should be neither copy&#45;constructible nor assignable.">
<polygon fill="white" stroke="#666666" points="281.5,-262.75 135.75,-262.75 135.75,-243.5 281.5,-243.5 281.5,-262.75"/>
<text xml:space="preserve" text-anchor="middle" x="208.62" y="-249.25" font-family="Helvetica,sans-Serif" font-size="10.00">ImFusion::Utils::NotCopyable</text>
</a>
</g>
</g>
<!-- Node7&#45;&gt;Node5 -->
<g id="edge6_Node000005_Node000007" class="edge">
<title>Node7&#45;&gt;Node5</title>
<g id="a_edge6_Node000005_Node000007"><a xlink:title=" ">
<path fill="none" stroke="#8b1a1a" d="M186.63,-236.51C173.55,-227.22 157.42,-215.77 146.41,-207.95"/>
<polygon fill="#8b1a1a" stroke="#8b1a1a" points="184.49,-239.28 194.67,-242.22 188.54,-233.57 184.49,-239.28"/>
</a>
</g>
</g>
<!-- Node8 -->
<g id="Node000008" class="node">
<title>Node8</title>
<g id="a_Node000008"><a xlink:href="class_im_fusion_1_1_signal_receiver.html" target="_top" xlink:title="Base class for classes that can contain slots (i.e.">
<polygon fill="white" stroke="#666666" points="332.88,-207.5 204.38,-207.5 204.38,-188.25 332.88,-188.25 332.88,-207.5"/>
<text xml:space="preserve" text-anchor="middle" x="268.62" y="-194" font-family="Helvetica,sans-Serif" font-size="10.00">ImFusion::SignalReceiver</text>
</a>
</g>
</g>
<!-- Node8&#45;&gt;Node4 -->
<g id="edge7_Node000004_Node000008" class="edge">
<title>Node8&#45;&gt;Node4</title>
<g id="a_edge7_Node000004_Node000008"><a xlink:title=" ">
<path fill="none" stroke="#63b8ff" d="M248.58,-180.94C236.88,-171.64 222.55,-160.26 212.82,-152.52"/>
<polygon fill="#63b8ff" stroke="#63b8ff" points="246.07,-183.42 256.07,-186.9 250.42,-177.94 246.07,-183.42"/>
</a>
</g>
</g>
</g>
</svg>
