<?xml version="1.0" encoding="UTF-8" standalone="no"?>
<!DOCTYPE svg PUBLIC "-//W3C//DTD SVG 1.1//EN"
 "http://www.w3.org/Graphics/SVG/1.1/DTD/svg11.dtd">
<!-- Generated by graphviz version 14.1.4 (20260321.0153)
 -->
<!-- Title: ImFusion::IterativeLinearSystemSolver Pages: 1 -->
<!--zoomable 199 -->

<svg id="main" version="1.1" xmlns="http://www.w3.org/2000/svg" xmlns:xlink="http://www.w3.org/1999/xlink" xml:space="preserve" onload="init(evt)">

<style type="text/css"><![CDATA[
.node, .edge {opacity: 0.7;}
.node.selected, .edge.selected {opacity: 1;}
.edge:hover path { stroke: red; }
.edge:hover polygon { stroke: red; fill: red; }
]]></style>

<defs>
  <circle id="rim" cx="0" cy="0" r="7"/>
  <circle id="rim2" cx="0" cy="0" r="3.5"/>
  <g id="zoomPlus">
    <use xlink:href="#rim" fill="#404040"><set attributeName="fill" to="#808080" begin="zoomplus.mouseover" end="zoomplus.mouseout"/></use>
    <path d="M-4,0h8M0,-4v8" fill="none" stroke="white" stroke-width="1.5" pointer-events="none"/>
  </g>
  <g id="zoomMin">
    <use xlink:href="#rim" fill="#404040"><set attributeName="fill" to="#808080" begin="zoomminus.mouseover" end="zoomminus.mouseout"/></use>
    <path d="M-4,0h8" fill="none" stroke="white" stroke-width="1.5" pointer-events="none"/>
  </g>
  <g id="arrowUp" transform="translate(30 24)">
    <use xlink:href="#rim"/>
    <path pointer-events="none" fill="none" stroke="white" stroke-width="1.5" d="M0,-3.0v7 M-2.5,-0.5L0,-3.0L2.5,-0.5"/>
  </g>
  <g id="arrowRight" transform="rotate(90) translate(36 -43)">
    <use xlink:href="#rim"/>
    <path pointer-events="none" fill="none" stroke="white" stroke-width="1.5" d="M0,-3.0v7 M-2.5,-0.5L0,-3.0L2.5,-0.5"/>
  </g>
  <g id="arrowDown" transform="rotate(180) translate(-30 -48)">
    <use xlink:href="#rim"/>
    <path pointer-events="none" fill="none" stroke="white" stroke-width="1.5" d="M0,-3.0v7 M-2.5,-0.5L0,-3.0L2.5,-0.5"/>
  </g>
  <g id="arrowLeft" transform="rotate(270) translate(-36 17)">
    <use xlink:href="#rim"/>
    <path pointer-events="none" fill="none" stroke="white" stroke-width="1.5" d="M0,-3.0v7 M-2.5,-0.5L0,-3.0L2.5,-0.5"/>
  </g>
  <g id="resetDef">
    <use xlink:href="#rim2" fill="#404040"><set attributeName="fill" to="#808080" begin="reset.mouseover" end="reset.mouseout"/></use>
  </g>
</defs>
<script type="application/ecmascript">
var viewWidth = 514;
var viewHeight = 199;
var sectionId = 'dynsection-0';
</script>
<script type="application/ecmascript" xlink:href="svg.min.js"/>
<svg id="graph" class="graph">
<g id="viewport">
<title>ImFusion::IterativeLinearSystemSolver</title>
<!-- Node1 -->
<g id="Node000001" class="node">
<title>Node1</title>
<g id="a_Node000001"><a xlink:title="Interface for iterative linear system solvers.">
<polygon fill="#999999" stroke="#666666" points="310.25,-116.88 186.25,-116.88 186.25,-86.38 310.25,-86.38 310.25,-116.88"/>
<text xml:space="preserve" text-anchor="start" x="194.25" y="-103.38" font-family="Helvetica,sans-Serif" font-size="10.00">ImFusion::IterativeLinear</text>
<text xml:space="preserve" text-anchor="middle" x="248.25" y="-92.12" font-family="Helvetica,sans-Serif" font-size="10.00">SystemSolver</text>
</a>
</g>
</g>
<!-- Node3 -->
<g id="Node000003" class="node">
<title>Node3</title>
<g id="a_Node000003"><a xlink:href="class_im_fusion_1_1_bi_c_g_stab_eigen_solver.html" target="_top" xlink:title="Bi&#45;conjugate gradient solver with stabilization (Eigen implementation).">
<polygon fill="white" stroke="#666666" points="505.5,-191.25 346.25,-191.25 346.25,-172 505.5,-172 505.5,-191.25"/>
<text xml:space="preserve" text-anchor="middle" x="425.88" y="-177.75" font-family="Helvetica,sans-Serif" font-size="10.00">ImFusion::BiCGStabEigenSolver</text>
</a>
</g>
</g>
<!-- Node1&#45;&gt;Node3 -->
<g id="edge2_Node000001_Node000003" class="edge">
<title>Node1&#45;&gt;Node3</title>
<g id="a_edge2_Node000001_Node000003"><a xlink:title=" ">
<path fill="none" stroke="#63b8ff" d="M278.35,-124C296.89,-137.26 321.92,-153.43 346.25,-163.62 353.74,-166.76 361.87,-169.41 369.97,-171.61"/>
<polygon fill="#63b8ff" stroke="#63b8ff" points="280.65,-121.34 270.51,-118.26 276.52,-126.99 280.65,-121.34"/>
</a>
</g>
</g>
<!-- Node4 -->
<g id="Node000004" class="node">
<title>Node4</title>
<g id="a_Node000004"><a xlink:href="class_im_fusion_1_1_bi_c_g_stab_solver.html" target="_top" xlink:title="Bi&#45;conjugate gradient solver with stabilization.">
<polygon fill="white" stroke="#666666" points="493.12,-154.25 358.62,-154.25 358.62,-135 493.12,-135 493.12,-154.25"/>
<text xml:space="preserve" text-anchor="middle" x="425.88" y="-140.75" font-family="Helvetica,sans-Serif" font-size="10.00">ImFusion::BiCGStabSolver</text>
</a>
</g>
</g>
<!-- Node1&#45;&gt;Node4 -->
<g id="edge3_Node000001_Node000004" class="edge">
<title>Node1&#45;&gt;Node4</title>
<g id="a_edge3_Node000001_Node000004"><a xlink:title=" ">
<path fill="none" stroke="#63b8ff" d="M321.47,-119.54C329.83,-121.6 338.22,-123.66 346.25,-125.62 358.12,-128.53 371,-131.65 382.84,-134.51"/>
<polygon fill="#63b8ff" stroke="#63b8ff" points="322.57,-116.21 312.02,-117.21 320.89,-123 322.57,-116.21"/>
</a>
</g>
</g>
<!-- Node5 -->
<g id="Node000005" class="node">
<title>Node5</title>
<g id="a_Node000005"><a xlink:href="class_im_fusion_1_1_bi_c_g_stab_vienna_c_p_u_solver.html" target="_top" xlink:title="Bi&#45;conjugate gradient solver with stabilization (Vienna CPU implementation).">
<polygon fill="white" stroke="#666666" points="494.25,-116.88 357.5,-116.88 357.5,-86.38 494.25,-86.38 494.25,-116.88"/>
<text xml:space="preserve" text-anchor="start" x="365.5" y="-103.38" font-family="Helvetica,sans-Serif" font-size="10.00">ImFusion::BiCGStabVienna</text>
<text xml:space="preserve" text-anchor="middle" x="425.88" y="-92.12" font-family="Helvetica,sans-Serif" font-size="10.00">CPUSolver</text>
</a>
</g>
</g>
<!-- Node1&#45;&gt;Node5 -->
<g id="edge4_Node000001_Node000005" class="edge">
<title>Node1&#45;&gt;Node5</title>
<g id="a_edge4_Node000001_Node000005"><a xlink:title=" ">
<path fill="none" stroke="#63b8ff" d="M322.13,-101.62C333.74,-101.62 345.71,-101.62 357.19,-101.62"/>
<polygon fill="#63b8ff" stroke="#63b8ff" points="322.19,-98.13 312.19,-101.63 322.19,-105.13 322.19,-98.13"/>
</a>
</g>
</g>
<!-- Node6 -->
<g id="Node000006" class="node">
<title>Node6</title>
<g id="a_Node000006"><a xlink:href="class_im_fusion_1_1_bi_c_g_stab_vienna_g_p_u_solver.html" target="_top" xlink:title="Bi&#45;conjugate gradient solver with stabilization (Vienna GPU implementation).">
<polygon fill="white" stroke="#666666" points="494.25,-67.88 357.5,-67.88 357.5,-37.38 494.25,-37.38 494.25,-67.88"/>
<text xml:space="preserve" text-anchor="start" x="365.5" y="-54.38" font-family="Helvetica,sans-Serif" font-size="10.00">ImFusion::BiCGStabVienna</text>
<text xml:space="preserve" text-anchor="middle" x="425.88" y="-43.12" font-family="Helvetica,sans-Serif" font-size="10.00">GPUSolver</text>
</a>
</g>
</g>
<!-- Node1&#45;&gt;Node6 -->
<g id="edge5_Node000001_Node000006" class="edge">
<title>Node1&#45;&gt;Node6</title>
<g id="a_edge5_Node000001_Node000006"><a xlink:title=" ">
<path fill="none" stroke="#63b8ff" d="M315.91,-83.03C333.23,-78.19 351.72,-73.04 368.45,-68.37"/>
<polygon fill="#63b8ff" stroke="#63b8ff" points="315.45,-79.52 306.76,-85.58 317.33,-86.26 315.45,-79.52"/>
</a>
</g>
</g>
<!-- Node7 -->
<g id="Node000007" class="node">
<title>Node7</title>
<g id="a_Node000007"><a xlink:href="class_im_fusion_1_1_c_g_solver.html" target="_top" xlink:title="Conjugate gradient solver (Eigen implementation).">
<polygon fill="white" stroke="#666666" points="478.5,-19.25 373.25,-19.25 373.25,0 478.5,0 478.5,-19.25"/>
<text xml:space="preserve" text-anchor="middle" x="425.88" y="-5.75" font-family="Helvetica,sans-Serif" font-size="10.00">ImFusion::CGSolver</text>
</a>
</g>
</g>
<!-- Node1&#45;&gt;Node7 -->
<g id="edge6_Node000001_Node000007" class="edge">
<title>Node1&#45;&gt;Node7</title>
<g id="a_edge6_Node000001_Node000007"><a xlink:title=" ">
<path fill="none" stroke="#63b8ff" d="M273.8,-78.62C292.38,-62.41 319.23,-41.38 346.25,-28.62 354.63,-24.67 363.92,-21.49 373.08,-18.95"/>
<polygon fill="#63b8ff" stroke="#63b8ff" points="271.64,-75.86 266.51,-85.13 276.3,-81.08 271.64,-75.86"/>
</a>
</g>
</g>
<!-- Node2 -->
<g id="Node000002" class="node">
<title>Node2</title>
<g id="a_Node000002"><a xlink:href="class_im_fusion_1_1_linear_system_solver.html" target="_top" xlink:title="Interface for linear system solvers.">
<polygon fill="white" stroke="#666666" points="150.25,-111.25 0,-111.25 0,-92 150.25,-92 150.25,-111.25"/>
<text xml:space="preserve" text-anchor="middle" x="75.12" y="-97.75" font-family="Helvetica,sans-Serif" font-size="10.00">ImFusion::LinearSystemSolver</text>
</a>
</g>
</g>
<!-- Node2&#45;&gt;Node1 -->
<g id="edge1_Node000001_Node000002" class="edge">
<title>Node2&#45;&gt;Node1</title>
<g id="a_edge1_Node000001_Node000002"><a xlink:title=" ">
<path fill="none" stroke="#63b8ff" d="M161.99,-101.62C170.01,-101.62 178.02,-101.62 185.75,-101.62"/>
<polygon fill="#63b8ff" stroke="#63b8ff" points="162.2,-98.13 152.2,-101.63 162.2,-105.13 162.2,-98.13"/>
</a>
</g>
</g>
</g>
</svg>

<g id="navigator" transform="translate(0 0)" fill="#404254">
  <rect fill="#f2f5e9" fill-opacity="0.5" stroke="#606060" stroke-width=".5" x="0" y="0" width="60" height="60"/>
  <use id="zoomplus" xlink:href="#zoomPlus" x="17" y="9" onmousedown="handleZoom(evt,'in')"/>
  <use id="zoomminus" xlink:href="#zoomMin" x="42" y="9" onmousedown="handleZoom(evt,'out')"/>
  <use id="reset" xlink:href="#resetDef" x="30" y="36" onmousedown="handleReset()"/>
   <use id="arrowup" xlink:href="#arrowUp" x="0" y="0" onmousedown="handlePan(0,-1)"/>
  <use id="arrowright" xlink:href="#arrowRight" x="0" y="0" onmousedown="handlePan(1,0)"/>
  <use id="arrowdown" xlink:href="#arrowDown" x="0" y="0" onmousedown="handlePan(0,1)"/>
  <use id="arrowleft" xlink:href="#arrowLeft" x="0" y="0" onmousedown="handlePan(-1,0)"/>
</g>
<svg viewBox="0 0 15 15" width="100%" height="30px" preserveAspectRatio="xMaxYMin meet">
 <g id="arrow_out" transform="scale(0.3 0.3)">
  <a xlink:href="class_im_fusion_1_1_iterative_linear_system_solver__inherit__graph_org.svg" target="_base">
   <rect id="button" ry="5" rx="5" y="6" x="6" height="38" width="38"
        fill="#f2f5e9" fill-opacity="0.5" stroke="#606060" stroke-width="1.0"/>
   <path id="arrow"
     d="M 11.500037,31.436501 C 11.940474,20.09759 22.043105,11.32322 32.158766,21.979434 L 37.068811,17.246167 C 37.068811,17.246167 37.088388,32 37.088388,32 L 22.160133,31.978069 C 22.160133,31.978069 26.997745,27.140456 26.997745,27.140456 C 18.528582,18.264221 13.291696,25.230495 11.500037,31.436501 z"
     style="fill:#404040;"/>
  </a>
 </g>
</svg>

<style type='text/css'>
<![CDATA[
[data-mouse-over-selected='false'] { opacity: 0.7; }
[data-mouse-over-selected='true']  { opacity: 1.0; }
]]>
</style>
<script type="application/ecmascript"><![CDATA[
document.addEventListener('DOMContentLoaded', (event) => {
  highlightEdges();
  highlightAdjacentNodes();
});
]]></script>
</svg>
