<?xml version="1.0" encoding="UTF-8" standalone="no"?>
<!DOCTYPE svg PUBLIC "-//W3C//DTD SVG 1.1//EN"
 "http://www.w3.org/Graphics/SVG/1.1/DTD/svg11.dtd">
<!-- Generated by graphviz version 14.1.4 (20260321.0153)
 -->
<!-- Title: ImFusion::Dicom::Module Pages: 1 -->
<svg width="535pt" height="187pt"
 viewBox="0.00 0.00 535.00 187.00" xmlns="http://www.w3.org/2000/svg" xmlns:xlink="http://www.w3.org/1999/xlink">
<g id="graph0" class="graph" transform="scale(1 1) rotate(0) translate(4 182.88)">
<title>ImFusion::Dicom::Module</title>
<!-- Node1 -->
<g id="Node000001" class="node">
<title>Node1</title>
<g id="a_Node000001"><a xlink:title="Base class for Dicom Modules.">
<polygon fill="#999999" stroke="#666666" points="322.25,-104.88 193.75,-104.88 193.75,-85.62 322.25,-85.62 322.25,-104.88"/>
<text xml:space="preserve" text-anchor="middle" x="258" y="-91.38" font-family="Helvetica,sans-Serif" font-size="10.00">ImFusion::Dicom::Module</text>
</a>
</g>
</g>
<!-- Node5 -->
<g id="Node000005" class="node">
<title>Node5</title>
<g id="a_Node000005"><a xlink:href="class_im_fusion_1_1_dicom_1_1_common_module.html" target="_top" xlink:title="Collection of the essential tags describing a Dicom data set combining.">
<polygon fill="white" stroke="#666666" points="526.5,-178.88 358.25,-178.88 358.25,-159.62 526.5,-159.62 526.5,-178.88"/>
<text xml:space="preserve" text-anchor="middle" x="442.38" y="-165.38" font-family="Helvetica,sans-Serif" font-size="10.00">ImFusion::Dicom::CommonModule</text>
</a>
</g>
</g>
<!-- Node1&#45;&gt;Node5 -->
<g id="edge4_Node000001_Node000005" class="edge">
<title>Node1&#45;&gt;Node5</title>
<g id="a_edge4_Node000001_Node000005"><a xlink:title=" ">
<path fill="none" stroke="#63b8ff" d="M283.01,-111.53C302.52,-124.06 331.13,-140.94 358.25,-151.25 366.39,-154.35 375.2,-156.97 383.93,-159.18"/>
<polygon fill="#63b8ff" stroke="#63b8ff" points="284.99,-108.64 274.71,-106.09 281.15,-114.5 284.99,-108.64"/>
</a>
</g>
</g>
<!-- Node6 -->
<g id="Node000006" class="node">
<title>Node6</title>
<g id="a_Node000006"><a xlink:href="class_im_fusion_1_1_dicom_1_1_image_pixel.html" target="_top" xlink:title="Image Pixel Module (PS 3.3 C.7.6.3).">
<polygon fill="white" stroke="#666666" points="515.25,-141.88 369.5,-141.88 369.5,-122.62 515.25,-122.62 515.25,-141.88"/>
<text xml:space="preserve" text-anchor="middle" x="442.38" y="-128.38" font-family="Helvetica,sans-Serif" font-size="10.00">ImFusion::Dicom::ImagePixel</text>
</a>
</g>
</g>
<!-- Node1&#45;&gt;Node6 -->
<g id="edge5_Node000001_Node000006" class="edge">
<title>Node1&#45;&gt;Node6</title>
<g id="a_edge5_Node000001_Node000006"><a xlink:title=" ">
<path fill="none" stroke="#63b8ff" d="M319.99,-107.62C343.26,-112.35 369.49,-117.67 391.6,-122.15"/>
<polygon fill="#63b8ff" stroke="#63b8ff" points="320.81,-104.22 310.32,-105.66 319.42,-111.08 320.81,-104.22"/>
</a>
</g>
</g>
<!-- Node7 -->
<g id="Node000007" class="node">
<title>Node7</title>
<g id="a_Node000007"><a xlink:href="class_im_fusion_1_1_dicom_1_1_image_plane.html" target="_top" xlink:title="Image Plane Module (PS 3.3 C.7.6.2).">
<polygon fill="white" stroke="#666666" points="516.75,-104.88 368,-104.88 368,-85.62 516.75,-85.62 516.75,-104.88"/>
<text xml:space="preserve" text-anchor="middle" x="442.38" y="-91.38" font-family="Helvetica,sans-Serif" font-size="10.00">ImFusion::Dicom::ImagePlane</text>
</a>
</g>
</g>
<!-- Node1&#45;&gt;Node7 -->
<g id="edge6_Node000001_Node000007" class="edge">
<title>Node1&#45;&gt;Node7</title>
<g id="a_edge6_Node000001_Node000007"><a xlink:title=" ">
<path fill="none" stroke="#63b8ff" d="M334,-95.25C345.15,-95.25 356.63,-95.25 367.75,-95.25"/>
<polygon fill="#63b8ff" stroke="#63b8ff" points="334.04,-91.75 324.04,-95.25 334.04,-98.75 334.04,-91.75"/>
</a>
</g>
</g>
<!-- Node8 -->
<g id="Node000008" class="node">
<title>Node8</title>
<g id="a_Node000008"><a xlink:href="class_im_fusion_1_1_dicom_1_1_modality_l_u_t.html" target="_top" xlink:title="Modality LUT Module (PS 3.3 C.11.1).">
<polygon fill="white" stroke="#666666" points="518.62,-67.88 366.12,-67.88 366.12,-48.62 518.62,-48.62 518.62,-67.88"/>
<text xml:space="preserve" text-anchor="middle" x="442.38" y="-54.38" font-family="Helvetica,sans-Serif" font-size="10.00">ImFusion::Dicom::ModalityLUT</text>
</a>
</g>
</g>
<!-- Node1&#45;&gt;Node8 -->
<g id="edge7_Node000001_Node000008" class="edge">
<title>Node1&#45;&gt;Node8</title>
<g id="a_edge7_Node000001_Node000008"><a xlink:title=" ">
<path fill="none" stroke="#63b8ff" d="M319.99,-82.88C343.26,-78.15 369.49,-72.83 391.6,-68.35"/>
<polygon fill="#63b8ff" stroke="#63b8ff" points="319.42,-79.42 310.32,-84.84 320.81,-86.28 319.42,-79.42"/>
</a>
</g>
</g>
<!-- Node9 -->
<g id="Node000009" class="node">
<title>Node9</title>
<g id="a_Node000009"><a xlink:href="class_im_fusion_1_1_dicom_1_1_pixel_spacing_calibration.html" target="_top" xlink:title="Basic Pixel Spacing Calibration Macro (PS 3.3 Table 10.7) Pixel Measures Macro (PS 3....">
<polygon fill="white" stroke="#666666" points="519.38,-30.5 365.38,-30.5 365.38,0 519.38,0 519.38,-30.5"/>
<text xml:space="preserve" text-anchor="start" x="373.38" y="-17" font-family="Helvetica,sans-Serif" font-size="10.00">ImFusion::Dicom::PixelSpacing</text>
<text xml:space="preserve" text-anchor="middle" x="442.38" y="-5.75" font-family="Helvetica,sans-Serif" font-size="10.00">Calibration</text>
</a>
</g>
</g>
<!-- Node1&#45;&gt;Node9 -->
<g id="edge8_Node000001_Node000009" class="edge">
<title>Node1&#45;&gt;Node9</title>
<g id="a_edge8_Node000001_Node000009"><a xlink:title=" ">
<path fill="none" stroke="#63b8ff" d="M283.9,-79.04C303.49,-66.83 331.81,-50.35 358.25,-39.25 365.45,-36.23 373.16,-33.44 380.87,-30.92"/>
<polygon fill="#63b8ff" stroke="#63b8ff" points="282.1,-76.04 275.52,-84.35 285.84,-81.96 282.1,-76.04"/>
</a>
</g>
</g>
<!-- Node2 -->
<g id="Node000002" class="node">
<title>Node2</title>
<g id="a_Node000002"><a xlink:href="class_im_fusion_1_1_dicom_1_1_element_list.html" target="_top" xlink:title="Interface for classes that consist of Elements.">
<polygon fill="white" stroke="#666666" points="153.25,-141.88 4.5,-141.88 4.5,-122.62 153.25,-122.62 153.25,-141.88"/>
<text xml:space="preserve" text-anchor="middle" x="78.88" y="-128.38" font-family="Helvetica,sans-Serif" font-size="10.00">ImFusion::Dicom::ElementList</text>
</a>
</g>
</g>
<!-- Node2&#45;&gt;Node1 -->
<g id="edge1_Node000001_Node000002" class="edge">
<title>Node2&#45;&gt;Node1</title>
<g id="a_edge1_Node000001_Node000002"><a xlink:title=" ">
<path fill="none" stroke="#63b8ff" d="M139.42,-119.81C161.94,-115.11 187.29,-109.81 208.66,-105.35"/>
<polygon fill="#63b8ff" stroke="#63b8ff" points="138.83,-116.36 129.76,-121.83 140.26,-123.21 138.83,-116.36"/>
</a>
</g>
</g>
<!-- Node3 -->
<g id="Node000003" class="node">
<title>Node3</title>
<g id="a_Node000003"><a xlink:href="class_im_fusion_1_1_dicom_1_1_error_recorder.html" target="_top" xlink:title="Error handling interface for the Dicom module.">
<polygon fill="white" stroke="#666666" points="157.75,-104.88 0,-104.88 0,-85.62 157.75,-85.62 157.75,-104.88"/>
<text xml:space="preserve" text-anchor="middle" x="78.88" y="-91.38" font-family="Helvetica,sans-Serif" font-size="10.00">ImFusion::Dicom::ErrorRecorder</text>
</a>
</g>
</g>
<!-- Node3&#45;&gt;Node1 -->
<g id="edge2_Node000001_Node000003" class="edge">
<title>Node3&#45;&gt;Node1</title>
<g id="a_edge2_Node000001_Node000003"><a xlink:title=" ">
<path fill="none" stroke="#63b8ff" d="M169.44,-95.25C177.49,-95.25 185.52,-95.25 193.28,-95.25"/>
<polygon fill="#63b8ff" stroke="#63b8ff" points="169.59,-91.75 159.59,-95.25 169.59,-98.75 169.59,-91.75"/>
</a>
</g>
</g>
<!-- Node4 -->
<g id="Node000004" class="node">
<title>Node4</title>
<g id="a_Node000004"><a xlink:href="class_im_fusion_1_1_utils_1_1_not_copyable.html" target="_top" xlink:title="Inherit from this class if your class should be neither copy&#45;constructible nor assignable.">
<polygon fill="white" stroke="#666666" points="151.75,-67.88 6,-67.88 6,-48.62 151.75,-48.62 151.75,-67.88"/>
<text xml:space="preserve" text-anchor="middle" x="78.88" y="-54.38" font-family="Helvetica,sans-Serif" font-size="10.00">ImFusion::Utils::NotCopyable</text>
</a>
</g>
</g>
<!-- Node4&#45;&gt;Node1 -->
<g id="edge3_Node000001_Node000004" class="edge">
<title>Node4&#45;&gt;Node1</title>
<g id="a_edge3_Node000001_Node000004"><a xlink:title=" ">
<path fill="none" stroke="#63b8ff" d="M139.42,-70.69C161.94,-75.39 187.29,-80.69 208.66,-85.15"/>
<polygon fill="#63b8ff" stroke="#63b8ff" points="140.26,-67.29 129.76,-68.67 138.83,-74.14 140.26,-67.29"/>
</a>
</g>
</g>
</g>
</svg>
