<?xml version="1.0" encoding="UTF-8" standalone="no"?>
<!DOCTYPE svg PUBLIC "-//W3C//DTD SVG 1.1//EN"
 "http://www.w3.org/Graphics/SVG/1.1/DTD/svg11.dtd">
<!-- Generated by graphviz version 14.1.4 (20260321.0153)
 -->
<!-- Title: ImFusion::DeformableIcp Pages: 1 -->
<svg width="290pt" height="83pt"
 viewBox="0.00 0.00 290.00 83.00" xmlns="http://www.w3.org/2000/svg" xmlns:xlink="http://www.w3.org/1999/xlink">
<g id="graph0" class="graph" transform="scale(1 1) rotate(0) translate(4 78.5)">
<title>ImFusion::DeformableIcp</title>
<!-- Node1 -->
<g id="Node000001" class="node">
<title>Node1</title>
<g id="a_Node000001"><a xlink:title="Implements a regularized&#45;least&#45;squares&#45;based iterative closest point (ICP) procedure for deformable r...">
<polygon fill="#999999" stroke="#666666" points="196.75,-19.25 70.5,-19.25 70.5,0 196.75,0 196.75,-19.25"/>
<text xml:space="preserve" text-anchor="middle" x="133.62" y="-5.75" font-family="Helvetica,sans-Serif" font-size="10.00">ImFusion::DeformableIcp</text>
</a>
</g>
</g>
<!-- Node2 -->
<g id="Node000002" class="node">
<title>Node2</title>
<g id="a_Node000002"><a xlink:href="class_im_fusion_1_1_configurable.html" target="_top" xlink:title="Base interface for classes that support object serialization from/to Properties objects.">
<polygon fill="white" stroke="#666666" points="117.25,-74.5 0,-74.5 0,-55.25 117.25,-55.25 117.25,-74.5"/>
<text xml:space="preserve" text-anchor="middle" x="58.62" y="-61" font-family="Helvetica,sans-Serif" font-size="10.00">ImFusion::Configurable</text>
</a>
</g>
</g>
<!-- Node2&#45;&gt;Node1 -->
<g id="edge1_Node000001_Node000002" class="edge">
<title>Node2&#45;&gt;Node1</title>
<g id="a_edge1_Node000001_Node000002"><a xlink:title=" ">
<path fill="none" stroke="#63b8ff" d="M80.62,-48.26C93.7,-38.97 109.83,-27.52 120.84,-19.7"/>
<polygon fill="#63b8ff" stroke="#63b8ff" points="78.71,-45.32 72.58,-53.97 82.76,-51.03 78.71,-45.32"/>
</a>
</g>
</g>
<!-- Node3 -->
<g id="Node000003" class="node">
<title>Node3</title>
<g id="a_Node000003"><a xlink:href="class_im_fusion_1_1_utils_1_1_not_copyable.html" target="_top" xlink:title="Inherit from this class if your class should be neither copy&#45;constructible nor assignable.">
<polygon fill="white" stroke="#666666" points="281.5,-74.5 135.75,-74.5 135.75,-55.25 281.5,-55.25 281.5,-74.5"/>
<text xml:space="preserve" text-anchor="middle" x="208.62" y="-61" font-family="Helvetica,sans-Serif" font-size="10.00">ImFusion::Utils::NotCopyable</text>
</a>
</g>
</g>
<!-- Node3&#45;&gt;Node1 -->
<g id="edge2_Node000001_Node000003" class="edge">
<title>Node3&#45;&gt;Node1</title>
<g id="a_edge2_Node000001_Node000003"><a xlink:title=" ">
<path fill="none" stroke="#8b1a1a" d="M186.63,-48.26C173.55,-38.97 157.42,-27.52 146.41,-19.7"/>
<polygon fill="#8b1a1a" stroke="#8b1a1a" points="184.49,-51.03 194.67,-53.97 188.54,-45.32 184.49,-51.03"/>
</a>
</g>
</g>
</g>
</svg>
