<?xml version="1.0" encoding="UTF-8" standalone="no"?>
<!DOCTYPE svg PUBLIC "-//W3C//DTD SVG 1.1//EN"
 "http://www.w3.org/Graphics/SVG/1.1/DTD/svg11.dtd">
<!-- Generated by graphviz version 14.1.4 (20260321.0153)
 -->
<!-- Title: ImFusion::LabelingManipulator Pages: 1 -->
<svg width="292pt" height="94pt"
 viewBox="0.00 0.00 292.00 94.00" xmlns="http://www.w3.org/2000/svg" xmlns:xlink="http://www.w3.org/1999/xlink">
<g id="graph0" class="graph" transform="scale(1 1) rotate(0) translate(4 89.75)">
<title>ImFusion::LabelingManipulator</title>
<!-- Node1 -->
<g id="Node000001" class="node">
<title>Node1</title>
<g id="a_Node000001"><a xlink:title="Manipulator for circle&#45;based annotations.">
<polygon fill="#999999" stroke="#666666" points="217.75,-19.25 69,-19.25 69,0 217.75,0 217.75,-19.25"/>
<text xml:space="preserve" text-anchor="middle" x="143.38" y="-5.75" font-family="Helvetica,sans-Serif" font-size="10.00">ImFusion::LabelingManipulator</text>
</a>
</g>
</g>
<!-- Node2 -->
<g id="Node000002" class="node">
<title>Node2</title>
<g id="a_Node000002"><a xlink:href="class_im_fusion_1_1_g_u_i_1_1_view_object_1_1_event_handler.html" target="_top" xlink:title="Interface to be used as base class for event handlers of ViewObjects.">
<polygon fill="white" stroke="#666666" points="136.75,-85.75 0,-85.75 0,-55.25 136.75,-55.25 136.75,-85.75"/>
<text xml:space="preserve" text-anchor="start" x="8" y="-72.25" font-family="Helvetica,sans-Serif" font-size="10.00">ImFusion::GUI::ViewObject</text>
<text xml:space="preserve" text-anchor="middle" x="68.38" y="-61" font-family="Helvetica,sans-Serif" font-size="10.00">::EventHandler</text>
</a>
</g>
</g>
<!-- Node2&#45;&gt;Node1 -->
<g id="edge1_Node000001_Node000002" class="edge">
<title>Node2&#45;&gt;Node1</title>
<g id="a_edge1_Node000001_Node000002"><a xlink:title=" ">
<path fill="none" stroke="#63b8ff" d="M95.61,-48.12C108.08,-38.33 122.18,-27.26 131.81,-19.7"/>
<polygon fill="#63b8ff" stroke="#63b8ff" points="93.81,-45.08 88.1,-54.01 98.13,-50.59 93.81,-45.08"/>
</a>
</g>
</g>
<!-- Node3 -->
<g id="Node000003" class="node">
<title>Node3</title>
<g id="a_Node000003"><a xlink:href="class_im_fusion_1_1_signal_receiver.html" target="_top" xlink:title="Base class for classes that can contain slots (i.e.">
<polygon fill="white" stroke="#666666" points="283.62,-80.12 155.12,-80.12 155.12,-60.88 283.62,-60.88 283.62,-80.12"/>
<text xml:space="preserve" text-anchor="middle" x="219.38" y="-66.62" font-family="Helvetica,sans-Serif" font-size="10.00">ImFusion::SignalReceiver</text>
</a>
</g>
</g>
<!-- Node3&#45;&gt;Node1 -->
<g id="edge2_Node000001_Node000003" class="edge">
<title>Node3&#45;&gt;Node1</title>
<g id="a_edge2_Node000001_Node000003"><a xlink:title=" ">
<path fill="none" stroke="#63b8ff" d="M198.88,-53.63C184.82,-42.73 166.67,-28.67 155.03,-19.65"/>
<polygon fill="#63b8ff" stroke="#63b8ff" points="196.59,-56.27 206.64,-59.63 200.87,-50.74 196.59,-56.27"/>
</a>
</g>
</g>
</g>
</svg>
