<?xml version="1.0" encoding="UTF-8" standalone="no"?>
<!DOCTYPE svg PUBLIC "-//W3C//DTD SVG 1.1//EN"
 "http://www.w3.org/Graphics/SVG/1.1/DTD/svg11.dtd">
<!-- Generated by graphviz version 14.1.4 (20260321.0153)
 -->
<!-- Title: ImFusion::TrackedSharedImageSetDisplayDataController Pages: 1 -->
<svg width="352pt" height="204pt"
 viewBox="0.00 0.00 352.00 204.00" xmlns="http://www.w3.org/2000/svg" xmlns:xlink="http://www.w3.org/1999/xlink">

<svg id="main" version="1.1" xmlns="http://www.w3.org/2000/svg" xmlns:xlink="http://www.w3.org/1999/xlink" xml:space="preserve">

<style type="text/css"><![CDATA[
.node, .edge {opacity: 0.7;}
.node.selected, .edge.selected {opacity: 1;}
.edge:hover path { stroke: red; }
.edge:hover polygon { stroke: red; fill: red; }
]]></style>
<script type="application/ecmascript" xlink:href="svg.min.js"/>
<svg id="graph" class="graph">
<g id="graph0" class="graph" transform="scale(1 1) rotate(0) translate(4 200.25)">
<title>ImFusion::TrackedSharedImageSetDisplayDataController</title>
<!-- Node1 -->
<g id="Node000001" class="node">
<title>Node1</title>
<g id="a_Node000001"><a xlink:title="GUI controller for adjusting TrackedSharedImageSet visualization.">
<polygon fill="#999999" stroke="#666666" points="212.88,-30.5 57.38,-30.5 57.38,0 212.88,0 212.88,-30.5"/>
<text xml:space="preserve" text-anchor="start" x="65.38" y="-17" font-family="Helvetica,sans-Serif" font-size="10.00">ImFusion::TrackedSharedImage</text>
<text xml:space="preserve" text-anchor="middle" x="135.12" y="-5.75" font-family="Helvetica,sans-Serif" font-size="10.00">SetDisplayDataController</text>
</a>
</g>
</g>
<!-- Node2 -->
<g id="Node000002" class="node">
<title>Node2</title>
<g id="a_Node000002"><a xlink:title=" ">
<polygon fill="white" stroke="#bfbfbf" points="54.25,-85.75 0,-85.75 0,-66.5 54.25,-66.5 54.25,-85.75"/>
<text xml:space="preserve" text-anchor="middle" x="27.12" y="-72.25" font-family="Helvetica,sans-Serif" font-size="10.00">QWidget</text>
</a>
</g>
</g>
<!-- Node2&#45;&gt;Node1 -->
<g id="edge1_Node000001_Node000002" class="edge">
<title>Node2&#45;&gt;Node1</title>
<g id="a_edge1_Node000001_Node000002"><a xlink:title=" ">
<path fill="none" stroke="#63b8ff" d="M53.22,-60.9C69.96,-51.77 91.62,-39.96 108.47,-30.78"/>
<polygon fill="#63b8ff" stroke="#63b8ff" points="51.96,-57.6 44.86,-65.46 55.31,-63.75 51.96,-57.6"/>
</a>
</g>
</g>
<!-- Node3 -->
<g id="Node000003" class="node">
<title>Node3</title>
<g id="a_Node000003"><a xlink:href="class_im_fusion_1_1_data_controller.html" target="_top" xlink:title="Specialization of the Controller interface to be used with Data instances.">
<polygon fill="white" stroke="#666666" points="197.88,-85.75 72.38,-85.75 72.38,-66.5 197.88,-66.5 197.88,-85.75"/>
<text xml:space="preserve" text-anchor="middle" x="135.12" y="-72.25" font-family="Helvetica,sans-Serif" font-size="10.00">ImFusion::DataController</text>
</a>
</g>
</g>
<!-- Node3&#45;&gt;Node1 -->
<g id="edge2_Node000001_Node000003" class="edge">
<title>Node3&#45;&gt;Node1</title>
<g id="a_edge2_Node000001_Node000003"><a xlink:title=" ">
<path fill="none" stroke="#63b8ff" d="M135.12,-54.92C135.12,-46.99 135.12,-38.06 135.12,-30.78"/>
<polygon fill="#63b8ff" stroke="#63b8ff" points="131.63,-54.67 135.13,-64.67 138.63,-54.67 131.63,-54.67"/>
</a>
</g>
</g>
<!-- Node4 -->
<g id="Node000004" class="node">
<title>Node4</title>
<g id="a_Node000004"><a xlink:href="class_im_fusion_1_1_controller.html" target="_top" xlink:title="Base interface for a GUI element within MainWindowBase.">
<polygon fill="white" stroke="#666666" points="187.38,-141 82.88,-141 82.88,-121.75 187.38,-121.75 187.38,-141"/>
<text xml:space="preserve" text-anchor="middle" x="135.12" y="-127.5" font-family="Helvetica,sans-Serif" font-size="10.00">ImFusion::Controller</text>
</a>
</g>
</g>
<!-- Node4&#45;&gt;Node3 -->
<g id="edge3_Node000003_Node000004" class="edge">
<title>Node4&#45;&gt;Node3</title>
<g id="a_edge3_Node000003_Node000004"><a xlink:title=" ">
<path fill="none" stroke="#63b8ff" d="M135.12,-110.13C135.12,-101.84 135.12,-92.67 135.12,-86.11"/>
<polygon fill="#63b8ff" stroke="#63b8ff" points="131.63,-110.07 135.13,-120.07 138.63,-110.07 131.63,-110.07"/>
</a>
</g>
</g>
<!-- Node5 -->
<g id="Node000005" class="node">
<title>Node5</title>
<g id="a_Node000005"><a xlink:href="class_im_fusion_1_1_configurable.html" target="_top" xlink:title="Base interface for classes that support object serialization from/to Properties objects.">
<polygon fill="white" stroke="#666666" points="118.75,-196.25 1.5,-196.25 1.5,-177 118.75,-177 118.75,-196.25"/>
<text xml:space="preserve" text-anchor="middle" x="60.12" y="-182.75" font-family="Helvetica,sans-Serif" font-size="10.00">ImFusion::Configurable</text>
</a>
</g>
</g>
<!-- Node5&#45;&gt;Node4 -->
<g id="edge4_Node000004_Node000005" class="edge">
<title>Node5&#45;&gt;Node4</title>
<g id="a_edge4_Node000004_Node000005"><a xlink:title=" ">
<path fill="none" stroke="#63b8ff" d="M82.12,-170.01C95.2,-160.72 111.33,-149.27 122.34,-141.45"/>
<polygon fill="#63b8ff" stroke="#63b8ff" points="80.21,-167.07 74.08,-175.72 84.26,-172.78 80.21,-167.07"/>
</a>
</g>
</g>
<!-- Node6 -->
<g id="Node000006" class="node">
<title>Node6</title>
<g id="a_Node000006"><a xlink:href="class_im_fusion_1_1_utils_1_1_not_copyable.html" target="_top" xlink:title="Inherit from this class if your class should be neither copy&#45;constructible nor assignable.">
<polygon fill="white" stroke="#666666" points="283,-196.25 137.25,-196.25 137.25,-177 283,-177 283,-196.25"/>
<text xml:space="preserve" text-anchor="middle" x="210.12" y="-182.75" font-family="Helvetica,sans-Serif" font-size="10.00">ImFusion::Utils::NotCopyable</text>
</a>
</g>
</g>
<!-- Node6&#45;&gt;Node4 -->
<g id="edge5_Node000004_Node000006" class="edge">
<title>Node6&#45;&gt;Node4</title>
<g id="a_edge5_Node000004_Node000006"><a xlink:title=" ">
<path fill="none" stroke="#8b1a1a" d="M188.13,-170.01C175.05,-160.72 158.92,-149.27 147.91,-141.45"/>
<polygon fill="#8b1a1a" stroke="#8b1a1a" points="185.99,-172.78 196.17,-175.72 190.04,-167.07 185.99,-172.78"/>
</a>
</g>
</g>
<!-- Node7 -->
<g id="Node000007" class="node">
<title>Node7</title>
<g id="a_Node000007"><a xlink:href="class_im_fusion_1_1_signal_receiver.html" target="_top" xlink:title="Base class for classes that can contain slots (i.e.">
<polygon fill="white" stroke="#666666" points="344.38,-85.75 215.88,-85.75 215.88,-66.5 344.38,-66.5 344.38,-85.75"/>
<text xml:space="preserve" text-anchor="middle" x="280.12" y="-72.25" font-family="Helvetica,sans-Serif" font-size="10.00">ImFusion::SignalReceiver</text>
</a>
</g>
</g>
<!-- Node7&#45;&gt;Node1 -->
<g id="edge6_Node000001_Node000007" class="edge">
<title>Node7&#45;&gt;Node1</title>
<g id="a_edge6_Node000001_Node000007"><a xlink:title=" ">
<path fill="none" stroke="#63b8ff" d="M247.34,-61.81C224.72,-52.63 194.64,-40.42 171.32,-30.94"/>
<polygon fill="#63b8ff" stroke="#63b8ff" points="245.8,-64.97 256.38,-65.49 248.44,-58.48 245.8,-64.97"/>
</a>
</g>
</g>
</g>
</svg>
</svg>

<style type='text/css'>
<![CDATA[
[data-mouse-over-selected='false'] { opacity: 0.7; }
[data-mouse-over-selected='true']  { opacity: 1.0; }
]]>
</style>
<script type="application/ecmascript"><![CDATA[
document.addEventListener('DOMContentLoaded', (event) => {
  highlightEdges();
  highlightAdjacentNodes();
});
]]></script>
</svg>
