<?xml version="1.0" encoding="UTF-8" standalone="no"?>
<!DOCTYPE svg PUBLIC "-//W3C//DTD SVG 1.1//EN"
 "http://www.w3.org/Graphics/SVG/1.1/DTD/svg11.dtd">
<!-- Generated by graphviz version 14.1.4 (20260321.0153)
 -->
<!-- Title: ImFusion::CurvedViewSettingsController Pages: 1 -->
<svg width="290pt" height="149pt"
 viewBox="0.00 0.00 290.00 149.00" xmlns="http://www.w3.org/2000/svg" xmlns:xlink="http://www.w3.org/1999/xlink">
<g id="graph0" class="graph" transform="scale(1 1) rotate(0) translate(4 145)">
<title>ImFusion::CurvedViewSettingsController</title>
<!-- Node1 -->
<g id="Node000001" class="node">
<title>Node1</title>
<g id="a_Node000001"><a xlink:title="Simple dialog to modify parameters of the curved view.">
<polygon fill="#999999" stroke="#666666" points="160.5,-30.5 8.75,-30.5 8.75,0 160.5,0 160.5,-30.5"/>
<text xml:space="preserve" text-anchor="start" x="16.75" y="-17" font-family="Helvetica,sans-Serif" font-size="10.00">ImFusion::CurvedViewSettings</text>
<text xml:space="preserve" text-anchor="middle" x="84.62" y="-5.75" font-family="Helvetica,sans-Serif" font-size="10.00">Controller</text>
</a>
</g>
</g>
<!-- Node2 -->
<g id="Node000002" class="node">
<title>Node2</title>
<g id="a_Node000002"><a xlink:title=" ">
<polygon fill="white" stroke="#bfbfbf" points="63.75,-85.75 9.5,-85.75 9.5,-66.5 63.75,-66.5 63.75,-85.75"/>
<text xml:space="preserve" text-anchor="middle" x="36.62" y="-72.25" font-family="Helvetica,sans-Serif" font-size="10.00">QWidget</text>
</a>
</g>
</g>
<!-- Node2&#45;&gt;Node1 -->
<g id="edge1_Node000001_Node000002" class="edge">
<title>Node2&#45;&gt;Node1</title>
<g id="a_edge1_Node000001_Node000002"><a xlink:title=" ">
<path fill="none" stroke="#63b8ff" d="M51.05,-57.43C57.99,-48.92 66.21,-38.84 72.78,-30.78"/>
<polygon fill="#63b8ff" stroke="#63b8ff" points="48.48,-55.05 44.87,-65.01 53.9,-59.47 48.48,-55.05"/>
</a>
</g>
</g>
<!-- Node3 -->
<g id="Node000003" class="node">
<title>Node3</title>
<g id="a_Node000003"><a xlink:href="class_im_fusion_1_1_controller.html" target="_top" xlink:title="Base interface for a GUI element within MainWindowBase.">
<polygon fill="white" stroke="#666666" points="185.88,-85.75 81.38,-85.75 81.38,-66.5 185.88,-66.5 185.88,-85.75"/>
<text xml:space="preserve" text-anchor="middle" x="133.62" y="-72.25" font-family="Helvetica,sans-Serif" font-size="10.00">ImFusion::Controller</text>
</a>
</g>
</g>
<!-- Node3&#45;&gt;Node1 -->
<g id="edge2_Node000001_Node000003" class="edge">
<title>Node3&#45;&gt;Node1</title>
<g id="a_edge2_Node000001_Node000003"><a xlink:title=" ">
<path fill="none" stroke="#63b8ff" d="M118.9,-57.43C111.81,-48.92 103.42,-38.84 96.72,-30.78"/>
<polygon fill="#63b8ff" stroke="#63b8ff" points="116.13,-59.57 125.21,-65.02 121.51,-55.09 116.13,-59.57"/>
</a>
</g>
</g>
<!-- Node4 -->
<g id="Node000004" class="node">
<title>Node4</title>
<g id="a_Node000004"><a xlink:href="class_im_fusion_1_1_configurable.html" target="_top" xlink:title="Base interface for classes that support object serialization from/to Properties objects.">
<polygon fill="white" stroke="#666666" points="117.25,-141 0,-141 0,-121.75 117.25,-121.75 117.25,-141"/>
<text xml:space="preserve" text-anchor="middle" x="58.62" y="-127.5" font-family="Helvetica,sans-Serif" font-size="10.00">ImFusion::Configurable</text>
</a>
</g>
</g>
<!-- Node4&#45;&gt;Node3 -->
<g id="edge3_Node000003_Node000004" class="edge">
<title>Node4&#45;&gt;Node3</title>
<g id="a_edge3_Node000003_Node000004"><a xlink:title=" ">
<path fill="none" stroke="#63b8ff" d="M80.62,-114.76C93.7,-105.47 109.83,-94.02 120.84,-86.2"/>
<polygon fill="#63b8ff" stroke="#63b8ff" points="78.71,-111.82 72.58,-120.47 82.76,-117.53 78.71,-111.82"/>
</a>
</g>
</g>
<!-- Node5 -->
<g id="Node000005" class="node">
<title>Node5</title>
<g id="a_Node000005"><a xlink:href="class_im_fusion_1_1_utils_1_1_not_copyable.html" target="_top" xlink:title="Inherit from this class if your class should be neither copy&#45;constructible nor assignable.">
<polygon fill="white" stroke="#666666" points="281.5,-141 135.75,-141 135.75,-121.75 281.5,-121.75 281.5,-141"/>
<text xml:space="preserve" text-anchor="middle" x="208.62" y="-127.5" font-family="Helvetica,sans-Serif" font-size="10.00">ImFusion::Utils::NotCopyable</text>
</a>
</g>
</g>
<!-- Node5&#45;&gt;Node3 -->
<g id="edge4_Node000003_Node000005" class="edge">
<title>Node5&#45;&gt;Node3</title>
<g id="a_edge4_Node000003_Node000005"><a xlink:title=" ">
<path fill="none" stroke="#8b1a1a" d="M186.63,-114.76C173.55,-105.47 157.42,-94.02 146.41,-86.2"/>
<polygon fill="#8b1a1a" stroke="#8b1a1a" points="184.49,-117.53 194.67,-120.47 188.54,-111.82 184.49,-117.53"/>
</a>
</g>
</g>
</g>
</svg>
