<?xml version="1.0" encoding="UTF-8" standalone="no"?>
<!DOCTYPE svg PUBLIC "-//W3C//DTD SVG 1.1//EN"
 "http://www.w3.org/Graphics/SVG/1.1/DTD/svg11.dtd">
<!-- Generated by graphviz version 14.1.4 (20260321.0153)
 -->
<!-- Title: ImFusion::MemImage Pages: 1 -->
<svg width="574pt" height="272pt"
 viewBox="0.00 0.00 574.00 272.00" xmlns="http://www.w3.org/2000/svg" xmlns:xlink="http://www.w3.org/1999/xlink">
<g id="graph0" class="graph" transform="scale(1 1) rotate(0) translate(4 267.88)">
<title>ImFusion::MemImage</title>
<!-- Node1 -->
<g id="Node000001" class="node">
<title>Node1</title>
<g id="a_Node000001"><a xlink:title="Abstract base class for an image residing in main memory.">
<polygon fill="#999999" stroke="#666666" points="390,-135.25 278.75,-135.25 278.75,-116 390,-116 390,-135.25"/>
<text xml:space="preserve" text-anchor="middle" x="334.38" y="-121.75" font-family="Helvetica,sans-Serif" font-size="10.00">ImFusion::MemImage</text>
</a>
</g>
</g>
<!-- Node4 -->
<g id="Node000004" class="node">
<title>Node4</title>
<g id="a_Node000004"><a xlink:href="class_im_fusion_1_1_typed_image.html" target="_top" xlink:title=" ">
<polygon fill="white" stroke="#666666" points="553.75,-263.88 438,-263.88 438,-233.38 553.75,-233.38 553.75,-263.88"/>
<text xml:space="preserve" text-anchor="start" x="446" y="-250.38" font-family="Helvetica,sans-Serif" font-size="10.00">ImFusion::TypedImage</text>
<text xml:space="preserve" text-anchor="middle" x="495.88" y="-239.12" font-family="Helvetica,sans-Serif" font-size="10.00">&lt; unsigned int &gt;</text>
</a>
</g>
</g>
<!-- Node1&#45;&gt;Node4 -->
<g id="edge3_Node000001_Node000004" class="edge">
<title>Node1&#45;&gt;Node4</title>
<g id="a_edge3_Node000001_Node000004"><a xlink:title=" ">
<path fill="none" stroke="#63b8ff" d="M348.79,-144.97C364.86,-166.83 393.67,-202.15 426,-223.62 431.3,-227.14 437.15,-230.24 443.15,-232.95"/>
<polygon fill="#63b8ff" stroke="#63b8ff" points="351.71,-143.03 343.04,-136.94 346.02,-147.11 351.71,-143.03"/>
</a>
</g>
</g>
<!-- Node5 -->
<g id="Node000005" class="node">
<title>Node5</title>
<g id="a_Node000005"><a xlink:href="class_im_fusion_1_1_typed_image.html" target="_top" xlink:title=" ">
<polygon fill="white" stroke="#666666" points="553.75,-214.88 438,-214.88 438,-184.38 553.75,-184.38 553.75,-214.88"/>
<text xml:space="preserve" text-anchor="start" x="446" y="-201.38" font-family="Helvetica,sans-Serif" font-size="10.00">ImFusion::TypedImage</text>
<text xml:space="preserve" text-anchor="middle" x="495.88" y="-190.12" font-family="Helvetica,sans-Serif" font-size="10.00">&lt; unsigned char &gt;</text>
</a>
</g>
</g>
<!-- Node1&#45;&gt;Node5 -->
<g id="edge4_Node000001_Node000005" class="edge">
<title>Node1&#45;&gt;Node5</title>
<g id="a_edge4_Node000001_Node000005"><a xlink:title=" ">
<path fill="none" stroke="#63b8ff" d="M361.97,-141.35C379.75,-151.53 403.87,-164.69 426,-174.62 433.2,-177.85 440.95,-180.99 448.56,-183.88"/>
<polygon fill="#63b8ff" stroke="#63b8ff" points="363.75,-138.34 353.34,-136.36 360.24,-144.4 363.75,-138.34"/>
</a>
</g>
</g>
<!-- Node6 -->
<g id="Node000006" class="node">
<title>Node6</title>
<g id="a_Node000006"><a xlink:href="class_im_fusion_1_1_typed_image.html" target="_top" xlink:title=" ">
<polygon fill="white" stroke="#666666" points="553.75,-165.88 438,-165.88 438,-135.38 553.75,-135.38 553.75,-165.88"/>
<text xml:space="preserve" text-anchor="start" x="446" y="-152.38" font-family="Helvetica,sans-Serif" font-size="10.00">ImFusion::TypedImage</text>
<text xml:space="preserve" text-anchor="middle" x="495.88" y="-141.12" font-family="Helvetica,sans-Serif" font-size="10.00">&lt; float &gt;</text>
</a>
</g>
</g>
<!-- Node1&#45;&gt;Node6 -->
<g id="edge5_Node000001_Node000006" class="edge">
<title>Node1&#45;&gt;Node6</title>
<g id="a_edge5_Node000001_Node000006"><a xlink:title=" ">
<path fill="none" stroke="#63b8ff" d="M401.6,-136C413.59,-137.88 426,-139.83 437.71,-141.67"/>
<polygon fill="#63b8ff" stroke="#63b8ff" points="402.18,-132.55 391.76,-134.46 401.1,-139.47 402.18,-132.55"/>
</a>
</g>
</g>
<!-- Node7 -->
<g id="Node000007" class="node">
<title>Node7</title>
<g id="a_Node000007"><a xlink:href="class_im_fusion_1_1_typed_image.html" target="_top" xlink:title=" ">
<polygon fill="white" stroke="#666666" points="553.75,-116.88 438,-116.88 438,-86.38 553.75,-86.38 553.75,-116.88"/>
<text xml:space="preserve" text-anchor="start" x="446" y="-103.38" font-family="Helvetica,sans-Serif" font-size="10.00">ImFusion::TypedImage</text>
<text xml:space="preserve" text-anchor="middle" x="495.88" y="-92.12" font-family="Helvetica,sans-Serif" font-size="10.00">&lt; uint8_t &gt;</text>
</a>
</g>
</g>
<!-- Node1&#45;&gt;Node7 -->
<g id="edge6_Node000001_Node000007" class="edge">
<title>Node1&#45;&gt;Node7</title>
<g id="a_edge6_Node000001_Node000007"><a xlink:title=" ">
<path fill="none" stroke="#63b8ff" d="M401.6,-115.66C413.59,-113.86 426,-111.99 437.71,-110.23"/>
<polygon fill="#63b8ff" stroke="#63b8ff" points="401.13,-112.19 391.76,-117.14 402.17,-119.11 401.13,-112.19"/>
</a>
</g>
</g>
<!-- Node8 -->
<g id="Node000008" class="node">
<title>Node8</title>
<g id="a_Node000008"><a xlink:href="class_im_fusion_1_1_typed_image.html" target="_top" xlink:title=" ">
<polygon fill="white" stroke="#666666" points="553.75,-67.88 438,-67.88 438,-37.38 553.75,-37.38 553.75,-67.88"/>
<text xml:space="preserve" text-anchor="start" x="446" y="-54.38" font-family="Helvetica,sans-Serif" font-size="10.00">ImFusion::TypedImage</text>
<text xml:space="preserve" text-anchor="middle" x="495.88" y="-43.12" font-family="Helvetica,sans-Serif" font-size="10.00">&lt; int &gt;</text>
</a>
</g>
</g>
<!-- Node1&#45;&gt;Node8 -->
<g id="edge7_Node000001_Node000008" class="edge">
<title>Node1&#45;&gt;Node8</title>
<g id="a_edge7_Node000001_Node000008"><a xlink:title=" ">
<path fill="none" stroke="#63b8ff" d="M362.41,-110.03C380.18,-100.11 404.1,-87.34 426,-77.62 433.33,-74.37 441.22,-71.21 448.95,-68.29"/>
<polygon fill="#63b8ff" stroke="#63b8ff" points="361.03,-106.79 354.05,-114.76 364.47,-112.89 361.03,-106.79"/>
</a>
</g>
</g>
<!-- Node9 -->
<g id="Node000009" class="node">
<title>Node9</title>
<g id="a_Node000009"><a xlink:href="class_im_fusion_1_1_typed_image.html" target="_top" xlink:title="Concrete implementation of a MemImage for a given pixel type.">
<polygon fill="white" stroke="#666666" points="565.75,-19.25 426,-19.25 426,0 565.75,0 565.75,-19.25"/>
<text xml:space="preserve" text-anchor="middle" x="495.88" y="-5.75" font-family="Helvetica,sans-Serif" font-size="10.00">ImFusion::TypedImage&lt; T &gt;</text>
</a>
</g>
</g>
<!-- Node1&#45;&gt;Node9 -->
<g id="edge8_Node000001_Node000009" class="edge">
<title>Node1&#45;&gt;Node9</title>
<g id="a_edge8_Node000001_Node000009"><a xlink:title=" ">
<path fill="none" stroke="#63b8ff" d="M348.3,-106.36C364.08,-84.33 392.81,-48.71 426,-28.62 431.94,-25.03 438.58,-22.1 445.33,-19.71"/>
<polygon fill="#63b8ff" stroke="#63b8ff" points="345.51,-104.24 342.67,-114.45 351.26,-108.24 345.51,-104.24"/>
</a>
</g>
</g>
<!-- Node2 -->
<g id="Node000002" class="node">
<title>Node2</title>
<g id="a_Node000002"><a xlink:href="class_im_fusion_1_1_image.html" target="_top" xlink:title="Base class and interface for images.">
<polygon fill="white" stroke="#666666" points="242.75,-135.25 153.25,-135.25 153.25,-116 242.75,-116 242.75,-135.25"/>
<text xml:space="preserve" text-anchor="middle" x="198" y="-121.75" font-family="Helvetica,sans-Serif" font-size="10.00">ImFusion::Image</text>
</a>
</g>
</g>
<!-- Node2&#45;&gt;Node1 -->
<g id="edge1_Node000001_Node000002" class="edge">
<title>Node2&#45;&gt;Node1</title>
<g id="a_edge1_Node000001_Node000002"><a xlink:title=" ">
<path fill="none" stroke="#63b8ff" d="M254.42,-125.62C262.36,-125.62 270.53,-125.62 278.47,-125.62"/>
<polygon fill="#63b8ff" stroke="#63b8ff" points="254.51,-122.13 244.51,-125.63 254.51,-129.13 254.51,-122.13"/>
</a>
</g>
</g>
<!-- Node3 -->
<g id="Node000003" class="node">
<title>Node3</title>
<g id="a_Node000003"><a xlink:href="class_im_fusion_1_1_configurable.html" target="_top" xlink:title="Base interface for classes that support object serialization from/to Properties objects.">
<polygon fill="white" stroke="#666666" points="117.25,-135.25 0,-135.25 0,-116 117.25,-116 117.25,-135.25"/>
<text xml:space="preserve" text-anchor="middle" x="58.62" y="-121.75" font-family="Helvetica,sans-Serif" font-size="10.00">ImFusion::Configurable</text>
</a>
</g>
</g>
<!-- Node3&#45;&gt;Node2 -->
<g id="edge2_Node000002_Node000003" class="edge">
<title>Node3&#45;&gt;Node2</title>
<g id="a_edge2_Node000002_Node000003"><a xlink:title=" ">
<path fill="none" stroke="#63b8ff" d="M128.99,-125.62C137.15,-125.62 145.31,-125.62 152.98,-125.62"/>
<polygon fill="#63b8ff" stroke="#63b8ff" points="129,-122.13 119,-125.63 129,-129.13 129,-122.13"/>
</a>
</g>
</g>
</g>
</svg>
