<?xml version="1.0" encoding="UTF-8" standalone="no"?>
<!DOCTYPE svg PUBLIC "-//W3C//DTD SVG 1.1//EN"
 "http://www.w3.org/Graphics/SVG/1.1/DTD/svg11.dtd">
<!-- Generated by graphviz version 14.1.4 (20260321.0153)
 -->
<!-- Title: ImFusion::GL::ProgramDecorator Pages: 1 -->
<svg width="372pt" height="138pt"
 viewBox="0.00 0.00 372.00 138.00" xmlns="http://www.w3.org/2000/svg" xmlns:xlink="http://www.w3.org/1999/xlink">

<svg id="main" version="1.1" xmlns="http://www.w3.org/2000/svg" xmlns:xlink="http://www.w3.org/1999/xlink" xml:space="preserve">

<style type="text/css"><![CDATA[
.node, .edge {opacity: 0.7;}
.node.selected, .edge.selected {opacity: 1;}
.edge:hover path { stroke: red; }
.edge:hover polygon { stroke: red; fill: red; }
]]></style>
<script type="application/ecmascript" xlink:href="svg.min.js"/>
<svg id="graph" class="graph">
<g id="graph0" class="graph" transform="scale(1 1) rotate(0) translate(4 134.25)">
<title>ImFusion::GL::ProgramDecorator</title>
<!-- Node1 -->
<g id="Node000001" class="node">
<title>Node1</title>
<g id="a_Node000001"><a xlink:title="Interface to apply custom arguments to a shader program.">
<polygon fill="#999999" stroke="#666666" points="160.75,-74.25 0,-74.25 0,-55 160.75,-55 160.75,-74.25"/>
<text xml:space="preserve" text-anchor="middle" x="80.38" y="-60.75" font-family="Helvetica,sans-Serif" font-size="10.00">ImFusion::GL::ProgramDecorator</text>
</a>
</g>
</g>
<!-- Node2 -->
<g id="Node000002" class="node">
<title>Node2</title>
<g id="a_Node000002"><a xlink:href="class_im_fusion_1_1_clean_decorator.html" target="_top" xlink:title=" ">
<polygon fill="white" stroke="#bfbfbf" points="345.88,-130.25 215.12,-130.25 215.12,-111 345.88,-111 345.88,-130.25"/>
<text xml:space="preserve" text-anchor="middle" x="280.5" y="-116.75" font-family="Helvetica,sans-Serif" font-size="10.00">ImFusion::CleanDecorator</text>
</a>
</g>
</g>
<!-- Node1&#45;&gt;Node2 -->
<g id="edge1_Node000001_Node000002" class="edge">
<title>Node1&#45;&gt;Node2</title>
<g id="a_edge1_Node000001_Node000002"><a xlink:title=" ">
<path fill="none" stroke="#63b8ff" d="M119.81,-78.4C142.1,-86.1 170.82,-95.55 196.75,-102.62 207.1,-105.45 218.28,-108.12 228.97,-110.51"/>
<polygon fill="#63b8ff" stroke="#63b8ff" points="121.13,-75.15 110.53,-75.16 118.82,-81.76 121.13,-75.15"/>
</a>
</g>
</g>
<!-- Node3 -->
<g id="Node000003" class="node">
<title>Node3</title>
<g id="a_Node000003"><a xlink:href="class_im_fusion_1_1_color_decorator.html" target="_top" xlink:title=" ">
<polygon fill="white" stroke="#bfbfbf" points="344.75,-93.25 216.25,-93.25 216.25,-74 344.75,-74 344.75,-93.25"/>
<text xml:space="preserve" text-anchor="middle" x="280.5" y="-79.75" font-family="Helvetica,sans-Serif" font-size="10.00">ImFusion::ColorDecorator</text>
</a>
</g>
</g>
<!-- Node1&#45;&gt;Node3 -->
<g id="edge2_Node000001_Node000003" class="edge">
<title>Node1&#45;&gt;Node3</title>
<g id="a_edge2_Node000001_Node000003"><a xlink:title=" ">
<path fill="none" stroke="#63b8ff" d="M172.27,-73.34C186.96,-74.75 201.89,-76.18 215.75,-77.51"/>
<polygon fill="#63b8ff" stroke="#63b8ff" points="172.9,-69.89 162.61,-72.42 172.23,-76.85 172.9,-69.89"/>
</a>
</g>
</g>
<!-- Node4 -->
<g id="Node000004" class="node">
<title>Node4</title>
<g id="a_Node000004"><a xlink:href="class_im_fusion_1_1_crop_decorator.html" target="_top" xlink:title=" ">
<polygon fill="white" stroke="#bfbfbf" points="343.62,-56.25 217.38,-56.25 217.38,-37 343.62,-37 343.62,-56.25"/>
<text xml:space="preserve" text-anchor="middle" x="280.5" y="-42.75" font-family="Helvetica,sans-Serif" font-size="10.00">ImFusion::CropDecorator</text>
</a>
</g>
</g>
<!-- Node1&#45;&gt;Node4 -->
<g id="edge3_Node000001_Node000004" class="edge">
<title>Node1&#45;&gt;Node4</title>
<g id="a_edge3_Node000001_Node000004"><a xlink:title=" ">
<path fill="none" stroke="#63b8ff" d="M172.53,-56.34C187.57,-54.98 202.86,-53.59 216.99,-52.3"/>
<polygon fill="#63b8ff" stroke="#63b8ff" points="172.25,-52.85 162.61,-57.24 172.89,-59.83 172.25,-52.85"/>
</a>
</g>
</g>
<!-- Node5 -->
<g id="Node000005" class="node">
<title>Node5</title>
<g id="a_Node000005"><a xlink:href="class_im_fusion_1_1_gl_free_form_deformation.html" target="_top" xlink:title="Free Form Deformation.">
<polygon fill="white" stroke="#666666" points="364.25,-19.25 196.75,-19.25 196.75,0 364.25,0 364.25,-19.25"/>
<text xml:space="preserve" text-anchor="middle" x="280.5" y="-5.75" font-family="Helvetica,sans-Serif" font-size="10.00">ImFusion::GlFreeFormDeformation</text>
</a>
</g>
</g>
<!-- Node1&#45;&gt;Node5 -->
<g id="edge4_Node000001_Node000005" class="edge">
<title>Node1&#45;&gt;Node5</title>
<g id="a_edge4_Node000001_Node000005"><a xlink:title=" ">
<path fill="none" stroke="#63b8ff" d="M120.74,-50.96C142.91,-43.53 171.2,-34.48 196.75,-27.62 207.26,-24.8 218.6,-22.11 229.43,-19.71"/>
<polygon fill="#63b8ff" stroke="#63b8ff" points="119.85,-47.57 111.5,-54.09 122.1,-54.2 119.85,-47.57"/>
</a>
</g>
</g>
</g>
</svg>
</svg>

<style type='text/css'>
<![CDATA[
[data-mouse-over-selected='false'] { opacity: 0.7; }
[data-mouse-over-selected='true']  { opacity: 1.0; }
]]>
</style>
<script type="application/ecmascript"><![CDATA[
document.addEventListener('DOMContentLoaded', (event) => {
  highlightEdges();
  highlightAdjacentNodes();
});
]]></script>
</svg>
