<?xml version="1.0" encoding="UTF-8" standalone="no"?>
<!DOCTYPE svg PUBLIC "-//W3C//DTD SVG 1.1//EN"
 "http://www.w3.org/Graphics/SVG/1.1/DTD/svg11.dtd">
<!-- Generated by graphviz version 14.1.4 (20260321.0153)
 -->
<!-- Title: ImFusion::DataLink Pages: 1 -->
<svg width="422pt" height="138pt"
 viewBox="0.00 0.00 422.00 138.00" xmlns="http://www.w3.org/2000/svg" xmlns:xlink="http://www.w3.org/1999/xlink">
<g id="graph0" class="graph" transform="scale(1 1) rotate(0) translate(4 133.75)">
<title>ImFusion::DataLink</title>
<!-- Node1 -->
<g id="Node000001" class="node">
<title>Node1</title>
<g id="a_Node000001"><a xlink:title="Interface for linking properties between multiple Data instances.">
<polygon fill="#999999" stroke="#666666" points="257.38,-129.75 155.88,-129.75 155.88,-110.5 257.38,-110.5 257.38,-129.75"/>
<text xml:space="preserve" text-anchor="middle" x="206.62" y="-116.25" font-family="Helvetica,sans-Serif" font-size="10.00">ImFusion::DataLink</text>
</a>
</g>
</g>
<!-- Node2 -->
<g id="Node000002" class="node">
<title>Node2</title>
<g id="a_Node000002"><a xlink:href="class_im_fusion_1_1_link_pose.html" target="_top" xlink:title="Synchronizes the pose matrix across multiple Data instances.">
<polygon fill="white" stroke="#666666" points="128.12,-74.5 25.12,-74.5 25.12,-55.25 128.12,-55.25 128.12,-74.5"/>
<text xml:space="preserve" text-anchor="middle" x="76.62" y="-61" font-family="Helvetica,sans-Serif" font-size="10.00">ImFusion::LinkPose</text>
</a>
</g>
</g>
<!-- Node1&#45;&gt;Node2 -->
<g id="edge1_Node000001_Node000002" class="edge">
<title>Node1&#45;&gt;Node2</title>
<g id="a_edge1_Node000001_Node000002"><a xlink:title=" ">
<path fill="none" stroke="#63b8ff" d="M174.05,-105.78C150.56,-96.16 119.46,-83.42 98.79,-74.95"/>
<polygon fill="#63b8ff" stroke="#63b8ff" points="172.59,-108.97 183.17,-109.52 175.24,-102.49 172.59,-108.97"/>
</a>
</g>
</g>
<!-- Node4 -->
<g id="Node000004" class="node">
<title>Node4</title>
<g id="a_Node000004"><a xlink:href="class_im_fusion_1_1_link_selection.html" target="_top" xlink:title="Synchronizes the selection of multiple Selectables.">
<polygon fill="white" stroke="#666666" points="267.12,-74.5 146.12,-74.5 146.12,-55.25 267.12,-55.25 267.12,-74.5"/>
<text xml:space="preserve" text-anchor="middle" x="206.62" y="-61" font-family="Helvetica,sans-Serif" font-size="10.00">ImFusion::LinkSelection</text>
</a>
</g>
</g>
<!-- Node1&#45;&gt;Node4 -->
<g id="edge3_Node000001_Node000004" class="edge">
<title>Node1&#45;&gt;Node4</title>
<g id="a_edge3_Node000001_Node000004"><a xlink:title=" ">
<path fill="none" stroke="#63b8ff" d="M206.62,-98.88C206.62,-90.59 206.62,-81.42 206.62,-74.86"/>
<polygon fill="#63b8ff" stroke="#63b8ff" points="203.13,-98.82 206.63,-108.82 210.13,-98.82 203.13,-98.82"/>
</a>
</g>
</g>
<!-- Node5 -->
<g id="Node000005" class="node">
<title>Node5</title>
<g id="a_Node000005"><a xlink:href="class_im_fusion_1_1_link_windowing.html" target="_top" xlink:title="Synchronizes DisplayOptions2d and DisplayOptions3d of multiple images.">
<polygon fill="white" stroke="#666666" points="413.88,-74.5 285.38,-74.5 285.38,-55.25 413.88,-55.25 413.88,-74.5"/>
<text xml:space="preserve" text-anchor="middle" x="349.62" y="-61" font-family="Helvetica,sans-Serif" font-size="10.00">ImFusion::LinkWindowing</text>
</a>
</g>
</g>
<!-- Node1&#45;&gt;Node5 -->
<g id="edge4_Node000001_Node000005" class="edge">
<title>Node1&#45;&gt;Node5</title>
<g id="a_edge4_Node000001_Node000005"><a xlink:title=" ">
<path fill="none" stroke="#63b8ff" d="M241.41,-106.17C267.37,-96.5 302.2,-83.54 325.25,-74.95"/>
<polygon fill="#63b8ff" stroke="#63b8ff" points="240.45,-102.79 232.3,-109.56 242.89,-109.35 240.45,-102.79"/>
</a>
</g>
</g>
<!-- Node3 -->
<g id="Node000003" class="node">
<title>Node3</title>
<g id="a_Node000003"><a xlink:href="class_im_fusion_1_1_link_pose_deformable.html" target="_top" xlink:title="Links the pose of two or more data instances if there is deformation present.">
<polygon fill="white" stroke="#666666" points="153.25,-19.25 0,-19.25 0,0 153.25,0 153.25,-19.25"/>
<text xml:space="preserve" text-anchor="middle" x="76.62" y="-5.75" font-family="Helvetica,sans-Serif" font-size="10.00">ImFusion::LinkPoseDeformable</text>
</a>
</g>
</g>
<!-- Node2&#45;&gt;Node3 -->
<g id="edge2_Node000002_Node000003" class="edge">
<title>Node2&#45;&gt;Node3</title>
<g id="a_edge2_Node000002_Node000003"><a xlink:title=" ">
<path fill="none" stroke="#63b8ff" d="M76.62,-43.63C76.62,-35.34 76.62,-26.17 76.62,-19.61"/>
<polygon fill="#63b8ff" stroke="#63b8ff" points="73.13,-43.57 76.63,-53.57 80.13,-43.57 73.13,-43.57"/>
</a>
</g>
</g>
</g>
</svg>
