<?xml version="1.0" encoding="UTF-8" standalone="no"?>
<!DOCTYPE svg PUBLIC "-//W3C//DTD SVG 1.1//EN"
 "http://www.w3.org/Graphics/SVG/1.1/DTD/svg11.dtd">
<!-- Generated by graphviz version 14.1.4 (20260321.0153)
 -->
<!-- Title: ImFusion::Progress Pages: 1 -->
<!--zoomable 138 -->

<svg id="main" version="1.1" xmlns="http://www.w3.org/2000/svg" xmlns:xlink="http://www.w3.org/1999/xlink" xml:space="preserve" onload="init(evt)">

<style type="text/css"><![CDATA[
.node, .edge {opacity: 0.7;}
.node.selected, .edge.selected {opacity: 1;}
.edge:hover path { stroke: red; }
.edge:hover polygon { stroke: red; fill: red; }
]]></style>

<defs>
  <circle id="rim" cx="0" cy="0" r="7"/>
  <circle id="rim2" cx="0" cy="0" r="3.5"/>
  <g id="zoomPlus">
    <use xlink:href="#rim" fill="#404040"><set attributeName="fill" to="#808080" begin="zoomplus.mouseover" end="zoomplus.mouseout"/></use>
    <path d="M-4,0h8M0,-4v8" fill="none" stroke="white" stroke-width="1.5" pointer-events="none"/>
  </g>
  <g id="zoomMin">
    <use xlink:href="#rim" fill="#404040"><set attributeName="fill" to="#808080" begin="zoomminus.mouseover" end="zoomminus.mouseout"/></use>
    <path d="M-4,0h8" fill="none" stroke="white" stroke-width="1.5" pointer-events="none"/>
  </g>
  <g id="arrowUp" transform="translate(30 24)">
    <use xlink:href="#rim"/>
    <path pointer-events="none" fill="none" stroke="white" stroke-width="1.5" d="M0,-3.0v7 M-2.5,-0.5L0,-3.0L2.5,-0.5"/>
  </g>
  <g id="arrowRight" transform="rotate(90) translate(36 -43)">
    <use xlink:href="#rim"/>
    <path pointer-events="none" fill="none" stroke="white" stroke-width="1.5" d="M0,-3.0v7 M-2.5,-0.5L0,-3.0L2.5,-0.5"/>
  </g>
  <g id="arrowDown" transform="rotate(180) translate(-30 -48)">
    <use xlink:href="#rim"/>
    <path pointer-events="none" fill="none" stroke="white" stroke-width="1.5" d="M0,-3.0v7 M-2.5,-0.5L0,-3.0L2.5,-0.5"/>
  </g>
  <g id="arrowLeft" transform="rotate(270) translate(-36 17)">
    <use xlink:href="#rim"/>
    <path pointer-events="none" fill="none" stroke="white" stroke-width="1.5" d="M0,-3.0v7 M-2.5,-0.5L0,-3.0L2.5,-0.5"/>
  </g>
  <g id="resetDef">
    <use xlink:href="#rim2" fill="#404040"><set attributeName="fill" to="#808080" begin="reset.mouseover" end="reset.mouseout"/></use>
  </g>
</defs>
<script type="application/ecmascript">
var viewWidth = 648;
var viewHeight = 138;
var sectionId = 'dynsection-0';
</script>
<script type="application/ecmascript" xlink:href="svg.min.js"/>
<svg id="graph" class="graph">
<g id="viewport">
<title>ImFusion::Progress</title>
<!-- Node1 -->
<g id="Node000001" class="node">
<title>Node1</title>
<g id="a_Node000001"><a xlink:title="Generic interface to report operation/computation progress.">
<polygon fill="#999999" stroke="#666666" points="283.25,-74.25 181.75,-74.25 181.75,-55 283.25,-55 283.25,-74.25"/>
<text xml:space="preserve" text-anchor="middle" x="232.5" y="-60.75" font-family="Helvetica,sans-Serif" font-size="10.00">ImFusion::Progress</text>
</a>
</g>
</g>
<!-- Node3 -->
<g id="Node000003" class="node">
<title>Node3</title>
<g id="a_Node000003"><a xlink:href="class_im_fusion_1_1_ascii_progress.html" target="_top" xlink:title="Displays a basic progress bar with ASCII characters on the console window.">
<polygon fill="white" stroke="#666666" points="447.38,-130.25 324.12,-130.25 324.12,-111 447.38,-111 447.38,-130.25"/>
<text xml:space="preserve" text-anchor="middle" x="385.75" y="-116.75" font-family="Helvetica,sans-Serif" font-size="10.00">ImFusion::AsciiProgress</text>
</a>
</g>
</g>
<!-- Node1&#45;&gt;Node3 -->
<g id="edge2_Node000001_Node000003" class="edge">
<title>Node1&#45;&gt;Node3</title>
<g id="a_edge2_Node000001_Node000003"><a xlink:title=" ">
<path fill="none" stroke="#63b8ff" d="M263.92,-79.43C280.11,-86.97 300.5,-95.94 319.25,-102.62 327.25,-105.48 335.93,-108.15 344.27,-110.52"/>
<polygon fill="#63b8ff" stroke="#63b8ff" points="265.85,-76.47 255.31,-75.37 262.86,-82.8 265.85,-76.47"/>
</a>
</g>
</g>
<!-- Node4 -->
<g id="Node000004" class="node">
<title>Node4</title>
<g id="a_Node000004"><a xlink:href="class_im_fusion_1_1_nested_progress.html" target="_top" xlink:title="Wrapper class to provide the Progress interface, ensure certain invariants for created tasks and/or o...">
<polygon fill="white" stroke="#666666" points="452.25,-93.25 319.25,-93.25 319.25,-74 452.25,-74 452.25,-93.25"/>
<text xml:space="preserve" text-anchor="middle" x="385.75" y="-79.75" font-family="Helvetica,sans-Serif" font-size="10.00">ImFusion::NestedProgress</text>
</a>
</g>
</g>
<!-- Node1&#45;&gt;Node4 -->
<g id="edge3_Node000001_Node000004" class="edge">
<title>Node1&#45;&gt;Node4</title>
<g id="a_edge3_Node000001_Node000004"><a xlink:title=" ">
<path fill="none" stroke="#63b8ff" d="M294.87,-72.33C302.8,-73.33 310.94,-74.35 318.94,-75.36"/>
<polygon fill="#63b8ff" stroke="#63b8ff" points="295.3,-68.86 284.95,-71.09 294.43,-75.81 295.3,-68.86"/>
</a>
</g>
</g>
<!-- Node6 -->
<g id="Node000006" class="node">
<title>Node6</title>
<g id="a_Node000006"><a xlink:href="class_im_fusion_1_1_progress_dialog.html" target="_top" xlink:title="QDialog&#45;based progress reporter that shows one QProgressBar for each progress task.">
<polygon fill="white" stroke="#666666" points="450.38,-56.25 321.12,-56.25 321.12,-37 450.38,-37 450.38,-56.25"/>
<text xml:space="preserve" text-anchor="middle" x="385.75" y="-42.75" font-family="Helvetica,sans-Serif" font-size="10.00">ImFusion::ProgressDialog</text>
</a>
</g>
</g>
<!-- Node1&#45;&gt;Node6 -->
<g id="edge5_Node000001_Node000006" class="edge">
<title>Node1&#45;&gt;Node6</title>
<g id="a_edge5_Node000001_Node000006"><a xlink:title=" ">
<path fill="none" stroke="#63b8ff" d="M294.61,-57.35C303.24,-56.32 312.14,-55.27 320.83,-54.23"/>
<polygon fill="#63b8ff" stroke="#63b8ff" points="294.46,-53.85 284.95,-58.5 295.29,-60.8 294.46,-53.85"/>
</a>
</g>
</g>
<!-- Node7 -->
<g id="Node000007" class="node">
<title>Node7</title>
<g id="a_Node000007"><a xlink:href="class_im_fusion_1_1_sub_progress.html" target="_top" xlink:title="Wrapper class to report partial progress on an existing Task.">
<polygon fill="white" stroke="#666666" points="445.12,-19.25 326.38,-19.25 326.38,0 445.12,0 445.12,-19.25"/>
<text xml:space="preserve" text-anchor="middle" x="385.75" y="-5.75" font-family="Helvetica,sans-Serif" font-size="10.00">ImFusion::SubProgress</text>
</a>
</g>
</g>
<!-- Node1&#45;&gt;Node7 -->
<g id="edge6_Node000001_Node000007" class="edge">
<title>Node1&#45;&gt;Node7</title>
<g id="a_edge6_Node000001_Node000007"><a xlink:title=" ">
<path fill="none" stroke="#63b8ff" d="M265.07,-49.75C281.09,-42.53 300.98,-34.04 319.25,-27.62 327.37,-24.77 336.19,-22.08 344.64,-19.7"/>
<polygon fill="#63b8ff" stroke="#63b8ff" points="263.68,-46.54 256.04,-53.88 266.59,-52.9 263.68,-46.54"/>
</a>
</g>
</g>
<!-- Node2 -->
<g id="Node000002" class="node">
<title>Node2</title>
<g id="a_Node000002"><a xlink:href="class_im_fusion_1_1_utils_1_1_not_copyable.html" target="_top" xlink:title="Inherit from this class if your class should be neither copy&#45;constructible nor assignable.">
<polygon fill="white" stroke="#666666" points="145.75,-74.25 0,-74.25 0,-55 145.75,-55 145.75,-74.25"/>
<text xml:space="preserve" text-anchor="middle" x="72.88" y="-60.75" font-family="Helvetica,sans-Serif" font-size="10.00">ImFusion::Utils::NotCopyable</text>
</a>
</g>
</g>
<!-- Node2&#45;&gt;Node1 -->
<g id="edge1_Node000001_Node000002" class="edge">
<title>Node2&#45;&gt;Node1</title>
<g id="a_edge1_Node000001_Node000002"><a xlink:title=" ">
<path fill="none" stroke="#8b1a1a" d="M157.48,-64.62C165.73,-64.62 173.9,-64.62 181.65,-64.62"/>
<polygon fill="#8b1a1a" stroke="#8b1a1a" points="157.74,-61.13 147.74,-64.63 157.74,-68.13 157.74,-61.13"/>
</a>
</g>
</g>
<!-- Node5 -->
<g id="Node000005" class="node">
<title>Node5</title>
<g id="a_Node000005"><a xlink:href="class_im_fusion_1_1_watershed_computer.html" target="_top" xlink:title=" ">
<polygon fill="white" stroke="#bfbfbf" points="640,-93.25 488.25,-93.25 488.25,-74 640,-74 640,-93.25"/>
<text xml:space="preserve" text-anchor="middle" x="564.12" y="-79.75" font-family="Helvetica,sans-Serif" font-size="10.00">ImFusion::WatershedComputer</text>
</a>
</g>
</g>
<!-- Node4&#45;&gt;Node5 -->
<g id="edge4_Node000004_Node000005" class="edge">
<title>Node4&#45;&gt;Node5</title>
<g id="a_edge4_Node000004_Node000005"><a xlink:title=" ">
<path fill="none" stroke="#63b8ff" d="M464.09,-83.62C471.96,-83.62 479.94,-83.62 487.78,-83.62"/>
<polygon fill="#63b8ff" stroke="#63b8ff" points="464.19,-80.13 454.19,-83.63 464.19,-87.13 464.19,-80.13"/>
</a>
</g>
</g>
</g>
</svg>

<g id="navigator" transform="translate(0 0)" fill="#404254">
  <rect fill="#f2f5e9" fill-opacity="0.5" stroke="#606060" stroke-width=".5" x="0" y="0" width="60" height="60"/>
  <use id="zoomplus" xlink:href="#zoomPlus" x="17" y="9" onmousedown="handleZoom(evt,'in')"/>
  <use id="zoomminus" xlink:href="#zoomMin" x="42" y="9" onmousedown="handleZoom(evt,'out')"/>
  <use id="reset" xlink:href="#resetDef" x="30" y="36" onmousedown="handleReset()"/>
   <use id="arrowup" xlink:href="#arrowUp" x="0" y="0" onmousedown="handlePan(0,-1)"/>
  <use id="arrowright" xlink:href="#arrowRight" x="0" y="0" onmousedown="handlePan(1,0)"/>
  <use id="arrowdown" xlink:href="#arrowDown" x="0" y="0" onmousedown="handlePan(0,1)"/>
  <use id="arrowleft" xlink:href="#arrowLeft" x="0" y="0" onmousedown="handlePan(-1,0)"/>
</g>
<svg viewBox="0 0 15 15" width="100%" height="30px" preserveAspectRatio="xMaxYMin meet">
 <g id="arrow_out" transform="scale(0.3 0.3)">
  <a xlink:href="class_im_fusion_1_1_progress__inherit__graph_org.svg" target="_base">
   <rect id="button" ry="5" rx="5" y="6" x="6" height="38" width="38"
        fill="#f2f5e9" fill-opacity="0.5" stroke="#606060" stroke-width="1.0"/>
   <path id="arrow"
     d="M 11.500037,31.436501 C 11.940474,20.09759 22.043105,11.32322 32.158766,21.979434 L 37.068811,17.246167 C 37.068811,17.246167 37.088388,32 37.088388,32 L 22.160133,31.978069 C 22.160133,31.978069 26.997745,27.140456 26.997745,27.140456 C 18.528582,18.264221 13.291696,25.230495 11.500037,31.436501 z"
     style="fill:#404040;"/>
  </a>
 </g>
</svg>

<style type='text/css'>
<![CDATA[
[data-mouse-over-selected='false'] { opacity: 0.7; }
[data-mouse-over-selected='true']  { opacity: 1.0; }
]]>
</style>
<script type="application/ecmascript"><![CDATA[
document.addEventListener('DOMContentLoaded', (event) => {
  highlightEdges();
  highlightAdjacentNodes();
});
]]></script>
</svg>
