<?xml version="1.0" encoding="UTF-8" standalone="no"?>
<!DOCTYPE svg PUBLIC "-//W3C//DTD SVG 1.1//EN"
 "http://www.w3.org/Graphics/SVG/1.1/DTD/svg11.dtd">
<!-- Generated by graphviz version 14.1.4 (20260321.0153)
 -->
<!-- Title: ImFusion::Regression Pages: 1 -->
<svg width="476pt" height="101pt"
 viewBox="0.00 0.00 476.00 101.00" xmlns="http://www.w3.org/2000/svg" xmlns:xlink="http://www.w3.org/1999/xlink">
<g id="graph0" class="graph" transform="scale(1 1) rotate(0) translate(4 97.25)">
<title>ImFusion::Regression</title>
<!-- Node1 -->
<g id="Node000001" class="node">
<title>Node1</title>
<g id="a_Node000001"><a xlink:title="Abstract base class for regression.">
<polygon fill="#999999" stroke="#666666" points="265.25,-56.25 153.25,-56.25 153.25,-37 265.25,-37 265.25,-56.25"/>
<text xml:space="preserve" text-anchor="middle" x="209.25" y="-42.75" font-family="Helvetica,sans-Serif" font-size="10.00">ImFusion::Regression</text>
</a>
</g>
</g>
<!-- Node3 -->
<g id="Node000003" class="node">
<title>Node3</title>
<g id="a_Node000003"><a xlink:href="class_im_fusion_1_1_linear_regression.html" target="_top" xlink:title="Class for linear regression.">
<polygon fill="white" stroke="#666666" points="453.75,-93.25 315.5,-93.25 315.5,-74 453.75,-74 453.75,-93.25"/>
<text xml:space="preserve" text-anchor="middle" x="384.62" y="-79.75" font-family="Helvetica,sans-Serif" font-size="10.00">ImFusion::LinearRegression</text>
</a>
</g>
</g>
<!-- Node1&#45;&gt;Node3 -->
<g id="edge2_Node000001_Node000003" class="edge">
<title>Node1&#45;&gt;Node3</title>
<g id="a_edge2_Node000001_Node000003"><a xlink:title=" ">
<path fill="none" stroke="#63b8ff" d="M268.83,-59.13C290.81,-63.82 315.48,-69.08 336.31,-73.53"/>
<polygon fill="#63b8ff" stroke="#63b8ff" points="269.62,-55.72 259.11,-57.05 268.15,-62.56 269.62,-55.72"/>
</a>
</g>
</g>
<!-- Node4 -->
<g id="Node000004" class="node">
<title>Node4</title>
<g id="a_Node000004"><a xlink:href="class_im_fusion_1_1_logistic_regression.html" target="_top" xlink:title="Class for logistic regression.">
<polygon fill="white" stroke="#666666" points="457.5,-56.25 311.75,-56.25 311.75,-37 457.5,-37 457.5,-56.25"/>
<text xml:space="preserve" text-anchor="middle" x="384.62" y="-42.75" font-family="Helvetica,sans-Serif" font-size="10.00">ImFusion::LogisticRegression</text>
</a>
</g>
</g>
<!-- Node1&#45;&gt;Node4 -->
<g id="edge3_Node000001_Node000004" class="edge">
<title>Node1&#45;&gt;Node4</title>
<g id="a_edge3_Node000001_Node000004"><a xlink:title=" ">
<path fill="none" stroke="#63b8ff" d="M277.09,-46.62C288.33,-46.62 300.03,-46.62 311.4,-46.62"/>
<polygon fill="#63b8ff" stroke="#63b8ff" points="277.1,-43.13 267.1,-46.63 277.1,-50.13 277.1,-43.13"/>
</a>
</g>
</g>
<!-- Node5 -->
<g id="Node000005" class="node">
<title>Node5</title>
<g id="a_Node000005"><a xlink:href="class_im_fusion_1_1_multi_logistic_regression.html" target="_top" xlink:title="Class for multiple logistic regressions (to be used for multi&#45;label classification).">
<polygon fill="white" stroke="#666666" points="468,-19.25 301.25,-19.25 301.25,0 468,0 468,-19.25"/>
<text xml:space="preserve" text-anchor="middle" x="384.62" y="-5.75" font-family="Helvetica,sans-Serif" font-size="10.00">ImFusion::MultiLogisticRegression</text>
</a>
</g>
</g>
<!-- Node1&#45;&gt;Node5 -->
<g id="edge4_Node000001_Node000005" class="edge">
<title>Node1&#45;&gt;Node5</title>
<g id="a_edge4_Node000001_Node000005"><a xlink:title=" ">
<path fill="none" stroke="#63b8ff" d="M268.83,-34.12C290.81,-29.43 315.48,-24.17 336.31,-19.72"/>
<polygon fill="#63b8ff" stroke="#63b8ff" points="268.15,-30.69 259.11,-36.2 269.62,-37.53 268.15,-30.69"/>
</a>
</g>
</g>
<!-- Node2 -->
<g id="Node000002" class="node">
<title>Node2</title>
<g id="a_Node000002"><a xlink:href="class_im_fusion_1_1_configurable.html" target="_top" xlink:title="Base interface for classes that support object serialization from/to Properties objects.">
<polygon fill="white" stroke="#666666" points="117.25,-56.25 0,-56.25 0,-37 117.25,-37 117.25,-56.25"/>
<text xml:space="preserve" text-anchor="middle" x="58.62" y="-42.75" font-family="Helvetica,sans-Serif" font-size="10.00">ImFusion::Configurable</text>
</a>
</g>
</g>
<!-- Node2&#45;&gt;Node1 -->
<g id="edge1_Node000001_Node000002" class="edge">
<title>Node2&#45;&gt;Node1</title>
<g id="a_edge1_Node000001_Node000002"><a xlink:title=" ">
<path fill="none" stroke="#63b8ff" d="M128.93,-46.62C137.07,-46.62 145.29,-46.62 153.2,-46.62"/>
<polygon fill="#63b8ff" stroke="#63b8ff" points="129.03,-43.13 119.03,-46.63 129.03,-50.13 129.03,-43.13"/>
</a>
</g>
</g>
</g>
</svg>
