<?xml version="1.0" encoding="UTF-8" standalone="no"?>
<!DOCTYPE svg PUBLIC "-//W3C//DTD SVG 1.1//EN"
 "http://www.w3.org/Graphics/SVG/1.1/DTD/svg11.dtd">
<!-- Generated by graphviz version 14.1.4 (20260321.0153)
 -->
<!-- Title: ImFusion::GlOverlay Pages: 1 -->
<svg width="668pt" height="310pt"
 viewBox="0.00 0.00 668.00 310.00" xmlns="http://www.w3.org/2000/svg" xmlns:xlink="http://www.w3.org/1999/xlink">
<g id="graph0" class="graph" transform="scale(1 1) rotate(0) translate(4 306.25)">
<title>ImFusion::GlOverlay</title>
<!-- Node1 -->
<g id="Node000001" class="node">
<title>Node1</title>
<g id="a_Node000001"><a xlink:title="Abstract base class for OpenGL overlays.">
<polygon fill="#999999" stroke="#666666" points="287.75,-151.25 181.75,-151.25 181.75,-132 287.75,-132 287.75,-151.25"/>
<text xml:space="preserve" text-anchor="middle" x="234.75" y="-137.75" font-family="Helvetica,sans-Serif" font-size="10.00">ImFusion::GlOverlay</text>
</a>
</g>
</g>
<!-- Node3 -->
<g id="Node000003" class="node">
<title>Node3</title>
<g id="a_Node000003"><a xlink:href="class_im_fusion_1_1_gl_fps_overlay.html" target="_top" xlink:title="Overlay showing a basic FPS counter inside an InteractiveView.">
<polygon fill="white" stroke="#666666" points="463.88,-302.25 341.38,-302.25 341.38,-283 463.88,-283 463.88,-302.25"/>
<text xml:space="preserve" text-anchor="middle" x="402.62" y="-288.75" font-family="Helvetica,sans-Serif" font-size="10.00">ImFusion::GlFpsOverlay</text>
</a>
</g>
</g>
<!-- Node1&#45;&gt;Node3 -->
<g id="edge2_Node000001_Node000003" class="edge">
<title>Node1&#45;&gt;Node3</title>
<g id="a_edge2_Node000001_Node000003"><a xlink:title=" ">
<path fill="none" stroke="#63b8ff" d="M243.39,-161.84C255.64,-191.41 282.59,-246.06 323.75,-274.62 328.99,-278.26 334.87,-281.18 340.98,-283.51"/>
<polygon fill="#63b8ff" stroke="#63b8ff" points="246.79,-160.91 239.84,-152.91 240.28,-163.5 246.79,-160.91"/>
</a>
</g>
</g>
<!-- Node4 -->
<g id="Node000004" class="node">
<title>Node4</title>
<g id="a_Node000004"><a xlink:href="class_im_fusion_1_1_gl_lift_chart_overlay.html" target="_top" xlink:title="Overlay displaying a LIFT chart.">
<polygon fill="white" stroke="#666666" points="474.38,-265.25 330.88,-265.25 330.88,-246 474.38,-246 474.38,-265.25"/>
<text xml:space="preserve" text-anchor="middle" x="402.62" y="-251.75" font-family="Helvetica,sans-Serif" font-size="10.00">ImFusion::GlLiftChartOverlay</text>
</a>
</g>
</g>
<!-- Node1&#45;&gt;Node4 -->
<g id="edge3_Node000001_Node000004" class="edge">
<title>Node1&#45;&gt;Node4</title>
<g id="a_edge3_Node000001_Node000004"><a xlink:title=" ">
<path fill="none" stroke="#63b8ff" d="M248.37,-160.96C263.61,-182.73 291.27,-217.53 323.75,-236.62 329.87,-240.22 336.64,-243.14 343.56,-245.51"/>
<polygon fill="#63b8ff" stroke="#63b8ff" points="251.28,-159.02 242.77,-152.7 245.48,-162.95 251.28,-159.02"/>
</a>
</g>
</g>
<!-- Node5 -->
<g id="Node000005" class="node">
<title>Node5</title>
<g id="a_Node000005"><a xlink:href="class_im_fusion_1_1_gl_offscreen_indicators_overlay.html" target="_top" xlink:title="The GlOffscreenIndicatorOverlay provides indicators to data that is outside of the current view area.">
<polygon fill="white" stroke="#666666" points="481.5,-227.88 323.75,-227.88 323.75,-197.38 481.5,-197.38 481.5,-227.88"/>
<text xml:space="preserve" text-anchor="start" x="331.75" y="-214.38" font-family="Helvetica,sans-Serif" font-size="10.00">ImFusion::GlOffscreenIndicators</text>
<text xml:space="preserve" text-anchor="middle" x="402.62" y="-203.12" font-family="Helvetica,sans-Serif" font-size="10.00">Overlay</text>
</a>
</g>
</g>
<!-- Node1&#45;&gt;Node5 -->
<g id="edge4_Node000001_Node000005" class="edge">
<title>Node1&#45;&gt;Node5</title>
<g id="a_edge4_Node000001_Node000005"><a xlink:title=" ">
<path fill="none" stroke="#63b8ff" d="M262.72,-157.26C279.84,-166.8 302.68,-178.81 323.75,-187.62 331.61,-190.91 340.06,-194.03 348.4,-196.88"/>
<polygon fill="#63b8ff" stroke="#63b8ff" points="264.6,-154.3 254.18,-152.43 261.16,-160.4 264.6,-154.3"/>
</a>
</g>
</g>
<!-- Node6 -->
<g id="Node000006" class="node">
<title>Node6</title>
<g id="a_Node000006"><a xlink:href="class_im_fusion_1_1_gl_orientation_mesh_overlay.html" target="_top" xlink:title="The GlOrientationMeshOverlay class draws an overlay that shows the current camera orientation of a vi...">
<polygon fill="white" stroke="#666666" points="474.38,-178.88 330.88,-178.88 330.88,-148.38 474.38,-148.38 474.38,-178.88"/>
<text xml:space="preserve" text-anchor="start" x="338.88" y="-165.38" font-family="Helvetica,sans-Serif" font-size="10.00">ImFusion::GlOrientationMesh</text>
<text xml:space="preserve" text-anchor="middle" x="402.62" y="-154.12" font-family="Helvetica,sans-Serif" font-size="10.00">Overlay</text>
</a>
</g>
</g>
<!-- Node1&#45;&gt;Node6 -->
<g id="edge5_Node000001_Node000006" class="edge">
<title>Node1&#45;&gt;Node6</title>
<g id="a_edge5_Node000001_Node000006"><a xlink:title=" ">
<path fill="none" stroke="#63b8ff" d="M299.45,-150.07C309.57,-151.42 320.1,-152.81 330.38,-154.18"/>
<polygon fill="#63b8ff" stroke="#63b8ff" points="300.11,-146.63 289.73,-148.78 299.19,-153.57 300.11,-146.63"/>
</a>
</g>
</g>
<!-- Node7 -->
<g id="Node000007" class="node">
<title>Node7</title>
<g id="a_Node000007"><a xlink:href="class_im_fusion_1_1_gl_plot_legend.html" target="_top" xlink:title="Display legend of a plot view as an overlay Color and marker styles replicate the plot style,...">
<polygon fill="white" stroke="#666666" points="463.12,-130.25 342.12,-130.25 342.12,-111 463.12,-111 463.12,-130.25"/>
<text xml:space="preserve" text-anchor="middle" x="402.62" y="-116.75" font-family="Helvetica,sans-Serif" font-size="10.00">ImFusion::GlPlotLegend</text>
</a>
</g>
</g>
<!-- Node1&#45;&gt;Node7 -->
<g id="edge6_Node000001_Node000007" class="edge">
<title>Node1&#45;&gt;Node7</title>
<g id="a_edge6_Node000001_Node000007"><a xlink:title=" ">
<path fill="none" stroke="#63b8ff" d="M299.63,-133.54C313.45,-131.79 328.02,-129.94 341.68,-128.21"/>
<polygon fill="#63b8ff" stroke="#63b8ff" points="299.22,-130.06 289.74,-134.79 300.1,-137.01 299.22,-130.06"/>
</a>
</g>
</g>
<!-- Node8 -->
<g id="Node000008" class="node">
<title>Node8</title>
<g id="a_Node000008"><a xlink:href="class_im_fusion_1_1_gl_scalar_bar_overlay.html" target="_top" xlink:title="Overlay for displaying one or multiple named scalar values represented as colored bars.">
<polygon fill="white" stroke="#666666" points="477,-93.25 328.25,-93.25 328.25,-74 477,-74 477,-93.25"/>
<text xml:space="preserve" text-anchor="middle" x="402.62" y="-79.75" font-family="Helvetica,sans-Serif" font-size="10.00">ImFusion::GlScalarBarOverlay</text>
</a>
</g>
</g>
<!-- Node1&#45;&gt;Node8 -->
<g id="edge7_Node000001_Node000008" class="edge">
<title>Node1&#45;&gt;Node8</title>
<g id="a_edge7_Node000001_Node000008"><a xlink:title=" ">
<path fill="none" stroke="#63b8ff" d="M265.16,-126.47C281.98,-118.26 303.67,-108.43 323.75,-101.62 332.55,-98.64 342.09,-95.98 351.36,-93.69"/>
<polygon fill="#63b8ff" stroke="#63b8ff" points="263.62,-123.33 256.23,-130.91 266.74,-129.6 263.62,-123.33"/>
</a>
</g>
</g>
<!-- Node9 -->
<g id="Node000009" class="node">
<title>Node9</title>
<g id="a_Node000009"><a xlink:href="class_im_fusion_1_1_gl_text_overlay.html" target="_top" xlink:title="Renderer for displaying text as view overlay.">
<polygon fill="white" stroke="#666666" points="465,-56.25 340.25,-56.25 340.25,-37 465,-37 465,-56.25"/>
<text xml:space="preserve" text-anchor="middle" x="402.62" y="-42.75" font-family="Helvetica,sans-Serif" font-size="10.00">ImFusion::GlTextOverlay</text>
</a>
</g>
</g>
<!-- Node1&#45;&gt;Node9 -->
<g id="edge8_Node000001_Node000009" class="edge">
<title>Node1&#45;&gt;Node9</title>
<g id="a_edge8_Node000001_Node000009"><a xlink:title=" ">
<path fill="none" stroke="#63b8ff" d="M251.63,-123.25C267.95,-105.55 294.97,-79.35 323.75,-64.62 329.93,-61.46 336.66,-58.85 343.5,-56.69"/>
<polygon fill="#63b8ff" stroke="#63b8ff" points="249.2,-120.72 245.13,-130.5 254.41,-125.39 249.2,-120.72"/>
</a>
</g>
</g>
<!-- Node11 -->
<g id="Node000011" class="node">
<title>Node11</title>
<g id="a_Node000011"><a xlink:href="class_im_fusion_1_1_gl_vitals_overlay.html" target="_top" xlink:title="Overlay illustrating the ECG and other vitals data signals together with the current focus frame.">
<polygon fill="white" stroke="#666666" points="468,-19.25 337.25,-19.25 337.25,0 468,0 468,-19.25"/>
<text xml:space="preserve" text-anchor="middle" x="402.62" y="-5.75" font-family="Helvetica,sans-Serif" font-size="10.00">ImFusion::GlVitalsOverlay</text>
</a>
</g>
</g>
<!-- Node1&#45;&gt;Node11 -->
<g id="edge10_Node000001_Node000011" class="edge">
<title>Node1&#45;&gt;Node11</title>
<g id="a_edge10_Node000001_Node000011"><a xlink:title=" ">
<path fill="none" stroke="#63b8ff" d="M245.73,-121.36C259.57,-95.45 287.08,-51.14 323.75,-27.62 328.66,-24.48 334.05,-21.88 339.63,-19.73"/>
<polygon fill="#63b8ff" stroke="#63b8ff" points="242.65,-119.68 241.19,-130.18 248.88,-122.89 242.65,-119.68"/>
</a>
</g>
</g>
<!-- Node2 -->
<g id="Node000002" class="node">
<title>Node2</title>
<g id="a_Node000002"><a xlink:href="class_im_fusion_1_1_utils_1_1_not_copyable.html" target="_top" xlink:title="Inherit from this class if your class should be neither copy&#45;constructible nor assignable.">
<polygon fill="white" stroke="#666666" points="145.75,-151.25 0,-151.25 0,-132 145.75,-132 145.75,-151.25"/>
<text xml:space="preserve" text-anchor="middle" x="72.88" y="-137.75" font-family="Helvetica,sans-Serif" font-size="10.00">ImFusion::Utils::NotCopyable</text>
</a>
</g>
</g>
<!-- Node2&#45;&gt;Node1 -->
<g id="edge1_Node000001_Node000002" class="edge">
<title>Node2&#45;&gt;Node1</title>
<g id="a_edge1_Node000001_Node000002"><a xlink:title=" ">
<path fill="none" stroke="#8b1a1a" d="M157.37,-141.62C165.51,-141.62 173.6,-141.62 181.3,-141.62"/>
<polygon fill="#8b1a1a" stroke="#8b1a1a" points="157.38,-138.13 147.38,-141.63 157.38,-145.13 157.38,-138.13"/>
</a>
</g>
</g>
<!-- Node10 -->
<g id="Node000010" class="node">
<title>Node10</title>
<g id="a_Node000010"><a xlink:href="class_im_fusion_1_1_gl_image_intensifier_angle_overlay.html" target="_top" xlink:title="Text overlay representing the current view&#39;s matrix in the form of image intensifier angles,...">
<polygon fill="white" stroke="#666666" points="659.5,-61.88 517.5,-61.88 517.5,-31.38 659.5,-31.38 659.5,-61.88"/>
<text xml:space="preserve" text-anchor="start" x="525.5" y="-48.38" font-family="Helvetica,sans-Serif" font-size="10.00">ImFusion::GlImageIntensifier</text>
<text xml:space="preserve" text-anchor="middle" x="588.5" y="-37.12" font-family="Helvetica,sans-Serif" font-size="10.00">AngleOverlay</text>
</a>
</g>
</g>
<!-- Node9&#45;&gt;Node10 -->
<g id="edge9_Node000009_Node000010" class="edge">
<title>Node9&#45;&gt;Node10</title>
<g id="a_edge9_Node000009_Node000010"><a xlink:title=" ">
<path fill="none" stroke="#63b8ff" d="M476.84,-46.62C490.08,-46.62 503.87,-46.62 517.04,-46.62"/>
<polygon fill="#63b8ff" stroke="#63b8ff" points="476.88,-43.13 466.88,-46.63 476.88,-50.13 476.88,-43.13"/>
</a>
</g>
</g>
</g>
</svg>
