<?xml version="1.0" encoding="UTF-8" standalone="no"?>
<!DOCTYPE svg PUBLIC "-//W3C//DTD SVG 1.1//EN"
 "http://www.w3.org/Graphics/SVG/1.1/DTD/svg11.dtd">
<!-- Generated by graphviz version 14.1.4 (20260321.0153)
 -->
<!-- Title: ImFusion::GlPointBasedAnnotation Pages: 1 -->
<!--zoomable 526 -->

<svg id="main" version="1.1" xmlns="http://www.w3.org/2000/svg" xmlns:xlink="http://www.w3.org/1999/xlink" xml:space="preserve" onload="init(evt)">

<style type="text/css"><![CDATA[
.node, .edge {opacity: 0.7;}
.node.selected, .edge.selected {opacity: 1;}
.edge:hover path { stroke: red; }
.edge:hover polygon { stroke: red; fill: red; }
]]></style>

<defs>
  <circle id="rim" cx="0" cy="0" r="7"/>
  <circle id="rim2" cx="0" cy="0" r="3.5"/>
  <g id="zoomPlus">
    <use xlink:href="#rim" fill="#404040"><set attributeName="fill" to="#808080" begin="zoomplus.mouseover" end="zoomplus.mouseout"/></use>
    <path d="M-4,0h8M0,-4v8" fill="none" stroke="white" stroke-width="1.5" pointer-events="none"/>
  </g>
  <g id="zoomMin">
    <use xlink:href="#rim" fill="#404040"><set attributeName="fill" to="#808080" begin="zoomminus.mouseover" end="zoomminus.mouseout"/></use>
    <path d="M-4,0h8" fill="none" stroke="white" stroke-width="1.5" pointer-events="none"/>
  </g>
  <g id="arrowUp" transform="translate(30 24)">
    <use xlink:href="#rim"/>
    <path pointer-events="none" fill="none" stroke="white" stroke-width="1.5" d="M0,-3.0v7 M-2.5,-0.5L0,-3.0L2.5,-0.5"/>
  </g>
  <g id="arrowRight" transform="rotate(90) translate(36 -43)">
    <use xlink:href="#rim"/>
    <path pointer-events="none" fill="none" stroke="white" stroke-width="1.5" d="M0,-3.0v7 M-2.5,-0.5L0,-3.0L2.5,-0.5"/>
  </g>
  <g id="arrowDown" transform="rotate(180) translate(-30 -48)">
    <use xlink:href="#rim"/>
    <path pointer-events="none" fill="none" stroke="white" stroke-width="1.5" d="M0,-3.0v7 M-2.5,-0.5L0,-3.0L2.5,-0.5"/>
  </g>
  <g id="arrowLeft" transform="rotate(270) translate(-36 17)">
    <use xlink:href="#rim"/>
    <path pointer-events="none" fill="none" stroke="white" stroke-width="1.5" d="M0,-3.0v7 M-2.5,-0.5L0,-3.0L2.5,-0.5"/>
  </g>
  <g id="resetDef">
    <use xlink:href="#rim2" fill="#404040"><set attributeName="fill" to="#808080" begin="reset.mouseover" end="reset.mouseout"/></use>
  </g>
</defs>
<script type="application/ecmascript">
var viewWidth = 1238;
var viewHeight = 526;
var sectionId = 'dynsection-0';
</script>
<script type="application/ecmascript" xlink:href="svg.min.js"/>
<svg id="graph" class="graph">
<g id="viewport">
<title>ImFusion::GlPointBasedAnnotation</title>
<!-- Node1 -->
<g id="Node000001" class="node">
<title>Node1</title>
<g id="a_Node000001"><a xlink:title="Base class for implementing point&#45;based annotations.">
<polygon fill="#999999" stroke="#666666" points="658.75,-311.25 489.75,-311.25 489.75,-292 658.75,-292 658.75,-311.25"/>
<text xml:space="preserve" text-anchor="middle" x="574.25" y="-297.75" font-family="Helvetica,sans-Serif" font-size="10.00">ImFusion::GlPointBasedAnnotation</text>
</a>
</g>
</g>
<!-- Node6 -->
<g id="Node000006" class="node">
<title>Node6</title>
<g id="a_Node000006"><a xlink:href="class_im_fusion_1_1_gl_angle.html" target="_top" xlink:title="Angle annotation.">
<polygon fill="white" stroke="#666666" points="812.75,-518.25 715.75,-518.25 715.75,-499 812.75,-499 812.75,-518.25"/>
<text xml:space="preserve" text-anchor="middle" x="764.25" y="-504.75" font-family="Helvetica,sans-Serif" font-size="10.00">ImFusion::GlAngle</text>
</a>
</g>
</g>
<!-- Node1&#45;&gt;Node6 -->
<g id="edge5_Node000001_Node000006" class="edge">
<title>Node1&#45;&gt;Node6</title>
<g id="a_edge5_Node000001_Node000006"><a xlink:title=" ">
<path fill="none" stroke="#63b8ff" d="M582.41,-322.27C597.06,-361.39 634.29,-446.36 694.75,-490.62 700.9,-495.13 708.09,-498.51 715.45,-501.04"/>
<polygon fill="#63b8ff" stroke="#63b8ff" points="585.79,-321.33 579.1,-313.12 579.21,-323.71 585.79,-321.33"/>
</a>
</g>
</g>
<!-- Node7 -->
<g id="Node000007" class="node">
<title>Node7</title>
<g id="a_Node000007"><a xlink:href="class_im_fusion_1_1_gl_arrow.html" target="_top" xlink:title="Line segment annotation.">
<polygon fill="white" stroke="#666666" points="813.12,-481.25 715.38,-481.25 715.38,-462 813.12,-462 813.12,-481.25"/>
<text xml:space="preserve" text-anchor="middle" x="764.25" y="-467.75" font-family="Helvetica,sans-Serif" font-size="10.00">ImFusion::GlArrow</text>
</a>
</g>
</g>
<!-- Node1&#45;&gt;Node7 -->
<g id="edge6_Node000001_Node000007" class="edge">
<title>Node1&#45;&gt;Node7</title>
<g id="a_edge6_Node000001_Node000007"><a xlink:title=" ">
<path fill="none" stroke="#63b8ff" d="M585.44,-321.79C603.09,-354.61 642.53,-419.36 694.75,-453.62 700.92,-457.67 707.96,-460.81 715.12,-463.25"/>
<polygon fill="#63b8ff" stroke="#63b8ff" points="588.56,-320.19 580.82,-312.95 582.35,-323.44 588.56,-320.19"/>
</a>
</g>
</g>
<!-- Node8 -->
<g id="Node000008" class="node">
<title>Node8</title>
<g id="a_Node000008"><a xlink:href="class_im_fusion_1_1_gl_axis.html" target="_top" xlink:title="Cut Line annotation.">
<polygon fill="white" stroke="#666666" points="810.12,-444.25 718.38,-444.25 718.38,-425 810.12,-425 810.12,-444.25"/>
<text xml:space="preserve" text-anchor="middle" x="764.25" y="-430.75" font-family="Helvetica,sans-Serif" font-size="10.00">ImFusion::GlAxis</text>
</a>
</g>
</g>
<!-- Node1&#45;&gt;Node8 -->
<g id="edge7_Node000001_Node000008" class="edge">
<title>Node1&#45;&gt;Node8</title>
<g id="a_edge7_Node000001_Node000008"><a xlink:title=" ">
<path fill="none" stroke="#63b8ff" d="M589.55,-320.44C610.04,-346.07 650.23,-391.63 694.75,-416.62 701.93,-420.66 710.05,-423.81 718.12,-426.27"/>
<polygon fill="#63b8ff" stroke="#63b8ff" points="592.55,-318.59 583.63,-312.87 587.03,-322.9 592.55,-318.59"/>
</a>
</g>
</g>
<!-- Node9 -->
<g id="Node000009" class="node">
<title>Node9</title>
<g id="a_Node000009"><a xlink:href="class_im_fusion_1_1_gl_ball.html" target="_top" xlink:title="Ball annotation, based on GlCircle annotation (basically three circles in 3 orientations).">
<polygon fill="white" stroke="#666666" points="808.62,-407.25 719.88,-407.25 719.88,-388 808.62,-388 808.62,-407.25"/>
<text xml:space="preserve" text-anchor="middle" x="764.25" y="-393.75" font-family="Helvetica,sans-Serif" font-size="10.00">ImFusion::GlBall</text>
</a>
</g>
</g>
<!-- Node1&#45;&gt;Node9 -->
<g id="edge8_Node000001_Node000009" class="edge">
<title>Node1&#45;&gt;Node9</title>
<g id="a_edge8_Node000001_Node000009"><a xlink:title=" ">
<path fill="none" stroke="#63b8ff" d="M596.6,-318.62C619.6,-336.19 657.89,-363.27 694.75,-379.62 702.51,-383.07 711.06,-385.96 719.41,-388.35"/>
<polygon fill="#63b8ff" stroke="#63b8ff" points="598.96,-316.03 588.92,-312.67 594.67,-321.56 598.96,-316.03"/>
</a>
</g>
</g>
<!-- Node10 -->
<g id="Node000010" class="node">
<title>Node10</title>
<g id="a_Node000010"><a xlink:href="class_im_fusion_1_1_gl_curve.html" target="_top" xlink:title="Spline annotation.">
<polygon fill="white" stroke="#666666" points="813.5,-370.25 715,-370.25 715,-351 813.5,-351 813.5,-370.25"/>
<text xml:space="preserve" text-anchor="middle" x="764.25" y="-356.75" font-family="Helvetica,sans-Serif" font-size="10.00">ImFusion::GlCurve</text>
</a>
</g>
</g>
<!-- Node1&#45;&gt;Node10 -->
<g id="edge9_Node000001_Node000010" class="edge">
<title>Node1&#45;&gt;Node10</title>
<g id="a_edge9_Node000001_Node000010"><a xlink:title=" ">
<path fill="none" stroke="#63b8ff" d="M613.43,-315.53C636.78,-323.83 667.33,-334.33 694.75,-342.62 703.81,-345.37 713.62,-348.09 722.91,-350.55"/>
<polygon fill="#63b8ff" stroke="#63b8ff" points="614.61,-312.23 604.02,-312.16 612.25,-318.82 614.61,-312.23"/>
</a>
</g>
</g>
<!-- Node11 -->
<g id="Node000011" class="node">
<title>Node11</title>
<g id="a_Node000011"><a xlink:href="class_im_fusion_1_1_gl_cut_line.html" target="_top" xlink:title="Cut Line annotation.">
<polygon fill="white" stroke="#666666" points="817.25,-333.25 711.25,-333.25 711.25,-314 817.25,-314 817.25,-333.25"/>
<text xml:space="preserve" text-anchor="middle" x="764.25" y="-319.75" font-family="Helvetica,sans-Serif" font-size="10.00">ImFusion::GlCutLine</text>
</a>
</g>
</g>
<!-- Node1&#45;&gt;Node11 -->
<g id="edge10_Node000001_Node000011" class="edge">
<title>Node1&#45;&gt;Node11</title>
<g id="a_edge10_Node000001_Node000011"><a xlink:title=" ">
<path fill="none" stroke="#63b8ff" d="M670.27,-312.74C684.25,-314.38 698.2,-316.01 710.88,-317.5"/>
<polygon fill="#63b8ff" stroke="#63b8ff" points="670.92,-309.3 660.58,-311.61 670.11,-316.25 670.92,-309.3"/>
</a>
</g>
</g>
<!-- Node12 -->
<g id="Node000012" class="node">
<title>Node12</title>
<g id="a_Node000012"><a xlink:href="class_im_fusion_1_1_gl_implicitly_planar_point_based_annotation.html" target="_top" xlink:title="Interface extension for point&#45;based annotations that span an area despite consisting of only 2 points...">
<polygon fill="white" stroke="#666666" points="833.75,-295.88 694.75,-295.88 694.75,-265.38 833.75,-265.38 833.75,-295.88"/>
<text xml:space="preserve" text-anchor="start" x="702.75" y="-282.38" font-family="Helvetica,sans-Serif" font-size="10.00">ImFusion::GlImplicitlyPlanar</text>
<text xml:space="preserve" text-anchor="middle" x="764.25" y="-271.12" font-family="Helvetica,sans-Serif" font-size="10.00">PointBasedAnnotation</text>
</a>
</g>
</g>
<!-- Node1&#45;&gt;Node12 -->
<g id="edge11_Node000001_Node000012" class="edge">
<title>Node1&#45;&gt;Node12</title>
<g id="a_edge11_Node000001_Node000012"><a xlink:title=" ">
<path fill="none" stroke="#63b8ff" d="M670.51,-290.98C678.6,-290.08 686.68,-289.18 694.51,-288.3"/>
<polygon fill="#63b8ff" stroke="#63b8ff" points="670.13,-287.5 660.58,-292.09 670.91,-294.46 670.13,-287.5"/>
</a>
</g>
</g>
<!-- Node20 -->
<g id="Node000020" class="node">
<title>Node20</title>
<g id="a_Node000020"><a xlink:href="class_im_fusion_1_1_gl_infinite_line.html" target="_top" xlink:title="Line annotation.">
<polygon fill="white" stroke="#666666" points="824,-247.25 704.5,-247.25 704.5,-228 824,-228 824,-247.25"/>
<text xml:space="preserve" text-anchor="middle" x="764.25" y="-233.75" font-family="Helvetica,sans-Serif" font-size="10.00">ImFusion::GlInfiniteLine</text>
</a>
</g>
</g>
<!-- Node1&#45;&gt;Node20 -->
<g id="edge19_Node000001_Node000020" class="edge">
<title>Node1&#45;&gt;Node20</title>
<g id="a_edge19_Node000001_Node000020"><a xlink:title=" ">
<path fill="none" stroke="#63b8ff" d="M610.3,-287.48C633.97,-278.16 666,-266 694.75,-256.62 704.37,-253.49 714.86,-250.41 724.67,-247.68"/>
<polygon fill="#63b8ff" stroke="#63b8ff" points="609.15,-284.17 601.15,-291.11 611.73,-290.68 609.15,-284.17"/>
</a>
</g>
</g>
<!-- Node21 -->
<g id="Node000021" class="node">
<title>Node21</title>
<g id="a_Node000021"><a xlink:href="class_im_fusion_1_1_gl_line.html" target="_top" xlink:title="Line segment annotation.">
<polygon fill="white" stroke="#666666" points="809.38,-210.25 719.12,-210.25 719.12,-191 809.38,-191 809.38,-210.25"/>
<text xml:space="preserve" text-anchor="middle" x="764.25" y="-196.75" font-family="Helvetica,sans-Serif" font-size="10.00">ImFusion::GlLine</text>
</a>
</g>
</g>
<!-- Node1&#45;&gt;Node21 -->
<g id="edge20_Node000001_Node000021" class="edge">
<title>Node1&#45;&gt;Node21</title>
<g id="a_edge20_Node000001_Node000021"><a xlink:title=" ">
<path fill="none" stroke="#63b8ff" d="M595.31,-284.36C618.02,-265.65 656.81,-236.12 694.75,-218.62 702.34,-215.12 710.74,-212.21 718.97,-209.83"/>
<polygon fill="#63b8ff" stroke="#63b8ff" points="593.19,-281.57 587.77,-290.68 597.68,-286.94 593.19,-281.57"/>
</a>
</g>
</g>
<!-- Node22 -->
<g id="Node000022" class="node">
<title>Node22</title>
<g id="a_Node000022"><a xlink:href="class_im_fusion_1_1_gl_point.html" target="_top" xlink:title="Point annotation.">
<polygon fill="white" stroke="#666666" points="811.62,-173.25 716.88,-173.25 716.88,-154 811.62,-154 811.62,-173.25"/>
<text xml:space="preserve" text-anchor="middle" x="764.25" y="-159.75" font-family="Helvetica,sans-Serif" font-size="10.00">ImFusion::GlPoint</text>
</a>
</g>
</g>
<!-- Node1&#45;&gt;Node22 -->
<g id="edge21_Node000001_Node000022" class="edge">
<title>Node1&#45;&gt;Node22</title>
<g id="a_edge21_Node000001_Node000022"><a xlink:title=" ">
<path fill="none" stroke="#63b8ff" d="M588.76,-282.76C608.83,-256.15 649.11,-207.89 694.75,-181.62 701.46,-177.76 709.02,-174.71 716.6,-172.3"/>
<polygon fill="#63b8ff" stroke="#63b8ff" points="586.1,-280.47 582.99,-290.6 591.74,-284.62 586.1,-280.47"/>
</a>
</g>
</g>
<!-- Node25 -->
<g id="Node000025" class="node">
<title>Node25</title>
<g id="a_Node000025"><a xlink:href="class_im_fusion_1_1_gl_poly_line.html" target="_top" xlink:title="Line annotation.">
<polygon fill="white" stroke="#666666" points="819.12,-133.25 709.38,-133.25 709.38,-114 819.12,-114 819.12,-133.25"/>
<text xml:space="preserve" text-anchor="middle" x="764.25" y="-119.75" font-family="Helvetica,sans-Serif" font-size="10.00">ImFusion::GlPolyLine</text>
</a>
</g>
</g>
<!-- Node1&#45;&gt;Node25 -->
<g id="edge24_Node000001_Node000025" class="edge">
<title>Node1&#45;&gt;Node25</title>
<g id="a_edge24_Node000001_Node000025"><a xlink:title=" ">
<path fill="none" stroke="#63b8ff" d="M584.95,-281.95C602.33,-248.7 641.99,-181.41 694.75,-144.62 701.28,-140.07 708.83,-136.48 716.47,-133.66"/>
<polygon fill="#63b8ff" stroke="#63b8ff" points="582.02,-279.98 580.6,-290.48 588.26,-283.16 582.02,-279.98"/>
</a>
</g>
</g>
<!-- Node27 -->
<g id="Node000027" class="node">
<title>Node27</title>
<g id="a_Node000027"><a xlink:href="class_im_fusion_1_1_gl_spline.html" target="_top" xlink:title="Spline annotation.">
<polygon fill="white" stroke="#666666" points="813.88,-78.25 714.62,-78.25 714.62,-59 813.88,-59 813.88,-78.25"/>
<text xml:space="preserve" text-anchor="middle" x="764.25" y="-64.75" font-family="Helvetica,sans-Serif" font-size="10.00">ImFusion::GlSpline</text>
</a>
</g>
</g>
<!-- Node1&#45;&gt;Node27 -->
<g id="edge26_Node000001_Node000027" class="edge">
<title>Node1&#45;&gt;Node27</title>
<g id="a_edge26_Node000001_Node000027"><a xlink:title=" ">
<path fill="none" stroke="#63b8ff" d="M583.28,-281.08C599.31,-242.29 638.62,-157.41 694.75,-104.62 706.69,-93.4 722.81,-84.69 736.41,-78.66"/>
<polygon fill="#63b8ff" stroke="#63b8ff" points="580.03,-279.77 579.54,-290.35 586.53,-282.39 580.03,-279.77"/>
</a>
</g>
</g>
<!-- Node2 -->
<g id="Node000002" class="node">
<title>Node2</title>
<g id="a_Node000002"><a xlink:href="class_im_fusion_1_1_gl_annotation.html" target="_top" xlink:title="Base class for implementing annotations.">
<polygon fill="white" stroke="#666666" points="453.75,-311.25 335,-311.25 335,-292 453.75,-292 453.75,-311.25"/>
<text xml:space="preserve" text-anchor="middle" x="394.38" y="-297.75" font-family="Helvetica,sans-Serif" font-size="10.00">ImFusion::GlAnnotation</text>
</a>
</g>
</g>
<!-- Node2&#45;&gt;Node1 -->
<g id="edge1_Node000001_Node000002" class="edge">
<title>Node2&#45;&gt;Node1</title>
<g id="a_edge1_Node000001_Node000002"><a xlink:title=" ">
<path fill="none" stroke="#63b8ff" d="M465.48,-301.62C473.36,-301.62 481.44,-301.62 489.47,-301.62"/>
<polygon fill="#63b8ff" stroke="#63b8ff" points="465.62,-298.13 455.62,-301.63 465.62,-305.13 465.62,-298.13"/>
</a>
</g>
</g>
<!-- Node3 -->
<g id="Node000003" class="node">
<title>Node3</title>
<g id="a_Node000003"><a xlink:href="class_im_fusion_1_1_gl_object.html" target="_top" xlink:title="Abstract base class for an renderable OpenGL object that can be hosted in a GlView.">
<polygon fill="white" stroke="#666666" points="276.5,-330.25 175.75,-330.25 175.75,-311 276.5,-311 276.5,-330.25"/>
<text xml:space="preserve" text-anchor="middle" x="226.12" y="-316.75" font-family="Helvetica,sans-Serif" font-size="10.00">ImFusion::GlObject</text>
</a>
</g>
</g>
<!-- Node3&#45;&gt;Node2 -->
<g id="edge2_Node000002_Node000003" class="edge">
<title>Node3&#45;&gt;Node2</title>
<g id="a_edge2_Node000002_Node000003"><a xlink:title=" ">
<path fill="none" stroke="#63b8ff" d="M287.98,-313.67C303.25,-311.93 319.6,-310.06 334.76,-308.32"/>
<polygon fill="#63b8ff" stroke="#63b8ff" points="287.6,-310.19 278.06,-314.8 288.39,-317.15 287.6,-310.19"/>
</a>
</g>
</g>
<!-- Node4 -->
<g id="Node000004" class="node">
<title>Node4</title>
<g id="a_Node000004"><a xlink:href="class_im_fusion_1_1_configurable.html" target="_top" xlink:title="Base interface for classes that support object serialization from/to Properties objects.">
<polygon fill="white" stroke="#666666" points="117.25,-330.25 0,-330.25 0,-311 117.25,-311 117.25,-330.25"/>
<text xml:space="preserve" text-anchor="middle" x="58.62" y="-316.75" font-family="Helvetica,sans-Serif" font-size="10.00">ImFusion::Configurable</text>
</a>
</g>
</g>
<!-- Node4&#45;&gt;Node3 -->
<g id="edge3_Node000003_Node000004" class="edge">
<title>Node4&#45;&gt;Node3</title>
<g id="a_edge3_Node000003_Node000004"><a xlink:title=" ">
<path fill="none" stroke="#63b8ff" d="M128.73,-320.62C144.34,-320.62 160.61,-320.62 175.25,-320.62"/>
<polygon fill="#63b8ff" stroke="#63b8ff" points="129.02,-317.13 119.02,-320.63 129.02,-324.13 129.02,-317.13"/>
</a>
</g>
</g>
<!-- Node5 -->
<g id="Node000005" class="node">
<title>Node5</title>
<g id="a_Node000005"><a xlink:href="class_im_fusion_1_1_utils_1_1_not_copyable.html" target="_top" xlink:title="Inherit from this class if your class should be neither copy&#45;constructible nor assignable.">
<polygon fill="white" stroke="#666666" points="299,-293.25 153.25,-293.25 153.25,-274 299,-274 299,-293.25"/>
<text xml:space="preserve" text-anchor="middle" x="226.12" y="-279.75" font-family="Helvetica,sans-Serif" font-size="10.00">ImFusion::Utils::NotCopyable</text>
</a>
</g>
</g>
<!-- Node5&#45;&gt;Node2 -->
<g id="edge4_Node000002_Node000005" class="edge">
<title>Node5&#45;&gt;Node2</title>
<g id="a_edge4_Node000002_Node000005"><a xlink:title=" ">
<path fill="none" stroke="#8b1a1a" d="M310.24,-292.62C318.46,-293.51 326.67,-294.4 334.56,-295.26"/>
<polygon fill="#8b1a1a" stroke="#8b1a1a" points="310.9,-289.18 300.58,-291.58 310.15,-296.13 310.9,-289.18"/>
</a>
</g>
</g>
<!-- Node13 -->
<g id="Node000013" class="node">
<title>Node13</title>
<g id="a_Node000013"><a xlink:href="class_im_fusion_1_1_gl_circle.html" target="_top" xlink:title="Circle annotation.">
<polygon fill="white" stroke="#666666" points="1003.12,-364.25 905.38,-364.25 905.38,-345 1003.12,-345 1003.12,-364.25"/>
<text xml:space="preserve" text-anchor="middle" x="954.25" y="-350.75" font-family="Helvetica,sans-Serif" font-size="10.00">ImFusion::GlCircle</text>
</a>
</g>
</g>
<!-- Node12&#45;&gt;Node13 -->
<g id="edge12_Node000012_Node000013" class="edge">
<title>Node12&#45;&gt;Node13</title>
<g id="a_edge12_Node000012_Node000013"><a xlink:title=" ">
<path fill="none" stroke="#63b8ff" d="M827.45,-301.17C829.61,-302.28 831.71,-303.43 833.75,-304.62 852.2,-315.48 850.66,-326.94 869.75,-336.62 880.59,-342.13 893.06,-345.95 904.99,-348.61"/>
<polygon fill="#63b8ff" stroke="#63b8ff" points="829.02,-298.04 818.48,-296.98 826.05,-304.38 829.02,-298.04"/>
</a>
</g>
</g>
<!-- Node15 -->
<g id="Node000015" class="node">
<title>Node15</title>
<g id="a_Node000015"><a xlink:href="class_im_fusion_1_1_gl_ellipse.html" target="_top" xlink:title="Ellipse annotation.">
<polygon fill="white" stroke="#666666" points="1005,-327.25 903.5,-327.25 903.5,-308 1005,-308 1005,-327.25"/>
<text xml:space="preserve" text-anchor="middle" x="954.25" y="-313.75" font-family="Helvetica,sans-Serif" font-size="10.00">ImFusion::GlEllipse</text>
</a>
</g>
</g>
<!-- Node12&#45;&gt;Node15 -->
<g id="edge14_Node000012_Node000015" class="edge">
<title>Node12&#45;&gt;Node15</title>
<g id="a_edge14_Node000012_Node000015"><a xlink:title=" ">
<path fill="none" stroke="#63b8ff" d="M845.3,-296.38C864.93,-300.24 885.4,-304.27 903.16,-307.77"/>
<polygon fill="#63b8ff" stroke="#63b8ff" points="846.16,-292.98 835.67,-294.48 844.81,-299.85 846.16,-292.98"/>
</a>
</g>
</g>
<!-- Node17 -->
<g id="Node000017" class="node">
<title>Node17</title>
<g id="a_Node000017"><a xlink:href="class_im_fusion_1_1_gl_loop.html" target="_top" xlink:title="Loop annotation.">
<polygon fill="white" stroke="#666666" points="1000.88,-290.25 907.62,-290.25 907.62,-271 1000.88,-271 1000.88,-290.25"/>
<text xml:space="preserve" text-anchor="middle" x="954.25" y="-276.75" font-family="Helvetica,sans-Serif" font-size="10.00">ImFusion::GlLoop</text>
</a>
</g>
</g>
<!-- Node12&#45;&gt;Node17 -->
<g id="edge16_Node000012_Node000017" class="edge">
<title>Node12&#45;&gt;Node17</title>
<g id="a_edge16_Node000012_Node000017"><a xlink:title=" ">
<path fill="none" stroke="#63b8ff" d="M845.44,-280.62C866.53,-280.62 888.57,-280.62 907.18,-280.62"/>
<polygon fill="#63b8ff" stroke="#63b8ff" points="845.7,-277.13 835.7,-280.63 845.7,-284.13 845.7,-277.13"/>
</a>
</g>
</g>
<!-- Node18 -->
<g id="Node000018" class="node">
<title>Node18</title>
<g id="a_Node000018"><a xlink:href="class_im_fusion_1_1_gl_parallelogram.html" target="_top" xlink:title="Parallelogram annotation.">
<polygon fill="white" stroke="#666666" points="1020,-253.25 888.5,-253.25 888.5,-234 1020,-234 1020,-253.25"/>
<text xml:space="preserve" text-anchor="middle" x="954.25" y="-239.75" font-family="Helvetica,sans-Serif" font-size="10.00">ImFusion::GlParallelogram</text>
</a>
</g>
</g>
<!-- Node12&#45;&gt;Node18 -->
<g id="edge17_Node000012_Node000018" class="edge">
<title>Node12&#45;&gt;Node18</title>
<g id="a_edge17_Node000012_Node000018"><a xlink:title=" ">
<path fill="none" stroke="#63b8ff" d="M845.37,-264.86C864.55,-261.08 884.52,-257.15 901.99,-253.71"/>
<polygon fill="#63b8ff" stroke="#63b8ff" points="844.81,-261.4 835.67,-266.77 846.16,-268.27 844.81,-261.4"/>
</a>
</g>
</g>
<!-- Node14 -->
<g id="Node000014" class="node">
<title>Node14</title>
<g id="a_Node000014"><a xlink:href="class_im_fusion_1_1_gl_curved_view_circle.html" target="_top" xlink:title="Circle annotation for curved views.">
<polygon fill="white" stroke="#666666" points="1227.62,-364.25 1076.62,-364.25 1076.62,-345 1227.62,-345 1227.62,-364.25"/>
<text xml:space="preserve" text-anchor="middle" x="1152.12" y="-350.75" font-family="Helvetica,sans-Serif" font-size="10.00">ImFusion::GlCurvedViewCircle</text>
</a>
</g>
</g>
<!-- Node13&#45;&gt;Node14 -->
<g id="edge13_Node000013_Node000014" class="edge">
<title>Node13&#45;&gt;Node14</title>
<g id="a_edge13_Node000013_Node000014"><a xlink:title=" ">
<path fill="none" stroke="#63b8ff" d="M1014.84,-354.62C1034.25,-354.62 1056.03,-354.62 1076.4,-354.62"/>
<polygon fill="#63b8ff" stroke="#63b8ff" points="1014.93,-351.13 1004.93,-354.63 1014.93,-358.13 1014.93,-351.13"/>
</a>
</g>
</g>
<!-- Node16 -->
<g id="Node000016" class="node">
<title>Node16</title>
<g id="a_Node000016"><a xlink:href="class_im_fusion_1_1_gl_curved_view_ellipse.html" target="_top" xlink:title="Ellipse annotation for curved views.">
<polygon fill="white" stroke="#666666" points="1229.5,-327.25 1074.75,-327.25 1074.75,-308 1229.5,-308 1229.5,-327.25"/>
<text xml:space="preserve" text-anchor="middle" x="1152.12" y="-313.75" font-family="Helvetica,sans-Serif" font-size="10.00">ImFusion::GlCurvedViewEllipse</text>
</a>
</g>
</g>
<!-- Node15&#45;&gt;Node16 -->
<g id="edge15_Node000015_Node000016" class="edge">
<title>Node15&#45;&gt;Node16</title>
<g id="a_edge15_Node000015_Node000016"><a xlink:title=" ">
<path fill="none" stroke="#63b8ff" d="M1016.82,-317.62C1035.09,-317.62 1055.32,-317.62 1074.42,-317.62"/>
<polygon fill="#63b8ff" stroke="#63b8ff" points="1016.95,-314.13 1006.95,-317.63 1016.95,-321.13 1016.95,-314.13"/>
</a>
</g>
</g>
<!-- Node19 -->
<g id="Node000019" class="node">
<title>Node19</title>
<g id="a_Node000019"><a xlink:href="class_im_fusion_1_1_gl_rectangle.html" target="_top" xlink:title="Rectangle annotation.">
<polygon fill="white" stroke="#666666" points="1210.38,-253.25 1093.88,-253.25 1093.88,-234 1210.38,-234 1210.38,-253.25"/>
<text xml:space="preserve" text-anchor="middle" x="1152.12" y="-239.75" font-family="Helvetica,sans-Serif" font-size="10.00">ImFusion::GlRectangle</text>
</a>
</g>
</g>
<!-- Node18&#45;&gt;Node19 -->
<g id="edge18_Node000018_Node000019" class="edge">
<title>Node18&#45;&gt;Node19</title>
<g id="a_edge18_Node000018_Node000019"><a xlink:title=" ">
<path fill="none" stroke="#63b8ff" d="M1031.72,-243.62C1052.25,-243.62 1074.1,-243.62 1093.42,-243.62"/>
<polygon fill="#63b8ff" stroke="#63b8ff" points="1031.99,-240.13 1021.99,-243.63 1031.99,-247.13 1031.99,-240.13"/>
</a>
</g>
</g>
<!-- Node23 -->
<g id="Node000023" class="node">
<title>Node23</title>
<g id="a_Node000023"><a xlink:href="class_im_fusion_1_1_mesh_picking_manipulator.html" target="_top" xlink:title="Mesh picking manipulator The MeshPickingManipulator can return the list of selected vertices/faces/ed...">
<polygon fill="white" stroke="#666666" points="1038.75,-216.25 869.75,-216.25 869.75,-197 1038.75,-197 1038.75,-216.25"/>
<text xml:space="preserve" text-anchor="middle" x="954.25" y="-202.75" font-family="Helvetica,sans-Serif" font-size="10.00">ImFusion::MeshPickingManipulator</text>
</a>
</g>
</g>
<!-- Node22&#45;&gt;Node23 -->
<g id="edge22_Node000022_Node000023" class="edge">
<title>Node22&#45;&gt;Node23</title>
<g id="a_edge22_Node000022_Node000023"><a xlink:title=" ">
<path fill="none" stroke="#63b8ff" d="M820.04,-176.23C836.06,-179.91 853.61,-183.93 869.75,-187.62 882.5,-190.54 896.36,-193.7 909.04,-196.58"/>
<polygon fill="#63b8ff" stroke="#63b8ff" points="821.23,-172.91 810.7,-174.08 819.66,-179.74 821.23,-172.91"/>
</a>
</g>
</g>
<!-- Node24 -->
<g id="Node000024" class="node">
<title>Node24</title>
<g id="a_Node000024"><a xlink:href="class_im_fusion_1_1_point_cloud_picking_manipulator.html" target="_top" xlink:title="Point cloud picking manipulator The PointCloudPickingManipulator can return the list of selected vert...">
<polygon fill="white" stroke="#666666" points="1025.62,-178.88 882.88,-178.88 882.88,-148.38 1025.62,-148.38 1025.62,-178.88"/>
<text xml:space="preserve" text-anchor="start" x="890.88" y="-165.38" font-family="Helvetica,sans-Serif" font-size="10.00">ImFusion::PointCloudPicking</text>
<text xml:space="preserve" text-anchor="middle" x="954.25" y="-154.12" font-family="Helvetica,sans-Serif" font-size="10.00">Manipulator</text>
</a>
</g>
</g>
<!-- Node22&#45;&gt;Node24 -->
<g id="edge23_Node000022_Node000024" class="edge">
<title>Node22&#45;&gt;Node24</title>
<g id="a_edge23_Node000022_Node000024"><a xlink:title=" ">
<path fill="none" stroke="#63b8ff" d="M823.07,-163.62C841.82,-163.62 862.83,-163.62 882.42,-163.62"/>
<polygon fill="#63b8ff" stroke="#63b8ff" points="823.24,-160.13 813.24,-163.63 823.24,-167.13 823.24,-160.13"/>
</a>
</g>
</g>
<!-- Node26 -->
<g id="Node000026" class="node">
<title>Node26</title>
<g id="a_Node000026"><a xlink:href="class_im_fusion_1_1_gl_curved_view_poly_line.html" target="_top" xlink:title="Polyline annotation for curved views.">
<polygon fill="white" stroke="#666666" points="1035.75,-130.25 872.75,-130.25 872.75,-111 1035.75,-111 1035.75,-130.25"/>
<text xml:space="preserve" text-anchor="middle" x="954.25" y="-116.75" font-family="Helvetica,sans-Serif" font-size="10.00">ImFusion::GlCurvedViewPolyLine</text>
</a>
</g>
</g>
<!-- Node25&#45;&gt;Node26 -->
<g id="edge25_Node000025_Node000026" class="edge">
<title>Node25&#45;&gt;Node26</title>
<g id="a_edge25_Node000025_Node000026"><a xlink:title=" ">
<path fill="none" stroke="#63b8ff" d="M830.53,-122.58C844.09,-122.37 858.53,-122.14 872.57,-121.91"/>
<polygon fill="#63b8ff" stroke="#63b8ff" points="830.83,-119.08 820.89,-122.74 830.94,-126.08 830.83,-119.08"/>
</a>
</g>
</g>
<!-- Node28 -->
<g id="Node000028" class="node">
<title>Node28</title>
<g id="a_Node000028"><a xlink:href="class_im_fusion_1_1_gl_curved_view_spline.html" target="_top" xlink:title="Spline annotation for curved views.">
<polygon fill="white" stroke="#666666" points="1030.5,-93.25 878,-93.25 878,-74 1030.5,-74 1030.5,-93.25"/>
<text xml:space="preserve" text-anchor="middle" x="954.25" y="-79.75" font-family="Helvetica,sans-Serif" font-size="10.00">ImFusion::GlCurvedViewSpline</text>
</a>
</g>
</g>
<!-- Node27&#45;&gt;Node28 -->
<g id="edge27_Node000027_Node000028" class="edge">
<title>Node27&#45;&gt;Node28</title>
<g id="a_edge27_Node000027_Node000028"><a xlink:title=" ">
<path fill="none" stroke="#63b8ff" d="M825.37,-73.42C841.99,-74.75 860.24,-76.2 877.62,-77.59"/>
<polygon fill="#63b8ff" stroke="#63b8ff" points="825.91,-69.95 815.66,-72.65 825.35,-76.93 825.91,-69.95"/>
</a>
</g>
</g>
<!-- Node29 -->
<g id="Node000029" class="node">
<title>Node29</title>
<g id="a_Node000029"><a xlink:href="class_im_fusion_1_1_gl_freeform.html" target="_top" xlink:title="Freeform annotation. Draw whatever you want.">
<polygon fill="white" stroke="#666666" points="1009.88,-56.25 898.62,-56.25 898.62,-37 1009.88,-37 1009.88,-56.25"/>
<text xml:space="preserve" text-anchor="middle" x="954.25" y="-42.75" font-family="Helvetica,sans-Serif" font-size="10.00">ImFusion::GlFreeform</text>
</a>
</g>
</g>
<!-- Node27&#45;&gt;Node29 -->
<g id="edge28_Node000027_Node000029" class="edge">
<title>Node27&#45;&gt;Node29</title>
<g id="a_edge28_Node000027_Node000029"><a xlink:title=" ">
<path fill="none" stroke="#63b8ff" d="M825.35,-61.59C848.76,-58.85 875.4,-55.73 898.29,-53.06"/>
<polygon fill="#63b8ff" stroke="#63b8ff" points="825.18,-58.09 815.66,-62.73 826,-65.04 825.18,-58.09"/>
</a>
</g>
</g>
<!-- Node30 -->
<g id="Node000030" class="node">
<title>Node30</title>
<g id="a_Node000030"><a xlink:href="class_im_fusion_1_1_gl_smart_spline.html" target="_top" xlink:title="Intelligent spline annotation.">
<polygon fill="white" stroke="#666666" points="1017,-19.25 891.5,-19.25 891.5,0 1017,0 1017,-19.25"/>
<text xml:space="preserve" text-anchor="middle" x="954.25" y="-5.75" font-family="Helvetica,sans-Serif" font-size="10.00">ImFusion::GlSmartSpline</text>
</a>
</g>
</g>
<!-- Node27&#45;&gt;Node30 -->
<g id="edge29_Node000027_Node000030" class="edge">
<title>Node27&#45;&gt;Node30</title>
<g id="a_edge29_Node000027_Node000030"><a xlink:title=" ">
<path fill="none" stroke="#63b8ff" d="M798.28,-54.08C818.61,-45.53 845.35,-34.99 869.75,-27.62 879.55,-24.67 890.13,-22 900.36,-19.67"/>
<polygon fill="#63b8ff" stroke="#63b8ff" points="796.92,-50.85 789.1,-58 799.67,-57.29 796.92,-50.85"/>
</a>
</g>
</g>
</g>
</svg>

<g id="navigator" transform="translate(0 0)" fill="#404254">
  <rect fill="#f2f5e9" fill-opacity="0.5" stroke="#606060" stroke-width=".5" x="0" y="0" width="60" height="60"/>
  <use id="zoomplus" xlink:href="#zoomPlus" x="17" y="9" onmousedown="handleZoom(evt,'in')"/>
  <use id="zoomminus" xlink:href="#zoomMin" x="42" y="9" onmousedown="handleZoom(evt,'out')"/>
  <use id="reset" xlink:href="#resetDef" x="30" y="36" onmousedown="handleReset()"/>
   <use id="arrowup" xlink:href="#arrowUp" x="0" y="0" onmousedown="handlePan(0,-1)"/>
  <use id="arrowright" xlink:href="#arrowRight" x="0" y="0" onmousedown="handlePan(1,0)"/>
  <use id="arrowdown" xlink:href="#arrowDown" x="0" y="0" onmousedown="handlePan(0,1)"/>
  <use id="arrowleft" xlink:href="#arrowLeft" x="0" y="0" onmousedown="handlePan(-1,0)"/>
</g>
<svg viewBox="0 0 15 15" width="100%" height="30px" preserveAspectRatio="xMaxYMin meet">
 <g id="arrow_out" transform="scale(0.3 0.3)">
  <a xlink:href="class_im_fusion_1_1_gl_point_based_annotation__inherit__graph_org.svg" target="_base">
   <rect id="button" ry="5" rx="5" y="6" x="6" height="38" width="38"
        fill="#f2f5e9" fill-opacity="0.5" stroke="#606060" stroke-width="1.0"/>
   <path id="arrow"
     d="M 11.500037,31.436501 C 11.940474,20.09759 22.043105,11.32322 32.158766,21.979434 L 37.068811,17.246167 C 37.068811,17.246167 37.088388,32 37.088388,32 L 22.160133,31.978069 C 22.160133,31.978069 26.997745,27.140456 26.997745,27.140456 C 18.528582,18.264221 13.291696,25.230495 11.500037,31.436501 z"
     style="fill:#404040;"/>
  </a>
 </g>
</svg>

<style type='text/css'>
<![CDATA[
[data-mouse-over-selected='false'] { opacity: 0.7; }
[data-mouse-over-selected='true']  { opacity: 1.0; }
]]>
</style>
<script type="application/ecmascript"><![CDATA[
document.addEventListener('DOMContentLoaded', (event) => {
  highlightEdges();
  highlightAdjacentNodes();
});
]]></script>
</svg>
