<?xml version="1.0" encoding="UTF-8" standalone="no"?>
<!DOCTYPE svg PUBLIC "-//W3C//DTD SVG 1.1//EN"
 "http://www.w3.org/Graphics/SVG/1.1/DTD/svg11.dtd">
<!-- Generated by graphviz version 14.1.4 (20260321.0153)
 -->
<!-- Title: ImFusion::Dicom::Sequence&lt; T &gt; Pages: 1 -->
<svg width="340pt" height="260pt"
 viewBox="0.00 0.00 340.00 260.00" xmlns="http://www.w3.org/2000/svg" xmlns:xlink="http://www.w3.org/1999/xlink">
<g id="graph0" class="graph" transform="scale(1 1) rotate(0) translate(4 255.5)">
<title>ImFusion::Dicom::Sequence&lt; T &gt;</title>
<!-- Node1 -->
<g id="Node000001" class="node">
<title>Node1</title>
<g id="a_Node000001"><a xlink:title="Concrete sequence of items of type T, which must be derived from SequenceItem.">
<polygon fill="#999999" stroke="#666666" points="247,-85.75 82.5,-85.75 82.5,-66.5 247,-66.5 247,-85.75"/>
<text xml:space="preserve" text-anchor="middle" x="164.75" y="-72.25" font-family="Helvetica,sans-Serif" font-size="10.00">ImFusion::Dicom::Sequence&lt; T &gt;</text>
</a>
</g>
</g>
<!-- Node6 -->
<g id="Node000006" class="node">
<title>Node6</title>
<g id="a_Node000006"><a xlink:href="class_im_fusion_1_1_dicom_1_1_configurable_sequence.html" target="_top" xlink:title=" ">
<polygon fill="white" stroke="#bfbfbf" points="240.62,-30.5 88.88,-30.5 88.88,0 240.62,0 240.62,-30.5"/>
<text xml:space="preserve" text-anchor="start" x="96.88" y="-17" font-family="Helvetica,sans-Serif" font-size="10.00">ImFusion::Dicom::Configurable</text>
<text xml:space="preserve" text-anchor="middle" x="164.75" y="-5.75" font-family="Helvetica,sans-Serif" font-size="10.00">Sequence&lt; T &gt;</text>
</a>
</g>
</g>
<!-- Node1&#45;&gt;Node6 -->
<g id="edge5_Node000001_Node000006" class="edge">
<title>Node1&#45;&gt;Node6</title>
<g id="a_edge5_Node000001_Node000006"><a xlink:title=" ">
<path fill="none" stroke="#63b8ff" d="M164.75,-54.92C164.75,-46.99 164.75,-38.06 164.75,-30.78"/>
<polygon fill="#63b8ff" stroke="#63b8ff" points="161.25,-54.67 164.75,-64.67 168.25,-54.67 161.25,-54.67"/>
</a>
</g>
</g>
<!-- Node2 -->
<g id="Node000002" class="node">
<title>Node2</title>
<g id="a_Node000002"><a xlink:href="class_im_fusion_1_1_dicom_1_1_sequence_base.html" target="_top" xlink:title="Abstract base class for a sequence of elements.">
<polygon fill="white" stroke="#666666" points="246.25,-141 83.25,-141 83.25,-121.75 246.25,-121.75 246.25,-141"/>
<text xml:space="preserve" text-anchor="middle" x="164.75" y="-127.5" font-family="Helvetica,sans-Serif" font-size="10.00">ImFusion::Dicom::SequenceBase</text>
</a>
</g>
</g>
<!-- Node2&#45;&gt;Node1 -->
<g id="edge1_Node000001_Node000002" class="edge">
<title>Node2&#45;&gt;Node1</title>
<g id="a_edge1_Node000001_Node000002"><a xlink:title=" ">
<path fill="none" stroke="#63b8ff" d="M164.75,-110.13C164.75,-101.84 164.75,-92.67 164.75,-86.11"/>
<polygon fill="#63b8ff" stroke="#63b8ff" points="161.25,-110.07 164.75,-120.07 168.25,-110.07 161.25,-110.07"/>
</a>
</g>
</g>
<!-- Node3 -->
<g id="Node000003" class="node">
<title>Node3</title>
<g id="a_Node000003"><a xlink:href="class_im_fusion_1_1_dicom_1_1_element_base.html" target="_top" xlink:title="Abstract base class for DICOM Elements.">
<polygon fill="white" stroke="#666666" points="155.5,-196.25 0,-196.25 0,-177 155.5,-177 155.5,-196.25"/>
<text xml:space="preserve" text-anchor="middle" x="77.75" y="-182.75" font-family="Helvetica,sans-Serif" font-size="10.00">ImFusion::Dicom::ElementBase</text>
</a>
</g>
</g>
<!-- Node3&#45;&gt;Node2 -->
<g id="edge2_Node000002_Node000003" class="edge">
<title>Node3&#45;&gt;Node2</title>
<g id="a_edge2_Node000002_Node000003"><a xlink:title=" ">
<path fill="none" stroke="#63b8ff" d="M101.93,-170.82C117.33,-161.4 136.77,-149.5 149.92,-141.45"/>
<polygon fill="#63b8ff" stroke="#63b8ff" points="100.5,-167.6 93.8,-175.8 104.16,-173.57 100.5,-167.6"/>
</a>
</g>
</g>
<!-- Node4 -->
<g id="Node000004" class="node">
<title>Node4</title>
<g id="a_Node000004"><a xlink:href="class_im_fusion_1_1_utils_1_1_not_copyable.html" target="_top" xlink:title="Inherit from this class if your class should be neither copy&#45;constructible nor assignable.">
<polygon fill="white" stroke="#666666" points="150.62,-251.5 4.88,-251.5 4.88,-232.25 150.62,-232.25 150.62,-251.5"/>
<text xml:space="preserve" text-anchor="middle" x="77.75" y="-238" font-family="Helvetica,sans-Serif" font-size="10.00">ImFusion::Utils::NotCopyable</text>
</a>
</g>
</g>
<!-- Node4&#45;&gt;Node3 -->
<g id="edge3_Node000003_Node000004" class="edge">
<title>Node4&#45;&gt;Node3</title>
<g id="a_edge3_Node000003_Node000004"><a xlink:title=" ">
<path fill="none" stroke="#8b1a1a" d="M77.75,-220.63C77.75,-212.34 77.75,-203.17 77.75,-196.61"/>
<polygon fill="#8b1a1a" stroke="#8b1a1a" points="74.25,-220.57 77.75,-230.57 81.25,-220.57 74.25,-220.57"/>
</a>
</g>
</g>
<!-- Node5 -->
<g id="Node000005" class="node">
<title>Node5</title>
<g id="a_Node000005"><a xlink:href="class_im_fusion_1_1_dicom_1_1_error_recorder.html" target="_top" xlink:title="Error handling interface for the Dicom module.">
<polygon fill="white" stroke="#666666" points="331.62,-196.25 173.88,-196.25 173.88,-177 331.62,-177 331.62,-196.25"/>
<text xml:space="preserve" text-anchor="middle" x="252.75" y="-182.75" font-family="Helvetica,sans-Serif" font-size="10.00">ImFusion::Dicom::ErrorRecorder</text>
</a>
</g>
</g>
<!-- Node5&#45;&gt;Node2 -->
<g id="edge4_Node000002_Node000005" class="edge">
<title>Node5&#45;&gt;Node2</title>
<g id="a_edge4_Node000002_Node000005"><a xlink:title=" ">
<path fill="none" stroke="#63b8ff" d="M228.29,-170.82C212.72,-161.4 193.05,-149.5 179.75,-141.45"/>
<polygon fill="#63b8ff" stroke="#63b8ff" points="226.16,-173.63 236.53,-175.81 229.78,-167.64 226.16,-173.63"/>
</a>
</g>
</g>
</g>
</svg>
