<?xml version="1.0" encoding="UTF-8" standalone="no"?>
<!DOCTYPE svg PUBLIC "-//W3C//DTD SVG 1.1//EN"
 "http://www.w3.org/Graphics/SVG/1.1/DTD/svg11.dtd">
<!-- Generated by graphviz version 14.1.4 (20260321.0153)
 -->
<!-- Title: ImFusion::Gl3DObject Pages: 1 -->
<svg width="951pt" height="261pt"
 viewBox="0.00 0.00 951.00 261.00" xmlns="http://www.w3.org/2000/svg" xmlns:xlink="http://www.w3.org/1999/xlink">
<g id="graph0" class="graph" transform="scale(1 1) rotate(0) translate(4 257.25)">
<title>ImFusion::Gl3DObject</title>
<!-- Node1 -->
<g id="Node000001" class="node">
<title>Node1</title>
<g id="a_Node000001"><a xlink:title="Abstract base class for 3D objects for which a center and an extent (i.e. a bounding box) can be spec...">
<polygon fill="#999999" stroke="#666666" points="603.25,-142.25 489.75,-142.25 489.75,-123 603.25,-123 603.25,-142.25"/>
<text xml:space="preserve" text-anchor="middle" x="546.5" y="-128.75" font-family="Helvetica,sans-Serif" font-size="10.00">ImFusion::Gl3DObject</text>
</a>
</g>
</g>
<!-- Node6 -->
<g id="Node000006" class="node">
<title>Node6</title>
<g id="a_Node000006"><a xlink:href="class_im_fusion_1_1_gl_bounding_box.html" target="_top" xlink:title="Draws a bounding box.">
<polygon fill="white" stroke="#666666" points="780.88,-253.25 650.88,-253.25 650.88,-234 780.88,-234 780.88,-253.25"/>
<text xml:space="preserve" text-anchor="middle" x="715.88" y="-239.75" font-family="Helvetica,sans-Serif" font-size="10.00">ImFusion::GlBoundingBox</text>
</a>
</g>
</g>
<!-- Node1&#45;&gt;Node6 -->
<g id="edge5_Node000001_Node000006" class="edge">
<title>Node1&#45;&gt;Node6</title>
<g id="a_edge5_Node000001_Node000006"><a xlink:title=" ">
<path fill="none" stroke="#63b8ff" d="M560.95,-151.61C577.09,-172.93 606.15,-206.99 639.25,-225.62 644.89,-228.8 651.08,-231.42 657.41,-233.58"/>
<polygon fill="#63b8ff" stroke="#63b8ff" points="563.93,-149.75 555.19,-143.77 558.29,-153.9 563.93,-149.75"/>
</a>
</g>
</g>
<!-- Node7 -->
<g id="Node000007" class="node">
<title>Node7</title>
<g id="a_Node000007"><a xlink:href="class_im_fusion_1_1_gl_mesh.html" target="_top" xlink:title="The GlMesh class renders Mesh instances in 2D and 3D.">
<polygon fill="white" stroke="#666666" points="764,-216.25 667.75,-216.25 667.75,-197 764,-197 764,-216.25"/>
<text xml:space="preserve" text-anchor="middle" x="715.88" y="-202.75" font-family="Helvetica,sans-Serif" font-size="10.00">ImFusion::GlMesh</text>
</a>
</g>
</g>
<!-- Node1&#45;&gt;Node7 -->
<g id="edge6_Node000001_Node000007" class="edge">
<title>Node1&#45;&gt;Node7</title>
<g id="a_edge6_Node000001_Node000007"><a xlink:title=" ">
<path fill="none" stroke="#63b8ff" d="M570.07,-149.19C588.01,-161.65 614.18,-178.3 639.25,-188.62 648.11,-192.28 657.87,-195.29 667.35,-197.73"/>
<polygon fill="#63b8ff" stroke="#63b8ff" points="572.18,-146.4 562,-143.46 568.13,-152.11 572.18,-146.4"/>
</a>
</g>
</g>
<!-- Node9 -->
<g id="Node000009" class="node">
<title>Node9</title>
<g id="a_Node000009"><a xlink:href="class_im_fusion_1_1_gl_plane.html" target="_top" xlink:title="Plane Annotation.">
<polygon fill="white" stroke="#666666" points="764.38,-179.25 667.38,-179.25 667.38,-160 764.38,-160 764.38,-179.25"/>
<text xml:space="preserve" text-anchor="middle" x="715.88" y="-165.75" font-family="Helvetica,sans-Serif" font-size="10.00">ImFusion::GlPlane</text>
</a>
</g>
</g>
<!-- Node1&#45;&gt;Node9 -->
<g id="edge8_Node000001_Node000009" class="edge">
<title>Node1&#45;&gt;Node9</title>
<g id="a_edge8_Node000001_Node000009"><a xlink:title=" ">
<path fill="none" stroke="#63b8ff" d="M604.35,-145.19C625.49,-149.87 649.18,-155.1 669.19,-159.53"/>
<polygon fill="#63b8ff" stroke="#63b8ff" points="605.23,-141.8 594.71,-143.06 603.72,-148.64 605.23,-141.8"/>
</a>
</g>
</g>
<!-- Node10 -->
<g id="Node000010" class="node">
<title>Node10</title>
<g id="a_Node000010"><a xlink:href="class_im_fusion_1_1_gl_point_cloud.html" target="_top" xlink:title="Efficient point cloud renderer.">
<polygon fill="white" stroke="#666666" points="776,-142.25 655.75,-142.25 655.75,-123 776,-123 776,-142.25"/>
<text xml:space="preserve" text-anchor="middle" x="715.88" y="-128.75" font-family="Helvetica,sans-Serif" font-size="10.00">ImFusion::GlPointCloud</text>
</a>
</g>
</g>
<!-- Node1&#45;&gt;Node10 -->
<g id="edge9_Node000001_Node000010" class="edge">
<title>Node1&#45;&gt;Node10</title>
<g id="a_edge9_Node000001_Node000010"><a xlink:title=" ">
<path fill="none" stroke="#63b8ff" d="M615.21,-132.62C628.51,-132.62 642.38,-132.62 655.39,-132.62"/>
<polygon fill="#63b8ff" stroke="#63b8ff" points="615.21,-129.13 605.21,-132.63 615.21,-136.13 615.21,-129.13"/>
</a>
</g>
</g>
<!-- Node11 -->
<g id="Node000011" class="node">
<title>Node11</title>
<g id="a_Node000011"><a xlink:href="class_im_fusion_1_1_gl_pose_graph.html" target="_top" xlink:title="Pose graph annotation.">
<polygon fill="white" stroke="#666666" points="776.38,-105.25 655.38,-105.25 655.38,-86 776.38,-86 776.38,-105.25"/>
<text xml:space="preserve" text-anchor="middle" x="715.88" y="-91.75" font-family="Helvetica,sans-Serif" font-size="10.00">ImFusion::GlPoseGraph</text>
</a>
</g>
</g>
<!-- Node1&#45;&gt;Node11 -->
<g id="edge10_Node000001_Node000011" class="edge">
<title>Node1&#45;&gt;Node11</title>
<g id="a_edge10_Node000001_Node000011"><a xlink:title=" ">
<path fill="none" stroke="#63b8ff" d="M604.35,-120.06C625.49,-115.38 649.18,-110.15 669.19,-105.72"/>
<polygon fill="#63b8ff" stroke="#63b8ff" points="603.72,-116.61 594.71,-122.19 605.23,-123.45 603.72,-116.61"/>
</a>
</g>
</g>
<!-- Node12 -->
<g id="Node000012" class="node">
<title>Node12</title>
<g id="a_Node000012"><a xlink:href="class_im_fusion_1_1_gl_tracking_sequence_legacy.html" target="_top" xlink:title=" ">
<polygon fill="white" stroke="#666666" points="792.5,-67.88 639.25,-67.88 639.25,-37.38 792.5,-37.38 792.5,-67.88"/>
<text xml:space="preserve" text-anchor="start" x="647.25" y="-54.38" font-family="Helvetica,sans-Serif" font-size="10.00">ImFusion::GlTrackingSequence</text>
<text xml:space="preserve" text-anchor="middle" x="715.88" y="-43.12" font-family="Helvetica,sans-Serif" font-size="10.00">Legacy</text>
</a>
</g>
</g>
<!-- Node1&#45;&gt;Node12 -->
<g id="edge11_Node000001_Node000012" class="edge">
<title>Node1&#45;&gt;Node12</title>
<g id="a_edge11_Node000001_Node000012"><a xlink:title=" ">
<path fill="none" stroke="#63b8ff" d="M570.92,-116.15C588.96,-104.01 614.86,-87.74 639.25,-76.62 645.89,-73.6 653.03,-70.79 660.16,-68.25"/>
<polygon fill="#63b8ff" stroke="#63b8ff" points="569.05,-113.19 562.77,-121.73 573,-118.97 569.05,-113.19"/>
</a>
</g>
</g>
<!-- Node13 -->
<g id="Node000013" class="node">
<title>Node13</title>
<g id="a_Node000013"><a xlink:href="class_im_fusion_1_1_gl_tree.html" target="_top" xlink:title="Point tree annotation.">
<polygon fill="white" stroke="#666666" points="761.75,-19.25 670,-19.25 670,0 761.75,0 761.75,-19.25"/>
<text xml:space="preserve" text-anchor="middle" x="715.88" y="-5.75" font-family="Helvetica,sans-Serif" font-size="10.00">ImFusion::GlTree</text>
</a>
</g>
</g>
<!-- Node1&#45;&gt;Node13 -->
<g id="edge12_Node000001_Node000013" class="edge">
<title>Node1&#45;&gt;Node13</title>
<g id="a_edge12_Node000001_Node000013"><a xlink:title=" ">
<path fill="none" stroke="#63b8ff" d="M559.54,-112.86C575.02,-89.17 604.12,-50.02 639.25,-28.62 648.38,-23.06 659.08,-19.12 669.51,-16.34"/>
<polygon fill="#63b8ff" stroke="#63b8ff" points="556.62,-110.93 554.23,-121.25 562.53,-114.67 556.62,-110.93"/>
</a>
</g>
</g>
<!-- Node2 -->
<g id="Node000002" class="node">
<title>Node2</title>
<g id="a_Node000002"><a xlink:href="class_im_fusion_1_1_gl_annotation.html" target="_top" xlink:title="Base class for implementing annotations.">
<polygon fill="white" stroke="#666666" points="453.75,-142.25 335,-142.25 335,-123 453.75,-123 453.75,-142.25"/>
<text xml:space="preserve" text-anchor="middle" x="394.38" y="-128.75" font-family="Helvetica,sans-Serif" font-size="10.00">ImFusion::GlAnnotation</text>
</a>
</g>
</g>
<!-- Node2&#45;&gt;Node1 -->
<g id="edge1_Node000001_Node000002" class="edge">
<title>Node2&#45;&gt;Node1</title>
<g id="a_edge1_Node000001_Node000002"><a xlink:title=" ">
<path fill="none" stroke="#63b8ff" d="M465.22,-132.62C473.32,-132.62 481.51,-132.62 489.4,-132.62"/>
<polygon fill="#63b8ff" stroke="#63b8ff" points="465.36,-129.13 455.36,-132.63 465.36,-136.13 465.36,-129.13"/>
</a>
</g>
</g>
<!-- Node3 -->
<g id="Node000003" class="node">
<title>Node3</title>
<g id="a_Node000003"><a xlink:href="class_im_fusion_1_1_gl_object.html" target="_top" xlink:title="Abstract base class for an renderable OpenGL object that can be hosted in a GlView.">
<polygon fill="white" stroke="#666666" points="276.5,-161.25 175.75,-161.25 175.75,-142 276.5,-142 276.5,-161.25"/>
<text xml:space="preserve" text-anchor="middle" x="226.12" y="-147.75" font-family="Helvetica,sans-Serif" font-size="10.00">ImFusion::GlObject</text>
</a>
</g>
</g>
<!-- Node3&#45;&gt;Node2 -->
<g id="edge2_Node000002_Node000003" class="edge">
<title>Node3&#45;&gt;Node2</title>
<g id="a_edge2_Node000002_Node000003"><a xlink:title=" ">
<path fill="none" stroke="#63b8ff" d="M287.98,-144.67C303.25,-142.93 319.6,-141.06 334.76,-139.32"/>
<polygon fill="#63b8ff" stroke="#63b8ff" points="287.6,-141.19 278.06,-145.8 288.39,-148.15 287.6,-141.19"/>
</a>
</g>
</g>
<!-- Node4 -->
<g id="Node000004" class="node">
<title>Node4</title>
<g id="a_Node000004"><a xlink:href="class_im_fusion_1_1_configurable.html" target="_top" xlink:title="Base interface for classes that support object serialization from/to Properties objects.">
<polygon fill="white" stroke="#666666" points="117.25,-161.25 0,-161.25 0,-142 117.25,-142 117.25,-161.25"/>
<text xml:space="preserve" text-anchor="middle" x="58.62" y="-147.75" font-family="Helvetica,sans-Serif" font-size="10.00">ImFusion::Configurable</text>
</a>
</g>
</g>
<!-- Node4&#45;&gt;Node3 -->
<g id="edge3_Node000003_Node000004" class="edge">
<title>Node4&#45;&gt;Node3</title>
<g id="a_edge3_Node000003_Node000004"><a xlink:title=" ">
<path fill="none" stroke="#63b8ff" d="M128.73,-151.62C144.34,-151.62 160.61,-151.62 175.25,-151.62"/>
<polygon fill="#63b8ff" stroke="#63b8ff" points="129.02,-148.13 119.02,-151.63 129.02,-155.13 129.02,-148.13"/>
</a>
</g>
</g>
<!-- Node5 -->
<g id="Node000005" class="node">
<title>Node5</title>
<g id="a_Node000005"><a xlink:href="class_im_fusion_1_1_utils_1_1_not_copyable.html" target="_top" xlink:title="Inherit from this class if your class should be neither copy&#45;constructible nor assignable.">
<polygon fill="white" stroke="#666666" points="299,-124.25 153.25,-124.25 153.25,-105 299,-105 299,-124.25"/>
<text xml:space="preserve" text-anchor="middle" x="226.12" y="-110.75" font-family="Helvetica,sans-Serif" font-size="10.00">ImFusion::Utils::NotCopyable</text>
</a>
</g>
</g>
<!-- Node5&#45;&gt;Node2 -->
<g id="edge4_Node000002_Node000005" class="edge">
<title>Node5&#45;&gt;Node2</title>
<g id="a_edge4_Node000002_Node000005"><a xlink:title=" ">
<path fill="none" stroke="#8b1a1a" d="M310.24,-123.62C318.46,-124.51 326.67,-125.4 334.56,-126.26"/>
<polygon fill="#8b1a1a" stroke="#8b1a1a" points="310.9,-120.18 300.58,-122.58 310.15,-127.13 310.9,-120.18"/>
</a>
</g>
</g>
<!-- Node8 -->
<g id="Node000008" class="node">
<title>Node8</title>
<g id="a_Node000008"><a xlink:href="class_im_fusion_1_1_gl_box.html" target="_top" xlink:title="Bounding box annotation.">
<polygon fill="white" stroke="#666666" points="930.38,-216.25 840.88,-216.25 840.88,-197 930.38,-197 930.38,-216.25"/>
<text xml:space="preserve" text-anchor="middle" x="885.62" y="-202.75" font-family="Helvetica,sans-Serif" font-size="10.00">ImFusion::GlBox</text>
</a>
</g>
</g>
<!-- Node7&#45;&gt;Node8 -->
<g id="edge7_Node000007_Node000008" class="edge">
<title>Node7&#45;&gt;Node8</title>
<g id="a_edge7_Node000007_Node000008"><a xlink:title=" ">
<path fill="none" stroke="#63b8ff" d="M775.73,-206.62C797.07,-206.62 820.79,-206.62 840.62,-206.62"/>
<polygon fill="#63b8ff" stroke="#63b8ff" points="776.01,-203.13 766.01,-206.63 776.01,-210.13 776.01,-203.13"/>
</a>
</g>
</g>
<!-- Node14 -->
<g id="Node000014" class="node">
<title>Node14</title>
<g id="a_Node000014"><a xlink:href="class_im_fusion_1_1_gl_point_tree.html" target="_top" xlink:title="Point tree annotation.">
<polygon fill="white" stroke="#666666" points="942.75,-19.25 828.5,-19.25 828.5,0 942.75,0 942.75,-19.25"/>
<text xml:space="preserve" text-anchor="middle" x="885.62" y="-5.75" font-family="Helvetica,sans-Serif" font-size="10.00">ImFusion::GlPointTree</text>
</a>
</g>
</g>
<!-- Node13&#45;&gt;Node14 -->
<g id="edge13_Node000013_Node000014" class="edge">
<title>Node13&#45;&gt;Node14</title>
<g id="a_edge13_Node000013_Node000014"><a xlink:title=" ">
<path fill="none" stroke="#63b8ff" d="M773.16,-9.62C790.86,-9.62 810.41,-9.62 828.13,-9.62"/>
<polygon fill="#63b8ff" stroke="#63b8ff" points="773.34,-6.13 763.34,-9.63 773.34,-13.13 773.34,-6.13"/>
</a>
</g>
</g>
</g>
</svg>
