<?xml version="1.0" encoding="UTF-8" standalone="no"?>
<!DOCTYPE svg PUBLIC "-//W3C//DTD SVG 1.1//EN"
 "http://www.w3.org/Graphics/SVG/1.1/DTD/svg11.dtd">
<!-- Generated by graphviz version 14.1.4 (20260321.0153)
 -->
<!-- Title: ImFusion::CroppingMask Pages: 1 -->
<svg width="633pt" height="113pt"
 viewBox="0.00 0.00 633.00 113.00" xmlns="http://www.w3.org/2000/svg" xmlns:xlink="http://www.w3.org/1999/xlink">
<g id="graph0" class="graph" transform="scale(1 1) rotate(0) translate(4 108.88)">
<title>ImFusion::CroppingMask</title>
<!-- Node1 -->
<g id="Node000001" class="node">
<title>Node1</title>
<g id="a_Node000001"><a xlink:title="Simple axis&#45;aligned cropping mask with optional roundness.">
<polygon fill="#999999" stroke="#666666" points="625,-85.88 499.5,-85.88 499.5,-66.62 625,-66.62 625,-85.88"/>
<text xml:space="preserve" text-anchor="middle" x="562.25" y="-72.38" font-family="Helvetica,sans-Serif" font-size="10.00">ImFusion::CroppingMask</text>
</a>
</g>
</g>
<!-- Node2 -->
<g id="Node000002" class="node">
<title>Node2</title>
<g id="a_Node000002"><a xlink:href="class_im_fusion_1_1_mask.html" target="_top" xlink:title="Base interface for implementing polymorphic image masks on the CPU.">
<polygon fill="white" stroke="#666666" points="458.62,-104.88 372.12,-104.88 372.12,-85.62 458.62,-85.62 458.62,-104.88"/>
<text xml:space="preserve" text-anchor="middle" x="415.38" y="-91.38" font-family="Helvetica,sans-Serif" font-size="10.00">ImFusion::Mask</text>
</a>
</g>
</g>
<!-- Node2&#45;&gt;Node1 -->
<g id="edge1_Node000001_Node000002" class="edge">
<title>Node2&#45;&gt;Node1</title>
<g id="a_edge1_Node000001_Node000002"><a xlink:title=" ">
<path fill="none" stroke="#63b8ff" d="M470.23,-88.19C479.61,-86.96 489.43,-85.67 499.01,-84.41"/>
<polygon fill="#63b8ff" stroke="#63b8ff" points="470.02,-84.68 460.56,-89.46 470.93,-91.63 470.02,-84.68"/>
</a>
</g>
</g>
<!-- Node3 -->
<g id="Node000003" class="node">
<title>Node3</title>
<g id="a_Node000003"><a xlink:href="class_im_fusion_1_1_configurable.html" target="_top" xlink:title="Base interface for classes that support object serialization from/to Properties objects.">
<polygon fill="white" stroke="#666666" points="315.12,-104.88 197.88,-104.88 197.88,-85.62 315.12,-85.62 315.12,-104.88"/>
<text xml:space="preserve" text-anchor="middle" x="256.5" y="-91.38" font-family="Helvetica,sans-Serif" font-size="10.00">ImFusion::Configurable</text>
</a>
</g>
</g>
<!-- Node3&#45;&gt;Node2 -->
<g id="edge2_Node000002_Node000003" class="edge">
<title>Node3&#45;&gt;Node2</title>
<g id="a_edge2_Node000002_Node000003"><a xlink:title=" ">
<path fill="none" stroke="#63b8ff" d="M326.57,-95.25C341.98,-95.25 357.88,-95.25 371.84,-95.25"/>
<polygon fill="#63b8ff" stroke="#63b8ff" points="326.98,-91.75 316.98,-95.25 326.98,-98.75 326.98,-91.75"/>
</a>
</g>
</g>
<!-- Node4 -->
<g id="Node000004" class="node">
<title>Node4</title>
<g id="a_Node000004"><a xlink:href="class_im_fusion_1_1_gl_mask.html" target="_top" xlink:title="Base interface for implementing polymorphic image masks using OpenGL.">
<polygon fill="white" stroke="#666666" points="463.5,-67.88 367.25,-67.88 367.25,-48.62 463.5,-48.62 463.5,-67.88"/>
<text xml:space="preserve" text-anchor="middle" x="415.38" y="-54.38" font-family="Helvetica,sans-Serif" font-size="10.00">ImFusion::GlMask</text>
</a>
</g>
</g>
<!-- Node4&#45;&gt;Node1 -->
<g id="edge3_Node000001_Node000004" class="edge">
<title>Node4&#45;&gt;Node1</title>
<g id="a_edge3_Node000001_Node000004"><a xlink:title=" ">
<path fill="none" stroke="#63b8ff" d="M475.19,-65.56C483.1,-66.54 491.24,-67.55 499.2,-68.54"/>
<polygon fill="#63b8ff" stroke="#63b8ff" points="475.67,-62.09 465.31,-64.33 474.81,-69.04 475.67,-62.09"/>
</a>
</g>
</g>
<!-- Node5 -->
<g id="Node000005" class="node">
<title>Node5</title>
<g id="a_Node000005"><a xlink:href="class_im_fusion_1_1_g_l_1_1_abstract_include.html" target="_top" xlink:title="Base class for abstract GLSL includes.">
<polygon fill="white" stroke="#666666" points="331.25,-67.88 181.75,-67.88 181.75,-48.62 331.25,-48.62 331.25,-67.88"/>
<text xml:space="preserve" text-anchor="middle" x="256.5" y="-54.38" font-family="Helvetica,sans-Serif" font-size="10.00">ImFusion::GL::AbstractInclude</text>
</a>
</g>
</g>
<!-- Node5&#45;&gt;Node4 -->
<g id="edge4_Node000004_Node000005" class="edge">
<title>Node5&#45;&gt;Node4</title>
<g id="a_edge4_Node000004_Node000005"><a xlink:title=" ">
<path fill="none" stroke="#63b8ff" d="M342.68,-58.25C350.97,-58.25 359.15,-58.25 366.87,-58.25"/>
<polygon fill="#63b8ff" stroke="#63b8ff" points="342.86,-54.75 332.86,-58.25 342.86,-61.75 342.86,-54.75"/>
</a>
</g>
</g>
<!-- Node6 -->
<g id="Node000006" class="node">
<title>Node6</title>
<g id="a_Node000006"><a xlink:href="class_im_fusion_1_1_utils_1_1_not_copyable.html" target="_top" xlink:title="Inherit from this class if your class should be neither copy&#45;constructible nor assignable.">
<polygon fill="white" stroke="#666666" points="145.75,-67.88 0,-67.88 0,-48.62 145.75,-48.62 145.75,-67.88"/>
<text xml:space="preserve" text-anchor="middle" x="72.88" y="-54.38" font-family="Helvetica,sans-Serif" font-size="10.00">ImFusion::Utils::NotCopyable</text>
</a>
</g>
</g>
<!-- Node6&#45;&gt;Node5 -->
<g id="edge5_Node000005_Node000006" class="edge">
<title>Node6&#45;&gt;Node5</title>
<g id="a_edge5_Node000005_Node000006"><a xlink:title=" ">
<path fill="none" stroke="#8b1a1a" d="M157.68,-58.25C165.58,-58.25 173.56,-58.25 181.36,-58.25"/>
<polygon fill="#8b1a1a" stroke="#8b1a1a" points="157.69,-54.75 147.69,-58.25 157.69,-61.75 157.69,-54.75"/>
</a>
</g>
</g>
<!-- Node7 -->
<g id="Node000007" class="node">
<title>Node7</title>
<g id="a_Node000007"><a xlink:href="class_im_fusion_1_1_g_l_1_1_multi_includable.html" target="_top" xlink:title=" ">
<polygon fill="white" stroke="#666666" points="329.75,-30.5 183.25,-30.5 183.25,0 329.75,0 329.75,-30.5"/>
<text xml:space="preserve" text-anchor="start" x="191.25" y="-17" font-family="Helvetica,sans-Serif" font-size="10.00">ImFusion::GL::MultiIncludable</text>
<text xml:space="preserve" text-anchor="middle" x="256.5" y="-5.75" font-family="Helvetica,sans-Serif" font-size="10.00">&lt; GlMask &gt;</text>
</a>
</g>
</g>
<!-- Node7&#45;&gt;Node4 -->
<g id="edge6_Node000004_Node000007" class="edge">
<title>Node7&#45;&gt;Node4</title>
<g id="a_edge6_Node000004_Node000007"><a xlink:title=" ">
<path fill="none" stroke="#63b8ff" d="M325.58,-33.91C343.46,-38.81 362.07,-43.91 377.61,-48.17"/>
<polygon fill="#63b8ff" stroke="#63b8ff" points="326.61,-30.56 316.04,-31.3 324.76,-37.31 326.61,-30.56"/>
</a>
</g>
</g>
</g>
</svg>
