<?xml version="1.0" encoding="UTF-8" standalone="no"?>
<!DOCTYPE svg PUBLIC "-//W3C//DTD SVG 1.1//EN"
 "http://www.w3.org/Graphics/SVG/1.1/DTD/svg11.dtd">
<!-- Generated by graphviz version 14.1.4 (20260321.0153)
 -->
<!-- Title: ImFusion::MeshDataController Pages: 1 -->
<svg width="352pt" height="193pt"
 viewBox="0.00 0.00 352.00 193.00" xmlns="http://www.w3.org/2000/svg" xmlns:xlink="http://www.w3.org/1999/xlink">
<g id="graph0" class="graph" transform="scale(1 1) rotate(0) translate(4 189)">
<title>ImFusion::MeshDataController</title>
<!-- Node1 -->
<g id="Node000001" class="node">
<title>Node1</title>
<g id="a_Node000001"><a xlink:title="GUI controller for adjusting visualization of meshes.">
<polygon fill="#999999" stroke="#666666" points="209.88,-19.25 60.38,-19.25 60.38,0 209.88,0 209.88,-19.25"/>
<text xml:space="preserve" text-anchor="middle" x="135.12" y="-5.75" font-family="Helvetica,sans-Serif" font-size="10.00">ImFusion::MeshDataController</text>
</a>
</g>
</g>
<!-- Node2 -->
<g id="Node000002" class="node">
<title>Node2</title>
<g id="a_Node000002"><a xlink:title=" ">
<polygon fill="white" stroke="#bfbfbf" points="54.25,-74.5 0,-74.5 0,-55.25 54.25,-55.25 54.25,-74.5"/>
<text xml:space="preserve" text-anchor="middle" x="27.12" y="-61" font-family="Helvetica,sans-Serif" font-size="10.00">QWidget</text>
</a>
</g>
</g>
<!-- Node2&#45;&gt;Node1 -->
<g id="edge1_Node000001_Node000002" class="edge">
<title>Node2&#45;&gt;Node1</title>
<g id="a_edge1_Node000001_Node000002"><a xlink:title=" ">
<path fill="none" stroke="#63b8ff" d="M55.52,-49.87C74.87,-40.33 99.93,-27.98 116.71,-19.7"/>
<polygon fill="#63b8ff" stroke="#63b8ff" points="54.22,-46.61 46.8,-54.17 57.32,-52.89 54.22,-46.61"/>
</a>
</g>
</g>
<!-- Node3 -->
<g id="Node000003" class="node">
<title>Node3</title>
<g id="a_Node000003"><a xlink:href="class_im_fusion_1_1_data_controller.html" target="_top" xlink:title="Specialization of the Controller interface to be used with Data instances.">
<polygon fill="white" stroke="#666666" points="197.88,-74.5 72.38,-74.5 72.38,-55.25 197.88,-55.25 197.88,-74.5"/>
<text xml:space="preserve" text-anchor="middle" x="135.12" y="-61" font-family="Helvetica,sans-Serif" font-size="10.00">ImFusion::DataController</text>
</a>
</g>
</g>
<!-- Node3&#45;&gt;Node1 -->
<g id="edge2_Node000001_Node000003" class="edge">
<title>Node3&#45;&gt;Node1</title>
<g id="a_edge2_Node000001_Node000003"><a xlink:title=" ">
<path fill="none" stroke="#63b8ff" d="M135.12,-43.63C135.12,-35.34 135.12,-26.17 135.12,-19.61"/>
<polygon fill="#63b8ff" stroke="#63b8ff" points="131.63,-43.57 135.13,-53.57 138.63,-43.57 131.63,-43.57"/>
</a>
</g>
</g>
<!-- Node4 -->
<g id="Node000004" class="node">
<title>Node4</title>
<g id="a_Node000004"><a xlink:href="class_im_fusion_1_1_controller.html" target="_top" xlink:title="Base interface for a GUI element within MainWindowBase.">
<polygon fill="white" stroke="#666666" points="187.38,-129.75 82.88,-129.75 82.88,-110.5 187.38,-110.5 187.38,-129.75"/>
<text xml:space="preserve" text-anchor="middle" x="135.12" y="-116.25" font-family="Helvetica,sans-Serif" font-size="10.00">ImFusion::Controller</text>
</a>
</g>
</g>
<!-- Node4&#45;&gt;Node3 -->
<g id="edge3_Node000003_Node000004" class="edge">
<title>Node4&#45;&gt;Node3</title>
<g id="a_edge3_Node000003_Node000004"><a xlink:title=" ">
<path fill="none" stroke="#63b8ff" d="M135.12,-98.88C135.12,-90.59 135.12,-81.42 135.12,-74.86"/>
<polygon fill="#63b8ff" stroke="#63b8ff" points="131.63,-98.82 135.13,-108.82 138.63,-98.82 131.63,-98.82"/>
</a>
</g>
</g>
<!-- Node5 -->
<g id="Node000005" class="node">
<title>Node5</title>
<g id="a_Node000005"><a xlink:href="class_im_fusion_1_1_configurable.html" target="_top" xlink:title="Base interface for classes that support object serialization from/to Properties objects.">
<polygon fill="white" stroke="#666666" points="118.75,-185 1.5,-185 1.5,-165.75 118.75,-165.75 118.75,-185"/>
<text xml:space="preserve" text-anchor="middle" x="60.12" y="-171.5" font-family="Helvetica,sans-Serif" font-size="10.00">ImFusion::Configurable</text>
</a>
</g>
</g>
<!-- Node5&#45;&gt;Node4 -->
<g id="edge4_Node000004_Node000005" class="edge">
<title>Node5&#45;&gt;Node4</title>
<g id="a_edge4_Node000004_Node000005"><a xlink:title=" ">
<path fill="none" stroke="#63b8ff" d="M82.12,-158.76C95.2,-149.47 111.33,-138.02 122.34,-130.2"/>
<polygon fill="#63b8ff" stroke="#63b8ff" points="80.21,-155.82 74.08,-164.47 84.26,-161.53 80.21,-155.82"/>
</a>
</g>
</g>
<!-- Node6 -->
<g id="Node000006" class="node">
<title>Node6</title>
<g id="a_Node000006"><a xlink:href="class_im_fusion_1_1_utils_1_1_not_copyable.html" target="_top" xlink:title="Inherit from this class if your class should be neither copy&#45;constructible nor assignable.">
<polygon fill="white" stroke="#666666" points="283,-185 137.25,-185 137.25,-165.75 283,-165.75 283,-185"/>
<text xml:space="preserve" text-anchor="middle" x="210.12" y="-171.5" font-family="Helvetica,sans-Serif" font-size="10.00">ImFusion::Utils::NotCopyable</text>
</a>
</g>
</g>
<!-- Node6&#45;&gt;Node4 -->
<g id="edge5_Node000004_Node000006" class="edge">
<title>Node6&#45;&gt;Node4</title>
<g id="a_edge5_Node000004_Node000006"><a xlink:title=" ">
<path fill="none" stroke="#8b1a1a" d="M188.13,-158.76C175.05,-149.47 158.92,-138.02 147.91,-130.2"/>
<polygon fill="#8b1a1a" stroke="#8b1a1a" points="185.99,-161.53 196.17,-164.47 190.04,-155.82 185.99,-161.53"/>
</a>
</g>
</g>
<!-- Node7 -->
<g id="Node000007" class="node">
<title>Node7</title>
<g id="a_Node000007"><a xlink:href="class_im_fusion_1_1_signal_receiver.html" target="_top" xlink:title="Base class for classes that can contain slots (i.e.">
<polygon fill="white" stroke="#666666" points="344.38,-74.5 215.88,-74.5 215.88,-55.25 344.38,-55.25 344.38,-74.5"/>
<text xml:space="preserve" text-anchor="middle" x="280.12" y="-61" font-family="Helvetica,sans-Serif" font-size="10.00">ImFusion::SignalReceiver</text>
</a>
</g>
</g>
<!-- Node7&#45;&gt;Node1 -->
<g id="edge6_Node000001_Node000007" class="edge">
<title>Node7&#45;&gt;Node1</title>
<g id="a_edge6_Node000001_Node000007"><a xlink:title=" ">
<path fill="none" stroke="#63b8ff" d="M244.86,-50.92C218.53,-41.25 183.21,-28.29 159.84,-19.7"/>
<polygon fill="#63b8ff" stroke="#63b8ff" points="243.51,-54.16 254.11,-54.32 245.93,-47.59 243.51,-54.16"/>
</a>
</g>
</g>
</g>
</svg>
