<?xml version="1.0" encoding="UTF-8" standalone="no"?>
<!DOCTYPE svg PUBLIC "-//W3C//DTD SVG 1.1//EN"
 "http://www.w3.org/Graphics/SVG/1.1/DTD/svg11.dtd">
<!-- Generated by graphviz version 14.1.4 (20260321.0153)
 -->
<!-- Title: ImFusion::Dicom::IOD Pages: 1 -->
<!--zoomable 138 -->

<svg id="main" version="1.1" xmlns="http://www.w3.org/2000/svg" xmlns:xlink="http://www.w3.org/1999/xlink" xml:space="preserve" onload="init(evt)">

<style type="text/css"><![CDATA[
.node, .edge {opacity: 0.7;}
.node.selected, .edge.selected {opacity: 1;}
.edge:hover path { stroke: red; }
.edge:hover polygon { stroke: red; fill: red; }
]]></style>

<defs>
  <circle id="rim" cx="0" cy="0" r="7"/>
  <circle id="rim2" cx="0" cy="0" r="3.5"/>
  <g id="zoomPlus">
    <use xlink:href="#rim" fill="#404040"><set attributeName="fill" to="#808080" begin="zoomplus.mouseover" end="zoomplus.mouseout"/></use>
    <path d="M-4,0h8M0,-4v8" fill="none" stroke="white" stroke-width="1.5" pointer-events="none"/>
  </g>
  <g id="zoomMin">
    <use xlink:href="#rim" fill="#404040"><set attributeName="fill" to="#808080" begin="zoomminus.mouseover" end="zoomminus.mouseout"/></use>
    <path d="M-4,0h8" fill="none" stroke="white" stroke-width="1.5" pointer-events="none"/>
  </g>
  <g id="arrowUp" transform="translate(30 24)">
    <use xlink:href="#rim"/>
    <path pointer-events="none" fill="none" stroke="white" stroke-width="1.5" d="M0,-3.0v7 M-2.5,-0.5L0,-3.0L2.5,-0.5"/>
  </g>
  <g id="arrowRight" transform="rotate(90) translate(36 -43)">
    <use xlink:href="#rim"/>
    <path pointer-events="none" fill="none" stroke="white" stroke-width="1.5" d="M0,-3.0v7 M-2.5,-0.5L0,-3.0L2.5,-0.5"/>
  </g>
  <g id="arrowDown" transform="rotate(180) translate(-30 -48)">
    <use xlink:href="#rim"/>
    <path pointer-events="none" fill="none" stroke="white" stroke-width="1.5" d="M0,-3.0v7 M-2.5,-0.5L0,-3.0L2.5,-0.5"/>
  </g>
  <g id="arrowLeft" transform="rotate(270) translate(-36 17)">
    <use xlink:href="#rim"/>
    <path pointer-events="none" fill="none" stroke="white" stroke-width="1.5" d="M0,-3.0v7 M-2.5,-0.5L0,-3.0L2.5,-0.5"/>
  </g>
  <g id="resetDef">
    <use xlink:href="#rim2" fill="#404040"><set attributeName="fill" to="#808080" begin="reset.mouseover" end="reset.mouseout"/></use>
  </g>
</defs>
<script type="application/ecmascript">
var viewWidth = 866;
var viewHeight = 138;
var sectionId = 'dynsection-0';
</script>
<script type="application/ecmascript" xlink:href="svg.min.js"/>
<svg id="graph" class="graph">
<g id="viewport">
<title>ImFusion::Dicom::IOD</title>
<!-- Node1 -->
<g id="Node000001" class="node">
<title>Node1</title>
<g id="a_Node000001"><a xlink:title="Base class of a Dicom Information Object Definition (IOD).">
<polygon fill="#999999" stroke="#666666" points="308.75,-74.25 193.75,-74.25 193.75,-55 308.75,-55 308.75,-74.25"/>
<text xml:space="preserve" text-anchor="middle" x="251.25" y="-60.75" font-family="Helvetica,sans-Serif" font-size="10.00">ImFusion::Dicom::IOD</text>
</a>
</g>
</g>
<!-- Node6 -->
<g id="Node000006" class="node">
<title>Node6</title>
<g id="a_Node000006"><a xlink:href="class_im_fusion_1_1_dicom_1_1_enhanced_multi_frame_image_i_o_d.html" target="_top" xlink:title="Class representing Enhanced CT Image IOD (PS 3.3 A.38).">
<polygon fill="white" stroke="#666666" points="487.88,-128.88 347.38,-128.88 347.38,-98.38 487.88,-98.38 487.88,-128.88"/>
<text xml:space="preserve" text-anchor="start" x="355.38" y="-115.38" font-family="Helvetica,sans-Serif" font-size="10.00">ImFusion::Dicom::Enhanced</text>
<text xml:space="preserve" text-anchor="middle" x="417.62" y="-104.12" font-family="Helvetica,sans-Serif" font-size="10.00">MultiFrameImageIOD</text>
</a>
</g>
</g>
<!-- Node1&#45;&gt;Node6 -->
<g id="edge5_Node000001_Node000006" class="edge">
<title>Node1&#45;&gt;Node6</title>
<g id="a_edge5_Node000001_Node000006"><a xlink:title=" ">
<path fill="none" stroke="#63b8ff" d="M296.94,-77.95C317.62,-84.11 342.33,-91.48 363.91,-97.91"/>
<polygon fill="#63b8ff" stroke="#63b8ff" points="297.94,-74.59 287.36,-75.09 295.94,-81.3 297.94,-74.59"/>
</a>
</g>
</g>
<!-- Node8 -->
<g id="Node000008" class="node">
<title>Node8</title>
<g id="a_Node000008"><a xlink:href="class_im_fusion_1_1_dicom_1_1_multi_frame_image_i_o_d.html" target="_top" xlink:title="Base IOD for classic DICOM files.">
<polygon fill="white" stroke="#666666" points="490.5,-79.88 344.75,-79.88 344.75,-49.38 490.5,-49.38 490.5,-79.88"/>
<text xml:space="preserve" text-anchor="start" x="352.75" y="-66.38" font-family="Helvetica,sans-Serif" font-size="10.00">ImFusion::Dicom::MultiFrame</text>
<text xml:space="preserve" text-anchor="middle" x="417.62" y="-55.12" font-family="Helvetica,sans-Serif" font-size="10.00">ImageIOD</text>
</a>
</g>
</g>
<!-- Node1&#45;&gt;Node8 -->
<g id="edge7_Node000001_Node000008" class="edge">
<title>Node1&#45;&gt;Node8</title>
<g id="a_edge7_Node000001_Node000008"><a xlink:title=" ">
<path fill="none" stroke="#63b8ff" d="M320.26,-64.62C328.19,-64.62 336.29,-64.62 344.28,-64.62"/>
<polygon fill="#63b8ff" stroke="#63b8ff" points="320.33,-61.13 310.33,-64.63 320.33,-68.13 320.33,-61.13"/>
</a>
</g>
</g>
<!-- Node12 -->
<g id="Node000012" class="node">
<title>Node12</title>
<g id="a_Node000012"><a xlink:href="class_im_fusion_1_1_philips_q_lab_i_o_d.html" target="_top" xlink:title="Loads ultrasound volume stored by Philips QLab software.">
<polygon fill="white" stroke="#666666" points="484.12,-31.25 351.12,-31.25 351.12,-12 484.12,-12 484.12,-31.25"/>
<text xml:space="preserve" text-anchor="middle" x="417.62" y="-17.75" font-family="Helvetica,sans-Serif" font-size="10.00">ImFusion::PhilipsQLabIOD</text>
</a>
</g>
</g>
<!-- Node1&#45;&gt;Node12 -->
<g id="edge11_Node000001_Node000012" class="edge">
<title>Node1&#45;&gt;Node12</title>
<g id="a_edge11_Node000001_Node000012"><a xlink:title=" ">
<path fill="none" stroke="#63b8ff" d="M301.67,-51.7C326.14,-45.3 355.24,-37.68 378.04,-31.72"/>
<polygon fill="#63b8ff" stroke="#63b8ff" points="301.04,-48.24 292.25,-54.16 302.81,-55.02 301.04,-48.24"/>
</a>
</g>
</g>
<!-- Node2 -->
<g id="Node000002" class="node">
<title>Node2</title>
<g id="a_Node000002"><a xlink:href="class_im_fusion_1_1_dicom_1_1_module_list.html" target="_top" xlink:title="Interface for classes that consist of modules.">
<polygon fill="white" stroke="#666666" points="151,-130.25 6.75,-130.25 6.75,-111 151,-111 151,-130.25"/>
<text xml:space="preserve" text-anchor="middle" x="78.88" y="-116.75" font-family="Helvetica,sans-Serif" font-size="10.00">ImFusion::Dicom::ModuleList</text>
</a>
</g>
</g>
<!-- Node2&#45;&gt;Node1 -->
<g id="edge1_Node000001_Node000002" class="edge">
<title>Node2&#45;&gt;Node1</title>
<g id="a_edge1_Node000001_Node000002"><a xlink:title=" ">
<path fill="none" stroke="#63b8ff" d="M139.78,-107.82C145.88,-106.21 151.97,-104.47 157.75,-102.62 182.56,-94.72 210.06,-83.03 228.57,-74.71"/>
<polygon fill="#63b8ff" stroke="#63b8ff" points="139.11,-104.38 130.28,-110.23 140.83,-111.17 139.11,-104.38"/>
</a>
</g>
</g>
<!-- Node3 -->
<g id="Node000003" class="node">
<title>Node3</title>
<g id="a_Node000003"><a xlink:href="class_im_fusion_1_1_dicom_1_1_element_list.html" target="_top" xlink:title="Interface for classes that consist of Elements.">
<polygon fill="white" stroke="#666666" points="153.25,-93.25 4.5,-93.25 4.5,-74 153.25,-74 153.25,-93.25"/>
<text xml:space="preserve" text-anchor="middle" x="78.88" y="-79.75" font-family="Helvetica,sans-Serif" font-size="10.00">ImFusion::Dicom::ElementList</text>
</a>
</g>
</g>
<!-- Node3&#45;&gt;Node1 -->
<g id="edge2_Node000001_Node000003" class="edge">
<title>Node3&#45;&gt;Node1</title>
<g id="a_edge2_Node000001_Node000003"><a xlink:title=" ">
<path fill="none" stroke="#63b8ff" d="M164.9,-74.14C174.55,-73.07 184.2,-71.99 193.35,-70.97"/>
<polygon fill="#63b8ff" stroke="#63b8ff" points="164.67,-70.65 155.12,-75.23 165.44,-77.6 164.67,-70.65"/>
</a>
</g>
</g>
<!-- Node4 -->
<g id="Node000004" class="node">
<title>Node4</title>
<g id="a_Node000004"><a xlink:href="class_im_fusion_1_1_dicom_1_1_error_recorder.html" target="_top" xlink:title="Error handling interface for the Dicom module.">
<polygon fill="white" stroke="#666666" points="157.75,-56.25 0,-56.25 0,-37 157.75,-37 157.75,-56.25"/>
<text xml:space="preserve" text-anchor="middle" x="78.88" y="-42.75" font-family="Helvetica,sans-Serif" font-size="10.00">ImFusion::Dicom::ErrorRecorder</text>
</a>
</g>
</g>
<!-- Node4&#45;&gt;Node1 -->
<g id="edge3_Node000001_Node000004" class="edge">
<title>Node4&#45;&gt;Node1</title>
<g id="a_edge3_Node000001_Node000004"><a xlink:title=" ">
<path fill="none" stroke="#63b8ff" d="M169.26,-56.07C177.45,-56.93 185.6,-57.79 193.38,-58.62"/>
<polygon fill="#63b8ff" stroke="#63b8ff" points="169.9,-52.62 159.59,-55.05 169.16,-59.58 169.9,-52.62"/>
</a>
</g>
</g>
<!-- Node5 -->
<g id="Node000005" class="node">
<title>Node5</title>
<g id="a_Node000005"><a xlink:href="class_im_fusion_1_1_utils_1_1_not_copyable.html" target="_top" xlink:title="Inherit from this class if your class should be neither copy&#45;constructible nor assignable.">
<polygon fill="white" stroke="#666666" points="151.75,-19.25 6,-19.25 6,0 151.75,0 151.75,-19.25"/>
<text xml:space="preserve" text-anchor="middle" x="78.88" y="-5.75" font-family="Helvetica,sans-Serif" font-size="10.00">ImFusion::Utils::NotCopyable</text>
</a>
</g>
</g>
<!-- Node5&#45;&gt;Node1 -->
<g id="edge4_Node000001_Node000005" class="edge">
<title>Node5&#45;&gt;Node1</title>
<g id="a_edge4_Node000001_Node000005"><a xlink:title=" ">
<path fill="none" stroke="#63b8ff" d="M139.76,-22.48C145.87,-24.09 151.96,-25.81 157.75,-27.62 182.18,-35.28 209.28,-46.45 227.79,-54.51"/>
<polygon fill="#63b8ff" stroke="#63b8ff" points="140.81,-19.14 130.26,-20.09 139.1,-25.93 140.81,-19.14"/>
</a>
</g>
</g>
<!-- Node7 -->
<g id="Node000007" class="node">
<title>Node7</title>
<g id="a_Node000007"><a xlink:href="class_im_fusion_1_1_dicom_1_1_segmentation_storage_i_o_d.html" target="_top" xlink:title="Class representing Segmentation IOD.">
<polygon fill="white" stroke="#666666" points="683.5,-128.88 526.5,-128.88 526.5,-98.38 683.5,-98.38 683.5,-128.88"/>
<text xml:space="preserve" text-anchor="start" x="534.5" y="-115.38" font-family="Helvetica,sans-Serif" font-size="10.00">ImFusion::Dicom::Segmentation</text>
<text xml:space="preserve" text-anchor="middle" x="605" y="-104.12" font-family="Helvetica,sans-Serif" font-size="10.00">StorageIOD</text>
</a>
</g>
</g>
<!-- Node6&#45;&gt;Node7 -->
<g id="edge6_Node000006_Node000007" class="edge">
<title>Node6&#45;&gt;Node7</title>
<g id="a_edge6_Node000006_Node000007"><a xlink:title=" ">
<path fill="none" stroke="#63b8ff" d="M499.68,-113.62C508.51,-113.62 517.49,-113.62 526.28,-113.62"/>
<polygon fill="#63b8ff" stroke="#63b8ff" points="499.69,-110.13 489.69,-113.63 499.69,-117.13 499.69,-110.13"/>
</a>
</g>
</g>
<!-- Node9 -->
<g id="Node000009" class="node">
<title>Node9</title>
<g id="a_Node000009"><a xlink:href="class_im_fusion_1_1_dicom_1_1_volumetric_image_i_o_d.html" target="_top" xlink:title="The VolumetricImageIOD is a generic IOD for volumetric data that is stored slice by slice.">
<polygon fill="white" stroke="#666666" points="676.75,-79.88 533.25,-79.88 533.25,-49.38 676.75,-49.38 676.75,-79.88"/>
<text xml:space="preserve" text-anchor="start" x="541.25" y="-66.38" font-family="Helvetica,sans-Serif" font-size="10.00">ImFusion::Dicom::Volumetric</text>
<text xml:space="preserve" text-anchor="middle" x="605" y="-55.12" font-family="Helvetica,sans-Serif" font-size="10.00">ImageIOD</text>
</a>
</g>
</g>
<!-- Node8&#45;&gt;Node9 -->
<g id="edge8_Node000008_Node000009" class="edge">
<title>Node8&#45;&gt;Node9</title>
<g id="a_edge8_Node000008_Node000009"><a xlink:title=" ">
<path fill="none" stroke="#63b8ff" d="M502.28,-64.62C512.51,-64.62 522.89,-64.62 532.91,-64.62"/>
<polygon fill="#63b8ff" stroke="#63b8ff" points="502.34,-61.13 492.34,-64.63 502.34,-68.13 502.34,-61.13"/>
</a>
</g>
</g>
<!-- Node10 -->
<g id="Node000010" class="node">
<title>Node10</title>
<g id="a_Node000010"><a xlink:href="class_im_fusion_1_1_dicom_1_1_dicom_ge_signa_excite_i_o_d.html" target="_top" xlink:title="Extra IOD specialization for basic support of loading 4D MRI sequences created by GE Signa Excite dev...">
<polygon fill="white" stroke="#666666" points="857.75,-104.88 719.5,-104.88 719.5,-74.38 857.75,-74.38 857.75,-104.88"/>
<text xml:space="preserve" text-anchor="start" x="727.5" y="-91.38" font-family="Helvetica,sans-Serif" font-size="10.00">ImFusion::Dicom::DicomGe</text>
<text xml:space="preserve" text-anchor="middle" x="788.62" y="-80.12" font-family="Helvetica,sans-Serif" font-size="10.00">SignaExciteIOD</text>
</a>
</g>
</g>
<!-- Node9&#45;&gt;Node10 -->
<g id="edge9_Node000009_Node000010" class="edge">
<title>Node9&#45;&gt;Node10</title>
<g id="a_edge9_Node000009_Node000010"><a xlink:title=" ">
<path fill="none" stroke="#63b8ff" d="M688.13,-75.93C698.47,-77.35 708.96,-78.8 719.05,-80.19"/>
<polygon fill="#63b8ff" stroke="#63b8ff" points="688.88,-72.5 678.5,-74.6 687.93,-79.44 688.88,-72.5"/>
</a>
</g>
</g>
<!-- Node11 -->
<g id="Node000011" class="node">
<title>Node11</title>
<g id="a_Node000011"><a xlink:href="class_im_fusion_1_1_nuclear_medicine_image_i_o_d.html" target="_top" xlink:title="PS 3.3 A.5 Nuclear Medicine Image IOD Does not support saving yet.">
<polygon fill="white" stroke="#666666" points="856.25,-55.88 721,-55.88 721,-25.38 856.25,-25.38 856.25,-55.88"/>
<text xml:space="preserve" text-anchor="start" x="729" y="-42.38" font-family="Helvetica,sans-Serif" font-size="10.00">ImFusion::NuclearMedicine</text>
<text xml:space="preserve" text-anchor="middle" x="788.62" y="-31.12" font-family="Helvetica,sans-Serif" font-size="10.00">ImageIOD</text>
</a>
</g>
</g>
<!-- Node9&#45;&gt;Node11 -->
<g id="edge10_Node000009_Node000011" class="edge">
<title>Node9&#45;&gt;Node11</title>
<g id="a_edge10_Node000009_Node000011"><a xlink:title=" ">
<path fill="none" stroke="#63b8ff" d="M688.19,-53.76C699.02,-52.33 710,-50.88 720.53,-49.49"/>
<polygon fill="#63b8ff" stroke="#63b8ff" points="687.96,-50.26 678.5,-55.04 688.87,-57.2 687.96,-50.26"/>
</a>
</g>
</g>
</g>
</svg>

<g id="navigator" transform="translate(0 0)" fill="#404254">
  <rect fill="#f2f5e9" fill-opacity="0.5" stroke="#606060" stroke-width=".5" x="0" y="0" width="60" height="60"/>
  <use id="zoomplus" xlink:href="#zoomPlus" x="17" y="9" onmousedown="handleZoom(evt,'in')"/>
  <use id="zoomminus" xlink:href="#zoomMin" x="42" y="9" onmousedown="handleZoom(evt,'out')"/>
  <use id="reset" xlink:href="#resetDef" x="30" y="36" onmousedown="handleReset()"/>
   <use id="arrowup" xlink:href="#arrowUp" x="0" y="0" onmousedown="handlePan(0,-1)"/>
  <use id="arrowright" xlink:href="#arrowRight" x="0" y="0" onmousedown="handlePan(1,0)"/>
  <use id="arrowdown" xlink:href="#arrowDown" x="0" y="0" onmousedown="handlePan(0,1)"/>
  <use id="arrowleft" xlink:href="#arrowLeft" x="0" y="0" onmousedown="handlePan(-1,0)"/>
</g>
<svg viewBox="0 0 15 15" width="100%" height="30px" preserveAspectRatio="xMaxYMin meet">
 <g id="arrow_out" transform="scale(0.3 0.3)">
  <a xlink:href="class_im_fusion_1_1_dicom_1_1_i_o_d__inherit__graph_org.svg" target="_base">
   <rect id="button" ry="5" rx="5" y="6" x="6" height="38" width="38"
        fill="#f2f5e9" fill-opacity="0.5" stroke="#606060" stroke-width="1.0"/>
   <path id="arrow"
     d="M 11.500037,31.436501 C 11.940474,20.09759 22.043105,11.32322 32.158766,21.979434 L 37.068811,17.246167 C 37.068811,17.246167 37.088388,32 37.088388,32 L 22.160133,31.978069 C 22.160133,31.978069 26.997745,27.140456 26.997745,27.140456 C 18.528582,18.264221 13.291696,25.230495 11.500037,31.436501 z"
     style="fill:#404040;"/>
  </a>
 </g>
</svg>

<style type='text/css'>
<![CDATA[
[data-mouse-over-selected='false'] { opacity: 0.7; }
[data-mouse-over-selected='true']  { opacity: 1.0; }
]]>
</style>
<script type="application/ecmascript"><![CDATA[
document.addEventListener('DOMContentLoaded', (event) => {
  highlightEdges();
  highlightAdjacentNodes();
});
]]></script>
</svg>
