<?xml version="1.0" encoding="UTF-8" standalone="no"?>
<!DOCTYPE svg PUBLIC "-//W3C//DTD SVG 1.1//EN"
 "http://www.w3.org/Graphics/SVG/1.1/DTD/svg11.dtd">
<!-- Generated by graphviz version 14.1.4 (20260321.0153)
 -->
<!-- Title: ImFusion::GlMask Pages: 1 -->
<svg width="664pt" height="175pt"
 viewBox="0.00 0.00 664.00 175.00" xmlns="http://www.w3.org/2000/svg" xmlns:xlink="http://www.w3.org/1999/xlink">
<g id="graph0" class="graph" transform="scale(1 1) rotate(0) translate(4 171.25)">
<title>ImFusion::GlMask</title>
<!-- Node1 -->
<g id="Node000001" class="node">
<title>Node1</title>
<g id="a_Node000001"><a xlink:title="Base interface for implementing polymorphic image masks using OpenGL.">
<polygon fill="#999999" stroke="#666666" points="463.5,-93.25 367.25,-93.25 367.25,-74 463.5,-74 463.5,-93.25"/>
<text xml:space="preserve" text-anchor="middle" x="415.38" y="-79.75" font-family="Helvetica,sans-Serif" font-size="10.00">ImFusion::GlMask</text>
</a>
</g>
</g>
<!-- Node5 -->
<g id="Node000005" class="node">
<title>Node5</title>
<g id="a_Node000005"><a xlink:href="class_im_fusion_1_1_cropping_mask.html" target="_top" xlink:title="Simple axis&#45;aligned cropping mask with optional roundness.">
<polygon fill="white" stroke="#666666" points="640.38,-167.25 514.88,-167.25 514.88,-148 640.38,-148 640.38,-167.25"/>
<text xml:space="preserve" text-anchor="middle" x="577.62" y="-153.75" font-family="Helvetica,sans-Serif" font-size="10.00">ImFusion::CroppingMask</text>
</a>
</g>
</g>
<!-- Node1&#45;&gt;Node5 -->
<g id="edge4_Node000001_Node000005" class="edge">
<title>Node1&#45;&gt;Node5</title>
<g id="a_edge4_Node000001_Node000005"><a xlink:title=" ">
<path fill="none" stroke="#63b8ff" d="M436.79,-100.49C452.9,-113 476.43,-129.57 499.5,-139.62 506.68,-142.76 514.49,-145.39 522.29,-147.58"/>
<polygon fill="#63b8ff" stroke="#63b8ff" points="439.41,-98.1 429.4,-94.62 435.05,-103.58 439.41,-98.1"/>
</a>
</g>
</g>
<!-- Node6 -->
<g id="Node000006" class="node">
<title>Node6</title>
<g id="a_Node000006"><a xlink:href="class_im_fusion_1_1_explicit_intensity_mask.html" target="_top" xlink:title="An ExplicitIntensityMask is a combination of an ExplicitMask and an IntensityMask.">
<polygon fill="white" stroke="#666666" points="655.75,-130.25 499.5,-130.25 499.5,-111 655.75,-111 655.75,-130.25"/>
<text xml:space="preserve" text-anchor="middle" x="577.62" y="-116.75" font-family="Helvetica,sans-Serif" font-size="10.00">ImFusion::ExplicitIntensityMask</text>
</a>
</g>
</g>
<!-- Node1&#45;&gt;Node6 -->
<g id="edge5_Node000001_Node000006" class="edge">
<title>Node1&#45;&gt;Node6</title>
<g id="a_edge5_Node000001_Node000006"><a xlink:title=" ">
<path fill="none" stroke="#63b8ff" d="M471.36,-96.32C491.46,-100.96 513.91,-106.14 532.89,-110.53"/>
<polygon fill="#63b8ff" stroke="#63b8ff" points="472.17,-92.92 461.64,-94.08 470.59,-99.74 472.17,-92.92"/>
</a>
</g>
</g>
<!-- Node7 -->
<g id="Node000007" class="node">
<title>Node7</title>
<g id="a_Node000007"><a xlink:href="class_im_fusion_1_1_explicit_mask.html" target="_top" xlink:title="An ExplicitMask holds an individual mask value for every pixel.">
<polygon fill="white" stroke="#666666" points="637,-93.25 518.25,-93.25 518.25,-74 637,-74 637,-93.25"/>
<text xml:space="preserve" text-anchor="middle" x="577.62" y="-79.75" font-family="Helvetica,sans-Serif" font-size="10.00">ImFusion::ExplicitMask</text>
</a>
</g>
</g>
<!-- Node1&#45;&gt;Node7 -->
<g id="edge6_Node000001_Node000007" class="edge">
<title>Node1&#45;&gt;Node7</title>
<g id="a_edge6_Node000001_Node000007"><a xlink:title=" ">
<path fill="none" stroke="#63b8ff" d="M475.04,-83.62C488.98,-83.62 503.86,-83.62 517.81,-83.62"/>
<polygon fill="#63b8ff" stroke="#63b8ff" points="475.1,-80.13 465.1,-83.63 475.1,-87.13 475.1,-80.13"/>
</a>
</g>
</g>
<!-- Node8 -->
<g id="Node000008" class="node">
<title>Node8</title>
<g id="a_Node000008"><a xlink:href="class_im_fusion_1_1_intensity_mask.html" target="_top" xlink:title="Masks pixels with a specific value or values outside a specific range.">
<polygon fill="white" stroke="#666666" points="639.62,-56.25 515.62,-56.25 515.62,-37 639.62,-37 639.62,-56.25"/>
<text xml:space="preserve" text-anchor="middle" x="577.62" y="-42.75" font-family="Helvetica,sans-Serif" font-size="10.00">ImFusion::IntensityMask</text>
</a>
</g>
</g>
<!-- Node1&#45;&gt;Node8 -->
<g id="edge7_Node000001_Node000008" class="edge">
<title>Node1&#45;&gt;Node8</title>
<g id="a_edge7_Node000001_Node000008"><a xlink:title=" ">
<path fill="none" stroke="#63b8ff" d="M471.36,-70.93C491.46,-66.29 513.91,-61.11 532.89,-56.72"/>
<polygon fill="#63b8ff" stroke="#63b8ff" points="470.59,-67.51 461.64,-73.17 472.17,-74.33 470.59,-67.51"/>
</a>
</g>
</g>
<!-- Node9 -->
<g id="Node000009" class="node">
<title>Node9</title>
<g id="a_Node000009"><a xlink:href="class_im_fusion_1_1_skipping_mask.html" target="_top" xlink:title="Basic mask where only every N&#45;th pixel is considered inside.">
<polygon fill="white" stroke="#666666" points="639.62,-19.25 515.62,-19.25 515.62,0 639.62,0 639.62,-19.25"/>
<text xml:space="preserve" text-anchor="middle" x="577.62" y="-5.75" font-family="Helvetica,sans-Serif" font-size="10.00">ImFusion::SkippingMask</text>
</a>
</g>
</g>
<!-- Node1&#45;&gt;Node9 -->
<g id="edge8_Node000001_Node000009" class="edge">
<title>Node1&#45;&gt;Node9</title>
<g id="a_edge8_Node000001_Node000009"><a xlink:title=" ">
<path fill="none" stroke="#63b8ff" d="M436.79,-66.76C452.9,-54.25 476.43,-37.68 499.5,-27.62 506.68,-24.49 514.49,-21.86 522.29,-19.67"/>
<polygon fill="#63b8ff" stroke="#63b8ff" points="435.05,-63.67 429.4,-72.63 439.41,-69.15 435.05,-63.67"/>
</a>
</g>
</g>
<!-- Node2 -->
<g id="Node000002" class="node">
<title>Node2</title>
<g id="a_Node000002"><a xlink:href="class_im_fusion_1_1_g_l_1_1_abstract_include.html" target="_top" xlink:title="Base class for abstract GLSL includes.">
<polygon fill="white" stroke="#666666" points="331.25,-115.25 181.75,-115.25 181.75,-96 331.25,-96 331.25,-115.25"/>
<text xml:space="preserve" text-anchor="middle" x="256.5" y="-101.75" font-family="Helvetica,sans-Serif" font-size="10.00">ImFusion::GL::AbstractInclude</text>
</a>
</g>
</g>
<!-- Node2&#45;&gt;Node1 -->
<g id="edge1_Node000001_Node000002" class="edge">
<title>Node2&#45;&gt;Node1</title>
<g id="a_edge1_Node000001_Node000002"><a xlink:title=" ">
<path fill="none" stroke="#63b8ff" d="M340.87,-93.93C349.83,-92.68 358.7,-91.43 367.02,-90.27"/>
<polygon fill="#63b8ff" stroke="#63b8ff" points="340.43,-90.46 331.01,-95.32 341.4,-97.39 340.43,-90.46"/>
</a>
</g>
</g>
<!-- Node3 -->
<g id="Node000003" class="node">
<title>Node3</title>
<g id="a_Node000003"><a xlink:href="class_im_fusion_1_1_utils_1_1_not_copyable.html" target="_top" xlink:title="Inherit from this class if your class should be neither copy&#45;constructible nor assignable.">
<polygon fill="white" stroke="#666666" points="145.75,-115.25 0,-115.25 0,-96 145.75,-96 145.75,-115.25"/>
<text xml:space="preserve" text-anchor="middle" x="72.88" y="-101.75" font-family="Helvetica,sans-Serif" font-size="10.00">ImFusion::Utils::NotCopyable</text>
</a>
</g>
</g>
<!-- Node3&#45;&gt;Node2 -->
<g id="edge2_Node000002_Node000003" class="edge">
<title>Node3&#45;&gt;Node2</title>
<g id="a_edge2_Node000002_Node000003"><a xlink:title=" ">
<path fill="none" stroke="#8b1a1a" d="M157.68,-105.62C165.58,-105.62 173.56,-105.62 181.36,-105.62"/>
<polygon fill="#8b1a1a" stroke="#8b1a1a" points="157.69,-102.13 147.69,-105.63 157.69,-109.13 157.69,-102.13"/>
</a>
</g>
</g>
<!-- Node4 -->
<g id="Node000004" class="node">
<title>Node4</title>
<g id="a_Node000004"><a xlink:href="class_im_fusion_1_1_g_l_1_1_multi_includable.html" target="_top" xlink:title=" ">
<polygon fill="white" stroke="#666666" points="329.75,-77.88 183.25,-77.88 183.25,-47.38 329.75,-47.38 329.75,-77.88"/>
<text xml:space="preserve" text-anchor="start" x="191.25" y="-64.38" font-family="Helvetica,sans-Serif" font-size="10.00">ImFusion::GL::MultiIncludable</text>
<text xml:space="preserve" text-anchor="middle" x="256.5" y="-53.12" font-family="Helvetica,sans-Serif" font-size="10.00">&lt; GlMask &gt;</text>
</a>
</g>
</g>
<!-- Node4&#45;&gt;Node1 -->
<g id="edge3_Node000001_Node000004" class="edge">
<title>Node4&#45;&gt;Node1</title>
<g id="a_edge3_Node000001_Node000004"><a xlink:title=" ">
<path fill="none" stroke="#63b8ff" d="M341.14,-73.82C349.95,-75 358.68,-76.17 366.86,-77.27"/>
<polygon fill="#63b8ff" stroke="#63b8ff" points="341.84,-70.38 331.47,-72.53 340.92,-77.32 341.84,-70.38"/>
</a>
</g>
</g>
</g>
</svg>
