<?xml version="1.0" encoding="UTF-8" standalone="no"?>
<!DOCTYPE svg PUBLIC "-//W3C//DTD SVG 1.1//EN"
 "http://www.w3.org/Graphics/SVG/1.1/DTD/svg11.dtd">
<!-- Generated by graphviz version 14.1.4 (20260321.0153)
 -->
<!-- Title: ImFusion::GL::InstanceManagerBase Pages: 1 -->
<!--zoomable 615 -->

<svg id="main" version="1.1" xmlns="http://www.w3.org/2000/svg" xmlns:xlink="http://www.w3.org/1999/xlink" xml:space="preserve" onload="init(evt)">

<style type="text/css"><![CDATA[
.node, .edge {opacity: 0.7;}
.node.selected, .edge.selected {opacity: 1;}
.edge:hover path { stroke: red; }
.edge:hover polygon { stroke: red; fill: red; }
]]></style>

<defs>
  <circle id="rim" cx="0" cy="0" r="7"/>
  <circle id="rim2" cx="0" cy="0" r="3.5"/>
  <g id="zoomPlus">
    <use xlink:href="#rim" fill="#404040"><set attributeName="fill" to="#808080" begin="zoomplus.mouseover" end="zoomplus.mouseout"/></use>
    <path d="M-4,0h8M0,-4v8" fill="none" stroke="white" stroke-width="1.5" pointer-events="none"/>
  </g>
  <g id="zoomMin">
    <use xlink:href="#rim" fill="#404040"><set attributeName="fill" to="#808080" begin="zoomminus.mouseover" end="zoomminus.mouseout"/></use>
    <path d="M-4,0h8" fill="none" stroke="white" stroke-width="1.5" pointer-events="none"/>
  </g>
  <g id="arrowUp" transform="translate(30 24)">
    <use xlink:href="#rim"/>
    <path pointer-events="none" fill="none" stroke="white" stroke-width="1.5" d="M0,-3.0v7 M-2.5,-0.5L0,-3.0L2.5,-0.5"/>
  </g>
  <g id="arrowRight" transform="rotate(90) translate(36 -43)">
    <use xlink:href="#rim"/>
    <path pointer-events="none" fill="none" stroke="white" stroke-width="1.5" d="M0,-3.0v7 M-2.5,-0.5L0,-3.0L2.5,-0.5"/>
  </g>
  <g id="arrowDown" transform="rotate(180) translate(-30 -48)">
    <use xlink:href="#rim"/>
    <path pointer-events="none" fill="none" stroke="white" stroke-width="1.5" d="M0,-3.0v7 M-2.5,-0.5L0,-3.0L2.5,-0.5"/>
  </g>
  <g id="arrowLeft" transform="rotate(270) translate(-36 17)">
    <use xlink:href="#rim"/>
    <path pointer-events="none" fill="none" stroke="white" stroke-width="1.5" d="M0,-3.0v7 M-2.5,-0.5L0,-3.0L2.5,-0.5"/>
  </g>
  <g id="resetDef">
    <use xlink:href="#rim2" fill="#404040"><set attributeName="fill" to="#808080" begin="reset.mouseover" end="reset.mouseout"/></use>
  </g>
</defs>
<script type="application/ecmascript">
var viewWidth = 776;
var viewHeight = 615;
var sectionId = 'dynsection-0';
</script>
<script type="application/ecmascript" xlink:href="svg.min.js"/>
<svg id="graph" class="graph">
<g id="viewport">
<title>ImFusion::GL::InstanceManagerBase</title>
<!-- Node1 -->
<g id="Node000001" class="node">
<title>Node1</title>
<g id="a_Node000001"><a xlink:title="Base class for context&#45;aware caching of OpenGL object instances.">
<polygon fill="#999999" stroke="#666666" points="360.5,-307.25 181.75,-307.25 181.75,-288 360.5,-288 360.5,-307.25"/>
<text xml:space="preserve" text-anchor="middle" x="271.12" y="-293.75" font-family="Helvetica,sans-Serif" font-size="10.00">ImFusion::GL::InstanceManagerBase</text>
</a>
</g>
</g>
<!-- Node3 -->
<g id="Node000003" class="node">
<title>Node3</title>
<g id="a_Node000003"><a xlink:href="class_im_fusion_1_1_g_l_1_1_instance_manager.html" target="_top" xlink:title=" ">
<polygon fill="white" stroke="#666666" points="564.75,-606.88 408.5,-606.88 408.5,-576.38 564.75,-576.38 564.75,-606.88"/>
<text xml:space="preserve" text-anchor="start" x="416.5" y="-593.38" font-family="Helvetica,sans-Serif" font-size="10.00">ImFusion::GL::InstanceManager</text>
<text xml:space="preserve" text-anchor="middle" x="486.62" y="-582.12" font-family="Helvetica,sans-Serif" font-size="10.00">&lt; FixedFunctionPipeline &gt;</text>
</a>
</g>
</g>
<!-- Node1&#45;&gt;Node3 -->
<g id="edge2_Node000001_Node000003" class="edge">
<title>Node1&#45;&gt;Node3</title>
<g id="a_edge2_Node000001_Node000003"><a xlink:title=" ">
<path fill="none" stroke="#8b1a1a" d="M275.71,-318.87C285.43,-369.67 317.07,-498.96 396.5,-566.62 400.78,-570.27 405.56,-573.39 410.61,-576.05"/>
<polygon fill="#8b1a1a" stroke="#8b1a1a" points="279.19,-318.44 273.97,-309.22 272.3,-319.69 279.19,-318.44"/>
</a>
</g>
</g>
<!-- Node5 -->
<g id="Node000005" class="node">
<title>Node5</title>
<g id="a_Node000005"><a xlink:href="class_im_fusion_1_1_g_l_1_1_instance_manager.html" target="_top" xlink:title=" ">
<polygon fill="white" stroke="#666666" points="564.75,-557.88 408.5,-557.88 408.5,-527.38 564.75,-527.38 564.75,-557.88"/>
<text xml:space="preserve" text-anchor="start" x="416.5" y="-544.38" font-family="Helvetica,sans-Serif" font-size="10.00">ImFusion::GL::InstanceManager</text>
<text xml:space="preserve" text-anchor="middle" x="486.62" y="-533.12" font-family="Helvetica,sans-Serif" font-size="10.00">&lt; FullscreenSquare &gt;</text>
</a>
</g>
</g>
<!-- Node1&#45;&gt;Node5 -->
<g id="edge4_Node000001_Node000005" class="edge">
<title>Node1&#45;&gt;Node5</title>
<g id="a_edge4_Node000001_Node000005"><a xlink:title=" ">
<path fill="none" stroke="#8b1a1a" d="M277.87,-318.18C291.15,-361.81 328.16,-464.05 396.5,-517.62 401.05,-521.19 406.09,-524.25 411.38,-526.88"/>
<polygon fill="#8b1a1a" stroke="#8b1a1a" points="281.28,-317.37 275.11,-308.75 274.56,-319.33 281.28,-317.37"/>
</a>
</g>
</g>
<!-- Node7 -->
<g id="Node000007" class="node">
<title>Node7</title>
<g id="a_Node000007"><a xlink:href="class_im_fusion_1_1_g_l_1_1_instance_manager.html" target="_top" xlink:title=" ">
<polygon fill="white" stroke="#666666" points="564.75,-508.88 408.5,-508.88 408.5,-478.38 564.75,-478.38 564.75,-508.88"/>
<text xml:space="preserve" text-anchor="start" x="416.5" y="-495.38" font-family="Helvetica,sans-Serif" font-size="10.00">ImFusion::GL::InstanceManager</text>
<text xml:space="preserve" text-anchor="middle" x="486.62" y="-484.12" font-family="Helvetica,sans-Serif" font-size="10.00">&lt; LineRenderer &gt;</text>
</a>
</g>
</g>
<!-- Node1&#45;&gt;Node7 -->
<g id="edge6_Node000001_Node000007" class="edge">
<title>Node1&#45;&gt;Node7</title>
<g id="a_edge6_Node000001_Node000007"><a xlink:title=" ">
<path fill="none" stroke="#8b1a1a" d="M281.14,-317.7C298.29,-353.58 339.12,-428.72 396.5,-468.62 401.65,-472.2 407.29,-475.27 413.17,-477.9"/>
<polygon fill="#8b1a1a" stroke="#8b1a1a" points="284.43,-316.49 277.05,-308.89 278.09,-319.44 284.43,-316.49"/>
</a>
</g>
</g>
<!-- Node9 -->
<g id="Node000009" class="node">
<title>Node9</title>
<g id="a_Node000009"><a xlink:href="class_im_fusion_1_1_g_l_1_1_instance_manager.html" target="_top" xlink:title=" ">
<polygon fill="white" stroke="#666666" points="564.75,-459.88 408.5,-459.88 408.5,-429.38 564.75,-429.38 564.75,-459.88"/>
<text xml:space="preserve" text-anchor="start" x="416.5" y="-446.38" font-family="Helvetica,sans-Serif" font-size="10.00">ImFusion::GL::InstanceManager</text>
<text xml:space="preserve" text-anchor="middle" x="486.62" y="-435.12" font-family="Helvetica,sans-Serif" font-size="10.00">&lt; OffscreenRenderHelper &gt;</text>
</a>
</g>
</g>
<!-- Node1&#45;&gt;Node9 -->
<g id="edge8_Node000001_Node000009" class="edge">
<title>Node1&#45;&gt;Node9</title>
<g id="a_edge8_Node000001_Node000009"><a xlink:title=" ">
<path fill="none" stroke="#8b1a1a" d="M286.08,-316.33C307.08,-343.17 349.4,-392.37 396.5,-419.62 402.76,-423.25 409.57,-426.37 416.55,-429.05"/>
<polygon fill="#8b1a1a" stroke="#8b1a1a" points="289.12,-314.54 280.25,-308.74 283.56,-318.8 289.12,-314.54"/>
</a>
</g>
</g>
<!-- Node11 -->
<g id="Node000011" class="node">
<title>Node11</title>
<g id="a_Node000011"><a xlink:href="class_im_fusion_1_1_g_l_1_1_instance_manager.html" target="_top" xlink:title=" ">
<polygon fill="white" stroke="#666666" points="564.75,-410.88 408.5,-410.88 408.5,-380.38 564.75,-380.38 564.75,-410.88"/>
<text xml:space="preserve" text-anchor="start" x="416.5" y="-397.38" font-family="Helvetica,sans-Serif" font-size="10.00">ImFusion::GL::InstanceManager</text>
<text xml:space="preserve" text-anchor="middle" x="486.62" y="-386.12" font-family="Helvetica,sans-Serif" font-size="10.00">&lt; TextRenderer &gt;</text>
</a>
</g>
</g>
<!-- Node1&#45;&gt;Node11 -->
<g id="edge10_Node000001_Node000011" class="edge">
<title>Node1&#45;&gt;Node11</title>
<g id="a_edge10_Node000001_Node000011"><a xlink:title=" ">
<path fill="none" stroke="#8b1a1a" d="M295.87,-314.07C320.21,-330.31 359.61,-354.93 396.5,-370.62 404.63,-374.08 413.39,-377.21 422.12,-379.99"/>
<polygon fill="#8b1a1a" stroke="#8b1a1a" points="297.91,-311.23 287.67,-308.52 293.99,-317.02 297.91,-311.23"/>
</a>
</g>
</g>
<!-- Node13 -->
<g id="Node000013" class="node">
<title>Node13</title>
<g id="a_Node000013"><a xlink:href="class_im_fusion_1_1_g_l_1_1_instance_manager.html" target="_top" xlink:title=" ">
<polygon fill="white" stroke="#666666" points="564.75,-361.88 408.5,-361.88 408.5,-331.38 564.75,-331.38 564.75,-361.88"/>
<text xml:space="preserve" text-anchor="start" x="416.5" y="-348.38" font-family="Helvetica,sans-Serif" font-size="10.00">ImFusion::GL::InstanceManager</text>
<text xml:space="preserve" text-anchor="middle" x="486.62" y="-337.12" font-family="Helvetica,sans-Serif" font-size="10.00">&lt; GlAverageReduction &gt;</text>
</a>
</g>
</g>
<!-- Node1&#45;&gt;Node13 -->
<g id="edge12_Node000001_Node000013" class="edge">
<title>Node1&#45;&gt;Node13</title>
<g id="a_edge12_Node000001_Node000013"><a xlink:title=" ">
<path fill="none" stroke="#8b1a1a" d="M327.1,-310.24C354.61,-316.56 388.17,-324.26 417.32,-330.95"/>
<polygon fill="#8b1a1a" stroke="#8b1a1a" points="328.11,-306.88 317.58,-308.06 326.54,-313.71 328.11,-306.88"/>
</a>
</g>
</g>
<!-- Node15 -->
<g id="Node000015" class="node">
<title>Node15</title>
<g id="a_Node000015"><a xlink:href="class_im_fusion_1_1_g_l_1_1_instance_manager.html" target="_top" xlink:title=" ">
<polygon fill="white" stroke="#666666" points="564.75,-312.88 408.5,-312.88 408.5,-282.38 564.75,-282.38 564.75,-312.88"/>
<text xml:space="preserve" text-anchor="start" x="416.5" y="-299.38" font-family="Helvetica,sans-Serif" font-size="10.00">ImFusion::GL::InstanceManager</text>
<text xml:space="preserve" text-anchor="middle" x="486.62" y="-288.12" font-family="Helvetica,sans-Serif" font-size="10.00">&lt; GlMaxReduction &gt;</text>
</a>
</g>
</g>
<!-- Node1&#45;&gt;Node15 -->
<g id="edge14_Node000001_Node000015" class="edge">
<title>Node1&#45;&gt;Node15</title>
<g id="a_edge14_Node000001_Node000015"><a xlink:title=" ">
<path fill="none" stroke="#8b1a1a" d="M372.29,-297.62C384.32,-297.62 396.46,-297.62 408.1,-297.62"/>
<polygon fill="#8b1a1a" stroke="#8b1a1a" points="372.33,-294.13 362.33,-297.63 372.33,-301.13 372.33,-294.13"/>
</a>
</g>
</g>
<!-- Node17 -->
<g id="Node000017" class="node">
<title>Node17</title>
<g id="a_Node000017"><a xlink:href="class_im_fusion_1_1_g_l_1_1_instance_manager.html" target="_top" xlink:title=" ">
<polygon fill="white" stroke="#666666" points="564.75,-263.88 408.5,-263.88 408.5,-233.38 564.75,-233.38 564.75,-263.88"/>
<text xml:space="preserve" text-anchor="start" x="416.5" y="-250.38" font-family="Helvetica,sans-Serif" font-size="10.00">ImFusion::GL::InstanceManager</text>
<text xml:space="preserve" text-anchor="middle" x="486.62" y="-239.12" font-family="Helvetica,sans-Serif" font-size="10.00">&lt; GlMinReduction &gt;</text>
</a>
</g>
</g>
<!-- Node1&#45;&gt;Node17 -->
<g id="edge16_Node000001_Node000017" class="edge">
<title>Node1&#45;&gt;Node17</title>
<g id="a_edge16_Node000001_Node000017"><a xlink:title=" ">
<path fill="none" stroke="#8b1a1a" d="M327.1,-285.01C354.61,-278.69 388.17,-270.99 417.32,-264.3"/>
<polygon fill="#8b1a1a" stroke="#8b1a1a" points="326.54,-281.54 317.58,-287.19 328.11,-288.37 326.54,-281.54"/>
</a>
</g>
</g>
<!-- Node19 -->
<g id="Node000019" class="node">
<title>Node19</title>
<g id="a_Node000019"><a xlink:href="class_im_fusion_1_1_g_l_1_1_instance_manager.html" target="_top" xlink:title=" ">
<polygon fill="white" stroke="#666666" points="564.75,-214.88 408.5,-214.88 408.5,-184.38 564.75,-184.38 564.75,-214.88"/>
<text xml:space="preserve" text-anchor="start" x="416.5" y="-201.38" font-family="Helvetica,sans-Serif" font-size="10.00">ImFusion::GL::InstanceManager</text>
<text xml:space="preserve" text-anchor="middle" x="486.62" y="-190.12" font-family="Helvetica,sans-Serif" font-size="10.00">&lt; GlProductReduction &gt;</text>
</a>
</g>
</g>
<!-- Node1&#45;&gt;Node19 -->
<g id="edge18_Node000001_Node000019" class="edge">
<title>Node1&#45;&gt;Node19</title>
<g id="a_edge18_Node000001_Node000019"><a xlink:title=" ">
<path fill="none" stroke="#8b1a1a" d="M295.87,-281.18C320.21,-264.94 359.61,-240.32 396.5,-224.62 404.63,-221.17 413.39,-218.04 422.12,-215.26"/>
<polygon fill="#8b1a1a" stroke="#8b1a1a" points="293.99,-278.23 287.67,-286.73 297.91,-284.02 293.99,-278.23"/>
</a>
</g>
</g>
<!-- Node21 -->
<g id="Node000021" class="node">
<title>Node21</title>
<g id="a_Node000021"><a xlink:href="class_im_fusion_1_1_g_l_1_1_instance_manager.html" target="_top" xlink:title=" ">
<polygon fill="white" stroke="#666666" points="564.75,-165.88 408.5,-165.88 408.5,-135.38 564.75,-135.38 564.75,-165.88"/>
<text xml:space="preserve" text-anchor="start" x="416.5" y="-152.38" font-family="Helvetica,sans-Serif" font-size="10.00">ImFusion::GL::InstanceManager</text>
<text xml:space="preserve" text-anchor="middle" x="486.62" y="-141.12" font-family="Helvetica,sans-Serif" font-size="10.00">&lt; GlSumReduction &gt;</text>
</a>
</g>
</g>
<!-- Node1&#45;&gt;Node21 -->
<g id="edge20_Node000001_Node000021" class="edge">
<title>Node1&#45;&gt;Node21</title>
<g id="a_edge20_Node000001_Node000021"><a xlink:title=" ">
<path fill="none" stroke="#8b1a1a" d="M286.08,-278.92C307.08,-252.08 349.4,-202.88 396.5,-175.62 402.76,-172 409.57,-168.88 416.55,-166.2"/>
<polygon fill="#8b1a1a" stroke="#8b1a1a" points="283.56,-276.45 280.25,-286.51 289.12,-280.71 283.56,-276.45"/>
</a>
</g>
</g>
<!-- Node23 -->
<g id="Node000023" class="node">
<title>Node23</title>
<g id="a_Node000023"><a xlink:href="class_im_fusion_1_1_g_l_1_1_instance_manager.html" target="_top" xlink:title=" ">
<polygon fill="white" stroke="#666666" points="564.75,-116.88 408.5,-116.88 408.5,-86.38 564.75,-86.38 564.75,-116.88"/>
<text xml:space="preserve" text-anchor="start" x="416.5" y="-103.38" font-family="Helvetica,sans-Serif" font-size="10.00">ImFusion::GL::InstanceManager</text>
<text xml:space="preserve" text-anchor="middle" x="486.62" y="-92.12" font-family="Helvetica,sans-Serif" font-size="10.00">&lt; GlTexelFetch &gt;</text>
</a>
</g>
</g>
<!-- Node1&#45;&gt;Node23 -->
<g id="edge22_Node000001_Node000023" class="edge">
<title>Node1&#45;&gt;Node23</title>
<g id="a_edge22_Node000001_Node000023"><a xlink:title=" ">
<path fill="none" stroke="#8b1a1a" d="M281.14,-277.55C298.29,-241.67 339.12,-166.53 396.5,-126.62 401.65,-123.05 407.29,-119.98 413.17,-117.35"/>
<polygon fill="#8b1a1a" stroke="#8b1a1a" points="278.09,-275.81 277.05,-286.36 284.43,-278.76 278.09,-275.81"/>
</a>
</g>
</g>
<!-- Node25 -->
<g id="Node000025" class="node">
<title>Node25</title>
<g id="a_Node000025"><a xlink:href="class_im_fusion_1_1_g_l_1_1_instance_manager.html" target="_top" xlink:title=" ">
<polygon fill="white" stroke="#666666" points="564.75,-67.88 408.5,-67.88 408.5,-37.38 564.75,-37.38 564.75,-67.88"/>
<text xml:space="preserve" text-anchor="start" x="416.5" y="-54.38" font-family="Helvetica,sans-Serif" font-size="10.00">ImFusion::GL::InstanceManager</text>
<text xml:space="preserve" text-anchor="middle" x="486.62" y="-43.12" font-family="Helvetica,sans-Serif" font-size="10.00">&lt; ThumbnailManager &gt;</text>
</a>
</g>
</g>
<!-- Node1&#45;&gt;Node25 -->
<g id="edge24_Node000001_Node000025" class="edge">
<title>Node1&#45;&gt;Node25</title>
<g id="a_edge24_Node000001_Node000025"><a xlink:title=" ">
<path fill="none" stroke="#8b1a1a" d="M277.87,-277.07C291.15,-233.44 328.16,-131.2 396.5,-77.62 401.05,-74.06 406.09,-71 411.38,-68.37"/>
<polygon fill="#8b1a1a" stroke="#8b1a1a" points="274.56,-275.92 275.11,-286.5 281.28,-277.88 274.56,-275.92"/>
</a>
</g>
</g>
<!-- Node27 -->
<g id="Node000027" class="node">
<title>Node27</title>
<g id="a_Node000027"><a xlink:href="class_im_fusion_1_1_g_l_1_1_instance_manager.html" target="_top" xlink:title="Concrete CRTP class for context&#45;aware caching of OpenGL object instances.">
<polygon fill="white" stroke="#666666" points="576.75,-19.25 396.5,-19.25 396.5,0 576.75,0 576.75,-19.25"/>
<text xml:space="preserve" text-anchor="middle" x="486.62" y="-5.75" font-family="Helvetica,sans-Serif" font-size="10.00">ImFusion::GL::InstanceManager&lt; T &gt;</text>
</a>
</g>
</g>
<!-- Node1&#45;&gt;Node27 -->
<g id="edge26_Node000001_Node000027" class="edge">
<title>Node1&#45;&gt;Node27</title>
<g id="a_edge26_Node000001_Node000027"><a xlink:title=" ">
<path fill="none" stroke="#8b1a1a" d="M275.38,-276.4C284.42,-225.11 314.77,-93.89 396.5,-28.62 400.95,-25.07 405.91,-22.14 411.15,-19.73"/>
<polygon fill="#8b1a1a" stroke="#8b1a1a" points="271.95,-275.69 273.77,-286.13 278.85,-276.84 271.95,-275.69"/>
</a>
</g>
</g>
<!-- Node2 -->
<g id="Node000002" class="node">
<title>Node2</title>
<g id="a_Node000002"><a xlink:href="class_im_fusion_1_1_utils_1_1_not_copyable.html" target="_top" xlink:title="Inherit from this class if your class should be neither copy&#45;constructible nor assignable.">
<polygon fill="white" stroke="#666666" points="145.75,-307.25 0,-307.25 0,-288 145.75,-288 145.75,-307.25"/>
<text xml:space="preserve" text-anchor="middle" x="72.88" y="-293.75" font-family="Helvetica,sans-Serif" font-size="10.00">ImFusion::Utils::NotCopyable</text>
</a>
</g>
</g>
<!-- Node2&#45;&gt;Node1 -->
<g id="edge1_Node000001_Node000002" class="edge">
<title>Node2&#45;&gt;Node1</title>
<g id="a_edge1_Node000001_Node000002"><a xlink:title=" ">
<path fill="none" stroke="#8b1a1a" d="M157.55,-297.62C165.44,-297.62 173.45,-297.62 181.38,-297.62"/>
<polygon fill="#8b1a1a" stroke="#8b1a1a" points="157.63,-294.13 147.63,-297.63 157.63,-301.13 157.63,-294.13"/>
</a>
</g>
</g>
<!-- Node4 -->
<g id="Node000004" class="node">
<title>Node4</title>
<g id="a_Node000004"><a xlink:href="class_im_fusion_1_1_g_l_1_1_fixed_function_pipeline.html" target="_top" xlink:title="Convenience class for a shader implementing a basic fixed function rendering pipeline.">
<polygon fill="white" stroke="#666666" points="761.88,-606.88 619.12,-606.88 619.12,-576.38 761.88,-576.38 761.88,-606.88"/>
<text xml:space="preserve" text-anchor="start" x="627.12" y="-593.38" font-family="Helvetica,sans-Serif" font-size="10.00">ImFusion::GL::FixedFunction</text>
<text xml:space="preserve" text-anchor="middle" x="690.5" y="-582.12" font-family="Helvetica,sans-Serif" font-size="10.00">Pipeline</text>
</a>
</g>
</g>
<!-- Node3&#45;&gt;Node4 -->
<g id="edge3_Node000003_Node000004" class="edge">
<title>Node3&#45;&gt;Node4</title>
<g id="a_edge3_Node000003_Node000004"><a xlink:title=" ">
<path fill="none" stroke="#63b8ff" d="M576.4,-591.62C590.61,-591.62 605.14,-591.62 618.85,-591.62"/>
<polygon fill="#63b8ff" stroke="#63b8ff" points="576.61,-588.13 566.61,-591.63 576.61,-595.13 576.61,-588.13"/>
</a>
</g>
</g>
<!-- Node6 -->
<g id="Node000006" class="node">
<title>Node6</title>
<g id="a_Node000006"><a xlink:href="class_im_fusion_1_1_g_l_1_1_fullscreen_square.html" target="_top" xlink:title="Helper class to easily render a full&#45;screen quad.">
<polygon fill="white" stroke="#666666" points="753.62,-557.88 627.38,-557.88 627.38,-527.38 753.62,-527.38 753.62,-557.88"/>
<text xml:space="preserve" text-anchor="start" x="635.38" y="-544.38" font-family="Helvetica,sans-Serif" font-size="10.00">ImFusion::GL::Fullscreen</text>
<text xml:space="preserve" text-anchor="middle" x="690.5" y="-533.12" font-family="Helvetica,sans-Serif" font-size="10.00">Square</text>
</a>
</g>
</g>
<!-- Node5&#45;&gt;Node6 -->
<g id="edge5_Node000005_Node000006" class="edge">
<title>Node5&#45;&gt;Node6</title>
<g id="a_edge5_Node000005_Node000006"><a xlink:title=" ">
<path fill="none" stroke="#63b8ff" d="M576.24,-542.62C593.33,-542.62 610.89,-542.62 626.94,-542.62"/>
<polygon fill="#63b8ff" stroke="#63b8ff" points="576.61,-539.13 566.61,-542.63 576.61,-546.13 576.61,-539.13"/>
</a>
</g>
</g>
<!-- Node8 -->
<g id="Node000008" class="node">
<title>Node8</title>
<g id="a_Node000008"><a xlink:href="class_im_fusion_1_1_g_l_1_1_line_renderer.html" target="_top" xlink:title="Convenience class for a shader implementing thick and stippled line rendering.">
<polygon fill="white" stroke="#666666" points="760,-503.25 621,-503.25 621,-484 760,-484 760,-503.25"/>
<text xml:space="preserve" text-anchor="middle" x="690.5" y="-489.75" font-family="Helvetica,sans-Serif" font-size="10.00">ImFusion::GL::LineRenderer</text>
</a>
</g>
</g>
<!-- Node7&#45;&gt;Node8 -->
<g id="edge7_Node000007_Node000008" class="edge">
<title>Node7&#45;&gt;Node8</title>
<g id="a_edge7_Node000007_Node000008"><a xlink:title=" ">
<path fill="none" stroke="#63b8ff" d="M576.39,-493.62C591.28,-493.62 606.53,-493.62 620.81,-493.62"/>
<polygon fill="#63b8ff" stroke="#63b8ff" points="576.61,-490.13 566.61,-493.63 576.61,-497.13 576.61,-490.13"/>
</a>
</g>
</g>
<!-- Node10 -->
<g id="Node000010" class="node">
<title>Node10</title>
<g id="a_Node000010"><a xlink:href="class_im_fusion_1_1_g_l_1_1_offscreen_render_helper.html" target="_top" xlink:title="Helper class to perform deferred off&#45;screen rendering.">
<polygon fill="white" stroke="#666666" points="768.25,-459.88 612.75,-459.88 612.75,-429.38 768.25,-429.38 768.25,-459.88"/>
<text xml:space="preserve" text-anchor="start" x="620.75" y="-446.38" font-family="Helvetica,sans-Serif" font-size="10.00">ImFusion::GL::OffscreenRender</text>
<text xml:space="preserve" text-anchor="middle" x="690.5" y="-435.12" font-family="Helvetica,sans-Serif" font-size="10.00">Helper</text>
</a>
</g>
</g>
<!-- Node9&#45;&gt;Node10 -->
<g id="edge9_Node000009_Node000010" class="edge">
<title>Node9&#45;&gt;Node10</title>
<g id="a_edge9_Node000009_Node000010"><a xlink:title=" ">
<path fill="none" stroke="#63b8ff" d="M576.52,-444.62C588.54,-444.62 600.79,-444.62 612.57,-444.62"/>
<polygon fill="#63b8ff" stroke="#63b8ff" points="576.61,-441.13 566.61,-444.63 576.61,-448.13 576.61,-441.13"/>
</a>
</g>
</g>
<!-- Node12 -->
<g id="Node000012" class="node">
<title>Node12</title>
<g id="a_Node000012"><a xlink:href="class_im_fusion_1_1_g_l_1_1_text_renderer.html" target="_top" xlink:title="Utility class to perform text rendering with OpenGL.">
<polygon fill="white" stroke="#666666" points="760.38,-405.25 620.62,-405.25 620.62,-386 760.38,-386 760.38,-405.25"/>
<text xml:space="preserve" text-anchor="middle" x="690.5" y="-391.75" font-family="Helvetica,sans-Serif" font-size="10.00">ImFusion::GL::TextRenderer</text>
</a>
</g>
</g>
<!-- Node11&#45;&gt;Node12 -->
<g id="edge11_Node000011_Node000012" class="edge">
<title>Node11&#45;&gt;Node12</title>
<g id="a_edge11_Node000011_Node000012"><a xlink:title=" ">
<path fill="none" stroke="#63b8ff" d="M576.25,-395.62C590.96,-395.62 606.02,-395.62 620.16,-395.62"/>
<polygon fill="#63b8ff" stroke="#63b8ff" points="576.61,-392.13 566.61,-395.63 576.61,-399.13 576.61,-392.13"/>
</a>
</g>
</g>
<!-- Node14 -->
<g id="Node000014" class="node">
<title>Node14</title>
<g id="a_Node000014"><a xlink:href="class_im_fusion_1_1_gl_average_reduction.html" target="_top" xlink:title="Specialization of GlReduction performing a ReductionOperator::AVERAGE reduction.">
<polygon fill="white" stroke="#666666" points="766.75,-356.25 614.25,-356.25 614.25,-337 766.75,-337 766.75,-356.25"/>
<text xml:space="preserve" text-anchor="middle" x="690.5" y="-342.75" font-family="Helvetica,sans-Serif" font-size="10.00">ImFusion::GlAverageReduction</text>
</a>
</g>
</g>
<!-- Node13&#45;&gt;Node14 -->
<g id="edge13_Node000013_Node000014" class="edge">
<title>Node13&#45;&gt;Node14</title>
<g id="a_edge13_Node000013_Node000014"><a xlink:title=" ">
<path fill="none" stroke="#63b8ff" d="M576.47,-346.62C588.96,-346.62 601.69,-346.62 613.9,-346.62"/>
<polygon fill="#63b8ff" stroke="#63b8ff" points="576.61,-343.13 566.61,-346.63 576.61,-350.13 576.61,-343.13"/>
</a>
</g>
</g>
<!-- Node16 -->
<g id="Node000016" class="node">
<title>Node16</title>
<g id="a_Node000016"><a xlink:href="class_im_fusion_1_1_gl_max_reduction.html" target="_top" xlink:title="Specialization of GlReduction performing a ReductionOperator::MAX reduction.">
<polygon fill="white" stroke="#666666" points="758.12,-307.25 622.88,-307.25 622.88,-288 758.12,-288 758.12,-307.25"/>
<text xml:space="preserve" text-anchor="middle" x="690.5" y="-293.75" font-family="Helvetica,sans-Serif" font-size="10.00">ImFusion::GlMaxReduction</text>
</a>
</g>
</g>
<!-- Node15&#45;&gt;Node16 -->
<g id="edge15_Node000015_Node000016" class="edge">
<title>Node15&#45;&gt;Node16</title>
<g id="a_edge15_Node000015_Node000016"><a xlink:title=" ">
<path fill="none" stroke="#63b8ff" d="M576.29,-297.62C591.77,-297.62 607.65,-297.62 622.44,-297.62"/>
<polygon fill="#63b8ff" stroke="#63b8ff" points="576.61,-294.13 566.61,-297.63 576.61,-301.13 576.61,-294.13"/>
</a>
</g>
</g>
<!-- Node18 -->
<g id="Node000018" class="node">
<title>Node18</title>
<g id="a_Node000018"><a xlink:href="class_im_fusion_1_1_gl_min_reduction.html" target="_top" xlink:title="Specialization of GlReduction performing a ReductionOperator::MIN reduction.">
<polygon fill="white" stroke="#666666" points="756.62,-258.25 624.38,-258.25 624.38,-239 756.62,-239 756.62,-258.25"/>
<text xml:space="preserve" text-anchor="middle" x="690.5" y="-244.75" font-family="Helvetica,sans-Serif" font-size="10.00">ImFusion::GlMinReduction</text>
</a>
</g>
</g>
<!-- Node17&#45;&gt;Node18 -->
<g id="edge17_Node000017_Node000018" class="edge">
<title>Node17&#45;&gt;Node18</title>
<g id="a_edge17_Node000017_Node000018"><a xlink:title=" ">
<path fill="none" stroke="#63b8ff" d="M576.15,-248.62C592.25,-248.62 608.77,-248.62 624.05,-248.62"/>
<polygon fill="#63b8ff" stroke="#63b8ff" points="576.61,-245.13 566.61,-248.63 576.61,-252.13 576.61,-245.13"/>
</a>
</g>
</g>
<!-- Node20 -->
<g id="Node000020" class="node">
<title>Node20</title>
<g id="a_Node000020"><a xlink:href="class_im_fusion_1_1_gl_product_reduction.html" target="_top" xlink:title="Specialization of GlReduction performing a ReductionOperator::PRODUCT reduction.">
<polygon fill="white" stroke="#666666" points="765.62,-209.25 615.38,-209.25 615.38,-190 765.62,-190 765.62,-209.25"/>
<text xml:space="preserve" text-anchor="middle" x="690.5" y="-195.75" font-family="Helvetica,sans-Serif" font-size="10.00">ImFusion::GlProductReduction</text>
</a>
</g>
</g>
<!-- Node19&#45;&gt;Node20 -->
<g id="edge19_Node000019_Node000020" class="edge">
<title>Node19&#45;&gt;Node20</title>
<g id="a_edge19_Node000019_Node000020"><a xlink:title=" ">
<path fill="none" stroke="#63b8ff" d="M576.32,-199.62C589.19,-199.62 602.34,-199.62 614.89,-199.62"/>
<polygon fill="#63b8ff" stroke="#63b8ff" points="576.61,-196.13 566.61,-199.63 576.61,-203.13 576.61,-196.13"/>
</a>
</g>
</g>
<!-- Node22 -->
<g id="Node000022" class="node">
<title>Node22</title>
<g id="a_Node000022"><a xlink:href="class_im_fusion_1_1_gl_sum_reduction.html" target="_top" xlink:title="Specialization of GlReduction performing a ReductionOperator::SUM reduction.">
<polygon fill="white" stroke="#666666" points="758.88,-160.25 622.12,-160.25 622.12,-141 758.88,-141 758.88,-160.25"/>
<text xml:space="preserve" text-anchor="middle" x="690.5" y="-146.75" font-family="Helvetica,sans-Serif" font-size="10.00">ImFusion::GlSumReduction</text>
</a>
</g>
</g>
<!-- Node21&#45;&gt;Node22 -->
<g id="edge21_Node000021_Node000022" class="edge">
<title>Node21&#45;&gt;Node22</title>
<g id="a_edge21_Node000021_Node000022"><a xlink:title=" ">
<path fill="none" stroke="#63b8ff" d="M576.6,-150.62C591.76,-150.62 607.29,-150.62 621.79,-150.62"/>
<polygon fill="#63b8ff" stroke="#63b8ff" points="576.61,-147.13 566.61,-150.63 576.61,-154.13 576.61,-147.13"/>
</a>
</g>
</g>
<!-- Node24 -->
<g id="Node000024" class="node">
<title>Node24</title>
<g id="a_Node000024"><a xlink:href="class_im_fusion_1_1_gl_texel_fetch.html" target="_top" xlink:title="Read single intensity values from an OpenGL texture.">
<polygon fill="white" stroke="#666666" points="750.62,-111.25 630.38,-111.25 630.38,-92 750.62,-92 750.62,-111.25"/>
<text xml:space="preserve" text-anchor="middle" x="690.5" y="-97.75" font-family="Helvetica,sans-Serif" font-size="10.00">ImFusion::GlTexelFetch</text>
</a>
</g>
</g>
<!-- Node23&#45;&gt;Node24 -->
<g id="edge23_Node000023_Node000024" class="edge">
<title>Node23&#45;&gt;Node24</title>
<g id="a_edge23_Node000023_Node000024"><a xlink:title=" ">
<path fill="none" stroke="#63b8ff" d="M576.59,-101.62C594.7,-101.62 613.33,-101.62 630.11,-101.62"/>
<polygon fill="#63b8ff" stroke="#63b8ff" points="576.61,-98.13 566.61,-101.63 576.61,-105.13 576.61,-98.13"/>
</a>
</g>
</g>
<!-- Node26 -->
<g id="Node000026" class="node">
<title>Node26</title>
<g id="a_Node000026"><a xlink:href="class_im_fusion_1_1_thumbnail_manager.html" target="_top" xlink:title="The ThumbnailManager class generates and manages thumbnails for data instances.">
<polygon fill="white" stroke="#666666" points="763,-62.25 618,-62.25 618,-43 763,-43 763,-62.25"/>
<text xml:space="preserve" text-anchor="middle" x="690.5" y="-48.75" font-family="Helvetica,sans-Serif" font-size="10.00">ImFusion::ThumbnailManager</text>
</a>
</g>
</g>
<!-- Node25&#45;&gt;Node26 -->
<g id="edge25_Node000025_Node000026" class="edge">
<title>Node25&#45;&gt;Node26</title>
<g id="a_edge25_Node000025_Node000026"><a xlink:title=" ">
<path fill="none" stroke="#63b8ff" d="M576.52,-52.62C590.24,-52.62 604.25,-52.62 617.54,-52.62"/>
<polygon fill="#63b8ff" stroke="#63b8ff" points="576.61,-49.13 566.61,-52.63 576.61,-56.13 576.61,-49.13"/>
</a>
</g>
</g>
</g>
</svg>

<g id="navigator" transform="translate(0 0)" fill="#404254">
  <rect fill="#f2f5e9" fill-opacity="0.5" stroke="#606060" stroke-width=".5" x="0" y="0" width="60" height="60"/>
  <use id="zoomplus" xlink:href="#zoomPlus" x="17" y="9" onmousedown="handleZoom(evt,'in')"/>
  <use id="zoomminus" xlink:href="#zoomMin" x="42" y="9" onmousedown="handleZoom(evt,'out')"/>
  <use id="reset" xlink:href="#resetDef" x="30" y="36" onmousedown="handleReset()"/>
   <use id="arrowup" xlink:href="#arrowUp" x="0" y="0" onmousedown="handlePan(0,-1)"/>
  <use id="arrowright" xlink:href="#arrowRight" x="0" y="0" onmousedown="handlePan(1,0)"/>
  <use id="arrowdown" xlink:href="#arrowDown" x="0" y="0" onmousedown="handlePan(0,1)"/>
  <use id="arrowleft" xlink:href="#arrowLeft" x="0" y="0" onmousedown="handlePan(-1,0)"/>
</g>
<svg viewBox="0 0 15 15" width="100%" height="30px" preserveAspectRatio="xMaxYMin meet">
 <g id="arrow_out" transform="scale(0.3 0.3)">
  <a xlink:href="class_im_fusion_1_1_g_l_1_1_instance_manager_base__inherit__graph_org.svg" target="_base">
   <rect id="button" ry="5" rx="5" y="6" x="6" height="38" width="38"
        fill="#f2f5e9" fill-opacity="0.5" stroke="#606060" stroke-width="1.0"/>
   <path id="arrow"
     d="M 11.500037,31.436501 C 11.940474,20.09759 22.043105,11.32322 32.158766,21.979434 L 37.068811,17.246167 C 37.068811,17.246167 37.088388,32 37.088388,32 L 22.160133,31.978069 C 22.160133,31.978069 26.997745,27.140456 26.997745,27.140456 C 18.528582,18.264221 13.291696,25.230495 11.500037,31.436501 z"
     style="fill:#404040;"/>
  </a>
 </g>
</svg>

<style type='text/css'>
<![CDATA[
[data-mouse-over-selected='false'] { opacity: 0.7; }
[data-mouse-over-selected='true']  { opacity: 1.0; }
]]>
</style>
<script type="application/ecmascript"><![CDATA[
document.addEventListener('DOMContentLoaded', (event) => {
  highlightEdges();
  highlightAdjacentNodes();
});
]]></script>
</svg>
