<?xml version="1.0" encoding="UTF-8" standalone="no"?>
<!DOCTYPE svg PUBLIC "-//W3C//DTD SVG 1.1//EN"
 "http://www.w3.org/Graphics/SVG/1.1/DTD/svg11.dtd">
<!-- Generated by graphviz version 14.1.4 (20260321.0153)
 -->
<!-- Title: ImFusion::GlFlattenTrackingDeformation Pages: 1 -->
<svg width="715pt" height="113pt"
 viewBox="0.00 0.00 715.00 113.00" xmlns="http://www.w3.org/2000/svg" xmlns:xlink="http://www.w3.org/1999/xlink">
<g id="graph0" class="graph" transform="scale(1 1) rotate(0) translate(4 109.25)">
<title>ImFusion::GlFlattenTrackingDeformation</title>
<!-- Node1 -->
<g id="Node000001" class="node">
<title>Node1</title>
<g id="a_Node000001"><a xlink:title="Deformation model based on flattening a tracking sequence.">
<polygon fill="#999999" stroke="#666666" points="706.75,-48.88 567,-48.88 567,-18.38 706.75,-18.38 706.75,-48.88"/>
<text xml:space="preserve" text-anchor="start" x="575" y="-35.38" font-family="Helvetica,sans-Serif" font-size="10.00">ImFusion::GlFlattenTracking</text>
<text xml:space="preserve" text-anchor="middle" x="636.88" y="-24.12" font-family="Helvetica,sans-Serif" font-size="10.00">Deformation</text>
</a>
</g>
</g>
<!-- Node2 -->
<g id="Node000002" class="node">
<title>Node2</title>
<g id="a_Node000002"><a xlink:href="class_im_fusion_1_1_deformation.html" target="_top" xlink:title="Base class for different kinds of non&#45;linear image transformations.">
<polygon fill="white" stroke="#666666" points="524.62,-62.25 408.88,-62.25 408.88,-43 524.62,-43 524.62,-62.25"/>
<text xml:space="preserve" text-anchor="middle" x="466.75" y="-48.75" font-family="Helvetica,sans-Serif" font-size="10.00">ImFusion::Deformation</text>
</a>
</g>
</g>
<!-- Node2&#45;&gt;Node1 -->
<g id="edge1_Node000001_Node000002" class="edge">
<title>Node2&#45;&gt;Node1</title>
<g id="a_edge1_Node000001_Node000002"><a xlink:title=" ">
<path fill="none" stroke="#63b8ff" d="M535.97,-44.92C546.13,-43.77 556.6,-42.58 566.78,-41.43"/>
<polygon fill="#63b8ff" stroke="#63b8ff" points="535.72,-41.42 526.17,-46.02 536.5,-48.38 535.72,-41.42"/>
</a>
</g>
</g>
<!-- Node3 -->
<g id="Node000003" class="node">
<title>Node3</title>
<g id="a_Node000003"><a xlink:href="class_im_fusion_1_1_g_l_1_1_abstract_include.html" target="_top" xlink:title="Base class for abstract GLSL includes.">
<polygon fill="white" stroke="#666666" points="348.88,-105.25 199.38,-105.25 199.38,-86 348.88,-86 348.88,-105.25"/>
<text xml:space="preserve" text-anchor="middle" x="274.12" y="-91.75" font-family="Helvetica,sans-Serif" font-size="10.00">ImFusion::GL::AbstractInclude</text>
</a>
</g>
</g>
<!-- Node3&#45;&gt;Node2 -->
<g id="edge2_Node000002_Node000003" class="edge">
<title>Node3&#45;&gt;Node2</title>
<g id="a_edge2_Node000002_Node000003"><a xlink:title=" ">
<path fill="none" stroke="#63b8ff" d="M336.25,-83.2C346.37,-81.06 356.74,-78.82 366.5,-76.62 385.87,-72.27 407.29,-67.13 425.26,-62.73"/>
<polygon fill="#63b8ff" stroke="#63b8ff" points="335.53,-79.77 326.46,-85.25 336.97,-86.62 335.53,-79.77"/>
</a>
</g>
</g>
<!-- Node4 -->
<g id="Node000004" class="node">
<title>Node4</title>
<g id="a_Node000004"><a xlink:href="class_im_fusion_1_1_utils_1_1_not_copyable.html" target="_top" xlink:title="Inherit from this class if your class should be neither copy&#45;constructible nor assignable.">
<polygon fill="white" stroke="#666666" points="145.75,-105.25 0,-105.25 0,-86 145.75,-86 145.75,-105.25"/>
<text xml:space="preserve" text-anchor="middle" x="72.88" y="-91.75" font-family="Helvetica,sans-Serif" font-size="10.00">ImFusion::Utils::NotCopyable</text>
</a>
</g>
</g>
<!-- Node4&#45;&gt;Node3 -->
<g id="edge3_Node000003_Node000004" class="edge">
<title>Node4&#45;&gt;Node3</title>
<g id="a_edge3_Node000003_Node000004"><a xlink:title=" ">
<path fill="none" stroke="#8b1a1a" d="M157.57,-95.62C171.37,-95.62 185.6,-95.62 199.15,-95.62"/>
<polygon fill="#8b1a1a" stroke="#8b1a1a" points="157.6,-92.13 147.6,-95.63 157.6,-99.13 157.6,-92.13"/>
</a>
</g>
</g>
<!-- Node5 -->
<g id="Node000005" class="node">
<title>Node5</title>
<g id="a_Node000005"><a xlink:href="class_im_fusion_1_1_g_l_1_1_multi_includable.html" target="_top" xlink:title=" ">
<polygon fill="white" stroke="#666666" points="366.5,-67.88 181.75,-67.88 181.75,-37.38 366.5,-37.38 366.5,-67.88"/>
<text xml:space="preserve" text-anchor="start" x="189.75" y="-54.38" font-family="Helvetica,sans-Serif" font-size="10.00">ImFusion::GL::MultiIncludable</text>
<text xml:space="preserve" text-anchor="middle" x="274.12" y="-43.12" font-family="Helvetica,sans-Serif" font-size="10.00">&lt; Deformation, const SharedImage * &gt;</text>
</a>
</g>
</g>
<!-- Node5&#45;&gt;Node2 -->
<g id="edge4_Node000002_Node000005" class="edge">
<title>Node5&#45;&gt;Node2</title>
<g id="a_edge4_Node000002_Node000005"><a xlink:title=" ">
<path fill="none" stroke="#63b8ff" d="M378.13,-52.62C388.55,-52.62 398.84,-52.62 408.5,-52.62"/>
<polygon fill="#63b8ff" stroke="#63b8ff" points="378.32,-49.13 368.32,-52.63 378.32,-56.13 378.32,-49.13"/>
</a>
</g>
</g>
<!-- Node6 -->
<g id="Node000006" class="node">
<title>Node6</title>
<g id="a_Node000006"><a xlink:href="class_im_fusion_1_1_configurable.html" target="_top" xlink:title="Base interface for classes that support object serialization from/to Properties objects.">
<polygon fill="white" stroke="#666666" points="332.75,-19.25 215.5,-19.25 215.5,0 332.75,0 332.75,-19.25"/>
<text xml:space="preserve" text-anchor="middle" x="274.12" y="-5.75" font-family="Helvetica,sans-Serif" font-size="10.00">ImFusion::Configurable</text>
</a>
</g>
</g>
<!-- Node6&#45;&gt;Node2 -->
<g id="edge5_Node000002_Node000006" class="edge">
<title>Node6&#45;&gt;Node2</title>
<g id="a_edge5_Node000002_Node000006"><a xlink:title=" ">
<path fill="none" stroke="#63b8ff" d="M336.25,-22.05C346.37,-24.19 356.74,-26.43 366.5,-28.62 385.87,-32.98 407.29,-38.12 425.26,-42.52"/>
<polygon fill="#63b8ff" stroke="#63b8ff" points="336.97,-18.63 326.46,-20 335.53,-25.48 336.97,-18.63"/>
</a>
</g>
</g>
<!-- Node7 -->
<g id="Node000007" class="node">
<title>Node7</title>
<g id="a_Node000007"><a xlink:href="class_im_fusion_1_1_signal_receiver.html" target="_top" xlink:title="Base class for classes that can contain slots (i.e.">
<polygon fill="white" stroke="#666666" points="531,-25.25 402.5,-25.25 402.5,-6 531,-6 531,-25.25"/>
<text xml:space="preserve" text-anchor="middle" x="466.75" y="-11.75" font-family="Helvetica,sans-Serif" font-size="10.00">ImFusion::SignalReceiver</text>
</a>
</g>
</g>
<!-- Node7&#45;&gt;Node1 -->
<g id="edge6_Node000001_Node000007" class="edge">
<title>Node7&#45;&gt;Node1</title>
<g id="a_edge6_Node000001_Node000007"><a xlink:title=" ">
<path fill="none" stroke="#63b8ff" d="M542.53,-23.63C550.54,-24.49 558.66,-25.36 566.6,-26.21"/>
<polygon fill="#63b8ff" stroke="#63b8ff" points="543.13,-20.18 532.82,-22.59 542.39,-27.14 543.13,-20.18"/>
</a>
</g>
</g>
</g>
</svg>
