<?xml version="1.0" encoding="UTF-8" standalone="no"?>
<!DOCTYPE svg PUBLIC "-//W3C//DTD SVG 1.1//EN"
 "http://www.w3.org/Graphics/SVG/1.1/DTD/svg11.dtd">
<!-- Generated by graphviz version 14.1.4 (20260321.0153)
 -->
<!-- Title: ImFusion::GlPoseGraph Pages: 1 -->
<svg width="281pt" height="248pt"
 viewBox="0.00 0.00 281.00 248.00" xmlns="http://www.w3.org/2000/svg" xmlns:xlink="http://www.w3.org/1999/xlink">
<g id="graph0" class="graph" transform="scale(1 1) rotate(0) translate(4 244.25)">
<title>ImFusion::GlPoseGraph</title>
<!-- Node1 -->
<g id="Node000001" class="node">
<title>Node1</title>
<g id="a_Node000001"><a xlink:title="Pose graph annotation.">
<polygon fill="#999999" stroke="#666666" points="189.12,-19.25 68.12,-19.25 68.12,0 189.12,0 189.12,-19.25"/>
<text xml:space="preserve" text-anchor="middle" x="128.62" y="-5.75" font-family="Helvetica,sans-Serif" font-size="10.00">ImFusion::GlPoseGraph</text>
</a>
</g>
</g>
<!-- Node2 -->
<g id="Node000002" class="node">
<title>Node2</title>
<g id="a_Node000002"><a xlink:href="class_im_fusion_1_1_gl3_d_object.html" target="_top" xlink:title="Abstract base class for 3D objects for which a center and an extent (i.e. a bounding box) can be spec...">
<polygon fill="white" stroke="#666666" points="185.38,-74.5 71.88,-74.5 71.88,-55.25 185.38,-55.25 185.38,-74.5"/>
<text xml:space="preserve" text-anchor="middle" x="128.62" y="-61" font-family="Helvetica,sans-Serif" font-size="10.00">ImFusion::Gl3DObject</text>
</a>
</g>
</g>
<!-- Node2&#45;&gt;Node1 -->
<g id="edge1_Node000001_Node000002" class="edge">
<title>Node2&#45;&gt;Node1</title>
<g id="a_edge1_Node000001_Node000002"><a xlink:title=" ">
<path fill="none" stroke="#63b8ff" d="M128.62,-43.63C128.62,-35.34 128.62,-26.17 128.62,-19.61"/>
<polygon fill="#63b8ff" stroke="#63b8ff" points="125.13,-43.57 128.63,-53.57 132.13,-43.57 125.13,-43.57"/>
</a>
</g>
</g>
<!-- Node3 -->
<g id="Node000003" class="node">
<title>Node3</title>
<g id="a_Node000003"><a xlink:href="class_im_fusion_1_1_gl_annotation.html" target="_top" xlink:title="Base class for implementing annotations.">
<polygon fill="white" stroke="#666666" points="188,-129.75 69.25,-129.75 69.25,-110.5 188,-110.5 188,-129.75"/>
<text xml:space="preserve" text-anchor="middle" x="128.62" y="-116.25" font-family="Helvetica,sans-Serif" font-size="10.00">ImFusion::GlAnnotation</text>
</a>
</g>
</g>
<!-- Node3&#45;&gt;Node2 -->
<g id="edge2_Node000002_Node000003" class="edge">
<title>Node3&#45;&gt;Node2</title>
<g id="a_edge2_Node000002_Node000003"><a xlink:title=" ">
<path fill="none" stroke="#63b8ff" d="M128.62,-98.88C128.62,-90.59 128.62,-81.42 128.62,-74.86"/>
<polygon fill="#63b8ff" stroke="#63b8ff" points="125.13,-98.82 128.63,-108.82 132.13,-98.82 125.13,-98.82"/>
</a>
</g>
</g>
<!-- Node4 -->
<g id="Node000004" class="node">
<title>Node4</title>
<g id="a_Node000004"><a xlink:href="class_im_fusion_1_1_gl_object.html" target="_top" xlink:title="Abstract base class for an renderable OpenGL object that can be hosted in a GlView.">
<polygon fill="white" stroke="#666666" points="109,-185 8.25,-185 8.25,-165.75 109,-165.75 109,-185"/>
<text xml:space="preserve" text-anchor="middle" x="58.62" y="-171.5" font-family="Helvetica,sans-Serif" font-size="10.00">ImFusion::GlObject</text>
</a>
</g>
</g>
<!-- Node4&#45;&gt;Node3 -->
<g id="edge3_Node000003_Node000004" class="edge">
<title>Node4&#45;&gt;Node3</title>
<g id="a_edge3_Node000003_Node000004"><a xlink:title=" ">
<path fill="none" stroke="#63b8ff" d="M79.57,-158.44C91.8,-149.14 106.76,-137.76 116.93,-130.02"/>
<polygon fill="#63b8ff" stroke="#63b8ff" points="77.54,-155.59 71.7,-164.43 81.78,-161.16 77.54,-155.59"/>
</a>
</g>
</g>
<!-- Node5 -->
<g id="Node000005" class="node">
<title>Node5</title>
<g id="a_Node000005"><a xlink:href="class_im_fusion_1_1_configurable.html" target="_top" xlink:title="Base interface for classes that support object serialization from/to Properties objects.">
<polygon fill="white" stroke="#666666" points="117.25,-240.25 0,-240.25 0,-221 117.25,-221 117.25,-240.25"/>
<text xml:space="preserve" text-anchor="middle" x="58.62" y="-226.75" font-family="Helvetica,sans-Serif" font-size="10.00">ImFusion::Configurable</text>
</a>
</g>
</g>
<!-- Node5&#45;&gt;Node4 -->
<g id="edge4_Node000004_Node000005" class="edge">
<title>Node5&#45;&gt;Node4</title>
<g id="a_edge4_Node000004_Node000005"><a xlink:title=" ">
<path fill="none" stroke="#63b8ff" d="M58.62,-209.38C58.62,-201.09 58.62,-191.92 58.62,-185.36"/>
<polygon fill="#63b8ff" stroke="#63b8ff" points="55.13,-209.32 58.63,-219.32 62.13,-209.32 55.13,-209.32"/>
</a>
</g>
</g>
<!-- Node6 -->
<g id="Node000006" class="node">
<title>Node6</title>
<g id="a_Node000006"><a xlink:href="class_im_fusion_1_1_utils_1_1_not_copyable.html" target="_top" xlink:title="Inherit from this class if your class should be neither copy&#45;constructible nor assignable.">
<polygon fill="white" stroke="#666666" points="272.5,-185 126.75,-185 126.75,-165.75 272.5,-165.75 272.5,-185"/>
<text xml:space="preserve" text-anchor="middle" x="199.62" y="-171.5" font-family="Helvetica,sans-Serif" font-size="10.00">ImFusion::Utils::NotCopyable</text>
</a>
</g>
</g>
<!-- Node6&#45;&gt;Node3 -->
<g id="edge5_Node000003_Node000006" class="edge">
<title>Node6&#45;&gt;Node3</title>
<g id="a_edge5_Node000003_Node000006"><a xlink:title=" ">
<path fill="none" stroke="#8b1a1a" d="M178.38,-158.44C165.98,-149.14 150.8,-137.76 140.49,-130.02"/>
<polygon fill="#8b1a1a" stroke="#8b1a1a" points="176.27,-161.23 186.37,-164.43 180.47,-155.63 176.27,-161.23"/>
</a>
</g>
</g>
</g>
</svg>
