<?xml version="1.0" encoding="UTF-8" standalone="no"?>
<!DOCTYPE svg PUBLIC "-//W3C//DTD SVG 1.1//EN"
 "http://www.w3.org/Graphics/SVG/1.1/DTD/svg11.dtd">
<!-- Generated by graphviz version 14.1.4 (20260321.0153)
 -->
<!-- Title: ImFusion::TrackingSequence Pages: 1 -->
<svg width="327pt" height="150pt"
 viewBox="0.00 0.00 327.00 150.00" xmlns="http://www.w3.org/2000/svg" xmlns:xlink="http://www.w3.org/1999/xlink">

<svg id="main" version="1.1" xmlns="http://www.w3.org/2000/svg" xmlns:xlink="http://www.w3.org/1999/xlink" xml:space="preserve">

<style type="text/css"><![CDATA[
.node, .edge {opacity: 0.7;}
.node.selected, .edge.selected {opacity: 1;}
.edge:hover path { stroke: red; }
.edge:hover polygon { stroke: red; fill: red; }
]]></style>
<script type="application/ecmascript" xlink:href="svg.min.js"/>
<svg id="graph" class="graph">
<g id="graph0" class="graph" transform="scale(1 1) rotate(0) translate(4 146.25)">
<title>ImFusion::TrackingSequence</title>
<!-- Node1 -->
<g id="Node000001" class="node">
<title>Node1</title>
<g id="a_Node000001"><a xlink:title="Sequence of rigid tracking data with optional timestamps, quality values and flags.">
<polygon fill="#999999" stroke="#666666" points="319.25,-77.25 175.75,-77.25 175.75,-58 319.25,-58 319.25,-77.25"/>
<text xml:space="preserve" text-anchor="middle" x="247.5" y="-63.75" font-family="Helvetica,sans-Serif" font-size="10.00">ImFusion::TrackingSequence</text>
</a>
</g>
</g>
<!-- Node2 -->
<g id="Node000002" class="node">
<title>Node2</title>
<g id="a_Node000002"><a xlink:href="class_im_fusion_1_1_data.html" target="_top" xlink:title="Virtual base class for representing data from which all concrete data class such as images need to de...">
<polygon fill="white" stroke="#666666" points="111.62,-142.25 28.12,-142.25 28.12,-123 111.62,-123 111.62,-142.25"/>
<text xml:space="preserve" text-anchor="middle" x="69.88" y="-128.75" font-family="Helvetica,sans-Serif" font-size="10.00">ImFusion::Data</text>
</a>
</g>
</g>
<!-- Node2&#45;&gt;Node1 -->
<g id="edge1_Node000001_Node000002" class="edge">
<title>Node2&#45;&gt;Node1</title>
<g id="a_edge1_Node000001_Node000002"><a xlink:title=" ">
<path fill="none" stroke="#63b8ff" d="M121.76,-119.44C127.86,-117.61 133.97,-115.66 139.75,-113.62 170.21,-102.92 204.3,-87.63 225.57,-77.66"/>
<polygon fill="#63b8ff" stroke="#63b8ff" points="120.95,-116.03 112.32,-122.18 122.9,-122.76 120.95,-116.03"/>
</a>
</g>
</g>
<!-- Node3 -->
<g id="Node000003" class="node">
<title>Node3</title>
<g id="a_Node000003"><a xlink:href="class_im_fusion_1_1_elementwise_data_component_data.html" target="_top" xlink:title="Class for augmenting Data classes with an ElementwiseDataComponentList.">
<polygon fill="white" stroke="#666666" points="139.75,-104.88 0,-104.88 0,-74.38 139.75,-74.38 139.75,-104.88"/>
<text xml:space="preserve" text-anchor="start" x="8" y="-91.38" font-family="Helvetica,sans-Serif" font-size="10.00">ImFusion::ElementwiseData</text>
<text xml:space="preserve" text-anchor="middle" x="69.88" y="-80.12" font-family="Helvetica,sans-Serif" font-size="10.00">ComponentData</text>
</a>
</g>
</g>
<!-- Node3&#45;&gt;Node1 -->
<g id="edge2_Node000001_Node000003" class="edge">
<title>Node3&#45;&gt;Node1</title>
<g id="a_edge2_Node000001_Node000003"><a xlink:title=" ">
<path fill="none" stroke="#63b8ff" d="M151.31,-79.55C159.34,-78.54 167.46,-77.53 175.38,-76.53"/>
<polygon fill="#63b8ff" stroke="#63b8ff" points="151.02,-76.06 141.54,-80.77 151.89,-83 151.02,-76.06"/>
</a>
</g>
</g>
<!-- Node4 -->
<g id="Node000004" class="node">
<title>Node4</title>
<g id="a_Node000004"><a xlink:href="class_im_fusion_1_1_signal_receiver.html" target="_top" xlink:title="Base class for classes that can contain slots (i.e.">
<polygon fill="white" stroke="#666666" points="134.12,-56.25 5.62,-56.25 5.62,-37 134.12,-37 134.12,-56.25"/>
<text xml:space="preserve" text-anchor="middle" x="69.88" y="-42.75" font-family="Helvetica,sans-Serif" font-size="10.00">ImFusion::SignalReceiver</text>
</a>
</g>
</g>
<!-- Node4&#45;&gt;Node1 -->
<g id="edge3_Node000001_Node000004" class="edge">
<title>Node4&#45;&gt;Node1</title>
<g id="a_edge3_Node000001_Node000004"><a xlink:title=" ">
<path fill="none" stroke="#63b8ff" d="M145.4,-55.54C155.36,-56.73 165.55,-57.95 175.45,-59.13"/>
<polygon fill="#63b8ff" stroke="#63b8ff" points="146.13,-52.1 135.78,-54.39 145.3,-59.05 146.13,-52.1"/>
</a>
</g>
</g>
<!-- Node5 -->
<g id="Node000005" class="node">
<title>Node5</title>
<g id="a_Node000005"><a xlink:href="class_im_fusion_1_1_selectable.html" target="_top" xlink:title="Interface for Data that supports having a Selection.">
<polygon fill="white" stroke="#666666" points="124,-19.25 15.75,-19.25 15.75,0 124,0 124,-19.25"/>
<text xml:space="preserve" text-anchor="middle" x="69.88" y="-5.75" font-family="Helvetica,sans-Serif" font-size="10.00">ImFusion::Selectable</text>
</a>
</g>
</g>
<!-- Node5&#45;&gt;Node1 -->
<g id="edge4_Node000001_Node000005" class="edge">
<title>Node5&#45;&gt;Node1</title>
<g id="a_edge4_Node000001_Node000005"><a xlink:title=" ">
<path fill="none" stroke="#63b8ff" d="M123.05,-22.65C128.71,-24.25 134.37,-25.92 139.75,-27.62 168.24,-36.66 200.26,-48.95 221.73,-57.52"/>
<polygon fill="#63b8ff" stroke="#63b8ff" points="124.26,-19.35 113.69,-20.09 122.41,-26.11 124.26,-19.35"/>
</a>
</g>
</g>
</g>
</svg>
</svg>

<style type='text/css'>
<![CDATA[
[data-mouse-over-selected='false'] { opacity: 0.7; }
[data-mouse-over-selected='true']  { opacity: 1.0; }
]]>
</style>
<script type="application/ecmascript"><![CDATA[
document.addEventListener('DOMContentLoaded', (event) => {
  highlightEdges();
  highlightAdjacentNodes();
});
]]></script>
</svg>
