<?xml version="1.0" encoding="UTF-8" standalone="no"?>
<!DOCTYPE svg PUBLIC "-//W3C//DTD SVG 1.1//EN"
 "http://www.w3.org/Graphics/SVG/1.1/DTD/svg11.dtd">
<!-- Generated by graphviz version 14.1.4 (20260321.0153)
 -->
<!-- Title: ImFusion::TemporaryDataComponent Pages: 1 -->
<!--zoomable 248 -->

<svg id="main" version="1.1" xmlns="http://www.w3.org/2000/svg" xmlns:xlink="http://www.w3.org/1999/xlink" xml:space="preserve" onload="init(evt)">

<style type="text/css"><![CDATA[
.node, .edge {opacity: 0.7;}
.node.selected, .edge.selected {opacity: 1;}
.edge:hover path { stroke: red; }
.edge:hover polygon { stroke: red; fill: red; }
]]></style>

<defs>
  <circle id="rim" cx="0" cy="0" r="7"/>
  <circle id="rim2" cx="0" cy="0" r="3.5"/>
  <g id="zoomPlus">
    <use xlink:href="#rim" fill="#404040"><set attributeName="fill" to="#808080" begin="zoomplus.mouseover" end="zoomplus.mouseout"/></use>
    <path d="M-4,0h8M0,-4v8" fill="none" stroke="white" stroke-width="1.5" pointer-events="none"/>
  </g>
  <g id="zoomMin">
    <use xlink:href="#rim" fill="#404040"><set attributeName="fill" to="#808080" begin="zoomminus.mouseover" end="zoomminus.mouseout"/></use>
    <path d="M-4,0h8" fill="none" stroke="white" stroke-width="1.5" pointer-events="none"/>
  </g>
  <g id="arrowUp" transform="translate(30 24)">
    <use xlink:href="#rim"/>
    <path pointer-events="none" fill="none" stroke="white" stroke-width="1.5" d="M0,-3.0v7 M-2.5,-0.5L0,-3.0L2.5,-0.5"/>
  </g>
  <g id="arrowRight" transform="rotate(90) translate(36 -43)">
    <use xlink:href="#rim"/>
    <path pointer-events="none" fill="none" stroke="white" stroke-width="1.5" d="M0,-3.0v7 M-2.5,-0.5L0,-3.0L2.5,-0.5"/>
  </g>
  <g id="arrowDown" transform="rotate(180) translate(-30 -48)">
    <use xlink:href="#rim"/>
    <path pointer-events="none" fill="none" stroke="white" stroke-width="1.5" d="M0,-3.0v7 M-2.5,-0.5L0,-3.0L2.5,-0.5"/>
  </g>
  <g id="arrowLeft" transform="rotate(270) translate(-36 17)">
    <use xlink:href="#rim"/>
    <path pointer-events="none" fill="none" stroke="white" stroke-width="1.5" d="M0,-3.0v7 M-2.5,-0.5L0,-3.0L2.5,-0.5"/>
  </g>
  <g id="resetDef">
    <use xlink:href="#rim2" fill="#404040"><set attributeName="fill" to="#808080" begin="reset.mouseover" end="reset.mouseout"/></use>
  </g>
</defs>
<script type="application/ecmascript">
var viewWidth = 748;
var viewHeight = 248;
var sectionId = 'dynsection-0';
</script>
<script type="application/ecmascript" xlink:href="svg.min.js"/>
<svg id="graph" class="graph">
<g id="viewport">
<title>ImFusion::TemporaryDataComponent</title>
<!-- Node1 -->
<g id="Node000001" class="node">
<title>Node1</title>
<g id="a_Node000001"><a xlink:title="Specialization of DataComponentBase that disables serialization, copying and assignment.">
<polygon fill="#999999" stroke="#666666" points="525,-122.88 345.5,-122.88 345.5,-103.62 525,-103.62 525,-122.88"/>
<text xml:space="preserve" text-anchor="middle" x="435.25" y="-109.38" font-family="Helvetica,sans-Serif" font-size="10.00">ImFusion::TemporaryDataComponent</text>
</a>
</g>
</g>
<!-- Node4 -->
<g id="Node000004" class="node">
<title>Node4</title>
<g id="a_Node000004"><a xlink:href="class_im_fusion_1_1_dicom_1_1_overlay_data_component.html" target="_top" xlink:title="DataComponent providing DICOM overlays.">
<polygon fill="white" stroke="#666666" points="715.75,-239.5 585,-239.5 585,-209 715.75,-209 715.75,-239.5"/>
<text xml:space="preserve" text-anchor="start" x="593" y="-226" font-family="Helvetica,sans-Serif" font-size="10.00">ImFusion::Dicom::Overlay</text>
<text xml:space="preserve" text-anchor="middle" x="650.38" y="-214.75" font-family="Helvetica,sans-Serif" font-size="10.00">DataComponent</text>
</a>
</g>
</g>
<!-- Node1&#45;&gt;Node4 -->
<g id="edge3_Node000001_Node000004" class="edge">
<title>Node1&#45;&gt;Node4</title>
<g id="a_edge3_Node000001_Node000004"><a xlink:title=" ">
<path fill="none" stroke="#63b8ff" d="M456.59,-130.43C480.28,-149.66 521.25,-180.55 561,-199.25 568.5,-202.78 576.6,-205.91 584.75,-208.65"/>
<polygon fill="#63b8ff" stroke="#63b8ff" points="458.94,-127.83 449,-124.17 454.49,-133.23 458.94,-127.83"/>
</a>
</g>
</g>
<!-- Node5 -->
<g id="Node000005" class="node">
<title>Node5</title>
<g id="a_Node000005"><a xlink:href="class_im_fusion_1_1_dicom_1_1_r_t_structure_rendering_data_component.html" target="_top" xlink:title="Internal rendering data that represent a RT Structure.">
<polygon fill="white" stroke="#666666" points="725.5,-190.5 575.25,-190.5 575.25,-160 725.5,-160 725.5,-190.5"/>
<text xml:space="preserve" text-anchor="start" x="583.25" y="-177" font-family="Helvetica,sans-Serif" font-size="10.00">ImFusion::Dicom::RTStructure</text>
<text xml:space="preserve" text-anchor="middle" x="650.38" y="-165.75" font-family="Helvetica,sans-Serif" font-size="10.00">RenderingDataComponent</text>
</a>
</g>
</g>
<!-- Node1&#45;&gt;Node5 -->
<g id="edge4_Node000001_Node000005" class="edge">
<title>Node1&#45;&gt;Node5</title>
<g id="a_edge4_Node000001_Node000005"><a xlink:title=" ">
<path fill="none" stroke="#63b8ff" d="M479.35,-126.73C503.34,-134.15 533.77,-143.41 561,-151.25 570.62,-154.02 580.86,-156.88 590.83,-159.62"/>
<polygon fill="#63b8ff" stroke="#63b8ff" points="480.51,-123.43 469.92,-123.81 478.44,-130.11 480.51,-123.43"/>
</a>
</g>
</g>
<!-- Node6 -->
<g id="Node000006" class="node">
<title>Node6</title>
<g id="a_Node000006"><a xlink:href="class_im_fusion_1_1_histogram_data_component.html" target="_top" xlink:title="DataComponent storing information on the intensity distribution of the image they are attached to.">
<polygon fill="white" stroke="#666666" points="739.75,-141.88 561,-141.88 561,-122.62 739.75,-122.62 739.75,-141.88"/>
<text xml:space="preserve" text-anchor="middle" x="650.38" y="-128.38" font-family="Helvetica,sans-Serif" font-size="10.00">ImFusion::HistogramDataComponent</text>
</a>
</g>
</g>
<!-- Node1&#45;&gt;Node6 -->
<g id="edge5_Node000001_Node000006" class="edge">
<title>Node1&#45;&gt;Node6</title>
<g id="a_edge5_Node000001_Node000006"><a xlink:title=" ">
<path fill="none" stroke="#63b8ff" d="M536.65,-122.2C544.64,-122.91 552.68,-123.63 560.58,-124.33"/>
<polygon fill="#63b8ff" stroke="#63b8ff" points="537.18,-118.73 526.91,-121.33 536.56,-125.71 537.18,-118.73"/>
</a>
</g>
</g>
<!-- Node7 -->
<g id="Node000007" class="node">
<title>Node7</title>
<g id="a_Node000007"><a xlink:href="class_im_fusion_1_1_label_bg_data_component.html" target="_top" xlink:title=" ">
<polygon fill="white" stroke="#bfbfbf" points="734.88,-104.88 565.88,-104.88 565.88,-85.62 734.88,-85.62 734.88,-104.88"/>
<text xml:space="preserve" text-anchor="middle" x="650.38" y="-91.38" font-family="Helvetica,sans-Serif" font-size="10.00">ImFusion::LabelBgDataComponent</text>
</a>
</g>
</g>
<!-- Node1&#45;&gt;Node7 -->
<g id="edge6_Node000001_Node000007" class="edge">
<title>Node1&#45;&gt;Node7</title>
<g id="a_edge6_Node000001_Node000007"><a xlink:title=" ">
<path fill="none" stroke="#63b8ff" d="M536.73,-104.76C546.42,-103.95 556.19,-103.12 565.69,-102.32"/>
<polygon fill="#63b8ff" stroke="#63b8ff" points="536.58,-101.26 526.91,-105.59 537.17,-108.24 536.58,-101.26"/>
</a>
</g>
</g>
<!-- Node8 -->
<g id="Node000008" class="node">
<title>Node8</title>
<g id="a_Node000008"><a xlink:href="class_im_fusion_1_1_octree_data_component.html" target="_top" xlink:title="DataComponent to store Octrees directly with their SharedImageSet.">
<polygon fill="white" stroke="#666666" points="731.88,-67.88 568.88,-67.88 568.88,-48.62 731.88,-48.62 731.88,-67.88"/>
<text xml:space="preserve" text-anchor="middle" x="650.38" y="-54.38" font-family="Helvetica,sans-Serif" font-size="10.00">ImFusion::OctreeDataComponent</text>
</a>
</g>
</g>
<!-- Node1&#45;&gt;Node8 -->
<g id="edge7_Node000001_Node000008" class="edge">
<title>Node1&#45;&gt;Node8</title>
<g id="a_edge7_Node000001_Node000008"><a xlink:title=" ">
<path fill="none" stroke="#63b8ff" d="M478.45,-99.73C502.5,-92.28 533.28,-83.17 561,-76.25 572.24,-73.44 584.37,-70.76 595.93,-68.35"/>
<polygon fill="#63b8ff" stroke="#63b8ff" points="477.52,-96.36 469.02,-102.68 479.61,-103.04 477.52,-96.36"/>
</a>
</g>
</g>
<!-- Node9 -->
<g id="Node000009" class="node">
<title>Node9</title>
<g id="a_Node000009"><a xlink:href="class_im_fusion_1_1_unrestored_data_components.html" target="_top" xlink:title="DataComponent containing the configurations of other components that could not be restored during loa...">
<polygon fill="white" stroke="#666666" points="716.12,-30.5 584.62,-30.5 584.62,0 716.12,0 716.12,-30.5"/>
<text xml:space="preserve" text-anchor="start" x="592.62" y="-17" font-family="Helvetica,sans-Serif" font-size="10.00">ImFusion::UnrestoredData</text>
<text xml:space="preserve" text-anchor="middle" x="650.38" y="-5.75" font-family="Helvetica,sans-Serif" font-size="10.00">Components</text>
</a>
</g>
</g>
<!-- Node1&#45;&gt;Node9 -->
<g id="edge8_Node000001_Node000009" class="edge">
<title>Node1&#45;&gt;Node9</title>
<g id="a_edge8_Node000001_Node000009"><a xlink:title=" ">
<path fill="none" stroke="#63b8ff" d="M459.61,-96.77C483.95,-80.24 523.66,-55.05 561,-39.25 568.47,-36.09 576.47,-33.24 584.49,-30.69"/>
<polygon fill="#63b8ff" stroke="#63b8ff" points="457.67,-93.85 451.42,-102.41 461.64,-99.62 457.67,-93.85"/>
</a>
</g>
</g>
<!-- Node2 -->
<g id="Node000002" class="node">
<title>Node2</title>
<g id="a_Node000002"><a xlink:href="class_im_fusion_1_1_data_component_base.html" target="_top" xlink:title="Data components provide a way to generically attach custom information objects.">
<polygon fill="white" stroke="#666666" points="309.5,-122.88 153.25,-122.88 153.25,-103.62 309.5,-103.62 309.5,-122.88"/>
<text xml:space="preserve" text-anchor="middle" x="231.38" y="-109.38" font-family="Helvetica,sans-Serif" font-size="10.00">ImFusion::DataComponentBase</text>
</a>
</g>
</g>
<!-- Node2&#45;&gt;Node1 -->
<g id="edge1_Node000001_Node000002" class="edge">
<title>Node2&#45;&gt;Node1</title>
<g id="a_edge1_Node000001_Node000002"><a xlink:title=" ">
<path fill="none" stroke="#63b8ff" d="M321.35,-113.25C329.26,-113.25 337.28,-113.25 345.19,-113.25"/>
<polygon fill="#63b8ff" stroke="#63b8ff" points="321.36,-109.75 311.36,-113.25 321.36,-116.75 321.36,-109.75"/>
</a>
</g>
</g>
<!-- Node3 -->
<g id="Node000003" class="node">
<title>Node3</title>
<g id="a_Node000003"><a xlink:href="class_im_fusion_1_1_configurable.html" target="_top" xlink:title="Base interface for classes that support object serialization from/to Properties objects.">
<polygon fill="white" stroke="#666666" points="117.25,-122.88 0,-122.88 0,-103.62 117.25,-103.62 117.25,-122.88"/>
<text xml:space="preserve" text-anchor="middle" x="58.62" y="-109.38" font-family="Helvetica,sans-Serif" font-size="10.00">ImFusion::Configurable</text>
</a>
</g>
</g>
<!-- Node3&#45;&gt;Node2 -->
<g id="edge2_Node000002_Node000003" class="edge">
<title>Node3&#45;&gt;Node2</title>
<g id="a_edge2_Node000002_Node000003"><a xlink:title=" ">
<path fill="none" stroke="#63b8ff" d="M128.88,-113.25C136.8,-113.25 144.92,-113.25 152.95,-113.25"/>
<polygon fill="#63b8ff" stroke="#63b8ff" points="128.95,-109.75 118.95,-113.25 128.95,-116.75 128.95,-109.75"/>
</a>
</g>
</g>
</g>
</svg>

<g id="navigator" transform="translate(0 0)" fill="#404254">
  <rect fill="#f2f5e9" fill-opacity="0.5" stroke="#606060" stroke-width=".5" x="0" y="0" width="60" height="60"/>
  <use id="zoomplus" xlink:href="#zoomPlus" x="17" y="9" onmousedown="handleZoom(evt,'in')"/>
  <use id="zoomminus" xlink:href="#zoomMin" x="42" y="9" onmousedown="handleZoom(evt,'out')"/>
  <use id="reset" xlink:href="#resetDef" x="30" y="36" onmousedown="handleReset()"/>
   <use id="arrowup" xlink:href="#arrowUp" x="0" y="0" onmousedown="handlePan(0,-1)"/>
  <use id="arrowright" xlink:href="#arrowRight" x="0" y="0" onmousedown="handlePan(1,0)"/>
  <use id="arrowdown" xlink:href="#arrowDown" x="0" y="0" onmousedown="handlePan(0,1)"/>
  <use id="arrowleft" xlink:href="#arrowLeft" x="0" y="0" onmousedown="handlePan(-1,0)"/>
</g>
<svg viewBox="0 0 15 15" width="100%" height="30px" preserveAspectRatio="xMaxYMin meet">
 <g id="arrow_out" transform="scale(0.3 0.3)">
  <a xlink:href="class_im_fusion_1_1_temporary_data_component__inherit__graph_org.svg" target="_base">
   <rect id="button" ry="5" rx="5" y="6" x="6" height="38" width="38"
        fill="#f2f5e9" fill-opacity="0.5" stroke="#606060" stroke-width="1.0"/>
   <path id="arrow"
     d="M 11.500037,31.436501 C 11.940474,20.09759 22.043105,11.32322 32.158766,21.979434 L 37.068811,17.246167 C 37.068811,17.246167 37.088388,32 37.088388,32 L 22.160133,31.978069 C 22.160133,31.978069 26.997745,27.140456 26.997745,27.140456 C 18.528582,18.264221 13.291696,25.230495 11.500037,31.436501 z"
     style="fill:#404040;"/>
  </a>
 </g>
</svg>

<style type='text/css'>
<![CDATA[
[data-mouse-over-selected='false'] { opacity: 0.7; }
[data-mouse-over-selected='true']  { opacity: 1.0; }
]]>
</style>
<script type="application/ecmascript"><![CDATA[
document.addEventListener('DOMContentLoaded', (event) => {
  highlightEdges();
  highlightAdjacentNodes();
});
]]></script>
</svg>
