<?xml version="1.0" encoding="UTF-8" standalone="no"?>
<!DOCTYPE svg PUBLIC "-//W3C//DTD SVG 1.1//EN"
 "http://www.w3.org/Graphics/SVG/1.1/DTD/svg11.dtd">
<!-- Generated by graphviz version 14.1.4 (20260321.0153)
 -->
<!-- Title: ImFusion::DefaultAction Pages: 1 -->
<svg width="361pt" height="138pt"
 viewBox="0.00 0.00 361.00 138.00" xmlns="http://www.w3.org/2000/svg" xmlns:xlink="http://www.w3.org/1999/xlink">

<svg id="main" version="1.1" xmlns="http://www.w3.org/2000/svg" xmlns:xlink="http://www.w3.org/1999/xlink" xml:space="preserve">

<style type="text/css"><![CDATA[
.node, .edge {opacity: 0.7;}
.node.selected, .edge.selected {opacity: 1;}
.edge:hover path { stroke: red; }
.edge:hover polygon { stroke: red; fill: red; }
]]></style>
<script type="application/ecmascript" xlink:href="svg.min.js"/>
<svg id="graph" class="graph">
<g id="graph0" class="graph" transform="scale(1 1) rotate(0) translate(4 133.75)">
<title>ImFusion::DefaultAction</title>
<!-- Node1 -->
<g id="Node000001" class="node">
<title>Node1</title>
<g id="a_Node000001"><a xlink:title=" ">
<polygon fill="#999999" stroke="#666666" points="198.88,-19.25 77.12,-19.25 77.12,0 198.88,0 198.88,-19.25"/>
<text xml:space="preserve" text-anchor="middle" x="138" y="-5.75" font-family="Helvetica,sans-Serif" font-size="10.00">ImFusion::DefaultAction</text>
</a>
</g>
</g>
<!-- Node2 -->
<g id="Node000002" class="node">
<title>Node2</title>
<g id="a_Node000002"><a xlink:title=" ">
<polygon fill="white" stroke="#bfbfbf" points="52,-74.5 0,-74.5 0,-55.25 52,-55.25 52,-74.5"/>
<text xml:space="preserve" text-anchor="middle" x="26" y="-61" font-family="Helvetica,sans-Serif" font-size="10.00">QObject</text>
</a>
</g>
</g>
<!-- Node2&#45;&gt;Node1 -->
<g id="edge1_Node000001_Node000002" class="edge">
<title>Node2&#45;&gt;Node1</title>
<g id="a_edge1_Node000001_Node000002"><a xlink:title=" ">
<path fill="none" stroke="#63b8ff" d="M55.17,-50.01C75.27,-40.45 101.42,-28.02 118.91,-19.7"/>
<polygon fill="#63b8ff" stroke="#63b8ff" points="53.89,-46.74 46.37,-54.19 56.9,-53.06 53.89,-46.74"/>
</a>
</g>
</g>
<!-- Node3 -->
<g id="Node000003" class="node">
<title>Node3</title>
<g id="a_Node000003"><a xlink:href="class_im_fusion_1_1_annotation_action.html" target="_top" xlink:title=" ">
<polygon fill="white" stroke="#bfbfbf" points="206.38,-74.5 69.62,-74.5 69.62,-55.25 206.38,-55.25 206.38,-74.5"/>
<text xml:space="preserve" text-anchor="middle" x="138" y="-61" font-family="Helvetica,sans-Serif" font-size="10.00">ImFusion::AnnotationAction</text>
</a>
</g>
</g>
<!-- Node3&#45;&gt;Node1 -->
<g id="edge2_Node000001_Node000003" class="edge">
<title>Node3&#45;&gt;Node1</title>
<g id="a_edge2_Node000001_Node000003"><a xlink:title=" ">
<path fill="none" stroke="#63b8ff" d="M138,-43.63C138,-35.34 138,-26.17 138,-19.61"/>
<polygon fill="#63b8ff" stroke="#63b8ff" points="134.5,-43.57 138,-53.57 141.5,-43.57 134.5,-43.57"/>
</a>
</g>
</g>
<!-- Node4 -->
<g id="Node000004" class="node">
<title>Node4</title>
<g id="a_Node000004"><a xlink:href="class_im_fusion_1_1_configurable.html" target="_top" xlink:title="Base interface for classes that support object serialization from/to Properties objects.">
<polygon fill="white" stroke="#666666" points="196.62,-129.75 79.38,-129.75 79.38,-110.5 196.62,-110.5 196.62,-129.75"/>
<text xml:space="preserve" text-anchor="middle" x="138" y="-116.25" font-family="Helvetica,sans-Serif" font-size="10.00">ImFusion::Configurable</text>
</a>
</g>
</g>
<!-- Node4&#45;&gt;Node3 -->
<g id="edge3_Node000003_Node000004" class="edge">
<title>Node4&#45;&gt;Node3</title>
<g id="a_edge3_Node000003_Node000004"><a xlink:title=" ">
<path fill="none" stroke="#63b8ff" d="M138,-98.88C138,-90.59 138,-81.42 138,-74.86"/>
<polygon fill="#63b8ff" stroke="#63b8ff" points="134.5,-98.82 138,-108.82 141.5,-98.82 134.5,-98.82"/>
</a>
</g>
</g>
<!-- Node5 -->
<g id="Node000005" class="node">
<title>Node5</title>
<g id="a_Node000005"><a xlink:href="class_im_fusion_1_1_signal_receiver.html" target="_top" xlink:title="Base class for classes that can contain slots (i.e.">
<polygon fill="white" stroke="#666666" points="353.25,-74.5 224.75,-74.5 224.75,-55.25 353.25,-55.25 353.25,-74.5"/>
<text xml:space="preserve" text-anchor="middle" x="289" y="-61" font-family="Helvetica,sans-Serif" font-size="10.00">ImFusion::SignalReceiver</text>
</a>
</g>
</g>
<!-- Node5&#45;&gt;Node1 -->
<g id="edge4_Node000001_Node000005" class="edge">
<title>Node5&#45;&gt;Node1</title>
<g id="a_edge4_Node000001_Node000005"><a xlink:title=" ">
<path fill="none" stroke="#63b8ff" d="M252.64,-51.05C225.19,-41.37 188.19,-28.32 163.74,-19.7"/>
<polygon fill="#63b8ff" stroke="#63b8ff" points="251.36,-54.31 261.96,-54.34 253.69,-47.71 251.36,-54.31"/>
</a>
</g>
</g>
</g>
</svg>
</svg>

<style type='text/css'>
<![CDATA[
[data-mouse-over-selected='false'] { opacity: 0.7; }
[data-mouse-over-selected='true']  { opacity: 1.0; }
]]>
</style>
<script type="application/ecmascript"><![CDATA[
document.addEventListener('DOMContentLoaded', (event) => {
  highlightEdges();
  highlightAdjacentNodes();
});
]]></script>
</svg>
