<?xml version="1.0" encoding="UTF-8" standalone="no"?>
<!DOCTYPE svg PUBLIC "-//W3C//DTD SVG 1.1//EN"
 "http://www.w3.org/Graphics/SVG/1.1/DTD/svg11.dtd">
<!-- Generated by graphviz version 14.1.4 (20260321.0153)
 -->
<!-- Title: ImFusion::ImFusionLibPlugin Pages: 1 -->
<svg width="650pt" height="224pt"
 viewBox="0.00 0.00 650.00 224.00" xmlns="http://www.w3.org/2000/svg" xmlns:xlink="http://www.w3.org/1999/xlink">
<g id="graph0" class="graph" transform="scale(1 1) rotate(0) translate(4 220.25)">
<title>ImFusion::ImFusionLibPlugin</title>
<!-- Node1 -->
<g id="Node000001" class="node">
<title>Node1</title>
<g id="a_Node000001"><a xlink:title="Specialized interface for a plugin for the ImFusionLib.">
<polygon fill="#999999" stroke="#666666" points="472.5,-114.25 329.75,-114.25 329.75,-95 472.5,-95 472.5,-114.25"/>
<text xml:space="preserve" text-anchor="middle" x="401.12" y="-100.75" font-family="Helvetica,sans-Serif" font-size="10.00">ImFusion::ImFusionLibPlugin</text>
</a>
</g>
</g>
<!-- Node4 -->
<g id="Node000004" class="node">
<title>Node4</title>
<g id="a_Node000004"><a xlink:href="class_im_fusion_1_1_dicom_gui_plugin.html" target="_top" xlink:title=" ">
<polygon fill="white" stroke="#bfbfbf" points="641.5,-216.25 508.5,-216.25 508.5,-197 641.5,-197 641.5,-216.25"/>
<text xml:space="preserve" text-anchor="middle" x="575" y="-202.75" font-family="Helvetica,sans-Serif" font-size="10.00">ImFusion::DicomGuiPlugin</text>
</a>
</g>
</g>
<!-- Node1&#45;&gt;Node4 -->
<g id="edge3_Node000001_Node000004" class="edge">
<title>Node1&#45;&gt;Node4</title>
<g id="a_edge3_Node000001_Node000004"><a xlink:title=" ">
<path fill="none" stroke="#63b8ff" d="M420.16,-122.66C440.13,-141.67 474.08,-171.22 508.5,-188.62 514.6,-191.71 521.3,-194.32 528.02,-196.52"/>
<polygon fill="#63b8ff" stroke="#63b8ff" points="422.71,-120.26 413.1,-115.8 417.84,-125.28 422.71,-120.26"/>
</a>
</g>
</g>
<!-- Node5 -->
<g id="Node000005" class="node">
<title>Node5</title>
<g id="a_Node000005"><a xlink:href="class_im_fusion_1_1_dicom_plugin.html" target="_top" xlink:title=" ">
<polygon fill="white" stroke="#bfbfbf" points="634,-179.25 516,-179.25 516,-160 634,-160 634,-179.25"/>
<text xml:space="preserve" text-anchor="middle" x="575" y="-165.75" font-family="Helvetica,sans-Serif" font-size="10.00">ImFusion::DicomPlugin</text>
</a>
</g>
</g>
<!-- Node1&#45;&gt;Node5 -->
<g id="edge4_Node000001_Node000005" class="edge">
<title>Node1&#45;&gt;Node5</title>
<g id="a_edge4_Node000001_Node000005"><a xlink:title=" ">
<path fill="none" stroke="#63b8ff" d="M433.24,-119.31C454.23,-128.92 482.7,-141.35 508.5,-150.62 517.41,-153.83 527.15,-156.89 536.33,-159.58"/>
<polygon fill="#63b8ff" stroke="#63b8ff" points="434.92,-116.23 424.38,-115.22 431.99,-122.59 434.92,-116.23"/>
</a>
</g>
</g>
<!-- Node6 -->
<g id="Node000006" class="node">
<title>Node6</title>
<g id="a_Node000006"><a xlink:href="class_im_fusion_1_1_im_fusion_labels_plugin.html" target="_top" xlink:title="Base class for ImFusion SDK plugins that also provide functionality to ImFusion Labels.">
<polygon fill="white" stroke="#666666" points="640.75,-141.88 509.25,-141.88 509.25,-111.38 640.75,-111.38 640.75,-141.88"/>
<text xml:space="preserve" text-anchor="start" x="517.25" y="-128.38" font-family="Helvetica,sans-Serif" font-size="10.00">ImFusion::ImFusionLabels</text>
<text xml:space="preserve" text-anchor="middle" x="575" y="-117.12" font-family="Helvetica,sans-Serif" font-size="10.00">Plugin</text>
</a>
</g>
</g>
<!-- Node1&#45;&gt;Node6 -->
<g id="edge5_Node000001_Node000006" class="edge">
<title>Node1&#45;&gt;Node6</title>
<g id="a_edge5_Node000001_Node000006"><a xlink:title=" ">
<path fill="none" stroke="#63b8ff" d="M483.92,-115.09C492.32,-116.17 500.77,-117.25 508.96,-118.3"/>
<polygon fill="#63b8ff" stroke="#63b8ff" points="484.39,-111.63 474.03,-113.83 483.51,-118.57 484.39,-111.63"/>
</a>
</g>
</g>
<!-- Node7 -->
<g id="Node000007" class="node">
<title>Node7</title>
<g id="a_Node000007"><a xlink:href="class_im_fusion_1_1_im_fusion_plugin.html" target="_top" xlink:title="Base class for plugins that can be loaded by the ImFusion SDK.">
<polygon fill="white" stroke="#666666" points="640,-93.25 510,-93.25 510,-74 640,-74 640,-93.25"/>
<text xml:space="preserve" text-anchor="middle" x="575" y="-79.75" font-family="Helvetica,sans-Serif" font-size="10.00">ImFusion::ImFusionPlugin</text>
</a>
</g>
</g>
<!-- Node1&#45;&gt;Node7 -->
<g id="edge6_Node000001_Node000007" class="edge">
<title>Node1&#45;&gt;Node7</title>
<g id="a_edge6_Node000001_Node000007"><a xlink:title=" ">
<path fill="none" stroke="#63b8ff" d="M483.81,-94.65C492.43,-93.59 501.12,-92.53 509.51,-91.5"/>
<polygon fill="#63b8ff" stroke="#63b8ff" points="483.53,-91.15 474.03,-95.84 484.38,-98.1 483.53,-91.15"/>
</a>
</g>
</g>
<!-- Node8 -->
<g id="Node000008" class="node">
<title>Node8</title>
<g id="a_Node000008"><a xlink:href="class_im_fusion_1_1_reg_plugin.html" target="_top" xlink:title="Plugin for algorithms from Registration plugin.">
<polygon fill="white" stroke="#666666" points="628.75,-56.25 521.25,-56.25 521.25,-37 628.75,-37 628.75,-56.25"/>
<text xml:space="preserve" text-anchor="middle" x="575" y="-42.75" font-family="Helvetica,sans-Serif" font-size="10.00">ImFusion::RegPlugin</text>
</a>
</g>
</g>
<!-- Node1&#45;&gt;Node8 -->
<g id="edge7_Node000001_Node000008" class="edge">
<title>Node1&#45;&gt;Node8</title>
<g id="a_edge7_Node000001_Node000008"><a xlink:title=" ">
<path fill="none" stroke="#63b8ff" d="M437.3,-90.47C457.89,-82.42 484.48,-72.42 508.5,-64.62 517.02,-61.86 526.26,-59.15 535.03,-56.7"/>
<polygon fill="#63b8ff" stroke="#63b8ff" points="436.26,-87.12 428.24,-94.05 438.82,-93.63 436.26,-87.12"/>
</a>
</g>
</g>
<!-- Node9 -->
<g id="Node000009" class="node">
<title>Node9</title>
<g id="a_Node000009"><a xlink:href="class_im_fusion_1_1_seg_plugin.html" target="_top" xlink:title="Plugin for algorithms from Seg module.">
<polygon fill="white" stroke="#666666" points="628.38,-19.25 521.62,-19.25 521.62,0 628.38,0 628.38,-19.25"/>
<text xml:space="preserve" text-anchor="middle" x="575" y="-5.75" font-family="Helvetica,sans-Serif" font-size="10.00">ImFusion::SegPlugin</text>
</a>
</g>
</g>
<!-- Node1&#45;&gt;Node9 -->
<g id="edge8_Node000001_Node000009" class="edge">
<title>Node1&#45;&gt;Node9</title>
<g id="a_edge8_Node000001_Node000009"><a xlink:title=" ">
<path fill="none" stroke="#63b8ff" d="M421.69,-87.1C442.04,-69.72 475.5,-43.46 508.5,-27.62 514.88,-24.56 521.87,-21.95 528.83,-19.74"/>
<polygon fill="#63b8ff" stroke="#63b8ff" points="419.45,-84.42 414.2,-93.62 424.04,-89.7 419.45,-84.42"/>
</a>
</g>
</g>
<!-- Node2 -->
<g id="Node000002" class="node">
<title>Node2</title>
<g id="a_Node000002"><a xlink:href="class_im_fusion_1_1_plugin_base.html" target="_top" xlink:title="Base interface to interact with a plugin that can be loaded into an application at runtime.">
<polygon fill="white" stroke="#666666" points="293.75,-114.25 181.75,-114.25 181.75,-95 293.75,-95 293.75,-114.25"/>
<text xml:space="preserve" text-anchor="middle" x="237.75" y="-100.75" font-family="Helvetica,sans-Serif" font-size="10.00">ImFusion::PluginBase</text>
</a>
</g>
</g>
<!-- Node2&#45;&gt;Node1 -->
<g id="edge1_Node000001_Node000002" class="edge">
<title>Node2&#45;&gt;Node1</title>
<g id="a_edge1_Node000001_Node000002"><a xlink:title=" ">
<path fill="none" stroke="#63b8ff" d="M305.28,-104.62C313.21,-104.62 321.32,-104.62 329.31,-104.62"/>
<polygon fill="#63b8ff" stroke="#63b8ff" points="305.35,-101.13 295.35,-104.63 305.35,-108.13 305.35,-101.13"/>
</a>
</g>
</g>
<!-- Node3 -->
<g id="Node000003" class="node">
<title>Node3</title>
<g id="a_Node000003"><a xlink:href="class_im_fusion_1_1_utils_1_1_not_copyable.html" target="_top" xlink:title="Inherit from this class if your class should be neither copy&#45;constructible nor assignable.">
<polygon fill="white" stroke="#666666" points="145.75,-114.25 0,-114.25 0,-95 145.75,-95 145.75,-114.25"/>
<text xml:space="preserve" text-anchor="middle" x="72.88" y="-100.75" font-family="Helvetica,sans-Serif" font-size="10.00">ImFusion::Utils::NotCopyable</text>
</a>
</g>
</g>
<!-- Node3&#45;&gt;Node2 -->
<g id="edge2_Node000002_Node000003" class="edge">
<title>Node3&#45;&gt;Node2</title>
<g id="a_edge2_Node000002_Node000003"><a xlink:title=" ">
<path fill="none" stroke="#8b1a1a" d="M157.02,-104.62C165.27,-104.62 173.5,-104.62 181.37,-104.62"/>
<polygon fill="#8b1a1a" stroke="#8b1a1a" points="157.3,-101.13 147.3,-104.63 157.3,-108.13 157.3,-101.13"/>
</a>
</g>
</g>
</g>
</svg>
