<?xml version="1.0" encoding="UTF-8" standalone="no"?>
<!DOCTYPE svg PUBLIC "-//W3C//DTD SVG 1.1//EN"
 "http://www.w3.org/Graphics/SVG/1.1/DTD/svg11.dtd">
<!-- Generated by graphviz version 14.1.4 (20260321.0153)
 -->
<!-- Title: ImFusion::GlAxisTransformerObject Pages: 1 -->
<svg width="360pt" height="260pt"
 viewBox="0.00 0.00 360.00 260.00" xmlns="http://www.w3.org/2000/svg" xmlns:xlink="http://www.w3.org/1999/xlink">
<g id="graph0" class="graph" transform="scale(1 1) rotate(0) translate(4 255.5)">
<title>ImFusion::GlAxisTransformerObject</title>
<!-- Node1 -->
<g id="Node000001" class="node">
<title>Node1</title>
<g id="a_Node000001"><a xlink:title=" ">
<polygon fill="#999999" stroke="#666666" points="244.88,-85.75 100.62,-85.75 100.62,-55.25 244.88,-55.25 244.88,-85.75"/>
<text xml:space="preserve" text-anchor="start" x="108.62" y="-72.25" font-family="Helvetica,sans-Serif" font-size="10.00">ImFusion::GlAxisTransformer</text>
<text xml:space="preserve" text-anchor="middle" x="172.75" y="-61" font-family="Helvetica,sans-Serif" font-size="10.00">Object</text>
</a>
</g>
</g>
<!-- Node5 -->
<g id="Node000005" class="node">
<title>Node5</title>
<g id="a_Node000005"><a xlink:href="class_im_fusion_1_1_gl_rotation_transformer.html" target="_top" xlink:title=" ">
<polygon fill="white" stroke="#bfbfbf" points="161.5,-19.25 0,-19.25 0,0 161.5,0 161.5,-19.25"/>
<text xml:space="preserve" text-anchor="middle" x="80.75" y="-5.75" font-family="Helvetica,sans-Serif" font-size="10.00">ImFusion::GlRotationTransformer</text>
</a>
</g>
</g>
<!-- Node1&#45;&gt;Node5 -->
<g id="edge4_Node000001_Node000005" class="edge">
<title>Node1&#45;&gt;Node5</title>
<g id="a_edge4_Node000001_Node000005"><a xlink:title=" ">
<path fill="none" stroke="#63b8ff" d="M140.67,-48.97C125.06,-38.98 107.09,-27.48 94.93,-19.7"/>
<polygon fill="#63b8ff" stroke="#63b8ff" points="138.42,-51.69 148.73,-54.13 142.2,-45.79 138.42,-51.69"/>
</a>
</g>
</g>
<!-- Node6 -->
<g id="Node000006" class="node">
<title>Node6</title>
<g id="a_Node000006"><a xlink:href="class_im_fusion_1_1_gl_translation_transformer.html" target="_top" xlink:title=" ">
<polygon fill="white" stroke="#bfbfbf" points="352.12,-19.25 179.38,-19.25 179.38,0 352.12,0 352.12,-19.25"/>
<text xml:space="preserve" text-anchor="middle" x="265.75" y="-5.75" font-family="Helvetica,sans-Serif" font-size="10.00">ImFusion::GlTranslationTransformer</text>
</a>
</g>
</g>
<!-- Node1&#45;&gt;Node6 -->
<g id="edge5_Node000001_Node000006" class="edge">
<title>Node1&#45;&gt;Node6</title>
<g id="a_edge5_Node000001_Node000006"><a xlink:title=" ">
<path fill="none" stroke="#63b8ff" d="M205.18,-48.97C220.96,-38.98 239.12,-27.48 251.41,-19.7"/>
<polygon fill="#63b8ff" stroke="#63b8ff" points="203.59,-45.83 197.02,-54.14 207.34,-51.75 203.59,-45.83"/>
</a>
</g>
</g>
<!-- Node2 -->
<g id="Node000002" class="node">
<title>Node2</title>
<g id="a_Node000002"><a xlink:href="class_im_fusion_1_1_gl_transformer_object.html" target="_top" xlink:title=" ">
<polygon fill="white" stroke="#bfbfbf" points="249.38,-141 96.12,-141 96.12,-121.75 249.38,-121.75 249.38,-141"/>
<text xml:space="preserve" text-anchor="middle" x="172.75" y="-127.5" font-family="Helvetica,sans-Serif" font-size="10.00">ImFusion::GlTransformerObject</text>
</a>
</g>
</g>
<!-- Node2&#45;&gt;Node1 -->
<g id="edge1_Node000001_Node000002" class="edge">
<title>Node2&#45;&gt;Node1</title>
<g id="a_edge1_Node000001_Node000002"><a xlink:title=" ">
<path fill="none" stroke="#63b8ff" d="M172.75,-110.17C172.75,-102.24 172.75,-93.31 172.75,-86.03"/>
<polygon fill="#63b8ff" stroke="#63b8ff" points="169.25,-109.92 172.75,-119.92 176.25,-109.92 169.25,-109.92"/>
</a>
</g>
</g>
<!-- Node3 -->
<g id="Node000003" class="node">
<title>Node3</title>
<g id="a_Node000003"><a xlink:href="class_im_fusion_1_1_gl_object.html" target="_top" xlink:title="Abstract base class for an renderable OpenGL object that can be hosted in a GlView.">
<polygon fill="white" stroke="#666666" points="223.12,-196.25 122.38,-196.25 122.38,-177 223.12,-177 223.12,-196.25"/>
<text xml:space="preserve" text-anchor="middle" x="172.75" y="-182.75" font-family="Helvetica,sans-Serif" font-size="10.00">ImFusion::GlObject</text>
</a>
</g>
</g>
<!-- Node3&#45;&gt;Node2 -->
<g id="edge2_Node000002_Node000003" class="edge">
<title>Node3&#45;&gt;Node2</title>
<g id="a_edge2_Node000002_Node000003"><a xlink:title=" ">
<path fill="none" stroke="#63b8ff" d="M172.75,-165.38C172.75,-157.09 172.75,-147.92 172.75,-141.36"/>
<polygon fill="#63b8ff" stroke="#63b8ff" points="169.25,-165.32 172.75,-175.32 176.25,-165.32 169.25,-165.32"/>
</a>
</g>
</g>
<!-- Node4 -->
<g id="Node000004" class="node">
<title>Node4</title>
<g id="a_Node000004"><a xlink:href="class_im_fusion_1_1_configurable.html" target="_top" xlink:title="Base interface for classes that support object serialization from/to Properties objects.">
<polygon fill="white" stroke="#666666" points="231.38,-251.5 114.12,-251.5 114.12,-232.25 231.38,-232.25 231.38,-251.5"/>
<text xml:space="preserve" text-anchor="middle" x="172.75" y="-238" font-family="Helvetica,sans-Serif" font-size="10.00">ImFusion::Configurable</text>
</a>
</g>
</g>
<!-- Node4&#45;&gt;Node3 -->
<g id="edge3_Node000003_Node000004" class="edge">
<title>Node4&#45;&gt;Node3</title>
<g id="a_edge3_Node000003_Node000004"><a xlink:title=" ">
<path fill="none" stroke="#63b8ff" d="M172.75,-220.63C172.75,-212.34 172.75,-203.17 172.75,-196.61"/>
<polygon fill="#63b8ff" stroke="#63b8ff" points="169.25,-220.57 172.75,-230.57 176.25,-220.57 169.25,-220.57"/>
</a>
</g>
</g>
</g>
</svg>
