<?xml version="1.0" encoding="UTF-8" standalone="no"?>
<!DOCTYPE svg PUBLIC "-//W3C//DTD SVG 1.1//EN"
 "http://www.w3.org/Graphics/SVG/1.1/DTD/svg11.dtd">
<!-- Generated by graphviz version 14.1.4 (20260321.0153)
 -->
<!-- Title: ImFusion::OverlayInteraction Pages: 1 -->
<svg width="161pt" height="193pt"
 viewBox="0.00 0.00 161.00 193.00" xmlns="http://www.w3.org/2000/svg" xmlns:xlink="http://www.w3.org/1999/xlink">
<g id="graph0" class="graph" transform="scale(1 1) rotate(0) translate(4 189)">
<title>ImFusion::OverlayInteraction</title>
<!-- Node1 -->
<g id="Node000001" class="node">
<title>Node1</title>
<g id="a_Node000001"><a xlink:title="Base class for all overlay interactions.">
<polygon fill="#999999" stroke="#666666" points="147.62,-74.5 5.62,-74.5 5.62,-55.25 147.62,-55.25 147.62,-74.5"/>
<text xml:space="preserve" text-anchor="middle" x="76.62" y="-61" font-family="Helvetica,sans-Serif" font-size="10.00">ImFusion::OverlayInteraction</text>
</a>
</g>
</g>
<!-- Node4 -->
<g id="Node000004" class="node">
<title>Node4</title>
<g id="a_Node000004"><a xlink:href="class_im_fusion_1_1_histogram_interaction.html" target="_top" xlink:title="Implements mouse interaction logic for the InteractiveHistogramOverlay.">
<polygon fill="white" stroke="#666666" points="153.25,-19.25 0,-19.25 0,0 153.25,0 153.25,-19.25"/>
<text xml:space="preserve" text-anchor="middle" x="76.62" y="-5.75" font-family="Helvetica,sans-Serif" font-size="10.00">ImFusion::HistogramInteraction</text>
</a>
</g>
</g>
<!-- Node1&#45;&gt;Node4 -->
<g id="edge3_Node000001_Node000004" class="edge">
<title>Node1&#45;&gt;Node4</title>
<g id="a_edge3_Node000001_Node000004"><a xlink:title=" ">
<path fill="none" stroke="#63b8ff" d="M76.62,-43.63C76.62,-35.34 76.62,-26.17 76.62,-19.61"/>
<polygon fill="#63b8ff" stroke="#63b8ff" points="73.13,-43.57 76.63,-53.57 80.13,-43.57 73.13,-43.57"/>
</a>
</g>
</g>
<!-- Node2 -->
<g id="Node000002" class="node">
<title>Node2</title>
<g id="a_Node000002"><a xlink:href="class_im_fusion_1_1_interaction.html" target="_top" xlink:title="Base interface class for view and overlay interactions.">
<polygon fill="white" stroke="#666666" points="130.75,-129.75 22.5,-129.75 22.5,-110.5 130.75,-110.5 130.75,-129.75"/>
<text xml:space="preserve" text-anchor="middle" x="76.62" y="-116.25" font-family="Helvetica,sans-Serif" font-size="10.00">ImFusion::Interaction</text>
</a>
</g>
</g>
<!-- Node2&#45;&gt;Node1 -->
<g id="edge1_Node000001_Node000002" class="edge">
<title>Node2&#45;&gt;Node1</title>
<g id="a_edge1_Node000001_Node000002"><a xlink:title=" ">
<path fill="none" stroke="#63b8ff" d="M76.62,-98.88C76.62,-90.59 76.62,-81.42 76.62,-74.86"/>
<polygon fill="#63b8ff" stroke="#63b8ff" points="73.13,-98.82 76.63,-108.82 80.13,-98.82 73.13,-98.82"/>
</a>
</g>
</g>
<!-- Node3 -->
<g id="Node000003" class="node">
<title>Node3</title>
<g id="a_Node000003"><a xlink:title=" ">
<polygon fill="white" stroke="#bfbfbf" points="102.62,-185 50.62,-185 50.62,-165.75 102.62,-165.75 102.62,-185"/>
<text xml:space="preserve" text-anchor="middle" x="76.62" y="-171.5" font-family="Helvetica,sans-Serif" font-size="10.00">QObject</text>
</a>
</g>
</g>
<!-- Node3&#45;&gt;Node2 -->
<g id="edge2_Node000002_Node000003" class="edge">
<title>Node3&#45;&gt;Node2</title>
<g id="a_edge2_Node000002_Node000003"><a xlink:title=" ">
<path fill="none" stroke="#63b8ff" d="M76.62,-154.13C76.62,-145.84 76.62,-136.67 76.62,-130.11"/>
<polygon fill="#63b8ff" stroke="#63b8ff" points="73.13,-154.07 76.63,-164.07 80.13,-154.07 73.13,-154.07"/>
</a>
</g>
</g>
</g>
</svg>
