<?xml version="1.0" encoding="UTF-8" standalone="no"?>
<!DOCTYPE svg PUBLIC "-//W3C//DTD SVG 1.1//EN"
 "http://www.w3.org/Graphics/SVG/1.1/DTD/svg11.dtd">
<!-- Generated by graphviz version 14.1.4 (20260321.0153)
 -->
<!-- Title: ImFusion::ManipulatorListener Pages: 1 -->
<!--zoomable 383 -->

<svg id="main" version="1.1" xmlns="http://www.w3.org/2000/svg" xmlns:xlink="http://www.w3.org/1999/xlink" xml:space="preserve" onload="init(evt)">

<style type="text/css"><![CDATA[
.node, .edge {opacity: 0.7;}
.node.selected, .edge.selected {opacity: 1;}
.edge:hover path { stroke: red; }
.edge:hover polygon { stroke: red; fill: red; }
]]></style>

<defs>
  <circle id="rim" cx="0" cy="0" r="7"/>
  <circle id="rim2" cx="0" cy="0" r="3.5"/>
  <g id="zoomPlus">
    <use xlink:href="#rim" fill="#404040"><set attributeName="fill" to="#808080" begin="zoomplus.mouseover" end="zoomplus.mouseout"/></use>
    <path d="M-4,0h8M0,-4v8" fill="none" stroke="white" stroke-width="1.5" pointer-events="none"/>
  </g>
  <g id="zoomMin">
    <use xlink:href="#rim" fill="#404040"><set attributeName="fill" to="#808080" begin="zoomminus.mouseover" end="zoomminus.mouseout"/></use>
    <path d="M-4,0h8" fill="none" stroke="white" stroke-width="1.5" pointer-events="none"/>
  </g>
  <g id="arrowUp" transform="translate(30 24)">
    <use xlink:href="#rim"/>
    <path pointer-events="none" fill="none" stroke="white" stroke-width="1.5" d="M0,-3.0v7 M-2.5,-0.5L0,-3.0L2.5,-0.5"/>
  </g>
  <g id="arrowRight" transform="rotate(90) translate(36 -43)">
    <use xlink:href="#rim"/>
    <path pointer-events="none" fill="none" stroke="white" stroke-width="1.5" d="M0,-3.0v7 M-2.5,-0.5L0,-3.0L2.5,-0.5"/>
  </g>
  <g id="arrowDown" transform="rotate(180) translate(-30 -48)">
    <use xlink:href="#rim"/>
    <path pointer-events="none" fill="none" stroke="white" stroke-width="1.5" d="M0,-3.0v7 M-2.5,-0.5L0,-3.0L2.5,-0.5"/>
  </g>
  <g id="arrowLeft" transform="rotate(270) translate(-36 17)">
    <use xlink:href="#rim"/>
    <path pointer-events="none" fill="none" stroke="white" stroke-width="1.5" d="M0,-3.0v7 M-2.5,-0.5L0,-3.0L2.5,-0.5"/>
  </g>
  <g id="resetDef">
    <use xlink:href="#rim2" fill="#404040"><set attributeName="fill" to="#808080" begin="reset.mouseover" end="reset.mouseout"/></use>
  </g>
</defs>
<script type="application/ecmascript">
var viewWidth = 582;
var viewHeight = 383;
var sectionId = 'dynsection-0';
</script>
<script type="application/ecmascript" xlink:href="svg.min.js"/>
<svg id="graph" class="graph">
<g id="viewport">
<title>ImFusion::ManipulatorListener</title>
<!-- Node1 -->
<g id="Node000001" class="node">
<title>Node1</title>
<g id="a_Node000001"><a xlink:title="Interface for manipulator events.">
<polygon fill="#999999" stroke="#666666" points="147.25,-197.25 0,-197.25 0,-178 147.25,-178 147.25,-197.25"/>
<text xml:space="preserve" text-anchor="middle" x="73.62" y="-183.75" font-family="Helvetica,sans-Serif" font-size="10.00">ImFusion::ManipulatorListener</text>
</a>
</g>
</g>
<!-- Node2 -->
<g id="Node000002" class="node">
<title>Node2</title>
<g id="a_Node000002"><a xlink:href="class_im_fusion_1_1_basic_image_processing_controller.html" target="_top" xlink:title="Controller for basic image processing tasks.">
<polygon fill="white" stroke="#666666" points="351.88,-374.88 188.88,-374.88 188.88,-344.38 351.88,-344.38 351.88,-374.88"/>
<text xml:space="preserve" text-anchor="start" x="196.88" y="-361.38" font-family="Helvetica,sans-Serif" font-size="10.00">ImFusion::BasicImageProcessing</text>
<text xml:space="preserve" text-anchor="middle" x="270.38" y="-350.12" font-family="Helvetica,sans-Serif" font-size="10.00">Controller</text>
</a>
</g>
</g>
<!-- Node1&#45;&gt;Node2 -->
<g id="edge1_Node000001_Node000002" class="edge">
<title>Node1&#45;&gt;Node2</title>
<g id="a_edge1_Node000001_Node000002"><a xlink:title=" ">
<path fill="none" stroke="#63b8ff" d="M84.03,-208.06C99.86,-240.17 134.91,-302.22 183.25,-335.62 187.85,-338.8 192.85,-341.56 198.07,-343.95"/>
<polygon fill="#63b8ff" stroke="#63b8ff" points="87.2,-206.57 79.73,-199.06 80.88,-209.59 87.2,-206.57"/>
</a>
</g>
</g>
<!-- Node3 -->
<g id="Node000003" class="node">
<title>Node3</title>
<g id="a_Node000003"><a xlink:href="class_im_fusion_1_1_data_matrix_transformer.html" target="_top" xlink:title=" ">
<polygon fill="white" stroke="#bfbfbf" points="351.88,-326.25 188.88,-326.25 188.88,-307 351.88,-307 351.88,-326.25"/>
<text xml:space="preserve" text-anchor="middle" x="270.38" y="-312.75" font-family="Helvetica,sans-Serif" font-size="10.00">ImFusion::DataMatrixTransformer</text>
</a>
</g>
</g>
<!-- Node1&#45;&gt;Node3 -->
<g id="edge2_Node000001_Node000003" class="edge">
<title>Node1&#45;&gt;Node3</title>
<g id="a_edge2_Node000001_Node000003"><a xlink:title=" ">
<path fill="none" stroke="#63b8ff" d="M87.69,-206.78C105.98,-232.02 141.68,-275.86 183.25,-298.62 189.01,-301.78 195.27,-304.38 201.69,-306.53"/>
<polygon fill="#63b8ff" stroke="#63b8ff" points="90.65,-204.91 82.03,-198.75 84.93,-208.94 90.65,-204.91"/>
</a>
</g>
</g>
<!-- Node4 -->
<g id="Node000004" class="node">
<title>Node4</title>
<g id="a_Node000004"><a xlink:href="class_im_fusion_1_1_draw_contour_action.html" target="_top" xlink:title="An action that allow to draw contours.">
<polygon fill="white" stroke="#666666" points="344.38,-289.25 196.38,-289.25 196.38,-270 344.38,-270 344.38,-289.25"/>
<text xml:space="preserve" text-anchor="middle" x="270.38" y="-275.75" font-family="Helvetica,sans-Serif" font-size="10.00">ImFusion::DrawContourAction</text>
</a>
</g>
</g>
<!-- Node1&#45;&gt;Node4 -->
<g id="edge3_Node000001_Node000004" class="edge">
<title>Node1&#45;&gt;Node4</title>
<g id="a_edge3_Node000001_Node000004"><a xlink:title=" ">
<path fill="none" stroke="#63b8ff" d="M95.01,-204.78C115.88,-221.47 149.89,-246.35 183.25,-260.62 191.56,-264.18 200.61,-267.11 209.62,-269.5"/>
<polygon fill="#63b8ff" stroke="#63b8ff" points="97.27,-202.11 87.31,-198.5 92.85,-207.53 97.27,-202.11"/>
</a>
</g>
</g>
<!-- Node5 -->
<g id="Node000005" class="node">
<title>Node5</title>
<g id="a_Node000005"><a xlink:href="class_im_fusion_1_1_image_statistics_controller.html" target="_top" xlink:title=" ">
<polygon fill="white" stroke="#bfbfbf" points="335.75,-251.88 205,-251.88 205,-221.38 335.75,-221.38 335.75,-251.88"/>
<text xml:space="preserve" text-anchor="start" x="213" y="-238.38" font-family="Helvetica,sans-Serif" font-size="10.00">ImFusion::ImageStatistics</text>
<text xml:space="preserve" text-anchor="middle" x="270.38" y="-227.12" font-family="Helvetica,sans-Serif" font-size="10.00">Controller</text>
</a>
</g>
</g>
<!-- Node1&#45;&gt;Node5 -->
<g id="edge4_Node000001_Node000005" class="edge">
<title>Node1&#45;&gt;Node5</title>
<g id="a_edge4_Node000001_Node000005"><a xlink:title=" ">
<path fill="none" stroke="#63b8ff" d="M125.54,-200.44C150.44,-206.7 180.64,-214.3 206.92,-220.91"/>
<polygon fill="#63b8ff" stroke="#63b8ff" points="126.53,-197.07 115.97,-198.03 124.82,-203.86 126.53,-197.07"/>
</a>
</g>
</g>
<!-- Node6 -->
<g id="Node000006" class="node">
<title>Node6</title>
<g id="a_Node000006"><a xlink:href="class_im_fusion_1_1_mesh_measurements_controller.html" target="_top" xlink:title=" ">
<polygon fill="white" stroke="#bfbfbf" points="345.88,-202.88 194.88,-202.88 194.88,-172.38 345.88,-172.38 345.88,-202.88"/>
<text xml:space="preserve" text-anchor="start" x="202.88" y="-189.38" font-family="Helvetica,sans-Serif" font-size="10.00">ImFusion::MeshMeasurements</text>
<text xml:space="preserve" text-anchor="middle" x="270.38" y="-178.12" font-family="Helvetica,sans-Serif" font-size="10.00">Controller</text>
</a>
</g>
</g>
<!-- Node1&#45;&gt;Node6 -->
<g id="edge5_Node000001_Node000006" class="edge">
<title>Node1&#45;&gt;Node6</title>
<g id="a_edge5_Node000001_Node000006"><a xlink:title=" ">
<path fill="none" stroke="#63b8ff" d="M158.96,-187.62C170.82,-187.62 182.93,-187.62 194.6,-187.62"/>
<polygon fill="#63b8ff" stroke="#63b8ff" points="159.21,-184.13 149.21,-187.63 159.21,-191.13 159.21,-184.13"/>
</a>
</g>
</g>
<!-- Node7 -->
<g id="Node000007" class="node">
<title>Node7</title>
<g id="a_Node000007"><a xlink:href="class_im_fusion_1_1_mesh_point_cloud_cropping_controller.html" target="_top" xlink:title="Controller for mesh (point cloud) cropping algorithm.">
<polygon fill="white" stroke="#666666" points="337.62,-153.88 203.12,-153.88 203.12,-123.38 337.62,-123.38 337.62,-153.88"/>
<text xml:space="preserve" text-anchor="start" x="211.12" y="-140.38" font-family="Helvetica,sans-Serif" font-size="10.00">ImFusion::MeshPointCloud</text>
<text xml:space="preserve" text-anchor="middle" x="270.38" y="-129.12" font-family="Helvetica,sans-Serif" font-size="10.00">CroppingController</text>
</a>
</g>
</g>
<!-- Node1&#45;&gt;Node7 -->
<g id="edge6_Node000001_Node000007" class="edge">
<title>Node1&#45;&gt;Node7</title>
<g id="a_edge6_Node000001_Node000007"><a xlink:title=" ">
<path fill="none" stroke="#63b8ff" d="M125.54,-174.81C150.44,-168.55 180.64,-160.95 206.92,-154.34"/>
<polygon fill="#63b8ff" stroke="#63b8ff" points="124.82,-171.39 115.97,-177.22 126.53,-178.18 124.82,-171.39"/>
</a>
</g>
</g>
<!-- Node8 -->
<g id="Node000008" class="node">
<title>Node8</title>
<g id="a_Node000008"><a xlink:href="class_im_fusion_1_1_point_correspondence_controller.html" target="_top" xlink:title="Controller for defining point correspondences.">
<polygon fill="white" stroke="#666666" points="348.5,-104.88 192.25,-104.88 192.25,-74.38 348.5,-74.38 348.5,-104.88"/>
<text xml:space="preserve" text-anchor="start" x="200.25" y="-91.38" font-family="Helvetica,sans-Serif" font-size="10.00">ImFusion::PointCorrespondence</text>
<text xml:space="preserve" text-anchor="middle" x="270.38" y="-80.12" font-family="Helvetica,sans-Serif" font-size="10.00">Controller</text>
</a>
</g>
</g>
<!-- Node1&#45;&gt;Node8 -->
<g id="edge7_Node000001_Node000008" class="edge">
<title>Node1&#45;&gt;Node8</title>
<g id="a_edge7_Node000001_Node000008"><a xlink:title=" ">
<path fill="none" stroke="#63b8ff" d="M95.56,-170.66C116.61,-154.33 150.55,-129.9 183.25,-114.62 190.73,-111.13 198.8,-108.01 206.9,-105.26"/>
<polygon fill="#63b8ff" stroke="#63b8ff" points="93.45,-167.87 87.77,-176.81 97.79,-173.36 93.45,-167.87"/>
</a>
</g>
</g>
<!-- Node9 -->
<g id="Node000009" class="node">
<title>Node9</title>
<g id="a_Node000009"><a xlink:href="class_im_fusion_1_1_points_on_data_manipulator.html" target="_top" xlink:title="Interface class that handles creation and manipulation of points on Data.">
<polygon fill="white" stroke="#666666" points="357.5,-56.25 183.25,-56.25 183.25,-37 357.5,-37 357.5,-56.25"/>
<text xml:space="preserve" text-anchor="middle" x="270.38" y="-42.75" font-family="Helvetica,sans-Serif" font-size="10.00">ImFusion::PointsOnDataManipulator</text>
</a>
</g>
</g>
<!-- Node1&#45;&gt;Node9 -->
<g id="edge8_Node000001_Node000009" class="edge">
<title>Node1&#45;&gt;Node9</title>
<g id="a_edge8_Node000001_Node000009"><a xlink:title=" ">
<path fill="none" stroke="#63b8ff" d="M86.25,-168.22C103.71,-140.83 139.41,-91.33 183.25,-65.62 189.46,-61.99 196.29,-59.04 203.31,-56.66"/>
<polygon fill="#63b8ff" stroke="#63b8ff" points="83.37,-166.22 81.08,-176.56 89.32,-169.9 83.37,-166.22"/>
</a>
</g>
</g>
<!-- Node11 -->
<g id="Node000011" class="node">
<title>Node11</title>
<g id="a_Node000011"><a xlink:href="class_im_fusion_1_1_window_to_selection.html" target="_top" xlink:title="Utility class to handle the event loop of the window&#45;to&#45;selection feature.">
<polygon fill="white" stroke="#666666" points="344.75,-19.25 196,-19.25 196,0 344.75,0 344.75,-19.25"/>
<text xml:space="preserve" text-anchor="middle" x="270.38" y="-5.75" font-family="Helvetica,sans-Serif" font-size="10.00">ImFusion::WindowToSelection</text>
</a>
</g>
</g>
<!-- Node1&#45;&gt;Node11 -->
<g id="edge10_Node000001_Node000011" class="edge">
<title>Node1&#45;&gt;Node11</title>
<g id="a_edge10_Node000001_Node000011"><a xlink:title=" ">
<path fill="none" stroke="#63b8ff" d="M82.48,-167.11C96.86,-132.47 130.85,-62.73 183.25,-27.62 187.95,-24.48 193.08,-21.87 198.44,-19.7"/>
<polygon fill="#63b8ff" stroke="#63b8ff" points="79.24,-165.79 78.77,-176.38 85.74,-168.39 79.24,-165.79"/>
</a>
</g>
</g>
<!-- Node10 -->
<g id="Node000010" class="node">
<title>Node10</title>
<g id="a_Node000010"><a xlink:href="class_im_fusion_1_1_points_on_image_manipulator.html" target="_top" xlink:title="Class that handles creation and manipulation of points on a volume or image.">
<polygon fill="white" stroke="#666666" points="573.75,-56.25 393.5,-56.25 393.5,-37 573.75,-37 573.75,-56.25"/>
<text xml:space="preserve" text-anchor="middle" x="483.62" y="-42.75" font-family="Helvetica,sans-Serif" font-size="10.00">ImFusion::PointsOnImageManipulator</text>
</a>
</g>
</g>
<!-- Node9&#45;&gt;Node10 -->
<g id="edge9_Node000009_Node000010" class="edge">
<title>Node9&#45;&gt;Node10</title>
<g id="a_edge9_Node000009_Node000010"><a xlink:title=" ">
<path fill="none" stroke="#63b8ff" d="M369.16,-46.62C377.15,-46.62 385.21,-46.62 393.14,-46.62"/>
<polygon fill="#63b8ff" stroke="#63b8ff" points="369.42,-43.13 359.42,-46.63 369.42,-50.13 369.42,-43.13"/>
</a>
</g>
</g>
</g>
</svg>

<g id="navigator" transform="translate(0 0)" fill="#404254">
  <rect fill="#f2f5e9" fill-opacity="0.5" stroke="#606060" stroke-width=".5" x="0" y="0" width="60" height="60"/>
  <use id="zoomplus" xlink:href="#zoomPlus" x="17" y="9" onmousedown="handleZoom(evt,'in')"/>
  <use id="zoomminus" xlink:href="#zoomMin" x="42" y="9" onmousedown="handleZoom(evt,'out')"/>
  <use id="reset" xlink:href="#resetDef" x="30" y="36" onmousedown="handleReset()"/>
   <use id="arrowup" xlink:href="#arrowUp" x="0" y="0" onmousedown="handlePan(0,-1)"/>
  <use id="arrowright" xlink:href="#arrowRight" x="0" y="0" onmousedown="handlePan(1,0)"/>
  <use id="arrowdown" xlink:href="#arrowDown" x="0" y="0" onmousedown="handlePan(0,1)"/>
  <use id="arrowleft" xlink:href="#arrowLeft" x="0" y="0" onmousedown="handlePan(-1,0)"/>
</g>
<svg viewBox="0 0 15 15" width="100%" height="30px" preserveAspectRatio="xMaxYMin meet">
 <g id="arrow_out" transform="scale(0.3 0.3)">
  <a xlink:href="class_im_fusion_1_1_manipulator_listener__inherit__graph_org.svg" target="_base">
   <rect id="button" ry="5" rx="5" y="6" x="6" height="38" width="38"
        fill="#f2f5e9" fill-opacity="0.5" stroke="#606060" stroke-width="1.0"/>
   <path id="arrow"
     d="M 11.500037,31.436501 C 11.940474,20.09759 22.043105,11.32322 32.158766,21.979434 L 37.068811,17.246167 C 37.068811,17.246167 37.088388,32 37.088388,32 L 22.160133,31.978069 C 22.160133,31.978069 26.997745,27.140456 26.997745,27.140456 C 18.528582,18.264221 13.291696,25.230495 11.500037,31.436501 z"
     style="fill:#404040;"/>
  </a>
 </g>
</svg>

<style type='text/css'>
<![CDATA[
[data-mouse-over-selected='false'] { opacity: 0.7; }
[data-mouse-over-selected='true']  { opacity: 1.0; }
]]>
</style>
<script type="application/ecmascript"><![CDATA[
document.addEventListener('DOMContentLoaded', (event) => {
  highlightEdges();
  highlightAdjacentNodes();
});
]]></script>
</svg>
