<?xml version="1.0" encoding="UTF-8" standalone="no"?>
<!DOCTYPE svg PUBLIC "-//W3C//DTD SVG 1.1//EN"
 "http://www.w3.org/Graphics/SVG/1.1/DTD/svg11.dtd">
<!-- Generated by graphviz version 14.1.4 (20260321.0153)
 -->
<!-- Title: ImFusion::Dicom::SettingsWidget Pages: 1 -->
<svg width="198pt" height="160pt"
 viewBox="0.00 0.00 198.00 160.00" xmlns="http://www.w3.org/2000/svg" xmlns:xlink="http://www.w3.org/1999/xlink">
<g id="graph0" class="graph" transform="scale(1 1) rotate(0) translate(4 156.25)">
<title>ImFusion::Dicom::SettingsWidget</title>
<!-- Node1 -->
<g id="Node000001" class="node">
<title>Node1</title>
<g id="a_Node000001"><a xlink:title="Simple Qt widget to configure the DicomPluginSettings.">
<polygon fill="#999999" stroke="#666666" points="177.12,-30.5 44.12,-30.5 44.12,0 177.12,0 177.12,-30.5"/>
<text xml:space="preserve" text-anchor="start" x="52.12" y="-17" font-family="Helvetica,sans-Serif" font-size="10.00">ImFusion::Dicom::Settings</text>
<text xml:space="preserve" text-anchor="middle" x="110.62" y="-5.75" font-family="Helvetica,sans-Serif" font-size="10.00">Widget</text>
</a>
</g>
</g>
<!-- Node2 -->
<g id="Node000002" class="node">
<title>Node2</title>
<g id="a_Node000002"><a xlink:href="class_im_fusion_1_1_settings_dialog_1_1_custom_settings_widget.html" target="_top" xlink:title="Base class for custom settings widgets.">
<polygon fill="white" stroke="#666666" points="173.75,-97 47.5,-97 47.5,-66.5 173.75,-66.5 173.75,-97"/>
<text xml:space="preserve" text-anchor="start" x="55.5" y="-83.5" font-family="Helvetica,sans-Serif" font-size="10.00">ImFusion::SettingsDialog</text>
<text xml:space="preserve" text-anchor="middle" x="110.62" y="-72.25" font-family="Helvetica,sans-Serif" font-size="10.00">::CustomSettingsWidget</text>
</a>
</g>
</g>
<!-- Node2&#45;&gt;Node1 -->
<g id="edge1_Node000001_Node000002" class="edge">
<title>Node2&#45;&gt;Node1</title>
<g id="a_edge1_Node000001_Node000002"><a xlink:title=" ">
<path fill="none" stroke="#63b8ff" d="M110.62,-54.81C110.62,-46.64 110.62,-37.91 110.62,-30.83"/>
<polygon fill="#63b8ff" stroke="#63b8ff" points="107.13,-54.6 110.63,-64.6 114.13,-54.6 107.13,-54.6"/>
</a>
</g>
</g>
<!-- Node3 -->
<g id="Node000003" class="node">
<title>Node3</title>
<g id="a_Node000003"><a xlink:href="class_im_fusion_1_1_configurable.html" target="_top" xlink:title="Base interface for classes that support object serialization from/to Properties objects.">
<polygon fill="white" stroke="#666666" points="117.25,-152.25 0,-152.25 0,-133 117.25,-133 117.25,-152.25"/>
<text xml:space="preserve" text-anchor="middle" x="58.62" y="-138.75" font-family="Helvetica,sans-Serif" font-size="10.00">ImFusion::Configurable</text>
</a>
</g>
</g>
<!-- Node3&#45;&gt;Node2 -->
<g id="edge2_Node000002_Node000003" class="edge">
<title>Node3&#45;&gt;Node2</title>
<g id="a_edge2_Node000002_Node000003"><a xlink:title=" ">
<path fill="none" stroke="#63b8ff" d="M74.01,-124.2C81.58,-115.63 90.6,-105.42 97.79,-97.28"/>
<polygon fill="#63b8ff" stroke="#63b8ff" points="71.52,-121.74 67.52,-131.55 76.77,-126.37 71.52,-121.74"/>
</a>
</g>
</g>
<!-- Node4 -->
<g id="Node000004" class="node">
<title>Node4</title>
<g id="a_Node000004"><a xlink:title=" ">
<polygon fill="white" stroke="#bfbfbf" points="189.75,-152.25 135.5,-152.25 135.5,-133 189.75,-133 189.75,-152.25"/>
<text xml:space="preserve" text-anchor="middle" x="162.62" y="-138.75" font-family="Helvetica,sans-Serif" font-size="10.00">QWidget</text>
</a>
</g>
</g>
<!-- Node4&#45;&gt;Node2 -->
<g id="edge3_Node000002_Node000004" class="edge">
<title>Node4&#45;&gt;Node2</title>
<g id="a_edge3_Node000002_Node000004"><a xlink:title=" ">
<path fill="none" stroke="#63b8ff" d="M147.24,-124.2C139.67,-115.63 130.65,-105.42 123.46,-97.28"/>
<polygon fill="#63b8ff" stroke="#63b8ff" points="144.48,-126.37 153.73,-131.55 149.73,-121.74 144.48,-126.37"/>
</a>
</g>
</g>
</g>
</svg>
