<?xml version="1.0" encoding="UTF-8" standalone="no"?>
<!DOCTYPE svg PUBLIC "-//W3C//DTD SVG 1.1//EN"
 "http://www.w3.org/Graphics/SVG/1.1/DTD/svg11.dtd">
<!-- Generated by graphviz version 14.1.4 (20260321.0153)
 -->
<!-- Title: ImFusion::ImFusionLabelsPlugin Pages: 1 -->
<svg width="154pt" height="204pt"
 viewBox="0.00 0.00 154.00 204.00" xmlns="http://www.w3.org/2000/svg" xmlns:xlink="http://www.w3.org/1999/xlink">
<g id="graph0" class="graph" transform="scale(1 1) rotate(0) translate(4 200.25)">
<title>ImFusion::ImFusionLabelsPlugin</title>
<!-- Node1 -->
<g id="Node000001" class="node">
<title>Node1</title>
<g id="a_Node000001"><a xlink:title="Base class for ImFusion SDK plugins that also provide functionality to ImFusion Labels.">
<polygon fill="#999999" stroke="#666666" points="138.62,-30.5 7.12,-30.5 7.12,0 138.62,0 138.62,-30.5"/>
<text xml:space="preserve" text-anchor="start" x="15.12" y="-17" font-family="Helvetica,sans-Serif" font-size="10.00">ImFusion::ImFusionLabels</text>
<text xml:space="preserve" text-anchor="middle" x="72.88" y="-5.75" font-family="Helvetica,sans-Serif" font-size="10.00">Plugin</text>
</a>
</g>
</g>
<!-- Node2 -->
<g id="Node000002" class="node">
<title>Node2</title>
<g id="a_Node000002"><a xlink:href="class_im_fusion_1_1_im_fusion_lib_plugin.html" target="_top" xlink:title="Specialized interface for a plugin for the ImFusionLib.">
<polygon fill="white" stroke="#666666" points="144.25,-85.75 1.5,-85.75 1.5,-66.5 144.25,-66.5 144.25,-85.75"/>
<text xml:space="preserve" text-anchor="middle" x="72.88" y="-72.25" font-family="Helvetica,sans-Serif" font-size="10.00">ImFusion::ImFusionLibPlugin</text>
</a>
</g>
</g>
<!-- Node2&#45;&gt;Node1 -->
<g id="edge1_Node000001_Node000002" class="edge">
<title>Node2&#45;&gt;Node1</title>
<g id="a_edge1_Node000001_Node000002"><a xlink:title=" ">
<path fill="none" stroke="#63b8ff" d="M72.88,-54.92C72.88,-46.99 72.88,-38.06 72.88,-30.78"/>
<polygon fill="#63b8ff" stroke="#63b8ff" points="69.38,-54.67 72.88,-64.67 76.38,-54.67 69.38,-54.67"/>
</a>
</g>
</g>
<!-- Node3 -->
<g id="Node000003" class="node">
<title>Node3</title>
<g id="a_Node000003"><a xlink:href="class_im_fusion_1_1_plugin_base.html" target="_top" xlink:title="Base interface to interact with a plugin that can be loaded into an application at runtime.">
<polygon fill="white" stroke="#666666" points="128.88,-141 16.88,-141 16.88,-121.75 128.88,-121.75 128.88,-141"/>
<text xml:space="preserve" text-anchor="middle" x="72.88" y="-127.5" font-family="Helvetica,sans-Serif" font-size="10.00">ImFusion::PluginBase</text>
</a>
</g>
</g>
<!-- Node3&#45;&gt;Node2 -->
<g id="edge2_Node000002_Node000003" class="edge">
<title>Node3&#45;&gt;Node2</title>
<g id="a_edge2_Node000002_Node000003"><a xlink:title=" ">
<path fill="none" stroke="#63b8ff" d="M72.88,-110.13C72.88,-101.84 72.88,-92.67 72.88,-86.11"/>
<polygon fill="#63b8ff" stroke="#63b8ff" points="69.38,-110.07 72.88,-120.07 76.38,-110.07 69.38,-110.07"/>
</a>
</g>
</g>
<!-- Node4 -->
<g id="Node000004" class="node">
<title>Node4</title>
<g id="a_Node000004"><a xlink:href="class_im_fusion_1_1_utils_1_1_not_copyable.html" target="_top" xlink:title="Inherit from this class if your class should be neither copy&#45;constructible nor assignable.">
<polygon fill="white" stroke="#666666" points="145.75,-196.25 0,-196.25 0,-177 145.75,-177 145.75,-196.25"/>
<text xml:space="preserve" text-anchor="middle" x="72.88" y="-182.75" font-family="Helvetica,sans-Serif" font-size="10.00">ImFusion::Utils::NotCopyable</text>
</a>
</g>
</g>
<!-- Node4&#45;&gt;Node3 -->
<g id="edge3_Node000003_Node000004" class="edge">
<title>Node4&#45;&gt;Node3</title>
<g id="a_edge3_Node000003_Node000004"><a xlink:title=" ">
<path fill="none" stroke="#8b1a1a" d="M72.88,-165.38C72.88,-157.09 72.88,-147.92 72.88,-141.36"/>
<polygon fill="#8b1a1a" stroke="#8b1a1a" points="69.38,-165.32 72.88,-175.32 76.38,-165.32 69.38,-165.32"/>
</a>
</g>
</g>
</g>
</svg>
