<?xml version="1.0" encoding="UTF-8" standalone="no"?>
<!DOCTYPE svg PUBLIC "-//W3C//DTD SVG 1.1//EN"
 "http://www.w3.org/Graphics/SVG/1.1/DTD/svg11.dtd">
<!-- Generated by graphviz version 14.1.4 (20260321.0153)
 -->
<!-- Title: ImFusion::SliceIndexOverlay Pages: 1 -->
<svg width="436pt" height="193pt"
 viewBox="0.00 0.00 436.00 193.00" xmlns="http://www.w3.org/2000/svg" xmlns:xlink="http://www.w3.org/1999/xlink">
<g id="graph0" class="graph" transform="scale(1 1) rotate(0) translate(4 189)">
<title>ImFusion::SliceIndexOverlay</title>
<!-- Node1 -->
<g id="Node000001" class="node">
<title>Node1</title>
<g id="a_Node000001"><a xlink:title="Renders the current slice number and total slices of the first data in the assigned view eg.">
<polygon fill="#999999" stroke="#666666" points="212.62,-19.25 70.62,-19.25 70.62,0 212.62,0 212.62,-19.25"/>
<text xml:space="preserve" text-anchor="middle" x="141.62" y="-5.75" font-family="Helvetica,sans-Serif" font-size="10.00">ImFusion::SliceIndexOverlay</text>
</a>
</g>
</g>
<!-- Node2 -->
<g id="Node000002" class="node">
<title>Node2</title>
<g id="a_Node000002"><a xlink:href="class_im_fusion_1_1_interactive_overlay.html" target="_top" xlink:title="Wraps a GlOverlay in order to display it at specific positions in an InteractiveView.">
<polygon fill="white" stroke="#666666" points="212.62,-74.5 70.62,-74.5 70.62,-55.25 212.62,-55.25 212.62,-74.5"/>
<text xml:space="preserve" text-anchor="middle" x="141.62" y="-61" font-family="Helvetica,sans-Serif" font-size="10.00">ImFusion::InteractiveOverlay</text>
</a>
</g>
</g>
<!-- Node2&#45;&gt;Node1 -->
<g id="edge1_Node000001_Node000002" class="edge">
<title>Node2&#45;&gt;Node1</title>
<g id="a_edge1_Node000001_Node000002"><a xlink:title=" ">
<path fill="none" stroke="#63b8ff" d="M141.62,-43.63C141.62,-35.34 141.62,-26.17 141.62,-19.61"/>
<polygon fill="#63b8ff" stroke="#63b8ff" points="138.13,-43.57 141.63,-53.57 145.13,-43.57 138.13,-43.57"/>
</a>
</g>
</g>
<!-- Node3 -->
<g id="Node000003" class="node">
<title>Node3</title>
<g id="a_Node000003"><a xlink:title=" ">
<polygon fill="white" stroke="#bfbfbf" points="110.62,-129.75 58.62,-129.75 58.62,-110.5 110.62,-110.5 110.62,-129.75"/>
<text xml:space="preserve" text-anchor="middle" x="84.62" y="-116.25" font-family="Helvetica,sans-Serif" font-size="10.00">QObject</text>
</a>
</g>
</g>
<!-- Node3&#45;&gt;Node2 -->
<g id="edge2_Node000002_Node000003" class="edge">
<title>Node3&#45;&gt;Node2</title>
<g id="a_edge2_Node000002_Node000003"><a xlink:title=" ">
<path fill="none" stroke="#63b8ff" d="M102.57,-102.36C112.36,-93.22 124.07,-82.28 132.1,-74.77"/>
<polygon fill="#63b8ff" stroke="#63b8ff" points="100.32,-99.67 95.4,-109.06 105.1,-104.79 100.32,-99.67"/>
</a>
</g>
</g>
<!-- Node4 -->
<g id="Node000004" class="node">
<title>Node4</title>
<g id="a_Node000004"><a xlink:href="class_im_fusion_1_1_g_u_i_1_1_view_overlay.html" target="_top" xlink:title="Wraps a GlOverlay in order to display it at specific positions inside a View and handle input events.">
<polygon fill="white" stroke="#666666" points="270.62,-129.75 128.62,-129.75 128.62,-110.5 270.62,-110.5 270.62,-129.75"/>
<text xml:space="preserve" text-anchor="middle" x="199.62" y="-116.25" font-family="Helvetica,sans-Serif" font-size="10.00">ImFusion::GUI::ViewOverlay</text>
</a>
</g>
</g>
<!-- Node4&#45;&gt;Node2 -->
<g id="edge3_Node000002_Node000004" class="edge">
<title>Node4&#45;&gt;Node2</title>
<g id="a_edge3_Node000002_Node000004"><a xlink:title=" ">
<path fill="none" stroke="#63b8ff" d="M181.36,-102.36C171.41,-93.22 159.49,-82.28 151.32,-74.77"/>
<polygon fill="#63b8ff" stroke="#63b8ff" points="178.94,-104.88 188.67,-109.07 183.67,-99.73 178.94,-104.88"/>
</a>
</g>
</g>
<!-- Node5 -->
<g id="Node000005" class="node">
<title>Node5</title>
<g id="a_Node000005"><a xlink:href="class_im_fusion_1_1_configurable.html" target="_top" xlink:title="Base interface for classes that support object serialization from/to Properties objects.">
<polygon fill="white" stroke="#666666" points="117.25,-185 0,-185 0,-165.75 117.25,-165.75 117.25,-185"/>
<text xml:space="preserve" text-anchor="middle" x="58.62" y="-171.5" font-family="Helvetica,sans-Serif" font-size="10.00">ImFusion::Configurable</text>
</a>
</g>
</g>
<!-- Node5&#45;&gt;Node4 -->
<g id="edge4_Node000004_Node000005" class="edge">
<title>Node5&#45;&gt;Node4</title>
<g id="a_edge4_Node000004_Node000005"><a xlink:title=" ">
<path fill="none" stroke="#63b8ff" d="M93.26,-161.29C118.83,-151.64 152.96,-138.75 175.59,-130.2"/>
<polygon fill="#63b8ff" stroke="#63b8ff" points="92.08,-158 83.96,-164.81 94.55,-164.55 92.08,-158"/>
</a>
</g>
</g>
<!-- Node6 -->
<g id="Node000006" class="node">
<title>Node6</title>
<g id="a_Node000006"><a xlink:href="class_im_fusion_1_1_signal_receiver.html" target="_top" xlink:title="Base class for classes that can contain slots (i.e.">
<polygon fill="white" stroke="#666666" points="263.88,-185 135.38,-185 135.38,-165.75 263.88,-165.75 263.88,-185"/>
<text xml:space="preserve" text-anchor="middle" x="199.62" y="-171.5" font-family="Helvetica,sans-Serif" font-size="10.00">ImFusion::SignalReceiver</text>
</a>
</g>
</g>
<!-- Node6&#45;&gt;Node4 -->
<g id="edge5_Node000004_Node000006" class="edge">
<title>Node6&#45;&gt;Node4</title>
<g id="a_edge5_Node000004_Node000006"><a xlink:title=" ">
<path fill="none" stroke="#63b8ff" d="M199.62,-154.13C199.62,-145.84 199.62,-136.67 199.62,-130.11"/>
<polygon fill="#63b8ff" stroke="#63b8ff" points="196.13,-154.07 199.63,-164.07 203.13,-154.07 196.13,-154.07"/>
</a>
</g>
</g>
<!-- Node7 -->
<g id="Node000007" class="node">
<title>Node7</title>
<g id="a_Node000007"><a xlink:href="class_im_fusion_1_1_utils_1_1_not_copyable.html" target="_top" xlink:title="Inherit from this class if your class should be neither copy&#45;constructible nor assignable.">
<polygon fill="white" stroke="#666666" points="427.5,-185 281.75,-185 281.75,-165.75 427.5,-165.75 427.5,-185"/>
<text xml:space="preserve" text-anchor="middle" x="354.62" y="-171.5" font-family="Helvetica,sans-Serif" font-size="10.00">ImFusion::Utils::NotCopyable</text>
</a>
</g>
</g>
<!-- Node7&#45;&gt;Node4 -->
<g id="edge6_Node000004_Node000007" class="edge">
<title>Node7&#45;&gt;Node4</title>
<g id="a_edge6_Node000004_Node000007"><a xlink:title=" ">
<path fill="none" stroke="#8b1a1a" d="M317.68,-161.68C289.46,-151.99 251.25,-138.86 226.05,-130.2"/>
<polygon fill="#8b1a1a" stroke="#8b1a1a" points="316.31,-164.91 326.9,-164.85 318.58,-158.29 316.31,-164.91"/>
</a>
</g>
</g>
</g>
</svg>
