<?xml version="1.0" encoding="UTF-8" standalone="no"?>
<!DOCTYPE svg PUBLIC "-//W3C//DTD SVG 1.1//EN"
 "http://www.w3.org/Graphics/SVG/1.1/DTD/svg11.dtd">
<!-- Generated by graphviz version 14.1.4 (20260321.0153)
 -->
<!-- Title: ImFusion::Dicom::DicomParameterBase Pages: 1 -->
<svg width="432pt" height="76pt"
 viewBox="0.00 0.00 432.00 76.00" xmlns="http://www.w3.org/2000/svg" xmlns:xlink="http://www.w3.org/1999/xlink">
<g id="graph0" class="graph" transform="scale(1 1) rotate(0) translate(4 71.88)">
<title>ImFusion::Dicom::DicomParameterBase</title>
<!-- Node1 -->
<g id="Node000001" class="node">
<title>Node1</title>
<g id="a_Node000001"><a xlink:title="Internal type&#45;erased base class for DicomParameter&lt;T&gt;.">
<polygon fill="#999999" stroke="#666666" points="193,-40.25 0,-40.25 0,-21 193,-21 193,-40.25"/>
<text xml:space="preserve" text-anchor="middle" x="96.5" y="-26.75" font-family="Helvetica,sans-Serif" font-size="10.00">ImFusion::Dicom::DicomParameterBase</text>
</a>
</g>
</g>
<!-- Node2 -->
<g id="Node000002" class="node">
<title>Node2</title>
<g id="a_Node000002"><a xlink:href="class_im_fusion_1_1_dicom_1_1_dicom_parameter.html" target="_top" xlink:title=" ">
<polygon fill="white" stroke="#666666" points="411.5,-67.88 241,-67.88 241,-37.38 411.5,-37.38 411.5,-67.88"/>
<text xml:space="preserve" text-anchor="start" x="249" y="-54.38" font-family="Helvetica,sans-Serif" font-size="10.00">ImFusion::Dicom::DicomParameter</text>
<text xml:space="preserve" text-anchor="middle" x="326.25" y="-43.12" font-family="Helvetica,sans-Serif" font-size="10.00">&lt; std::string &gt;</text>
</a>
</g>
</g>
<!-- Node1&#45;&gt;Node2 -->
<g id="edge1_Node000001_Node000002" class="edge">
<title>Node1&#45;&gt;Node2</title>
<g id="a_edge1_Node000001_Node000002"><a xlink:title=" ">
<path fill="none" stroke="#63b8ff" d="M204.89,-41C216.89,-42.16 228.98,-43.33 240.64,-44.45"/>
<polygon fill="#63b8ff" stroke="#63b8ff" points="205.22,-37.51 194.93,-40.04 204.55,-44.48 205.22,-37.51"/>
</a>
</g>
</g>
<!-- Node3 -->
<g id="Node000003" class="node">
<title>Node3</title>
<g id="a_Node000003"><a xlink:href="class_im_fusion_1_1_dicom_1_1_dicom_parameter.html" target="_top" xlink:title="A specialized Parameter&lt;T&gt; class that can additionally serialize from and to DICOM.">
<polygon fill="white" stroke="#666666" points="423.5,-19.25 229,-19.25 229,0 423.5,0 423.5,-19.25"/>
<text xml:space="preserve" text-anchor="middle" x="326.25" y="-5.75" font-family="Helvetica,sans-Serif" font-size="10.00">ImFusion::Dicom::DicomParameter&lt; T &gt;</text>
</a>
</g>
</g>
<!-- Node1&#45;&gt;Node3 -->
<g id="edge2_Node000001_Node000003" class="edge">
<title>Node1&#45;&gt;Node3</title>
<g id="a_edge2_Node000001_Node000003"><a xlink:title=" ">
<path fill="none" stroke="#63b8ff" d="M204.7,-20.74C212.71,-20 220.77,-19.26 228.7,-18.53"/>
<polygon fill="#63b8ff" stroke="#63b8ff" points="204.57,-17.24 194.93,-21.64 205.21,-24.21 204.57,-17.24"/>
</a>
</g>
</g>
</g>
</svg>
