<?xml version="1.0" encoding="UTF-8" standalone="no"?>
<!DOCTYPE svg PUBLIC "-//W3C//DTD SVG 1.1//EN"
 "http://www.w3.org/Graphics/SVG/1.1/DTD/svg11.dtd">
<!-- Generated by graphviz version 14.1.4 (20260321.0153)
 -->
<!-- Title: ImFusion::GlCurvedViewOrthoSlice Pages: 1 -->
<svg width="281pt" height="204pt"
 viewBox="0.00 0.00 281.00 204.00" xmlns="http://www.w3.org/2000/svg" xmlns:xlink="http://www.w3.org/1999/xlink">
<g id="graph0" class="graph" transform="scale(1 1) rotate(0) translate(4 200.25)">
<title>ImFusion::GlCurvedViewOrthoSlice</title>
<!-- Node1 -->
<g id="Node000001" class="node">
<title>Node1</title>
<g id="a_Node000001"><a xlink:title="Displays an ortho slice for a panorama curve.">
<polygon fill="#999999" stroke="#666666" points="203.38,-30.5 53.88,-30.5 53.88,0 203.38,0 203.38,-30.5"/>
<text xml:space="preserve" text-anchor="start" x="61.88" y="-17" font-family="Helvetica,sans-Serif" font-size="10.00">ImFusion::GlCurvedViewOrtho</text>
<text xml:space="preserve" text-anchor="middle" x="128.62" y="-5.75" font-family="Helvetica,sans-Serif" font-size="10.00">Slice</text>
</a>
</g>
</g>
<!-- Node2 -->
<g id="Node000002" class="node">
<title>Node2</title>
<g id="a_Node000002"><a xlink:href="class_im_fusion_1_1_gl_slice.html" target="_top" xlink:title="Represents an MPR slice for rendering Data into 2D views.">
<polygon fill="white" stroke="#666666" points="175.62,-85.75 81.62,-85.75 81.62,-66.5 175.62,-66.5 175.62,-85.75"/>
<text xml:space="preserve" text-anchor="middle" x="128.62" y="-72.25" font-family="Helvetica,sans-Serif" font-size="10.00">ImFusion::GlSlice</text>
</a>
</g>
</g>
<!-- Node2&#45;&gt;Node1 -->
<g id="edge1_Node000001_Node000002" class="edge">
<title>Node2&#45;&gt;Node1</title>
<g id="a_edge1_Node000001_Node000002"><a xlink:title=" ">
<path fill="none" stroke="#63b8ff" d="M128.62,-54.92C128.62,-46.99 128.62,-38.06 128.62,-30.78"/>
<polygon fill="#63b8ff" stroke="#63b8ff" points="125.13,-54.67 128.63,-64.67 132.13,-54.67 125.13,-54.67"/>
</a>
</g>
</g>
<!-- Node3 -->
<g id="Node000003" class="node">
<title>Node3</title>
<g id="a_Node000003"><a xlink:href="class_im_fusion_1_1_gl_object.html" target="_top" xlink:title="Abstract base class for an renderable OpenGL object that can be hosted in a GlView.">
<polygon fill="white" stroke="#666666" points="109,-141 8.25,-141 8.25,-121.75 109,-121.75 109,-141"/>
<text xml:space="preserve" text-anchor="middle" x="58.62" y="-127.5" font-family="Helvetica,sans-Serif" font-size="10.00">ImFusion::GlObject</text>
</a>
</g>
</g>
<!-- Node3&#45;&gt;Node2 -->
<g id="edge2_Node000002_Node000003" class="edge">
<title>Node3&#45;&gt;Node2</title>
<g id="a_edge2_Node000002_Node000003"><a xlink:title=" ">
<path fill="none" stroke="#63b8ff" d="M79.57,-114.44C91.8,-105.14 106.76,-93.76 116.93,-86.02"/>
<polygon fill="#63b8ff" stroke="#63b8ff" points="77.54,-111.59 71.7,-120.43 81.78,-117.16 77.54,-111.59"/>
</a>
</g>
</g>
<!-- Node4 -->
<g id="Node000004" class="node">
<title>Node4</title>
<g id="a_Node000004"><a xlink:href="class_im_fusion_1_1_configurable.html" target="_top" xlink:title="Base interface for classes that support object serialization from/to Properties objects.">
<polygon fill="white" stroke="#666666" points="117.25,-196.25 0,-196.25 0,-177 117.25,-177 117.25,-196.25"/>
<text xml:space="preserve" text-anchor="middle" x="58.62" y="-182.75" font-family="Helvetica,sans-Serif" font-size="10.00">ImFusion::Configurable</text>
</a>
</g>
</g>
<!-- Node4&#45;&gt;Node3 -->
<g id="edge3_Node000003_Node000004" class="edge">
<title>Node4&#45;&gt;Node3</title>
<g id="a_edge3_Node000003_Node000004"><a xlink:title=" ">
<path fill="none" stroke="#63b8ff" d="M58.62,-165.38C58.62,-157.09 58.62,-147.92 58.62,-141.36"/>
<polygon fill="#63b8ff" stroke="#63b8ff" points="55.13,-165.32 58.63,-175.32 62.13,-165.32 55.13,-165.32"/>
</a>
</g>
</g>
<!-- Node5 -->
<g id="Node000005" class="node">
<title>Node5</title>
<g id="a_Node000005"><a xlink:href="class_im_fusion_1_1_utils_1_1_not_copyable.html" target="_top" xlink:title="Inherit from this class if your class should be neither copy&#45;constructible nor assignable.">
<polygon fill="white" stroke="#666666" points="272.5,-141 126.75,-141 126.75,-121.75 272.5,-121.75 272.5,-141"/>
<text xml:space="preserve" text-anchor="middle" x="199.62" y="-127.5" font-family="Helvetica,sans-Serif" font-size="10.00">ImFusion::Utils::NotCopyable</text>
</a>
</g>
</g>
<!-- Node5&#45;&gt;Node2 -->
<g id="edge4_Node000002_Node000005" class="edge">
<title>Node5&#45;&gt;Node2</title>
<g id="a_edge4_Node000002_Node000005"><a xlink:title=" ">
<path fill="none" stroke="#8b1a1a" d="M178.38,-114.44C165.98,-105.14 150.8,-93.76 140.49,-86.02"/>
<polygon fill="#8b1a1a" stroke="#8b1a1a" points="176.27,-117.23 186.37,-120.43 180.47,-111.63 176.27,-117.23"/>
</a>
</g>
</g>
</g>
</svg>
