<?xml version="1.0" encoding="UTF-8" standalone="no"?>
<!DOCTYPE svg PUBLIC "-//W3C//DTD SVG 1.1//EN"
 "http://www.w3.org/Graphics/SVG/1.1/DTD/svg11.dtd">
<!-- Generated by graphviz version 14.1.4 (20260321.0153)
 -->
<!-- Title: ImFusion::Dicom::EnhancedMultiFrameImageIOD::FunctionalGroupMacro Pages: 1 -->
<svg width="559pt" height="101pt"
 viewBox="0.00 0.00 559.00 101.00" xmlns="http://www.w3.org/2000/svg" xmlns:xlink="http://www.w3.org/1999/xlink">
<g id="graph0" class="graph" transform="scale(1 1) rotate(0) translate(4 97.25)">
<title>ImFusion::Dicom::EnhancedMultiFrameImageIOD::FunctionalGroupMacro</title>
<!-- Node1 -->
<g id="Node000001" class="node">
<title>Node1</title>
<g id="a_Node000001"><a xlink:title="This is a simplified implementation of the function group macros.">
<polygon fill="#999999" stroke="#666666" points="550.5,-48.5 389.75,-48.5 389.75,-6.75 550.5,-6.75 550.5,-48.5"/>
<text xml:space="preserve" text-anchor="start" x="397.75" y="-35" font-family="Helvetica,sans-Serif" font-size="10.00">ImFusion::Dicom::Enhanced</text>
<text xml:space="preserve" text-anchor="start" x="397.75" y="-23.75" font-family="Helvetica,sans-Serif" font-size="10.00">MultiFrameImageIOD::Functional</text>
<text xml:space="preserve" text-anchor="middle" x="470.12" y="-12.5" font-family="Helvetica,sans-Serif" font-size="10.00">GroupMacro</text>
</a>
</g>
</g>
<!-- Node2 -->
<g id="Node000002" class="node">
<title>Node2</title>
<g id="a_Node000002"><a xlink:href="class_im_fusion_1_1_dicom_1_1_sequence_item.html" target="_top" xlink:title="Base class for sequence items.">
<polygon fill="white" stroke="#666666" points="353.75,-56.25 193.75,-56.25 193.75,-37 353.75,-37 353.75,-56.25"/>
<text xml:space="preserve" text-anchor="middle" x="273.75" y="-42.75" font-family="Helvetica,sans-Serif" font-size="10.00">ImFusion::Dicom::SequenceItem</text>
</a>
</g>
</g>
<!-- Node2&#45;&gt;Node1 -->
<g id="edge1_Node000001_Node000002" class="edge">
<title>Node2&#45;&gt;Node1</title>
<g id="a_edge1_Node000001_Node000002"><a xlink:title=" ">
<path fill="none" stroke="#63b8ff" d="M365.37,-37.77C373.4,-36.98 381.48,-36.19 389.41,-35.42"/>
<polygon fill="#63b8ff" stroke="#63b8ff" points="365.21,-34.27 355.6,-38.72 365.89,-41.23 365.21,-34.27"/>
</a>
</g>
</g>
<!-- Node3 -->
<g id="Node000003" class="node">
<title>Node3</title>
<g id="a_Node000003"><a xlink:href="class_im_fusion_1_1_dicom_1_1_element_list.html" target="_top" xlink:title="Interface for classes that consist of Elements.">
<polygon fill="white" stroke="#666666" points="153.25,-93.25 4.5,-93.25 4.5,-74 153.25,-74 153.25,-93.25"/>
<text xml:space="preserve" text-anchor="middle" x="78.88" y="-79.75" font-family="Helvetica,sans-Serif" font-size="10.00">ImFusion::Dicom::ElementList</text>
</a>
</g>
</g>
<!-- Node3&#45;&gt;Node2 -->
<g id="edge2_Node000002_Node000003" class="edge">
<title>Node3&#45;&gt;Node2</title>
<g id="a_edge2_Node000002_Node000003"><a xlink:title=" ">
<path fill="none" stroke="#63b8ff" d="M143.71,-71.38C168.48,-66.63 196.52,-61.25 220.11,-56.72"/>
<polygon fill="#63b8ff" stroke="#63b8ff" points="143.23,-67.91 134.07,-73.23 144.55,-74.78 143.23,-67.91"/>
</a>
</g>
</g>
<!-- Node4 -->
<g id="Node000004" class="node">
<title>Node4</title>
<g id="a_Node000004"><a xlink:href="class_im_fusion_1_1_dicom_1_1_error_recorder.html" target="_top" xlink:title="Error handling interface for the Dicom module.">
<polygon fill="white" stroke="#666666" points="157.75,-56.25 0,-56.25 0,-37 157.75,-37 157.75,-56.25"/>
<text xml:space="preserve" text-anchor="middle" x="78.88" y="-42.75" font-family="Helvetica,sans-Serif" font-size="10.00">ImFusion::Dicom::ErrorRecorder</text>
</a>
</g>
</g>
<!-- Node4&#45;&gt;Node2 -->
<g id="edge3_Node000002_Node000004" class="edge">
<title>Node4&#45;&gt;Node2</title>
<g id="a_edge3_Node000002_Node000004"><a xlink:title=" ">
<path fill="none" stroke="#63b8ff" d="M169.38,-46.62C177.44,-46.62 185.56,-46.62 193.53,-46.62"/>
<polygon fill="#63b8ff" stroke="#63b8ff" points="169.56,-43.13 159.56,-46.63 169.56,-50.13 169.56,-43.13"/>
</a>
</g>
</g>
<!-- Node5 -->
<g id="Node000005" class="node">
<title>Node5</title>
<g id="a_Node000005"><a xlink:href="class_im_fusion_1_1_utils_1_1_not_copyable.html" target="_top" xlink:title="Inherit from this class if your class should be neither copy&#45;constructible nor assignable.">
<polygon fill="white" stroke="#666666" points="151.75,-19.25 6,-19.25 6,0 151.75,0 151.75,-19.25"/>
<text xml:space="preserve" text-anchor="middle" x="78.88" y="-5.75" font-family="Helvetica,sans-Serif" font-size="10.00">ImFusion::Utils::NotCopyable</text>
</a>
</g>
</g>
<!-- Node5&#45;&gt;Node2 -->
<g id="edge4_Node000002_Node000005" class="edge">
<title>Node5&#45;&gt;Node2</title>
<g id="a_edge4_Node000002_Node000005"><a xlink:title=" ">
<path fill="none" stroke="#63b8ff" d="M143.71,-21.87C168.48,-26.62 196.52,-32 220.11,-36.53"/>
<polygon fill="#63b8ff" stroke="#63b8ff" points="144.55,-18.47 134.07,-20.02 143.23,-25.34 144.55,-18.47"/>
</a>
</g>
</g>
<!-- Node6 -->
<g id="Node000006" class="node">
<title>Node6</title>
<g id="a_Node000006"><a xlink:href="class_im_fusion_1_1_dicom_1_1_module_list.html" target="_top" xlink:title="Interface for classes that consist of modules.">
<polygon fill="white" stroke="#666666" points="345.88,-19.25 201.62,-19.25 201.62,0 345.88,0 345.88,-19.25"/>
<text xml:space="preserve" text-anchor="middle" x="273.75" y="-5.75" font-family="Helvetica,sans-Serif" font-size="10.00">ImFusion::Dicom::ModuleList</text>
</a>
</g>
</g>
<!-- Node6&#45;&gt;Node1 -->
<g id="edge5_Node000001_Node000006" class="edge">
<title>Node6&#45;&gt;Node1</title>
<g id="a_edge5_Node000001_Node000006"><a xlink:title=" ">
<path fill="none" stroke="#63b8ff" d="M357.65,-17.3C368.22,-18.28 379.02,-19.28 389.53,-20.25"/>
<polygon fill="#63b8ff" stroke="#63b8ff" points="358.09,-13.83 347.81,-16.39 357.44,-20.8 358.09,-13.83"/>
</a>
</g>
</g>
</g>
</svg>
