<?xml version="1.0" encoding="UTF-8" standalone="no"?>
<!DOCTYPE svg PUBLIC "-//W3C//DTD SVG 1.1//EN"
 "http://www.w3.org/Graphics/SVG/1.1/DTD/svg11.dtd">
<!-- Generated by graphviz version 14.1.4 (20260321.0153)
 -->
<!-- Title: ImFusion::GlTree Pages: 1 -->
<svg width="340pt" height="304pt"
 viewBox="0.00 0.00 340.00 304.00" xmlns="http://www.w3.org/2000/svg" xmlns:xlink="http://www.w3.org/1999/xlink">

<svg id="main" version="1.1" xmlns="http://www.w3.org/2000/svg" xmlns:xlink="http://www.w3.org/1999/xlink" xml:space="preserve">

<style type="text/css"><![CDATA[
.node, .edge {opacity: 0.7;}
.node.selected, .edge.selected {opacity: 1;}
.edge:hover path { stroke: red; }
.edge:hover polygon { stroke: red; fill: red; }
]]></style>
<script type="application/ecmascript" xlink:href="svg.min.js"/>
<svg id="graph" class="graph">
<g id="graph0" class="graph" transform="scale(1 1) rotate(0) translate(4 299.5)">
<title>ImFusion::GlTree</title>
<!-- Node1 -->
<g id="Node000001" class="node">
<title>Node1</title>
<g id="a_Node000001"><a xlink:title="Point tree annotation.">
<polygon fill="#999999" stroke="#666666" points="243.5,-74.5 151.75,-74.5 151.75,-55.25 243.5,-55.25 243.5,-74.5"/>
<text xml:space="preserve" text-anchor="middle" x="197.62" y="-61" font-family="Helvetica,sans-Serif" font-size="10.00">ImFusion::GlTree</text>
</a>
</g>
</g>
<!-- Node8 -->
<g id="Node000008" class="node">
<title>Node8</title>
<g id="a_Node000008"><a xlink:href="class_im_fusion_1_1_gl_point_tree.html" target="_top" xlink:title="Point tree annotation.">
<polygon fill="white" stroke="#666666" points="254.75,-19.25 140.5,-19.25 140.5,0 254.75,0 254.75,-19.25"/>
<text xml:space="preserve" text-anchor="middle" x="197.62" y="-5.75" font-family="Helvetica,sans-Serif" font-size="10.00">ImFusion::GlPointTree</text>
</a>
</g>
</g>
<!-- Node1&#45;&gt;Node8 -->
<g id="edge7_Node000001_Node000008" class="edge">
<title>Node1&#45;&gt;Node8</title>
<g id="a_edge7_Node000001_Node000008"><a xlink:title=" ">
<path fill="none" stroke="#63b8ff" d="M197.62,-43.63C197.62,-35.34 197.62,-26.17 197.62,-19.61"/>
<polygon fill="#63b8ff" stroke="#63b8ff" points="194.13,-43.57 197.63,-53.57 201.13,-43.57 194.13,-43.57"/>
</a>
</g>
</g>
<!-- Node2 -->
<g id="Node000002" class="node">
<title>Node2</title>
<g id="a_Node000002"><a xlink:href="class_im_fusion_1_1_gl3_d_object.html" target="_top" xlink:title="Abstract base class for 3D objects for which a center and an extent (i.e. a bounding box) can be spec...">
<polygon fill="white" stroke="#666666" points="185.38,-129.75 71.88,-129.75 71.88,-110.5 185.38,-110.5 185.38,-129.75"/>
<text xml:space="preserve" text-anchor="middle" x="128.62" y="-116.25" font-family="Helvetica,sans-Serif" font-size="10.00">ImFusion::Gl3DObject</text>
</a>
</g>
</g>
<!-- Node2&#45;&gt;Node1 -->
<g id="edge1_Node000001_Node000002" class="edge">
<title>Node2&#45;&gt;Node1</title>
<g id="a_edge1_Node000001_Node000002"><a xlink:title=" ">
<path fill="none" stroke="#63b8ff" d="M149.27,-103.19C161.32,-93.89 176.07,-82.51 186.09,-74.77"/>
<polygon fill="#63b8ff" stroke="#63b8ff" points="147.31,-100.29 141.53,-109.17 151.58,-105.83 147.31,-100.29"/>
</a>
</g>
</g>
<!-- Node3 -->
<g id="Node000003" class="node">
<title>Node3</title>
<g id="a_Node000003"><a xlink:href="class_im_fusion_1_1_gl_annotation.html" target="_top" xlink:title="Base class for implementing annotations.">
<polygon fill="white" stroke="#666666" points="188,-185 69.25,-185 69.25,-165.75 188,-165.75 188,-185"/>
<text xml:space="preserve" text-anchor="middle" x="128.62" y="-171.5" font-family="Helvetica,sans-Serif" font-size="10.00">ImFusion::GlAnnotation</text>
</a>
</g>
</g>
<!-- Node3&#45;&gt;Node2 -->
<g id="edge2_Node000002_Node000003" class="edge">
<title>Node3&#45;&gt;Node2</title>
<g id="a_edge2_Node000002_Node000003"><a xlink:title=" ">
<path fill="none" stroke="#63b8ff" d="M128.62,-154.13C128.62,-145.84 128.62,-136.67 128.62,-130.11"/>
<polygon fill="#63b8ff" stroke="#63b8ff" points="125.13,-154.07 128.63,-164.07 132.13,-154.07 125.13,-154.07"/>
</a>
</g>
</g>
<!-- Node4 -->
<g id="Node000004" class="node">
<title>Node4</title>
<g id="a_Node000004"><a xlink:href="class_im_fusion_1_1_gl_object.html" target="_top" xlink:title="Abstract base class for an renderable OpenGL object that can be hosted in a GlView.">
<polygon fill="white" stroke="#666666" points="109,-240.25 8.25,-240.25 8.25,-221 109,-221 109,-240.25"/>
<text xml:space="preserve" text-anchor="middle" x="58.62" y="-226.75" font-family="Helvetica,sans-Serif" font-size="10.00">ImFusion::GlObject</text>
</a>
</g>
</g>
<!-- Node4&#45;&gt;Node3 -->
<g id="edge3_Node000003_Node000004" class="edge">
<title>Node4&#45;&gt;Node3</title>
<g id="a_edge3_Node000003_Node000004"><a xlink:title=" ">
<path fill="none" stroke="#63b8ff" d="M79.57,-213.69C91.8,-204.39 106.76,-193.01 116.93,-185.27"/>
<polygon fill="#63b8ff" stroke="#63b8ff" points="77.54,-210.84 71.7,-219.68 81.78,-216.41 77.54,-210.84"/>
</a>
</g>
</g>
<!-- Node5 -->
<g id="Node000005" class="node">
<title>Node5</title>
<g id="a_Node000005"><a xlink:href="class_im_fusion_1_1_configurable.html" target="_top" xlink:title="Base interface for classes that support object serialization from/to Properties objects.">
<polygon fill="white" stroke="#666666" points="117.25,-295.5 0,-295.5 0,-276.25 117.25,-276.25 117.25,-295.5"/>
<text xml:space="preserve" text-anchor="middle" x="58.62" y="-282" font-family="Helvetica,sans-Serif" font-size="10.00">ImFusion::Configurable</text>
</a>
</g>
</g>
<!-- Node5&#45;&gt;Node4 -->
<g id="edge4_Node000004_Node000005" class="edge">
<title>Node5&#45;&gt;Node4</title>
<g id="a_edge4_Node000004_Node000005"><a xlink:title=" ">
<path fill="none" stroke="#63b8ff" d="M58.62,-264.63C58.62,-256.34 58.62,-247.17 58.62,-240.61"/>
<polygon fill="#63b8ff" stroke="#63b8ff" points="55.13,-264.57 58.63,-274.57 62.13,-264.57 55.13,-264.57"/>
</a>
</g>
</g>
<!-- Node6 -->
<g id="Node000006" class="node">
<title>Node6</title>
<g id="a_Node000006"><a xlink:href="class_im_fusion_1_1_utils_1_1_not_copyable.html" target="_top" xlink:title="Inherit from this class if your class should be neither copy&#45;constructible nor assignable.">
<polygon fill="white" stroke="#666666" points="272.5,-240.25 126.75,-240.25 126.75,-221 272.5,-221 272.5,-240.25"/>
<text xml:space="preserve" text-anchor="middle" x="199.62" y="-226.75" font-family="Helvetica,sans-Serif" font-size="10.00">ImFusion::Utils::NotCopyable</text>
</a>
</g>
</g>
<!-- Node6&#45;&gt;Node3 -->
<g id="edge5_Node000003_Node000006" class="edge">
<title>Node6&#45;&gt;Node3</title>
<g id="a_edge5_Node000003_Node000006"><a xlink:title=" ">
<path fill="none" stroke="#8b1a1a" d="M178.38,-213.69C165.98,-204.39 150.8,-193.01 140.49,-185.27"/>
<polygon fill="#8b1a1a" stroke="#8b1a1a" points="176.27,-216.48 186.37,-219.68 180.47,-210.88 176.27,-216.48"/>
</a>
</g>
</g>
<!-- Node7 -->
<g id="Node000007" class="node">
<title>Node7</title>
<g id="a_Node000007"><a xlink:href="class_im_fusion_1_1_signal_receiver.html" target="_top" xlink:title="Base class for classes that can contain slots (i.e.">
<polygon fill="white" stroke="#666666" points="331.88,-129.75 203.38,-129.75 203.38,-110.5 331.88,-110.5 331.88,-129.75"/>
<text xml:space="preserve" text-anchor="middle" x="267.62" y="-116.25" font-family="Helvetica,sans-Serif" font-size="10.00">ImFusion::SignalReceiver</text>
</a>
</g>
</g>
<!-- Node7&#45;&gt;Node1 -->
<g id="edge6_Node000001_Node000007" class="edge">
<title>Node7&#45;&gt;Node1</title>
<g id="a_edge6_Node000001_Node000007"><a xlink:title=" ">
<path fill="none" stroke="#63b8ff" d="M246.68,-103.19C234.45,-93.89 219.49,-82.51 209.32,-74.77"/>
<polygon fill="#63b8ff" stroke="#63b8ff" points="244.47,-105.91 254.55,-109.18 248.71,-100.34 244.47,-105.91"/>
</a>
</g>
</g>
</g>
</svg>
</svg>

<style type='text/css'>
<![CDATA[
[data-mouse-over-selected='false'] { opacity: 0.7; }
[data-mouse-over-selected='true']  { opacity: 1.0; }
]]>
</style>
<script type="application/ecmascript"><![CDATA[
document.addEventListener('DOMContentLoaded', (event) => {
  highlightEdges();
  highlightAdjacentNodes();
});
]]></script>
</svg>
