<?xml version="1.0" encoding="UTF-8" standalone="no"?>
<!DOCTYPE svg PUBLIC "-//W3C//DTD SVG 1.1//EN"
 "http://www.w3.org/Graphics/SVG/1.1/DTD/svg11.dtd">
<!-- Generated by graphviz version 14.1.4 (20260321.0153)
 -->
<!-- Title: ImFusion::NrrdIoAlgorithm Pages: 1 -->
<svg width="290pt" height="193pt"
 viewBox="0.00 0.00 290.00 193.00" xmlns="http://www.w3.org/2000/svg" xmlns:xlink="http://www.w3.org/1999/xlink">
<g id="graph0" class="graph" transform="scale(1 1) rotate(0) translate(4 189)">
<title>ImFusion::NrrdIoAlgorithm</title>
<!-- Node1 -->
<g id="Node000001" class="node">
<title>Node1</title>
<g id="a_Node000001"><a xlink:title="Algorithm for reading NRRD images.">
<polygon fill="#999999" stroke="#666666" points="199,-19.25 68.25,-19.25 68.25,0 199,0 199,-19.25"/>
<text xml:space="preserve" text-anchor="middle" x="133.62" y="-5.75" font-family="Helvetica,sans-Serif" font-size="10.00">ImFusion::NrrdIoAlgorithm</text>
</a>
</g>
</g>
<!-- Node2 -->
<g id="Node000002" class="node">
<title>Node2</title>
<g id="a_Node000002"><a xlink:href="class_im_fusion_1_1_io_algorithm.html" target="_top" xlink:title="Interface for describing IO algorithms.">
<polygon fill="white" stroke="#666666" points="189.62,-74.5 77.62,-74.5 77.62,-55.25 189.62,-55.25 189.62,-74.5"/>
<text xml:space="preserve" text-anchor="middle" x="133.62" y="-61" font-family="Helvetica,sans-Serif" font-size="10.00">ImFusion::IoAlgorithm</text>
</a>
</g>
</g>
<!-- Node2&#45;&gt;Node1 -->
<g id="edge1_Node000001_Node000002" class="edge">
<title>Node2&#45;&gt;Node1</title>
<g id="a_edge1_Node000001_Node000002"><a xlink:title=" ">
<path fill="none" stroke="#63b8ff" d="M133.62,-43.63C133.62,-35.34 133.62,-26.17 133.62,-19.61"/>
<polygon fill="#63b8ff" stroke="#63b8ff" points="130.13,-43.57 133.63,-53.57 137.13,-43.57 130.13,-43.57"/>
</a>
</g>
</g>
<!-- Node3 -->
<g id="Node000003" class="node">
<title>Node3</title>
<g id="a_Node000003"><a xlink:href="class_im_fusion_1_1_algorithm.html" target="_top" xlink:title="Interface for describing algorithms that can be made available in the ImFusion Suite through Algorith...">
<polygon fill="white" stroke="#666666" points="185.5,-129.75 81.75,-129.75 81.75,-110.5 185.5,-110.5 185.5,-129.75"/>
<text xml:space="preserve" text-anchor="middle" x="133.62" y="-116.25" font-family="Helvetica,sans-Serif" font-size="10.00">ImFusion::Algorithm</text>
</a>
</g>
</g>
<!-- Node3&#45;&gt;Node2 -->
<g id="edge2_Node000002_Node000003" class="edge">
<title>Node3&#45;&gt;Node2</title>
<g id="a_edge2_Node000002_Node000003"><a xlink:title=" ">
<path fill="none" stroke="#63b8ff" d="M133.62,-98.88C133.62,-90.59 133.62,-81.42 133.62,-74.86"/>
<polygon fill="#63b8ff" stroke="#63b8ff" points="130.13,-98.82 133.63,-108.82 137.13,-98.82 130.13,-98.82"/>
</a>
</g>
</g>
<!-- Node4 -->
<g id="Node000004" class="node">
<title>Node4</title>
<g id="a_Node000004"><a xlink:href="class_im_fusion_1_1_configurable.html" target="_top" xlink:title="Base interface for classes that support object serialization from/to Properties objects.">
<polygon fill="white" stroke="#666666" points="117.25,-185 0,-185 0,-165.75 117.25,-165.75 117.25,-185"/>
<text xml:space="preserve" text-anchor="middle" x="58.62" y="-171.5" font-family="Helvetica,sans-Serif" font-size="10.00">ImFusion::Configurable</text>
</a>
</g>
</g>
<!-- Node4&#45;&gt;Node3 -->
<g id="edge3_Node000003_Node000004" class="edge">
<title>Node4&#45;&gt;Node3</title>
<g id="a_edge3_Node000003_Node000004"><a xlink:title=" ">
<path fill="none" stroke="#63b8ff" d="M80.62,-158.76C93.7,-149.47 109.83,-138.02 120.84,-130.2"/>
<polygon fill="#63b8ff" stroke="#63b8ff" points="78.71,-155.82 72.58,-164.47 82.76,-161.53 78.71,-155.82"/>
</a>
</g>
</g>
<!-- Node5 -->
<g id="Node000005" class="node">
<title>Node5</title>
<g id="a_Node000005"><a xlink:href="class_im_fusion_1_1_utils_1_1_not_copyable.html" target="_top" xlink:title="Inherit from this class if your class should be neither copy&#45;constructible nor assignable.">
<polygon fill="white" stroke="#666666" points="281.5,-185 135.75,-185 135.75,-165.75 281.5,-165.75 281.5,-185"/>
<text xml:space="preserve" text-anchor="middle" x="208.62" y="-171.5" font-family="Helvetica,sans-Serif" font-size="10.00">ImFusion::Utils::NotCopyable</text>
</a>
</g>
</g>
<!-- Node5&#45;&gt;Node3 -->
<g id="edge4_Node000003_Node000005" class="edge">
<title>Node5&#45;&gt;Node3</title>
<g id="a_edge4_Node000003_Node000005"><a xlink:title=" ">
<path fill="none" stroke="#8b1a1a" d="M186.63,-158.76C173.55,-149.47 157.42,-138.02 146.41,-130.2"/>
<polygon fill="#8b1a1a" stroke="#8b1a1a" points="184.49,-161.53 194.67,-164.47 188.54,-155.82 184.49,-161.53"/>
</a>
</g>
</g>
</g>
</svg>
