<?xml version="1.0" encoding="UTF-8" standalone="no"?>
<!DOCTYPE svg PUBLIC "-//W3C//DTD SVG 1.1//EN"
 "http://www.w3.org/Graphics/SVG/1.1/DTD/svg11.dtd">
<!-- Generated by graphviz version 14.1.4 (20260321.0153)
 -->
<!-- Title: ImFusion::Seg::SegmentedStructure Pages: 1 -->
<svg width="392pt" height="172pt"
 viewBox="0.00 0.00 392.00 172.00" xmlns="http://www.w3.org/2000/svg" xmlns:xlink="http://www.w3.org/1999/xlink">
<g id="graph0" class="graph" transform="scale(1 1) rotate(0) translate(4 167.5)">
<title>ImFusion::Seg::SegmentedStructure</title>
<!-- Node1 -->
<g id="Node000001" class="node">
<title>Node1</title>
<g id="a_Node000001"><a xlink:title="Interface class that offers methods to obtain measuring markers on a segmented object.">
<polygon fill="#999999" stroke="#666666" points="226,-163.5 90.75,-163.5 90.75,-133 226,-133 226,-163.5"/>
<text xml:space="preserve" text-anchor="start" x="98.75" y="-150" font-family="Helvetica,sans-Serif" font-size="10.00">ImFusion::Seg::Segmented</text>
<text xml:space="preserve" text-anchor="middle" x="158.38" y="-138.75" font-family="Helvetica,sans-Serif" font-size="10.00">Structure</text>
</a>
</g>
</g>
<!-- Node2 -->
<g id="Node000002" class="node">
<title>Node2</title>
<g id="a_Node000002"><a xlink:href="class_im_fusion_1_1_seg_1_1_segmented_blob.html" target="_top" xlink:title=" ">
<polygon fill="white" stroke="#bfbfbf" points="154.75,-91.38 0,-91.38 0,-72.12 154.75,-72.12 154.75,-91.38"/>
<text xml:space="preserve" text-anchor="middle" x="77.38" y="-77.88" font-family="Helvetica,sans-Serif" font-size="10.00">ImFusion::Seg::SegmentedBlob</text>
</a>
</g>
</g>
<!-- Node1&#45;&gt;Node2 -->
<g id="edge1_Node000001_Node000002" class="edge">
<title>Node1&#45;&gt;Node2</title>
<g id="a_edge1_Node000001_Node000002"><a xlink:title=" ">
<path fill="none" stroke="#63b8ff" d="M131.31,-125.7C116.69,-114.06 99.44,-100.32 88.45,-91.57"/>
<polygon fill="#63b8ff" stroke="#63b8ff" points="128.81,-128.18 138.81,-131.67 133.17,-122.7 128.81,-128.18"/>
</a>
</g>
</g>
<!-- Node3 -->
<g id="Node000003" class="node">
<title>Node3</title>
<g id="a_Node000003"><a xlink:href="class_im_fusion_1_1_seg_1_1_segmented_structure_with_reference.html" target="_top" xlink:title=" ">
<polygon fill="white" stroke="#bfbfbf" points="308,-97 172.75,-97 172.75,-66.5 308,-66.5 308,-97"/>
<text xml:space="preserve" text-anchor="start" x="180.75" y="-83.5" font-family="Helvetica,sans-Serif" font-size="10.00">ImFusion::Seg::Segmented</text>
<text xml:space="preserve" text-anchor="middle" x="240.38" y="-72.25" font-family="Helvetica,sans-Serif" font-size="10.00">StructureWithReference</text>
</a>
</g>
</g>
<!-- Node1&#45;&gt;Node3 -->
<g id="edge2_Node000001_Node000003" class="edge">
<title>Node1&#45;&gt;Node3</title>
<g id="a_edge2_Node000001_Node000003"><a xlink:title=" ">
<path fill="none" stroke="#63b8ff" d="M186,-125.52C197.8,-116.23 211.27,-105.65 221.84,-97.33"/>
<polygon fill="#63b8ff" stroke="#63b8ff" points="183.87,-122.74 178.17,-131.68 188.2,-128.25 183.87,-122.74"/>
</a>
</g>
</g>
<!-- Node4 -->
<g id="Node000004" class="node">
<title>Node4</title>
<g id="a_Node000004"><a xlink:href="class_im_fusion_1_1_seg_1_1_segmented_ellipse_structure.html" target="_top" xlink:title=" ">
<polygon fill="white" stroke="#bfbfbf" points="231,-30.5 95.75,-30.5 95.75,0 231,0 231,-30.5"/>
<text xml:space="preserve" text-anchor="start" x="103.75" y="-17" font-family="Helvetica,sans-Serif" font-size="10.00">ImFusion::Seg::Segmented</text>
<text xml:space="preserve" text-anchor="middle" x="163.38" y="-5.75" font-family="Helvetica,sans-Serif" font-size="10.00">EllipseStructure</text>
</a>
</g>
</g>
<!-- Node3&#45;&gt;Node4 -->
<g id="edge3_Node000003_Node000004" class="edge">
<title>Node3&#45;&gt;Node4</title>
<g id="a_edge3_Node000003_Node000004"><a xlink:title=" ">
<path fill="none" stroke="#63b8ff" d="M214.1,-58.74C203.1,-49.53 190.61,-39.06 180.78,-30.83"/>
<polygon fill="#63b8ff" stroke="#63b8ff" points="211.83,-61.4 221.74,-65.14 216.32,-56.04 211.83,-61.4"/>
</a>
</g>
</g>
<!-- Node5 -->
<g id="Node000005" class="node">
<title>Node5</title>
<g id="a_Node000005"><a xlink:href="class_im_fusion_1_1_seg_1_1_segmented_line2_d_structure.html" target="_top" xlink:title=" ">
<polygon fill="white" stroke="#bfbfbf" points="384,-30.5 248.75,-30.5 248.75,0 384,0 384,-30.5"/>
<text xml:space="preserve" text-anchor="start" x="256.75" y="-17" font-family="Helvetica,sans-Serif" font-size="10.00">ImFusion::Seg::Segmented</text>
<text xml:space="preserve" text-anchor="middle" x="316.38" y="-5.75" font-family="Helvetica,sans-Serif" font-size="10.00">Line2DStructure</text>
</a>
</g>
</g>
<!-- Node3&#45;&gt;Node5 -->
<g id="edge4_Node000003_Node000005" class="edge">
<title>Node3&#45;&gt;Node5</title>
<g id="a_edge4_Node000003_Node000005"><a xlink:title=" ">
<path fill="none" stroke="#63b8ff" d="M266.31,-58.74C277.17,-49.53 289.49,-39.06 299.2,-30.83"/>
<polygon fill="#63b8ff" stroke="#63b8ff" points="264.13,-56 258.77,-65.13 268.66,-61.33 264.13,-56"/>
</a>
</g>
</g>
</g>
</svg>
