<?xml version="1.0" encoding="UTF-8" standalone="no"?>
<!DOCTYPE svg PUBLIC "-//W3C//DTD SVG 1.1//EN"
 "http://www.w3.org/Graphics/SVG/1.1/DTD/svg11.dtd">
<!-- Generated by graphviz version 14.1.4 (20260321.0153)
 -->
<!-- Title: ImFusion::Dicom::ElementBase Pages: 1 -->
<!--zoomable 915 -->

<svg id="main" version="1.1" xmlns="http://www.w3.org/2000/svg" xmlns:xlink="http://www.w3.org/1999/xlink" xml:space="preserve" onload="init(evt)">

<style type="text/css"><![CDATA[
.node, .edge {opacity: 0.7;}
.node.selected, .edge.selected {opacity: 1;}
.edge:hover path { stroke: red; }
.edge:hover polygon { stroke: red; fill: red; }
]]></style>

<defs>
  <circle id="rim" cx="0" cy="0" r="7"/>
  <circle id="rim2" cx="0" cy="0" r="3.5"/>
  <g id="zoomPlus">
    <use xlink:href="#rim" fill="#404040"><set attributeName="fill" to="#808080" begin="zoomplus.mouseover" end="zoomplus.mouseout"/></use>
    <path d="M-4,0h8M0,-4v8" fill="none" stroke="white" stroke-width="1.5" pointer-events="none"/>
  </g>
  <g id="zoomMin">
    <use xlink:href="#rim" fill="#404040"><set attributeName="fill" to="#808080" begin="zoomminus.mouseover" end="zoomminus.mouseout"/></use>
    <path d="M-4,0h8" fill="none" stroke="white" stroke-width="1.5" pointer-events="none"/>
  </g>
  <g id="arrowUp" transform="translate(30 24)">
    <use xlink:href="#rim"/>
    <path pointer-events="none" fill="none" stroke="white" stroke-width="1.5" d="M0,-3.0v7 M-2.5,-0.5L0,-3.0L2.5,-0.5"/>
  </g>
  <g id="arrowRight" transform="rotate(90) translate(36 -43)">
    <use xlink:href="#rim"/>
    <path pointer-events="none" fill="none" stroke="white" stroke-width="1.5" d="M0,-3.0v7 M-2.5,-0.5L0,-3.0L2.5,-0.5"/>
  </g>
  <g id="arrowDown" transform="rotate(180) translate(-30 -48)">
    <use xlink:href="#rim"/>
    <path pointer-events="none" fill="none" stroke="white" stroke-width="1.5" d="M0,-3.0v7 M-2.5,-0.5L0,-3.0L2.5,-0.5"/>
  </g>
  <g id="arrowLeft" transform="rotate(270) translate(-36 17)">
    <use xlink:href="#rim"/>
    <path pointer-events="none" fill="none" stroke="white" stroke-width="1.5" d="M0,-3.0v7 M-2.5,-0.5L0,-3.0L2.5,-0.5"/>
  </g>
  <g id="resetDef">
    <use xlink:href="#rim2" fill="#404040"><set attributeName="fill" to="#808080" begin="reset.mouseover" end="reset.mouseout"/></use>
  </g>
</defs>
<script type="application/ecmascript">
var viewWidth = 1005;
var viewHeight = 915;
var sectionId = 'dynsection-0';
</script>
<script type="application/ecmascript" xlink:href="svg.min.js"/>
<svg id="graph" class="graph">
<g id="viewport">
<title>ImFusion::Dicom::ElementBase</title>
<!-- Node1 -->
<g id="Node000001" class="node">
<title>Node1</title>
<g id="a_Node000001"><a xlink:title="Abstract base class for DICOM Elements.">
<polygon fill="#999999" stroke="#666666" points="337.25,-581.88 181.75,-581.88 181.75,-562.62 337.25,-562.62 337.25,-581.88"/>
<text xml:space="preserve" text-anchor="middle" x="259.5" y="-568.38" font-family="Helvetica,sans-Serif" font-size="10.00">ImFusion::Dicom::ElementBase</text>
</a>
</g>
</g>
<!-- Node3 -->
<g id="Node000003" class="node">
<title>Node3</title>
<g id="a_Node000003"><a xlink:href="class_im_fusion_1_1_dicom_1_1_element.html" target="_top" xlink:title=" ">
<polygon fill="white" stroke="#666666" points="521.25,-906.5 388.25,-906.5 388.25,-876 521.25,-876 521.25,-906.5"/>
<text xml:space="preserve" text-anchor="start" x="396.25" y="-893" font-family="Helvetica,sans-Serif" font-size="10.00">ImFusion::Dicom::Element</text>
<text xml:space="preserve" text-anchor="middle" x="454.75" y="-881.75" font-family="Helvetica,sans-Serif" font-size="10.00">&lt; std::string &gt;</text>
</a>
</g>
</g>
<!-- Node1&#45;&gt;Node3 -->
<g id="edge2_Node000001_Node000003" class="edge">
<title>Node1&#45;&gt;Node3</title>
<g id="a_edge2_Node000001_Node000003"><a xlink:title=" ">
<path fill="none" stroke="#63b8ff" d="M262.4,-593.44C268.35,-647.11 291.45,-789.61 373.25,-866.25 377.63,-870.35 382.67,-873.78 388.05,-876.65"/>
<polygon fill="#63b8ff" stroke="#63b8ff" points="265.92,-593.42 261.43,-583.82 258.95,-594.13 265.92,-593.42"/>
</a>
</g>
</g>
<!-- Node4 -->
<g id="Node000004" class="node">
<title>Node4</title>
<g id="a_Node000004"><a xlink:href="class_im_fusion_1_1_dicom_1_1_element.html" target="_top" xlink:title=" ">
<polygon fill="white" stroke="#666666" points="521.25,-857.5 388.25,-857.5 388.25,-827 521.25,-827 521.25,-857.5"/>
<text xml:space="preserve" text-anchor="start" x="396.25" y="-844" font-family="Helvetica,sans-Serif" font-size="10.00">ImFusion::Dicom::Element</text>
<text xml:space="preserve" text-anchor="middle" x="454.75" y="-832.75" font-family="Helvetica,sans-Serif" font-size="10.00">&lt; Data::Modality &gt;</text>
</a>
</g>
</g>
<!-- Node1&#45;&gt;Node4 -->
<g id="edge3_Node000001_Node000004" class="edge">
<title>Node1&#45;&gt;Node4</title>
<g id="a_edge3_Node000001_Node000004"><a xlink:title=" ">
<path fill="none" stroke="#63b8ff" d="M264.2,-593.32C273.6,-640.52 302.81,-755.43 373.25,-817.25 377.65,-821.11 382.64,-824.38 387.93,-827.14"/>
<polygon fill="#63b8ff" stroke="#63b8ff" points="267.67,-592.81 262.38,-583.62 260.79,-594.1 267.67,-592.81"/>
</a>
</g>
</g>
<!-- Node5 -->
<g id="Node000005" class="node">
<title>Node5</title>
<g id="a_Node000005"><a xlink:href="class_im_fusion_1_1_dicom_1_1_element.html" target="_top" xlink:title=" ">
<polygon fill="white" stroke="#666666" points="521.25,-808.5 388.25,-808.5 388.25,-778 521.25,-778 521.25,-808.5"/>
<text xml:space="preserve" text-anchor="start" x="396.25" y="-795" font-family="Helvetica,sans-Serif" font-size="10.00">ImFusion::Dicom::Element</text>
<text xml:space="preserve" text-anchor="middle" x="454.75" y="-783.75" font-family="Helvetica,sans-Serif" font-size="10.00">&lt; int &gt;</text>
</a>
</g>
</g>
<!-- Node1&#45;&gt;Node5 -->
<g id="edge4_Node000001_Node000005" class="edge">
<title>Node1&#45;&gt;Node5</title>
<g id="a_edge4_Node000001_Node000005"><a xlink:title=" ">
<path fill="none" stroke="#63b8ff" d="M266.69,-592.84C279.72,-632.7 313.81,-720.68 373.25,-768.25 377.71,-771.82 382.67,-774.88 387.89,-777.5"/>
<polygon fill="#63b8ff" stroke="#63b8ff" points="270.11,-592.04 263.77,-583.55 263.43,-594.14 270.11,-592.04"/>
</a>
</g>
</g>
<!-- Node6 -->
<g id="Node000006" class="node">
<title>Node6</title>
<g id="a_Node000006"><a xlink:href="class_im_fusion_1_1_dicom_1_1_element.html" target="_top" xlink:title=" ">
<polygon fill="white" stroke="#666666" points="525.75,-759.5 383.75,-759.5 383.75,-729 525.75,-729 525.75,-759.5"/>
<text xml:space="preserve" text-anchor="start" x="391.75" y="-746" font-family="Helvetica,sans-Serif" font-size="10.00">ImFusion::Dicom::Element</text>
<text xml:space="preserve" text-anchor="middle" x="454.75" y="-734.75" font-family="Helvetica,sans-Serif" font-size="10.00">&lt; std::vector&lt; std::string &gt; &gt;</text>
</a>
</g>
</g>
<!-- Node1&#45;&gt;Node6 -->
<g id="edge5_Node000001_Node000006" class="edge">
<title>Node1&#45;&gt;Node6</title>
<g id="a_edge5_Node000001_Node000006"><a xlink:title=" ">
<path fill="none" stroke="#63b8ff" d="M270.4,-591.96C287.23,-623.49 324.39,-685.19 373.25,-719.25 378.41,-722.85 384.11,-725.94 390.02,-728.6"/>
<polygon fill="#63b8ff" stroke="#63b8ff" points="273.72,-590.77 266.01,-583.5 267.51,-593.99 273.72,-590.77"/>
</a>
</g>
</g>
<!-- Node7 -->
<g id="Node000007" class="node">
<title>Node7</title>
<g id="a_Node000007"><a xlink:href="class_im_fusion_1_1_dicom_1_1_element.html" target="_top" xlink:title=" ">
<polygon fill="white" stroke="#666666" points="521.25,-710.5 388.25,-710.5 388.25,-680 521.25,-680 521.25,-710.5"/>
<text xml:space="preserve" text-anchor="start" x="396.25" y="-697" font-family="Helvetica,sans-Serif" font-size="10.00">ImFusion::Dicom::Element</text>
<text xml:space="preserve" text-anchor="middle" x="454.75" y="-685.75" font-family="Helvetica,sans-Serif" font-size="10.00">&lt; double &gt;</text>
</a>
</g>
</g>
<!-- Node1&#45;&gt;Node7 -->
<g id="edge6_Node000001_Node000007" class="edge">
<title>Node1&#45;&gt;Node7</title>
<g id="a_edge6_Node000001_Node000007"><a xlink:title=" ">
<path fill="none" stroke="#63b8ff" d="M276.86,-590.49C297.38,-612.35 334.59,-648.71 373.25,-670.25 379.64,-673.81 386.61,-676.94 393.68,-679.66"/>
<polygon fill="#63b8ff" stroke="#63b8ff" points="279.5,-588.2 270.15,-583.21 274.35,-592.94 279.5,-588.2"/>
</a>
</g>
</g>
<!-- Node8 -->
<g id="Node000008" class="node">
<title>Node8</title>
<g id="a_Node000008"><a xlink:href="class_im_fusion_1_1_dicom_1_1_element.html" target="_top" xlink:title=" ">
<polygon fill="white" stroke="#666666" points="521.25,-661.5 388.25,-661.5 388.25,-631 521.25,-631 521.25,-661.5"/>
<text xml:space="preserve" text-anchor="start" x="396.25" y="-648" font-family="Helvetica,sans-Serif" font-size="10.00">ImFusion::Dicom::Element</text>
<text xml:space="preserve" text-anchor="middle" x="454.75" y="-636.75" font-family="Helvetica,sans-Serif" font-size="10.00">&lt; std::vector&lt; int &gt; &gt;</text>
</a>
</g>
</g>
<!-- Node1&#45;&gt;Node8 -->
<g id="edge7_Node000001_Node000008" class="edge">
<title>Node1&#45;&gt;Node8</title>
<g id="a_edge7_Node000001_Node000008"><a xlink:title=" ">
<path fill="none" stroke="#63b8ff" d="M292.09,-587.08C314.49,-597.32 345.39,-610.91 373.25,-621.25 381.89,-624.46 391.16,-627.6 400.21,-630.52"/>
<polygon fill="#63b8ff" stroke="#63b8ff" points="293.75,-583.99 283.21,-582.98 290.82,-590.35 293.75,-583.99"/>
</a>
</g>
</g>
<!-- Node9 -->
<g id="Node000009" class="node">
<title>Node9</title>
<g id="a_Node000009"><a xlink:href="class_im_fusion_1_1_dicom_1_1_element.html" target="_top" xlink:title=" ">
<polygon fill="white" stroke="#666666" points="521.25,-612.5 388.25,-612.5 388.25,-582 521.25,-582 521.25,-612.5"/>
<text xml:space="preserve" text-anchor="start" x="396.25" y="-599" font-family="Helvetica,sans-Serif" font-size="10.00">ImFusion::Dicom::Element</text>
<text xml:space="preserve" text-anchor="middle" x="454.75" y="-587.75" font-family="Helvetica,sans-Serif" font-size="10.00">&lt; bool &gt;</text>
</a>
</g>
</g>
<!-- Node1&#45;&gt;Node9 -->
<g id="edge8_Node000001_Node000009" class="edge">
<title>Node1&#45;&gt;Node9</title>
<g id="a_edge8_Node000001_Node000009"><a xlink:title=" ">
<path fill="none" stroke="#63b8ff" d="M349.1,-583.71C362.14,-585.4 375.39,-587.11 387.86,-588.73"/>
<polygon fill="#63b8ff" stroke="#63b8ff" points="349.58,-580.24 339.21,-582.43 348.68,-587.19 349.58,-580.24"/>
</a>
</g>
</g>
<!-- Node10 -->
<g id="Node000010" class="node">
<title>Node10</title>
<g id="a_Node000010"><a xlink:href="class_im_fusion_1_1_dicom_1_1_element.html" target="_top" xlink:title=" ">
<polygon fill="white" stroke="#666666" points="526.5,-563.5 383,-563.5 383,-533 526.5,-533 526.5,-563.5"/>
<text xml:space="preserve" text-anchor="start" x="391" y="-550" font-family="Helvetica,sans-Serif" font-size="10.00">ImFusion::Dicom::Element</text>
<text xml:space="preserve" text-anchor="middle" x="454.75" y="-538.75" font-family="Helvetica,sans-Serif" font-size="10.00">&lt; PhotometricInterpretation &gt;</text>
</a>
</g>
</g>
<!-- Node1&#45;&gt;Node10 -->
<g id="edge9_Node000001_Node000010" class="edge">
<title>Node1&#45;&gt;Node10</title>
<g id="a_edge9_Node000001_Node000010"><a xlink:title=" ">
<path fill="none" stroke="#63b8ff" d="M348.92,-561.27C360.21,-559.87 371.65,-558.45 382.61,-557.08"/>
<polygon fill="#63b8ff" stroke="#63b8ff" points="348.71,-557.77 339.21,-562.47 349.57,-564.72 348.71,-557.77"/>
</a>
</g>
</g>
<!-- Node11 -->
<g id="Node000011" class="node">
<title>Node11</title>
<g id="a_Node000011"><a xlink:href="class_im_fusion_1_1_dicom_1_1_element.html" target="_top" xlink:title=" ">
<polygon fill="white" stroke="#666666" points="521.25,-514.5 388.25,-514.5 388.25,-484 521.25,-484 521.25,-514.5"/>
<text xml:space="preserve" text-anchor="start" x="396.25" y="-501" font-family="Helvetica,sans-Serif" font-size="10.00">ImFusion::Dicom::Element</text>
<text xml:space="preserve" text-anchor="middle" x="454.75" y="-489.75" font-family="Helvetica,sans-Serif" font-size="10.00">&lt; std::vector&lt; double &gt; &gt;</text>
</a>
</g>
</g>
<!-- Node1&#45;&gt;Node11 -->
<g id="edge10_Node000001_Node000011" class="edge">
<title>Node1&#45;&gt;Node11</title>
<g id="a_edge10_Node000001_Node000011"><a xlink:title=" ">
<path fill="none" stroke="#63b8ff" d="M292.54,-557.58C314.92,-547.59 345.62,-534.39 373.25,-524.25 382.04,-521.02 391.47,-517.85 400.67,-514.9"/>
<polygon fill="#63b8ff" stroke="#63b8ff" points="291.34,-554.29 283.65,-561.58 294.21,-560.67 291.34,-554.29"/>
</a>
</g>
</g>
<!-- Node12 -->
<g id="Node000012" class="node">
<title>Node12</title>
<g id="a_Node000012"><a xlink:href="class_im_fusion_1_1_dicom_1_1_element.html" target="_top" xlink:title=" ">
<polygon fill="white" stroke="#666666" points="521.25,-465.5 388.25,-465.5 388.25,-435 521.25,-435 521.25,-465.5"/>
<text xml:space="preserve" text-anchor="start" x="396.25" y="-452" font-family="Helvetica,sans-Serif" font-size="10.00">ImFusion::Dicom::Element</text>
<text xml:space="preserve" text-anchor="middle" x="454.75" y="-440.75" font-family="Helvetica,sans-Serif" font-size="10.00">&lt; DcmPixelData * &gt;</text>
</a>
</g>
</g>
<!-- Node1&#45;&gt;Node12 -->
<g id="edge11_Node000001_Node000012" class="edge">
<title>Node1&#45;&gt;Node12</title>
<g id="a_edge11_Node000001_Node000012"><a xlink:title=" ">
<path fill="none" stroke="#63b8ff" d="M277.21,-553.87C297.84,-532.21 334.91,-496.49 373.25,-475.25 379.65,-471.7 386.62,-468.59 393.7,-465.87"/>
<polygon fill="#63b8ff" stroke="#63b8ff" points="274.73,-551.4 270.46,-561.1 279.84,-556.18 274.73,-551.4"/>
</a>
</g>
</g>
<!-- Node13 -->
<g id="Node000013" class="node">
<title>Node13</title>
<g id="a_Node000013"><a xlink:href="class_im_fusion_1_1_dicom_1_1_element.html" target="_top" xlink:title=" ">
<polygon fill="white" stroke="#666666" points="521.25,-417.12 388.25,-417.12 388.25,-375.38 521.25,-375.38 521.25,-417.12"/>
<text xml:space="preserve" text-anchor="start" x="396.25" y="-403.62" font-family="Helvetica,sans-Serif" font-size="10.00">ImFusion::Dicom::Element</text>
<text xml:space="preserve" text-anchor="start" x="396.25" y="-392.38" font-family="Helvetica,sans-Serif" font-size="10.00">&lt; std::vector&lt; unsigned</text>
<text xml:space="preserve" text-anchor="middle" x="454.75" y="-381.12" font-family="Helvetica,sans-Serif" font-size="10.00"> short &gt; &gt;</text>
</a>
</g>
</g>
<!-- Node1&#45;&gt;Node13 -->
<g id="edge12_Node000001_Node000013" class="edge">
<title>Node1&#45;&gt;Node13</title>
<g id="a_edge12_Node000001_Node000013"><a xlink:title=" ">
<path fill="none" stroke="#63b8ff" d="M271.13,-552.12C288.53,-520.99 325.94,-461.1 373.25,-426.25 377.81,-422.89 382.79,-419.86 387.97,-417.15"/>
<polygon fill="#63b8ff" stroke="#63b8ff" points="268.08,-550.41 266.37,-560.87 274.23,-553.76 268.08,-550.41"/>
</a>
</g>
</g>
<!-- Node14 -->
<g id="Node000014" class="node">
<title>Node14</title>
<g id="a_Node000014"><a xlink:href="class_im_fusion_1_1_dicom_1_1_element.html" target="_top" xlink:title=" ">
<polygon fill="white" stroke="#666666" points="521.25,-357.5 388.25,-357.5 388.25,-327 521.25,-327 521.25,-357.5"/>
<text xml:space="preserve" text-anchor="start" x="396.25" y="-344" font-family="Helvetica,sans-Serif" font-size="10.00">ImFusion::Dicom::Element</text>
<text xml:space="preserve" text-anchor="middle" x="454.75" y="-332.75" font-family="Helvetica,sans-Serif" font-size="10.00">&lt; vec2 &gt;</text>
</a>
</g>
</g>
<!-- Node1&#45;&gt;Node14 -->
<g id="edge13_Node000001_Node000014" class="edge">
<title>Node1&#45;&gt;Node14</title>
<g id="a_edge13_Node000001_Node000014"><a xlink:title=" ">
<path fill="none" stroke="#63b8ff" d="M266.07,-551.42C278.28,-509.85 311.34,-416.3 373.25,-366.25 377.67,-362.67 382.62,-359.63 387.82,-357.04"/>
<polygon fill="#63b8ff" stroke="#63b8ff" points="262.75,-550.3 263.41,-560.87 269.49,-552.2 262.75,-550.3"/>
</a>
</g>
</g>
<!-- Node15 -->
<g id="Node000015" class="node">
<title>Node15</title>
<g id="a_Node000015"><a xlink:href="class_im_fusion_1_1_dicom_1_1_element.html" target="_top" xlink:title="Dicom Element with a concrete value type.">
<polygon fill="white" stroke="#666666" points="533.25,-308.88 376.25,-308.88 376.25,-289.62 533.25,-289.62 533.25,-308.88"/>
<text xml:space="preserve" text-anchor="middle" x="454.75" y="-295.38" font-family="Helvetica,sans-Serif" font-size="10.00">ImFusion::Dicom::Element&lt; T &gt;</text>
</a>
</g>
</g>
<!-- Node1&#45;&gt;Node15 -->
<g id="edge14_Node000001_Node000015" class="edge">
<title>Node1&#45;&gt;Node15</title>
<g id="a_edge14_Node000001_Node000015"><a xlink:title=" ">
<path fill="none" stroke="#63b8ff" d="M263.48,-551.05C271.54,-502.03 298.42,-380.31 373.25,-318.25 377.56,-314.67 382.43,-311.75 387.58,-309.35"/>
<polygon fill="#63b8ff" stroke="#63b8ff" points="260.03,-550.44 261.98,-560.86 266.95,-551.5 260.03,-550.44"/>
</a>
</g>
</g>
<!-- Node16 -->
<g id="Node000016" class="node">
<title>Node16</title>
<g id="a_Node000016"><a xlink:href="class_im_fusion_1_1_dicom_1_1_sequence_base.html" target="_top" xlink:title="Abstract base class for a sequence of elements.">
<polygon fill="white" stroke="#666666" points="536.25,-271.88 373.25,-271.88 373.25,-252.62 536.25,-252.62 536.25,-271.88"/>
<text xml:space="preserve" text-anchor="middle" x="454.75" y="-258.38" font-family="Helvetica,sans-Serif" font-size="10.00">ImFusion::Dicom::SequenceBase</text>
</a>
</g>
</g>
<!-- Node1&#45;&gt;Node16 -->
<g id="edge15_Node000001_Node000016" class="edge">
<title>Node1&#45;&gt;Node16</title>
<g id="a_edge15_Node000001_Node000016"><a xlink:title=" ">
<path fill="none" stroke="#63b8ff" d="M262.05,-551.17C267.21,-497.2 288.63,-353.15 373.25,-280.25 376.94,-277.07 381.07,-274.42 385.45,-272.21"/>
<polygon fill="#63b8ff" stroke="#63b8ff" points="258.59,-550.56 261.23,-560.82 265.57,-551.16 258.59,-550.56"/>
</a>
</g>
</g>
<!-- Node2 -->
<g id="Node000002" class="node">
<title>Node2</title>
<g id="a_Node000002"><a xlink:href="class_im_fusion_1_1_utils_1_1_not_copyable.html" target="_top" xlink:title="Inherit from this class if your class should be neither copy&#45;constructible nor assignable.">
<polygon fill="white" stroke="#666666" points="145.75,-581.88 0,-581.88 0,-562.62 145.75,-562.62 145.75,-581.88"/>
<text xml:space="preserve" text-anchor="middle" x="72.88" y="-568.38" font-family="Helvetica,sans-Serif" font-size="10.00">ImFusion::Utils::NotCopyable</text>
</a>
</g>
</g>
<!-- Node2&#45;&gt;Node1 -->
<g id="edge1_Node000001_Node000002" class="edge">
<title>Node2&#45;&gt;Node1</title>
<g id="a_edge1_Node000001_Node000002"><a xlink:title=" ">
<path fill="none" stroke="#8b1a1a" d="M157.34,-572.25C165.38,-572.25 173.52,-572.25 181.5,-572.25"/>
<polygon fill="#8b1a1a" stroke="#8b1a1a" points="157.56,-568.75 147.56,-572.25 157.56,-575.75 157.56,-568.75"/>
</a>
</g>
</g>
<!-- Node17 -->
<g id="Node000017" class="node">
<title>Node17</title>
<g id="a_Node000017"><a xlink:href="class_im_fusion_1_1_dicom_1_1_sequence.html" target="_top" xlink:title=" ">
<polygon fill="white" stroke="#666666" points="791.88,-574.12 589.88,-574.12 589.88,-532.38 791.88,-532.38 791.88,-574.12"/>
<text xml:space="preserve" text-anchor="start" x="597.88" y="-560.62" font-family="Helvetica,sans-Serif" font-size="10.00">ImFusion::Dicom::Sequence</text>
<text xml:space="preserve" text-anchor="start" x="597.88" y="-549.38" font-family="Helvetica,sans-Serif" font-size="10.00">&lt; ImFusion::Dicom::EnhancedMulti</text>
<text xml:space="preserve" text-anchor="middle" x="690.88" y="-538.12" font-family="Helvetica,sans-Serif" font-size="10.00">FrameImageIOD::FunctionalGroupMacro &gt;</text>
</a>
</g>
</g>
<!-- Node16&#45;&gt;Node17 -->
<g id="edge16_Node000016_Node000017" class="edge">
<title>Node16&#45;&gt;Node17</title>
<g id="a_edge16_Node000016_Node000017"><a xlink:title=" ">
<path fill="none" stroke="#63b8ff" d="M535.13,-279.09C535.51,-279.47 535.88,-279.86 536.25,-280.25 610.59,-360.21 499.11,-442.19 572.25,-523.25 577.26,-528.8 583.15,-533.4 589.56,-537.18"/>
<polygon fill="#63b8ff" stroke="#63b8ff" points="537.57,-276.56 527.54,-273.14 533.25,-282.07 537.57,-276.56"/>
</a>
</g>
</g>
<!-- Node18 -->
<g id="Node000018" class="node">
<title>Node18</title>
<g id="a_Node000018"><a xlink:href="class_im_fusion_1_1_dicom_1_1_sequence.html" target="_top" xlink:title=" ">
<polygon fill="white" stroke="#666666" points="809.5,-514.12 572.25,-514.12 572.25,-472.38 809.5,-472.38 809.5,-514.12"/>
<text xml:space="preserve" text-anchor="start" x="580.25" y="-500.62" font-family="Helvetica,sans-Serif" font-size="10.00">ImFusion::Dicom::Sequence</text>
<text xml:space="preserve" text-anchor="start" x="580.25" y="-489.38" font-family="Helvetica,sans-Serif" font-size="10.00">&lt; ImFusion::Dicom::EnhancedMulti</text>
<text xml:space="preserve" text-anchor="middle" x="690.88" y="-478.12" font-family="Helvetica,sans-Serif" font-size="10.00">FrameImageIOD::DimensionIndexSequenceItem &gt;</text>
</a>
</g>
</g>
<!-- Node16&#45;&gt;Node18 -->
<g id="edge17_Node000016_Node000018" class="edge">
<title>Node16&#45;&gt;Node18</title>
<g id="a_edge17_Node000016_Node000018"><a xlink:title=" ">
<path fill="none" stroke="#63b8ff" d="M535.11,-279.12C535.49,-279.49 535.88,-279.87 536.25,-280.25 594.1,-339.61 515.28,-403.03 572.25,-463.25 575.29,-466.47 578.63,-469.35 582.18,-471.95"/>
<polygon fill="#63b8ff" stroke="#63b8ff" points="537.48,-276.52 527.39,-273.29 533.26,-282.11 537.48,-276.52"/>
</a>
</g>
</g>
<!-- Node19 -->
<g id="Node000019" class="node">
<title>Node19</title>
<g id="a_Node000019"><a xlink:href="class_im_fusion_1_1_dicom_1_1_sequence.html" target="_top" xlink:title=" ">
<polygon fill="white" stroke="#666666" points="787.38,-454.75 594.38,-454.75 594.38,-401.75 787.38,-401.75 787.38,-454.75"/>
<text xml:space="preserve" text-anchor="start" x="602.38" y="-441.25" font-family="Helvetica,sans-Serif" font-size="10.00">ImFusion::Dicom::Sequence</text>
<text xml:space="preserve" text-anchor="start" x="602.38" y="-430" font-family="Helvetica,sans-Serif" font-size="10.00">&lt; ImFusion::Dicom::EnhancedMulti</text>
<text xml:space="preserve" text-anchor="start" x="602.38" y="-418.75" font-family="Helvetica,sans-Serif" font-size="10.00">FrameImageIOD::FunctionalGroupMacro</text>
<text xml:space="preserve" text-anchor="middle" x="690.88" y="-407.5" font-family="Helvetica,sans-Serif" font-size="10.00">::SegmentIdentificationSequenceItem &gt;</text>
</a>
</g>
</g>
<!-- Node16&#45;&gt;Node19 -->
<g id="edge18_Node000016_Node000019" class="edge">
<title>Node16&#45;&gt;Node19</title>
<g id="a_edge18_Node000016_Node000019"><a xlink:title=" ">
<path fill="none" stroke="#63b8ff" d="M534.24,-278.51C534.93,-279.07 535.6,-279.65 536.25,-280.25 574.87,-315.5 535.02,-355.54 572.25,-392.25 578.64,-398.55 586.09,-403.75 594.1,-408.04"/>
<polygon fill="#63b8ff" stroke="#63b8ff" points="536.17,-275.59 525.9,-273.01 532.32,-281.44 536.17,-275.59"/>
</a>
</g>
</g>
<!-- Node20 -->
<g id="Node000020" class="node">
<title>Node20</title>
<g id="a_Node000020"><a xlink:href="class_im_fusion_1_1_dicom_1_1_sequence.html" target="_top" xlink:title=" ">
<polygon fill="white" stroke="#666666" points="787.38,-383.75 594.38,-383.75 594.38,-330.75 787.38,-330.75 787.38,-383.75"/>
<text xml:space="preserve" text-anchor="start" x="602.38" y="-370.25" font-family="Helvetica,sans-Serif" font-size="10.00">ImFusion::Dicom::Sequence</text>
<text xml:space="preserve" text-anchor="start" x="602.38" y="-359" font-family="Helvetica,sans-Serif" font-size="10.00">&lt; ImFusion::Dicom::EnhancedMulti</text>
<text xml:space="preserve" text-anchor="start" x="602.38" y="-347.75" font-family="Helvetica,sans-Serif" font-size="10.00">FrameImageIOD::FunctionalGroupMacro</text>
<text xml:space="preserve" text-anchor="middle" x="690.88" y="-336.5" font-family="Helvetica,sans-Serif" font-size="10.00">::FrameContentSequenceItem &gt;</text>
</a>
</g>
</g>
<!-- Node16&#45;&gt;Node20 -->
<g id="edge19_Node000016_Node000020" class="edge">
<title>Node16&#45;&gt;Node20</title>
<g id="a_edge19_Node000016_Node000020"><a xlink:title=" ">
<path fill="none" stroke="#63b8ff" d="M529.59,-276.65C531.88,-277.77 534.11,-278.96 536.25,-280.25 557.32,-292.91 551.63,-308.87 572.25,-322.25 579.04,-326.66 586.41,-330.53 594.03,-333.92"/>
<polygon fill="#63b8ff" stroke="#63b8ff" points="531.21,-273.54 520.63,-272.9 528.5,-279.99 531.21,-273.54"/>
</a>
</g>
</g>
<!-- Node21 -->
<g id="Node000021" class="node">
<title>Node21</title>
<g id="a_Node000021"><a xlink:href="class_im_fusion_1_1_dicom_1_1_sequence.html" target="_top" xlink:title=" ">
<polygon fill="white" stroke="#666666" points="771.25,-313.12 610.5,-313.12 610.5,-271.38 771.25,-271.38 771.25,-313.12"/>
<text xml:space="preserve" text-anchor="start" x="618.5" y="-299.62" font-family="Helvetica,sans-Serif" font-size="10.00">ImFusion::Dicom::Sequence</text>
<text xml:space="preserve" text-anchor="start" x="618.5" y="-288.38" font-family="Helvetica,sans-Serif" font-size="10.00">&lt; ImFusion::Dicom::ImagePlane</text>
<text xml:space="preserve" text-anchor="middle" x="690.88" y="-277.12" font-family="Helvetica,sans-Serif" font-size="10.00">::DetectorInformationSequence &gt;</text>
</a>
</g>
</g>
<!-- Node16&#45;&gt;Node21 -->
<g id="edge20_Node000016_Node000021" class="edge">
<title>Node16&#45;&gt;Node21</title>
<g id="a_edge20_Node000016_Node000021"><a xlink:title=" ">
<path fill="none" stroke="#63b8ff" d="M545.94,-273.81C567.08,-276.52 589.44,-279.38 610.08,-282.03"/>
<polygon fill="#63b8ff" stroke="#63b8ff" points="546.55,-270.36 536.19,-272.56 545.66,-277.3 546.55,-270.36"/>
</a>
</g>
</g>
<!-- Node22 -->
<g id="Node000022" class="node">
<title>Node22</title>
<g id="a_Node000022"><a xlink:href="class_im_fusion_1_1_dicom_1_1_sequence.html" target="_top" xlink:title=" ">
<polygon fill="white" stroke="#666666" points="771.62,-253.12 610.12,-253.12 610.12,-211.38 771.62,-211.38 771.62,-253.12"/>
<text xml:space="preserve" text-anchor="start" x="618.12" y="-239.62" font-family="Helvetica,sans-Serif" font-size="10.00">ImFusion::Dicom::Sequence</text>
<text xml:space="preserve" text-anchor="start" x="618.12" y="-228.38" font-family="Helvetica,sans-Serif" font-size="10.00">&lt; ImFusion::Dicom::ModalityLUT</text>
<text xml:space="preserve" text-anchor="middle" x="690.88" y="-217.12" font-family="Helvetica,sans-Serif" font-size="10.00">::LutItem &gt;</text>
</a>
</g>
</g>
<!-- Node16&#45;&gt;Node22 -->
<g id="edge21_Node000016_Node000022" class="edge">
<title>Node16&#45;&gt;Node22</title>
<g id="a_edge21_Node000016_Node000022"><a xlink:title=" ">
<path fill="none" stroke="#63b8ff" d="M545.88,-250.7C566.9,-248.01 589.13,-245.16 609.69,-242.53"/>
<polygon fill="#63b8ff" stroke="#63b8ff" points="545.66,-247.2 536.19,-251.94 546.55,-254.14 545.66,-247.2"/>
</a>
</g>
</g>
<!-- Node23 -->
<g id="Node000023" class="node">
<title>Node23</title>
<g id="a_Node000023"><a xlink:href="class_im_fusion_1_1_dicom_1_1_sequence.html" target="_top" xlink:title=" ">
<polygon fill="white" stroke="#666666" points="773.12,-193.12 608.62,-193.12 608.62,-151.38 773.12,-151.38 773.12,-193.12"/>
<text xml:space="preserve" text-anchor="start" x="616.62" y="-179.62" font-family="Helvetica,sans-Serif" font-size="10.00">ImFusion::Dicom::Sequence</text>
<text xml:space="preserve" text-anchor="start" x="616.62" y="-168.38" font-family="Helvetica,sans-Serif" font-size="10.00">&lt; ImFusion::Dicom::SegmentItem</text>
<text xml:space="preserve" text-anchor="middle" x="690.88" y="-157.12" font-family="Helvetica,sans-Serif" font-size="10.00">::SegmentedPropertyCode &gt;</text>
</a>
</g>
</g>
<!-- Node16&#45;&gt;Node23 -->
<g id="edge22_Node000016_Node000023" class="edge">
<title>Node16&#45;&gt;Node23</title>
<g id="a_edge22_Node000016_Node000023"><a xlink:title=" ">
<path fill="none" stroke="#63b8ff" d="M481.91,-246.6C505.02,-233.31 539.97,-214.5 572.25,-202.25 583.68,-197.91 595.97,-194 608.14,-190.55"/>
<polygon fill="#63b8ff" stroke="#63b8ff" points="480.36,-243.45 473.49,-251.51 483.89,-249.5 480.36,-243.45"/>
</a>
</g>
</g>
<!-- Node24 -->
<g id="Node000024" class="node">
<title>Node24</title>
<g id="a_Node000024"><a xlink:href="class_im_fusion_1_1_dicom_1_1_sequence.html" target="_top" xlink:title=" ">
<polygon fill="white" stroke="#666666" points="777.62,-133.5 604.12,-133.5 604.12,-103 777.62,-103 777.62,-133.5"/>
<text xml:space="preserve" text-anchor="start" x="612.12" y="-120" font-family="Helvetica,sans-Serif" font-size="10.00">ImFusion::Dicom::Sequence</text>
<text xml:space="preserve" text-anchor="middle" x="690.88" y="-108.75" font-family="Helvetica,sans-Serif" font-size="10.00">&lt; ImFusion::Dicom::SegmentItem &gt;</text>
</a>
</g>
</g>
<!-- Node16&#45;&gt;Node24 -->
<g id="edge23_Node000016_Node000024" class="edge">
<title>Node16&#45;&gt;Node24</title>
<g id="a_edge23_Node000016_Node000024"><a xlink:title=" ">
<path fill="none" stroke="#63b8ff" d="M468.62,-243.04C487.81,-215.99 526.63,-167.22 572.25,-142.25 582.03,-136.9 592.86,-132.73 603.88,-129.5"/>
<polygon fill="#63b8ff" stroke="#63b8ff" points="465.92,-240.78 463.11,-251 471.68,-244.77 465.92,-240.78"/>
</a>
</g>
</g>
<!-- Node26 -->
<g id="Node000026" class="node">
<title>Node26</title>
<g id="a_Node000026"><a xlink:href="class_im_fusion_1_1_dicom_1_1_sequence.html" target="_top" xlink:title=" ">
<polygon fill="white" stroke="#666666" points="783.62,-85.12 598.12,-85.12 598.12,-43.38 783.62,-43.38 783.62,-85.12"/>
<text xml:space="preserve" text-anchor="start" x="606.12" y="-71.62" font-family="Helvetica,sans-Serif" font-size="10.00">ImFusion::Dicom::Sequence</text>
<text xml:space="preserve" text-anchor="start" x="606.12" y="-60.38" font-family="Helvetica,sans-Serif" font-size="10.00">&lt; ImFusion::Dicom::VOILUTExtension</text>
<text xml:space="preserve" text-anchor="middle" x="690.88" y="-49.12" font-family="Helvetica,sans-Serif" font-size="10.00">::VOILUT::LutItem &gt;</text>
</a>
</g>
</g>
<!-- Node16&#45;&gt;Node26 -->
<g id="edge25_Node000016_Node000026" class="edge">
<title>Node16&#45;&gt;Node26</title>
<g id="a_edge25_Node000016_Node000026"><a xlink:title=" ">
<path fill="none" stroke="#63b8ff" d="M464.05,-241.94C479.69,-206.29 516.99,-132.64 572.25,-94.25 580.04,-88.84 588.72,-84.4 597.75,-80.77"/>
<polygon fill="#63b8ff" stroke="#63b8ff" points="460.86,-240.5 460.17,-251.07 467.3,-243.23 460.86,-240.5"/>
</a>
</g>
</g>
<!-- Node27 -->
<g id="Node000027" class="node">
<title>Node27</title>
<g id="a_Node000027"><a xlink:href="class_im_fusion_1_1_dicom_1_1_sequence.html" target="_top" xlink:title="Concrete sequence of items of type T, which must be derived from SequenceItem.">
<polygon fill="white" stroke="#666666" points="773.12,-24.88 608.62,-24.88 608.62,-5.62 773.12,-5.62 773.12,-24.88"/>
<text xml:space="preserve" text-anchor="middle" x="690.88" y="-11.38" font-family="Helvetica,sans-Serif" font-size="10.00">ImFusion::Dicom::Sequence&lt; T &gt;</text>
</a>
</g>
</g>
<!-- Node16&#45;&gt;Node27 -->
<g id="edge26_Node000016_Node000027" class="edge">
<title>Node16&#45;&gt;Node27</title>
<g id="a_edge26_Node000016_Node000027"><a xlink:title=" ">
<path fill="none" stroke="#63b8ff" d="M459.83,-241.3C469.93,-195.5 500.64,-86.38 572.25,-34.25 582.87,-26.52 595.46,-21.45 608.38,-18.21"/>
<polygon fill="#63b8ff" stroke="#63b8ff" points="456.43,-240.46 457.82,-250.96 463.28,-241.88 456.43,-240.46"/>
</a>
</g>
</g>
<!-- Node25 -->
<g id="Node000025" class="node">
<title>Node25</title>
<g id="a_Node000025"><a xlink:href="class_im_fusion_1_1_dicom_1_1_configurable_sequence.html" target="_top" xlink:title=" ">
<polygon fill="white" stroke="#bfbfbf" points="997.25,-139.12 845.5,-139.12 845.5,-97.38 997.25,-97.38 997.25,-139.12"/>
<text xml:space="preserve" text-anchor="start" x="853.5" y="-125.62" font-family="Helvetica,sans-Serif" font-size="10.00">ImFusion::Dicom::Configurable</text>
<text xml:space="preserve" text-anchor="start" x="853.5" y="-114.38" font-family="Helvetica,sans-Serif" font-size="10.00">Sequence&lt; ImFusion::Dicom</text>
<text xml:space="preserve" text-anchor="middle" x="921.38" y="-103.12" font-family="Helvetica,sans-Serif" font-size="10.00">::SegmentItem &gt;</text>
</a>
</g>
</g>
<!-- Node24&#45;&gt;Node25 -->
<g id="edge24_Node000024_Node000025" class="edge">
<title>Node24&#45;&gt;Node25</title>
<g id="a_edge24_Node000024_Node000025"><a xlink:title=" ">
<path fill="none" stroke="#63b8ff" d="M789.2,-118.25C807.96,-118.25 827.34,-118.25 845.26,-118.25"/>
<polygon fill="#63b8ff" stroke="#63b8ff" points="789.45,-114.75 779.45,-118.25 789.45,-121.75 789.45,-114.75"/>
</a>
</g>
</g>
<!-- Node28 -->
<g id="Node000028" class="node">
<title>Node28</title>
<g id="a_Node000028"><a xlink:href="class_im_fusion_1_1_dicom_1_1_configurable_sequence.html" target="_top" xlink:title=" ">
<polygon fill="white" stroke="#bfbfbf" points="997.25,-30.5 845.5,-30.5 845.5,0 997.25,0 997.25,-30.5"/>
<text xml:space="preserve" text-anchor="start" x="853.5" y="-17" font-family="Helvetica,sans-Serif" font-size="10.00">ImFusion::Dicom::Configurable</text>
<text xml:space="preserve" text-anchor="middle" x="921.38" y="-5.75" font-family="Helvetica,sans-Serif" font-size="10.00">Sequence&lt; T &gt;</text>
</a>
</g>
</g>
<!-- Node27&#45;&gt;Node28 -->
<g id="edge27_Node000027_Node000028" class="edge">
<title>Node27&#45;&gt;Node28</title>
<g id="a_edge27_Node000027_Node000028"><a xlink:title=" ">
<path fill="none" stroke="#63b8ff" d="M784.81,-15.25C804.95,-15.25 826.01,-15.25 845.36,-15.25"/>
<polygon fill="#63b8ff" stroke="#63b8ff" points="784.91,-11.75 774.91,-15.25 784.91,-18.75 784.91,-11.75"/>
</a>
</g>
</g>
</g>
</svg>

<g id="navigator" transform="translate(0 0)" fill="#404254">
  <rect fill="#f2f5e9" fill-opacity="0.5" stroke="#606060" stroke-width=".5" x="0" y="0" width="60" height="60"/>
  <use id="zoomplus" xlink:href="#zoomPlus" x="17" y="9" onmousedown="handleZoom(evt,'in')"/>
  <use id="zoomminus" xlink:href="#zoomMin" x="42" y="9" onmousedown="handleZoom(evt,'out')"/>
  <use id="reset" xlink:href="#resetDef" x="30" y="36" onmousedown="handleReset()"/>
   <use id="arrowup" xlink:href="#arrowUp" x="0" y="0" onmousedown="handlePan(0,-1)"/>
  <use id="arrowright" xlink:href="#arrowRight" x="0" y="0" onmousedown="handlePan(1,0)"/>
  <use id="arrowdown" xlink:href="#arrowDown" x="0" y="0" onmousedown="handlePan(0,1)"/>
  <use id="arrowleft" xlink:href="#arrowLeft" x="0" y="0" onmousedown="handlePan(-1,0)"/>
</g>
<svg viewBox="0 0 15 15" width="100%" height="30px" preserveAspectRatio="xMaxYMin meet">
 <g id="arrow_out" transform="scale(0.3 0.3)">
  <a xlink:href="class_im_fusion_1_1_dicom_1_1_element_base__inherit__graph_org.svg" target="_base">
   <rect id="button" ry="5" rx="5" y="6" x="6" height="38" width="38"
        fill="#f2f5e9" fill-opacity="0.5" stroke="#606060" stroke-width="1.0"/>
   <path id="arrow"
     d="M 11.500037,31.436501 C 11.940474,20.09759 22.043105,11.32322 32.158766,21.979434 L 37.068811,17.246167 C 37.068811,17.246167 37.088388,32 37.088388,32 L 22.160133,31.978069 C 22.160133,31.978069 26.997745,27.140456 26.997745,27.140456 C 18.528582,18.264221 13.291696,25.230495 11.500037,31.436501 z"
     style="fill:#404040;"/>
  </a>
 </g>
</svg>

<style type='text/css'>
<![CDATA[
[data-mouse-over-selected='false'] { opacity: 0.7; }
[data-mouse-over-selected='true']  { opacity: 1.0; }
]]>
</style>
<script type="application/ecmascript"><![CDATA[
document.addEventListener('DOMContentLoaded', (event) => {
  highlightEdges();
  highlightAdjacentNodes();
});
]]></script>
</svg>
