<?xml version="1.0" encoding="UTF-8" standalone="no"?>
<!DOCTYPE svg PUBLIC "-//W3C//DTD SVG 1.1//EN"
 "http://www.w3.org/Graphics/SVG/1.1/DTD/svg11.dtd">
<!-- Generated by graphviz version 14.1.4 (20260321.0153)
 -->
<!-- Title: ImFusion::GlSeparableConvolutionFilter Pages: 1 -->
<svg width="297pt" height="260pt"
 viewBox="0.00 0.00 297.00 260.00" xmlns="http://www.w3.org/2000/svg" xmlns:xlink="http://www.w3.org/1999/xlink">

<svg id="main" version="1.1" xmlns="http://www.w3.org/2000/svg" xmlns:xlink="http://www.w3.org/1999/xlink" xml:space="preserve">

<style type="text/css"><![CDATA[
.node, .edge {opacity: 0.7;}
.node.selected, .edge.selected {opacity: 1;}
.edge:hover path { stroke: red; }
.edge:hover polygon { stroke: red; fill: red; }
]]></style>
<script type="application/ecmascript" xlink:href="svg.min.js"/>
<svg id="graph" class="graph">
<g id="graph0" class="graph" transform="scale(1 1) rotate(0) translate(4 255.5)">
<title>ImFusion::GlSeparableConvolutionFilter</title>
<!-- Node1 -->
<g id="Node000001" class="node">
<title>Node1</title>
<g id="a_Node000001"><a xlink:title="Separable Convolution filter.">
<polygon fill="#999999" stroke="#666666" points="224.75,-85.75 57.25,-85.75 57.25,-55.25 224.75,-55.25 224.75,-85.75"/>
<text xml:space="preserve" text-anchor="start" x="65.25" y="-72.25" font-family="Helvetica,sans-Serif" font-size="10.00">ImFusion::GlSeparableConvolution</text>
<text xml:space="preserve" text-anchor="middle" x="141" y="-61" font-family="Helvetica,sans-Serif" font-size="10.00">Filter</text>
</a>
</g>
</g>
<!-- Node6 -->
<g id="Node000006" class="node">
<title>Node6</title>
<g id="a_Node000006"><a xlink:href="class_im_fusion_1_1_gl_sharpen_filter.html" target="_top" xlink:title="Unsharp Mask filter.">
<polygon fill="white" stroke="#666666" points="130,-19.25 0,-19.25 0,0 130,0 130,-19.25"/>
<text xml:space="preserve" text-anchor="middle" x="65" y="-5.75" font-family="Helvetica,sans-Serif" font-size="10.00">ImFusion::GlSharpenFilter</text>
</a>
</g>
</g>
<!-- Node1&#45;&gt;Node6 -->
<g id="edge5_Node000001_Node000006" class="edge">
<title>Node1&#45;&gt;Node6</title>
<g id="a_edge5_Node000001_Node000006"><a xlink:title=" ">
<path fill="none" stroke="#63b8ff" d="M113.4,-48.12C100.77,-38.33 86.47,-27.26 76.72,-19.7"/>
<polygon fill="#63b8ff" stroke="#63b8ff" points="110.97,-50.66 121.02,-54.02 115.25,-45.13 110.97,-50.66"/>
</a>
</g>
</g>
<!-- Node7 -->
<g id="Node000007" class="node">
<title>Node7</title>
<g id="a_Node000007"><a xlink:href="class_im_fusion_1_1_gl_smoothing_filter.html" target="_top" xlink:title="Gaussian smoothing filter.">
<polygon fill="white" stroke="#666666" points="288.25,-19.25 147.75,-19.25 147.75,0 288.25,0 288.25,-19.25"/>
<text xml:space="preserve" text-anchor="middle" x="218" y="-5.75" font-family="Helvetica,sans-Serif" font-size="10.00">ImFusion::GlSmoothingFilter</text>
</a>
</g>
</g>
<!-- Node1&#45;&gt;Node7 -->
<g id="edge6_Node000001_Node000007" class="edge">
<title>Node1&#45;&gt;Node7</title>
<g id="a_edge6_Node000001_Node000007"><a xlink:title=" ">
<path fill="none" stroke="#63b8ff" d="M168.97,-48.12C181.76,-38.33 196.24,-27.26 206.13,-19.7"/>
<polygon fill="#63b8ff" stroke="#63b8ff" points="167.05,-45.17 161.24,-54.03 171.31,-50.73 167.05,-45.17"/>
</a>
</g>
</g>
<!-- Node2 -->
<g id="Node000002" class="node">
<title>Node2</title>
<g id="a_Node000002"><a xlink:href="class_im_fusion_1_1_gl_filter.html" target="_top" xlink:title="Base class for filters.">
<polygon fill="white" stroke="#666666" points="188,-141 94,-141 94,-121.75 188,-121.75 188,-141"/>
<text xml:space="preserve" text-anchor="middle" x="141" y="-127.5" font-family="Helvetica,sans-Serif" font-size="10.00">ImFusion::GlFilter</text>
</a>
</g>
</g>
<!-- Node2&#45;&gt;Node1 -->
<g id="edge1_Node000001_Node000002" class="edge">
<title>Node2&#45;&gt;Node1</title>
<g id="a_edge1_Node000001_Node000002"><a xlink:title=" ">
<path fill="none" stroke="#63b8ff" d="M141,-110.17C141,-102.24 141,-93.31 141,-86.03"/>
<polygon fill="#63b8ff" stroke="#63b8ff" points="137.5,-109.92 141,-119.92 144.5,-109.92 137.5,-109.92"/>
</a>
</g>
</g>
<!-- Node3 -->
<g id="Node000003" class="node">
<title>Node3</title>
<g id="a_Node000003"><a xlink:href="class_im_fusion_1_1_algorithm.html" target="_top" xlink:title="Interface for describing algorithms that can be made available in the ImFusion Suite through Algorith...">
<polygon fill="white" stroke="#666666" points="192.88,-196.25 89.12,-196.25 89.12,-177 192.88,-177 192.88,-196.25"/>
<text xml:space="preserve" text-anchor="middle" x="141" y="-182.75" font-family="Helvetica,sans-Serif" font-size="10.00">ImFusion::Algorithm</text>
</a>
</g>
</g>
<!-- Node3&#45;&gt;Node2 -->
<g id="edge2_Node000002_Node000003" class="edge">
<title>Node3&#45;&gt;Node2</title>
<g id="a_edge2_Node000002_Node000003"><a xlink:title=" ">
<path fill="none" stroke="#63b8ff" d="M141,-165.38C141,-157.09 141,-147.92 141,-141.36"/>
<polygon fill="#63b8ff" stroke="#63b8ff" points="137.5,-165.32 141,-175.32 144.5,-165.32 137.5,-165.32"/>
</a>
</g>
</g>
<!-- Node4 -->
<g id="Node000004" class="node">
<title>Node4</title>
<g id="a_Node000004"><a xlink:href="class_im_fusion_1_1_configurable.html" target="_top" xlink:title="Base interface for classes that support object serialization from/to Properties objects.">
<polygon fill="white" stroke="#666666" points="124.62,-251.5 7.38,-251.5 7.38,-232.25 124.62,-232.25 124.62,-251.5"/>
<text xml:space="preserve" text-anchor="middle" x="66" y="-238" font-family="Helvetica,sans-Serif" font-size="10.00">ImFusion::Configurable</text>
</a>
</g>
</g>
<!-- Node4&#45;&gt;Node3 -->
<g id="edge3_Node000003_Node000004" class="edge">
<title>Node4&#45;&gt;Node3</title>
<g id="a_edge3_Node000003_Node000004"><a xlink:title=" ">
<path fill="none" stroke="#63b8ff" d="M87.99,-225.26C101.07,-215.97 117.21,-204.52 128.21,-196.7"/>
<polygon fill="#63b8ff" stroke="#63b8ff" points="86.08,-222.32 79.96,-230.97 90.14,-228.03 86.08,-222.32"/>
</a>
</g>
</g>
<!-- Node5 -->
<g id="Node000005" class="node">
<title>Node5</title>
<g id="a_Node000005"><a xlink:href="class_im_fusion_1_1_utils_1_1_not_copyable.html" target="_top" xlink:title="Inherit from this class if your class should be neither copy&#45;constructible nor assignable.">
<polygon fill="white" stroke="#666666" points="288.88,-251.5 143.12,-251.5 143.12,-232.25 288.88,-232.25 288.88,-251.5"/>
<text xml:space="preserve" text-anchor="middle" x="216" y="-238" font-family="Helvetica,sans-Serif" font-size="10.00">ImFusion::Utils::NotCopyable</text>
</a>
</g>
</g>
<!-- Node5&#45;&gt;Node3 -->
<g id="edge4_Node000003_Node000005" class="edge">
<title>Node5&#45;&gt;Node3</title>
<g id="a_edge4_Node000003_Node000005"><a xlink:title=" ">
<path fill="none" stroke="#8b1a1a" d="M194.01,-225.26C180.93,-215.97 164.79,-204.52 153.79,-196.7"/>
<polygon fill="#8b1a1a" stroke="#8b1a1a" points="191.86,-228.03 202.04,-230.97 195.92,-222.32 191.86,-228.03"/>
</a>
</g>
</g>
</g>
</svg>
</svg>

<style type='text/css'>
<![CDATA[
[data-mouse-over-selected='false'] { opacity: 0.7; }
[data-mouse-over-selected='true']  { opacity: 1.0; }
]]>
</style>
<script type="application/ecmascript"><![CDATA[
document.addEventListener('DOMContentLoaded', (event) => {
  highlightEdges();
  highlightAdjacentNodes();
});
]]></script>
</svg>
