<?xml version="1.0" encoding="UTF-8" standalone="no"?>
<!DOCTYPE svg PUBLIC "-//W3C//DTD SVG 1.1//EN"
 "http://www.w3.org/Graphics/SVG/1.1/DTD/svg11.dtd">
<!-- Generated by graphviz version 14.1.4 (20260321.0153)
 -->
<!-- Title: ImFusion::OctreeDataComponent Pages: 1 -->
<svg width="752pt" height="162pt"
 viewBox="0.00 0.00 752.00 162.00" xmlns="http://www.w3.org/2000/svg" xmlns:xlink="http://www.w3.org/1999/xlink">
<g id="graph0" class="graph" transform="scale(1 1) rotate(0) translate(4 158.25)">
<title>ImFusion::OctreeDataComponent</title>
<!-- Node1 -->
<g id="Node000001" class="node">
<title>Node1</title>
<g id="a_Node000001"><a xlink:title="DataComponent to store Octrees directly with their SharedImageSet.">
<polygon fill="#999999" stroke="#666666" points="744.25,-80.25 581.25,-80.25 581.25,-61 744.25,-61 744.25,-80.25"/>
<text xml:space="preserve" text-anchor="middle" x="662.75" y="-66.75" font-family="Helvetica,sans-Serif" font-size="10.00">ImFusion::OctreeDataComponent</text>
</a>
</g>
</g>
<!-- Node2 -->
<g id="Node000002" class="node">
<title>Node2</title>
<g id="a_Node000002"><a xlink:href="class_im_fusion_1_1_temporary_data_component.html" target="_top" xlink:title="Specialization of DataComponentBase that disables serialization, copying and assignment.">
<polygon fill="white" stroke="#666666" points="535.12,-154.25 355.62,-154.25 355.62,-135 535.12,-135 535.12,-154.25"/>
<text xml:space="preserve" text-anchor="middle" x="445.38" y="-140.75" font-family="Helvetica,sans-Serif" font-size="10.00">ImFusion::TemporaryDataComponent</text>
</a>
</g>
</g>
<!-- Node2&#45;&gt;Node1 -->
<g id="edge1_Node000001_Node000002" class="edge">
<title>Node2&#45;&gt;Node1</title>
<g id="a_edge1_Node000001_Node000002"><a xlink:title=" ">
<path fill="none" stroke="#63b8ff" d="M522.8,-131.94C530.45,-130.07 538.05,-127.98 545.25,-125.62 581.82,-113.69 621.84,-92.96 644.16,-80.65"/>
<polygon fill="#63b8ff" stroke="#63b8ff" points="522.03,-128.53 513.07,-134.17 523.59,-135.35 522.03,-128.53"/>
</a>
</g>
</g>
<!-- Node3 -->
<g id="Node000003" class="node">
<title>Node3</title>
<g id="a_Node000003"><a xlink:href="class_im_fusion_1_1_data_component_base.html" target="_top" xlink:title="Data components provide a way to generically attach custom information objects.">
<polygon fill="white" stroke="#666666" points="309.5,-154.25 153.25,-154.25 153.25,-135 309.5,-135 309.5,-154.25"/>
<text xml:space="preserve" text-anchor="middle" x="231.38" y="-140.75" font-family="Helvetica,sans-Serif" font-size="10.00">ImFusion::DataComponentBase</text>
</a>
</g>
</g>
<!-- Node3&#45;&gt;Node2 -->
<g id="edge2_Node000002_Node000003" class="edge">
<title>Node3&#45;&gt;Node2</title>
<g id="a_edge2_Node000002_Node000003"><a xlink:title=" ">
<path fill="none" stroke="#63b8ff" d="M321.03,-144.62C332.36,-144.62 343.96,-144.62 355.3,-144.62"/>
<polygon fill="#63b8ff" stroke="#63b8ff" points="321.33,-141.13 311.33,-144.63 321.33,-148.13 321.33,-141.13"/>
</a>
</g>
</g>
<!-- Node4 -->
<g id="Node000004" class="node">
<title>Node4</title>
<g id="a_Node000004"><a xlink:href="class_im_fusion_1_1_configurable.html" target="_top" xlink:title="Base interface for classes that support object serialization from/to Properties objects.">
<polygon fill="white" stroke="#666666" points="117.25,-154.25 0,-154.25 0,-135 117.25,-135 117.25,-154.25"/>
<text xml:space="preserve" text-anchor="middle" x="58.62" y="-140.75" font-family="Helvetica,sans-Serif" font-size="10.00">ImFusion::Configurable</text>
</a>
</g>
</g>
<!-- Node4&#45;&gt;Node3 -->
<g id="edge3_Node000003_Node000004" class="edge">
<title>Node4&#45;&gt;Node3</title>
<g id="a_edge3_Node000003_Node000004"><a xlink:title=" ">
<path fill="none" stroke="#63b8ff" d="M128.88,-144.62C136.8,-144.62 144.92,-144.62 152.95,-144.62"/>
<polygon fill="#63b8ff" stroke="#63b8ff" points="128.95,-141.13 118.95,-144.63 128.95,-148.13 128.95,-141.13"/>
</a>
</g>
</g>
<!-- Node5 -->
<g id="Node000005" class="node">
<title>Node5</title>
<g id="a_Node000005"><a xlink:href="class_im_fusion_1_1_lazy_instantiated_data_component.html" target="_top" xlink:title=" ">
<polygon fill="white" stroke="#666666" points="545.25,-116.5 345.5,-116.5 345.5,-74.75 545.25,-74.75 545.25,-116.5"/>
<text xml:space="preserve" text-anchor="start" x="353.5" y="-103" font-family="Helvetica,sans-Serif" font-size="10.00">ImFusion::LazyInstantiated</text>
<text xml:space="preserve" text-anchor="start" x="353.5" y="-91.75" font-family="Helvetica,sans-Serif" font-size="10.00">DataComponent&lt; OctreeDataComponent,</text>
<text xml:space="preserve" text-anchor="middle" x="445.38" y="-80.5" font-family="Helvetica,sans-Serif" font-size="10.00"> SharedImageSet &gt;</text>
</a>
</g>
</g>
<!-- Node5&#45;&gt;Node1 -->
<g id="edge4_Node000001_Node000005" class="edge">
<title>Node5&#45;&gt;Node1</title>
<g id="a_edge4_Node000001_Node000005"><a xlink:title=" ">
<path fill="none" stroke="#63b8ff" d="M556.93,-82.79C564.98,-81.86 573,-80.93 580.83,-80.02"/>
<polygon fill="#63b8ff" stroke="#63b8ff" points="556.59,-79.31 547.06,-83.94 557.39,-86.26 556.59,-79.31"/>
</a>
</g>
</g>
<!-- Node6 -->
<g id="Node000006" class="node">
<title>Node6</title>
<g id="a_Node000006"><a xlink:href="struct_im_fusion_1_1_persistent_data_component.html" target="_top" xlink:title="Base class for DataComponents that must never be deleted from a DataComponentList.">
<polygon fill="white" stroke="#666666" points="295.25,-110.88 167.5,-110.88 167.5,-80.38 295.25,-80.38 295.25,-110.88"/>
<text xml:space="preserve" text-anchor="start" x="175.5" y="-97.38" font-family="Helvetica,sans-Serif" font-size="10.00">ImFusion::PersistentData</text>
<text xml:space="preserve" text-anchor="middle" x="231.38" y="-86.12" font-family="Helvetica,sans-Serif" font-size="10.00">Component</text>
</a>
</g>
</g>
<!-- Node6&#45;&gt;Node5 -->
<g id="edge5_Node000005_Node000006" class="edge">
<title>Node6&#45;&gt;Node5</title>
<g id="a_edge5_Node000005_Node000006"><a xlink:title=" ">
<path fill="none" stroke="#63b8ff" d="M306.9,-95.62C319.32,-95.62 332.37,-95.62 345.28,-95.62"/>
<polygon fill="#63b8ff" stroke="#63b8ff" points="307.21,-92.13 297.21,-95.63 307.21,-99.13 307.21,-92.13"/>
</a>
</g>
</g>
<!-- Node7 -->
<g id="Node000007" class="node">
<title>Node7</title>
<g id="a_Node000007"><a xlink:href="class_im_fusion_1_1_signal_receiver.html" target="_top" xlink:title="Base class for classes that can contain slots (i.e.">
<polygon fill="white" stroke="#666666" points="509.62,-56.25 381.12,-56.25 381.12,-37 509.62,-37 509.62,-56.25"/>
<text xml:space="preserve" text-anchor="middle" x="445.38" y="-42.75" font-family="Helvetica,sans-Serif" font-size="10.00">ImFusion::SignalReceiver</text>
</a>
</g>
</g>
<!-- Node7&#45;&gt;Node1 -->
<g id="edge6_Node000001_Node000007" class="edge">
<title>Node7&#45;&gt;Node1</title>
<g id="a_edge6_Node000001_Node000007"><a xlink:title=" ">
<path fill="none" stroke="#63b8ff" d="M521.54,-55C540.74,-57.14 561.47,-59.45 580.94,-61.62"/>
<polygon fill="#63b8ff" stroke="#63b8ff" points="521.95,-51.53 511.62,-53.9 521.18,-58.48 521.95,-51.53"/>
</a>
</g>
</g>
<!-- Node8 -->
<g id="Node000008" class="node">
<title>Node8</title>
<g id="a_Node000008"><a xlink:href="class_im_fusion_1_1_utils_1_1_not_copyable.html" target="_top" xlink:title="Inherit from this class if your class should be neither copy&#45;constructible nor assignable.">
<polygon fill="white" stroke="#666666" points="518.25,-19.25 372.5,-19.25 372.5,0 518.25,0 518.25,-19.25"/>
<text xml:space="preserve" text-anchor="middle" x="445.38" y="-5.75" font-family="Helvetica,sans-Serif" font-size="10.00">ImFusion::Utils::NotCopyable</text>
</a>
</g>
</g>
<!-- Node8&#45;&gt;Node1 -->
<g id="edge7_Node000001_Node000008" class="edge">
<title>Node8&#45;&gt;Node1</title>
<g id="a_edge7_Node000001_Node000008"><a xlink:title=" ">
<path fill="none" stroke="#8b1a1a" d="M522.16,-22.03C530,-23.73 537.81,-25.59 545.25,-27.62 578.32,-36.66 615.25,-51.06 638.49,-60.68"/>
<polygon fill="#8b1a1a" stroke="#8b1a1a" points="523.08,-18.64 512.58,-20.05 521.66,-25.5 523.08,-18.64"/>
</a>
</g>
</g>
</g>
</svg>
