<?xml version="1.0" encoding="UTF-8" standalone="no"?>
<!DOCTYPE svg PUBLIC "-//W3C//DTD SVG 1.1//EN"
 "http://www.w3.org/Graphics/SVG/1.1/DTD/svg11.dtd">
<!-- Generated by graphviz version 14.1.4 (20260321.0153)
 -->
<!-- Title: ImFusion::GlCircle Pages: 1 -->
<svg width="281pt" height="370pt"
 viewBox="0.00 0.00 281.00 370.00" xmlns="http://www.w3.org/2000/svg" xmlns:xlink="http://www.w3.org/1999/xlink">
<g id="graph0" class="graph" transform="scale(1 1) rotate(0) translate(4 366)">
<title>ImFusion::GlCircle</title>
<!-- Node1 -->
<g id="Node000001" class="node">
<title>Node1</title>
<g id="a_Node000001"><a xlink:title="Circle annotation.">
<polygon fill="#999999" stroke="#666666" points="177.5,-74.5 79.75,-74.5 79.75,-55.25 177.5,-55.25 177.5,-74.5"/>
<text xml:space="preserve" text-anchor="middle" x="128.62" y="-61" font-family="Helvetica,sans-Serif" font-size="10.00">ImFusion::GlCircle</text>
</a>
</g>
</g>
<!-- Node8 -->
<g id="Node000008" class="node">
<title>Node8</title>
<g id="a_Node000008"><a xlink:href="class_im_fusion_1_1_gl_curved_view_circle.html" target="_top" xlink:title="Circle annotation for curved views.">
<polygon fill="white" stroke="#666666" points="204.12,-19.25 53.12,-19.25 53.12,0 204.12,0 204.12,-19.25"/>
<text xml:space="preserve" text-anchor="middle" x="128.62" y="-5.75" font-family="Helvetica,sans-Serif" font-size="10.00">ImFusion::GlCurvedViewCircle</text>
</a>
</g>
</g>
<!-- Node1&#45;&gt;Node8 -->
<g id="edge7_Node000001_Node000008" class="edge">
<title>Node1&#45;&gt;Node8</title>
<g id="a_edge7_Node000001_Node000008"><a xlink:title=" ">
<path fill="none" stroke="#63b8ff" d="M128.62,-43.63C128.62,-35.34 128.62,-26.17 128.62,-19.61"/>
<polygon fill="#63b8ff" stroke="#63b8ff" points="125.13,-43.57 128.63,-53.57 132.13,-43.57 125.13,-43.57"/>
</a>
</g>
</g>
<!-- Node2 -->
<g id="Node000002" class="node">
<title>Node2</title>
<g id="a_Node000002"><a xlink:href="class_im_fusion_1_1_gl_implicitly_planar_point_based_annotation.html" target="_top" xlink:title="Interface extension for point&#45;based annotations that span an area despite consisting of only 2 points...">
<polygon fill="white" stroke="#666666" points="198.12,-141 59.12,-141 59.12,-110.5 198.12,-110.5 198.12,-141"/>
<text xml:space="preserve" text-anchor="start" x="67.12" y="-127.5" font-family="Helvetica,sans-Serif" font-size="10.00">ImFusion::GlImplicitlyPlanar</text>
<text xml:space="preserve" text-anchor="middle" x="128.62" y="-116.25" font-family="Helvetica,sans-Serif" font-size="10.00">PointBasedAnnotation</text>
</a>
</g>
</g>
<!-- Node2&#45;&gt;Node1 -->
<g id="edge1_Node000001_Node000002" class="edge">
<title>Node2&#45;&gt;Node1</title>
<g id="a_edge1_Node000001_Node000002"><a xlink:title=" ">
<path fill="none" stroke="#63b8ff" d="M128.62,-98.73C128.62,-90.23 128.62,-81.34 128.62,-74.95"/>
<polygon fill="#63b8ff" stroke="#63b8ff" points="125.13,-98.68 128.63,-108.68 132.13,-98.68 125.13,-98.68"/>
</a>
</g>
</g>
<!-- Node3 -->
<g id="Node000003" class="node">
<title>Node3</title>
<g id="a_Node000003"><a xlink:href="class_im_fusion_1_1_gl_point_based_annotation.html" target="_top" xlink:title="Base class for implementing point&#45;based annotations.">
<polygon fill="white" stroke="#666666" points="213.12,-196.25 44.12,-196.25 44.12,-177 213.12,-177 213.12,-196.25"/>
<text xml:space="preserve" text-anchor="middle" x="128.62" y="-182.75" font-family="Helvetica,sans-Serif" font-size="10.00">ImFusion::GlPointBasedAnnotation</text>
</a>
</g>
</g>
<!-- Node3&#45;&gt;Node2 -->
<g id="edge2_Node000002_Node000003" class="edge">
<title>Node3&#45;&gt;Node2</title>
<g id="a_edge2_Node000002_Node000003"><a xlink:title=" ">
<path fill="none" stroke="#63b8ff" d="M128.62,-165.42C128.62,-157.49 128.62,-148.56 128.62,-141.28"/>
<polygon fill="#63b8ff" stroke="#63b8ff" points="125.13,-165.17 128.63,-175.17 132.13,-165.17 125.13,-165.17"/>
</a>
</g>
</g>
<!-- Node4 -->
<g id="Node000004" class="node">
<title>Node4</title>
<g id="a_Node000004"><a xlink:href="class_im_fusion_1_1_gl_annotation.html" target="_top" xlink:title="Base class for implementing annotations.">
<polygon fill="white" stroke="#666666" points="188,-251.5 69.25,-251.5 69.25,-232.25 188,-232.25 188,-251.5"/>
<text xml:space="preserve" text-anchor="middle" x="128.62" y="-238" font-family="Helvetica,sans-Serif" font-size="10.00">ImFusion::GlAnnotation</text>
</a>
</g>
</g>
<!-- Node4&#45;&gt;Node3 -->
<g id="edge3_Node000003_Node000004" class="edge">
<title>Node4&#45;&gt;Node3</title>
<g id="a_edge3_Node000003_Node000004"><a xlink:title=" ">
<path fill="none" stroke="#63b8ff" d="M128.62,-220.63C128.62,-212.34 128.62,-203.17 128.62,-196.61"/>
<polygon fill="#63b8ff" stroke="#63b8ff" points="125.13,-220.57 128.63,-230.57 132.13,-220.57 125.13,-220.57"/>
</a>
</g>
</g>
<!-- Node5 -->
<g id="Node000005" class="node">
<title>Node5</title>
<g id="a_Node000005"><a xlink:href="class_im_fusion_1_1_gl_object.html" target="_top" xlink:title="Abstract base class for an renderable OpenGL object that can be hosted in a GlView.">
<polygon fill="white" stroke="#666666" points="109,-306.75 8.25,-306.75 8.25,-287.5 109,-287.5 109,-306.75"/>
<text xml:space="preserve" text-anchor="middle" x="58.62" y="-293.25" font-family="Helvetica,sans-Serif" font-size="10.00">ImFusion::GlObject</text>
</a>
</g>
</g>
<!-- Node5&#45;&gt;Node4 -->
<g id="edge4_Node000004_Node000005" class="edge">
<title>Node5&#45;&gt;Node4</title>
<g id="a_edge4_Node000004_Node000005"><a xlink:title=" ">
<path fill="none" stroke="#63b8ff" d="M79.57,-280.19C91.8,-270.89 106.76,-259.51 116.93,-251.77"/>
<polygon fill="#63b8ff" stroke="#63b8ff" points="77.54,-277.34 71.7,-286.18 81.78,-282.91 77.54,-277.34"/>
</a>
</g>
</g>
<!-- Node6 -->
<g id="Node000006" class="node">
<title>Node6</title>
<g id="a_Node000006"><a xlink:href="class_im_fusion_1_1_configurable.html" target="_top" xlink:title="Base interface for classes that support object serialization from/to Properties objects.">
<polygon fill="white" stroke="#666666" points="117.25,-362 0,-362 0,-342.75 117.25,-342.75 117.25,-362"/>
<text xml:space="preserve" text-anchor="middle" x="58.62" y="-348.5" font-family="Helvetica,sans-Serif" font-size="10.00">ImFusion::Configurable</text>
</a>
</g>
</g>
<!-- Node6&#45;&gt;Node5 -->
<g id="edge5_Node000005_Node000006" class="edge">
<title>Node6&#45;&gt;Node5</title>
<g id="a_edge5_Node000005_Node000006"><a xlink:title=" ">
<path fill="none" stroke="#63b8ff" d="M58.62,-331.13C58.62,-322.84 58.62,-313.67 58.62,-307.11"/>
<polygon fill="#63b8ff" stroke="#63b8ff" points="55.13,-331.07 58.63,-341.07 62.13,-331.07 55.13,-331.07"/>
</a>
</g>
</g>
<!-- Node7 -->
<g id="Node000007" class="node">
<title>Node7</title>
<g id="a_Node000007"><a xlink:href="class_im_fusion_1_1_utils_1_1_not_copyable.html" target="_top" xlink:title="Inherit from this class if your class should be neither copy&#45;constructible nor assignable.">
<polygon fill="white" stroke="#666666" points="272.5,-306.75 126.75,-306.75 126.75,-287.5 272.5,-287.5 272.5,-306.75"/>
<text xml:space="preserve" text-anchor="middle" x="199.62" y="-293.25" font-family="Helvetica,sans-Serif" font-size="10.00">ImFusion::Utils::NotCopyable</text>
</a>
</g>
</g>
<!-- Node7&#45;&gt;Node4 -->
<g id="edge6_Node000004_Node000007" class="edge">
<title>Node7&#45;&gt;Node4</title>
<g id="a_edge6_Node000004_Node000007"><a xlink:title=" ">
<path fill="none" stroke="#8b1a1a" d="M178.38,-280.19C165.98,-270.89 150.8,-259.51 140.49,-251.77"/>
<polygon fill="#8b1a1a" stroke="#8b1a1a" points="176.27,-282.98 186.37,-286.18 180.47,-277.38 176.27,-282.98"/>
</a>
</g>
</g>
</g>
</svg>
