<?xml version="1.0" encoding="UTF-8" standalone="no"?>
<!DOCTYPE svg PUBLIC "-//W3C//DTD SVG 1.1//EN"
 "http://www.w3.org/Graphics/SVG/1.1/DTD/svg11.dtd">
<!-- Generated by graphviz version 14.1.4 (20260321.0153)
 -->
<!-- Title: ImFusion::CustomImage Pages: 1 -->
<svg width="132pt" height="138pt"
 viewBox="0.00 0.00 132.00 138.00" xmlns="http://www.w3.org/2000/svg" xmlns:xlink="http://www.w3.org/1999/xlink">
<g id="graph0" class="graph" transform="scale(1 1) rotate(0) translate(4 133.75)">
<title>ImFusion::CustomImage</title>
<!-- Node1 -->
<g id="Node000001" class="node">
<title>Node1</title>
<g id="a_Node000001"><a xlink:title="Base interface for custom Image types that can be converted from/to MemImages and are supported by Sh...">
<polygon fill="#999999" stroke="#666666" points="124,-19.25 0,-19.25 0,0 124,0 124,-19.25"/>
<text xml:space="preserve" text-anchor="middle" x="62" y="-5.75" font-family="Helvetica,sans-Serif" font-size="10.00">ImFusion::CustomImage</text>
</a>
</g>
</g>
<!-- Node2 -->
<g id="Node000002" class="node">
<title>Node2</title>
<g id="a_Node000002"><a xlink:href="class_im_fusion_1_1_image.html" target="_top" xlink:title="Base class and interface for images.">
<polygon fill="white" stroke="#666666" points="106.75,-74.5 17.25,-74.5 17.25,-55.25 106.75,-55.25 106.75,-74.5"/>
<text xml:space="preserve" text-anchor="middle" x="62" y="-61" font-family="Helvetica,sans-Serif" font-size="10.00">ImFusion::Image</text>
</a>
</g>
</g>
<!-- Node2&#45;&gt;Node1 -->
<g id="edge1_Node000001_Node000002" class="edge">
<title>Node2&#45;&gt;Node1</title>
<g id="a_edge1_Node000001_Node000002"><a xlink:title=" ">
<path fill="none" stroke="#63b8ff" d="M62,-43.63C62,-35.34 62,-26.17 62,-19.61"/>
<polygon fill="#63b8ff" stroke="#63b8ff" points="58.5,-43.57 62,-53.57 65.5,-43.57 58.5,-43.57"/>
</a>
</g>
</g>
<!-- Node3 -->
<g id="Node000003" class="node">
<title>Node3</title>
<g id="a_Node000003"><a xlink:href="class_im_fusion_1_1_configurable.html" target="_top" xlink:title="Base interface for classes that support object serialization from/to Properties objects.">
<polygon fill="white" stroke="#666666" points="120.62,-129.75 3.38,-129.75 3.38,-110.5 120.62,-110.5 120.62,-129.75"/>
<text xml:space="preserve" text-anchor="middle" x="62" y="-116.25" font-family="Helvetica,sans-Serif" font-size="10.00">ImFusion::Configurable</text>
</a>
</g>
</g>
<!-- Node3&#45;&gt;Node2 -->
<g id="edge2_Node000002_Node000003" class="edge">
<title>Node3&#45;&gt;Node2</title>
<g id="a_edge2_Node000002_Node000003"><a xlink:title=" ">
<path fill="none" stroke="#63b8ff" d="M62,-98.88C62,-90.59 62,-81.42 62,-74.86"/>
<polygon fill="#63b8ff" stroke="#63b8ff" points="58.5,-98.82 62,-108.82 65.5,-98.82 58.5,-98.82"/>
</a>
</g>
</g>
</g>
</svg>
