<?xml version="1.0" encoding="UTF-8" standalone="no"?>
<!DOCTYPE svg PUBLIC "-//W3C//DTD SVG 1.1//EN"
 "http://www.w3.org/Graphics/SVG/1.1/DTD/svg11.dtd">
<!-- Generated by graphviz version 14.1.4 (20260321.0153)
 -->
<!-- Title: ImFusion::GlReduction Pages: 1 -->
<svg width="495pt" height="175pt"
 viewBox="0.00 0.00 495.00 175.00" xmlns="http://www.w3.org/2000/svg" xmlns:xlink="http://www.w3.org/1999/xlink">

<svg id="main" version="1.1" xmlns="http://www.w3.org/2000/svg" xmlns:xlink="http://www.w3.org/1999/xlink" xml:space="preserve">

<style type="text/css"><![CDATA[
.node, .edge {opacity: 0.7;}
.node.selected, .edge.selected {opacity: 1;}
.edge:hover path { stroke: red; }
.edge:hover polygon { stroke: red; fill: red; }
]]></style>
<script type="application/ecmascript" xlink:href="svg.min.js"/>
<svg id="graph" class="graph">
<g id="graph0" class="graph" transform="scale(1 1) rotate(0) translate(4 171.25)">
<title>ImFusion::GlReduction</title>
<!-- Node1 -->
<g id="Node000001" class="node">
<title>Node1</title>
<g id="a_Node000001"><a xlink:title="High&#45;performance implementation of a reduction of 2D and 3D images using OpenGL.">
<polygon fill="#999999" stroke="#666666" points="298.25,-93.25 181.75,-93.25 181.75,-74 298.25,-74 298.25,-93.25"/>
<text xml:space="preserve" text-anchor="middle" x="240" y="-79.75" font-family="Helvetica,sans-Serif" font-size="10.00">ImFusion::GlReduction</text>
</a>
</g>
</g>
<!-- Node3 -->
<g id="Node000003" class="node">
<title>Node3</title>
<g id="a_Node000003"><a xlink:href="class_im_fusion_1_1_gl_average_reduction.html" target="_top" xlink:title="Specialization of GlReduction performing a ReductionOperator::AVERAGE reduction.">
<polygon fill="white" stroke="#666666" points="486.75,-167.25 334.25,-167.25 334.25,-148 486.75,-148 486.75,-167.25"/>
<text xml:space="preserve" text-anchor="middle" x="410.5" y="-153.75" font-family="Helvetica,sans-Serif" font-size="10.00">ImFusion::GlAverageReduction</text>
</a>
</g>
</g>
<!-- Node1&#45;&gt;Node3 -->
<g id="edge2_Node000001_Node000003" class="edge">
<title>Node1&#45;&gt;Node3</title>
<g id="a_edge2_Node000001_Node000003"><a xlink:title=" ">
<path fill="none" stroke="#63b8ff" d="M263.73,-99.99C282,-112.46 308.73,-129.2 334.25,-139.62 341.84,-142.72 350.08,-145.37 358.24,-147.6"/>
<polygon fill="#63b8ff" stroke="#63b8ff" points="265.96,-97.28 255.76,-94.44 261.96,-103.02 265.96,-97.28"/>
</a>
</g>
</g>
<!-- Node4 -->
<g id="Node000004" class="node">
<title>Node4</title>
<g id="a_Node000004"><a xlink:href="class_im_fusion_1_1_gl_max_reduction.html" target="_top" xlink:title="Specialization of GlReduction performing a ReductionOperator::MAX reduction.">
<polygon fill="white" stroke="#666666" points="478.12,-130.25 342.88,-130.25 342.88,-111 478.12,-111 478.12,-130.25"/>
<text xml:space="preserve" text-anchor="middle" x="410.5" y="-116.75" font-family="Helvetica,sans-Serif" font-size="10.00">ImFusion::GlMaxReduction</text>
</a>
</g>
</g>
<!-- Node1&#45;&gt;Node4 -->
<g id="edge3_Node000001_Node000004" class="edge">
<title>Node1&#45;&gt;Node4</title>
<g id="a_edge3_Node000001_Node000004"><a xlink:title=" ">
<path fill="none" stroke="#63b8ff" d="M298.23,-96.19C319.51,-100.87 343.37,-106.1 363.51,-110.53"/>
<polygon fill="#63b8ff" stroke="#63b8ff" points="299.04,-92.79 288.52,-94.06 297.54,-99.62 299.04,-92.79"/>
</a>
</g>
</g>
<!-- Node5 -->
<g id="Node000005" class="node">
<title>Node5</title>
<g id="a_Node000005"><a xlink:href="class_im_fusion_1_1_gl_min_reduction.html" target="_top" xlink:title="Specialization of GlReduction performing a ReductionOperator::MIN reduction.">
<polygon fill="white" stroke="#666666" points="476.62,-93.25 344.38,-93.25 344.38,-74 476.62,-74 476.62,-93.25"/>
<text xml:space="preserve" text-anchor="middle" x="410.5" y="-79.75" font-family="Helvetica,sans-Serif" font-size="10.00">ImFusion::GlMinReduction</text>
</a>
</g>
</g>
<!-- Node1&#45;&gt;Node5 -->
<g id="edge4_Node000001_Node000005" class="edge">
<title>Node1&#45;&gt;Node5</title>
<g id="a_edge4_Node000001_Node000005"><a xlink:title=" ">
<path fill="none" stroke="#63b8ff" d="M309.72,-83.62C321.09,-83.62 332.85,-83.62 344.13,-83.62"/>
<polygon fill="#63b8ff" stroke="#63b8ff" points="310.03,-80.13 300.03,-83.63 310.03,-87.13 310.03,-80.13"/>
</a>
</g>
</g>
<!-- Node6 -->
<g id="Node000006" class="node">
<title>Node6</title>
<g id="a_Node000006"><a xlink:href="class_im_fusion_1_1_gl_product_reduction.html" target="_top" xlink:title="Specialization of GlReduction performing a ReductionOperator::PRODUCT reduction.">
<polygon fill="white" stroke="#666666" points="485.62,-56.25 335.38,-56.25 335.38,-37 485.62,-37 485.62,-56.25"/>
<text xml:space="preserve" text-anchor="middle" x="410.5" y="-42.75" font-family="Helvetica,sans-Serif" font-size="10.00">ImFusion::GlProductReduction</text>
</a>
</g>
</g>
<!-- Node1&#45;&gt;Node6 -->
<g id="edge5_Node000001_Node000006" class="edge">
<title>Node1&#45;&gt;Node6</title>
<g id="a_edge5_Node000001_Node000006"><a xlink:title=" ">
<path fill="none" stroke="#63b8ff" d="M298.23,-71.06C319.51,-66.38 343.37,-61.15 363.51,-56.72"/>
<polygon fill="#63b8ff" stroke="#63b8ff" points="297.54,-67.63 288.52,-73.19 299.04,-74.46 297.54,-67.63"/>
</a>
</g>
</g>
<!-- Node7 -->
<g id="Node000007" class="node">
<title>Node7</title>
<g id="a_Node000007"><a xlink:href="class_im_fusion_1_1_gl_sum_reduction.html" target="_top" xlink:title="Specialization of GlReduction performing a ReductionOperator::SUM reduction.">
<polygon fill="white" stroke="#666666" points="478.88,-19.25 342.12,-19.25 342.12,0 478.88,0 478.88,-19.25"/>
<text xml:space="preserve" text-anchor="middle" x="410.5" y="-5.75" font-family="Helvetica,sans-Serif" font-size="10.00">ImFusion::GlSumReduction</text>
</a>
</g>
</g>
<!-- Node1&#45;&gt;Node7 -->
<g id="edge6_Node000001_Node000007" class="edge">
<title>Node1&#45;&gt;Node7</title>
<g id="a_edge6_Node000001_Node000007"><a xlink:title=" ">
<path fill="none" stroke="#63b8ff" d="M263.73,-67.26C282,-54.79 308.73,-38.05 334.25,-27.62 341.84,-24.53 350.08,-21.88 358.24,-19.65"/>
<polygon fill="#63b8ff" stroke="#63b8ff" points="261.96,-64.23 255.76,-72.81 265.96,-69.97 261.96,-64.23"/>
</a>
</g>
</g>
<!-- Node2 -->
<g id="Node000002" class="node">
<title>Node2</title>
<g id="a_Node000002"><a xlink:href="class_im_fusion_1_1_utils_1_1_not_copyable.html" target="_top" xlink:title="Inherit from this class if your class should be neither copy&#45;constructible nor assignable.">
<polygon fill="white" stroke="#666666" points="145.75,-93.25 0,-93.25 0,-74 145.75,-74 145.75,-93.25"/>
<text xml:space="preserve" text-anchor="middle" x="72.88" y="-79.75" font-family="Helvetica,sans-Serif" font-size="10.00">ImFusion::Utils::NotCopyable</text>
</a>
</g>
</g>
<!-- Node2&#45;&gt;Node1 -->
<g id="edge1_Node000001_Node000002" class="edge">
<title>Node2&#45;&gt;Node1</title>
<g id="a_edge1_Node000001_Node000002"><a xlink:title=" ">
<path fill="none" stroke="#8b1a1a" d="M157.32,-83.62C165.47,-83.62 173.62,-83.62 181.43,-83.62"/>
<polygon fill="#8b1a1a" stroke="#8b1a1a" points="157.33,-80.13 147.33,-83.63 157.33,-87.13 157.33,-80.13"/>
</a>
</g>
</g>
</g>
</svg>
</svg>

<style type='text/css'>
<![CDATA[
[data-mouse-over-selected='false'] { opacity: 0.7; }
[data-mouse-over-selected='true']  { opacity: 1.0; }
]]>
</style>
<script type="application/ecmascript"><![CDATA[
document.addEventListener('DOMContentLoaded', (event) => {
  highlightEdges();
  highlightAdjacentNodes();
});
]]></script>
</svg>
