<?xml version="1.0" encoding="UTF-8" standalone="no"?>
<!DOCTYPE svg PUBLIC "-//W3C//DTD SVG 1.1//EN"
 "http://www.w3.org/Graphics/SVG/1.1/DTD/svg11.dtd">
<!-- Generated by graphviz version 14.1.4 (20260321.0153)
 -->
<!-- Title: ImFusion::ParamControl Pages: 1 -->
<svg width="507pt" height="556pt"
 viewBox="0.00 0.00 507.00 556.00" xmlns="http://www.w3.org/2000/svg" xmlns:xlink="http://www.w3.org/1999/xlink">
<g id="graph0" class="graph" transform="scale(1 1) rotate(0) translate(4 552.25)">
<title>ImFusion::ParamControl</title>
<!-- Node1 -->
<g id="Node000001" class="node">
<title>Node1</title>
<g id="a_Node000001"><a xlink:title="Base class for parameter controls.">
<polygon fill="#999999" stroke="#666666" points="304.25,-262.25 181.75,-262.25 181.75,-243 304.25,-243 304.25,-262.25"/>
<text xml:space="preserve" text-anchor="middle" x="243" y="-248.75" font-family="Helvetica,sans-Serif" font-size="10.00">ImFusion::ParamControl</text>
</a>
</g>
</g>
<!-- Node4 -->
<g id="Node000004" class="node">
<title>Node4</title>
<g id="a_Node000004"><a xlink:href="class_im_fusion_1_1_bool_param_control.html" target="_top" xlink:title="Represent a ParamType::Bool with a QCheckBox.">
<polygon fill="white" stroke="#666666" points="490.5,-548.25 348.5,-548.25 348.5,-529 490.5,-529 490.5,-548.25"/>
<text xml:space="preserve" text-anchor="middle" x="419.5" y="-534.75" font-family="Helvetica,sans-Serif" font-size="10.00">ImFusion::BoolParamControl</text>
</a>
</g>
</g>
<!-- Node1&#45;&gt;Node4 -->
<g id="edge3_Node000001_Node000004" class="edge">
<title>Node1&#45;&gt;Node4</title>
<g id="a_edge3_Node000001_Node000004"><a xlink:title=" ">
<path fill="none" stroke="#63b8ff" d="M245.13,-274.09C249.01,-324.85 266.04,-453.01 340.25,-519.62 344.31,-523.27 348.94,-526.24 353.89,-528.66"/>
<polygon fill="#63b8ff" stroke="#63b8ff" points="248.63,-273.95 244.49,-264.19 241.64,-274.4 248.63,-273.95"/>
</a>
</g>
</g>
<!-- Node5 -->
<g id="Node000005" class="node">
<title>Node5</title>
<g id="a_Node000005"><a xlink:href="class_im_fusion_1_1_color_picker_param_control.html" target="_top" xlink:title="Represent a ParamType::Vector with a QPushButton that displays the vector as a color and opens a QCol...">
<polygon fill="white" stroke="#666666" points="490.5,-510.88 348.5,-510.88 348.5,-480.38 490.5,-480.38 490.5,-510.88"/>
<text xml:space="preserve" text-anchor="start" x="356.5" y="-497.38" font-family="Helvetica,sans-Serif" font-size="10.00">ImFusion::ColorPickerParam</text>
<text xml:space="preserve" text-anchor="middle" x="419.5" y="-486.12" font-family="Helvetica,sans-Serif" font-size="10.00">Control</text>
</a>
</g>
</g>
<!-- Node1&#45;&gt;Node5 -->
<g id="edge4_Node000001_Node000005" class="edge">
<title>Node1&#45;&gt;Node5</title>
<g id="a_edge4_Node000001_Node000005"><a xlink:title=" ">
<path fill="none" stroke="#63b8ff" d="M247.42,-273.89C255.52,-317.26 279.89,-416.37 340.25,-470.62 344.28,-474.25 348.84,-477.35 353.68,-479.99"/>
<polygon fill="#63b8ff" stroke="#63b8ff" points="250.87,-273.3 245.71,-264.04 243.98,-274.5 250.87,-273.3"/>
</a>
</g>
</g>
<!-- Node6 -->
<g id="Node000006" class="node">
<title>Node6</title>
<g id="a_Node000006"><a xlink:href="class_im_fusion_1_1_double_adjuster_param_control.html" target="_top" xlink:title="Represent a ParamType::Double with a DoubleAdjusterWidget.">
<polygon fill="white" stroke="#666666" points="484.12,-461.88 354.88,-461.88 354.88,-431.38 484.12,-431.38 484.12,-461.88"/>
<text xml:space="preserve" text-anchor="start" x="362.88" y="-448.38" font-family="Helvetica,sans-Serif" font-size="10.00">ImFusion::DoubleAdjuster</text>
<text xml:space="preserve" text-anchor="middle" x="419.5" y="-437.12" font-family="Helvetica,sans-Serif" font-size="10.00">ParamControl</text>
</a>
</g>
</g>
<!-- Node1&#45;&gt;Node6 -->
<g id="edge5_Node000001_Node000006" class="edge">
<title>Node1&#45;&gt;Node6</title>
<g id="a_edge5_Node000001_Node000006"><a xlink:title=" ">
<path fill="none" stroke="#63b8ff" d="M250.1,-273.36C261.7,-309.15 290.34,-382.54 340.25,-422.62 344.57,-426.1 349.39,-429.06 354.46,-431.61"/>
<polygon fill="#63b8ff" stroke="#63b8ff" points="253.45,-272.35 247.15,-263.83 246.77,-274.42 253.45,-272.35"/>
</a>
</g>
</g>
<!-- Node7 -->
<g id="Node000007" class="node">
<title>Node7</title>
<g id="a_Node000007"><a xlink:href="class_im_fusion_1_1_double_param_control.html" target="_top" xlink:title="Represent a ParamType::Double with a QDoubleSpinBox.">
<polygon fill="white" stroke="#666666" points="496.12,-413.25 342.88,-413.25 342.88,-394 496.12,-394 496.12,-413.25"/>
<text xml:space="preserve" text-anchor="middle" x="419.5" y="-399.75" font-family="Helvetica,sans-Serif" font-size="10.00">ImFusion::DoubleParamControl</text>
</a>
</g>
</g>
<!-- Node1&#45;&gt;Node7 -->
<g id="edge6_Node000001_Node000007" class="edge">
<title>Node1&#45;&gt;Node7</title>
<g id="a_edge6_Node000001_Node000007"><a xlink:title=" ">
<path fill="none" stroke="#63b8ff" d="M252.96,-272.64C267.14,-301.93 297.58,-356.09 340.25,-384.62 345.71,-388.28 351.81,-391.23 358.11,-393.61"/>
<polygon fill="#63b8ff" stroke="#63b8ff" points="256.23,-271.36 248.82,-263.78 249.88,-274.32 256.23,-271.36"/>
</a>
</g>
</g>
<!-- Node8 -->
<g id="Node000008" class="node">
<title>Node8</title>
<g id="a_Node000008"><a xlink:href="class_im_fusion_1_1_eigen_matrix_param_control.html" target="_top" xlink:title="ParamControl for Eigen Types (Properties::ParamType::Matrix and Properties::ParamType::Vector).">
<polygon fill="white" stroke="#666666" points="490.88,-375.88 348.12,-375.88 348.12,-345.38 490.88,-345.38 490.88,-375.88"/>
<text xml:space="preserve" text-anchor="start" x="356.12" y="-362.38" font-family="Helvetica,sans-Serif" font-size="10.00">ImFusion::EigenMatrixParam</text>
<text xml:space="preserve" text-anchor="middle" x="419.5" y="-351.12" font-family="Helvetica,sans-Serif" font-size="10.00">Control</text>
</a>
</g>
</g>
<!-- Node1&#45;&gt;Node8 -->
<g id="edge7_Node000001_Node000008" class="edge">
<title>Node1&#45;&gt;Node8</title>
<g id="a_edge7_Node000001_Node000008"><a xlink:title=" ">
<path fill="none" stroke="#63b8ff" d="M260.56,-271.07C278.49,-290.01 308.77,-319.12 340.25,-336.62 345.84,-339.73 351.88,-342.49 358.04,-344.92"/>
<polygon fill="#63b8ff" stroke="#63b8ff" points="263.19,-268.76 253.83,-263.8 258.05,-273.51 263.19,-268.76"/>
</a>
</g>
</g>
<!-- Node9 -->
<g id="Node000009" class="node">
<title>Node9</title>
<g id="a_Node000009"><a xlink:href="class_im_fusion_1_1_enum_param_control.html" target="_top" xlink:title="Represent a ParamType::Enum and ParamType::EnumString with a QComboBox.">
<polygon fill="white" stroke="#666666" points="493.5,-327.25 345.5,-327.25 345.5,-308 493.5,-308 493.5,-327.25"/>
<text xml:space="preserve" text-anchor="middle" x="419.5" y="-313.75" font-family="Helvetica,sans-Serif" font-size="10.00">ImFusion::EnumParamControl</text>
</a>
</g>
</g>
<!-- Node1&#45;&gt;Node9 -->
<g id="edge8_Node000001_Node000009" class="edge">
<title>Node1&#45;&gt;Node9</title>
<g id="a_edge8_Node000001_Node000009"><a xlink:title=" ">
<path fill="none" stroke="#63b8ff" d="M271.95,-267.89C290.82,-277.71 316.51,-290.17 340.25,-298.62 349.73,-302 360.07,-304.98 370.03,-307.52"/>
<polygon fill="#63b8ff" stroke="#63b8ff" points="273.78,-264.9 263.31,-263.31 270.51,-271.09 273.78,-264.9"/>
</a>
</g>
</g>
<!-- Node10 -->
<g id="Node000010" class="node">
<title>Node10</title>
<g id="a_Node000010"><a xlink:href="class_im_fusion_1_1_integer_adjuster_param_control.html" target="_top" xlink:title="Represent a ParamType::Integer with a IntAdjusterWidget.">
<polygon fill="white" stroke="#666666" points="483.75,-289.88 355.25,-289.88 355.25,-259.38 483.75,-259.38 483.75,-289.88"/>
<text xml:space="preserve" text-anchor="start" x="363.25" y="-276.38" font-family="Helvetica,sans-Serif" font-size="10.00">ImFusion::IntegerAdjuster</text>
<text xml:space="preserve" text-anchor="middle" x="419.5" y="-265.12" font-family="Helvetica,sans-Serif" font-size="10.00">ParamControl</text>
</a>
</g>
</g>
<!-- Node1&#45;&gt;Node10 -->
<g id="edge9_Node000001_Node000010" class="edge">
<title>Node1&#45;&gt;Node10</title>
<g id="a_edge9_Node000001_Node000010"><a xlink:title=" ">
<path fill="none" stroke="#63b8ff" d="M315.76,-261.67C328.7,-263.3 342.11,-264.99 354.8,-266.59"/>
<polygon fill="#63b8ff" stroke="#63b8ff" points="316.4,-258.23 306.04,-260.45 315.53,-265.17 316.4,-258.23"/>
</a>
</g>
</g>
<!-- Node11 -->
<g id="Node000011" class="node">
<title>Node11</title>
<g id="a_Node000011"><a xlink:href="class_im_fusion_1_1_integer_param_control.html" target="_top" xlink:title="Represent a ParamType::Integer with a QSpinBox.">
<polygon fill="white" stroke="#666666" points="495.75,-241.25 343.25,-241.25 343.25,-222 495.75,-222 495.75,-241.25"/>
<text xml:space="preserve" text-anchor="middle" x="419.5" y="-227.75" font-family="Helvetica,sans-Serif" font-size="10.00">ImFusion::IntegerParamControl</text>
</a>
</g>
</g>
<!-- Node1&#45;&gt;Node11 -->
<g id="edge10_Node000001_Node000011" class="edge">
<title>Node1&#45;&gt;Node11</title>
<g id="a_edge10_Node000001_Node000011"><a xlink:title=" ">
<path fill="none" stroke="#63b8ff" d="M315.77,-243.99C324.75,-242.91 333.96,-241.8 343,-240.71"/>
<polygon fill="#63b8ff" stroke="#63b8ff" points="315.55,-240.49 306.04,-245.16 316.39,-247.44 315.55,-240.49"/>
</a>
</g>
</g>
<!-- Node12 -->
<g id="Node000012" class="node">
<title>Node12</title>
<g id="a_Node000012"><a xlink:href="class_im_fusion_1_1_labeled_param_control.html" target="_top" xlink:title="Composite control that wraps an existing ParamControl and adds a label to the left of it.">
<polygon fill="white" stroke="#666666" points="497.62,-204.25 341.38,-204.25 341.38,-185 497.62,-185 497.62,-204.25"/>
<text xml:space="preserve" text-anchor="middle" x="419.5" y="-190.75" font-family="Helvetica,sans-Serif" font-size="10.00">ImFusion::LabeledParamControl</text>
</a>
</g>
</g>
<!-- Node1&#45;&gt;Node12 -->
<g id="edge11_Node000001_Node000012" class="edge">
<title>Node1&#45;&gt;Node12</title>
<g id="a_edge11_Node000001_Node000012"><a xlink:title=" ">
<path fill="none" stroke="#63b8ff" d="M275.89,-237.79C294.39,-229.58 318.31,-219.65 340.25,-212.62 349.41,-209.69 359.32,-207.03 368.9,-204.71"/>
<polygon fill="#63b8ff" stroke="#63b8ff" points="274.46,-234.59 266.78,-241.89 277.34,-240.97 274.46,-234.59"/>
</a>
</g>
</g>
<!-- Node13 -->
<g id="Node000013" class="node">
<title>Node13</title>
<g id="a_Node000013"><a xlink:href="class_im_fusion_1_1_matrix_param_control.html" target="_top" xlink:title=" ">
<polygon fill="white" stroke="#bfbfbf" points="494.25,-167.25 344.75,-167.25 344.75,-148 494.25,-148 494.25,-167.25"/>
<text xml:space="preserve" text-anchor="middle" x="419.5" y="-153.75" font-family="Helvetica,sans-Serif" font-size="10.00">ImFusion::MatrixParamControl</text>
</a>
</g>
</g>
<!-- Node1&#45;&gt;Node13 -->
<g id="edge12_Node000001_Node000013" class="edge">
<title>Node1&#45;&gt;Node13</title>
<g id="a_edge12_Node000001_Node000013"><a xlink:title=" ">
<path fill="none" stroke="#63b8ff" d="M261.21,-234.78C279.27,-217.11 309.29,-190.6 340.25,-175.62 346.78,-172.47 353.88,-169.85 361.06,-167.69"/>
<polygon fill="#63b8ff" stroke="#63b8ff" points="259.01,-232.03 254.43,-241.58 263.97,-236.98 259.01,-232.03"/>
</a>
</g>
</g>
<!-- Node14 -->
<g id="Node000014" class="node">
<title>Node14</title>
<g id="a_Node000014"><a xlink:href="class_im_fusion_1_1_optional_param_control.html" target="_top" xlink:title="Composite control that wraps an existing ParamControl and adds a checkbox to the left of it.">
<polygon fill="white" stroke="#666666" points="498.75,-130.25 340.25,-130.25 340.25,-111 498.75,-111 498.75,-130.25"/>
<text xml:space="preserve" text-anchor="middle" x="419.5" y="-116.75" font-family="Helvetica,sans-Serif" font-size="10.00">ImFusion::OptionalParamControl</text>
</a>
</g>
</g>
<!-- Node1&#45;&gt;Node14 -->
<g id="edge13_Node000001_Node000014" class="edge">
<title>Node1&#45;&gt;Node14</title>
<g id="a_edge13_Node000001_Node000014"><a xlink:title=" ">
<path fill="none" stroke="#63b8ff" d="M255.19,-232.7C270.79,-206.84 301.56,-162.24 340.25,-138.62 345.49,-135.43 351.23,-132.8 357.16,-130.64"/>
<polygon fill="#63b8ff" stroke="#63b8ff" points="252.24,-230.81 250.22,-241.21 258.28,-234.34 252.24,-230.81"/>
</a>
</g>
</g>
<!-- Node15 -->
<g id="Node000015" class="node">
<title>Node15</title>
<g id="a_Node000015"><a xlink:href="class_im_fusion_1_1_path_param_control.html" target="_top" xlink:title="Represent a ParamType::Path with a QLineEdit and a QToolButton that opens a file dialog.">
<polygon fill="white" stroke="#666666" points="490.88,-93.25 348.12,-93.25 348.12,-74 490.88,-74 490.88,-93.25"/>
<text xml:space="preserve" text-anchor="middle" x="419.5" y="-79.75" font-family="Helvetica,sans-Serif" font-size="10.00">ImFusion::PathParamControl</text>
</a>
</g>
</g>
<!-- Node1&#45;&gt;Node15 -->
<g id="edge14_Node000001_Node000015" class="edge">
<title>Node1&#45;&gt;Node15</title>
<g id="a_edge14_Node000001_Node000015"><a xlink:title=" ">
<path fill="none" stroke="#63b8ff" d="M251.21,-232.01C263.84,-199.05 293.2,-134.84 340.25,-101.62 344.69,-98.49 349.6,-95.89 354.72,-93.74"/>
<polygon fill="#63b8ff" stroke="#63b8ff" points="248,-230.61 247.83,-241.2 254.57,-233.02 248,-230.61"/>
</a>
</g>
</g>
<!-- Node16 -->
<g id="Node000016" class="node">
<title>Node16</title>
<g id="a_Node000016"><a xlink:href="class_im_fusion_1_1_string_param_control.html" target="_top" xlink:title="Represent a ParamType::String with a QLineEdit.">
<polygon fill="white" stroke="#666666" points="493.5,-56.25 345.5,-56.25 345.5,-37 493.5,-37 493.5,-56.25"/>
<text xml:space="preserve" text-anchor="middle" x="419.5" y="-42.75" font-family="Helvetica,sans-Serif" font-size="10.00">ImFusion::StringParamControl</text>
</a>
</g>
</g>
<!-- Node1&#45;&gt;Node16 -->
<g id="edge15_Node000001_Node000016" class="edge">
<title>Node1&#45;&gt;Node16</title>
<g id="a_edge15_Node000001_Node000016"><a xlink:title=" ">
<path fill="none" stroke="#63b8ff" d="M248.6,-231.49C258.29,-192.18 284.66,-107.94 340.25,-64.62 344.32,-61.46 348.85,-58.83 353.61,-56.65"/>
<polygon fill="#63b8ff" stroke="#63b8ff" points="245.22,-230.55 246.36,-241.08 252.04,-232.14 245.22,-230.55"/>
</a>
</g>
</g>
<!-- Node17 -->
<g id="Node000017" class="node">
<title>Node17</title>
<g id="a_Node000017"><a xlink:href="class_im_fusion_1_1_text_param_control.html" target="_top" xlink:title="Represent a ParamType::String with a QTextEdit.">
<polygon fill="white" stroke="#666666" points="490.12,-19.25 348.88,-19.25 348.88,0 490.12,0 490.12,-19.25"/>
<text xml:space="preserve" text-anchor="middle" x="419.5" y="-5.75" font-family="Helvetica,sans-Serif" font-size="10.00">ImFusion::TextParamControl</text>
</a>
</g>
</g>
<!-- Node1&#45;&gt;Node17 -->
<g id="edge16_Node000001_Node000017" class="edge">
<title>Node1&#45;&gt;Node17</title>
<g id="a_edge16_Node000001_Node000017"><a xlink:title=" ">
<path fill="none" stroke="#63b8ff" d="M246.65,-231.47C253.44,-186.59 275.73,-81.56 340.25,-27.62 343.99,-24.5 348.18,-21.89 352.61,-19.71"/>
<polygon fill="#63b8ff" stroke="#63b8ff" points="243.21,-230.78 245.3,-241.17 250.15,-231.75 243.21,-230.78"/>
</a>
</g>
</g>
<!-- Node2 -->
<g id="Node000002" class="node">
<title>Node2</title>
<g id="a_Node000002"><a xlink:title=" ">
<polygon fill="white" stroke="#bfbfbf" points="98.88,-281.25 46.88,-281.25 46.88,-262 98.88,-262 98.88,-281.25"/>
<text xml:space="preserve" text-anchor="middle" x="72.88" y="-267.75" font-family="Helvetica,sans-Serif" font-size="10.00">QObject</text>
</a>
</g>
</g>
<!-- Node2&#45;&gt;Node1 -->
<g id="edge1_Node000001_Node000002" class="edge">
<title>Node2&#45;&gt;Node1</title>
<g id="a_edge1_Node000001_Node000002"><a xlink:title=" ">
<path fill="none" stroke="#63b8ff" d="M110.23,-267.52C130.98,-265.17 157.54,-262.17 181.37,-259.48"/>
<polygon fill="#63b8ff" stroke="#63b8ff" points="110.09,-264.01 100.55,-268.61 110.88,-270.97 110.09,-264.01"/>
</a>
</g>
</g>
<!-- Node3 -->
<g id="Node000003" class="node">
<title>Node3</title>
<g id="a_Node000003"><a xlink:href="class_im_fusion_1_1_utils_1_1_not_copyable.html" target="_top" xlink:title="Inherit from this class if your class should be neither copy&#45;constructible nor assignable.">
<polygon fill="white" stroke="#666666" points="145.75,-244.25 0,-244.25 0,-225 145.75,-225 145.75,-244.25"/>
<text xml:space="preserve" text-anchor="middle" x="72.88" y="-230.75" font-family="Helvetica,sans-Serif" font-size="10.00">ImFusion::Utils::NotCopyable</text>
</a>
</g>
</g>
<!-- Node3&#45;&gt;Node1 -->
<g id="edge2_Node000001_Node000003" class="edge">
<title>Node3&#45;&gt;Node1</title>
<g id="a_edge2_Node000001_Node000003"><a xlink:title=" ">
<path fill="none" stroke="#8b1a1a" d="M157.51,-243.58C165.56,-244.44 173.62,-245.3 181.39,-246.14"/>
<polygon fill="#8b1a1a" stroke="#8b1a1a" points="157.97,-240.11 147.66,-242.52 157.23,-247.07 157.97,-240.11"/>
</a>
</g>
</g>
</g>
</svg>
