<?xml version="1.0" encoding="UTF-8" standalone="no"?>
<!DOCTYPE svg PUBLIC "-//W3C//DTD SVG 1.1//EN"
 "http://www.w3.org/Graphics/SVG/1.1/DTD/svg11.dtd">
<!-- Generated by graphviz version 14.1.4 (20260321.0153)
 -->
<!-- Title: ImFusion::Log::Sink Pages: 1 -->
<svg width="288pt" height="138pt"
 viewBox="0.00 0.00 288.00 138.00" xmlns="http://www.w3.org/2000/svg" xmlns:xlink="http://www.w3.org/1999/xlink">
<g id="graph0" class="graph" transform="scale(1 1) rotate(0) translate(4 134.25)">
<title>ImFusion::Log::Sink</title>
<!-- Node1 -->
<g id="Node000001" class="node">
<title>Node1</title>
<g id="a_Node000001"><a xlink:title="Interface for a logger sink that can receive individual log events.">
<polygon fill="#999999" stroke="#666666" points="103.75,-74.25 0,-74.25 0,-55 103.75,-55 103.75,-74.25"/>
<text xml:space="preserve" text-anchor="middle" x="51.88" y="-60.75" font-family="Helvetica,sans-Serif" font-size="10.00">ImFusion::Log::Sink</text>
</a>
</g>
</g>
<!-- Node2 -->
<g id="Node000002" class="node">
<title>Node2</title>
<g id="a_Node000002"><a xlink:href="class_im_fusion_1_1_log_1_1_console_sink.html" target="_top" xlink:title="Default implementation for a Logger that prints to the attached console/terminal.">
<polygon fill="white" stroke="#666666" points="279.5,-130.25 139.75,-130.25 139.75,-111 279.5,-111 279.5,-130.25"/>
<text xml:space="preserve" text-anchor="middle" x="209.62" y="-116.75" font-family="Helvetica,sans-Serif" font-size="10.00">ImFusion::Log::ConsoleSink</text>
</a>
</g>
</g>
<!-- Node1&#45;&gt;Node2 -->
<g id="edge1_Node000001_Node000002" class="edge">
<title>Node1&#45;&gt;Node2</title>
<g id="a_edge1_Node000001_Node000002"><a xlink:title=" ">
<path fill="none" stroke="#63b8ff" d="M83.35,-79.35C99.8,-86.95 120.61,-95.98 139.75,-102.62 148.04,-105.5 157.03,-108.17 165.69,-110.52"/>
<polygon fill="#63b8ff" stroke="#63b8ff" points="85.14,-76.33 74.6,-75.25 82.17,-82.67 85.14,-76.33"/>
</a>
</g>
</g>
<!-- Node3 -->
<g id="Node000003" class="node">
<title>Node3</title>
<g id="a_Node000003"><a xlink:href="class_im_fusion_1_1_log_1_1_file_sink.html" target="_top" xlink:title="Default implementation for a Logger that writes to the filesystem.">
<polygon fill="white" stroke="#666666" points="269.38,-93.25 149.88,-93.25 149.88,-74 269.38,-74 269.38,-93.25"/>
<text xml:space="preserve" text-anchor="middle" x="209.62" y="-79.75" font-family="Helvetica,sans-Serif" font-size="10.00">ImFusion::Log::FileSink</text>
</a>
</g>
</g>
<!-- Node1&#45;&gt;Node3 -->
<g id="edge2_Node000001_Node000003" class="edge">
<title>Node1&#45;&gt;Node3</title>
<g id="a_edge2_Node000001_Node000003"><a xlink:title=" ">
<path fill="none" stroke="#63b8ff" d="M115.02,-72.21C126.35,-73.59 138.15,-75.03 149.4,-76.4"/>
<polygon fill="#63b8ff" stroke="#63b8ff" points="115.73,-68.77 105.38,-71.03 114.88,-75.71 115.73,-68.77"/>
</a>
</g>
</g>
<!-- Node4 -->
<g id="Node000004" class="node">
<title>Node4</title>
<g id="a_Node000004"><a xlink:href="class_im_fusion_1_1_log_viewer_widget.html" target="_top" xlink:title="Logging sink that manifests itself as a Qt widget showing formatted log messages and allowing for bas...">
<polygon fill="white" stroke="#666666" points="279.12,-56.25 140.12,-56.25 140.12,-37 279.12,-37 279.12,-56.25"/>
<text xml:space="preserve" text-anchor="middle" x="209.62" y="-42.75" font-family="Helvetica,sans-Serif" font-size="10.00">ImFusion::LogViewerWidget</text>
</a>
</g>
</g>
<!-- Node1&#45;&gt;Node4 -->
<g id="edge3_Node000001_Node000004" class="edge">
<title>Node1&#45;&gt;Node4</title>
<g id="a_edge3_Node000001_Node000004"><a xlink:title=" ">
<path fill="none" stroke="#63b8ff" d="M115.1,-57.43C123.19,-56.5 131.5,-55.54 139.68,-54.59"/>
<polygon fill="#63b8ff" stroke="#63b8ff" points="114.91,-53.93 105.38,-58.56 115.71,-60.89 114.91,-53.93"/>
</a>
</g>
</g>
<!-- Node5 -->
<g id="Node000005" class="node">
<title>Node5</title>
<g id="a_Node000005"><a xlink:href="class_im_fusion_1_1_q_debug_appender.html" target="_top" xlink:title=" ">
<polygon fill="white" stroke="#bfbfbf" points="279.5,-19.25 139.75,-19.25 139.75,0 279.5,0 279.5,-19.25"/>
<text xml:space="preserve" text-anchor="middle" x="209.62" y="-5.75" font-family="Helvetica,sans-Serif" font-size="10.00">ImFusion::QDebugAppender</text>
</a>
</g>
</g>
<!-- Node1&#45;&gt;Node5 -->
<g id="edge4_Node000001_Node000005" class="edge">
<title>Node1&#45;&gt;Node5</title>
<g id="a_edge4_Node000001_Node000005"><a xlink:title=" ">
<path fill="none" stroke="#63b8ff" d="M84.05,-50.03C100.41,-42.71 120.92,-34.06 139.75,-27.62 148.17,-24.75 157.3,-22.07 166.08,-19.7"/>
<polygon fill="#63b8ff" stroke="#63b8ff" points="82.99,-46.67 75.33,-53.99 85.89,-53.04 82.99,-46.67"/>
</a>
</g>
</g>
</g>
</svg>
