<?xml version="1.0" encoding="UTF-8" standalone="no"?>
<!DOCTYPE svg PUBLIC "-//W3C//DTD SVG 1.1//EN"
 "http://www.w3.org/Graphics/SVG/1.1/DTD/svg11.dtd">
<!-- Generated by graphviz version 14.1.4 (20260321.0153)
 -->
<!-- Title: ImFusion::OptimizingAlgorithm Pages: 1 -->
<svg width="705pt" height="137pt"
 viewBox="0.00 0.00 705.00 137.00" xmlns="http://www.w3.org/2000/svg" xmlns:xlink="http://www.w3.org/1999/xlink">
<g id="graph0" class="graph" transform="scale(1 1) rotate(0) translate(4 132.5)">
<title>ImFusion::OptimizingAlgorithm</title>
<!-- Node1 -->
<g id="Node000001" class="node">
<title>Node1</title>
<g id="a_Node000001"><a xlink:title="Algorithm class supporting an optimizer.">
<polygon fill="#999999" stroke="#666666" points="489,-73.88 338.75,-73.88 338.75,-54.62 489,-54.62 489,-73.88"/>
<text xml:space="preserve" text-anchor="middle" x="413.88" y="-60.38" font-family="Helvetica,sans-Serif" font-size="10.00">ImFusion::OptimizingAlgorithm</text>
</a>
</g>
</g>
<!-- Node6 -->
<g id="Node000006" class="node">
<title>Node6</title>
<g id="a_Node000006"><a xlink:href="class_im_fusion_1_1_feature_maps_registration_algorithm.html" target="_top" xlink:title="Algorithm for registering feature maps volumes.">
<polygon fill="white" stroke="#666666" points="697,-128.5 525,-128.5 525,-98 697,-98 697,-128.5"/>
<text xml:space="preserve" text-anchor="start" x="533" y="-115" font-family="Helvetica,sans-Serif" font-size="10.00">ImFusion::FeatureMapsRegistration</text>
<text xml:space="preserve" text-anchor="middle" x="611" y="-103.75" font-family="Helvetica,sans-Serif" font-size="10.00">Algorithm</text>
</a>
</g>
</g>
<!-- Node1&#45;&gt;Node6 -->
<g id="edge5_Node000001_Node000006" class="edge">
<title>Node1&#45;&gt;Node6</title>
<g id="a_edge5_Node000001_Node000006"><a xlink:title=" ">
<path fill="none" stroke="#63b8ff" d="M465.89,-77.06C490.84,-83.33 521.09,-90.92 547.43,-97.54"/>
<polygon fill="#63b8ff" stroke="#63b8ff" points="466.85,-73.69 456.3,-74.65 465.15,-80.48 466.85,-73.69"/>
</a>
</g>
</g>
<!-- Node7 -->
<g id="Node000007" class="node">
<title>Node7</title>
<g id="a_Node000007"><a xlink:href="class_im_fusion_1_1_fit_bounding_box_algorithm.html" target="_top" xlink:title="Algorithm to fit an oriented bounding box.">
<polygon fill="white" stroke="#666666" points="676.75,-79.5 545.25,-79.5 545.25,-49 676.75,-49 676.75,-79.5"/>
<text xml:space="preserve" text-anchor="start" x="553.25" y="-66" font-family="Helvetica,sans-Serif" font-size="10.00">ImFusion::FitBoundingBox</text>
<text xml:space="preserve" text-anchor="middle" x="611" y="-54.75" font-family="Helvetica,sans-Serif" font-size="10.00">Algorithm</text>
</a>
</g>
</g>
<!-- Node1&#45;&gt;Node7 -->
<g id="edge6_Node000001_Node000007" class="edge">
<title>Node1&#45;&gt;Node7</title>
<g id="a_edge6_Node000001_Node000007"><a xlink:title=" ">
<path fill="none" stroke="#63b8ff" d="M500.74,-64.25C515.59,-64.25 530.81,-64.25 545,-64.25"/>
<polygon fill="#63b8ff" stroke="#63b8ff" points="500.99,-60.75 490.99,-64.25 500.99,-67.75 500.99,-60.75"/>
</a>
</g>
</g>
<!-- Node8 -->
<g id="Node000008" class="node">
<title>Node8</title>
<g id="a_Node000008"><a xlink:href="class_im_fusion_1_1_registration_from_prediction_map_algorithm.html" target="_top" xlink:title="Algorithm to register two images based on prediction maps.">
<polygon fill="white" stroke="#666666" points="679.75,-30.5 542.25,-30.5 542.25,0 679.75,0 679.75,-30.5"/>
<text xml:space="preserve" text-anchor="start" x="550.25" y="-17" font-family="Helvetica,sans-Serif" font-size="10.00">ImFusion::RegistrationFrom</text>
<text xml:space="preserve" text-anchor="middle" x="611" y="-5.75" font-family="Helvetica,sans-Serif" font-size="10.00">PredictionMapAlgorithm</text>
</a>
</g>
</g>
<!-- Node1&#45;&gt;Node8 -->
<g id="edge7_Node000001_Node000008" class="edge">
<title>Node1&#45;&gt;Node8</title>
<g id="a_edge7_Node000001_Node000008"><a xlink:title=" ">
<path fill="none" stroke="#63b8ff" d="M465.89,-51.44C490.84,-45.17 521.09,-37.58 547.43,-30.96"/>
<polygon fill="#63b8ff" stroke="#63b8ff" points="465.15,-48.02 456.3,-53.85 466.85,-54.81 465.15,-48.02"/>
</a>
</g>
</g>
<!-- Node2 -->
<g id="Node000002" class="node">
<title>Node2</title>
<g id="a_Node000002"><a xlink:href="class_im_fusion_1_1_algorithm.html" target="_top" xlink:title="Interface for describing algorithms that can be made available in the ImFusion Suite through Algorith...">
<polygon fill="white" stroke="#666666" points="294.12,-92.88 190.38,-92.88 190.38,-73.62 294.12,-73.62 294.12,-92.88"/>
<text xml:space="preserve" text-anchor="middle" x="242.25" y="-79.38" font-family="Helvetica,sans-Serif" font-size="10.00">ImFusion::Algorithm</text>
</a>
</g>
</g>
<!-- Node2&#45;&gt;Node1 -->
<g id="edge1_Node000001_Node000002" class="edge">
<title>Node2&#45;&gt;Node1</title>
<g id="a_edge1_Node000001_Node000002"><a xlink:title=" ">
<path fill="none" stroke="#63b8ff" d="M305.9,-76.23C316.53,-75.04 327.65,-73.8 338.54,-72.58"/>
<polygon fill="#63b8ff" stroke="#63b8ff" points="305.66,-72.74 296.11,-77.33 306.44,-79.69 305.66,-72.74"/>
</a>
</g>
</g>
<!-- Node3 -->
<g id="Node000003" class="node">
<title>Node3</title>
<g id="a_Node000003"><a xlink:href="class_im_fusion_1_1_configurable.html" target="_top" xlink:title="Base interface for classes that support object serialization from/to Properties objects.">
<polygon fill="white" stroke="#666666" points="131.5,-110.88 14.25,-110.88 14.25,-91.62 131.5,-91.62 131.5,-110.88"/>
<text xml:space="preserve" text-anchor="middle" x="72.88" y="-97.38" font-family="Helvetica,sans-Serif" font-size="10.00">ImFusion::Configurable</text>
</a>
</g>
</g>
<!-- Node3&#45;&gt;Node2 -->
<g id="edge2_Node000002_Node000003" class="edge">
<title>Node3&#45;&gt;Node2</title>
<g id="a_edge2_Node000002_Node000003"><a xlink:title=" ">
<path fill="none" stroke="#63b8ff" d="M143.2,-93.79C158.86,-92.11 175.22,-90.35 189.99,-88.76"/>
<polygon fill="#63b8ff" stroke="#63b8ff" points="143.02,-90.29 133.45,-94.84 143.77,-97.25 143.02,-90.29"/>
</a>
</g>
</g>
<!-- Node4 -->
<g id="Node000004" class="node">
<title>Node4</title>
<g id="a_Node000004"><a xlink:href="class_im_fusion_1_1_utils_1_1_not_copyable.html" target="_top" xlink:title="Inherit from this class if your class should be neither copy&#45;constructible nor assignable.">
<polygon fill="white" stroke="#666666" points="145.75,-73.88 0,-73.88 0,-54.62 145.75,-54.62 145.75,-73.88"/>
<text xml:space="preserve" text-anchor="middle" x="72.88" y="-60.38" font-family="Helvetica,sans-Serif" font-size="10.00">ImFusion::Utils::NotCopyable</text>
</a>
</g>
</g>
<!-- Node4&#45;&gt;Node2 -->
<g id="edge3_Node000002_Node000004" class="edge">
<title>Node4&#45;&gt;Node2</title>
<g id="a_edge3_Node000002_Node000004"><a xlink:title=" ">
<path fill="none" stroke="#8b1a1a" d="M157.06,-73.69C168.32,-74.97 179.59,-76.25 190.07,-77.44"/>
<polygon fill="#8b1a1a" stroke="#8b1a1a" points="157.66,-70.24 147.33,-72.59 156.87,-77.19 157.66,-70.24"/>
</a>
</g>
</g>
<!-- Node5 -->
<g id="Node000005" class="node">
<title>Node5</title>
<g id="a_Node000005"><a xlink:href="class_im_fusion_1_1_cost_function.html" target="_top" xlink:title="Interface for a cost function that can be optimized.">
<polygon fill="white" stroke="#666666" points="302.75,-55.88 181.75,-55.88 181.75,-36.62 302.75,-36.62 302.75,-55.88"/>
<text xml:space="preserve" text-anchor="middle" x="242.25" y="-42.38" font-family="Helvetica,sans-Serif" font-size="10.00">ImFusion::CostFunction</text>
</a>
</g>
</g>
<!-- Node5&#45;&gt;Node1 -->
<g id="edge4_Node000001_Node000005" class="edge">
<title>Node5&#45;&gt;Node1</title>
<g id="a_edge4_Node000001_Node000005"><a xlink:title=" ">
<path fill="none" stroke="#63b8ff" d="M314.23,-53.78C322.23,-54.63 330.4,-55.5 338.45,-56.35"/>
<polygon fill="#63b8ff" stroke="#63b8ff" points="314.87,-50.33 304.56,-52.76 314.13,-57.29 314.87,-50.33"/>
</a>
</g>
</g>
</g>
</svg>
