<?xml version="1.0" encoding="UTF-8" standalone="no"?>
<!DOCTYPE svg PUBLIC "-//W3C//DTD SVG 1.1//EN"
 "http://www.w3.org/Graphics/SVG/1.1/DTD/svg11.dtd">
<!-- Generated by graphviz version 14.1.4 (20260321.0153)
 -->
<!-- Title: ImFusion::GUI::ViewObject::EventHandler Pages: 1 -->
<!--zoomable 322 -->

<svg id="main" version="1.1" xmlns="http://www.w3.org/2000/svg" xmlns:xlink="http://www.w3.org/1999/xlink" xml:space="preserve" onload="init(evt)">

<style type="text/css"><![CDATA[
.node, .edge {opacity: 0.7;}
.node.selected, .edge.selected {opacity: 1;}
.edge:hover path { stroke: red; }
.edge:hover polygon { stroke: red; fill: red; }
]]></style>

<defs>
  <circle id="rim" cx="0" cy="0" r="7"/>
  <circle id="rim2" cx="0" cy="0" r="3.5"/>
  <g id="zoomPlus">
    <use xlink:href="#rim" fill="#404040"><set attributeName="fill" to="#808080" begin="zoomplus.mouseover" end="zoomplus.mouseout"/></use>
    <path d="M-4,0h8M0,-4v8" fill="none" stroke="white" stroke-width="1.5" pointer-events="none"/>
  </g>
  <g id="zoomMin">
    <use xlink:href="#rim" fill="#404040"><set attributeName="fill" to="#808080" begin="zoomminus.mouseover" end="zoomminus.mouseout"/></use>
    <path d="M-4,0h8" fill="none" stroke="white" stroke-width="1.5" pointer-events="none"/>
  </g>
  <g id="arrowUp" transform="translate(30 24)">
    <use xlink:href="#rim"/>
    <path pointer-events="none" fill="none" stroke="white" stroke-width="1.5" d="M0,-3.0v7 M-2.5,-0.5L0,-3.0L2.5,-0.5"/>
  </g>
  <g id="arrowRight" transform="rotate(90) translate(36 -43)">
    <use xlink:href="#rim"/>
    <path pointer-events="none" fill="none" stroke="white" stroke-width="1.5" d="M0,-3.0v7 M-2.5,-0.5L0,-3.0L2.5,-0.5"/>
  </g>
  <g id="arrowDown" transform="rotate(180) translate(-30 -48)">
    <use xlink:href="#rim"/>
    <path pointer-events="none" fill="none" stroke="white" stroke-width="1.5" d="M0,-3.0v7 M-2.5,-0.5L0,-3.0L2.5,-0.5"/>
  </g>
  <g id="arrowLeft" transform="rotate(270) translate(-36 17)">
    <use xlink:href="#rim"/>
    <path pointer-events="none" fill="none" stroke="white" stroke-width="1.5" d="M0,-3.0v7 M-2.5,-0.5L0,-3.0L2.5,-0.5"/>
  </g>
  <g id="resetDef">
    <use xlink:href="#rim2" fill="#404040"><set attributeName="fill" to="#808080" begin="reset.mouseover" end="reset.mouseout"/></use>
  </g>
</defs>
<script type="application/ecmascript">
var viewWidth = 746;
var viewHeight = 322;
var sectionId = 'dynsection-0';
</script>
<script type="application/ecmascript" xlink:href="svg.min.js"/>
<svg id="graph" class="graph">
<g id="viewport">
<title>ImFusion::GUI::ViewObject::EventHandler</title>
<!-- Node1 -->
<g id="Node000001" class="node">
<title>Node1</title>
<g id="a_Node000001"><a xlink:title="Interface to be used as base class for event handlers of ViewObjects.">
<polygon fill="#999999" stroke="#666666" points="136.75,-214.88 0,-214.88 0,-184.38 136.75,-184.38 136.75,-214.88"/>
<text xml:space="preserve" text-anchor="start" x="8" y="-201.38" font-family="Helvetica,sans-Serif" font-size="10.00">ImFusion::GUI::ViewObject</text>
<text xml:space="preserve" text-anchor="middle" x="68.38" y="-190.12" font-family="Helvetica,sans-Serif" font-size="10.00">::EventHandler</text>
</a>
</g>
</g>
<!-- Node2 -->
<g id="Node000002" class="node">
<title>Node2</title>
<g id="a_Node000002"><a xlink:href="class_im_fusion_1_1_g_u_i_1_1_box_annotation_event_handler.html" target="_top" xlink:title="Event handler for creating and editing Box annotations.">
<polygon fill="white" stroke="#666666" points="323,-306.88 172.75,-306.88 172.75,-276.38 323,-276.38 323,-306.88"/>
<text xml:space="preserve" text-anchor="start" x="180.75" y="-293.38" font-family="Helvetica,sans-Serif" font-size="10.00">ImFusion::GUI::BoxAnnotation</text>
<text xml:space="preserve" text-anchor="middle" x="247.88" y="-282.12" font-family="Helvetica,sans-Serif" font-size="10.00">EventHandler</text>
</a>
</g>
</g>
<!-- Node1&#45;&gt;Node2 -->
<g id="edge1_Node000001_Node000002" class="edge">
<title>Node1&#45;&gt;Node2</title>
<g id="a_edge1_Node000001_Node000002"><a xlink:title=" ">
<path fill="none" stroke="#63b8ff" d="M99.06,-221.71C119.11,-235.91 146.6,-253.99 172.75,-266.62 179.72,-269.99 187.26,-273.1 194.77,-275.9"/>
<polygon fill="#63b8ff" stroke="#63b8ff" points="101.24,-218.97 91.08,-215.98 97.16,-224.66 101.24,-218.97"/>
</a>
</g>
</g>
<!-- Node3 -->
<g id="Node000003" class="node">
<title>Node3</title>
<g id="a_Node000003"><a xlink:href="class_im_fusion_1_1_g_u_i_1_1_point_based_annotation_event_handler.html" target="_top" xlink:title="Event handler for creating and editing point&#45;based annotations.">
<polygon fill="white" stroke="#666666" points="316.25,-257.88 179.5,-257.88 179.5,-227.38 316.25,-227.38 316.25,-257.88"/>
<text xml:space="preserve" text-anchor="start" x="187.5" y="-244.38" font-family="Helvetica,sans-Serif" font-size="10.00">ImFusion::GUI::PointBased</text>
<text xml:space="preserve" text-anchor="middle" x="247.88" y="-233.12" font-family="Helvetica,sans-Serif" font-size="10.00">AnnotationEventHandler</text>
</a>
</g>
</g>
<!-- Node1&#45;&gt;Node3 -->
<g id="edge2_Node000001_Node000003" class="edge">
<title>Node1&#45;&gt;Node3</title>
<g id="a_edge2_Node000001_Node000003"><a xlink:title=" ">
<path fill="none" stroke="#63b8ff" d="M145.29,-218.02C157.48,-220.97 170.01,-224 181.92,-226.89"/>
<polygon fill="#63b8ff" stroke="#63b8ff" points="146.22,-214.64 135.68,-215.69 144.58,-221.44 146.22,-214.64"/>
</a>
</g>
</g>
<!-- Node4 -->
<g id="Node000004" class="node">
<title>Node4</title>
<g id="a_Node000004"><a xlink:href="class_im_fusion_1_1_labeling_manipulator.html" target="_top" xlink:title="Manipulator for circle&#45;based annotations.">
<polygon fill="white" stroke="#666666" points="322.25,-209.25 173.5,-209.25 173.5,-190 322.25,-190 322.25,-209.25"/>
<text xml:space="preserve" text-anchor="middle" x="247.88" y="-195.75" font-family="Helvetica,sans-Serif" font-size="10.00">ImFusion::LabelingManipulator</text>
</a>
</g>
</g>
<!-- Node1&#45;&gt;Node4 -->
<g id="edge3_Node000001_Node000004" class="edge">
<title>Node1&#45;&gt;Node4</title>
<g id="a_edge3_Node000001_Node000004"><a xlink:title=" ">
<path fill="none" stroke="#63b8ff" d="M148.66,-199.62C156.8,-199.62 165.05,-199.62 173.14,-199.62"/>
<polygon fill="#63b8ff" stroke="#63b8ff" points="148.75,-196.13 138.75,-199.63 148.75,-203.13 148.75,-196.13"/>
</a>
</g>
</g>
<!-- Node5 -->
<g id="Node000005" class="node">
<title>Node5</title>
<g id="a_Node000005"><a xlink:href="class_im_fusion_1_1_manipulator.html" target="_top" xlink:title="Abstract base class for manipulator objects.">
<polygon fill="white" stroke="#666666" points="304.25,-172.25 191.5,-172.25 191.5,-153 304.25,-153 304.25,-172.25"/>
<text xml:space="preserve" text-anchor="middle" x="247.88" y="-158.75" font-family="Helvetica,sans-Serif" font-size="10.00">ImFusion::Manipulator</text>
</a>
</g>
</g>
<!-- Node1&#45;&gt;Node5 -->
<g id="edge4_Node000001_Node000005" class="edge">
<title>Node1&#45;&gt;Node5</title>
<g id="a_edge4_Node000001_Node000005"><a xlink:title=" ">
<path fill="none" stroke="#63b8ff" d="M148.34,-183.17C165.37,-179.61 182.89,-175.96 198.35,-172.74"/>
<polygon fill="#63b8ff" stroke="#63b8ff" points="147.8,-179.7 138.72,-185.17 149.23,-186.56 147.8,-179.7"/>
</a>
</g>
</g>
<!-- Node19 -->
<g id="Node000019" class="node">
<title>Node19</title>
<g id="a_Node000019"><a xlink:href="class_im_fusion_1_1_seg_1_1_lambda_event_handler.html" target="_top" xlink:title=" ">
<polygon fill="white" stroke="#bfbfbf" points="320.75,-134.88 175,-134.88 175,-104.38 320.75,-104.38 320.75,-134.88"/>
<text xml:space="preserve" text-anchor="start" x="183" y="-121.38" font-family="Helvetica,sans-Serif" font-size="10.00">ImFusion::Seg::LambdaEvent</text>
<text xml:space="preserve" text-anchor="middle" x="247.88" y="-110.12" font-family="Helvetica,sans-Serif" font-size="10.00">Handler</text>
</a>
</g>
</g>
<!-- Node1&#45;&gt;Node19 -->
<g id="edge18_Node000001_Node000019" class="edge">
<title>Node1&#45;&gt;Node19</title>
<g id="a_edge18_Node000001_Node000019"><a xlink:title=" ">
<path fill="none" stroke="#63b8ff" d="M104.77,-178.35C124.37,-167.11 149.42,-153.62 172.75,-143.62 179.59,-140.7 186.91,-137.92 194.19,-135.36"/>
<polygon fill="#63b8ff" stroke="#63b8ff" points="103.26,-175.18 96.37,-183.23 106.77,-181.24 103.26,-175.18"/>
</a>
</g>
</g>
<!-- Node6 -->
<g id="Node000006" class="node">
<title>Node6</title>
<g id="a_Node000006"><a xlink:href="class_im_fusion_1_1_box_annotation_manipulator.html" target="_top" xlink:title="Manipulator for box annotations.">
<polygon fill="white" stroke="#666666" points="535.5,-314.25 359,-314.25 359,-295 535.5,-295 535.5,-314.25"/>
<text xml:space="preserve" text-anchor="middle" x="447.25" y="-300.75" font-family="Helvetica,sans-Serif" font-size="10.00">ImFusion::BoxAnnotationManipulator</text>
</a>
</g>
</g>
<!-- Node5&#45;&gt;Node6 -->
<g id="edge5_Node000005_Node000006" class="edge">
<title>Node5&#45;&gt;Node6</title>
<g id="a_edge5_Node000005_Node000006"><a xlink:title=" ">
<path fill="none" stroke="#63b8ff" d="M314.94,-174.62C317.82,-176.37 320.53,-178.36 323,-180.62 359.71,-214.2 321.71,-253.69 359,-286.62 362.59,-289.8 366.6,-292.47 370.86,-294.71"/>
<polygon fill="#63b8ff" stroke="#63b8ff" points="316.52,-171.49 306,-170.21 313.42,-177.77 316.52,-171.49"/>
</a>
</g>
</g>
<!-- Node7 -->
<g id="Node000007" class="node">
<title>Node7</title>
<g id="a_Node000007"><a xlink:href="class_im_fusion_1_1_mesh_manipulator.html" target="_top" xlink:title="Mesh manipulator with 3d controls.">
<polygon fill="white" stroke="#666666" points="515.62,-277.25 378.88,-277.25 378.88,-258 515.62,-258 515.62,-277.25"/>
<text xml:space="preserve" text-anchor="middle" x="447.25" y="-263.75" font-family="Helvetica,sans-Serif" font-size="10.00">ImFusion::MeshManipulator</text>
</a>
</g>
</g>
<!-- Node5&#45;&gt;Node7 -->
<g id="edge6_Node000005_Node000007" class="edge">
<title>Node5&#45;&gt;Node7</title>
<g id="a_edge6_Node000005_Node000007"><a xlink:title=" ">
<path fill="none" stroke="#63b8ff" d="M315.15,-175.44C317.91,-176.98 320.54,-178.7 323,-180.62 350.24,-201.94 331.39,-228.78 359,-249.62 364.92,-254.1 371.7,-257.53 378.79,-260.15"/>
<polygon fill="#63b8ff" stroke="#63b8ff" points="316.65,-172.28 306.11,-171.25 313.71,-178.63 316.65,-172.28"/>
</a>
</g>
</g>
<!-- Node8 -->
<g id="Node000008" class="node">
<title>Node8</title>
<g id="a_Node000008"><a xlink:href="class_im_fusion_1_1_mesh_picking_manipulator.html" target="_top" xlink:title="Mesh picking manipulator The MeshPickingManipulator can return the list of selected vertices/faces/ed...">
<polygon fill="white" stroke="#666666" points="531.75,-240.25 362.75,-240.25 362.75,-221 531.75,-221 531.75,-240.25"/>
<text xml:space="preserve" text-anchor="middle" x="447.25" y="-226.75" font-family="Helvetica,sans-Serif" font-size="10.00">ImFusion::MeshPickingManipulator</text>
</a>
</g>
</g>
<!-- Node5&#45;&gt;Node8 -->
<g id="edge7_Node000005_Node000008" class="edge">
<title>Node5&#45;&gt;Node8</title>
<g id="a_edge7_Node000005_Node000008"><a xlink:title=" ">
<path fill="none" stroke="#63b8ff" d="M314.06,-176.54C317.13,-177.79 320.13,-179.15 323,-180.62 341.78,-190.27 340.11,-202.2 359,-211.62 366.21,-215.22 374.1,-218.14 382.08,-220.51"/>
<polygon fill="#63b8ff" stroke="#63b8ff" points="315.42,-173.31 304.82,-173.22 313.04,-179.9 315.42,-173.31"/>
</a>
</g>
</g>
<!-- Node9 -->
<g id="Node000009" class="node">
<title>Node9</title>
<g id="a_Node000009"><a xlink:href="class_im_fusion_1_1_point_based_annotation_manipulator.html" target="_top" xlink:title="Manipulator for point&#45;based annotations.">
<polygon fill="white" stroke="#666666" points="526.88,-202.88 367.62,-202.88 367.62,-172.38 526.88,-172.38 526.88,-202.88"/>
<text xml:space="preserve" text-anchor="start" x="375.62" y="-189.38" font-family="Helvetica,sans-Serif" font-size="10.00">ImFusion::PointBasedAnnotation</text>
<text xml:space="preserve" text-anchor="middle" x="447.25" y="-178.12" font-family="Helvetica,sans-Serif" font-size="10.00">Manipulator</text>
</a>
</g>
</g>
<!-- Node5&#45;&gt;Node9 -->
<g id="edge8_Node000005_Node000009" class="edge">
<title>Node5&#45;&gt;Node9</title>
<g id="a_edge8_Node000005_Node000009"><a xlink:title=" ">
<path fill="none" stroke="#63b8ff" d="M315.87,-171.11C332.44,-173.21 350.34,-175.48 367.42,-177.64"/>
<polygon fill="#63b8ff" stroke="#63b8ff" points="316.51,-167.66 306.14,-169.88 315.63,-174.61 316.51,-167.66"/>
</a>
</g>
</g>
<!-- Node15 -->
<g id="Node000015" class="node">
<title>Node15</title>
<g id="a_Node000015"><a xlink:href="class_im_fusion_1_1_point_based_annotation_manipulator2.html" target="_top" xlink:title="Manipulator for point&#45;based annotations.">
<polygon fill="white" stroke="#666666" points="526.88,-153.88 367.62,-153.88 367.62,-123.38 526.88,-123.38 526.88,-153.88"/>
<text xml:space="preserve" text-anchor="start" x="375.62" y="-140.38" font-family="Helvetica,sans-Serif" font-size="10.00">ImFusion::PointBasedAnnotation</text>
<text xml:space="preserve" text-anchor="middle" x="447.25" y="-129.12" font-family="Helvetica,sans-Serif" font-size="10.00">Manipulator2</text>
</a>
</g>
</g>
<!-- Node5&#45;&gt;Node15 -->
<g id="edge14_Node000005_Node000015" class="edge">
<title>Node5&#45;&gt;Node15</title>
<g id="a_edge14_Node000005_Node000015"><a xlink:title=" ">
<path fill="none" stroke="#63b8ff" d="M315.87,-154.48C332.44,-152.46 350.34,-150.29 367.42,-148.21"/>
<polygon fill="#63b8ff" stroke="#63b8ff" points="315.65,-150.98 306.15,-155.66 316.5,-157.93 315.65,-150.98"/>
</a>
</g>
</g>
<!-- Node16 -->
<g id="Node000016" class="node">
<title>Node16</title>
<g id="a_Node000016"><a xlink:href="class_im_fusion_1_1_point_cloud_picking_manipulator.html" target="_top" xlink:title="Point cloud picking manipulator The PointCloudPickingManipulator can return the list of selected vert...">
<polygon fill="white" stroke="#666666" points="518.62,-104.88 375.88,-104.88 375.88,-74.38 518.62,-74.38 518.62,-104.88"/>
<text xml:space="preserve" text-anchor="start" x="383.88" y="-91.38" font-family="Helvetica,sans-Serif" font-size="10.00">ImFusion::PointCloudPicking</text>
<text xml:space="preserve" text-anchor="middle" x="447.25" y="-80.12" font-family="Helvetica,sans-Serif" font-size="10.00">Manipulator</text>
</a>
</g>
</g>
<!-- Node5&#45;&gt;Node16 -->
<g id="edge15_Node000005_Node000016" class="edge">
<title>Node5&#45;&gt;Node16</title>
<g id="a_edge15_Node000005_Node000016"><a xlink:title=" ">
<path fill="none" stroke="#63b8ff" d="M310.77,-148.93C314.99,-147.34 319.1,-145.58 323,-143.62 341.37,-134.42 340.76,-124.09 359,-114.62 365.85,-111.07 373.28,-107.96 380.81,-105.25"/>
<polygon fill="#63b8ff" stroke="#63b8ff" points="309.93,-145.52 301.59,-152.06 312.19,-152.15 309.93,-145.52"/>
</a>
</g>
</g>
<!-- Node17 -->
<g id="Node000017" class="node">
<title>Node17</title>
<g id="a_Node000017"><a xlink:href="class_im_fusion_1_1_seg_1_1_lambda_manipulator.html" target="_top" xlink:title="Utility class to avoid having to subclass the Manipulator class.">
<polygon fill="white" stroke="#666666" points="532.5,-56.25 362,-56.25 362,-37 532.5,-37 532.5,-56.25"/>
<text xml:space="preserve" text-anchor="middle" x="447.25" y="-42.75" font-family="Helvetica,sans-Serif" font-size="10.00">ImFusion::Seg::LambdaManipulator</text>
</a>
</g>
</g>
<!-- Node5&#45;&gt;Node17 -->
<g id="edge16_Node000005_Node000017" class="edge">
<title>Node5&#45;&gt;Node17</title>
<g id="a_edge16_Node000005_Node000017"><a xlink:title=" ">
<path fill="none" stroke="#63b8ff" d="M314.84,-149.29C317.72,-147.62 320.46,-145.74 323,-143.62 352.33,-119.18 329.23,-89.53 359,-65.62 363.47,-62.03 368.48,-59.08 373.76,-56.67"/>
<polygon fill="#63b8ff" stroke="#63b8ff" points="313.44,-146.09 305.94,-153.58 316.47,-152.39 313.44,-146.09"/>
</a>
</g>
</g>
<!-- Node18 -->
<g id="Node000018" class="node">
<title>Node18</title>
<g id="a_Node000018"><a xlink:href="class_im_fusion_1_1_slice_manipulator.html" target="_top" xlink:title="Interaction for slices.">
<polygon fill="white" stroke="#666666" points="514.5,-19.25 380,-19.25 380,0 514.5,0 514.5,-19.25"/>
<text xml:space="preserve" text-anchor="middle" x="447.25" y="-5.75" font-family="Helvetica,sans-Serif" font-size="10.00">ImFusion::SliceManipulator</text>
</a>
</g>
</g>
<!-- Node5&#45;&gt;Node18 -->
<g id="edge17_Node000005_Node000018" class="edge">
<title>Node5&#45;&gt;Node18</title>
<g id="a_edge17_Node000005_Node000018"><a xlink:title=" ">
<path fill="none" stroke="#63b8ff" d="M314.58,-150.07C317.6,-148.2 320.44,-146.06 323,-143.62 362.11,-106.42 319.02,-63.89 359,-27.62 364.96,-22.22 372.09,-18.27 379.69,-15.41"/>
<polygon fill="#63b8ff" stroke="#63b8ff" points="313.12,-146.89 305.77,-154.51 316.27,-153.14 313.12,-146.89"/>
</a>
</g>
</g>
<!-- Node10 -->
<g id="Node000010" class="node">
<title>Node10</title>
<g id="a_Node000010"><a xlink:href="class_im_fusion_1_1_curve_editor_manipulator.html" target="_top" xlink:title=" ">
<polygon fill="white" stroke="#bfbfbf" points="736.75,-289.25 572.25,-289.25 572.25,-270 736.75,-270 736.75,-289.25"/>
<text xml:space="preserve" text-anchor="middle" x="654.5" y="-275.75" font-family="Helvetica,sans-Serif" font-size="10.00">ImFusion::CurveEditorManipulator</text>
</a>
</g>
</g>
<!-- Node9&#45;&gt;Node10 -->
<g id="edge9_Node000009_Node000010" class="edge">
<title>Node9&#45;&gt;Node10</title>
<g id="a_edge9_Node000009_Node000010"><a xlink:title=" ">
<path fill="none" stroke="#63b8ff" d="M530.56,-208.47C532.25,-209.47 533.9,-210.52 535.5,-211.62 557.76,-226.95 548.93,-245.76 571.5,-260.62 576.99,-264.24 583.09,-267.17 589.4,-269.55"/>
<polygon fill="#63b8ff" stroke="#63b8ff" points="532.32,-205.44 521.83,-203.93 529.09,-211.65 532.32,-205.44"/>
</a>
</g>
</g>
<!-- Node11 -->
<g id="Node000011" class="node">
<title>Node11</title>
<g id="a_Node000011"><a xlink:href="class_im_fusion_1_1_curved_view_spline_manipulator.html" target="_top" xlink:title="Manipulator setting the direction of spline based curved views.">
<polygon fill="white" stroke="#666666" points="725.88,-251.88 583.12,-251.88 583.12,-221.38 725.88,-221.38 725.88,-251.88"/>
<text xml:space="preserve" text-anchor="start" x="591.12" y="-238.38" font-family="Helvetica,sans-Serif" font-size="10.00">ImFusion::CurvedViewSpline</text>
<text xml:space="preserve" text-anchor="middle" x="654.5" y="-227.12" font-family="Helvetica,sans-Serif" font-size="10.00">Manipulator</text>
</a>
</g>
</g>
<!-- Node9&#45;&gt;Node11 -->
<g id="edge10_Node000009_Node000011" class="edge">
<title>Node9&#45;&gt;Node11</title>
<g id="a_edge10_Node000009_Node000011"><a xlink:title=" ">
<path fill="none" stroke="#63b8ff" d="M525,-205.95C545.63,-210.87 567.75,-216.15 587.73,-220.92"/>
<polygon fill="#63b8ff" stroke="#63b8ff" points="526.05,-202.6 515.51,-203.68 524.43,-209.41 526.05,-202.6"/>
</a>
</g>
</g>
<!-- Node12 -->
<g id="Node000012" class="node">
<title>Node12</title>
<g id="a_Node000012"><a xlink:href="class_im_fusion_1_1_freeform_annotation_manipulator.html" target="_top" xlink:title="Manipulator for freeform annotations.">
<polygon fill="white" stroke="#666666" points="728.5,-202.88 580.5,-202.88 580.5,-172.38 728.5,-172.38 728.5,-202.88"/>
<text xml:space="preserve" text-anchor="start" x="588.5" y="-189.38" font-family="Helvetica,sans-Serif" font-size="10.00">ImFusion::FreeformAnnotation</text>
<text xml:space="preserve" text-anchor="middle" x="654.5" y="-178.12" font-family="Helvetica,sans-Serif" font-size="10.00">Manipulator</text>
</a>
</g>
</g>
<!-- Node9&#45;&gt;Node12 -->
<g id="edge11_Node000009_Node000012" class="edge">
<title>Node9&#45;&gt;Node12</title>
<g id="a_edge11_Node000009_Node000012"><a xlink:title=" ">
<path fill="none" stroke="#63b8ff" d="M538.42,-187.62C552.39,-187.62 566.67,-187.62 580.2,-187.62"/>
<polygon fill="#63b8ff" stroke="#63b8ff" points="538.82,-184.13 528.82,-187.63 538.82,-191.13 538.82,-184.13"/>
</a>
</g>
</g>
<!-- Node13 -->
<g id="Node000013" class="node">
<title>Node13</title>
<g id="a_Node000013"><a xlink:href="class_im_fusion_1_1_loop_manipulator.html" target="_top" xlink:title=" ">
<polygon fill="white" stroke="#bfbfbf" points="721.38,-154.25 587.62,-154.25 587.62,-135 721.38,-135 721.38,-154.25"/>
<text xml:space="preserve" text-anchor="middle" x="654.5" y="-140.75" font-family="Helvetica,sans-Serif" font-size="10.00">ImFusion::LoopManipulator</text>
</a>
</g>
</g>
<!-- Node9&#45;&gt;Node13 -->
<g id="edge12_Node000009_Node000013" class="edge">
<title>Node9&#45;&gt;Node13</title>
<g id="a_edge12_Node000009_Node000013"><a xlink:title=" ">
<path fill="none" stroke="#63b8ff" d="M534.26,-169.61C558.51,-164.53 584.04,-159.18 605.23,-154.74"/>
<polygon fill="#63b8ff" stroke="#63b8ff" points="533.77,-166.13 524.7,-171.61 535.21,-172.98 533.77,-166.13"/>
</a>
</g>
</g>
<!-- Node14 -->
<g id="Node000014" class="node">
<title>Node14</title>
<g id="a_Node000014"><a xlink:href="class_im_fusion_1_1_smart_spline_manipulator.html" target="_top" xlink:title="Manipulator for smart spline annotations.">
<polygon fill="white" stroke="#666666" points="737.5,-117.25 571.5,-117.25 571.5,-98 737.5,-98 737.5,-117.25"/>
<text xml:space="preserve" text-anchor="middle" x="654.5" y="-103.75" font-family="Helvetica,sans-Serif" font-size="10.00">ImFusion::SmartSplineManipulator</text>
</a>
</g>
</g>
<!-- Node9&#45;&gt;Node14 -->
<g id="edge13_Node000009_Node000014" class="edge">
<title>Node9&#45;&gt;Node14</title>
<g id="a_edge13_Node000009_Node000014"><a xlink:title=" ">
<path fill="none" stroke="#63b8ff" d="M526.82,-167.32C529.81,-165.86 532.71,-164.29 535.5,-162.62 555.19,-150.85 551.45,-136.78 571.5,-125.62 577.23,-122.44 583.48,-119.81 589.89,-117.65"/>
<polygon fill="#63b8ff" stroke="#63b8ff" points="525.53,-164.06 517.8,-171.3 528.36,-170.46 525.53,-164.06"/>
</a>
</g>
</g>
</g>
</svg>

<g id="navigator" transform="translate(0 0)" fill="#404254">
  <rect fill="#f2f5e9" fill-opacity="0.5" stroke="#606060" stroke-width=".5" x="0" y="0" width="60" height="60"/>
  <use id="zoomplus" xlink:href="#zoomPlus" x="17" y="9" onmousedown="handleZoom(evt,'in')"/>
  <use id="zoomminus" xlink:href="#zoomMin" x="42" y="9" onmousedown="handleZoom(evt,'out')"/>
  <use id="reset" xlink:href="#resetDef" x="30" y="36" onmousedown="handleReset()"/>
   <use id="arrowup" xlink:href="#arrowUp" x="0" y="0" onmousedown="handlePan(0,-1)"/>
  <use id="arrowright" xlink:href="#arrowRight" x="0" y="0" onmousedown="handlePan(1,0)"/>
  <use id="arrowdown" xlink:href="#arrowDown" x="0" y="0" onmousedown="handlePan(0,1)"/>
  <use id="arrowleft" xlink:href="#arrowLeft" x="0" y="0" onmousedown="handlePan(-1,0)"/>
</g>
<svg viewBox="0 0 15 15" width="100%" height="30px" preserveAspectRatio="xMaxYMin meet">
 <g id="arrow_out" transform="scale(0.3 0.3)">
  <a xlink:href="class_im_fusion_1_1_g_u_i_1_1_view_object_1_1_event_handler__inherit__graph_org.svg" target="_base">
   <rect id="button" ry="5" rx="5" y="6" x="6" height="38" width="38"
        fill="#f2f5e9" fill-opacity="0.5" stroke="#606060" stroke-width="1.0"/>
   <path id="arrow"
     d="M 11.500037,31.436501 C 11.940474,20.09759 22.043105,11.32322 32.158766,21.979434 L 37.068811,17.246167 C 37.068811,17.246167 37.088388,32 37.088388,32 L 22.160133,31.978069 C 22.160133,31.978069 26.997745,27.140456 26.997745,27.140456 C 18.528582,18.264221 13.291696,25.230495 11.500037,31.436501 z"
     style="fill:#404040;"/>
  </a>
 </g>
</svg>

<style type='text/css'>
<![CDATA[
[data-mouse-over-selected='false'] { opacity: 0.7; }
[data-mouse-over-selected='true']  { opacity: 1.0; }
]]>
</style>
<script type="application/ecmascript"><![CDATA[
document.addEventListener('DOMContentLoaded', (event) => {
  highlightEdges();
  highlightAdjacentNodes();
});
]]></script>
</svg>
