<?xml version="1.0" encoding="UTF-8" standalone="no"?>
<!DOCTYPE svg PUBLIC "-//W3C//DTD SVG 1.1//EN"
 "http://www.w3.org/Graphics/SVG/1.1/DTD/svg11.dtd">
<!-- Generated by graphviz version 14.1.4 (20260321.0153)
 -->
<!-- Title: ImFusion::Progress Pages: 1 -->
<svg width="648pt" height="138pt"
 viewBox="0.00 0.00 648.00 138.00" xmlns="http://www.w3.org/2000/svg" xmlns:xlink="http://www.w3.org/1999/xlink">
<g id="graph0" class="graph" transform="scale(1 1) rotate(0) translate(4 134.25)">
<title>ImFusion::Progress</title>
<!-- Node1 -->
<g id="Node000001" class="node">
<title>Node1</title>
<g id="a_Node000001"><a xlink:title="Generic interface to report operation/computation progress.">
<polygon fill="#999999" stroke="#666666" points="283.25,-74.25 181.75,-74.25 181.75,-55 283.25,-55 283.25,-74.25"/>
<text xml:space="preserve" text-anchor="middle" x="232.5" y="-60.75" font-family="Helvetica,sans-Serif" font-size="10.00">ImFusion::Progress</text>
</a>
</g>
</g>
<!-- Node3 -->
<g id="Node000003" class="node">
<title>Node3</title>
<g id="a_Node000003"><a xlink:href="class_im_fusion_1_1_ascii_progress.html" target="_top" xlink:title="Displays a basic progress bar with ASCII characters on the console window.">
<polygon fill="white" stroke="#666666" points="447.38,-130.25 324.12,-130.25 324.12,-111 447.38,-111 447.38,-130.25"/>
<text xml:space="preserve" text-anchor="middle" x="385.75" y="-116.75" font-family="Helvetica,sans-Serif" font-size="10.00">ImFusion::AsciiProgress</text>
</a>
</g>
</g>
<!-- Node1&#45;&gt;Node3 -->
<g id="edge2_Node000001_Node000003" class="edge">
<title>Node1&#45;&gt;Node3</title>
<g id="a_edge2_Node000001_Node000003"><a xlink:title=" ">
<path fill="none" stroke="#63b8ff" d="M263.92,-79.43C280.11,-86.97 300.5,-95.94 319.25,-102.62 327.25,-105.48 335.93,-108.15 344.27,-110.52"/>
<polygon fill="#63b8ff" stroke="#63b8ff" points="265.85,-76.47 255.31,-75.37 262.86,-82.8 265.85,-76.47"/>
</a>
</g>
</g>
<!-- Node4 -->
<g id="Node000004" class="node">
<title>Node4</title>
<g id="a_Node000004"><a xlink:href="class_im_fusion_1_1_nested_progress.html" target="_top" xlink:title="Wrapper class to provide the Progress interface, ensure certain invariants for created tasks and/or o...">
<polygon fill="white" stroke="#666666" points="452.25,-93.25 319.25,-93.25 319.25,-74 452.25,-74 452.25,-93.25"/>
<text xml:space="preserve" text-anchor="middle" x="385.75" y="-79.75" font-family="Helvetica,sans-Serif" font-size="10.00">ImFusion::NestedProgress</text>
</a>
</g>
</g>
<!-- Node1&#45;&gt;Node4 -->
<g id="edge3_Node000001_Node000004" class="edge">
<title>Node1&#45;&gt;Node4</title>
<g id="a_edge3_Node000001_Node000004"><a xlink:title=" ">
<path fill="none" stroke="#63b8ff" d="M294.87,-72.33C302.8,-73.33 310.94,-74.35 318.94,-75.36"/>
<polygon fill="#63b8ff" stroke="#63b8ff" points="295.3,-68.86 284.95,-71.09 294.43,-75.81 295.3,-68.86"/>
</a>
</g>
</g>
<!-- Node6 -->
<g id="Node000006" class="node">
<title>Node6</title>
<g id="a_Node000006"><a xlink:href="class_im_fusion_1_1_progress_dialog.html" target="_top" xlink:title="QDialog&#45;based progress reporter that shows one QProgressBar for each progress task.">
<polygon fill="white" stroke="#666666" points="450.38,-56.25 321.12,-56.25 321.12,-37 450.38,-37 450.38,-56.25"/>
<text xml:space="preserve" text-anchor="middle" x="385.75" y="-42.75" font-family="Helvetica,sans-Serif" font-size="10.00">ImFusion::ProgressDialog</text>
</a>
</g>
</g>
<!-- Node1&#45;&gt;Node6 -->
<g id="edge5_Node000001_Node000006" class="edge">
<title>Node1&#45;&gt;Node6</title>
<g id="a_edge5_Node000001_Node000006"><a xlink:title=" ">
<path fill="none" stroke="#63b8ff" d="M294.61,-57.35C303.24,-56.32 312.14,-55.27 320.83,-54.23"/>
<polygon fill="#63b8ff" stroke="#63b8ff" points="294.46,-53.85 284.95,-58.5 295.29,-60.8 294.46,-53.85"/>
</a>
</g>
</g>
<!-- Node7 -->
<g id="Node000007" class="node">
<title>Node7</title>
<g id="a_Node000007"><a xlink:href="class_im_fusion_1_1_sub_progress.html" target="_top" xlink:title="Wrapper class to report partial progress on an existing Task.">
<polygon fill="white" stroke="#666666" points="445.12,-19.25 326.38,-19.25 326.38,0 445.12,0 445.12,-19.25"/>
<text xml:space="preserve" text-anchor="middle" x="385.75" y="-5.75" font-family="Helvetica,sans-Serif" font-size="10.00">ImFusion::SubProgress</text>
</a>
</g>
</g>
<!-- Node1&#45;&gt;Node7 -->
<g id="edge6_Node000001_Node000007" class="edge">
<title>Node1&#45;&gt;Node7</title>
<g id="a_edge6_Node000001_Node000007"><a xlink:title=" ">
<path fill="none" stroke="#63b8ff" d="M265.07,-49.75C281.09,-42.53 300.98,-34.04 319.25,-27.62 327.37,-24.77 336.19,-22.08 344.64,-19.7"/>
<polygon fill="#63b8ff" stroke="#63b8ff" points="263.68,-46.54 256.04,-53.88 266.59,-52.9 263.68,-46.54"/>
</a>
</g>
</g>
<!-- Node2 -->
<g id="Node000002" class="node">
<title>Node2</title>
<g id="a_Node000002"><a xlink:href="class_im_fusion_1_1_utils_1_1_not_copyable.html" target="_top" xlink:title="Inherit from this class if your class should be neither copy&#45;constructible nor assignable.">
<polygon fill="white" stroke="#666666" points="145.75,-74.25 0,-74.25 0,-55 145.75,-55 145.75,-74.25"/>
<text xml:space="preserve" text-anchor="middle" x="72.88" y="-60.75" font-family="Helvetica,sans-Serif" font-size="10.00">ImFusion::Utils::NotCopyable</text>
</a>
</g>
</g>
<!-- Node2&#45;&gt;Node1 -->
<g id="edge1_Node000001_Node000002" class="edge">
<title>Node2&#45;&gt;Node1</title>
<g id="a_edge1_Node000001_Node000002"><a xlink:title=" ">
<path fill="none" stroke="#8b1a1a" d="M157.48,-64.62C165.73,-64.62 173.9,-64.62 181.65,-64.62"/>
<polygon fill="#8b1a1a" stroke="#8b1a1a" points="157.74,-61.13 147.74,-64.63 157.74,-68.13 157.74,-61.13"/>
</a>
</g>
</g>
<!-- Node5 -->
<g id="Node000005" class="node">
<title>Node5</title>
<g id="a_Node000005"><a xlink:href="class_im_fusion_1_1_watershed_computer.html" target="_top" xlink:title=" ">
<polygon fill="white" stroke="#bfbfbf" points="640,-93.25 488.25,-93.25 488.25,-74 640,-74 640,-93.25"/>
<text xml:space="preserve" text-anchor="middle" x="564.12" y="-79.75" font-family="Helvetica,sans-Serif" font-size="10.00">ImFusion::WatershedComputer</text>
</a>
</g>
</g>
<!-- Node4&#45;&gt;Node5 -->
<g id="edge4_Node000004_Node000005" class="edge">
<title>Node4&#45;&gt;Node5</title>
<g id="a_edge4_Node000004_Node000005"><a xlink:title=" ">
<path fill="none" stroke="#63b8ff" d="M464.09,-83.62C471.96,-83.62 479.94,-83.62 487.78,-83.62"/>
<polygon fill="#63b8ff" stroke="#63b8ff" points="464.19,-80.13 454.19,-83.63 464.19,-87.13 464.19,-80.13"/>
</a>
</g>
</g>
</g>
</svg>
