<?xml version="1.0" encoding="UTF-8" standalone="no"?>
<!DOCTYPE svg PUBLIC "-//W3C//DTD SVG 1.1//EN"
 "http://www.w3.org/Graphics/SVG/1.1/DTD/svg11.dtd">
<!-- Generated by graphviz version 14.1.4 (20260321.0153)
 -->
<!-- Title: ImFusion::AnnotationModel Pages: 1 -->
<svg width="325pt" height="138pt"
 viewBox="0.00 0.00 325.00 138.00" xmlns="http://www.w3.org/2000/svg" xmlns:xlink="http://www.w3.org/1999/xlink">
<g id="graph0" class="graph" transform="scale(1 1) rotate(0) translate(4 134.25)">
<title>ImFusion::AnnotationModel</title>
<!-- Node1 -->
<g id="Node000001" class="node">
<title>Node1</title>
<g id="a_Node000001"><a xlink:title="Container class for annotations Each annotation is always related to exactly one dataset.">
<polygon fill="#999999" stroke="#666666" points="317,-74.25 181.75,-74.25 181.75,-55 317,-55 317,-74.25"/>
<text xml:space="preserve" text-anchor="middle" x="249.38" y="-60.75" font-family="Helvetica,sans-Serif" font-size="10.00">ImFusion::AnnotationModel</text>
</a>
</g>
</g>
<!-- Node2 -->
<g id="Node000002" class="node">
<title>Node2</title>
<g id="a_Node000002"><a xlink:title=" ">
<polygon fill="white" stroke="#bfbfbf" points="125.88,-130.25 19.88,-130.25 19.88,-111 125.88,-111 125.88,-130.25"/>
<text xml:space="preserve" text-anchor="middle" x="72.88" y="-116.75" font-family="Helvetica,sans-Serif" font-size="10.00">QAbstractItemModel</text>
</a>
</g>
</g>
<!-- Node2&#45;&gt;Node1 -->
<g id="edge1_Node000001_Node000002" class="edge">
<title>Node2&#45;&gt;Node1</title>
<g id="a_edge1_Node000001_Node000002"><a xlink:title=" ">
<path fill="none" stroke="#63b8ff" d="M128.11,-107.72C134.09,-106.09 140.07,-104.38 145.75,-102.62 172.79,-94.26 203.12,-82.76 223.75,-74.61"/>
<polygon fill="#63b8ff" stroke="#63b8ff" points="127.66,-104.22 118.88,-110.15 129.44,-110.99 127.66,-104.22"/>
</a>
</g>
</g>
<!-- Node3 -->
<g id="Node000003" class="node">
<title>Node3</title>
<g id="a_Node000003"><a xlink:href="class_im_fusion_1_1_configurable.html" target="_top" xlink:title="Base interface for classes that support object serialization from/to Properties objects.">
<polygon fill="white" stroke="#666666" points="131.5,-93.25 14.25,-93.25 14.25,-74 131.5,-74 131.5,-93.25"/>
<text xml:space="preserve" text-anchor="middle" x="72.88" y="-79.75" font-family="Helvetica,sans-Serif" font-size="10.00">ImFusion::Configurable</text>
</a>
</g>
</g>
<!-- Node3&#45;&gt;Node1 -->
<g id="edge2_Node000001_Node000003" class="edge">
<title>Node3&#45;&gt;Node1</title>
<g id="a_edge2_Node000001_Node000003"><a xlink:title=" ">
<path fill="none" stroke="#63b8ff" d="M143.34,-76.06C155.91,-74.69 168.98,-73.27 181.47,-71.91"/>
<polygon fill="#63b8ff" stroke="#63b8ff" points="143.05,-72.57 133.49,-77.13 143.81,-79.53 143.05,-72.57"/>
</a>
</g>
</g>
<!-- Node4 -->
<g id="Node000004" class="node">
<title>Node4</title>
<g id="a_Node000004"><a xlink:href="class_im_fusion_1_1_signal_receiver.html" target="_top" xlink:title="Base class for classes that can contain slots (i.e.">
<polygon fill="white" stroke="#666666" points="137.12,-56.25 8.62,-56.25 8.62,-37 137.12,-37 137.12,-56.25"/>
<text xml:space="preserve" text-anchor="middle" x="72.88" y="-42.75" font-family="Helvetica,sans-Serif" font-size="10.00">ImFusion::SignalReceiver</text>
</a>
</g>
</g>
<!-- Node4&#45;&gt;Node1 -->
<g id="edge3_Node000001_Node000004" class="edge">
<title>Node4&#45;&gt;Node1</title>
<g id="a_edge3_Node000001_Node000004"><a xlink:title=" ">
<path fill="none" stroke="#63b8ff" d="M148.6,-54.33C159.5,-55.46 170.67,-56.61 181.4,-57.72"/>
<polygon fill="#63b8ff" stroke="#63b8ff" points="149.18,-50.87 138.87,-53.33 148.46,-57.84 149.18,-50.87"/>
</a>
</g>
</g>
<!-- Node5 -->
<g id="Node000005" class="node">
<title>Node5</title>
<g id="a_Node000005"><a xlink:href="class_im_fusion_1_1_utils_1_1_not_copyable.html" target="_top" xlink:title="Inherit from this class if your class should be neither copy&#45;constructible nor assignable.">
<polygon fill="white" stroke="#666666" points="145.75,-19.25 0,-19.25 0,0 145.75,0 145.75,-19.25"/>
<text xml:space="preserve" text-anchor="middle" x="72.88" y="-5.75" font-family="Helvetica,sans-Serif" font-size="10.00">ImFusion::Utils::NotCopyable</text>
</a>
</g>
</g>
<!-- Node5&#45;&gt;Node1 -->
<g id="edge4_Node000001_Node000005" class="edge">
<title>Node5&#45;&gt;Node1</title>
<g id="a_edge4_Node000001_Node000005"><a xlink:title=" ">
<path fill="none" stroke="#8b1a1a" d="M127.86,-22.52C133.92,-24.15 139.98,-25.87 145.75,-27.62 172.38,-35.74 202.27,-46.73 222.89,-54.63"/>
<polygon fill="#8b1a1a" stroke="#8b1a1a" points="129.04,-19.21 118.48,-20.06 127.27,-25.98 129.04,-19.21"/>
</a>
</g>
</g>
</g>
</svg>
