<?xml version="1.0" encoding="UTF-8" standalone="no"?>
<!DOCTYPE svg PUBLIC "-//W3C//DTD SVG 1.1//EN"
 "http://www.w3.org/Graphics/SVG/1.1/DTD/svg11.dtd">
<!-- Generated by graphviz version 14.1.4 (20260321.0153)
 -->
<!-- Title: ImFusion::Filesystem::TemporaryFile Pages: 1 -->
<svg width="282pt" height="105pt"
 viewBox="0.00 0.00 282.00 105.00" xmlns="http://www.w3.org/2000/svg" xmlns:xlink="http://www.w3.org/1999/xlink">
<g id="graph0" class="graph" transform="scale(1 1) rotate(0) translate(4 101)">
<title>ImFusion::Filesystem::TemporaryFile</title>
<!-- Node1 -->
<g id="Node000001" class="node">
<title>Node1</title>
<g id="a_Node000001"><a xlink:title="Temporary file which deletes itself upon going out of scope.">
<polygon fill="#999999" stroke="#666666" points="183.5,-30.5 73,-30.5 73,0 183.5,0 183.5,-30.5"/>
<text xml:space="preserve" text-anchor="start" x="81" y="-17" font-family="Helvetica,sans-Serif" font-size="10.00">ImFusion::Filesystem</text>
<text xml:space="preserve" text-anchor="middle" x="128.25" y="-5.75" font-family="Helvetica,sans-Serif" font-size="10.00">::TemporaryFile</text>
</a>
</g>
</g>
<!-- Node2 -->
<g id="Node000002" class="node">
<title>Node2</title>
<g id="a_Node000002"><a xlink:href="class_im_fusion_1_1_filesystem_1_1_file.html" target="_top" xlink:title="Entity representing a file in the filesystem.">
<polygon fill="white" stroke="#666666" points="110.5,-97 0,-97 0,-66.5 110.5,-66.5 110.5,-97"/>
<text xml:space="preserve" text-anchor="start" x="8" y="-83.5" font-family="Helvetica,sans-Serif" font-size="10.00">ImFusion::Filesystem</text>
<text xml:space="preserve" text-anchor="middle" x="55.25" y="-72.25" font-family="Helvetica,sans-Serif" font-size="10.00">::File</text>
</a>
</g>
</g>
<!-- Node2&#45;&gt;Node1 -->
<g id="edge1_Node000001_Node000002" class="edge">
<title>Node2&#45;&gt;Node1</title>
<g id="a_edge1_Node000001_Node000002"><a xlink:title=" ">
<path fill="none" stroke="#63b8ff" d="M80.16,-58.74C90.59,-49.53 102.43,-39.06 111.75,-30.83"/>
<polygon fill="#63b8ff" stroke="#63b8ff" points="78.13,-55.87 72.95,-65.11 82.76,-61.11 78.13,-55.87"/>
</a>
</g>
</g>
<!-- Node3 -->
<g id="Node000003" class="node">
<title>Node3</title>
<g id="a_Node000003"><a xlink:href="class_im_fusion_1_1_utils_1_1_not_copyable.html" target="_top" xlink:title="Inherit from this class if your class should be neither copy&#45;constructible nor assignable.">
<polygon fill="white" stroke="#666666" points="274.12,-91.38 128.38,-91.38 128.38,-72.12 274.12,-72.12 274.12,-91.38"/>
<text xml:space="preserve" text-anchor="middle" x="201.25" y="-77.88" font-family="Helvetica,sans-Serif" font-size="10.00">ImFusion::Utils::NotCopyable</text>
</a>
</g>
</g>
<!-- Node3&#45;&gt;Node1 -->
<g id="edge2_Node000001_Node000003" class="edge">
<title>Node3&#45;&gt;Node1</title>
<g id="a_edge2_Node000001_Node000003"><a xlink:title=" ">
<path fill="none" stroke="#63b8ff" d="M182.56,-64.24C170.89,-53.92 156,-40.77 144.76,-30.84"/>
<polygon fill="#63b8ff" stroke="#63b8ff" points="180.15,-66.78 189.97,-70.78 184.79,-61.54 180.15,-66.78"/>
</a>
</g>
</g>
</g>
</svg>
