<?xml version="1.0" encoding="UTF-8" standalone="no"?>
<!DOCTYPE svg PUBLIC "-//W3C//DTD SVG 1.1//EN"
 "http://www.w3.org/Graphics/SVG/1.1/DTD/svg11.dtd">
<!-- Generated by graphviz version 14.1.4 (20260321.0153)
 -->
<!-- Title: ImFusion::GlPoint Pages: 1 -->
<svg width="338pt" height="315pt"
 viewBox="0.00 0.00 338.00 315.00" xmlns="http://www.w3.org/2000/svg" xmlns:xlink="http://www.w3.org/1999/xlink">

<svg id="main" version="1.1" xmlns="http://www.w3.org/2000/svg" xmlns:xlink="http://www.w3.org/1999/xlink" xml:space="preserve">

<style type="text/css"><![CDATA[
.node, .edge {opacity: 0.7;}
.node.selected, .edge.selected {opacity: 1;}
.edge:hover path { stroke: red; }
.edge:hover polygon { stroke: red; fill: red; }
]]></style>
<script type="application/ecmascript" xlink:href="svg.min.js"/>
<svg id="graph" class="graph">
<g id="graph0" class="graph" transform="scale(1 1) rotate(0) translate(4 310.75)">
<title>ImFusion::GlPoint</title>
<!-- Node1 -->
<g id="Node000001" class="node">
<title>Node1</title>
<g id="a_Node000001"><a xlink:title="Point annotation.">
<polygon fill="#999999" stroke="#666666" points="218.88,-85.75 124.12,-85.75 124.12,-66.5 218.88,-66.5 218.88,-85.75"/>
<text xml:space="preserve" text-anchor="middle" x="171.5" y="-72.25" font-family="Helvetica,sans-Serif" font-size="10.00">ImFusion::GlPoint</text>
</a>
</g>
</g>
<!-- Node7 -->
<g id="Node000007" class="node">
<title>Node7</title>
<g id="a_Node000007"><a xlink:href="class_im_fusion_1_1_mesh_picking_manipulator.html" target="_top" xlink:title="Mesh picking manipulator The MeshPickingManipulator can return the list of selected vertices/faces/ed...">
<polygon fill="white" stroke="#666666" points="169,-24.88 0,-24.88 0,-5.63 169,-5.63 169,-24.88"/>
<text xml:space="preserve" text-anchor="middle" x="84.5" y="-11.38" font-family="Helvetica,sans-Serif" font-size="10.00">ImFusion::MeshPickingManipulator</text>
</a>
</g>
</g>
<!-- Node1&#45;&gt;Node7 -->
<g id="edge6_Node000001_Node000007" class="edge">
<title>Node1&#45;&gt;Node7</title>
<g id="a_edge6_Node000001_Node000007"><a xlink:title=" ">
<path fill="none" stroke="#63b8ff" d="M148.97,-59.88C132.75,-48.9 111.43,-34.47 97.84,-25.28"/>
<polygon fill="#63b8ff" stroke="#63b8ff" points="146.79,-62.63 157.03,-65.33 150.71,-56.83 146.79,-62.63"/>
</a>
</g>
</g>
<!-- Node8 -->
<g id="Node000008" class="node">
<title>Node8</title>
<g id="a_Node000008"><a xlink:href="class_im_fusion_1_1_point_cloud_picking_manipulator.html" target="_top" xlink:title="Point cloud picking manipulator The PointCloudPickingManipulator can return the list of selected vert...">
<polygon fill="white" stroke="#666666" points="329.88,-30.5 187.12,-30.5 187.12,0 329.88,0 329.88,-30.5"/>
<text xml:space="preserve" text-anchor="start" x="195.12" y="-17" font-family="Helvetica,sans-Serif" font-size="10.00">ImFusion::PointCloudPicking</text>
<text xml:space="preserve" text-anchor="middle" x="258.5" y="-5.75" font-family="Helvetica,sans-Serif" font-size="10.00">Manipulator</text>
</a>
</g>
</g>
<!-- Node1&#45;&gt;Node8 -->
<g id="edge7_Node000001_Node000008" class="edge">
<title>Node1&#45;&gt;Node8</title>
<g id="a_edge7_Node000001_Node000008"><a xlink:title=" ">
<path fill="none" stroke="#63b8ff" d="M194.07,-59.85C207.32,-50.89 223.97,-39.62 237.03,-30.78"/>
<polygon fill="#63b8ff" stroke="#63b8ff" points="192.29,-56.83 185.97,-65.33 196.21,-62.63 192.29,-56.83"/>
</a>
</g>
</g>
<!-- Node2 -->
<g id="Node000002" class="node">
<title>Node2</title>
<g id="a_Node000002"><a xlink:href="class_im_fusion_1_1_gl_point_based_annotation.html" target="_top" xlink:title="Base class for implementing point&#45;based annotations.">
<polygon fill="white" stroke="#666666" points="256,-141 87,-141 87,-121.75 256,-121.75 256,-141"/>
<text xml:space="preserve" text-anchor="middle" x="171.5" y="-127.5" font-family="Helvetica,sans-Serif" font-size="10.00">ImFusion::GlPointBasedAnnotation</text>
</a>
</g>
</g>
<!-- Node2&#45;&gt;Node1 -->
<g id="edge1_Node000001_Node000002" class="edge">
<title>Node2&#45;&gt;Node1</title>
<g id="a_edge1_Node000001_Node000002"><a xlink:title=" ">
<path fill="none" stroke="#63b8ff" d="M171.5,-110.13C171.5,-101.84 171.5,-92.67 171.5,-86.11"/>
<polygon fill="#63b8ff" stroke="#63b8ff" points="168,-110.07 171.5,-120.07 175,-110.07 168,-110.07"/>
</a>
</g>
</g>
<!-- Node3 -->
<g id="Node000003" class="node">
<title>Node3</title>
<g id="a_Node000003"><a xlink:href="class_im_fusion_1_1_gl_annotation.html" target="_top" xlink:title="Base class for implementing annotations.">
<polygon fill="white" stroke="#666666" points="230.88,-196.25 112.12,-196.25 112.12,-177 230.88,-177 230.88,-196.25"/>
<text xml:space="preserve" text-anchor="middle" x="171.5" y="-182.75" font-family="Helvetica,sans-Serif" font-size="10.00">ImFusion::GlAnnotation</text>
</a>
</g>
</g>
<!-- Node3&#45;&gt;Node2 -->
<g id="edge2_Node000002_Node000003" class="edge">
<title>Node3&#45;&gt;Node2</title>
<g id="a_edge2_Node000002_Node000003"><a xlink:title=" ">
<path fill="none" stroke="#63b8ff" d="M171.5,-165.38C171.5,-157.09 171.5,-147.92 171.5,-141.36"/>
<polygon fill="#63b8ff" stroke="#63b8ff" points="168,-165.32 171.5,-175.32 175,-165.32 168,-165.32"/>
</a>
</g>
</g>
<!-- Node4 -->
<g id="Node000004" class="node">
<title>Node4</title>
<g id="a_Node000004"><a xlink:href="class_im_fusion_1_1_gl_object.html" target="_top" xlink:title="Abstract base class for an renderable OpenGL object that can be hosted in a GlView.">
<polygon fill="white" stroke="#666666" points="151.88,-251.5 51.12,-251.5 51.12,-232.25 151.88,-232.25 151.88,-251.5"/>
<text xml:space="preserve" text-anchor="middle" x="101.5" y="-238" font-family="Helvetica,sans-Serif" font-size="10.00">ImFusion::GlObject</text>
</a>
</g>
</g>
<!-- Node4&#45;&gt;Node3 -->
<g id="edge3_Node000003_Node000004" class="edge">
<title>Node4&#45;&gt;Node3</title>
<g id="a_edge3_Node000003_Node000004"><a xlink:title=" ">
<path fill="none" stroke="#63b8ff" d="M122.45,-224.94C134.67,-215.64 149.64,-204.26 159.8,-196.52"/>
<polygon fill="#63b8ff" stroke="#63b8ff" points="120.42,-222.09 114.58,-230.93 124.66,-227.66 120.42,-222.09"/>
</a>
</g>
</g>
<!-- Node5 -->
<g id="Node000005" class="node">
<title>Node5</title>
<g id="a_Node000005"><a xlink:href="class_im_fusion_1_1_configurable.html" target="_top" xlink:title="Base interface for classes that support object serialization from/to Properties objects.">
<polygon fill="white" stroke="#666666" points="160.12,-306.75 42.88,-306.75 42.88,-287.5 160.12,-287.5 160.12,-306.75"/>
<text xml:space="preserve" text-anchor="middle" x="101.5" y="-293.25" font-family="Helvetica,sans-Serif" font-size="10.00">ImFusion::Configurable</text>
</a>
</g>
</g>
<!-- Node5&#45;&gt;Node4 -->
<g id="edge4_Node000004_Node000005" class="edge">
<title>Node5&#45;&gt;Node4</title>
<g id="a_edge4_Node000004_Node000005"><a xlink:title=" ">
<path fill="none" stroke="#63b8ff" d="M101.5,-275.88C101.5,-267.59 101.5,-258.42 101.5,-251.86"/>
<polygon fill="#63b8ff" stroke="#63b8ff" points="98,-275.82 101.5,-285.82 105,-275.82 98,-275.82"/>
</a>
</g>
</g>
<!-- Node6 -->
<g id="Node000006" class="node">
<title>Node6</title>
<g id="a_Node000006"><a xlink:href="class_im_fusion_1_1_utils_1_1_not_copyable.html" target="_top" xlink:title="Inherit from this class if your class should be neither copy&#45;constructible nor assignable.">
<polygon fill="white" stroke="#666666" points="315.38,-251.5 169.62,-251.5 169.62,-232.25 315.38,-232.25 315.38,-251.5"/>
<text xml:space="preserve" text-anchor="middle" x="242.5" y="-238" font-family="Helvetica,sans-Serif" font-size="10.00">ImFusion::Utils::NotCopyable</text>
</a>
</g>
</g>
<!-- Node6&#45;&gt;Node3 -->
<g id="edge5_Node000003_Node000006" class="edge">
<title>Node6&#45;&gt;Node3</title>
<g id="a_edge5_Node000003_Node000006"><a xlink:title=" ">
<path fill="none" stroke="#8b1a1a" d="M221.25,-224.94C208.86,-215.64 193.68,-204.26 183.37,-196.52"/>
<polygon fill="#8b1a1a" stroke="#8b1a1a" points="219.14,-227.73 229.24,-230.93 223.34,-222.13 219.14,-227.73"/>
</a>
</g>
</g>
</g>
</svg>
</svg>

<style type='text/css'>
<![CDATA[
[data-mouse-over-selected='false'] { opacity: 0.7; }
[data-mouse-over-selected='true']  { opacity: 1.0; }
]]>
</style>
<script type="application/ecmascript"><![CDATA[
document.addEventListener('DOMContentLoaded', (event) => {
  highlightEdges();
  highlightAdjacentNodes();
});
]]></script>
</svg>
