<?xml version="1.0" encoding="UTF-8" standalone="no"?>
<!DOCTYPE svg PUBLIC "-//W3C//DTD SVG 1.1//EN"
 "http://www.w3.org/Graphics/SVG/1.1/DTD/svg11.dtd">
<!-- Generated by graphviz version 14.1.4 (20260321.0153)
 -->
<!-- Title: ImFusion::TPSImageRegistration Pages: 1 -->
<svg width="370pt" height="326pt"
 viewBox="0.00 0.00 370.00 326.00" xmlns="http://www.w3.org/2000/svg" xmlns:xlink="http://www.w3.org/1999/xlink">

<svg id="main" version="1.1" xmlns="http://www.w3.org/2000/svg" xmlns:xlink="http://www.w3.org/1999/xlink" xml:space="preserve">

<style type="text/css"><![CDATA[
.node, .edge {opacity: 0.7;}
.node.selected, .edge.selected {opacity: 1;}
.edge:hover path { stroke: red; }
.edge:hover polygon { stroke: red; fill: red; }
]]></style>
<script type="application/ecmascript" xlink:href="svg.min.js"/>
<svg id="graph" class="graph">
<g id="graph0" class="graph" transform="scale(1 1) rotate(0) translate(4 322)">
<title>ImFusion::TPSImageRegistration</title>
<!-- Node1 -->
<g id="Node000001" class="node">
<title>Node1</title>
<g id="a_Node000001"><a xlink:title="Registers two images with a non&#45;linear deformation based on TPSs.">
<polygon fill="#999999" stroke="#666666" points="298.38,-19.25 136.88,-19.25 136.88,0 298.38,0 298.38,-19.25"/>
<text xml:space="preserve" text-anchor="middle" x="217.62" y="-5.75" font-family="Helvetica,sans-Serif" font-size="10.00">ImFusion::TPSImageRegistration</text>
</a>
</g>
</g>
<!-- Node2 -->
<g id="Node000002" class="node">
<title>Node2</title>
<g id="a_Node000002"><a xlink:href="class_im_fusion_1_1_parametric_deformable_registration.html" target="_top" xlink:title="Registers two images with a non&#45;linear deformation based on TPSs.">
<polygon fill="white" stroke="#666666" points="297.62,-85.75 137.62,-85.75 137.62,-55.25 297.62,-55.25 297.62,-85.75"/>
<text xml:space="preserve" text-anchor="start" x="145.62" y="-72.25" font-family="Helvetica,sans-Serif" font-size="10.00">ImFusion::ParametricDeformable</text>
<text xml:space="preserve" text-anchor="middle" x="217.62" y="-61" font-family="Helvetica,sans-Serif" font-size="10.00">Registration</text>
</a>
</g>
</g>
<!-- Node2&#45;&gt;Node1 -->
<g id="edge1_Node000001_Node000002" class="edge">
<title>Node2&#45;&gt;Node1</title>
<g id="a_edge1_Node000001_Node000002"><a xlink:title=" ">
<path fill="none" stroke="#63b8ff" d="M217.62,-43.48C217.62,-34.98 217.62,-26.09 217.62,-19.7"/>
<polygon fill="#63b8ff" stroke="#63b8ff" points="214.13,-43.43 217.63,-53.43 221.13,-43.43 214.13,-43.43"/>
</a>
</g>
</g>
<!-- Node3 -->
<g id="Node000003" class="node">
<title>Node3</title>
<g id="a_Node000003"><a xlink:href="class_im_fusion_1_1_parametric_image_registration.html" target="_top" xlink:title="Base class for parametric image registration algorithms.">
<polygon fill="white" stroke="#666666" points="286,-152.25 149.25,-152.25 149.25,-121.75 286,-121.75 286,-152.25"/>
<text xml:space="preserve" text-anchor="start" x="157.25" y="-138.75" font-family="Helvetica,sans-Serif" font-size="10.00">ImFusion::ParametricImage</text>
<text xml:space="preserve" text-anchor="middle" x="217.62" y="-127.5" font-family="Helvetica,sans-Serif" font-size="10.00">Registration</text>
</a>
</g>
</g>
<!-- Node3&#45;&gt;Node2 -->
<g id="edge2_Node000002_Node000003" class="edge">
<title>Node3&#45;&gt;Node2</title>
<g id="a_edge2_Node000002_Node000003"><a xlink:title=" ">
<path fill="none" stroke="#63b8ff" d="M217.62,-110.06C217.62,-101.89 217.62,-93.16 217.62,-86.08"/>
<polygon fill="#63b8ff" stroke="#63b8ff" points="214.13,-109.85 217.63,-119.85 221.13,-109.85 214.13,-109.85"/>
</a>
</g>
</g>
<!-- Node4 -->
<g id="Node000004" class="node">
<title>Node4</title>
<g id="a_Node000004"><a xlink:href="class_im_fusion_1_1_abstract_image_registration.html" target="_top" xlink:title="The AbstractImageRegistration class is an interface for all image&#45;based registrations.">
<polygon fill="white" stroke="#666666" points="223,-207.5 44.25,-207.5 44.25,-188.25 223,-188.25 223,-207.5"/>
<text xml:space="preserve" text-anchor="middle" x="133.62" y="-194" font-family="Helvetica,sans-Serif" font-size="10.00">ImFusion::AbstractImageRegistration</text>
</a>
</g>
</g>
<!-- Node4&#45;&gt;Node3 -->
<g id="edge3_Node000003_Node000004" class="edge">
<title>Node4&#45;&gt;Node3</title>
<g id="a_edge3_Node000003_Node000004"><a xlink:title=" ">
<path fill="none" stroke="#63b8ff" d="M155.79,-181.34C168.52,-172.42 184.41,-161.28 196.89,-152.53"/>
<polygon fill="#63b8ff" stroke="#63b8ff" points="153.8,-178.46 147.62,-187.06 157.82,-184.19 153.8,-178.46"/>
</a>
</g>
</g>
<!-- Node5 -->
<g id="Node000005" class="node">
<title>Node5</title>
<g id="a_Node000005"><a xlink:href="class_im_fusion_1_1_algorithm.html" target="_top" xlink:title="Interface for describing algorithms that can be made available in the ImFusion Suite through Algorith...">
<polygon fill="white" stroke="#666666" points="185.5,-262.75 81.75,-262.75 81.75,-243.5 185.5,-243.5 185.5,-262.75"/>
<text xml:space="preserve" text-anchor="middle" x="133.62" y="-249.25" font-family="Helvetica,sans-Serif" font-size="10.00">ImFusion::Algorithm</text>
</a>
</g>
</g>
<!-- Node5&#45;&gt;Node4 -->
<g id="edge4_Node000004_Node000005" class="edge">
<title>Node5&#45;&gt;Node4</title>
<g id="a_edge4_Node000004_Node000005"><a xlink:title=" ">
<path fill="none" stroke="#63b8ff" d="M133.62,-231.88C133.62,-223.59 133.62,-214.42 133.62,-207.86"/>
<polygon fill="#63b8ff" stroke="#63b8ff" points="130.13,-231.82 133.63,-241.82 137.13,-231.82 130.13,-231.82"/>
</a>
</g>
</g>
<!-- Node6 -->
<g id="Node000006" class="node">
<title>Node6</title>
<g id="a_Node000006"><a xlink:href="class_im_fusion_1_1_configurable.html" target="_top" xlink:title="Base interface for classes that support object serialization from/to Properties objects.">
<polygon fill="white" stroke="#666666" points="117.25,-318 0,-318 0,-298.75 117.25,-298.75 117.25,-318"/>
<text xml:space="preserve" text-anchor="middle" x="58.62" y="-304.5" font-family="Helvetica,sans-Serif" font-size="10.00">ImFusion::Configurable</text>
</a>
</g>
</g>
<!-- Node6&#45;&gt;Node5 -->
<g id="edge5_Node000005_Node000006" class="edge">
<title>Node6&#45;&gt;Node5</title>
<g id="a_edge5_Node000005_Node000006"><a xlink:title=" ">
<path fill="none" stroke="#63b8ff" d="M80.62,-291.76C93.7,-282.47 109.83,-271.02 120.84,-263.2"/>
<polygon fill="#63b8ff" stroke="#63b8ff" points="78.71,-288.82 72.58,-297.47 82.76,-294.53 78.71,-288.82"/>
</a>
</g>
</g>
<!-- Node7 -->
<g id="Node000007" class="node">
<title>Node7</title>
<g id="a_Node000007"><a xlink:href="class_im_fusion_1_1_utils_1_1_not_copyable.html" target="_top" xlink:title="Inherit from this class if your class should be neither copy&#45;constructible nor assignable.">
<polygon fill="white" stroke="#666666" points="281.5,-318 135.75,-318 135.75,-298.75 281.5,-298.75 281.5,-318"/>
<text xml:space="preserve" text-anchor="middle" x="208.62" y="-304.5" font-family="Helvetica,sans-Serif" font-size="10.00">ImFusion::Utils::NotCopyable</text>
</a>
</g>
</g>
<!-- Node7&#45;&gt;Node5 -->
<g id="edge6_Node000005_Node000007" class="edge">
<title>Node7&#45;&gt;Node5</title>
<g id="a_edge6_Node000005_Node000007"><a xlink:title=" ">
<path fill="none" stroke="#8b1a1a" d="M186.63,-291.76C173.55,-282.47 157.42,-271.02 146.41,-263.2"/>
<polygon fill="#8b1a1a" stroke="#8b1a1a" points="184.49,-294.53 194.67,-297.47 188.54,-288.82 184.49,-294.53"/>
</a>
</g>
</g>
<!-- Node8 -->
<g id="Node000008" class="node">
<title>Node8</title>
<g id="a_Node000008"><a xlink:href="class_im_fusion_1_1_cost_function.html" target="_top" xlink:title="Interface for a cost function that can be optimized.">
<polygon fill="white" stroke="#666666" points="362.12,-207.5 241.12,-207.5 241.12,-188.25 362.12,-188.25 362.12,-207.5"/>
<text xml:space="preserve" text-anchor="middle" x="301.62" y="-194" font-family="Helvetica,sans-Serif" font-size="10.00">ImFusion::CostFunction</text>
</a>
</g>
</g>
<!-- Node8&#45;&gt;Node3 -->
<g id="edge7_Node000003_Node000008" class="edge">
<title>Node8&#45;&gt;Node3</title>
<g id="a_edge7_Node000003_Node000008"><a xlink:title=" ">
<path fill="none" stroke="#63b8ff" d="M279.46,-181.34C266.73,-172.42 250.84,-161.28 238.36,-152.53"/>
<polygon fill="#63b8ff" stroke="#63b8ff" points="277.43,-184.19 287.63,-187.06 281.45,-178.46 277.43,-184.19"/>
</a>
</g>
</g>
</g>
</svg>
</svg>

<style type='text/css'>
<![CDATA[
[data-mouse-over-selected='false'] { opacity: 0.7; }
[data-mouse-over-selected='true']  { opacity: 1.0; }
]]>
</style>
<script type="application/ecmascript"><![CDATA[
document.addEventListener('DOMContentLoaded', (event) => {
  highlightEdges();
  highlightAdjacentNodes();
});
]]></script>
</svg>
