<?xml version="1.0" encoding="UTF-8" standalone="no"?>
<!DOCTYPE svg PUBLIC "-//W3C//DTD SVG 1.1//EN"
 "http://www.w3.org/Graphics/SVG/1.1/DTD/svg11.dtd">
<!-- Generated by graphviz version 14.1.4 (20260321.0153)
 -->
<!-- Title: ImFusion::TemporaryDataComponent Pages: 1 -->
<svg width="748pt" height="248pt"
 viewBox="0.00 0.00 748.00 248.00" xmlns="http://www.w3.org/2000/svg" xmlns:xlink="http://www.w3.org/1999/xlink">
<g id="graph0" class="graph" transform="scale(1 1) rotate(0) translate(4 243.5)">
<title>ImFusion::TemporaryDataComponent</title>
<!-- Node1 -->
<g id="Node000001" class="node">
<title>Node1</title>
<g id="a_Node000001"><a xlink:title="Specialization of DataComponentBase that disables serialization, copying and assignment.">
<polygon fill="#999999" stroke="#666666" points="525,-122.88 345.5,-122.88 345.5,-103.62 525,-103.62 525,-122.88"/>
<text xml:space="preserve" text-anchor="middle" x="435.25" y="-109.38" font-family="Helvetica,sans-Serif" font-size="10.00">ImFusion::TemporaryDataComponent</text>
</a>
</g>
</g>
<!-- Node4 -->
<g id="Node000004" class="node">
<title>Node4</title>
<g id="a_Node000004"><a xlink:href="class_im_fusion_1_1_dicom_1_1_overlay_data_component.html" target="_top" xlink:title="DataComponent providing DICOM overlays.">
<polygon fill="white" stroke="#666666" points="715.75,-239.5 585,-239.5 585,-209 715.75,-209 715.75,-239.5"/>
<text xml:space="preserve" text-anchor="start" x="593" y="-226" font-family="Helvetica,sans-Serif" font-size="10.00">ImFusion::Dicom::Overlay</text>
<text xml:space="preserve" text-anchor="middle" x="650.38" y="-214.75" font-family="Helvetica,sans-Serif" font-size="10.00">DataComponent</text>
</a>
</g>
</g>
<!-- Node1&#45;&gt;Node4 -->
<g id="edge3_Node000001_Node000004" class="edge">
<title>Node1&#45;&gt;Node4</title>
<g id="a_edge3_Node000001_Node000004"><a xlink:title=" ">
<path fill="none" stroke="#63b8ff" d="M456.59,-130.43C480.28,-149.66 521.25,-180.55 561,-199.25 568.5,-202.78 576.6,-205.91 584.75,-208.65"/>
<polygon fill="#63b8ff" stroke="#63b8ff" points="458.94,-127.83 449,-124.17 454.49,-133.23 458.94,-127.83"/>
</a>
</g>
</g>
<!-- Node5 -->
<g id="Node000005" class="node">
<title>Node5</title>
<g id="a_Node000005"><a xlink:href="class_im_fusion_1_1_dicom_1_1_r_t_structure_rendering_data_component.html" target="_top" xlink:title="Internal rendering data that represent a RT Structure.">
<polygon fill="white" stroke="#666666" points="725.5,-190.5 575.25,-190.5 575.25,-160 725.5,-160 725.5,-190.5"/>
<text xml:space="preserve" text-anchor="start" x="583.25" y="-177" font-family="Helvetica,sans-Serif" font-size="10.00">ImFusion::Dicom::RTStructure</text>
<text xml:space="preserve" text-anchor="middle" x="650.38" y="-165.75" font-family="Helvetica,sans-Serif" font-size="10.00">RenderingDataComponent</text>
</a>
</g>
</g>
<!-- Node1&#45;&gt;Node5 -->
<g id="edge4_Node000001_Node000005" class="edge">
<title>Node1&#45;&gt;Node5</title>
<g id="a_edge4_Node000001_Node000005"><a xlink:title=" ">
<path fill="none" stroke="#63b8ff" d="M479.35,-126.73C503.34,-134.15 533.77,-143.41 561,-151.25 570.62,-154.02 580.86,-156.88 590.83,-159.62"/>
<polygon fill="#63b8ff" stroke="#63b8ff" points="480.51,-123.43 469.92,-123.81 478.44,-130.11 480.51,-123.43"/>
</a>
</g>
</g>
<!-- Node6 -->
<g id="Node000006" class="node">
<title>Node6</title>
<g id="a_Node000006"><a xlink:href="class_im_fusion_1_1_histogram_data_component.html" target="_top" xlink:title="DataComponent storing information on the intensity distribution of the image they are attached to.">
<polygon fill="white" stroke="#666666" points="739.75,-141.88 561,-141.88 561,-122.62 739.75,-122.62 739.75,-141.88"/>
<text xml:space="preserve" text-anchor="middle" x="650.38" y="-128.38" font-family="Helvetica,sans-Serif" font-size="10.00">ImFusion::HistogramDataComponent</text>
</a>
</g>
</g>
<!-- Node1&#45;&gt;Node6 -->
<g id="edge5_Node000001_Node000006" class="edge">
<title>Node1&#45;&gt;Node6</title>
<g id="a_edge5_Node000001_Node000006"><a xlink:title=" ">
<path fill="none" stroke="#63b8ff" d="M536.65,-122.2C544.64,-122.91 552.68,-123.63 560.58,-124.33"/>
<polygon fill="#63b8ff" stroke="#63b8ff" points="537.18,-118.73 526.91,-121.33 536.56,-125.71 537.18,-118.73"/>
</a>
</g>
</g>
<!-- Node7 -->
<g id="Node000007" class="node">
<title>Node7</title>
<g id="a_Node000007"><a xlink:href="class_im_fusion_1_1_label_bg_data_component.html" target="_top" xlink:title=" ">
<polygon fill="white" stroke="#bfbfbf" points="734.88,-104.88 565.88,-104.88 565.88,-85.62 734.88,-85.62 734.88,-104.88"/>
<text xml:space="preserve" text-anchor="middle" x="650.38" y="-91.38" font-family="Helvetica,sans-Serif" font-size="10.00">ImFusion::LabelBgDataComponent</text>
</a>
</g>
</g>
<!-- Node1&#45;&gt;Node7 -->
<g id="edge6_Node000001_Node000007" class="edge">
<title>Node1&#45;&gt;Node7</title>
<g id="a_edge6_Node000001_Node000007"><a xlink:title=" ">
<path fill="none" stroke="#63b8ff" d="M536.73,-104.76C546.42,-103.95 556.19,-103.12 565.69,-102.32"/>
<polygon fill="#63b8ff" stroke="#63b8ff" points="536.58,-101.26 526.91,-105.59 537.17,-108.24 536.58,-101.26"/>
</a>
</g>
</g>
<!-- Node8 -->
<g id="Node000008" class="node">
<title>Node8</title>
<g id="a_Node000008"><a xlink:href="class_im_fusion_1_1_octree_data_component.html" target="_top" xlink:title="DataComponent to store Octrees directly with their SharedImageSet.">
<polygon fill="white" stroke="#666666" points="731.88,-67.88 568.88,-67.88 568.88,-48.62 731.88,-48.62 731.88,-67.88"/>
<text xml:space="preserve" text-anchor="middle" x="650.38" y="-54.38" font-family="Helvetica,sans-Serif" font-size="10.00">ImFusion::OctreeDataComponent</text>
</a>
</g>
</g>
<!-- Node1&#45;&gt;Node8 -->
<g id="edge7_Node000001_Node000008" class="edge">
<title>Node1&#45;&gt;Node8</title>
<g id="a_edge7_Node000001_Node000008"><a xlink:title=" ">
<path fill="none" stroke="#63b8ff" d="M478.45,-99.73C502.5,-92.28 533.28,-83.17 561,-76.25 572.24,-73.44 584.37,-70.76 595.93,-68.35"/>
<polygon fill="#63b8ff" stroke="#63b8ff" points="477.52,-96.36 469.02,-102.68 479.61,-103.04 477.52,-96.36"/>
</a>
</g>
</g>
<!-- Node9 -->
<g id="Node000009" class="node">
<title>Node9</title>
<g id="a_Node000009"><a xlink:href="class_im_fusion_1_1_unrestored_data_components.html" target="_top" xlink:title="DataComponent containing the configurations of other components that could not be restored during loa...">
<polygon fill="white" stroke="#666666" points="716.12,-30.5 584.62,-30.5 584.62,0 716.12,0 716.12,-30.5"/>
<text xml:space="preserve" text-anchor="start" x="592.62" y="-17" font-family="Helvetica,sans-Serif" font-size="10.00">ImFusion::UnrestoredData</text>
<text xml:space="preserve" text-anchor="middle" x="650.38" y="-5.75" font-family="Helvetica,sans-Serif" font-size="10.00">Components</text>
</a>
</g>
</g>
<!-- Node1&#45;&gt;Node9 -->
<g id="edge8_Node000001_Node000009" class="edge">
<title>Node1&#45;&gt;Node9</title>
<g id="a_edge8_Node000001_Node000009"><a xlink:title=" ">
<path fill="none" stroke="#63b8ff" d="M459.61,-96.77C483.95,-80.24 523.66,-55.05 561,-39.25 568.47,-36.09 576.47,-33.24 584.49,-30.69"/>
<polygon fill="#63b8ff" stroke="#63b8ff" points="457.67,-93.85 451.42,-102.41 461.64,-99.62 457.67,-93.85"/>
</a>
</g>
</g>
<!-- Node2 -->
<g id="Node000002" class="node">
<title>Node2</title>
<g id="a_Node000002"><a xlink:href="class_im_fusion_1_1_data_component_base.html" target="_top" xlink:title="Data components provide a way to generically attach custom information objects.">
<polygon fill="white" stroke="#666666" points="309.5,-122.88 153.25,-122.88 153.25,-103.62 309.5,-103.62 309.5,-122.88"/>
<text xml:space="preserve" text-anchor="middle" x="231.38" y="-109.38" font-family="Helvetica,sans-Serif" font-size="10.00">ImFusion::DataComponentBase</text>
</a>
</g>
</g>
<!-- Node2&#45;&gt;Node1 -->
<g id="edge1_Node000001_Node000002" class="edge">
<title>Node2&#45;&gt;Node1</title>
<g id="a_edge1_Node000001_Node000002"><a xlink:title=" ">
<path fill="none" stroke="#63b8ff" d="M321.35,-113.25C329.26,-113.25 337.28,-113.25 345.19,-113.25"/>
<polygon fill="#63b8ff" stroke="#63b8ff" points="321.36,-109.75 311.36,-113.25 321.36,-116.75 321.36,-109.75"/>
</a>
</g>
</g>
<!-- Node3 -->
<g id="Node000003" class="node">
<title>Node3</title>
<g id="a_Node000003"><a xlink:href="class_im_fusion_1_1_configurable.html" target="_top" xlink:title="Base interface for classes that support object serialization from/to Properties objects.">
<polygon fill="white" stroke="#666666" points="117.25,-122.88 0,-122.88 0,-103.62 117.25,-103.62 117.25,-122.88"/>
<text xml:space="preserve" text-anchor="middle" x="58.62" y="-109.38" font-family="Helvetica,sans-Serif" font-size="10.00">ImFusion::Configurable</text>
</a>
</g>
</g>
<!-- Node3&#45;&gt;Node2 -->
<g id="edge2_Node000002_Node000003" class="edge">
<title>Node3&#45;&gt;Node2</title>
<g id="a_edge2_Node000002_Node000003"><a xlink:title=" ">
<path fill="none" stroke="#63b8ff" d="M128.88,-113.25C136.8,-113.25 144.92,-113.25 152.95,-113.25"/>
<polygon fill="#63b8ff" stroke="#63b8ff" points="128.95,-109.75 118.95,-113.25 128.95,-116.75 128.95,-109.75"/>
</a>
</g>
</g>
</g>
</svg>
