<?xml version="1.0" encoding="UTF-8" standalone="no"?>
<!DOCTYPE svg PUBLIC "-//W3C//DTD SVG 1.1//EN"
 "http://www.w3.org/Graphics/SVG/1.1/DTD/svg11.dtd">
<!-- Generated by graphviz version 14.1.4 (20260321.0153)
 -->
<!-- Title: ImFusion::DicomIoAlgorithm Pages: 1 -->
<svg width="813pt" height="125pt"
 viewBox="0.00 0.00 813.00 125.00" xmlns="http://www.w3.org/2000/svg" xmlns:xlink="http://www.w3.org/1999/xlink">
<g id="graph0" class="graph" transform="scale(1 1) rotate(0) translate(4 120.5)">
<title>ImFusion::DicomIoAlgorithm</title>
<!-- Node1 -->
<g id="Node000001" class="node">
<title>Node1</title>
<g id="a_Node000001"><a xlink:title="IoAlgorithm for reading and writing DICOM files.">
<polygon fill="#999999" stroke="#666666" points="610,-67.88 469.5,-67.88 469.5,-48.62 610,-48.62 610,-67.88"/>
<text xml:space="preserve" text-anchor="middle" x="539.75" y="-54.38" font-family="Helvetica,sans-Serif" font-size="10.00">ImFusion::DicomIoAlgorithm</text>
</a>
</g>
</g>
<!-- Node6 -->
<g id="Node000006" class="node">
<title>Node6</title>
<g id="a_Node000006"><a xlink:href="class_im_fusion_1_1_dicom_i_o_algorithm_browser.html" target="_top" xlink:title=" ">
<polygon fill="white" stroke="#bfbfbf" points="796.62,-116.5 653.88,-116.5 653.88,-86 796.62,-86 796.62,-116.5"/>
<text xml:space="preserve" text-anchor="start" x="661.88" y="-103" font-family="Helvetica,sans-Serif" font-size="10.00">ImFusion::DicomIOAlgorithm</text>
<text xml:space="preserve" text-anchor="middle" x="725.25" y="-91.75" font-family="Helvetica,sans-Serif" font-size="10.00">Browser</text>
</a>
</g>
</g>
<!-- Node1&#45;&gt;Node6 -->
<g id="edge5_Node000001_Node000006" class="edge">
<title>Node1&#45;&gt;Node6</title>
<g id="a_edge5_Node000001_Node000006"><a xlink:title=" ">
<path fill="none" stroke="#63b8ff" d="M594.9,-70.94C614.39,-75.51 636.61,-80.71 657.08,-85.51"/>
<polygon fill="#63b8ff" stroke="#63b8ff" points="595.78,-67.55 585.25,-68.68 594.18,-74.37 595.78,-67.55"/>
</a>
</g>
</g>
<!-- Node7 -->
<g id="Node000007" class="node">
<title>Node7</title>
<g id="a_Node000007"><a xlink:href="class_im_fusion_1_1_dicom_i_o_algorithm_file.html" target="_top" xlink:title=" ">
<polygon fill="white" stroke="#bfbfbf" points="804.5,-67.88 646,-67.88 646,-48.62 804.5,-48.62 804.5,-67.88"/>
<text xml:space="preserve" text-anchor="middle" x="725.25" y="-54.38" font-family="Helvetica,sans-Serif" font-size="10.00">ImFusion::DicomIOAlgorithmFile</text>
</a>
</g>
</g>
<!-- Node1&#45;&gt;Node7 -->
<g id="edge6_Node000001_Node000007" class="edge">
<title>Node1&#45;&gt;Node7</title>
<g id="a_edge6_Node000001_Node000007"><a xlink:title=" ">
<path fill="none" stroke="#63b8ff" d="M621.9,-58.25C629.82,-58.25 637.86,-58.25 645.76,-58.25"/>
<polygon fill="#63b8ff" stroke="#63b8ff" points="621.9,-54.75 611.9,-58.25 621.9,-61.75 621.9,-54.75"/>
</a>
</g>
</g>
<!-- Node8 -->
<g id="Node000008" class="node">
<title>Node8</title>
<g id="a_Node000008"><a xlink:href="class_im_fusion_1_1_dicom_i_o_algorithm_folder.html" target="_top" xlink:title=" ">
<polygon fill="white" stroke="#bfbfbf" points="796.62,-30.5 653.88,-30.5 653.88,0 796.62,0 796.62,-30.5"/>
<text xml:space="preserve" text-anchor="start" x="661.88" y="-17" font-family="Helvetica,sans-Serif" font-size="10.00">ImFusion::DicomIOAlgorithm</text>
<text xml:space="preserve" text-anchor="middle" x="725.25" y="-5.75" font-family="Helvetica,sans-Serif" font-size="10.00">Folder</text>
</a>
</g>
</g>
<!-- Node1&#45;&gt;Node8 -->
<g id="edge7_Node000001_Node000008" class="edge">
<title>Node1&#45;&gt;Node8</title>
<g id="a_edge7_Node000001_Node000008"><a xlink:title=" ">
<path fill="none" stroke="#63b8ff" d="M594.9,-45.56C614.39,-40.99 636.61,-35.79 657.08,-30.99"/>
<polygon fill="#63b8ff" stroke="#63b8ff" points="594.18,-42.13 585.25,-47.82 595.78,-48.95 594.18,-42.13"/>
</a>
</g>
</g>
<!-- Node2 -->
<g id="Node000002" class="node">
<title>Node2</title>
<g id="a_Node000002"><a xlink:href="class_im_fusion_1_1_io_algorithm.html" target="_top" xlink:title="Interface for describing IO algorithms.">
<polygon fill="white" stroke="#666666" points="433.5,-67.88 321.5,-67.88 321.5,-48.62 433.5,-48.62 433.5,-67.88"/>
<text xml:space="preserve" text-anchor="middle" x="377.5" y="-54.38" font-family="Helvetica,sans-Serif" font-size="10.00">ImFusion::IoAlgorithm</text>
</a>
</g>
</g>
<!-- Node2&#45;&gt;Node1 -->
<g id="edge1_Node000001_Node000002" class="edge">
<title>Node2&#45;&gt;Node1</title>
<g id="a_edge1_Node000001_Node000002"><a xlink:title=" ">
<path fill="none" stroke="#63b8ff" d="M445.08,-58.25C453,-58.25 461.1,-58.25 469.06,-58.25"/>
<polygon fill="#63b8ff" stroke="#63b8ff" points="445.16,-54.75 435.16,-58.25 445.16,-61.75 445.16,-54.75"/>
</a>
</g>
</g>
<!-- Node3 -->
<g id="Node000003" class="node">
<title>Node3</title>
<g id="a_Node000003"><a xlink:href="class_im_fusion_1_1_algorithm.html" target="_top" xlink:title="Interface for describing algorithms that can be made available in the ImFusion Suite through Algorith...">
<polygon fill="white" stroke="#666666" points="285.5,-67.88 181.75,-67.88 181.75,-48.62 285.5,-48.62 285.5,-67.88"/>
<text xml:space="preserve" text-anchor="middle" x="233.62" y="-54.38" font-family="Helvetica,sans-Serif" font-size="10.00">ImFusion::Algorithm</text>
</a>
</g>
</g>
<!-- Node3&#45;&gt;Node2 -->
<g id="edge2_Node000002_Node000003" class="edge">
<title>Node3&#45;&gt;Node2</title>
<g id="a_edge2_Node000002_Node000003"><a xlink:title=" ">
<path fill="none" stroke="#63b8ff" d="M297.29,-58.25C305.2,-58.25 313.25,-58.25 321.04,-58.25"/>
<polygon fill="#63b8ff" stroke="#63b8ff" points="297.36,-54.75 287.36,-58.25 297.36,-61.75 297.36,-54.75"/>
</a>
</g>
</g>
<!-- Node4 -->
<g id="Node000004" class="node">
<title>Node4</title>
<g id="a_Node000004"><a xlink:href="class_im_fusion_1_1_configurable.html" target="_top" xlink:title="Base interface for classes that support object serialization from/to Properties objects.">
<polygon fill="white" stroke="#666666" points="131.5,-86.88 14.25,-86.88 14.25,-67.62 131.5,-67.62 131.5,-86.88"/>
<text xml:space="preserve" text-anchor="middle" x="72.88" y="-73.38" font-family="Helvetica,sans-Serif" font-size="10.00">ImFusion::Configurable</text>
</a>
</g>
</g>
<!-- Node4&#45;&gt;Node3 -->
<g id="edge3_Node000003_Node000004" class="edge">
<title>Node4&#45;&gt;Node3</title>
<g id="a_edge3_Node000003_Node000004"><a xlink:title=" ">
<path fill="none" stroke="#63b8ff" d="M142.89,-68.99C155.85,-67.44 169.18,-65.84 181.47,-64.37"/>
<polygon fill="#63b8ff" stroke="#63b8ff" points="142.65,-65.49 133.14,-70.16 143.48,-72.44 142.65,-65.49"/>
</a>
</g>
</g>
<!-- Node5 -->
<g id="Node000005" class="node">
<title>Node5</title>
<g id="a_Node000005"><a xlink:href="class_im_fusion_1_1_utils_1_1_not_copyable.html" target="_top" xlink:title="Inherit from this class if your class should be neither copy&#45;constructible nor assignable.">
<polygon fill="white" stroke="#666666" points="145.75,-49.88 0,-49.88 0,-30.62 145.75,-30.62 145.75,-49.88"/>
<text xml:space="preserve" text-anchor="middle" x="72.88" y="-36.38" font-family="Helvetica,sans-Serif" font-size="10.00">ImFusion::Utils::NotCopyable</text>
</a>
</g>
</g>
<!-- Node5&#45;&gt;Node3 -->
<g id="edge4_Node000003_Node000005" class="edge">
<title>Node5&#45;&gt;Node3</title>
<g id="a_edge4_Node000003_Node000005"><a xlink:title=" ">
<path fill="none" stroke="#8b1a1a" d="M157.08,-49.68C165.34,-50.62 173.54,-51.55 181.33,-52.43"/>
<polygon fill="#8b1a1a" stroke="#8b1a1a" points="157.65,-46.23 147.32,-48.58 156.86,-53.18 157.65,-46.23"/>
</a>
</g>
</g>
</g>
</svg>
