<?xml version="1.0" encoding="UTF-8" standalone="no"?>
<!DOCTYPE svg PUBLIC "-//W3C//DTD SVG 1.1//EN"
 "http://www.w3.org/Graphics/SVG/1.1/DTD/svg11.dtd">
<!-- Generated by graphviz version 14.1.4 (20260321.0153)
 -->
<!-- Title: ImFusion::InteractiveSegAction Pages: 1 -->
<svg width="292pt" height="204pt"
 viewBox="0.00 0.00 292.00 204.00" xmlns="http://www.w3.org/2000/svg" xmlns:xlink="http://www.w3.org/1999/xlink">
<g id="graph0" class="graph" transform="scale(1 1) rotate(0) translate(4 200.25)">
<title>ImFusion::InteractiveSegAction</title>
<!-- Node1 -->
<g id="Node000001" class="node">
<title>Node1</title>
<g id="a_Node000001"><a xlink:title=" ">
<polygon fill="#999999" stroke="#666666" points="156.12,-30.5 30.62,-30.5 30.62,0 156.12,0 156.12,-30.5"/>
<text xml:space="preserve" text-anchor="start" x="38.62" y="-17" font-family="Helvetica,sans-Serif" font-size="10.00">ImFusion::InteractiveSeg</text>
<text xml:space="preserve" text-anchor="middle" x="93.38" y="-5.75" font-family="Helvetica,sans-Serif" font-size="10.00">Action</text>
</a>
</g>
</g>
<!-- Node2 -->
<g id="Node000002" class="node">
<title>Node2</title>
<g id="a_Node000002"><a xlink:title=" ">
<polygon fill="white" stroke="#bfbfbf" points="68.38,-85.75 16.38,-85.75 16.38,-66.5 68.38,-66.5 68.38,-85.75"/>
<text xml:space="preserve" text-anchor="middle" x="42.38" y="-72.25" font-family="Helvetica,sans-Serif" font-size="10.00">QObject</text>
</a>
</g>
</g>
<!-- Node2&#45;&gt;Node1 -->
<g id="edge1_Node000001_Node000002" class="edge">
<title>Node2&#45;&gt;Node1</title>
<g id="a_edge1_Node000001_Node000002"><a xlink:title=" ">
<path fill="none" stroke="#63b8ff" d="M57.47,-57.7C64.89,-49.13 73.73,-38.92 80.79,-30.78"/>
<polygon fill="#63b8ff" stroke="#63b8ff" points="55.01,-55.19 51.11,-65.04 60.3,-59.77 55.01,-55.19"/>
</a>
</g>
</g>
<!-- Node3 -->
<g id="Node000003" class="node">
<title>Node3</title>
<g id="a_Node000003"><a xlink:href="class_im_fusion_1_1_brush_action.html" target="_top" xlink:title=" ">
<polygon fill="white" stroke="#bfbfbf" points="202.25,-85.75 86.5,-85.75 86.5,-66.5 202.25,-66.5 202.25,-85.75"/>
<text xml:space="preserve" text-anchor="middle" x="144.38" y="-72.25" font-family="Helvetica,sans-Serif" font-size="10.00">ImFusion::BrushAction</text>
</a>
</g>
</g>
<!-- Node3&#45;&gt;Node1 -->
<g id="edge2_Node000001_Node000003" class="edge">
<title>Node3&#45;&gt;Node1</title>
<g id="a_edge2_Node000001_Node000003"><a xlink:title=" ">
<path fill="none" stroke="#63b8ff" d="M129.28,-57.7C121.86,-49.13 113.02,-38.92 105.96,-30.78"/>
<polygon fill="#63b8ff" stroke="#63b8ff" points="126.45,-59.77 135.64,-65.04 131.74,-55.19 126.45,-59.77"/>
</a>
</g>
</g>
<!-- Node4 -->
<g id="Node000004" class="node">
<title>Node4</title>
<g id="a_Node000004"><a xlink:href="class_im_fusion_1_1_annotation_action.html" target="_top" xlink:title=" ">
<polygon fill="white" stroke="#bfbfbf" points="136.75,-141 0,-141 0,-121.75 136.75,-121.75 136.75,-141"/>
<text xml:space="preserve" text-anchor="middle" x="68.38" y="-127.5" font-family="Helvetica,sans-Serif" font-size="10.00">ImFusion::AnnotationAction</text>
</a>
</g>
</g>
<!-- Node4&#45;&gt;Node3 -->
<g id="edge3_Node000003_Node000004" class="edge">
<title>Node4&#45;&gt;Node3</title>
<g id="a_edge3_Node000003_Node000004"><a xlink:title=" ">
<path fill="none" stroke="#63b8ff" d="M90.66,-114.76C103.91,-105.47 120.26,-94.02 131.42,-86.2"/>
<polygon fill="#63b8ff" stroke="#63b8ff" points="88.69,-111.87 82.51,-120.47 92.71,-117.6 88.69,-111.87"/>
</a>
</g>
</g>
<!-- Node5 -->
<g id="Node000005" class="node">
<title>Node5</title>
<g id="a_Node000005"><a xlink:href="class_im_fusion_1_1_configurable.html" target="_top" xlink:title="Base interface for classes that support object serialization from/to Properties objects.">
<polygon fill="white" stroke="#666666" points="127,-196.25 9.75,-196.25 9.75,-177 127,-177 127,-196.25"/>
<text xml:space="preserve" text-anchor="middle" x="68.38" y="-182.75" font-family="Helvetica,sans-Serif" font-size="10.00">ImFusion::Configurable</text>
</a>
</g>
</g>
<!-- Node5&#45;&gt;Node4 -->
<g id="edge4_Node000004_Node000005" class="edge">
<title>Node5&#45;&gt;Node4</title>
<g id="a_edge4_Node000004_Node000005"><a xlink:title=" ">
<path fill="none" stroke="#63b8ff" d="M68.38,-165.38C68.38,-157.09 68.38,-147.92 68.38,-141.36"/>
<polygon fill="#63b8ff" stroke="#63b8ff" points="64.88,-165.32 68.38,-175.32 71.88,-165.32 64.88,-165.32"/>
</a>
</g>
</g>
<!-- Node6 -->
<g id="Node000006" class="node">
<title>Node6</title>
<g id="a_Node000006"><a xlink:href="class_im_fusion_1_1_signal_receiver.html" target="_top" xlink:title="Base class for classes that can contain slots (i.e.">
<polygon fill="white" stroke="#666666" points="283.62,-141 155.12,-141 155.12,-121.75 283.62,-121.75 283.62,-141"/>
<text xml:space="preserve" text-anchor="middle" x="219.38" y="-127.5" font-family="Helvetica,sans-Serif" font-size="10.00">ImFusion::SignalReceiver</text>
</a>
</g>
</g>
<!-- Node6&#45;&gt;Node3 -->
<g id="edge5_Node000003_Node000006" class="edge">
<title>Node6&#45;&gt;Node3</title>
<g id="a_edge5_Node000003_Node000006"><a xlink:title=" ">
<path fill="none" stroke="#63b8ff" d="M197.38,-114.76C184.3,-105.47 168.17,-94.02 157.16,-86.2"/>
<polygon fill="#63b8ff" stroke="#63b8ff" points="195.24,-117.53 205.42,-120.47 199.29,-111.82 195.24,-117.53"/>
</a>
</g>
</g>
</g>
</svg>
