<?xml version="1.0" encoding="UTF-8" standalone="no"?>
<!DOCTYPE svg PUBLIC "-//W3C//DTD SVG 1.1//EN"
 "http://www.w3.org/Graphics/SVG/1.1/DTD/svg11.dtd">
<!-- Generated by graphviz version 14.1.4 (20260321.0153)
 -->
<!-- Title: ImFusion::GlTranslationTransformer Pages: 1 -->
<svg width="181pt" height="260pt"
 viewBox="0.00 0.00 181.00 260.00" xmlns="http://www.w3.org/2000/svg" xmlns:xlink="http://www.w3.org/1999/xlink">
<g id="graph0" class="graph" transform="scale(1 1) rotate(0) translate(4 255.5)">
<title>ImFusion::GlTranslationTransformer</title>
<!-- Node1 -->
<g id="Node000001" class="node">
<title>Node1</title>
<g id="a_Node000001"><a xlink:title=" ">
<polygon fill="#999999" stroke="#666666" points="172.75,-19.25 0,-19.25 0,0 172.75,0 172.75,-19.25"/>
<text xml:space="preserve" text-anchor="middle" x="86.38" y="-5.75" font-family="Helvetica,sans-Serif" font-size="10.00">ImFusion::GlTranslationTransformer</text>
</a>
</g>
</g>
<!-- Node2 -->
<g id="Node000002" class="node">
<title>Node2</title>
<g id="a_Node000002"><a xlink:href="class_im_fusion_1_1_gl_axis_transformer_object.html" target="_top" xlink:title=" ">
<polygon fill="white" stroke="#bfbfbf" points="158.5,-85.75 14.25,-85.75 14.25,-55.25 158.5,-55.25 158.5,-85.75"/>
<text xml:space="preserve" text-anchor="start" x="22.25" y="-72.25" font-family="Helvetica,sans-Serif" font-size="10.00">ImFusion::GlAxisTransformer</text>
<text xml:space="preserve" text-anchor="middle" x="86.38" y="-61" font-family="Helvetica,sans-Serif" font-size="10.00">Object</text>
</a>
</g>
</g>
<!-- Node2&#45;&gt;Node1 -->
<g id="edge1_Node000001_Node000002" class="edge">
<title>Node2&#45;&gt;Node1</title>
<g id="a_edge1_Node000001_Node000002"><a xlink:title=" ">
<path fill="none" stroke="#63b8ff" d="M86.38,-43.48C86.38,-34.98 86.38,-26.09 86.38,-19.7"/>
<polygon fill="#63b8ff" stroke="#63b8ff" points="82.88,-43.43 86.38,-53.43 89.88,-43.43 82.88,-43.43"/>
</a>
</g>
</g>
<!-- Node3 -->
<g id="Node000003" class="node">
<title>Node3</title>
<g id="a_Node000003"><a xlink:href="class_im_fusion_1_1_gl_transformer_object.html" target="_top" xlink:title=" ">
<polygon fill="white" stroke="#bfbfbf" points="163,-141 9.75,-141 9.75,-121.75 163,-121.75 163,-141"/>
<text xml:space="preserve" text-anchor="middle" x="86.38" y="-127.5" font-family="Helvetica,sans-Serif" font-size="10.00">ImFusion::GlTransformerObject</text>
</a>
</g>
</g>
<!-- Node3&#45;&gt;Node2 -->
<g id="edge2_Node000002_Node000003" class="edge">
<title>Node3&#45;&gt;Node2</title>
<g id="a_edge2_Node000002_Node000003"><a xlink:title=" ">
<path fill="none" stroke="#63b8ff" d="M86.38,-110.17C86.38,-102.24 86.38,-93.31 86.38,-86.03"/>
<polygon fill="#63b8ff" stroke="#63b8ff" points="82.88,-109.92 86.38,-119.92 89.88,-109.92 82.88,-109.92"/>
</a>
</g>
</g>
<!-- Node4 -->
<g id="Node000004" class="node">
<title>Node4</title>
<g id="a_Node000004"><a xlink:href="class_im_fusion_1_1_gl_object.html" target="_top" xlink:title="Abstract base class for an renderable OpenGL object that can be hosted in a GlView.">
<polygon fill="white" stroke="#666666" points="136.75,-196.25 36,-196.25 36,-177 136.75,-177 136.75,-196.25"/>
<text xml:space="preserve" text-anchor="middle" x="86.38" y="-182.75" font-family="Helvetica,sans-Serif" font-size="10.00">ImFusion::GlObject</text>
</a>
</g>
</g>
<!-- Node4&#45;&gt;Node3 -->
<g id="edge3_Node000003_Node000004" class="edge">
<title>Node4&#45;&gt;Node3</title>
<g id="a_edge3_Node000003_Node000004"><a xlink:title=" ">
<path fill="none" stroke="#63b8ff" d="M86.38,-165.38C86.38,-157.09 86.38,-147.92 86.38,-141.36"/>
<polygon fill="#63b8ff" stroke="#63b8ff" points="82.88,-165.32 86.38,-175.32 89.88,-165.32 82.88,-165.32"/>
</a>
</g>
</g>
<!-- Node5 -->
<g id="Node000005" class="node">
<title>Node5</title>
<g id="a_Node000005"><a xlink:href="class_im_fusion_1_1_configurable.html" target="_top" xlink:title="Base interface for classes that support object serialization from/to Properties objects.">
<polygon fill="white" stroke="#666666" points="145,-251.5 27.75,-251.5 27.75,-232.25 145,-232.25 145,-251.5"/>
<text xml:space="preserve" text-anchor="middle" x="86.38" y="-238" font-family="Helvetica,sans-Serif" font-size="10.00">ImFusion::Configurable</text>
</a>
</g>
</g>
<!-- Node5&#45;&gt;Node4 -->
<g id="edge4_Node000004_Node000005" class="edge">
<title>Node5&#45;&gt;Node4</title>
<g id="a_edge4_Node000004_Node000005"><a xlink:title=" ">
<path fill="none" stroke="#63b8ff" d="M86.38,-220.63C86.38,-212.34 86.38,-203.17 86.38,-196.61"/>
<polygon fill="#63b8ff" stroke="#63b8ff" points="82.88,-220.57 86.38,-230.57 89.88,-220.57 82.88,-220.57"/>
</a>
</g>
</g>
</g>
</svg>
