<?xml version="1.0" encoding="UTF-8" standalone="no"?>
<!DOCTYPE svg PUBLIC "-//W3C//DTD SVG 1.1//EN"
 "http://www.w3.org/Graphics/SVG/1.1/DTD/svg11.dtd">
<!-- Generated by graphviz version 14.1.4 (20260321.0153)
 -->
<!-- Title: ImFusion::IterativeLinearSystemSolver Pages: 1 -->
<svg width="514pt" height="199pt"
 viewBox="0.00 0.00 514.00 199.00" xmlns="http://www.w3.org/2000/svg" xmlns:xlink="http://www.w3.org/1999/xlink">
<g id="graph0" class="graph" transform="scale(1 1) rotate(0) translate(4 195.25)">
<title>ImFusion::IterativeLinearSystemSolver</title>
<!-- Node1 -->
<g id="Node000001" class="node">
<title>Node1</title>
<g id="a_Node000001"><a xlink:title="Interface for iterative linear system solvers.">
<polygon fill="#999999" stroke="#666666" points="310.25,-116.88 186.25,-116.88 186.25,-86.38 310.25,-86.38 310.25,-116.88"/>
<text xml:space="preserve" text-anchor="start" x="194.25" y="-103.38" font-family="Helvetica,sans-Serif" font-size="10.00">ImFusion::IterativeLinear</text>
<text xml:space="preserve" text-anchor="middle" x="248.25" y="-92.12" font-family="Helvetica,sans-Serif" font-size="10.00">SystemSolver</text>
</a>
</g>
</g>
<!-- Node3 -->
<g id="Node000003" class="node">
<title>Node3</title>
<g id="a_Node000003"><a xlink:href="class_im_fusion_1_1_bi_c_g_stab_eigen_solver.html" target="_top" xlink:title="Bi&#45;conjugate gradient solver with stabilization (Eigen implementation).">
<polygon fill="white" stroke="#666666" points="505.5,-191.25 346.25,-191.25 346.25,-172 505.5,-172 505.5,-191.25"/>
<text xml:space="preserve" text-anchor="middle" x="425.88" y="-177.75" font-family="Helvetica,sans-Serif" font-size="10.00">ImFusion::BiCGStabEigenSolver</text>
</a>
</g>
</g>
<!-- Node1&#45;&gt;Node3 -->
<g id="edge2_Node000001_Node000003" class="edge">
<title>Node1&#45;&gt;Node3</title>
<g id="a_edge2_Node000001_Node000003"><a xlink:title=" ">
<path fill="none" stroke="#63b8ff" d="M278.35,-124C296.89,-137.26 321.92,-153.43 346.25,-163.62 353.74,-166.76 361.87,-169.41 369.97,-171.61"/>
<polygon fill="#63b8ff" stroke="#63b8ff" points="280.65,-121.34 270.51,-118.26 276.52,-126.99 280.65,-121.34"/>
</a>
</g>
</g>
<!-- Node4 -->
<g id="Node000004" class="node">
<title>Node4</title>
<g id="a_Node000004"><a xlink:href="class_im_fusion_1_1_bi_c_g_stab_solver.html" target="_top" xlink:title="Bi&#45;conjugate gradient solver with stabilization.">
<polygon fill="white" stroke="#666666" points="493.12,-154.25 358.62,-154.25 358.62,-135 493.12,-135 493.12,-154.25"/>
<text xml:space="preserve" text-anchor="middle" x="425.88" y="-140.75" font-family="Helvetica,sans-Serif" font-size="10.00">ImFusion::BiCGStabSolver</text>
</a>
</g>
</g>
<!-- Node1&#45;&gt;Node4 -->
<g id="edge3_Node000001_Node000004" class="edge">
<title>Node1&#45;&gt;Node4</title>
<g id="a_edge3_Node000001_Node000004"><a xlink:title=" ">
<path fill="none" stroke="#63b8ff" d="M321.47,-119.54C329.83,-121.6 338.22,-123.66 346.25,-125.62 358.12,-128.53 371,-131.65 382.84,-134.51"/>
<polygon fill="#63b8ff" stroke="#63b8ff" points="322.57,-116.21 312.02,-117.21 320.89,-123 322.57,-116.21"/>
</a>
</g>
</g>
<!-- Node5 -->
<g id="Node000005" class="node">
<title>Node5</title>
<g id="a_Node000005"><a xlink:href="class_im_fusion_1_1_bi_c_g_stab_vienna_c_p_u_solver.html" target="_top" xlink:title="Bi&#45;conjugate gradient solver with stabilization (Vienna CPU implementation).">
<polygon fill="white" stroke="#666666" points="494.25,-116.88 357.5,-116.88 357.5,-86.38 494.25,-86.38 494.25,-116.88"/>
<text xml:space="preserve" text-anchor="start" x="365.5" y="-103.38" font-family="Helvetica,sans-Serif" font-size="10.00">ImFusion::BiCGStabVienna</text>
<text xml:space="preserve" text-anchor="middle" x="425.88" y="-92.12" font-family="Helvetica,sans-Serif" font-size="10.00">CPUSolver</text>
</a>
</g>
</g>
<!-- Node1&#45;&gt;Node5 -->
<g id="edge4_Node000001_Node000005" class="edge">
<title>Node1&#45;&gt;Node5</title>
<g id="a_edge4_Node000001_Node000005"><a xlink:title=" ">
<path fill="none" stroke="#63b8ff" d="M322.13,-101.62C333.74,-101.62 345.71,-101.62 357.19,-101.62"/>
<polygon fill="#63b8ff" stroke="#63b8ff" points="322.19,-98.13 312.19,-101.63 322.19,-105.13 322.19,-98.13"/>
</a>
</g>
</g>
<!-- Node6 -->
<g id="Node000006" class="node">
<title>Node6</title>
<g id="a_Node000006"><a xlink:href="class_im_fusion_1_1_bi_c_g_stab_vienna_g_p_u_solver.html" target="_top" xlink:title="Bi&#45;conjugate gradient solver with stabilization (Vienna GPU implementation).">
<polygon fill="white" stroke="#666666" points="494.25,-67.88 357.5,-67.88 357.5,-37.38 494.25,-37.38 494.25,-67.88"/>
<text xml:space="preserve" text-anchor="start" x="365.5" y="-54.38" font-family="Helvetica,sans-Serif" font-size="10.00">ImFusion::BiCGStabVienna</text>
<text xml:space="preserve" text-anchor="middle" x="425.88" y="-43.12" font-family="Helvetica,sans-Serif" font-size="10.00">GPUSolver</text>
</a>
</g>
</g>
<!-- Node1&#45;&gt;Node6 -->
<g id="edge5_Node000001_Node000006" class="edge">
<title>Node1&#45;&gt;Node6</title>
<g id="a_edge5_Node000001_Node000006"><a xlink:title=" ">
<path fill="none" stroke="#63b8ff" d="M315.91,-83.03C333.23,-78.19 351.72,-73.04 368.45,-68.37"/>
<polygon fill="#63b8ff" stroke="#63b8ff" points="315.45,-79.52 306.76,-85.58 317.33,-86.26 315.45,-79.52"/>
</a>
</g>
</g>
<!-- Node7 -->
<g id="Node000007" class="node">
<title>Node7</title>
<g id="a_Node000007"><a xlink:href="class_im_fusion_1_1_c_g_solver.html" target="_top" xlink:title="Conjugate gradient solver (Eigen implementation).">
<polygon fill="white" stroke="#666666" points="478.5,-19.25 373.25,-19.25 373.25,0 478.5,0 478.5,-19.25"/>
<text xml:space="preserve" text-anchor="middle" x="425.88" y="-5.75" font-family="Helvetica,sans-Serif" font-size="10.00">ImFusion::CGSolver</text>
</a>
</g>
</g>
<!-- Node1&#45;&gt;Node7 -->
<g id="edge6_Node000001_Node000007" class="edge">
<title>Node1&#45;&gt;Node7</title>
<g id="a_edge6_Node000001_Node000007"><a xlink:title=" ">
<path fill="none" stroke="#63b8ff" d="M273.8,-78.62C292.38,-62.41 319.23,-41.38 346.25,-28.62 354.63,-24.67 363.92,-21.49 373.08,-18.95"/>
<polygon fill="#63b8ff" stroke="#63b8ff" points="271.64,-75.86 266.51,-85.13 276.3,-81.08 271.64,-75.86"/>
</a>
</g>
</g>
<!-- Node2 -->
<g id="Node000002" class="node">
<title>Node2</title>
<g id="a_Node000002"><a xlink:href="class_im_fusion_1_1_linear_system_solver.html" target="_top" xlink:title="Interface for linear system solvers.">
<polygon fill="white" stroke="#666666" points="150.25,-111.25 0,-111.25 0,-92 150.25,-92 150.25,-111.25"/>
<text xml:space="preserve" text-anchor="middle" x="75.12" y="-97.75" font-family="Helvetica,sans-Serif" font-size="10.00">ImFusion::LinearSystemSolver</text>
</a>
</g>
</g>
<!-- Node2&#45;&gt;Node1 -->
<g id="edge1_Node000001_Node000002" class="edge">
<title>Node2&#45;&gt;Node1</title>
<g id="a_edge1_Node000001_Node000002"><a xlink:title=" ">
<path fill="none" stroke="#63b8ff" d="M161.99,-101.62C170.01,-101.62 178.02,-101.62 185.75,-101.62"/>
<polygon fill="#63b8ff" stroke="#63b8ff" points="162.2,-98.13 152.2,-101.63 162.2,-105.13 162.2,-98.13"/>
</a>
</g>
</g>
</g>
</svg>
