<?xml version="1.0" encoding="UTF-8" standalone="no"?>
<!DOCTYPE svg PUBLIC "-//W3C//DTD SVG 1.1//EN"
 "http://www.w3.org/Graphics/SVG/1.1/DTD/svg11.dtd">
<!-- Generated by graphviz version 14.1.4 (20260321.0153)
 -->
<!-- Title: ImFusion::LabelBgDataComponent Pages: 1 -->
<svg width="188pt" height="193pt"
 viewBox="0.00 0.00 188.00 193.00" xmlns="http://www.w3.org/2000/svg" xmlns:xlink="http://www.w3.org/1999/xlink">
<g id="graph0" class="graph" transform="scale(1 1) rotate(0) translate(4 189)">
<title>ImFusion::LabelBgDataComponent</title>
<!-- Node1 -->
<g id="Node000001" class="node">
<title>Node1</title>
<g id="a_Node000001"><a xlink:title=" ">
<polygon fill="#999999" stroke="#666666" points="174.25,-19.25 5.25,-19.25 5.25,0 174.25,0 174.25,-19.25"/>
<text xml:space="preserve" text-anchor="middle" x="89.75" y="-5.75" font-family="Helvetica,sans-Serif" font-size="10.00">ImFusion::LabelBgDataComponent</text>
</a>
</g>
</g>
<!-- Node2 -->
<g id="Node000002" class="node">
<title>Node2</title>
<g id="a_Node000002"><a xlink:href="class_im_fusion_1_1_temporary_data_component.html" target="_top" xlink:title="Specialization of DataComponentBase that disables serialization, copying and assignment.">
<polygon fill="white" stroke="#666666" points="179.5,-74.5 0,-74.5 0,-55.25 179.5,-55.25 179.5,-74.5"/>
<text xml:space="preserve" text-anchor="middle" x="89.75" y="-61" font-family="Helvetica,sans-Serif" font-size="10.00">ImFusion::TemporaryDataComponent</text>
</a>
</g>
</g>
<!-- Node2&#45;&gt;Node1 -->
<g id="edge1_Node000001_Node000002" class="edge">
<title>Node2&#45;&gt;Node1</title>
<g id="a_edge1_Node000001_Node000002"><a xlink:title=" ">
<path fill="none" stroke="#63b8ff" d="M89.75,-43.63C89.75,-35.34 89.75,-26.17 89.75,-19.61"/>
<polygon fill="#63b8ff" stroke="#63b8ff" points="86.25,-43.57 89.75,-53.57 93.25,-43.57 86.25,-43.57"/>
</a>
</g>
</g>
<!-- Node3 -->
<g id="Node000003" class="node">
<title>Node3</title>
<g id="a_Node000003"><a xlink:href="class_im_fusion_1_1_data_component_base.html" target="_top" xlink:title="Data components provide a way to generically attach custom information objects.">
<polygon fill="white" stroke="#666666" points="167.88,-129.75 11.62,-129.75 11.62,-110.5 167.88,-110.5 167.88,-129.75"/>
<text xml:space="preserve" text-anchor="middle" x="89.75" y="-116.25" font-family="Helvetica,sans-Serif" font-size="10.00">ImFusion::DataComponentBase</text>
</a>
</g>
</g>
<!-- Node3&#45;&gt;Node2 -->
<g id="edge2_Node000002_Node000003" class="edge">
<title>Node3&#45;&gt;Node2</title>
<g id="a_edge2_Node000002_Node000003"><a xlink:title=" ">
<path fill="none" stroke="#63b8ff" d="M89.75,-98.88C89.75,-90.59 89.75,-81.42 89.75,-74.86"/>
<polygon fill="#63b8ff" stroke="#63b8ff" points="86.25,-98.82 89.75,-108.82 93.25,-98.82 86.25,-98.82"/>
</a>
</g>
</g>
<!-- Node4 -->
<g id="Node000004" class="node">
<title>Node4</title>
<g id="a_Node000004"><a xlink:href="class_im_fusion_1_1_configurable.html" target="_top" xlink:title="Base interface for classes that support object serialization from/to Properties objects.">
<polygon fill="white" stroke="#666666" points="148.38,-185 31.12,-185 31.12,-165.75 148.38,-165.75 148.38,-185"/>
<text xml:space="preserve" text-anchor="middle" x="89.75" y="-171.5" font-family="Helvetica,sans-Serif" font-size="10.00">ImFusion::Configurable</text>
</a>
</g>
</g>
<!-- Node4&#45;&gt;Node3 -->
<g id="edge3_Node000003_Node000004" class="edge">
<title>Node4&#45;&gt;Node3</title>
<g id="a_edge3_Node000003_Node000004"><a xlink:title=" ">
<path fill="none" stroke="#63b8ff" d="M89.75,-154.13C89.75,-145.84 89.75,-136.67 89.75,-130.11"/>
<polygon fill="#63b8ff" stroke="#63b8ff" points="86.25,-154.07 89.75,-164.07 93.25,-154.07 86.25,-154.07"/>
</a>
</g>
</g>
</g>
</svg>
