<?xml version="1.0" encoding="UTF-8" standalone="no"?>
<!DOCTYPE svg PUBLIC "-//W3C//DTD SVG 1.1//EN"
 "http://www.w3.org/Graphics/SVG/1.1/DTD/svg11.dtd">
<!-- Generated by graphviz version 14.1.4 (20260321.0153)
 -->
<!-- Title: ImFusion::ApplicationController Pages: 1 -->
<svg width="308pt" height="138pt"
 viewBox="0.00 0.00 308.00 138.00" xmlns="http://www.w3.org/2000/svg" xmlns:xlink="http://www.w3.org/1999/xlink">
<g id="graph0" class="graph" transform="scale(1 1) rotate(0) translate(4 133.75)">
<title>ImFusion::ApplicationController</title>
<!-- Node1 -->
<g id="Node000001" class="node">
<title>Node1</title>
<g id="a_Node000001"><a xlink:title="The basic ApplicationController provides essential interfaces of the SDK but no graphical user interf...">
<polygon fill="#999999" stroke="#666666" points="225.5,-74.5 73,-74.5 73,-55.25 225.5,-55.25 225.5,-74.5"/>
<text xml:space="preserve" text-anchor="middle" x="149.25" y="-61" font-family="Helvetica,sans-Serif" font-size="10.00">ImFusion::ApplicationController</text>
</a>
</g>
</g>
<!-- Node3 -->
<g id="Node000003" class="node">
<title>Node3</title>
<g id="a_Node000003"><a xlink:href="class_im_fusion_1_1_console_controller.html" target="_top" xlink:title="Specialization of ApplicationController for a console application which loads data and runs algorithm...">
<polygon fill="white" stroke="#666666" points="140.5,-19.25 0,-19.25 0,0 140.5,0 140.5,-19.25"/>
<text xml:space="preserve" text-anchor="middle" x="70.25" y="-5.75" font-family="Helvetica,sans-Serif" font-size="10.00">ImFusion::ConsoleController</text>
</a>
</g>
</g>
<!-- Node1&#45;&gt;Node3 -->
<g id="edge2_Node000001_Node000003" class="edge">
<title>Node1&#45;&gt;Node3</title>
<g id="a_edge2_Node000001_Node000003"><a xlink:title=" ">
<path fill="none" stroke="#63b8ff" d="M126.49,-48.53C112.64,-39.2 95.43,-27.6 83.72,-19.7"/>
<polygon fill="#63b8ff" stroke="#63b8ff" points="124.35,-51.31 134.59,-54 128.26,-45.5 124.35,-51.31"/>
</a>
</g>
</g>
<!-- Node4 -->
<g id="Node000004" class="node">
<title>Node4</title>
<g id="a_Node000004"><a xlink:href="class_im_fusion_1_1_main_window_base.html" target="_top" xlink:title="Extends ApplicationController with additional interfaces for graphical user interfaces.">
<polygon fill="white" stroke="#666666" points="299.88,-19.25 158.62,-19.25 158.62,0 299.88,0 299.88,-19.25"/>
<text xml:space="preserve" text-anchor="middle" x="229.25" y="-5.75" font-family="Helvetica,sans-Serif" font-size="10.00">ImFusion::MainWindowBase</text>
</a>
</g>
</g>
<!-- Node1&#45;&gt;Node4 -->
<g id="edge3_Node000001_Node000004" class="edge">
<title>Node1&#45;&gt;Node4</title>
<g id="a_edge3_Node000001_Node000004"><a xlink:title=" ">
<path fill="none" stroke="#63b8ff" d="M172.3,-48.53C186.32,-39.2 203.75,-27.6 215.61,-19.7"/>
<polygon fill="#63b8ff" stroke="#63b8ff" points="170.47,-45.55 164.08,-54 174.34,-51.38 170.47,-45.55"/>
</a>
</g>
</g>
<!-- Node2 -->
<g id="Node000002" class="node">
<title>Node2</title>
<g id="a_Node000002"><a xlink:href="class_im_fusion_1_1_utils_1_1_not_copyable.html" target="_top" xlink:title="Inherit from this class if your class should be neither copy&#45;constructible nor assignable.">
<polygon fill="white" stroke="#666666" points="222.12,-129.75 76.38,-129.75 76.38,-110.5 222.12,-110.5 222.12,-129.75"/>
<text xml:space="preserve" text-anchor="middle" x="149.25" y="-116.25" font-family="Helvetica,sans-Serif" font-size="10.00">ImFusion::Utils::NotCopyable</text>
</a>
</g>
</g>
<!-- Node2&#45;&gt;Node1 -->
<g id="edge1_Node000001_Node000002" class="edge">
<title>Node2&#45;&gt;Node1</title>
<g id="a_edge1_Node000001_Node000002"><a xlink:title=" ">
<path fill="none" stroke="#8b1a1a" d="M149.25,-98.88C149.25,-90.59 149.25,-81.42 149.25,-74.86"/>
<polygon fill="#8b1a1a" stroke="#8b1a1a" points="145.75,-98.82 149.25,-108.82 152.75,-98.82 145.75,-98.82"/>
</a>
</g>
</g>
</g>
</svg>
