<?xml version="1.0" encoding="UTF-8" standalone="no"?>
<!DOCTYPE svg PUBLIC "-//W3C//DTD SVG 1.1//EN"
 "http://www.w3.org/Graphics/SVG/1.1/DTD/svg11.dtd">
<!-- Generated by graphviz version 14.1.4 (20260321.0153)
 -->
<!-- Title: ImFusion::BasicImageProcessingController Pages: 1 -->
<svg width="701pt" height="140pt"
 viewBox="0.00 0.00 701.00 140.00" xmlns="http://www.w3.org/2000/svg" xmlns:xlink="http://www.w3.org/1999/xlink">
<g id="graph0" class="graph" transform="scale(1 1) rotate(0) translate(4 136.25)">
<title>ImFusion::BasicImageProcessingController</title>
<!-- Node1 -->
<g id="Node000001" class="node">
<title>Node1</title>
<g id="a_Node000001"><a xlink:title="Controller for basic image processing tasks.">
<polygon fill="#999999" stroke="#666666" points="692.5,-81.88 529.5,-81.88 529.5,-51.38 692.5,-51.38 692.5,-81.88"/>
<text xml:space="preserve" text-anchor="start" x="537.5" y="-68.38" font-family="Helvetica,sans-Serif" font-size="10.00">ImFusion::BasicImageProcessing</text>
<text xml:space="preserve" text-anchor="middle" x="611" y="-57.12" font-family="Helvetica,sans-Serif" font-size="10.00">Controller</text>
</a>
</g>
</g>
<!-- Node2 -->
<g id="Node000002" class="node">
<title>Node2</title>
<g id="a_Node000002"><a xlink:title=" ">
<polygon fill="white" stroke="#bfbfbf" points="447,-132.25 392.75,-132.25 392.75,-113 447,-113 447,-132.25"/>
<text xml:space="preserve" text-anchor="middle" x="419.88" y="-118.75" font-family="Helvetica,sans-Serif" font-size="10.00">QWidget</text>
</a>
</g>
</g>
<!-- Node2&#45;&gt;Node1 -->
<g id="edge1_Node000001_Node000002" class="edge">
<title>Node2&#45;&gt;Node1</title>
<g id="a_edge1_Node000001_Node000002"><a xlink:title=" ">
<path fill="none" stroke="#63b8ff" d="M458.15,-113.94C469.54,-111.13 482.07,-107.9 493.5,-104.62 517.12,-97.86 543.14,-89.46 564.59,-82.28"/>
<polygon fill="#63b8ff" stroke="#63b8ff" points="457.58,-110.47 448.69,-116.23 459.23,-117.27 457.58,-110.47"/>
</a>
</g>
</g>
<!-- Node3 -->
<g id="Node000003" class="node">
<title>Node3</title>
<g id="a_Node000003"><a xlink:href="class_im_fusion_1_1_algorithm_controller.html" target="_top" xlink:title="Specialization of the Controller interface to be used with Algorithm instances.">
<polygon fill="white" stroke="#666666" points="492.75,-95.25 347,-95.25 347,-76 492.75,-76 492.75,-95.25"/>
<text xml:space="preserve" text-anchor="middle" x="419.88" y="-81.75" font-family="Helvetica,sans-Serif" font-size="10.00">ImFusion::AlgorithmController</text>
</a>
</g>
</g>
<!-- Node3&#45;&gt;Node1 -->
<g id="edge2_Node000001_Node000003" class="edge">
<title>Node3&#45;&gt;Node1</title>
<g id="a_edge2_Node000001_Node000003"><a xlink:title=" ">
<path fill="none" stroke="#63b8ff" d="M504.63,-77.21C512.8,-76.39 521.07,-75.56 529.21,-74.74"/>
<polygon fill="#63b8ff" stroke="#63b8ff" points="504.29,-73.73 494.69,-78.21 504.99,-80.69 504.29,-73.73"/>
</a>
</g>
</g>
<!-- Node4 -->
<g id="Node000004" class="node">
<title>Node4</title>
<g id="a_Node000004"><a xlink:href="class_im_fusion_1_1_controller.html" target="_top" xlink:title="Base interface for a GUI element within MainWindowBase.">
<polygon fill="white" stroke="#666666" points="298.25,-131.25 193.75,-131.25 193.75,-112 298.25,-112 298.25,-131.25"/>
<text xml:space="preserve" text-anchor="middle" x="246" y="-117.75" font-family="Helvetica,sans-Serif" font-size="10.00">ImFusion::Controller</text>
</a>
</g>
</g>
<!-- Node4&#45;&gt;Node3 -->
<g id="edge3_Node000003_Node000004" class="edge">
<title>Node4&#45;&gt;Node3</title>
<g id="a_edge3_Node000003_Node000004"><a xlink:title=" ">
<path fill="none" stroke="#63b8ff" d="M306.38,-109.19C327.35,-104.79 350.67,-99.91 370.61,-95.74"/>
<polygon fill="#63b8ff" stroke="#63b8ff" points="305.89,-105.72 296.82,-111.19 307.32,-112.57 305.89,-105.72"/>
</a>
</g>
</g>
<!-- Node5 -->
<g id="Node000005" class="node">
<title>Node5</title>
<g id="a_Node000005"><a xlink:href="class_im_fusion_1_1_configurable.html" target="_top" xlink:title="Base interface for classes that support object serialization from/to Properties objects.">
<polygon fill="white" stroke="#666666" points="131.5,-76.25 14.25,-76.25 14.25,-57 131.5,-57 131.5,-76.25"/>
<text xml:space="preserve" text-anchor="middle" x="72.88" y="-62.75" font-family="Helvetica,sans-Serif" font-size="10.00">ImFusion::Configurable</text>
</a>
</g>
</g>
<!-- Node5&#45;&gt;Node4 -->
<g id="edge4_Node000004_Node000005" class="edge">
<title>Node5&#45;&gt;Node4</title>
<g id="a_edge4_Node000004_Node000005"><a xlink:title=" ">
<path fill="none" stroke="#63b8ff" d="M112.48,-80.42C132.98,-87.61 158.64,-96.38 181.75,-103.62 190.36,-106.32 199.67,-109.07 208.44,-111.58"/>
<polygon fill="#63b8ff" stroke="#63b8ff" points="113.7,-77.14 103.11,-77.12 111.38,-83.74 113.7,-77.14"/>
</a>
</g>
</g>
<!-- Node8 -->
<g id="Node000008" class="node">
<title>Node8</title>
<g id="a_Node000008"><a xlink:href="class_im_fusion_1_1_gl_object.html" target="_top" xlink:title="Abstract base class for an renderable OpenGL object that can be hosted in a GlView.">
<polygon fill="white" stroke="#666666" points="296.38,-57.25 195.62,-57.25 195.62,-38 296.38,-38 296.38,-57.25"/>
<text xml:space="preserve" text-anchor="middle" x="246" y="-43.75" font-family="Helvetica,sans-Serif" font-size="10.00">ImFusion::GlObject</text>
</a>
</g>
</g>
<!-- Node5&#45;&gt;Node8 -->
<g id="edge8_Node000008_Node000005" class="edge">
<title>Node5&#45;&gt;Node8</title>
<g id="a_edge8_Node000008_Node000005"><a xlink:title=" ">
<path fill="none" stroke="#63b8ff" d="M143.09,-58.94C160.51,-57.01 178.87,-54.97 195.13,-53.16"/>
<polygon fill="#63b8ff" stroke="#63b8ff" points="142.87,-55.44 133.31,-60.03 143.64,-62.4 142.87,-55.44"/>
</a>
</g>
</g>
<!-- Node6 -->
<g id="Node000006" class="node">
<title>Node6</title>
<g id="a_Node000006"><a xlink:href="class_im_fusion_1_1_utils_1_1_not_copyable.html" target="_top" xlink:title="Inherit from this class if your class should be neither copy&#45;constructible nor assignable.">
<polygon fill="white" stroke="#666666" points="145.75,-131.25 0,-131.25 0,-112 145.75,-112 145.75,-131.25"/>
<text xml:space="preserve" text-anchor="middle" x="72.88" y="-117.75" font-family="Helvetica,sans-Serif" font-size="10.00">ImFusion::Utils::NotCopyable</text>
</a>
</g>
</g>
<!-- Node6&#45;&gt;Node4 -->
<g id="edge5_Node000004_Node000006" class="edge">
<title>Node6&#45;&gt;Node4</title>
<g id="a_edge5_Node000004_Node000006"><a xlink:title=" ">
<path fill="none" stroke="#8b1a1a" d="M157.2,-121.62C169.5,-121.62 181.87,-121.62 193.27,-121.62"/>
<polygon fill="#8b1a1a" stroke="#8b1a1a" points="157.47,-118.13 147.46,-121.63 157.46,-125.13 157.47,-118.13"/>
</a>
</g>
</g>
<!-- Node7 -->
<g id="Node000007" class="node">
<title>Node7</title>
<g id="a_Node000007"><a xlink:href="class_im_fusion_1_1_signal_receiver.html" target="_top" xlink:title="Base class for classes that can contain slots (i.e.">
<polygon fill="white" stroke="#666666" points="310.25,-94.25 181.75,-94.25 181.75,-75 310.25,-75 310.25,-94.25"/>
<text xml:space="preserve" text-anchor="middle" x="246" y="-80.75" font-family="Helvetica,sans-Serif" font-size="10.00">ImFusion::SignalReceiver</text>
</a>
</g>
</g>
<!-- Node7&#45;&gt;Node3 -->
<g id="edge6_Node000003_Node000007" class="edge">
<title>Node7&#45;&gt;Node3</title>
<g id="a_edge6_Node000003_Node000007"><a xlink:title=" ">
<path fill="none" stroke="#63b8ff" d="M321.97,-85.06C330.16,-85.11 338.48,-85.16 346.64,-85.2"/>
<polygon fill="#63b8ff" stroke="#63b8ff" points="322.05,-81.56 312.03,-85 322,-88.56 322.05,-81.56"/>
</a>
</g>
</g>
<!-- Node8&#45;&gt;Node1 -->
<g id="edge7_Node000001_Node000008" class="edge">
<title>Node8&#45;&gt;Node1</title>
<g id="a_edge7_Node000001_Node000008"><a xlink:title=" ">
<path fill="none" stroke="#63b8ff" d="M308.03,-50.82C368.79,-54 462.38,-58.9 529.26,-62.4"/>
<polygon fill="#63b8ff" stroke="#63b8ff" points="308.39,-47.33 298.22,-50.31 308.03,-54.32 308.39,-47.33"/>
</a>
</g>
</g>
<!-- Node9 -->
<g id="Node000009" class="node">
<title>Node9</title>
<g id="a_Node000009"><a xlink:href="class_im_fusion_1_1_manipulator_listener.html" target="_top" xlink:title="Interface for manipulator events.">
<polygon fill="white" stroke="#666666" points="493.5,-19.25 346.25,-19.25 346.25,0 493.5,0 493.5,-19.25"/>
<text xml:space="preserve" text-anchor="middle" x="419.88" y="-5.75" font-family="Helvetica,sans-Serif" font-size="10.00">ImFusion::ManipulatorListener</text>
</a>
</g>
</g>
<!-- Node9&#45;&gt;Node1 -->
<g id="edge9_Node000001_Node000009" class="edge">
<title>Node9&#45;&gt;Node1</title>
<g id="a_edge9_Node000001_Node000009"><a xlink:title=" ">
<path fill="none" stroke="#63b8ff" d="M465.23,-22.99C493.02,-31.37 528.95,-42.2 558.06,-50.97"/>
<polygon fill="#63b8ff" stroke="#63b8ff" points="466.29,-19.66 455.7,-20.12 464.27,-26.36 466.29,-19.66"/>
</a>
</g>
</g>
</g>
</svg>
