<?xml version="1.0" encoding="UTF-8" standalone="no"?>
<!DOCTYPE svg PUBLIC "-//W3C//DTD SVG 1.1//EN"
 "http://www.w3.org/Graphics/SVG/1.1/DTD/svg11.dtd">
<!-- Generated by graphviz version 14.1.4 (20260321.0153)
 -->
<!-- Title: ImFusion::HistogramDataComponent Pages: 1 -->
<svg width="784pt" height="162pt"
 viewBox="0.00 0.00 784.00 162.00" xmlns="http://www.w3.org/2000/svg" xmlns:xlink="http://www.w3.org/1999/xlink">
<g id="graph0" class="graph" transform="scale(1 1) rotate(0) translate(4 158.25)">
<title>ImFusion::HistogramDataComponent</title>
<!-- Node1 -->
<g id="Node000001" class="node">
<title>Node1</title>
<g id="a_Node000001"><a xlink:title="DataComponent storing information on the intensity distribution of the image they are attached to.">
<polygon fill="#999999" stroke="#666666" points="775.75,-80.25 597,-80.25 597,-61 775.75,-61 775.75,-80.25"/>
<text xml:space="preserve" text-anchor="middle" x="686.38" y="-66.75" font-family="Helvetica,sans-Serif" font-size="10.00">ImFusion::HistogramDataComponent</text>
</a>
</g>
</g>
<!-- Node2 -->
<g id="Node000002" class="node">
<title>Node2</title>
<g id="a_Node000002"><a xlink:href="class_im_fusion_1_1_temporary_data_component.html" target="_top" xlink:title="Specialization of DataComponentBase that disables serialization, copying and assignment.">
<polygon fill="white" stroke="#666666" points="543,-154.25 363.5,-154.25 363.5,-135 543,-135 543,-154.25"/>
<text xml:space="preserve" text-anchor="middle" x="453.25" y="-140.75" font-family="Helvetica,sans-Serif" font-size="10.00">ImFusion::TemporaryDataComponent</text>
</a>
</g>
</g>
<!-- Node2&#45;&gt;Node1 -->
<g id="edge1_Node000001_Node000002" class="edge">
<title>Node2&#45;&gt;Node1</title>
<g id="a_edge1_Node000001_Node000002"><a xlink:title=" ">
<path fill="none" stroke="#63b8ff" d="M536.04,-132.16C544.54,-130.24 552.99,-128.07 561,-125.62 599.84,-113.77 642.63,-93.02 666.54,-80.67"/>
<polygon fill="#63b8ff" stroke="#63b8ff" points="535.41,-128.71 526.36,-134.21 536.87,-135.56 535.41,-128.71"/>
</a>
</g>
</g>
<!-- Node3 -->
<g id="Node000003" class="node">
<title>Node3</title>
<g id="a_Node000003"><a xlink:href="class_im_fusion_1_1_data_component_base.html" target="_top" xlink:title="Data components provide a way to generically attach custom information objects.">
<polygon fill="white" stroke="#666666" points="309.5,-154.25 153.25,-154.25 153.25,-135 309.5,-135 309.5,-154.25"/>
<text xml:space="preserve" text-anchor="middle" x="231.38" y="-140.75" font-family="Helvetica,sans-Serif" font-size="10.00">ImFusion::DataComponentBase</text>
</a>
</g>
</g>
<!-- Node3&#45;&gt;Node2 -->
<g id="edge2_Node000002_Node000003" class="edge">
<title>Node3&#45;&gt;Node2</title>
<g id="a_edge2_Node000002_Node000003"><a xlink:title=" ">
<path fill="none" stroke="#63b8ff" d="M321.32,-144.62C335.07,-144.62 349.28,-144.62 363.04,-144.62"/>
<polygon fill="#63b8ff" stroke="#63b8ff" points="321.41,-141.13 311.41,-144.63 321.41,-148.13 321.41,-141.13"/>
</a>
</g>
</g>
<!-- Node4 -->
<g id="Node000004" class="node">
<title>Node4</title>
<g id="a_Node000004"><a xlink:href="class_im_fusion_1_1_configurable.html" target="_top" xlink:title="Base interface for classes that support object serialization from/to Properties objects.">
<polygon fill="white" stroke="#666666" points="117.25,-154.25 0,-154.25 0,-135 117.25,-135 117.25,-154.25"/>
<text xml:space="preserve" text-anchor="middle" x="58.62" y="-140.75" font-family="Helvetica,sans-Serif" font-size="10.00">ImFusion::Configurable</text>
</a>
</g>
</g>
<!-- Node4&#45;&gt;Node3 -->
<g id="edge3_Node000003_Node000004" class="edge">
<title>Node4&#45;&gt;Node3</title>
<g id="a_edge3_Node000003_Node000004"><a xlink:title=" ">
<path fill="none" stroke="#63b8ff" d="M128.88,-144.62C136.8,-144.62 144.92,-144.62 152.95,-144.62"/>
<polygon fill="#63b8ff" stroke="#63b8ff" points="128.95,-141.13 118.95,-144.63 128.95,-148.13 128.95,-141.13"/>
</a>
</g>
</g>
<!-- Node5 -->
<g id="Node000005" class="node">
<title>Node5</title>
<g id="a_Node000005"><a xlink:href="class_im_fusion_1_1_lazy_instantiated_data_component.html" target="_top" xlink:title=" ">
<polygon fill="white" stroke="#666666" points="561,-116.5 345.5,-116.5 345.5,-74.75 561,-74.75 561,-116.5"/>
<text xml:space="preserve" text-anchor="start" x="353.5" y="-103" font-family="Helvetica,sans-Serif" font-size="10.00">ImFusion::LazyInstantiated</text>
<text xml:space="preserve" text-anchor="start" x="353.5" y="-91.75" font-family="Helvetica,sans-Serif" font-size="10.00">DataComponent&lt; HistogramDataComponent,</text>
<text xml:space="preserve" text-anchor="middle" x="453.25" y="-80.5" font-family="Helvetica,sans-Serif" font-size="10.00"> SharedImageSet &gt;</text>
</a>
</g>
</g>
<!-- Node5&#45;&gt;Node1 -->
<g id="edge4_Node000001_Node000005" class="edge">
<title>Node5&#45;&gt;Node1</title>
<g id="a_edge4_Node000001_Node000005"><a xlink:title=" ">
<path fill="none" stroke="#63b8ff" d="M572.72,-82.81C580.77,-81.94 588.79,-81.07 596.64,-80.22"/>
<polygon fill="#63b8ff" stroke="#63b8ff" points="572.43,-79.32 562.86,-83.88 573.18,-86.28 572.43,-79.32"/>
</a>
</g>
</g>
<!-- Node6 -->
<g id="Node000006" class="node">
<title>Node6</title>
<g id="a_Node000006"><a xlink:href="struct_im_fusion_1_1_persistent_data_component.html" target="_top" xlink:title="Base class for DataComponents that must never be deleted from a DataComponentList.">
<polygon fill="white" stroke="#666666" points="295.25,-110.88 167.5,-110.88 167.5,-80.38 295.25,-80.38 295.25,-110.88"/>
<text xml:space="preserve" text-anchor="start" x="175.5" y="-97.38" font-family="Helvetica,sans-Serif" font-size="10.00">ImFusion::PersistentData</text>
<text xml:space="preserve" text-anchor="middle" x="231.38" y="-86.12" font-family="Helvetica,sans-Serif" font-size="10.00">Component</text>
</a>
</g>
</g>
<!-- Node6&#45;&gt;Node5 -->
<g id="edge5_Node000005_Node000006" class="edge">
<title>Node6&#45;&gt;Node5</title>
<g id="a_edge5_Node000005_Node000006"><a xlink:title=" ">
<path fill="none" stroke="#63b8ff" d="M307.17,-95.62C319.38,-95.62 332.24,-95.62 345.05,-95.62"/>
<polygon fill="#63b8ff" stroke="#63b8ff" points="307.19,-92.13 297.19,-95.63 307.19,-99.13 307.19,-92.13"/>
</a>
</g>
</g>
<!-- Node7 -->
<g id="Node000007" class="node">
<title>Node7</title>
<g id="a_Node000007"><a xlink:href="class_im_fusion_1_1_signal_receiver.html" target="_top" xlink:title="Base class for classes that can contain slots (i.e.">
<polygon fill="white" stroke="#666666" points="517.5,-56.25 389,-56.25 389,-37 517.5,-37 517.5,-56.25"/>
<text xml:space="preserve" text-anchor="middle" x="453.25" y="-42.75" font-family="Helvetica,sans-Serif" font-size="10.00">ImFusion::SignalReceiver</text>
</a>
</g>
</g>
<!-- Node7&#45;&gt;Node1 -->
<g id="edge6_Node000001_Node000007" class="edge">
<title>Node7&#45;&gt;Node1</title>
<g id="a_edge6_Node000001_Node000007"><a xlink:title=" ">
<path fill="none" stroke="#63b8ff" d="M529.08,-54.4C550.59,-56.63 574.25,-59.09 596.52,-61.4"/>
<polygon fill="#63b8ff" stroke="#63b8ff" points="529.53,-50.92 519.22,-53.37 528.8,-57.89 529.53,-50.92"/>
</a>
</g>
</g>
<!-- Node8 -->
<g id="Node000008" class="node">
<title>Node8</title>
<g id="a_Node000008"><a xlink:href="class_im_fusion_1_1_utils_1_1_not_copyable.html" target="_top" xlink:title="Inherit from this class if your class should be neither copy&#45;constructible nor assignable.">
<polygon fill="white" stroke="#666666" points="526.12,-19.25 380.38,-19.25 380.38,0 526.12,0 526.12,-19.25"/>
<text xml:space="preserve" text-anchor="middle" x="453.25" y="-5.75" font-family="Helvetica,sans-Serif" font-size="10.00">ImFusion::Utils::NotCopyable</text>
</a>
</g>
</g>
<!-- Node8&#45;&gt;Node1 -->
<g id="edge7_Node000001_Node000008" class="edge">
<title>Node8&#45;&gt;Node1</title>
<g id="a_edge7_Node000001_Node000008"><a xlink:title=" ">
<path fill="none" stroke="#8b1a1a" d="M535.65,-21.91C544.25,-23.63 552.83,-25.54 561,-27.62 596.2,-36.61 635.65,-51.02 660.5,-60.65"/>
<polygon fill="#8b1a1a" stroke="#8b1a1a" points="536.33,-18.47 525.85,-20.02 535.01,-25.35 536.33,-18.47"/>
</a>
</g>
</g>
</g>
</svg>
