<?xml version="1.0" encoding="UTF-8" standalone="no"?>
<!DOCTYPE svg PUBLIC "-//W3C//DTD SVG 1.1//EN"
 "http://www.w3.org/Graphics/SVG/1.1/DTD/svg11.dtd">
<!-- Generated by graphviz version 14.1.4 (20260321.0153)
 -->
<!-- Title: ImFusion::CurvedViewPrimitive Pages: 1 -->
<svg width="514pt" height="138pt"
 viewBox="0.00 0.00 514.00 138.00" xmlns="http://www.w3.org/2000/svg" xmlns:xlink="http://www.w3.org/1999/xlink">
<g id="graph0" class="graph" transform="scale(1 1) rotate(0) translate(4 134.25)">
<title>ImFusion::CurvedViewPrimitive</title>
<!-- Node1 -->
<g id="Node000001" class="node">
<title>Node1</title>
<g id="a_Node000001"><a xlink:title="Interface for curved view primitives.">
<polygon fill="#999999" stroke="#666666" points="307.25,-74.25 153.25,-74.25 153.25,-55 307.25,-55 307.25,-74.25"/>
<text xml:space="preserve" text-anchor="middle" x="230.25" y="-60.75" font-family="Helvetica,sans-Serif" font-size="10.00">ImFusion::CurvedViewPrimitive</text>
</a>
</g>
</g>
<!-- Node3 -->
<g id="Node000003" class="node">
<title>Node3</title>
<g id="a_Node000003"><a xlink:href="class_im_fusion_1_1_gl_curved_view_circle.html" target="_top" xlink:title="Circle annotation for curved views.">
<polygon fill="white" stroke="#666666" points="500.25,-130.25 349.25,-130.25 349.25,-111 500.25,-111 500.25,-130.25"/>
<text xml:space="preserve" text-anchor="middle" x="424.75" y="-116.75" font-family="Helvetica,sans-Serif" font-size="10.00">ImFusion::GlCurvedViewCircle</text>
</a>
</g>
</g>
<!-- Node1&#45;&gt;Node3 -->
<g id="edge2_Node000001_Node000003" class="edge">
<title>Node1&#45;&gt;Node3</title>
<g id="a_edge2_Node000001_Node000003"><a xlink:title=" ">
<path fill="none" stroke="#63b8ff" d="M268.84,-78.5C290.43,-86.19 318.17,-95.59 343.25,-102.62 353.32,-105.45 364.19,-108.13 374.58,-110.51"/>
<polygon fill="#63b8ff" stroke="#63b8ff" points="270.17,-75.26 259.58,-75.17 267.8,-81.85 270.17,-75.26"/>
</a>
</g>
</g>
<!-- Node4 -->
<g id="Node000004" class="node">
<title>Node4</title>
<g id="a_Node000004"><a xlink:href="class_im_fusion_1_1_gl_curved_view_ellipse.html" target="_top" xlink:title="Ellipse annotation for curved views.">
<polygon fill="white" stroke="#666666" points="502.12,-93.25 347.38,-93.25 347.38,-74 502.12,-74 502.12,-93.25"/>
<text xml:space="preserve" text-anchor="middle" x="424.75" y="-79.75" font-family="Helvetica,sans-Serif" font-size="10.00">ImFusion::GlCurvedViewEllipse</text>
</a>
</g>
</g>
<!-- Node1&#45;&gt;Node4 -->
<g id="edge3_Node000001_Node000004" class="edge">
<title>Node1&#45;&gt;Node4</title>
<g id="a_edge3_Node000001_Node000004"><a xlink:title=" ">
<path fill="none" stroke="#63b8ff" d="M319,-73.29C328.4,-74.21 337.91,-75.15 347.17,-76.07"/>
<polygon fill="#63b8ff" stroke="#63b8ff" points="319.41,-69.81 309.11,-72.31 318.72,-76.78 319.41,-69.81"/>
</a>
</g>
</g>
<!-- Node5 -->
<g id="Node000005" class="node">
<title>Node5</title>
<g id="a_Node000005"><a xlink:href="class_im_fusion_1_1_gl_curved_view_poly_line.html" target="_top" xlink:title="Polyline annotation for curved views.">
<polygon fill="white" stroke="#666666" points="506.25,-56.25 343.25,-56.25 343.25,-37 506.25,-37 506.25,-56.25"/>
<text xml:space="preserve" text-anchor="middle" x="424.75" y="-42.75" font-family="Helvetica,sans-Serif" font-size="10.00">ImFusion::GlCurvedViewPolyLine</text>
</a>
</g>
</g>
<!-- Node1&#45;&gt;Node5 -->
<g id="edge4_Node000001_Node000005" class="edge">
<title>Node1&#45;&gt;Node5</title>
<g id="a_edge4_Node000001_Node000005"><a xlink:title=" ">
<path fill="none" stroke="#63b8ff" d="M318.91,-56.43C326.95,-55.68 335.08,-54.92 343.06,-54.17"/>
<polygon fill="#63b8ff" stroke="#63b8ff" points="318.75,-52.93 309.11,-57.34 319.4,-59.9 318.75,-52.93"/>
</a>
</g>
</g>
<!-- Node6 -->
<g id="Node000006" class="node">
<title>Node6</title>
<g id="a_Node000006"><a xlink:href="class_im_fusion_1_1_gl_curved_view_spline.html" target="_top" xlink:title="Spline annotation for curved views.">
<polygon fill="white" stroke="#666666" points="501,-19.25 348.5,-19.25 348.5,0 501,0 501,-19.25"/>
<text xml:space="preserve" text-anchor="middle" x="424.75" y="-5.75" font-family="Helvetica,sans-Serif" font-size="10.00">ImFusion::GlCurvedViewSpline</text>
</a>
</g>
</g>
<!-- Node1&#45;&gt;Node6 -->
<g id="edge5_Node000001_Node000006" class="edge">
<title>Node1&#45;&gt;Node6</title>
<g id="a_edge5_Node000001_Node000006"><a xlink:title=" ">
<path fill="none" stroke="#63b8ff" d="M269.74,-50.86C291.22,-43.45 318.54,-34.45 343.25,-27.62 353.46,-24.8 364.5,-22.11 375.03,-19.7"/>
<polygon fill="#63b8ff" stroke="#63b8ff" points="268.81,-47.48 260.52,-54.08 271.12,-54.09 268.81,-47.48"/>
</a>
</g>
</g>
<!-- Node2 -->
<g id="Node000002" class="node">
<title>Node2</title>
<g id="a_Node000002"><a xlink:href="class_im_fusion_1_1_configurable.html" target="_top" xlink:title="Base interface for classes that support object serialization from/to Properties objects.">
<polygon fill="white" stroke="#666666" points="117.25,-74.25 0,-74.25 0,-55 117.25,-55 117.25,-74.25"/>
<text xml:space="preserve" text-anchor="middle" x="58.62" y="-60.75" font-family="Helvetica,sans-Serif" font-size="10.00">ImFusion::Configurable</text>
</a>
</g>
</g>
<!-- Node2&#45;&gt;Node1 -->
<g id="edge1_Node000001_Node000002" class="edge">
<title>Node2&#45;&gt;Node1</title>
<g id="a_edge1_Node000001_Node000002"><a xlink:title=" ">
<path fill="none" stroke="#63b8ff" d="M128.97,-64.62C136.89,-64.62 145.01,-64.62 153.01,-64.62"/>
<polygon fill="#63b8ff" stroke="#63b8ff" points="129.04,-61.13 119.04,-64.63 129.04,-68.13 129.04,-61.13"/>
</a>
</g>
</g>
</g>
</svg>
