<?xml version="1.0" encoding="UTF-8" standalone="no"?>
<!DOCTYPE svg PUBLIC "-//W3C//DTD SVG 1.1//EN"
 "http://www.w3.org/Graphics/SVG/1.1/DTD/svg11.dtd">
<!-- Generated by graphviz version 14.1.4 (20260321.0153)
 -->
<!-- Title: ImFusion::GlOvershootControlFilter Pages: 1 -->
<svg width="290pt" height="204pt"
 viewBox="0.00 0.00 290.00 204.00" xmlns="http://www.w3.org/2000/svg" xmlns:xlink="http://www.w3.org/1999/xlink">
<g id="graph0" class="graph" transform="scale(1 1) rotate(0) translate(4 200.25)">
<title>ImFusion::GlOvershootControlFilter</title>
<!-- Node1 -->
<g id="Node000001" class="node">
<title>Node1</title>
<g id="a_Node000001"><a xlink:title="Overshoot control for sharpening algorithms, as used in ADSOC.">
<polygon fill="#999999" stroke="#666666" points="208,-30.5 59.25,-30.5 59.25,0 208,0 208,-30.5"/>
<text xml:space="preserve" text-anchor="start" x="67.25" y="-17" font-family="Helvetica,sans-Serif" font-size="10.00">ImFusion::GlOvershootControl</text>
<text xml:space="preserve" text-anchor="middle" x="133.62" y="-5.75" font-family="Helvetica,sans-Serif" font-size="10.00">Filter</text>
</a>
</g>
</g>
<!-- Node2 -->
<g id="Node000002" class="node">
<title>Node2</title>
<g id="a_Node000002"><a xlink:href="class_im_fusion_1_1_gl_filter.html" target="_top" xlink:title="Base class for filters.">
<polygon fill="white" stroke="#666666" points="180.62,-85.75 86.62,-85.75 86.62,-66.5 180.62,-66.5 180.62,-85.75"/>
<text xml:space="preserve" text-anchor="middle" x="133.62" y="-72.25" font-family="Helvetica,sans-Serif" font-size="10.00">ImFusion::GlFilter</text>
</a>
</g>
</g>
<!-- Node2&#45;&gt;Node1 -->
<g id="edge1_Node000001_Node000002" class="edge">
<title>Node2&#45;&gt;Node1</title>
<g id="a_edge1_Node000001_Node000002"><a xlink:title=" ">
<path fill="none" stroke="#63b8ff" d="M133.62,-54.92C133.62,-46.99 133.62,-38.06 133.62,-30.78"/>
<polygon fill="#63b8ff" stroke="#63b8ff" points="130.13,-54.67 133.63,-64.67 137.13,-54.67 130.13,-54.67"/>
</a>
</g>
</g>
<!-- Node3 -->
<g id="Node000003" class="node">
<title>Node3</title>
<g id="a_Node000003"><a xlink:href="class_im_fusion_1_1_algorithm.html" target="_top" xlink:title="Interface for describing algorithms that can be made available in the ImFusion Suite through Algorith...">
<polygon fill="white" stroke="#666666" points="185.5,-141 81.75,-141 81.75,-121.75 185.5,-121.75 185.5,-141"/>
<text xml:space="preserve" text-anchor="middle" x="133.62" y="-127.5" font-family="Helvetica,sans-Serif" font-size="10.00">ImFusion::Algorithm</text>
</a>
</g>
</g>
<!-- Node3&#45;&gt;Node2 -->
<g id="edge2_Node000002_Node000003" class="edge">
<title>Node3&#45;&gt;Node2</title>
<g id="a_edge2_Node000002_Node000003"><a xlink:title=" ">
<path fill="none" stroke="#63b8ff" d="M133.62,-110.13C133.62,-101.84 133.62,-92.67 133.62,-86.11"/>
<polygon fill="#63b8ff" stroke="#63b8ff" points="130.13,-110.07 133.63,-120.07 137.13,-110.07 130.13,-110.07"/>
</a>
</g>
</g>
<!-- Node4 -->
<g id="Node000004" class="node">
<title>Node4</title>
<g id="a_Node000004"><a xlink:href="class_im_fusion_1_1_configurable.html" target="_top" xlink:title="Base interface for classes that support object serialization from/to Properties objects.">
<polygon fill="white" stroke="#666666" points="117.25,-196.25 0,-196.25 0,-177 117.25,-177 117.25,-196.25"/>
<text xml:space="preserve" text-anchor="middle" x="58.62" y="-182.75" font-family="Helvetica,sans-Serif" font-size="10.00">ImFusion::Configurable</text>
</a>
</g>
</g>
<!-- Node4&#45;&gt;Node3 -->
<g id="edge3_Node000003_Node000004" class="edge">
<title>Node4&#45;&gt;Node3</title>
<g id="a_edge3_Node000003_Node000004"><a xlink:title=" ">
<path fill="none" stroke="#63b8ff" d="M80.62,-170.01C93.7,-160.72 109.83,-149.27 120.84,-141.45"/>
<polygon fill="#63b8ff" stroke="#63b8ff" points="78.71,-167.07 72.58,-175.72 82.76,-172.78 78.71,-167.07"/>
</a>
</g>
</g>
<!-- Node5 -->
<g id="Node000005" class="node">
<title>Node5</title>
<g id="a_Node000005"><a xlink:href="class_im_fusion_1_1_utils_1_1_not_copyable.html" target="_top" xlink:title="Inherit from this class if your class should be neither copy&#45;constructible nor assignable.">
<polygon fill="white" stroke="#666666" points="281.5,-196.25 135.75,-196.25 135.75,-177 281.5,-177 281.5,-196.25"/>
<text xml:space="preserve" text-anchor="middle" x="208.62" y="-182.75" font-family="Helvetica,sans-Serif" font-size="10.00">ImFusion::Utils::NotCopyable</text>
</a>
</g>
</g>
<!-- Node5&#45;&gt;Node3 -->
<g id="edge4_Node000003_Node000005" class="edge">
<title>Node5&#45;&gt;Node3</title>
<g id="a_edge4_Node000003_Node000005"><a xlink:title=" ">
<path fill="none" stroke="#8b1a1a" d="M186.63,-170.01C173.55,-160.72 157.42,-149.27 146.41,-141.45"/>
<polygon fill="#8b1a1a" stroke="#8b1a1a" points="184.49,-172.78 194.67,-175.72 188.54,-167.07 184.49,-172.78"/>
</a>
</g>
</g>
</g>
</svg>
