<?xml version="1.0" encoding="UTF-8" standalone="no"?>
<!DOCTYPE svg PUBLIC "-//W3C//DTD SVG 1.1//EN"
 "http://www.w3.org/Graphics/SVG/1.1/DTD/svg11.dtd">
<!-- Generated by graphviz version 14.1.4 (20260321.0153)
 -->
<!-- Title: ImFusion::ExpandableGroupBox Pages: 1 -->
<svg width="433pt" height="138pt"
 viewBox="0.00 0.00 433.00 138.00" xmlns="http://www.w3.org/2000/svg" xmlns:xlink="http://www.w3.org/1999/xlink">
<g id="graph0" class="graph" transform="scale(1 1) rotate(0) translate(4 134.25)">
<title>ImFusion::ExpandableGroupBox</title>
<!-- Node1 -->
<g id="Node000001" class="node">
<title>Node1</title>
<g id="a_Node000001"><a xlink:title="This class is a container widget that can expand and collapse another widget.">
<polygon fill="#999999" stroke="#666666" points="244.25,-74.25 87.25,-74.25 87.25,-55 244.25,-55 244.25,-74.25"/>
<text xml:space="preserve" text-anchor="middle" x="165.75" y="-60.75" font-family="Helvetica,sans-Serif" font-size="10.00">ImFusion::ExpandableGroupBox</text>
</a>
</g>
</g>
<!-- Node3 -->
<g id="Node000003" class="node">
<title>Node3</title>
<g id="a_Node000003"><a xlink:href="class_im_fusion_1_1_annotation_widget.html" target="_top" xlink:title="Qt User interface for editing annotations managed by AnnotationModel.">
<polygon fill="white" stroke="#666666" points="422.25,-130.25 282.5,-130.25 282.5,-111 422.25,-111 422.25,-130.25"/>
<text xml:space="preserve" text-anchor="middle" x="352.38" y="-116.75" font-family="Helvetica,sans-Serif" font-size="10.00">ImFusion::AnnotationWidget</text>
</a>
</g>
</g>
<!-- Node1&#45;&gt;Node3 -->
<g id="edge2_Node000001_Node000003" class="edge">
<title>Node1&#45;&gt;Node3</title>
<g id="a_edge2_Node000001_Node000003"><a xlink:title=" ">
<path fill="none" stroke="#63b8ff" d="M205.82,-78.51C227.6,-86.05 255.29,-95.3 280.25,-102.62 289.66,-105.39 299.85,-108.12 309.49,-110.58"/>
<polygon fill="#63b8ff" stroke="#63b8ff" points="207.04,-75.23 196.45,-75.25 204.74,-81.84 207.04,-75.23"/>
</a>
</g>
</g>
<!-- Node4 -->
<g id="Node000004" class="node">
<title>Node4</title>
<g id="a_Node000004"><a xlink:href="class_im_fusion_1_1_data_widget.html" target="_top" xlink:title="Graphical user interface for the DataModel/DataItemModel.">
<polygon fill="white" stroke="#666666" points="409.5,-93.25 295.25,-93.25 295.25,-74 409.5,-74 409.5,-93.25"/>
<text xml:space="preserve" text-anchor="middle" x="352.38" y="-79.75" font-family="Helvetica,sans-Serif" font-size="10.00">ImFusion::DataWidget</text>
</a>
</g>
</g>
<!-- Node1&#45;&gt;Node4 -->
<g id="edge3_Node000001_Node000004" class="edge">
<title>Node1&#45;&gt;Node4</title>
<g id="a_edge3_Node000001_Node000004"><a xlink:title=" ">
<path fill="none" stroke="#63b8ff" d="M255.71,-73.78C269.09,-75.16 282.57,-76.54 295.01,-77.82"/>
<polygon fill="#63b8ff" stroke="#63b8ff" points="256.32,-70.32 246.02,-72.78 255.61,-77.29 256.32,-70.32"/>
</a>
</g>
</g>
<!-- Node5 -->
<g id="Node000005" class="node">
<title>Node5</title>
<g id="a_Node000005"><a xlink:href="class_im_fusion_1_1_selection_widget.html" target="_top" xlink:title="Widget and scrollbar for handling selection and playback of data.">
<polygon fill="white" stroke="#666666" points="419.25,-56.25 285.5,-56.25 285.5,-37 419.25,-37 419.25,-56.25"/>
<text xml:space="preserve" text-anchor="middle" x="352.38" y="-42.75" font-family="Helvetica,sans-Serif" font-size="10.00">ImFusion::SelectionWidget</text>
</a>
</g>
</g>
<!-- Node1&#45;&gt;Node5 -->
<g id="edge4_Node000001_Node000005" class="edge">
<title>Node1&#45;&gt;Node5</title>
<g id="a_edge4_Node000001_Node000005"><a xlink:title=" ">
<path fill="none" stroke="#63b8ff" d="M255.66,-55.96C265.57,-54.99 275.54,-54.02 285.1,-53.09"/>
<polygon fill="#63b8ff" stroke="#63b8ff" points="255.63,-52.44 246.02,-56.9 256.31,-59.41 255.63,-52.44"/>
</a>
</g>
</g>
<!-- Node6 -->
<g id="Node000006" class="node">
<title>Node6</title>
<g id="a_Node000006"><a xlink:href="class_im_fusion_1_1_view_layout_widget.html" target="_top" xlink:title="The ViewLayoutWidget class provides controls to show/hide views and change the layout.">
<polygon fill="white" stroke="#666666" points="424.5,-19.25 280.25,-19.25 280.25,0 424.5,0 424.5,-19.25"/>
<text xml:space="preserve" text-anchor="middle" x="352.38" y="-5.75" font-family="Helvetica,sans-Serif" font-size="10.00">ImFusion::ViewLayoutWidget</text>
</a>
</g>
</g>
<!-- Node1&#45;&gt;Node6 -->
<g id="edge5_Node000001_Node000006" class="edge">
<title>Node1&#45;&gt;Node6</title>
<g id="a_edge5_Node000001_Node000006"><a xlink:title=" ">
<path fill="none" stroke="#63b8ff" d="M206.3,-51.01C228.02,-43.72 255.5,-34.78 280.25,-27.62 289.67,-24.9 299.86,-22.19 309.5,-19.72"/>
<polygon fill="#63b8ff" stroke="#63b8ff" points="205.29,-47.65 196.94,-54.17 207.54,-54.29 205.29,-47.65"/>
</a>
</g>
</g>
<!-- Node2 -->
<g id="Node000002" class="node">
<title>Node2</title>
<g id="a_Node000002"><a xlink:title=" ">
<polygon fill="white" stroke="#bfbfbf" points="51.25,-74.25 0,-74.25 0,-55 51.25,-55 51.25,-74.25"/>
<text xml:space="preserve" text-anchor="middle" x="25.62" y="-60.75" font-family="Helvetica,sans-Serif" font-size="10.00">QFrame</text>
</a>
</g>
</g>
<!-- Node2&#45;&gt;Node1 -->
<g id="edge1_Node000001_Node000002" class="edge">
<title>Node2&#45;&gt;Node1</title>
<g id="a_edge1_Node000001_Node000002"><a xlink:title=" ">
<path fill="none" stroke="#63b8ff" d="M63.12,-64.62C70.58,-64.62 78.69,-64.62 86.98,-64.62"/>
<polygon fill="#63b8ff" stroke="#63b8ff" points="63.15,-61.13 53.15,-64.63 63.15,-68.13 63.15,-61.13"/>
</a>
</g>
</g>
</g>
</svg>
