<?xml version="1.0" encoding="UTF-8" standalone="no"?>
<!DOCTYPE svg PUBLIC "-//W3C//DTD SVG 1.1//EN"
 "http://www.w3.org/Graphics/SVG/1.1/DTD/svg11.dtd">
<!-- Generated by graphviz version 14.1.4 (20260321.0153)
 -->
<!-- Title: ImFusion::TrackingInstrumentRawData&lt; T &gt; Pages: 1 -->
<svg width="164pt" height="227pt"
 viewBox="0.00 0.00 164.00 227.00" xmlns="http://www.w3.org/2000/svg" xmlns:xlink="http://www.w3.org/1999/xlink">
<g id="graph0" class="graph" transform="scale(1 1) rotate(0) translate(4 222.75)">
<title>ImFusion::TrackingInstrumentRawData&lt; T &gt;</title>
<!-- Node1 -->
<g id="Node000001" class="node">
<title>Node1</title>
<g id="a_Node000001"><a xlink:title="Device&#45;dependent additional data.">
<polygon fill="#999999" stroke="#666666" points="151.38,-30.5 4.88,-30.5 4.88,0 151.38,0 151.38,-30.5"/>
<text xml:space="preserve" text-anchor="start" x="12.88" y="-17" font-family="Helvetica,sans-Serif" font-size="10.00">ImFusion::TrackingInstrument</text>
<text xml:space="preserve" text-anchor="middle" x="78.12" y="-5.75" font-family="Helvetica,sans-Serif" font-size="10.00">RawData&lt; T &gt;</text>
</a>
</g>
</g>
<!-- Node2 -->
<g id="Node000002" class="node">
<title>Node2</title>
<g id="a_Node000002"><a xlink:href="class_im_fusion_1_1_data_component.html" target="_top" xlink:title=" ">
<polygon fill="white" stroke="#666666" points="153.25,-108.25 3,-108.25 3,-66.5 153.25,-66.5 153.25,-108.25"/>
<text xml:space="preserve" text-anchor="start" x="11" y="-94.75" font-family="Helvetica,sans-Serif" font-size="10.00">ImFusion::DataComponent</text>
<text xml:space="preserve" text-anchor="start" x="11" y="-83.5" font-family="Helvetica,sans-Serif" font-size="10.00">&lt; TrackingInstrumentRawData</text>
<text xml:space="preserve" text-anchor="middle" x="78.12" y="-72.25" font-family="Helvetica,sans-Serif" font-size="10.00">&lt; T &gt; &gt;</text>
</a>
</g>
</g>
<!-- Node2&#45;&gt;Node1 -->
<g id="edge1_Node000001_Node000002" class="edge">
<title>Node2&#45;&gt;Node1</title>
<g id="a_edge1_Node000001_Node000002"><a xlink:title=" ">
<path fill="none" stroke="#63b8ff" d="M78.12,-54.63C78.12,-46.27 78.12,-37.65 78.12,-30.7"/>
<polygon fill="#63b8ff" stroke="#63b8ff" points="74.63,-54.58 78.13,-64.58 81.63,-54.58 74.63,-54.58"/>
</a>
</g>
</g>
<!-- Node3 -->
<g id="Node000003" class="node">
<title>Node3</title>
<g id="a_Node000003"><a xlink:href="class_im_fusion_1_1_data_component_base.html" target="_top" xlink:title="Data components provide a way to generically attach custom information objects.">
<polygon fill="white" stroke="#666666" points="156.25,-163.5 0,-163.5 0,-144.25 156.25,-144.25 156.25,-163.5"/>
<text xml:space="preserve" text-anchor="middle" x="78.12" y="-150" font-family="Helvetica,sans-Serif" font-size="10.00">ImFusion::DataComponentBase</text>
</a>
</g>
</g>
<!-- Node3&#45;&gt;Node2 -->
<g id="edge2_Node000002_Node000003" class="edge">
<title>Node3&#45;&gt;Node2</title>
<g id="a_edge2_Node000002_Node000003"><a xlink:title=" ">
<path fill="none" stroke="#63b8ff" d="M78.12,-132.45C78.12,-124.86 78.12,-116.26 78.12,-108.68"/>
<polygon fill="#63b8ff" stroke="#63b8ff" points="74.63,-132.39 78.13,-142.39 81.63,-132.39 74.63,-132.39"/>
</a>
</g>
</g>
<!-- Node4 -->
<g id="Node000004" class="node">
<title>Node4</title>
<g id="a_Node000004"><a xlink:href="class_im_fusion_1_1_configurable.html" target="_top" xlink:title="Base interface for classes that support object serialization from/to Properties objects.">
<polygon fill="white" stroke="#666666" points="136.75,-218.75 19.5,-218.75 19.5,-199.5 136.75,-199.5 136.75,-218.75"/>
<text xml:space="preserve" text-anchor="middle" x="78.12" y="-205.25" font-family="Helvetica,sans-Serif" font-size="10.00">ImFusion::Configurable</text>
</a>
</g>
</g>
<!-- Node4&#45;&gt;Node3 -->
<g id="edge3_Node000003_Node000004" class="edge">
<title>Node4&#45;&gt;Node3</title>
<g id="a_edge3_Node000003_Node000004"><a xlink:title=" ">
<path fill="none" stroke="#63b8ff" d="M78.12,-187.88C78.12,-179.59 78.12,-170.42 78.12,-163.86"/>
<polygon fill="#63b8ff" stroke="#63b8ff" points="74.63,-187.82 78.13,-197.82 81.63,-187.82 74.63,-187.82"/>
</a>
</g>
</g>
</g>
</svg>
