<?xml version="1.0" encoding="UTF-8" standalone="no"?>
<!DOCTYPE svg PUBLIC "-//W3C//DTD SVG 1.1//EN"
 "http://www.w3.org/Graphics/SVG/1.1/DTD/svg11.dtd">
<!-- Generated by graphviz version 14.1.4 (20260321.0153)
 -->
<!-- Title: ImFusion::GlAnnotation Pages: 1 -->
<svg width="1252pt" height="797pt"
 viewBox="0.00 0.00 1252.00 797.00" xmlns="http://www.w3.org/2000/svg" xmlns:xlink="http://www.w3.org/1999/xlink">
<g id="graph0" class="graph" transform="scale(1 1) rotate(0) translate(4 793.25)">
<title>ImFusion::GlAnnotation</title>
<!-- Node1 -->
<g id="Node000001" class="node">
<title>Node1</title>
<g id="a_Node000001"><a xlink:title="Base class for implementing annotations.">
<polygon fill="#999999" stroke="#666666" points="453.75,-659.25 335,-659.25 335,-640 453.75,-640 453.75,-659.25"/>
<text xml:space="preserve" text-anchor="middle" x="394.38" y="-645.75" font-family="Helvetica,sans-Serif" font-size="10.00">ImFusion::GlAnnotation</text>
</a>
</g>
</g>
<!-- Node5 -->
<g id="Node000005" class="node">
<title>Node5</title>
<g id="a_Node000005"><a xlink:href="class_im_fusion_1_1_dicom_1_1_overlay_annotation.html" target="_top" xlink:title="The OverlayAnnotation displays any DICOM overlay stored in a OverlayDataComponent.">
<polygon fill="white" stroke="#666666" points="639.62,-707.88 508.88,-707.88 508.88,-677.38 639.62,-677.38 639.62,-707.88"/>
<text xml:space="preserve" text-anchor="start" x="516.88" y="-694.38" font-family="Helvetica,sans-Serif" font-size="10.00">ImFusion::Dicom::Overlay</text>
<text xml:space="preserve" text-anchor="middle" x="574.25" y="-683.12" font-family="Helvetica,sans-Serif" font-size="10.00">Annotation</text>
</a>
</g>
</g>
<!-- Node1&#45;&gt;Node5 -->
<g id="edge4_Node000001_Node000005" class="edge">
<title>Node1&#45;&gt;Node5</title>
<g id="a_edge4_Node000001_Node000005"><a xlink:title=" ">
<path fill="none" stroke="#63b8ff" d="M448.18,-662.39C467.11,-666.97 488.66,-672.18 508.48,-676.97"/>
<polygon fill="#63b8ff" stroke="#63b8ff" points="449.09,-659.01 438.55,-660.06 447.45,-665.81 449.09,-659.01"/>
</a>
</g>
</g>
<!-- Node6 -->
<g id="Node000006" class="node">
<title>Node6</title>
<g id="a_Node000006"><a xlink:href="class_im_fusion_1_1_gl3_d_object.html" target="_top" xlink:title="Abstract base class for 3D objects for which a center and an extent (i.e. a bounding box) can be spec...">
<polygon fill="white" stroke="#666666" points="631,-659.25 517.5,-659.25 517.5,-640 631,-640 631,-659.25"/>
<text xml:space="preserve" text-anchor="middle" x="574.25" y="-645.75" font-family="Helvetica,sans-Serif" font-size="10.00">ImFusion::Gl3DObject</text>
</a>
</g>
</g>
<!-- Node1&#45;&gt;Node6 -->
<g id="edge5_Node000001_Node000006" class="edge">
<title>Node1&#45;&gt;Node6</title>
<g id="a_edge5_Node000001_Node000006"><a xlink:title=" ">
<path fill="none" stroke="#63b8ff" d="M465.28,-649.62C482.54,-649.62 500.8,-649.62 517.29,-649.62"/>
<polygon fill="#63b8ff" stroke="#63b8ff" points="465.62,-646.13 455.62,-649.63 465.62,-653.13 465.62,-646.13"/>
</a>
</g>
</g>
<!-- Node16 -->
<g id="Node000016" class="node">
<title>Node16</title>
<g id="a_Node000016"><a xlink:href="class_im_fusion_1_1_gl_point_based_annotation.html" target="_top" xlink:title="Base class for implementing point&#45;based annotations.">
<polygon fill="white" stroke="#666666" points="658.75,-333.25 489.75,-333.25 489.75,-314 658.75,-314 658.75,-333.25"/>
<text xml:space="preserve" text-anchor="middle" x="574.25" y="-319.75" font-family="Helvetica,sans-Serif" font-size="10.00">ImFusion::GlPointBasedAnnotation</text>
</a>
</g>
</g>
<!-- Node1&#45;&gt;Node16 -->
<g id="edge15_Node000001_Node000016" class="edge">
<title>Node1&#45;&gt;Node16</title>
<g id="a_edge15_Node000001_Node000016"><a xlink:title=" ">
<path fill="none" stroke="#63b8ff" d="M406.21,-629.77C440.04,-567.77 542.93,-379.2 567.8,-333.62"/>
<polygon fill="#63b8ff" stroke="#63b8ff" points="403.34,-627.73 401.62,-638.18 409.48,-631.08 403.34,-627.73"/>
</a>
</g>
</g>
<!-- Node2 -->
<g id="Node000002" class="node">
<title>Node2</title>
<g id="a_Node000002"><a xlink:href="class_im_fusion_1_1_gl_object.html" target="_top" xlink:title="Abstract base class for an renderable OpenGL object that can be hosted in a GlView.">
<polygon fill="white" stroke="#666666" points="276.5,-678.25 175.75,-678.25 175.75,-659 276.5,-659 276.5,-678.25"/>
<text xml:space="preserve" text-anchor="middle" x="226.12" y="-664.75" font-family="Helvetica,sans-Serif" font-size="10.00">ImFusion::GlObject</text>
</a>
</g>
</g>
<!-- Node2&#45;&gt;Node1 -->
<g id="edge1_Node000001_Node000002" class="edge">
<title>Node2&#45;&gt;Node1</title>
<g id="a_edge1_Node000001_Node000002"><a xlink:title=" ">
<path fill="none" stroke="#63b8ff" d="M287.98,-661.67C303.25,-659.93 319.6,-658.06 334.76,-656.32"/>
<polygon fill="#63b8ff" stroke="#63b8ff" points="287.6,-658.19 278.06,-662.8 288.39,-665.15 287.6,-658.19"/>
</a>
</g>
</g>
<!-- Node3 -->
<g id="Node000003" class="node">
<title>Node3</title>
<g id="a_Node000003"><a xlink:href="class_im_fusion_1_1_configurable.html" target="_top" xlink:title="Base interface for classes that support object serialization from/to Properties objects.">
<polygon fill="white" stroke="#666666" points="117.25,-678.25 0,-678.25 0,-659 117.25,-659 117.25,-678.25"/>
<text xml:space="preserve" text-anchor="middle" x="58.62" y="-664.75" font-family="Helvetica,sans-Serif" font-size="10.00">ImFusion::Configurable</text>
</a>
</g>
</g>
<!-- Node3&#45;&gt;Node2 -->
<g id="edge2_Node000002_Node000003" class="edge">
<title>Node3&#45;&gt;Node2</title>
<g id="a_edge2_Node000002_Node000003"><a xlink:title=" ">
<path fill="none" stroke="#63b8ff" d="M128.73,-668.62C144.34,-668.62 160.61,-668.62 175.25,-668.62"/>
<polygon fill="#63b8ff" stroke="#63b8ff" points="129.02,-665.13 119.02,-668.63 129.02,-672.13 129.02,-665.13"/>
</a>
</g>
</g>
<!-- Node4 -->
<g id="Node000004" class="node">
<title>Node4</title>
<g id="a_Node000004"><a xlink:href="class_im_fusion_1_1_utils_1_1_not_copyable.html" target="_top" xlink:title="Inherit from this class if your class should be neither copy&#45;constructible nor assignable.">
<polygon fill="white" stroke="#666666" points="299,-641.25 153.25,-641.25 153.25,-622 299,-622 299,-641.25"/>
<text xml:space="preserve" text-anchor="middle" x="226.12" y="-627.75" font-family="Helvetica,sans-Serif" font-size="10.00">ImFusion::Utils::NotCopyable</text>
</a>
</g>
</g>
<!-- Node4&#45;&gt;Node1 -->
<g id="edge3_Node000001_Node000004" class="edge">
<title>Node4&#45;&gt;Node1</title>
<g id="a_edge3_Node000001_Node000004"><a xlink:title=" ">
<path fill="none" stroke="#8b1a1a" d="M310.24,-640.62C318.46,-641.51 326.67,-642.4 334.56,-643.26"/>
<polygon fill="#8b1a1a" stroke="#8b1a1a" points="310.9,-637.18 300.58,-639.58 310.15,-644.13 310.9,-637.18"/>
</a>
</g>
</g>
<!-- Node7 -->
<g id="Node000007" class="node">
<title>Node7</title>
<g id="a_Node000007"><a xlink:href="class_im_fusion_1_1_gl_bounding_box.html" target="_top" xlink:title="Draws a bounding box.">
<polygon fill="white" stroke="#666666" points="836.38,-789.25 706.38,-789.25 706.38,-770 836.38,-770 836.38,-789.25"/>
<text xml:space="preserve" text-anchor="middle" x="771.38" y="-775.75" font-family="Helvetica,sans-Serif" font-size="10.00">ImFusion::GlBoundingBox</text>
</a>
</g>
</g>
<!-- Node6&#45;&gt;Node7 -->
<g id="edge6_Node000006_Node000007" class="edge">
<title>Node6&#45;&gt;Node7</title>
<g id="a_edge6_Node000006_Node000007"><a xlink:title=" ">
<path fill="none" stroke="#63b8ff" d="M641.93,-658.3C648.03,-660.95 653.78,-664.33 658.75,-668.62 692.29,-697.6 661.36,-732.48 694.75,-761.62 698.41,-764.82 702.54,-767.47 706.93,-769.67"/>
<polygon fill="#63b8ff" stroke="#63b8ff" points="643.41,-655.11 632.82,-655.01 641.04,-661.7 643.41,-655.11"/>
</a>
</g>
</g>
<!-- Node8 -->
<g id="Node000008" class="node">
<title>Node8</title>
<g id="a_Node000008"><a xlink:href="class_im_fusion_1_1_gl_mesh.html" target="_top" xlink:title="The GlMesh class renders Mesh instances in 2D and 3D.">
<polygon fill="white" stroke="#666666" points="819.5,-752.25 723.25,-752.25 723.25,-733 819.5,-733 819.5,-752.25"/>
<text xml:space="preserve" text-anchor="middle" x="771.38" y="-738.75" font-family="Helvetica,sans-Serif" font-size="10.00">ImFusion::GlMesh</text>
</a>
</g>
</g>
<!-- Node6&#45;&gt;Node8 -->
<g id="edge7_Node000006_Node000008" class="edge">
<title>Node6&#45;&gt;Node8</title>
<g id="a_edge7_Node000006_Node000008"><a xlink:title=" ">
<path fill="none" stroke="#63b8ff" d="M642.08,-659.76C647.99,-662.14 653.65,-665.05 658.75,-668.62 682.97,-685.61 670.61,-707.52 694.75,-724.62 703.01,-730.48 712.92,-734.45 722.8,-737.13"/>
<polygon fill="#63b8ff" stroke="#63b8ff" points="643.28,-656.47 632.68,-656.54 641.01,-663.1 643.28,-656.47"/>
</a>
</g>
</g>
<!-- Node10 -->
<g id="Node000010" class="node">
<title>Node10</title>
<g id="a_Node000010"><a xlink:href="class_im_fusion_1_1_gl_plane.html" target="_top" xlink:title="Plane Annotation.">
<polygon fill="white" stroke="#666666" points="819.88,-715.25 722.88,-715.25 722.88,-696 819.88,-696 819.88,-715.25"/>
<text xml:space="preserve" text-anchor="middle" x="771.38" y="-701.75" font-family="Helvetica,sans-Serif" font-size="10.00">ImFusion::GlPlane</text>
</a>
</g>
</g>
<!-- Node6&#45;&gt;Node10 -->
<g id="edge9_Node000006_Node000010" class="edge">
<title>Node6&#45;&gt;Node10</title>
<g id="a_edge9_Node000006_Node000010"><a xlink:title=" ">
<path fill="none" stroke="#63b8ff" d="M640.06,-662.6C646.44,-664.4 652.77,-666.41 658.75,-668.62 675.72,-674.91 677.82,-681.26 694.75,-687.62 703.59,-690.95 713.25,-693.8 722.63,-696.19"/>
<polygon fill="#63b8ff" stroke="#63b8ff" points="641.34,-659.31 630.77,-660.13 639.54,-666.08 641.34,-659.31"/>
</a>
</g>
</g>
<!-- Node11 -->
<g id="Node000011" class="node">
<title>Node11</title>
<g id="a_Node000011"><a xlink:href="class_im_fusion_1_1_gl_point_cloud.html" target="_top" xlink:title="Efficient point cloud renderer.">
<polygon fill="white" stroke="#666666" points="831.5,-678.25 711.25,-678.25 711.25,-659 831.5,-659 831.5,-678.25"/>
<text xml:space="preserve" text-anchor="middle" x="771.38" y="-664.75" font-family="Helvetica,sans-Serif" font-size="10.00">ImFusion::GlPointCloud</text>
</a>
</g>
</g>
<!-- Node6&#45;&gt;Node11 -->
<g id="edge10_Node000006_Node000011" class="edge">
<title>Node6&#45;&gt;Node11</title>
<g id="a_edge10_Node000006_Node000011"><a xlink:title=" ">
<path fill="none" stroke="#63b8ff" d="M642.77,-656.2C664.91,-658.36 689.35,-660.73 710.85,-662.83"/>
<polygon fill="#63b8ff" stroke="#63b8ff" points="643.23,-652.73 632.93,-655.24 642.55,-659.69 643.23,-652.73"/>
</a>
</g>
</g>
<!-- Node12 -->
<g id="Node000012" class="node">
<title>Node12</title>
<g id="a_Node000012"><a xlink:href="class_im_fusion_1_1_gl_pose_graph.html" target="_top" xlink:title="Pose graph annotation.">
<polygon fill="white" stroke="#666666" points="831.88,-641.25 710.88,-641.25 710.88,-622 831.88,-622 831.88,-641.25"/>
<text xml:space="preserve" text-anchor="middle" x="771.38" y="-627.75" font-family="Helvetica,sans-Serif" font-size="10.00">ImFusion::GlPoseGraph</text>
</a>
</g>
</g>
<!-- Node6&#45;&gt;Node12 -->
<g id="edge11_Node000006_Node000012" class="edge">
<title>Node6&#45;&gt;Node12</title>
<g id="a_edge11_Node000006_Node000012"><a xlink:title=" ">
<path fill="none" stroke="#63b8ff" d="M642.72,-643.4C664.76,-641.37 689.07,-639.13 710.51,-637.15"/>
<polygon fill="#63b8ff" stroke="#63b8ff" points="642.57,-639.9 632.93,-644.3 643.21,-646.87 642.57,-639.9"/>
</a>
</g>
</g>
<!-- Node13 -->
<g id="Node000013" class="node">
<title>Node13</title>
<g id="a_Node000013"><a xlink:href="class_im_fusion_1_1_gl_tracking_sequence_legacy.html" target="_top" xlink:title=" ">
<polygon fill="white" stroke="#666666" points="848,-603.88 694.75,-603.88 694.75,-573.38 848,-573.38 848,-603.88"/>
<text xml:space="preserve" text-anchor="start" x="702.75" y="-590.38" font-family="Helvetica,sans-Serif" font-size="10.00">ImFusion::GlTrackingSequence</text>
<text xml:space="preserve" text-anchor="middle" x="771.38" y="-579.12" font-family="Helvetica,sans-Serif" font-size="10.00">Legacy</text>
</a>
</g>
</g>
<!-- Node6&#45;&gt;Node13 -->
<g id="edge12_Node000006_Node000013" class="edge">
<title>Node6&#45;&gt;Node13</title>
<g id="a_edge12_Node000006_Node000013"><a xlink:title=" ">
<path fill="none" stroke="#63b8ff" d="M618.45,-636.12C648.51,-626.72 688.66,-614.17 720.15,-604.33"/>
<polygon fill="#63b8ff" stroke="#63b8ff" points="617.42,-632.78 608.92,-639.1 619.5,-639.46 617.42,-632.78"/>
</a>
</g>
</g>
<!-- Node14 -->
<g id="Node000014" class="node">
<title>Node14</title>
<g id="a_Node000014"><a xlink:href="class_im_fusion_1_1_gl_tree.html" target="_top" xlink:title="Point tree annotation.">
<polygon fill="white" stroke="#666666" points="817.25,-555.25 725.5,-555.25 725.5,-536 817.25,-536 817.25,-555.25"/>
<text xml:space="preserve" text-anchor="middle" x="771.38" y="-541.75" font-family="Helvetica,sans-Serif" font-size="10.00">ImFusion::GlTree</text>
</a>
</g>
</g>
<!-- Node6&#45;&gt;Node14 -->
<g id="edge13_Node000006_Node000014" class="edge">
<title>Node6&#45;&gt;Node14</title>
<g id="a_edge13_Node000006_Node000014"><a xlink:title=" ">
<path fill="none" stroke="#63b8ff" d="M594.84,-632.15C617.4,-612.9 656.32,-582.35 694.75,-564.62 704.22,-560.26 714.83,-556.8 725.04,-554.1"/>
<polygon fill="#63b8ff" stroke="#63b8ff" points="592.62,-629.44 587.37,-638.64 597.21,-634.72 592.62,-629.44"/>
</a>
</g>
</g>
<!-- Node9 -->
<g id="Node000009" class="node">
<title>Node9</title>
<g id="a_Node000009"><a xlink:href="class_im_fusion_1_1_gl_box.html" target="_top" xlink:title="Bounding box annotation.">
<polygon fill="white" stroke="#666666" points="1013.25,-752.25 923.75,-752.25 923.75,-733 1013.25,-733 1013.25,-752.25"/>
<text xml:space="preserve" text-anchor="middle" x="968.5" y="-738.75" font-family="Helvetica,sans-Serif" font-size="10.00">ImFusion::GlBox</text>
</a>
</g>
</g>
<!-- Node8&#45;&gt;Node9 -->
<g id="edge8_Node000008_Node000009" class="edge">
<title>Node8&#45;&gt;Node9</title>
<g id="a_edge8_Node000008_Node000009"><a xlink:title=" ">
<path fill="none" stroke="#63b8ff" d="M831.33,-742.62C860.96,-742.62 896.25,-742.62 923.49,-742.62"/>
<polygon fill="#63b8ff" stroke="#63b8ff" points="831.37,-739.13 821.37,-742.63 831.37,-746.13 831.37,-739.13"/>
</a>
</g>
</g>
<!-- Node15 -->
<g id="Node000015" class="node">
<title>Node15</title>
<g id="a_Node000015"><a xlink:href="class_im_fusion_1_1_gl_point_tree.html" target="_top" xlink:title="Point tree annotation.">
<polygon fill="white" stroke="#666666" points="1025.62,-555.25 911.38,-555.25 911.38,-536 1025.62,-536 1025.62,-555.25"/>
<text xml:space="preserve" text-anchor="middle" x="968.5" y="-541.75" font-family="Helvetica,sans-Serif" font-size="10.00">ImFusion::GlPointTree</text>
</a>
</g>
</g>
<!-- Node14&#45;&gt;Node15 -->
<g id="edge14_Node000014_Node000015" class="edge">
<title>Node14&#45;&gt;Node15</title>
<g id="a_edge14_Node000014_Node000015"><a xlink:title=" ">
<path fill="none" stroke="#63b8ff" d="M829.1,-545.62C854.85,-545.62 885.24,-545.62 910.96,-545.62"/>
<polygon fill="#63b8ff" stroke="#63b8ff" points="829.14,-542.13 819.14,-545.63 829.14,-549.13 829.14,-542.13"/>
</a>
</g>
</g>
<!-- Node17 -->
<g id="Node000017" class="node">
<title>Node17</title>
<g id="a_Node000017"><a xlink:href="class_im_fusion_1_1_gl_angle.html" target="_top" xlink:title="Angle annotation.">
<polygon fill="white" stroke="#666666" points="819.88,-518.25 722.88,-518.25 722.88,-499 819.88,-499 819.88,-518.25"/>
<text xml:space="preserve" text-anchor="middle" x="771.38" y="-504.75" font-family="Helvetica,sans-Serif" font-size="10.00">ImFusion::GlAngle</text>
</a>
</g>
</g>
<!-- Node16&#45;&gt;Node17 -->
<g id="edge16_Node000016_Node000017" class="edge">
<title>Node16&#45;&gt;Node17</title>
<g id="a_edge16_Node000016_Node000017"><a xlink:title=" ">
<path fill="none" stroke="#63b8ff" d="M583.88,-343.91C600.11,-379.49 638.65,-452.93 694.75,-490.62 703.04,-496.2 712.86,-500.05 722.62,-502.71"/>
<polygon fill="#63b8ff" stroke="#63b8ff" points="587.09,-342.52 579.85,-334.79 580.69,-345.35 587.09,-342.52"/>
</a>
</g>
</g>
<!-- Node18 -->
<g id="Node000018" class="node">
<title>Node18</title>
<g id="a_Node000018"><a xlink:href="class_im_fusion_1_1_gl_arrow.html" target="_top" xlink:title="Line segment annotation.">
<polygon fill="white" stroke="#666666" points="820.25,-481.25 722.5,-481.25 722.5,-462 820.25,-462 820.25,-481.25"/>
<text xml:space="preserve" text-anchor="middle" x="771.38" y="-467.75" font-family="Helvetica,sans-Serif" font-size="10.00">ImFusion::GlArrow</text>
</a>
</g>
</g>
<!-- Node16&#45;&gt;Node18 -->
<g id="edge17_Node000016_Node000018" class="edge">
<title>Node16&#45;&gt;Node18</title>
<g id="a_edge17_Node000016_Node000018"><a xlink:title=" ">
<path fill="none" stroke="#63b8ff" d="M587.47,-343C606.67,-371.78 646.71,-425.44 694.75,-453.62 703.13,-458.54 712.78,-462.12 722.32,-464.72"/>
<polygon fill="#63b8ff" stroke="#63b8ff" points="590.58,-341.36 582.19,-334.89 584.71,-345.18 590.58,-341.36"/>
</a>
</g>
</g>
<!-- Node19 -->
<g id="Node000019" class="node">
<title>Node19</title>
<g id="a_Node000019"><a xlink:href="class_im_fusion_1_1_gl_axis.html" target="_top" xlink:title="Cut Line annotation.">
<polygon fill="white" stroke="#666666" points="817.25,-444.25 725.5,-444.25 725.5,-425 817.25,-425 817.25,-444.25"/>
<text xml:space="preserve" text-anchor="middle" x="771.38" y="-430.75" font-family="Helvetica,sans-Serif" font-size="10.00">ImFusion::GlAxis</text>
</a>
</g>
</g>
<!-- Node16&#45;&gt;Node19 -->
<g id="edge18_Node000016_Node000019" class="edge">
<title>Node16&#45;&gt;Node19</title>
<g id="a_edge18_Node000016_Node000019"><a xlink:title=" ">
<path fill="none" stroke="#63b8ff" d="M592.81,-341.32C614.75,-362.41 654.34,-397.23 694.75,-416.62 704.24,-421.18 714.97,-424.63 725.3,-427.23"/>
<polygon fill="#63b8ff" stroke="#63b8ff" points="595.46,-339.02 585.87,-334.52 590.56,-344.02 595.46,-339.02"/>
</a>
</g>
</g>
<!-- Node20 -->
<g id="Node000020" class="node">
<title>Node20</title>
<g id="a_Node000020"><a xlink:href="class_im_fusion_1_1_gl_ball.html" target="_top" xlink:title="Ball annotation, based on GlCircle annotation (basically three circles in 3 orientations).">
<polygon fill="white" stroke="#666666" points="815.75,-407.25 727,-407.25 727,-388 815.75,-388 815.75,-407.25"/>
<text xml:space="preserve" text-anchor="middle" x="771.38" y="-393.75" font-family="Helvetica,sans-Serif" font-size="10.00">ImFusion::GlBall</text>
</a>
</g>
</g>
<!-- Node16&#45;&gt;Node20 -->
<g id="edge19_Node000016_Node000020" class="edge">
<title>Node16&#45;&gt;Node20</title>
<g id="a_edge19_Node000016_Node000020"><a xlink:title=" ">
<path fill="none" stroke="#63b8ff" d="M603.46,-338.86C627.25,-351.21 662.49,-368.36 694.75,-379.62 704.94,-383.18 716.15,-386.28 726.74,-388.85"/>
<polygon fill="#63b8ff" stroke="#63b8ff" points="605.21,-335.82 594.73,-334.26 601.95,-342.02 605.21,-335.82"/>
</a>
</g>
</g>
<!-- Node21 -->
<g id="Node000021" class="node">
<title>Node21</title>
<g id="a_Node000021"><a xlink:href="class_im_fusion_1_1_gl_curve.html" target="_top" xlink:title="Spline annotation.">
<polygon fill="white" stroke="#666666" points="820.62,-370.25 722.12,-370.25 722.12,-351 820.62,-351 820.62,-370.25"/>
<text xml:space="preserve" text-anchor="middle" x="771.38" y="-356.75" font-family="Helvetica,sans-Serif" font-size="10.00">ImFusion::GlCurve</text>
</a>
</g>
</g>
<!-- Node16&#45;&gt;Node21 -->
<g id="edge20_Node000016_Node000021" class="edge">
<title>Node16&#45;&gt;Node21</title>
<g id="a_edge20_Node000016_Node000021"><a xlink:title=" ">
<path fill="none" stroke="#63b8ff" d="M639.77,-335.86C666.51,-340.93 697,-346.71 721.8,-351.41"/>
<polygon fill="#63b8ff" stroke="#63b8ff" points="640.53,-332.44 630.06,-334.02 639.23,-339.32 640.53,-332.44"/>
</a>
</g>
</g>
<!-- Node22 -->
<g id="Node000022" class="node">
<title>Node22</title>
<g id="a_Node000022"><a xlink:href="class_im_fusion_1_1_gl_cut_line.html" target="_top" xlink:title="Cut Line annotation.">
<polygon fill="white" stroke="#666666" points="824.38,-333.25 718.38,-333.25 718.38,-314 824.38,-314 824.38,-333.25"/>
<text xml:space="preserve" text-anchor="middle" x="771.38" y="-319.75" font-family="Helvetica,sans-Serif" font-size="10.00">ImFusion::GlCutLine</text>
</a>
</g>
</g>
<!-- Node16&#45;&gt;Node22 -->
<g id="edge21_Node000016_Node000022" class="edge">
<title>Node16&#45;&gt;Node22</title>
<g id="a_edge21_Node000016_Node000022"><a xlink:title=" ">
<path fill="none" stroke="#63b8ff" d="M670.46,-323.62C686.89,-323.62 703.4,-323.62 718.13,-323.62"/>
<polygon fill="#63b8ff" stroke="#63b8ff" points="670.65,-320.13 660.65,-323.63 670.65,-327.13 670.65,-320.13"/>
</a>
</g>
</g>
<!-- Node23 -->
<g id="Node000023" class="node">
<title>Node23</title>
<g id="a_Node000023"><a xlink:href="class_im_fusion_1_1_gl_implicitly_planar_point_based_annotation.html" target="_top" xlink:title="Interface extension for point&#45;based annotations that span an area despite consisting of only 2 points...">
<polygon fill="white" stroke="#666666" points="840.88,-295.88 701.88,-295.88 701.88,-265.38 840.88,-265.38 840.88,-295.88"/>
<text xml:space="preserve" text-anchor="start" x="709.88" y="-282.38" font-family="Helvetica,sans-Serif" font-size="10.00">ImFusion::GlImplicitlyPlanar</text>
<text xml:space="preserve" text-anchor="middle" x="771.38" y="-271.12" font-family="Helvetica,sans-Serif" font-size="10.00">PointBasedAnnotation</text>
</a>
</g>
</g>
<!-- Node16&#45;&gt;Node23 -->
<g id="edge22_Node000016_Node000023" class="edge">
<title>Node16&#45;&gt;Node23</title>
<g id="a_edge22_Node000016_Node000023"><a xlink:title=" ">
<path fill="none" stroke="#63b8ff" d="M632.04,-311.11C653.79,-306.32 678.84,-300.8 701.59,-295.78"/>
<polygon fill="#63b8ff" stroke="#63b8ff" points="631.49,-307.65 622.48,-313.22 633,-314.48 631.49,-307.65"/>
</a>
</g>
</g>
<!-- Node31 -->
<g id="Node000031" class="node">
<title>Node31</title>
<g id="a_Node000031"><a xlink:href="class_im_fusion_1_1_gl_infinite_line.html" target="_top" xlink:title="Line annotation.">
<polygon fill="white" stroke="#666666" points="831.12,-247.25 711.62,-247.25 711.62,-228 831.12,-228 831.12,-247.25"/>
<text xml:space="preserve" text-anchor="middle" x="771.38" y="-233.75" font-family="Helvetica,sans-Serif" font-size="10.00">ImFusion::GlInfiniteLine</text>
</a>
</g>
</g>
<!-- Node16&#45;&gt;Node31 -->
<g id="edge30_Node000016_Node000031" class="edge">
<title>Node16&#45;&gt;Node31</title>
<g id="a_edge30_Node000016_Node000031"><a xlink:title=" ">
<path fill="none" stroke="#63b8ff" d="M599.57,-307.45C623.06,-292.44 660.1,-270.41 694.75,-256.62 703.43,-253.17 712.92,-250.2 722.16,-247.7"/>
<polygon fill="#63b8ff" stroke="#63b8ff" points="597.83,-304.4 591.34,-312.78 601.64,-310.28 597.83,-304.4"/>
</a>
</g>
</g>
<!-- Node32 -->
<g id="Node000032" class="node">
<title>Node32</title>
<g id="a_Node000032"><a xlink:href="class_im_fusion_1_1_gl_line.html" target="_top" xlink:title="Line segment annotation.">
<polygon fill="white" stroke="#666666" points="816.5,-210.25 726.25,-210.25 726.25,-191 816.5,-191 816.5,-210.25"/>
<text xml:space="preserve" text-anchor="middle" x="771.38" y="-196.75" font-family="Helvetica,sans-Serif" font-size="10.00">ImFusion::GlLine</text>
</a>
</g>
</g>
<!-- Node16&#45;&gt;Node32 -->
<g id="edge31_Node000016_Node000032" class="edge">
<title>Node16&#45;&gt;Node32</title>
<g id="a_edge31_Node000016_Node000032"><a xlink:title=" ">
<path fill="none" stroke="#63b8ff" d="M590.75,-305.33C611.83,-281.65 651.87,-240.8 694.75,-218.62 704.34,-213.67 715.32,-210.05 725.89,-207.42"/>
<polygon fill="#63b8ff" stroke="#63b8ff" points="588.32,-302.79 584.39,-312.63 593.6,-307.39 588.32,-302.79"/>
</a>
</g>
</g>
<!-- Node33 -->
<g id="Node000033" class="node">
<title>Node33</title>
<g id="a_Node000033"><a xlink:href="class_im_fusion_1_1_gl_point.html" target="_top" xlink:title="Point annotation.">
<polygon fill="white" stroke="#666666" points="818.75,-173.25 724,-173.25 724,-154 818.75,-154 818.75,-173.25"/>
<text xml:space="preserve" text-anchor="middle" x="771.38" y="-159.75" font-family="Helvetica,sans-Serif" font-size="10.00">ImFusion::GlPoint</text>
</a>
</g>
</g>
<!-- Node16&#45;&gt;Node33 -->
<g id="edge32_Node000016_Node000033" class="edge">
<title>Node16&#45;&gt;Node33</title>
<g id="a_edge32_Node000016_Node000033"><a xlink:title=" ">
<path fill="none" stroke="#63b8ff" d="M585.97,-304.22C604.13,-273.24 643.96,-212.93 694.75,-181.62 703.48,-176.24 713.69,-172.47 723.74,-169.82"/>
<polygon fill="#63b8ff" stroke="#63b8ff" points="583.14,-302.12 581.22,-312.54 589.21,-305.59 583.14,-302.12"/>
</a>
</g>
</g>
<!-- Node36 -->
<g id="Node000036" class="node">
<title>Node36</title>
<g id="a_Node000036"><a xlink:href="class_im_fusion_1_1_gl_poly_line.html" target="_top" xlink:title="Line annotation.">
<polygon fill="white" stroke="#666666" points="826.25,-133.25 716.5,-133.25 716.5,-114 826.25,-114 826.25,-133.25"/>
<text xml:space="preserve" text-anchor="middle" x="771.38" y="-119.75" font-family="Helvetica,sans-Serif" font-size="10.00">ImFusion::GlPolyLine</text>
</a>
</g>
</g>
<!-- Node16&#45;&gt;Node36 -->
<g id="edge35_Node000016_Node000036" class="edge">
<title>Node16&#45;&gt;Node36</title>
<g id="a_edge35_Node000016_Node000036"><a xlink:title=" ">
<path fill="none" stroke="#63b8ff" d="M583.2,-303.13C598.75,-265.76 636.85,-186.53 694.75,-144.62 701.15,-139.99 708.54,-136.38 716.13,-133.56"/>
<polygon fill="#63b8ff" stroke="#63b8ff" points="580,-301.71 579.51,-312.29 586.49,-304.32 580,-301.71"/>
</a>
</g>
</g>
<!-- Node38 -->
<g id="Node000038" class="node">
<title>Node38</title>
<g id="a_Node000038"><a xlink:href="class_im_fusion_1_1_gl_spline.html" target="_top" xlink:title="Spline annotation.">
<polygon fill="white" stroke="#666666" points="821,-78.25 721.75,-78.25 721.75,-59 821,-59 821,-78.25"/>
<text xml:space="preserve" text-anchor="middle" x="771.38" y="-64.75" font-family="Helvetica,sans-Serif" font-size="10.00">ImFusion::GlSpline</text>
</a>
</g>
</g>
<!-- Node16&#45;&gt;Node38 -->
<g id="edge37_Node000016_Node000038" class="edge">
<title>Node16&#45;&gt;Node38</title>
<g id="a_edge37_Node000016_Node000038"><a xlink:title=" ">
<path fill="none" stroke="#63b8ff" d="M581.58,-303.17C595.57,-260.94 632.9,-163.15 694.75,-104.62 707,-93.03 723.68,-84.55 738.25,-78.75"/>
<polygon fill="#63b8ff" stroke="#63b8ff" points="578.3,-301.93 578.58,-312.52 584.96,-304.07 578.3,-301.93"/>
</a>
</g>
</g>
<!-- Node24 -->
<g id="Node000024" class="node">
<title>Node24</title>
<g id="a_Node000024"><a xlink:href="class_im_fusion_1_1_gl_circle.html" target="_top" xlink:title="Circle annotation.">
<polygon fill="white" stroke="#666666" points="1017.38,-364.25 919.62,-364.25 919.62,-345 1017.38,-345 1017.38,-364.25"/>
<text xml:space="preserve" text-anchor="middle" x="968.5" y="-350.75" font-family="Helvetica,sans-Serif" font-size="10.00">ImFusion::GlCircle</text>
</a>
</g>
</g>
<!-- Node23&#45;&gt;Node24 -->
<g id="edge23_Node000023_Node000024" class="edge">
<title>Node23&#45;&gt;Node24</title>
<g id="a_edge23_Node000023_Node000024"><a xlink:title=" ">
<path fill="none" stroke="#63b8ff" d="M840.81,-300.85C843.27,-302.04 845.68,-303.3 848,-304.62 866.61,-315.21 864.91,-326.94 884,-336.62 894.84,-342.13 907.31,-345.95 919.24,-348.61"/>
<polygon fill="#63b8ff" stroke="#63b8ff" points="842.38,-297.71 831.82,-296.87 839.55,-304.12 842.38,-297.71"/>
</a>
</g>
</g>
<!-- Node26 -->
<g id="Node000026" class="node">
<title>Node26</title>
<g id="a_Node000026"><a xlink:href="class_im_fusion_1_1_gl_ellipse.html" target="_top" xlink:title="Ellipse annotation.">
<polygon fill="white" stroke="#666666" points="1019.25,-327.25 917.75,-327.25 917.75,-308 1019.25,-308 1019.25,-327.25"/>
<text xml:space="preserve" text-anchor="middle" x="968.5" y="-313.75" font-family="Helvetica,sans-Serif" font-size="10.00">ImFusion::GlEllipse</text>
</a>
</g>
</g>
<!-- Node23&#45;&gt;Node26 -->
<g id="edge25_Node000023_Node000026" class="edge">
<title>Node23&#45;&gt;Node26</title>
<g id="a_edge25_Node000023_Node000026"><a xlink:title=" ">
<path fill="none" stroke="#63b8ff" d="M852.22,-295.76C874.27,-299.95 897.57,-304.36 917.41,-308.13"/>
<polygon fill="#63b8ff" stroke="#63b8ff" points="853.13,-292.38 842.66,-293.95 851.83,-299.25 853.13,-292.38"/>
</a>
</g>
</g>
<!-- Node28 -->
<g id="Node000028" class="node">
<title>Node28</title>
<g id="a_Node000028"><a xlink:href="class_im_fusion_1_1_gl_loop.html" target="_top" xlink:title="Loop annotation.">
<polygon fill="white" stroke="#666666" points="1015.12,-290.25 921.88,-290.25 921.88,-271 1015.12,-271 1015.12,-290.25"/>
<text xml:space="preserve" text-anchor="middle" x="968.5" y="-276.75" font-family="Helvetica,sans-Serif" font-size="10.00">ImFusion::GlLoop</text>
</a>
</g>
</g>
<!-- Node23&#45;&gt;Node28 -->
<g id="edge27_Node000023_Node000028" class="edge">
<title>Node23&#45;&gt;Node28</title>
<g id="a_edge27_Node000023_Node000028"><a xlink:title=" ">
<path fill="none" stroke="#63b8ff" d="M852.58,-280.62C876.1,-280.62 901.01,-280.62 921.61,-280.62"/>
<polygon fill="#63b8ff" stroke="#63b8ff" points="852.68,-277.13 842.68,-280.63 852.68,-284.13 852.68,-277.13"/>
</a>
</g>
</g>
<!-- Node29 -->
<g id="Node000029" class="node">
<title>Node29</title>
<g id="a_Node000029"><a xlink:href="class_im_fusion_1_1_gl_parallelogram.html" target="_top" xlink:title="Parallelogram annotation.">
<polygon fill="white" stroke="#666666" points="1034.25,-253.25 902.75,-253.25 902.75,-234 1034.25,-234 1034.25,-253.25"/>
<text xml:space="preserve" text-anchor="middle" x="968.5" y="-239.75" font-family="Helvetica,sans-Serif" font-size="10.00">ImFusion::GlParallelogram</text>
</a>
</g>
</g>
<!-- Node23&#45;&gt;Node29 -->
<g id="edge28_Node000023_Node000029" class="edge">
<title>Node23&#45;&gt;Node29</title>
<g id="a_edge28_Node000023_Node000029"><a xlink:title=" ">
<path fill="none" stroke="#63b8ff" d="M852.31,-265.47C873.2,-261.51 895.22,-257.33 914.34,-253.7"/>
<polygon fill="#63b8ff" stroke="#63b8ff" points="851.83,-262 842.66,-267.3 853.13,-268.87 851.83,-262"/>
</a>
</g>
</g>
<!-- Node25 -->
<g id="Node000025" class="node">
<title>Node25</title>
<g id="a_Node000025"><a xlink:href="class_im_fusion_1_1_gl_curved_view_circle.html" target="_top" xlink:title="Circle annotation for curved views.">
<polygon fill="white" stroke="#666666" points="1241.88,-364.25 1090.88,-364.25 1090.88,-345 1241.88,-345 1241.88,-364.25"/>
<text xml:space="preserve" text-anchor="middle" x="1166.38" y="-350.75" font-family="Helvetica,sans-Serif" font-size="10.00">ImFusion::GlCurvedViewCircle</text>
</a>
</g>
</g>
<!-- Node24&#45;&gt;Node25 -->
<g id="edge24_Node000024_Node000025" class="edge">
<title>Node24&#45;&gt;Node25</title>
<g id="a_edge24_Node000024_Node000025"><a xlink:title=" ">
<path fill="none" stroke="#63b8ff" d="M1029.09,-354.62C1048.5,-354.62 1070.28,-354.62 1090.65,-354.62"/>
<polygon fill="#63b8ff" stroke="#63b8ff" points="1029.18,-351.13 1019.18,-354.63 1029.18,-358.13 1029.18,-351.13"/>
</a>
</g>
</g>
<!-- Node27 -->
<g id="Node000027" class="node">
<title>Node27</title>
<g id="a_Node000027"><a xlink:href="class_im_fusion_1_1_gl_curved_view_ellipse.html" target="_top" xlink:title="Ellipse annotation for curved views.">
<polygon fill="white" stroke="#666666" points="1243.75,-327.25 1089,-327.25 1089,-308 1243.75,-308 1243.75,-327.25"/>
<text xml:space="preserve" text-anchor="middle" x="1166.38" y="-313.75" font-family="Helvetica,sans-Serif" font-size="10.00">ImFusion::GlCurvedViewEllipse</text>
</a>
</g>
</g>
<!-- Node26&#45;&gt;Node27 -->
<g id="edge26_Node000026_Node000027" class="edge">
<title>Node26&#45;&gt;Node27</title>
<g id="a_edge26_Node000026_Node000027"><a xlink:title=" ">
<path fill="none" stroke="#63b8ff" d="M1031.07,-317.62C1049.34,-317.62 1069.57,-317.62 1088.67,-317.62"/>
<polygon fill="#63b8ff" stroke="#63b8ff" points="1031.2,-314.13 1021.2,-317.63 1031.2,-321.13 1031.2,-314.13"/>
</a>
</g>
</g>
<!-- Node30 -->
<g id="Node000030" class="node">
<title>Node30</title>
<g id="a_Node000030"><a xlink:href="class_im_fusion_1_1_gl_rectangle.html" target="_top" xlink:title="Rectangle annotation.">
<polygon fill="white" stroke="#666666" points="1224.62,-253.25 1108.12,-253.25 1108.12,-234 1224.62,-234 1224.62,-253.25"/>
<text xml:space="preserve" text-anchor="middle" x="1166.38" y="-239.75" font-family="Helvetica,sans-Serif" font-size="10.00">ImFusion::GlRectangle</text>
</a>
</g>
</g>
<!-- Node29&#45;&gt;Node30 -->
<g id="edge29_Node000029_Node000030" class="edge">
<title>Node29&#45;&gt;Node30</title>
<g id="a_edge29_Node000029_Node000030"><a xlink:title=" ">
<path fill="none" stroke="#63b8ff" d="M1045.97,-243.62C1066.5,-243.62 1088.35,-243.62 1107.67,-243.62"/>
<polygon fill="#63b8ff" stroke="#63b8ff" points="1046.24,-240.13 1036.24,-243.63 1046.24,-247.13 1046.24,-240.13"/>
</a>
</g>
</g>
<!-- Node34 -->
<g id="Node000034" class="node">
<title>Node34</title>
<g id="a_Node000034"><a xlink:href="class_im_fusion_1_1_mesh_picking_manipulator.html" target="_top" xlink:title="Mesh picking manipulator The MeshPickingManipulator can return the list of selected vertices/faces/ed...">
<polygon fill="white" stroke="#666666" points="1053,-216.25 884,-216.25 884,-197 1053,-197 1053,-216.25"/>
<text xml:space="preserve" text-anchor="middle" x="968.5" y="-202.75" font-family="Helvetica,sans-Serif" font-size="10.00">ImFusion::MeshPickingManipulator</text>
</a>
</g>
</g>
<!-- Node33&#45;&gt;Node34 -->
<g id="edge33_Node000033_Node000034" class="edge">
<title>Node33&#45;&gt;Node34</title>
<g id="a_edge33_Node000033_Node000034"><a xlink:title=" ">
<path fill="none" stroke="#63b8ff" d="M829.08,-176.12C858.52,-182.61 894.02,-190.43 921.7,-196.53"/>
<polygon fill="#63b8ff" stroke="#63b8ff" points="830.12,-172.77 819.6,-174.03 828.61,-179.6 830.12,-172.77"/>
</a>
</g>
</g>
<!-- Node35 -->
<g id="Node000035" class="node">
<title>Node35</title>
<g id="a_Node000035"><a xlink:href="class_im_fusion_1_1_point_cloud_picking_manipulator.html" target="_top" xlink:title="Point cloud picking manipulator The PointCloudPickingManipulator can return the list of selected vert...">
<polygon fill="white" stroke="#666666" points="1039.88,-178.88 897.12,-178.88 897.12,-148.38 1039.88,-148.38 1039.88,-178.88"/>
<text xml:space="preserve" text-anchor="start" x="905.12" y="-165.38" font-family="Helvetica,sans-Serif" font-size="10.00">ImFusion::PointCloudPicking</text>
<text xml:space="preserve" text-anchor="middle" x="968.5" y="-154.12" font-family="Helvetica,sans-Serif" font-size="10.00">Manipulator</text>
</a>
</g>
</g>
<!-- Node33&#45;&gt;Node35 -->
<g id="edge34_Node000033_Node000035" class="edge">
<title>Node33&#45;&gt;Node35</title>
<g id="a_edge34_Node000033_Node000035"><a xlink:title=" ">
<path fill="none" stroke="#63b8ff" d="M830.36,-163.62C851.2,-163.62 874.93,-163.62 896.73,-163.62"/>
<polygon fill="#63b8ff" stroke="#63b8ff" points="830.63,-160.13 820.63,-163.63 830.63,-167.13 830.63,-160.13"/>
</a>
</g>
</g>
<!-- Node37 -->
<g id="Node000037" class="node">
<title>Node37</title>
<g id="a_Node000037"><a xlink:href="class_im_fusion_1_1_gl_curved_view_poly_line.html" target="_top" xlink:title="Polyline annotation for curved views.">
<polygon fill="white" stroke="#666666" points="1050,-130.25 887,-130.25 887,-111 1050,-111 1050,-130.25"/>
<text xml:space="preserve" text-anchor="middle" x="968.5" y="-116.75" font-family="Helvetica,sans-Serif" font-size="10.00">ImFusion::GlCurvedViewPolyLine</text>
</a>
</g>
</g>
<!-- Node36&#45;&gt;Node37 -->
<g id="edge36_Node000036_Node000037" class="edge">
<title>Node36&#45;&gt;Node37</title>
<g id="a_edge36_Node000036_Node000037"><a xlink:title=" ">
<path fill="none" stroke="#63b8ff" d="M837.9,-122.62C853.59,-122.38 870.52,-122.12 886.8,-121.87"/>
<polygon fill="#63b8ff" stroke="#63b8ff" points="838.19,-119.11 828.24,-122.77 838.29,-126.11 838.19,-119.11"/>
</a>
</g>
</g>
<!-- Node39 -->
<g id="Node000039" class="node">
<title>Node39</title>
<g id="a_Node000039"><a xlink:href="class_im_fusion_1_1_gl_curved_view_spline.html" target="_top" xlink:title="Spline annotation for curved views.">
<polygon fill="white" stroke="#666666" points="1044.75,-93.25 892.25,-93.25 892.25,-74 1044.75,-74 1044.75,-93.25"/>
<text xml:space="preserve" text-anchor="middle" x="968.5" y="-79.75" font-family="Helvetica,sans-Serif" font-size="10.00">ImFusion::GlCurvedViewSpline</text>
</a>
</g>
</g>
<!-- Node38&#45;&gt;Node39 -->
<g id="edge38_Node000038_Node000039" class="edge">
<title>Node38&#45;&gt;Node39</title>
<g id="a_edge38_Node000038_Node000039"><a xlink:title=" ">
<path fill="none" stroke="#63b8ff" d="M832.7,-73.26C851.41,-74.7 872.27,-76.3 891.87,-77.81"/>
<polygon fill="#63b8ff" stroke="#63b8ff" points="833.11,-69.78 822.87,-72.51 832.57,-76.76 833.11,-69.78"/>
</a>
</g>
</g>
<!-- Node40 -->
<g id="Node000040" class="node">
<title>Node40</title>
<g id="a_Node000040"><a xlink:href="class_im_fusion_1_1_gl_freeform.html" target="_top" xlink:title="Freeform annotation. Draw whatever you want.">
<polygon fill="white" stroke="#666666" points="1024.12,-56.25 912.88,-56.25 912.88,-37 1024.12,-37 1024.12,-56.25"/>
<text xml:space="preserve" text-anchor="middle" x="968.5" y="-42.75" font-family="Helvetica,sans-Serif" font-size="10.00">ImFusion::GlFreeform</text>
</a>
</g>
</g>
<!-- Node38&#45;&gt;Node40 -->
<g id="edge39_Node000038_Node000040" class="edge">
<title>Node38&#45;&gt;Node40</title>
<g id="a_edge39_Node000038_Node000040"><a xlink:title=" ">
<path fill="none" stroke="#63b8ff" d="M832.77,-61.82C858.27,-58.94 887.76,-55.62 912.64,-52.81"/>
<polygon fill="#63b8ff" stroke="#63b8ff" points="832.41,-58.33 822.87,-62.93 833.19,-65.29 832.41,-58.33"/>
</a>
</g>
</g>
<!-- Node41 -->
<g id="Node000041" class="node">
<title>Node41</title>
<g id="a_Node000041"><a xlink:href="class_im_fusion_1_1_gl_smart_spline.html" target="_top" xlink:title="Intelligent spline annotation.">
<polygon fill="white" stroke="#666666" points="1031.25,-19.25 905.75,-19.25 905.75,0 1031.25,0 1031.25,-19.25"/>
<text xml:space="preserve" text-anchor="middle" x="968.5" y="-5.75" font-family="Helvetica,sans-Serif" font-size="10.00">ImFusion::GlSmartSpline</text>
</a>
</g>
</g>
<!-- Node38&#45;&gt;Node41 -->
<g id="edge40_Node000038_Node000041" class="edge">
<title>Node38&#45;&gt;Node41</title>
<g id="a_edge40_Node000038_Node000041"><a xlink:title=" ">
<path fill="none" stroke="#63b8ff" d="M807.58,-54.26C829.34,-45.74 858,-35.16 884,-27.62 893.97,-24.73 904.73,-22.08 915.1,-19.75"/>
<polygon fill="#63b8ff" stroke="#63b8ff" points="806.29,-51.01 798.28,-57.94 808.87,-57.51 806.29,-51.01"/>
</a>
</g>
</g>
</g>
</svg>
