<?xml version="1.0" encoding="UTF-8" standalone="no"?>
<!DOCTYPE svg PUBLIC "-//W3C//DTD SVG 1.1//EN"
 "http://www.w3.org/Graphics/SVG/1.1/DTD/svg11.dtd">
<!-- Generated by graphviz version 14.1.4 (20260321.0153)
 -->
<!-- Title: ImFusion::Tree Pages: 1 -->
<!--zoomable 125 -->

<svg id="main" version="1.1" xmlns="http://www.w3.org/2000/svg" xmlns:xlink="http://www.w3.org/1999/xlink" xml:space="preserve" onload="init(evt)">

<style type="text/css"><![CDATA[
.node, .edge {opacity: 0.7;}
.node.selected, .edge.selected {opacity: 1;}
.edge:hover path { stroke: red; }
.edge:hover polygon { stroke: red; fill: red; }
]]></style>

<defs>
  <circle id="rim" cx="0" cy="0" r="7"/>
  <circle id="rim2" cx="0" cy="0" r="3.5"/>
  <g id="zoomPlus">
    <use xlink:href="#rim" fill="#404040"><set attributeName="fill" to="#808080" begin="zoomplus.mouseover" end="zoomplus.mouseout"/></use>
    <path d="M-4,0h8M0,-4v8" fill="none" stroke="white" stroke-width="1.5" pointer-events="none"/>
  </g>
  <g id="zoomMin">
    <use xlink:href="#rim" fill="#404040"><set attributeName="fill" to="#808080" begin="zoomminus.mouseover" end="zoomminus.mouseout"/></use>
    <path d="M-4,0h8" fill="none" stroke="white" stroke-width="1.5" pointer-events="none"/>
  </g>
  <g id="arrowUp" transform="translate(30 24)">
    <use xlink:href="#rim"/>
    <path pointer-events="none" fill="none" stroke="white" stroke-width="1.5" d="M0,-3.0v7 M-2.5,-0.5L0,-3.0L2.5,-0.5"/>
  </g>
  <g id="arrowRight" transform="rotate(90) translate(36 -43)">
    <use xlink:href="#rim"/>
    <path pointer-events="none" fill="none" stroke="white" stroke-width="1.5" d="M0,-3.0v7 M-2.5,-0.5L0,-3.0L2.5,-0.5"/>
  </g>
  <g id="arrowDown" transform="rotate(180) translate(-30 -48)">
    <use xlink:href="#rim"/>
    <path pointer-events="none" fill="none" stroke="white" stroke-width="1.5" d="M0,-3.0v7 M-2.5,-0.5L0,-3.0L2.5,-0.5"/>
  </g>
  <g id="arrowLeft" transform="rotate(270) translate(-36 17)">
    <use xlink:href="#rim"/>
    <path pointer-events="none" fill="none" stroke="white" stroke-width="1.5" d="M0,-3.0v7 M-2.5,-0.5L0,-3.0L2.5,-0.5"/>
  </g>
  <g id="resetDef">
    <use xlink:href="#rim2" fill="#404040"><set attributeName="fill" to="#808080" begin="reset.mouseover" end="reset.mouseout"/></use>
  </g>
</defs>
<script type="application/ecmascript">
var viewWidth = 563;
var viewHeight = 125;
var sectionId = 'dynsection-0';
</script>
<script type="application/ecmascript" xlink:href="svg.min.js"/>
<svg id="graph" class="graph">
<g id="viewport">
<title>ImFusion::Tree</title>
<!-- Node1 -->
<g id="Node000001" class="node">
<title>Node1</title>
<g id="a_Node000001"><a xlink:title="Data structure for trees.">
<polygon fill="#999999" stroke="#666666" points="235.25,-62.25 153.25,-62.25 153.25,-43 235.25,-43 235.25,-62.25"/>
<text xml:space="preserve" text-anchor="middle" x="194.25" y="-48.75" font-family="Helvetica,sans-Serif" font-size="10.00">ImFusion::Tree</text>
</a>
</g>
</g>
<!-- Node4 -->
<g id="Node000004" class="node">
<title>Node4</title>
<g id="a_Node000004"><a xlink:href="class_im_fusion_1_1_typed_tree.html" target="_top" xlink:title=" ">
<polygon fill="white" stroke="#666666" points="391.88,-116.88 282.88,-116.88 282.88,-86.38 391.88,-86.38 391.88,-116.88"/>
<text xml:space="preserve" text-anchor="start" x="290.88" y="-103.38" font-family="Helvetica,sans-Serif" font-size="10.00">ImFusion::TypedTree</text>
<text xml:space="preserve" text-anchor="middle" x="337.38" y="-92.12" font-family="Helvetica,sans-Serif" font-size="10.00">&lt; std::vector&lt; int &gt; &gt;</text>
</a>
</g>
</g>
<!-- Node1&#45;&gt;Node4 -->
<g id="edge3_Node000001_Node000004" class="edge">
<title>Node1&#45;&gt;Node4</title>
<g id="a_edge3_Node000001_Node000004"><a xlink:title=" ">
<path fill="none" stroke="#63b8ff" d="M234.61,-66.29C252.16,-72.38 272.93,-79.6 291.12,-85.91"/>
<polygon fill="#63b8ff" stroke="#63b8ff" points="236.17,-63.13 225.58,-63.16 233.88,-69.74 236.17,-63.13"/>
</a>
</g>
</g>
<!-- Node6 -->
<g id="Node000006" class="node">
<title>Node6</title>
<g id="a_Node000006"><a xlink:href="class_im_fusion_1_1_typed_tree.html" target="_top" xlink:title=" ">
<polygon fill="white" stroke="#666666" points="391.5,-67.88 283.25,-67.88 283.25,-37.38 391.5,-37.38 391.5,-67.88"/>
<text xml:space="preserve" text-anchor="start" x="291.25" y="-54.38" font-family="Helvetica,sans-Serif" font-size="10.00">ImFusion::TypedTree</text>
<text xml:space="preserve" text-anchor="middle" x="337.38" y="-43.12" font-family="Helvetica,sans-Serif" font-size="10.00">&lt; vec3 &gt;</text>
</a>
</g>
</g>
<!-- Node1&#45;&gt;Node6 -->
<g id="edge5_Node000001_Node000006" class="edge">
<title>Node1&#45;&gt;Node6</title>
<g id="a_edge5_Node000001_Node000006"><a xlink:title=" ">
<path fill="none" stroke="#63b8ff" d="M247.04,-52.62C258.68,-52.62 271.05,-52.62 282.77,-52.62"/>
<polygon fill="#63b8ff" stroke="#63b8ff" points="247.2,-49.13 237.2,-52.63 247.2,-56.13 247.2,-49.13"/>
</a>
</g>
</g>
<!-- Node8 -->
<g id="Node000008" class="node">
<title>Node8</title>
<g id="a_Node000008"><a xlink:href="class_im_fusion_1_1_typed_tree.html" target="_top" xlink:title="Data structure for typed trees.">
<polygon fill="white" stroke="#666666" points="403.5,-19.25 271.25,-19.25 271.25,0 403.5,0 403.5,-19.25"/>
<text xml:space="preserve" text-anchor="middle" x="337.38" y="-5.75" font-family="Helvetica,sans-Serif" font-size="10.00">ImFusion::TypedTree&lt; T &gt;</text>
</a>
</g>
</g>
<!-- Node1&#45;&gt;Node8 -->
<g id="edge7_Node000001_Node000008" class="edge">
<title>Node1&#45;&gt;Node8</title>
<g id="a_edge7_Node000001_Node000008"><a xlink:title=" ">
<path fill="none" stroke="#63b8ff" d="M237.31,-39.16C248.34,-35.68 260.23,-31.97 271.25,-28.62 280.94,-25.68 291.47,-22.57 301.18,-19.74"/>
<polygon fill="#63b8ff" stroke="#63b8ff" points="236.55,-35.73 228.07,-42.09 238.66,-42.4 236.55,-35.73"/>
</a>
</g>
</g>
<!-- Node2 -->
<g id="Node000002" class="node">
<title>Node2</title>
<g id="a_Node000002"><a xlink:href="class_im_fusion_1_1_data.html" target="_top" xlink:title="Virtual base class for representing data from which all concrete data class such as images need to de...">
<polygon fill="white" stroke="#666666" points="100.38,-81.25 16.88,-81.25 16.88,-62 100.38,-62 100.38,-81.25"/>
<text xml:space="preserve" text-anchor="middle" x="58.62" y="-67.75" font-family="Helvetica,sans-Serif" font-size="10.00">ImFusion::Data</text>
</a>
</g>
</g>
<!-- Node2&#45;&gt;Node1 -->
<g id="edge1_Node000001_Node000002" class="edge">
<title>Node2&#45;&gt;Node1</title>
<g id="a_edge1_Node000001_Node000002"><a xlink:title=" ">
<path fill="none" stroke="#63b8ff" d="M111.98,-64.18C125.58,-62.25 140.02,-60.19 152.89,-58.36"/>
<polygon fill="#63b8ff" stroke="#63b8ff" points="111.71,-60.68 102.31,-65.56 112.7,-67.61 111.71,-60.68"/>
</a>
</g>
</g>
<!-- Node3 -->
<g id="Node000003" class="node">
<title>Node3</title>
<g id="a_Node000003"><a xlink:href="class_im_fusion_1_1_configurable.html" target="_top" xlink:title="Base interface for classes that support object serialization from/to Properties objects.">
<polygon fill="white" stroke="#666666" points="117.25,-44.25 0,-44.25 0,-25 117.25,-25 117.25,-44.25"/>
<text xml:space="preserve" text-anchor="middle" x="58.62" y="-30.75" font-family="Helvetica,sans-Serif" font-size="10.00">ImFusion::Configurable</text>
</a>
</g>
</g>
<!-- Node3&#45;&gt;Node1 -->
<g id="edge2_Node000001_Node000003" class="edge">
<title>Node3&#45;&gt;Node1</title>
<g id="a_edge2_Node000001_Node000003"><a xlink:title=" ">
<path fill="none" stroke="#63b8ff" d="M128.77,-43.94C137.07,-45.06 145.33,-46.17 153.03,-47.21"/>
<polygon fill="#63b8ff" stroke="#63b8ff" points="129.34,-40.48 118.96,-42.62 128.4,-47.42 129.34,-40.48"/>
</a>
</g>
</g>
<!-- Node5 -->
<g id="Node000005" class="node">
<title>Node5</title>
<g id="a_Node000005"><a xlink:href="class_im_fusion_1_1_mesh_octree.html" target="_top" xlink:title="Class representing a mesh octree. Faces of the mesh are split between the nodes of the tree,...">
<polygon fill="white" stroke="#666666" points="555.25,-111.25 439.5,-111.25 439.5,-92 555.25,-92 555.25,-111.25"/>
<text xml:space="preserve" text-anchor="middle" x="497.38" y="-97.75" font-family="Helvetica,sans-Serif" font-size="10.00">ImFusion::MeshOctree</text>
</a>
</g>
</g>
<!-- Node4&#45;&gt;Node5 -->
<g id="edge4_Node000004_Node000005" class="edge">
<title>Node4&#45;&gt;Node5</title>
<g id="a_edge4_Node000004_Node000005"><a xlink:title=" ">
<path fill="none" stroke="#63b8ff" d="M403.49,-101.62C415.33,-101.62 427.59,-101.62 439.18,-101.62"/>
<polygon fill="#63b8ff" stroke="#63b8ff" points="403.82,-98.13 393.82,-101.63 403.82,-105.13 403.82,-98.13"/>
</a>
</g>
</g>
<!-- Node7 -->
<g id="Node000007" class="node">
<title>Node7</title>
<g id="a_Node000007"><a xlink:href="class_im_fusion_1_1_point_tree.html" target="_top" xlink:title="Data structure for trees with nodes containing a 3D point.">
<polygon fill="white" stroke="#666666" points="549.62,-62.25 445.12,-62.25 445.12,-43 549.62,-43 549.62,-62.25"/>
<text xml:space="preserve" text-anchor="middle" x="497.38" y="-48.75" font-family="Helvetica,sans-Serif" font-size="10.00">ImFusion::PointTree</text>
</a>
</g>
</g>
<!-- Node6&#45;&gt;Node7 -->
<g id="edge6_Node000006_Node000007" class="edge">
<title>Node6&#45;&gt;Node7</title>
<g id="a_edge6_Node000006_Node000007"><a xlink:title=" ">
<path fill="none" stroke="#63b8ff" d="M403.31,-52.62C417.14,-52.62 431.56,-52.62 444.81,-52.62"/>
<polygon fill="#63b8ff" stroke="#63b8ff" points="403.38,-49.13 393.38,-52.63 403.38,-56.13 403.38,-49.13"/>
</a>
</g>
</g>
</g>
</svg>

<g id="navigator" transform="translate(0 0)" fill="#404254">
  <rect fill="#f2f5e9" fill-opacity="0.5" stroke="#606060" stroke-width=".5" x="0" y="0" width="60" height="60"/>
  <use id="zoomplus" xlink:href="#zoomPlus" x="17" y="9" onmousedown="handleZoom(evt,'in')"/>
  <use id="zoomminus" xlink:href="#zoomMin" x="42" y="9" onmousedown="handleZoom(evt,'out')"/>
  <use id="reset" xlink:href="#resetDef" x="30" y="36" onmousedown="handleReset()"/>
   <use id="arrowup" xlink:href="#arrowUp" x="0" y="0" onmousedown="handlePan(0,-1)"/>
  <use id="arrowright" xlink:href="#arrowRight" x="0" y="0" onmousedown="handlePan(1,0)"/>
  <use id="arrowdown" xlink:href="#arrowDown" x="0" y="0" onmousedown="handlePan(0,1)"/>
  <use id="arrowleft" xlink:href="#arrowLeft" x="0" y="0" onmousedown="handlePan(-1,0)"/>
</g>
<svg viewBox="0 0 15 15" width="100%" height="30px" preserveAspectRatio="xMaxYMin meet">
 <g id="arrow_out" transform="scale(0.3 0.3)">
  <a xlink:href="class_im_fusion_1_1_tree__inherit__graph_org.svg" target="_base">
   <rect id="button" ry="5" rx="5" y="6" x="6" height="38" width="38"
        fill="#f2f5e9" fill-opacity="0.5" stroke="#606060" stroke-width="1.0"/>
   <path id="arrow"
     d="M 11.500037,31.436501 C 11.940474,20.09759 22.043105,11.32322 32.158766,21.979434 L 37.068811,17.246167 C 37.068811,17.246167 37.088388,32 37.088388,32 L 22.160133,31.978069 C 22.160133,31.978069 26.997745,27.140456 26.997745,27.140456 C 18.528582,18.264221 13.291696,25.230495 11.500037,31.436501 z"
     style="fill:#404040;"/>
  </a>
 </g>
</svg>

<style type='text/css'>
<![CDATA[
[data-mouse-over-selected='false'] { opacity: 0.7; }
[data-mouse-over-selected='true']  { opacity: 1.0; }
]]>
</style>
<script type="application/ecmascript"><![CDATA[
document.addEventListener('DOMContentLoaded', (event) => {
  highlightEdges();
  highlightAdjacentNodes();
});
]]></script>
</svg>
