<?xml version="1.0" encoding="UTF-8" standalone="no"?>
<!DOCTYPE svg PUBLIC "-//W3C//DTD SVG 1.1//EN"
 "http://www.w3.org/Graphics/SVG/1.1/DTD/svg11.dtd">
<!-- Generated by graphviz version 14.1.4 (20260321.0153)
 -->
<!-- Title: ImFusion::PointNode Pages: 1 -->
<svg width="290pt" height="204pt"
 viewBox="0.00 0.00 290.00 204.00" xmlns="http://www.w3.org/2000/svg" xmlns:xlink="http://www.w3.org/1999/xlink">
<g id="graph0" class="graph" transform="scale(1 1) rotate(0) translate(4 200.25)">
<title>ImFusion::PointNode</title>
<!-- Node1 -->
<g id="Node000001" class="node">
<title>Node1</title>
<g id="a_Node000001"><a xlink:title="Class representing a tree point node.">
<polygon fill="#999999" stroke="#666666" points="187.75,-19.25 79.5,-19.25 79.5,0 187.75,0 187.75,-19.25"/>
<text xml:space="preserve" text-anchor="middle" x="133.62" y="-5.75" font-family="Helvetica,sans-Serif" font-size="10.00">ImFusion::PointNode</text>
</a>
</g>
</g>
<!-- Node2 -->
<g id="Node000002" class="node">
<title>Node2</title>
<g id="a_Node000002"><a xlink:href="class_im_fusion_1_1_typed_node.html" target="_top" xlink:title=" ">
<polygon fill="white" stroke="#666666" points="189.62,-85.75 77.62,-85.75 77.62,-55.25 189.62,-55.25 189.62,-85.75"/>
<text xml:space="preserve" text-anchor="start" x="85.62" y="-72.25" font-family="Helvetica,sans-Serif" font-size="10.00">ImFusion::TypedNode</text>
<text xml:space="preserve" text-anchor="middle" x="133.62" y="-61" font-family="Helvetica,sans-Serif" font-size="10.00">&lt; vec3 &gt;</text>
</a>
</g>
</g>
<!-- Node2&#45;&gt;Node1 -->
<g id="edge1_Node000001_Node000002" class="edge">
<title>Node2&#45;&gt;Node1</title>
<g id="a_edge1_Node000001_Node000002"><a xlink:title=" ">
<path fill="none" stroke="#63b8ff" d="M133.62,-43.48C133.62,-34.98 133.62,-26.09 133.62,-19.7"/>
<polygon fill="#63b8ff" stroke="#63b8ff" points="130.13,-43.43 133.63,-53.43 137.13,-43.43 130.13,-43.43"/>
</a>
</g>
</g>
<!-- Node3 -->
<g id="Node000003" class="node">
<title>Node3</title>
<g id="a_Node000003"><a xlink:href="class_im_fusion_1_1_node.html" target="_top" xlink:title="Class representing a tree node.">
<polygon fill="white" stroke="#666666" points="176.5,-141 90.75,-141 90.75,-121.75 176.5,-121.75 176.5,-141"/>
<text xml:space="preserve" text-anchor="middle" x="133.62" y="-127.5" font-family="Helvetica,sans-Serif" font-size="10.00">ImFusion::Node</text>
</a>
</g>
</g>
<!-- Node3&#45;&gt;Node2 -->
<g id="edge2_Node000002_Node000003" class="edge">
<title>Node3&#45;&gt;Node2</title>
<g id="a_edge2_Node000002_Node000003"><a xlink:title=" ">
<path fill="none" stroke="#63b8ff" d="M133.62,-110.17C133.62,-102.24 133.62,-93.31 133.62,-86.03"/>
<polygon fill="#63b8ff" stroke="#63b8ff" points="130.13,-109.92 133.63,-119.92 137.13,-109.92 130.13,-109.92"/>
</a>
</g>
</g>
<!-- Node4 -->
<g id="Node000004" class="node">
<title>Node4</title>
<g id="a_Node000004"><a xlink:href="class_im_fusion_1_1_configurable.html" target="_top" xlink:title="Base interface for classes that support object serialization from/to Properties objects.">
<polygon fill="white" stroke="#666666" points="117.25,-196.25 0,-196.25 0,-177 117.25,-177 117.25,-196.25"/>
<text xml:space="preserve" text-anchor="middle" x="58.62" y="-182.75" font-family="Helvetica,sans-Serif" font-size="10.00">ImFusion::Configurable</text>
</a>
</g>
</g>
<!-- Node4&#45;&gt;Node3 -->
<g id="edge3_Node000003_Node000004" class="edge">
<title>Node4&#45;&gt;Node3</title>
<g id="a_edge3_Node000003_Node000004"><a xlink:title=" ">
<path fill="none" stroke="#63b8ff" d="M80.62,-170.01C93.7,-160.72 109.83,-149.27 120.84,-141.45"/>
<polygon fill="#63b8ff" stroke="#63b8ff" points="78.71,-167.07 72.58,-175.72 82.76,-172.78 78.71,-167.07"/>
</a>
</g>
</g>
<!-- Node5 -->
<g id="Node000005" class="node">
<title>Node5</title>
<g id="a_Node000005"><a xlink:href="class_im_fusion_1_1_utils_1_1_not_copyable.html" target="_top" xlink:title="Inherit from this class if your class should be neither copy&#45;constructible nor assignable.">
<polygon fill="white" stroke="#666666" points="281.5,-196.25 135.75,-196.25 135.75,-177 281.5,-177 281.5,-196.25"/>
<text xml:space="preserve" text-anchor="middle" x="208.62" y="-182.75" font-family="Helvetica,sans-Serif" font-size="10.00">ImFusion::Utils::NotCopyable</text>
</a>
</g>
</g>
<!-- Node5&#45;&gt;Node3 -->
<g id="edge4_Node000003_Node000005" class="edge">
<title>Node5&#45;&gt;Node3</title>
<g id="a_edge4_Node000003_Node000005"><a xlink:title=" ">
<path fill="none" stroke="#63b8ff" d="M186.63,-170.01C173.55,-160.72 157.42,-149.27 146.41,-141.45"/>
<polygon fill="#63b8ff" stroke="#63b8ff" points="184.49,-172.78 194.67,-175.72 188.54,-167.07 184.49,-172.78"/>
</a>
</g>
</g>
</g>
</svg>
