<?xml version="1.0" encoding="UTF-8" standalone="no"?>
<!DOCTYPE svg PUBLIC "-//W3C//DTD SVG 1.1//EN"
 "http://www.w3.org/Graphics/SVG/1.1/DTD/svg11.dtd">
<!-- Generated by graphviz version 14.1.4 (20260321.0153)
 -->
<!-- Title: ImFusion::ImageView3D Pages: 1 -->
<svg width="272pt" height="193pt"
 viewBox="0.00 0.00 272.00 193.00" xmlns="http://www.w3.org/2000/svg" xmlns:xlink="http://www.w3.org/1999/xlink">

<svg id="main" version="1.1" xmlns="http://www.w3.org/2000/svg" xmlns:xlink="http://www.w3.org/1999/xlink" xml:space="preserve">

<style type="text/css"><![CDATA[
.node, .edge {opacity: 0.7;}
.node.selected, .edge.selected {opacity: 1;}
.edge:hover path { stroke: red; }
.edge:hover polygon { stroke: red; fill: red; }
]]></style>
<script type="application/ecmascript" xlink:href="svg.min.js"/>
<svg id="graph" class="graph">
<g id="graph0" class="graph" transform="scale(1 1) rotate(0) translate(4 189)">
<title>ImFusion::ImageView3D</title>
<!-- Node1 -->
<g id="Node000001" class="node">
<title>Node1</title>
<g id="a_Node000001"><a xlink:title="Qt widget for 3d rendering of one or multiple images.">
<polygon fill="#999999" stroke="#666666" points="142.62,-19.25 18.62,-19.25 18.62,0 142.62,0 142.62,-19.25"/>
<text xml:space="preserve" text-anchor="middle" x="80.62" y="-5.75" font-family="Helvetica,sans-Serif" font-size="10.00">ImFusion::ImageView3D</text>
</a>
</g>
</g>
<!-- Node2 -->
<g id="Node000002" class="node">
<title>Node2</title>
<g id="a_Node000002"><a xlink:href="class_im_fusion_1_1_interactive_view.html" target="_top" xlink:title="Abstract base class for a view that can be hosted by a DisplayWidget.">
<polygon fill="white" stroke="#666666" points="145.62,-74.5 15.62,-74.5 15.62,-55.25 145.62,-55.25 145.62,-74.5"/>
<text xml:space="preserve" text-anchor="middle" x="80.62" y="-61" font-family="Helvetica,sans-Serif" font-size="10.00">ImFusion::InteractiveView</text>
</a>
</g>
</g>
<!-- Node2&#45;&gt;Node1 -->
<g id="edge1_Node000001_Node000002" class="edge">
<title>Node2&#45;&gt;Node1</title>
<g id="a_edge1_Node000001_Node000002"><a xlink:title=" ">
<path fill="none" stroke="#63b8ff" d="M80.62,-43.63C80.62,-35.34 80.62,-26.17 80.62,-19.61"/>
<polygon fill="#63b8ff" stroke="#63b8ff" points="77.13,-43.57 80.63,-53.57 84.13,-43.57 77.13,-43.57"/>
</a>
</g>
</g>
<!-- Node3 -->
<g id="Node000003" class="node">
<title>Node3</title>
<g id="a_Node000003"><a xlink:title=" ">
<polygon fill="white" stroke="#bfbfbf" points="57.62,-129.75 5.62,-129.75 5.62,-110.5 57.62,-110.5 57.62,-129.75"/>
<text xml:space="preserve" text-anchor="middle" x="31.62" y="-116.25" font-family="Helvetica,sans-Serif" font-size="10.00">QObject</text>
</a>
</g>
</g>
<!-- Node3&#45;&gt;Node2 -->
<g id="edge2_Node000002_Node000003" class="edge">
<title>Node3&#45;&gt;Node2</title>
<g id="a_edge2_Node000002_Node000003"><a xlink:title=" ">
<path fill="none" stroke="#63b8ff" d="M47.34,-102.04C55.66,-93 65.54,-82.27 72.36,-74.86"/>
<polygon fill="#63b8ff" stroke="#63b8ff" points="44.94,-99.49 40.74,-109.22 50.09,-104.23 44.94,-99.49"/>
</a>
</g>
</g>
<!-- Node4 -->
<g id="Node000004" class="node">
<title>Node4</title>
<g id="a_Node000004"><a xlink:href="class_im_fusion_1_1_g_u_i_1_1_view.html" target="_top" xlink:title="Base interface for a rendering view (e.g.">
<polygon fill="white" stroke="#666666" points="183.75,-129.75 75.5,-129.75 75.5,-110.5 183.75,-110.5 183.75,-129.75"/>
<text xml:space="preserve" text-anchor="middle" x="129.62" y="-116.25" font-family="Helvetica,sans-Serif" font-size="10.00">ImFusion::GUI::View</text>
</a>
</g>
</g>
<!-- Node4&#45;&gt;Node2 -->
<g id="edge3_Node000002_Node000004" class="edge">
<title>Node4&#45;&gt;Node2</title>
<g id="a_edge3_Node000002_Node000004"><a xlink:title=" ">
<path fill="none" stroke="#63b8ff" d="M113.91,-102.04C105.59,-93 95.71,-82.27 88.89,-74.86"/>
<polygon fill="#63b8ff" stroke="#63b8ff" points="111.16,-104.23 120.51,-109.22 116.31,-99.49 111.16,-104.23"/>
</a>
</g>
</g>
<!-- Node5 -->
<g id="Node000005" class="node">
<title>Node5</title>
<g id="a_Node000005"><a xlink:href="class_im_fusion_1_1_configurable.html" target="_top" xlink:title="Base interface for classes that support object serialization from/to Properties objects.">
<polygon fill="white" stroke="#666666" points="117.25,-185 0,-185 0,-165.75 117.25,-165.75 117.25,-185"/>
<text xml:space="preserve" text-anchor="middle" x="58.62" y="-171.5" font-family="Helvetica,sans-Serif" font-size="10.00">ImFusion::Configurable</text>
</a>
</g>
</g>
<!-- Node5&#45;&gt;Node4 -->
<g id="edge4_Node000004_Node000005" class="edge">
<title>Node5&#45;&gt;Node4</title>
<g id="a_edge4_Node000004_Node000005"><a xlink:title=" ">
<path fill="none" stroke="#63b8ff" d="M79.87,-158.44C92.27,-149.14 107.45,-137.76 117.76,-130.02"/>
<polygon fill="#63b8ff" stroke="#63b8ff" points="77.78,-155.63 71.88,-164.43 81.98,-161.23 77.78,-155.63"/>
</a>
</g>
</g>
<!-- Node6 -->
<g id="Node000006" class="node">
<title>Node6</title>
<g id="a_Node000006"><a xlink:href="class_im_fusion_1_1_signal_receiver.html" target="_top" xlink:title="Base class for classes that can contain slots (i.e.">
<polygon fill="white" stroke="#666666" points="263.88,-185 135.38,-185 135.38,-165.75 263.88,-165.75 263.88,-185"/>
<text xml:space="preserve" text-anchor="middle" x="199.62" y="-171.5" font-family="Helvetica,sans-Serif" font-size="10.00">ImFusion::SignalReceiver</text>
</a>
</g>
</g>
<!-- Node6&#45;&gt;Node4 -->
<g id="edge5_Node000004_Node000006" class="edge">
<title>Node6&#45;&gt;Node4</title>
<g id="a_edge5_Node000004_Node000006"><a xlink:title=" ">
<path fill="none" stroke="#63b8ff" d="M178.68,-158.44C166.45,-149.14 151.49,-137.76 141.32,-130.02"/>
<polygon fill="#63b8ff" stroke="#63b8ff" points="176.47,-161.16 186.55,-164.43 180.71,-155.59 176.47,-161.16"/>
</a>
</g>
</g>
</g>
</svg>
</svg>

<style type='text/css'>
<![CDATA[
[data-mouse-over-selected='false'] { opacity: 0.7; }
[data-mouse-over-selected='true']  { opacity: 1.0; }
]]>
</style>
<script type="application/ecmascript"><![CDATA[
document.addEventListener('DOMContentLoaded', (event) => {
  highlightEdges();
  highlightAdjacentNodes();
});
]]></script>
</svg>
