<?xml version="1.0" encoding="UTF-8" standalone="no"?>
<!DOCTYPE svg PUBLIC "-//W3C//DTD SVG 1.1//EN"
 "http://www.w3.org/Graphics/SVG/1.1/DTD/svg11.dtd">
<!-- Generated by graphviz version 14.1.4 (20260321.0153)
 -->
<!-- Title: ImFusion::Manipulator Pages: 1 -->
<svg width="708pt" height="322pt"
 viewBox="0.00 0.00 708.00 322.00" xmlns="http://www.w3.org/2000/svg" xmlns:xlink="http://www.w3.org/1999/xlink">
<g id="graph0" class="graph" transform="scale(1 1) rotate(0) translate(4 318.25)">
<title>ImFusion::Manipulator</title>
<!-- Node1 -->
<g id="Node000001" class="node">
<title>Node1</title>
<g id="a_Node000001"><a xlink:title="Abstract base class for manipulator objects.">
<polygon fill="#999999" stroke="#666666" points="285.5,-172.25 172.75,-172.25 172.75,-153 285.5,-153 285.5,-172.25"/>
<text xml:space="preserve" text-anchor="middle" x="229.12" y="-158.75" font-family="Helvetica,sans-Serif" font-size="10.00">ImFusion::Manipulator</text>
</a>
</g>
</g>
<!-- Node3 -->
<g id="Node000003" class="node">
<title>Node3</title>
<g id="a_Node000003"><a xlink:href="class_im_fusion_1_1_box_annotation_manipulator.html" target="_top" xlink:title="Manipulator for box annotations.">
<polygon fill="white" stroke="#666666" points="498,-314.25 321.5,-314.25 321.5,-295 498,-295 498,-314.25"/>
<text xml:space="preserve" text-anchor="middle" x="409.75" y="-300.75" font-family="Helvetica,sans-Serif" font-size="10.00">ImFusion::BoxAnnotationManipulator</text>
</a>
</g>
</g>
<!-- Node1&#45;&gt;Node3 -->
<g id="edge2_Node000001_Node000003" class="edge">
<title>Node1&#45;&gt;Node3</title>
<g id="a_edge2_Node000001_Node000003"><a xlink:title=" ">
<path fill="none" stroke="#63b8ff" d="M239.14,-182.8C252.76,-210.8 281.32,-260.89 321.5,-286.62 326.45,-289.79 331.85,-292.42 337.46,-294.59"/>
<polygon fill="#63b8ff" stroke="#63b8ff" points="242.42,-181.55 235.02,-173.98 236.08,-184.52 242.42,-181.55"/>
</a>
</g>
</g>
<!-- Node4 -->
<g id="Node000004" class="node">
<title>Node4</title>
<g id="a_Node000004"><a xlink:href="class_im_fusion_1_1_mesh_manipulator.html" target="_top" xlink:title="Mesh manipulator with 3d controls.">
<polygon fill="white" stroke="#666666" points="478.12,-277.25 341.38,-277.25 341.38,-258 478.12,-258 478.12,-277.25"/>
<text xml:space="preserve" text-anchor="middle" x="409.75" y="-263.75" font-family="Helvetica,sans-Serif" font-size="10.00">ImFusion::MeshManipulator</text>
</a>
</g>
</g>
<!-- Node1&#45;&gt;Node4 -->
<g id="edge3_Node000001_Node000004" class="edge">
<title>Node1&#45;&gt;Node4</title>
<g id="a_edge3_Node000001_Node000004"><a xlink:title=" ">
<path fill="none" stroke="#63b8ff" d="M244.42,-181.44C260.78,-201.57 289.48,-232.87 321.5,-249.62 327.67,-252.85 334.36,-255.5 341.21,-257.68"/>
<polygon fill="#63b8ff" stroke="#63b8ff" points="247.29,-179.43 238.35,-173.75 241.8,-183.77 247.29,-179.43"/>
</a>
</g>
</g>
<!-- Node5 -->
<g id="Node000005" class="node">
<title>Node5</title>
<g id="a_Node000005"><a xlink:href="class_im_fusion_1_1_mesh_picking_manipulator.html" target="_top" xlink:title="Mesh picking manipulator The MeshPickingManipulator can return the list of selected vertices/faces/ed...">
<polygon fill="white" stroke="#666666" points="494.25,-240.25 325.25,-240.25 325.25,-221 494.25,-221 494.25,-240.25"/>
<text xml:space="preserve" text-anchor="middle" x="409.75" y="-226.75" font-family="Helvetica,sans-Serif" font-size="10.00">ImFusion::MeshPickingManipulator</text>
</a>
</g>
</g>
<!-- Node1&#45;&gt;Node5 -->
<g id="edge4_Node000001_Node000005" class="edge">
<title>Node1&#45;&gt;Node5</title>
<g id="a_edge4_Node000001_Node000005"><a xlink:title=" ">
<path fill="none" stroke="#63b8ff" d="M255.32,-178.6C273.19,-189.31 298.06,-202.98 321.5,-211.62 330.95,-215.11 341.23,-218.05 351.31,-220.5"/>
<polygon fill="#63b8ff" stroke="#63b8ff" points="257.32,-175.72 246.96,-173.49 253.66,-181.7 257.32,-175.72"/>
</a>
</g>
</g>
<!-- Node6 -->
<g id="Node000006" class="node">
<title>Node6</title>
<g id="a_Node000006"><a xlink:href="class_im_fusion_1_1_point_based_annotation_manipulator.html" target="_top" xlink:title="Manipulator for point&#45;based annotations.">
<polygon fill="white" stroke="#666666" points="489.38,-202.88 330.12,-202.88 330.12,-172.38 489.38,-172.38 489.38,-202.88"/>
<text xml:space="preserve" text-anchor="start" x="338.12" y="-189.38" font-family="Helvetica,sans-Serif" font-size="10.00">ImFusion::PointBasedAnnotation</text>
<text xml:space="preserve" text-anchor="middle" x="409.75" y="-178.12" font-family="Helvetica,sans-Serif" font-size="10.00">Manipulator</text>
</a>
</g>
</g>
<!-- Node1&#45;&gt;Node6 -->
<g id="edge5_Node000001_Node000006" class="edge">
<title>Node1&#45;&gt;Node6</title>
<g id="a_edge5_Node000001_Node000006"><a xlink:title=" ">
<path fill="none" stroke="#63b8ff" d="M297,-171.99C307.65,-173.47 318.75,-175.03 329.64,-176.55"/>
<polygon fill="#63b8ff" stroke="#63b8ff" points="297.55,-168.53 287.16,-170.61 296.58,-175.46 297.55,-168.53"/>
</a>
</g>
</g>
<!-- Node12 -->
<g id="Node000012" class="node">
<title>Node12</title>
<g id="a_Node000012"><a xlink:href="class_im_fusion_1_1_point_based_annotation_manipulator2.html" target="_top" xlink:title="Manipulator for point&#45;based annotations.">
<polygon fill="white" stroke="#666666" points="489.38,-153.88 330.12,-153.88 330.12,-123.38 489.38,-123.38 489.38,-153.88"/>
<text xml:space="preserve" text-anchor="start" x="338.12" y="-140.38" font-family="Helvetica,sans-Serif" font-size="10.00">ImFusion::PointBasedAnnotation</text>
<text xml:space="preserve" text-anchor="middle" x="409.75" y="-129.12" font-family="Helvetica,sans-Serif" font-size="10.00">Manipulator2</text>
</a>
</g>
</g>
<!-- Node1&#45;&gt;Node12 -->
<g id="edge11_Node000001_Node000012" class="edge">
<title>Node1&#45;&gt;Node12</title>
<g id="a_edge11_Node000001_Node000012"><a xlink:title=" ">
<path fill="none" stroke="#63b8ff" d="M297,-153.64C307.65,-152.21 318.75,-150.72 329.64,-149.25"/>
<polygon fill="#63b8ff" stroke="#63b8ff" points="296.61,-150.16 287.16,-154.96 297.54,-157.1 296.61,-150.16"/>
</a>
</g>
</g>
<!-- Node13 -->
<g id="Node000013" class="node">
<title>Node13</title>
<g id="a_Node000013"><a xlink:href="class_im_fusion_1_1_point_cloud_picking_manipulator.html" target="_top" xlink:title="Point cloud picking manipulator The PointCloudPickingManipulator can return the list of selected vert...">
<polygon fill="white" stroke="#666666" points="481.12,-104.88 338.38,-104.88 338.38,-74.38 481.12,-74.38 481.12,-104.88"/>
<text xml:space="preserve" text-anchor="start" x="346.38" y="-91.38" font-family="Helvetica,sans-Serif" font-size="10.00">ImFusion::PointCloudPicking</text>
<text xml:space="preserve" text-anchor="middle" x="409.75" y="-80.12" font-family="Helvetica,sans-Serif" font-size="10.00">Manipulator</text>
</a>
</g>
</g>
<!-- Node1&#45;&gt;Node13 -->
<g id="edge12_Node000001_Node000013" class="edge">
<title>Node1&#45;&gt;Node13</title>
<g id="a_edge12_Node000001_Node000013"><a xlink:title=" ">
<path fill="none" stroke="#63b8ff" d="M256.77,-146.77C274.64,-136.6 298.94,-123.67 321.5,-114.62 329.98,-111.22 339.1,-108.08 348.13,-105.25"/>
<polygon fill="#63b8ff" stroke="#63b8ff" points="255.02,-143.74 248.12,-151.77 258.53,-149.8 255.02,-143.74"/>
</a>
</g>
</g>
<!-- Node14 -->
<g id="Node000014" class="node">
<title>Node14</title>
<g id="a_Node000014"><a xlink:href="class_im_fusion_1_1_seg_1_1_lambda_manipulator.html" target="_top" xlink:title="Utility class to avoid having to subclass the Manipulator class.">
<polygon fill="white" stroke="#666666" points="495,-56.25 324.5,-56.25 324.5,-37 495,-37 495,-56.25"/>
<text xml:space="preserve" text-anchor="middle" x="409.75" y="-42.75" font-family="Helvetica,sans-Serif" font-size="10.00">ImFusion::Seg::LambdaManipulator</text>
</a>
</g>
</g>
<!-- Node1&#45;&gt;Node14 -->
<g id="edge13_Node000001_Node000014" class="edge">
<title>Node1&#45;&gt;Node14</title>
<g id="a_edge13_Node000001_Node000014"><a xlink:title=" ">
<path fill="none" stroke="#63b8ff" d="M243.01,-143.04C258.77,-120.7 287.6,-84.8 321.5,-65.62 327.98,-61.96 335.09,-59 342.38,-56.62"/>
<polygon fill="#63b8ff" stroke="#63b8ff" points="240.14,-141.03 237.38,-151.26 245.92,-144.98 240.14,-141.03"/>
</a>
</g>
</g>
<!-- Node15 -->
<g id="Node000015" class="node">
<title>Node15</title>
<g id="a_Node000015"><a xlink:href="class_im_fusion_1_1_slice_manipulator.html" target="_top" xlink:title="Interaction for slices.">
<polygon fill="white" stroke="#666666" points="477,-19.25 342.5,-19.25 342.5,0 477,0 477,-19.25"/>
<text xml:space="preserve" text-anchor="middle" x="409.75" y="-5.75" font-family="Helvetica,sans-Serif" font-size="10.00">ImFusion::SliceManipulator</text>
</a>
</g>
</g>
<!-- Node1&#45;&gt;Node15 -->
<g id="edge14_Node000001_Node000015" class="edge">
<title>Node1&#45;&gt;Node15</title>
<g id="a_edge14_Node000001_Node000015"><a xlink:title=" ">
<path fill="none" stroke="#63b8ff" d="M238.1,-141.98C250.88,-111.79 278.93,-56.1 321.5,-27.62 327.8,-23.41 334.88,-20.15 342.22,-17.63"/>
<polygon fill="#63b8ff" stroke="#63b8ff" points="234.9,-140.54 234.39,-151.12 241.39,-143.17 234.9,-140.54"/>
</a>
</g>
</g>
<!-- Node2 -->
<g id="Node000002" class="node">
<title>Node2</title>
<g id="a_Node000002"><a xlink:href="class_im_fusion_1_1_g_u_i_1_1_view_object_1_1_event_handler.html" target="_top" xlink:title="Interface to be used as base class for event handlers of ViewObjects.">
<polygon fill="white" stroke="#666666" points="136.75,-177.88 0,-177.88 0,-147.38 136.75,-147.38 136.75,-177.88"/>
<text xml:space="preserve" text-anchor="start" x="8" y="-164.38" font-family="Helvetica,sans-Serif" font-size="10.00">ImFusion::GUI::ViewObject</text>
<text xml:space="preserve" text-anchor="middle" x="68.38" y="-153.12" font-family="Helvetica,sans-Serif" font-size="10.00">::EventHandler</text>
</a>
</g>
</g>
<!-- Node2&#45;&gt;Node1 -->
<g id="edge1_Node000001_Node000002" class="edge">
<title>Node2&#45;&gt;Node1</title>
<g id="a_edge1_Node000001_Node000002"><a xlink:title=" ">
<path fill="none" stroke="#63b8ff" d="M148.57,-162.62C156.67,-162.62 164.76,-162.62 172.53,-162.62"/>
<polygon fill="#63b8ff" stroke="#63b8ff" points="148.67,-159.13 138.67,-162.63 148.67,-166.13 148.67,-159.13"/>
</a>
</g>
</g>
<!-- Node7 -->
<g id="Node000007" class="node">
<title>Node7</title>
<g id="a_Node000007"><a xlink:href="class_im_fusion_1_1_curve_editor_manipulator.html" target="_top" xlink:title=" ">
<polygon fill="white" stroke="#bfbfbf" points="699.25,-289.25 534.75,-289.25 534.75,-270 699.25,-270 699.25,-289.25"/>
<text xml:space="preserve" text-anchor="middle" x="617" y="-275.75" font-family="Helvetica,sans-Serif" font-size="10.00">ImFusion::CurveEditorManipulator</text>
</a>
</g>
</g>
<!-- Node6&#45;&gt;Node7 -->
<g id="edge6_Node000006_Node000007" class="edge">
<title>Node6&#45;&gt;Node7</title>
<g id="a_edge6_Node000006_Node000007"><a xlink:title=" ">
<path fill="none" stroke="#63b8ff" d="M493.06,-208.47C494.75,-209.47 496.4,-210.52 498,-211.62 520.26,-226.95 511.43,-245.76 534,-260.62 539.49,-264.24 545.59,-267.17 551.9,-269.55"/>
<polygon fill="#63b8ff" stroke="#63b8ff" points="494.82,-205.44 484.33,-203.93 491.59,-211.65 494.82,-205.44"/>
</a>
</g>
</g>
<!-- Node8 -->
<g id="Node000008" class="node">
<title>Node8</title>
<g id="a_Node000008"><a xlink:href="class_im_fusion_1_1_curved_view_spline_manipulator.html" target="_top" xlink:title="Manipulator setting the direction of spline based curved views.">
<polygon fill="white" stroke="#666666" points="688.38,-251.88 545.62,-251.88 545.62,-221.38 688.38,-221.38 688.38,-251.88"/>
<text xml:space="preserve" text-anchor="start" x="553.62" y="-238.38" font-family="Helvetica,sans-Serif" font-size="10.00">ImFusion::CurvedViewSpline</text>
<text xml:space="preserve" text-anchor="middle" x="617" y="-227.12" font-family="Helvetica,sans-Serif" font-size="10.00">Manipulator</text>
</a>
</g>
</g>
<!-- Node6&#45;&gt;Node8 -->
<g id="edge7_Node000006_Node000008" class="edge">
<title>Node6&#45;&gt;Node8</title>
<g id="a_edge7_Node000006_Node000008"><a xlink:title=" ">
<path fill="none" stroke="#63b8ff" d="M487.5,-205.95C508.13,-210.87 530.25,-216.15 550.23,-220.92"/>
<polygon fill="#63b8ff" stroke="#63b8ff" points="488.55,-202.6 478.01,-203.68 486.93,-209.41 488.55,-202.6"/>
</a>
</g>
</g>
<!-- Node9 -->
<g id="Node000009" class="node">
<title>Node9</title>
<g id="a_Node000009"><a xlink:href="class_im_fusion_1_1_freeform_annotation_manipulator.html" target="_top" xlink:title="Manipulator for freeform annotations.">
<polygon fill="white" stroke="#666666" points="691,-202.88 543,-202.88 543,-172.38 691,-172.38 691,-202.88"/>
<text xml:space="preserve" text-anchor="start" x="551" y="-189.38" font-family="Helvetica,sans-Serif" font-size="10.00">ImFusion::FreeformAnnotation</text>
<text xml:space="preserve" text-anchor="middle" x="617" y="-178.12" font-family="Helvetica,sans-Serif" font-size="10.00">Manipulator</text>
</a>
</g>
</g>
<!-- Node6&#45;&gt;Node9 -->
<g id="edge8_Node000006_Node000009" class="edge">
<title>Node6&#45;&gt;Node9</title>
<g id="a_edge8_Node000006_Node000009"><a xlink:title=" ">
<path fill="none" stroke="#63b8ff" d="M500.92,-187.62C514.89,-187.62 529.17,-187.62 542.7,-187.62"/>
<polygon fill="#63b8ff" stroke="#63b8ff" points="501.32,-184.13 491.32,-187.63 501.32,-191.13 501.32,-184.13"/>
</a>
</g>
</g>
<!-- Node10 -->
<g id="Node000010" class="node">
<title>Node10</title>
<g id="a_Node000010"><a xlink:href="class_im_fusion_1_1_loop_manipulator.html" target="_top" xlink:title=" ">
<polygon fill="white" stroke="#bfbfbf" points="683.88,-154.25 550.12,-154.25 550.12,-135 683.88,-135 683.88,-154.25"/>
<text xml:space="preserve" text-anchor="middle" x="617" y="-140.75" font-family="Helvetica,sans-Serif" font-size="10.00">ImFusion::LoopManipulator</text>
</a>
</g>
</g>
<!-- Node6&#45;&gt;Node10 -->
<g id="edge9_Node000006_Node000010" class="edge">
<title>Node6&#45;&gt;Node10</title>
<g id="a_edge9_Node000006_Node000010"><a xlink:title=" ">
<path fill="none" stroke="#63b8ff" d="M496.76,-169.61C521.01,-164.53 546.54,-159.18 567.73,-154.74"/>
<polygon fill="#63b8ff" stroke="#63b8ff" points="496.27,-166.13 487.2,-171.61 497.71,-172.98 496.27,-166.13"/>
</a>
</g>
</g>
<!-- Node11 -->
<g id="Node000011" class="node">
<title>Node11</title>
<g id="a_Node000011"><a xlink:href="class_im_fusion_1_1_smart_spline_manipulator.html" target="_top" xlink:title="Manipulator for smart spline annotations.">
<polygon fill="white" stroke="#666666" points="700,-117.25 534,-117.25 534,-98 700,-98 700,-117.25"/>
<text xml:space="preserve" text-anchor="middle" x="617" y="-103.75" font-family="Helvetica,sans-Serif" font-size="10.00">ImFusion::SmartSplineManipulator</text>
</a>
</g>
</g>
<!-- Node6&#45;&gt;Node11 -->
<g id="edge10_Node000006_Node000011" class="edge">
<title>Node6&#45;&gt;Node11</title>
<g id="a_edge10_Node000006_Node000011"><a xlink:title=" ">
<path fill="none" stroke="#63b8ff" d="M489.32,-167.32C492.31,-165.86 495.21,-164.29 498,-162.62 517.69,-150.85 513.95,-136.78 534,-125.62 539.73,-122.44 545.98,-119.81 552.39,-117.65"/>
<polygon fill="#63b8ff" stroke="#63b8ff" points="488.03,-164.06 480.3,-171.3 490.86,-170.46 488.03,-164.06"/>
</a>
</g>
</g>
</g>
</svg>
