<?xml version="1.0" encoding="UTF-8" standalone="no"?>
<!DOCTYPE svg PUBLIC "-//W3C//DTD SVG 1.1//EN"
 "http://www.w3.org/Graphics/SVG/1.1/DTD/svg11.dtd">
<!-- Generated by graphviz version 14.1.4 (20260321.0153)
 -->
<!-- Title: ImFusion::Tensor&lt; Order &gt;::Access Pages: 1 -->
<svg width="137pt" height="160pt"
 viewBox="0.00 0.00 137.00 160.00" xmlns="http://www.w3.org/2000/svg" xmlns:xlink="http://www.w3.org/1999/xlink">
<g id="graph0" class="graph" transform="scale(1 1) rotate(0) translate(4 156.25)">
<title>ImFusion::Tensor&lt; Order &gt;::Access</title>
<!-- Node1 -->
<g id="Node000001" class="node">
<title>Node1</title>
<g id="a_Node000001"><a xlink:title="Helper class for read/write access to the data content of a Tensor.">
<polygon fill="#999999" stroke="#666666" points="126.62,-30.5 1.88,-30.5 1.88,0 126.62,0 126.62,-30.5"/>
<text xml:space="preserve" text-anchor="start" x="9.88" y="-17" font-family="Helvetica,sans-Serif" font-size="10.00">ImFusion::Tensor&lt; Order</text>
<text xml:space="preserve" text-anchor="middle" x="64.25" y="-5.75" font-family="Helvetica,sans-Serif" font-size="10.00"> &gt;::Access</text>
</a>
</g>
</g>
<!-- Node2 -->
<g id="Node000002" class="node">
<title>Node2</title>
<g id="a_Node000002"><a xlink:href="class_im_fusion_1_1_tensor_1_1_const_access.html" target="_top" xlink:title="Helper class for read&#45;only access to the data content of a Tensor.">
<polygon fill="white" stroke="#666666" points="126.62,-97 1.88,-97 1.88,-66.5 126.62,-66.5 126.62,-97"/>
<text xml:space="preserve" text-anchor="start" x="9.88" y="-83.5" font-family="Helvetica,sans-Serif" font-size="10.00">ImFusion::Tensor&lt; Order</text>
<text xml:space="preserve" text-anchor="middle" x="64.25" y="-72.25" font-family="Helvetica,sans-Serif" font-size="10.00"> &gt;::ConstAccess</text>
</a>
</g>
</g>
<!-- Node2&#45;&gt;Node1 -->
<g id="edge1_Node000001_Node000002" class="edge">
<title>Node2&#45;&gt;Node1</title>
<g id="a_edge1_Node000001_Node000002"><a xlink:title=" ">
<path fill="none" stroke="#63b8ff" d="M64.25,-54.81C64.25,-46.64 64.25,-37.91 64.25,-30.83"/>
<polygon fill="#63b8ff" stroke="#63b8ff" points="60.75,-54.6 64.25,-64.6 67.75,-54.6 60.75,-54.6"/>
</a>
</g>
</g>
<!-- Node3 -->
<g id="Node000003" class="node">
<title>Node3</title>
<g id="a_Node000003"><a xlink:href="class_im_fusion_1_1_signal_receiver.html" target="_top" xlink:title="Base class for classes that can contain slots (i.e.">
<polygon fill="white" stroke="#666666" points="128.5,-152.25 0,-152.25 0,-133 128.5,-133 128.5,-152.25"/>
<text xml:space="preserve" text-anchor="middle" x="64.25" y="-138.75" font-family="Helvetica,sans-Serif" font-size="10.00">ImFusion::SignalReceiver</text>
</a>
</g>
</g>
<!-- Node3&#45;&gt;Node2 -->
<g id="edge2_Node000002_Node000003" class="edge">
<title>Node3&#45;&gt;Node2</title>
<g id="a_edge2_Node000002_Node000003"><a xlink:title=" ">
<path fill="none" stroke="#63b8ff" d="M64.25,-121.42C64.25,-113.49 64.25,-104.56 64.25,-97.28"/>
<polygon fill="#63b8ff" stroke="#63b8ff" points="60.75,-121.17 64.25,-131.17 67.75,-121.17 60.75,-121.17"/>
</a>
</g>
</g>
</g>
</svg>
