<?xml version="1.0" encoding="UTF-8" standalone="no"?>
<!DOCTYPE svg PUBLIC "-//W3C//DTD SVG 1.1//EN"
 "http://www.w3.org/Graphics/SVG/1.1/DTD/svg11.dtd">
<!-- Generated by graphviz version 14.1.4 (20260321.0153)
 -->
<!-- Title: ImFusion::DataItemModel Pages: 1 -->
<svg width="260pt" height="83pt"
 viewBox="0.00 0.00 260.00 83.00" xmlns="http://www.w3.org/2000/svg" xmlns:xlink="http://www.w3.org/1999/xlink">
<g id="graph0" class="graph" transform="scale(1 1) rotate(0) translate(4 78.5)">
<title>ImFusion::DataItemModel</title>
<!-- Node1 -->
<g id="Node000001" class="node">
<title>Node1</title>
<g id="a_Node000001"><a xlink:title="Wrapper class to transform the DataModel into a QAbstractItemModel so that it can be used in Qt views...">
<polygon fill="#999999" stroke="#666666" points="184.62,-19.25 55.38,-19.25 55.38,0 184.62,0 184.62,-19.25"/>
<text xml:space="preserve" text-anchor="middle" x="120" y="-5.75" font-family="Helvetica,sans-Serif" font-size="10.00">ImFusion::DataItemModel</text>
</a>
</g>
</g>
<!-- Node2 -->
<g id="Node000002" class="node">
<title>Node2</title>
<g id="a_Node000002"><a xlink:title=" ">
<polygon fill="white" stroke="#bfbfbf" points="106,-74.5 0,-74.5 0,-55.25 106,-55.25 106,-74.5"/>
<text xml:space="preserve" text-anchor="middle" x="53" y="-61" font-family="Helvetica,sans-Serif" font-size="10.00">QAbstractItemModel</text>
</a>
</g>
</g>
<!-- Node2&#45;&gt;Node1 -->
<g id="edge1_Node000001_Node000002" class="edge">
<title>Node2&#45;&gt;Node1</title>
<g id="a_edge1_Node000001_Node000002"><a xlink:title=" ">
<path fill="none" stroke="#63b8ff" d="M73.05,-47.94C84.75,-38.64 99.07,-27.26 108.8,-19.52"/>
<polygon fill="#63b8ff" stroke="#63b8ff" points="71.2,-44.94 65.55,-53.9 75.56,-50.42 71.2,-44.94"/>
</a>
</g>
</g>
<!-- Node3 -->
<g id="Node000003" class="node">
<title>Node3</title>
<g id="a_Node000003"><a xlink:href="class_im_fusion_1_1_signal_receiver.html" target="_top" xlink:title="Base class for classes that can contain slots (i.e.">
<polygon fill="white" stroke="#666666" points="252.25,-74.5 123.75,-74.5 123.75,-55.25 252.25,-55.25 252.25,-74.5"/>
<text xml:space="preserve" text-anchor="middle" x="188" y="-61" font-family="Helvetica,sans-Serif" font-size="10.00">ImFusion::SignalReceiver</text>
</a>
</g>
</g>
<!-- Node3&#45;&gt;Node1 -->
<g id="edge2_Node000001_Node000003" class="edge">
<title>Node3&#45;&gt;Node1</title>
<g id="a_edge2_Node000001_Node000003"><a xlink:title=" ">
<path fill="none" stroke="#63b8ff" d="M167.65,-47.94C155.78,-38.64 141.24,-27.26 131.36,-19.52"/>
<polygon fill="#63b8ff" stroke="#63b8ff" points="165.24,-50.5 175.27,-53.91 169.56,-44.99 165.24,-50.5"/>
</a>
</g>
</g>
</g>
</svg>
