<?xml version="1.0" encoding="UTF-8" standalone="no"?>
<!DOCTYPE svg PUBLIC "-//W3C//DTD SVG 1.1//EN"
 "http://www.w3.org/Graphics/SVG/1.1/DTD/svg11.dtd">
<!-- Generated by graphviz version 14.1.4 (20260321.0153)
 -->
<!-- Title: ImFusion::DataController Pages: 1 -->
<!--zoomable 174 -->

<svg id="main" version="1.1" xmlns="http://www.w3.org/2000/svg" xmlns:xlink="http://www.w3.org/1999/xlink" xml:space="preserve" onload="init(evt)">

<style type="text/css"><![CDATA[
.node, .edge {opacity: 0.7;}
.node.selected, .edge.selected {opacity: 1;}
.edge:hover path { stroke: red; }
.edge:hover polygon { stroke: red; fill: red; }
]]></style>

<defs>
  <circle id="rim" cx="0" cy="0" r="7"/>
  <circle id="rim2" cx="0" cy="0" r="3.5"/>
  <g id="zoomPlus">
    <use xlink:href="#rim" fill="#404040"><set attributeName="fill" to="#808080" begin="zoomplus.mouseover" end="zoomplus.mouseout"/></use>
    <path d="M-4,0h8M0,-4v8" fill="none" stroke="white" stroke-width="1.5" pointer-events="none"/>
  </g>
  <g id="zoomMin">
    <use xlink:href="#rim" fill="#404040"><set attributeName="fill" to="#808080" begin="zoomminus.mouseover" end="zoomminus.mouseout"/></use>
    <path d="M-4,0h8" fill="none" stroke="white" stroke-width="1.5" pointer-events="none"/>
  </g>
  <g id="arrowUp" transform="translate(30 24)">
    <use xlink:href="#rim"/>
    <path pointer-events="none" fill="none" stroke="white" stroke-width="1.5" d="M0,-3.0v7 M-2.5,-0.5L0,-3.0L2.5,-0.5"/>
  </g>
  <g id="arrowRight" transform="rotate(90) translate(36 -43)">
    <use xlink:href="#rim"/>
    <path pointer-events="none" fill="none" stroke="white" stroke-width="1.5" d="M0,-3.0v7 M-2.5,-0.5L0,-3.0L2.5,-0.5"/>
  </g>
  <g id="arrowDown" transform="rotate(180) translate(-30 -48)">
    <use xlink:href="#rim"/>
    <path pointer-events="none" fill="none" stroke="white" stroke-width="1.5" d="M0,-3.0v7 M-2.5,-0.5L0,-3.0L2.5,-0.5"/>
  </g>
  <g id="arrowLeft" transform="rotate(270) translate(-36 17)">
    <use xlink:href="#rim"/>
    <path pointer-events="none" fill="none" stroke="white" stroke-width="1.5" d="M0,-3.0v7 M-2.5,-0.5L0,-3.0L2.5,-0.5"/>
  </g>
  <g id="resetDef">
    <use xlink:href="#rim2" fill="#404040"><set attributeName="fill" to="#808080" begin="reset.mouseover" end="reset.mouseout"/></use>
  </g>
</defs>
<script type="application/ecmascript">
var viewWidth = 647;
var viewHeight = 174;
var sectionId = 'dynsection-0';
</script>
<script type="application/ecmascript" xlink:href="svg.min.js"/>
<svg id="graph" class="graph">
<g id="viewport">
<title>ImFusion::DataController</title>
<!-- Node1 -->
<g id="Node000001" class="node">
<title>Node1</title>
<g id="a_Node000001"><a xlink:title="Specialization of the Controller interface to be used with Data instances.">
<polygon fill="#999999" stroke="#666666" points="447.75,-88.88 322.25,-88.88 322.25,-69.62 447.75,-69.62 447.75,-88.88"/>
<text xml:space="preserve" text-anchor="middle" x="385" y="-75.38" font-family="Helvetica,sans-Serif" font-size="10.00">ImFusion::DataController</text>
</a>
</g>
</g>
<!-- Node5 -->
<g id="Node000005" class="node">
<title>Node5</title>
<g id="a_Node000005"><a xlink:href="class_im_fusion_1_1_dicom_1_1_r_t_structure_data_controller.html" target="_top" xlink:title="A DataController for PointClouds that contain a RTStructureDataComponent.">
<polygon fill="white" stroke="#666666" points="636.62,-165.5 486.38,-165.5 486.38,-135 636.62,-135 636.62,-165.5"/>
<text xml:space="preserve" text-anchor="start" x="494.38" y="-152" font-family="Helvetica,sans-Serif" font-size="10.00">ImFusion::Dicom::RTStructure</text>
<text xml:space="preserve" text-anchor="middle" x="561.5" y="-140.75" font-family="Helvetica,sans-Serif" font-size="10.00">DataController</text>
</a>
</g>
</g>
<!-- Node1&#45;&gt;Node5 -->
<g id="edge4_Node000001_Node000005" class="edge">
<title>Node1&#45;&gt;Node5</title>
<g id="a_edge4_Node000001_Node000005"><a xlink:title=" ">
<path fill="none" stroke="#63b8ff" d="M415.72,-94.42C434.88,-103.9 460.47,-116.02 483.75,-125.25 491.96,-128.5 500.77,-131.67 509.4,-134.59"/>
<polygon fill="#63b8ff" stroke="#63b8ff" points="417.39,-91.34 406.88,-90 414.26,-97.6 417.39,-91.34"/>
</a>
</g>
</g>
<!-- Node6 -->
<g id="Node000006" class="node">
<title>Node6</title>
<g id="a_Node000006"><a xlink:href="class_im_fusion_1_1_gated4_d_image_set_display_data_controller.html" target="_top" xlink:title="GUI controller for synchronizing multiple 4D datasets through gating metadata.">
<polygon fill="white" stroke="#666666" points="633.25,-116.5 489.75,-116.5 489.75,-86 633.25,-86 633.25,-116.5"/>
<text xml:space="preserve" text-anchor="start" x="497.75" y="-103" font-family="Helvetica,sans-Serif" font-size="10.00">ImFusion::Gated4DImageSet</text>
<text xml:space="preserve" text-anchor="middle" x="561.5" y="-91.75" font-family="Helvetica,sans-Serif" font-size="10.00">DisplayDataController</text>
</a>
</g>
</g>
<!-- Node1&#45;&gt;Node6 -->
<g id="edge5_Node000001_Node000006" class="edge">
<title>Node1&#45;&gt;Node6</title>
<g id="a_edge5_Node000001_Node000006"><a xlink:title=" ">
<path fill="none" stroke="#63b8ff" d="M459.19,-88.48C469.21,-89.74 479.48,-91.04 489.46,-92.29"/>
<polygon fill="#63b8ff" stroke="#63b8ff" points="459.87,-85.04 449.52,-87.26 459,-91.98 459.87,-85.04"/>
</a>
</g>
</g>
<!-- Node7 -->
<g id="Node000007" class="node">
<title>Node7</title>
<g id="a_Node000007"><a xlink:href="class_im_fusion_1_1_mesh_data_controller.html" target="_top" xlink:title="GUI controller for adjusting visualization of meshes.">
<polygon fill="white" stroke="#666666" points="636.25,-67.88 486.75,-67.88 486.75,-48.62 636.25,-48.62 636.25,-67.88"/>
<text xml:space="preserve" text-anchor="middle" x="561.5" y="-54.38" font-family="Helvetica,sans-Serif" font-size="10.00">ImFusion::MeshDataController</text>
</a>
</g>
</g>
<!-- Node1&#45;&gt;Node7 -->
<g id="edge6_Node000001_Node000007" class="edge">
<title>Node1&#45;&gt;Node7</title>
<g id="a_edge6_Node000001_Node000007"><a xlink:title=" ">
<path fill="none" stroke="#63b8ff" d="M459.26,-70.43C468.25,-69.35 477.45,-68.25 486.45,-67.16"/>
<polygon fill="#63b8ff" stroke="#63b8ff" points="459.03,-66.94 449.52,-71.61 459.86,-73.89 459.03,-66.94"/>
</a>
</g>
</g>
<!-- Node8 -->
<g id="Node000008" class="node">
<title>Node8</title>
<g id="a_Node000008"><a xlink:href="class_im_fusion_1_1_tracked_shared_image_set_display_data_controller.html" target="_top" xlink:title="GUI controller for adjusting TrackedSharedImageSet visualization.">
<polygon fill="white" stroke="#666666" points="639.25,-30.5 483.75,-30.5 483.75,0 639.25,0 639.25,-30.5"/>
<text xml:space="preserve" text-anchor="start" x="491.75" y="-17" font-family="Helvetica,sans-Serif" font-size="10.00">ImFusion::TrackedSharedImage</text>
<text xml:space="preserve" text-anchor="middle" x="561.5" y="-5.75" font-family="Helvetica,sans-Serif" font-size="10.00">SetDisplayDataController</text>
</a>
</g>
</g>
<!-- Node1&#45;&gt;Node8 -->
<g id="edge7_Node000001_Node000008" class="edge">
<title>Node1&#45;&gt;Node8</title>
<g id="a_edge7_Node000001_Node000008"><a xlink:title=" ">
<path fill="none" stroke="#63b8ff" d="M419.48,-64.72C438.23,-56.8 462.12,-47.04 483.75,-39.25 491.63,-36.41 500.03,-33.58 508.28,-30.92"/>
<polygon fill="#63b8ff" stroke="#63b8ff" points="418.31,-61.42 410.48,-68.56 421.05,-67.86 418.31,-61.42"/>
</a>
</g>
</g>
<!-- Node2 -->
<g id="Node000002" class="node">
<title>Node2</title>
<g id="a_Node000002"><a xlink:href="class_im_fusion_1_1_controller.html" target="_top" xlink:title="Base interface for a GUI element within MainWindowBase.">
<polygon fill="white" stroke="#666666" points="286.25,-88.88 181.75,-88.88 181.75,-69.62 286.25,-69.62 286.25,-88.88"/>
<text xml:space="preserve" text-anchor="middle" x="234" y="-75.38" font-family="Helvetica,sans-Serif" font-size="10.00">ImFusion::Controller</text>
</a>
</g>
</g>
<!-- Node2&#45;&gt;Node1 -->
<g id="edge1_Node000001_Node000002" class="edge">
<title>Node2&#45;&gt;Node1</title>
<g id="a_edge1_Node000001_Node000002"><a xlink:title=" ">
<path fill="none" stroke="#63b8ff" d="M298.07,-79.25C305.96,-79.25 314.01,-79.25 321.88,-79.25"/>
<polygon fill="#63b8ff" stroke="#63b8ff" points="298.21,-75.75 288.21,-79.25 298.21,-82.75 298.21,-75.75"/>
</a>
</g>
</g>
<!-- Node3 -->
<g id="Node000003" class="node">
<title>Node3</title>
<g id="a_Node000003"><a xlink:href="class_im_fusion_1_1_configurable.html" target="_top" xlink:title="Base interface for classes that support object serialization from/to Properties objects.">
<polygon fill="white" stroke="#666666" points="131.5,-107.88 14.25,-107.88 14.25,-88.62 131.5,-88.62 131.5,-107.88"/>
<text xml:space="preserve" text-anchor="middle" x="72.88" y="-94.38" font-family="Helvetica,sans-Serif" font-size="10.00">ImFusion::Configurable</text>
</a>
</g>
</g>
<!-- Node3&#45;&gt;Node2 -->
<g id="edge2_Node000002_Node000003" class="edge">
<title>Node3&#45;&gt;Node2</title>
<g id="a_edge2_Node000002_Node000003"><a xlink:title=" ">
<path fill="none" stroke="#63b8ff" d="M142.99,-90C155.91,-88.45 169.2,-86.87 181.47,-85.4"/>
<polygon fill="#63b8ff" stroke="#63b8ff" points="142.79,-86.5 133.28,-91.16 143.62,-93.45 142.79,-86.5"/>
</a>
</g>
</g>
<!-- Node4 -->
<g id="Node000004" class="node">
<title>Node4</title>
<g id="a_Node000004"><a xlink:href="class_im_fusion_1_1_utils_1_1_not_copyable.html" target="_top" xlink:title="Inherit from this class if your class should be neither copy&#45;constructible nor assignable.">
<polygon fill="white" stroke="#666666" points="145.75,-70.88 0,-70.88 0,-51.62 145.75,-51.62 145.75,-70.88"/>
<text xml:space="preserve" text-anchor="middle" x="72.88" y="-57.38" font-family="Helvetica,sans-Serif" font-size="10.00">ImFusion::Utils::NotCopyable</text>
</a>
</g>
</g>
<!-- Node4&#45;&gt;Node2 -->
<g id="edge3_Node000002_Node000004" class="edge">
<title>Node4&#45;&gt;Node2</title>
<g id="a_edge3_Node000002_Node000004"><a xlink:title=" ">
<path fill="none" stroke="#8b1a1a" d="M157.28,-70.68C165.55,-71.62 173.78,-72.55 181.58,-73.43"/>
<polygon fill="#8b1a1a" stroke="#8b1a1a" points="157.82,-67.22 147.49,-69.58 157.04,-74.18 157.82,-67.22"/>
</a>
</g>
</g>
</g>
</svg>

<g id="navigator" transform="translate(0 0)" fill="#404254">
  <rect fill="#f2f5e9" fill-opacity="0.5" stroke="#606060" stroke-width=".5" x="0" y="0" width="60" height="60"/>
  <use id="zoomplus" xlink:href="#zoomPlus" x="17" y="9" onmousedown="handleZoom(evt,'in')"/>
  <use id="zoomminus" xlink:href="#zoomMin" x="42" y="9" onmousedown="handleZoom(evt,'out')"/>
  <use id="reset" xlink:href="#resetDef" x="30" y="36" onmousedown="handleReset()"/>
   <use id="arrowup" xlink:href="#arrowUp" x="0" y="0" onmousedown="handlePan(0,-1)"/>
  <use id="arrowright" xlink:href="#arrowRight" x="0" y="0" onmousedown="handlePan(1,0)"/>
  <use id="arrowdown" xlink:href="#arrowDown" x="0" y="0" onmousedown="handlePan(0,1)"/>
  <use id="arrowleft" xlink:href="#arrowLeft" x="0" y="0" onmousedown="handlePan(-1,0)"/>
</g>
<svg viewBox="0 0 15 15" width="100%" height="30px" preserveAspectRatio="xMaxYMin meet">
 <g id="arrow_out" transform="scale(0.3 0.3)">
  <a xlink:href="class_im_fusion_1_1_data_controller__inherit__graph_org.svg" target="_base">
   <rect id="button" ry="5" rx="5" y="6" x="6" height="38" width="38"
        fill="#f2f5e9" fill-opacity="0.5" stroke="#606060" stroke-width="1.0"/>
   <path id="arrow"
     d="M 11.500037,31.436501 C 11.940474,20.09759 22.043105,11.32322 32.158766,21.979434 L 37.068811,17.246167 C 37.068811,17.246167 37.088388,32 37.088388,32 L 22.160133,31.978069 C 22.160133,31.978069 26.997745,27.140456 26.997745,27.140456 C 18.528582,18.264221 13.291696,25.230495 11.500037,31.436501 z"
     style="fill:#404040;"/>
  </a>
 </g>
</svg>

<style type='text/css'>
<![CDATA[
[data-mouse-over-selected='false'] { opacity: 0.7; }
[data-mouse-over-selected='true']  { opacity: 1.0; }
]]>
</style>
<script type="application/ecmascript"><![CDATA[
document.addEventListener('DOMContentLoaded', (event) => {
  highlightEdges();
  highlightAdjacentNodes();
});
]]></script>
</svg>
