<?xml version="1.0" encoding="UTF-8" standalone="no"?>
<!DOCTYPE svg PUBLIC "-//W3C//DTD SVG 1.1//EN"
 "http://www.w3.org/Graphics/SVG/1.1/DTD/svg11.dtd">
<!-- Generated by graphviz version 14.1.4 (20260321.0153)
 -->
<!-- Title: ImFusion::DataAnnotationFactory Pages: 1 -->
<svg width="346pt" height="160pt"
 viewBox="0.00 0.00 346.00 160.00" xmlns="http://www.w3.org/2000/svg" xmlns:xlink="http://www.w3.org/1999/xlink">
<g id="graph0" class="graph" transform="scale(1 1) rotate(0) translate(4 156.25)">
<title>ImFusion::DataAnnotationFactory</title>
<!-- Node1 -->
<g id="Node000001" class="node">
<title>Node1</title>
<g id="a_Node000001"><a xlink:title="Interface for data annotation factories.">
<polygon fill="#999999" stroke="#666666" points="234.75,-97 104.75,-97 104.75,-66.5 234.75,-66.5 234.75,-97"/>
<text xml:space="preserve" text-anchor="start" x="112.75" y="-83.5" font-family="Helvetica,sans-Serif" font-size="10.00">ImFusion::DataAnnotation</text>
<text xml:space="preserve" text-anchor="middle" x="169.75" y="-72.25" font-family="Helvetica,sans-Serif" font-size="10.00">Factory</text>
</a>
</g>
</g>
<!-- Node3 -->
<g id="Node000003" class="node">
<title>Node3</title>
<g id="a_Node000003"><a xlink:href="class_im_fusion_1_1_default_data_annotation_factory.html" target="_top" xlink:title="Factory for default data annotations.">
<polygon fill="white" stroke="#666666" points="161.5,-30.5 0,-30.5 0,0 161.5,0 161.5,-30.5"/>
<text xml:space="preserve" text-anchor="start" x="8" y="-17" font-family="Helvetica,sans-Serif" font-size="10.00">ImFusion::DefaultDataAnnotation</text>
<text xml:space="preserve" text-anchor="middle" x="80.75" y="-5.75" font-family="Helvetica,sans-Serif" font-size="10.00">Factory</text>
</a>
</g>
</g>
<!-- Node1&#45;&gt;Node3 -->
<g id="edge2_Node000001_Node000003" class="edge">
<title>Node1&#45;&gt;Node3</title>
<g id="a_edge2_Node000001_Node000003"><a xlink:title=" ">
<path fill="none" stroke="#63b8ff" d="M140.52,-59.57C127.53,-50.16 112.57,-39.31 100.87,-30.83"/>
<polygon fill="#63b8ff" stroke="#63b8ff" points="138.18,-62.19 148.33,-65.23 142.29,-56.52 138.18,-62.19"/>
</a>
</g>
</g>
<!-- Node4 -->
<g id="Node000004" class="node">
<title>Node4</title>
<g id="a_Node000004"><a xlink:href="class_im_fusion_1_1_dicom_data_annotation_factory.html" target="_top" xlink:title=" ">
<polygon fill="white" stroke="#bfbfbf" points="338,-30.5 179.5,-30.5 179.5,0 338,0 338,-30.5"/>
<text xml:space="preserve" text-anchor="start" x="187.5" y="-17" font-family="Helvetica,sans-Serif" font-size="10.00">ImFusion::DicomDataAnnotation</text>
<text xml:space="preserve" text-anchor="middle" x="258.75" y="-5.75" font-family="Helvetica,sans-Serif" font-size="10.00">Factory</text>
</a>
</g>
</g>
<!-- Node1&#45;&gt;Node4 -->
<g id="edge3_Node000001_Node000004" class="edge">
<title>Node1&#45;&gt;Node4</title>
<g id="a_edge3_Node000001_Node000004"><a xlink:title=" ">
<path fill="none" stroke="#63b8ff" d="M198.98,-59.57C211.97,-50.16 226.93,-39.31 238.63,-30.83"/>
<polygon fill="#63b8ff" stroke="#63b8ff" points="197.21,-56.52 191.17,-65.23 201.32,-62.19 197.21,-56.52"/>
</a>
</g>
</g>
<!-- Node2 -->
<g id="Node000002" class="node">
<title>Node2</title>
<g id="a_Node000002"><a xlink:href="class_im_fusion_1_1_utils_1_1_not_copyable.html" target="_top" xlink:title="Inherit from this class if your class should be neither copy&#45;constructible nor assignable.">
<polygon fill="white" stroke="#666666" points="242.62,-152.25 96.88,-152.25 96.88,-133 242.62,-133 242.62,-152.25"/>
<text xml:space="preserve" text-anchor="middle" x="169.75" y="-138.75" font-family="Helvetica,sans-Serif" font-size="10.00">ImFusion::Utils::NotCopyable</text>
</a>
</g>
</g>
<!-- Node2&#45;&gt;Node1 -->
<g id="edge1_Node000001_Node000002" class="edge">
<title>Node2&#45;&gt;Node1</title>
<g id="a_edge1_Node000001_Node000002"><a xlink:title=" ">
<path fill="none" stroke="#8b1a1a" d="M169.75,-121.42C169.75,-113.49 169.75,-104.56 169.75,-97.28"/>
<polygon fill="#8b1a1a" stroke="#8b1a1a" points="166.25,-121.17 169.75,-131.17 173.25,-121.17 166.25,-121.17"/>
</a>
</g>
</g>
</g>
</svg>
