<?xml version="1.0" encoding="UTF-8" standalone="no"?>
<!DOCTYPE svg PUBLIC "-//W3C//DTD SVG 1.1//EN"
 "http://www.w3.org/Graphics/SVG/1.1/DTD/svg11.dtd">
<!-- Generated by graphviz version 14.1.4 (20260321.0153)
 -->
<!-- Title: ImFusion::DataDisplayHandler Pages: 1 -->
<svg width="526pt" height="137pt"
 viewBox="0.00 0.00 526.00 137.00" xmlns="http://www.w3.org/2000/svg" xmlns:xlink="http://www.w3.org/1999/xlink">
<g id="graph0" class="graph" transform="scale(1 1) rotate(0) translate(4 132.5)">
<title>ImFusion::DataDisplayHandler</title>
<!-- Node1 -->
<g id="Node000001" class="node">
<title>Node1</title>
<g id="a_Node000001"><a xlink:title="Interface to generically show/hide Data in a GUI::View and/or query visibility.">
<polygon fill="#999999" stroke="#666666" points="332,-73.88 181.75,-73.88 181.75,-54.62 332,-54.62 332,-73.88"/>
<text xml:space="preserve" text-anchor="middle" x="256.88" y="-60.38" font-family="Helvetica,sans-Serif" font-size="10.00">ImFusion::DataDisplayHandler</text>
</a>
</g>
</g>
<!-- Node3 -->
<g id="Node000003" class="node">
<title>Node3</title>
<g id="a_Node000003"><a xlink:href="class_im_fusion_1_1_dicom_1_1_r_t_structure_data_display_handler.html" target="_top" xlink:title="DataDisplayHandler for PointClouds that represent DICOM RT Structs.">
<polygon fill="white" stroke="#666666" points="518.25,-128.5 368,-128.5 368,-98 518.25,-98 518.25,-128.5"/>
<text xml:space="preserve" text-anchor="start" x="376" y="-115" font-family="Helvetica,sans-Serif" font-size="10.00">ImFusion::Dicom::RTStructure</text>
<text xml:space="preserve" text-anchor="middle" x="443.12" y="-103.75" font-family="Helvetica,sans-Serif" font-size="10.00">DataDisplayHandler</text>
</a>
</g>
</g>
<!-- Node1&#45;&gt;Node3 -->
<g id="edge2_Node000001_Node000003" class="edge">
<title>Node1&#45;&gt;Node3</title>
<g id="a_edge2_Node000001_Node000003"><a xlink:title=" ">
<path fill="none" stroke="#63b8ff" d="M306.68,-77.23C330.12,-83.46 358.4,-90.98 383.04,-97.54"/>
<polygon fill="#63b8ff" stroke="#63b8ff" points="307.63,-73.86 297.07,-74.67 305.83,-80.63 307.63,-73.86"/>
</a>
</g>
</g>
<!-- Node4 -->
<g id="Node000004" class="node">
<title>Node4</title>
<g id="a_Node000004"><a xlink:href="class_im_fusion_1_1_shared_image_set_display_handler.html" target="_top" xlink:title="Shows regular SharedImageSet instances (no derivatives) in ImageView2D and ImageView3D.">
<polygon fill="white" stroke="#666666" points="510.75,-79.5 375.5,-79.5 375.5,-49 510.75,-49 510.75,-79.5"/>
<text xml:space="preserve" text-anchor="start" x="383.5" y="-66" font-family="Helvetica,sans-Serif" font-size="10.00">ImFusion::SharedImageSet</text>
<text xml:space="preserve" text-anchor="middle" x="443.12" y="-54.75" font-family="Helvetica,sans-Serif" font-size="10.00">DisplayHandler</text>
</a>
</g>
</g>
<!-- Node1&#45;&gt;Node4 -->
<g id="edge3_Node000001_Node000004" class="edge">
<title>Node1&#45;&gt;Node4</title>
<g id="a_edge3_Node000001_Node000004"><a xlink:title=" ">
<path fill="none" stroke="#63b8ff" d="M343.68,-64.25C354.25,-64.25 364.93,-64.25 375.16,-64.25"/>
<polygon fill="#63b8ff" stroke="#63b8ff" points="343.8,-60.75 333.8,-64.25 343.8,-67.75 343.8,-60.75"/>
</a>
</g>
</g>
<!-- Node5 -->
<g id="Node000005" class="node">
<title>Node5</title>
<g id="a_Node000005"><a xlink:href="class_im_fusion_1_1_tracking_sequence_display_handler.html" target="_top" xlink:title="DataDisplayHandler for TrackingSequence Data Creates and owns an InteractiveObject comprised of GlTra...">
<polygon fill="white" stroke="#666666" points="514.88,-30.5 371.38,-30.5 371.38,0 514.88,0 514.88,-30.5"/>
<text xml:space="preserve" text-anchor="start" x="379.38" y="-17" font-family="Helvetica,sans-Serif" font-size="10.00">ImFusion::TrackingSequence</text>
<text xml:space="preserve" text-anchor="middle" x="443.12" y="-5.75" font-family="Helvetica,sans-Serif" font-size="10.00">DisplayHandler</text>
</a>
</g>
</g>
<!-- Node1&#45;&gt;Node5 -->
<g id="edge4_Node000001_Node000005" class="edge">
<title>Node1&#45;&gt;Node5</title>
<g id="a_edge4_Node000001_Node000005"><a xlink:title=" ">
<path fill="none" stroke="#63b8ff" d="M306.68,-51.27C330.12,-45.04 358.4,-37.52 383.04,-30.96"/>
<polygon fill="#63b8ff" stroke="#63b8ff" points="305.83,-47.87 297.07,-53.83 307.63,-54.64 305.83,-47.87"/>
</a>
</g>
</g>
<!-- Node2 -->
<g id="Node000002" class="node">
<title>Node2</title>
<g id="a_Node000002"><a xlink:href="class_im_fusion_1_1_utils_1_1_not_copyable.html" target="_top" xlink:title="Inherit from this class if your class should be neither copy&#45;constructible nor assignable.">
<polygon fill="white" stroke="#666666" points="145.75,-73.88 0,-73.88 0,-54.62 145.75,-54.62 145.75,-73.88"/>
<text xml:space="preserve" text-anchor="middle" x="72.88" y="-60.38" font-family="Helvetica,sans-Serif" font-size="10.00">ImFusion::Utils::NotCopyable</text>
</a>
</g>
</g>
<!-- Node2&#45;&gt;Node1 -->
<g id="edge1_Node000001_Node000002" class="edge">
<title>Node2&#45;&gt;Node1</title>
<g id="a_edge1_Node000001_Node000002"><a xlink:title=" ">
<path fill="none" stroke="#8b1a1a" d="M157.33,-64.25C165.35,-64.25 173.45,-64.25 181.38,-64.25"/>
<polygon fill="#8b1a1a" stroke="#8b1a1a" points="157.58,-60.75 147.58,-64.25 157.58,-67.75 157.58,-60.75"/>
</a>
</g>
</g>
</g>
</svg>
