<?xml version="1.0" encoding="UTF-8" standalone="no"?>
<!DOCTYPE svg PUBLIC "-//W3C//DTD SVG 1.1//EN"
 "http://www.w3.org/Graphics/SVG/1.1/DTD/svg11.dtd">
<!-- Generated by graphviz version 14.1.4 (20260321.0153)
 -->
<!-- Title: ImFusion::Mask Pages: 1 -->
<svg width="440pt" height="175pt"
 viewBox="0.00 0.00 440.00 175.00" xmlns="http://www.w3.org/2000/svg" xmlns:xlink="http://www.w3.org/1999/xlink">

<svg id="main" version="1.1" xmlns="http://www.w3.org/2000/svg" xmlns:xlink="http://www.w3.org/1999/xlink" xml:space="preserve">

<style type="text/css"><![CDATA[
.node, .edge {opacity: 0.7;}
.node.selected, .edge.selected {opacity: 1;}
.edge:hover path { stroke: red; }
.edge:hover polygon { stroke: red; fill: red; }
]]></style>
<script type="application/ecmascript" xlink:href="svg.min.js"/>
<svg id="graph" class="graph">
<g id="graph0" class="graph" transform="scale(1 1) rotate(0) translate(4 171.25)">
<title>ImFusion::Mask</title>
<!-- Node1 -->
<g id="Node000001" class="node">
<title>Node1</title>
<g id="a_Node000001"><a xlink:title="Base interface for implementing polymorphic image masks on the CPU.">
<polygon fill="#999999" stroke="#666666" points="239.75,-93.25 153.25,-93.25 153.25,-74 239.75,-74 239.75,-93.25"/>
<text xml:space="preserve" text-anchor="middle" x="196.5" y="-79.75" font-family="Helvetica,sans-Serif" font-size="10.00">ImFusion::Mask</text>
</a>
</g>
</g>
<!-- Node3 -->
<g id="Node000003" class="node">
<title>Node3</title>
<g id="a_Node000003"><a xlink:href="class_im_fusion_1_1_cropping_mask.html" target="_top" xlink:title="Simple axis&#45;aligned cropping mask with optional roundness.">
<polygon fill="white" stroke="#666666" points="416.62,-167.25 291.12,-167.25 291.12,-148 416.62,-148 416.62,-167.25"/>
<text xml:space="preserve" text-anchor="middle" x="353.88" y="-153.75" font-family="Helvetica,sans-Serif" font-size="10.00">ImFusion::CroppingMask</text>
</a>
</g>
</g>
<!-- Node1&#45;&gt;Node3 -->
<g id="edge2_Node000001_Node000003" class="edge">
<title>Node1&#45;&gt;Node3</title>
<g id="a_edge2_Node000001_Node000003"><a xlink:title=" ">
<path fill="none" stroke="#63b8ff" d="M216.71,-100.68C231.79,-113.2 253.82,-129.69 275.75,-139.62 282.64,-142.74 290.13,-145.35 297.64,-147.53"/>
<polygon fill="#63b8ff" stroke="#63b8ff" points="219.32,-98.3 209.44,-94.47 214.78,-103.63 219.32,-98.3"/>
</a>
</g>
</g>
<!-- Node4 -->
<g id="Node000004" class="node">
<title>Node4</title>
<g id="a_Node000004"><a xlink:href="class_im_fusion_1_1_explicit_intensity_mask.html" target="_top" xlink:title="An ExplicitIntensityMask is a combination of an ExplicitMask and an IntensityMask.">
<polygon fill="white" stroke="#666666" points="432,-130.25 275.75,-130.25 275.75,-111 432,-111 432,-130.25"/>
<text xml:space="preserve" text-anchor="middle" x="353.88" y="-116.75" font-family="Helvetica,sans-Serif" font-size="10.00">ImFusion::ExplicitIntensityMask</text>
</a>
</g>
</g>
<!-- Node1&#45;&gt;Node4 -->
<g id="edge3_Node000001_Node000004" class="edge">
<title>Node1&#45;&gt;Node4</title>
<g id="a_edge3_Node000001_Node000004"><a xlink:title=" ">
<path fill="none" stroke="#63b8ff" d="M249.43,-96.3C258.21,-98.43 267.24,-100.6 275.75,-102.62 286.58,-105.2 298.28,-107.95 309.22,-110.51"/>
<polygon fill="#63b8ff" stroke="#63b8ff" points="250.51,-92.96 239.97,-94.01 248.87,-99.77 250.51,-92.96"/>
</a>
</g>
</g>
<!-- Node5 -->
<g id="Node000005" class="node">
<title>Node5</title>
<g id="a_Node000005"><a xlink:href="class_im_fusion_1_1_explicit_mask.html" target="_top" xlink:title="An ExplicitMask holds an individual mask value for every pixel.">
<polygon fill="white" stroke="#666666" points="413.25,-93.25 294.5,-93.25 294.5,-74 413.25,-74 413.25,-93.25"/>
<text xml:space="preserve" text-anchor="middle" x="353.88" y="-79.75" font-family="Helvetica,sans-Serif" font-size="10.00">ImFusion::ExplicitMask</text>
</a>
</g>
</g>
<!-- Node1&#45;&gt;Node5 -->
<g id="edge4_Node000001_Node000005" class="edge">
<title>Node1&#45;&gt;Node5</title>
<g id="a_edge4_Node000001_Node000005"><a xlink:title=" ">
<path fill="none" stroke="#63b8ff" d="M251.28,-83.62C265.12,-83.62 280.08,-83.62 294.16,-83.62"/>
<polygon fill="#63b8ff" stroke="#63b8ff" points="251.47,-80.13 241.47,-83.63 251.47,-87.13 251.47,-80.13"/>
</a>
</g>
</g>
<!-- Node6 -->
<g id="Node000006" class="node">
<title>Node6</title>
<g id="a_Node000006"><a xlink:href="class_im_fusion_1_1_intensity_mask.html" target="_top" xlink:title="Masks pixels with a specific value or values outside a specific range.">
<polygon fill="white" stroke="#666666" points="415.88,-56.25 291.88,-56.25 291.88,-37 415.88,-37 415.88,-56.25"/>
<text xml:space="preserve" text-anchor="middle" x="353.88" y="-42.75" font-family="Helvetica,sans-Serif" font-size="10.00">ImFusion::IntensityMask</text>
</a>
</g>
</g>
<!-- Node1&#45;&gt;Node6 -->
<g id="edge5_Node000001_Node000006" class="edge">
<title>Node1&#45;&gt;Node6</title>
<g id="a_edge5_Node000001_Node000006"><a xlink:title=" ">
<path fill="none" stroke="#63b8ff" d="M249.43,-70.95C258.21,-68.82 267.24,-66.65 275.75,-64.62 286.58,-62.05 298.28,-59.3 309.22,-56.74"/>
<polygon fill="#63b8ff" stroke="#63b8ff" points="248.87,-67.48 239.97,-73.24 250.51,-74.29 248.87,-67.48"/>
</a>
</g>
</g>
<!-- Node7 -->
<g id="Node000007" class="node">
<title>Node7</title>
<g id="a_Node000007"><a xlink:href="class_im_fusion_1_1_skipping_mask.html" target="_top" xlink:title="Basic mask where only every N&#45;th pixel is considered inside.">
<polygon fill="white" stroke="#666666" points="415.88,-19.25 291.88,-19.25 291.88,0 415.88,0 415.88,-19.25"/>
<text xml:space="preserve" text-anchor="middle" x="353.88" y="-5.75" font-family="Helvetica,sans-Serif" font-size="10.00">ImFusion::SkippingMask</text>
</a>
</g>
</g>
<!-- Node1&#45;&gt;Node7 -->
<g id="edge6_Node000001_Node000007" class="edge">
<title>Node1&#45;&gt;Node7</title>
<g id="a_edge6_Node000001_Node000007"><a xlink:title=" ">
<path fill="none" stroke="#63b8ff" d="M216.71,-66.57C231.79,-54.05 253.82,-37.56 275.75,-27.62 282.64,-24.51 290.13,-21.9 297.64,-19.72"/>
<polygon fill="#63b8ff" stroke="#63b8ff" points="214.78,-63.62 209.44,-72.78 219.32,-68.95 214.78,-63.62"/>
</a>
</g>
</g>
<!-- Node2 -->
<g id="Node000002" class="node">
<title>Node2</title>
<g id="a_Node000002"><a xlink:href="class_im_fusion_1_1_configurable.html" target="_top" xlink:title="Base interface for classes that support object serialization from/to Properties objects.">
<polygon fill="white" stroke="#666666" points="117.25,-93.25 0,-93.25 0,-74 117.25,-74 117.25,-93.25"/>
<text xml:space="preserve" text-anchor="middle" x="58.62" y="-79.75" font-family="Helvetica,sans-Serif" font-size="10.00">ImFusion::Configurable</text>
</a>
</g>
</g>
<!-- Node2&#45;&gt;Node1 -->
<g id="edge1_Node000001_Node000002" class="edge">
<title>Node2&#45;&gt;Node1</title>
<g id="a_edge1_Node000001_Node000002"><a xlink:title=" ">
<path fill="none" stroke="#63b8ff" d="M129.09,-83.62C137.2,-83.62 145.29,-83.62 152.88,-83.62"/>
<polygon fill="#63b8ff" stroke="#63b8ff" points="129.16,-80.13 119.16,-83.63 129.16,-87.13 129.16,-80.13"/>
</a>
</g>
</g>
</g>
</svg>
</svg>

<style type='text/css'>
<![CDATA[
[data-mouse-over-selected='false'] { opacity: 0.7; }
[data-mouse-over-selected='true']  { opacity: 1.0; }
]]>
</style>
<script type="application/ecmascript"><![CDATA[
document.addEventListener('DOMContentLoaded', (event) => {
  highlightEdges();
  highlightAdjacentNodes();
});
]]></script>
</svg>
