<?xml version="1.0" encoding="UTF-8" standalone="no"?>
<!DOCTYPE svg PUBLIC "-//W3C//DTD SVG 1.1//EN"
 "http://www.w3.org/Graphics/SVG/1.1/DTD/svg11.dtd">
<!-- Generated by graphviz version 14.1.4 (20260321.0153)
 -->
<!-- Title: ImFusion::CostFunction Pages: 1 -->
<!--zoomable 629 -->

<svg id="main" version="1.1" xmlns="http://www.w3.org/2000/svg" xmlns:xlink="http://www.w3.org/1999/xlink" xml:space="preserve" onload="init(evt)">

<style type="text/css"><![CDATA[
.node, .edge {opacity: 0.7;}
.node.selected, .edge.selected {opacity: 1;}
.edge:hover path { stroke: red; }
.edge:hover polygon { stroke: red; fill: red; }
]]></style>

<defs>
  <circle id="rim" cx="0" cy="0" r="7"/>
  <circle id="rim2" cx="0" cy="0" r="3.5"/>
  <g id="zoomPlus">
    <use xlink:href="#rim" fill="#404040"><set attributeName="fill" to="#808080" begin="zoomplus.mouseover" end="zoomplus.mouseout"/></use>
    <path d="M-4,0h8M0,-4v8" fill="none" stroke="white" stroke-width="1.5" pointer-events="none"/>
  </g>
  <g id="zoomMin">
    <use xlink:href="#rim" fill="#404040"><set attributeName="fill" to="#808080" begin="zoomminus.mouseover" end="zoomminus.mouseout"/></use>
    <path d="M-4,0h8" fill="none" stroke="white" stroke-width="1.5" pointer-events="none"/>
  </g>
  <g id="arrowUp" transform="translate(30 24)">
    <use xlink:href="#rim"/>
    <path pointer-events="none" fill="none" stroke="white" stroke-width="1.5" d="M0,-3.0v7 M-2.5,-0.5L0,-3.0L2.5,-0.5"/>
  </g>
  <g id="arrowRight" transform="rotate(90) translate(36 -43)">
    <use xlink:href="#rim"/>
    <path pointer-events="none" fill="none" stroke="white" stroke-width="1.5" d="M0,-3.0v7 M-2.5,-0.5L0,-3.0L2.5,-0.5"/>
  </g>
  <g id="arrowDown" transform="rotate(180) translate(-30 -48)">
    <use xlink:href="#rim"/>
    <path pointer-events="none" fill="none" stroke="white" stroke-width="1.5" d="M0,-3.0v7 M-2.5,-0.5L0,-3.0L2.5,-0.5"/>
  </g>
  <g id="arrowLeft" transform="rotate(270) translate(-36 17)">
    <use xlink:href="#rim"/>
    <path pointer-events="none" fill="none" stroke="white" stroke-width="1.5" d="M0,-3.0v7 M-2.5,-0.5L0,-3.0L2.5,-0.5"/>
  </g>
  <g id="resetDef">
    <use xlink:href="#rim2" fill="#404040"><set attributeName="fill" to="#808080" begin="reset.mouseover" end="reset.mouseout"/></use>
  </g>
</defs>
<script type="application/ecmascript">
var viewWidth = 734;
var viewHeight = 629;
var sectionId = 'dynsection-0';
</script>
<script type="application/ecmascript" xlink:href="svg.min.js"/>
<svg id="graph" class="graph">
<g id="viewport">
<title>ImFusion::CostFunction</title>
<!-- Node1 -->
<g id="Node000001" class="node">
<title>Node1</title>
<g id="a_Node000001"><a xlink:title="Interface for a cost function that can be optimized.">
<polygon fill="#999999" stroke="#666666" points="121,-288.25 0,-288.25 0,-269 121,-269 121,-288.25"/>
<text xml:space="preserve" text-anchor="middle" x="60.5" y="-274.75" font-family="Helvetica,sans-Serif" font-size="10.00">ImFusion::CostFunction</text>
</a>
</g>
</g>
<!-- Node2 -->
<g id="Node000002" class="node">
<title>Node2</title>
<g id="a_Node000002"><a xlink:href="class_im_fusion_1_1_optimization_dialog.html" target="_top" xlink:title=" ">
<polygon fill="white" stroke="#bfbfbf" points="311,-510.25 166,-510.25 166,-491 311,-491 311,-510.25"/>
<text xml:space="preserve" text-anchor="middle" x="238.5" y="-496.75" font-family="Helvetica,sans-Serif" font-size="10.00">ImFusion::OptimizationDialog</text>
</a>
</g>
</g>
<!-- Node1&#45;&gt;Node2 -->
<g id="edge1_Node000001_Node000002" class="edge">
<title>Node1&#45;&gt;Node2</title>
<g id="a_edge1_Node000001_Node000002"><a xlink:title=" ">
<path fill="none" stroke="#63b8ff" d="M65.07,-299.82C73.29,-341.66 97.58,-434.92 157,-482.62 160.91,-485.76 165.25,-488.38 169.84,-490.56"/>
<polygon fill="#63b8ff" stroke="#63b8ff" points="68.54,-299.29 63.29,-290.09 61.65,-300.55 68.54,-299.29"/>
</a>
</g>
</g>
<!-- Node3 -->
<g id="Node000003" class="node">
<title>Node3</title>
<g id="a_Node000003"><a xlink:href="class_im_fusion_1_1_optimizer.html" target="_top" xlink:title="Non&#45;linear optimization.">
<polygon fill="white" stroke="#666666" points="290.75,-473.25 186.25,-473.25 186.25,-454 290.75,-454 290.75,-473.25"/>
<text xml:space="preserve" text-anchor="middle" x="238.5" y="-459.75" font-family="Helvetica,sans-Serif" font-size="10.00">ImFusion::Optimizer</text>
</a>
</g>
</g>
<!-- Node1&#45;&gt;Node3 -->
<g id="edge2_Node000001_Node000003" class="edge">
<title>Node1&#45;&gt;Node3</title>
<g id="a_edge2_Node000001_Node000003"><a xlink:title=" ">
<path fill="none" stroke="#63b8ff" d="M78.79,-296.8C115.39,-335.27 199.64,-423.83 227.99,-453.63"/>
<polygon fill="#63b8ff" stroke="#63b8ff" points="81.43,-294.5 72.01,-289.67 76.36,-299.33 81.43,-294.5"/>
</a>
</g>
</g>
<!-- Node11 -->
<g id="Node000011" class="node">
<title>Node11</title>
<g id="a_Node000011"><a xlink:href="class_im_fusion_1_1_optimizer_wrapper.html" target="_top" xlink:title="Wrapper around Optimizer and CostFunction classes to work on simple lambda functions.">
<polygon fill="white" stroke="#666666" points="308.75,-344.25 168.25,-344.25 168.25,-325 308.75,-325 308.75,-344.25"/>
<text xml:space="preserve" text-anchor="middle" x="238.5" y="-330.75" font-family="Helvetica,sans-Serif" font-size="10.00">ImFusion::OptimizerWrapper</text>
</a>
</g>
</g>
<!-- Node1&#45;&gt;Node11 -->
<g id="edge10_Node000001_Node000011" class="edge">
<title>Node1&#45;&gt;Node11</title>
<g id="a_edge10_Node000001_Node000011"><a xlink:title=" ">
<path fill="none" stroke="#63b8ff" d="M94.27,-293.16C112.49,-300.86 135.72,-310.06 157,-316.62 166.44,-319.54 176.64,-322.19 186.51,-324.51"/>
<polygon fill="#63b8ff" stroke="#63b8ff" points="95.87,-290.04 85.3,-289.31 93.11,-296.47 95.87,-290.04"/>
</a>
</g>
</g>
<!-- Node12 -->
<g id="Node000012" class="node">
<title>Node12</title>
<g id="a_Node000012"><a xlink:href="class_im_fusion_1_1_optimizing_algorithm.html" target="_top" xlink:title="Algorithm class supporting an optimizer.">
<polygon fill="white" stroke="#666666" points="313.62,-307.25 163.38,-307.25 163.38,-288 313.62,-288 313.62,-307.25"/>
<text xml:space="preserve" text-anchor="middle" x="238.5" y="-293.75" font-family="Helvetica,sans-Serif" font-size="10.00">ImFusion::OptimizingAlgorithm</text>
</a>
</g>
</g>
<!-- Node1&#45;&gt;Node12 -->
<g id="edge11_Node000001_Node000012" class="edge">
<title>Node1&#45;&gt;Node12</title>
<g id="a_edge11_Node000001_Node000012"><a xlink:title=" ">
<path fill="none" stroke="#63b8ff" d="M132.32,-286.27C142.42,-287.36 152.83,-288.48 163,-289.58"/>
<polygon fill="#63b8ff" stroke="#63b8ff" points="132.91,-282.81 122.59,-285.22 132.16,-289.77 132.91,-282.81"/>
</a>
</g>
</g>
<!-- Node16 -->
<g id="Node000016" class="node">
<title>Node16</title>
<g id="a_Node000016"><a xlink:href="class_im_fusion_1_1_parameter_optimization.html" target="_top" xlink:title="Class for combining a ParameterWrapperBase instance with a cost function over C++ objects to produce ...">
<polygon fill="white" stroke="#666666" points="319.62,-270.25 157.38,-270.25 157.38,-251 319.62,-251 319.62,-270.25"/>
<text xml:space="preserve" text-anchor="middle" x="238.5" y="-256.75" font-family="Helvetica,sans-Serif" font-size="10.00">ImFusion::ParameterOptimization</text>
</a>
</g>
</g>
<!-- Node1&#45;&gt;Node16 -->
<g id="edge15_Node000001_Node000016" class="edge">
<title>Node1&#45;&gt;Node16</title>
<g id="a_edge15_Node000001_Node000016"><a xlink:title=" ">
<path fill="none" stroke="#63b8ff" d="M132.4,-271.37C140.51,-270.54 148.83,-269.69 157.06,-268.85"/>
<polygon fill="#63b8ff" stroke="#63b8ff" points="132.18,-267.88 122.59,-272.38 132.9,-274.84 132.18,-267.88"/>
</a>
</g>
</g>
<!-- Node17 -->
<g id="Node000017" class="node">
<title>Node17</title>
<g id="a_Node000017"><a xlink:href="class_im_fusion_1_1_parametric_deformation_optimizer.html" target="_top" xlink:title="Runs a non&#45;linear optimization on a ParametricDeformation in order to match its deformation to a give...">
<polygon fill="white" stroke="#666666" points="320,-232.88 157,-232.88 157,-202.38 320,-202.38 320,-232.88"/>
<text xml:space="preserve" text-anchor="start" x="165" y="-219.38" font-family="Helvetica,sans-Serif" font-size="10.00">ImFusion::ParametricDeformation</text>
<text xml:space="preserve" text-anchor="middle" x="238.5" y="-208.12" font-family="Helvetica,sans-Serif" font-size="10.00">Optimizer</text>
</a>
</g>
</g>
<!-- Node1&#45;&gt;Node17 -->
<g id="edge16_Node000001_Node000017" class="edge">
<title>Node1&#45;&gt;Node17</title>
<g id="a_edge16_Node000001_Node000017"><a xlink:title=" ">
<path fill="none" stroke="#63b8ff" d="M96.22,-264.4C114.23,-257.22 136.66,-248.58 157,-241.62 165.28,-238.79 174.1,-235.97 182.75,-233.31"/>
<polygon fill="#63b8ff" stroke="#63b8ff" points="95.02,-261.12 87.04,-268.09 97.63,-267.61 95.02,-261.12"/>
</a>
</g>
</g>
<!-- Node18 -->
<g id="Node000018" class="node">
<title>Node18</title>
<g id="a_Node000018"><a xlink:href="class_im_fusion_1_1_parametric_image_registration.html" target="_top" xlink:title="Base class for parametric image registration algorithms.">
<polygon fill="white" stroke="#666666" points="306.88,-177.88 170.12,-177.88 170.12,-147.38 306.88,-147.38 306.88,-177.88"/>
<text xml:space="preserve" text-anchor="start" x="178.12" y="-164.38" font-family="Helvetica,sans-Serif" font-size="10.00">ImFusion::ParametricImage</text>
<text xml:space="preserve" text-anchor="middle" x="238.5" y="-153.12" font-family="Helvetica,sans-Serif" font-size="10.00">Registration</text>
</a>
</g>
</g>
<!-- Node1&#45;&gt;Node18 -->
<g id="edge17_Node000001_Node000018" class="edge">
<title>Node1&#45;&gt;Node18</title>
<g id="a_edge17_Node000001_Node000018"><a xlink:title=" ">
<path fill="none" stroke="#63b8ff" d="M78.11,-260.38C96.05,-241.56 126.22,-212.39 157,-193.62 166.72,-187.7 177.76,-182.56 188.49,-178.26"/>
<polygon fill="#63b8ff" stroke="#63b8ff" points="75.65,-257.89 71.37,-267.59 80.76,-262.67 75.65,-257.89"/>
</a>
</g>
</g>
<!-- Node27 -->
<g id="Node000027" class="node">
<title>Node27</title>
<g id="a_Node000027"><a xlink:href="class_im_fusion_1_1_point_distance_reg.html" target="_top" xlink:title="Registers a point set to a distance volume.">
<polygon fill="white" stroke="#666666" points="309.5,-129.25 167.5,-129.25 167.5,-110 309.5,-110 309.5,-129.25"/>
<text xml:space="preserve" text-anchor="middle" x="238.5" y="-115.75" font-family="Helvetica,sans-Serif" font-size="10.00">ImFusion::PointDistanceReg</text>
</a>
</g>
</g>
<!-- Node1&#45;&gt;Node27 -->
<g id="edge26_Node000001_Node000027" class="edge">
<title>Node1&#45;&gt;Node27</title>
<g id="a_edge26_Node000001_Node000027"><a xlink:title=" ">
<path fill="none" stroke="#63b8ff" d="M69.62,-258.23C83,-227.34 112.7,-169.06 157,-138.62 162.33,-134.97 168.27,-132.01 174.44,-129.61"/>
<polygon fill="#63b8ff" stroke="#63b8ff" points="66.49,-256.64 65.87,-267.22 72.95,-259.34 66.49,-256.64"/>
</a>
</g>
</g>
<!-- Node4 -->
<g id="Node000004" class="node">
<title>Node4</title>
<g id="a_Node000004"><a xlink:href="class_im_fusion_1_1_optimizer_b_f_g_s.html" target="_top" xlink:title="Implementation of the Broyden–Fletcher–Goldfarb–Shanno (BFGS) optimizer.">
<polygon fill="white" stroke="#666666" points="507.75,-621.25 376.25,-621.25 376.25,-602 507.75,-602 507.75,-621.25"/>
<text xml:space="preserve" text-anchor="middle" x="442" y="-607.75" font-family="Helvetica,sans-Serif" font-size="10.00">ImFusion::OptimizerBFGS</text>
</a>
</g>
</g>
<!-- Node3&#45;&gt;Node4 -->
<g id="edge3_Node000003_Node000004" class="edge">
<title>Node3&#45;&gt;Node4</title>
<g id="a_edge3_Node000003_Node000004"><a xlink:title=" ">
<path fill="none" stroke="#63b8ff" d="M301.76,-470.48C308.45,-473.19 314.72,-476.81 320,-481.62 358.62,-516.88 317.19,-558.59 356,-593.62 361.71,-598.78 368.52,-602.59 375.76,-605.4"/>
<polygon fill="#63b8ff" stroke="#63b8ff" points="303.04,-467.21 292.44,-467.4 300.84,-473.86 303.04,-467.21"/>
</a>
</g>
</g>
<!-- Node5 -->
<g id="Node000005" class="node">
<title>Node5</title>
<g id="a_Node000005"><a xlink:href="class_im_fusion_1_1_optimizer_di_rect.html" target="_top" xlink:title="Global optimizer based on Dividing Rectangles algorithm.">
<polygon fill="white" stroke="#666666" points="509.62,-584.25 374.38,-584.25 374.38,-565 509.62,-565 509.62,-584.25"/>
<text xml:space="preserve" text-anchor="middle" x="442" y="-570.75" font-family="Helvetica,sans-Serif" font-size="10.00">ImFusion::OptimizerDiRect</text>
</a>
</g>
</g>
<!-- Node3&#45;&gt;Node5 -->
<g id="edge4_Node000003_Node000005" class="edge">
<title>Node3&#45;&gt;Node5</title>
<g id="a_edge4_Node000003_Node000005"><a xlink:title=" ">
<path fill="none" stroke="#63b8ff" d="M301.69,-471.4C308.28,-473.96 314.56,-477.3 320,-481.62 348.94,-504.63 326.93,-533.78 356,-556.62 361.46,-560.91 367.7,-564.24 374.26,-566.81"/>
<polygon fill="#63b8ff" stroke="#63b8ff" points="303.16,-468.2 292.57,-468.45 301,-474.86 303.16,-468.2"/>
</a>
</g>
</g>
<!-- Node6 -->
<g id="Node000006" class="node">
<title>Node6</title>
<g id="a_Node000006"><a xlink:href="class_im_fusion_1_1_optimizer_n_l.html" target="_top" xlink:title="Non&#45;linear optimization using the NLOpt library.">
<polygon fill="white" stroke="#666666" points="500.62,-547.25 383.38,-547.25 383.38,-528 500.62,-528 500.62,-547.25"/>
<text xml:space="preserve" text-anchor="middle" x="442" y="-533.75" font-family="Helvetica,sans-Serif" font-size="10.00">ImFusion::OptimizerNL</text>
</a>
</g>
</g>
<!-- Node3&#45;&gt;Node6 -->
<g id="edge5_Node000003_Node000006" class="edge">
<title>Node3&#45;&gt;Node6</title>
<g id="a_edge5_Node000003_Node000006"><a xlink:title=" ">
<path fill="none" stroke="#63b8ff" d="M301.79,-473.6C308.14,-475.77 314.34,-478.41 320,-481.62 340.23,-493.11 335.7,-508.26 356,-519.62 364.29,-524.27 373.65,-527.72 383.05,-530.28"/>
<polygon fill="#63b8ff" stroke="#63b8ff" points="303.04,-470.32 292.45,-470.81 301.03,-477.03 303.04,-470.32"/>
</a>
</g>
</g>
<!-- Node7 -->
<g id="Node000007" class="node">
<title>Node7</title>
<g id="a_Node000007"><a xlink:href="class_im_fusion_1_1_optimizer_nelder_mead.html" target="_top" xlink:title="Local optimizer based on Neldea&#45;Mead algorithm (also known as downhill simplex method) (see for insta...">
<polygon fill="white" stroke="#666666" points="520.5,-510.25 363.5,-510.25 363.5,-491 520.5,-491 520.5,-510.25"/>
<text xml:space="preserve" text-anchor="middle" x="442" y="-496.75" font-family="Helvetica,sans-Serif" font-size="10.00">ImFusion::OptimizerNelderMead</text>
</a>
</g>
</g>
<!-- Node3&#45;&gt;Node7 -->
<g id="edge6_Node000003_Node000007" class="edge">
<title>Node3&#45;&gt;Node7</title>
<g id="a_edge6_Node000003_Node000007"><a xlink:title=" ">
<path fill="none" stroke="#63b8ff" d="M302.33,-475.16C329.12,-480.08 360.1,-485.77 385.98,-490.52"/>
<polygon fill="#63b8ff" stroke="#63b8ff" points="303.09,-471.74 292.62,-473.38 301.82,-478.63 303.09,-471.74"/>
</a>
</g>
</g>
<!-- Node8 -->
<g id="Node000008" class="node">
<title>Node8</title>
<g id="a_Node000008"><a xlink:href="class_im_fusion_1_1_optimizer_reload.html" target="_top" xlink:title="Optimizer that reloads all information from a previously logged file.">
<polygon fill="white" stroke="#666666" points="509.62,-473.25 374.38,-473.25 374.38,-454 509.62,-454 509.62,-473.25"/>
<text xml:space="preserve" text-anchor="middle" x="442" y="-459.75" font-family="Helvetica,sans-Serif" font-size="10.00">ImFusion::OptimizerReload</text>
</a>
</g>
</g>
<!-- Node3&#45;&gt;Node8 -->
<g id="edge7_Node000003_Node000008" class="edge">
<title>Node3&#45;&gt;Node8</title>
<g id="a_edge7_Node000003_Node000008"><a xlink:title=" ">
<path fill="none" stroke="#63b8ff" d="M302.36,-463.62C325.09,-463.62 350.82,-463.62 373.9,-463.62"/>
<polygon fill="#63b8ff" stroke="#63b8ff" points="302.64,-460.13 292.64,-463.63 302.64,-467.13 302.64,-460.13"/>
</a>
</g>
</g>
<!-- Node9 -->
<g id="Node000009" class="node">
<title>Node9</title>
<g id="a_Node000009"><a xlink:href="class_im_fusion_1_1_optimizer_series.html" target="_top" xlink:title="Series of multiple successive optimizations bundled in one execution.">
<polygon fill="white" stroke="#666666" points="508.12,-436.25 375.88,-436.25 375.88,-417 508.12,-417 508.12,-436.25"/>
<text xml:space="preserve" text-anchor="middle" x="442" y="-422.75" font-family="Helvetica,sans-Serif" font-size="10.00">ImFusion::OptimizerSeries</text>
</a>
</g>
</g>
<!-- Node3&#45;&gt;Node9 -->
<g id="edge8_Node000003_Node000009" class="edge">
<title>Node3&#45;&gt;Node9</title>
<g id="a_edge8_Node000003_Node000009"><a xlink:title=" ">
<path fill="none" stroke="#63b8ff" d="M302.33,-452.09C329.12,-447.17 360.1,-441.48 385.98,-436.73"/>
<polygon fill="#63b8ff" stroke="#63b8ff" points="301.82,-448.62 292.62,-453.87 303.09,-455.51 301.82,-448.62"/>
</a>
</g>
</g>
<!-- Node10 -->
<g id="Node000010" class="node">
<title>Node10</title>
<g id="a_Node000010"><a xlink:href="class_im_fusion_1_1_optimizer_x_n_e_s.html" target="_top" xlink:title="XNES optimizer.">
<polygon fill="white" stroke="#666666" points="508.12,-399.25 375.88,-399.25 375.88,-380 508.12,-380 508.12,-399.25"/>
<text xml:space="preserve" text-anchor="middle" x="442" y="-385.75" font-family="Helvetica,sans-Serif" font-size="10.00">ImFusion::OptimizerXNES</text>
</a>
</g>
</g>
<!-- Node3&#45;&gt;Node10 -->
<g id="edge9_Node000003_Node000010" class="edge">
<title>Node3&#45;&gt;Node10</title>
<g id="a_edge9_Node000003_Node000010"><a xlink:title=" ">
<path fill="none" stroke="#63b8ff" d="M266.88,-448.14C290,-435.65 324.32,-418.42 356,-407.62 365,-404.56 374.71,-401.91 384.25,-399.67"/>
<polygon fill="#63b8ff" stroke="#63b8ff" points="265.51,-444.91 258.42,-452.79 268.87,-451.04 265.51,-444.91"/>
</a>
</g>
</g>
<!-- Node13 -->
<g id="Node000013" class="node">
<title>Node13</title>
<g id="a_Node000013"><a xlink:href="class_im_fusion_1_1_feature_maps_registration_algorithm.html" target="_top" xlink:title="Algorithm for registering feature maps volumes.">
<polygon fill="white" stroke="#666666" points="528,-361.88 356,-361.88 356,-331.38 528,-331.38 528,-361.88"/>
<text xml:space="preserve" text-anchor="start" x="364" y="-348.38" font-family="Helvetica,sans-Serif" font-size="10.00">ImFusion::FeatureMapsRegistration</text>
<text xml:space="preserve" text-anchor="middle" x="442" y="-337.12" font-family="Helvetica,sans-Serif" font-size="10.00">Algorithm</text>
</a>
</g>
</g>
<!-- Node12&#45;&gt;Node13 -->
<g id="edge12_Node000012_Node000013" class="edge">
<title>Node12&#45;&gt;Node13</title>
<g id="a_edge12_Node000012_Node000013"><a xlink:title=" ">
<path fill="none" stroke="#63b8ff" d="M296.56,-310.15C304.44,-311.95 312.43,-313.81 320,-315.62 339.93,-320.4 361.63,-325.88 381.08,-330.89"/>
<polygon fill="#63b8ff" stroke="#63b8ff" points="297.53,-306.79 287.01,-308 295.99,-313.61 297.53,-306.79"/>
</a>
</g>
</g>
<!-- Node14 -->
<g id="Node000014" class="node">
<title>Node14</title>
<g id="a_Node000014"><a xlink:href="class_im_fusion_1_1_fit_bounding_box_algorithm.html" target="_top" xlink:title="Algorithm to fit an oriented bounding box.">
<polygon fill="white" stroke="#666666" points="507.75,-312.88 376.25,-312.88 376.25,-282.38 507.75,-282.38 507.75,-312.88"/>
<text xml:space="preserve" text-anchor="start" x="384.25" y="-299.38" font-family="Helvetica,sans-Serif" font-size="10.00">ImFusion::FitBoundingBox</text>
<text xml:space="preserve" text-anchor="middle" x="442" y="-288.12" font-family="Helvetica,sans-Serif" font-size="10.00">Algorithm</text>
</a>
</g>
</g>
<!-- Node12&#45;&gt;Node14 -->
<g id="edge13_Node000012_Node000014" class="edge">
<title>Node12&#45;&gt;Node14</title>
<g id="a_edge13_Node000012_Node000014"><a xlink:title=" ">
<path fill="none" stroke="#63b8ff" d="M325.02,-297.62C342.03,-297.62 359.62,-297.62 375.81,-297.62"/>
<polygon fill="#63b8ff" stroke="#63b8ff" points="325.47,-294.13 315.47,-297.63 325.47,-301.13 325.47,-294.13"/>
</a>
</g>
</g>
<!-- Node15 -->
<g id="Node000015" class="node">
<title>Node15</title>
<g id="a_Node000015"><a xlink:href="class_im_fusion_1_1_registration_from_prediction_map_algorithm.html" target="_top" xlink:title="Algorithm to register two images based on prediction maps.">
<polygon fill="white" stroke="#666666" points="510.75,-263.88 373.25,-263.88 373.25,-233.38 510.75,-233.38 510.75,-263.88"/>
<text xml:space="preserve" text-anchor="start" x="381.25" y="-250.38" font-family="Helvetica,sans-Serif" font-size="10.00">ImFusion::RegistrationFrom</text>
<text xml:space="preserve" text-anchor="middle" x="442" y="-239.12" font-family="Helvetica,sans-Serif" font-size="10.00">PredictionMapAlgorithm</text>
</a>
</g>
</g>
<!-- Node12&#45;&gt;Node15 -->
<g id="edge14_Node000012_Node000015" class="edge">
<title>Node12&#45;&gt;Node15</title>
<g id="a_edge14_Node000012_Node000015"><a xlink:title=" ">
<path fill="none" stroke="#63b8ff" d="M296.56,-285.1C304.44,-283.3 312.43,-281.44 320,-279.62 339.93,-274.85 361.63,-269.37 381.08,-264.36"/>
<polygon fill="#63b8ff" stroke="#63b8ff" points="295.99,-281.64 287.01,-287.25 297.53,-288.46 295.99,-281.64"/>
</a>
</g>
</g>
<!-- Node19 -->
<g id="Node000019" class="node">
<title>Node19</title>
<g id="a_Node000019"><a xlink:href="class_im_fusion_1_1_gated_linear4_d_image_registration.html" target="_top" xlink:title="Registers two volume clips using a rigid/affine transformation, including a gating phase offset betwe...">
<polygon fill="white" stroke="#666666" points="519.38,-214.88 364.62,-214.88 364.62,-184.38 519.38,-184.38 519.38,-214.88"/>
<text xml:space="preserve" text-anchor="start" x="372.62" y="-201.38" font-family="Helvetica,sans-Serif" font-size="10.00">ImFusion::GatedLinear4DImage</text>
<text xml:space="preserve" text-anchor="middle" x="442" y="-190.12" font-family="Helvetica,sans-Serif" font-size="10.00">Registration</text>
</a>
</g>
</g>
<!-- Node18&#45;&gt;Node19 -->
<g id="edge18_Node000018_Node000019" class="edge">
<title>Node18&#45;&gt;Node19</title>
<g id="a_edge18_Node000018_Node000019"><a xlink:title=" ">
<path fill="none" stroke="#63b8ff" d="M318.04,-177.05C333.19,-179.83 349.04,-182.74 364.14,-185.51"/>
<polygon fill="#63b8ff" stroke="#63b8ff" points="319.11,-173.69 308.65,-175.32 317.85,-180.57 319.11,-173.69"/>
</a>
</g>
</g>
<!-- Node20 -->
<g id="Node000020" class="node">
<title>Node20</title>
<g id="a_Node000020"><a xlink:href="class_im_fusion_1_1_linear_grid_registration.html" target="_top" xlink:title="Registers a set of images arranged in a 2D grid.">
<polygon fill="white" stroke="#666666" points="521.62,-166.25 362.38,-166.25 362.38,-147 521.62,-147 521.62,-166.25"/>
<text xml:space="preserve" text-anchor="middle" x="442" y="-152.75" font-family="Helvetica,sans-Serif" font-size="10.00">ImFusion::LinearGridRegistration</text>
</a>
</g>
</g>
<!-- Node18&#45;&gt;Node20 -->
<g id="edge19_Node000018_Node000020" class="edge">
<title>Node18&#45;&gt;Node20</title>
<g id="a_edge19_Node000018_Node000020"><a xlink:title=" ">
<path fill="none" stroke="#63b8ff" d="M318.48,-160.27C332.79,-159.85 347.71,-159.4 362.02,-158.98"/>
<polygon fill="#63b8ff" stroke="#63b8ff" points="318.56,-156.77 308.67,-160.57 318.77,-163.77 318.56,-156.77"/>
</a>
</g>
</g>
<!-- Node21 -->
<g id="Node000021" class="node">
<title>Node21</title>
<g id="a_Node000021"><a xlink:href="class_im_fusion_1_1_linear_image_registration.html" target="_top" xlink:title="Registers two images using a rigid/affine transformation.">
<polygon fill="white" stroke="#666666" points="526.12,-129.25 357.88,-129.25 357.88,-110 526.12,-110 526.12,-129.25"/>
<text xml:space="preserve" text-anchor="middle" x="442" y="-115.75" font-family="Helvetica,sans-Serif" font-size="10.00">ImFusion::LinearImageRegistration</text>
</a>
</g>
</g>
<!-- Node18&#45;&gt;Node21 -->
<g id="edge20_Node000018_Node000021" class="edge">
<title>Node18&#45;&gt;Node21</title>
<g id="a_edge20_Node000018_Node000021"><a xlink:title=" ">
<path fill="none" stroke="#63b8ff" d="M318.25,-145.7C330.87,-142.99 343.79,-140.23 356,-137.62 368.1,-135.05 381.17,-132.27 393.34,-129.69"/>
<polygon fill="#63b8ff" stroke="#63b8ff" points="317.78,-142.22 308.74,-147.74 319.25,-149.06 317.78,-142.22"/>
</a>
</g>
</g>
<!-- Node22 -->
<g id="Node000022" class="node">
<title>Node22</title>
<g id="a_Node000022"><a xlink:href="class_im_fusion_1_1_parametric_deformable_registration.html" target="_top" xlink:title="Registers two images with a non&#45;linear deformation based on TPSs.">
<polygon fill="white" stroke="#666666" points="522,-91.88 362,-91.88 362,-61.38 522,-61.38 522,-91.88"/>
<text xml:space="preserve" text-anchor="start" x="370" y="-78.38" font-family="Helvetica,sans-Serif" font-size="10.00">ImFusion::ParametricDeformable</text>
<text xml:space="preserve" text-anchor="middle" x="442" y="-67.12" font-family="Helvetica,sans-Serif" font-size="10.00">Registration</text>
</a>
</g>
</g>
<!-- Node18&#45;&gt;Node22 -->
<g id="edge21_Node000018_Node000022" class="edge">
<title>Node18&#45;&gt;Node22</title>
<g id="a_edge21_Node000018_Node000022"><a xlink:title=" ">
<path fill="none" stroke="#63b8ff" d="M313.85,-142.12C315.95,-141.01 318.01,-139.85 320,-138.62 339.82,-126.44 336.09,-112.66 356,-100.62 361.25,-97.45 366.93,-94.68 372.79,-92.27"/>
<polygon fill="#63b8ff" stroke="#63b8ff" points="312.62,-138.83 305.06,-146.26 315.6,-145.16 312.62,-138.83"/>
</a>
</g>
</g>
<!-- Node23 -->
<g id="Node000023" class="node">
<title>Node23</title>
<g id="a_Node000023"><a xlink:href="class_im_fusion_1_1_f_f_d_image_registration.html" target="_top" xlink:title="Registers two images with a non&#45;linear deformation based on FFDs.">
<polygon fill="white" stroke="#666666" points="725.5,-154.25 564,-154.25 564,-135 725.5,-135 725.5,-154.25"/>
<text xml:space="preserve" text-anchor="middle" x="644.75" y="-140.75" font-family="Helvetica,sans-Serif" font-size="10.00">ImFusion::FFDImageRegistration</text>
</a>
</g>
</g>
<!-- Node22&#45;&gt;Node23 -->
<g id="edge22_Node000022_Node000023" class="edge">
<title>Node22&#45;&gt;Node23</title>
<g id="a_edge22_Node000022_Node000023"><a xlink:title=" ">
<path fill="none" stroke="#63b8ff" d="M517.92,-96.25C521.36,-97.63 524.74,-99.09 528,-100.62 545.62,-108.94 546.22,-117.67 564,-125.62 571.93,-129.17 580.6,-132.1 589.22,-134.52"/>
<polygon fill="#63b8ff" stroke="#63b8ff" points="519.44,-93.08 508.84,-92.87 516.99,-99.64 519.44,-93.08"/>
</a>
</g>
</g>
<!-- Node24 -->
<g id="Node000024" class="node">
<title>Node24</title>
<g id="a_Node000024"><a xlink:href="class_im_fusion_1_1_other_parametric_deformable_registration.html" target="_top" xlink:title="Registers two images with any other parametric deformation already set on the moving image.">
<polygon fill="white" stroke="#666666" points="711.62,-116.88 577.88,-116.88 577.88,-86.38 711.62,-86.38 711.62,-116.88"/>
<text xml:space="preserve" text-anchor="start" x="585.88" y="-103.38" font-family="Helvetica,sans-Serif" font-size="10.00">ImFusion::OtherParametric</text>
<text xml:space="preserve" text-anchor="middle" x="644.75" y="-92.12" font-family="Helvetica,sans-Serif" font-size="10.00">DeformableRegistration</text>
</a>
</g>
</g>
<!-- Node22&#45;&gt;Node24 -->
<g id="edge23_Node000022_Node000024" class="edge">
<title>Node22&#45;&gt;Node24</title>
<g id="a_edge23_Node000022_Node000024"><a xlink:title=" ">
<path fill="none" stroke="#63b8ff" d="M533.59,-87.91C548.41,-89.75 563.51,-91.63 577.6,-93.39"/>
<polygon fill="#63b8ff" stroke="#63b8ff" points="534.2,-84.46 523.84,-86.69 533.33,-91.4 534.2,-84.46"/>
</a>
</g>
</g>
<!-- Node25 -->
<g id="Node000025" class="node">
<title>Node25</title>
<g id="a_Node000025"><a xlink:href="class_im_fusion_1_1_poly_rigid_image_registration.html" target="_top" xlink:title="Registers two images with a non&#45;linear poly&#45;rigid deformation.">
<polygon fill="white" stroke="#666666" points="710.5,-67.88 579,-67.88 579,-37.38 710.5,-37.38 710.5,-67.88"/>
<text xml:space="preserve" text-anchor="start" x="587" y="-54.38" font-family="Helvetica,sans-Serif" font-size="10.00">ImFusion::PolyRigidImage</text>
<text xml:space="preserve" text-anchor="middle" x="644.75" y="-43.12" font-family="Helvetica,sans-Serif" font-size="10.00">Registration</text>
</a>
</g>
</g>
<!-- Node22&#45;&gt;Node25 -->
<g id="edge24_Node000022_Node000025" class="edge">
<title>Node22&#45;&gt;Node25</title>
<g id="a_edge24_Node000022_Node000025"><a xlink:title=" ">
<path fill="none" stroke="#63b8ff" d="M533.35,-65.82C548.58,-64 564.12,-62.15 578.55,-60.42"/>
<polygon fill="#63b8ff" stroke="#63b8ff" points="533.36,-62.3 523.84,-66.96 534.19,-69.25 533.36,-62.3"/>
</a>
</g>
</g>
<!-- Node26 -->
<g id="Node000026" class="node">
<title>Node26</title>
<g id="a_Node000026"><a xlink:href="class_im_fusion_1_1_t_p_s_image_registration.html" target="_top" xlink:title="Registers two images with a non&#45;linear deformation based on TPSs.">
<polygon fill="white" stroke="#666666" points="725.5,-19.25 564,-19.25 564,0 725.5,0 725.5,-19.25"/>
<text xml:space="preserve" text-anchor="middle" x="644.75" y="-5.75" font-family="Helvetica,sans-Serif" font-size="10.00">ImFusion::TPSImageRegistration</text>
</a>
</g>
</g>
<!-- Node22&#45;&gt;Node26 -->
<g id="edge25_Node000022_Node000026" class="edge">
<title>Node22&#45;&gt;Node26</title>
<g id="a_edge25_Node000022_Node000026"><a xlink:title=" ">
<path fill="none" stroke="#63b8ff" d="M489.05,-56.55C511.4,-47.27 538.81,-36.58 564,-28.62 574.45,-25.33 585.83,-22.29 596.63,-19.66"/>
<polygon fill="#63b8ff" stroke="#63b8ff" points="487.78,-53.29 479.91,-60.39 490.49,-59.74 487.78,-53.29"/>
</a>
</g>
</g>
</g>
</svg>

<g id="navigator" transform="translate(0 0)" fill="#404254">
  <rect fill="#f2f5e9" fill-opacity="0.5" stroke="#606060" stroke-width=".5" x="0" y="0" width="60" height="60"/>
  <use id="zoomplus" xlink:href="#zoomPlus" x="17" y="9" onmousedown="handleZoom(evt,'in')"/>
  <use id="zoomminus" xlink:href="#zoomMin" x="42" y="9" onmousedown="handleZoom(evt,'out')"/>
  <use id="reset" xlink:href="#resetDef" x="30" y="36" onmousedown="handleReset()"/>
   <use id="arrowup" xlink:href="#arrowUp" x="0" y="0" onmousedown="handlePan(0,-1)"/>
  <use id="arrowright" xlink:href="#arrowRight" x="0" y="0" onmousedown="handlePan(1,0)"/>
  <use id="arrowdown" xlink:href="#arrowDown" x="0" y="0" onmousedown="handlePan(0,1)"/>
  <use id="arrowleft" xlink:href="#arrowLeft" x="0" y="0" onmousedown="handlePan(-1,0)"/>
</g>
<svg viewBox="0 0 15 15" width="100%" height="30px" preserveAspectRatio="xMaxYMin meet">
 <g id="arrow_out" transform="scale(0.3 0.3)">
  <a xlink:href="class_im_fusion_1_1_cost_function__inherit__graph_org.svg" target="_base">
   <rect id="button" ry="5" rx="5" y="6" x="6" height="38" width="38"
        fill="#f2f5e9" fill-opacity="0.5" stroke="#606060" stroke-width="1.0"/>
   <path id="arrow"
     d="M 11.500037,31.436501 C 11.940474,20.09759 22.043105,11.32322 32.158766,21.979434 L 37.068811,17.246167 C 37.068811,17.246167 37.088388,32 37.088388,32 L 22.160133,31.978069 C 22.160133,31.978069 26.997745,27.140456 26.997745,27.140456 C 18.528582,18.264221 13.291696,25.230495 11.500037,31.436501 z"
     style="fill:#404040;"/>
  </a>
 </g>
</svg>

<style type='text/css'>
<![CDATA[
[data-mouse-over-selected='false'] { opacity: 0.7; }
[data-mouse-over-selected='true']  { opacity: 1.0; }
]]>
</style>
<script type="application/ecmascript"><![CDATA[
document.addEventListener('DOMContentLoaded', (event) => {
  highlightEdges();
  highlightAdjacentNodes();
});
]]></script>
</svg>
