<?xml version="1.0" encoding="UTF-8" standalone="no"?>
<!DOCTYPE svg PUBLIC "-//W3C//DTD SVG 1.1//EN"
 "http://www.w3.org/Graphics/SVG/1.1/DTD/svg11.dtd">
<!-- Generated by graphviz version 14.1.4 (20260321.0153)
 -->
<!-- Title: ImFusion::CompoundData Pages: 1 -->
<svg width="306pt" height="83pt"
 viewBox="0.00 0.00 306.00 83.00" xmlns="http://www.w3.org/2000/svg" xmlns:xlink="http://www.w3.org/1999/xlink">
<g id="graph0" class="graph" transform="scale(1 1) rotate(0) translate(4 78.5)">
<title>ImFusion::CompoundData</title>
<!-- Node1 -->
<g id="Node000001" class="node">
<title>Node1</title>
<g id="a_Node000001"><a xlink:title="Interface for datasets that are formed by one or multiple other nested Data instances.">
<polygon fill="#999999" stroke="#666666" points="199.25,-74.5 68.5,-74.5 68.5,-55.25 199.25,-55.25 199.25,-74.5"/>
<text xml:space="preserve" text-anchor="middle" x="133.88" y="-61" font-family="Helvetica,sans-Serif" font-size="10.00">ImFusion::CompoundData</text>
</a>
</g>
</g>
<!-- Node2 -->
<g id="Node000002" class="node">
<title>Node2</title>
<g id="a_Node000002"><a xlink:href="class_im_fusion_1_1_data_group.html" target="_top" xlink:title="Data element that groups multiple Data instances together in a hierarchical fashion.">
<polygon fill="white" stroke="#666666" points="109.75,-19.25 0,-19.25 0,0 109.75,0 109.75,-19.25"/>
<text xml:space="preserve" text-anchor="middle" x="54.88" y="-5.75" font-family="Helvetica,sans-Serif" font-size="10.00">ImFusion::DataGroup</text>
</a>
</g>
</g>
<!-- Node1&#45;&gt;Node2 -->
<g id="edge1_Node000001_Node000002" class="edge">
<title>Node1&#45;&gt;Node2</title>
<g id="a_edge1_Node000001_Node000002"><a xlink:title=" ">
<path fill="none" stroke="#63b8ff" d="M111.11,-48.53C97.27,-39.2 80.05,-27.6 68.34,-19.7"/>
<polygon fill="#63b8ff" stroke="#63b8ff" points="108.97,-51.31 119.22,-54 112.88,-45.5 108.97,-51.31"/>
</a>
</g>
</g>
<!-- Node3 -->
<g id="Node000003" class="node">
<title>Node3</title>
<g id="a_Node000003"><a xlink:href="class_im_fusion_1_1_tracked_shared_image_set.html" target="_top" xlink:title="Set of images with arbitrarily sampled tracking data.">
<polygon fill="white" stroke="#666666" points="298.12,-19.25 127.62,-19.25 127.62,0 298.12,0 298.12,-19.25"/>
<text xml:space="preserve" text-anchor="middle" x="212.88" y="-5.75" font-family="Helvetica,sans-Serif" font-size="10.00">ImFusion::TrackedSharedImageSet</text>
</a>
</g>
</g>
<!-- Node1&#45;&gt;Node3 -->
<g id="edge2_Node000001_Node000003" class="edge">
<title>Node1&#45;&gt;Node3</title>
<g id="a_edge2_Node000001_Node000003"><a xlink:title=" ">
<path fill="none" stroke="#63b8ff" d="M156.64,-48.53C170.48,-39.2 187.7,-27.6 199.41,-19.7"/>
<polygon fill="#63b8ff" stroke="#63b8ff" points="154.87,-45.5 148.53,-54 158.78,-51.31 154.87,-45.5"/>
</a>
</g>
</g>
</g>
</svg>
