<?xml version="1.0" encoding="UTF-8" standalone="no"?>
<!DOCTYPE svg PUBLIC "-//W3C//DTD SVG 1.1//EN"
 "http://www.w3.org/Graphics/SVG/1.1/DTD/svg11.dtd">
<!-- Generated by graphviz version 14.1.4 (20260321.0153)
 -->
<!-- Title: ImFusion::ProgressDialog Pages: 1 -->
<svg width="201pt" height="138pt"
 viewBox="0.00 0.00 201.00 138.00" xmlns="http://www.w3.org/2000/svg" xmlns:xlink="http://www.w3.org/1999/xlink">
<g id="graph0" class="graph" transform="scale(1 1) rotate(0) translate(4 133.75)">
<title>ImFusion::ProgressDialog</title>
<!-- Node1 -->
<g id="Node000001" class="node">
<title>Node1</title>
<g id="a_Node000001"><a xlink:title="QDialog&#45;based progress reporter that shows one QProgressBar for each progress task.">
<polygon fill="#999999" stroke="#666666" points="137.25,-19.25 8,-19.25 8,0 137.25,0 137.25,-19.25"/>
<text xml:space="preserve" text-anchor="middle" x="72.62" y="-5.75" font-family="Helvetica,sans-Serif" font-size="10.00">ImFusion::ProgressDialog</text>
</a>
</g>
</g>
<!-- Node2 -->
<g id="Node000002" class="node">
<title>Node2</title>
<g id="a_Node000002"><a xlink:title=" ">
<polygon fill="white" stroke="#bfbfbf" points="51.25,-74.5 0,-74.5 0,-55.25 51.25,-55.25 51.25,-74.5"/>
<text xml:space="preserve" text-anchor="middle" x="25.62" y="-61" font-family="Helvetica,sans-Serif" font-size="10.00">QDialog</text>
</a>
</g>
</g>
<!-- Node2&#45;&gt;Node1 -->
<g id="edge1_Node000001_Node000002" class="edge">
<title>Node2&#45;&gt;Node1</title>
<g id="a_edge1_Node000001_Node000002"><a xlink:title=" ">
<path fill="none" stroke="#63b8ff" d="M40.95,-46.51C48.88,-37.53 58.22,-26.95 64.7,-19.61"/>
<polygon fill="#63b8ff" stroke="#63b8ff" points="38.38,-44.13 34.39,-53.95 43.63,-48.77 38.38,-44.13"/>
</a>
</g>
</g>
<!-- Node3 -->
<g id="Node000003" class="node">
<title>Node3</title>
<g id="a_Node000003"><a xlink:href="class_im_fusion_1_1_progress.html" target="_top" xlink:title="Generic interface to report operation/computation progress.">
<polygon fill="white" stroke="#666666" points="170.38,-74.5 68.88,-74.5 68.88,-55.25 170.38,-55.25 170.38,-74.5"/>
<text xml:space="preserve" text-anchor="middle" x="119.62" y="-61" font-family="Helvetica,sans-Serif" font-size="10.00">ImFusion::Progress</text>
</a>
</g>
</g>
<!-- Node3&#45;&gt;Node1 -->
<g id="edge2_Node000001_Node000003" class="edge">
<title>Node3&#45;&gt;Node1</title>
<g id="a_edge2_Node000001_Node000003"><a xlink:title=" ">
<path fill="none" stroke="#63b8ff" d="M104.3,-46.51C96.37,-37.53 87.03,-26.95 80.55,-19.61"/>
<polygon fill="#63b8ff" stroke="#63b8ff" points="101.62,-48.77 110.86,-53.95 106.87,-44.13 101.62,-48.77"/>
</a>
</g>
</g>
<!-- Node4 -->
<g id="Node000004" class="node">
<title>Node4</title>
<g id="a_Node000004"><a xlink:href="class_im_fusion_1_1_utils_1_1_not_copyable.html" target="_top" xlink:title="Inherit from this class if your class should be neither copy&#45;constructible nor assignable.">
<polygon fill="white" stroke="#666666" points="192.5,-129.75 46.75,-129.75 46.75,-110.5 192.5,-110.5 192.5,-129.75"/>
<text xml:space="preserve" text-anchor="middle" x="119.62" y="-116.25" font-family="Helvetica,sans-Serif" font-size="10.00">ImFusion::Utils::NotCopyable</text>
</a>
</g>
</g>
<!-- Node4&#45;&gt;Node3 -->
<g id="edge3_Node000003_Node000004" class="edge">
<title>Node4&#45;&gt;Node3</title>
<g id="a_edge3_Node000003_Node000004"><a xlink:title=" ">
<path fill="none" stroke="#8b1a1a" d="M119.62,-98.88C119.62,-90.59 119.62,-81.42 119.62,-74.86"/>
<polygon fill="#8b1a1a" stroke="#8b1a1a" points="116.13,-98.82 119.63,-108.82 123.13,-98.82 116.13,-98.82"/>
</a>
</g>
</g>
</g>
</svg>
