<?xml version="1.0" encoding="UTF-8" standalone="no"?>
<!DOCTYPE svg PUBLIC "-//W3C//DTD SVG 1.1//EN"
 "http://www.w3.org/Graphics/SVG/1.1/DTD/svg11.dtd">
<!-- Generated by graphviz version 14.1.4 (20260321.0153)
 -->
<!-- Title: ImFusion::InteractiveOverlay Pages: 1 -->
<svg width="867pt" height="223pt"
 viewBox="0.00 0.00 867.00 223.00" xmlns="http://www.w3.org/2000/svg" xmlns:xlink="http://www.w3.org/1999/xlink">
<g id="graph0" class="graph" transform="scale(1 1) rotate(0) translate(4 218.88)">
<title>ImFusion::InteractiveOverlay</title>
<!-- Node1 -->
<g id="Node000001" class="node">
<title>Node1</title>
<g id="a_Node000001"><a xlink:title="Wraps a GlOverlay in order to display it at specific positions in an InteractiveView.">
<polygon fill="#999999" stroke="#666666" points="501.75,-111.25 359.75,-111.25 359.75,-92 501.75,-92 501.75,-111.25"/>
<text xml:space="preserve" text-anchor="middle" x="430.75" y="-97.75" font-family="Helvetica,sans-Serif" font-size="10.00">ImFusion::InteractiveOverlay</text>
</a>
</g>
</g>
<!-- Node7 -->
<g id="Node000007" class="node">
<title>Node7</title>
<g id="a_Node000007"><a xlink:href="class_im_fusion_1_1_interactive_button_overlay.html" target="_top" xlink:title="Interactive overlay for a click&#45;able button.">
<polygon fill="white" stroke="#666666" points="683.88,-214.88 547.12,-214.88 547.12,-184.38 683.88,-184.38 683.88,-214.88"/>
<text xml:space="preserve" text-anchor="start" x="555.12" y="-201.38" font-family="Helvetica,sans-Serif" font-size="10.00">ImFusion::InteractiveButton</text>
<text xml:space="preserve" text-anchor="middle" x="615.5" y="-190.12" font-family="Helvetica,sans-Serif" font-size="10.00">Overlay</text>
</a>
</g>
</g>
<!-- Node1&#45;&gt;Node7 -->
<g id="edge6_Node000001_Node000007" class="edge">
<title>Node1&#45;&gt;Node7</title>
<g id="a_edge6_Node000001_Node000007"><a xlink:title=" ">
<path fill="none" stroke="#63b8ff" d="M452.55,-118.66C473.15,-134.85 506.1,-158.99 537.75,-174.62 544.66,-178.04 552.14,-181.14 559.63,-183.91"/>
<polygon fill="#63b8ff" stroke="#63b8ff" points="454.93,-116.08 444.93,-112.57 450.56,-121.55 454.93,-116.08"/>
</a>
</g>
</g>
<!-- Node9 -->
<g id="Node000009" class="node">
<title>Node9</title>
<g id="a_Node000009"><a xlink:href="class_im_fusion_1_1_interactive_histogram_overlay.html" target="_top" xlink:title="Wraps a GlHistogramOverlay object (that contains a GlHistogram) in an InteractiveOverlay.">
<polygon fill="white" stroke="#666666" points="692.12,-165.88 538.88,-165.88 538.88,-135.38 692.12,-135.38 692.12,-165.88"/>
<text xml:space="preserve" text-anchor="start" x="546.88" y="-152.38" font-family="Helvetica,sans-Serif" font-size="10.00">ImFusion::InteractiveHistogram</text>
<text xml:space="preserve" text-anchor="middle" x="615.5" y="-141.12" font-family="Helvetica,sans-Serif" font-size="10.00">Overlay</text>
</a>
</g>
</g>
<!-- Node1&#45;&gt;Node9 -->
<g id="edge8_Node000001_Node000009" class="edge">
<title>Node1&#45;&gt;Node9</title>
<g id="a_edge8_Node000001_Node000009"><a xlink:title=" ">
<path fill="none" stroke="#63b8ff" d="M480.16,-114.61C503.41,-120.84 531.45,-128.36 555.9,-134.91"/>
<polygon fill="#63b8ff" stroke="#63b8ff" points="481.2,-111.26 470.64,-112.05 479.39,-118.02 481.2,-111.26"/>
</a>
</g>
</g>
<!-- Node10 -->
<g id="Node000010" class="node">
<title>Node10</title>
<g id="a_Node000010"><a xlink:href="class_im_fusion_1_1_interactive_orientation_mesh_overlay.html" target="_top" xlink:title="The InteractiveOrientationMeshOverlay class wraps a GlOrientationMeshOverlay and does not provide any...">
<polygon fill="white" stroke="#666666" points="693.25,-116.88 537.75,-116.88 537.75,-86.38 693.25,-86.38 693.25,-116.88"/>
<text xml:space="preserve" text-anchor="start" x="545.75" y="-103.38" font-family="Helvetica,sans-Serif" font-size="10.00">ImFusion::InteractiveOrientation</text>
<text xml:space="preserve" text-anchor="middle" x="615.5" y="-92.12" font-family="Helvetica,sans-Serif" font-size="10.00">MeshOverlay</text>
</a>
</g>
</g>
<!-- Node1&#45;&gt;Node10 -->
<g id="edge9_Node000001_Node000010" class="edge">
<title>Node1&#45;&gt;Node10</title>
<g id="a_edge9_Node000001_Node000010"><a xlink:title=" ">
<path fill="none" stroke="#63b8ff" d="M513.65,-101.62C521.57,-101.62 529.59,-101.62 537.46,-101.62"/>
<polygon fill="#63b8ff" stroke="#63b8ff" points="513.66,-98.13 503.66,-101.63 513.66,-105.13 513.66,-98.13"/>
</a>
</g>
</g>
<!-- Node11 -->
<g id="Node000011" class="node">
<title>Node11</title>
<g id="a_Node000011"><a xlink:href="class_im_fusion_1_1_interactive_scale_overlay.html" target="_top" xlink:title="Wraps a GlScaleOverlay.">
<polygon fill="white" stroke="#666666" points="682,-67.88 549,-67.88 549,-37.38 682,-37.38 682,-67.88"/>
<text xml:space="preserve" text-anchor="start" x="557" y="-54.38" font-family="Helvetica,sans-Serif" font-size="10.00">ImFusion::InteractiveScale</text>
<text xml:space="preserve" text-anchor="middle" x="615.5" y="-43.12" font-family="Helvetica,sans-Serif" font-size="10.00">Overlay</text>
</a>
</g>
</g>
<!-- Node1&#45;&gt;Node11 -->
<g id="edge10_Node000001_Node000011" class="edge">
<title>Node1&#45;&gt;Node11</title>
<g id="a_edge10_Node000001_Node000011"><a xlink:title=" ">
<path fill="none" stroke="#63b8ff" d="M480.16,-88.64C503.41,-82.41 531.45,-74.89 555.9,-68.34"/>
<polygon fill="#63b8ff" stroke="#63b8ff" points="479.39,-85.23 470.64,-91.2 481.2,-91.99 479.39,-85.23"/>
</a>
</g>
</g>
<!-- Node12 -->
<g id="Node000012" class="node">
<title>Node12</title>
<g id="a_Node000012"><a xlink:href="class_im_fusion_1_1_slice_index_overlay.html" target="_top" xlink:title="Renders the current slice number and total slices of the first data in the assigned view eg.">
<polygon fill="white" stroke="#666666" points="686.5,-19.25 544.5,-19.25 544.5,0 686.5,0 686.5,-19.25"/>
<text xml:space="preserve" text-anchor="middle" x="615.5" y="-5.75" font-family="Helvetica,sans-Serif" font-size="10.00">ImFusion::SliceIndexOverlay</text>
</a>
</g>
</g>
<!-- Node1&#45;&gt;Node12 -->
<g id="edge11_Node000001_Node000012" class="edge">
<title>Node1&#45;&gt;Node12</title>
<g id="a_edge11_Node000001_Node000012"><a xlink:title=" ">
<path fill="none" stroke="#63b8ff" d="M451.98,-84.36C472.37,-67.79 505.38,-43.19 537.75,-28.62 545.64,-25.08 554.29,-22.12 562.85,-19.69"/>
<polygon fill="#63b8ff" stroke="#63b8ff" points="449.92,-81.51 444.46,-90.59 454.39,-86.9 449.92,-81.51"/>
</a>
</g>
</g>
<!-- Node2 -->
<g id="Node000002" class="node">
<title>Node2</title>
<g id="a_Node000002"><a xlink:title=" ">
<polygon fill="white" stroke="#bfbfbf" points="278.75,-130.25 226.75,-130.25 226.75,-111 278.75,-111 278.75,-130.25"/>
<text xml:space="preserve" text-anchor="middle" x="252.75" y="-116.75" font-family="Helvetica,sans-Serif" font-size="10.00">QObject</text>
</a>
</g>
</g>
<!-- Node2&#45;&gt;Node1 -->
<g id="edge1_Node000001_Node000002" class="edge">
<title>Node2&#45;&gt;Node1</title>
<g id="a_edge1_Node000001_Node000002"><a xlink:title=" ">
<path fill="none" stroke="#63b8ff" d="M290.34,-116.68C310.3,-114.52 335.71,-111.78 359.35,-109.22"/>
<polygon fill="#63b8ff" stroke="#63b8ff" points="290.04,-113.19 280.47,-117.74 290.79,-120.15 290.04,-113.19"/>
</a>
</g>
</g>
<!-- Node3 -->
<g id="Node000003" class="node">
<title>Node3</title>
<g id="a_Node000003"><a xlink:href="class_im_fusion_1_1_g_u_i_1_1_view_overlay.html" target="_top" xlink:title="Wraps a GlOverlay in order to display it at specific positions inside a View and handle input events.">
<polygon fill="white" stroke="#666666" points="323.75,-93.25 181.75,-93.25 181.75,-74 323.75,-74 323.75,-93.25"/>
<text xml:space="preserve" text-anchor="middle" x="252.75" y="-79.75" font-family="Helvetica,sans-Serif" font-size="10.00">ImFusion::GUI::ViewOverlay</text>
</a>
</g>
</g>
<!-- Node3&#45;&gt;Node1 -->
<g id="edge2_Node000001_Node000003" class="edge">
<title>Node3&#45;&gt;Node1</title>
<g id="a_edge2_Node000001_Node000003"><a xlink:title=" ">
<path fill="none" stroke="#63b8ff" d="M335.3,-91.97C343.31,-92.78 351.38,-93.61 359.26,-94.42"/>
<polygon fill="#63b8ff" stroke="#63b8ff" points="335.88,-88.51 325.57,-90.97 335.17,-95.47 335.88,-88.51"/>
</a>
</g>
</g>
<!-- Node4 -->
<g id="Node000004" class="node">
<title>Node4</title>
<g id="a_Node000004"><a xlink:href="class_im_fusion_1_1_configurable.html" target="_top" xlink:title="Base interface for classes that support object serialization from/to Properties objects.">
<polygon fill="white" stroke="#666666" points="131.5,-130.25 14.25,-130.25 14.25,-111 131.5,-111 131.5,-130.25"/>
<text xml:space="preserve" text-anchor="middle" x="72.88" y="-116.75" font-family="Helvetica,sans-Serif" font-size="10.00">ImFusion::Configurable</text>
</a>
</g>
</g>
<!-- Node4&#45;&gt;Node3 -->
<g id="edge3_Node000003_Node000004" class="edge">
<title>Node4&#45;&gt;Node3</title>
<g id="a_edge3_Node000003_Node000004"><a xlink:title=" ">
<path fill="none" stroke="#63b8ff" d="M133.67,-108.19C156.29,-103.48 181.74,-98.19 203.2,-93.72"/>
<polygon fill="#63b8ff" stroke="#63b8ff" points="133.04,-104.74 123.96,-110.21 134.47,-111.6 133.04,-104.74"/>
</a>
</g>
</g>
<!-- Node5 -->
<g id="Node000005" class="node">
<title>Node5</title>
<g id="a_Node000005"><a xlink:href="class_im_fusion_1_1_signal_receiver.html" target="_top" xlink:title="Base class for classes that can contain slots (i.e.">
<polygon fill="white" stroke="#666666" points="137.12,-93.25 8.62,-93.25 8.62,-74 137.12,-74 137.12,-93.25"/>
<text xml:space="preserve" text-anchor="middle" x="72.88" y="-79.75" font-family="Helvetica,sans-Serif" font-size="10.00">ImFusion::SignalReceiver</text>
</a>
</g>
</g>
<!-- Node5&#45;&gt;Node3 -->
<g id="edge4_Node000003_Node000005" class="edge">
<title>Node5&#45;&gt;Node3</title>
<g id="a_edge4_Node000003_Node000005"><a xlink:title=" ">
<path fill="none" stroke="#63b8ff" d="M148.77,-83.62C159.63,-83.62 170.78,-83.62 181.54,-83.62"/>
<polygon fill="#63b8ff" stroke="#63b8ff" points="149.1,-80.13 139.1,-83.63 149.1,-87.13 149.1,-80.13"/>
</a>
</g>
</g>
<!-- Node6 -->
<g id="Node000006" class="node">
<title>Node6</title>
<g id="a_Node000006"><a xlink:href="class_im_fusion_1_1_utils_1_1_not_copyable.html" target="_top" xlink:title="Inherit from this class if your class should be neither copy&#45;constructible nor assignable.">
<polygon fill="white" stroke="#666666" points="145.75,-56.25 0,-56.25 0,-37 145.75,-37 145.75,-56.25"/>
<text xml:space="preserve" text-anchor="middle" x="72.88" y="-42.75" font-family="Helvetica,sans-Serif" font-size="10.00">ImFusion::Utils::NotCopyable</text>
</a>
</g>
</g>
<!-- Node6&#45;&gt;Node3 -->
<g id="edge5_Node000003_Node000006" class="edge">
<title>Node6&#45;&gt;Node3</title>
<g id="a_edge5_Node000003_Node000006"><a xlink:title=" ">
<path fill="none" stroke="#8b1a1a" d="M133.67,-59.06C156.29,-63.77 181.74,-69.06 203.2,-73.53"/>
<polygon fill="#8b1a1a" stroke="#8b1a1a" points="134.47,-55.65 123.96,-57.04 133.04,-62.51 134.47,-55.65"/>
</a>
</g>
</g>
<!-- Node8 -->
<g id="Node000008" class="node">
<title>Node8</title>
<g id="a_Node000008"><a xlink:href="class_im_fusion_1_1_interactive_view_options_overlay.html" target="_top" xlink:title="Button overlay for InteractiveView that allows for setting up the view or display options of the view...">
<polygon fill="white" stroke="#666666" points="859.25,-214.88 729.25,-214.88 729.25,-184.38 859.25,-184.38 859.25,-214.88"/>
<text xml:space="preserve" text-anchor="start" x="737.25" y="-201.38" font-family="Helvetica,sans-Serif" font-size="10.00">ImFusion::InteractiveView</text>
<text xml:space="preserve" text-anchor="middle" x="794.25" y="-190.12" font-family="Helvetica,sans-Serif" font-size="10.00">OptionsOverlay</text>
</a>
</g>
</g>
<!-- Node7&#45;&gt;Node8 -->
<g id="edge7_Node000007_Node000008" class="edge">
<title>Node7&#45;&gt;Node8</title>
<g id="a_edge7_Node000007_Node000008"><a xlink:title=" ">
<path fill="none" stroke="#63b8ff" d="M695.75,-199.62C706.81,-199.62 718.06,-199.62 728.8,-199.62"/>
<polygon fill="#63b8ff" stroke="#63b8ff" points="695.84,-196.13 685.84,-199.63 695.84,-203.13 695.84,-196.13"/>
</a>
</g>
</g>
</g>
</svg>
