<?xml version="1.0" encoding="UTF-8" standalone="no"?>
<!DOCTYPE svg PUBLIC "-//W3C//DTD SVG 1.1//EN"
 "http://www.w3.org/Graphics/SVG/1.1/DTD/svg11.dtd">
<!-- Generated by graphviz version 14.1.4 (20260321.0153)
 -->
<!-- Title: ImFusion::ViewInteraction Pages: 1 -->
<svg width="722pt" height="138pt"
 viewBox="0.00 0.00 722.00 138.00" xmlns="http://www.w3.org/2000/svg" xmlns:xlink="http://www.w3.org/1999/xlink">
<g id="graph0" class="graph" transform="scale(1 1) rotate(0) translate(4 134.25)">
<title>ImFusion::ViewInteraction</title>
<!-- Node1 -->
<g id="Node000001" class="node">
<title>Node1</title>
<g id="a_Node000001"><a xlink:title="Base class for all view interactions.">
<polygon fill="#999999" stroke="#666666" points="362.25,-74.25 232.25,-74.25 232.25,-55 362.25,-55 362.25,-74.25"/>
<text xml:space="preserve" text-anchor="middle" x="297.25" y="-60.75" font-family="Helvetica,sans-Serif" font-size="10.00">ImFusion::ViewInteraction</text>
</a>
</g>
</g>
<!-- Node4 -->
<g id="Node000004" class="node">
<title>Node4</title>
<g id="a_Node000004"><a xlink:href="class_im_fusion_1_1_interaction3_d.html" target="_top" xlink:title="Standard 3D view interaction.">
<polygon fill="white" stroke="#666666" points="532.38,-130.25 411.38,-130.25 411.38,-111 532.38,-111 532.38,-130.25"/>
<text xml:space="preserve" text-anchor="middle" x="471.88" y="-116.75" font-family="Helvetica,sans-Serif" font-size="10.00">ImFusion::Interaction3D</text>
</a>
</g>
</g>
<!-- Node1&#45;&gt;Node4 -->
<g id="edge3_Node000001_Node000004" class="edge">
<title>Node1&#45;&gt;Node4</title>
<g id="a_edge3_Node000001_Node000004"><a xlink:title=" ">
<path fill="none" stroke="#63b8ff" d="M332.81,-78.93C351.9,-86.54 376.17,-95.72 398.25,-102.62 407.3,-105.45 417.09,-108.13 426.47,-110.52"/>
<polygon fill="#63b8ff" stroke="#63b8ff" points="334.2,-75.72 323.62,-75.23 331.58,-82.21 334.2,-75.72"/>
</a>
</g>
</g>
<!-- Node5 -->
<g id="Node000005" class="node">
<title>Node5</title>
<g id="a_Node000005"><a xlink:href="class_im_fusion_1_1_interaction_plot_view.html" target="_top" xlink:title="Interaction class for plot view.">
<polygon fill="white" stroke="#666666" points="545.5,-93.25 398.25,-93.25 398.25,-74 545.5,-74 545.5,-93.25"/>
<text xml:space="preserve" text-anchor="middle" x="471.88" y="-79.75" font-family="Helvetica,sans-Serif" font-size="10.00">ImFusion::InteractionPlotView</text>
</a>
</g>
</g>
<!-- Node1&#45;&gt;Node5 -->
<g id="edge4_Node000001_Node000005" class="edge">
<title>Node1&#45;&gt;Node5</title>
<g id="a_edge4_Node000001_Node000005"><a xlink:title=" ">
<path fill="none" stroke="#63b8ff" d="M373.73,-72.93C381.73,-73.81 389.85,-74.71 397.82,-75.58"/>
<polygon fill="#63b8ff" stroke="#63b8ff" points="374.36,-69.48 364.03,-71.87 373.59,-76.44 374.36,-69.48"/>
</a>
</g>
</g>
<!-- Node6 -->
<g id="Node000006" class="node">
<title>Node6</title>
<g id="a_Node000006"><a xlink:href="class_im_fusion_1_1_interaction_view2_d.html" target="_top" xlink:title=" ">
<polygon fill="white" stroke="#bfbfbf" points="543.25,-56.25 400.5,-56.25 400.5,-37 543.25,-37 543.25,-56.25"/>
<text xml:space="preserve" text-anchor="middle" x="471.88" y="-42.75" font-family="Helvetica,sans-Serif" font-size="10.00">ImFusion::InteractionView2D</text>
</a>
</g>
</g>
<!-- Node1&#45;&gt;Node6 -->
<g id="edge5_Node000001_Node000006" class="edge">
<title>Node1&#45;&gt;Node6</title>
<g id="a_edge5_Node000001_Node000006"><a xlink:title=" ">
<path fill="none" stroke="#63b8ff" d="M373.89,-56.74C382.62,-55.83 391.5,-54.9 400.16,-54"/>
<polygon fill="#63b8ff" stroke="#63b8ff" points="373.62,-53.25 364.03,-57.77 374.34,-60.21 373.62,-53.25"/>
</a>
</g>
</g>
<!-- Node8 -->
<g id="Node000008" class="node">
<title>Node8</title>
<g id="a_Node000008"><a xlink:href="class_im_fusion_1_1_interaction_view3_d.html" target="_top" xlink:title="Standard 2D/3D view interaction.">
<polygon fill="white" stroke="#666666" points="543.25,-19.25 400.5,-19.25 400.5,0 543.25,0 543.25,-19.25"/>
<text xml:space="preserve" text-anchor="middle" x="471.88" y="-5.75" font-family="Helvetica,sans-Serif" font-size="10.00">ImFusion::InteractionView3D</text>
</a>
</g>
</g>
<!-- Node1&#45;&gt;Node8 -->
<g id="edge7_Node000001_Node000008" class="edge">
<title>Node1&#45;&gt;Node8</title>
<g id="a_edge7_Node000001_Node000008"><a xlink:title=" ">
<path fill="none" stroke="#63b8ff" d="M333.61,-50.45C352.6,-43.11 376.51,-34.32 398.25,-27.62 407.44,-24.8 417.38,-22.1 426.88,-19.69"/>
<polygon fill="#63b8ff" stroke="#63b8ff" points="332.51,-47.12 324.46,-54.02 335.05,-53.64 332.51,-47.12"/>
</a>
</g>
</g>
<!-- Node2 -->
<g id="Node000002" class="node">
<title>Node2</title>
<g id="a_Node000002"><a xlink:href="class_im_fusion_1_1_interaction.html" target="_top" xlink:title="Base interface class for view and overlay interactions.">
<polygon fill="white" stroke="#666666" points="196.25,-74.25 88,-74.25 88,-55 196.25,-55 196.25,-74.25"/>
<text xml:space="preserve" text-anchor="middle" x="142.12" y="-60.75" font-family="Helvetica,sans-Serif" font-size="10.00">ImFusion::Interaction</text>
</a>
</g>
</g>
<!-- Node2&#45;&gt;Node1 -->
<g id="edge1_Node000001_Node000002" class="edge">
<title>Node2&#45;&gt;Node1</title>
<g id="a_edge1_Node000001_Node000002"><a xlink:title=" ">
<path fill="none" stroke="#63b8ff" d="M208.09,-64.62C215.98,-64.62 224.05,-64.62 231.94,-64.62"/>
<polygon fill="#63b8ff" stroke="#63b8ff" points="208.19,-61.13 198.19,-64.63 208.19,-68.13 208.19,-61.13"/>
</a>
</g>
</g>
<!-- Node3 -->
<g id="Node000003" class="node">
<title>Node3</title>
<g id="a_Node000003"><a xlink:title=" ">
<polygon fill="white" stroke="#bfbfbf" points="52,-74.25 0,-74.25 0,-55 52,-55 52,-74.25"/>
<text xml:space="preserve" text-anchor="middle" x="26" y="-60.75" font-family="Helvetica,sans-Serif" font-size="10.00">QObject</text>
</a>
</g>
</g>
<!-- Node3&#45;&gt;Node2 -->
<g id="edge2_Node000002_Node000003" class="edge">
<title>Node3&#45;&gt;Node2</title>
<g id="a_edge2_Node000002_Node000003"><a xlink:title=" ">
<path fill="none" stroke="#63b8ff" d="M63.81,-64.62C71.48,-64.62 79.7,-64.62 87.82,-64.62"/>
<polygon fill="#63b8ff" stroke="#63b8ff" points="63.84,-61.13 53.84,-64.63 63.84,-68.13 63.84,-61.13"/>
</a>
</g>
</g>
<!-- Node7 -->
<g id="Node000007" class="node">
<title>Node7</title>
<g id="a_Node000007"><a xlink:href="class_im_fusion_1_1_interaction_ortho_view2_d.html" target="_top" xlink:title="Ortho 2D view interaction.">
<polygon fill="white" stroke="#666666" points="713.75,-61.88 581.5,-61.88 581.5,-31.38 713.75,-31.38 713.75,-61.88"/>
<text xml:space="preserve" text-anchor="start" x="589.5" y="-48.38" font-family="Helvetica,sans-Serif" font-size="10.00">ImFusion::InteractionOrtho</text>
<text xml:space="preserve" text-anchor="middle" x="647.62" y="-37.12" font-family="Helvetica,sans-Serif" font-size="10.00">View2D</text>
</a>
</g>
</g>
<!-- Node6&#45;&gt;Node7 -->
<g id="edge6_Node000006_Node000007" class="edge">
<title>Node6&#45;&gt;Node7</title>
<g id="a_edge6_Node000006_Node000007"><a xlink:title=" ">
<path fill="none" stroke="#63b8ff" d="M554.98,-46.62C563.73,-46.62 572.54,-46.62 581.06,-46.62"/>
<polygon fill="#63b8ff" stroke="#63b8ff" points="555.06,-43.13 545.06,-46.63 555.06,-50.13 555.06,-43.13"/>
</a>
</g>
</g>
</g>
</svg>
