<?xml version="1.0" encoding="UTF-8" standalone="no"?>
<!DOCTYPE svg PUBLIC "-//W3C//DTD SVG 1.1//EN"
 "http://www.w3.org/Graphics/SVG/1.1/DTD/svg11.dtd">
<!-- Generated by graphviz version 14.1.4 (20260321.0153)
 -->
<!-- Title: ImFusion::VideoIoAlgorithm Pages: 1 -->
<svg width="350pt" height="248pt"
 viewBox="0.00 0.00 350.00 248.00" xmlns="http://www.w3.org/2000/svg" xmlns:xlink="http://www.w3.org/1999/xlink">

<svg id="main" version="1.1" xmlns="http://www.w3.org/2000/svg" xmlns:xlink="http://www.w3.org/1999/xlink" xml:space="preserve">

<style type="text/css"><![CDATA[
.node, .edge {opacity: 0.7;}
.node.selected, .edge.selected {opacity: 1;}
.edge:hover path { stroke: red; }
.edge:hover polygon { stroke: red; fill: red; }
]]></style>
<script type="application/ecmascript" xlink:href="svg.min.js"/>
<svg id="graph" class="graph">
<g id="graph0" class="graph" transform="scale(1 1) rotate(0) translate(4 244.25)">
<title>ImFusion::VideoIoAlgorithm</title>
<!-- Node1 -->
<g id="Node000001" class="node">
<title>Node1</title>
<g id="a_Node000001"><a xlink:title="Algorithm for reading video files as image set, and writing them.">
<polygon fill="#999999" stroke="#666666" points="243.62,-74.5 106.88,-74.5 106.88,-55.25 243.62,-55.25 243.62,-74.5"/>
<text xml:space="preserve" text-anchor="middle" x="175.25" y="-61" font-family="Helvetica,sans-Serif" font-size="10.00">ImFusion::VideoIoAlgorithm</text>
</a>
</g>
</g>
<!-- Node6 -->
<g id="Node000006" class="node">
<title>Node6</title>
<g id="a_Node000006"><a xlink:href="class_im_fusion_1_1_unpack_video_io_algorithm.html" target="_top" xlink:title="Derived class for different factory name when reading.">
<polygon fill="white" stroke="#666666" points="170.5,-19.25 0,-19.25 0,0 170.5,0 170.5,-19.25"/>
<text xml:space="preserve" text-anchor="middle" x="85.25" y="-5.75" font-family="Helvetica,sans-Serif" font-size="10.00">ImFusion::UnpackVideoIoAlgorithm</text>
</a>
</g>
</g>
<!-- Node1&#45;&gt;Node6 -->
<g id="edge5_Node000001_Node000006" class="edge">
<title>Node1&#45;&gt;Node6</title>
<g id="a_edge5_Node000001_Node000006"><a xlink:title=" ">
<path fill="none" stroke="#63b8ff" d="M150.23,-49.07C134.31,-39.65 114.19,-27.75 100.59,-19.7"/>
<polygon fill="#63b8ff" stroke="#63b8ff" points="148.29,-51.99 158.68,-54.07 151.86,-45.97 148.29,-51.99"/>
</a>
</g>
</g>
<!-- Node7 -->
<g id="Node000007" class="node">
<title>Node7</title>
<g id="a_Node000007"><a xlink:href="class_im_fusion_1_1_video_file_io_algorithm.html" target="_top" xlink:title="Derived class for different factory name when writing.">
<polygon fill="white" stroke="#666666" points="341.5,-19.25 189,-19.25 189,0 341.5,0 341.5,-19.25"/>
<text xml:space="preserve" text-anchor="middle" x="265.25" y="-5.75" font-family="Helvetica,sans-Serif" font-size="10.00">ImFusion::VideoFileIoAlgorithm</text>
</a>
</g>
</g>
<!-- Node1&#45;&gt;Node7 -->
<g id="edge6_Node000001_Node000007" class="edge">
<title>Node1&#45;&gt;Node7</title>
<g id="a_edge6_Node000001_Node000007"><a xlink:title=" ">
<path fill="none" stroke="#63b8ff" d="M200.27,-49.07C216.19,-39.65 236.31,-27.75 249.91,-19.7"/>
<polygon fill="#63b8ff" stroke="#63b8ff" points="198.64,-45.97 191.82,-54.07 202.21,-51.99 198.64,-45.97"/>
</a>
</g>
</g>
<!-- Node2 -->
<g id="Node000002" class="node">
<title>Node2</title>
<g id="a_Node000002"><a xlink:href="class_im_fusion_1_1_io_algorithm.html" target="_top" xlink:title="Interface for describing IO algorithms.">
<polygon fill="white" stroke="#666666" points="231.25,-129.75 119.25,-129.75 119.25,-110.5 231.25,-110.5 231.25,-129.75"/>
<text xml:space="preserve" text-anchor="middle" x="175.25" y="-116.25" font-family="Helvetica,sans-Serif" font-size="10.00">ImFusion::IoAlgorithm</text>
</a>
</g>
</g>
<!-- Node2&#45;&gt;Node1 -->
<g id="edge1_Node000001_Node000002" class="edge">
<title>Node2&#45;&gt;Node1</title>
<g id="a_edge1_Node000001_Node000002"><a xlink:title=" ">
<path fill="none" stroke="#63b8ff" d="M175.25,-98.88C175.25,-90.59 175.25,-81.42 175.25,-74.86"/>
<polygon fill="#63b8ff" stroke="#63b8ff" points="171.75,-98.82 175.25,-108.82 178.75,-98.82 171.75,-98.82"/>
</a>
</g>
</g>
<!-- Node3 -->
<g id="Node000003" class="node">
<title>Node3</title>
<g id="a_Node000003"><a xlink:href="class_im_fusion_1_1_algorithm.html" target="_top" xlink:title="Interface for describing algorithms that can be made available in the ImFusion Suite through Algorith...">
<polygon fill="white" stroke="#666666" points="227.12,-185 123.38,-185 123.38,-165.75 227.12,-165.75 227.12,-185"/>
<text xml:space="preserve" text-anchor="middle" x="175.25" y="-171.5" font-family="Helvetica,sans-Serif" font-size="10.00">ImFusion::Algorithm</text>
</a>
</g>
</g>
<!-- Node3&#45;&gt;Node2 -->
<g id="edge2_Node000002_Node000003" class="edge">
<title>Node3&#45;&gt;Node2</title>
<g id="a_edge2_Node000002_Node000003"><a xlink:title=" ">
<path fill="none" stroke="#63b8ff" d="M175.25,-154.13C175.25,-145.84 175.25,-136.67 175.25,-130.11"/>
<polygon fill="#63b8ff" stroke="#63b8ff" points="171.75,-154.07 175.25,-164.07 178.75,-154.07 171.75,-154.07"/>
</a>
</g>
</g>
<!-- Node4 -->
<g id="Node000004" class="node">
<title>Node4</title>
<g id="a_Node000004"><a xlink:href="class_im_fusion_1_1_configurable.html" target="_top" xlink:title="Base interface for classes that support object serialization from/to Properties objects.">
<polygon fill="white" stroke="#666666" points="158.88,-240.25 41.62,-240.25 41.62,-221 158.88,-221 158.88,-240.25"/>
<text xml:space="preserve" text-anchor="middle" x="100.25" y="-226.75" font-family="Helvetica,sans-Serif" font-size="10.00">ImFusion::Configurable</text>
</a>
</g>
</g>
<!-- Node4&#45;&gt;Node3 -->
<g id="edge3_Node000003_Node000004" class="edge">
<title>Node4&#45;&gt;Node3</title>
<g id="a_edge3_Node000003_Node000004"><a xlink:title=" ">
<path fill="none" stroke="#63b8ff" d="M122.24,-214.01C135.32,-204.72 151.46,-193.27 162.46,-185.45"/>
<polygon fill="#63b8ff" stroke="#63b8ff" points="120.33,-211.07 114.21,-219.72 124.39,-216.78 120.33,-211.07"/>
</a>
</g>
</g>
<!-- Node5 -->
<g id="Node000005" class="node">
<title>Node5</title>
<g id="a_Node000005"><a xlink:href="class_im_fusion_1_1_utils_1_1_not_copyable.html" target="_top" xlink:title="Inherit from this class if your class should be neither copy&#45;constructible nor assignable.">
<polygon fill="white" stroke="#666666" points="323.12,-240.25 177.38,-240.25 177.38,-221 323.12,-221 323.12,-240.25"/>
<text xml:space="preserve" text-anchor="middle" x="250.25" y="-226.75" font-family="Helvetica,sans-Serif" font-size="10.00">ImFusion::Utils::NotCopyable</text>
</a>
</g>
</g>
<!-- Node5&#45;&gt;Node3 -->
<g id="edge4_Node000003_Node000005" class="edge">
<title>Node5&#45;&gt;Node3</title>
<g id="a_edge4_Node000003_Node000005"><a xlink:title=" ">
<path fill="none" stroke="#8b1a1a" d="M228.26,-214.01C215.18,-204.72 199.04,-193.27 188.04,-185.45"/>
<polygon fill="#8b1a1a" stroke="#8b1a1a" points="226.11,-216.78 236.29,-219.72 230.17,-211.07 226.11,-216.78"/>
</a>
</g>
</g>
</g>
</svg>
</svg>

<style type='text/css'>
<![CDATA[
[data-mouse-over-selected='false'] { opacity: 0.7; }
[data-mouse-over-selected='true']  { opacity: 1.0; }
]]>
</style>
<script type="application/ecmascript"><![CDATA[
document.addEventListener('DOMContentLoaded', (event) => {
  highlightEdges();
  highlightAdjacentNodes();
});
]]></script>
</svg>
