<?xml version="1.0" encoding="UTF-8" standalone="no"?>
<!DOCTYPE svg PUBLIC "-//W3C//DTD SVG 1.1//EN"
 "http://www.w3.org/Graphics/SVG/1.1/DTD/svg11.dtd">
<!-- Generated by graphviz version 14.1.4 (20260321.0153)
 -->
<!-- Title: ImFusion::AlgorithmControllerFactory Pages: 1 -->
<svg width="540pt" height="186pt"
 viewBox="0.00 0.00 540.00 186.00" xmlns="http://www.w3.org/2000/svg" xmlns:xlink="http://www.w3.org/1999/xlink">
<g id="graph0" class="graph" transform="scale(1 1) rotate(0) translate(4 181.5)">
<title>ImFusion::AlgorithmControllerFactory</title>
<!-- Node1 -->
<g id="Node000001" class="node">
<title>Node1</title>
<g id="a_Node000001"><a xlink:title="Interface for algorithm controller factories.">
<polygon fill="#999999" stroke="#666666" points="327.5,-103.5 181.75,-103.5 181.75,-73 327.5,-73 327.5,-103.5"/>
<text xml:space="preserve" text-anchor="start" x="189.75" y="-90" font-family="Helvetica,sans-Serif" font-size="10.00">ImFusion::AlgorithmController</text>
<text xml:space="preserve" text-anchor="middle" x="254.62" y="-78.75" font-family="Helvetica,sans-Serif" font-size="10.00">Factory</text>
</a>
</g>
</g>
<!-- Node3 -->
<g id="Node000003" class="node">
<title>Node3</title>
<g id="a_Node000003"><a xlink:href="class_im_fusion_1_1_base_algorithm_controller_factory.html" target="_top" xlink:title="Factory for built&#45;in algorithms.">
<polygon fill="white" stroke="#666666" points="531.75,-177.5 363.5,-177.5 363.5,-147 531.75,-147 531.75,-177.5"/>
<text xml:space="preserve" text-anchor="start" x="371.5" y="-164" font-family="Helvetica,sans-Serif" font-size="10.00">ImFusion::BaseAlgorithmController</text>
<text xml:space="preserve" text-anchor="middle" x="447.62" y="-152.75" font-family="Helvetica,sans-Serif" font-size="10.00">Factory</text>
</a>
</g>
</g>
<!-- Node1&#45;&gt;Node3 -->
<g id="edge2_Node000001_Node000003" class="edge">
<title>Node1&#45;&gt;Node3</title>
<g id="a_edge2_Node000001_Node000003"><a xlink:title=" ">
<path fill="none" stroke="#63b8ff" d="M297.45,-108.83C317.22,-118.15 341.3,-128.91 363.5,-137.25 372.25,-140.53 381.63,-143.7 390.83,-146.6"/>
<polygon fill="#63b8ff" stroke="#63b8ff" points="299.15,-105.76 288.62,-104.62 296.14,-112.08 299.15,-105.76"/>
</a>
</g>
</g>
<!-- Node4 -->
<g id="Node000004" class="node">
<title>Node4</title>
<g id="a_Node000004"><a xlink:href="class_im_fusion_1_1_default_io_algorithm_controller_factory.html" target="_top" xlink:title="Factory for built&#45;in IO algorithm controllers.">
<polygon fill="white" stroke="#666666" points="519.38,-128.5 375.88,-128.5 375.88,-98 519.38,-98 519.38,-128.5"/>
<text xml:space="preserve" text-anchor="start" x="383.88" y="-115" font-family="Helvetica,sans-Serif" font-size="10.00">ImFusion::DefaultIoAlgorithm</text>
<text xml:space="preserve" text-anchor="middle" x="447.62" y="-103.75" font-family="Helvetica,sans-Serif" font-size="10.00">ControllerFactory</text>
</a>
</g>
</g>
<!-- Node1&#45;&gt;Node4 -->
<g id="edge3_Node000001_Node000004" class="edge">
<title>Node1&#45;&gt;Node4</title>
<g id="a_edge3_Node000001_Node000004"><a xlink:title=" ">
<path fill="none" stroke="#63b8ff" d="M338.95,-99.16C351.16,-100.75 363.64,-102.39 375.58,-103.95"/>
<polygon fill="#63b8ff" stroke="#63b8ff" points="339.7,-95.73 329.33,-97.9 338.8,-102.67 339.7,-95.73"/>
</a>
</g>
</g>
<!-- Node5 -->
<g id="Node000005" class="node">
<title>Node5</title>
<g id="a_Node000005"><a xlink:href="class_im_fusion_1_1_dicom_algorithm_controller_factory.html" target="_top" xlink:title=" ">
<polygon fill="white" stroke="#bfbfbf" points="513.75,-79.5 381.5,-79.5 381.5,-49 513.75,-49 513.75,-79.5"/>
<text xml:space="preserve" text-anchor="start" x="389.5" y="-66" font-family="Helvetica,sans-Serif" font-size="10.00">ImFusion::DicomAlgorithm</text>
<text xml:space="preserve" text-anchor="middle" x="447.62" y="-54.75" font-family="Helvetica,sans-Serif" font-size="10.00">ControllerFactory</text>
</a>
</g>
</g>
<!-- Node1&#45;&gt;Node5 -->
<g id="edge4_Node000001_Node000005" class="edge">
<title>Node1&#45;&gt;Node5</title>
<g id="a_edge4_Node000001_Node000005"><a xlink:title=" ">
<path fill="none" stroke="#63b8ff" d="M339.06,-77.77C353.17,-75.99 367.65,-74.17 381.22,-72.47"/>
<polygon fill="#63b8ff" stroke="#63b8ff" points="338.82,-74.27 329.34,-78.99 339.69,-81.21 338.82,-74.27"/>
</a>
</g>
</g>
<!-- Node6 -->
<g id="Node000006" class="node">
<title>Node6</title>
<g id="a_Node000006"><a xlink:href="class_im_fusion_1_1_gl_algorithm_controller_factory.html" target="_top" xlink:title="Factory for built&#45;in algorithms.">
<polygon fill="white" stroke="#666666" points="525.38,-30.5 369.88,-30.5 369.88,0 525.38,0 525.38,-30.5"/>
<text xml:space="preserve" text-anchor="start" x="377.88" y="-17" font-family="Helvetica,sans-Serif" font-size="10.00">ImFusion::GlAlgorithmController</text>
<text xml:space="preserve" text-anchor="middle" x="447.62" y="-5.75" font-family="Helvetica,sans-Serif" font-size="10.00">Factory</text>
</a>
</g>
</g>
<!-- Node1&#45;&gt;Node6 -->
<g id="edge5_Node000001_Node000006" class="edge">
<title>Node1&#45;&gt;Node6</title>
<g id="a_edge5_Node000001_Node000006"><a xlink:title=" ">
<path fill="none" stroke="#63b8ff" d="M297.93,-67.94C317.62,-58.87 341.51,-48.41 363.5,-40.25 372.26,-37 381.65,-33.86 390.86,-30.96"/>
<polygon fill="#63b8ff" stroke="#63b8ff" points="296.72,-64.64 289.13,-72.03 299.67,-70.99 296.72,-64.64"/>
</a>
</g>
</g>
<!-- Node2 -->
<g id="Node000002" class="node">
<title>Node2</title>
<g id="a_Node000002"><a xlink:href="class_im_fusion_1_1_utils_1_1_not_copyable.html" target="_top" xlink:title="Inherit from this class if your class should be neither copy&#45;constructible nor assignable.">
<polygon fill="white" stroke="#666666" points="145.75,-97.88 0,-97.88 0,-78.62 145.75,-78.62 145.75,-97.88"/>
<text xml:space="preserve" text-anchor="middle" x="72.88" y="-84.38" font-family="Helvetica,sans-Serif" font-size="10.00">ImFusion::Utils::NotCopyable</text>
</a>
</g>
</g>
<!-- Node2&#45;&gt;Node1 -->
<g id="edge1_Node000001_Node000002" class="edge">
<title>Node2&#45;&gt;Node1</title>
<g id="a_edge1_Node000001_Node000002"><a xlink:title=" ">
<path fill="none" stroke="#8b1a1a" d="M157.46,-88.25C165.47,-88.25 173.55,-88.25 181.44,-88.25"/>
<polygon fill="#8b1a1a" stroke="#8b1a1a" points="157.72,-84.75 147.72,-88.25 157.72,-91.75 157.72,-84.75"/>
</a>
</g>
</g>
</g>
</svg>
