<?xml version="1.0" encoding="UTF-8" standalone="no"?>
<!DOCTYPE svg PUBLIC "-//W3C//DTD SVG 1.1//EN"
 "http://www.w3.org/Graphics/SVG/1.1/DTD/svg11.dtd">
<!-- Generated by graphviz version 14.1.4 (20260321.0153)
 -->
<!-- Title: ImFusion::PointCloudPickingManipulator Pages: 1 -->
<svg width="391pt" height="326pt"
 viewBox="0.00 0.00 391.00 326.00" xmlns="http://www.w3.org/2000/svg" xmlns:xlink="http://www.w3.org/1999/xlink">

<svg id="main" version="1.1" xmlns="http://www.w3.org/2000/svg" xmlns:xlink="http://www.w3.org/1999/xlink" xml:space="preserve">

<style type="text/css"><![CDATA[
.node, .edge {opacity: 0.7;}
.node.selected, .edge.selected {opacity: 1;}
.edge:hover path { stroke: red; }
.edge:hover polygon { stroke: red; fill: red; }
]]></style>
<script type="application/ecmascript" xlink:href="svg.min.js"/>
<svg id="graph" class="graph">
<g id="graph0" class="graph" transform="scale(1 1) rotate(0) translate(4 322)">
<title>ImFusion::PointCloudPickingManipulator</title>
<!-- Node1 -->
<g id="Node000001" class="node">
<title>Node1</title>
<g id="a_Node000001"><a xlink:title="Point cloud picking manipulator The PointCloudPickingManipulator can return the list of selected vert...">
<polygon fill="#999999" stroke="#666666" points="224.75,-30.5 82,-30.5 82,0 224.75,0 224.75,-30.5"/>
<text xml:space="preserve" text-anchor="start" x="90" y="-17" font-family="Helvetica,sans-Serif" font-size="10.00">ImFusion::PointCloudPicking</text>
<text xml:space="preserve" text-anchor="middle" x="153.38" y="-5.75" font-family="Helvetica,sans-Serif" font-size="10.00">Manipulator</text>
</a>
</g>
</g>
<!-- Node2 -->
<g id="Node000002" class="node">
<title>Node2</title>
<g id="a_Node000002"><a xlink:href="class_im_fusion_1_1_manipulator.html" target="_top" xlink:title="Abstract base class for manipulator objects.">
<polygon fill="white" stroke="#666666" points="148.75,-85.75 36,-85.75 36,-66.5 148.75,-66.5 148.75,-85.75"/>
<text xml:space="preserve" text-anchor="middle" x="92.38" y="-72.25" font-family="Helvetica,sans-Serif" font-size="10.00">ImFusion::Manipulator</text>
</a>
</g>
</g>
<!-- Node2&#45;&gt;Node1 -->
<g id="edge1_Node000001_Node000002" class="edge">
<title>Node2&#45;&gt;Node1</title>
<g id="a_edge1_Node000001_Node000002"><a xlink:title=" ">
<path fill="none" stroke="#63b8ff" d="M109.86,-58.25C118.85,-49.57 129.7,-39.1 138.32,-30.78"/>
<polygon fill="#63b8ff" stroke="#63b8ff" points="107.49,-55.67 102.73,-65.13 112.35,-60.71 107.49,-55.67"/>
</a>
</g>
</g>
<!-- Node3 -->
<g id="Node000003" class="node">
<title>Node3</title>
<g id="a_Node000003"><a xlink:href="class_im_fusion_1_1_g_u_i_1_1_view_object_1_1_event_handler.html" target="_top" xlink:title="Interface to be used as base class for event handlers of ViewObjects.">
<polygon fill="white" stroke="#666666" points="136.75,-152.25 0,-152.25 0,-121.75 136.75,-121.75 136.75,-152.25"/>
<text xml:space="preserve" text-anchor="start" x="8" y="-138.75" font-family="Helvetica,sans-Serif" font-size="10.00">ImFusion::GUI::ViewObject</text>
<text xml:space="preserve" text-anchor="middle" x="68.38" y="-127.5" font-family="Helvetica,sans-Serif" font-size="10.00">::EventHandler</text>
</a>
</g>
</g>
<!-- Node3&#45;&gt;Node2 -->
<g id="edge2_Node000002_Node000003" class="edge">
<title>Node3&#45;&gt;Node2</title>
<g id="a_edge2_Node000002_Node000003"><a xlink:title=" ">
<path fill="none" stroke="#63b8ff" d="M78.62,-110.86C82.2,-102.09 85.98,-92.81 88.68,-86.2"/>
<polygon fill="#63b8ff" stroke="#63b8ff" points="75.41,-109.46 74.88,-120.05 81.89,-112.11 75.41,-109.46"/>
</a>
</g>
</g>
<!-- Node4 -->
<g id="Node000004" class="node">
<title>Node4</title>
<g id="a_Node000004"><a xlink:href="class_im_fusion_1_1_gl_point.html" target="_top" xlink:title="Point annotation.">
<polygon fill="white" stroke="#666666" points="273.75,-85.75 179,-85.75 179,-66.5 273.75,-66.5 273.75,-85.75"/>
<text xml:space="preserve" text-anchor="middle" x="226.38" y="-72.25" font-family="Helvetica,sans-Serif" font-size="10.00">ImFusion::GlPoint</text>
</a>
</g>
</g>
<!-- Node4&#45;&gt;Node1 -->
<g id="edge3_Node000001_Node000004" class="edge">
<title>Node4&#45;&gt;Node1</title>
<g id="a_edge3_Node000001_Node000004"><a xlink:title=" ">
<path fill="none" stroke="#63b8ff" d="M206.45,-59.06C195.5,-50.23 182.03,-39.36 171.39,-30.78"/>
<polygon fill="#63b8ff" stroke="#63b8ff" points="204.13,-61.68 214.11,-65.23 208.52,-56.23 204.13,-61.68"/>
</a>
</g>
</g>
<!-- Node5 -->
<g id="Node000005" class="node">
<title>Node5</title>
<g id="a_Node000005"><a xlink:href="class_im_fusion_1_1_gl_point_based_annotation.html" target="_top" xlink:title="Base class for implementing point&#45;based annotations.">
<polygon fill="white" stroke="#666666" points="323.88,-146.62 154.88,-146.62 154.88,-127.38 323.88,-127.38 323.88,-146.62"/>
<text xml:space="preserve" text-anchor="middle" x="239.38" y="-133.12" font-family="Helvetica,sans-Serif" font-size="10.00">ImFusion::GlPointBasedAnnotation</text>
</a>
</g>
</g>
<!-- Node5&#45;&gt;Node4 -->
<g id="edge4_Node000004_Node000005" class="edge">
<title>Node5&#45;&gt;Node4</title>
<g id="a_edge4_Node000004_Node000005"><a xlink:title=" ">
<path fill="none" stroke="#63b8ff" d="M234.94,-115.91C232.71,-105.8 230.11,-94.05 228.37,-86.15"/>
<polygon fill="#63b8ff" stroke="#63b8ff" points="231.5,-116.57 237.07,-125.58 238.34,-115.06 231.5,-116.57"/>
</a>
</g>
</g>
<!-- Node6 -->
<g id="Node000006" class="node">
<title>Node6</title>
<g id="a_Node000006"><a xlink:href="class_im_fusion_1_1_gl_annotation.html" target="_top" xlink:title="Base class for implementing annotations.">
<polygon fill="white" stroke="#666666" points="298.75,-207.5 180,-207.5 180,-188.25 298.75,-188.25 298.75,-207.5"/>
<text xml:space="preserve" text-anchor="middle" x="239.38" y="-194" font-family="Helvetica,sans-Serif" font-size="10.00">ImFusion::GlAnnotation</text>
</a>
</g>
</g>
<!-- Node6&#45;&gt;Node5 -->
<g id="edge5_Node000005_Node000006" class="edge">
<title>Node6&#45;&gt;Node5</title>
<g id="a_edge5_Node000005_Node000006"><a xlink:title=" ">
<path fill="none" stroke="#63b8ff" d="M239.38,-176.45C239.38,-166.42 239.38,-154.83 239.38,-147.03"/>
<polygon fill="#63b8ff" stroke="#63b8ff" points="235.88,-176.42 239.38,-186.42 242.88,-176.42 235.88,-176.42"/>
</a>
</g>
</g>
<!-- Node7 -->
<g id="Node000007" class="node">
<title>Node7</title>
<g id="a_Node000007"><a xlink:href="class_im_fusion_1_1_gl_object.html" target="_top" xlink:title="Abstract base class for an renderable OpenGL object that can be hosted in a GlView.">
<polygon fill="white" stroke="#666666" points="219.75,-262.75 119,-262.75 119,-243.5 219.75,-243.5 219.75,-262.75"/>
<text xml:space="preserve" text-anchor="middle" x="169.38" y="-249.25" font-family="Helvetica,sans-Serif" font-size="10.00">ImFusion::GlObject</text>
</a>
</g>
</g>
<!-- Node7&#45;&gt;Node6 -->
<g id="edge6_Node000006_Node000007" class="edge">
<title>Node7&#45;&gt;Node6</title>
<g id="a_edge6_Node000006_Node000007"><a xlink:title=" ">
<path fill="none" stroke="#63b8ff" d="M190.32,-236.19C202.55,-226.89 217.51,-215.51 227.68,-207.77"/>
<polygon fill="#63b8ff" stroke="#63b8ff" points="188.29,-233.34 182.45,-242.18 192.53,-238.91 188.29,-233.34"/>
</a>
</g>
</g>
<!-- Node8 -->
<g id="Node000008" class="node">
<title>Node8</title>
<g id="a_Node000008"><a xlink:href="class_im_fusion_1_1_configurable.html" target="_top" xlink:title="Base interface for classes that support object serialization from/to Properties objects.">
<polygon fill="white" stroke="#666666" points="228,-318 110.75,-318 110.75,-298.75 228,-298.75 228,-318"/>
<text xml:space="preserve" text-anchor="middle" x="169.38" y="-304.5" font-family="Helvetica,sans-Serif" font-size="10.00">ImFusion::Configurable</text>
</a>
</g>
</g>
<!-- Node8&#45;&gt;Node7 -->
<g id="edge7_Node000007_Node000008" class="edge">
<title>Node8&#45;&gt;Node7</title>
<g id="a_edge7_Node000007_Node000008"><a xlink:title=" ">
<path fill="none" stroke="#63b8ff" d="M169.38,-287.13C169.38,-278.84 169.38,-269.67 169.38,-263.11"/>
<polygon fill="#63b8ff" stroke="#63b8ff" points="165.88,-287.07 169.38,-297.07 172.88,-287.07 165.88,-287.07"/>
</a>
</g>
</g>
<!-- Node9 -->
<g id="Node000009" class="node">
<title>Node9</title>
<g id="a_Node000009"><a xlink:href="class_im_fusion_1_1_utils_1_1_not_copyable.html" target="_top" xlink:title="Inherit from this class if your class should be neither copy&#45;constructible nor assignable.">
<polygon fill="white" stroke="#666666" points="383.25,-262.75 237.5,-262.75 237.5,-243.5 383.25,-243.5 383.25,-262.75"/>
<text xml:space="preserve" text-anchor="middle" x="310.38" y="-249.25" font-family="Helvetica,sans-Serif" font-size="10.00">ImFusion::Utils::NotCopyable</text>
</a>
</g>
</g>
<!-- Node9&#45;&gt;Node6 -->
<g id="edge8_Node000006_Node000009" class="edge">
<title>Node9&#45;&gt;Node6</title>
<g id="a_edge8_Node000006_Node000009"><a xlink:title=" ">
<path fill="none" stroke="#8b1a1a" d="M289.13,-236.19C276.73,-226.89 261.55,-215.51 251.24,-207.77"/>
<polygon fill="#8b1a1a" stroke="#8b1a1a" points="287.02,-238.98 297.12,-242.18 291.22,-233.38 287.02,-238.98"/>
</a>
</g>
</g>
</g>
</svg>
</svg>

<style type='text/css'>
<![CDATA[
[data-mouse-over-selected='false'] { opacity: 0.7; }
[data-mouse-over-selected='true']  { opacity: 1.0; }
]]>
</style>
<script type="application/ecmascript"><![CDATA[
document.addEventListener('DOMContentLoaded', (event) => {
  highlightEdges();
  highlightAdjacentNodes();
});
]]></script>
</svg>
