<?xml version="1.0" encoding="UTF-8" standalone="no"?>
<!DOCTYPE svg PUBLIC "-//W3C//DTD SVG 1.1//EN"
 "http://www.w3.org/Graphics/SVG/1.1/DTD/svg11.dtd">
<!-- Generated by graphviz version 14.1.4 (20260321.0153)
 -->
<!-- Title: ImFusion::BasicImageProcessing Pages: 1 -->
<svg width="347pt" height="149pt"
 viewBox="0.00 0.00 347.00 149.00" xmlns="http://www.w3.org/2000/svg" xmlns:xlink="http://www.w3.org/1999/xlink">
<g id="graph0" class="graph" transform="scale(1 1) rotate(0) translate(4 145)">
<title>ImFusion::BasicImageProcessing</title>
<!-- Node1 -->
<g id="Node000001" class="node">
<title>Node1</title>
<g id="a_Node000001"><a xlink:title="Basic image processing such as downsample, flip, rotate or data type change.">
<polygon fill="#999999" stroke="#666666" points="284.12,-19.25 121.12,-19.25 121.12,0 284.12,0 284.12,-19.25"/>
<text xml:space="preserve" text-anchor="middle" x="202.62" y="-5.75" font-family="Helvetica,sans-Serif" font-size="10.00">ImFusion::BasicImageProcessing</text>
</a>
</g>
</g>
<!-- Node2 -->
<g id="Node000002" class="node">
<title>Node2</title>
<g id="a_Node000002"><a xlink:href="class_im_fusion_1_1_algorithm.html" target="_top" xlink:title="Interface for describing algorithms that can be made available in the ImFusion Suite through Algorith...">
<polygon fill="white" stroke="#666666" points="185.5,-80.12 81.75,-80.12 81.75,-60.88 185.5,-60.88 185.5,-80.12"/>
<text xml:space="preserve" text-anchor="middle" x="133.62" y="-66.62" font-family="Helvetica,sans-Serif" font-size="10.00">ImFusion::Algorithm</text>
</a>
</g>
</g>
<!-- Node2&#45;&gt;Node1 -->
<g id="edge1_Node000001_Node000002" class="edge">
<title>Node2&#45;&gt;Node1</title>
<g id="a_edge1_Node000001_Node000002"><a xlink:title=" ">
<path fill="none" stroke="#63b8ff" d="M152.6,-53.31C165.31,-42.46 181.57,-28.59 192.05,-19.65"/>
<polygon fill="#63b8ff" stroke="#63b8ff" points="150.59,-50.42 145.26,-59.58 155.13,-55.75 150.59,-50.42"/>
</a>
</g>
</g>
<!-- Node3 -->
<g id="Node000003" class="node">
<title>Node3</title>
<g id="a_Node000003"><a xlink:href="class_im_fusion_1_1_configurable.html" target="_top" xlink:title="Base interface for classes that support object serialization from/to Properties objects.">
<polygon fill="white" stroke="#666666" points="117.25,-141 0,-141 0,-121.75 117.25,-121.75 117.25,-141"/>
<text xml:space="preserve" text-anchor="middle" x="58.62" y="-127.5" font-family="Helvetica,sans-Serif" font-size="10.00">ImFusion::Configurable</text>
</a>
</g>
</g>
<!-- Node3&#45;&gt;Node2 -->
<g id="edge2_Node000002_Node000003" class="edge">
<title>Node3&#45;&gt;Node2</title>
<g id="a_edge2_Node000002_Node000003"><a xlink:title=" ">
<path fill="none" stroke="#63b8ff" d="M78.85,-114.5C92.72,-103.61 110.63,-89.55 122.13,-80.53"/>
<polygon fill="#63b8ff" stroke="#63b8ff" points="76.91,-111.57 71.21,-120.5 81.23,-117.08 76.91,-111.57"/>
</a>
</g>
</g>
<!-- Node4 -->
<g id="Node000004" class="node">
<title>Node4</title>
<g id="a_Node000004"><a xlink:href="class_im_fusion_1_1_utils_1_1_not_copyable.html" target="_top" xlink:title="Inherit from this class if your class should be neither copy&#45;constructible nor assignable.">
<polygon fill="white" stroke="#666666" points="281.5,-141 135.75,-141 135.75,-121.75 281.5,-121.75 281.5,-141"/>
<text xml:space="preserve" text-anchor="middle" x="208.62" y="-127.5" font-family="Helvetica,sans-Serif" font-size="10.00">ImFusion::Utils::NotCopyable</text>
</a>
</g>
</g>
<!-- Node4&#45;&gt;Node2 -->
<g id="edge3_Node000002_Node000004" class="edge">
<title>Node4&#45;&gt;Node2</title>
<g id="a_edge3_Node000002_Node000004"><a xlink:title=" ">
<path fill="none" stroke="#8b1a1a" d="M188.4,-114.5C174.53,-103.61 156.62,-89.55 145.12,-80.53"/>
<polygon fill="#8b1a1a" stroke="#8b1a1a" points="186.02,-117.08 196.04,-120.5 190.34,-111.57 186.02,-117.08"/>
</a>
</g>
</g>
<!-- Node5 -->
<g id="Node000005" class="node">
<title>Node5</title>
<g id="a_Node000005"><a xlink:href="class_im_fusion_1_1_sequential_image_processor.html" target="_top" xlink:title="Interface for algorithms that are able to repeatedly process individual images.">
<polygon fill="white" stroke="#666666" points="339.25,-85.75 204,-85.75 204,-55.25 339.25,-55.25 339.25,-85.75"/>
<text xml:space="preserve" text-anchor="start" x="212" y="-72.25" font-family="Helvetica,sans-Serif" font-size="10.00">ImFusion::SequentialImage</text>
<text xml:space="preserve" text-anchor="middle" x="271.62" y="-61" font-family="Helvetica,sans-Serif" font-size="10.00">Processor</text>
</a>
</g>
</g>
<!-- Node5&#45;&gt;Node1 -->
<g id="edge4_Node000001_Node000005" class="edge">
<title>Node5&#45;&gt;Node1</title>
<g id="a_edge4_Node000001_Node000005"><a xlink:title=" ">
<path fill="none" stroke="#63b8ff" d="M245.9,-47.55C234.6,-37.9 221.95,-27.11 213.26,-19.7"/>
<polygon fill="#63b8ff" stroke="#63b8ff" points="243.54,-50.14 253.42,-53.96 248.08,-44.81 243.54,-50.14"/>
</a>
</g>
</g>
</g>
</svg>
