<?xml version="1.0" encoding="UTF-8" standalone="no"?>
<!DOCTYPE svg PUBLIC "-//W3C//DTD SVG 1.1//EN"
 "http://www.w3.org/Graphics/SVG/1.1/DTD/svg11.dtd">
<!-- Generated by graphviz version 14.1.4 (20260321.0153)
 -->
<!-- Title: ImFusion::Dicom::ReferencedInstancesComponent Pages: 1 -->
<svg width="185pt" height="216pt"
 viewBox="0.00 0.00 185.00 216.00" xmlns="http://www.w3.org/2000/svg" xmlns:xlink="http://www.w3.org/1999/xlink">
<g id="graph0" class="graph" transform="scale(1 1) rotate(0) translate(4 211.5)">
<title>ImFusion::Dicom::ReferencedInstancesComponent</title>
<!-- Node1 -->
<g id="Node000001" class="node">
<title>Node1</title>
<g id="a_Node000001"><a xlink:title="DataComponent to store DICOM instances that are referenced by the dataset.">
<polygon fill="#999999" stroke="#666666" points="162.25,-30.5 15,-30.5 15,0 162.25,0 162.25,-30.5"/>
<text xml:space="preserve" text-anchor="start" x="23" y="-17" font-family="Helvetica,sans-Serif" font-size="10.00">ImFusion::Dicom::Referenced</text>
<text xml:space="preserve" text-anchor="middle" x="88.62" y="-5.75" font-family="Helvetica,sans-Serif" font-size="10.00">InstancesComponent</text>
</a>
</g>
</g>
<!-- Node2 -->
<g id="Node000002" class="node">
<title>Node2</title>
<g id="a_Node000002"><a xlink:href="class_im_fusion_1_1_data_component.html" target="_top" xlink:title=" ">
<polygon fill="white" stroke="#666666" points="177.25,-97 0,-97 0,-66.5 177.25,-66.5 177.25,-97"/>
<text xml:space="preserve" text-anchor="start" x="8" y="-83.5" font-family="Helvetica,sans-Serif" font-size="10.00">ImFusion::DataComponent</text>
<text xml:space="preserve" text-anchor="middle" x="88.62" y="-72.25" font-family="Helvetica,sans-Serif" font-size="10.00">&lt; ReferencedInstancesComponent &gt;</text>
</a>
</g>
</g>
<!-- Node2&#45;&gt;Node1 -->
<g id="edge1_Node000001_Node000002" class="edge">
<title>Node2&#45;&gt;Node1</title>
<g id="a_edge1_Node000001_Node000002"><a xlink:title=" ">
<path fill="none" stroke="#63b8ff" d="M88.62,-54.81C88.62,-46.64 88.62,-37.91 88.62,-30.83"/>
<polygon fill="#63b8ff" stroke="#63b8ff" points="85.13,-54.6 88.63,-64.6 92.13,-54.6 85.13,-54.6"/>
</a>
</g>
</g>
<!-- Node3 -->
<g id="Node000003" class="node">
<title>Node3</title>
<g id="a_Node000003"><a xlink:href="class_im_fusion_1_1_data_component_base.html" target="_top" xlink:title="Data components provide a way to generically attach custom information objects.">
<polygon fill="white" stroke="#666666" points="166.75,-152.25 10.5,-152.25 10.5,-133 166.75,-133 166.75,-152.25"/>
<text xml:space="preserve" text-anchor="middle" x="88.62" y="-138.75" font-family="Helvetica,sans-Serif" font-size="10.00">ImFusion::DataComponentBase</text>
</a>
</g>
</g>
<!-- Node3&#45;&gt;Node2 -->
<g id="edge2_Node000002_Node000003" class="edge">
<title>Node3&#45;&gt;Node2</title>
<g id="a_edge2_Node000002_Node000003"><a xlink:title=" ">
<path fill="none" stroke="#63b8ff" d="M88.62,-121.42C88.62,-113.49 88.62,-104.56 88.62,-97.28"/>
<polygon fill="#63b8ff" stroke="#63b8ff" points="85.13,-121.17 88.63,-131.17 92.13,-121.17 85.13,-121.17"/>
</a>
</g>
</g>
<!-- Node4 -->
<g id="Node000004" class="node">
<title>Node4</title>
<g id="a_Node000004"><a xlink:href="class_im_fusion_1_1_configurable.html" target="_top" xlink:title="Base interface for classes that support object serialization from/to Properties objects.">
<polygon fill="white" stroke="#666666" points="147.25,-207.5 30,-207.5 30,-188.25 147.25,-188.25 147.25,-207.5"/>
<text xml:space="preserve" text-anchor="middle" x="88.62" y="-194" font-family="Helvetica,sans-Serif" font-size="10.00">ImFusion::Configurable</text>
</a>
</g>
</g>
<!-- Node4&#45;&gt;Node3 -->
<g id="edge3_Node000003_Node000004" class="edge">
<title>Node4&#45;&gt;Node3</title>
<g id="a_edge3_Node000003_Node000004"><a xlink:title=" ">
<path fill="none" stroke="#63b8ff" d="M88.62,-176.63C88.62,-168.34 88.62,-159.17 88.62,-152.61"/>
<polygon fill="#63b8ff" stroke="#63b8ff" points="85.13,-176.57 88.63,-186.57 92.13,-176.57 85.13,-176.57"/>
</a>
</g>
</g>
</g>
</svg>
