<?xml version="1.0" encoding="UTF-8" standalone="no"?>
<!DOCTYPE svg PUBLIC "-//W3C//DTD SVG 1.1//EN"
 "http://www.w3.org/Graphics/SVG/1.1/DTD/svg11.dtd">
<!-- Generated by graphviz version 14.1.4 (20260321.0153)
 -->
<!-- Title: ImFusion::DefaultAlgorithmController Pages: 1 -->
<svg width="873pt" height="333pt"
 viewBox="0.00 0.00 873.00 333.00" xmlns="http://www.w3.org/2000/svg" xmlns:xlink="http://www.w3.org/1999/xlink">
<g id="graph0" class="graph" transform="scale(1 1) rotate(0) translate(4 328.5)">
<title>ImFusion::DefaultAlgorithmController</title>
<!-- Node1 -->
<g id="Node000001" class="node">
<title>Node1</title>
<g id="a_Node000001"><a xlink:title="Default algorithm controller, with automatically generated GUI This GUI includes: A PropertiesWidget ...">
<polygon fill="#999999" stroke="#666666" points="663.25,-177.5 528,-177.5 528,-147 663.25,-147 663.25,-177.5"/>
<text xml:space="preserve" text-anchor="start" x="536" y="-164" font-family="Helvetica,sans-Serif" font-size="10.00">ImFusion::DefaultAlgorithm</text>
<text xml:space="preserve" text-anchor="middle" x="595.62" y="-152.75" font-family="Helvetica,sans-Serif" font-size="10.00">Controller</text>
</a>
</g>
</g>
<!-- Node8 -->
<g id="Node000008" class="node">
<title>Node8</title>
<g id="a_Node000008"><a xlink:href="class_im_fusion_1_1_line_to_isosurface_intersection_controller.html" target="_top" xlink:title="Controller for the LineToIsosurfaceIntersectionAlgorithm.">
<polygon fill="white" stroke="#666666" points="850.62,-324.5 713.88,-324.5 713.88,-294 850.62,-294 850.62,-324.5"/>
<text xml:space="preserve" text-anchor="start" x="721.88" y="-311" font-family="Helvetica,sans-Serif" font-size="10.00">ImFusion::LineToIsosurface</text>
<text xml:space="preserve" text-anchor="middle" x="782.25" y="-299.75" font-family="Helvetica,sans-Serif" font-size="10.00">IntersectionController</text>
</a>
</g>
</g>
<!-- Node1&#45;&gt;Node8 -->
<g id="edge7_Node000001_Node000008" class="edge">
<title>Node1&#45;&gt;Node8</title>
<g id="a_edge7_Node000001_Node000008"><a xlink:title=" ">
<path fill="none" stroke="#63b8ff" d="M611.6,-187.59C629.21,-215.25 660.95,-258.96 699.25,-284.25 704.71,-287.86 710.72,-290.97 716.93,-293.64"/>
<polygon fill="#63b8ff" stroke="#63b8ff" points="614.6,-185.78 606.36,-179.13 608.65,-189.47 614.6,-185.78"/>
</a>
</g>
</g>
<!-- Node9 -->
<g id="Node000009" class="node">
<title>Node9</title>
<g id="a_Node000009"><a xlink:href="class_im_fusion_1_1_link_pose_deformable_controller.html" target="_top" xlink:title="Default algorithm controller for LinkPoseDeformable algorithm, with a slight modification to have GlM...">
<polygon fill="white" stroke="#666666" points="858.88,-275.5 705.62,-275.5 705.62,-245 858.88,-245 858.88,-275.5"/>
<text xml:space="preserve" text-anchor="start" x="713.62" y="-262" font-family="Helvetica,sans-Serif" font-size="10.00">ImFusion::LinkPoseDeformable</text>
<text xml:space="preserve" text-anchor="middle" x="782.25" y="-250.75" font-family="Helvetica,sans-Serif" font-size="10.00">Controller</text>
</a>
</g>
</g>
<!-- Node1&#45;&gt;Node9 -->
<g id="edge8_Node000001_Node000009" class="edge">
<title>Node1&#45;&gt;Node9</title>
<g id="a_edge8_Node000001_Node000009"><a xlink:title=" ">
<path fill="none" stroke="#63b8ff" d="M623.52,-185.07C643.38,-200.96 671.64,-221.67 699.25,-235.25 706.33,-238.73 713.99,-241.84 721.69,-244.59"/>
<polygon fill="#63b8ff" stroke="#63b8ff" points="625.89,-182.48 615.93,-178.88 621.47,-187.91 625.89,-182.48"/>
</a>
</g>
</g>
<!-- Node10 -->
<g id="Node000010" class="node">
<title>Node10</title>
<g id="a_Node000010"><a xlink:href="class_im_fusion_1_1_parse_folder_and_run_workspace_algorithm_controller.html" target="_top" xlink:title="Controller for the algorithm parsing folders and running a workspace on them.">
<polygon fill="white" stroke="#666666" points="865.25,-226.5 699.25,-226.5 699.25,-196 865.25,-196 865.25,-226.5"/>
<text xml:space="preserve" text-anchor="start" x="707.25" y="-213" font-family="Helvetica,sans-Serif" font-size="10.00">ImFusion::ParseFolderAnd</text>
<text xml:space="preserve" text-anchor="middle" x="782.25" y="-201.75" font-family="Helvetica,sans-Serif" font-size="10.00">RunWorkspaceAlgorithmController</text>
</a>
</g>
</g>
<!-- Node1&#45;&gt;Node10 -->
<g id="edge9_Node000001_Node000010" class="edge">
<title>Node1&#45;&gt;Node10</title>
<g id="a_edge9_Node000001_Node000010"><a xlink:title=" ">
<path fill="none" stroke="#63b8ff" d="M666.69,-180.84C684.95,-185.69 704.45,-190.87 722.09,-195.55"/>
<polygon fill="#63b8ff" stroke="#63b8ff" points="667.83,-177.53 657.27,-178.34 666.03,-184.29 667.83,-177.53"/>
</a>
</g>
</g>
<!-- Node11 -->
<g id="Node000011" class="node">
<title>Node11</title>
<g id="a_Node000011"><a xlink:href="class_im_fusion_1_1_r_t_structure_to_label_map_controller.html" target="_top" xlink:title="Controller that allows to select a reference volume for the RTStructureToLabelMap algorithm.">
<polygon fill="white" stroke="#666666" points="857,-177.5 707.5,-177.5 707.5,-147 857,-147 857,-177.5"/>
<text xml:space="preserve" text-anchor="start" x="715.5" y="-164" font-family="Helvetica,sans-Serif" font-size="10.00">ImFusion::RTStructureToLabel</text>
<text xml:space="preserve" text-anchor="middle" x="782.25" y="-152.75" font-family="Helvetica,sans-Serif" font-size="10.00">MapController</text>
</a>
</g>
</g>
<!-- Node1&#45;&gt;Node11 -->
<g id="edge10_Node000001_Node000011" class="edge">
<title>Node1&#45;&gt;Node11</title>
<g id="a_edge10_Node000001_Node000011"><a xlink:title=" ">
<path fill="none" stroke="#63b8ff" d="M674.96,-162.25C685.6,-162.25 696.5,-162.25 707.07,-162.25"/>
<polygon fill="#63b8ff" stroke="#63b8ff" points="675.05,-158.75 665.05,-162.25 675.05,-165.75 675.05,-158.75"/>
</a>
</g>
</g>
<!-- Node12 -->
<g id="Node000012" class="node">
<title>Node12</title>
<g id="a_Node000012"><a xlink:href="class_im_fusion_1_1_spline_label_painter_algorithm_controller.html" target="_top" xlink:title="Controller for SplineLabelPainterAlgorithm.">
<polygon fill="white" stroke="#666666" points="854,-128.5 710.5,-128.5 710.5,-98 854,-98 854,-128.5"/>
<text xml:space="preserve" text-anchor="start" x="718.5" y="-115" font-family="Helvetica,sans-Serif" font-size="10.00">ImFusion::SplineLabelPainter</text>
<text xml:space="preserve" text-anchor="middle" x="782.25" y="-103.75" font-family="Helvetica,sans-Serif" font-size="10.00">AlgorithmController</text>
</a>
</g>
</g>
<!-- Node1&#45;&gt;Node12 -->
<g id="edge11_Node000001_Node000012" class="edge">
<title>Node1&#45;&gt;Node12</title>
<g id="a_edge11_Node000001_Node000012"><a xlink:title=" ">
<path fill="none" stroke="#63b8ff" d="M666.69,-143.66C684.95,-138.81 704.45,-133.63 722.09,-128.95"/>
<polygon fill="#63b8ff" stroke="#63b8ff" points="666.03,-140.21 657.27,-146.16 667.83,-146.97 666.03,-140.21"/>
</a>
</g>
</g>
<!-- Node13 -->
<g id="Node000013" class="node">
<title>Node13</title>
<g id="a_Node000013"><a xlink:href="class_im_fusion_1_1_volume_based_mesh_curvature_controller.html" target="_top" xlink:title=" ">
<polygon fill="white" stroke="#bfbfbf" points="855.88,-79.5 708.62,-79.5 708.62,-49 855.88,-49 855.88,-79.5"/>
<text xml:space="preserve" text-anchor="start" x="716.62" y="-66" font-family="Helvetica,sans-Serif" font-size="10.00">ImFusion::VolumeBasedMesh</text>
<text xml:space="preserve" text-anchor="middle" x="782.25" y="-54.75" font-family="Helvetica,sans-Serif" font-size="10.00">CurvatureController</text>
</a>
</g>
</g>
<!-- Node1&#45;&gt;Node13 -->
<g id="edge12_Node000001_Node000013" class="edge">
<title>Node1&#45;&gt;Node13</title>
<g id="a_edge12_Node000001_Node000013"><a xlink:title=" ">
<path fill="none" stroke="#63b8ff" d="M623.52,-139.43C643.38,-123.54 671.64,-102.83 699.25,-89.25 706.33,-85.77 713.99,-82.66 721.69,-79.91"/>
<polygon fill="#63b8ff" stroke="#63b8ff" points="621.47,-136.59 615.93,-145.62 625.89,-142.02 621.47,-136.59"/>
</a>
</g>
</g>
<!-- Node14 -->
<g id="Node000014" class="node">
<title>Node14</title>
<g id="a_Node000014"><a xlink:href="class_im_fusion_1_1_volume_based_mesh_registration_controller.html" target="_top" xlink:title=" ">
<polygon fill="white" stroke="#bfbfbf" points="855.88,-30.5 708.62,-30.5 708.62,0 855.88,0 855.88,-30.5"/>
<text xml:space="preserve" text-anchor="start" x="716.62" y="-17" font-family="Helvetica,sans-Serif" font-size="10.00">ImFusion::VolumeBasedMesh</text>
<text xml:space="preserve" text-anchor="middle" x="782.25" y="-5.75" font-family="Helvetica,sans-Serif" font-size="10.00">RegistrationController</text>
</a>
</g>
</g>
<!-- Node1&#45;&gt;Node14 -->
<g id="edge13_Node000001_Node000014" class="edge">
<title>Node1&#45;&gt;Node14</title>
<g id="a_edge13_Node000001_Node000014"><a xlink:title=" ">
<path fill="none" stroke="#63b8ff" d="M611.6,-136.91C629.21,-109.25 660.95,-65.54 699.25,-40.25 704.71,-36.64 710.72,-33.53 716.93,-30.86"/>
<polygon fill="#63b8ff" stroke="#63b8ff" points="608.65,-135.03 606.36,-145.37 614.6,-138.72 608.65,-135.03"/>
</a>
</g>
</g>
<!-- Node2 -->
<g id="Node000002" class="node">
<title>Node2</title>
<g id="a_Node000002"><a xlink:title=" ">
<polygon fill="white" stroke="#bfbfbf" points="446.25,-190.88 392,-190.88 392,-171.62 446.25,-171.62 446.25,-190.88"/>
<text xml:space="preserve" text-anchor="middle" x="419.12" y="-177.38" font-family="Helvetica,sans-Serif" font-size="10.00">QWidget</text>
</a>
</g>
</g>
<!-- Node2&#45;&gt;Node1 -->
<g id="edge1_Node000001_Node000002" class="edge">
<title>Node2&#45;&gt;Node1</title>
<g id="a_edge1_Node000001_Node000002"><a xlink:title=" ">
<path fill="none" stroke="#63b8ff" d="M457.97,-177.13C478.38,-174.91 504.18,-172.1 527.85,-169.52"/>
<polygon fill="#63b8ff" stroke="#63b8ff" points="457.69,-173.64 448.13,-178.2 458.45,-180.6 457.69,-173.64"/>
</a>
</g>
</g>
<!-- Node3 -->
<g id="Node000003" class="node">
<title>Node3</title>
<g id="a_Node000003"><a xlink:href="class_im_fusion_1_1_algorithm_controller.html" target="_top" xlink:title="Specialization of the Controller interface to be used with Algorithm instances.">
<polygon fill="white" stroke="#666666" points="492,-153.88 346.25,-153.88 346.25,-134.62 492,-134.62 492,-153.88"/>
<text xml:space="preserve" text-anchor="middle" x="419.12" y="-140.38" font-family="Helvetica,sans-Serif" font-size="10.00">ImFusion::AlgorithmController</text>
</a>
</g>
</g>
<!-- Node3&#45;&gt;Node1 -->
<g id="edge2_Node000001_Node000003" class="edge">
<title>Node3&#45;&gt;Node1</title>
<g id="a_edge2_Node000001_Node000003"><a xlink:title=" ">
<path fill="none" stroke="#63b8ff" d="M503.71,-152.87C511.78,-153.7 519.88,-154.54 527.76,-155.35"/>
<polygon fill="#63b8ff" stroke="#63b8ff" points="504.17,-149.4 493.87,-151.86 503.45,-156.36 504.17,-149.4"/>
</a>
</g>
</g>
<!-- Node4 -->
<g id="Node000004" class="node">
<title>Node4</title>
<g id="a_Node000004"><a xlink:href="class_im_fusion_1_1_controller.html" target="_top" xlink:title="Base interface for a GUI element within MainWindowBase.">
<polygon fill="white" stroke="#666666" points="298.25,-172.88 193.75,-172.88 193.75,-153.62 298.25,-153.62 298.25,-172.88"/>
<text xml:space="preserve" text-anchor="middle" x="246" y="-159.38" font-family="Helvetica,sans-Serif" font-size="10.00">ImFusion::Controller</text>
</a>
</g>
</g>
<!-- Node4&#45;&gt;Node3 -->
<g id="edge3_Node000003_Node000004" class="edge">
<title>Node4&#45;&gt;Node3</title>
<g id="a_edge3_Node000003_Node000004"><a xlink:title=" ">
<path fill="none" stroke="#63b8ff" d="M309.48,-156.31C321.33,-155 333.82,-153.61 345.94,-152.26"/>
<polygon fill="#63b8ff" stroke="#63b8ff" points="309.4,-152.8 299.85,-157.38 310.17,-159.76 309.4,-152.8"/>
</a>
</g>
</g>
<!-- Node5 -->
<g id="Node000005" class="node">
<title>Node5</title>
<g id="a_Node000005"><a xlink:href="class_im_fusion_1_1_configurable.html" target="_top" xlink:title="Base interface for classes that support object serialization from/to Properties objects.">
<polygon fill="white" stroke="#666666" points="131.5,-190.88 14.25,-190.88 14.25,-171.62 131.5,-171.62 131.5,-190.88"/>
<text xml:space="preserve" text-anchor="middle" x="72.88" y="-177.38" font-family="Helvetica,sans-Serif" font-size="10.00">ImFusion::Configurable</text>
</a>
</g>
</g>
<!-- Node5&#45;&gt;Node4 -->
<g id="edge4_Node000004_Node000005" class="edge">
<title>Node5&#45;&gt;Node4</title>
<g id="a_edge4_Node000004_Node000005"><a xlink:title=" ">
<path fill="none" stroke="#63b8ff" d="M143.25,-173.95C160.02,-172.19 177.65,-170.33 193.44,-168.67"/>
<polygon fill="#63b8ff" stroke="#63b8ff" points="142.89,-170.47 133.32,-175 143.63,-177.43 142.89,-170.47"/>
</a>
</g>
</g>
<!-- Node6 -->
<g id="Node000006" class="node">
<title>Node6</title>
<g id="a_Node000006"><a xlink:href="class_im_fusion_1_1_utils_1_1_not_copyable.html" target="_top" xlink:title="Inherit from this class if your class should be neither copy&#45;constructible nor assignable.">
<polygon fill="white" stroke="#666666" points="145.75,-153.88 0,-153.88 0,-134.62 145.75,-134.62 145.75,-153.88"/>
<text xml:space="preserve" text-anchor="middle" x="72.88" y="-140.38" font-family="Helvetica,sans-Serif" font-size="10.00">ImFusion::Utils::NotCopyable</text>
</a>
</g>
</g>
<!-- Node6&#45;&gt;Node4 -->
<g id="edge5_Node000004_Node000006" class="edge">
<title>Node6&#45;&gt;Node4</title>
<g id="a_edge5_Node000004_Node000006"><a xlink:title=" ">
<path fill="none" stroke="#8b1a1a" d="M157.2,-153.5C169.5,-154.87 181.87,-156.24 193.27,-157.51"/>
<polygon fill="#8b1a1a" stroke="#8b1a1a" points="157.78,-150.04 147.46,-152.42 157.01,-157 157.78,-150.04"/>
</a>
</g>
</g>
<!-- Node7 -->
<g id="Node000007" class="node">
<title>Node7</title>
<g id="a_Node000007"><a xlink:href="class_im_fusion_1_1_signal_receiver.html" target="_top" xlink:title="Base class for classes that can contain slots (i.e.">
<polygon fill="white" stroke="#666666" points="310.25,-135.88 181.75,-135.88 181.75,-116.62 310.25,-116.62 310.25,-135.88"/>
<text xml:space="preserve" text-anchor="middle" x="246" y="-122.38" font-family="Helvetica,sans-Serif" font-size="10.00">ImFusion::SignalReceiver</text>
</a>
</g>
</g>
<!-- Node7&#45;&gt;Node3 -->
<g id="edge6_Node000003_Node000007" class="edge">
<title>Node7&#45;&gt;Node3</title>
<g id="a_edge6_Node000003_Node000007"><a xlink:title=" ">
<path fill="none" stroke="#63b8ff" d="M321.91,-134.13C329.91,-134.97 338.03,-135.83 346,-136.66"/>
<polygon fill="#63b8ff" stroke="#63b8ff" points="322.54,-130.68 312.23,-133.11 321.8,-137.64 322.54,-130.68"/>
</a>
</g>
</g>
</g>
</svg>
