<?xml version="1.0" encoding="UTF-8" standalone="no"?>
<!DOCTYPE svg PUBLIC "-//W3C//DTD SVG 1.1//EN"
 "http://www.w3.org/Graphics/SVG/1.1/DTD/svg11.dtd">
<!-- Generated by graphviz version 14.1.4 (20260321.0153)
 -->
<!-- Title: ImFusion::OpacitySlider Pages: 1 -->
<svg width="143pt" height="138pt"
 viewBox="0.00 0.00 143.00 138.00" xmlns="http://www.w3.org/2000/svg" xmlns:xlink="http://www.w3.org/1999/xlink">
<g id="graph0" class="graph" transform="scale(1 1) rotate(0) translate(4 133.75)">
<title>ImFusion::OpacitySlider</title>
<!-- Node1 -->
<g id="Node000001" class="node">
<title>Node1</title>
<g id="a_Node000001"><a xlink:title="Specialized version of a CompositeSlider that renders a checkerboard blended with the given color as ...">
<polygon fill="#999999" stroke="#666666" points="127.75,-19.25 6.75,-19.25 6.75,0 127.75,0 127.75,-19.25"/>
<text xml:space="preserve" text-anchor="middle" x="67.25" y="-5.75" font-family="Helvetica,sans-Serif" font-size="10.00">ImFusion::OpacitySlider</text>
</a>
</g>
</g>
<!-- Node2 -->
<g id="Node000002" class="node">
<title>Node2</title>
<g id="a_Node000002"><a xlink:href="class_im_fusion_1_1_composite_slider.html" target="_top" xlink:title="QSlider which adds the possibility of painting a background for the slider.">
<polygon fill="white" stroke="#666666" points="134.5,-74.5 0,-74.5 0,-55.25 134.5,-55.25 134.5,-74.5"/>
<text xml:space="preserve" text-anchor="middle" x="67.25" y="-61" font-family="Helvetica,sans-Serif" font-size="10.00">ImFusion::CompositeSlider</text>
</a>
</g>
</g>
<!-- Node2&#45;&gt;Node1 -->
<g id="edge1_Node000001_Node000002" class="edge">
<title>Node2&#45;&gt;Node1</title>
<g id="a_edge1_Node000001_Node000002"><a xlink:title=" ">
<path fill="none" stroke="#63b8ff" d="M67.25,-43.63C67.25,-35.34 67.25,-26.17 67.25,-19.61"/>
<polygon fill="#63b8ff" stroke="#63b8ff" points="63.75,-43.57 67.25,-53.57 70.75,-43.57 63.75,-43.57"/>
</a>
</g>
</g>
<!-- Node3 -->
<g id="Node000003" class="node">
<title>Node3</title>
<g id="a_Node000003"><a xlink:title=" ">
<polygon fill="white" stroke="#bfbfbf" points="91.38,-129.75 43.12,-129.75 43.12,-110.5 91.38,-110.5 91.38,-129.75"/>
<text xml:space="preserve" text-anchor="middle" x="67.25" y="-116.25" font-family="Helvetica,sans-Serif" font-size="10.00">QSlider</text>
</a>
</g>
</g>
<!-- Node3&#45;&gt;Node2 -->
<g id="edge2_Node000002_Node000003" class="edge">
<title>Node3&#45;&gt;Node2</title>
<g id="a_edge2_Node000002_Node000003"><a xlink:title=" ">
<path fill="none" stroke="#63b8ff" d="M67.25,-98.88C67.25,-90.59 67.25,-81.42 67.25,-74.86"/>
<polygon fill="#63b8ff" stroke="#63b8ff" points="63.75,-98.82 67.25,-108.82 70.75,-98.82 63.75,-98.82"/>
</a>
</g>
</g>
</g>
</svg>
