<?xml version="1.0" encoding="UTF-8" standalone="no"?>
<!DOCTYPE svg PUBLIC "-//W3C//DTD SVG 1.1//EN"
 "http://www.w3.org/Graphics/SVG/1.1/DTD/svg11.dtd">
<!-- Generated by graphviz version 14.1.4 (20260321.0153)
 -->
<!-- Title: ImFusion::GlSpline Pages: 1 -->
<svg width="433pt" height="304pt"
 viewBox="0.00 0.00 433.00 304.00" xmlns="http://www.w3.org/2000/svg" xmlns:xlink="http://www.w3.org/1999/xlink">
<g id="graph0" class="graph" transform="scale(1 1) rotate(0) translate(4 299.5)">
<title>ImFusion::GlSpline</title>
<!-- Node1 -->
<g id="Node000001" class="node">
<title>Node1</title>
<g id="a_Node000001"><a xlink:title="Spline annotation.">
<polygon fill="#999999" stroke="#666666" points="275.88,-74.5 176.62,-74.5 176.62,-55.25 275.88,-55.25 275.88,-74.5"/>
<text xml:space="preserve" text-anchor="middle" x="226.25" y="-61" font-family="Helvetica,sans-Serif" font-size="10.00">ImFusion::GlSpline</text>
</a>
</g>
</g>
<!-- Node7 -->
<g id="Node000007" class="node">
<title>Node7</title>
<g id="a_Node000007"><a xlink:href="class_im_fusion_1_1_gl_curved_view_spline.html" target="_top" xlink:title="Spline annotation for curved views.">
<polygon fill="white" stroke="#666666" points="152.5,-19.25 0,-19.25 0,0 152.5,0 152.5,-19.25"/>
<text xml:space="preserve" text-anchor="middle" x="76.25" y="-5.75" font-family="Helvetica,sans-Serif" font-size="10.00">ImFusion::GlCurvedViewSpline</text>
</a>
</g>
</g>
<!-- Node1&#45;&gt;Node7 -->
<g id="edge6_Node000001_Node000007" class="edge">
<title>Node1&#45;&gt;Node7</title>
<g id="a_edge6_Node000001_Node000007"><a xlink:title=" ">
<path fill="none" stroke="#63b8ff" d="M190.13,-51.05C162.86,-41.37 126.11,-28.32 101.82,-19.7"/>
<polygon fill="#63b8ff" stroke="#63b8ff" points="188.78,-54.29 199.38,-54.34 191.13,-47.69 188.78,-54.29"/>
</a>
</g>
</g>
<!-- Node8 -->
<g id="Node000008" class="node">
<title>Node8</title>
<g id="a_Node000008"><a xlink:href="class_im_fusion_1_1_gl_freeform.html" target="_top" xlink:title="Freeform annotation. Draw whatever you want.">
<polygon fill="white" stroke="#666666" points="281.88,-19.25 170.62,-19.25 170.62,0 281.88,0 281.88,-19.25"/>
<text xml:space="preserve" text-anchor="middle" x="226.25" y="-5.75" font-family="Helvetica,sans-Serif" font-size="10.00">ImFusion::GlFreeform</text>
</a>
</g>
</g>
<!-- Node1&#45;&gt;Node8 -->
<g id="edge7_Node000001_Node000008" class="edge">
<title>Node1&#45;&gt;Node8</title>
<g id="a_edge7_Node000001_Node000008"><a xlink:title=" ">
<path fill="none" stroke="#63b8ff" d="M226.25,-43.63C226.25,-35.34 226.25,-26.17 226.25,-19.61"/>
<polygon fill="#63b8ff" stroke="#63b8ff" points="222.75,-43.57 226.25,-53.57 229.75,-43.57 222.75,-43.57"/>
</a>
</g>
</g>
<!-- Node9 -->
<g id="Node000009" class="node">
<title>Node9</title>
<g id="a_Node000009"><a xlink:href="class_im_fusion_1_1_gl_smart_spline.html" target="_top" xlink:title="Intelligent spline annotation.">
<polygon fill="white" stroke="#666666" points="425,-19.25 299.5,-19.25 299.5,0 425,0 425,-19.25"/>
<text xml:space="preserve" text-anchor="middle" x="362.25" y="-5.75" font-family="Helvetica,sans-Serif" font-size="10.00">ImFusion::GlSmartSpline</text>
</a>
</g>
</g>
<!-- Node1&#45;&gt;Node9 -->
<g id="edge8_Node000001_Node000009" class="edge">
<title>Node1&#45;&gt;Node9</title>
<g id="a_edge8_Node000001_Node000009"><a xlink:title=" ">
<path fill="none" stroke="#63b8ff" d="M259.99,-50.66C284.61,-41.02 317.34,-28.21 339.07,-19.7"/>
<polygon fill="#63b8ff" stroke="#63b8ff" points="258.77,-47.38 250.73,-54.29 261.32,-53.9 258.77,-47.38"/>
</a>
</g>
</g>
<!-- Node2 -->
<g id="Node000002" class="node">
<title>Node2</title>
<g id="a_Node000002"><a xlink:href="class_im_fusion_1_1_gl_point_based_annotation.html" target="_top" xlink:title="Base class for implementing point&#45;based annotations.">
<polygon fill="white" stroke="#666666" points="310.75,-129.75 141.75,-129.75 141.75,-110.5 310.75,-110.5 310.75,-129.75"/>
<text xml:space="preserve" text-anchor="middle" x="226.25" y="-116.25" font-family="Helvetica,sans-Serif" font-size="10.00">ImFusion::GlPointBasedAnnotation</text>
</a>
</g>
</g>
<!-- Node2&#45;&gt;Node1 -->
<g id="edge1_Node000001_Node000002" class="edge">
<title>Node2&#45;&gt;Node1</title>
<g id="a_edge1_Node000001_Node000002"><a xlink:title=" ">
<path fill="none" stroke="#63b8ff" d="M226.25,-98.88C226.25,-90.59 226.25,-81.42 226.25,-74.86"/>
<polygon fill="#63b8ff" stroke="#63b8ff" points="222.75,-98.82 226.25,-108.82 229.75,-98.82 222.75,-98.82"/>
</a>
</g>
</g>
<!-- Node3 -->
<g id="Node000003" class="node">
<title>Node3</title>
<g id="a_Node000003"><a xlink:href="class_im_fusion_1_1_gl_annotation.html" target="_top" xlink:title="Base class for implementing annotations.">
<polygon fill="white" stroke="#666666" points="285.62,-185 166.88,-185 166.88,-165.75 285.62,-165.75 285.62,-185"/>
<text xml:space="preserve" text-anchor="middle" x="226.25" y="-171.5" font-family="Helvetica,sans-Serif" font-size="10.00">ImFusion::GlAnnotation</text>
</a>
</g>
</g>
<!-- Node3&#45;&gt;Node2 -->
<g id="edge2_Node000002_Node000003" class="edge">
<title>Node3&#45;&gt;Node2</title>
<g id="a_edge2_Node000002_Node000003"><a xlink:title=" ">
<path fill="none" stroke="#63b8ff" d="M226.25,-154.13C226.25,-145.84 226.25,-136.67 226.25,-130.11"/>
<polygon fill="#63b8ff" stroke="#63b8ff" points="222.75,-154.07 226.25,-164.07 229.75,-154.07 222.75,-154.07"/>
</a>
</g>
</g>
<!-- Node4 -->
<g id="Node000004" class="node">
<title>Node4</title>
<g id="a_Node000004"><a xlink:href="class_im_fusion_1_1_gl_object.html" target="_top" xlink:title="Abstract base class for an renderable OpenGL object that can be hosted in a GlView.">
<polygon fill="white" stroke="#666666" points="206.62,-240.25 105.88,-240.25 105.88,-221 206.62,-221 206.62,-240.25"/>
<text xml:space="preserve" text-anchor="middle" x="156.25" y="-226.75" font-family="Helvetica,sans-Serif" font-size="10.00">ImFusion::GlObject</text>
</a>
</g>
</g>
<!-- Node4&#45;&gt;Node3 -->
<g id="edge3_Node000003_Node000004" class="edge">
<title>Node4&#45;&gt;Node3</title>
<g id="a_edge3_Node000003_Node000004"><a xlink:title=" ">
<path fill="none" stroke="#63b8ff" d="M177.2,-213.69C189.42,-204.39 204.39,-193.01 214.55,-185.27"/>
<polygon fill="#63b8ff" stroke="#63b8ff" points="175.17,-210.84 169.33,-219.68 179.41,-216.41 175.17,-210.84"/>
</a>
</g>
</g>
<!-- Node5 -->
<g id="Node000005" class="node">
<title>Node5</title>
<g id="a_Node000005"><a xlink:href="class_im_fusion_1_1_configurable.html" target="_top" xlink:title="Base interface for classes that support object serialization from/to Properties objects.">
<polygon fill="white" stroke="#666666" points="214.88,-295.5 97.62,-295.5 97.62,-276.25 214.88,-276.25 214.88,-295.5"/>
<text xml:space="preserve" text-anchor="middle" x="156.25" y="-282" font-family="Helvetica,sans-Serif" font-size="10.00">ImFusion::Configurable</text>
</a>
</g>
</g>
<!-- Node5&#45;&gt;Node4 -->
<g id="edge4_Node000004_Node000005" class="edge">
<title>Node5&#45;&gt;Node4</title>
<g id="a_edge4_Node000004_Node000005"><a xlink:title=" ">
<path fill="none" stroke="#63b8ff" d="M156.25,-264.63C156.25,-256.34 156.25,-247.17 156.25,-240.61"/>
<polygon fill="#63b8ff" stroke="#63b8ff" points="152.75,-264.57 156.25,-274.57 159.75,-264.57 152.75,-264.57"/>
</a>
</g>
</g>
<!-- Node6 -->
<g id="Node000006" class="node">
<title>Node6</title>
<g id="a_Node000006"><a xlink:href="class_im_fusion_1_1_utils_1_1_not_copyable.html" target="_top" xlink:title="Inherit from this class if your class should be neither copy&#45;constructible nor assignable.">
<polygon fill="white" stroke="#666666" points="370.12,-240.25 224.38,-240.25 224.38,-221 370.12,-221 370.12,-240.25"/>
<text xml:space="preserve" text-anchor="middle" x="297.25" y="-226.75" font-family="Helvetica,sans-Serif" font-size="10.00">ImFusion::Utils::NotCopyable</text>
</a>
</g>
</g>
<!-- Node6&#45;&gt;Node3 -->
<g id="edge5_Node000003_Node000006" class="edge">
<title>Node6&#45;&gt;Node3</title>
<g id="a_edge5_Node000003_Node000006"><a xlink:title=" ">
<path fill="none" stroke="#8b1a1a" d="M276,-213.69C263.61,-204.39 248.43,-193.01 238.12,-185.27"/>
<polygon fill="#8b1a1a" stroke="#8b1a1a" points="273.89,-216.48 283.99,-219.68 278.09,-210.88 273.89,-216.48"/>
</a>
</g>
</g>
</g>
</svg>
