<?xml version="1.0" encoding="UTF-8" standalone="no"?>
<!DOCTYPE svg PUBLIC "-//W3C//DTD SVG 1.1//EN"
 "http://www.w3.org/Graphics/SVG/1.1/DTD/svg11.dtd">
<!-- Generated by graphviz version 14.1.4 (20260321.0153)
 -->
<!-- Title: ImFusion::SignalBase Pages: 1 -->
<svg width="306pt" height="186pt"
 viewBox="0.00 0.00 306.00 186.00" xmlns="http://www.w3.org/2000/svg" xmlns:xlink="http://www.w3.org/1999/xlink">
<g id="graph0" class="graph" transform="scale(1 1) rotate(0) translate(4 181.5)">
<title>ImFusion::SignalBase</title>
<!-- Node1 -->
<g id="Node000001" class="node">
<title>Node1</title>
<g id="a_Node000001"><a xlink:title="Base interface for Signals.">
<polygon fill="#999999" stroke="#666666" points="112,-97.88 0,-97.88 0,-78.62 112,-78.62 112,-97.88"/>
<text xml:space="preserve" text-anchor="middle" x="56" y="-84.38" font-family="Helvetica,sans-Serif" font-size="10.00">ImFusion::SignalBase</text>
</a>
</g>
</g>
<!-- Node2 -->
<g id="Node000002" class="node">
<title>Node2</title>
<g id="a_Node000002"><a xlink:href="class_im_fusion_1_1_signal_impl.html" target="_top" xlink:title=" ">
<polygon fill="white" stroke="#666666" points="278,-177.5 167.5,-177.5 167.5,-147 278,-147 278,-177.5"/>
<text xml:space="preserve" text-anchor="start" x="175.5" y="-164" font-family="Helvetica,sans-Serif" font-size="10.00">ImFusion::SignalImpl</text>
<text xml:space="preserve" text-anchor="middle" x="222.75" y="-152.75" font-family="Helvetica,sans-Serif" font-size="10.00">&lt; false, ArgTypes... &gt;</text>
</a>
</g>
</g>
<!-- Node1&#45;&gt;Node2 -->
<g id="edge1_Node000001_Node000002" class="edge">
<title>Node1&#45;&gt;Node2</title>
<g id="a_edge1_Node000001_Node000002"><a xlink:title=" ">
<path fill="none" stroke="#63b8ff" d="M83.39,-103.98C101.25,-114.24 125.58,-127.5 148,-137.25 155.56,-140.54 163.71,-143.68 171.73,-146.56"/>
<polygon fill="#63b8ff" stroke="#63b8ff" points="85.4,-101.1 74.99,-99.09 81.87,-107.15 85.4,-101.1"/>
</a>
</g>
</g>
<!-- Node3 -->
<g id="Node000003" class="node">
<title>Node3</title>
<g id="a_Node000003"><a xlink:href="class_im_fusion_1_1_signal_impl.html" target="_top" xlink:title=" ">
<polygon fill="white" stroke="#666666" points="276.88,-128.5 168.62,-128.5 168.62,-98 276.88,-98 276.88,-128.5"/>
<text xml:space="preserve" text-anchor="start" x="176.62" y="-115" font-family="Helvetica,sans-Serif" font-size="10.00">ImFusion::SignalImpl</text>
<text xml:space="preserve" text-anchor="middle" x="222.75" y="-103.75" font-family="Helvetica,sans-Serif" font-size="10.00">&lt; true, ArgTypes... &gt;</text>
</a>
</g>
</g>
<!-- Node1&#45;&gt;Node3 -->
<g id="edge2_Node000001_Node000003" class="edge">
<title>Node1&#45;&gt;Node3</title>
<g id="a_edge2_Node000001_Node000003"><a xlink:title=" ">
<path fill="none" stroke="#63b8ff" d="M123.52,-98.34C138.39,-100.6 153.99,-102.97 168.25,-105.13"/>
<polygon fill="#63b8ff" stroke="#63b8ff" points="124.23,-94.91 113.81,-96.87 123.18,-101.83 124.23,-94.91"/>
</a>
</g>
</g>
<!-- Node4 -->
<g id="Node000004" class="node">
<title>Node4</title>
<g id="a_Node000004"><a xlink:href="class_im_fusion_1_1_deprecated_signal.html" target="_top" xlink:title="Deprecation layer for signals.">
<polygon fill="white" stroke="#666666" points="297.5,-79.5 148,-79.5 148,-49 297.5,-49 297.5,-79.5"/>
<text xml:space="preserve" text-anchor="start" x="156" y="-66" font-family="Helvetica,sans-Serif" font-size="10.00">ImFusion::DeprecatedSignal</text>
<text xml:space="preserve" text-anchor="middle" x="222.75" y="-54.75" font-family="Helvetica,sans-Serif" font-size="10.00">&lt; MainSignalType, ArgTypes &gt;</text>
</a>
</g>
</g>
<!-- Node1&#45;&gt;Node4 -->
<g id="edge3_Node000001_Node000004" class="edge">
<title>Node1&#45;&gt;Node4</title>
<g id="a_edge3_Node000001_Node000004"><a xlink:title=" ">
<path fill="none" stroke="#63b8ff" d="M123.66,-78.54C131.53,-77.39 139.59,-76.22 147.55,-75.06"/>
<polygon fill="#63b8ff" stroke="#63b8ff" points="123.21,-75.07 113.82,-79.97 124.22,-82 123.21,-75.07"/>
</a>
</g>
</g>
<!-- Node5 -->
<g id="Node000005" class="node">
<title>Node5</title>
<g id="a_Node000005"><a xlink:href="class_im_fusion_1_1_signal_impl.html" target="_top" xlink:title="Implementation for a specific signal with the given signature.">
<polygon fill="white" stroke="#666666" points="285.5,-30.5 160,-30.5 160,0 285.5,0 285.5,-30.5"/>
<text xml:space="preserve" text-anchor="start" x="168" y="-17" font-family="Helvetica,sans-Serif" font-size="10.00">ImFusion::SignalImpl</text>
<text xml:space="preserve" text-anchor="middle" x="222.75" y="-5.75" font-family="Helvetica,sans-Serif" font-size="10.00">&lt; UseMutex, ArgTypes &gt;</text>
</a>
</g>
</g>
<!-- Node1&#45;&gt;Node5 -->
<g id="edge4_Node000001_Node000005" class="edge">
<title>Node1&#45;&gt;Node5</title>
<g id="a_edge4_Node000001_Node000005"><a xlink:title=" ">
<path fill="none" stroke="#63b8ff" d="M84.01,-72.55C101.83,-62.56 125.88,-49.76 148,-40.25 155.58,-36.99 163.73,-33.87 171.75,-31"/>
<polygon fill="#63b8ff" stroke="#63b8ff" points="82.33,-69.48 75.36,-77.46 85.79,-75.57 82.33,-69.48"/>
</a>
</g>
</g>
</g>
</svg>
