<?xml version="1.0" encoding="UTF-8" standalone="no"?>
<!DOCTYPE svg PUBLIC "-//W3C//DTD SVG 1.1//EN"
 "http://www.w3.org/Graphics/SVG/1.1/DTD/svg11.dtd">
<!-- Generated by graphviz version 14.1.4 (20260321.0153)
 -->
<!-- Title: ImFusion::AlgorithmFactory Pages: 1 -->
<svg width="522pt" height="211pt"
 viewBox="0.00 0.00 522.00 211.00" xmlns="http://www.w3.org/2000/svg" xmlns:xlink="http://www.w3.org/1999/xlink">
<g id="graph0" class="graph" transform="scale(1 1) rotate(0) translate(4 207.25)">
<title>ImFusion::AlgorithmFactory</title>
<!-- Node1 -->
<g id="Node000001" class="node">
<title>Node1</title>
<g id="a_Node000001"><a xlink:title="Interface for algorithm factories.">
<polygon fill="#999999" stroke="#666666" points="318.5,-111.25 181.75,-111.25 181.75,-92 318.5,-92 318.5,-111.25"/>
<text xml:space="preserve" text-anchor="middle" x="250.12" y="-97.75" font-family="Helvetica,sans-Serif" font-size="10.00">ImFusion::AlgorithmFactory</text>
</a>
</g>
</g>
<!-- Node3 -->
<g id="Node000003" class="node">
<title>Node3</title>
<g id="a_Node000003"><a xlink:href="class_im_fusion_1_1_base_algorithm_factory.html" target="_top" xlink:title="Factory for algorithms in the Base module.">
<polygon fill="white" stroke="#666666" points="513.75,-203.25 354.5,-203.25 354.5,-184 513.75,-184 513.75,-203.25"/>
<text xml:space="preserve" text-anchor="middle" x="434.12" y="-189.75" font-family="Helvetica,sans-Serif" font-size="10.00">ImFusion::BaseAlgorithmFactory</text>
</a>
</g>
</g>
<!-- Node1&#45;&gt;Node3 -->
<g id="edge2_Node000001_Node000003" class="edge">
<title>Node1&#45;&gt;Node3</title>
<g id="a_edge2_Node000001_Node000003"><a xlink:title=" ">
<path fill="none" stroke="#63b8ff" d="M271.03,-119.18C290.87,-135.8 322.86,-160.27 354.5,-174.62 362.3,-178.16 370.85,-181.1 379.34,-183.51"/>
<polygon fill="#63b8ff" stroke="#63b8ff" points="273.35,-116.56 263.47,-112.72 268.8,-121.88 273.35,-116.56"/>
</a>
</g>
</g>
<!-- Node4 -->
<g id="Node000004" class="node">
<title>Node4</title>
<g id="a_Node000004"><a xlink:href="class_im_fusion_1_1_default_io_algorithm_factory.html" target="_top" xlink:title="Factory for built&#45;in IO algorithms.">
<polygon fill="white" stroke="#666666" points="505.88,-165.88 362.38,-165.88 362.38,-135.38 505.88,-135.38 505.88,-165.88"/>
<text xml:space="preserve" text-anchor="start" x="370.38" y="-152.38" font-family="Helvetica,sans-Serif" font-size="10.00">ImFusion::DefaultIoAlgorithm</text>
<text xml:space="preserve" text-anchor="middle" x="434.12" y="-141.12" font-family="Helvetica,sans-Serif" font-size="10.00">Factory</text>
</a>
</g>
</g>
<!-- Node1&#45;&gt;Node4 -->
<g id="edge3_Node000001_Node000004" class="edge">
<title>Node1&#45;&gt;Node4</title>
<g id="a_edge3_Node000001_Node000004"><a xlink:title=" ">
<path fill="none" stroke="#63b8ff" d="M299.34,-114.61C322.49,-120.84 350.42,-128.36 374.76,-134.91"/>
<polygon fill="#63b8ff" stroke="#63b8ff" points="300.42,-111.27 289.86,-112.05 298.6,-118.03 300.42,-111.27"/>
</a>
</g>
</g>
<!-- Node5 -->
<g id="Node000005" class="node">
<title>Node5</title>
<g id="a_Node000005"><a xlink:href="class_im_fusion_1_1_dicom_algorithm_factory.html" target="_top" xlink:title=" ">
<polygon fill="white" stroke="#bfbfbf" points="500.25,-116.88 368,-116.88 368,-86.38 500.25,-86.38 500.25,-116.88"/>
<text xml:space="preserve" text-anchor="start" x="376" y="-103.38" font-family="Helvetica,sans-Serif" font-size="10.00">ImFusion::DicomAlgorithm</text>
<text xml:space="preserve" text-anchor="middle" x="434.12" y="-92.12" font-family="Helvetica,sans-Serif" font-size="10.00">Factory</text>
</a>
</g>
</g>
<!-- Node1&#45;&gt;Node5 -->
<g id="edge4_Node000001_Node000005" class="edge">
<title>Node1&#45;&gt;Node5</title>
<g id="a_edge4_Node000001_Node000005"><a xlink:title=" ">
<path fill="none" stroke="#63b8ff" d="M330.26,-101.62C342.77,-101.62 355.57,-101.62 367.72,-101.62"/>
<polygon fill="#63b8ff" stroke="#63b8ff" points="330.41,-98.13 320.41,-101.63 330.41,-105.13 330.41,-98.13"/>
</a>
</g>
</g>
<!-- Node6 -->
<g id="Node000006" class="node">
<title>Node6</title>
<g id="a_Node000006"><a xlink:href="class_im_fusion_1_1_dicom_gui_algorithm_factory.html" target="_top" xlink:title=" ">
<polygon fill="white" stroke="#bfbfbf" points="507.75,-67.88 360.5,-67.88 360.5,-37.38 507.75,-37.38 507.75,-67.88"/>
<text xml:space="preserve" text-anchor="start" x="368.5" y="-54.38" font-family="Helvetica,sans-Serif" font-size="10.00">ImFusion::DicomGuiAlgorithm</text>
<text xml:space="preserve" text-anchor="middle" x="434.12" y="-43.12" font-family="Helvetica,sans-Serif" font-size="10.00">Factory</text>
</a>
</g>
</g>
<!-- Node1&#45;&gt;Node6 -->
<g id="edge5_Node000001_Node000006" class="edge">
<title>Node1&#45;&gt;Node6</title>
<g id="a_edge5_Node000001_Node000006"><a xlink:title=" ">
<path fill="none" stroke="#63b8ff" d="M299.34,-88.64C322.49,-82.41 350.42,-74.89 374.76,-68.34"/>
<polygon fill="#63b8ff" stroke="#63b8ff" points="298.6,-85.22 289.86,-91.2 300.42,-91.98 298.6,-85.22"/>
</a>
</g>
</g>
<!-- Node7 -->
<g id="Node000007" class="node">
<title>Node7</title>
<g id="a_Node000007"><a xlink:href="class_im_fusion_1_1_gl_algorithm_factory.html" target="_top" xlink:title="Factory for GL algorithms.">
<polygon fill="white" stroke="#666666" points="507.38,-19.25 360.88,-19.25 360.88,0 507.38,0 507.38,-19.25"/>
<text xml:space="preserve" text-anchor="middle" x="434.12" y="-5.75" font-family="Helvetica,sans-Serif" font-size="10.00">ImFusion::GlAlgorithmFactory</text>
</a>
</g>
</g>
<!-- Node1&#45;&gt;Node7 -->
<g id="edge6_Node000001_Node000007" class="edge">
<title>Node1&#45;&gt;Node7</title>
<g id="a_edge6_Node000001_Node000007"><a xlink:title=" ">
<path fill="none" stroke="#63b8ff" d="M271.03,-84.07C290.87,-67.45 322.86,-42.98 354.5,-28.62 362.3,-25.09 370.85,-22.15 379.34,-19.74"/>
<polygon fill="#63b8ff" stroke="#63b8ff" points="268.8,-81.37 263.47,-90.53 273.35,-86.69 268.8,-81.37"/>
</a>
</g>
</g>
<!-- Node2 -->
<g id="Node000002" class="node">
<title>Node2</title>
<g id="a_Node000002"><a xlink:href="class_im_fusion_1_1_utils_1_1_not_copyable.html" target="_top" xlink:title="Inherit from this class if your class should be neither copy&#45;constructible nor assignable.">
<polygon fill="white" stroke="#666666" points="145.75,-111.25 0,-111.25 0,-92 145.75,-92 145.75,-111.25"/>
<text xml:space="preserve" text-anchor="middle" x="72.88" y="-97.75" font-family="Helvetica,sans-Serif" font-size="10.00">ImFusion::Utils::NotCopyable</text>
</a>
</g>
</g>
<!-- Node2&#45;&gt;Node1 -->
<g id="edge1_Node000001_Node000002" class="edge">
<title>Node2&#45;&gt;Node1</title>
<g id="a_edge1_Node000001_Node000002"><a xlink:title=" ">
<path fill="none" stroke="#8b1a1a" d="M157.49,-101.62C165.54,-101.62 173.63,-101.62 181.5,-101.62"/>
<polygon fill="#8b1a1a" stroke="#8b1a1a" points="157.68,-98.13 147.68,-101.63 157.68,-105.13 157.68,-98.13"/>
</a>
</g>
</g>
</g>
</svg>
