<?xml version="1.0" encoding="UTF-8" standalone="no"?>
<!DOCTYPE svg PUBLIC "-//W3C//DTD SVG 1.1//EN"
 "http://www.w3.org/Graphics/SVG/1.1/DTD/svg11.dtd">
<!-- Generated by graphviz version 14.1.4 (20260321.0153)
 -->
<!-- Title: ImFusion::PropertiesWidget Pages: 1 -->
<svg width="344pt" height="83pt"
 viewBox="0.00 0.00 344.00 83.00" xmlns="http://www.w3.org/2000/svg" xmlns:xlink="http://www.w3.org/1999/xlink">
<g id="graph0" class="graph" transform="scale(1 1) rotate(0) translate(4 78.5)">
<title>ImFusion::PropertiesWidget</title>
<!-- Node1 -->
<g id="Node000001" class="node">
<title>Node1</title>
<g id="a_Node000001"><a xlink:title="The PropertiesWidget class provides a widget for Properties.">
<polygon fill="#999999" stroke="#666666" points="199.88,-19.25 62.38,-19.25 62.38,0 199.88,0 199.88,-19.25"/>
<text xml:space="preserve" text-anchor="middle" x="131.12" y="-5.75" font-family="Helvetica,sans-Serif" font-size="10.00">ImFusion::PropertiesWidget</text>
</a>
</g>
</g>
<!-- Node2 -->
<g id="Node000002" class="node">
<title>Node2</title>
<g id="a_Node000002"><a xlink:title=" ">
<polygon fill="white" stroke="#bfbfbf" points="54.25,-74.5 0,-74.5 0,-55.25 54.25,-55.25 54.25,-74.5"/>
<text xml:space="preserve" text-anchor="middle" x="27.12" y="-61" font-family="Helvetica,sans-Serif" font-size="10.00">QWidget</text>
</a>
</g>
</g>
<!-- Node2&#45;&gt;Node1 -->
<g id="edge1_Node000001_Node000002" class="edge">
<title>Node2&#45;&gt;Node1</title>
<g id="a_edge1_Node000001_Node000002"><a xlink:title=" ">
<path fill="none" stroke="#63b8ff" d="M54.99,-49.61C73.55,-40.11 97.38,-27.9 113.4,-19.7"/>
<polygon fill="#63b8ff" stroke="#63b8ff" points="53.42,-46.48 46.11,-54.15 56.61,-52.71 53.42,-46.48"/>
</a>
</g>
</g>
<!-- Node3 -->
<g id="Node000003" class="node">
<title>Node3</title>
<g id="a_Node000003"><a xlink:href="class_im_fusion_1_1_configurable.html" target="_top" xlink:title="Base interface for classes that support object serialization from/to Properties objects.">
<polygon fill="white" stroke="#666666" points="189.75,-74.5 72.5,-74.5 72.5,-55.25 189.75,-55.25 189.75,-74.5"/>
<text xml:space="preserve" text-anchor="middle" x="131.12" y="-61" font-family="Helvetica,sans-Serif" font-size="10.00">ImFusion::Configurable</text>
</a>
</g>
</g>
<!-- Node3&#45;&gt;Node1 -->
<g id="edge2_Node000001_Node000003" class="edge">
<title>Node3&#45;&gt;Node1</title>
<g id="a_edge2_Node000001_Node000003"><a xlink:title=" ">
<path fill="none" stroke="#63b8ff" d="M131.12,-43.63C131.12,-35.34 131.12,-26.17 131.12,-19.61"/>
<polygon fill="#63b8ff" stroke="#63b8ff" points="127.63,-43.57 131.13,-53.57 134.63,-43.57 127.63,-43.57"/>
</a>
</g>
</g>
<!-- Node4 -->
<g id="Node000004" class="node">
<title>Node4</title>
<g id="a_Node000004"><a xlink:href="class_im_fusion_1_1_signal_receiver.html" target="_top" xlink:title="Base class for classes that can contain slots (i.e.">
<polygon fill="white" stroke="#666666" points="336.38,-74.5 207.88,-74.5 207.88,-55.25 336.38,-55.25 336.38,-74.5"/>
<text xml:space="preserve" text-anchor="middle" x="272.12" y="-61" font-family="Helvetica,sans-Serif" font-size="10.00">ImFusion::SignalReceiver</text>
</a>
</g>
</g>
<!-- Node4&#45;&gt;Node1 -->
<g id="edge3_Node000001_Node000004" class="edge">
<title>Node4&#45;&gt;Node1</title>
<g id="a_edge3_Node000001_Node000004"><a xlink:title=" ">
<path fill="none" stroke="#63b8ff" d="M237.49,-50.79C211.92,-41.14 177.79,-28.25 155.16,-19.7"/>
<polygon fill="#63b8ff" stroke="#63b8ff" points="236.2,-54.05 246.79,-54.31 238.67,-47.5 236.2,-54.05"/>
</a>
</g>
</g>
</g>
</svg>
