<?xml version="1.0" encoding="UTF-8" standalone="no"?>
<!DOCTYPE svg PUBLIC "-//W3C//DTD SVG 1.1//EN"
 "http://www.w3.org/Graphics/SVG/1.1/DTD/svg11.dtd">
<!-- Generated by graphviz version 14.1.4 (20260321.0153)
 -->
<!-- Title: ImFusion::GUI::ViewOverlay Pages: 1 -->
<!--zoomable 512 -->

<svg id="main" version="1.1" xmlns="http://www.w3.org/2000/svg" xmlns:xlink="http://www.w3.org/1999/xlink" xml:space="preserve" onload="init(evt)">

<style type="text/css"><![CDATA[
.node, .edge {opacity: 0.7;}
.node.selected, .edge.selected {opacity: 1;}
.edge:hover path { stroke: red; }
.edge:hover polygon { stroke: red; fill: red; }
]]></style>

<defs>
  <circle id="rim" cx="0" cy="0" r="7"/>
  <circle id="rim2" cx="0" cy="0" r="3.5"/>
  <g id="zoomPlus">
    <use xlink:href="#rim" fill="#404040"><set attributeName="fill" to="#808080" begin="zoomplus.mouseover" end="zoomplus.mouseout"/></use>
    <path d="M-4,0h8M0,-4v8" fill="none" stroke="white" stroke-width="1.5" pointer-events="none"/>
  </g>
  <g id="zoomMin">
    <use xlink:href="#rim" fill="#404040"><set attributeName="fill" to="#808080" begin="zoomminus.mouseover" end="zoomminus.mouseout"/></use>
    <path d="M-4,0h8" fill="none" stroke="white" stroke-width="1.5" pointer-events="none"/>
  </g>
  <g id="arrowUp" transform="translate(30 24)">
    <use xlink:href="#rim"/>
    <path pointer-events="none" fill="none" stroke="white" stroke-width="1.5" d="M0,-3.0v7 M-2.5,-0.5L0,-3.0L2.5,-0.5"/>
  </g>
  <g id="arrowRight" transform="rotate(90) translate(36 -43)">
    <use xlink:href="#rim"/>
    <path pointer-events="none" fill="none" stroke="white" stroke-width="1.5" d="M0,-3.0v7 M-2.5,-0.5L0,-3.0L2.5,-0.5"/>
  </g>
  <g id="arrowDown" transform="rotate(180) translate(-30 -48)">
    <use xlink:href="#rim"/>
    <path pointer-events="none" fill="none" stroke="white" stroke-width="1.5" d="M0,-3.0v7 M-2.5,-0.5L0,-3.0L2.5,-0.5"/>
  </g>
  <g id="arrowLeft" transform="rotate(270) translate(-36 17)">
    <use xlink:href="#rim"/>
    <path pointer-events="none" fill="none" stroke="white" stroke-width="1.5" d="M0,-3.0v7 M-2.5,-0.5L0,-3.0L2.5,-0.5"/>
  </g>
  <g id="resetDef">
    <use xlink:href="#rim2" fill="#404040"><set attributeName="fill" to="#808080" begin="reset.mouseover" end="reset.mouseout"/></use>
  </g>
</defs>
<script type="application/ecmascript">
var viewWidth = 884;
var viewHeight = 512;
var sectionId = 'dynsection-0';
</script>
<script type="application/ecmascript" xlink:href="svg.min.js"/>
<svg id="graph" class="graph">
<g id="viewport">
<title>ImFusion::GUI::ViewOverlay</title>
<!-- Node1 -->
<g id="Node000001" class="node">
<title>Node1</title>
<g id="a_Node000001"><a xlink:title="Wraps a GlOverlay in order to display it at specific positions inside a View and handle input events.">
<polygon fill="#999999" stroke="#666666" points="323.75,-313.25 181.75,-313.25 181.75,-294 323.75,-294 323.75,-313.25"/>
<text xml:space="preserve" text-anchor="middle" x="252.75" y="-299.75" font-family="Helvetica,sans-Serif" font-size="10.00">ImFusion::GUI::ViewOverlay</text>
</a>
</g>
</g>
<!-- Node5 -->
<g id="Node000005" class="node">
<title>Node5</title>
<g id="a_Node000005"><a xlink:href="class_im_fusion_1_1_g_u_i_1_1_button_overlay.html" target="_top" xlink:title="ViewOverlay representing a clickable button.">
<polygon fill="white" stroke="#666666" points="513.38,-504.25 364.62,-504.25 364.62,-485 513.38,-485 513.38,-504.25"/>
<text xml:space="preserve" text-anchor="middle" x="439" y="-490.75" font-family="Helvetica,sans-Serif" font-size="10.00">ImFusion::GUI::ButtonOverlay</text>
</a>
</g>
</g>
<!-- Node1&#45;&gt;Node5 -->
<g id="edge4_Node000001_Node000005" class="edge">
<title>Node1&#45;&gt;Node5</title>
<g id="a_edge4_Node000001_Node000005"><a xlink:title=" ">
<path fill="none" stroke="#63b8ff" d="M260.32,-324.13C273.19,-360.8 305.29,-437.45 359.75,-476.62 364.16,-479.8 369.05,-482.42 374.16,-484.59"/>
<polygon fill="#63b8ff" stroke="#63b8ff" points="263.68,-323.13 257.18,-314.77 257.05,-325.36 263.68,-323.13"/>
</a>
</g>
</g>
<!-- Node6 -->
<g id="Node000006" class="node">
<title>Node6</title>
<g id="a_Node000006"><a xlink:href="class_im_fusion_1_1_g_u_i_1_1_color_bar_overlay.html" target="_top" xlink:title=" ">
<polygon fill="white" stroke="#bfbfbf" points="518.25,-467.25 359.75,-467.25 359.75,-448 518.25,-448 518.25,-467.25"/>
<text xml:space="preserve" text-anchor="middle" x="439" y="-453.75" font-family="Helvetica,sans-Serif" font-size="10.00">ImFusion::GUI::ColorBarOverlay</text>
</a>
</g>
</g>
<!-- Node1&#45;&gt;Node6 -->
<g id="edge5_Node000001_Node000006" class="edge">
<title>Node1&#45;&gt;Node6</title>
<g id="a_edge5_Node000001_Node000006"><a xlink:title=" ">
<path fill="none" stroke="#63b8ff" d="M263.83,-323.7C279.89,-353.56 314.2,-409.32 359.75,-438.62 365.39,-442.26 371.67,-445.19 378.15,-447.57"/>
<polygon fill="#63b8ff" stroke="#63b8ff" points="267,-322.22 259.28,-314.97 260.8,-325.46 267,-322.22"/>
</a>
</g>
</g>
<!-- Node7 -->
<g id="Node000007" class="node">
<title>Node7</title>
<g id="a_Node000007"><a xlink:href="class_im_fusion_1_1_g_u_i_1_1_histogram_overlay.html" target="_top" xlink:title="ViewOverlay to show an intensity histogram of the first shown image in a SliceView.">
<polygon fill="white" stroke="#666666" points="504.75,-429.88 373.25,-429.88 373.25,-399.38 504.75,-399.38 504.75,-429.88"/>
<text xml:space="preserve" text-anchor="start" x="381.25" y="-416.38" font-family="Helvetica,sans-Serif" font-size="10.00">ImFusion::GUI::Histogram</text>
<text xml:space="preserve" text-anchor="middle" x="439" y="-405.12" font-family="Helvetica,sans-Serif" font-size="10.00">Overlay</text>
</a>
</g>
</g>
<!-- Node1&#45;&gt;Node7 -->
<g id="edge6_Node000001_Node000007" class="edge">
<title>Node1&#45;&gt;Node7</title>
<g id="a_edge6_Node000001_Node000007"><a xlink:title=" ">
<path fill="none" stroke="#63b8ff" d="M271.37,-321.83C291.2,-341.37 325.18,-372.08 359.75,-390.62 365.51,-393.72 371.73,-396.47 378.05,-398.91"/>
<polygon fill="#63b8ff" stroke="#63b8ff" points="273.91,-319.42 264.37,-314.8 268.95,-324.36 273.91,-319.42"/>
</a>
</g>
</g>
<!-- Node8 -->
<g id="Node000008" class="node">
<title>Node8</title>
<g id="a_Node000008"><a xlink:href="class_im_fusion_1_1_g_u_i_1_1_info_overlay.html" target="_top" xlink:title="Interface for a ViewOverlay to show textual information depending on the mouse cursor position (for i...">
<polygon fill="white" stroke="#666666" points="507.38,-381.25 370.62,-381.25 370.62,-362 507.38,-362 507.38,-381.25"/>
<text xml:space="preserve" text-anchor="middle" x="439" y="-367.75" font-family="Helvetica,sans-Serif" font-size="10.00">ImFusion::GUI::InfoOverlay</text>
</a>
</g>
</g>
<!-- Node1&#45;&gt;Node8 -->
<g id="edge7_Node000001_Node000008" class="edge">
<title>Node1&#45;&gt;Node8</title>
<g id="a_edge7_Node000001_Node000008"><a xlink:title=" ">
<path fill="none" stroke="#63b8ff" d="M282.58,-318.82C303.55,-329.4 332.85,-343.24 359.75,-352.62 369.39,-355.99 379.89,-358.98 389.98,-361.53"/>
<polygon fill="#63b8ff" stroke="#63b8ff" points="284.28,-315.75 273.78,-314.31 281.09,-321.98 284.28,-315.75"/>
</a>
</g>
</g>
<!-- Node10 -->
<g id="Node000010" class="node">
<title>Node10</title>
<g id="a_Node000010"><a xlink:href="class_im_fusion_1_1_g_u_i_1_1_lift_chart_overlay.html" target="_top" xlink:title="Wrapper of a GlLiftChartOverlay implementing the ViewOverlay interface so that it can be hosted insid...">
<polygon fill="white" stroke="#666666" points="501,-343.88 377,-343.88 377,-313.38 501,-313.38 501,-343.88"/>
<text xml:space="preserve" text-anchor="start" x="385" y="-330.38" font-family="Helvetica,sans-Serif" font-size="10.00">ImFusion::GUI::LiftChart</text>
<text xml:space="preserve" text-anchor="middle" x="439" y="-319.12" font-family="Helvetica,sans-Serif" font-size="10.00">Overlay</text>
</a>
</g>
</g>
<!-- Node1&#45;&gt;Node10 -->
<g id="edge9_Node000001_Node000010" class="edge">
<title>Node1&#45;&gt;Node10</title>
<g id="a_edge9_Node000001_Node000010"><a xlink:title=" ">
<path fill="none" stroke="#63b8ff" d="M335.24,-314.68C349.14,-316.57 363.36,-318.5 376.62,-320.3"/>
<polygon fill="#63b8ff" stroke="#63b8ff" points="336.08,-311.26 325.7,-313.39 335.13,-318.2 336.08,-311.26"/>
</a>
</g>
</g>
<!-- Node11 -->
<g id="Node000011" class="node">
<title>Node11</title>
<g id="a_Node000011"><a xlink:href="class_im_fusion_1_1_g_u_i_1_1_offscreen_indicators_overlay.html" target="_top" xlink:title="The OffscreenIndicatorOverlay provides indicators to data that is outside of the current view area.">
<polygon fill="white" stroke="#666666" points="503.62,-294.88 374.38,-294.88 374.38,-264.38 503.62,-264.38 503.62,-294.88"/>
<text xml:space="preserve" text-anchor="start" x="382.38" y="-281.38" font-family="Helvetica,sans-Serif" font-size="10.00">ImFusion::GUI::Offscreen</text>
<text xml:space="preserve" text-anchor="middle" x="439" y="-270.12" font-family="Helvetica,sans-Serif" font-size="10.00">IndicatorsOverlay</text>
</a>
</g>
</g>
<!-- Node1&#45;&gt;Node11 -->
<g id="edge10_Node000001_Node000011" class="edge">
<title>Node1&#45;&gt;Node11</title>
<g id="a_edge10_Node000001_Node000011"><a xlink:title=" ">
<path fill="none" stroke="#63b8ff" d="M335.44,-292.98C348.34,-291.3 361.51,-289.59 373.94,-287.97"/>
<polygon fill="#63b8ff" stroke="#63b8ff" points="335.16,-289.49 325.7,-294.25 336.06,-296.43 335.16,-289.49"/>
</a>
</g>
</g>
<!-- Node12 -->
<g id="Node000012" class="node">
<title>Node12</title>
<g id="a_Node000012"><a xlink:href="class_im_fusion_1_1_g_u_i_1_1_orientation_mesh_overlay.html" target="_top" xlink:title="The OrientationMeshOverlay class wraps a GlOrientationMeshOverlay and does not provide any interactio...">
<polygon fill="white" stroke="#666666" points="505.88,-245.88 372.12,-245.88 372.12,-215.38 505.88,-215.38 505.88,-245.88"/>
<text xml:space="preserve" text-anchor="start" x="380.12" y="-232.38" font-family="Helvetica,sans-Serif" font-size="10.00">ImFusion::GUI::Orientation</text>
<text xml:space="preserve" text-anchor="middle" x="439" y="-221.12" font-family="Helvetica,sans-Serif" font-size="10.00">MeshOverlay</text>
</a>
</g>
</g>
<!-- Node1&#45;&gt;Node12 -->
<g id="edge11_Node000001_Node000012" class="edge">
<title>Node1&#45;&gt;Node12</title>
<g id="a_edge11_Node000001_Node000012"><a xlink:title=" ">
<path fill="none" stroke="#63b8ff" d="M284.38,-288.62C305.34,-278.63 333.9,-265.57 359.75,-255.62 368.14,-252.4 377.13,-249.25 385.93,-246.33"/>
<polygon fill="#63b8ff" stroke="#63b8ff" points="283.03,-285.38 275.53,-292.87 286.06,-291.69 283.03,-285.38"/>
</a>
</g>
</g>
<!-- Node13 -->
<g id="Node000013" class="node">
<title>Node13</title>
<g id="a_Node000013"><a xlink:href="class_im_fusion_1_1_g_u_i_1_1_quality_bar_overlay.html" target="_top" xlink:title="Wraps a GlQualityBarOverlay object in an InteractiveOverlay.">
<polygon fill="white" stroke="#666666" points="505.12,-196.88 372.88,-196.88 372.88,-166.38 505.12,-166.38 505.12,-196.88"/>
<text xml:space="preserve" text-anchor="start" x="380.88" y="-183.38" font-family="Helvetica,sans-Serif" font-size="10.00">ImFusion::GUI::QualityBar</text>
<text xml:space="preserve" text-anchor="middle" x="439" y="-172.12" font-family="Helvetica,sans-Serif" font-size="10.00">Overlay</text>
</a>
</g>
</g>
<!-- Node1&#45;&gt;Node13 -->
<g id="edge12_Node000001_Node000013" class="edge">
<title>Node1&#45;&gt;Node13</title>
<g id="a_edge12_Node000001_Node000013"><a xlink:title=" ">
<path fill="none" stroke="#63b8ff" d="M269.52,-284.95C288.77,-263.26 323.28,-227.76 359.75,-206.62 365.8,-203.12 372.4,-200.04 379.11,-197.36"/>
<polygon fill="#63b8ff" stroke="#63b8ff" points="266.93,-282.59 263.02,-292.44 272.22,-287.19 266.93,-282.59"/>
</a>
</g>
</g>
<!-- Node14 -->
<g id="Node000014" class="node">
<title>Node14</title>
<g id="a_Node000014"><a xlink:href="class_im_fusion_1_1_g_u_i_1_1_scale_overlay.html" target="_top" xlink:title="Wraps a GlScaleOverlay into a ViewOverlay so that it can be added to a GUI::View.">
<polygon fill="white" stroke="#666666" points="511.5,-148.25 366.5,-148.25 366.5,-129 511.5,-129 511.5,-148.25"/>
<text xml:space="preserve" text-anchor="middle" x="439" y="-134.75" font-family="Helvetica,sans-Serif" font-size="10.00">ImFusion::GUI::ScaleOverlay</text>
</a>
</g>
</g>
<!-- Node1&#45;&gt;Node14 -->
<g id="edge13_Node000001_Node000014" class="edge">
<title>Node1&#45;&gt;Node14</title>
<g id="a_edge13_Node000001_Node000014"><a xlink:title=" ">
<path fill="none" stroke="#63b8ff" d="M262.74,-283.28C277.93,-251.34 311.78,-189.78 359.75,-157.62 365.21,-153.97 371.3,-151.01 377.61,-148.62"/>
<polygon fill="#63b8ff" stroke="#63b8ff" points="259.62,-281.67 258.63,-292.22 265.98,-284.6 259.62,-281.67"/>
</a>
</g>
</g>
<!-- Node15 -->
<g id="Node000015" class="node">
<title>Node15</title>
<g id="a_Node000015"><a xlink:href="class_im_fusion_1_1_interactive_overlay.html" target="_top" xlink:title="Wraps a GlOverlay in order to display it at specific positions in an InteractiveView.">
<polygon fill="white" stroke="#666666" points="510,-111.25 368,-111.25 368,-92 510,-92 510,-111.25"/>
<text xml:space="preserve" text-anchor="middle" x="439" y="-97.75" font-family="Helvetica,sans-Serif" font-size="10.00">ImFusion::InteractiveOverlay</text>
</a>
</g>
</g>
<!-- Node1&#45;&gt;Node15 -->
<g id="edge14_Node000001_Node000015" class="edge">
<title>Node1&#45;&gt;Node15</title>
<g id="a_edge14_Node000001_Node000015"><a xlink:title=" ">
<path fill="none" stroke="#63b8ff" d="M259.61,-282.89C271.61,-244.35 302.79,-161.78 359.75,-119.62 364.01,-116.47 368.73,-113.86 373.67,-111.7"/>
<polygon fill="#63b8ff" stroke="#63b8ff" points="256.31,-281.72 256.81,-292.3 263.01,-283.71 256.31,-281.72"/>
</a>
</g>
</g>
<!-- Node2 -->
<g id="Node000002" class="node">
<title>Node2</title>
<g id="a_Node000002"><a xlink:href="class_im_fusion_1_1_configurable.html" target="_top" xlink:title="Base interface for classes that support object serialization from/to Properties objects.">
<polygon fill="white" stroke="#666666" points="131.5,-350.25 14.25,-350.25 14.25,-331 131.5,-331 131.5,-350.25"/>
<text xml:space="preserve" text-anchor="middle" x="72.88" y="-336.75" font-family="Helvetica,sans-Serif" font-size="10.00">ImFusion::Configurable</text>
</a>
</g>
</g>
<!-- Node2&#45;&gt;Node1 -->
<g id="edge1_Node000001_Node000002" class="edge">
<title>Node2&#45;&gt;Node1</title>
<g id="a_edge1_Node000001_Node000002"><a xlink:title=" ">
<path fill="none" stroke="#63b8ff" d="M133.67,-328.19C156.29,-323.48 181.74,-318.19 203.2,-313.72"/>
<polygon fill="#63b8ff" stroke="#63b8ff" points="133.04,-324.74 123.96,-330.21 134.47,-331.6 133.04,-324.74"/>
</a>
</g>
</g>
<!-- Node3 -->
<g id="Node000003" class="node">
<title>Node3</title>
<g id="a_Node000003"><a xlink:href="class_im_fusion_1_1_signal_receiver.html" target="_top" xlink:title="Base class for classes that can contain slots (i.e.">
<polygon fill="white" stroke="#666666" points="137.12,-313.25 8.62,-313.25 8.62,-294 137.12,-294 137.12,-313.25"/>
<text xml:space="preserve" text-anchor="middle" x="72.88" y="-299.75" font-family="Helvetica,sans-Serif" font-size="10.00">ImFusion::SignalReceiver</text>
</a>
</g>
</g>
<!-- Node3&#45;&gt;Node1 -->
<g id="edge2_Node000001_Node000003" class="edge">
<title>Node3&#45;&gt;Node1</title>
<g id="a_edge2_Node000001_Node000003"><a xlink:title=" ">
<path fill="none" stroke="#63b8ff" d="M148.77,-303.62C159.63,-303.62 170.78,-303.62 181.54,-303.62"/>
<polygon fill="#63b8ff" stroke="#63b8ff" points="149.1,-300.13 139.1,-303.63 149.1,-307.13 149.1,-300.13"/>
</a>
</g>
</g>
<!-- Node4 -->
<g id="Node000004" class="node">
<title>Node4</title>
<g id="a_Node000004"><a xlink:href="class_im_fusion_1_1_utils_1_1_not_copyable.html" target="_top" xlink:title="Inherit from this class if your class should be neither copy&#45;constructible nor assignable.">
<polygon fill="white" stroke="#666666" points="145.75,-276.25 0,-276.25 0,-257 145.75,-257 145.75,-276.25"/>
<text xml:space="preserve" text-anchor="middle" x="72.88" y="-262.75" font-family="Helvetica,sans-Serif" font-size="10.00">ImFusion::Utils::NotCopyable</text>
</a>
</g>
</g>
<!-- Node4&#45;&gt;Node1 -->
<g id="edge3_Node000001_Node000004" class="edge">
<title>Node4&#45;&gt;Node1</title>
<g id="a_edge3_Node000001_Node000004"><a xlink:title=" ">
<path fill="none" stroke="#8b1a1a" d="M133.67,-279.06C156.29,-283.77 181.74,-289.06 203.2,-293.53"/>
<polygon fill="#8b1a1a" stroke="#8b1a1a" points="134.47,-275.65 123.96,-277.04 133.04,-282.51 134.47,-275.65"/>
</a>
</g>
</g>
<!-- Node9 -->
<g id="Node000009" class="node">
<title>Node9</title>
<g id="a_Node000009"><a xlink:href="class_im_fusion_1_1_g_u_i_1_1_pixel_info_overlay.html" target="_top" xlink:title="InfoOverlay to show information about the pixel currently underneath the mouse cursor.">
<polygon fill="white" stroke="#666666" points="694.38,-386.88 569.62,-386.88 569.62,-356.38 694.38,-356.38 694.38,-386.88"/>
<text xml:space="preserve" text-anchor="start" x="577.62" y="-373.38" font-family="Helvetica,sans-Serif" font-size="10.00">ImFusion::GUI::PixelInfo</text>
<text xml:space="preserve" text-anchor="middle" x="632" y="-362.12" font-family="Helvetica,sans-Serif" font-size="10.00">Overlay</text>
</a>
</g>
</g>
<!-- Node8&#45;&gt;Node9 -->
<g id="edge8_Node000008_Node000009" class="edge">
<title>Node8&#45;&gt;Node9</title>
<g id="a_edge8_Node000008_Node000009"><a xlink:title=" ">
<path fill="none" stroke="#63b8ff" d="M519.06,-371.62C535.8,-371.62 553.23,-371.62 569.22,-371.62"/>
<polygon fill="#63b8ff" stroke="#63b8ff" points="519.12,-368.13 509.12,-371.63 519.12,-375.13 519.12,-368.13"/>
</a>
</g>
</g>
<!-- Node16 -->
<g id="Node000016" class="node">
<title>Node16</title>
<g id="a_Node000016"><a xlink:href="class_im_fusion_1_1_interactive_button_overlay.html" target="_top" xlink:title="Interactive overlay for a click&#45;able button.">
<polygon fill="white" stroke="#666666" points="700.38,-214.88 563.62,-214.88 563.62,-184.38 700.38,-184.38 700.38,-214.88"/>
<text xml:space="preserve" text-anchor="start" x="571.62" y="-201.38" font-family="Helvetica,sans-Serif" font-size="10.00">ImFusion::InteractiveButton</text>
<text xml:space="preserve" text-anchor="middle" x="632" y="-190.12" font-family="Helvetica,sans-Serif" font-size="10.00">Overlay</text>
</a>
</g>
</g>
<!-- Node15&#45;&gt;Node16 -->
<g id="edge15_Node000015_Node000016" class="edge">
<title>Node15&#45;&gt;Node16</title>
<g id="a_edge15_Node000015_Node000016"><a xlink:title=" ">
<path fill="none" stroke="#63b8ff" d="M513.37,-116.53C515.05,-117.5 516.68,-118.53 518.25,-119.62 542.22,-136.33 531.05,-156.87 554.25,-174.62 558.92,-178.2 564.13,-181.28 569.57,-183.92"/>
<polygon fill="#63b8ff" stroke="#63b8ff" points="515.23,-113.54 504.71,-112.3 512.16,-119.83 515.23,-113.54"/>
</a>
</g>
</g>
<!-- Node18 -->
<g id="Node000018" class="node">
<title>Node18</title>
<g id="a_Node000018"><a xlink:href="class_im_fusion_1_1_interactive_histogram_overlay.html" target="_top" xlink:title="Wraps a GlHistogramOverlay object (that contains a GlHistogram) in an InteractiveOverlay.">
<polygon fill="white" stroke="#666666" points="708.62,-165.88 555.38,-165.88 555.38,-135.38 708.62,-135.38 708.62,-165.88"/>
<text xml:space="preserve" text-anchor="start" x="563.38" y="-152.38" font-family="Helvetica,sans-Serif" font-size="10.00">ImFusion::InteractiveHistogram</text>
<text xml:space="preserve" text-anchor="middle" x="632" y="-141.12" font-family="Helvetica,sans-Serif" font-size="10.00">Overlay</text>
</a>
</g>
</g>
<!-- Node15&#45;&gt;Node18 -->
<g id="edge17_Node000015_Node000018" class="edge">
<title>Node15&#45;&gt;Node18</title>
<g id="a_edge17_Node000015_Node000018"><a xlink:title=" ">
<path fill="none" stroke="#63b8ff" d="M496.29,-114.27C503.69,-116.02 511.16,-117.84 518.25,-119.62 537.05,-124.37 557.51,-129.89 575.78,-134.94"/>
<polygon fill="#63b8ff" stroke="#63b8ff" points="497.19,-110.89 486.65,-112.02 495.6,-117.71 497.19,-110.89"/>
</a>
</g>
</g>
<!-- Node19 -->
<g id="Node000019" class="node">
<title>Node19</title>
<g id="a_Node000019"><a xlink:href="class_im_fusion_1_1_interactive_orientation_mesh_overlay.html" target="_top" xlink:title="The InteractiveOrientationMeshOverlay class wraps a GlOrientationMeshOverlay and does not provide any...">
<polygon fill="white" stroke="#666666" points="709.75,-116.88 554.25,-116.88 554.25,-86.38 709.75,-86.38 709.75,-116.88"/>
<text xml:space="preserve" text-anchor="start" x="562.25" y="-103.38" font-family="Helvetica,sans-Serif" font-size="10.00">ImFusion::InteractiveOrientation</text>
<text xml:space="preserve" text-anchor="middle" x="632" y="-92.12" font-family="Helvetica,sans-Serif" font-size="10.00">MeshOverlay</text>
</a>
</g>
</g>
<!-- Node15&#45;&gt;Node19 -->
<g id="edge18_Node000015_Node000019" class="edge">
<title>Node15&#45;&gt;Node19</title>
<g id="a_edge18_Node000015_Node000019"><a xlink:title=" ">
<path fill="none" stroke="#63b8ff" d="M521.72,-101.62C532.35,-101.62 543.21,-101.62 553.76,-101.62"/>
<polygon fill="#63b8ff" stroke="#63b8ff" points="521.82,-98.13 511.82,-101.63 521.82,-105.13 521.82,-98.13"/>
</a>
</g>
</g>
<!-- Node20 -->
<g id="Node000020" class="node">
<title>Node20</title>
<g id="a_Node000020"><a xlink:href="class_im_fusion_1_1_interactive_scale_overlay.html" target="_top" xlink:title="Wraps a GlScaleOverlay.">
<polygon fill="white" stroke="#666666" points="698.5,-67.88 565.5,-67.88 565.5,-37.38 698.5,-37.38 698.5,-67.88"/>
<text xml:space="preserve" text-anchor="start" x="573.5" y="-54.38" font-family="Helvetica,sans-Serif" font-size="10.00">ImFusion::InteractiveScale</text>
<text xml:space="preserve" text-anchor="middle" x="632" y="-43.12" font-family="Helvetica,sans-Serif" font-size="10.00">Overlay</text>
</a>
</g>
</g>
<!-- Node15&#45;&gt;Node20 -->
<g id="edge19_Node000015_Node000020" class="edge">
<title>Node15&#45;&gt;Node20</title>
<g id="a_edge19_Node000015_Node000020"><a xlink:title=" ">
<path fill="none" stroke="#63b8ff" d="M489.94,-88.81C514.36,-82.55 543.97,-74.95 569.75,-68.34"/>
<polygon fill="#63b8ff" stroke="#63b8ff" points="489.4,-85.34 480.58,-91.21 491.13,-92.12 489.4,-85.34"/>
</a>
</g>
</g>
<!-- Node21 -->
<g id="Node000021" class="node">
<title>Node21</title>
<g id="a_Node000021"><a xlink:href="class_im_fusion_1_1_slice_index_overlay.html" target="_top" xlink:title="Renders the current slice number and total slices of the first data in the assigned view eg.">
<polygon fill="white" stroke="#666666" points="703,-19.25 561,-19.25 561,0 703,0 703,-19.25"/>
<text xml:space="preserve" text-anchor="middle" x="632" y="-5.75" font-family="Helvetica,sans-Serif" font-size="10.00">ImFusion::SliceIndexOverlay</text>
</a>
</g>
</g>
<!-- Node15&#45;&gt;Node21 -->
<g id="edge20_Node000015_Node000021" class="edge">
<title>Node15&#45;&gt;Node21</title>
<g id="a_edge20_Node000015_Node000021"><a xlink:title=" ">
<path fill="none" stroke="#63b8ff" d="M461.73,-84.66C483.86,-68.15 519.74,-43.45 554.25,-28.62 562.45,-25.1 571.43,-22.15 580.27,-19.69"/>
<polygon fill="#63b8ff" stroke="#63b8ff" points="459.64,-81.86 453.79,-90.69 463.87,-87.43 459.64,-81.86"/>
</a>
</g>
</g>
<!-- Node17 -->
<g id="Node000017" class="node">
<title>Node17</title>
<g id="a_Node000017"><a xlink:href="class_im_fusion_1_1_interactive_view_options_overlay.html" target="_top" xlink:title="Button overlay for InteractiveView that allows for setting up the view or display options of the view...">
<polygon fill="white" stroke="#666666" points="875.75,-214.88 745.75,-214.88 745.75,-184.38 875.75,-184.38 875.75,-214.88"/>
<text xml:space="preserve" text-anchor="start" x="753.75" y="-201.38" font-family="Helvetica,sans-Serif" font-size="10.00">ImFusion::InteractiveView</text>
<text xml:space="preserve" text-anchor="middle" x="810.75" y="-190.12" font-family="Helvetica,sans-Serif" font-size="10.00">OptionsOverlay</text>
</a>
</g>
</g>
<!-- Node16&#45;&gt;Node17 -->
<g id="edge16_Node000016_Node000017" class="edge">
<title>Node16&#45;&gt;Node17</title>
<g id="a_edge16_Node000016_Node000017"><a xlink:title=" ">
<path fill="none" stroke="#63b8ff" d="M712.25,-199.62C723.31,-199.62 734.56,-199.62 745.3,-199.62"/>
<polygon fill="#63b8ff" stroke="#63b8ff" points="712.34,-196.13 702.34,-199.63 712.34,-203.13 712.34,-196.13"/>
</a>
</g>
</g>
</g>
</svg>

<g id="navigator" transform="translate(0 0)" fill="#404254">
  <rect fill="#f2f5e9" fill-opacity="0.5" stroke="#606060" stroke-width=".5" x="0" y="0" width="60" height="60"/>
  <use id="zoomplus" xlink:href="#zoomPlus" x="17" y="9" onmousedown="handleZoom(evt,'in')"/>
  <use id="zoomminus" xlink:href="#zoomMin" x="42" y="9" onmousedown="handleZoom(evt,'out')"/>
  <use id="reset" xlink:href="#resetDef" x="30" y="36" onmousedown="handleReset()"/>
   <use id="arrowup" xlink:href="#arrowUp" x="0" y="0" onmousedown="handlePan(0,-1)"/>
  <use id="arrowright" xlink:href="#arrowRight" x="0" y="0" onmousedown="handlePan(1,0)"/>
  <use id="arrowdown" xlink:href="#arrowDown" x="0" y="0" onmousedown="handlePan(0,1)"/>
  <use id="arrowleft" xlink:href="#arrowLeft" x="0" y="0" onmousedown="handlePan(-1,0)"/>
</g>
<svg viewBox="0 0 15 15" width="100%" height="30px" preserveAspectRatio="xMaxYMin meet">
 <g id="arrow_out" transform="scale(0.3 0.3)">
  <a xlink:href="class_im_fusion_1_1_g_u_i_1_1_view_overlay__inherit__graph_org.svg" target="_base">
   <rect id="button" ry="5" rx="5" y="6" x="6" height="38" width="38"
        fill="#f2f5e9" fill-opacity="0.5" stroke="#606060" stroke-width="1.0"/>
   <path id="arrow"
     d="M 11.500037,31.436501 C 11.940474,20.09759 22.043105,11.32322 32.158766,21.979434 L 37.068811,17.246167 C 37.068811,17.246167 37.088388,32 37.088388,32 L 22.160133,31.978069 C 22.160133,31.978069 26.997745,27.140456 26.997745,27.140456 C 18.528582,18.264221 13.291696,25.230495 11.500037,31.436501 z"
     style="fill:#404040;"/>
  </a>
 </g>
</svg>

<style type='text/css'>
<![CDATA[
[data-mouse-over-selected='false'] { opacity: 0.7; }
[data-mouse-over-selected='true']  { opacity: 1.0; }
]]>
</style>
<script type="application/ecmascript"><![CDATA[
document.addEventListener('DOMContentLoaded', (event) => {
  highlightEdges();
  highlightAdjacentNodes();
});
]]></script>
</svg>
