<?xml version="1.0" encoding="UTF-8" standalone="no"?>
<!DOCTYPE svg PUBLIC "-//W3C//DTD SVG 1.1//EN"
 "http://www.w3.org/Graphics/SVG/1.1/DTD/svg11.dtd">
<!-- Generated by graphviz version 14.1.4 (20260321.0153)
 -->
<!-- Title: ImFusion::SectionWidget Pages: 1 -->
<svg width="422pt" height="137pt"
 viewBox="0.00 0.00 422.00 137.00" xmlns="http://www.w3.org/2000/svg" xmlns:xlink="http://www.w3.org/1999/xlink">
<g id="graph0" class="graph" transform="scale(1 1) rotate(0) translate(4 132.5)">
<title>ImFusion::SectionWidget</title>
<!-- Node1 -->
<g id="Node000001" class="node">
<title>Node1</title>
<g id="a_Node000001"><a xlink:title="The SectionWidget provides a way to group widgets in vertical sections.">
<polygon fill="#999999" stroke="#666666" points="216.5,-73.88 90.25,-73.88 90.25,-54.62 216.5,-54.62 216.5,-73.88"/>
<text xml:space="preserve" text-anchor="middle" x="153.38" y="-60.38" font-family="Helvetica,sans-Serif" font-size="10.00">ImFusion::SectionWidget</text>
</a>
</g>
</g>
<!-- Node3 -->
<g id="Node000003" class="node">
<title>Node3</title>
<g id="a_Node000003"><a xlink:href="class_im_fusion_1_1internal_1_1_view_options2d_widget.html" target="_top" xlink:title=" ">
<polygon fill="white" stroke="#bfbfbf" points="392.62,-128.5 273.88,-128.5 273.88,-98 392.62,-98 392.62,-128.5"/>
<text xml:space="preserve" text-anchor="start" x="281.88" y="-115" font-family="Helvetica,sans-Serif" font-size="10.00">ImFusion::internal</text>
<text xml:space="preserve" text-anchor="middle" x="333.25" y="-103.75" font-family="Helvetica,sans-Serif" font-size="10.00">::ViewOptions2dWidget</text>
</a>
</g>
</g>
<!-- Node1&#45;&gt;Node3 -->
<g id="edge2_Node000001_Node000003" class="edge">
<title>Node1&#45;&gt;Node3</title>
<g id="a_edge2_Node000001_Node000003"><a xlink:title=" ">
<path fill="none" stroke="#63b8ff" d="M201.8,-77.32C224.37,-83.53 251.53,-91.01 275.21,-97.54"/>
<polygon fill="#63b8ff" stroke="#63b8ff" points="202.83,-73.97 192.26,-74.69 200.97,-80.72 202.83,-73.97"/>
</a>
</g>
</g>
<!-- Node4 -->
<g id="Node000004" class="node">
<title>Node4</title>
<g id="a_Node000004"><a xlink:href="class_im_fusion_1_1internal_1_1_view_options3d_widget.html" target="_top" xlink:title=" ">
<polygon fill="white" stroke="#bfbfbf" points="392.62,-79.5 273.88,-79.5 273.88,-49 392.62,-49 392.62,-79.5"/>
<text xml:space="preserve" text-anchor="start" x="281.88" y="-66" font-family="Helvetica,sans-Serif" font-size="10.00">ImFusion::internal</text>
<text xml:space="preserve" text-anchor="middle" x="333.25" y="-54.75" font-family="Helvetica,sans-Serif" font-size="10.00">::ViewOptions3dWidget</text>
</a>
</g>
</g>
<!-- Node1&#45;&gt;Node4 -->
<g id="edge3_Node000001_Node000004" class="edge">
<title>Node1&#45;&gt;Node4</title>
<g id="a_edge3_Node000001_Node000004"><a xlink:title=" ">
<path fill="none" stroke="#63b8ff" d="M228.24,-64.25C243.34,-64.25 259.03,-64.25 273.52,-64.25"/>
<polygon fill="#63b8ff" stroke="#63b8ff" points="228.35,-60.75 218.35,-64.25 228.35,-67.75 228.35,-60.75"/>
</a>
</g>
</g>
<!-- Node5 -->
<g id="Node000005" class="node">
<title>Node5</title>
<g id="a_Node000005"><a xlink:href="class_im_fusion_1_1internal_1_1_view_options_curved_view_widget.html" target="_top" xlink:title=" ">
<polygon fill="white" stroke="#bfbfbf" points="414,-30.5 252.5,-30.5 252.5,0 414,0 414,-30.5"/>
<text xml:space="preserve" text-anchor="start" x="260.5" y="-17" font-family="Helvetica,sans-Serif" font-size="10.00">ImFusion::internal</text>
<text xml:space="preserve" text-anchor="middle" x="333.25" y="-5.75" font-family="Helvetica,sans-Serif" font-size="10.00">::ViewOptionsCurvedViewWidget</text>
</a>
</g>
</g>
<!-- Node1&#45;&gt;Node5 -->
<g id="edge4_Node000001_Node000005" class="edge">
<title>Node1&#45;&gt;Node5</title>
<g id="a_edge4_Node000001_Node000005"><a xlink:title=" ">
<path fill="none" stroke="#63b8ff" d="M201.8,-51.18C224.37,-44.97 251.53,-37.49 275.21,-30.96"/>
<polygon fill="#63b8ff" stroke="#63b8ff" points="200.97,-47.78 192.26,-53.81 202.83,-54.53 200.97,-47.78"/>
</a>
</g>
</g>
<!-- Node2 -->
<g id="Node000002" class="node">
<title>Node2</title>
<g id="a_Node000002"><a xlink:title=" ">
<polygon fill="white" stroke="#bfbfbf" points="54.25,-73.88 0,-73.88 0,-54.62 54.25,-54.62 54.25,-73.88"/>
<text xml:space="preserve" text-anchor="middle" x="27.12" y="-60.38" font-family="Helvetica,sans-Serif" font-size="10.00">QWidget</text>
</a>
</g>
</g>
<!-- Node2&#45;&gt;Node1 -->
<g id="edge1_Node000001_Node000002" class="edge">
<title>Node2&#45;&gt;Node1</title>
<g id="a_edge1_Node000001_Node000002"><a xlink:title=" ">
<path fill="none" stroke="#63b8ff" d="M65.84,-64.25C73.42,-64.25 81.59,-64.25 89.76,-64.25"/>
<polygon fill="#63b8ff" stroke="#63b8ff" points="65.99,-60.75 55.99,-64.25 65.99,-67.75 65.99,-60.75"/>
</a>
</g>
</g>
</g>
</svg>
