<?xml version="1.0" encoding="UTF-8" standalone="no"?>
<!DOCTYPE svg PUBLIC "-//W3C//DTD SVG 1.1//EN"
 "http://www.w3.org/Graphics/SVG/1.1/DTD/svg11.dtd">
<!-- Generated by graphviz version 14.1.4 (20260321.0153)
 -->
<!-- Title: ImFusion::internal::ViewOptions2dWidget Pages: 1 -->
<svg width="280pt" height="149pt"
 viewBox="0.00 0.00 280.00 149.00" xmlns="http://www.w3.org/2000/svg" xmlns:xlink="http://www.w3.org/1999/xlink">
<g id="graph0" class="graph" transform="scale(1 1) rotate(0) translate(4 145)">
<title>ImFusion::internal::ViewOptions2dWidget</title>
<!-- Node1 -->
<g id="Node000001" class="node">
<title>Node1</title>
<g id="a_Node000001"><a xlink:title=" ">
<polygon fill="#999999" stroke="#666666" points="194.5,-30.5 75.75,-30.5 75.75,0 194.5,0 194.5,-30.5"/>
<text xml:space="preserve" text-anchor="start" x="83.75" y="-17" font-family="Helvetica,sans-Serif" font-size="10.00">ImFusion::internal</text>
<text xml:space="preserve" text-anchor="middle" x="135.12" y="-5.75" font-family="Helvetica,sans-Serif" font-size="10.00">::ViewOptions2dWidget</text>
</a>
</g>
</g>
<!-- Node2 -->
<g id="Node000002" class="node">
<title>Node2</title>
<g id="a_Node000002"><a xlink:href="class_im_fusion_1_1_section_widget.html" target="_top" xlink:title="The SectionWidget provides a way to group widgets in vertical sections.">
<polygon fill="white" stroke="#666666" points="126.25,-85.75 0,-85.75 0,-66.5 126.25,-66.5 126.25,-85.75"/>
<text xml:space="preserve" text-anchor="middle" x="63.12" y="-72.25" font-family="Helvetica,sans-Serif" font-size="10.00">ImFusion::SectionWidget</text>
</a>
</g>
</g>
<!-- Node2&#45;&gt;Node1 -->
<g id="edge1_Node000001_Node000002" class="edge">
<title>Node2&#45;&gt;Node1</title>
<g id="a_edge1_Node000001_Node000002"><a xlink:title=" ">
<path fill="none" stroke="#63b8ff" d="M82.78,-59.06C93.57,-50.23 106.87,-39.36 117.35,-30.78"/>
<polygon fill="#63b8ff" stroke="#63b8ff" points="80.76,-56.19 75.23,-65.23 85.19,-61.6 80.76,-56.19"/>
</a>
</g>
</g>
<!-- Node3 -->
<g id="Node000003" class="node">
<title>Node3</title>
<g id="a_Node000003"><a xlink:title=" ">
<polygon fill="white" stroke="#bfbfbf" points="90.25,-141 36,-141 36,-121.75 90.25,-121.75 90.25,-141"/>
<text xml:space="preserve" text-anchor="middle" x="63.12" y="-127.5" font-family="Helvetica,sans-Serif" font-size="10.00">QWidget</text>
</a>
</g>
</g>
<!-- Node3&#45;&gt;Node2 -->
<g id="edge2_Node000002_Node000003" class="edge">
<title>Node3&#45;&gt;Node2</title>
<g id="a_edge2_Node000002_Node000003"><a xlink:title=" ">
<path fill="none" stroke="#63b8ff" d="M63.12,-110.13C63.12,-101.84 63.12,-92.67 63.12,-86.11"/>
<polygon fill="#63b8ff" stroke="#63b8ff" points="59.63,-110.07 63.13,-120.07 66.63,-110.07 59.63,-110.07"/>
</a>
</g>
</g>
<!-- Node4 -->
<g id="Node000004" class="node">
<title>Node4</title>
<g id="a_Node000004"><a xlink:href="class_im_fusion_1_1_signal_receiver.html" target="_top" xlink:title="Base class for classes that can contain slots (i.e.">
<polygon fill="white" stroke="#666666" points="272.38,-85.75 143.88,-85.75 143.88,-66.5 272.38,-66.5 272.38,-85.75"/>
<text xml:space="preserve" text-anchor="middle" x="208.12" y="-72.25" font-family="Helvetica,sans-Serif" font-size="10.00">ImFusion::SignalReceiver</text>
</a>
</g>
</g>
<!-- Node4&#45;&gt;Node1 -->
<g id="edge3_Node000001_Node000004" class="edge">
<title>Node4&#45;&gt;Node1</title>
<g id="a_edge3_Node000001_Node000004"><a xlink:title=" ">
<path fill="none" stroke="#63b8ff" d="M188.2,-59.06C177.25,-50.23 163.78,-39.36 153.14,-30.78"/>
<polygon fill="#63b8ff" stroke="#63b8ff" points="185.88,-61.68 195.86,-65.23 190.27,-56.23 185.88,-61.68"/>
</a>
</g>
</g>
</g>
</svg>
