<?xml version="1.0" encoding="UTF-8" standalone="no"?>
<!DOCTYPE svg PUBLIC "-//W3C//DTD SVG 1.1//EN"
 "http://www.w3.org/Graphics/SVG/1.1/DTD/svg11.dtd">
<!-- Generated by graphviz version 14.1.4 (20260321.0153)
 -->
<!-- Title: ImFusion::GL::ProgramCache Pages: 1 -->
<svg width="155pt" height="149pt"
 viewBox="0.00 0.00 155.00 149.00" xmlns="http://www.w3.org/2000/svg" xmlns:xlink="http://www.w3.org/1999/xlink">
<g id="graph0" class="graph" transform="scale(1 1) rotate(0) translate(4 145)">
<title>ImFusion::GL::ProgramCache</title>
<!-- Node1 -->
<g id="Node000001" class="node">
<title>Node1</title>
<g id="a_Node000001"><a xlink:title="Helper class to manage instances of the same base shader with different abstract includes and/or defi...">
<polygon fill="#999999" stroke="#666666" points="146.5,-85.75 0,-85.75 0,-66.5 146.5,-66.5 146.5,-85.75"/>
<text xml:space="preserve" text-anchor="middle" x="73.25" y="-72.25" font-family="Helvetica,sans-Serif" font-size="10.00">ImFusion::GL::ProgramCache</text>
</a>
</g>
</g>
<!-- Node3 -->
<g id="Node000003" class="node">
<title>Node3</title>
<g id="a_Node000003"><a xlink:href="class_im_fusion_1_1_gl_program_include_manager.html" target="_top" xlink:title="Helper class to manage instances of the same base shader with different abstract includes and/or defi...">
<polygon fill="white" stroke="#666666" points="143.5,-30.5 3,-30.5 3,0 143.5,0 143.5,-30.5"/>
<text xml:space="preserve" text-anchor="start" x="11" y="-17" font-family="Helvetica,sans-Serif" font-size="10.00">ImFusion::GlProgramInclude</text>
<text xml:space="preserve" text-anchor="middle" x="73.25" y="-5.75" font-family="Helvetica,sans-Serif" font-size="10.00">Manager</text>
</a>
</g>
</g>
<!-- Node1&#45;&gt;Node3 -->
<g id="edge2_Node000001_Node000003" class="edge">
<title>Node1&#45;&gt;Node3</title>
<g id="a_edge2_Node000001_Node000003"><a xlink:title=" ">
<path fill="none" stroke="#8b1a1a" d="M73.25,-54.92C73.25,-46.99 73.25,-38.06 73.25,-30.78"/>
<polygon fill="#8b1a1a" stroke="#8b1a1a" points="69.75,-54.67 73.25,-64.67 76.75,-54.67 69.75,-54.67"/>
</a>
</g>
</g>
<!-- Node2 -->
<g id="Node000002" class="node">
<title>Node2</title>
<g id="a_Node000002"><a xlink:href="class_im_fusion_1_1_utils_1_1_not_copyable.html" target="_top" xlink:title="Inherit from this class if your class should be neither copy&#45;constructible nor assignable.">
<polygon fill="white" stroke="#666666" points="146.12,-141 0.38,-141 0.38,-121.75 146.12,-121.75 146.12,-141"/>
<text xml:space="preserve" text-anchor="middle" x="73.25" y="-127.5" font-family="Helvetica,sans-Serif" font-size="10.00">ImFusion::Utils::NotCopyable</text>
</a>
</g>
</g>
<!-- Node2&#45;&gt;Node1 -->
<g id="edge1_Node000001_Node000002" class="edge">
<title>Node2&#45;&gt;Node1</title>
<g id="a_edge1_Node000001_Node000002"><a xlink:title=" ">
<path fill="none" stroke="#8b1a1a" d="M73.25,-110.13C73.25,-101.84 73.25,-92.67 73.25,-86.11"/>
<polygon fill="#8b1a1a" stroke="#8b1a1a" points="69.75,-110.07 73.25,-120.07 76.75,-110.07 69.75,-110.07"/>
</a>
</g>
</g>
</g>
</svg>
