<?xml version="1.0" encoding="UTF-8" standalone="no"?>
<!DOCTYPE svg PUBLIC "-//W3C//DTD SVG 1.1//EN"
 "http://www.w3.org/Graphics/SVG/1.1/DTD/svg11.dtd">
<!-- Generated by graphviz version 14.1.4 (20260321.0153)
 -->
<!-- Title: ImFusion::Dicom::Extension Pages: 1 -->
<!--zoomable 223 -->

<svg id="main" version="1.1" xmlns="http://www.w3.org/2000/svg" xmlns:xlink="http://www.w3.org/1999/xlink" xml:space="preserve" onload="init(evt)">

<style type="text/css"><![CDATA[
.node, .edge {opacity: 0.7;}
.node.selected, .edge.selected {opacity: 1;}
.edge:hover path { stroke: red; }
.edge:hover polygon { stroke: red; fill: red; }
]]></style>

<defs>
  <circle id="rim" cx="0" cy="0" r="7"/>
  <circle id="rim2" cx="0" cy="0" r="3.5"/>
  <g id="zoomPlus">
    <use xlink:href="#rim" fill="#404040"><set attributeName="fill" to="#808080" begin="zoomplus.mouseover" end="zoomplus.mouseout"/></use>
    <path d="M-4,0h8M0,-4v8" fill="none" stroke="white" stroke-width="1.5" pointer-events="none"/>
  </g>
  <g id="zoomMin">
    <use xlink:href="#rim" fill="#404040"><set attributeName="fill" to="#808080" begin="zoomminus.mouseover" end="zoomminus.mouseout"/></use>
    <path d="M-4,0h8" fill="none" stroke="white" stroke-width="1.5" pointer-events="none"/>
  </g>
  <g id="arrowUp" transform="translate(30 24)">
    <use xlink:href="#rim"/>
    <path pointer-events="none" fill="none" stroke="white" stroke-width="1.5" d="M0,-3.0v7 M-2.5,-0.5L0,-3.0L2.5,-0.5"/>
  </g>
  <g id="arrowRight" transform="rotate(90) translate(36 -43)">
    <use xlink:href="#rim"/>
    <path pointer-events="none" fill="none" stroke="white" stroke-width="1.5" d="M0,-3.0v7 M-2.5,-0.5L0,-3.0L2.5,-0.5"/>
  </g>
  <g id="arrowDown" transform="rotate(180) translate(-30 -48)">
    <use xlink:href="#rim"/>
    <path pointer-events="none" fill="none" stroke="white" stroke-width="1.5" d="M0,-3.0v7 M-2.5,-0.5L0,-3.0L2.5,-0.5"/>
  </g>
  <g id="arrowLeft" transform="rotate(270) translate(-36 17)">
    <use xlink:href="#rim"/>
    <path pointer-events="none" fill="none" stroke="white" stroke-width="1.5" d="M0,-3.0v7 M-2.5,-0.5L0,-3.0L2.5,-0.5"/>
  </g>
  <g id="resetDef">
    <use xlink:href="#rim2" fill="#404040"><set attributeName="fill" to="#808080" begin="reset.mouseover" end="reset.mouseout"/></use>
  </g>
</defs>
<script type="application/ecmascript">
var viewWidth = 555;
var viewHeight = 223;
var sectionId = 'dynsection-0';
</script>
<script type="application/ecmascript" xlink:href="svg.min.js"/>
<svg id="graph" class="graph">
<g id="viewport">
<title>ImFusion::Dicom::Extension</title>
<!-- Node1 -->
<g id="Node000001" class="node">
<title>Node1</title>
<g id="a_Node000001"><a xlink:title="Interface for adding custom functionality to DicomLoader and DicomWriter An Extension might be called...">
<polygon fill="#999999" stroke="#666666" points="334.25,-111.25 193.75,-111.25 193.75,-92 334.25,-92 334.25,-111.25"/>
<text xml:space="preserve" text-anchor="middle" x="264" y="-97.75" font-family="Helvetica,sans-Serif" font-size="10.00">ImFusion::Dicom::Extension</text>
</a>
</g>
</g>
<!-- Node3 -->
<g id="Node000003" class="node">
<title>Node3</title>
<g id="a_Node000003"><a xlink:href="class_im_fusion_1_1_dicom_1_1_clinical_trial_subject_extension.html" target="_top" xlink:title="Extension that loads and saves the ClinicalTrialSubjectDataComponent.">
<polygon fill="white" stroke="#666666" points="523.12,-214.88 393.88,-214.88 393.88,-184.38 523.12,-184.38 523.12,-214.88"/>
<text xml:space="preserve" text-anchor="start" x="401.88" y="-201.38" font-family="Helvetica,sans-Serif" font-size="10.00">ImFusion::Dicom::Clinical</text>
<text xml:space="preserve" text-anchor="middle" x="458.5" y="-190.12" font-family="Helvetica,sans-Serif" font-size="10.00">TrialSubjectExtension</text>
</a>
</g>
</g>
<!-- Node1&#45;&gt;Node3 -->
<g id="edge2_Node000001_Node000003" class="edge">
<title>Node1&#45;&gt;Node3</title>
<g id="a_edge2_Node000001_Node000003"><a xlink:title=" ">
<path fill="none" stroke="#63b8ff" d="M285.18,-118.65C305.5,-135.03 338.33,-159.49 370.25,-174.62 377.65,-178.14 385.65,-181.25 393.69,-183.99"/>
<polygon fill="#63b8ff" stroke="#63b8ff" points="287.64,-116.14 277.69,-112.5 283.2,-121.55 287.64,-116.14"/>
</a>
</g>
</g>
<!-- Node4 -->
<g id="Node000004" class="node">
<title>Node4</title>
<g id="a_Node000004"><a xlink:href="class_im_fusion_1_1_dicom_1_1_encrypted_attributes_extension.html" target="_top" xlink:title=" ">
<polygon fill="white" stroke="#bfbfbf" points="529.12,-165.88 387.88,-165.88 387.88,-135.38 529.12,-135.38 529.12,-165.88"/>
<text xml:space="preserve" text-anchor="start" x="395.88" y="-152.38" font-family="Helvetica,sans-Serif" font-size="10.00">ImFusion::Dicom::Encrypted</text>
<text xml:space="preserve" text-anchor="middle" x="458.5" y="-141.12" font-family="Helvetica,sans-Serif" font-size="10.00">AttributesExtension</text>
</a>
</g>
</g>
<!-- Node1&#45;&gt;Node4 -->
<g id="edge3_Node000001_Node000004" class="edge">
<title>Node1&#45;&gt;Node4</title>
<g id="a_edge3_Node000001_Node000004"><a xlink:title=" ">
<path fill="none" stroke="#63b8ff" d="M315.33,-114.44C339.94,-120.7 369.79,-128.3 395.77,-134.91"/>
<polygon fill="#63b8ff" stroke="#63b8ff" points="316.44,-111.11 305.89,-112.03 314.71,-117.89 316.44,-111.11"/>
</a>
</g>
</g>
<!-- Node5 -->
<g id="Node000005" class="node">
<title>Node5</title>
<g id="a_Node000005"><a xlink:href="class_im_fusion_1_1_dicom_1_1_general_equipment_extension.html" target="_top" xlink:title="General Equipment Module (PS 3.3 C.7.5) Only considers tags that are part of the GeneralEquipmentModu...">
<polygon fill="white" stroke="#666666" points="523.88,-116.88 393.12,-116.88 393.12,-86.38 523.88,-86.38 523.88,-116.88"/>
<text xml:space="preserve" text-anchor="start" x="401.12" y="-103.38" font-family="Helvetica,sans-Serif" font-size="10.00">ImFusion::Dicom::General</text>
<text xml:space="preserve" text-anchor="middle" x="458.5" y="-92.12" font-family="Helvetica,sans-Serif" font-size="10.00">EquipmentExtension</text>
</a>
</g>
</g>
<!-- Node1&#45;&gt;Node5 -->
<g id="edge4_Node000001_Node000005" class="edge">
<title>Node1&#45;&gt;Node5</title>
<g id="a_edge4_Node000001_Node000005"><a xlink:title=" ">
<path fill="none" stroke="#63b8ff" d="M345.82,-101.62C361.53,-101.62 377.81,-101.62 392.92,-101.62"/>
<polygon fill="#63b8ff" stroke="#63b8ff" points="346.01,-98.13 336.01,-101.63 346.01,-105.13 346.01,-98.13"/>
</a>
</g>
</g>
<!-- Node6 -->
<g id="Node000006" class="node">
<title>Node6</title>
<g id="a_Node000006"><a xlink:href="class_im_fusion_1_1_dicom_1_1_real_world_value_mapping_extension.html" target="_top" xlink:title="Real World Value Mapping Macro (PS 3.3 C.7.6.16.2.11).">
<polygon fill="white" stroke="#666666" points="529.5,-67.88 387.5,-67.88 387.5,-37.38 529.5,-37.38 529.5,-67.88"/>
<text xml:space="preserve" text-anchor="start" x="395.5" y="-54.38" font-family="Helvetica,sans-Serif" font-size="10.00">ImFusion::Dicom::RealWorld</text>
<text xml:space="preserve" text-anchor="middle" x="458.5" y="-43.12" font-family="Helvetica,sans-Serif" font-size="10.00">ValueMappingExtension</text>
</a>
</g>
</g>
<!-- Node1&#45;&gt;Node6 -->
<g id="edge5_Node000001_Node000006" class="edge">
<title>Node1&#45;&gt;Node6</title>
<g id="a_edge5_Node000001_Node000006"><a xlink:title=" ">
<path fill="none" stroke="#63b8ff" d="M315.33,-88.81C339.94,-82.55 369.79,-74.95 395.77,-68.34"/>
<polygon fill="#63b8ff" stroke="#63b8ff" points="314.71,-85.36 305.89,-91.22 316.44,-92.14 314.71,-85.36"/>
</a>
</g>
</g>
<!-- Node7 -->
<g id="Node000007" class="node">
<title>Node7</title>
<g id="a_Node000007"><a xlink:href="class_im_fusion_1_1_dicom_1_1_v_o_i_l_u_t_extension.html" target="_top" xlink:title="VOI LUT Module (PS 3.3 C.11.2) Loads and saves windowing related values to and from DisplayOptions2d.">
<polygon fill="white" stroke="#666666" points="546.75,-19.25 370.25,-19.25 370.25,0 546.75,0 546.75,-19.25"/>
<text xml:space="preserve" text-anchor="middle" x="458.5" y="-5.75" font-family="Helvetica,sans-Serif" font-size="10.00">ImFusion::Dicom::VOILUTExtension</text>
</a>
</g>
</g>
<!-- Node1&#45;&gt;Node7 -->
<g id="edge6_Node000001_Node000007" class="edge">
<title>Node1&#45;&gt;Node7</title>
<g id="a_edge6_Node000001_Node000007"><a xlink:title=" ">
<path fill="none" stroke="#63b8ff" d="M284.65,-84.42C304.79,-67.7 337.68,-42.8 370.25,-28.62 378.49,-25.04 387.48,-22.1 396.45,-19.7"/>
<polygon fill="#63b8ff" stroke="#63b8ff" points="282.61,-81.57 277.25,-90.7 287.14,-86.9 282.61,-81.57"/>
</a>
</g>
</g>
<!-- Node2 -->
<g id="Node000002" class="node">
<title>Node2</title>
<g id="a_Node000002"><a xlink:href="class_im_fusion_1_1_dicom_1_1_error_recorder.html" target="_top" xlink:title="Error handling interface for the Dicom module.">
<polygon fill="white" stroke="#666666" points="157.75,-111.25 0,-111.25 0,-92 157.75,-92 157.75,-111.25"/>
<text xml:space="preserve" text-anchor="middle" x="78.88" y="-97.75" font-family="Helvetica,sans-Serif" font-size="10.00">ImFusion::Dicom::ErrorRecorder</text>
</a>
</g>
</g>
<!-- Node2&#45;&gt;Node1 -->
<g id="edge1_Node000001_Node000002" class="edge">
<title>Node2&#45;&gt;Node1</title>
<g id="a_edge1_Node000001_Node000002"><a xlink:title=" ">
<path fill="none" stroke="#63b8ff" d="M169.44,-101.62C177.51,-101.62 185.6,-101.62 193.46,-101.62"/>
<polygon fill="#63b8ff" stroke="#63b8ff" points="169.58,-98.13 159.58,-101.63 169.58,-105.13 169.58,-98.13"/>
</a>
</g>
</g>
</g>
</svg>

<g id="navigator" transform="translate(0 0)" fill="#404254">
  <rect fill="#f2f5e9" fill-opacity="0.5" stroke="#606060" stroke-width=".5" x="0" y="0" width="60" height="60"/>
  <use id="zoomplus" xlink:href="#zoomPlus" x="17" y="9" onmousedown="handleZoom(evt,'in')"/>
  <use id="zoomminus" xlink:href="#zoomMin" x="42" y="9" onmousedown="handleZoom(evt,'out')"/>
  <use id="reset" xlink:href="#resetDef" x="30" y="36" onmousedown="handleReset()"/>
   <use id="arrowup" xlink:href="#arrowUp" x="0" y="0" onmousedown="handlePan(0,-1)"/>
  <use id="arrowright" xlink:href="#arrowRight" x="0" y="0" onmousedown="handlePan(1,0)"/>
  <use id="arrowdown" xlink:href="#arrowDown" x="0" y="0" onmousedown="handlePan(0,1)"/>
  <use id="arrowleft" xlink:href="#arrowLeft" x="0" y="0" onmousedown="handlePan(-1,0)"/>
</g>
<svg viewBox="0 0 15 15" width="100%" height="30px" preserveAspectRatio="xMaxYMin meet">
 <g id="arrow_out" transform="scale(0.3 0.3)">
  <a xlink:href="class_im_fusion_1_1_dicom_1_1_extension__inherit__graph_org.svg" target="_base">
   <rect id="button" ry="5" rx="5" y="6" x="6" height="38" width="38"
        fill="#f2f5e9" fill-opacity="0.5" stroke="#606060" stroke-width="1.0"/>
   <path id="arrow"
     d="M 11.500037,31.436501 C 11.940474,20.09759 22.043105,11.32322 32.158766,21.979434 L 37.068811,17.246167 C 37.068811,17.246167 37.088388,32 37.088388,32 L 22.160133,31.978069 C 22.160133,31.978069 26.997745,27.140456 26.997745,27.140456 C 18.528582,18.264221 13.291696,25.230495 11.500037,31.436501 z"
     style="fill:#404040;"/>
  </a>
 </g>
</svg>

<style type='text/css'>
<![CDATA[
[data-mouse-over-selected='false'] { opacity: 0.7; }
[data-mouse-over-selected='true']  { opacity: 1.0; }
]]>
</style>
<script type="application/ecmascript"><![CDATA[
document.addEventListener('DOMContentLoaded', (event) => {
  highlightEdges();
  highlightAdjacentNodes();
});
]]></script>
</svg>
