<?xml version="1.0" encoding="UTF-8" standalone="no"?>
<!DOCTYPE svg PUBLIC "-//W3C//DTD SVG 1.1//EN"
 "http://www.w3.org/Graphics/SVG/1.1/DTD/svg11.dtd">
<!-- Generated by graphviz version 14.1.4 (20260321.0153)
 -->
<!-- Title: ImFusion::DataGroupingModel Pages: 1 -->
<svg width="430pt" height="83pt"
 viewBox="0.00 0.00 430.00 83.00" xmlns="http://www.w3.org/2000/svg" xmlns:xlink="http://www.w3.org/1999/xlink">
<g id="graph0" class="graph" transform="scale(1 1) rotate(0) translate(4 78.5)">
<title>ImFusion::DataGroupingModel</title>
<!-- Node1 -->
<g id="Node000001" class="node">
<title>Node1</title>
<g id="a_Node000001"><a xlink:title="QAbstractProxyModel implementation that groups data in a source&#45;model according to a specified Groupi...">
<polygon fill="#999999" stroke="#666666" points="268.38,-19.25 119.62,-19.25 119.62,0 268.38,0 268.38,-19.25"/>
<text xml:space="preserve" text-anchor="middle" x="194" y="-5.75" font-family="Helvetica,sans-Serif" font-size="10.00">ImFusion::DataGroupingModel</text>
</a>
</g>
</g>
<!-- Node2 -->
<g id="Node000002" class="node">
<title>Node2</title>
<g id="a_Node000002"><a xlink:title=" ">
<polygon fill="white" stroke="#bfbfbf" points="112,-74.5 0,-74.5 0,-55.25 112,-55.25 112,-74.5"/>
<text xml:space="preserve" text-anchor="middle" x="56" y="-61" font-family="Helvetica,sans-Serif" font-size="10.00">QAbstractProxyModel</text>
</a>
</g>
</g>
<!-- Node2&#45;&gt;Node1 -->
<g id="edge1_Node000001_Node000002" class="edge">
<title>Node2&#45;&gt;Node1</title>
<g id="a_edge1_Node000001_Node000002"><a xlink:title=" ">
<path fill="none" stroke="#63b8ff" d="M89.9,-50.79C114.92,-41.14 148.33,-28.25 170.48,-19.7"/>
<polygon fill="#63b8ff" stroke="#63b8ff" points="88.89,-47.43 80.82,-54.3 91.41,-53.96 88.89,-47.43"/>
</a>
</g>
</g>
<!-- Node3 -->
<g id="Node000003" class="node">
<title>Node3</title>
<g id="a_Node000003"><a xlink:href="class_im_fusion_1_1_signal_receiver.html" target="_top" xlink:title="Base class for classes that can contain slots (i.e.">
<polygon fill="white" stroke="#666666" points="258.25,-74.5 129.75,-74.5 129.75,-55.25 258.25,-55.25 258.25,-74.5"/>
<text xml:space="preserve" text-anchor="middle" x="194" y="-61" font-family="Helvetica,sans-Serif" font-size="10.00">ImFusion::SignalReceiver</text>
</a>
</g>
</g>
<!-- Node3&#45;&gt;Node1 -->
<g id="edge2_Node000001_Node000003" class="edge">
<title>Node3&#45;&gt;Node1</title>
<g id="a_edge2_Node000001_Node000003"><a xlink:title=" ">
<path fill="none" stroke="#63b8ff" d="M194,-43.63C194,-35.34 194,-26.17 194,-19.61"/>
<polygon fill="#63b8ff" stroke="#63b8ff" points="190.5,-43.57 194,-53.57 197.5,-43.57 190.5,-43.57"/>
</a>
</g>
</g>
<!-- Node4 -->
<g id="Node000004" class="node">
<title>Node4</title>
<g id="a_Node000004"><a xlink:href="class_im_fusion_1_1_utils_1_1_not_copyable.html" target="_top" xlink:title="Inherit from this class if your class should be neither copy&#45;constructible nor assignable.">
<polygon fill="white" stroke="#666666" points="421.88,-74.5 276.12,-74.5 276.12,-55.25 421.88,-55.25 421.88,-74.5"/>
<text xml:space="preserve" text-anchor="middle" x="349" y="-61" font-family="Helvetica,sans-Serif" font-size="10.00">ImFusion::Utils::NotCopyable</text>
</a>
</g>
</g>
<!-- Node4&#45;&gt;Node1 -->
<g id="edge3_Node000001_Node000004" class="edge">
<title>Node4&#45;&gt;Node1</title>
<g id="a_edge3_Node000001_Node000004"><a xlink:title=" ">
<path fill="none" stroke="#8b1a1a" d="M312.05,-51.18C283.83,-41.49 245.63,-28.36 220.42,-19.7"/>
<polygon fill="#8b1a1a" stroke="#8b1a1a" points="310.68,-54.41 321.27,-54.35 312.95,-47.79 310.68,-54.41"/>
</a>
</g>
</g>
</g>
</svg>
