<?xml version="1.0" encoding="UTF-8" standalone="no"?>
<!DOCTYPE svg PUBLIC "-//W3C//DTD SVG 1.1//EN"
 "http://www.w3.org/Graphics/SVG/1.1/DTD/svg11.dtd">
<!-- Generated by graphviz version 14.1.4 (20260321.0153)
 -->
<!-- Title: ImFusion::BoxAnnotationManipulator Pages: 1 -->
<svg width="185pt" height="149pt"
 viewBox="0.00 0.00 185.00 149.00" xmlns="http://www.w3.org/2000/svg" xmlns:xlink="http://www.w3.org/1999/xlink">
<g id="graph0" class="graph" transform="scale(1 1) rotate(0) translate(4 145)">
<title>ImFusion::BoxAnnotationManipulator</title>
<!-- Node1 -->
<g id="Node000001" class="node">
<title>Node1</title>
<g id="a_Node000001"><a xlink:title="Manipulator for box annotations.">
<polygon fill="#999999" stroke="#666666" points="176.5,-19.25 0,-19.25 0,0 176.5,0 176.5,-19.25"/>
<text xml:space="preserve" text-anchor="middle" x="88.25" y="-5.75" font-family="Helvetica,sans-Serif" font-size="10.00">ImFusion::BoxAnnotationManipulator</text>
</a>
</g>
</g>
<!-- Node2 -->
<g id="Node000002" class="node">
<title>Node2</title>
<g id="a_Node000002"><a xlink:href="class_im_fusion_1_1_manipulator.html" target="_top" xlink:title="Abstract base class for manipulator objects.">
<polygon fill="white" stroke="#666666" points="144.62,-74.5 31.88,-74.5 31.88,-55.25 144.62,-55.25 144.62,-74.5"/>
<text xml:space="preserve" text-anchor="middle" x="88.25" y="-61" font-family="Helvetica,sans-Serif" font-size="10.00">ImFusion::Manipulator</text>
</a>
</g>
</g>
<!-- Node2&#45;&gt;Node1 -->
<g id="edge1_Node000001_Node000002" class="edge">
<title>Node2&#45;&gt;Node1</title>
<g id="a_edge1_Node000001_Node000002"><a xlink:title=" ">
<path fill="none" stroke="#63b8ff" d="M88.25,-43.63C88.25,-35.34 88.25,-26.17 88.25,-19.61"/>
<polygon fill="#63b8ff" stroke="#63b8ff" points="84.75,-43.57 88.25,-53.57 91.75,-43.57 84.75,-43.57"/>
</a>
</g>
</g>
<!-- Node3 -->
<g id="Node000003" class="node">
<title>Node3</title>
<g id="a_Node000003"><a xlink:href="class_im_fusion_1_1_g_u_i_1_1_view_object_1_1_event_handler.html" target="_top" xlink:title="Interface to be used as base class for event handlers of ViewObjects.">
<polygon fill="white" stroke="#666666" points="156.62,-141 19.88,-141 19.88,-110.5 156.62,-110.5 156.62,-141"/>
<text xml:space="preserve" text-anchor="start" x="27.88" y="-127.5" font-family="Helvetica,sans-Serif" font-size="10.00">ImFusion::GUI::ViewObject</text>
<text xml:space="preserve" text-anchor="middle" x="88.25" y="-116.25" font-family="Helvetica,sans-Serif" font-size="10.00">::EventHandler</text>
</a>
</g>
</g>
<!-- Node3&#45;&gt;Node2 -->
<g id="edge2_Node000002_Node000003" class="edge">
<title>Node3&#45;&gt;Node2</title>
<g id="a_edge2_Node000002_Node000003"><a xlink:title=" ">
<path fill="none" stroke="#63b8ff" d="M88.25,-98.73C88.25,-90.23 88.25,-81.34 88.25,-74.95"/>
<polygon fill="#63b8ff" stroke="#63b8ff" points="84.75,-98.68 88.25,-108.68 91.75,-98.68 84.75,-98.68"/>
</a>
</g>
</g>
</g>
</svg>
