<?xml version="1.0" encoding="UTF-8" standalone="no"?>
<!DOCTYPE svg PUBLIC "-//W3C//DTD SVG 1.1//EN"
 "http://www.w3.org/Graphics/SVG/1.1/DTD/svg11.dtd">
<!-- Generated by graphviz version 14.1.4 (20260321.0153)
 -->
<!-- Title: ImFusion::LinearSystemSolver Pages: 1 -->
<!--zoomable 199 -->

<svg id="main" version="1.1" xmlns="http://www.w3.org/2000/svg" xmlns:xlink="http://www.w3.org/1999/xlink" xml:space="preserve" onload="init(evt)">

<style type="text/css"><![CDATA[
.node, .edge {opacity: 0.7;}
.node.selected, .edge.selected {opacity: 1;}
.edge:hover path { stroke: red; }
.edge:hover polygon { stroke: red; fill: red; }
]]></style>

<defs>
  <circle id="rim" cx="0" cy="0" r="7"/>
  <circle id="rim2" cx="0" cy="0" r="3.5"/>
  <g id="zoomPlus">
    <use xlink:href="#rim" fill="#404040"><set attributeName="fill" to="#808080" begin="zoomplus.mouseover" end="zoomplus.mouseout"/></use>
    <path d="M-4,0h8M0,-4v8" fill="none" stroke="white" stroke-width="1.5" pointer-events="none"/>
  </g>
  <g id="zoomMin">
    <use xlink:href="#rim" fill="#404040"><set attributeName="fill" to="#808080" begin="zoomminus.mouseover" end="zoomminus.mouseout"/></use>
    <path d="M-4,0h8" fill="none" stroke="white" stroke-width="1.5" pointer-events="none"/>
  </g>
  <g id="arrowUp" transform="translate(30 24)">
    <use xlink:href="#rim"/>
    <path pointer-events="none" fill="none" stroke="white" stroke-width="1.5" d="M0,-3.0v7 M-2.5,-0.5L0,-3.0L2.5,-0.5"/>
  </g>
  <g id="arrowRight" transform="rotate(90) translate(36 -43)">
    <use xlink:href="#rim"/>
    <path pointer-events="none" fill="none" stroke="white" stroke-width="1.5" d="M0,-3.0v7 M-2.5,-0.5L0,-3.0L2.5,-0.5"/>
  </g>
  <g id="arrowDown" transform="rotate(180) translate(-30 -48)">
    <use xlink:href="#rim"/>
    <path pointer-events="none" fill="none" stroke="white" stroke-width="1.5" d="M0,-3.0v7 M-2.5,-0.5L0,-3.0L2.5,-0.5"/>
  </g>
  <g id="arrowLeft" transform="rotate(270) translate(-36 17)">
    <use xlink:href="#rim"/>
    <path pointer-events="none" fill="none" stroke="white" stroke-width="1.5" d="M0,-3.0v7 M-2.5,-0.5L0,-3.0L2.5,-0.5"/>
  </g>
  <g id="resetDef">
    <use xlink:href="#rim2" fill="#404040"><set attributeName="fill" to="#808080" begin="reset.mouseover" end="reset.mouseout"/></use>
  </g>
</defs>
<script type="application/ecmascript">
var viewWidth = 521;
var viewHeight = 199;
var sectionId = 'dynsection-0';
</script>
<script type="application/ecmascript" xlink:href="svg.min.js"/>
<svg id="graph" class="graph">
<g id="viewport">
<title>ImFusion::LinearSystemSolver</title>
<!-- Node1 -->
<g id="Node000001" class="node">
<title>Node1</title>
<g id="a_Node000001"><a xlink:title="Interface for linear system solvers.">
<polygon fill="#999999" stroke="#666666" points="150.25,-68.25 0,-68.25 0,-49 150.25,-49 150.25,-68.25"/>
<text xml:space="preserve" text-anchor="middle" x="75.12" y="-54.75" font-family="Helvetica,sans-Serif" font-size="10.00">ImFusion::LinearSystemSolver</text>
</a>
</g>
</g>
<!-- Node2 -->
<g id="Node000002" class="node">
<title>Node2</title>
<g id="a_Node000002"><a xlink:href="class_im_fusion_1_1_iterative_linear_system_solver.html" target="_top" xlink:title="Interface for iterative linear system solvers.">
<polygon fill="white" stroke="#666666" points="314,-116.88 190,-116.88 190,-86.38 314,-86.38 314,-116.88"/>
<text xml:space="preserve" text-anchor="start" x="198" y="-103.38" font-family="Helvetica,sans-Serif" font-size="10.00">ImFusion::IterativeLinear</text>
<text xml:space="preserve" text-anchor="middle" x="252" y="-92.12" font-family="Helvetica,sans-Serif" font-size="10.00">SystemSolver</text>
</a>
</g>
</g>
<!-- Node1&#45;&gt;Node2 -->
<g id="edge1_Node000001_Node000002" class="edge">
<title>Node1&#45;&gt;Node2</title>
<g id="a_edge1_Node000001_Node000002"><a xlink:title=" ">
<path fill="none" stroke="#63b8ff" d="M128.15,-71.42C147.49,-76.17 169.6,-81.61 189.69,-86.55"/>
<polygon fill="#63b8ff" stroke="#63b8ff" points="129.14,-68.06 118.6,-69.07 127.47,-74.85 129.14,-68.06"/>
</a>
</g>
</g>
<!-- Node8 -->
<g id="Node000008" class="node">
<title>Node8</title>
<g id="a_Node000008"><a xlink:href="class_im_fusion_1_1_l_l_t_eigen_solver.html" target="_top" xlink:title="Solver using Cholesky decomposition of the matrix (Eigen implementation).">
<polygon fill="white" stroke="#666666" points="317.75,-68.25 186.25,-68.25 186.25,-49 317.75,-49 317.75,-68.25"/>
<text xml:space="preserve" text-anchor="middle" x="252" y="-54.75" font-family="Helvetica,sans-Serif" font-size="10.00">ImFusion::LLTEigenSolver</text>
</a>
</g>
</g>
<!-- Node1&#45;&gt;Node8 -->
<g id="edge7_Node000001_Node000008" class="edge">
<title>Node1&#45;&gt;Node8</title>
<g id="a_edge7_Node000001_Node000008"><a xlink:title=" ">
<path fill="none" stroke="#63b8ff" d="M161.87,-58.62C169.91,-58.62 177.97,-58.62 185.77,-58.62"/>
<polygon fill="#63b8ff" stroke="#63b8ff" points="162.05,-55.13 152.05,-58.63 162.05,-62.13 162.05,-55.13"/>
</a>
</g>
</g>
<!-- Node9 -->
<g id="Node000009" class="node">
<title>Node9</title>
<g id="a_Node000009"><a xlink:href="class_im_fusion_1_1_l_l_t_float_solver.html" target="_top" xlink:title="Solver using Cholesky decomposition of the matrix.">
<polygon fill="white" stroke="#666666" points="316.25,-31.25 187.75,-31.25 187.75,-12 316.25,-12 316.25,-31.25"/>
<text xml:space="preserve" text-anchor="middle" x="252" y="-17.75" font-family="Helvetica,sans-Serif" font-size="10.00">ImFusion::LLTFloatSolver</text>
</a>
</g>
</g>
<!-- Node1&#45;&gt;Node9 -->
<g id="edge8_Node000001_Node000009" class="edge">
<title>Node1&#45;&gt;Node9</title>
<g id="a_edge8_Node000001_Node000009"><a xlink:title=" ">
<path fill="none" stroke="#63b8ff" d="M134.91,-46.19C157.15,-41.48 182.17,-36.19 203.27,-31.72"/>
<polygon fill="#63b8ff" stroke="#63b8ff" points="134.45,-42.71 125.39,-48.2 135.9,-49.56 134.45,-42.71"/>
</a>
</g>
</g>
<!-- Node3 -->
<g id="Node000003" class="node">
<title>Node3</title>
<g id="a_Node000003"><a xlink:href="class_im_fusion_1_1_bi_c_g_stab_eigen_solver.html" target="_top" xlink:title="Bi&#45;conjugate gradient solver with stabilization (Eigen implementation).">
<polygon fill="white" stroke="#666666" points="513,-191.25 353.75,-191.25 353.75,-172 513,-172 513,-191.25"/>
<text xml:space="preserve" text-anchor="middle" x="433.38" y="-177.75" font-family="Helvetica,sans-Serif" font-size="10.00">ImFusion::BiCGStabEigenSolver</text>
</a>
</g>
</g>
<!-- Node2&#45;&gt;Node3 -->
<g id="edge2_Node000002_Node000003" class="edge">
<title>Node2&#45;&gt;Node3</title>
<g id="a_edge2_Node000002_Node000003"><a xlink:title=" ">
<path fill="none" stroke="#63b8ff" d="M283.09,-123.77C302.42,-137.05 328.55,-153.31 353.75,-163.62 361.4,-166.75 369.7,-169.4 377.94,-171.61"/>
<polygon fill="#63b8ff" stroke="#63b8ff" points="285.35,-121.08 275.15,-118.2 281.33,-126.81 285.35,-121.08"/>
</a>
</g>
</g>
<!-- Node4 -->
<g id="Node000004" class="node">
<title>Node4</title>
<g id="a_Node000004"><a xlink:href="class_im_fusion_1_1_bi_c_g_stab_solver.html" target="_top" xlink:title="Bi&#45;conjugate gradient solver with stabilization.">
<polygon fill="white" stroke="#666666" points="500.62,-154.25 366.12,-154.25 366.12,-135 500.62,-135 500.62,-154.25"/>
<text xml:space="preserve" text-anchor="middle" x="433.38" y="-140.75" font-family="Helvetica,sans-Serif" font-size="10.00">ImFusion::BiCGStabSolver</text>
</a>
</g>
</g>
<!-- Node2&#45;&gt;Node4 -->
<g id="edge3_Node000002_Node000004" class="edge">
<title>Node2&#45;&gt;Node4</title>
<g id="a_edge3_Node000002_Node000004"><a xlink:title=" ">
<path fill="none" stroke="#63b8ff" d="M325.47,-119C347.46,-124.27 370.88,-129.88 390.18,-134.51"/>
<polygon fill="#63b8ff" stroke="#63b8ff" points="326.49,-115.64 315.95,-116.72 324.86,-122.45 326.49,-115.64"/>
</a>
</g>
</g>
<!-- Node5 -->
<g id="Node000005" class="node">
<title>Node5</title>
<g id="a_Node000005"><a xlink:href="class_im_fusion_1_1_bi_c_g_stab_vienna_c_p_u_solver.html" target="_top" xlink:title="Bi&#45;conjugate gradient solver with stabilization (Vienna CPU implementation).">
<polygon fill="white" stroke="#666666" points="501.75,-116.88 365,-116.88 365,-86.38 501.75,-86.38 501.75,-116.88"/>
<text xml:space="preserve" text-anchor="start" x="373" y="-103.38" font-family="Helvetica,sans-Serif" font-size="10.00">ImFusion::BiCGStabVienna</text>
<text xml:space="preserve" text-anchor="middle" x="433.38" y="-92.12" font-family="Helvetica,sans-Serif" font-size="10.00">CPUSolver</text>
</a>
</g>
</g>
<!-- Node2&#45;&gt;Node5 -->
<g id="edge4_Node000002_Node000005" class="edge">
<title>Node2&#45;&gt;Node5</title>
<g id="a_edge4_Node000002_Node000005"><a xlink:title=" ">
<path fill="none" stroke="#63b8ff" d="M325.62,-101.62C338.47,-101.62 351.81,-101.62 364.52,-101.62"/>
<polygon fill="#63b8ff" stroke="#63b8ff" points="325.99,-98.13 315.99,-101.63 325.99,-105.13 325.99,-98.13"/>
</a>
</g>
</g>
<!-- Node6 -->
<g id="Node000006" class="node">
<title>Node6</title>
<g id="a_Node000006"><a xlink:href="class_im_fusion_1_1_bi_c_g_stab_vienna_g_p_u_solver.html" target="_top" xlink:title="Bi&#45;conjugate gradient solver with stabilization (Vienna GPU implementation).">
<polygon fill="white" stroke="#666666" points="501.75,-67.88 365,-67.88 365,-37.38 501.75,-37.38 501.75,-67.88"/>
<text xml:space="preserve" text-anchor="start" x="373" y="-54.38" font-family="Helvetica,sans-Serif" font-size="10.00">ImFusion::BiCGStabVienna</text>
<text xml:space="preserve" text-anchor="middle" x="433.38" y="-43.12" font-family="Helvetica,sans-Serif" font-size="10.00">GPUSolver</text>
</a>
</g>
</g>
<!-- Node2&#45;&gt;Node6 -->
<g id="edge5_Node000002_Node000006" class="edge">
<title>Node2&#45;&gt;Node6</title>
<g id="a_edge5_Node000002_Node000006"><a xlink:title=" ">
<path fill="none" stroke="#63b8ff" d="M321.33,-82.96C338.95,-78.15 357.73,-73.01 374.75,-68.37"/>
<polygon fill="#63b8ff" stroke="#63b8ff" points="320.43,-79.58 311.71,-85.59 322.28,-86.33 320.43,-79.58"/>
</a>
</g>
</g>
<!-- Node7 -->
<g id="Node000007" class="node">
<title>Node7</title>
<g id="a_Node000007"><a xlink:href="class_im_fusion_1_1_c_g_solver.html" target="_top" xlink:title="Conjugate gradient solver (Eigen implementation).">
<polygon fill="white" stroke="#666666" points="486,-19.25 380.75,-19.25 380.75,0 486,0 486,-19.25"/>
<text xml:space="preserve" text-anchor="middle" x="433.38" y="-5.75" font-family="Helvetica,sans-Serif" font-size="10.00">ImFusion::CGSolver</text>
</a>
</g>
</g>
<!-- Node2&#45;&gt;Node7 -->
<g id="edge6_Node000002_Node000007" class="edge">
<title>Node2&#45;&gt;Node7</title>
<g id="a_edge6_Node000002_Node000007"><a xlink:title=" ">
<path fill="none" stroke="#63b8ff" d="M313.67,-80.49C315.07,-79.57 316.43,-78.62 317.75,-77.62 339.33,-61.36 331.25,-43.6 353.75,-28.62 361.7,-23.33 370.97,-19.51 380.31,-16.76"/>
<polygon fill="#63b8ff" stroke="#63b8ff" points="312.25,-77.27 305.32,-85.29 315.73,-83.35 312.25,-77.27"/>
</a>
</g>
</g>
</g>
</svg>

<g id="navigator" transform="translate(0 0)" fill="#404254">
  <rect fill="#f2f5e9" fill-opacity="0.5" stroke="#606060" stroke-width=".5" x="0" y="0" width="60" height="60"/>
  <use id="zoomplus" xlink:href="#zoomPlus" x="17" y="9" onmousedown="handleZoom(evt,'in')"/>
  <use id="zoomminus" xlink:href="#zoomMin" x="42" y="9" onmousedown="handleZoom(evt,'out')"/>
  <use id="reset" xlink:href="#resetDef" x="30" y="36" onmousedown="handleReset()"/>
   <use id="arrowup" xlink:href="#arrowUp" x="0" y="0" onmousedown="handlePan(0,-1)"/>
  <use id="arrowright" xlink:href="#arrowRight" x="0" y="0" onmousedown="handlePan(1,0)"/>
  <use id="arrowdown" xlink:href="#arrowDown" x="0" y="0" onmousedown="handlePan(0,1)"/>
  <use id="arrowleft" xlink:href="#arrowLeft" x="0" y="0" onmousedown="handlePan(-1,0)"/>
</g>
<svg viewBox="0 0 15 15" width="100%" height="30px" preserveAspectRatio="xMaxYMin meet">
 <g id="arrow_out" transform="scale(0.3 0.3)">
  <a xlink:href="class_im_fusion_1_1_linear_system_solver__inherit__graph_org.svg" target="_base">
   <rect id="button" ry="5" rx="5" y="6" x="6" height="38" width="38"
        fill="#f2f5e9" fill-opacity="0.5" stroke="#606060" stroke-width="1.0"/>
   <path id="arrow"
     d="M 11.500037,31.436501 C 11.940474,20.09759 22.043105,11.32322 32.158766,21.979434 L 37.068811,17.246167 C 37.068811,17.246167 37.088388,32 37.088388,32 L 22.160133,31.978069 C 22.160133,31.978069 26.997745,27.140456 26.997745,27.140456 C 18.528582,18.264221 13.291696,25.230495 11.500037,31.436501 z"
     style="fill:#404040;"/>
  </a>
 </g>
</svg>

<style type='text/css'>
<![CDATA[
[data-mouse-over-selected='false'] { opacity: 0.7; }
[data-mouse-over-selected='true']  { opacity: 1.0; }
]]>
</style>
<script type="application/ecmascript"><![CDATA[
document.addEventListener('DOMContentLoaded', (event) => {
  highlightEdges();
  highlightAdjacentNodes();
});
]]></script>
</svg>
