<?xml version="1.0" encoding="UTF-8" standalone="no"?>
<!DOCTYPE svg PUBLIC "-//W3C//DTD SVG 1.1//EN"
 "http://www.w3.org/Graphics/SVG/1.1/DTD/svg11.dtd">
<!-- Generated by graphviz version 14.1.4 (20260321.0153)
 -->
<!-- Title: ImFusion::ApplyRegistration Pages: 1 -->
<svg width="340pt" height="204pt"
 viewBox="0.00 0.00 340.00 204.00" xmlns="http://www.w3.org/2000/svg" xmlns:xlink="http://www.w3.org/1999/xlink">
<g id="graph0" class="graph" transform="scale(1 1) rotate(0) translate(4 200.25)">
<title>ImFusion::ApplyRegistration</title>
<!-- Node1 -->
<g id="Node000001" class="node">
<title>Node1</title>
<g id="a_Node000001"><a xlink:title="Class that allows to apply registration results on algorithm input data.">
<polygon fill="#999999" stroke="#666666" points="270.5,-19.25 130.75,-19.25 130.75,0 270.5,0 270.5,-19.25"/>
<text xml:space="preserve" text-anchor="middle" x="200.62" y="-5.75" font-family="Helvetica,sans-Serif" font-size="10.00">ImFusion::ApplyRegistration</text>
</a>
</g>
</g>
<!-- Node2 -->
<g id="Node000002" class="node">
<title>Node2</title>
<g id="a_Node000002"><a xlink:href="class_im_fusion_1_1_registration_results_algorithm.html" target="_top" xlink:title="Store registration results for data combinations.">
<polygon fill="white" stroke="#666666" points="275,-85.75 126.25,-85.75 126.25,-55.25 275,-55.25 275,-85.75"/>
<text xml:space="preserve" text-anchor="start" x="134.25" y="-72.25" font-family="Helvetica,sans-Serif" font-size="10.00">ImFusion::RegistrationResults</text>
<text xml:space="preserve" text-anchor="middle" x="200.62" y="-61" font-family="Helvetica,sans-Serif" font-size="10.00">Algorithm</text>
</a>
</g>
</g>
<!-- Node2&#45;&gt;Node1 -->
<g id="edge1_Node000001_Node000002" class="edge">
<title>Node2&#45;&gt;Node1</title>
<g id="a_edge1_Node000001_Node000002"><a xlink:title=" ">
<path fill="none" stroke="#63b8ff" d="M200.62,-43.48C200.62,-34.98 200.62,-26.09 200.62,-19.7"/>
<polygon fill="#63b8ff" stroke="#63b8ff" points="197.13,-43.43 200.63,-53.43 204.13,-43.43 197.13,-43.43"/>
</a>
</g>
</g>
<!-- Node3 -->
<g id="Node000003" class="node">
<title>Node3</title>
<g id="a_Node000003"><a xlink:href="class_im_fusion_1_1_algorithm.html" target="_top" xlink:title="Interface for describing algorithms that can be made available in the ImFusion Suite through Algorith...">
<polygon fill="white" stroke="#666666" points="185.5,-141 81.75,-141 81.75,-121.75 185.5,-121.75 185.5,-141"/>
<text xml:space="preserve" text-anchor="middle" x="133.62" y="-127.5" font-family="Helvetica,sans-Serif" font-size="10.00">ImFusion::Algorithm</text>
</a>
</g>
</g>
<!-- Node3&#45;&gt;Node2 -->
<g id="edge2_Node000002_Node000003" class="edge">
<title>Node3&#45;&gt;Node2</title>
<g id="a_edge2_Node000002_Node000003"><a xlink:title=" ">
<path fill="none" stroke="#63b8ff" d="M152.22,-114.04C162.21,-105.26 174.43,-94.52 184.09,-86.03"/>
<polygon fill="#63b8ff" stroke="#63b8ff" points="150.14,-111.2 144.94,-120.43 154.76,-116.46 150.14,-111.2"/>
</a>
</g>
</g>
<!-- Node4 -->
<g id="Node000004" class="node">
<title>Node4</title>
<g id="a_Node000004"><a xlink:href="class_im_fusion_1_1_configurable.html" target="_top" xlink:title="Base interface for classes that support object serialization from/to Properties objects.">
<polygon fill="white" stroke="#666666" points="117.25,-196.25 0,-196.25 0,-177 117.25,-177 117.25,-196.25"/>
<text xml:space="preserve" text-anchor="middle" x="58.62" y="-182.75" font-family="Helvetica,sans-Serif" font-size="10.00">ImFusion::Configurable</text>
</a>
</g>
</g>
<!-- Node4&#45;&gt;Node3 -->
<g id="edge3_Node000003_Node000004" class="edge">
<title>Node4&#45;&gt;Node3</title>
<g id="a_edge3_Node000003_Node000004"><a xlink:title=" ">
<path fill="none" stroke="#63b8ff" d="M80.62,-170.01C93.7,-160.72 109.83,-149.27 120.84,-141.45"/>
<polygon fill="#63b8ff" stroke="#63b8ff" points="78.71,-167.07 72.58,-175.72 82.76,-172.78 78.71,-167.07"/>
</a>
</g>
</g>
<!-- Node5 -->
<g id="Node000005" class="node">
<title>Node5</title>
<g id="a_Node000005"><a xlink:href="class_im_fusion_1_1_utils_1_1_not_copyable.html" target="_top" xlink:title="Inherit from this class if your class should be neither copy&#45;constructible nor assignable.">
<polygon fill="white" stroke="#666666" points="281.5,-196.25 135.75,-196.25 135.75,-177 281.5,-177 281.5,-196.25"/>
<text xml:space="preserve" text-anchor="middle" x="208.62" y="-182.75" font-family="Helvetica,sans-Serif" font-size="10.00">ImFusion::Utils::NotCopyable</text>
</a>
</g>
</g>
<!-- Node5&#45;&gt;Node3 -->
<g id="edge4_Node000003_Node000005" class="edge">
<title>Node5&#45;&gt;Node3</title>
<g id="a_edge4_Node000003_Node000005"><a xlink:title=" ">
<path fill="none" stroke="#8b1a1a" d="M186.63,-170.01C173.55,-160.72 157.42,-149.27 146.41,-141.45"/>
<polygon fill="#8b1a1a" stroke="#8b1a1a" points="184.49,-172.78 194.67,-175.72 188.54,-167.07 184.49,-172.78"/>
</a>
</g>
</g>
<!-- Node6 -->
<g id="Node000006" class="node">
<title>Node6</title>
<g id="a_Node000006"><a xlink:href="class_im_fusion_1_1_signal_receiver.html" target="_top" xlink:title="Base class for classes that can contain slots (i.e.">
<polygon fill="white" stroke="#666666" points="331.88,-141 203.38,-141 203.38,-121.75 331.88,-121.75 331.88,-141"/>
<text xml:space="preserve" text-anchor="middle" x="267.62" y="-127.5" font-family="Helvetica,sans-Serif" font-size="10.00">ImFusion::SignalReceiver</text>
</a>
</g>
</g>
<!-- Node6&#45;&gt;Node2 -->
<g id="edge5_Node000002_Node000006" class="edge">
<title>Node6&#45;&gt;Node2</title>
<g id="a_edge5_Node000002_Node000006"><a xlink:title=" ">
<path fill="none" stroke="#63b8ff" d="M249.03,-114.04C239.04,-105.26 226.82,-94.52 217.16,-86.03"/>
<polygon fill="#63b8ff" stroke="#63b8ff" points="246.49,-116.46 256.31,-120.43 251.11,-111.2 246.49,-116.46"/>
</a>
</g>
</g>
</g>
</svg>
