<?xml version="1.0" encoding="UTF-8" standalone="no"?>
<!DOCTYPE svg PUBLIC "-//W3C//DTD SVG 1.1//EN"
 "http://www.w3.org/Graphics/SVG/1.1/DTD/svg11.dtd">
<!-- Generated by graphviz version 14.1.4 (20260321.0153)
 -->
<!-- Title: ImFusion::GlFilter Pages: 1 -->
<!--zoomable 679 -->

<svg id="main" version="1.1" xmlns="http://www.w3.org/2000/svg" xmlns:xlink="http://www.w3.org/1999/xlink" xml:space="preserve" onload="init(evt)">

<style type="text/css"><![CDATA[
.node, .edge {opacity: 0.7;}
.node.selected, .edge.selected {opacity: 1;}
.edge:hover path { stroke: red; }
.edge:hover polygon { stroke: red; fill: red; }
]]></style>

<defs>
  <circle id="rim" cx="0" cy="0" r="7"/>
  <circle id="rim2" cx="0" cy="0" r="3.5"/>
  <g id="zoomPlus">
    <use xlink:href="#rim" fill="#404040"><set attributeName="fill" to="#808080" begin="zoomplus.mouseover" end="zoomplus.mouseout"/></use>
    <path d="M-4,0h8M0,-4v8" fill="none" stroke="white" stroke-width="1.5" pointer-events="none"/>
  </g>
  <g id="zoomMin">
    <use xlink:href="#rim" fill="#404040"><set attributeName="fill" to="#808080" begin="zoomminus.mouseover" end="zoomminus.mouseout"/></use>
    <path d="M-4,0h8" fill="none" stroke="white" stroke-width="1.5" pointer-events="none"/>
  </g>
  <g id="arrowUp" transform="translate(30 24)">
    <use xlink:href="#rim"/>
    <path pointer-events="none" fill="none" stroke="white" stroke-width="1.5" d="M0,-3.0v7 M-2.5,-0.5L0,-3.0L2.5,-0.5"/>
  </g>
  <g id="arrowRight" transform="rotate(90) translate(36 -43)">
    <use xlink:href="#rim"/>
    <path pointer-events="none" fill="none" stroke="white" stroke-width="1.5" d="M0,-3.0v7 M-2.5,-0.5L0,-3.0L2.5,-0.5"/>
  </g>
  <g id="arrowDown" transform="rotate(180) translate(-30 -48)">
    <use xlink:href="#rim"/>
    <path pointer-events="none" fill="none" stroke="white" stroke-width="1.5" d="M0,-3.0v7 M-2.5,-0.5L0,-3.0L2.5,-0.5"/>
  </g>
  <g id="arrowLeft" transform="rotate(270) translate(-36 17)">
    <use xlink:href="#rim"/>
    <path pointer-events="none" fill="none" stroke="white" stroke-width="1.5" d="M0,-3.0v7 M-2.5,-0.5L0,-3.0L2.5,-0.5"/>
  </g>
  <g id="resetDef">
    <use xlink:href="#rim2" fill="#404040"><set attributeName="fill" to="#808080" begin="reset.mouseover" end="reset.mouseout"/></use>
  </g>
</defs>
<script type="application/ecmascript">
var viewWidth = 804;
var viewHeight = 679;
var sectionId = 'dynsection-0';
</script>
<script type="application/ecmascript" xlink:href="svg.min.js"/>
<svg id="graph" class="graph">
<g id="viewport">
<title>ImFusion::GlFilter</title>
<!-- Node1 -->
<g id="Node000001" class="node">
<title>Node1</title>
<g id="a_Node000001"><a xlink:title="Base class for filters.">
<polygon fill="#999999" stroke="#666666" points="415.5,-363.25 321.5,-363.25 321.5,-344 415.5,-344 415.5,-363.25"/>
<text xml:space="preserve" text-anchor="middle" x="368.5" y="-349.75" font-family="Helvetica,sans-Serif" font-size="10.00">ImFusion::GlFilter</text>
</a>
</g>
</g>
<!-- Node5 -->
<g id="Node000005" class="node">
<title>Node5</title>
<g id="a_Node000005"><a xlink:href="class_im_fusion_1_1_gl_anisotropic_diffusion_filter.html" target="_top" xlink:title="Anisotropic diffusion filter using the explicit scheme.">
<polygon fill="white" stroke="#666666" points="615.25,-670.88 455.25,-670.88 455.25,-640.38 615.25,-640.38 615.25,-670.88"/>
<text xml:space="preserve" text-anchor="start" x="463.25" y="-657.38" font-family="Helvetica,sans-Serif" font-size="10.00">ImFusion::GlAnisotropicDiffusion</text>
<text xml:space="preserve" text-anchor="middle" x="535.25" y="-646.12" font-family="Helvetica,sans-Serif" font-size="10.00">Filter</text>
</a>
</g>
</g>
<!-- Node1&#45;&gt;Node5 -->
<g id="edge4_Node000001_Node000005" class="edge">
<title>Node1&#45;&gt;Node5</title>
<g id="a_edge4_Node000001_Node000005"><a xlink:title=" ">
<path fill="none" stroke="#63b8ff" d="M369.28,-374.96C369.94,-426.62 379.01,-559.46 451.5,-631.62 454.68,-634.79 458.25,-637.54 462.08,-639.94"/>
<polygon fill="#63b8ff" stroke="#63b8ff" points="372.78,-375.17 369.26,-365.18 365.78,-375.18 372.78,-375.17"/>
</a>
</g>
</g>
<!-- Node6 -->
<g id="Node000006" class="node">
<title>Node6</title>
<g id="a_Node000006"><a xlink:href="class_im_fusion_1_1_gl_bilateral_filter.html" target="_top" xlink:title="Bilateral Filter from Szeliski&#39;s Computer vision.">
<polygon fill="white" stroke="#666666" points="599.88,-622.25 470.62,-622.25 470.62,-603 599.88,-603 599.88,-622.25"/>
<text xml:space="preserve" text-anchor="middle" x="535.25" y="-608.75" font-family="Helvetica,sans-Serif" font-size="10.00">ImFusion::GlBilateralFilter</text>
</a>
</g>
</g>
<!-- Node1&#45;&gt;Node6 -->
<g id="edge5_Node000001_Node000006" class="edge">
<title>Node1&#45;&gt;Node6</title>
<g id="a_edge5_Node000001_Node000006"><a xlink:title=" ">
<path fill="none" stroke="#63b8ff" d="M370.1,-374.95C372.64,-422.14 385.65,-535.87 451.5,-594.62 456.99,-599.52 463.48,-603.19 470.39,-605.92"/>
<polygon fill="#63b8ff" stroke="#63b8ff" points="373.61,-375.1 369.69,-365.25 366.61,-375.39 373.61,-375.1"/>
</a>
</g>
</g>
<!-- Node7 -->
<g id="Node000007" class="node">
<title>Node7</title>
<g id="a_Node000007"><a xlink:href="class_im_fusion_1_1_gl_convolution_filter.html" target="_top" xlink:title="Convolution filter.">
<polygon fill="white" stroke="#666666" points="608.12,-585.25 462.38,-585.25 462.38,-566 608.12,-566 608.12,-585.25"/>
<text xml:space="preserve" text-anchor="middle" x="535.25" y="-571.75" font-family="Helvetica,sans-Serif" font-size="10.00">ImFusion::GlConvolutionFilter</text>
</a>
</g>
</g>
<!-- Node1&#45;&gt;Node7 -->
<g id="edge6_Node000001_Node000007" class="edge">
<title>Node1&#45;&gt;Node7</title>
<g id="a_edge6_Node000001_Node000007"><a xlink:title=" ">
<path fill="none" stroke="#63b8ff" d="M371.58,-374.77C376.85,-416.52 394.68,-509.63 451.5,-557.62 455.21,-560.76 459.33,-563.38 463.71,-565.57"/>
<polygon fill="#63b8ff" stroke="#63b8ff" points="375.08,-374.62 370.48,-365.08 368.12,-375.41 375.08,-374.62"/>
</a>
</g>
</g>
<!-- Node8 -->
<g id="Node000008" class="node">
<title>Node8</title>
<g id="a_Node000008"><a xlink:href="class_im_fusion_1_1_gl_edge_filter.html" target="_top" xlink:title="3x3 Sobel edge filter for 2D images">
<polygon fill="white" stroke="#666666" points="593.5,-548.25 477,-548.25 477,-529 593.5,-529 593.5,-548.25"/>
<text xml:space="preserve" text-anchor="middle" x="535.25" y="-534.75" font-family="Helvetica,sans-Serif" font-size="10.00">ImFusion::GlEdgeFilter</text>
</a>
</g>
</g>
<!-- Node1&#45;&gt;Node8 -->
<g id="edge7_Node000001_Node000008" class="edge">
<title>Node1&#45;&gt;Node8</title>
<g id="a_edge7_Node000001_Node000008"><a xlink:title=" ">
<path fill="none" stroke="#63b8ff" d="M373.57,-374.36C381.7,-410.1 403.5,-483.04 451.5,-520.62 458.79,-526.34 467.51,-530.32 476.5,-533.1"/>
<polygon fill="#63b8ff" stroke="#63b8ff" points="377.05,-373.93 371.55,-364.88 370.2,-375.39 377.05,-373.93"/>
</a>
</g>
</g>
<!-- Node9 -->
<g id="Node000009" class="node">
<title>Node9</title>
<g id="a_Node000009"><a xlink:href="class_im_fusion_1_1_gl_edge_filter3_d.html" target="_top" xlink:title="3x3x3 Sobel edge filter for 3D images">
<polygon fill="white" stroke="#666666" points="599.88,-511.25 470.62,-511.25 470.62,-492 599.88,-492 599.88,-511.25"/>
<text xml:space="preserve" text-anchor="middle" x="535.25" y="-497.75" font-family="Helvetica,sans-Serif" font-size="10.00">ImFusion::GlEdgeFilter3D</text>
</a>
</g>
</g>
<!-- Node1&#45;&gt;Node9 -->
<g id="edge8_Node000001_Node000009" class="edge">
<title>Node1&#45;&gt;Node9</title>
<g id="a_edge8_Node000001_Node000009"><a xlink:title=" ">
<path fill="none" stroke="#63b8ff" d="M376.62,-374.25C387.8,-403.41 412.32,-456.17 451.5,-483.62 457.16,-487.59 463.53,-490.71 470.16,-493.15"/>
<polygon fill="#63b8ff" stroke="#63b8ff" points="379.99,-373.29 373.28,-365.09 373.42,-375.69 379.99,-373.29"/>
</a>
</g>
</g>
<!-- Node10 -->
<g id="Node000010" class="node">
<title>Node10</title>
<g id="a_Node000010"><a xlink:href="class_im_fusion_1_1_gl_extract_slice.html" target="_top" xlink:title="Extract slice from 3D volume.">
<polygon fill="white" stroke="#666666" points="598,-474.25 472.5,-474.25 472.5,-455 598,-455 598,-474.25"/>
<text xml:space="preserve" text-anchor="middle" x="535.25" y="-460.75" font-family="Helvetica,sans-Serif" font-size="10.00">ImFusion::GlExtractSlice</text>
</a>
</g>
</g>
<!-- Node1&#45;&gt;Node10 -->
<g id="edge9_Node000001_Node000010" class="edge">
<title>Node1&#45;&gt;Node10</title>
<g id="a_edge9_Node000001_Node000010"><a xlink:title=" ">
<path fill="none" stroke="#63b8ff" d="M381.36,-373.33C395.37,-394.81 420.7,-428.53 451.5,-446.62 457.84,-450.35 464.86,-453.3 472.05,-455.65"/>
<polygon fill="#63b8ff" stroke="#63b8ff" points="384.35,-371.51 376.07,-364.91 378.43,-375.24 384.35,-371.51"/>
</a>
</g>
</g>
<!-- Node11 -->
<g id="Node000011" class="node">
<title>Node11</title>
<g id="a_Node000011"><a xlink:href="class_im_fusion_1_1_gl_filter_chain.html" target="_top" xlink:title="Chain of two GlFilters.">
<polygon fill="white" stroke="#666666" points="595,-437.25 475.5,-437.25 475.5,-418 595,-418 595,-437.25"/>
<text xml:space="preserve" text-anchor="middle" x="535.25" y="-423.75" font-family="Helvetica,sans-Serif" font-size="10.00">ImFusion::GlFilterChain</text>
</a>
</g>
</g>
<!-- Node1&#45;&gt;Node11 -->
<g id="edge10_Node000001_Node000011" class="edge">
<title>Node1&#45;&gt;Node11</title>
<g id="a_edge10_Node000001_Node000011"><a xlink:title=" ">
<path fill="none" stroke="#63b8ff" d="M390,-370.96C405.84,-383.48 428.82,-399.86 451.5,-409.62 458.93,-412.82 466.98,-415.48 475.05,-417.68"/>
<polygon fill="#63b8ff" stroke="#63b8ff" points="392.27,-368.29 382.31,-364.7 387.86,-373.72 392.27,-368.29"/>
</a>
</g>
</g>
<!-- Node12 -->
<g id="Node000012" class="node">
<title>Node12</title>
<g id="a_Node000012"><a xlink:href="class_im_fusion_1_1_gl_gradient.html" target="_top" xlink:title="Computes the gradient of an image in pixel coordinates.">
<polygon fill="white" stroke="#666666" points="589.75,-400.25 480.75,-400.25 480.75,-381 589.75,-381 589.75,-400.25"/>
<text xml:space="preserve" text-anchor="middle" x="535.25" y="-386.75" font-family="Helvetica,sans-Serif" font-size="10.00">ImFusion::GlGradient</text>
</a>
</g>
</g>
<!-- Node1&#45;&gt;Node12 -->
<g id="edge11_Node000001_Node000012" class="edge">
<title>Node1&#45;&gt;Node12</title>
<g id="a_edge11_Node000001_Node000012"><a xlink:title=" ">
<path fill="none" stroke="#63b8ff" d="M423.61,-366.27C432.91,-368.41 442.48,-370.6 451.5,-372.62 463.12,-375.23 475.67,-378 487.4,-380.55"/>
<polygon fill="#63b8ff" stroke="#63b8ff" points="424.46,-362.88 413.93,-364.03 422.89,-369.7 424.46,-362.88"/>
</a>
</g>
</g>
<!-- Node13 -->
<g id="Node000013" class="node">
<title>Node13</title>
<g id="a_Node000013"><a xlink:href="class_im_fusion_1_1_gl_guided_filter.html" target="_top" xlink:title="Guided Filter from the paper by He et al.">
<polygon fill="white" stroke="#666666" points="597.62,-363.25 472.88,-363.25 472.88,-344 597.62,-344 597.62,-363.25"/>
<text xml:space="preserve" text-anchor="middle" x="535.25" y="-349.75" font-family="Helvetica,sans-Serif" font-size="10.00">ImFusion::GlGuidedFilter</text>
</a>
</g>
</g>
<!-- Node1&#45;&gt;Node13 -->
<g id="edge12_Node000001_Node000013" class="edge">
<title>Node1&#45;&gt;Node13</title>
<g id="a_edge12_Node000001_Node000013"><a xlink:title=" ">
<path fill="none" stroke="#63b8ff" d="M427.3,-353.62C441.95,-353.62 457.75,-353.62 472.59,-353.62"/>
<polygon fill="#63b8ff" stroke="#63b8ff" points="427.34,-350.13 417.34,-353.63 427.34,-357.13 427.34,-350.13"/>
</a>
</g>
</g>
<!-- Node14 -->
<g id="Node000014" class="node">
<title>Node14</title>
<g id="a_Node000014"><a xlink:href="class_im_fusion_1_1_gl_intensity_normalized_smoothed_gradient.html" target="_top" xlink:title="Gradient relative to image intensity smoothed with a constant kernel.">
<polygon fill="white" stroke="#666666" points="614.88,-325.88 455.62,-325.88 455.62,-295.38 614.88,-295.38 614.88,-325.88"/>
<text xml:space="preserve" text-anchor="start" x="463.62" y="-312.38" font-family="Helvetica,sans-Serif" font-size="10.00">ImFusion::GlIntensityNormalized</text>
<text xml:space="preserve" text-anchor="middle" x="535.25" y="-301.12" font-family="Helvetica,sans-Serif" font-size="10.00">SmoothedGradient</text>
</a>
</g>
</g>
<!-- Node1&#45;&gt;Node14 -->
<g id="edge13_Node000001_Node000014" class="edge">
<title>Node1&#45;&gt;Node14</title>
<g id="a_edge13_Node000001_Node000014"><a xlink:title=" ">
<path fill="none" stroke="#63b8ff" d="M419.1,-340.68C436.36,-336.17 455.91,-331.07 473.94,-326.37"/>
<polygon fill="#63b8ff" stroke="#63b8ff" points="418.38,-337.25 409.59,-343.16 420.15,-344.02 418.38,-337.25"/>
</a>
</g>
</g>
<!-- Node15 -->
<g id="Node000015" class="node">
<title>Node15</title>
<g id="a_Node000015"><a xlink:href="class_im_fusion_1_1_gl_local_extremal_filter.html" target="_top" xlink:title="Local extremal Filter.">
<polygon fill="white" stroke="#666666" points="602.5,-276.88 468,-276.88 468,-246.38 602.5,-246.38 602.5,-276.88"/>
<text xml:space="preserve" text-anchor="start" x="476" y="-263.38" font-family="Helvetica,sans-Serif" font-size="10.00">ImFusion::GlLocalExtremal</text>
<text xml:space="preserve" text-anchor="middle" x="535.25" y="-252.12" font-family="Helvetica,sans-Serif" font-size="10.00">Filter</text>
</a>
</g>
</g>
<!-- Node1&#45;&gt;Node15 -->
<g id="edge14_Node000001_Node000015" class="edge">
<title>Node1&#45;&gt;Node15</title>
<g id="a_edge14_Node000001_Node000015"><a xlink:title=" ">
<path fill="none" stroke="#63b8ff" d="M387.37,-335.48C403.04,-320.49 427.08,-299.62 451.5,-286.62 458.12,-283.1 465.32,-280 472.6,-277.29"/>
<polygon fill="#63b8ff" stroke="#63b8ff" points="384.93,-332.97 380.25,-342.47 389.84,-337.96 384.93,-332.97"/>
</a>
</g>
</g>
<!-- Node16 -->
<g id="Node000016" class="node">
<title>Node16</title>
<g id="a_Node000016"><a xlink:href="class_im_fusion_1_1_gl_median_filter.html" target="_top" xlink:title="Median Filter.">
<polygon fill="white" stroke="#666666" points="598,-228.25 472.5,-228.25 472.5,-209 598,-209 598,-228.25"/>
<text xml:space="preserve" text-anchor="middle" x="535.25" y="-214.75" font-family="Helvetica,sans-Serif" font-size="10.00">ImFusion::GlMedianFilter</text>
</a>
</g>
</g>
<!-- Node1&#45;&gt;Node16 -->
<g id="edge15_Node000001_Node000016" class="edge">
<title>Node1&#45;&gt;Node16</title>
<g id="a_edge15_Node000001_Node000016"><a xlink:title=" ">
<path fill="none" stroke="#63b8ff" d="M378.15,-333.39C390.47,-307.09 415.63,-261.67 451.5,-237.62 457.74,-233.44 464.78,-230.17 472.06,-227.61"/>
<polygon fill="#63b8ff" stroke="#63b8ff" points="375.05,-331.75 374.15,-342.3 381.44,-334.61 375.05,-331.75"/>
</a>
</g>
</g>
<!-- Node17 -->
<g id="Node000017" class="node">
<title>Node17</title>
<g id="a_Node000017"><a xlink:href="class_im_fusion_1_1_gl_noise_filter.html" target="_top" xlink:title="Filter which adds noise.">
<polygon fill="white" stroke="#666666" points="595,-191.25 475.5,-191.25 475.5,-172 595,-172 595,-191.25"/>
<text xml:space="preserve" text-anchor="middle" x="535.25" y="-177.75" font-family="Helvetica,sans-Serif" font-size="10.00">ImFusion::GlNoiseFilter</text>
</a>
</g>
</g>
<!-- Node1&#45;&gt;Node17 -->
<g id="edge16_Node000001_Node000017" class="edge">
<title>Node1&#45;&gt;Node17</title>
<g id="a_edge16_Node000001_Node000017"><a xlink:title=" ">
<path fill="none" stroke="#63b8ff" d="M374.44,-333.08C383.61,-299.61 406.54,-233.65 451.5,-199.62 458.53,-194.3 466.82,-190.48 475.38,-187.76"/>
<polygon fill="#63b8ff" stroke="#63b8ff" points="371.16,-331.8 372.05,-342.36 377.94,-333.55 371.16,-331.8"/>
</a>
</g>
</g>
<!-- Node18 -->
<g id="Node000018" class="node">
<title>Node18</title>
<g id="a_Node000018"><a xlink:href="class_im_fusion_1_1_gl_overshoot_control_filter.html" target="_top" xlink:title="Overshoot control for sharpening algorithms, as used in ADSOC.">
<polygon fill="white" stroke="#666666" points="609.62,-153.88 460.88,-153.88 460.88,-123.38 609.62,-123.38 609.62,-153.88"/>
<text xml:space="preserve" text-anchor="start" x="468.88" y="-140.38" font-family="Helvetica,sans-Serif" font-size="10.00">ImFusion::GlOvershootControl</text>
<text xml:space="preserve" text-anchor="middle" x="535.25" y="-129.12" font-family="Helvetica,sans-Serif" font-size="10.00">Filter</text>
</a>
</g>
</g>
<!-- Node1&#45;&gt;Node18 -->
<g id="edge17_Node000001_Node000018" class="edge">
<title>Node1&#45;&gt;Node18</title>
<g id="a_edge17_Node000001_Node000018"><a xlink:title=" ">
<path fill="none" stroke="#63b8ff" d="M372.6,-332.25C379.46,-292.81 399.64,-208.46 451.5,-162.62 455.09,-159.46 459.07,-156.7 463.29,-154.31"/>
<polygon fill="#63b8ff" stroke="#63b8ff" points="369.15,-331.66 371.03,-342.08 376.06,-332.76 369.15,-331.66"/>
</a>
</g>
</g>
<!-- Node19 -->
<g id="Node000019" class="node">
<title>Node19</title>
<g id="a_Node000019"><a xlink:href="class_im_fusion_1_1_gl_polar_to_cartesian.html" target="_top" xlink:title="Converts data from polar coordinate to Cartesian space, with constant degree between polar lines.">
<polygon fill="white" stroke="#666666" points="608.88,-105.25 461.62,-105.25 461.62,-86 608.88,-86 608.88,-105.25"/>
<text xml:space="preserve" text-anchor="middle" x="535.25" y="-91.75" font-family="Helvetica,sans-Serif" font-size="10.00">ImFusion::GlPolarToCartesian</text>
</a>
</g>
</g>
<!-- Node1&#45;&gt;Node19 -->
<g id="edge18_Node000001_Node000019" class="edge">
<title>Node1&#45;&gt;Node19</title>
<g id="a_edge18_Node000001_Node000019"><a xlink:title=" ">
<path fill="none" stroke="#63b8ff" d="M370.23,-332.23C373.02,-285.35 386.54,-173.11 451.5,-114.62 455.44,-111.07 459.91,-108.15 464.69,-105.74"/>
<polygon fill="#63b8ff" stroke="#63b8ff" points="366.73,-331.95 369.76,-342.11 373.73,-332.28 366.73,-331.95"/>
</a>
</g>
</g>
<!-- Node20 -->
<g id="Node000020" class="node">
<title>Node20</title>
<g id="a_Node000020"><a xlink:href="class_im_fusion_1_1_gl_separable_convolution_filter.html" target="_top" xlink:title="Separable Convolution filter.">
<polygon fill="white" stroke="#666666" points="619,-67.88 451.5,-67.88 451.5,-37.38 619,-37.38 619,-67.88"/>
<text xml:space="preserve" text-anchor="start" x="459.5" y="-54.38" font-family="Helvetica,sans-Serif" font-size="10.00">ImFusion::GlSeparableConvolution</text>
<text xml:space="preserve" text-anchor="middle" x="535.25" y="-43.12" font-family="Helvetica,sans-Serif" font-size="10.00">Filter</text>
</a>
</g>
</g>
<!-- Node1&#45;&gt;Node20 -->
<g id="edge19_Node000001_Node000020" class="edge">
<title>Node1&#45;&gt;Node20</title>
<g id="a_edge19_Node000001_Node000020"><a xlink:title=" ">
<path fill="none" stroke="#63b8ff" d="M369.3,-332.36C370.02,-280.88 379.21,-148.51 451.5,-76.62 454.68,-73.46 458.25,-70.71 462.08,-68.31"/>
<polygon fill="#63b8ff" stroke="#63b8ff" points="365.8,-332.1 369.27,-342.11 372.8,-332.12 365.8,-332.1"/>
</a>
</g>
</g>
<!-- Node23 -->
<g id="Node000023" class="node">
<title>Node23</title>
<g id="a_Node000023"><a xlink:href="class_im_fusion_1_1_gl_x_clahe_filter.html" target="_top" xlink:title="XClahe filter.">
<polygon fill="white" stroke="#666666" points="598.38,-19.25 472.12,-19.25 472.12,0 598.38,0 598.38,-19.25"/>
<text xml:space="preserve" text-anchor="middle" x="535.25" y="-5.75" font-family="Helvetica,sans-Serif" font-size="10.00">ImFusion::GlXClaheFilter</text>
</a>
</g>
</g>
<!-- Node1&#45;&gt;Node23 -->
<g id="edge22_Node000001_Node000023" class="edge">
<title>Node1&#45;&gt;Node23</title>
<g id="a_edge22_Node000001_Node000023"><a xlink:title=" ">
<path fill="none" stroke="#63b8ff" d="M371.99,-332.26C380.02,-266.97 407.35,-71.84 451.5,-28.62 457.29,-22.95 464.42,-18.84 472.03,-15.88"/>
<polygon fill="#63b8ff" stroke="#63b8ff" points="368.54,-331.66 370.82,-342.01 375.49,-332.49 368.54,-331.66"/>
</a>
</g>
</g>
<!-- Node2 -->
<g id="Node000002" class="node">
<title>Node2</title>
<g id="a_Node000002"><a xlink:href="class_im_fusion_1_1_algorithm.html" target="_top" xlink:title="Interface for describing algorithms that can be made available in the ImFusion Suite through Algorith...">
<polygon fill="white" stroke="#666666" points="285.5,-363.25 181.75,-363.25 181.75,-344 285.5,-344 285.5,-363.25"/>
<text xml:space="preserve" text-anchor="middle" x="233.62" y="-349.75" font-family="Helvetica,sans-Serif" font-size="10.00">ImFusion::Algorithm</text>
</a>
</g>
</g>
<!-- Node2&#45;&gt;Node1 -->
<g id="edge1_Node000001_Node000002" class="edge">
<title>Node2&#45;&gt;Node1</title>
<g id="a_edge1_Node000001_Node000002"><a xlink:title=" ">
<path fill="none" stroke="#63b8ff" d="M297.51,-353.62C305.44,-353.62 313.43,-353.62 321.04,-353.62"/>
<polygon fill="#63b8ff" stroke="#63b8ff" points="297.51,-350.13 287.51,-353.63 297.51,-357.13 297.51,-350.13"/>
</a>
</g>
</g>
<!-- Node3 -->
<g id="Node000003" class="node">
<title>Node3</title>
<g id="a_Node000003"><a xlink:href="class_im_fusion_1_1_configurable.html" target="_top" xlink:title="Base interface for classes that support object serialization from/to Properties objects.">
<polygon fill="white" stroke="#666666" points="131.5,-382.25 14.25,-382.25 14.25,-363 131.5,-363 131.5,-382.25"/>
<text xml:space="preserve" text-anchor="middle" x="72.88" y="-368.75" font-family="Helvetica,sans-Serif" font-size="10.00">ImFusion::Configurable</text>
</a>
</g>
</g>
<!-- Node3&#45;&gt;Node2 -->
<g id="edge2_Node000002_Node000003" class="edge">
<title>Node3&#45;&gt;Node2</title>
<g id="a_edge2_Node000002_Node000003"><a xlink:title=" ">
<path fill="none" stroke="#63b8ff" d="M142.89,-364.36C155.85,-362.81 169.18,-361.22 181.47,-359.75"/>
<polygon fill="#63b8ff" stroke="#63b8ff" points="142.65,-360.87 133.14,-365.53 143.48,-367.82 142.65,-360.87"/>
</a>
</g>
</g>
<!-- Node4 -->
<g id="Node000004" class="node">
<title>Node4</title>
<g id="a_Node000004"><a xlink:href="class_im_fusion_1_1_utils_1_1_not_copyable.html" target="_top" xlink:title="Inherit from this class if your class should be neither copy&#45;constructible nor assignable.">
<polygon fill="white" stroke="#666666" points="145.75,-345.25 0,-345.25 0,-326 145.75,-326 145.75,-345.25"/>
<text xml:space="preserve" text-anchor="middle" x="72.88" y="-331.75" font-family="Helvetica,sans-Serif" font-size="10.00">ImFusion::Utils::NotCopyable</text>
</a>
</g>
</g>
<!-- Node4&#45;&gt;Node2 -->
<g id="edge3_Node000002_Node000004" class="edge">
<title>Node4&#45;&gt;Node2</title>
<g id="a_edge3_Node000002_Node000004"><a xlink:title=" ">
<path fill="none" stroke="#8b1a1a" d="M157.08,-345.06C165.34,-346 173.54,-346.93 181.33,-347.81"/>
<polygon fill="#8b1a1a" stroke="#8b1a1a" points="157.65,-341.6 147.32,-343.95 156.86,-348.56 157.65,-341.6"/>
</a>
</g>
</g>
<!-- Node21 -->
<g id="Node000021" class="node">
<title>Node21</title>
<g id="a_Node000021"><a xlink:href="class_im_fusion_1_1_gl_sharpen_filter.html" target="_top" xlink:title="Unsharp Mask filter.">
<polygon fill="white" stroke="#666666" points="790.25,-80.25 660.25,-80.25 660.25,-61 790.25,-61 790.25,-80.25"/>
<text xml:space="preserve" text-anchor="middle" x="725.25" y="-66.75" font-family="Helvetica,sans-Serif" font-size="10.00">ImFusion::GlSharpenFilter</text>
</a>
</g>
</g>
<!-- Node20&#45;&gt;Node21 -->
<g id="edge20_Node000020_Node000021" class="edge">
<title>Node20&#45;&gt;Node21</title>
<g id="a_edge20_Node000020_Node000021"><a xlink:title=" ">
<path fill="none" stroke="#63b8ff" d="M630.44,-61.64C640.36,-62.59 650.28,-63.54 659.76,-64.45"/>
<polygon fill="#63b8ff" stroke="#63b8ff" points="631.05,-58.19 620.76,-60.72 630.38,-65.15 631.05,-58.19"/>
</a>
</g>
</g>
<!-- Node22 -->
<g id="Node000022" class="node">
<title>Node22</title>
<g id="a_Node000022"><a xlink:href="class_im_fusion_1_1_gl_smoothing_filter.html" target="_top" xlink:title="Gaussian smoothing filter.">
<polygon fill="white" stroke="#666666" points="795.5,-43.25 655,-43.25 655,-24 795.5,-24 795.5,-43.25"/>
<text xml:space="preserve" text-anchor="middle" x="725.25" y="-29.75" font-family="Helvetica,sans-Serif" font-size="10.00">ImFusion::GlSmoothingFilter</text>
</a>
</g>
</g>
<!-- Node20&#45;&gt;Node22 -->
<g id="edge21_Node000020_Node000022" class="edge">
<title>Node20&#45;&gt;Node22</title>
<g id="a_edge21_Node000020_Node000022"><a xlink:title=" ">
<path fill="none" stroke="#63b8ff" d="M630.65,-43.08C638.72,-42.27 646.79,-41.45 654.61,-40.66"/>
<polygon fill="#63b8ff" stroke="#63b8ff" points="630.36,-39.6 620.76,-44.08 631.06,-46.56 630.36,-39.6"/>
</a>
</g>
</g>
</g>
</svg>

<g id="navigator" transform="translate(0 0)" fill="#404254">
  <rect fill="#f2f5e9" fill-opacity="0.5" stroke="#606060" stroke-width=".5" x="0" y="0" width="60" height="60"/>
  <use id="zoomplus" xlink:href="#zoomPlus" x="17" y="9" onmousedown="handleZoom(evt,'in')"/>
  <use id="zoomminus" xlink:href="#zoomMin" x="42" y="9" onmousedown="handleZoom(evt,'out')"/>
  <use id="reset" xlink:href="#resetDef" x="30" y="36" onmousedown="handleReset()"/>
   <use id="arrowup" xlink:href="#arrowUp" x="0" y="0" onmousedown="handlePan(0,-1)"/>
  <use id="arrowright" xlink:href="#arrowRight" x="0" y="0" onmousedown="handlePan(1,0)"/>
  <use id="arrowdown" xlink:href="#arrowDown" x="0" y="0" onmousedown="handlePan(0,1)"/>
  <use id="arrowleft" xlink:href="#arrowLeft" x="0" y="0" onmousedown="handlePan(-1,0)"/>
</g>
<svg viewBox="0 0 15 15" width="100%" height="30px" preserveAspectRatio="xMaxYMin meet">
 <g id="arrow_out" transform="scale(0.3 0.3)">
  <a xlink:href="class_im_fusion_1_1_gl_filter__inherit__graph_org.svg" target="_base">
   <rect id="button" ry="5" rx="5" y="6" x="6" height="38" width="38"
        fill="#f2f5e9" fill-opacity="0.5" stroke="#606060" stroke-width="1.0"/>
   <path id="arrow"
     d="M 11.500037,31.436501 C 11.940474,20.09759 22.043105,11.32322 32.158766,21.979434 L 37.068811,17.246167 C 37.068811,17.246167 37.088388,32 37.088388,32 L 22.160133,31.978069 C 22.160133,31.978069 26.997745,27.140456 26.997745,27.140456 C 18.528582,18.264221 13.291696,25.230495 11.500037,31.436501 z"
     style="fill:#404040;"/>
  </a>
 </g>
</svg>

<style type='text/css'>
<![CDATA[
[data-mouse-over-selected='false'] { opacity: 0.7; }
[data-mouse-over-selected='true']  { opacity: 1.0; }
]]>
</style>
<script type="application/ecmascript"><![CDATA[
document.addEventListener('DOMContentLoaded', (event) => {
  highlightEdges();
  highlightAdjacentNodes();
});
]]></script>
</svg>
