<?xml version="1.0" encoding="UTF-8" standalone="no"?>
<!DOCTYPE svg PUBLIC "-//W3C//DTD SVG 1.1//EN"
 "http://www.w3.org/Graphics/SVG/1.1/DTD/svg11.dtd">
<!-- Generated by graphviz version 14.1.4 (20260321.0153)
 -->
<!-- Title: ImFusion::SimilarityMeasureLNCC_CPU Pages: 1 -->
<svg width="176pt" height="204pt"
 viewBox="0.00 0.00 176.00 204.00" xmlns="http://www.w3.org/2000/svg" xmlns:xlink="http://www.w3.org/1999/xlink">
<g id="graph0" class="graph" transform="scale(1 1) rotate(0) translate(4 200.25)">
<title>ImFusion::SimilarityMeasureLNCC_CPU</title>
<!-- Node1 -->
<g id="Node000001" class="node">
<title>Node1</title>
<g id="a_Node000001"><a xlink:title=" ">
<polygon fill="#999999" stroke="#666666" points="154.38,-30.5 13.88,-30.5 13.88,0 154.38,0 154.38,-30.5"/>
<text xml:space="preserve" text-anchor="start" x="21.88" y="-17" font-family="Helvetica,sans-Serif" font-size="10.00">ImFusion::SimilarityMeasure</text>
<text xml:space="preserve" text-anchor="middle" x="84.12" y="-5.75" font-family="Helvetica,sans-Serif" font-size="10.00">LNCC_CPU</text>
</a>
</g>
</g>
<!-- Node2 -->
<g id="Node000002" class="node">
<title>Node2</title>
<g id="a_Node000002"><a xlink:href="class_im_fusion_1_1_similarity_measure_l_n_c_c.html" target="_top" xlink:title=" ">
<polygon fill="white" stroke="#bfbfbf" points="168.25,-85.75 0,-85.75 0,-66.5 168.25,-66.5 168.25,-85.75"/>
<text xml:space="preserve" text-anchor="middle" x="84.12" y="-72.25" font-family="Helvetica,sans-Serif" font-size="10.00">ImFusion::SimilarityMeasureLNCC</text>
</a>
</g>
</g>
<!-- Node2&#45;&gt;Node1 -->
<g id="edge1_Node000001_Node000002" class="edge">
<title>Node2&#45;&gt;Node1</title>
<g id="a_edge1_Node000001_Node000002"><a xlink:title=" ">
<path fill="none" stroke="#63b8ff" d="M84.12,-54.92C84.12,-46.99 84.12,-38.06 84.12,-30.78"/>
<polygon fill="#63b8ff" stroke="#63b8ff" points="80.63,-54.67 84.13,-64.67 87.63,-54.67 80.63,-54.67"/>
</a>
</g>
</g>
<!-- Node3 -->
<g id="Node000003" class="node">
<title>Node3</title>
<g id="a_Node000003"><a xlink:href="class_im_fusion_1_1_similarity_measure_impl.html" target="_top" xlink:title="Base class of a similarity measure between two images.">
<polygon fill="white" stroke="#666666" points="163.75,-141 4.5,-141 4.5,-121.75 163.75,-121.75 163.75,-141"/>
<text xml:space="preserve" text-anchor="middle" x="84.12" y="-127.5" font-family="Helvetica,sans-Serif" font-size="10.00">ImFusion::SimilarityMeasureImpl</text>
</a>
</g>
</g>
<!-- Node3&#45;&gt;Node2 -->
<g id="edge2_Node000002_Node000003" class="edge">
<title>Node3&#45;&gt;Node2</title>
<g id="a_edge2_Node000002_Node000003"><a xlink:title=" ">
<path fill="none" stroke="#63b8ff" d="M84.12,-110.13C84.12,-101.84 84.12,-92.67 84.12,-86.11"/>
<polygon fill="#63b8ff" stroke="#63b8ff" points="80.63,-110.07 84.13,-120.07 87.63,-110.07 80.63,-110.07"/>
</a>
</g>
</g>
<!-- Node4 -->
<g id="Node000004" class="node">
<title>Node4</title>
<g id="a_Node000004"><a xlink:href="class_im_fusion_1_1_configurable.html" target="_top" xlink:title="Base interface for classes that support object serialization from/to Properties objects.">
<polygon fill="white" stroke="#666666" points="142.75,-196.25 25.5,-196.25 25.5,-177 142.75,-177 142.75,-196.25"/>
<text xml:space="preserve" text-anchor="middle" x="84.12" y="-182.75" font-family="Helvetica,sans-Serif" font-size="10.00">ImFusion::Configurable</text>
</a>
</g>
</g>
<!-- Node4&#45;&gt;Node3 -->
<g id="edge3_Node000003_Node000004" class="edge">
<title>Node4&#45;&gt;Node3</title>
<g id="a_edge3_Node000003_Node000004"><a xlink:title=" ">
<path fill="none" stroke="#63b8ff" d="M84.12,-165.38C84.12,-157.09 84.12,-147.92 84.12,-141.36"/>
<polygon fill="#63b8ff" stroke="#63b8ff" points="80.63,-165.32 84.13,-175.32 87.63,-165.32 80.63,-165.32"/>
</a>
</g>
</g>
</g>
</svg>
