<?xml version="1.0" encoding="UTF-8" standalone="no"?>
<!DOCTYPE svg PUBLIC "-//W3C//DTD SVG 1.1//EN"
 "http://www.w3.org/Graphics/SVG/1.1/DTD/svg11.dtd">
<!-- Generated by graphviz version 14.1.4 (20260321.0153)
 -->
<!-- Title: ImFusion::Geometry::LineBase Pages: 1 -->
<svg width="236pt" height="105pt"
 viewBox="0.00 0.00 236.00 105.00" xmlns="http://www.w3.org/2000/svg" xmlns:xlink="http://www.w3.org/1999/xlink">
<g id="graph0" class="graph" transform="scale(1 1) rotate(0) translate(4 101)">
<title>ImFusion::Geometry::LineBase</title>
<!-- Node1 -->
<g id="Node000001" class="node">
<title>Node1</title>
<g id="a_Node000001"><a xlink:title="Common interface of Line and LineSegment.">
<polygon fill="#999999" stroke="#666666" points="166.25,-97 61,-97 61,-66.5 166.25,-66.5 166.25,-97"/>
<text xml:space="preserve" text-anchor="start" x="69" y="-83.5" font-family="Helvetica,sans-Serif" font-size="10.00">ImFusion::Geometry</text>
<text xml:space="preserve" text-anchor="middle" x="113.62" y="-72.25" font-family="Helvetica,sans-Serif" font-size="10.00">::LineBase</text>
</a>
</g>
</g>
<!-- Node2 -->
<g id="Node000002" class="node">
<title>Node2</title>
<g id="a_Node000002"><a xlink:href="class_im_fusion_1_1_geometry_1_1_line.html" target="_top" xlink:title="Class representing a full line, i.e.">
<polygon fill="white" stroke="#666666" points="105.25,-30.5 0,-30.5 0,0 105.25,0 105.25,-30.5"/>
<text xml:space="preserve" text-anchor="start" x="8" y="-17" font-family="Helvetica,sans-Serif" font-size="10.00">ImFusion::Geometry</text>
<text xml:space="preserve" text-anchor="middle" x="52.62" y="-5.75" font-family="Helvetica,sans-Serif" font-size="10.00">::Line</text>
</a>
</g>
</g>
<!-- Node1&#45;&gt;Node2 -->
<g id="edge1_Node000001_Node000002" class="edge">
<title>Node1&#45;&gt;Node2</title>
<g id="a_edge1_Node000001_Node000002"><a xlink:title=" ">
<path fill="none" stroke="#63b8ff" d="M92.02,-57.91C83.5,-48.9 73.97,-38.82 66.41,-30.83"/>
<polygon fill="#63b8ff" stroke="#63b8ff" points="89.33,-60.15 98.74,-65.01 94.41,-55.34 89.33,-60.15"/>
</a>
</g>
</g>
<!-- Node3 -->
<g id="Node000003" class="node">
<title>Node3</title>
<g id="a_Node000003"><a xlink:href="class_im_fusion_1_1_geometry_1_1_line_segment.html" target="_top" xlink:title="Class representing a line segment, i.e.">
<polygon fill="white" stroke="#666666" points="228.25,-30.5 123,-30.5 123,0 228.25,0 228.25,-30.5"/>
<text xml:space="preserve" text-anchor="start" x="131" y="-17" font-family="Helvetica,sans-Serif" font-size="10.00">ImFusion::Geometry</text>
<text xml:space="preserve" text-anchor="middle" x="175.62" y="-5.75" font-family="Helvetica,sans-Serif" font-size="10.00">::LineSegment</text>
</a>
</g>
</g>
<!-- Node1&#45;&gt;Node3 -->
<g id="edge2_Node000001_Node000003" class="edge">
<title>Node1&#45;&gt;Node3</title>
<g id="a_edge2_Node000001_Node000003"><a xlink:title=" ">
<path fill="none" stroke="#63b8ff" d="M135.58,-57.91C144.24,-48.9 153.93,-38.82 161.61,-30.83"/>
<polygon fill="#63b8ff" stroke="#63b8ff" points="133.15,-55.39 128.74,-65.02 138.2,-60.24 133.15,-55.39"/>
</a>
</g>
</g>
</g>
</svg>
