<?xml version="1.0" encoding="UTF-8" standalone="no"?>
<!DOCTYPE svg PUBLIC "-//W3C//DTD SVG 1.1//EN"
 "http://www.w3.org/Graphics/SVG/1.1/DTD/svg11.dtd">
<!-- Generated by graphviz version 14.1.4 (20260321.0153)
 -->
<!-- Title: ImFusion::SimilarityMeasureMI Pages: 1 -->
<svg width="308pt" height="204pt"
 viewBox="0.00 0.00 308.00 204.00" xmlns="http://www.w3.org/2000/svg" xmlns:xlink="http://www.w3.org/1999/xlink">
<g id="graph0" class="graph" transform="scale(1 1) rotate(0) translate(4 200.25)">
<title>ImFusion::SimilarityMeasureMI</title>
<!-- Node1 -->
<g id="Node000001" class="node">
<title>Node1</title>
<g id="a_Node000001"><a xlink:title="Computes the Mutual Information of two images.">
<polygon fill="#999999" stroke="#666666" points="225.12,-85.75 73.38,-85.75 73.38,-66.5 225.12,-66.5 225.12,-85.75"/>
<text xml:space="preserve" text-anchor="middle" x="149.25" y="-72.25" font-family="Helvetica,sans-Serif" font-size="10.00">ImFusion::SimilarityMeasureMI</text>
</a>
</g>
</g>
<!-- Node4 -->
<g id="Node000004" class="node">
<title>Node4</title>
<g id="a_Node000004"><a xlink:href="class_im_fusion_1_1_similarity_measure_m_i___c_p_u.html" target="_top" xlink:title="CPU implementation of Mutual Information.">
<polygon fill="white" stroke="#666666" points="140.5,-30.5 0,-30.5 0,0 140.5,0 140.5,-30.5"/>
<text xml:space="preserve" text-anchor="start" x="8" y="-17" font-family="Helvetica,sans-Serif" font-size="10.00">ImFusion::SimilarityMeasure</text>
<text xml:space="preserve" text-anchor="middle" x="70.25" y="-5.75" font-family="Helvetica,sans-Serif" font-size="10.00">MI_CPU</text>
</a>
</g>
</g>
<!-- Node1&#45;&gt;Node4 -->
<g id="edge3_Node000001_Node000004" class="edge">
<title>Node1&#45;&gt;Node4</title>
<g id="a_edge3_Node000001_Node000004"><a xlink:title=" ">
<path fill="none" stroke="#63b8ff" d="M128.05,-59.32C116.13,-50.45 101.37,-39.44 89.75,-30.78"/>
<polygon fill="#63b8ff" stroke="#63b8ff" points="125.93,-62.11 136.04,-65.28 130.11,-56.5 125.93,-62.11"/>
</a>
</g>
</g>
<!-- Node5 -->
<g id="Node000005" class="node">
<title>Node5</title>
<g id="a_Node000005"><a xlink:href="class_im_fusion_1_1_similarity_measure_m_i___g_l.html" target="_top" xlink:title="GPU implementation of Mutual Information using modern OpenGL.">
<polygon fill="white" stroke="#666666" points="299.5,-30.5 159,-30.5 159,0 299.5,0 299.5,-30.5"/>
<text xml:space="preserve" text-anchor="start" x="167" y="-17" font-family="Helvetica,sans-Serif" font-size="10.00">ImFusion::SimilarityMeasure</text>
<text xml:space="preserve" text-anchor="middle" x="229.25" y="-5.75" font-family="Helvetica,sans-Serif" font-size="10.00">MI_GL</text>
</a>
</g>
</g>
<!-- Node1&#45;&gt;Node5 -->
<g id="edge4_Node000001_Node000005" class="edge">
<title>Node1&#45;&gt;Node5</title>
<g id="a_edge4_Node000001_Node000005"><a xlink:title=" ">
<path fill="none" stroke="#63b8ff" d="M170.36,-59.59C182.48,-50.67 197.62,-39.53 209.5,-30.78"/>
<polygon fill="#63b8ff" stroke="#63b8ff" points="168.6,-56.54 162.62,-65.29 172.75,-62.18 168.6,-56.54"/>
</a>
</g>
</g>
<!-- Node2 -->
<g id="Node000002" class="node">
<title>Node2</title>
<g id="a_Node000002"><a xlink:href="class_im_fusion_1_1_similarity_measure_impl.html" target="_top" xlink:title="Base class of a similarity measure between two images.">
<polygon fill="white" stroke="#666666" points="228.88,-141 69.62,-141 69.62,-121.75 228.88,-121.75 228.88,-141"/>
<text xml:space="preserve" text-anchor="middle" x="149.25" y="-127.5" font-family="Helvetica,sans-Serif" font-size="10.00">ImFusion::SimilarityMeasureImpl</text>
</a>
</g>
</g>
<!-- Node2&#45;&gt;Node1 -->
<g id="edge1_Node000001_Node000002" class="edge">
<title>Node2&#45;&gt;Node1</title>
<g id="a_edge1_Node000001_Node000002"><a xlink:title=" ">
<path fill="none" stroke="#63b8ff" d="M149.25,-110.13C149.25,-101.84 149.25,-92.67 149.25,-86.11"/>
<polygon fill="#63b8ff" stroke="#63b8ff" points="145.75,-110.07 149.25,-120.07 152.75,-110.07 145.75,-110.07"/>
</a>
</g>
</g>
<!-- Node3 -->
<g id="Node000003" class="node">
<title>Node3</title>
<g id="a_Node000003"><a xlink:href="class_im_fusion_1_1_configurable.html" target="_top" xlink:title="Base interface for classes that support object serialization from/to Properties objects.">
<polygon fill="white" stroke="#666666" points="207.88,-196.25 90.62,-196.25 90.62,-177 207.88,-177 207.88,-196.25"/>
<text xml:space="preserve" text-anchor="middle" x="149.25" y="-182.75" font-family="Helvetica,sans-Serif" font-size="10.00">ImFusion::Configurable</text>
</a>
</g>
</g>
<!-- Node3&#45;&gt;Node2 -->
<g id="edge2_Node000002_Node000003" class="edge">
<title>Node3&#45;&gt;Node2</title>
<g id="a_edge2_Node000002_Node000003"><a xlink:title=" ">
<path fill="none" stroke="#63b8ff" d="M149.25,-165.38C149.25,-157.09 149.25,-147.92 149.25,-141.36"/>
<polygon fill="#63b8ff" stroke="#63b8ff" points="145.75,-165.32 149.25,-175.32 152.75,-165.32 145.75,-165.32"/>
</a>
</g>
</g>
</g>
</svg>
