<?xml version="1.0" encoding="UTF-8" standalone="no"?>
<!DOCTYPE svg PUBLIC "-//W3C//DTD SVG 1.1//EN"
 "http://www.w3.org/Graphics/SVG/1.1/DTD/svg11.dtd">
<!-- Generated by graphviz version 14.1.4 (20260321.0153)
 -->
<!-- Title: ImFusion::Tensor&lt; Order &gt; Pages: 1 -->
<svg width="142pt" height="138pt"
 viewBox="0.00 0.00 142.00 138.00" xmlns="http://www.w3.org/2000/svg" xmlns:xlink="http://www.w3.org/1999/xlink">
<g id="graph0" class="graph" transform="scale(1 1) rotate(0) translate(4 133.75)">
<title>ImFusion::Tensor&lt; Order &gt;</title>
<!-- Node1 -->
<g id="Node000001" class="node">
<title>Node1</title>
<g id="a_Node000001"><a xlink:title="Data class for strongly typed dense tensors of fixed rank and data type.">
<polygon fill="#999999" stroke="#666666" points="133.75,-19.25 0,-19.25 0,0 133.75,0 133.75,-19.25"/>
<text xml:space="preserve" text-anchor="middle" x="66.88" y="-5.75" font-family="Helvetica,sans-Serif" font-size="10.00">ImFusion::Tensor&lt; Order &gt;</text>
</a>
</g>
</g>
<!-- Node2 -->
<g id="Node000002" class="node">
<title>Node2</title>
<g id="a_Node000002"><a xlink:href="class_im_fusion_1_1_tensor_base.html" target="_top" xlink:title="Abstract base class for Tensors.">
<polygon fill="white" stroke="#666666" points="124,-74.5 9.75,-74.5 9.75,-55.25 124,-55.25 124,-74.5"/>
<text xml:space="preserve" text-anchor="middle" x="66.88" y="-61" font-family="Helvetica,sans-Serif" font-size="10.00">ImFusion::TensorBase</text>
</a>
</g>
</g>
<!-- Node2&#45;&gt;Node1 -->
<g id="edge1_Node000001_Node000002" class="edge">
<title>Node2&#45;&gt;Node1</title>
<g id="a_edge1_Node000001_Node000002"><a xlink:title=" ">
<path fill="none" stroke="#63b8ff" d="M66.88,-43.63C66.88,-35.34 66.88,-26.17 66.88,-19.61"/>
<polygon fill="#63b8ff" stroke="#63b8ff" points="63.38,-43.57 66.88,-53.57 70.38,-43.57 63.38,-43.57"/>
</a>
</g>
</g>
<!-- Node3 -->
<g id="Node000003" class="node">
<title>Node3</title>
<g id="a_Node000003"><a xlink:href="class_im_fusion_1_1_data.html" target="_top" xlink:title="Virtual base class for representing data from which all concrete data class such as images need to de...">
<polygon fill="white" stroke="#666666" points="108.62,-129.75 25.12,-129.75 25.12,-110.5 108.62,-110.5 108.62,-129.75"/>
<text xml:space="preserve" text-anchor="middle" x="66.88" y="-116.25" font-family="Helvetica,sans-Serif" font-size="10.00">ImFusion::Data</text>
</a>
</g>
</g>
<!-- Node3&#45;&gt;Node2 -->
<g id="edge2_Node000002_Node000003" class="edge">
<title>Node3&#45;&gt;Node2</title>
<g id="a_edge2_Node000002_Node000003"><a xlink:title=" ">
<path fill="none" stroke="#63b8ff" d="M66.88,-98.88C66.88,-90.59 66.88,-81.42 66.88,-74.86"/>
<polygon fill="#63b8ff" stroke="#63b8ff" points="63.38,-98.82 66.88,-108.82 70.38,-98.82 63.38,-98.82"/>
</a>
</g>
</g>
</g>
</svg>
