<?xml version="1.0" encoding="UTF-8" standalone="no"?>
<!DOCTYPE svg PUBLIC "-//W3C//DTD SVG 1.1//EN"
 "http://www.w3.org/Graphics/SVG/1.1/DTD/svg11.dtd">
<!-- Generated by graphviz version 14.1.4 (20260321.0153)
 -->
<!-- Title: ImFusion::SimilarityMeasurePixelWise_GL Pages: 1 -->
<!--zoomable 186 -->

<svg id="main" version="1.1" xmlns="http://www.w3.org/2000/svg" xmlns:xlink="http://www.w3.org/1999/xlink" xml:space="preserve" onload="init(evt)">

<style type="text/css"><![CDATA[
.node, .edge {opacity: 0.7;}
.node.selected, .edge.selected {opacity: 1;}
.edge:hover path { stroke: red; }
.edge:hover polygon { stroke: red; fill: red; }
]]></style>

<defs>
  <circle id="rim" cx="0" cy="0" r="7"/>
  <circle id="rim2" cx="0" cy="0" r="3.5"/>
  <g id="zoomPlus">
    <use xlink:href="#rim" fill="#404040"><set attributeName="fill" to="#808080" begin="zoomplus.mouseover" end="zoomplus.mouseout"/></use>
    <path d="M-4,0h8M0,-4v8" fill="none" stroke="white" stroke-width="1.5" pointer-events="none"/>
  </g>
  <g id="zoomMin">
    <use xlink:href="#rim" fill="#404040"><set attributeName="fill" to="#808080" begin="zoomminus.mouseover" end="zoomminus.mouseout"/></use>
    <path d="M-4,0h8" fill="none" stroke="white" stroke-width="1.5" pointer-events="none"/>
  </g>
  <g id="arrowUp" transform="translate(30 24)">
    <use xlink:href="#rim"/>
    <path pointer-events="none" fill="none" stroke="white" stroke-width="1.5" d="M0,-3.0v7 M-2.5,-0.5L0,-3.0L2.5,-0.5"/>
  </g>
  <g id="arrowRight" transform="rotate(90) translate(36 -43)">
    <use xlink:href="#rim"/>
    <path pointer-events="none" fill="none" stroke="white" stroke-width="1.5" d="M0,-3.0v7 M-2.5,-0.5L0,-3.0L2.5,-0.5"/>
  </g>
  <g id="arrowDown" transform="rotate(180) translate(-30 -48)">
    <use xlink:href="#rim"/>
    <path pointer-events="none" fill="none" stroke="white" stroke-width="1.5" d="M0,-3.0v7 M-2.5,-0.5L0,-3.0L2.5,-0.5"/>
  </g>
  <g id="arrowLeft" transform="rotate(270) translate(-36 17)">
    <use xlink:href="#rim"/>
    <path pointer-events="none" fill="none" stroke="white" stroke-width="1.5" d="M0,-3.0v7 M-2.5,-0.5L0,-3.0L2.5,-0.5"/>
  </g>
  <g id="resetDef">
    <use xlink:href="#rim2" fill="#404040"><set attributeName="fill" to="#808080" begin="reset.mouseover" end="reset.mouseout"/></use>
  </g>
</defs>
<script type="application/ecmascript">
var viewWidth = 850;
var viewHeight = 186;
var sectionId = 'dynsection-0';
</script>
<script type="application/ecmascript" xlink:href="svg.min.js"/>
<svg id="graph" class="graph">
<g id="viewport">
<title>ImFusion::SimilarityMeasurePixelWise_GL</title>
<!-- Node1 -->
<g id="Node000001" class="node">
<title>Node1</title>
<g id="a_Node000001"><a xlink:title=" ">
<polygon fill="#999999" stroke="#666666" points="665.5,-103.5 525,-103.5 525,-73 665.5,-73 665.5,-103.5"/>
<text xml:space="preserve" text-anchor="start" x="533" y="-90" font-family="Helvetica,sans-Serif" font-size="10.00">ImFusion::SimilarityMeasure</text>
<text xml:space="preserve" text-anchor="middle" x="595.25" y="-78.75" font-family="Helvetica,sans-Serif" font-size="10.00">PixelWise_GL</text>
</a>
</g>
</g>
<!-- Node5 -->
<g id="Node000005" class="node">
<title>Node5</title>
<g id="a_Node000005"><a xlink:href="class_im_fusion_1_1_similarity_measure_n_c_c___g_l.html" target="_top" xlink:title=" ">
<polygon fill="white" stroke="#bfbfbf" points="842,-177.5 701.5,-177.5 701.5,-147 842,-147 842,-177.5"/>
<text xml:space="preserve" text-anchor="start" x="709.5" y="-164" font-family="Helvetica,sans-Serif" font-size="10.00">ImFusion::SimilarityMeasure</text>
<text xml:space="preserve" text-anchor="middle" x="771.75" y="-152.75" font-family="Helvetica,sans-Serif" font-size="10.00">NCC_GL</text>
</a>
</g>
</g>
<!-- Node1&#45;&gt;Node5 -->
<g id="edge4_Node000001_Node000005" class="edge">
<title>Node1&#45;&gt;Node5</title>
<g id="a_edge4_Node000001_Node000005"><a xlink:title=" ">
<path fill="none" stroke="#63b8ff" d="M637.91,-108.69C657.1,-117.83 680.27,-128.5 701.5,-137.25 709.18,-140.42 717.43,-143.59 725.45,-146.56"/>
<polygon fill="#63b8ff" stroke="#63b8ff" points="639.6,-105.62 629.07,-104.45 636.57,-111.93 639.6,-105.62"/>
</a>
</g>
</g>
<!-- Node6 -->
<g id="Node000006" class="node">
<title>Node6</title>
<g id="a_Node000006"><a xlink:href="class_im_fusion_1_1_similarity_measure_n_g_f___g_l.html" target="_top" xlink:title=" ">
<polygon fill="white" stroke="#bfbfbf" points="842,-128.5 701.5,-128.5 701.5,-98 842,-98 842,-128.5"/>
<text xml:space="preserve" text-anchor="start" x="709.5" y="-115" font-family="Helvetica,sans-Serif" font-size="10.00">ImFusion::SimilarityMeasure</text>
<text xml:space="preserve" text-anchor="middle" x="771.75" y="-103.75" font-family="Helvetica,sans-Serif" font-size="10.00">NGF_GL</text>
</a>
</g>
</g>
<!-- Node1&#45;&gt;Node6 -->
<g id="edge5_Node000001_Node000006" class="edge">
<title>Node1&#45;&gt;Node6</title>
<g id="a_edge5_Node000001_Node000006"><a xlink:title=" ">
<path fill="none" stroke="#63b8ff" d="M677.2,-99.85C685.2,-100.99 693.27,-102.15 701.14,-103.28"/>
<polygon fill="#63b8ff" stroke="#63b8ff" points="677.86,-96.41 667.47,-98.45 676.87,-103.34 677.86,-96.41"/>
</a>
</g>
</g>
<!-- Node7 -->
<g id="Node000007" class="node">
<title>Node7</title>
<g id="a_Node000007"><a xlink:href="class_im_fusion_1_1_similarity_measure_s_a_d___g_l.html" target="_top" xlink:title=" ">
<polygon fill="white" stroke="#bfbfbf" points="842,-79.5 701.5,-79.5 701.5,-49 842,-49 842,-79.5"/>
<text xml:space="preserve" text-anchor="start" x="709.5" y="-66" font-family="Helvetica,sans-Serif" font-size="10.00">ImFusion::SimilarityMeasure</text>
<text xml:space="preserve" text-anchor="middle" x="771.75" y="-54.75" font-family="Helvetica,sans-Serif" font-size="10.00">SAD_GL</text>
</a>
</g>
</g>
<!-- Node1&#45;&gt;Node7 -->
<g id="edge6_Node000001_Node000007" class="edge">
<title>Node1&#45;&gt;Node7</title>
<g id="a_edge6_Node000001_Node000007"><a xlink:title=" ">
<path fill="none" stroke="#63b8ff" d="M677.2,-77.12C685.2,-76.02 693.27,-74.91 701.14,-73.82"/>
<polygon fill="#63b8ff" stroke="#63b8ff" points="676.9,-73.62 667.47,-78.45 677.85,-80.56 676.9,-73.62"/>
</a>
</g>
</g>
<!-- Node8 -->
<g id="Node000008" class="node">
<title>Node8</title>
<g id="a_Node000008"><a xlink:href="class_im_fusion_1_1_similarity_measure_s_s_d___g_l.html" target="_top" xlink:title=" ">
<polygon fill="white" stroke="#bfbfbf" points="842,-30.5 701.5,-30.5 701.5,0 842,0 842,-30.5"/>
<text xml:space="preserve" text-anchor="start" x="709.5" y="-17" font-family="Helvetica,sans-Serif" font-size="10.00">ImFusion::SimilarityMeasure</text>
<text xml:space="preserve" text-anchor="middle" x="771.75" y="-5.75" font-family="Helvetica,sans-Serif" font-size="10.00">SSD_GL</text>
</a>
</g>
</g>
<!-- Node1&#45;&gt;Node8 -->
<g id="edge7_Node000001_Node000008" class="edge">
<title>Node1&#45;&gt;Node8</title>
<g id="a_edge7_Node000001_Node000008"><a xlink:title=" ">
<path fill="none" stroke="#63b8ff" d="M639.07,-67.76C658.04,-58.94 680.73,-48.72 701.5,-40.25 709.19,-37.11 717.44,-33.96 725.47,-30.99"/>
<polygon fill="#63b8ff" stroke="#63b8ff" points="637.61,-64.59 630.03,-72 640.57,-70.93 637.61,-64.59"/>
</a>
</g>
</g>
<!-- Node2 -->
<g id="Node000002" class="node">
<title>Node2</title>
<g id="a_Node000002"><a xlink:href="class_im_fusion_1_1_similarity_measure_impl_pixel_wise.html" target="_top" xlink:title=" ">
<polygon fill="white" stroke="#bfbfbf" points="489,-103.5 348.5,-103.5 348.5,-73 489,-73 489,-103.5"/>
<text xml:space="preserve" text-anchor="start" x="356.5" y="-90" font-family="Helvetica,sans-Serif" font-size="10.00">ImFusion::SimilarityMeasure</text>
<text xml:space="preserve" text-anchor="middle" x="418.75" y="-78.75" font-family="Helvetica,sans-Serif" font-size="10.00">ImplPixelWise</text>
</a>
</g>
</g>
<!-- Node2&#45;&gt;Node1 -->
<g id="edge1_Node000001_Node000002" class="edge">
<title>Node2&#45;&gt;Node1</title>
<g id="a_edge1_Node000001_Node000002"><a xlink:title=" ">
<path fill="none" stroke="#63b8ff" d="M500.98,-88.25C508.89,-88.25 516.86,-88.25 524.64,-88.25"/>
<polygon fill="#63b8ff" stroke="#63b8ff" points="500.98,-84.75 490.98,-88.25 500.98,-91.75 500.98,-84.75"/>
</a>
</g>
</g>
<!-- Node3 -->
<g id="Node000003" class="node">
<title>Node3</title>
<g id="a_Node000003"><a xlink:href="class_im_fusion_1_1_similarity_measure_impl.html" target="_top" xlink:title="Base class of a similarity measure between two images.">
<polygon fill="white" stroke="#666666" points="312.5,-97.88 153.25,-97.88 153.25,-78.62 312.5,-78.62 312.5,-97.88"/>
<text xml:space="preserve" text-anchor="middle" x="232.88" y="-84.38" font-family="Helvetica,sans-Serif" font-size="10.00">ImFusion::SimilarityMeasureImpl</text>
</a>
</g>
</g>
<!-- Node3&#45;&gt;Node2 -->
<g id="edge2_Node000002_Node000003" class="edge">
<title>Node3&#45;&gt;Node2</title>
<g id="a_edge2_Node000002_Node000003"><a xlink:title=" ">
<path fill="none" stroke="#63b8ff" d="M324.21,-88.25C332.22,-88.25 340.24,-88.25 348.04,-88.25"/>
<polygon fill="#63b8ff" stroke="#63b8ff" points="324.44,-84.75 314.44,-88.25 324.44,-91.75 324.44,-84.75"/>
</a>
</g>
</g>
<!-- Node4 -->
<g id="Node000004" class="node">
<title>Node4</title>
<g id="a_Node000004"><a xlink:href="class_im_fusion_1_1_configurable.html" target="_top" xlink:title="Base interface for classes that support object serialization from/to Properties objects.">
<polygon fill="white" stroke="#666666" points="117.25,-97.88 0,-97.88 0,-78.62 117.25,-78.62 117.25,-97.88"/>
<text xml:space="preserve" text-anchor="middle" x="58.62" y="-84.38" font-family="Helvetica,sans-Serif" font-size="10.00">ImFusion::Configurable</text>
</a>
</g>
</g>
<!-- Node4&#45;&gt;Node3 -->
<g id="edge3_Node000003_Node000004" class="edge">
<title>Node4&#45;&gt;Node3</title>
<g id="a_edge3_Node000003_Node000004"><a xlink:title=" ">
<path fill="none" stroke="#63b8ff" d="M128.83,-88.25C136.7,-88.25 144.77,-88.25 152.76,-88.25"/>
<polygon fill="#63b8ff" stroke="#63b8ff" points="128.97,-84.75 118.97,-88.25 128.97,-91.75 128.97,-84.75"/>
</a>
</g>
</g>
</g>
</svg>

<g id="navigator" transform="translate(0 0)" fill="#404254">
  <rect fill="#f2f5e9" fill-opacity="0.5" stroke="#606060" stroke-width=".5" x="0" y="0" width="60" height="60"/>
  <use id="zoomplus" xlink:href="#zoomPlus" x="17" y="9" onmousedown="handleZoom(evt,'in')"/>
  <use id="zoomminus" xlink:href="#zoomMin" x="42" y="9" onmousedown="handleZoom(evt,'out')"/>
  <use id="reset" xlink:href="#resetDef" x="30" y="36" onmousedown="handleReset()"/>
   <use id="arrowup" xlink:href="#arrowUp" x="0" y="0" onmousedown="handlePan(0,-1)"/>
  <use id="arrowright" xlink:href="#arrowRight" x="0" y="0" onmousedown="handlePan(1,0)"/>
  <use id="arrowdown" xlink:href="#arrowDown" x="0" y="0" onmousedown="handlePan(0,1)"/>
  <use id="arrowleft" xlink:href="#arrowLeft" x="0" y="0" onmousedown="handlePan(-1,0)"/>
</g>
<svg viewBox="0 0 15 15" width="100%" height="30px" preserveAspectRatio="xMaxYMin meet">
 <g id="arrow_out" transform="scale(0.3 0.3)">
  <a xlink:href="class_im_fusion_1_1_similarity_measure_pixel_wise___g_l__inherit__graph_org.svg" target="_base">
   <rect id="button" ry="5" rx="5" y="6" x="6" height="38" width="38"
        fill="#f2f5e9" fill-opacity="0.5" stroke="#606060" stroke-width="1.0"/>
   <path id="arrow"
     d="M 11.500037,31.436501 C 11.940474,20.09759 22.043105,11.32322 32.158766,21.979434 L 37.068811,17.246167 C 37.068811,17.246167 37.088388,32 37.088388,32 L 22.160133,31.978069 C 22.160133,31.978069 26.997745,27.140456 26.997745,27.140456 C 18.528582,18.264221 13.291696,25.230495 11.500037,31.436501 z"
     style="fill:#404040;"/>
  </a>
 </g>
</svg>

<style type='text/css'>
<![CDATA[
[data-mouse-over-selected='false'] { opacity: 0.7; }
[data-mouse-over-selected='true']  { opacity: 1.0; }
]]>
</style>
<script type="application/ecmascript"><![CDATA[
document.addEventListener('DOMContentLoaded', (event) => {
  highlightEdges();
  highlightAdjacentNodes();
});
]]></script>
</svg>
