<?xml version="1.0" encoding="UTF-8" standalone="no"?>
<!DOCTYPE svg PUBLIC "-//W3C//DTD SVG 1.1//EN"
 "http://www.w3.org/Graphics/SVG/1.1/DTD/svg11.dtd">
<!-- Generated by graphviz version 14.1.4 (20260321.0153)
 -->
<!-- Title: ImFusion::ByteBufferMutableView Pages: 1 -->
<svg width="173pt" height="138pt"
 viewBox="0.00 0.00 173.00 138.00" xmlns="http://www.w3.org/2000/svg" xmlns:xlink="http://www.w3.org/1999/xlink">
<g id="graph0" class="graph" transform="scale(1 1) rotate(0) translate(4 133.75)">
<title>ImFusion::ByteBufferMutableView</title>
<!-- Node1 -->
<g id="Node000001" class="node">
<title>Node1</title>
<g id="a_Node000001"><a xlink:title="Specialization of a ByteBufferView that additionally provides non&#45;const access to the underlying data...">
<polygon fill="#999999" stroke="#666666" points="165.25,-74.5 0,-74.5 0,-55.25 165.25,-55.25 165.25,-74.5"/>
<text xml:space="preserve" text-anchor="middle" x="82.62" y="-61" font-family="Helvetica,sans-Serif" font-size="10.00">ImFusion::ByteBufferMutableView</text>
</a>
</g>
</g>
<!-- Node3 -->
<g id="Node000003" class="node">
<title>Node3</title>
<g id="a_Node000003"><a xlink:href="class_im_fusion_1_1_byte_buffer.html" target="_top" xlink:title="Specialization of the ByteBufferView class that has ownership of the underlying data.">
<polygon fill="white" stroke="#666666" points="137.12,-19.25 28.12,-19.25 28.12,0 137.12,0 137.12,-19.25"/>
<text xml:space="preserve" text-anchor="middle" x="82.62" y="-5.75" font-family="Helvetica,sans-Serif" font-size="10.00">ImFusion::ByteBuffer</text>
</a>
</g>
</g>
<!-- Node1&#45;&gt;Node3 -->
<g id="edge2_Node000001_Node000003" class="edge">
<title>Node1&#45;&gt;Node3</title>
<g id="a_edge2_Node000001_Node000003"><a xlink:title=" ">
<path fill="none" stroke="#63b8ff" d="M82.62,-43.63C82.62,-35.34 82.62,-26.17 82.62,-19.61"/>
<polygon fill="#63b8ff" stroke="#63b8ff" points="79.13,-43.57 82.63,-53.57 86.13,-43.57 79.13,-43.57"/>
</a>
</g>
</g>
<!-- Node2 -->
<g id="Node000002" class="node">
<title>Node2</title>
<g id="a_Node000002"><a xlink:href="class_im_fusion_1_1_byte_buffer_view.html" target="_top" xlink:title="Const view onto a sized buffer of raw binary data.">
<polygon fill="white" stroke="#666666" points="148,-129.75 17.25,-129.75 17.25,-110.5 148,-110.5 148,-129.75"/>
<text xml:space="preserve" text-anchor="middle" x="82.62" y="-116.25" font-family="Helvetica,sans-Serif" font-size="10.00">ImFusion::ByteBufferView</text>
</a>
</g>
</g>
<!-- Node2&#45;&gt;Node1 -->
<g id="edge1_Node000001_Node000002" class="edge">
<title>Node2&#45;&gt;Node1</title>
<g id="a_edge1_Node000001_Node000002"><a xlink:title=" ">
<path fill="none" stroke="#63b8ff" d="M82.62,-98.88C82.62,-90.59 82.62,-81.42 82.62,-74.86"/>
<polygon fill="#63b8ff" stroke="#63b8ff" points="79.13,-98.82 82.63,-108.82 86.13,-98.82 79.13,-98.82"/>
</a>
</g>
</g>
</g>
</svg>
