<?xml version="1.0" encoding="UTF-8" standalone="no"?>
<!DOCTYPE svg PUBLIC "-//W3C//DTD SVG 1.1//EN"
 "http://www.w3.org/Graphics/SVG/1.1/DTD/svg11.dtd">
<!-- Generated by graphviz version 14.1.4 (20260321.0153)
 -->
<!-- Title: ImFusion::InteractiveHistogramOverlay Pages: 1 -->
<svg width="436pt" height="204pt"
 viewBox="0.00 0.00 436.00 204.00" xmlns="http://www.w3.org/2000/svg" xmlns:xlink="http://www.w3.org/1999/xlink">

<svg id="main" version="1.1" xmlns="http://www.w3.org/2000/svg" xmlns:xlink="http://www.w3.org/1999/xlink" xml:space="preserve">

<style type="text/css"><![CDATA[
.node, .edge {opacity: 0.7;}
.node.selected, .edge.selected {opacity: 1;}
.edge:hover path { stroke: red; }
.edge:hover polygon { stroke: red; fill: red; }
]]></style>
<script type="application/ecmascript" xlink:href="svg.min.js"/>
<svg id="graph" class="graph">
<g id="graph0" class="graph" transform="scale(1 1) rotate(0) translate(4 200.25)">
<title>ImFusion::InteractiveHistogramOverlay</title>
<!-- Node1 -->
<g id="Node000001" class="node">
<title>Node1</title>
<g id="a_Node000001"><a xlink:title="Wraps a GlHistogramOverlay object (that contains a GlHistogram) in an InteractiveOverlay.">
<polygon fill="#999999" stroke="#666666" points="218.25,-30.5 65,-30.5 65,0 218.25,0 218.25,-30.5"/>
<text xml:space="preserve" text-anchor="start" x="73" y="-17" font-family="Helvetica,sans-Serif" font-size="10.00">ImFusion::InteractiveHistogram</text>
<text xml:space="preserve" text-anchor="middle" x="141.62" y="-5.75" font-family="Helvetica,sans-Serif" font-size="10.00">Overlay</text>
</a>
</g>
</g>
<!-- Node2 -->
<g id="Node000002" class="node">
<title>Node2</title>
<g id="a_Node000002"><a xlink:href="class_im_fusion_1_1_interactive_overlay.html" target="_top" xlink:title="Wraps a GlOverlay in order to display it at specific positions in an InteractiveView.">
<polygon fill="white" stroke="#666666" points="212.62,-85.75 70.62,-85.75 70.62,-66.5 212.62,-66.5 212.62,-85.75"/>
<text xml:space="preserve" text-anchor="middle" x="141.62" y="-72.25" font-family="Helvetica,sans-Serif" font-size="10.00">ImFusion::InteractiveOverlay</text>
</a>
</g>
</g>
<!-- Node2&#45;&gt;Node1 -->
<g id="edge1_Node000001_Node000002" class="edge">
<title>Node2&#45;&gt;Node1</title>
<g id="a_edge1_Node000001_Node000002"><a xlink:title=" ">
<path fill="none" stroke="#63b8ff" d="M141.62,-54.92C141.62,-46.99 141.62,-38.06 141.62,-30.78"/>
<polygon fill="#63b8ff" stroke="#63b8ff" points="138.13,-54.67 141.63,-64.67 145.13,-54.67 138.13,-54.67"/>
</a>
</g>
</g>
<!-- Node3 -->
<g id="Node000003" class="node">
<title>Node3</title>
<g id="a_Node000003"><a xlink:title=" ">
<polygon fill="white" stroke="#bfbfbf" points="110.62,-141 58.62,-141 58.62,-121.75 110.62,-121.75 110.62,-141"/>
<text xml:space="preserve" text-anchor="middle" x="84.62" y="-127.5" font-family="Helvetica,sans-Serif" font-size="10.00">QObject</text>
</a>
</g>
</g>
<!-- Node3&#45;&gt;Node2 -->
<g id="edge2_Node000002_Node000003" class="edge">
<title>Node3&#45;&gt;Node2</title>
<g id="a_edge2_Node000002_Node000003"><a xlink:title=" ">
<path fill="none" stroke="#63b8ff" d="M102.57,-113.61C112.36,-104.47 124.07,-93.53 132.1,-86.02"/>
<polygon fill="#63b8ff" stroke="#63b8ff" points="100.32,-110.92 95.4,-120.31 105.1,-116.04 100.32,-110.92"/>
</a>
</g>
</g>
<!-- Node4 -->
<g id="Node000004" class="node">
<title>Node4</title>
<g id="a_Node000004"><a xlink:href="class_im_fusion_1_1_g_u_i_1_1_view_overlay.html" target="_top" xlink:title="Wraps a GlOverlay in order to display it at specific positions inside a View and handle input events.">
<polygon fill="white" stroke="#666666" points="270.62,-141 128.62,-141 128.62,-121.75 270.62,-121.75 270.62,-141"/>
<text xml:space="preserve" text-anchor="middle" x="199.62" y="-127.5" font-family="Helvetica,sans-Serif" font-size="10.00">ImFusion::GUI::ViewOverlay</text>
</a>
</g>
</g>
<!-- Node4&#45;&gt;Node2 -->
<g id="edge3_Node000002_Node000004" class="edge">
<title>Node4&#45;&gt;Node2</title>
<g id="a_edge3_Node000002_Node000004"><a xlink:title=" ">
<path fill="none" stroke="#63b8ff" d="M181.36,-113.61C171.41,-104.47 159.49,-93.53 151.32,-86.02"/>
<polygon fill="#63b8ff" stroke="#63b8ff" points="178.94,-116.13 188.67,-120.32 183.67,-110.98 178.94,-116.13"/>
</a>
</g>
</g>
<!-- Node5 -->
<g id="Node000005" class="node">
<title>Node5</title>
<g id="a_Node000005"><a xlink:href="class_im_fusion_1_1_configurable.html" target="_top" xlink:title="Base interface for classes that support object serialization from/to Properties objects.">
<polygon fill="white" stroke="#666666" points="117.25,-196.25 0,-196.25 0,-177 117.25,-177 117.25,-196.25"/>
<text xml:space="preserve" text-anchor="middle" x="58.62" y="-182.75" font-family="Helvetica,sans-Serif" font-size="10.00">ImFusion::Configurable</text>
</a>
</g>
</g>
<!-- Node5&#45;&gt;Node4 -->
<g id="edge4_Node000004_Node000005" class="edge">
<title>Node5&#45;&gt;Node4</title>
<g id="a_edge4_Node000004_Node000005"><a xlink:title=" ">
<path fill="none" stroke="#63b8ff" d="M93.26,-172.54C118.83,-162.89 152.96,-150 175.59,-141.45"/>
<polygon fill="#63b8ff" stroke="#63b8ff" points="92.08,-169.25 83.96,-176.06 94.55,-175.8 92.08,-169.25"/>
</a>
</g>
</g>
<!-- Node6 -->
<g id="Node000006" class="node">
<title>Node6</title>
<g id="a_Node000006"><a xlink:href="class_im_fusion_1_1_signal_receiver.html" target="_top" xlink:title="Base class for classes that can contain slots (i.e.">
<polygon fill="white" stroke="#666666" points="263.88,-196.25 135.38,-196.25 135.38,-177 263.88,-177 263.88,-196.25"/>
<text xml:space="preserve" text-anchor="middle" x="199.62" y="-182.75" font-family="Helvetica,sans-Serif" font-size="10.00">ImFusion::SignalReceiver</text>
</a>
</g>
</g>
<!-- Node6&#45;&gt;Node4 -->
<g id="edge5_Node000004_Node000006" class="edge">
<title>Node6&#45;&gt;Node4</title>
<g id="a_edge5_Node000004_Node000006"><a xlink:title=" ">
<path fill="none" stroke="#63b8ff" d="M199.62,-165.38C199.62,-157.09 199.62,-147.92 199.62,-141.36"/>
<polygon fill="#63b8ff" stroke="#63b8ff" points="196.13,-165.32 199.63,-175.32 203.13,-165.32 196.13,-165.32"/>
</a>
</g>
</g>
<!-- Node7 -->
<g id="Node000007" class="node">
<title>Node7</title>
<g id="a_Node000007"><a xlink:href="class_im_fusion_1_1_utils_1_1_not_copyable.html" target="_top" xlink:title="Inherit from this class if your class should be neither copy&#45;constructible nor assignable.">
<polygon fill="white" stroke="#666666" points="427.5,-196.25 281.75,-196.25 281.75,-177 427.5,-177 427.5,-196.25"/>
<text xml:space="preserve" text-anchor="middle" x="354.62" y="-182.75" font-family="Helvetica,sans-Serif" font-size="10.00">ImFusion::Utils::NotCopyable</text>
</a>
</g>
</g>
<!-- Node7&#45;&gt;Node4 -->
<g id="edge6_Node000004_Node000007" class="edge">
<title>Node7&#45;&gt;Node4</title>
<g id="a_edge6_Node000004_Node000007"><a xlink:title=" ">
<path fill="none" stroke="#8b1a1a" d="M317.68,-172.93C289.46,-163.24 251.25,-150.11 226.05,-141.45"/>
<polygon fill="#8b1a1a" stroke="#8b1a1a" points="316.31,-176.16 326.9,-176.1 318.58,-169.54 316.31,-176.16"/>
</a>
</g>
</g>
</g>
</svg>
</svg>

<style type='text/css'>
<![CDATA[
[data-mouse-over-selected='false'] { opacity: 0.7; }
[data-mouse-over-selected='true']  { opacity: 1.0; }
]]>
</style>
<script type="application/ecmascript"><![CDATA[
document.addEventListener('DOMContentLoaded', (event) => {
  highlightEdges();
  highlightAdjacentNodes();
});
]]></script>
</svg>
