<?xml version="1.0" encoding="UTF-8" standalone="no"?>
<!DOCTYPE svg PUBLIC "-//W3C//DTD SVG 1.1//EN"
 "http://www.w3.org/Graphics/SVG/1.1/DTD/svg11.dtd">
<!-- Generated by graphviz version 14.1.4 (20260321.0153)
 -->
<!-- Title: ImFusion::ParametricDeformableRegistration Pages: 1 -->
<!--zoomable 162 -->

<svg id="main" version="1.1" xmlns="http://www.w3.org/2000/svg" xmlns:xlink="http://www.w3.org/1999/xlink" xml:space="preserve" onload="init(evt)">

<style type="text/css"><![CDATA[
.node, .edge {opacity: 0.7;}
.node.selected, .edge.selected {opacity: 1;}
.edge:hover path { stroke: red; }
.edge:hover polygon { stroke: red; fill: red; }
]]></style>

<defs>
  <circle id="rim" cx="0" cy="0" r="7"/>
  <circle id="rim2" cx="0" cy="0" r="3.5"/>
  <g id="zoomPlus">
    <use xlink:href="#rim" fill="#404040"><set attributeName="fill" to="#808080" begin="zoomplus.mouseover" end="zoomplus.mouseout"/></use>
    <path d="M-4,0h8M0,-4v8" fill="none" stroke="white" stroke-width="1.5" pointer-events="none"/>
  </g>
  <g id="zoomMin">
    <use xlink:href="#rim" fill="#404040"><set attributeName="fill" to="#808080" begin="zoomminus.mouseover" end="zoomminus.mouseout"/></use>
    <path d="M-4,0h8" fill="none" stroke="white" stroke-width="1.5" pointer-events="none"/>
  </g>
  <g id="arrowUp" transform="translate(30 24)">
    <use xlink:href="#rim"/>
    <path pointer-events="none" fill="none" stroke="white" stroke-width="1.5" d="M0,-3.0v7 M-2.5,-0.5L0,-3.0L2.5,-0.5"/>
  </g>
  <g id="arrowRight" transform="rotate(90) translate(36 -43)">
    <use xlink:href="#rim"/>
    <path pointer-events="none" fill="none" stroke="white" stroke-width="1.5" d="M0,-3.0v7 M-2.5,-0.5L0,-3.0L2.5,-0.5"/>
  </g>
  <g id="arrowDown" transform="rotate(180) translate(-30 -48)">
    <use xlink:href="#rim"/>
    <path pointer-events="none" fill="none" stroke="white" stroke-width="1.5" d="M0,-3.0v7 M-2.5,-0.5L0,-3.0L2.5,-0.5"/>
  </g>
  <g id="arrowLeft" transform="rotate(270) translate(-36 17)">
    <use xlink:href="#rim"/>
    <path pointer-events="none" fill="none" stroke="white" stroke-width="1.5" d="M0,-3.0v7 M-2.5,-0.5L0,-3.0L2.5,-0.5"/>
  </g>
  <g id="resetDef">
    <use xlink:href="#rim2" fill="#404040"><set attributeName="fill" to="#808080" begin="reset.mouseover" end="reset.mouseout"/></use>
  </g>
</defs>
<script type="application/ecmascript">
var viewWidth = 1075;
var viewHeight = 162;
var sectionId = 'dynsection-0';
</script>
<script type="application/ecmascript" xlink:href="svg.min.js"/>
<svg id="graph" class="graph">
<g id="viewport">
<title>ImFusion::ParametricDeformableRegistration</title>
<!-- Node1 -->
<g id="Node000001" class="node">
<title>Node1</title>
<g id="a_Node000001"><a xlink:title="Registers two images with a non&#45;linear deformation based on TPSs.">
<polygon fill="#999999" stroke="#666666" points="869,-91.88 709,-91.88 709,-61.38 869,-61.38 869,-91.88"/>
<text xml:space="preserve" text-anchor="start" x="717" y="-78.38" font-family="Helvetica,sans-Serif" font-size="10.00">ImFusion::ParametricDeformable</text>
<text xml:space="preserve" text-anchor="middle" x="789" y="-67.12" font-family="Helvetica,sans-Serif" font-size="10.00">Registration</text>
</a>
</g>
</g>
<!-- Node8 -->
<g id="Node000008" class="node">
<title>Node8</title>
<g id="a_Node000008"><a xlink:href="class_im_fusion_1_1_f_f_d_image_registration.html" target="_top" xlink:title="Registers two images with a non&#45;linear deformation based on FFDs.">
<polygon fill="white" stroke="#666666" points="1066.5,-154.25 905,-154.25 905,-135 1066.5,-135 1066.5,-154.25"/>
<text xml:space="preserve" text-anchor="middle" x="985.75" y="-140.75" font-family="Helvetica,sans-Serif" font-size="10.00">ImFusion::FFDImageRegistration</text>
</a>
</g>
</g>
<!-- Node1&#45;&gt;Node8 -->
<g id="edge7_Node000001_Node000008" class="edge">
<title>Node1&#45;&gt;Node8</title>
<g id="a_edge7_Node000001_Node000008"><a xlink:title=" ">
<path fill="none" stroke="#63b8ff" d="M832.99,-96.99C854.32,-106.56 880.67,-117.61 905,-125.62 915.14,-128.97 926.18,-131.98 936.73,-134.57"/>
<polygon fill="#63b8ff" stroke="#63b8ff" points="834.58,-93.86 824.02,-92.91 831.68,-100.24 834.58,-93.86"/>
</a>
</g>
</g>
<!-- Node9 -->
<g id="Node000009" class="node">
<title>Node9</title>
<g id="a_Node000009"><a xlink:href="class_im_fusion_1_1_other_parametric_deformable_registration.html" target="_top" xlink:title="Registers two images with any other parametric deformation already set on the moving image.">
<polygon fill="white" stroke="#666666" points="1052.62,-116.88 918.88,-116.88 918.88,-86.38 1052.62,-86.38 1052.62,-116.88"/>
<text xml:space="preserve" text-anchor="start" x="926.88" y="-103.38" font-family="Helvetica,sans-Serif" font-size="10.00">ImFusion::OtherParametric</text>
<text xml:space="preserve" text-anchor="middle" x="985.75" y="-92.12" font-family="Helvetica,sans-Serif" font-size="10.00">DeformableRegistration</text>
</a>
</g>
</g>
<!-- Node1&#45;&gt;Node9 -->
<g id="edge8_Node000001_Node000009" class="edge">
<title>Node1&#45;&gt;Node9</title>
<g id="a_edge8_Node000001_Node000009"><a xlink:title=" ">
<path fill="none" stroke="#63b8ff" d="M880.66,-88.26C893.43,-89.9 906.36,-91.56 918.56,-93.13"/>
<polygon fill="#63b8ff" stroke="#63b8ff" points="881.36,-84.82 870.99,-87.02 880.47,-91.77 881.36,-84.82"/>
</a>
</g>
</g>
<!-- Node10 -->
<g id="Node000010" class="node">
<title>Node10</title>
<g id="a_Node000010"><a xlink:href="class_im_fusion_1_1_poly_rigid_image_registration.html" target="_top" xlink:title="Registers two images with a non&#45;linear poly&#45;rigid deformation.">
<polygon fill="white" stroke="#666666" points="1051.5,-67.88 920,-67.88 920,-37.38 1051.5,-37.38 1051.5,-67.88"/>
<text xml:space="preserve" text-anchor="start" x="928" y="-54.38" font-family="Helvetica,sans-Serif" font-size="10.00">ImFusion::PolyRigidImage</text>
<text xml:space="preserve" text-anchor="middle" x="985.75" y="-43.12" font-family="Helvetica,sans-Serif" font-size="10.00">Registration</text>
</a>
</g>
</g>
<!-- Node1&#45;&gt;Node10 -->
<g id="edge9_Node000001_Node000010" class="edge">
<title>Node1&#45;&gt;Node10</title>
<g id="a_edge9_Node000001_Node000010"><a xlink:title=" ">
<path fill="none" stroke="#63b8ff" d="M880.55,-65.47C893.79,-63.83 907.19,-62.18 919.78,-60.63"/>
<polygon fill="#63b8ff" stroke="#63b8ff" points="880.49,-61.95 871,-66.64 881.35,-68.89 880.49,-61.95"/>
</a>
</g>
</g>
<!-- Node11 -->
<g id="Node000011" class="node">
<title>Node11</title>
<g id="a_Node000011"><a xlink:href="class_im_fusion_1_1_t_p_s_image_registration.html" target="_top" xlink:title="Registers two images with a non&#45;linear deformation based on TPSs.">
<polygon fill="white" stroke="#666666" points="1066.5,-19.25 905,-19.25 905,0 1066.5,0 1066.5,-19.25"/>
<text xml:space="preserve" text-anchor="middle" x="985.75" y="-5.75" font-family="Helvetica,sans-Serif" font-size="10.00">ImFusion::TPSImageRegistration</text>
</a>
</g>
</g>
<!-- Node1&#45;&gt;Node11 -->
<g id="edge10_Node000001_Node000011" class="edge">
<title>Node1&#45;&gt;Node11</title>
<g id="a_edge10_Node000001_Node000011"><a xlink:title=" ">
<path fill="none" stroke="#63b8ff" d="M833.5,-56.51C854.75,-47.19 880.89,-36.47 905,-28.62 915.15,-25.32 926.2,-22.32 936.75,-19.73"/>
<polygon fill="#63b8ff" stroke="#63b8ff" points="832.28,-53.23 824.56,-60.48 835.12,-59.62 832.28,-53.23"/>
</a>
</g>
</g>
<!-- Node2 -->
<g id="Node000002" class="node">
<title>Node2</title>
<g id="a_Node000002"><a xlink:href="class_im_fusion_1_1_parametric_image_registration.html" target="_top" xlink:title="Base class for parametric image registration algorithms.">
<polygon fill="white" stroke="#666666" points="673,-91.88 536.25,-91.88 536.25,-61.38 673,-61.38 673,-91.88"/>
<text xml:space="preserve" text-anchor="start" x="544.25" y="-78.38" font-family="Helvetica,sans-Serif" font-size="10.00">ImFusion::ParametricImage</text>
<text xml:space="preserve" text-anchor="middle" x="604.62" y="-67.12" font-family="Helvetica,sans-Serif" font-size="10.00">Registration</text>
</a>
</g>
</g>
<!-- Node2&#45;&gt;Node1 -->
<g id="edge1_Node000001_Node000002" class="edge">
<title>Node2&#45;&gt;Node1</title>
<g id="a_edge1_Node000001_Node000002"><a xlink:title=" ">
<path fill="none" stroke="#63b8ff" d="M684.52,-76.62C692.55,-76.62 700.72,-76.62 708.75,-76.62"/>
<polygon fill="#63b8ff" stroke="#63b8ff" points="684.79,-73.13 674.79,-76.63 684.79,-80.13 684.79,-73.13"/>
</a>
</g>
</g>
<!-- Node3 -->
<g id="Node000003" class="node">
<title>Node3</title>
<g id="a_Node000003"><a xlink:href="class_im_fusion_1_1_abstract_image_registration.html" target="_top" xlink:title="The AbstractImageRegistration class is an interface for all image&#45;based registrations.">
<polygon fill="white" stroke="#666666" points="500.25,-105.25 321.5,-105.25 321.5,-86 500.25,-86 500.25,-105.25"/>
<text xml:space="preserve" text-anchor="middle" x="410.88" y="-91.75" font-family="Helvetica,sans-Serif" font-size="10.00">ImFusion::AbstractImageRegistration</text>
</a>
</g>
</g>
<!-- Node3&#45;&gt;Node2 -->
<g id="edge2_Node000002_Node000003" class="edge">
<title>Node3&#45;&gt;Node2</title>
<g id="a_edge2_Node000002_Node000003"><a xlink:title=" ">
<path fill="none" stroke="#63b8ff" d="M512.14,-85.69C520.21,-84.89 528.24,-84.09 536,-83.33"/>
<polygon fill="#63b8ff" stroke="#63b8ff" points="511.85,-82.2 502.24,-86.67 512.54,-89.17 511.85,-82.2"/>
</a>
</g>
</g>
<!-- Node4 -->
<g id="Node000004" class="node">
<title>Node4</title>
<g id="a_Node000004"><a xlink:href="class_im_fusion_1_1_algorithm.html" target="_top" xlink:title="Interface for describing algorithms that can be made available in the ImFusion Suite through Algorith...">
<polygon fill="white" stroke="#666666" points="285.5,-105.25 181.75,-105.25 181.75,-86 285.5,-86 285.5,-105.25"/>
<text xml:space="preserve" text-anchor="middle" x="233.62" y="-91.75" font-family="Helvetica,sans-Serif" font-size="10.00">ImFusion::Algorithm</text>
</a>
</g>
</g>
<!-- Node4&#45;&gt;Node3 -->
<g id="edge3_Node000003_Node000004" class="edge">
<title>Node4&#45;&gt;Node3</title>
<g id="a_edge3_Node000003_Node000004"><a xlink:title=" ">
<path fill="none" stroke="#63b8ff" d="M297.27,-95.62C305.01,-95.62 313.03,-95.62 321.06,-95.62"/>
<polygon fill="#63b8ff" stroke="#63b8ff" points="297.3,-92.13 287.3,-95.63 297.3,-99.13 297.3,-92.13"/>
</a>
</g>
</g>
<!-- Node5 -->
<g id="Node000005" class="node">
<title>Node5</title>
<g id="a_Node000005"><a xlink:href="class_im_fusion_1_1_configurable.html" target="_top" xlink:title="Base interface for classes that support object serialization from/to Properties objects.">
<polygon fill="white" stroke="#666666" points="131.5,-124.25 14.25,-124.25 14.25,-105 131.5,-105 131.5,-124.25"/>
<text xml:space="preserve" text-anchor="middle" x="72.88" y="-110.75" font-family="Helvetica,sans-Serif" font-size="10.00">ImFusion::Configurable</text>
</a>
</g>
</g>
<!-- Node5&#45;&gt;Node4 -->
<g id="edge4_Node000004_Node000005" class="edge">
<title>Node5&#45;&gt;Node4</title>
<g id="a_edge4_Node000004_Node000005"><a xlink:title=" ">
<path fill="none" stroke="#63b8ff" d="M142.89,-106.36C155.85,-104.81 169.18,-103.22 181.47,-101.75"/>
<polygon fill="#63b8ff" stroke="#63b8ff" points="142.65,-102.87 133.14,-107.53 143.48,-109.82 142.65,-102.87"/>
</a>
</g>
</g>
<!-- Node6 -->
<g id="Node000006" class="node">
<title>Node6</title>
<g id="a_Node000006"><a xlink:href="class_im_fusion_1_1_utils_1_1_not_copyable.html" target="_top" xlink:title="Inherit from this class if your class should be neither copy&#45;constructible nor assignable.">
<polygon fill="white" stroke="#666666" points="145.75,-87.25 0,-87.25 0,-68 145.75,-68 145.75,-87.25"/>
<text xml:space="preserve" text-anchor="middle" x="72.88" y="-73.75" font-family="Helvetica,sans-Serif" font-size="10.00">ImFusion::Utils::NotCopyable</text>
</a>
</g>
</g>
<!-- Node6&#45;&gt;Node4 -->
<g id="edge5_Node000004_Node000006" class="edge">
<title>Node6&#45;&gt;Node4</title>
<g id="a_edge5_Node000004_Node000006"><a xlink:title=" ">
<path fill="none" stroke="#8b1a1a" d="M157.08,-87.06C165.34,-88 173.54,-88.93 181.33,-89.81"/>
<polygon fill="#8b1a1a" stroke="#8b1a1a" points="157.65,-83.6 147.32,-85.95 156.86,-90.56 157.65,-83.6"/>
</a>
</g>
</g>
<!-- Node7 -->
<g id="Node000007" class="node">
<title>Node7</title>
<g id="a_Node000007"><a xlink:href="class_im_fusion_1_1_cost_function.html" target="_top" xlink:title="Interface for a cost function that can be optimized.">
<polygon fill="white" stroke="#666666" points="471.38,-68.25 350.38,-68.25 350.38,-49 471.38,-49 471.38,-68.25"/>
<text xml:space="preserve" text-anchor="middle" x="410.88" y="-54.75" font-family="Helvetica,sans-Serif" font-size="10.00">ImFusion::CostFunction</text>
</a>
</g>
</g>
<!-- Node7&#45;&gt;Node2 -->
<g id="edge6_Node000002_Node000007" class="edge">
<title>Node7&#45;&gt;Node2</title>
<g id="a_edge6_Node000002_Node000007"><a xlink:title=" ">
<path fill="none" stroke="#63b8ff" d="M482.93,-65.3C500.24,-66.92 518.7,-68.65 535.84,-70.26"/>
<polygon fill="#63b8ff" stroke="#63b8ff" points="483.55,-61.84 473.26,-64.39 482.89,-68.81 483.55,-61.84"/>
</a>
</g>
</g>
</g>
</svg>

<g id="navigator" transform="translate(0 0)" fill="#404254">
  <rect fill="#f2f5e9" fill-opacity="0.5" stroke="#606060" stroke-width=".5" x="0" y="0" width="60" height="60"/>
  <use id="zoomplus" xlink:href="#zoomPlus" x="17" y="9" onmousedown="handleZoom(evt,'in')"/>
  <use id="zoomminus" xlink:href="#zoomMin" x="42" y="9" onmousedown="handleZoom(evt,'out')"/>
  <use id="reset" xlink:href="#resetDef" x="30" y="36" onmousedown="handleReset()"/>
   <use id="arrowup" xlink:href="#arrowUp" x="0" y="0" onmousedown="handlePan(0,-1)"/>
  <use id="arrowright" xlink:href="#arrowRight" x="0" y="0" onmousedown="handlePan(1,0)"/>
  <use id="arrowdown" xlink:href="#arrowDown" x="0" y="0" onmousedown="handlePan(0,1)"/>
  <use id="arrowleft" xlink:href="#arrowLeft" x="0" y="0" onmousedown="handlePan(-1,0)"/>
</g>
<svg viewBox="0 0 15 15" width="100%" height="30px" preserveAspectRatio="xMaxYMin meet">
 <g id="arrow_out" transform="scale(0.3 0.3)">
  <a xlink:href="class_im_fusion_1_1_parametric_deformable_registration__inherit__graph_org.svg" target="_base">
   <rect id="button" ry="5" rx="5" y="6" x="6" height="38" width="38"
        fill="#f2f5e9" fill-opacity="0.5" stroke="#606060" stroke-width="1.0"/>
   <path id="arrow"
     d="M 11.500037,31.436501 C 11.940474,20.09759 22.043105,11.32322 32.158766,21.979434 L 37.068811,17.246167 C 37.068811,17.246167 37.088388,32 37.088388,32 L 22.160133,31.978069 C 22.160133,31.978069 26.997745,27.140456 26.997745,27.140456 C 18.528582,18.264221 13.291696,25.230495 11.500037,31.436501 z"
     style="fill:#404040;"/>
  </a>
 </g>
</svg>

<style type='text/css'>
<![CDATA[
[data-mouse-over-selected='false'] { opacity: 0.7; }
[data-mouse-over-selected='true']  { opacity: 1.0; }
]]>
</style>
<script type="application/ecmascript"><![CDATA[
document.addEventListener('DOMContentLoaded', (event) => {
  highlightEdges();
  highlightAdjacentNodes();
});
]]></script>
</svg>
