<?xml version="1.0" encoding="UTF-8" standalone="no"?>
<!DOCTYPE svg PUBLIC "-//W3C//DTD SVG 1.1//EN"
 "http://www.w3.org/Graphics/SVG/1.1/DTD/svg11.dtd">
<!-- Generated by graphviz version 14.1.4 (20260321.0153)
 -->
<!-- Title: ImFusion::Optimizer Pages: 1 -->
<svg width="487pt" height="249pt"
 viewBox="0.00 0.00 487.00 249.00" xmlns="http://www.w3.org/2000/svg" xmlns:xlink="http://www.w3.org/1999/xlink">
<g id="graph0" class="graph" transform="scale(1 1) rotate(0) translate(4 245.25)">
<title>ImFusion::Optimizer</title>
<!-- Node1 -->
<g id="Node000001" class="node">
<title>Node1</title>
<g id="a_Node000001"><a xlink:title="Non&#45;linear optimization.">
<polygon fill="#999999" stroke="#666666" points="286.25,-130.25 181.75,-130.25 181.75,-111 286.25,-111 286.25,-130.25"/>
<text xml:space="preserve" text-anchor="middle" x="234" y="-116.75" font-family="Helvetica,sans-Serif" font-size="10.00">ImFusion::Optimizer</text>
</a>
</g>
</g>
<!-- Node5 -->
<g id="Node000005" class="node">
<title>Node5</title>
<g id="a_Node000005"><a xlink:href="class_im_fusion_1_1_optimizer_b_f_g_s.html" target="_top" xlink:title="Implementation of the Broyden–Fletcher–Goldfarb–Shanno (BFGS) optimizer.">
<polygon fill="white" stroke="#666666" points="466.5,-241.25 335,-241.25 335,-222 466.5,-222 466.5,-241.25"/>
<text xml:space="preserve" text-anchor="middle" x="400.75" y="-227.75" font-family="Helvetica,sans-Serif" font-size="10.00">ImFusion::OptimizerBFGS</text>
</a>
</g>
</g>
<!-- Node1&#45;&gt;Node5 -->
<g id="edge4_Node000001_Node000005" class="edge">
<title>Node1&#45;&gt;Node5</title>
<g id="a_edge4_Node000001_Node000005"><a xlink:title=" ">
<path fill="none" stroke="#63b8ff" d="M247.77,-139.95C262.94,-161.33 290.27,-195.2 322.25,-213.62 327.76,-216.8 333.78,-219.41 339.97,-221.56"/>
<polygon fill="#63b8ff" stroke="#63b8ff" points="250.73,-138.08 242.18,-131.82 244.96,-142.05 250.73,-138.08"/>
</a>
</g>
</g>
<!-- Node6 -->
<g id="Node000006" class="node">
<title>Node6</title>
<g id="a_Node000006"><a xlink:href="class_im_fusion_1_1_optimizer_di_rect.html" target="_top" xlink:title="Global optimizer based on Dividing Rectangles algorithm.">
<polygon fill="white" stroke="#666666" points="468.38,-204.25 333.12,-204.25 333.12,-185 468.38,-185 468.38,-204.25"/>
<text xml:space="preserve" text-anchor="middle" x="400.75" y="-190.75" font-family="Helvetica,sans-Serif" font-size="10.00">ImFusion::OptimizerDiRect</text>
</a>
</g>
</g>
<!-- Node1&#45;&gt;Node6 -->
<g id="edge5_Node000001_Node000006" class="edge">
<title>Node1&#45;&gt;Node6</title>
<g id="a_edge5_Node000001_Node000006"><a xlink:title=" ">
<path fill="none" stroke="#63b8ff" d="M256.56,-137.45C273.54,-149.95 298.27,-166.5 322.25,-176.62 329.63,-179.74 337.65,-182.37 345.63,-184.57"/>
<polygon fill="#63b8ff" stroke="#63b8ff" points="258.82,-134.78 248.73,-131.56 254.61,-140.37 258.82,-134.78"/>
</a>
</g>
</g>
<!-- Node7 -->
<g id="Node000007" class="node">
<title>Node7</title>
<g id="a_Node000007"><a xlink:href="class_im_fusion_1_1_optimizer_n_l.html" target="_top" xlink:title="Non&#45;linear optimization using the NLOpt library.">
<polygon fill="white" stroke="#666666" points="459.38,-167.25 342.12,-167.25 342.12,-148 459.38,-148 459.38,-167.25"/>
<text xml:space="preserve" text-anchor="middle" x="400.75" y="-153.75" font-family="Helvetica,sans-Serif" font-size="10.00">ImFusion::OptimizerNL</text>
</a>
</g>
</g>
<!-- Node1&#45;&gt;Node7 -->
<g id="edge6_Node000001_Node000007" class="edge">
<title>Node1&#45;&gt;Node7</title>
<g id="a_edge6_Node000001_Node000007"><a xlink:title=" ">
<path fill="none" stroke="#63b8ff" d="M291.25,-133.26C311.98,-137.91 335.18,-143.12 354.79,-147.53"/>
<polygon fill="#63b8ff" stroke="#63b8ff" points="292.02,-129.84 281.5,-131.07 290.49,-136.67 292.02,-129.84"/>
</a>
</g>
</g>
<!-- Node8 -->
<g id="Node000008" class="node">
<title>Node8</title>
<g id="a_Node000008"><a xlink:href="class_im_fusion_1_1_optimizer_nelder_mead.html" target="_top" xlink:title="Local optimizer based on Neldea&#45;Mead algorithm (also known as downhill simplex method) (see for insta...">
<polygon fill="white" stroke="#666666" points="479.25,-130.25 322.25,-130.25 322.25,-111 479.25,-111 479.25,-130.25"/>
<text xml:space="preserve" text-anchor="middle" x="400.75" y="-116.75" font-family="Helvetica,sans-Serif" font-size="10.00">ImFusion::OptimizerNelderMead</text>
</a>
</g>
</g>
<!-- Node1&#45;&gt;Node8 -->
<g id="edge7_Node000001_Node000008" class="edge">
<title>Node1&#45;&gt;Node8</title>
<g id="a_edge7_Node000001_Node000008"><a xlink:title=" ">
<path fill="none" stroke="#63b8ff" d="M297.98,-120.62C305.84,-120.62 313.96,-120.62 322.01,-120.62"/>
<polygon fill="#63b8ff" stroke="#63b8ff" points="298.19,-117.13 288.19,-120.63 298.19,-124.13 298.19,-117.13"/>
</a>
</g>
</g>
<!-- Node9 -->
<g id="Node000009" class="node">
<title>Node9</title>
<g id="a_Node000009"><a xlink:href="class_im_fusion_1_1_optimizer_reload.html" target="_top" xlink:title="Optimizer that reloads all information from a previously logged file.">
<polygon fill="white" stroke="#666666" points="468.38,-93.25 333.12,-93.25 333.12,-74 468.38,-74 468.38,-93.25"/>
<text xml:space="preserve" text-anchor="middle" x="400.75" y="-79.75" font-family="Helvetica,sans-Serif" font-size="10.00">ImFusion::OptimizerReload</text>
</a>
</g>
</g>
<!-- Node1&#45;&gt;Node9 -->
<g id="edge8_Node000001_Node000009" class="edge">
<title>Node1&#45;&gt;Node9</title>
<g id="a_edge8_Node000001_Node000009"><a xlink:title=" ">
<path fill="none" stroke="#63b8ff" d="M291.25,-107.99C311.98,-103.34 335.18,-98.13 354.79,-93.72"/>
<polygon fill="#63b8ff" stroke="#63b8ff" points="290.49,-104.58 281.5,-110.18 292.02,-111.41 290.49,-104.58"/>
</a>
</g>
</g>
<!-- Node10 -->
<g id="Node000010" class="node">
<title>Node10</title>
<g id="a_Node000010"><a xlink:href="class_im_fusion_1_1_optimizer_series.html" target="_top" xlink:title="Series of multiple successive optimizations bundled in one execution.">
<polygon fill="white" stroke="#666666" points="466.88,-56.25 334.62,-56.25 334.62,-37 466.88,-37 466.88,-56.25"/>
<text xml:space="preserve" text-anchor="middle" x="400.75" y="-42.75" font-family="Helvetica,sans-Serif" font-size="10.00">ImFusion::OptimizerSeries</text>
</a>
</g>
</g>
<!-- Node1&#45;&gt;Node10 -->
<g id="edge9_Node000001_Node000010" class="edge">
<title>Node1&#45;&gt;Node10</title>
<g id="a_edge9_Node000001_Node000010"><a xlink:title=" ">
<path fill="none" stroke="#63b8ff" d="M256.56,-103.8C273.54,-91.3 298.27,-74.75 322.25,-64.62 329.63,-61.51 337.65,-58.88 345.63,-56.68"/>
<polygon fill="#63b8ff" stroke="#63b8ff" points="254.61,-100.88 248.73,-109.69 258.82,-106.47 254.61,-100.88"/>
</a>
</g>
</g>
<!-- Node11 -->
<g id="Node000011" class="node">
<title>Node11</title>
<g id="a_Node000011"><a xlink:href="class_im_fusion_1_1_optimizer_x_n_e_s.html" target="_top" xlink:title="XNES optimizer.">
<polygon fill="white" stroke="#666666" points="466.88,-19.25 334.62,-19.25 334.62,0 466.88,0 466.88,-19.25"/>
<text xml:space="preserve" text-anchor="middle" x="400.75" y="-5.75" font-family="Helvetica,sans-Serif" font-size="10.00">ImFusion::OptimizerXNES</text>
</a>
</g>
</g>
<!-- Node1&#45;&gt;Node11 -->
<g id="edge10_Node000001_Node000011" class="edge">
<title>Node1&#45;&gt;Node11</title>
<g id="a_edge10_Node000001_Node000011"><a xlink:title=" ">
<path fill="none" stroke="#63b8ff" d="M247.77,-101.3C262.94,-79.92 290.27,-46.05 322.25,-27.62 327.76,-24.45 333.78,-21.84 339.97,-19.69"/>
<polygon fill="#63b8ff" stroke="#63b8ff" points="244.96,-99.2 242.18,-109.43 250.73,-103.17 244.96,-99.2"/>
</a>
</g>
</g>
<!-- Node2 -->
<g id="Node000002" class="node">
<title>Node2</title>
<g id="a_Node000002"><a xlink:href="class_im_fusion_1_1_cost_function.html" target="_top" xlink:title="Interface for a cost function that can be optimized.">
<polygon fill="white" stroke="#666666" points="133.38,-167.25 12.38,-167.25 12.38,-148 133.38,-148 133.38,-167.25"/>
<text xml:space="preserve" text-anchor="middle" x="72.88" y="-153.75" font-family="Helvetica,sans-Serif" font-size="10.00">ImFusion::CostFunction</text>
</a>
</g>
</g>
<!-- Node2&#45;&gt;Node1 -->
<g id="edge1_Node000001_Node000002" class="edge">
<title>Node2&#45;&gt;Node1</title>
<g id="a_edge1_Node000001_Node000002"><a xlink:title=" ">
<path fill="none" stroke="#63b8ff" d="M128.48,-144.93C148.43,-140.29 170.72,-135.11 189.57,-130.72"/>
<polygon fill="#63b8ff" stroke="#63b8ff" points="127.78,-141.5 118.83,-147.17 129.36,-148.32 127.78,-141.5"/>
</a>
</g>
</g>
<!-- Node3 -->
<g id="Node000003" class="node">
<title>Node3</title>
<g id="a_Node000003"><a xlink:href="class_im_fusion_1_1_configurable.html" target="_top" xlink:title="Base interface for classes that support object serialization from/to Properties objects.">
<polygon fill="white" stroke="#666666" points="131.5,-130.25 14.25,-130.25 14.25,-111 131.5,-111 131.5,-130.25"/>
<text xml:space="preserve" text-anchor="middle" x="72.88" y="-116.75" font-family="Helvetica,sans-Serif" font-size="10.00">ImFusion::Configurable</text>
</a>
</g>
</g>
<!-- Node3&#45;&gt;Node1 -->
<g id="edge2_Node000001_Node000003" class="edge">
<title>Node3&#45;&gt;Node1</title>
<g id="a_edge2_Node000001_Node000003"><a xlink:title=" ">
<path fill="none" stroke="#63b8ff" d="M142.99,-120.62C155.91,-120.62 169.2,-120.62 181.47,-120.62"/>
<polygon fill="#63b8ff" stroke="#63b8ff" points="143.29,-117.13 133.29,-120.63 143.29,-124.13 143.29,-117.13"/>
</a>
</g>
</g>
<!-- Node4 -->
<g id="Node000004" class="node">
<title>Node4</title>
<g id="a_Node000004"><a xlink:href="class_im_fusion_1_1_utils_1_1_not_copyable.html" target="_top" xlink:title="Inherit from this class if your class should be neither copy&#45;constructible nor assignable.">
<polygon fill="white" stroke="#666666" points="145.75,-93.25 0,-93.25 0,-74 145.75,-74 145.75,-93.25"/>
<text xml:space="preserve" text-anchor="middle" x="72.88" y="-79.75" font-family="Helvetica,sans-Serif" font-size="10.00">ImFusion::Utils::NotCopyable</text>
</a>
</g>
</g>
<!-- Node4&#45;&gt;Node1 -->
<g id="edge3_Node000001_Node000004" class="edge">
<title>Node4&#45;&gt;Node1</title>
<g id="a_edge3_Node000001_Node000004"><a xlink:title=" ">
<path fill="none" stroke="#8b1a1a" d="M128.48,-96.32C148.43,-100.96 170.72,-106.14 189.57,-110.53"/>
<polygon fill="#8b1a1a" stroke="#8b1a1a" points="129.36,-92.93 118.83,-94.08 127.78,-99.75 129.36,-92.93"/>
</a>
</g>
</g>
</g>
</svg>
