<?xml version="1.0" encoding="UTF-8" standalone="no"?>
<!DOCTYPE svg PUBLIC "-//W3C//DTD SVG 1.1//EN"
 "http://www.w3.org/Graphics/SVG/1.1/DTD/svg11.dtd">
<!-- Generated by graphviz version 14.1.4 (20260321.0153)
 -->
<!-- Title: ImFusion::CustomProperty&lt; T &gt; Pages: 1 -->
<svg width="392pt" height="138pt"
 viewBox="0.00 0.00 392.00 138.00" xmlns="http://www.w3.org/2000/svg" xmlns:xlink="http://www.w3.org/1999/xlink">
<g id="graph0" class="graph" transform="scale(1 1) rotate(0) translate(4 133.75)">
<title>ImFusion::CustomProperty&lt; T &gt;</title>
<!-- Node1 -->
<g id="Node000001" class="node">
<title>Node1</title>
<g id="a_Node000001"><a xlink:title="Interface for a custom typed property, allowing access to the values at individual elements.">
<polygon fill="#999999" stroke="#666666" points="268.62,-74.5 110.88,-74.5 110.88,-55.25 268.62,-55.25 268.62,-74.5"/>
<text xml:space="preserve" text-anchor="middle" x="189.75" y="-61" font-family="Helvetica,sans-Serif" font-size="10.00">ImFusion::CustomProperty&lt; T &gt;</text>
</a>
</g>
</g>
<!-- Node4 -->
<g id="Node000004" class="node">
<title>Node4</title>
<g id="a_Node000004"><a xlink:href="class_im_fusion_1_1_custom_face_property.html" target="_top" xlink:title="A custom property using faces/triangles as geometry elements.">
<polygon fill="white" stroke="#666666" points="179.5,-19.25 0,-19.25 0,0 179.5,0 179.5,-19.25"/>
<text xml:space="preserve" text-anchor="middle" x="89.75" y="-5.75" font-family="Helvetica,sans-Serif" font-size="10.00">ImFusion::CustomFaceProperty&lt; T &gt;</text>
</a>
</g>
</g>
<!-- Node1&#45;&gt;Node4 -->
<g id="edge3_Node000001_Node000004" class="edge">
<title>Node1&#45;&gt;Node4</title>
<g id="a_edge3_Node000001_Node000004"><a xlink:title=" ">
<path fill="none" stroke="#63b8ff" d="M162.71,-49.48C144.9,-39.99 122.12,-27.86 106.8,-19.7"/>
<polygon fill="#63b8ff" stroke="#63b8ff" points="160.98,-52.52 171.45,-54.13 164.27,-46.34 160.98,-52.52"/>
</a>
</g>
</g>
<!-- Node5 -->
<g id="Node000005" class="node">
<title>Node5</title>
<g id="a_Node000005"><a xlink:href="class_im_fusion_1_1_custom_vertex_property.html" target="_top" xlink:title="A custom property using vertices as geometry elements.">
<polygon fill="white" stroke="#666666" points="383.88,-19.25 197.62,-19.25 197.62,0 383.88,0 383.88,-19.25"/>
<text xml:space="preserve" text-anchor="middle" x="290.75" y="-5.75" font-family="Helvetica,sans-Serif" font-size="10.00">ImFusion::CustomVertexProperty&lt; T &gt;</text>
</a>
</g>
</g>
<!-- Node1&#45;&gt;Node5 -->
<g id="edge4_Node000001_Node000005" class="edge">
<title>Node1&#45;&gt;Node5</title>
<g id="a_edge4_Node000001_Node000005"><a xlink:title=" ">
<path fill="none" stroke="#63b8ff" d="M217.06,-49.48C235.05,-39.99 258.05,-27.86 273.53,-19.7"/>
<polygon fill="#63b8ff" stroke="#63b8ff" points="215.44,-46.38 208.22,-54.14 218.7,-52.57 215.44,-46.38"/>
</a>
</g>
</g>
<!-- Node2 -->
<g id="Node000002" class="node">
<title>Node2</title>
<g id="a_Node000002"><a xlink:href="class_im_fusion_1_1_custom_property_base.html" target="_top" xlink:title="Basic interface for a custom property, i.e. a collection of values on different elements (vertices/fa...">
<polygon fill="white" stroke="#666666" points="183.88,-129.75 27.62,-129.75 27.62,-110.5 183.88,-110.5 183.88,-129.75"/>
<text xml:space="preserve" text-anchor="middle" x="105.75" y="-116.25" font-family="Helvetica,sans-Serif" font-size="10.00">ImFusion::CustomPropertyBase</text>
</a>
</g>
</g>
<!-- Node2&#45;&gt;Node1 -->
<g id="edge1_Node000001_Node000002" class="edge">
<title>Node2&#45;&gt;Node1</title>
<g id="a_edge1_Node000001_Node000002"><a xlink:title=" ">
<path fill="none" stroke="#63b8ff" d="M129.52,-104.05C144.32,-94.67 162.86,-82.92 175.43,-74.95"/>
<polygon fill="#63b8ff" stroke="#63b8ff" points="127.85,-100.97 121.28,-109.28 131.6,-106.88 127.85,-100.97"/>
</a>
</g>
</g>
<!-- Node3 -->
<g id="Node000003" class="node">
<title>Node3</title>
<g id="a_Node000003"><a xlink:href="class_im_fusion_1_1_utils_1_1_not_copyable.html" target="_top" xlink:title="Inherit from this class if your class should be neither copy&#45;constructible nor assignable.">
<polygon fill="white" stroke="#666666" points="347.62,-129.75 201.88,-129.75 201.88,-110.5 347.62,-110.5 347.62,-129.75"/>
<text xml:space="preserve" text-anchor="middle" x="274.75" y="-116.25" font-family="Helvetica,sans-Serif" font-size="10.00">ImFusion::Utils::NotCopyable</text>
</a>
</g>
</g>
<!-- Node3&#45;&gt;Node1 -->
<g id="edge2_Node000001_Node000003" class="edge">
<title>Node3&#45;&gt;Node1</title>
<g id="a_edge2_Node000001_Node000003"><a xlink:title=" ">
<path fill="none" stroke="#63b8ff" d="M250.69,-104.05C235.72,-94.67 216.96,-82.92 204.24,-74.95"/>
<polygon fill="#63b8ff" stroke="#63b8ff" points="248.72,-106.95 259.05,-109.29 252.43,-101.01 248.72,-106.95"/>
</a>
</g>
</g>
</g>
</svg>
