<?xml version="1.0" encoding="UTF-8" standalone="no"?>
<!DOCTYPE svg PUBLIC "-//W3C//DTD SVG 1.1//EN"
 "http://www.w3.org/Graphics/SVG/1.1/DTD/svg11.dtd">
<!-- Generated by graphviz version 14.1.4 (20260321.0153)
 -->
<!-- Title: ImFusion::ConnectedComponentsAction Pages: 1 -->
<svg width="361pt" height="149pt"
 viewBox="0.00 0.00 361.00 149.00" xmlns="http://www.w3.org/2000/svg" xmlns:xlink="http://www.w3.org/1999/xlink">

<svg id="main" version="1.1" xmlns="http://www.w3.org/2000/svg" xmlns:xlink="http://www.w3.org/1999/xlink" xml:space="preserve">

<style type="text/css"><![CDATA[
.node, .edge {opacity: 0.7;}
.node.selected, .edge.selected {opacity: 1;}
.edge:hover path { stroke: red; }
.edge:hover polygon { stroke: red; fill: red; }
]]></style>
<script type="application/ecmascript" xlink:href="svg.min.js"/>
<svg id="graph" class="graph">
<g id="graph0" class="graph" transform="scale(1 1) rotate(0) translate(4 145)">
<title>ImFusion::ConnectedComponentsAction</title>
<!-- Node1 -->
<g id="Node000001" class="node">
<title>Node1</title>
<g id="a_Node000001"><a xlink:title=" ">
<polygon fill="#999999" stroke="#666666" points="220.62,-30.5 55.38,-30.5 55.38,0 220.62,0 220.62,-30.5"/>
<text xml:space="preserve" text-anchor="start" x="63.38" y="-17" font-family="Helvetica,sans-Serif" font-size="10.00">ImFusion::ConnectedComponents</text>
<text xml:space="preserve" text-anchor="middle" x="138" y="-5.75" font-family="Helvetica,sans-Serif" font-size="10.00">Action</text>
</a>
</g>
</g>
<!-- Node2 -->
<g id="Node000002" class="node">
<title>Node2</title>
<g id="a_Node000002"><a xlink:title=" ">
<polygon fill="white" stroke="#bfbfbf" points="52,-85.75 0,-85.75 0,-66.5 52,-66.5 52,-85.75"/>
<text xml:space="preserve" text-anchor="middle" x="26" y="-72.25" font-family="Helvetica,sans-Serif" font-size="10.00">QObject</text>
</a>
</g>
</g>
<!-- Node2&#45;&gt;Node1 -->
<g id="edge1_Node000001_Node000002" class="edge">
<title>Node2&#45;&gt;Node1</title>
<g id="a_edge1_Node000001_Node000002"><a xlink:title=" ">
<path fill="none" stroke="#63b8ff" d="M53.07,-60.9C70.42,-51.77 92.89,-39.96 110.36,-30.78"/>
<polygon fill="#63b8ff" stroke="#63b8ff" points="51.57,-57.73 44.35,-65.48 54.83,-63.92 51.57,-57.73"/>
</a>
</g>
</g>
<!-- Node3 -->
<g id="Node000003" class="node">
<title>Node3</title>
<g id="a_Node000003"><a xlink:href="class_im_fusion_1_1_annotation_action.html" target="_top" xlink:title=" ">
<polygon fill="white" stroke="#bfbfbf" points="206.38,-85.75 69.62,-85.75 69.62,-66.5 206.38,-66.5 206.38,-85.75"/>
<text xml:space="preserve" text-anchor="middle" x="138" y="-72.25" font-family="Helvetica,sans-Serif" font-size="10.00">ImFusion::AnnotationAction</text>
</a>
</g>
</g>
<!-- Node3&#45;&gt;Node1 -->
<g id="edge2_Node000001_Node000003" class="edge">
<title>Node3&#45;&gt;Node1</title>
<g id="a_edge2_Node000001_Node000003"><a xlink:title=" ">
<path fill="none" stroke="#63b8ff" d="M138,-54.92C138,-46.99 138,-38.06 138,-30.78"/>
<polygon fill="#63b8ff" stroke="#63b8ff" points="134.5,-54.67 138,-64.67 141.5,-54.67 134.5,-54.67"/>
</a>
</g>
</g>
<!-- Node4 -->
<g id="Node000004" class="node">
<title>Node4</title>
<g id="a_Node000004"><a xlink:href="class_im_fusion_1_1_configurable.html" target="_top" xlink:title="Base interface for classes that support object serialization from/to Properties objects.">
<polygon fill="white" stroke="#666666" points="196.62,-141 79.38,-141 79.38,-121.75 196.62,-121.75 196.62,-141"/>
<text xml:space="preserve" text-anchor="middle" x="138" y="-127.5" font-family="Helvetica,sans-Serif" font-size="10.00">ImFusion::Configurable</text>
</a>
</g>
</g>
<!-- Node4&#45;&gt;Node3 -->
<g id="edge3_Node000003_Node000004" class="edge">
<title>Node4&#45;&gt;Node3</title>
<g id="a_edge3_Node000003_Node000004"><a xlink:title=" ">
<path fill="none" stroke="#63b8ff" d="M138,-110.13C138,-101.84 138,-92.67 138,-86.11"/>
<polygon fill="#63b8ff" stroke="#63b8ff" points="134.5,-110.07 138,-120.07 141.5,-110.07 134.5,-110.07"/>
</a>
</g>
</g>
<!-- Node5 -->
<g id="Node000005" class="node">
<title>Node5</title>
<g id="a_Node000005"><a xlink:href="class_im_fusion_1_1_signal_receiver.html" target="_top" xlink:title="Base class for classes that can contain slots (i.e.">
<polygon fill="white" stroke="#666666" points="353.25,-85.75 224.75,-85.75 224.75,-66.5 353.25,-66.5 353.25,-85.75"/>
<text xml:space="preserve" text-anchor="middle" x="289" y="-72.25" font-family="Helvetica,sans-Serif" font-size="10.00">ImFusion::SignalReceiver</text>
</a>
</g>
</g>
<!-- Node5&#45;&gt;Node1 -->
<g id="edge4_Node000001_Node000005" class="edge">
<title>Node5&#45;&gt;Node1</title>
<g id="a_edge4_Node000001_Node000005"><a xlink:title=" ">
<path fill="none" stroke="#63b8ff" d="M255.18,-61.94C231.59,-52.74 200.09,-40.46 175.69,-30.94"/>
<polygon fill="#63b8ff" stroke="#63b8ff" points="253.74,-65.13 264.33,-65.5 256.28,-58.61 253.74,-65.13"/>
</a>
</g>
</g>
</g>
</svg>
</svg>

<style type='text/css'>
<![CDATA[
[data-mouse-over-selected='false'] { opacity: 0.7; }
[data-mouse-over-selected='true']  { opacity: 1.0; }
]]>
</style>
<script type="application/ecmascript"><![CDATA[
document.addEventListener('DOMContentLoaded', (event) => {
  highlightEdges();
  highlightAdjacentNodes();
});
]]></script>
</svg>
