<?xml version="1.0" encoding="UTF-8" standalone="no"?>
<!DOCTYPE svg PUBLIC "-//W3C//DTD SVG 1.1//EN"
 "http://www.w3.org/Graphics/SVG/1.1/DTD/svg11.dtd">
<!-- Generated by graphviz version 14.1.4 (20260321.0153)
 -->
<!-- Title: ImFusion::ElementwiseDataComponentData Pages: 1 -->
<svg width="322pt" height="149pt"
 viewBox="0.00 0.00 322.00 149.00" xmlns="http://www.w3.org/2000/svg" xmlns:xlink="http://www.w3.org/1999/xlink">
<g id="graph0" class="graph" transform="scale(1 1) rotate(0) translate(4 145)">
<title>ImFusion::ElementwiseDataComponentData</title>
<!-- Node1 -->
<g id="Node000001" class="node">
<title>Node1</title>
<g id="a_Node000001"><a xlink:title="Class for augmenting Data classes with an ElementwiseDataComponentList.">
<polygon fill="#999999" stroke="#666666" points="233.12,-141 93.38,-141 93.38,-110.5 233.12,-110.5 233.12,-141"/>
<text xml:space="preserve" text-anchor="start" x="101.38" y="-127.5" font-family="Helvetica,sans-Serif" font-size="10.00">ImFusion::ElementwiseData</text>
<text xml:space="preserve" text-anchor="middle" x="163.25" y="-116.25" font-family="Helvetica,sans-Serif" font-size="10.00">ComponentData</text>
</a>
</g>
</g>
<!-- Node2 -->
<g id="Node000002" class="node">
<title>Node2</title>
<g id="a_Node000002"><a xlink:href="class_im_fusion_1_1_shared_image_set.html" target="_top" xlink:title="Set of images independent of their storage location.">
<polygon fill="white" stroke="#666666" points="152.88,-74.5 17.62,-74.5 17.62,-55.25 152.88,-55.25 152.88,-74.5"/>
<text xml:space="preserve" text-anchor="middle" x="85.25" y="-61" font-family="Helvetica,sans-Serif" font-size="10.00">ImFusion::SharedImageSet</text>
</a>
</g>
</g>
<!-- Node1&#45;&gt;Node2 -->
<g id="edge1_Node000001_Node000002" class="edge">
<title>Node1&#45;&gt;Node2</title>
<g id="a_edge1_Node000001_Node000002"><a xlink:title=" ">
<path fill="none" stroke="#63b8ff" d="M134.92,-103.37C121.96,-93.58 107.29,-82.51 97.27,-74.95"/>
<polygon fill="#63b8ff" stroke="#63b8ff" points="132.67,-106.05 142.76,-109.28 136.89,-100.47 132.67,-106.05"/>
</a>
</g>
</g>
<!-- Node4 -->
<g id="Node000004" class="node">
<title>Node4</title>
<g id="a_Node000004"><a xlink:href="class_im_fusion_1_1_tracking_sequence.html" target="_top" xlink:title="Sequence of rigid tracking data with optional timestamps, quality values and flags.">
<polygon fill="white" stroke="#666666" points="314,-74.5 170.5,-74.5 170.5,-55.25 314,-55.25 314,-74.5"/>
<text xml:space="preserve" text-anchor="middle" x="242.25" y="-61" font-family="Helvetica,sans-Serif" font-size="10.00">ImFusion::TrackingSequence</text>
</a>
</g>
</g>
<!-- Node1&#45;&gt;Node4 -->
<g id="edge3_Node000001_Node000004" class="edge">
<title>Node1&#45;&gt;Node4</title>
<g id="a_edge3_Node000001_Node000004"><a xlink:title=" ">
<path fill="none" stroke="#63b8ff" d="M191.94,-103.37C205.07,-93.58 219.93,-82.51 230.07,-74.95"/>
<polygon fill="#63b8ff" stroke="#63b8ff" points="189.92,-100.51 183.99,-109.29 194.1,-106.12 189.92,-100.51"/>
</a>
</g>
</g>
<!-- Node3 -->
<g id="Node000003" class="node">
<title>Node3</title>
<g id="a_Node000003"><a xlink:href="class_im_fusion_1_1_tracked_shared_image_set.html" target="_top" xlink:title="Set of images with arbitrarily sampled tracking data.">
<polygon fill="white" stroke="#666666" points="170.5,-19.25 0,-19.25 0,0 170.5,0 170.5,-19.25"/>
<text xml:space="preserve" text-anchor="middle" x="85.25" y="-5.75" font-family="Helvetica,sans-Serif" font-size="10.00">ImFusion::TrackedSharedImageSet</text>
</a>
</g>
</g>
<!-- Node2&#45;&gt;Node3 -->
<g id="edge2_Node000002_Node000003" class="edge">
<title>Node2&#45;&gt;Node3</title>
<g id="a_edge2_Node000002_Node000003"><a xlink:title=" ">
<path fill="none" stroke="#63b8ff" d="M85.25,-43.63C85.25,-35.34 85.25,-26.17 85.25,-19.61"/>
<polygon fill="#63b8ff" stroke="#63b8ff" points="81.75,-43.57 85.25,-53.57 88.75,-43.57 81.75,-43.57"/>
</a>
</g>
</g>
</g>
</svg>
