<?xml version="1.0" encoding="UTF-8" standalone="no"?>
<!DOCTYPE svg PUBLIC "-//W3C//DTD SVG 1.1//EN"
 "http://www.w3.org/Graphics/SVG/1.1/DTD/svg11.dtd">
<!-- Generated by graphviz version 14.1.4 (20260321.0153)
 -->
<!-- Title: ImFusion::Network::AuthorizationProvider Pages: 1 -->
<svg width="299pt" height="172pt"
 viewBox="0.00 0.00 299.00 172.00" xmlns="http://www.w3.org/2000/svg" xmlns:xlink="http://www.w3.org/1999/xlink">
<g id="graph0" class="graph" transform="scale(1 1) rotate(0) translate(4 167.5)">
<title>ImFusion::Network::AuthorizationProvider</title>
<!-- Node1 -->
<g id="Node000001" class="node">
<title>Node1</title>
<g id="a_Node000001"><a xlink:title="Interface for providing the Authorization header for WebRequests.">
<polygon fill="#999999" stroke="#666666" points="196.75,-163.5 87.75,-163.5 87.75,-133 196.75,-133 196.75,-163.5"/>
<text xml:space="preserve" text-anchor="start" x="95.75" y="-150" font-family="Helvetica,sans-Serif" font-size="10.00">ImFusion::Network::</text>
<text xml:space="preserve" text-anchor="middle" x="142.25" y="-138.75" font-family="Helvetica,sans-Serif" font-size="10.00">AuthorizationProvider</text>
</a>
</g>
</g>
<!-- Node2 -->
<g id="Node000002" class="node">
<title>Node2</title>
<g id="a_Node000002"><a xlink:href="class_im_fusion_1_1_network_1_1_static_authorization_provider.html" target="_top" xlink:title="A most basic AuthorizationProvider that only tracks a static list of authorization headers.">
<polygon fill="white" stroke="#666666" points="134.5,-97 0,-97 0,-66.5 134.5,-66.5 134.5,-97"/>
<text xml:space="preserve" text-anchor="start" x="8" y="-83.5" font-family="Helvetica,sans-Serif" font-size="10.00">ImFusion::Network::</text>
<text xml:space="preserve" text-anchor="middle" x="67.25" y="-72.25" font-family="Helvetica,sans-Serif" font-size="10.00">StaticAuthorizationProvider</text>
</a>
</g>
</g>
<!-- Node1&#45;&gt;Node2 -->
<g id="edge1_Node000001_Node000002" class="edge">
<title>Node1&#45;&gt;Node2</title>
<g id="a_edge1_Node000001_Node000002"><a xlink:title=" ">
<path fill="none" stroke="#63b8ff" d="M116.66,-125.24C105.94,-116.03 93.78,-105.56 84.2,-97.33"/>
<polygon fill="#63b8ff" stroke="#63b8ff" points="114.22,-127.76 124.08,-131.63 118.78,-122.45 114.22,-127.76"/>
</a>
</g>
</g>
<!-- Node3 -->
<g id="Node000003" class="node">
<title>Node3</title>
<g id="a_Node000003"><a xlink:href="class_im_fusion_1_1_qt_authorization_provider.html" target="_top" xlink:title="AuthorizationProvider that shows a Qt LoginDialog.">
<polygon fill="white" stroke="#666666" points="282.25,-97 152.25,-97 152.25,-66.5 282.25,-66.5 282.25,-97"/>
<text xml:space="preserve" text-anchor="start" x="160.25" y="-83.5" font-family="Helvetica,sans-Serif" font-size="10.00">ImFusion::QtAuthorization</text>
<text xml:space="preserve" text-anchor="middle" x="217.25" y="-72.25" font-family="Helvetica,sans-Serif" font-size="10.00">Provider</text>
</a>
</g>
</g>
<!-- Node1&#45;&gt;Node3 -->
<g id="edge2_Node000001_Node000003" class="edge">
<title>Node1&#45;&gt;Node3</title>
<g id="a_edge2_Node000001_Node000003"><a xlink:title=" ">
<path fill="none" stroke="#63b8ff" d="M167.84,-125.24C178.56,-116.03 190.72,-105.56 200.3,-97.33"/>
<polygon fill="#63b8ff" stroke="#63b8ff" points="165.72,-122.45 160.42,-131.63 170.28,-127.76 165.72,-122.45"/>
</a>
</g>
</g>
<!-- Node4 -->
<g id="Node000004" class="node">
<title>Node4</title>
<g id="a_Node000004"><a xlink:href="class_im_fusion_1_1_labels_authorization_provider.html" target="_top" xlink:title="Provides authorization for the remote project as well as DICOMweb and other web resources.">
<polygon fill="white" stroke="#666666" points="291.25,-30.5 143.25,-30.5 143.25,0 291.25,0 291.25,-30.5"/>
<text xml:space="preserve" text-anchor="start" x="151.25" y="-17" font-family="Helvetica,sans-Serif" font-size="10.00">ImFusion::LabelsAuthorization</text>
<text xml:space="preserve" text-anchor="middle" x="217.25" y="-5.75" font-family="Helvetica,sans-Serif" font-size="10.00">Provider</text>
</a>
</g>
</g>
<!-- Node3&#45;&gt;Node4 -->
<g id="edge3_Node000003_Node000004" class="edge">
<title>Node3&#45;&gt;Node4</title>
<g id="a_edge3_Node000003_Node000004"><a xlink:title=" ">
<path fill="none" stroke="#63b8ff" d="M217.25,-54.81C217.25,-46.64 217.25,-37.91 217.25,-30.83"/>
<polygon fill="#63b8ff" stroke="#63b8ff" points="213.75,-54.6 217.25,-64.6 220.75,-54.6 213.75,-54.6"/>
</a>
</g>
</g>
</g>
</svg>
