<?xml version="1.0" encoding="UTF-8" standalone="no"?>
<!DOCTYPE svg PUBLIC "-//W3C//DTD SVG 1.1//EN"
 "http://www.w3.org/Graphics/SVG/1.1/DTD/svg11.dtd">
<!-- Generated by graphviz version 14.1.4 (20260321.0153)
 -->
<!-- Title: ImFusion::Deformation Pages: 1 -->
<svg width="929pt" height="150pt"
 viewBox="0.00 0.00 929.00 150.00" xmlns="http://www.w3.org/2000/svg" xmlns:xlink="http://www.w3.org/1999/xlink">
<g id="graph0" class="graph" transform="scale(1 1) rotate(0) translate(4 146.25)">
<title>ImFusion::Deformation</title>
<!-- Node1 -->
<g id="Node000001" class="node">
<title>Node1</title>
<g id="a_Node000001"><a xlink:title="Base class for different kinds of non&#45;linear image transformations.">
<polygon fill="#999999" stroke="#666666" points="518.25,-99.25 402.5,-99.25 402.5,-80 518.25,-80 518.25,-99.25"/>
<text xml:space="preserve" text-anchor="middle" x="460.38" y="-85.75" font-family="Helvetica,sans-Serif" font-size="10.00">ImFusion::Deformation</text>
</a>
</g>
</g>
<!-- Node6 -->
<g id="Node000006" class="node">
<title>Node6</title>
<g id="a_Node000006"><a xlink:href="class_im_fusion_1_1_gl_dense_deformation.html" target="_top" xlink:title="The GlDenseDeformation class represents dense deformations based on a displacement map.">
<polygon fill="white" stroke="#666666" points="712.75,-142.25 558.75,-142.25 558.75,-123 712.75,-123 712.75,-142.25"/>
<text xml:space="preserve" text-anchor="middle" x="635.75" y="-128.75" font-family="Helvetica,sans-Serif" font-size="10.00">ImFusion::GlDenseDeformation</text>
</a>
</g>
</g>
<!-- Node1&#45;&gt;Node6 -->
<g id="edge5_Node000001_Node000006" class="edge">
<title>Node1&#45;&gt;Node6</title>
<g id="a_edge5_Node000001_Node000006"><a xlink:title=" ">
<path fill="none" stroke="#63b8ff" d="M510.69,-102.57C524.75,-106.21 540.09,-110.12 554.25,-113.62 566.24,-116.59 579.26,-119.71 591.26,-122.54"/>
<polygon fill="#63b8ff" stroke="#63b8ff" points="511.76,-99.24 501.2,-100.11 510,-106.01 511.76,-99.24"/>
</a>
</g>
</g>
<!-- Node7 -->
<g id="Node000007" class="node">
<title>Node7</title>
<g id="a_Node000007"><a xlink:href="class_im_fusion_1_1_gl_flatten_tracking_deformation.html" target="_top" xlink:title="Deformation model based on flattening a tracking sequence.">
<polygon fill="white" stroke="#666666" points="705.62,-104.88 565.88,-104.88 565.88,-74.38 705.62,-74.38 705.62,-104.88"/>
<text xml:space="preserve" text-anchor="start" x="573.88" y="-91.38" font-family="Helvetica,sans-Serif" font-size="10.00">ImFusion::GlFlattenTracking</text>
<text xml:space="preserve" text-anchor="middle" x="635.75" y="-80.12" font-family="Helvetica,sans-Serif" font-size="10.00">Deformation</text>
</a>
</g>
</g>
<!-- Node1&#45;&gt;Node7 -->
<g id="edge6_Node000001_Node000007" class="edge">
<title>Node1&#45;&gt;Node7</title>
<g id="a_edge6_Node000001_Node000007"><a xlink:title=" ">
<path fill="none" stroke="#63b8ff" d="M530.09,-89.62C541.73,-89.62 553.83,-89.62 565.49,-89.62"/>
<polygon fill="#63b8ff" stroke="#63b8ff" points="530.14,-86.13 520.14,-89.63 530.14,-93.13 530.14,-86.13"/>
</a>
</g>
</g>
<!-- Node8 -->
<g id="Node000008" class="node">
<title>Node8</title>
<g id="a_Node000008"><a xlink:href="class_im_fusion_1_1_parametric_deformation.html" target="_top" xlink:title="Base interface for a parametric deformation in 2D or 3D.">
<polygon fill="white" stroke="#666666" points="717.25,-56.25 554.25,-56.25 554.25,-37 717.25,-37 717.25,-56.25"/>
<text xml:space="preserve" text-anchor="middle" x="635.75" y="-42.75" font-family="Helvetica,sans-Serif" font-size="10.00">ImFusion::ParametricDeformation</text>
</a>
</g>
</g>
<!-- Node1&#45;&gt;Node8 -->
<g id="edge7_Node000001_Node000008" class="edge">
<title>Node1&#45;&gt;Node8</title>
<g id="a_edge7_Node000001_Node000008"><a xlink:title=" ">
<path fill="none" stroke="#63b8ff" d="M510.69,-76.68C524.75,-73.04 540.09,-69.13 554.25,-65.62 566.24,-62.66 579.26,-59.54 591.26,-56.71"/>
<polygon fill="#63b8ff" stroke="#63b8ff" points="510,-73.24 501.2,-79.14 511.76,-80.01 510,-73.24"/>
</a>
</g>
</g>
<!-- Node2 -->
<g id="Node000002" class="node">
<title>Node2</title>
<g id="a_Node000002"><a xlink:href="class_im_fusion_1_1_g_l_1_1_abstract_include.html" target="_top" xlink:title="Base class for abstract GLSL includes.">
<polygon fill="white" stroke="#666666" points="348.88,-142.25 199.38,-142.25 199.38,-123 348.88,-123 348.88,-142.25"/>
<text xml:space="preserve" text-anchor="middle" x="274.12" y="-128.75" font-family="Helvetica,sans-Serif" font-size="10.00">ImFusion::GL::AbstractInclude</text>
</a>
</g>
</g>
<!-- Node2&#45;&gt;Node1 -->
<g id="edge1_Node000001_Node000002" class="edge">
<title>Node2&#45;&gt;Node1</title>
<g id="a_edge1_Node000001_Node000002"><a xlink:title=" ">
<path fill="none" stroke="#63b8ff" d="M336.99,-120.18C346.88,-118.07 356.98,-115.84 366.5,-113.62 384.83,-109.35 405.07,-104.18 421.97,-99.73"/>
<polygon fill="#63b8ff" stroke="#63b8ff" points="336.51,-116.7 327.45,-122.19 337.96,-123.55 336.51,-116.7"/>
</a>
</g>
</g>
<!-- Node3 -->
<g id="Node000003" class="node">
<title>Node3</title>
<g id="a_Node000003"><a xlink:href="class_im_fusion_1_1_utils_1_1_not_copyable.html" target="_top" xlink:title="Inherit from this class if your class should be neither copy&#45;constructible nor assignable.">
<polygon fill="white" stroke="#666666" points="145.75,-142.25 0,-142.25 0,-123 145.75,-123 145.75,-142.25"/>
<text xml:space="preserve" text-anchor="middle" x="72.88" y="-128.75" font-family="Helvetica,sans-Serif" font-size="10.00">ImFusion::Utils::NotCopyable</text>
</a>
</g>
</g>
<!-- Node3&#45;&gt;Node2 -->
<g id="edge2_Node000002_Node000003" class="edge">
<title>Node3&#45;&gt;Node2</title>
<g id="a_edge2_Node000002_Node000003"><a xlink:title=" ">
<path fill="none" stroke="#8b1a1a" d="M157.57,-132.62C171.37,-132.62 185.6,-132.62 199.15,-132.62"/>
<polygon fill="#8b1a1a" stroke="#8b1a1a" points="157.6,-129.13 147.6,-132.63 157.6,-136.13 157.6,-129.13"/>
</a>
</g>
</g>
<!-- Node4 -->
<g id="Node000004" class="node">
<title>Node4</title>
<g id="a_Node000004"><a xlink:href="class_im_fusion_1_1_g_l_1_1_multi_includable.html" target="_top" xlink:title=" ">
<polygon fill="white" stroke="#666666" points="366.5,-104.88 181.75,-104.88 181.75,-74.38 366.5,-74.38 366.5,-104.88"/>
<text xml:space="preserve" text-anchor="start" x="189.75" y="-91.38" font-family="Helvetica,sans-Serif" font-size="10.00">ImFusion::GL::MultiIncludable</text>
<text xml:space="preserve" text-anchor="middle" x="274.12" y="-80.12" font-family="Helvetica,sans-Serif" font-size="10.00">&lt; Deformation, const SharedImage * &gt;</text>
</a>
</g>
</g>
<!-- Node4&#45;&gt;Node1 -->
<g id="edge3_Node000001_Node000004" class="edge">
<title>Node4&#45;&gt;Node1</title>
<g id="a_edge3_Node000001_Node000004"><a xlink:title=" ">
<path fill="none" stroke="#63b8ff" d="M378.48,-89.62C386.57,-89.62 394.55,-89.62 402.15,-89.62"/>
<polygon fill="#63b8ff" stroke="#63b8ff" points="378.49,-86.13 368.49,-89.63 378.49,-93.13 378.49,-86.13"/>
</a>
</g>
</g>
<!-- Node5 -->
<g id="Node000005" class="node">
<title>Node5</title>
<g id="a_Node000005"><a xlink:href="class_im_fusion_1_1_configurable.html" target="_top" xlink:title="Base interface for classes that support object serialization from/to Properties objects.">
<polygon fill="white" stroke="#666666" points="332.75,-56.25 215.5,-56.25 215.5,-37 332.75,-37 332.75,-56.25"/>
<text xml:space="preserve" text-anchor="middle" x="274.12" y="-42.75" font-family="Helvetica,sans-Serif" font-size="10.00">ImFusion::Configurable</text>
</a>
</g>
</g>
<!-- Node5&#45;&gt;Node1 -->
<g id="edge4_Node000001_Node000005" class="edge">
<title>Node5&#45;&gt;Node1</title>
<g id="a_edge4_Node000001_Node000005"><a xlink:title=" ">
<path fill="none" stroke="#63b8ff" d="M336.99,-59.07C346.88,-61.18 356.98,-63.41 366.5,-65.62 384.83,-69.9 405.07,-75.07 421.97,-79.52"/>
<polygon fill="#63b8ff" stroke="#63b8ff" points="337.96,-55.7 327.45,-57.06 336.51,-62.55 337.96,-55.7"/>
</a>
</g>
</g>
<!-- Node9 -->
<g id="Node000009" class="node">
<title>Node9</title>
<g id="a_Node000009"><a xlink:href="class_im_fusion_1_1_free_form_deformation.html" target="_top" xlink:title="The FreeFormDeformation provides deformations using a free&#45;form deformation (FFD) based on B&#45;splines.">
<polygon fill="white" stroke="#666666" points="915.88,-93.25 758.12,-93.25 758.12,-74 915.88,-74 915.88,-93.25"/>
<text xml:space="preserve" text-anchor="middle" x="837" y="-79.75" font-family="Helvetica,sans-Serif" font-size="10.00">ImFusion::FreeFormDeformation</text>
</a>
</g>
</g>
<!-- Node8&#45;&gt;Node9 -->
<g id="edge8_Node000008_Node000009" class="edge">
<title>Node8&#45;&gt;Node9</title>
<g id="a_edge8_Node000008_Node000009"><a xlink:title=" ">
<path fill="none" stroke="#63b8ff" d="M702.35,-58.81C728.03,-63.57 757.14,-68.98 781.62,-73.53"/>
<polygon fill="#63b8ff" stroke="#63b8ff" points="703.15,-55.4 692.68,-57.01 701.88,-62.28 703.15,-55.4"/>
</a>
</g>
</g>
<!-- Node10 -->
<g id="Node000010" class="node">
<title>Node10</title>
<g id="a_Node000010"><a xlink:href="class_im_fusion_1_1_gl_poly_rigid_deformation.html" target="_top" xlink:title="Poly&#45;rigid deformation class.">
<polygon fill="white" stroke="#666666" points="920.75,-56.25 753.25,-56.25 753.25,-37 920.75,-37 920.75,-56.25"/>
<text xml:space="preserve" text-anchor="middle" x="837" y="-42.75" font-family="Helvetica,sans-Serif" font-size="10.00">ImFusion::GlPolyRigidDeformation</text>
</a>
</g>
</g>
<!-- Node8&#45;&gt;Node10 -->
<g id="edge9_Node000008_Node000010" class="edge">
<title>Node8&#45;&gt;Node10</title>
<g id="a_edge9_Node000008_Node000010"><a xlink:title=" ">
<path fill="none" stroke="#63b8ff" d="M728.79,-46.62C736.82,-46.62 744.91,-46.62 752.86,-46.62"/>
<polygon fill="#63b8ff" stroke="#63b8ff" points="729.02,-43.13 719.02,-46.63 729.02,-50.13 729.02,-43.13"/>
</a>
</g>
</g>
<!-- Node11 -->
<g id="Node000011" class="node">
<title>Node11</title>
<g id="a_Node000011"><a xlink:href="class_im_fusion_1_1_gl_t_p_s_deformation.html" target="_top" xlink:title="The GlTPSDeformation class provides deformations using a thin&#45;plate splines (TPS).">
<polygon fill="white" stroke="#666666" points="909.5,-19.25 764.5,-19.25 764.5,0 909.5,0 909.5,-19.25"/>
<text xml:space="preserve" text-anchor="middle" x="837" y="-5.75" font-family="Helvetica,sans-Serif" font-size="10.00">ImFusion::GlTPSDeformation</text>
</a>
</g>
</g>
<!-- Node8&#45;&gt;Node11 -->
<g id="edge10_Node000008_Node000011" class="edge">
<title>Node8&#45;&gt;Node11</title>
<g id="a_edge10_Node000008_Node000011"><a xlink:title=" ">
<path fill="none" stroke="#63b8ff" d="M702.35,-34.44C728.03,-29.68 757.14,-24.27 781.62,-19.72"/>
<polygon fill="#63b8ff" stroke="#63b8ff" points="701.88,-30.97 692.68,-36.24 703.15,-37.85 701.88,-30.97"/>
</a>
</g>
</g>
</g>
</svg>
