<?xml version="1.0" encoding="UTF-8" standalone="no"?>
<!DOCTYPE svg PUBLIC "-//W3C//DTD SVG 1.1//EN"
 "http://www.w3.org/Graphics/SVG/1.1/DTD/svg11.dtd">
<!-- Generated by graphviz version 14.1.4 (20260321.0153)
 -->
<!-- Title: ImFusion::LinkWindowing Pages: 1 -->
<svg width="256pt" height="83pt"
 viewBox="0.00 0.00 256.00 83.00" xmlns="http://www.w3.org/2000/svg" xmlns:xlink="http://www.w3.org/1999/xlink">
<g id="graph0" class="graph" transform="scale(1 1) rotate(0) translate(4 78.5)">
<title>ImFusion::LinkWindowing</title>
<!-- Node1 -->
<g id="Node000001" class="node">
<title>Node1</title>
<g id="a_Node000001"><a xlink:title="Synchronizes DisplayOptions2d and DisplayOptions3d of multiple images.">
<polygon fill="#999999" stroke="#666666" points="181,-19.25 52.5,-19.25 52.5,0 181,0 181,-19.25"/>
<text xml:space="preserve" text-anchor="middle" x="116.75" y="-5.75" font-family="Helvetica,sans-Serif" font-size="10.00">ImFusion::LinkWindowing</text>
</a>
</g>
</g>
<!-- Node2 -->
<g id="Node000002" class="node">
<title>Node2</title>
<g id="a_Node000002"><a xlink:href="class_im_fusion_1_1_data_link.html" target="_top" xlink:title="Interface for linking properties between multiple Data instances.">
<polygon fill="white" stroke="#666666" points="101.5,-74.5 0,-74.5 0,-55.25 101.5,-55.25 101.5,-74.5"/>
<text xml:space="preserve" text-anchor="middle" x="50.75" y="-61" font-family="Helvetica,sans-Serif" font-size="10.00">ImFusion::DataLink</text>
</a>
</g>
</g>
<!-- Node2&#45;&gt;Node1 -->
<g id="edge1_Node000001_Node000002" class="edge">
<title>Node2&#45;&gt;Node1</title>
<g id="a_edge1_Node000001_Node000002"><a xlink:title=" ">
<path fill="none" stroke="#63b8ff" d="M70.84,-47.66C82.3,-38.42 96.23,-27.18 105.72,-19.52"/>
<polygon fill="#63b8ff" stroke="#63b8ff" points="68.71,-44.89 63.12,-53.89 73.1,-50.34 68.71,-44.89"/>
</a>
</g>
</g>
<!-- Node3 -->
<g id="Node000003" class="node">
<title>Node3</title>
<g id="a_Node000003"><a xlink:href="class_im_fusion_1_1_signal_receiver.html" target="_top" xlink:title="Base class for classes that can contain slots (i.e.">
<polygon fill="white" stroke="#666666" points="248,-74.5 119.5,-74.5 119.5,-55.25 248,-55.25 248,-74.5"/>
<text xml:space="preserve" text-anchor="middle" x="183.75" y="-61" font-family="Helvetica,sans-Serif" font-size="10.00">ImFusion::SignalReceiver</text>
</a>
</g>
</g>
<!-- Node3&#45;&gt;Node1 -->
<g id="edge2_Node000001_Node000003" class="edge">
<title>Node3&#45;&gt;Node1</title>
<g id="a_edge2_Node000001_Node000003"><a xlink:title=" ">
<path fill="none" stroke="#63b8ff" d="M163.7,-47.94C152,-38.64 137.68,-27.26 127.95,-19.52"/>
<polygon fill="#63b8ff" stroke="#63b8ff" points="161.19,-50.42 171.2,-53.9 165.55,-44.94 161.19,-50.42"/>
</a>
</g>
</g>
</g>
</svg>
