<?xml version="1.0" encoding="UTF-8" standalone="no"?>
<!DOCTYPE svg PUBLIC "-//W3C//DTD SVG 1.1//EN"
 "http://www.w3.org/Graphics/SVG/1.1/DTD/svg11.dtd">
<!-- Generated by graphviz version 14.1.4 (20260321.0153)
 -->
<!-- Title: ImFusion::Seg::StructuresView Pages: 1 -->
<svg width="300pt" height="83pt"
 viewBox="0.00 0.00 300.00 83.00" xmlns="http://www.w3.org/2000/svg" xmlns:xlink="http://www.w3.org/1999/xlink">
<g id="graph0" class="graph" transform="scale(1 1) rotate(0) translate(4 78.5)">
<title>ImFusion::Seg::StructuresView</title>
<!-- Node1 -->
<g id="Node000001" class="node">
<title>Node1</title>
<g id="a_Node000001"><a xlink:title="The StructuresView provides a flattened view onto a given set of label maps.">
<polygon fill="#999999" stroke="#666666" points="217.5,-19.25 65,-19.25 65,0 217.5,0 217.5,-19.25"/>
<text xml:space="preserve" text-anchor="middle" x="141.25" y="-5.75" font-family="Helvetica,sans-Serif" font-size="10.00">ImFusion::Seg::StructuresView</text>
</a>
</g>
</g>
<!-- Node2 -->
<g id="Node000002" class="node">
<title>Node2</title>
<g id="a_Node000002"><a xlink:href="class_im_fusion_1_1_signal_receiver.html" target="_top" xlink:title="Base class for classes that can contain slots (i.e.">
<polygon fill="white" stroke="#666666" points="128.5,-74.5 0,-74.5 0,-55.25 128.5,-55.25 128.5,-74.5"/>
<text xml:space="preserve" text-anchor="middle" x="64.25" y="-61" font-family="Helvetica,sans-Serif" font-size="10.00">ImFusion::SignalReceiver</text>
</a>
</g>
</g>
<!-- Node2&#45;&gt;Node1 -->
<g id="edge1_Node000001_Node000002" class="edge">
<title>Node2&#45;&gt;Node1</title>
<g id="a_edge1_Node000001_Node000002"><a xlink:title=" ">
<path fill="none" stroke="#63b8ff" d="M86.44,-48.53C99.93,-39.2 116.71,-27.6 128.12,-19.7"/>
<polygon fill="#63b8ff" stroke="#63b8ff" points="84.79,-45.41 78.56,-53.98 88.77,-51.17 84.79,-45.41"/>
</a>
</g>
</g>
<!-- Node3 -->
<g id="Node000003" class="node">
<title>Node3</title>
<g id="a_Node000003"><a xlink:href="class_im_fusion_1_1_utils_1_1_not_copyable.html" target="_top" xlink:title="Inherit from this class if your class should be neither copy&#45;constructible nor assignable.">
<polygon fill="white" stroke="#666666" points="292.12,-74.5 146.38,-74.5 146.38,-55.25 292.12,-55.25 292.12,-74.5"/>
<text xml:space="preserve" text-anchor="middle" x="219.25" y="-61" font-family="Helvetica,sans-Serif" font-size="10.00">ImFusion::Utils::NotCopyable</text>
</a>
</g>
</g>
<!-- Node3&#45;&gt;Node1 -->
<g id="edge2_Node000001_Node000003" class="edge">
<title>Node3&#45;&gt;Node1</title>
<g id="a_edge2_Node000001_Node000003"><a xlink:title=" ">
<path fill="none" stroke="#8b1a1a" d="M196.78,-48.53C183.1,-39.2 166.11,-27.6 154.55,-19.7"/>
<polygon fill="#8b1a1a" stroke="#8b1a1a" points="194.54,-51.24 204.77,-53.99 198.48,-45.46 194.54,-51.24"/>
</a>
</g>
</g>
</g>
</svg>
