<?xml version="1.0" encoding="UTF-8" standalone="no"?>
<!DOCTYPE svg PUBLIC "-//W3C//DTD SVG 1.1//EN"
 "http://www.w3.org/Graphics/SVG/1.1/DTD/svg11.dtd">
<!-- Generated by graphviz version 14.1.4 (20260321.0153)
 -->
<!-- Title: ImFusion::Dicom::ModuleList Pages: 1 -->
<svg width="898pt" height="185pt"
 viewBox="0.00 0.00 898.00 185.00" xmlns="http://www.w3.org/2000/svg" xmlns:xlink="http://www.w3.org/1999/xlink">
<g id="graph0" class="graph" transform="scale(1 1) rotate(0) translate(4 180.5)">
<title>ImFusion::Dicom::ModuleList</title>
<!-- Node1 -->
<g id="Node000001" class="node">
<title>Node1</title>
<g id="a_Node000001"><a xlink:title="Interface for classes that consist of modules.">
<polygon fill="#999999" stroke="#666666" points="144.25,-91.88 0,-91.88 0,-72.62 144.25,-72.62 144.25,-91.88"/>
<text xml:space="preserve" text-anchor="middle" x="72.12" y="-78.38" font-family="Helvetica,sans-Serif" font-size="10.00">ImFusion::Dicom::ModuleList</text>
</a>
</g>
</g>
<!-- Node2 -->
<g id="Node000002" class="node">
<title>Node2</title>
<g id="a_Node000002"><a xlink:href="class_im_fusion_1_1_dicom_1_1_dataset_module_list.html" target="_top" xlink:title="A stub that allows to use a Module with a DcmItem alone (without deriving some class from ModuleList)...">
<polygon fill="white" stroke="#666666" points="326.38,-176.5 194.88,-176.5 194.88,-146 326.38,-146 326.38,-176.5"/>
<text xml:space="preserve" text-anchor="start" x="202.88" y="-163" font-family="Helvetica,sans-Serif" font-size="10.00">ImFusion::Dicom::Dataset</text>
<text xml:space="preserve" text-anchor="middle" x="260.62" y="-151.75" font-family="Helvetica,sans-Serif" font-size="10.00">ModuleList</text>
</a>
</g>
</g>
<!-- Node1&#45;&gt;Node2 -->
<g id="edge1_Node000001_Node000002" class="edge">
<title>Node1&#45;&gt;Node2</title>
<g id="a_edge1_Node000001_Node000002"><a xlink:title=" ">
<path fill="none" stroke="#63b8ff" d="M100.04,-97.79C121.33,-109.66 152.06,-125.86 180.25,-137.25 187.59,-140.22 195.44,-143.02 203.24,-145.58"/>
<polygon fill="#63b8ff" stroke="#63b8ff" points="101.86,-94.8 91.43,-92.94 98.42,-100.9 101.86,-94.8"/>
</a>
</g>
</g>
<!-- Node3 -->
<g id="Node000003" class="node">
<title>Node3</title>
<g id="a_Node000003"><a xlink:href="class_im_fusion_1_1_dicom_1_1_enhanced_multi_frame_image_i_o_d_1_1_functional_group_macro.html" target="_top" xlink:title="This is a simplified implementation of the function group macros.">
<polygon fill="white" stroke="#666666" points="341,-128.12 180.25,-128.12 180.25,-86.38 341,-86.38 341,-128.12"/>
<text xml:space="preserve" text-anchor="start" x="188.25" y="-114.62" font-family="Helvetica,sans-Serif" font-size="10.00">ImFusion::Dicom::Enhanced</text>
<text xml:space="preserve" text-anchor="start" x="188.25" y="-103.38" font-family="Helvetica,sans-Serif" font-size="10.00">MultiFrameImageIOD::Functional</text>
<text xml:space="preserve" text-anchor="middle" x="260.62" y="-92.12" font-family="Helvetica,sans-Serif" font-size="10.00">GroupMacro</text>
</a>
</g>
</g>
<!-- Node1&#45;&gt;Node3 -->
<g id="edge2_Node000001_Node000003" class="edge">
<title>Node1&#45;&gt;Node3</title>
<g id="a_edge2_Node000001_Node000003"><a xlink:title=" ">
<path fill="none" stroke="#63b8ff" d="M155.87,-93.34C163.84,-94.41 171.92,-95.49 179.86,-96.56"/>
<polygon fill="#63b8ff" stroke="#63b8ff" points="156.57,-89.9 146.2,-92.05 155.64,-96.84 156.57,-89.9"/>
</a>
</g>
</g>
<!-- Node4 -->
<g id="Node000004" class="node">
<title>Node4</title>
<g id="a_Node000004"><a xlink:href="class_im_fusion_1_1_dicom_1_1_i_o_d.html" target="_top" xlink:title="Base class of a Dicom Information Object Definition (IOD).">
<polygon fill="white" stroke="#666666" points="318.12,-67.88 203.12,-67.88 203.12,-48.62 318.12,-48.62 318.12,-67.88"/>
<text xml:space="preserve" text-anchor="middle" x="260.62" y="-54.38" font-family="Helvetica,sans-Serif" font-size="10.00">ImFusion::Dicom::IOD</text>
</a>
</g>
</g>
<!-- Node1&#45;&gt;Node4 -->
<g id="edge3_Node000001_Node000004" class="edge">
<title>Node1&#45;&gt;Node4</title>
<g id="a_edge3_Node000001_Node000004"><a xlink:title=" ">
<path fill="none" stroke="#63b8ff" d="M156.08,-71.58C171.83,-69.55 187.99,-67.47 202.71,-65.57"/>
<polygon fill="#63b8ff" stroke="#63b8ff" points="155.67,-68.1 146.2,-72.85 156.56,-75.04 155.67,-68.1"/>
</a>
</g>
</g>
<!-- Node12 -->
<g id="Node000012" class="node">
<title>Node12</title>
<g id="a_Node000012"><a xlink:href="class_im_fusion_1_1_dicom_1_1_image_plane_1_1_detector_information_sequence.html" target="_top" xlink:title="C.8.4.11 NM Detector Module.">
<polygon fill="white" stroke="#666666" points="336.5,-30.5 184.75,-30.5 184.75,0 336.5,0 336.5,-30.5"/>
<text xml:space="preserve" text-anchor="start" x="192.75" y="-17" font-family="Helvetica,sans-Serif" font-size="10.00">ImFusion::Dicom::ImagePlane</text>
<text xml:space="preserve" text-anchor="middle" x="260.62" y="-5.75" font-family="Helvetica,sans-Serif" font-size="10.00">::DetectorInformationSequence</text>
</a>
</g>
</g>
<!-- Node1&#45;&gt;Node12 -->
<g id="edge11_Node000001_Node000012" class="edge">
<title>Node1&#45;&gt;Node12</title>
<g id="a_edge11_Node000001_Node000012"><a xlink:title=" ">
<path fill="none" stroke="#63b8ff" d="M106.9,-67.8C127.85,-59.07 155.41,-47.97 180.25,-39.25 188.4,-36.39 197.09,-33.55 205.62,-30.88"/>
<polygon fill="#63b8ff" stroke="#63b8ff" points="105.56,-64.57 97.7,-71.67 108.28,-71.02 105.56,-64.57"/>
</a>
</g>
</g>
<!-- Node5 -->
<g id="Node000005" class="node">
<title>Node5</title>
<g id="a_Node000005"><a xlink:href="class_im_fusion_1_1_dicom_1_1_enhanced_multi_frame_image_i_o_d.html" target="_top" xlink:title="Class representing Enhanced CT Image IOD (PS 3.3 A.38).">
<polygon fill="white" stroke="#666666" points="520.12,-122.5 379.62,-122.5 379.62,-92 520.12,-92 520.12,-122.5"/>
<text xml:space="preserve" text-anchor="start" x="387.62" y="-109" font-family="Helvetica,sans-Serif" font-size="10.00">ImFusion::Dicom::Enhanced</text>
<text xml:space="preserve" text-anchor="middle" x="449.88" y="-97.75" font-family="Helvetica,sans-Serif" font-size="10.00">MultiFrameImageIOD</text>
</a>
</g>
</g>
<!-- Node4&#45;&gt;Node5 -->
<g id="edge4_Node000004_Node000005" class="edge">
<title>Node4&#45;&gt;Node5</title>
<g id="a_edge4_Node000004_Node000005"><a xlink:title=" ">
<path fill="none" stroke="#63b8ff" d="M315.87,-70.96C324.3,-73.01 332.89,-75.15 341,-77.25 358.22,-81.7 376.91,-86.81 393.82,-91.52"/>
<polygon fill="#63b8ff" stroke="#63b8ff" points="316.96,-67.62 306.42,-68.68 315.32,-74.43 316.96,-67.62"/>
</a>
</g>
</g>
<!-- Node7 -->
<g id="Node000007" class="node">
<title>Node7</title>
<g id="a_Node000007"><a xlink:href="class_im_fusion_1_1_dicom_1_1_multi_frame_image_i_o_d.html" target="_top" xlink:title="Base IOD for classic DICOM files.">
<polygon fill="white" stroke="#666666" points="522.75,-73.5 377,-73.5 377,-43 522.75,-43 522.75,-73.5"/>
<text xml:space="preserve" text-anchor="start" x="385" y="-60" font-family="Helvetica,sans-Serif" font-size="10.00">ImFusion::Dicom::MultiFrame</text>
<text xml:space="preserve" text-anchor="middle" x="449.88" y="-48.75" font-family="Helvetica,sans-Serif" font-size="10.00">ImageIOD</text>
</a>
</g>
</g>
<!-- Node4&#45;&gt;Node7 -->
<g id="edge6_Node000004_Node000007" class="edge">
<title>Node4&#45;&gt;Node7</title>
<g id="a_edge6_Node000004_Node000007"><a xlink:title=" ">
<path fill="none" stroke="#63b8ff" d="M329.96,-58.25C345.14,-58.25 361.28,-58.25 376.61,-58.25"/>
<polygon fill="#63b8ff" stroke="#63b8ff" points="330.08,-54.75 320.08,-58.25 330.08,-61.75 330.08,-54.75"/>
</a>
</g>
</g>
<!-- Node11 -->
<g id="Node000011" class="node">
<title>Node11</title>
<g id="a_Node000011"><a xlink:href="class_im_fusion_1_1_philips_q_lab_i_o_d.html" target="_top" xlink:title="Loads ultrasound volume stored by Philips QLab software.">
<polygon fill="white" stroke="#666666" points="516.38,-24.88 383.38,-24.88 383.38,-5.63 516.38,-5.63 516.38,-24.88"/>
<text xml:space="preserve" text-anchor="middle" x="449.88" y="-11.38" font-family="Helvetica,sans-Serif" font-size="10.00">ImFusion::PhilipsQLabIOD</text>
</a>
</g>
</g>
<!-- Node4&#45;&gt;Node11 -->
<g id="edge10_Node000004_Node000011" class="edge">
<title>Node4&#45;&gt;Node11</title>
<g id="a_edge10_Node000004_Node000011"><a xlink:title=" ">
<path fill="none" stroke="#63b8ff" d="M316.42,-45.67C344.6,-39.2 378.48,-31.42 404.92,-25.34"/>
<polygon fill="#63b8ff" stroke="#63b8ff" points="315.96,-42.18 307,-47.83 317.53,-49 315.96,-42.18"/>
</a>
</g>
</g>
<!-- Node6 -->
<g id="Node000006" class="node">
<title>Node6</title>
<g id="a_Node000006"><a xlink:href="class_im_fusion_1_1_dicom_1_1_segmentation_storage_i_o_d.html" target="_top" xlink:title="Class representing Segmentation IOD.">
<polygon fill="white" stroke="#666666" points="715.75,-122.5 558.75,-122.5 558.75,-92 715.75,-92 715.75,-122.5"/>
<text xml:space="preserve" text-anchor="start" x="566.75" y="-109" font-family="Helvetica,sans-Serif" font-size="10.00">ImFusion::Dicom::Segmentation</text>
<text xml:space="preserve" text-anchor="middle" x="637.25" y="-97.75" font-family="Helvetica,sans-Serif" font-size="10.00">StorageIOD</text>
</a>
</g>
</g>
<!-- Node5&#45;&gt;Node6 -->
<g id="edge5_Node000005_Node000006" class="edge">
<title>Node5&#45;&gt;Node6</title>
<g id="a_edge5_Node000005_Node000006"><a xlink:title=" ">
<path fill="none" stroke="#63b8ff" d="M531.93,-107.25C540.76,-107.25 549.74,-107.25 558.53,-107.25"/>
<polygon fill="#63b8ff" stroke="#63b8ff" points="531.94,-103.75 521.94,-107.25 531.94,-110.75 531.94,-103.75"/>
</a>
</g>
</g>
<!-- Node8 -->
<g id="Node000008" class="node">
<title>Node8</title>
<g id="a_Node000008"><a xlink:href="class_im_fusion_1_1_dicom_1_1_volumetric_image_i_o_d.html" target="_top" xlink:title="The VolumetricImageIOD is a generic IOD for volumetric data that is stored slice by slice.">
<polygon fill="white" stroke="#666666" points="709,-73.5 565.5,-73.5 565.5,-43 709,-43 709,-73.5"/>
<text xml:space="preserve" text-anchor="start" x="573.5" y="-60" font-family="Helvetica,sans-Serif" font-size="10.00">ImFusion::Dicom::Volumetric</text>
<text xml:space="preserve" text-anchor="middle" x="637.25" y="-48.75" font-family="Helvetica,sans-Serif" font-size="10.00">ImageIOD</text>
</a>
</g>
</g>
<!-- Node7&#45;&gt;Node8 -->
<g id="edge7_Node000007_Node000008" class="edge">
<title>Node7&#45;&gt;Node8</title>
<g id="a_edge7_Node000007_Node000008"><a xlink:title=" ">
<path fill="none" stroke="#63b8ff" d="M534.53,-58.25C544.76,-58.25 555.14,-58.25 565.16,-58.25"/>
<polygon fill="#63b8ff" stroke="#63b8ff" points="534.59,-54.75 524.59,-58.25 534.59,-61.75 534.59,-54.75"/>
</a>
</g>
</g>
<!-- Node9 -->
<g id="Node000009" class="node">
<title>Node9</title>
<g id="a_Node000009"><a xlink:href="class_im_fusion_1_1_dicom_1_1_dicom_ge_signa_excite_i_o_d.html" target="_top" xlink:title="Extra IOD specialization for basic support of loading 4D MRI sequences created by GE Signa Excite dev...">
<polygon fill="white" stroke="#666666" points="890,-98.5 751.75,-98.5 751.75,-68 890,-68 890,-98.5"/>
<text xml:space="preserve" text-anchor="start" x="759.75" y="-85" font-family="Helvetica,sans-Serif" font-size="10.00">ImFusion::Dicom::DicomGe</text>
<text xml:space="preserve" text-anchor="middle" x="820.88" y="-73.75" font-family="Helvetica,sans-Serif" font-size="10.00">SignaExciteIOD</text>
</a>
</g>
</g>
<!-- Node8&#45;&gt;Node9 -->
<g id="edge8_Node000008_Node000009" class="edge">
<title>Node8&#45;&gt;Node9</title>
<g id="a_edge8_Node000008_Node000009"><a xlink:title=" ">
<path fill="none" stroke="#63b8ff" d="M720.38,-69.56C730.72,-70.98 741.21,-72.42 751.3,-73.81"/>
<polygon fill="#63b8ff" stroke="#63b8ff" points="721.13,-66.13 710.75,-68.23 720.18,-73.06 721.13,-66.13"/>
</a>
</g>
</g>
<!-- Node10 -->
<g id="Node000010" class="node">
<title>Node10</title>
<g id="a_Node000010"><a xlink:href="class_im_fusion_1_1_nuclear_medicine_image_i_o_d.html" target="_top" xlink:title="PS 3.3 A.5 Nuclear Medicine Image IOD Does not support saving yet.">
<polygon fill="white" stroke="#666666" points="888.5,-49.5 753.25,-49.5 753.25,-19 888.5,-19 888.5,-49.5"/>
<text xml:space="preserve" text-anchor="start" x="761.25" y="-36" font-family="Helvetica,sans-Serif" font-size="10.00">ImFusion::NuclearMedicine</text>
<text xml:space="preserve" text-anchor="middle" x="820.88" y="-24.75" font-family="Helvetica,sans-Serif" font-size="10.00">ImageIOD</text>
</a>
</g>
</g>
<!-- Node8&#45;&gt;Node10 -->
<g id="edge9_Node000008_Node000010" class="edge">
<title>Node8&#45;&gt;Node10</title>
<g id="a_edge9_Node000008_Node000010"><a xlink:title=" ">
<path fill="none" stroke="#63b8ff" d="M720.44,-47.39C731.27,-45.96 742.25,-44.51 752.78,-43.12"/>
<polygon fill="#63b8ff" stroke="#63b8ff" points="720.21,-43.89 710.75,-48.67 721.12,-50.83 720.21,-43.89"/>
</a>
</g>
</g>
</g>
</svg>
