<?xml version="1.0" encoding="UTF-8" standalone="no"?>
<!DOCTYPE svg PUBLIC "-//W3C//DTD SVG 1.1//EN"
 "http://www.w3.org/Graphics/SVG/1.1/DTD/svg11.dtd">
<!-- Generated by graphviz version 14.1.4 (20260321.0153)
 -->
<!-- Title: ImFusion::InteractiveAnnotation Pages: 1 -->
<svg width="361pt" height="193pt"
 viewBox="0.00 0.00 361.00 193.00" xmlns="http://www.w3.org/2000/svg" xmlns:xlink="http://www.w3.org/1999/xlink">
<g id="graph0" class="graph" transform="scale(1 1) rotate(0) translate(4 189)">
<title>ImFusion::InteractiveAnnotation</title>
<!-- Node1 -->
<g id="Node000001" class="node">
<title>Node1</title>
<g id="a_Node000001"><a xlink:title=" ">
<polygon fill="#999999" stroke="#666666" points="215.38,-19.25 60.62,-19.25 60.62,0 215.38,0 215.38,-19.25"/>
<text xml:space="preserve" text-anchor="middle" x="138" y="-5.75" font-family="Helvetica,sans-Serif" font-size="10.00">ImFusion::InteractiveAnnotation</text>
</a>
</g>
</g>
<!-- Node2 -->
<g id="Node000002" class="node">
<title>Node2</title>
<g id="a_Node000002"><a xlink:title=" ">
<polygon fill="white" stroke="#bfbfbf" points="52,-74.5 0,-74.5 0,-55.25 52,-55.25 52,-74.5"/>
<text xml:space="preserve" text-anchor="middle" x="26" y="-61" font-family="Helvetica,sans-Serif" font-size="10.00">QObject</text>
</a>
</g>
</g>
<!-- Node2&#45;&gt;Node1 -->
<g id="edge1_Node000001_Node000002" class="edge">
<title>Node2&#45;&gt;Node1</title>
<g id="a_edge1_Node000001_Node000002"><a xlink:title=" ">
<path fill="none" stroke="#63b8ff" d="M55.17,-50.01C75.27,-40.45 101.42,-28.02 118.91,-19.7"/>
<polygon fill="#63b8ff" stroke="#63b8ff" points="53.89,-46.74 46.37,-54.19 56.9,-53.06 53.89,-46.74"/>
</a>
</g>
</g>
<!-- Node3 -->
<g id="Node000003" class="node">
<title>Node3</title>
<g id="a_Node000003"><a xlink:href="class_im_fusion_1_1_interactive_object.html" target="_top" xlink:title="Wraps a GlObject pairing it with an optional Manipulator in order to attach it to an InteractiveView.">
<polygon fill="white" stroke="#666666" points="206.38,-74.5 69.62,-74.5 69.62,-55.25 206.38,-55.25 206.38,-74.5"/>
<text xml:space="preserve" text-anchor="middle" x="138" y="-61" font-family="Helvetica,sans-Serif" font-size="10.00">ImFusion::InteractiveObject</text>
</a>
</g>
</g>
<!-- Node3&#45;&gt;Node1 -->
<g id="edge2_Node000001_Node000003" class="edge">
<title>Node3&#45;&gt;Node1</title>
<g id="a_edge2_Node000001_Node000003"><a xlink:title=" ">
<path fill="none" stroke="#63b8ff" d="M138,-43.63C138,-35.34 138,-26.17 138,-19.61"/>
<polygon fill="#63b8ff" stroke="#63b8ff" points="134.5,-43.57 138,-53.57 141.5,-43.57 134.5,-43.57"/>
</a>
</g>
</g>
<!-- Node4 -->
<g id="Node000004" class="node">
<title>Node4</title>
<g id="a_Node000004"><a xlink:href="class_im_fusion_1_1_g_u_i_1_1_view_object.html" target="_top" xlink:title="Wraps a GlObject pairing it with an optional EventHandler in order to attach it to a View.">
<polygon fill="white" stroke="#666666" points="206.38,-129.75 69.62,-129.75 69.62,-110.5 206.38,-110.5 206.38,-129.75"/>
<text xml:space="preserve" text-anchor="middle" x="138" y="-116.25" font-family="Helvetica,sans-Serif" font-size="10.00">ImFusion::GUI::ViewObject</text>
</a>
</g>
</g>
<!-- Node4&#45;&gt;Node3 -->
<g id="edge3_Node000003_Node000004" class="edge">
<title>Node4&#45;&gt;Node3</title>
<g id="a_edge3_Node000003_Node000004"><a xlink:title=" ">
<path fill="none" stroke="#63b8ff" d="M138,-98.88C138,-90.59 138,-81.42 138,-74.86"/>
<polygon fill="#63b8ff" stroke="#63b8ff" points="134.5,-98.82 138,-108.82 141.5,-98.82 134.5,-98.82"/>
</a>
</g>
</g>
<!-- Node5 -->
<g id="Node000005" class="node">
<title>Node5</title>
<g id="a_Node000005"><a xlink:href="class_im_fusion_1_1_utils_1_1_not_copyable.html" target="_top" xlink:title="Inherit from this class if your class should be neither copy&#45;constructible nor assignable.">
<polygon fill="white" stroke="#666666" points="210.88,-185 65.12,-185 65.12,-165.75 210.88,-165.75 210.88,-185"/>
<text xml:space="preserve" text-anchor="middle" x="138" y="-171.5" font-family="Helvetica,sans-Serif" font-size="10.00">ImFusion::Utils::NotCopyable</text>
</a>
</g>
</g>
<!-- Node5&#45;&gt;Node4 -->
<g id="edge4_Node000004_Node000005" class="edge">
<title>Node5&#45;&gt;Node4</title>
<g id="a_edge4_Node000004_Node000005"><a xlink:title=" ">
<path fill="none" stroke="#8b1a1a" d="M138,-154.13C138,-145.84 138,-136.67 138,-130.11"/>
<polygon fill="#8b1a1a" stroke="#8b1a1a" points="134.5,-154.07 138,-164.07 141.5,-154.07 134.5,-154.07"/>
</a>
</g>
</g>
<!-- Node6 -->
<g id="Node000006" class="node">
<title>Node6</title>
<g id="a_Node000006"><a xlink:href="class_im_fusion_1_1_signal_receiver.html" target="_top" xlink:title="Base class for classes that can contain slots (i.e.">
<polygon fill="white" stroke="#666666" points="353.25,-74.5 224.75,-74.5 224.75,-55.25 353.25,-55.25 353.25,-74.5"/>
<text xml:space="preserve" text-anchor="middle" x="289" y="-61" font-family="Helvetica,sans-Serif" font-size="10.00">ImFusion::SignalReceiver</text>
</a>
</g>
</g>
<!-- Node6&#45;&gt;Node1 -->
<g id="edge5_Node000001_Node000006" class="edge">
<title>Node6&#45;&gt;Node1</title>
<g id="a_edge5_Node000001_Node000006"><a xlink:title=" ">
<path fill="none" stroke="#63b8ff" d="M252.64,-51.05C225.19,-41.37 188.19,-28.32 163.74,-19.7"/>
<polygon fill="#63b8ff" stroke="#63b8ff" points="251.36,-54.31 261.96,-54.34 253.69,-47.71 251.36,-54.31"/>
</a>
</g>
</g>
</g>
</svg>
