<?xml version="1.0" encoding="UTF-8" standalone="no"?>
<!DOCTYPE svg PUBLIC "-//W3C//DTD SVG 1.1//EN"
 "http://www.w3.org/Graphics/SVG/1.1/DTD/svg11.dtd">
<!-- Generated by graphviz version 14.1.4 (20260321.0153)
 -->
<!-- Title: ImFusion::InteractionView3D Pages: 1 -->
<svg width="284pt" height="193pt"
 viewBox="0.00 0.00 284.00 193.00" xmlns="http://www.w3.org/2000/svg" xmlns:xlink="http://www.w3.org/1999/xlink">
<g id="graph0" class="graph" transform="scale(1 1) rotate(0) translate(4 189)">
<title>ImFusion::InteractionView3D</title>
<!-- Node1 -->
<g id="Node000001" class="node">
<title>Node1</title>
<g id="a_Node000001"><a xlink:title="Standard 2D/3D view interaction.">
<polygon fill="#999999" stroke="#666666" points="209.38,-19.25 66.62,-19.25 66.62,0 209.38,0 209.38,-19.25"/>
<text xml:space="preserve" text-anchor="middle" x="138" y="-5.75" font-family="Helvetica,sans-Serif" font-size="10.00">ImFusion::InteractionView3D</text>
</a>
</g>
</g>
<!-- Node2 -->
<g id="Node000002" class="node">
<title>Node2</title>
<g id="a_Node000002"><a xlink:href="class_im_fusion_1_1_view_interaction.html" target="_top" xlink:title="Base class for all view interactions.">
<polygon fill="white" stroke="#666666" points="130,-74.5 0,-74.5 0,-55.25 130,-55.25 130,-74.5"/>
<text xml:space="preserve" text-anchor="middle" x="65" y="-61" font-family="Helvetica,sans-Serif" font-size="10.00">ImFusion::ViewInteraction</text>
</a>
</g>
</g>
<!-- Node2&#45;&gt;Node1 -->
<g id="edge1_Node000001_Node000002" class="edge">
<title>Node2&#45;&gt;Node1</title>
<g id="a_edge1_Node000001_Node000002"><a xlink:title=" ">
<path fill="none" stroke="#63b8ff" d="M86.47,-48.22C99.28,-38.87 115.1,-27.33 125.8,-19.52"/>
<polygon fill="#63b8ff" stroke="#63b8ff" points="84.62,-45.23 78.61,-53.95 88.75,-50.88 84.62,-45.23"/>
</a>
</g>
</g>
<!-- Node3 -->
<g id="Node000003" class="node">
<title>Node3</title>
<g id="a_Node000003"><a xlink:href="class_im_fusion_1_1_interaction.html" target="_top" xlink:title="Base interface class for view and overlay interactions.">
<polygon fill="white" stroke="#666666" points="119.12,-129.75 10.88,-129.75 10.88,-110.5 119.12,-110.5 119.12,-129.75"/>
<text xml:space="preserve" text-anchor="middle" x="65" y="-116.25" font-family="Helvetica,sans-Serif" font-size="10.00">ImFusion::Interaction</text>
</a>
</g>
</g>
<!-- Node3&#45;&gt;Node2 -->
<g id="edge2_Node000002_Node000003" class="edge">
<title>Node3&#45;&gt;Node2</title>
<g id="a_edge2_Node000002_Node000003"><a xlink:title=" ">
<path fill="none" stroke="#63b8ff" d="M65,-98.88C65,-90.59 65,-81.42 65,-74.86"/>
<polygon fill="#63b8ff" stroke="#63b8ff" points="61.5,-98.82 65,-108.82 68.5,-98.82 61.5,-98.82"/>
</a>
</g>
</g>
<!-- Node4 -->
<g id="Node000004" class="node">
<title>Node4</title>
<g id="a_Node000004"><a xlink:title=" ">
<polygon fill="white" stroke="#bfbfbf" points="91,-185 39,-185 39,-165.75 91,-165.75 91,-185"/>
<text xml:space="preserve" text-anchor="middle" x="65" y="-171.5" font-family="Helvetica,sans-Serif" font-size="10.00">QObject</text>
</a>
</g>
</g>
<!-- Node4&#45;&gt;Node3 -->
<g id="edge3_Node000003_Node000004" class="edge">
<title>Node4&#45;&gt;Node3</title>
<g id="a_edge3_Node000003_Node000004"><a xlink:title=" ">
<path fill="none" stroke="#63b8ff" d="M65,-154.13C65,-145.84 65,-136.67 65,-130.11"/>
<polygon fill="#63b8ff" stroke="#63b8ff" points="61.5,-154.07 65,-164.07 68.5,-154.07 61.5,-154.07"/>
</a>
</g>
</g>
<!-- Node5 -->
<g id="Node000005" class="node">
<title>Node5</title>
<g id="a_Node000005"><a xlink:href="class_im_fusion_1_1_signal_receiver.html" target="_top" xlink:title="Base class for classes that can contain slots (i.e.">
<polygon fill="white" stroke="#666666" points="276.25,-74.5 147.75,-74.5 147.75,-55.25 276.25,-55.25 276.25,-74.5"/>
<text xml:space="preserve" text-anchor="middle" x="212" y="-61" font-family="Helvetica,sans-Serif" font-size="10.00">ImFusion::SignalReceiver</text>
</a>
</g>
</g>
<!-- Node5&#45;&gt;Node1 -->
<g id="edge4_Node000001_Node000005" class="edge">
<title>Node5&#45;&gt;Node1</title>
<g id="a_edge4_Node000001_Node000005"><a xlink:title=" ">
<path fill="none" stroke="#63b8ff" d="M190.24,-48.22C177.25,-38.87 161.22,-27.33 150.37,-19.52"/>
<polygon fill="#63b8ff" stroke="#63b8ff" points="188.06,-50.96 198.22,-53.96 192.15,-45.28 188.06,-50.96"/>
</a>
</g>
</g>
</g>
</svg>
