<?xml version="1.0" encoding="UTF-8" standalone="no"?>
<!DOCTYPE svg PUBLIC "-//W3C//DTD SVG 1.1//EN"
 "http://www.w3.org/Graphics/SVG/1.1/DTD/svg11.dtd">
<!-- Generated by graphviz version 14.1.4 (20260321.0153)
 -->
<!-- Title: ImFusion::Data Pages: 1 -->
<!--zoomable 347 -->

<svg id="main" version="1.1" xmlns="http://www.w3.org/2000/svg" xmlns:xlink="http://www.w3.org/1999/xlink" xml:space="preserve" onload="init(evt)">

<style type="text/css"><![CDATA[
.node, .edge {opacity: 0.7;}
.node.selected, .edge.selected {opacity: 1;}
.edge:hover path { stroke: red; }
.edge:hover polygon { stroke: red; fill: red; }
]]></style>

<defs>
  <circle id="rim" cx="0" cy="0" r="7"/>
  <circle id="rim2" cx="0" cy="0" r="3.5"/>
  <g id="zoomPlus">
    <use xlink:href="#rim" fill="#404040"><set attributeName="fill" to="#808080" begin="zoomplus.mouseover" end="zoomplus.mouseout"/></use>
    <path d="M-4,0h8M0,-4v8" fill="none" stroke="white" stroke-width="1.5" pointer-events="none"/>
  </g>
  <g id="zoomMin">
    <use xlink:href="#rim" fill="#404040"><set attributeName="fill" to="#808080" begin="zoomminus.mouseover" end="zoomminus.mouseout"/></use>
    <path d="M-4,0h8" fill="none" stroke="white" stroke-width="1.5" pointer-events="none"/>
  </g>
  <g id="arrowUp" transform="translate(30 24)">
    <use xlink:href="#rim"/>
    <path pointer-events="none" fill="none" stroke="white" stroke-width="1.5" d="M0,-3.0v7 M-2.5,-0.5L0,-3.0L2.5,-0.5"/>
  </g>
  <g id="arrowRight" transform="rotate(90) translate(36 -43)">
    <use xlink:href="#rim"/>
    <path pointer-events="none" fill="none" stroke="white" stroke-width="1.5" d="M0,-3.0v7 M-2.5,-0.5L0,-3.0L2.5,-0.5"/>
  </g>
  <g id="arrowDown" transform="rotate(180) translate(-30 -48)">
    <use xlink:href="#rim"/>
    <path pointer-events="none" fill="none" stroke="white" stroke-width="1.5" d="M0,-3.0v7 M-2.5,-0.5L0,-3.0L2.5,-0.5"/>
  </g>
  <g id="arrowLeft" transform="rotate(270) translate(-36 17)">
    <use xlink:href="#rim"/>
    <path pointer-events="none" fill="none" stroke="white" stroke-width="1.5" d="M0,-3.0v7 M-2.5,-0.5L0,-3.0L2.5,-0.5"/>
  </g>
  <g id="resetDef">
    <use xlink:href="#rim2" fill="#404040"><set attributeName="fill" to="#808080" begin="reset.mouseover" end="reset.mouseout"/></use>
  </g>
</defs>
<script type="application/ecmascript">
var viewWidth = 629;
var viewHeight = 347;
var sectionId = 'dynsection-0';
</script>
<script type="application/ecmascript" xlink:href="svg.min.js"/>
<svg id="graph" class="graph">
<g id="viewport">
<title>ImFusion::Data</title>
<!-- Node1 -->
<g id="Node000001" class="node">
<title>Node1</title>
<g id="a_Node000001"><a xlink:title="Virtual base class for representing data from which all concrete data class such as images need to de...">
<polygon fill="#999999" stroke="#666666" points="83.5,-228.25 0,-228.25 0,-209 83.5,-209 83.5,-228.25"/>
<text xml:space="preserve" text-anchor="middle" x="41.75" y="-214.75" font-family="Helvetica,sans-Serif" font-size="10.00">ImFusion::Data</text>
</a>
</g>
</g>
<!-- Node2 -->
<g id="Node000002" class="node">
<title>Node2</title>
<g id="a_Node000002"><a xlink:href="class_im_fusion_1_1_data_group.html" target="_top" xlink:title="Data element that groups multiple Data instances together in a hierarchical fashion.">
<polygon fill="white" stroke="#666666" points="246.12,-339.25 136.38,-339.25 136.38,-320 246.12,-320 246.12,-339.25"/>
<text xml:space="preserve" text-anchor="middle" x="191.25" y="-325.75" font-family="Helvetica,sans-Serif" font-size="10.00">ImFusion::DataGroup</text>
</a>
</g>
</g>
<!-- Node1&#45;&gt;Node2 -->
<g id="edge1_Node000001_Node000002" class="edge">
<title>Node1&#45;&gt;Node2</title>
<g id="a_edge1_Node000001_Node000002"><a xlink:title=" ">
<path fill="none" stroke="#63b8ff" d="M53.84,-238.44C66.82,-259.76 90.29,-293.11 119.5,-311.62 124.64,-314.88 130.34,-317.55 136.21,-319.74"/>
<polygon fill="#63b8ff" stroke="#63b8ff" points="56.88,-236.69 48.8,-229.83 50.84,-240.23 56.88,-236.69"/>
</a>
</g>
</g>
<!-- Node3 -->
<g id="Node000003" class="node">
<title>Node3</title>
<g id="a_Node000003"><a xlink:href="class_im_fusion_1_1_mesh.html" target="_top" xlink:title="Represents a triangle mesh.">
<polygon fill="white" stroke="#666666" points="234.5,-302.25 148,-302.25 148,-283 234.5,-283 234.5,-302.25"/>
<text xml:space="preserve" text-anchor="middle" x="191.25" y="-288.75" font-family="Helvetica,sans-Serif" font-size="10.00">ImFusion::Mesh</text>
</a>
</g>
</g>
<!-- Node1&#45;&gt;Node3 -->
<g id="edge2_Node000001_Node000003" class="edge">
<title>Node1&#45;&gt;Node3</title>
<g id="a_edge2_Node000001_Node000003"><a xlink:title=" ">
<path fill="none" stroke="#63b8ff" d="M62.02,-235.93C76.79,-248.35 98.2,-264.6 119.5,-274.62 128.33,-278.78 138.25,-282.06 147.8,-284.62"/>
<polygon fill="#63b8ff" stroke="#63b8ff" points="64.33,-233.3 54.48,-229.41 59.76,-238.6 64.33,-233.3"/>
</a>
</g>
</g>
<!-- Node4 -->
<g id="Node000004" class="node">
<title>Node4</title>
<g id="a_Node000004"><a xlink:href="class_im_fusion_1_1_point_cloud.html" target="_top" xlink:title="Data structure for point clouds.">
<polygon fill="white" stroke="#666666" points="246.5,-265.25 136,-265.25 136,-246 246.5,-246 246.5,-265.25"/>
<text xml:space="preserve" text-anchor="middle" x="191.25" y="-251.75" font-family="Helvetica,sans-Serif" font-size="10.00">ImFusion::PointCloud</text>
</a>
</g>
</g>
<!-- Node1&#45;&gt;Node4 -->
<g id="edge3_Node000001_Node000004" class="edge">
<title>Node1&#45;&gt;Node4</title>
<g id="a_edge3_Node000001_Node000004"><a xlink:title=" ">
<path fill="none" stroke="#63b8ff" d="M94.14,-231.52C112.44,-236.11 132.76,-241.2 149.99,-245.53"/>
<polygon fill="#63b8ff" stroke="#63b8ff" points="95.07,-228.14 84.52,-229.1 93.37,-234.93 95.07,-228.14"/>
</a>
</g>
</g>
<!-- Node6 -->
<g id="Node000006" class="node">
<title>Node6</title>
<g id="a_Node000006"><a xlink:href="class_im_fusion_1_1_shared_image_set.html" target="_top" xlink:title="Set of images independent of their storage location.">
<polygon fill="white" stroke="#666666" points="258.88,-228.25 123.62,-228.25 123.62,-209 258.88,-209 258.88,-228.25"/>
<text xml:space="preserve" text-anchor="middle" x="191.25" y="-214.75" font-family="Helvetica,sans-Serif" font-size="10.00">ImFusion::SharedImageSet</text>
</a>
</g>
</g>
<!-- Node1&#45;&gt;Node6 -->
<g id="edge5_Node000001_Node000006" class="edge">
<title>Node1&#45;&gt;Node6</title>
<g id="a_edge5_Node000001_Node000006"><a xlink:title=" ">
<path fill="none" stroke="#63b8ff" d="M95.12,-218.62C104.27,-218.62 113.9,-218.62 123.38,-218.62"/>
<polygon fill="#63b8ff" stroke="#63b8ff" points="95.35,-215.13 85.35,-218.63 95.35,-222.13 95.35,-215.13"/>
</a>
</g>
</g>
<!-- Node8 -->
<g id="Node000008" class="node">
<title>Node8</title>
<g id="a_Node000008"><a xlink:href="class_im_fusion_1_1_tensor_base.html" target="_top" xlink:title="Abstract base class for Tensors.">
<polygon fill="white" stroke="#666666" points="248.38,-191.25 134.12,-191.25 134.12,-172 248.38,-172 248.38,-191.25"/>
<text xml:space="preserve" text-anchor="middle" x="191.25" y="-177.75" font-family="Helvetica,sans-Serif" font-size="10.00">ImFusion::TensorBase</text>
</a>
</g>
</g>
<!-- Node1&#45;&gt;Node8 -->
<g id="edge7_Node000001_Node000008" class="edge">
<title>Node1&#45;&gt;Node8</title>
<g id="a_edge7_Node000001_Node000008"><a xlink:title=" ">
<path fill="none" stroke="#63b8ff" d="M94.14,-205.73C112.44,-201.14 132.76,-196.05 149.99,-191.72"/>
<polygon fill="#63b8ff" stroke="#63b8ff" points="93.37,-202.32 84.52,-208.15 95.07,-209.11 93.37,-202.32"/>
</a>
</g>
</g>
<!-- Node11 -->
<g id="Node000011" class="node">
<title>Node11</title>
<g id="a_Node000011"><a xlink:href="class_im_fusion_1_1_tracking_sequence.html" target="_top" xlink:title="Sequence of rigid tracking data with optional timestamps, quality values and flags.">
<polygon fill="white" stroke="#666666" points="263,-154.25 119.5,-154.25 119.5,-135 263,-135 263,-154.25"/>
<text xml:space="preserve" text-anchor="middle" x="191.25" y="-140.75" font-family="Helvetica,sans-Serif" font-size="10.00">ImFusion::TrackingSequence</text>
</a>
</g>
</g>
<!-- Node1&#45;&gt;Node11 -->
<g id="edge10_Node000001_Node000011" class="edge">
<title>Node1&#45;&gt;Node11</title>
<g id="a_edge10_Node000001_Node000011"><a xlink:title=" ">
<path fill="none" stroke="#63b8ff" d="M62.02,-201.32C76.79,-188.9 98.2,-172.65 119.5,-162.62 126.15,-159.5 133.42,-156.86 140.69,-154.66"/>
<polygon fill="#63b8ff" stroke="#63b8ff" points="59.76,-198.65 54.48,-207.84 64.33,-203.95 59.76,-198.65"/>
</a>
</g>
</g>
<!-- Node12 -->
<g id="Node000012" class="node">
<title>Node12</title>
<g id="a_Node000012"><a xlink:href="class_im_fusion_1_1_tree.html" target="_top" xlink:title="Data structure for trees.">
<polygon fill="white" stroke="#666666" points="232.25,-87.25 150.25,-87.25 150.25,-68 232.25,-68 232.25,-87.25"/>
<text xml:space="preserve" text-anchor="middle" x="191.25" y="-73.75" font-family="Helvetica,sans-Serif" font-size="10.00">ImFusion::Tree</text>
</a>
</g>
</g>
<!-- Node1&#45;&gt;Node12 -->
<g id="edge11_Node000001_Node000012" class="edge">
<title>Node1&#45;&gt;Node12</title>
<g id="a_edge11_Node000001_Node000012"><a xlink:title=" ">
<path fill="none" stroke="#63b8ff" d="M56.1,-199.38C70.41,-179.55 94.45,-148.43 119.5,-125.62 136.07,-110.54 157.71,-96.55 172.67,-87.61"/>
<polygon fill="#63b8ff" stroke="#63b8ff" points="53.36,-197.19 50.43,-207.37 59.07,-201.24 53.36,-197.19"/>
</a>
</g>
</g>
<!-- Node5 -->
<g id="Node000005" class="node">
<title>Node5</title>
<g id="a_Node000005"><a xlink:href="class_im_fusion_1_1_frame_based_point_cloud.html" target="_top" xlink:title="Data structure for point clouds with frame&#45;dependent point data.">
<polygon fill="white" stroke="#666666" points="454.5,-276.88 314,-276.88 314,-246.38 454.5,-246.38 454.5,-276.88"/>
<text xml:space="preserve" text-anchor="start" x="322" y="-263.38" font-family="Helvetica,sans-Serif" font-size="10.00">ImFusion::FrameBasedPoint</text>
<text xml:space="preserve" text-anchor="middle" x="384.25" y="-252.12" font-family="Helvetica,sans-Serif" font-size="10.00">Cloud</text>
</a>
</g>
</g>
<!-- Node4&#45;&gt;Node5 -->
<g id="edge4_Node000004_Node000005" class="edge">
<title>Node4&#45;&gt;Node5</title>
<g id="a_edge4_Node000004_Node000005"><a xlink:title=" ">
<path fill="none" stroke="#63b8ff" d="M258.43,-257.7C276.22,-258.26 295.52,-258.87 313.5,-259.43"/>
<polygon fill="#63b8ff" stroke="#63b8ff" points="258.6,-254.21 248.5,-257.39 258.38,-261.2 258.6,-254.21"/>
</a>
</g>
</g>
<!-- Node7 -->
<g id="Node000007" class="node">
<title>Node7</title>
<g id="a_Node000007"><a xlink:href="class_im_fusion_1_1_tracked_shared_image_set.html" target="_top" xlink:title="Set of images with arbitrarily sampled tracking data.">
<polygon fill="white" stroke="#666666" points="469.5,-228.25 299,-228.25 299,-209 469.5,-209 469.5,-228.25"/>
<text xml:space="preserve" text-anchor="middle" x="384.25" y="-214.75" font-family="Helvetica,sans-Serif" font-size="10.00">ImFusion::TrackedSharedImageSet</text>
</a>
</g>
</g>
<!-- Node6&#45;&gt;Node7 -->
<g id="edge6_Node000006_Node000007" class="edge">
<title>Node6&#45;&gt;Node7</title>
<g id="a_edge6_Node000006_Node000007"><a xlink:title=" ">
<path fill="none" stroke="#63b8ff" d="M270.79,-218.62C279.95,-218.62 289.33,-218.62 298.57,-218.62"/>
<polygon fill="#63b8ff" stroke="#63b8ff" points="270.83,-215.13 260.83,-218.63 270.83,-222.13 270.83,-215.13"/>
</a>
</g>
</g>
<!-- Node9 -->
<g id="Node000009" class="node">
<title>Node9</title>
<g id="a_Node000009"><a xlink:href="class_im_fusion_1_1_tensor.html" target="_top" xlink:title=" ">
<polygon fill="white" stroke="#666666" points="441.75,-191.25 326.75,-191.25 326.75,-172 441.75,-172 441.75,-191.25"/>
<text xml:space="preserve" text-anchor="middle" x="384.25" y="-177.75" font-family="Helvetica,sans-Serif" font-size="10.00">ImFusion::Tensor&lt; 1 &gt;</text>
</a>
</g>
</g>
<!-- Node8&#45;&gt;Node9 -->
<g id="edge8_Node000008_Node000009" class="edge">
<title>Node8&#45;&gt;Node9</title>
<g id="a_edge8_Node000008_Node000009"><a xlink:title=" ">
<path fill="none" stroke="#63b8ff" d="M260.25,-181.62C281.95,-181.62 305.72,-181.62 326.53,-181.62"/>
<polygon fill="#63b8ff" stroke="#63b8ff" points="260.29,-178.13 250.29,-181.63 260.29,-185.13 260.29,-178.13"/>
</a>
</g>
</g>
<!-- Node10 -->
<g id="Node000010" class="node">
<title>Node10</title>
<g id="a_Node000010"><a xlink:href="class_im_fusion_1_1_tensor.html" target="_top" xlink:title="Data class for strongly typed dense tensors of fixed rank and data type.">
<polygon fill="white" stroke="#666666" points="451.12,-154.25 317.38,-154.25 317.38,-135 451.12,-135 451.12,-154.25"/>
<text xml:space="preserve" text-anchor="middle" x="384.25" y="-140.75" font-family="Helvetica,sans-Serif" font-size="10.00">ImFusion::Tensor&lt; Order &gt;</text>
</a>
</g>
</g>
<!-- Node8&#45;&gt;Node10 -->
<g id="edge9_Node000008_Node000010" class="edge">
<title>Node8&#45;&gt;Node10</title>
<g id="a_edge9_Node000008_Node000010"><a xlink:title=" ">
<path fill="none" stroke="#63b8ff" d="M255.46,-169.38C280,-164.63 307.76,-159.25 331.12,-154.72"/>
<polygon fill="#63b8ff" stroke="#63b8ff" points="255.08,-165.89 245.93,-171.23 256.41,-172.76 255.08,-165.89"/>
</a>
</g>
</g>
<!-- Node13 -->
<g id="Node000013" class="node">
<title>Node13</title>
<g id="a_Node000013"><a xlink:href="class_im_fusion_1_1_typed_tree.html" target="_top" xlink:title=" ">
<polygon fill="white" stroke="#666666" points="438.75,-116.88 329.75,-116.88 329.75,-86.38 438.75,-86.38 438.75,-116.88"/>
<text xml:space="preserve" text-anchor="start" x="337.75" y="-103.38" font-family="Helvetica,sans-Serif" font-size="10.00">ImFusion::TypedTree</text>
<text xml:space="preserve" text-anchor="middle" x="384.25" y="-92.12" font-family="Helvetica,sans-Serif" font-size="10.00">&lt; std::vector&lt; int &gt; &gt;</text>
</a>
</g>
</g>
<!-- Node12&#45;&gt;Node13 -->
<g id="edge12_Node000012_Node000013" class="edge">
<title>Node12&#45;&gt;Node13</title>
<g id="a_edge12_Node000012_Node000013"><a xlink:title=" ">
<path fill="none" stroke="#63b8ff" d="M243.66,-84.08C270.22,-87.42 302.6,-91.49 329.49,-94.87"/>
<polygon fill="#63b8ff" stroke="#63b8ff" points="244.15,-80.62 233.79,-82.84 243.28,-87.56 244.15,-80.62"/>
</a>
</g>
</g>
<!-- Node15 -->
<g id="Node000015" class="node">
<title>Node15</title>
<g id="a_Node000015"><a xlink:href="class_im_fusion_1_1_typed_tree.html" target="_top" xlink:title=" ">
<polygon fill="white" stroke="#666666" points="438.38,-67.88 330.12,-67.88 330.12,-37.38 438.38,-37.38 438.38,-67.88"/>
<text xml:space="preserve" text-anchor="start" x="338.12" y="-54.38" font-family="Helvetica,sans-Serif" font-size="10.00">ImFusion::TypedTree</text>
<text xml:space="preserve" text-anchor="middle" x="384.25" y="-43.12" font-family="Helvetica,sans-Serif" font-size="10.00">&lt; vec3 &gt;</text>
</a>
</g>
</g>
<!-- Node12&#45;&gt;Node15 -->
<g id="edge14_Node000012_Node000015" class="edge">
<title>Node12&#45;&gt;Node15</title>
<g id="a_edge14_Node000012_Node000015"><a xlink:title=" ">
<path fill="none" stroke="#63b8ff" d="M243.71,-70.89C270.37,-67.4 302.91,-63.14 329.85,-59.61"/>
<polygon fill="#63b8ff" stroke="#63b8ff" points="243.25,-67.42 233.79,-72.19 244.16,-74.36 243.25,-67.42"/>
</a>
</g>
</g>
<!-- Node17 -->
<g id="Node000017" class="node">
<title>Node17</title>
<g id="a_Node000017"><a xlink:href="class_im_fusion_1_1_typed_tree.html" target="_top" xlink:title="Data structure for typed trees.">
<polygon fill="white" stroke="#666666" points="450.38,-19.25 318.12,-19.25 318.12,0 450.38,0 450.38,-19.25"/>
<text xml:space="preserve" text-anchor="middle" x="384.25" y="-5.75" font-family="Helvetica,sans-Serif" font-size="10.00">ImFusion::TypedTree&lt; T &gt;</text>
</a>
</g>
</g>
<!-- Node12&#45;&gt;Node17 -->
<g id="edge16_Node000012_Node000017" class="edge">
<title>Node12&#45;&gt;Node17</title>
<g id="a_edge16_Node000012_Node000017"><a xlink:title=" ">
<path fill="none" stroke="#63b8ff" d="M221.25,-62.31C242.35,-51.67 271.86,-37.8 299,-28.62 309.08,-25.21 320.06,-22.23 330.65,-19.71"/>
<polygon fill="#63b8ff" stroke="#63b8ff" points="219.7,-59.17 212.39,-66.85 222.89,-65.4 219.7,-59.17"/>
</a>
</g>
</g>
<!-- Node14 -->
<g id="Node000014" class="node">
<title>Node14</title>
<g id="a_Node000014"><a xlink:href="class_im_fusion_1_1_mesh_octree.html" target="_top" xlink:title="Class representing a mesh octree. Faces of the mesh are split between the nodes of the tree,...">
<polygon fill="white" stroke="#666666" points="621.25,-111.25 505.5,-111.25 505.5,-92 621.25,-92 621.25,-111.25"/>
<text xml:space="preserve" text-anchor="middle" x="563.38" y="-97.75" font-family="Helvetica,sans-Serif" font-size="10.00">ImFusion::MeshOctree</text>
</a>
</g>
</g>
<!-- Node13&#45;&gt;Node14 -->
<g id="edge13_Node000013_Node000014" class="edge">
<title>Node13&#45;&gt;Node14</title>
<g id="a_edge13_Node000013_Node000014"><a xlink:title=" ">
<path fill="none" stroke="#63b8ff" d="M450.19,-101.62C468.23,-101.62 487.68,-101.62 505.24,-101.62"/>
<polygon fill="#63b8ff" stroke="#63b8ff" points="450.39,-98.13 440.39,-101.63 450.39,-105.13 450.39,-98.13"/>
</a>
</g>
</g>
<!-- Node16 -->
<g id="Node000016" class="node">
<title>Node16</title>
<g id="a_Node000016"><a xlink:href="class_im_fusion_1_1_point_tree.html" target="_top" xlink:title="Data structure for trees with nodes containing a 3D point.">
<polygon fill="white" stroke="#666666" points="615.62,-62.25 511.12,-62.25 511.12,-43 615.62,-43 615.62,-62.25"/>
<text xml:space="preserve" text-anchor="middle" x="563.38" y="-48.75" font-family="Helvetica,sans-Serif" font-size="10.00">ImFusion::PointTree</text>
</a>
</g>
</g>
<!-- Node15&#45;&gt;Node16 -->
<g id="edge15_Node000015_Node000016" class="edge">
<title>Node15&#45;&gt;Node16</title>
<g id="a_edge15_Node000015_Node000016"><a xlink:title=" ">
<path fill="none" stroke="#63b8ff" d="M450.36,-52.62C470.27,-52.62 491.88,-52.62 510.76,-52.62"/>
<polygon fill="#63b8ff" stroke="#63b8ff" points="450.39,-49.13 440.39,-52.63 450.39,-56.13 450.39,-49.13"/>
</a>
</g>
</g>
</g>
</svg>

<g id="navigator" transform="translate(0 0)" fill="#404254">
  <rect fill="#f2f5e9" fill-opacity="0.5" stroke="#606060" stroke-width=".5" x="0" y="0" width="60" height="60"/>
  <use id="zoomplus" xlink:href="#zoomPlus" x="17" y="9" onmousedown="handleZoom(evt,'in')"/>
  <use id="zoomminus" xlink:href="#zoomMin" x="42" y="9" onmousedown="handleZoom(evt,'out')"/>
  <use id="reset" xlink:href="#resetDef" x="30" y="36" onmousedown="handleReset()"/>
   <use id="arrowup" xlink:href="#arrowUp" x="0" y="0" onmousedown="handlePan(0,-1)"/>
  <use id="arrowright" xlink:href="#arrowRight" x="0" y="0" onmousedown="handlePan(1,0)"/>
  <use id="arrowdown" xlink:href="#arrowDown" x="0" y="0" onmousedown="handlePan(0,1)"/>
  <use id="arrowleft" xlink:href="#arrowLeft" x="0" y="0" onmousedown="handlePan(-1,0)"/>
</g>
<svg viewBox="0 0 15 15" width="100%" height="30px" preserveAspectRatio="xMaxYMin meet">
 <g id="arrow_out" transform="scale(0.3 0.3)">
  <a xlink:href="class_im_fusion_1_1_data__inherit__graph_org.svg" target="_base">
   <rect id="button" ry="5" rx="5" y="6" x="6" height="38" width="38"
        fill="#f2f5e9" fill-opacity="0.5" stroke="#606060" stroke-width="1.0"/>
   <path id="arrow"
     d="M 11.500037,31.436501 C 11.940474,20.09759 22.043105,11.32322 32.158766,21.979434 L 37.068811,17.246167 C 37.068811,17.246167 37.088388,32 37.088388,32 L 22.160133,31.978069 C 22.160133,31.978069 26.997745,27.140456 26.997745,27.140456 C 18.528582,18.264221 13.291696,25.230495 11.500037,31.436501 z"
     style="fill:#404040;"/>
  </a>
 </g>
</svg>

<style type='text/css'>
<![CDATA[
[data-mouse-over-selected='false'] { opacity: 0.7; }
[data-mouse-over-selected='true']  { opacity: 1.0; }
]]>
</style>
<script type="application/ecmascript"><![CDATA[
document.addEventListener('DOMContentLoaded', (event) => {
  highlightEdges();
  highlightAdjacentNodes();
});
]]></script>
</svg>
