<?xml version="1.0" encoding="UTF-8" standalone="no"?>
<!DOCTYPE svg PUBLIC "-//W3C//DTD SVG 1.1//EN"
 "http://www.w3.org/Graphics/SVG/1.1/DTD/svg11.dtd">
<!-- Generated by graphviz version 14.1.4 (20260321.0153)
 -->
<!-- Title: ImFusion::AbstractImageRegistration Pages: 1 -->
<svg width="1125pt" height="272pt"
 viewBox="0.00 0.00 1125.00 272.00" xmlns="http://www.w3.org/2000/svg" xmlns:xlink="http://www.w3.org/1999/xlink">
<g id="graph0" class="graph" transform="scale(1 1) rotate(0) translate(4 267.88)">
<title>ImFusion::AbstractImageRegistration</title>
<!-- Node1 -->
<g id="Node000001" class="node">
<title>Node1</title>
<g id="a_Node000001"><a xlink:title="The AbstractImageRegistration class is an interface for all image&#45;based registrations.">
<polygon fill="#999999" stroke="#666666" points="500.25,-187.25 321.5,-187.25 321.5,-168 500.25,-168 500.25,-187.25"/>
<text xml:space="preserve" text-anchor="middle" x="410.88" y="-173.75" font-family="Helvetica,sans-Serif" font-size="10.00">ImFusion::AbstractImageRegistration</text>
</a>
</g>
</g>
<!-- Node5 -->
<g id="Node000005" class="node">
<title>Node5</title>
<g id="a_Node000005"><a xlink:href="class_im_fusion_1_1_demons_image_registration.html" target="_top" xlink:title="Registers two images with the Demons algorithm The algorithm modifies the GlDenseDeformation object a...">
<polygon fill="white" stroke="#666666" points="715,-233.25 536.25,-233.25 536.25,-214 715,-214 715,-233.25"/>
<text xml:space="preserve" text-anchor="middle" x="625.62" y="-219.75" font-family="Helvetica,sans-Serif" font-size="10.00">ImFusion::DemonsImageRegistration</text>
</a>
</g>
</g>
<!-- Node1&#45;&gt;Node5 -->
<g id="edge4_Node000001_Node000005" class="edge">
<title>Node1&#45;&gt;Node5</title>
<g id="a_edge4_Node000001_Node000005"><a xlink:title=" ">
<path fill="none" stroke="#63b8ff" d="M469.75,-190.14C503.77,-197.49 546.2,-206.67 578.05,-213.55"/>
<polygon fill="#63b8ff" stroke="#63b8ff" points="470.56,-186.73 460.04,-188.04 469.08,-193.57 470.56,-186.73"/>
</a>
</g>
</g>
<!-- Node7 -->
<g id="Node000007" class="node">
<title>Node7</title>
<g id="a_Node000007"><a xlink:href="class_im_fusion_1_1_parametric_image_registration.html" target="_top" xlink:title="Base class for parametric image registration algorithms.">
<polygon fill="white" stroke="#666666" points="694,-171.88 557.25,-171.88 557.25,-141.38 694,-141.38 694,-171.88"/>
<text xml:space="preserve" text-anchor="start" x="565.25" y="-158.38" font-family="Helvetica,sans-Serif" font-size="10.00">ImFusion::ParametricImage</text>
<text xml:space="preserve" text-anchor="middle" x="625.62" y="-147.12" font-family="Helvetica,sans-Serif" font-size="10.00">Registration</text>
</a>
</g>
</g>
<!-- Node1&#45;&gt;Node7 -->
<g id="edge6_Node000001_Node000007" class="edge">
<title>Node1&#45;&gt;Node7</title>
<g id="a_edge6_Node000001_Node000007"><a xlink:title=" ">
<path fill="none" stroke="#63b8ff" d="M511.65,-167.78C526.95,-166.27 542.44,-164.74 556.83,-163.32"/>
<polygon fill="#63b8ff" stroke="#63b8ff" points="511.67,-164.26 502.07,-168.72 512.36,-171.22 511.67,-164.26"/>
</a>
</g>
</g>
<!-- Node2 -->
<g id="Node000002" class="node">
<title>Node2</title>
<g id="a_Node000002"><a xlink:href="class_im_fusion_1_1_algorithm.html" target="_top" xlink:title="Interface for describing algorithms that can be made available in the ImFusion Suite through Algorith...">
<polygon fill="white" stroke="#666666" points="285.5,-187.25 181.75,-187.25 181.75,-168 285.5,-168 285.5,-187.25"/>
<text xml:space="preserve" text-anchor="middle" x="233.62" y="-173.75" font-family="Helvetica,sans-Serif" font-size="10.00">ImFusion::Algorithm</text>
</a>
</g>
</g>
<!-- Node2&#45;&gt;Node1 -->
<g id="edge1_Node000001_Node000002" class="edge">
<title>Node2&#45;&gt;Node1</title>
<g id="a_edge1_Node000001_Node000002"><a xlink:title=" ">
<path fill="none" stroke="#63b8ff" d="M297.27,-177.62C305.01,-177.62 313.03,-177.62 321.06,-177.62"/>
<polygon fill="#63b8ff" stroke="#63b8ff" points="297.3,-174.13 287.3,-177.63 297.3,-181.13 297.3,-174.13"/>
</a>
</g>
</g>
<!-- Node3 -->
<g id="Node000003" class="node">
<title>Node3</title>
<g id="a_Node000003"><a xlink:href="class_im_fusion_1_1_configurable.html" target="_top" xlink:title="Base interface for classes that support object serialization from/to Properties objects.">
<polygon fill="white" stroke="#666666" points="131.5,-206.25 14.25,-206.25 14.25,-187 131.5,-187 131.5,-206.25"/>
<text xml:space="preserve" text-anchor="middle" x="72.88" y="-192.75" font-family="Helvetica,sans-Serif" font-size="10.00">ImFusion::Configurable</text>
</a>
</g>
</g>
<!-- Node3&#45;&gt;Node2 -->
<g id="edge2_Node000002_Node000003" class="edge">
<title>Node3&#45;&gt;Node2</title>
<g id="a_edge2_Node000002_Node000003"><a xlink:title=" ">
<path fill="none" stroke="#63b8ff" d="M142.89,-188.36C155.85,-186.81 169.18,-185.22 181.47,-183.75"/>
<polygon fill="#63b8ff" stroke="#63b8ff" points="142.65,-184.87 133.14,-189.53 143.48,-191.82 142.65,-184.87"/>
</a>
</g>
</g>
<!-- Node4 -->
<g id="Node000004" class="node">
<title>Node4</title>
<g id="a_Node000004"><a xlink:href="class_im_fusion_1_1_utils_1_1_not_copyable.html" target="_top" xlink:title="Inherit from this class if your class should be neither copy&#45;constructible nor assignable.">
<polygon fill="white" stroke="#666666" points="145.75,-169.25 0,-169.25 0,-150 145.75,-150 145.75,-169.25"/>
<text xml:space="preserve" text-anchor="middle" x="72.88" y="-155.75" font-family="Helvetica,sans-Serif" font-size="10.00">ImFusion::Utils::NotCopyable</text>
</a>
</g>
</g>
<!-- Node4&#45;&gt;Node2 -->
<g id="edge3_Node000002_Node000004" class="edge">
<title>Node4&#45;&gt;Node2</title>
<g id="a_edge3_Node000002_Node000004"><a xlink:title=" ">
<path fill="none" stroke="#8b1a1a" d="M157.08,-169.06C165.34,-170 173.54,-170.93 181.33,-171.81"/>
<polygon fill="#8b1a1a" stroke="#8b1a1a" points="157.65,-165.6 147.32,-167.95 156.86,-172.56 157.65,-165.6"/>
</a>
</g>
</g>
<!-- Node6 -->
<g id="Node000006" class="node">
<title>Node6</title>
<g id="a_Node000006"><a xlink:href="class_im_fusion_1_1_simulatenous_multi_image_demons_registration.html" target="_top" xlink:title="DemonsImageRegistration with alreadySplitChannels = true in the constructor.">
<polygon fill="white" stroke="#666666" points="906.5,-263.88 763.75,-263.88 763.75,-233.38 906.5,-233.38 906.5,-263.88"/>
<text xml:space="preserve" text-anchor="start" x="771.75" y="-250.38" font-family="Helvetica,sans-Serif" font-size="10.00">ImFusion::SimulatenousMulti</text>
<text xml:space="preserve" text-anchor="middle" x="835.12" y="-239.12" font-family="Helvetica,sans-Serif" font-size="10.00">ImageDemonsRegistration</text>
</a>
</g>
</g>
<!-- Node5&#45;&gt;Node6 -->
<g id="edge5_Node000005_Node000006" class="edge">
<title>Node5&#45;&gt;Node6</title>
<g id="a_edge5_Node000005_Node000006"><a xlink:title=" ">
<path fill="none" stroke="#63b8ff" d="M721.61,-235.07C735.65,-236.76 749.9,-238.48 763.33,-240.1"/>
<polygon fill="#63b8ff" stroke="#63b8ff" points="722.27,-231.62 711.93,-233.9 721.44,-238.57 722.27,-231.62"/>
</a>
</g>
</g>
<!-- Node8 -->
<g id="Node000008" class="node">
<title>Node8</title>
<g id="a_Node000008"><a xlink:href="class_im_fusion_1_1_gated_linear4_d_image_registration.html" target="_top" xlink:title="Registers two volume clips using a rigid/affine transformation, including a gating phase offset betwe...">
<polygon fill="white" stroke="#666666" points="912.5,-214.88 757.75,-214.88 757.75,-184.38 912.5,-184.38 912.5,-214.88"/>
<text xml:space="preserve" text-anchor="start" x="765.75" y="-201.38" font-family="Helvetica,sans-Serif" font-size="10.00">ImFusion::GatedLinear4DImage</text>
<text xml:space="preserve" text-anchor="middle" x="835.12" y="-190.12" font-family="Helvetica,sans-Serif" font-size="10.00">Registration</text>
</a>
</g>
</g>
<!-- Node7&#45;&gt;Node8 -->
<g id="edge7_Node000007_Node000008" class="edge">
<title>Node7&#45;&gt;Node8</title>
<g id="a_edge7_Node000007_Node000008"><a xlink:title=" ">
<path fill="none" stroke="#63b8ff" d="M705.5,-172.97C722.81,-176.56 741.11,-180.35 758.3,-183.91"/>
<polygon fill="#63b8ff" stroke="#63b8ff" points="706.27,-169.55 695.76,-170.95 704.84,-176.41 706.27,-169.55"/>
</a>
</g>
</g>
<!-- Node9 -->
<g id="Node000009" class="node">
<title>Node9</title>
<g id="a_Node000009"><a xlink:href="class_im_fusion_1_1_linear_grid_registration.html" target="_top" xlink:title="Registers a set of images arranged in a 2D grid.">
<polygon fill="white" stroke="#666666" points="914.75,-166.25 755.5,-166.25 755.5,-147 914.75,-147 914.75,-166.25"/>
<text xml:space="preserve" text-anchor="middle" x="835.12" y="-152.75" font-family="Helvetica,sans-Serif" font-size="10.00">ImFusion::LinearGridRegistration</text>
</a>
</g>
</g>
<!-- Node7&#45;&gt;Node9 -->
<g id="edge8_Node000007_Node000009" class="edge">
<title>Node7&#45;&gt;Node9</title>
<g id="a_edge8_Node000007_Node000009"><a xlink:title=" ">
<path fill="none" stroke="#63b8ff" d="M705.37,-156.62C721.63,-156.62 738.75,-156.62 755.01,-156.62"/>
<polygon fill="#63b8ff" stroke="#63b8ff" points="705.79,-153.13 695.79,-156.63 705.79,-160.13 705.79,-153.13"/>
</a>
</g>
</g>
<!-- Node10 -->
<g id="Node000010" class="node">
<title>Node10</title>
<g id="a_Node000010"><a xlink:href="class_im_fusion_1_1_linear_image_registration.html" target="_top" xlink:title="Registers two images using a rigid/affine transformation.">
<polygon fill="white" stroke="#666666" points="919.25,-129.25 751,-129.25 751,-110 919.25,-110 919.25,-129.25"/>
<text xml:space="preserve" text-anchor="middle" x="835.12" y="-115.75" font-family="Helvetica,sans-Serif" font-size="10.00">ImFusion::LinearImageRegistration</text>
</a>
</g>
</g>
<!-- Node7&#45;&gt;Node10 -->
<g id="edge9_Node000007_Node000010" class="edge">
<title>Node7&#45;&gt;Node10</title>
<g id="a_edge9_Node000007_Node000010"><a xlink:title=" ">
<path fill="none" stroke="#63b8ff" d="M705.53,-142.56C729.54,-138.27 755.45,-133.65 777.67,-129.69"/>
<polygon fill="#63b8ff" stroke="#63b8ff" points="705,-139.09 695.77,-144.3 706.23,-145.99 705,-139.09"/>
</a>
</g>
</g>
<!-- Node11 -->
<g id="Node000011" class="node">
<title>Node11</title>
<g id="a_Node000011"><a xlink:href="class_im_fusion_1_1_parametric_deformable_registration.html" target="_top" xlink:title="Registers two images with a non&#45;linear deformation based on TPSs.">
<polygon fill="white" stroke="#666666" points="915.12,-91.88 755.12,-91.88 755.12,-61.38 915.12,-61.38 915.12,-91.88"/>
<text xml:space="preserve" text-anchor="start" x="763.12" y="-78.38" font-family="Helvetica,sans-Serif" font-size="10.00">ImFusion::ParametricDeformable</text>
<text xml:space="preserve" text-anchor="middle" x="835.12" y="-67.12" font-family="Helvetica,sans-Serif" font-size="10.00">Registration</text>
</a>
</g>
</g>
<!-- Node7&#45;&gt;Node11 -->
<g id="edge10_Node000007_Node000011" class="edge">
<title>Node7&#45;&gt;Node11</title>
<g id="a_edge10_Node000007_Node000011"><a xlink:title=" ">
<path fill="none" stroke="#63b8ff" d="M668.18,-136.13C692.06,-124.8 722.83,-110.98 751,-100.62 758.9,-97.72 767.31,-94.94 775.65,-92.37"/>
<polygon fill="#63b8ff" stroke="#63b8ff" points="666.94,-132.84 659.43,-140.32 669.96,-139.16 666.94,-132.84"/>
</a>
</g>
</g>
<!-- Node12 -->
<g id="Node000012" class="node">
<title>Node12</title>
<g id="a_Node000012"><a xlink:href="class_im_fusion_1_1_f_f_d_image_registration.html" target="_top" xlink:title="Registers two images with a non&#45;linear deformation based on FFDs.">
<polygon fill="white" stroke="#666666" points="1116.75,-154.25 955.25,-154.25 955.25,-135 1116.75,-135 1116.75,-154.25"/>
<text xml:space="preserve" text-anchor="middle" x="1036" y="-140.75" font-family="Helvetica,sans-Serif" font-size="10.00">ImFusion::FFDImageRegistration</text>
</a>
</g>
</g>
<!-- Node11&#45;&gt;Node12 -->
<g id="edge11_Node000011_Node000012" class="edge">
<title>Node11&#45;&gt;Node12</title>
<g id="a_edge11_Node000011_Node000012"><a xlink:title=" ">
<path fill="none" stroke="#63b8ff" d="M909.17,-96.22C912.62,-97.61 915.99,-99.08 919.25,-100.62 936.84,-108.99 937.47,-117.67 955.25,-125.62 963.18,-129.17 971.85,-132.1 980.47,-134.52"/>
<polygon fill="#63b8ff" stroke="#63b8ff" points="910.69,-93.05 900.1,-92.81 908.23,-99.6 910.69,-93.05"/>
</a>
</g>
</g>
<!-- Node13 -->
<g id="Node000013" class="node">
<title>Node13</title>
<g id="a_Node000013"><a xlink:href="class_im_fusion_1_1_other_parametric_deformable_registration.html" target="_top" xlink:title="Registers two images with any other parametric deformation already set on the moving image.">
<polygon fill="white" stroke="#666666" points="1102.88,-116.88 969.12,-116.88 969.12,-86.38 1102.88,-86.38 1102.88,-116.88"/>
<text xml:space="preserve" text-anchor="start" x="977.12" y="-103.38" font-family="Helvetica,sans-Serif" font-size="10.00">ImFusion::OtherParametric</text>
<text xml:space="preserve" text-anchor="middle" x="1036" y="-92.12" font-family="Helvetica,sans-Serif" font-size="10.00">DeformableRegistration</text>
</a>
</g>
</g>
<!-- Node11&#45;&gt;Node13 -->
<g id="edge12_Node000011_Node000013" class="edge">
<title>Node11&#45;&gt;Node13</title>
<g id="a_edge12_Node000011_Node000013"><a xlink:title=" ">
<path fill="none" stroke="#63b8ff" d="M926.84,-88.03C940.96,-89.8 955.32,-91.61 968.77,-93.3"/>
<polygon fill="#63b8ff" stroke="#63b8ff" points="927.44,-84.58 917.08,-86.8 926.57,-91.52 927.44,-84.58"/>
</a>
</g>
</g>
<!-- Node14 -->
<g id="Node000014" class="node">
<title>Node14</title>
<g id="a_Node000014"><a xlink:href="class_im_fusion_1_1_poly_rigid_image_registration.html" target="_top" xlink:title="Registers two images with a non&#45;linear poly&#45;rigid deformation.">
<polygon fill="white" stroke="#666666" points="1101.75,-67.88 970.25,-67.88 970.25,-37.38 1101.75,-37.38 1101.75,-67.88"/>
<text xml:space="preserve" text-anchor="start" x="978.25" y="-54.38" font-family="Helvetica,sans-Serif" font-size="10.00">ImFusion::PolyRigidImage</text>
<text xml:space="preserve" text-anchor="middle" x="1036" y="-43.12" font-family="Helvetica,sans-Serif" font-size="10.00">Registration</text>
</a>
</g>
</g>
<!-- Node11&#45;&gt;Node14 -->
<g id="edge13_Node000011_Node000014" class="edge">
<title>Node11&#45;&gt;Node14</title>
<g id="a_edge13_Node000011_Node000014"><a xlink:title=" ">
<path fill="none" stroke="#63b8ff" d="M926.69,-65.7C941.3,-63.93 956.17,-62.14 970.02,-60.47"/>
<polygon fill="#63b8ff" stroke="#63b8ff" points="926.59,-62.18 917.09,-66.85 927.43,-69.13 926.59,-62.18"/>
</a>
</g>
</g>
<!-- Node15 -->
<g id="Node000015" class="node">
<title>Node15</title>
<g id="a_Node000015"><a xlink:href="class_im_fusion_1_1_t_p_s_image_registration.html" target="_top" xlink:title="Registers two images with a non&#45;linear deformation based on TPSs.">
<polygon fill="white" stroke="#666666" points="1116.75,-19.25 955.25,-19.25 955.25,0 1116.75,0 1116.75,-19.25"/>
<text xml:space="preserve" text-anchor="middle" x="1036" y="-5.75" font-family="Helvetica,sans-Serif" font-size="10.00">ImFusion::TPSImageRegistration</text>
</a>
</g>
</g>
<!-- Node11&#45;&gt;Node15 -->
<g id="edge14_Node000011_Node000015" class="edge">
<title>Node11&#45;&gt;Node15</title>
<g id="a_edge14_Node000011_Node000015"><a xlink:title=" ">
<path fill="none" stroke="#63b8ff" d="M881.43,-56.51C903.43,-47.23 930.42,-36.54 955.25,-28.62 965.56,-25.34 976.77,-22.33 987.45,-19.72"/>
<polygon fill="#63b8ff" stroke="#63b8ff" points="880.28,-53.2 872.46,-60.35 883.03,-59.64 880.28,-53.2"/>
</a>
</g>
</g>
</g>
</svg>
