<?xml version="1.0" encoding="UTF-8" standalone="no"?>
<!DOCTYPE svg PUBLIC "-//W3C//DTD SVG 1.1//EN"
 "http://www.w3.org/Graphics/SVG/1.1/DTD/svg11.dtd">
<!-- Generated by graphviz version 14.1.4 (20260321.0153)
 -->
<!-- Title: ImFusion::DicomGuiPlugin Pages: 1 -->
<svg width="154pt" height="193pt"
 viewBox="0.00 0.00 154.00 193.00" xmlns="http://www.w3.org/2000/svg" xmlns:xlink="http://www.w3.org/1999/xlink">
<g id="graph0" class="graph" transform="scale(1 1) rotate(0) translate(4 189)">
<title>ImFusion::DicomGuiPlugin</title>
<!-- Node1 -->
<g id="Node000001" class="node">
<title>Node1</title>
<g id="a_Node000001"><a xlink:title=" ">
<polygon fill="#999999" stroke="#666666" points="139.38,-19.25 6.38,-19.25 6.38,0 139.38,0 139.38,-19.25"/>
<text xml:space="preserve" text-anchor="middle" x="72.88" y="-5.75" font-family="Helvetica,sans-Serif" font-size="10.00">ImFusion::DicomGuiPlugin</text>
</a>
</g>
</g>
<!-- Node2 -->
<g id="Node000002" class="node">
<title>Node2</title>
<g id="a_Node000002"><a xlink:href="class_im_fusion_1_1_im_fusion_lib_plugin.html" target="_top" xlink:title="Specialized interface for a plugin for the ImFusionLib.">
<polygon fill="white" stroke="#666666" points="144.25,-74.5 1.5,-74.5 1.5,-55.25 144.25,-55.25 144.25,-74.5"/>
<text xml:space="preserve" text-anchor="middle" x="72.88" y="-61" font-family="Helvetica,sans-Serif" font-size="10.00">ImFusion::ImFusionLibPlugin</text>
</a>
</g>
</g>
<!-- Node2&#45;&gt;Node1 -->
<g id="edge1_Node000001_Node000002" class="edge">
<title>Node2&#45;&gt;Node1</title>
<g id="a_edge1_Node000001_Node000002"><a xlink:title=" ">
<path fill="none" stroke="#63b8ff" d="M72.88,-43.63C72.88,-35.34 72.88,-26.17 72.88,-19.61"/>
<polygon fill="#63b8ff" stroke="#63b8ff" points="69.38,-43.57 72.88,-53.57 76.38,-43.57 69.38,-43.57"/>
</a>
</g>
</g>
<!-- Node3 -->
<g id="Node000003" class="node">
<title>Node3</title>
<g id="a_Node000003"><a xlink:href="class_im_fusion_1_1_plugin_base.html" target="_top" xlink:title="Base interface to interact with a plugin that can be loaded into an application at runtime.">
<polygon fill="white" stroke="#666666" points="128.88,-129.75 16.88,-129.75 16.88,-110.5 128.88,-110.5 128.88,-129.75"/>
<text xml:space="preserve" text-anchor="middle" x="72.88" y="-116.25" font-family="Helvetica,sans-Serif" font-size="10.00">ImFusion::PluginBase</text>
</a>
</g>
</g>
<!-- Node3&#45;&gt;Node2 -->
<g id="edge2_Node000002_Node000003" class="edge">
<title>Node3&#45;&gt;Node2</title>
<g id="a_edge2_Node000002_Node000003"><a xlink:title=" ">
<path fill="none" stroke="#63b8ff" d="M72.88,-98.88C72.88,-90.59 72.88,-81.42 72.88,-74.86"/>
<polygon fill="#63b8ff" stroke="#63b8ff" points="69.38,-98.82 72.88,-108.82 76.38,-98.82 69.38,-98.82"/>
</a>
</g>
</g>
<!-- Node4 -->
<g id="Node000004" class="node">
<title>Node4</title>
<g id="a_Node000004"><a xlink:href="class_im_fusion_1_1_utils_1_1_not_copyable.html" target="_top" xlink:title="Inherit from this class if your class should be neither copy&#45;constructible nor assignable.">
<polygon fill="white" stroke="#666666" points="145.75,-185 0,-185 0,-165.75 145.75,-165.75 145.75,-185"/>
<text xml:space="preserve" text-anchor="middle" x="72.88" y="-171.5" font-family="Helvetica,sans-Serif" font-size="10.00">ImFusion::Utils::NotCopyable</text>
</a>
</g>
</g>
<!-- Node4&#45;&gt;Node3 -->
<g id="edge3_Node000003_Node000004" class="edge">
<title>Node4&#45;&gt;Node3</title>
<g id="a_edge3_Node000003_Node000004"><a xlink:title=" ">
<path fill="none" stroke="#8b1a1a" d="M72.88,-154.13C72.88,-145.84 72.88,-136.67 72.88,-130.11"/>
<polygon fill="#8b1a1a" stroke="#8b1a1a" points="69.38,-154.07 72.88,-164.07 76.38,-154.07 69.38,-154.07"/>
</a>
</g>
</g>
</g>
</svg>
