<?xml version="1.0" encoding="UTF-8" standalone="no"?>
<!DOCTYPE svg PUBLIC "-//W3C//DTD SVG 1.1//EN"
 "http://www.w3.org/Graphics/SVG/1.1/DTD/svg11.dtd">
<!-- Generated by graphviz version 14.1.4 (20260321.0153)
 -->
<!-- Title: ImFusion::AlgorithmController Pages: 1 -->
<!--zoomable 1425 -->

<svg id="main" version="1.1" xmlns="http://www.w3.org/2000/svg" xmlns:xlink="http://www.w3.org/1999/xlink" xml:space="preserve" onload="init(evt)">

<style type="text/css"><![CDATA[
.node, .edge {opacity: 0.7;}
.node.selected, .edge.selected {opacity: 1;}
.edge:hover path { stroke: red; }
.edge:hover polygon { stroke: red; fill: red; }
]]></style>

<defs>
  <circle id="rim" cx="0" cy="0" r="7"/>
  <circle id="rim2" cx="0" cy="0" r="3.5"/>
  <g id="zoomPlus">
    <use xlink:href="#rim" fill="#404040"><set attributeName="fill" to="#808080" begin="zoomplus.mouseover" end="zoomplus.mouseout"/></use>
    <path d="M-4,0h8M0,-4v8" fill="none" stroke="white" stroke-width="1.5" pointer-events="none"/>
  </g>
  <g id="zoomMin">
    <use xlink:href="#rim" fill="#404040"><set attributeName="fill" to="#808080" begin="zoomminus.mouseover" end="zoomminus.mouseout"/></use>
    <path d="M-4,0h8" fill="none" stroke="white" stroke-width="1.5" pointer-events="none"/>
  </g>
  <g id="arrowUp" transform="translate(30 24)">
    <use xlink:href="#rim"/>
    <path pointer-events="none" fill="none" stroke="white" stroke-width="1.5" d="M0,-3.0v7 M-2.5,-0.5L0,-3.0L2.5,-0.5"/>
  </g>
  <g id="arrowRight" transform="rotate(90) translate(36 -43)">
    <use xlink:href="#rim"/>
    <path pointer-events="none" fill="none" stroke="white" stroke-width="1.5" d="M0,-3.0v7 M-2.5,-0.5L0,-3.0L2.5,-0.5"/>
  </g>
  <g id="arrowDown" transform="rotate(180) translate(-30 -48)">
    <use xlink:href="#rim"/>
    <path pointer-events="none" fill="none" stroke="white" stroke-width="1.5" d="M0,-3.0v7 M-2.5,-0.5L0,-3.0L2.5,-0.5"/>
  </g>
  <g id="arrowLeft" transform="rotate(270) translate(-36 17)">
    <use xlink:href="#rim"/>
    <path pointer-events="none" fill="none" stroke="white" stroke-width="1.5" d="M0,-3.0v7 M-2.5,-0.5L0,-3.0L2.5,-0.5"/>
  </g>
  <g id="resetDef">
    <use xlink:href="#rim2" fill="#404040"><set attributeName="fill" to="#808080" begin="reset.mouseover" end="reset.mouseout"/></use>
  </g>
</defs>
<script type="application/ecmascript">
var viewWidth = 906;
var viewHeight = 1425;
var sectionId = 'dynsection-0';
</script>
<script type="application/ecmascript" xlink:href="svg.min.js"/>
<svg id="graph" class="graph">
<g id="viewport">
<title>ImFusion::AlgorithmController</title>
<!-- Node1 -->
<g id="Node000001" class="node">
<title>Node1</title>
<g id="a_Node000001"><a xlink:title="Specialization of the Controller interface to be used with Algorithm instances.">
<polygon fill="#999999" stroke="#666666" points="492,-689.88 346.25,-689.88 346.25,-670.62 492,-670.62 492,-689.88"/>
<text xml:space="preserve" text-anchor="middle" x="419.12" y="-676.38" font-family="Helvetica,sans-Serif" font-size="10.00">ImFusion::AlgorithmController</text>
</a>
</g>
</g>
<!-- Node6 -->
<g id="Node000006" class="node">
<title>Node6</title>
<g id="a_Node000006"><a xlink:href="class_im_fusion_1_1_anatomy_controller.html" target="_top" xlink:title="Controller for AnatomyAlgorithm.">
<polygon fill="white" stroke="#666666" points="683.88,-1355.88 540.38,-1355.88 540.38,-1336.62 683.88,-1336.62 683.88,-1355.88"/>
<text xml:space="preserve" text-anchor="middle" x="612.12" y="-1342.38" font-family="Helvetica,sans-Serif" font-size="10.00">ImFusion::AnatomyController</text>
</a>
</g>
</g>
<!-- Node1&#45;&gt;Node6 -->
<g id="edge5_Node000001_Node000006" class="edge">
<title>Node1&#45;&gt;Node6</title>
<g id="a_edge5_Node000001_Node000006"><a xlink:title=" ">
<path fill="none" stroke="#63b8ff" d="M420.6,-701.48C423.3,-802.54 439.91,-1233.75 528,-1327.25 531.55,-1331.02 535.69,-1334.12 540.18,-1336.65"/>
<polygon fill="#63b8ff" stroke="#63b8ff" points="424.1,-701.58 420.36,-691.67 417.11,-701.75 424.1,-701.58"/>
</a>
</g>
</g>
<!-- Node7 -->
<g id="Node000007" class="node">
<title>Node7</title>
<g id="a_Node000007"><a xlink:href="class_im_fusion_1_1_basic_image_processing_controller.html" target="_top" xlink:title="Controller for basic image processing tasks.">
<polygon fill="white" stroke="#666666" points="693.62,-1318.5 530.62,-1318.5 530.62,-1288 693.62,-1288 693.62,-1318.5"/>
<text xml:space="preserve" text-anchor="start" x="538.62" y="-1305" font-family="Helvetica,sans-Serif" font-size="10.00">ImFusion::BasicImageProcessing</text>
<text xml:space="preserve" text-anchor="middle" x="612.12" y="-1293.75" font-family="Helvetica,sans-Serif" font-size="10.00">Controller</text>
</a>
</g>
</g>
<!-- Node1&#45;&gt;Node7 -->
<g id="edge6_Node000001_Node000007" class="edge">
<title>Node1&#45;&gt;Node7</title>
<g id="a_edge6_Node000001_Node000007"><a xlink:title=" ">
<path fill="none" stroke="#63b8ff" d="M421.06,-701.56C425.7,-797.68 449.26,-1190.01 528,-1278.25 531.21,-1281.85 534.92,-1284.94 538.95,-1287.59"/>
<polygon fill="#63b8ff" stroke="#63b8ff" points="424.57,-701.58 420.61,-691.75 417.57,-701.91 424.57,-701.58"/>
</a>
</g>
</g>
<!-- Node8 -->
<g id="Node000008" class="node">
<title>Node8</title>
<g id="a_Node000008"><a xlink:href="class_im_fusion_1_1_default_algorithm_controller.html" target="_top" xlink:title="Default algorithm controller, with automatically generated GUI This GUI includes: A PropertiesWidget ...">
<polygon fill="white" stroke="#666666" points="679.75,-1269.5 544.5,-1269.5 544.5,-1239 679.75,-1239 679.75,-1269.5"/>
<text xml:space="preserve" text-anchor="start" x="552.5" y="-1256" font-family="Helvetica,sans-Serif" font-size="10.00">ImFusion::DefaultAlgorithm</text>
<text xml:space="preserve" text-anchor="middle" x="612.12" y="-1244.75" font-family="Helvetica,sans-Serif" font-size="10.00">Controller</text>
</a>
</g>
</g>
<!-- Node1&#45;&gt;Node8 -->
<g id="edge7_Node000001_Node000008" class="edge">
<title>Node1&#45;&gt;Node8</title>
<g id="a_edge7_Node000001_Node000008"><a xlink:title=" ">
<path fill="none" stroke="#63b8ff" d="M421.43,-701.53C427.45,-792.67 455.34,-1149.08 528,-1229.25 532.55,-1234.27 538.08,-1238.31 544.08,-1241.54"/>
<polygon fill="#63b8ff" stroke="#63b8ff" points="424.94,-701.55 420.81,-691.79 417.95,-701.99 424.94,-701.55"/>
</a>
</g>
</g>
<!-- Node16 -->
<g id="Node000016" class="node">
<title>Node16</title>
<g id="a_Node000016"><a xlink:href="class_im_fusion_1_1_deformation_editor_controller.html" target="_top" xlink:title="Controller for the DeformationEditor algorithm.">
<polygon fill="white" stroke="#666666" points="682.75,-1220.5 541.5,-1220.5 541.5,-1190 682.75,-1190 682.75,-1220.5"/>
<text xml:space="preserve" text-anchor="start" x="549.5" y="-1207" font-family="Helvetica,sans-Serif" font-size="10.00">ImFusion::DeformationEditor</text>
<text xml:space="preserve" text-anchor="middle" x="612.12" y="-1195.75" font-family="Helvetica,sans-Serif" font-size="10.00">Controller</text>
</a>
</g>
</g>
<!-- Node1&#45;&gt;Node16 -->
<g id="edge15_Node000001_Node000016" class="edge">
<title>Node1&#45;&gt;Node16</title>
<g id="a_edge15_Node000001_Node000016"><a xlink:title=" ">
<path fill="none" stroke="#63b8ff" d="M421.87,-701.52C429.36,-787.48 461.39,-1108.11 528,-1180.25 531.78,-1184.35 536.21,-1187.78 541.01,-1190.66"/>
<polygon fill="#63b8ff" stroke="#63b8ff" points="425.38,-701.38 421.04,-691.71 418.4,-701.97 425.38,-701.38"/>
</a>
</g>
</g>
<!-- Node17 -->
<g id="Node000017" class="node">
<title>Node17</title>
<g id="a_Node000017"><a xlink:href="class_im_fusion_1_1_descriptors_registration_controller.html" target="_top" xlink:title=" ">
<polygon fill="white" stroke="#bfbfbf" points="694.75,-1171.5 529.5,-1171.5 529.5,-1141 694.75,-1141 694.75,-1171.5"/>
<text xml:space="preserve" text-anchor="start" x="537.5" y="-1158" font-family="Helvetica,sans-Serif" font-size="10.00">ImFusion::DescriptorsRegistration</text>
<text xml:space="preserve" text-anchor="middle" x="612.12" y="-1146.75" font-family="Helvetica,sans-Serif" font-size="10.00">Controller</text>
</a>
</g>
</g>
<!-- Node1&#45;&gt;Node17 -->
<g id="edge16_Node000001_Node000017" class="edge">
<title>Node1&#45;&gt;Node17</title>
<g id="a_edge16_Node000001_Node000017"><a xlink:title=" ">
<path fill="none" stroke="#63b8ff" d="M422.35,-700.96C431.32,-780.73 467.27,-1066.93 528,-1131.25 531.41,-1134.87 535.33,-1137.97 539.56,-1140.62"/>
<polygon fill="#63b8ff" stroke="#63b8ff" points="425.88,-701.05 421.31,-691.49 418.92,-701.82 425.88,-701.05"/>
</a>
</g>
</g>
<!-- Node18 -->
<g id="Node000018" class="node">
<title>Node18</title>
<g id="a_Node000018"><a xlink:href="class_im_fusion_1_1_display_recorder_controller.html" target="_top" xlink:title=" ">
<polygon fill="white" stroke="#bfbfbf" points="679.75,-1122.5 544.5,-1122.5 544.5,-1092 679.75,-1092 679.75,-1122.5"/>
<text xml:space="preserve" text-anchor="start" x="552.5" y="-1109" font-family="Helvetica,sans-Serif" font-size="10.00">ImFusion::DisplayRecorder</text>
<text xml:space="preserve" text-anchor="middle" x="612.12" y="-1097.75" font-family="Helvetica,sans-Serif" font-size="10.00">Controller</text>
</a>
</g>
</g>
<!-- Node1&#45;&gt;Node18 -->
<g id="edge17_Node000001_Node000018" class="edge">
<title>Node1&#45;&gt;Node18</title>
<g id="a_edge17_Node000001_Node000018"><a xlink:title=" ">
<path fill="none" stroke="#63b8ff" d="M422.98,-701.12C433.57,-775.62 472.87,-1027.03 528,-1083.25 532.63,-1087.97 538.12,-1091.77 544.04,-1094.84"/>
<polygon fill="#63b8ff" stroke="#63b8ff" points="426.49,-700.95 421.64,-691.54 419.56,-701.92 426.49,-700.95"/>
</a>
</g>
</g>
<!-- Node19 -->
<g id="Node000019" class="node">
<title>Node19</title>
<g id="a_Node000019"><a xlink:href="class_im_fusion_1_1_filter_controller.html" target="_top" xlink:title="GUI controller for 2D filtering with preview.">
<polygon fill="white" stroke="#666666" points="675.25,-1073.88 549,-1073.88 549,-1054.62 675.25,-1054.62 675.25,-1073.88"/>
<text xml:space="preserve" text-anchor="middle" x="612.12" y="-1060.38" font-family="Helvetica,sans-Serif" font-size="10.00">ImFusion::FilterController</text>
</a>
</g>
</g>
<!-- Node1&#45;&gt;Node19 -->
<g id="edge18_Node000001_Node000019" class="edge">
<title>Node1&#45;&gt;Node19</title>
<g id="a_edge18_Node000001_Node000019"><a xlink:title=" ">
<path fill="none" stroke="#63b8ff" d="M419.53,-701.69C419.02,-764.57 426.6,-950.01 528,-1045.25 533.93,-1050.82 541.16,-1054.88 548.84,-1057.81"/>
<polygon fill="#63b8ff" stroke="#63b8ff" points="423.03,-701.79 419.7,-691.73 416.03,-701.67 423.03,-701.79"/>
</a>
</g>
</g>
<!-- Node20 -->
<g id="Node000020" class="node">
<title>Node20</title>
<g id="a_Node000020"><a xlink:href="class_im_fusion_1_1_im_fusion_file_io_controller.html" target="_top" xlink:title="Dialog for adjusting image compression settings.">
<polygon fill="white" stroke="#666666" points="675.62,-1036.5 548.62,-1036.5 548.62,-1006 675.62,-1006 675.62,-1036.5"/>
<text xml:space="preserve" text-anchor="start" x="556.62" y="-1023" font-family="Helvetica,sans-Serif" font-size="10.00">ImFusion::ImFusionFileIo</text>
<text xml:space="preserve" text-anchor="middle" x="612.12" y="-1011.75" font-family="Helvetica,sans-Serif" font-size="10.00">Controller</text>
</a>
</g>
</g>
<!-- Node1&#45;&gt;Node20 -->
<g id="edge19_Node000001_Node000020" class="edge">
<title>Node1&#45;&gt;Node20</title>
<g id="a_edge19_Node000001_Node000020"><a xlink:title=" ">
<path fill="none" stroke="#63b8ff" d="M420.98,-701.49C424.41,-757.94 441.65,-913.02 528,-996.25 533.86,-1001.9 540.95,-1006.27 548.48,-1009.67"/>
<polygon fill="#63b8ff" stroke="#63b8ff" points="424.48,-701.5 420.48,-691.69 417.49,-701.85 424.48,-701.5"/>
</a>
</g>
</g>
<!-- Node21 -->
<g id="Node000021" class="node">
<title>Node21</title>
<g id="a_Node000021"><a xlink:href="class_im_fusion_1_1_image_registration_controller.html" target="_top" xlink:title=" ">
<polygon fill="white" stroke="#bfbfbf" points="683.12,-987.5 541.12,-987.5 541.12,-957 683.12,-957 683.12,-987.5"/>
<text xml:space="preserve" text-anchor="start" x="549.12" y="-974" font-family="Helvetica,sans-Serif" font-size="10.00">ImFusion::ImageRegistration</text>
<text xml:space="preserve" text-anchor="middle" x="612.12" y="-962.75" font-family="Helvetica,sans-Serif" font-size="10.00">Controller</text>
</a>
</g>
</g>
<!-- Node1&#45;&gt;Node21 -->
<g id="edge20_Node000001_Node000021" class="edge">
<title>Node1&#45;&gt;Node21</title>
<g id="a_edge20_Node000001_Node000021"><a xlink:title=" ">
<path fill="none" stroke="#63b8ff" d="M422.5,-701.51C429.27,-751.82 453.25,-879.06 528,-947.25 532.01,-950.91 536.53,-954.03 541.35,-956.69"/>
<polygon fill="#63b8ff" stroke="#63b8ff" points="425.99,-701.2 421.29,-691.71 419.04,-702.06 425.99,-701.2"/>
</a>
</g>
</g>
<!-- Node22 -->
<g id="Node000022" class="node">
<title>Node22</title>
<g id="a_Node000022"><a xlink:href="class_im_fusion_1_1_image_resampling_controller.html" target="_top" xlink:title="Controller for image resampling.">
<polygon fill="white" stroke="#666666" points="682.75,-938.5 541.5,-938.5 541.5,-908 682.75,-908 682.75,-938.5"/>
<text xml:space="preserve" text-anchor="start" x="549.5" y="-925" font-family="Helvetica,sans-Serif" font-size="10.00">ImFusion::ImageResampling</text>
<text xml:space="preserve" text-anchor="middle" x="612.12" y="-913.75" font-family="Helvetica,sans-Serif" font-size="10.00">Controller</text>
</a>
</g>
</g>
<!-- Node1&#45;&gt;Node22 -->
<g id="edge21_Node000001_Node000022" class="edge">
<title>Node1&#45;&gt;Node22</title>
<g id="a_edge21_Node000001_Node000022"><a xlink:title=" ">
<path fill="none" stroke="#63b8ff" d="M424.61,-701.36C434.96,-744.82 464.6,-844.66 528,-898.25 532.26,-901.85 537.02,-904.93 542.06,-907.57"/>
<polygon fill="#63b8ff" stroke="#63b8ff" points="428.05,-700.7 422.43,-691.72 421.22,-702.24 428.05,-700.7"/>
</a>
</g>
</g>
<!-- Node23 -->
<g id="Node000023" class="node">
<title>Node23</title>
<g id="a_Node000023"><a xlink:href="class_im_fusion_1_1_image_statistics_controller.html" target="_top" xlink:title=" ">
<polygon fill="white" stroke="#bfbfbf" points="677.5,-889.5 546.75,-889.5 546.75,-859 677.5,-859 677.5,-889.5"/>
<text xml:space="preserve" text-anchor="start" x="554.75" y="-876" font-family="Helvetica,sans-Serif" font-size="10.00">ImFusion::ImageStatistics</text>
<text xml:space="preserve" text-anchor="middle" x="612.12" y="-864.75" font-family="Helvetica,sans-Serif" font-size="10.00">Controller</text>
</a>
</g>
</g>
<!-- Node1&#45;&gt;Node23 -->
<g id="edge22_Node000001_Node000023" class="edge">
<title>Node1&#45;&gt;Node23</title>
<g id="a_edge22_Node000001_Node000023"><a xlink:title=" ">
<path fill="none" stroke="#63b8ff" d="M427.51,-700.44C441.53,-735.92 475.37,-809.45 528,-849.25 533.65,-853.52 540.03,-857.07 546.67,-860.01"/>
<polygon fill="#63b8ff" stroke="#63b8ff" points="430.89,-699.48 424.06,-691.39 424.35,-701.98 430.89,-699.48"/>
</a>
</g>
</g>
<!-- Node24 -->
<g id="Node000024" class="node">
<title>Node24</title>
<g id="a_Node000024"><a xlink:href="class_im_fusion_1_1_interactive_segmentation_controller.html" target="_top" xlink:title="Controller for interactive segmentation.">
<polygon fill="white" stroke="#666666" points="696.25,-840.5 528,-840.5 528,-810 696.25,-810 696.25,-840.5"/>
<text xml:space="preserve" text-anchor="start" x="536" y="-827" font-family="Helvetica,sans-Serif" font-size="10.00">ImFusion::InteractiveSegmentation</text>
<text xml:space="preserve" text-anchor="middle" x="612.12" y="-815.75" font-family="Helvetica,sans-Serif" font-size="10.00">Controller</text>
</a>
</g>
</g>
<!-- Node1&#45;&gt;Node24 -->
<g id="edge23_Node000001_Node000024" class="edge">
<title>Node1&#45;&gt;Node24</title>
<g id="a_edge23_Node000001_Node000024"><a xlink:title=" ">
<path fill="none" stroke="#63b8ff" d="M432.16,-699.52C449.88,-726.31 485.53,-774.51 528,-801.25 533.08,-804.45 538.61,-807.24 544.31,-809.66"/>
<polygon fill="#63b8ff" stroke="#63b8ff" points="435.26,-697.87 426.9,-691.36 429.38,-701.66 435.26,-697.87"/>
</a>
</g>
</g>
<!-- Node25 -->
<g id="Node000025" class="node">
<title>Node25</title>
<g id="a_Node000025"><a xlink:href="class_im_fusion_1_1_io_controller.html" target="_top" xlink:title="Controller for image IO.">
<polygon fill="white" stroke="#666666" points="668.5,-791.88 555.75,-791.88 555.75,-772.62 668.5,-772.62 668.5,-791.88"/>
<text xml:space="preserve" text-anchor="middle" x="612.12" y="-778.38" font-family="Helvetica,sans-Serif" font-size="10.00">ImFusion::IoController</text>
</a>
</g>
</g>
<!-- Node1&#45;&gt;Node25 -->
<g id="edge24_Node000001_Node000025" class="edge">
<title>Node1&#45;&gt;Node25</title>
<g id="a_edge24_Node000001_Node000025"><a xlink:title=" ">
<path fill="none" stroke="#63b8ff" d="M437.96,-698.34C458.06,-717.65 492.57,-747.68 528,-764.25 536.56,-768.25 546.04,-771.38 555.43,-773.82"/>
<polygon fill="#63b8ff" stroke="#63b8ff" points="440.46,-695.88 430.87,-691.37 435.55,-700.88 440.46,-695.88"/>
</a>
</g>
</g>
<!-- Node27 -->
<g id="Node000027" class="node">
<title>Node27</title>
<g id="a_Node000027"><a xlink:href="class_im_fusion_1_1_labeling_controller.html" target="_top" xlink:title="Controller for labeling algorithm.">
<polygon fill="white" stroke="#666666" points="682.38,-754.88 541.88,-754.88 541.88,-735.62 682.38,-735.62 682.38,-754.88"/>
<text xml:space="preserve" text-anchor="middle" x="612.12" y="-741.38" font-family="Helvetica,sans-Serif" font-size="10.00">ImFusion::LabelingController</text>
</a>
</g>
</g>
<!-- Node1&#45;&gt;Node27 -->
<g id="edge26_Node000001_Node000027" class="edge">
<title>Node1&#45;&gt;Node27</title>
<g id="a_edge26_Node000001_Node000027"><a xlink:title=" ">
<path fill="none" stroke="#63b8ff" d="M451.14,-695.22C472.4,-705.05 501.45,-717.63 528,-726.25 538.42,-729.63 549.76,-732.65 560.62,-735.22"/>
<polygon fill="#63b8ff" stroke="#63b8ff" points="452.7,-692.09 442.16,-691.01 449.73,-698.43 452.7,-692.09"/>
</a>
</g>
</g>
<!-- Node28 -->
<g id="Node000028" class="node">
<title>Node28</title>
<g id="a_Node000028"><a xlink:href="class_im_fusion_1_1_lift_chart_overlay_controller.html" target="_top" xlink:title="Controller with a dummy algorithm.">
<polygon fill="white" stroke="#666666" points="679,-717.5 545.25,-717.5 545.25,-687 679,-687 679,-717.5"/>
<text xml:space="preserve" text-anchor="start" x="553.25" y="-704" font-family="Helvetica,sans-Serif" font-size="10.00">ImFusion::LiftChartOverlay</text>
<text xml:space="preserve" text-anchor="middle" x="612.12" y="-692.75" font-family="Helvetica,sans-Serif" font-size="10.00">Controller</text>
</a>
</g>
</g>
<!-- Node1&#45;&gt;Node28 -->
<g id="edge27_Node000001_Node000028" class="edge">
<title>Node1&#45;&gt;Node28</title>
<g id="a_edge27_Node000001_Node000028"><a xlink:title=" ">
<path fill="none" stroke="#63b8ff" d="M503.76,-689.88C517.49,-691.47 531.55,-693.08 544.79,-694.61"/>
<polygon fill="#63b8ff" stroke="#63b8ff" points="504.17,-686.41 493.84,-688.74 503.37,-693.36 504.17,-686.41"/>
</a>
</g>
</g>
<!-- Node29 -->
<g id="Node000029" class="node">
<title>Node29</title>
<g id="a_Node000029"><a xlink:href="class_im_fusion_1_1_mask_editor_controller.html" target="_top" xlink:title=" ">
<polygon fill="white" stroke="#bfbfbf" points="689.12,-668.88 535.12,-668.88 535.12,-649.62 689.12,-649.62 689.12,-668.88"/>
<text xml:space="preserve" text-anchor="middle" x="612.12" y="-655.38" font-family="Helvetica,sans-Serif" font-size="10.00">ImFusion::MaskEditorController</text>
</a>
</g>
</g>
<!-- Node1&#45;&gt;Node29 -->
<g id="edge28_Node000001_Node000029" class="edge">
<title>Node1&#45;&gt;Node29</title>
<g id="a_edge28_Node000001_Node000029"><a xlink:title=" ">
<path fill="none" stroke="#63b8ff" d="M503.49,-671.08C513.85,-669.94 524.42,-668.78 534.67,-667.66"/>
<polygon fill="#63b8ff" stroke="#63b8ff" points="503.4,-667.57 493.84,-672.15 504.16,-674.53 503.4,-667.57"/>
</a>
</g>
</g>
<!-- Node30 -->
<g id="Node000030" class="node">
<title>Node30</title>
<g id="a_Node000030"><a xlink:href="class_im_fusion_1_1_mesh_distance_controller.html" target="_top" xlink:title="Controller for the MeshDistanceAlgorithm.">
<polygon fill="white" stroke="#666666" points="695.88,-631.88 528.38,-631.88 528.38,-612.62 695.88,-612.62 695.88,-631.88"/>
<text xml:space="preserve" text-anchor="middle" x="612.12" y="-618.38" font-family="Helvetica,sans-Serif" font-size="10.00">ImFusion::MeshDistanceController</text>
</a>
</g>
</g>
<!-- Node1&#45;&gt;Node30 -->
<g id="edge29_Node000001_Node000030" class="edge">
<title>Node1&#45;&gt;Node30</title>
<g id="a_edge29_Node000001_Node000030"><a xlink:title=" ">
<path fill="none" stroke="#63b8ff" d="M454.83,-665.95C475.78,-657.68 503.13,-647.51 528,-640.25 537.92,-637.35 548.63,-634.69 558.96,-632.36"/>
<polygon fill="#63b8ff" stroke="#63b8ff" points="453.61,-662.67 445.62,-669.63 456.21,-669.17 453.61,-662.67"/>
</a>
</g>
</g>
<!-- Node31 -->
<g id="Node000031" class="node">
<title>Node31</title>
<g id="a_Node000031"><a xlink:href="class_im_fusion_1_1_mesh_measurements_controller.html" target="_top" xlink:title=" ">
<polygon fill="white" stroke="#bfbfbf" points="687.62,-594.5 536.62,-594.5 536.62,-564 687.62,-564 687.62,-594.5"/>
<text xml:space="preserve" text-anchor="start" x="544.62" y="-581" font-family="Helvetica,sans-Serif" font-size="10.00">ImFusion::MeshMeasurements</text>
<text xml:space="preserve" text-anchor="middle" x="612.12" y="-569.75" font-family="Helvetica,sans-Serif" font-size="10.00">Controller</text>
</a>
</g>
</g>
<!-- Node1&#45;&gt;Node31 -->
<g id="edge30_Node000001_Node000031" class="edge">
<title>Node1&#45;&gt;Node31</title>
<g id="a_edge30_Node000001_Node000031"><a xlink:title=" ">
<path fill="none" stroke="#63b8ff" d="M439.77,-663.07C460.46,-645.77 494.59,-619.41 528,-603.25 534.36,-600.18 541.18,-597.42 548.08,-594.97"/>
<polygon fill="#63b8ff" stroke="#63b8ff" points="437.77,-660.18 432.42,-669.33 442.31,-665.51 437.77,-660.18"/>
</a>
</g>
</g>
<!-- Node32 -->
<g id="Node000032" class="node">
<title>Node32</title>
<g id="a_Node000032"><a xlink:href="class_im_fusion_1_1_mesh_point_cloud_cropping_controller.html" target="_top" xlink:title="Controller for mesh (point cloud) cropping algorithm.">
<polygon fill="white" stroke="#666666" points="679.38,-545.5 544.88,-545.5 544.88,-515 679.38,-515 679.38,-545.5"/>
<text xml:space="preserve" text-anchor="start" x="552.88" y="-532" font-family="Helvetica,sans-Serif" font-size="10.00">ImFusion::MeshPointCloud</text>
<text xml:space="preserve" text-anchor="middle" x="612.12" y="-520.75" font-family="Helvetica,sans-Serif" font-size="10.00">CroppingController</text>
</a>
</g>
</g>
<!-- Node1&#45;&gt;Node32 -->
<g id="edge31_Node000001_Node000032" class="edge">
<title>Node1&#45;&gt;Node32</title>
<g id="a_edge31_Node000001_Node000032"><a xlink:title=" ">
<path fill="none" stroke="#63b8ff" d="M431.79,-660.8C449.28,-633.28 484.9,-583.21 528,-555.25 533.56,-551.64 539.67,-548.53 545.97,-545.86"/>
<polygon fill="#63b8ff" stroke="#63b8ff" points="428.89,-658.84 426.6,-669.18 434.84,-662.52 428.89,-658.84"/>
</a>
</g>
</g>
<!-- Node33 -->
<g id="Node000033" class="node">
<title>Node33</title>
<g id="a_Node000033"><a xlink:href="class_im_fusion_1_1_parametric_image_registration_controller.html" target="_top" xlink:title=" ">
<polygon fill="white" stroke="#bfbfbf" points="680.5,-496.5 543.75,-496.5 543.75,-466 680.5,-466 680.5,-496.5"/>
<text xml:space="preserve" text-anchor="start" x="551.75" y="-483" font-family="Helvetica,sans-Serif" font-size="10.00">ImFusion::ParametricImage</text>
<text xml:space="preserve" text-anchor="middle" x="612.12" y="-471.75" font-family="Helvetica,sans-Serif" font-size="10.00">RegistrationController</text>
</a>
</g>
</g>
<!-- Node1&#45;&gt;Node33 -->
<g id="edge32_Node000001_Node000033" class="edge">
<title>Node1&#45;&gt;Node33</title>
<g id="a_edge32_Node000001_Node000033"><a xlink:title=" ">
<path fill="none" stroke="#63b8ff" d="M427.34,-659.46C441.09,-622.94 474.52,-547.24 528,-506.25 532.66,-502.67 537.84,-499.61 543.25,-496.98"/>
<polygon fill="#63b8ff" stroke="#63b8ff" points="424.07,-658.22 423.95,-668.82 430.65,-660.61 424.07,-658.22"/>
</a>
</g>
</g>
<!-- Node34 -->
<g id="Node000034" class="node">
<title>Node34</title>
<g id="a_Node000034"><a xlink:href="class_im_fusion_1_1_plotting_algorithm_controller.html" target="_top" xlink:title=" ">
<polygon fill="white" stroke="#bfbfbf" points="680.5,-447.5 543.75,-447.5 543.75,-417 680.5,-417 680.5,-447.5"/>
<text xml:space="preserve" text-anchor="start" x="551.75" y="-434" font-family="Helvetica,sans-Serif" font-size="10.00">ImFusion::PlottingAlgorithm</text>
<text xml:space="preserve" text-anchor="middle" x="612.12" y="-422.75" font-family="Helvetica,sans-Serif" font-size="10.00">Controller</text>
</a>
</g>
</g>
<!-- Node1&#45;&gt;Node34 -->
<g id="edge33_Node000001_Node000034" class="edge">
<title>Node1&#45;&gt;Node34</title>
<g id="a_edge33_Node000001_Node000034"><a xlink:title=" ">
<path fill="none" stroke="#63b8ff" d="M424.33,-659.28C434.26,-615.17 463.37,-512.37 528,-457.25 532.7,-453.24 538.03,-449.87 543.66,-447.05"/>
<polygon fill="#63b8ff" stroke="#63b8ff" points="420.91,-658.53 422.24,-669.04 427.75,-659.99 420.91,-658.53"/>
</a>
</g>
</g>
<!-- Node35 -->
<g id="Node000035" class="node">
<title>Node35</title>
<g id="a_Node000035"><a xlink:href="class_im_fusion_1_1_point_cloud_analysis_controller.html" target="_top" xlink:title="Controller for point cloud analysis.">
<polygon fill="white" stroke="#666666" points="686.12,-398.5 538.12,-398.5 538.12,-368 686.12,-368 686.12,-398.5"/>
<text xml:space="preserve" text-anchor="start" x="546.12" y="-385" font-family="Helvetica,sans-Serif" font-size="10.00">ImFusion::PointCloudAnalysis</text>
<text xml:space="preserve" text-anchor="middle" x="612.12" y="-373.75" font-family="Helvetica,sans-Serif" font-size="10.00">Controller</text>
</a>
</g>
</g>
<!-- Node1&#45;&gt;Node35 -->
<g id="edge34_Node000001_Node000035" class="edge">
<title>Node1&#45;&gt;Node35</title>
<g id="a_edge34_Node000001_Node000035"><a xlink:title=" ">
<path fill="none" stroke="#63b8ff" d="M422.33,-658.95C428.75,-607.96 452.09,-477.94 528,-408.25 532,-404.58 536.51,-401.45 541.32,-398.78"/>
<polygon fill="#63b8ff" stroke="#63b8ff" points="418.85,-658.54 421.19,-668.88 425.81,-659.34 418.85,-658.54"/>
</a>
</g>
</g>
<!-- Node36 -->
<g id="Node000036" class="node">
<title>Node36</title>
<g id="a_Node000036"><a xlink:href="class_im_fusion_1_1_point_correspondence_controller.html" target="_top" xlink:title="Controller for defining point correspondences.">
<polygon fill="white" stroke="#666666" points="690.25,-349.5 534,-349.5 534,-319 690.25,-319 690.25,-349.5"/>
<text xml:space="preserve" text-anchor="start" x="542" y="-336" font-family="Helvetica,sans-Serif" font-size="10.00">ImFusion::PointCorrespondence</text>
<text xml:space="preserve" text-anchor="middle" x="612.12" y="-324.75" font-family="Helvetica,sans-Serif" font-size="10.00">Controller</text>
</a>
</g>
</g>
<!-- Node1&#45;&gt;Node36 -->
<g id="edge35_Node000001_Node000036" class="edge">
<title>Node1&#45;&gt;Node36</title>
<g id="a_edge35_Node000001_Node000036"><a xlink:title=" ">
<path fill="none" stroke="#63b8ff" d="M420.87,-658.68C424.02,-601.36 440.63,-443.87 528,-359.25 531.79,-355.58 536.1,-352.45 540.71,-349.77"/>
<polygon fill="#63b8ff" stroke="#63b8ff" points="417.37,-658.51 420.41,-668.66 424.36,-658.83 417.37,-658.51"/>
</a>
</g>
</g>
<!-- Node37 -->
<g id="Node000037" class="node">
<title>Node37</title>
<g id="a_Node000037"><a xlink:href="class_im_fusion_1_1_point_correspondences_controller.html" target="_top" xlink:title="Controller for defining point correspondences.">
<polygon fill="white" stroke="#666666" points="692.88,-300.5 531.38,-300.5 531.38,-270 692.88,-270 692.88,-300.5"/>
<text xml:space="preserve" text-anchor="start" x="539.38" y="-287" font-family="Helvetica,sans-Serif" font-size="10.00">ImFusion::PointCorrespondences</text>
<text xml:space="preserve" text-anchor="middle" x="612.12" y="-275.75" font-family="Helvetica,sans-Serif" font-size="10.00">Controller</text>
</a>
</g>
</g>
<!-- Node1&#45;&gt;Node37 -->
<g id="edge36_Node000001_Node000037" class="edge">
<title>Node1&#45;&gt;Node37</title>
<g id="a_edge36_Node000001_Node000037"><a xlink:title=" ">
<path fill="none" stroke="#63b8ff" d="M419.74,-658.84C419.81,-596.01 428.82,-410.28 528,-310.25 531.61,-306.61 535.72,-303.5 540.15,-300.84"/>
<polygon fill="#63b8ff" stroke="#63b8ff" points="416.24,-658.82 419.82,-668.79 423.24,-658.77 416.24,-658.82"/>
</a>
</g>
</g>
<!-- Node38 -->
<g id="Node000038" class="node">
<title>Node38</title>
<g id="a_Node000038"><a xlink:href="class_im_fusion_1_1_registration_results_controller.html" target="_top" xlink:title="GUI controller managing registration results.">
<polygon fill="white" stroke="#666666" points="686.5,-251.5 537.75,-251.5 537.75,-221 686.5,-221 686.5,-251.5"/>
<text xml:space="preserve" text-anchor="start" x="545.75" y="-238" font-family="Helvetica,sans-Serif" font-size="10.00">ImFusion::RegistrationResults</text>
<text xml:space="preserve" text-anchor="middle" x="612.12" y="-226.75" font-family="Helvetica,sans-Serif" font-size="10.00">Controller</text>
</a>
</g>
</g>
<!-- Node1&#45;&gt;Node38 -->
<g id="edge37_Node000001_Node000038" class="edge">
<title>Node1&#45;&gt;Node38</title>
<g id="a_edge37_Node000001_Node000038"><a xlink:title=" ">
<path fill="none" stroke="#63b8ff" d="M422.82,-659.09C432.97,-582.37 471.31,-320.27 528,-261.25 531.45,-257.66 535.38,-254.59 539.63,-251.95"/>
<polygon fill="#63b8ff" stroke="#63b8ff" points="419.35,-658.6 421.53,-668.96 426.29,-659.5 419.35,-658.6"/>
</a>
</g>
</g>
<!-- Node39 -->
<g id="Node000039" class="node">
<title>Node39</title>
<g id="a_Node000039"><a xlink:href="class_im_fusion_1_1_seg_1_1_structures_view_algorithm_controller.html" target="_top" xlink:title="GUI for the StructuresViewAlgorithm.">
<polygon fill="white" stroke="#666666" points="677.5,-202.5 546.75,-202.5 546.75,-172 677.5,-172 677.5,-202.5"/>
<text xml:space="preserve" text-anchor="start" x="554.75" y="-189" font-family="Helvetica,sans-Serif" font-size="10.00">ImFusion::Seg::Structures</text>
<text xml:space="preserve" text-anchor="middle" x="612.12" y="-177.75" font-family="Helvetica,sans-Serif" font-size="10.00">ViewAlgorithmController</text>
</a>
</g>
</g>
<!-- Node1&#45;&gt;Node39 -->
<g id="edge38_Node000001_Node000039" class="edge">
<title>Node1&#45;&gt;Node39</title>
<g id="a_edge38_Node000001_Node000039"><a xlink:title=" ">
<path fill="none" stroke="#63b8ff" d="M422.24,-658.77C430.78,-576.02 465.38,-279.12 528,-212.25 533.15,-206.75 539.46,-202.44 546.28,-199.08"/>
<polygon fill="#63b8ff" stroke="#63b8ff" points="418.76,-658.34 421.24,-668.64 425.73,-659.04 418.76,-658.34"/>
</a>
</g>
</g>
<!-- Node40 -->
<g id="Node000040" class="node">
<title>Node40</title>
<g id="a_Node000040"><a xlink:href="class_im_fusion_1_1_set_modality_controller.html" target="_top" xlink:title="Controller for setting the modality flag of an image data instance.">
<polygon fill="white" stroke="#666666" points="690.25,-153.88 534,-153.88 534,-134.62 690.25,-134.62 690.25,-153.88"/>
<text xml:space="preserve" text-anchor="middle" x="612.12" y="-140.38" font-family="Helvetica,sans-Serif" font-size="10.00">ImFusion::SetModalityController</text>
</a>
</g>
</g>
<!-- Node1&#45;&gt;Node40 -->
<g id="edge39_Node000001_Node000040" class="edge">
<title>Node1&#45;&gt;Node40</title>
<g id="a_edge39_Node000001_Node000040"><a xlink:title=" ">
<path fill="none" stroke="#63b8ff" d="M421.57,-658.98C427.98,-570.89 456.77,-235.85 528,-163.25 531.53,-159.66 535.58,-156.68 539.96,-154.23"/>
<polygon fill="#63b8ff" stroke="#63b8ff" points="418.09,-658.6 420.88,-668.82 425.07,-659.09 418.09,-658.6"/>
</a>
</g>
</g>
<!-- Node41 -->
<g id="Node000041" class="node">
<title>Node41</title>
<g id="a_Node000041"><a xlink:href="class_im_fusion_1_1_spline_slicing_controller.html" target="_top" xlink:title="Minimal controller for spline slicing algorithm. Required to get spline.">
<polygon fill="white" stroke="#666666" points="692.5,-116.88 531.75,-116.88 531.75,-97.62 692.5,-97.62 692.5,-116.88"/>
<text xml:space="preserve" text-anchor="middle" x="612.12" y="-103.38" font-family="Helvetica,sans-Serif" font-size="10.00">ImFusion::SplineSlicingController</text>
</a>
</g>
</g>
<!-- Node1&#45;&gt;Node41 -->
<g id="edge40_Node000001_Node000041" class="edge">
<title>Node1&#45;&gt;Node41</title>
<g id="a_edge40_Node000001_Node000041"><a xlink:title=" ">
<path fill="none" stroke="#63b8ff" d="M421.21,-659.18C426.35,-567.4 451.35,-203.55 528,-125.25 531.1,-122.08 534.61,-119.41 538.4,-117.17"/>
<polygon fill="#63b8ff" stroke="#63b8ff" points="417.72,-658.79 420.68,-668.96 424.71,-659.17 417.72,-658.79"/>
</a>
</g>
</g>
<!-- Node42 -->
<g id="Node000042" class="node">
<title>Node42</title>
<g id="a_Node000042"><a xlink:href="class_im_fusion_1_1_tracked_shared_image_set_properties.html" target="_top" xlink:title="Dialog for adjusting properties of a tracked shared image set.">
<polygon fill="white" stroke="#666666" points="689.88,-79.5 534.38,-79.5 534.38,-49 689.88,-49 689.88,-79.5"/>
<text xml:space="preserve" text-anchor="start" x="542.38" y="-66" font-family="Helvetica,sans-Serif" font-size="10.00">ImFusion::TrackedSharedImage</text>
<text xml:space="preserve" text-anchor="middle" x="612.12" y="-54.75" font-family="Helvetica,sans-Serif" font-size="10.00">SetProperties</text>
</a>
</g>
</g>
<!-- Node1&#45;&gt;Node42 -->
<g id="edge41_Node000001_Node000042" class="edge">
<title>Node1&#45;&gt;Node42</title>
<g id="a_edge41_Node000001_Node000042"><a xlink:title=" ">
<path fill="none" stroke="#63b8ff" d="M421.07,-659.13C425.75,-563.88 449.47,-175.13 528,-88.25 530.92,-85.02 534.25,-82.21 537.85,-79.77"/>
<polygon fill="#63b8ff" stroke="#63b8ff" points="417.59,-658.68 420.61,-668.84 424.58,-659.01 417.59,-658.68"/>
</a>
</g>
</g>
<!-- Node43 -->
<g id="Node000043" class="node">
<title>Node43</title>
<g id="a_Node000043"><a xlink:href="class_im_fusion_1_1_tracked_shared_image_set_properties_legacy.html" target="_top" xlink:title="Dialog for adjusting properties of a tracked shared image set.">
<polygon fill="white" stroke="#666666" points="689.88,-30.5 534.38,-30.5 534.38,0 689.88,0 689.88,-30.5"/>
<text xml:space="preserve" text-anchor="start" x="542.38" y="-17" font-family="Helvetica,sans-Serif" font-size="10.00">ImFusion::TrackedSharedImage</text>
<text xml:space="preserve" text-anchor="middle" x="612.12" y="-5.75" font-family="Helvetica,sans-Serif" font-size="10.00">SetPropertiesLegacy</text>
</a>
</g>
</g>
<!-- Node1&#45;&gt;Node43 -->
<g id="edge42_Node000001_Node000043" class="edge">
<title>Node1&#45;&gt;Node43</title>
<g id="a_edge42_Node000001_Node000043"><a xlink:title=" ">
<path fill="none" stroke="#63b8ff" d="M420.78,-659.06C424.29,-559.09 444,-135.48 528,-40.25 531.19,-36.63 534.88,-33.53 538.9,-30.87"/>
<polygon fill="#63b8ff" stroke="#63b8ff" points="417.28,-658.89 420.45,-669 424.28,-659.12 417.28,-658.89"/>
</a>
</g>
</g>
<!-- Node2 -->
<g id="Node000002" class="node">
<title>Node2</title>
<g id="a_Node000002"><a xlink:href="class_im_fusion_1_1_controller.html" target="_top" xlink:title="Base interface for a GUI element within MainWindowBase.">
<polygon fill="white" stroke="#666666" points="298.25,-708.88 193.75,-708.88 193.75,-689.62 298.25,-689.62 298.25,-708.88"/>
<text xml:space="preserve" text-anchor="middle" x="246" y="-695.38" font-family="Helvetica,sans-Serif" font-size="10.00">ImFusion::Controller</text>
</a>
</g>
</g>
<!-- Node2&#45;&gt;Node1 -->
<g id="edge1_Node000001_Node000002" class="edge">
<title>Node2&#45;&gt;Node1</title>
<g id="a_edge1_Node000001_Node000002"><a xlink:title=" ">
<path fill="none" stroke="#63b8ff" d="M309.48,-692.31C321.33,-691 333.82,-689.61 345.94,-688.26"/>
<polygon fill="#63b8ff" stroke="#63b8ff" points="309.4,-688.8 299.85,-693.38 310.17,-695.76 309.4,-688.8"/>
</a>
</g>
</g>
<!-- Node3 -->
<g id="Node000003" class="node">
<title>Node3</title>
<g id="a_Node000003"><a xlink:href="class_im_fusion_1_1_configurable.html" target="_top" xlink:title="Base interface for classes that support object serialization from/to Properties objects.">
<polygon fill="white" stroke="#666666" points="131.5,-726.88 14.25,-726.88 14.25,-707.62 131.5,-707.62 131.5,-726.88"/>
<text xml:space="preserve" text-anchor="middle" x="72.88" y="-713.38" font-family="Helvetica,sans-Serif" font-size="10.00">ImFusion::Configurable</text>
</a>
</g>
</g>
<!-- Node3&#45;&gt;Node2 -->
<g id="edge2_Node000002_Node000003" class="edge">
<title>Node3&#45;&gt;Node2</title>
<g id="a_edge2_Node000002_Node000003"><a xlink:title=" ">
<path fill="none" stroke="#63b8ff" d="M143.25,-709.95C160.02,-708.19 177.65,-706.33 193.44,-704.67"/>
<polygon fill="#63b8ff" stroke="#63b8ff" points="142.89,-706.47 133.32,-711 143.63,-713.43 142.89,-706.47"/>
</a>
</g>
</g>
<!-- Node4 -->
<g id="Node000004" class="node">
<title>Node4</title>
<g id="a_Node000004"><a xlink:href="class_im_fusion_1_1_utils_1_1_not_copyable.html" target="_top" xlink:title="Inherit from this class if your class should be neither copy&#45;constructible nor assignable.">
<polygon fill="white" stroke="#666666" points="145.75,-689.88 0,-689.88 0,-670.62 145.75,-670.62 145.75,-689.88"/>
<text xml:space="preserve" text-anchor="middle" x="72.88" y="-676.38" font-family="Helvetica,sans-Serif" font-size="10.00">ImFusion::Utils::NotCopyable</text>
</a>
</g>
</g>
<!-- Node4&#45;&gt;Node2 -->
<g id="edge3_Node000002_Node000004" class="edge">
<title>Node4&#45;&gt;Node2</title>
<g id="a_edge3_Node000002_Node000004"><a xlink:title=" ">
<path fill="none" stroke="#8b1a1a" d="M157.2,-689.5C169.5,-690.87 181.87,-692.24 193.27,-693.51"/>
<polygon fill="#8b1a1a" stroke="#8b1a1a" points="157.78,-686.04 147.46,-688.42 157.01,-693 157.78,-686.04"/>
</a>
</g>
</g>
<!-- Node5 -->
<g id="Node000005" class="node">
<title>Node5</title>
<g id="a_Node000005"><a xlink:href="class_im_fusion_1_1_signal_receiver.html" target="_top" xlink:title="Base class for classes that can contain slots (i.e.">
<polygon fill="white" stroke="#666666" points="310.25,-671.88 181.75,-671.88 181.75,-652.62 310.25,-652.62 310.25,-671.88"/>
<text xml:space="preserve" text-anchor="middle" x="246" y="-658.38" font-family="Helvetica,sans-Serif" font-size="10.00">ImFusion::SignalReceiver</text>
</a>
</g>
</g>
<!-- Node5&#45;&gt;Node1 -->
<g id="edge4_Node000001_Node000005" class="edge">
<title>Node5&#45;&gt;Node1</title>
<g id="a_edge4_Node000001_Node000005"><a xlink:title=" ">
<path fill="none" stroke="#63b8ff" d="M321.91,-670.13C329.91,-670.97 338.03,-671.83 346,-672.66"/>
<polygon fill="#63b8ff" stroke="#63b8ff" points="322.54,-666.68 312.23,-669.11 321.8,-673.64 322.54,-666.68"/>
</a>
</g>
</g>
<!-- Node9 -->
<g id="Node000009" class="node">
<title>Node9</title>
<g id="a_Node000009"><a xlink:href="class_im_fusion_1_1_line_to_isosurface_intersection_controller.html" target="_top" xlink:title="Controller for the LineToIsosurfaceIntersectionAlgorithm.">
<polygon fill="white" stroke="#666666" points="883.62,-1416.5 746.88,-1416.5 746.88,-1386 883.62,-1386 883.62,-1416.5"/>
<text xml:space="preserve" text-anchor="start" x="754.88" y="-1403" font-family="Helvetica,sans-Serif" font-size="10.00">ImFusion::LineToIsosurface</text>
<text xml:space="preserve" text-anchor="middle" x="815.25" y="-1391.75" font-family="Helvetica,sans-Serif" font-size="10.00">IntersectionController</text>
</a>
</g>
</g>
<!-- Node8&#45;&gt;Node9 -->
<g id="edge8_Node000008_Node000009" class="edge">
<title>Node8&#45;&gt;Node9</title>
<g id="a_edge8_Node000008_Node000009"><a xlink:title=" ">
<path fill="none" stroke="#63b8ff" d="M689.65,-1273.87C691.97,-1275.52 694.18,-1277.31 696.25,-1279.25 729.78,-1310.72 698.78,-1344.71 732.25,-1376.25 736.47,-1380.23 741.31,-1383.58 746.49,-1386.39"/>
<polygon fill="#63b8ff" stroke="#63b8ff" points="691.86,-1271.11 681.49,-1268.94 688.24,-1277.11 691.86,-1271.11"/>
</a>
</g>
</g>
<!-- Node10 -->
<g id="Node000010" class="node">
<title>Node10</title>
<g id="a_Node000010"><a xlink:href="class_im_fusion_1_1_link_pose_deformable_controller.html" target="_top" xlink:title="Default algorithm controller for LinkPoseDeformable algorithm, with a slight modification to have GlM...">
<polygon fill="white" stroke="#666666" points="891.88,-1367.5 738.62,-1367.5 738.62,-1337 891.88,-1337 891.88,-1367.5"/>
<text xml:space="preserve" text-anchor="start" x="746.62" y="-1354" font-family="Helvetica,sans-Serif" font-size="10.00">ImFusion::LinkPoseDeformable</text>
<text xml:space="preserve" text-anchor="middle" x="815.25" y="-1342.75" font-family="Helvetica,sans-Serif" font-size="10.00">Controller</text>
</a>
</g>
</g>
<!-- Node8&#45;&gt;Node10 -->
<g id="edge9_Node000008_Node000010" class="edge">
<title>Node8&#45;&gt;Node10</title>
<g id="a_edge9_Node000008_Node000010"><a xlink:title=" ">
<path fill="none" stroke="#63b8ff" d="M689.42,-1274.93C691.78,-1276.28 694.06,-1277.72 696.25,-1279.25 718.11,-1294.52 710.42,-1311.94 732.25,-1327.25 737.37,-1330.84 743.01,-1333.92 748.88,-1336.57"/>
<polygon fill="#63b8ff" stroke="#63b8ff" points="691.25,-1271.93 680.74,-1270.54 688.08,-1278.18 691.25,-1271.93"/>
</a>
</g>
</g>
<!-- Node11 -->
<g id="Node000011" class="node">
<title>Node11</title>
<g id="a_Node000011"><a xlink:href="class_im_fusion_1_1_parse_folder_and_run_workspace_algorithm_controller.html" target="_top" xlink:title="Controller for the algorithm parsing folders and running a workspace on them.">
<polygon fill="white" stroke="#666666" points="898.25,-1318.5 732.25,-1318.5 732.25,-1288 898.25,-1288 898.25,-1318.5"/>
<text xml:space="preserve" text-anchor="start" x="740.25" y="-1305" font-family="Helvetica,sans-Serif" font-size="10.00">ImFusion::ParseFolderAnd</text>
<text xml:space="preserve" text-anchor="middle" x="815.25" y="-1293.75" font-family="Helvetica,sans-Serif" font-size="10.00">RunWorkspaceAlgorithmController</text>
</a>
</g>
</g>
<!-- Node8&#45;&gt;Node11 -->
<g id="edge10_Node000008_Node000011" class="edge">
<title>Node8&#45;&gt;Node11</title>
<g id="a_edge10_Node000008_Node000011"><a xlink:title=" ">
<path fill="none" stroke="#63b8ff" d="M688.61,-1272.64C708.75,-1277.55 730.32,-1282.8 749.8,-1287.55"/>
<polygon fill="#63b8ff" stroke="#63b8ff" points="689.61,-1269.28 679.06,-1270.31 687.95,-1276.08 689.61,-1269.28"/>
</a>
</g>
</g>
<!-- Node12 -->
<g id="Node000012" class="node">
<title>Node12</title>
<g id="a_Node000012"><a xlink:href="class_im_fusion_1_1_r_t_structure_to_label_map_controller.html" target="_top" xlink:title="Controller that allows to select a reference volume for the RTStructureToLabelMap algorithm.">
<polygon fill="white" stroke="#666666" points="890,-1269.5 740.5,-1269.5 740.5,-1239 890,-1239 890,-1269.5"/>
<text xml:space="preserve" text-anchor="start" x="748.5" y="-1256" font-family="Helvetica,sans-Serif" font-size="10.00">ImFusion::RTStructureToLabel</text>
<text xml:space="preserve" text-anchor="middle" x="815.25" y="-1244.75" font-family="Helvetica,sans-Serif" font-size="10.00">MapController</text>
</a>
</g>
</g>
<!-- Node8&#45;&gt;Node12 -->
<g id="edge11_Node000008_Node000012" class="edge">
<title>Node8&#45;&gt;Node12</title>
<g id="a_edge11_Node000008_Node000012"><a xlink:title=" ">
<path fill="none" stroke="#63b8ff" d="M691.6,-1254.25C707.63,-1254.25 724.44,-1254.25 740.3,-1254.25"/>
<polygon fill="#63b8ff" stroke="#63b8ff" points="691.61,-1250.75 681.61,-1254.25 691.61,-1257.75 691.61,-1250.75"/>
</a>
</g>
</g>
<!-- Node13 -->
<g id="Node000013" class="node">
<title>Node13</title>
<g id="a_Node000013"><a xlink:href="class_im_fusion_1_1_spline_label_painter_algorithm_controller.html" target="_top" xlink:title="Controller for SplineLabelPainterAlgorithm.">
<polygon fill="white" stroke="#666666" points="887,-1220.5 743.5,-1220.5 743.5,-1190 887,-1190 887,-1220.5"/>
<text xml:space="preserve" text-anchor="start" x="751.5" y="-1207" font-family="Helvetica,sans-Serif" font-size="10.00">ImFusion::SplineLabelPainter</text>
<text xml:space="preserve" text-anchor="middle" x="815.25" y="-1195.75" font-family="Helvetica,sans-Serif" font-size="10.00">AlgorithmController</text>
</a>
</g>
</g>
<!-- Node8&#45;&gt;Node13 -->
<g id="edge12_Node000008_Node000013" class="edge">
<title>Node8&#45;&gt;Node13</title>
<g id="a_edge12_Node000008_Node000013"><a xlink:title=" ">
<path fill="none" stroke="#63b8ff" d="M688.61,-1235.86C708.75,-1230.95 730.32,-1225.7 749.8,-1220.95"/>
<polygon fill="#63b8ff" stroke="#63b8ff" points="687.95,-1232.42 679.06,-1238.19 689.61,-1239.22 687.95,-1232.42"/>
</a>
</g>
</g>
<!-- Node14 -->
<g id="Node000014" class="node">
<title>Node14</title>
<g id="a_Node000014"><a xlink:href="class_im_fusion_1_1_volume_based_mesh_curvature_controller.html" target="_top" xlink:title=" ">
<polygon fill="white" stroke="#bfbfbf" points="888.88,-1171.5 741.62,-1171.5 741.62,-1141 888.88,-1141 888.88,-1171.5"/>
<text xml:space="preserve" text-anchor="start" x="749.62" y="-1158" font-family="Helvetica,sans-Serif" font-size="10.00">ImFusion::VolumeBasedMesh</text>
<text xml:space="preserve" text-anchor="middle" x="815.25" y="-1146.75" font-family="Helvetica,sans-Serif" font-size="10.00">CurvatureController</text>
</a>
</g>
</g>
<!-- Node8&#45;&gt;Node14 -->
<g id="edge13_Node000008_Node000014" class="edge">
<title>Node8&#45;&gt;Node14</title>
<g id="a_edge13_Node000008_Node000014"><a xlink:title=" ">
<path fill="none" stroke="#63b8ff" d="M689.42,-1233.57C691.78,-1232.22 694.06,-1230.78 696.25,-1229.25 718.11,-1213.98 710.42,-1196.56 732.25,-1181.25 737.37,-1177.66 743.01,-1174.58 748.88,-1171.93"/>
<polygon fill="#63b8ff" stroke="#63b8ff" points="688.08,-1230.32 680.74,-1237.96 691.25,-1236.57 688.08,-1230.32"/>
</a>
</g>
</g>
<!-- Node15 -->
<g id="Node000015" class="node">
<title>Node15</title>
<g id="a_Node000015"><a xlink:href="class_im_fusion_1_1_volume_based_mesh_registration_controller.html" target="_top" xlink:title=" ">
<polygon fill="white" stroke="#bfbfbf" points="888.88,-1122.5 741.62,-1122.5 741.62,-1092 888.88,-1092 888.88,-1122.5"/>
<text xml:space="preserve" text-anchor="start" x="749.62" y="-1109" font-family="Helvetica,sans-Serif" font-size="10.00">ImFusion::VolumeBasedMesh</text>
<text xml:space="preserve" text-anchor="middle" x="815.25" y="-1097.75" font-family="Helvetica,sans-Serif" font-size="10.00">RegistrationController</text>
</a>
</g>
</g>
<!-- Node8&#45;&gt;Node15 -->
<g id="edge14_Node000008_Node000015" class="edge">
<title>Node8&#45;&gt;Node15</title>
<g id="a_edge14_Node000008_Node000015"><a xlink:title=" ">
<path fill="none" stroke="#63b8ff" d="M689.65,-1234.63C691.97,-1232.98 694.18,-1231.19 696.25,-1229.25 729.78,-1197.78 698.78,-1163.79 732.25,-1132.25 736.04,-1128.68 740.33,-1125.61 744.91,-1122.99"/>
<polygon fill="#63b8ff" stroke="#63b8ff" points="688.24,-1231.39 681.49,-1239.56 691.86,-1237.39 688.24,-1231.39"/>
</a>
</g>
</g>
<!-- Node26 -->
<g id="Node000026" class="node">
<title>Node26</title>
<g id="a_Node000026"><a xlink:href="class_im_fusion_1_1_dicom_io_controller.html" target="_top" xlink:title=" ">
<polygon fill="white" stroke="#bfbfbf" points="885.88,-791.88 744.62,-791.88 744.62,-772.62 885.88,-772.62 885.88,-791.88"/>
<text xml:space="preserve" text-anchor="middle" x="815.25" y="-778.38" font-family="Helvetica,sans-Serif" font-size="10.00">ImFusion::DicomIoController</text>
</a>
</g>
</g>
<!-- Node25&#45;&gt;Node26 -->
<g id="edge25_Node000025_Node000026" class="edge">
<title>Node25&#45;&gt;Node26</title>
<g id="a_edge25_Node000025_Node000026"><a xlink:title=" ">
<path fill="none" stroke="#63b8ff" d="M680.39,-782.25C700.96,-782.25 723.63,-782.25 744.37,-782.25"/>
<polygon fill="#63b8ff" stroke="#63b8ff" points="680.4,-778.75 670.4,-782.25 680.4,-785.75 680.4,-778.75"/>
</a>
</g>
</g>
</g>
</svg>

<g id="navigator" transform="translate(0 0)" fill="#404254">
  <rect fill="#f2f5e9" fill-opacity="0.5" stroke="#606060" stroke-width=".5" x="0" y="0" width="60" height="60"/>
  <use id="zoomplus" xlink:href="#zoomPlus" x="17" y="9" onmousedown="handleZoom(evt,'in')"/>
  <use id="zoomminus" xlink:href="#zoomMin" x="42" y="9" onmousedown="handleZoom(evt,'out')"/>
  <use id="reset" xlink:href="#resetDef" x="30" y="36" onmousedown="handleReset()"/>
   <use id="arrowup" xlink:href="#arrowUp" x="0" y="0" onmousedown="handlePan(0,-1)"/>
  <use id="arrowright" xlink:href="#arrowRight" x="0" y="0" onmousedown="handlePan(1,0)"/>
  <use id="arrowdown" xlink:href="#arrowDown" x="0" y="0" onmousedown="handlePan(0,1)"/>
  <use id="arrowleft" xlink:href="#arrowLeft" x="0" y="0" onmousedown="handlePan(-1,0)"/>
</g>
<svg viewBox="0 0 15 15" width="100%" height="30px" preserveAspectRatio="xMaxYMin meet">
 <g id="arrow_out" transform="scale(0.3 0.3)">
  <a xlink:href="class_im_fusion_1_1_algorithm_controller__inherit__graph_org.svg" target="_base">
   <rect id="button" ry="5" rx="5" y="6" x="6" height="38" width="38"
        fill="#f2f5e9" fill-opacity="0.5" stroke="#606060" stroke-width="1.0"/>
   <path id="arrow"
     d="M 11.500037,31.436501 C 11.940474,20.09759 22.043105,11.32322 32.158766,21.979434 L 37.068811,17.246167 C 37.068811,17.246167 37.088388,32 37.088388,32 L 22.160133,31.978069 C 22.160133,31.978069 26.997745,27.140456 26.997745,27.140456 C 18.528582,18.264221 13.291696,25.230495 11.500037,31.436501 z"
     style="fill:#404040;"/>
  </a>
 </g>
</svg>

<style type='text/css'>
<![CDATA[
[data-mouse-over-selected='false'] { opacity: 0.7; }
[data-mouse-over-selected='true']  { opacity: 1.0; }
]]>
</style>
<script type="application/ecmascript"><![CDATA[
document.addEventListener('DOMContentLoaded', (event) => {
  highlightEdges();
  highlightAdjacentNodes();
});
]]></script>
</svg>
