<?xml version="1.0" encoding="UTF-8" standalone="no"?>
<!DOCTYPE svg PUBLIC "-//W3C//DTD SVG 1.1//EN"
 "http://www.w3.org/Graphics/SVG/1.1/DTD/svg11.dtd">
<!-- Generated by graphviz version 14.1.4 (20260321.0153)
 -->
<!-- Title: ImFusion::InteractiveView Pages: 1 -->
<svg width="619pt" height="175pt"
 viewBox="0.00 0.00 619.00 175.00" xmlns="http://www.w3.org/2000/svg" xmlns:xlink="http://www.w3.org/1999/xlink">
<g id="graph0" class="graph" transform="scale(1 1) rotate(0) translate(4 171.25)">
<title>ImFusion::InteractiveView</title>
<!-- Node1 -->
<g id="Node000001" class="node">
<title>Node1</title>
<g id="a_Node000001"><a xlink:title="Abstract base class for a view that can be hosted by a DisplayWidget.">
<polygon fill="#999999" stroke="#666666" points="438.75,-93.25 308.75,-93.25 308.75,-74 438.75,-74 438.75,-93.25"/>
<text xml:space="preserve" text-anchor="middle" x="373.75" y="-79.75" font-family="Helvetica,sans-Serif" font-size="10.00">ImFusion::InteractiveView</text>
</a>
</g>
</g>
<!-- Node6 -->
<g id="Node000006" class="node">
<title>Node6</title>
<g id="a_Node000006"><a xlink:href="class_im_fusion_1_1_curve_editor_view.html" target="_top" xlink:title="Curve editor view.">
<polygon fill="white" stroke="#666666" points="610.75,-167.25 474.75,-167.25 474.75,-148 610.75,-148 610.75,-167.25"/>
<text xml:space="preserve" text-anchor="middle" x="542.75" y="-153.75" font-family="Helvetica,sans-Serif" font-size="10.00">ImFusion::CurveEditorView</text>
</a>
</g>
</g>
<!-- Node1&#45;&gt;Node6 -->
<g id="edge5_Node000001_Node000006" class="edge">
<title>Node1&#45;&gt;Node6</title>
<g id="a_edge5_Node000001_Node000006"><a xlink:title=" ">
<path fill="none" stroke="#63b8ff" d="M399.45,-99.74C419.18,-112.05 447.88,-128.69 474.75,-139.62 482.11,-142.62 490.13,-145.27 497.98,-147.55"/>
<polygon fill="#63b8ff" stroke="#63b8ff" points="401.34,-96.8 391.02,-94.4 397.59,-102.71 401.34,-96.8"/>
</a>
</g>
</g>
<!-- Node7 -->
<g id="Node000007" class="node">
<title>Node7</title>
<g id="a_Node000007"><a xlink:href="class_im_fusion_1_1_curved_view.html" target="_top" xlink:title="Interactive 2D view of one or multiple images.">
<polygon fill="white" stroke="#666666" points="600.62,-130.25 484.88,-130.25 484.88,-111 600.62,-111 600.62,-130.25"/>
<text xml:space="preserve" text-anchor="middle" x="542.75" y="-116.75" font-family="Helvetica,sans-Serif" font-size="10.00">ImFusion::CurvedView</text>
</a>
</g>
</g>
<!-- Node1&#45;&gt;Node7 -->
<g id="edge6_Node000001_Node000007" class="edge">
<title>Node1&#45;&gt;Node7</title>
<g id="a_edge6_Node000001_Node000007"><a xlink:title=" ">
<path fill="none" stroke="#63b8ff" d="M431.47,-96.19C452.56,-100.87 476.2,-106.1 496.17,-110.53"/>
<polygon fill="#63b8ff" stroke="#63b8ff" points="432.38,-92.81 421.86,-94.06 430.87,-99.64 432.38,-92.81"/>
</a>
</g>
</g>
<!-- Node8 -->
<g id="Node000008" class="node">
<title>Node8</title>
<g id="a_Node000008"><a xlink:href="class_im_fusion_1_1_image_view2_d.html" target="_top" xlink:title="High&#45;level wrapper class for 2D/MPR rendering of one or multiple images.">
<polygon fill="white" stroke="#666666" points="604.75,-93.25 480.75,-93.25 480.75,-74 604.75,-74 604.75,-93.25"/>
<text xml:space="preserve" text-anchor="middle" x="542.75" y="-79.75" font-family="Helvetica,sans-Serif" font-size="10.00">ImFusion::ImageView2D</text>
</a>
</g>
</g>
<!-- Node1&#45;&gt;Node8 -->
<g id="edge7_Node000001_Node000008" class="edge">
<title>Node1&#45;&gt;Node8</title>
<g id="a_edge7_Node000001_Node000008"><a xlink:title=" ">
<path fill="none" stroke="#63b8ff" d="M450.14,-83.62C460.23,-83.62 470.49,-83.62 480.31,-83.62"/>
<polygon fill="#63b8ff" stroke="#63b8ff" points="450.35,-80.13 440.35,-83.63 450.35,-87.13 450.35,-80.13"/>
</a>
</g>
</g>
<!-- Node9 -->
<g id="Node000009" class="node">
<title>Node9</title>
<g id="a_Node000009"><a xlink:href="class_im_fusion_1_1_image_view3_d.html" target="_top" xlink:title="Qt widget for 3d rendering of one or multiple images.">
<polygon fill="white" stroke="#666666" points="604.75,-56.25 480.75,-56.25 480.75,-37 604.75,-37 604.75,-56.25"/>
<text xml:space="preserve" text-anchor="middle" x="542.75" y="-42.75" font-family="Helvetica,sans-Serif" font-size="10.00">ImFusion::ImageView3D</text>
</a>
</g>
</g>
<!-- Node1&#45;&gt;Node9 -->
<g id="edge8_Node000001_Node000009" class="edge">
<title>Node1&#45;&gt;Node9</title>
<g id="a_edge8_Node000001_Node000009"><a xlink:title=" ">
<path fill="none" stroke="#63b8ff" d="M431.47,-71.06C452.56,-66.38 476.2,-61.15 496.17,-56.72"/>
<polygon fill="#63b8ff" stroke="#63b8ff" points="430.87,-67.61 421.86,-73.19 432.38,-74.44 430.87,-67.61"/>
</a>
</g>
</g>
<!-- Node10 -->
<g id="Node000010" class="node">
<title>Node10</title>
<g id="a_Node000010"><a xlink:href="class_im_fusion_1_1_plot_view.html" target="_top" xlink:title="View for plotting data.">
<polygon fill="white" stroke="#666666" points="593.5,-19.25 492,-19.25 492,0 593.5,0 593.5,-19.25"/>
<text xml:space="preserve" text-anchor="middle" x="542.75" y="-5.75" font-family="Helvetica,sans-Serif" font-size="10.00">ImFusion::PlotView</text>
</a>
</g>
</g>
<!-- Node1&#45;&gt;Node10 -->
<g id="edge9_Node000001_Node000010" class="edge">
<title>Node1&#45;&gt;Node10</title>
<g id="a_edge9_Node000001_Node000010"><a xlink:title=" ">
<path fill="none" stroke="#63b8ff" d="M399.45,-67.51C419.18,-55.2 447.88,-38.56 474.75,-27.62 482.11,-24.63 490.13,-21.98 497.98,-19.7"/>
<polygon fill="#63b8ff" stroke="#63b8ff" points="397.59,-64.54 391.02,-72.85 401.34,-70.45 397.59,-64.54"/>
</a>
</g>
</g>
<!-- Node2 -->
<g id="Node000002" class="node">
<title>Node2</title>
<g id="a_Node000002"><a xlink:title=" ">
<polygon fill="white" stroke="#bfbfbf" points="244.62,-112.25 192.62,-112.25 192.62,-93 244.62,-93 244.62,-112.25"/>
<text xml:space="preserve" text-anchor="middle" x="218.62" y="-98.75" font-family="Helvetica,sans-Serif" font-size="10.00">QObject</text>
</a>
</g>
</g>
<!-- Node2&#45;&gt;Node1 -->
<g id="edge1_Node000001_Node000002" class="edge">
<title>Node2&#45;&gt;Node1</title>
<g id="a_edge1_Node000001_Node000002"><a xlink:title=" ">
<path fill="none" stroke="#63b8ff" d="M256.21,-98.09C271.85,-96.14 290.6,-93.82 308.44,-91.61"/>
<polygon fill="#63b8ff" stroke="#63b8ff" points="255.91,-94.6 246.41,-99.3 256.77,-101.54 255.91,-94.6"/>
</a>
</g>
</g>
<!-- Node3 -->
<g id="Node000003" class="node">
<title>Node3</title>
<g id="a_Node000003"><a xlink:href="class_im_fusion_1_1_g_u_i_1_1_view.html" target="_top" xlink:title="Base interface for a rendering view (e.g.">
<polygon fill="white" stroke="#666666" points="272.75,-75.25 164.5,-75.25 164.5,-56 272.75,-56 272.75,-75.25"/>
<text xml:space="preserve" text-anchor="middle" x="218.62" y="-61.75" font-family="Helvetica,sans-Serif" font-size="10.00">ImFusion::GUI::View</text>
</a>
</g>
</g>
<!-- Node3&#45;&gt;Node1 -->
<g id="edge2_Node000001_Node000003" class="edge">
<title>Node3&#45;&gt;Node1</title>
<g id="a_edge2_Node000001_Node000003"><a xlink:title=" ">
<path fill="none" stroke="#63b8ff" d="M284.59,-73.26C292.48,-74.19 300.55,-75.14 308.44,-76.06"/>
<polygon fill="#63b8ff" stroke="#63b8ff" points="285.02,-69.79 274.68,-72.1 284.21,-76.74 285.02,-69.79"/>
</a>
</g>
</g>
<!-- Node4 -->
<g id="Node000004" class="node">
<title>Node4</title>
<g id="a_Node000004"><a xlink:href="class_im_fusion_1_1_configurable.html" target="_top" xlink:title="Base interface for classes that support object serialization from/to Properties objects.">
<polygon fill="white" stroke="#666666" points="122.88,-94.25 5.62,-94.25 5.62,-75 122.88,-75 122.88,-94.25"/>
<text xml:space="preserve" text-anchor="middle" x="64.25" y="-80.75" font-family="Helvetica,sans-Serif" font-size="10.00">ImFusion::Configurable</text>
</a>
</g>
</g>
<!-- Node4&#45;&gt;Node3 -->
<g id="edge3_Node000003_Node000004" class="edge">
<title>Node4&#45;&gt;Node3</title>
<g id="a_edge3_Node000003_Node000004"><a xlink:title=" ">
<path fill="none" stroke="#63b8ff" d="M134.47,-75.99C144.47,-74.75 154.63,-73.48 164.25,-72.28"/>
<polygon fill="#63b8ff" stroke="#63b8ff" points="134.28,-72.49 124.79,-77.2 135.15,-79.44 134.28,-72.49"/>
</a>
</g>
</g>
<!-- Node5 -->
<g id="Node000005" class="node">
<title>Node5</title>
<g id="a_Node000005"><a xlink:href="class_im_fusion_1_1_signal_receiver.html" target="_top" xlink:title="Base class for classes that can contain slots (i.e.">
<polygon fill="white" stroke="#666666" points="128.5,-57.25 0,-57.25 0,-38 128.5,-38 128.5,-57.25"/>
<text xml:space="preserve" text-anchor="middle" x="64.25" y="-43.75" font-family="Helvetica,sans-Serif" font-size="10.00">ImFusion::SignalReceiver</text>
</a>
</g>
</g>
<!-- Node5&#45;&gt;Node3 -->
<g id="edge4_Node000003_Node000005" class="edge">
<title>Node5&#45;&gt;Node3</title>
<g id="a_edge4_Node000003_Node000005"><a xlink:title=" ">
<path fill="none" stroke="#63b8ff" d="M140.36,-56.5C148.44,-57.45 156.53,-58.41 164.28,-59.32"/>
<polygon fill="#63b8ff" stroke="#63b8ff" points="140.83,-53.03 130.49,-55.33 140.01,-59.98 140.83,-53.03"/>
</a>
</g>
</g>
</g>
</svg>
