<?xml version="1.0" encoding="UTF-8" standalone="no"?>
<!DOCTYPE svg PUBLIC "-//W3C//DTD SVG 1.1//EN"
 "http://www.w3.org/Graphics/SVG/1.1/DTD/svg11.dtd">
<!-- Generated by graphviz version 14.1.4 (20260321.0153)
 -->
<!-- Title: ImFusion::GlImageIntensifierAngleOverlay Pages: 1 -->
<svg width="290pt" height="204pt"
 viewBox="0.00 0.00 290.00 204.00" xmlns="http://www.w3.org/2000/svg" xmlns:xlink="http://www.w3.org/1999/xlink">
<g id="graph0" class="graph" transform="scale(1 1) rotate(0) translate(4 200.25)">
<title>ImFusion::GlImageIntensifierAngleOverlay</title>
<!-- Node1 -->
<g id="Node000001" class="node">
<title>Node1</title>
<g id="a_Node000001"><a xlink:title="Text overlay representing the current view&#39;s matrix in the form of image intensifier angles,...">
<polygon fill="#999999" stroke="#666666" points="215.88,-30.5 73.88,-30.5 73.88,0 215.88,0 215.88,-30.5"/>
<text xml:space="preserve" text-anchor="start" x="81.88" y="-17" font-family="Helvetica,sans-Serif" font-size="10.00">ImFusion::GlImageIntensifier</text>
<text xml:space="preserve" text-anchor="middle" x="144.88" y="-5.75" font-family="Helvetica,sans-Serif" font-size="10.00">AngleOverlay</text>
</a>
</g>
</g>
<!-- Node2 -->
<g id="Node000002" class="node">
<title>Node2</title>
<g id="a_Node000002"><a xlink:href="class_im_fusion_1_1_gl_text_overlay.html" target="_top" xlink:title="Renderer for displaying text as view overlay.">
<polygon fill="white" stroke="#666666" points="135.25,-85.75 10.5,-85.75 10.5,-66.5 135.25,-66.5 135.25,-85.75"/>
<text xml:space="preserve" text-anchor="middle" x="72.88" y="-72.25" font-family="Helvetica,sans-Serif" font-size="10.00">ImFusion::GlTextOverlay</text>
</a>
</g>
</g>
<!-- Node2&#45;&gt;Node1 -->
<g id="edge1_Node000001_Node000002" class="edge">
<title>Node2&#45;&gt;Node1</title>
<g id="a_edge1_Node000001_Node000002"><a xlink:title=" ">
<path fill="none" stroke="#63b8ff" d="M92.53,-59.06C103.32,-50.23 116.62,-39.36 127.1,-30.78"/>
<polygon fill="#63b8ff" stroke="#63b8ff" points="90.51,-56.19 84.98,-65.23 94.94,-61.6 90.51,-56.19"/>
</a>
</g>
</g>
<!-- Node3 -->
<g id="Node000003" class="node">
<title>Node3</title>
<g id="a_Node000003"><a xlink:href="class_im_fusion_1_1_gl_overlay.html" target="_top" xlink:title="Abstract base class for OpenGL overlays.">
<polygon fill="white" stroke="#666666" points="125.88,-141 19.88,-141 19.88,-121.75 125.88,-121.75 125.88,-141"/>
<text xml:space="preserve" text-anchor="middle" x="72.88" y="-127.5" font-family="Helvetica,sans-Serif" font-size="10.00">ImFusion::GlOverlay</text>
</a>
</g>
</g>
<!-- Node3&#45;&gt;Node2 -->
<g id="edge2_Node000002_Node000003" class="edge">
<title>Node3&#45;&gt;Node2</title>
<g id="a_edge2_Node000002_Node000003"><a xlink:title=" ">
<path fill="none" stroke="#63b8ff" d="M72.88,-110.13C72.88,-101.84 72.88,-92.67 72.88,-86.11"/>
<polygon fill="#63b8ff" stroke="#63b8ff" points="69.38,-110.07 72.88,-120.07 76.38,-110.07 69.38,-110.07"/>
</a>
</g>
</g>
<!-- Node4 -->
<g id="Node000004" class="node">
<title>Node4</title>
<g id="a_Node000004"><a xlink:href="class_im_fusion_1_1_utils_1_1_not_copyable.html" target="_top" xlink:title="Inherit from this class if your class should be neither copy&#45;constructible nor assignable.">
<polygon fill="white" stroke="#666666" points="145.75,-196.25 0,-196.25 0,-177 145.75,-177 145.75,-196.25"/>
<text xml:space="preserve" text-anchor="middle" x="72.88" y="-182.75" font-family="Helvetica,sans-Serif" font-size="10.00">ImFusion::Utils::NotCopyable</text>
</a>
</g>
</g>
<!-- Node4&#45;&gt;Node3 -->
<g id="edge3_Node000003_Node000004" class="edge">
<title>Node4&#45;&gt;Node3</title>
<g id="a_edge3_Node000003_Node000004"><a xlink:title=" ">
<path fill="none" stroke="#8b1a1a" d="M72.88,-165.38C72.88,-157.09 72.88,-147.92 72.88,-141.36"/>
<polygon fill="#8b1a1a" stroke="#8b1a1a" points="69.38,-165.32 72.88,-175.32 76.38,-165.32 69.38,-165.32"/>
</a>
</g>
</g>
<!-- Node5 -->
<g id="Node000005" class="node">
<title>Node5</title>
<g id="a_Node000005"><a xlink:href="class_im_fusion_1_1_signal_receiver.html" target="_top" xlink:title="Base class for classes that can contain slots (i.e.">
<polygon fill="white" stroke="#666666" points="282.12,-85.75 153.62,-85.75 153.62,-66.5 282.12,-66.5 282.12,-85.75"/>
<text xml:space="preserve" text-anchor="middle" x="217.88" y="-72.25" font-family="Helvetica,sans-Serif" font-size="10.00">ImFusion::SignalReceiver</text>
</a>
</g>
</g>
<!-- Node5&#45;&gt;Node1 -->
<g id="edge4_Node000001_Node000005" class="edge">
<title>Node5&#45;&gt;Node1</title>
<g id="a_edge4_Node000001_Node000005"><a xlink:title=" ">
<path fill="none" stroke="#63b8ff" d="M197.95,-59.06C187,-50.23 173.53,-39.36 162.89,-30.78"/>
<polygon fill="#63b8ff" stroke="#63b8ff" points="195.63,-61.68 205.61,-65.23 200.02,-56.23 195.63,-61.68"/>
</a>
</g>
</g>
</g>
</svg>
