<?xml version="1.0" encoding="UTF-8" standalone="no"?>
<!DOCTYPE svg PUBLIC "-//W3C//DTD SVG 1.1//EN"
 "http://www.w3.org/Graphics/SVG/1.1/DTD/svg11.dtd">
<!-- Generated by graphviz version 14.1.4 (20260321.0153)
 -->
<!-- Title: ImFusion::SequentialImageProcessor Pages: 1 -->
<svg width="349pt" height="199pt"
 viewBox="0.00 0.00 349.00 199.00" xmlns="http://www.w3.org/2000/svg" xmlns:xlink="http://www.w3.org/1999/xlink">
<g id="graph0" class="graph" transform="scale(1 1) rotate(0) translate(4 194.88)">
<title>ImFusion::SequentialImageProcessor</title>
<!-- Node1 -->
<g id="Node000001" class="node">
<title>Node1</title>
<g id="a_Node000001"><a xlink:title="Interface for algorithms that are able to repeatedly process individual images.">
<polygon fill="#999999" stroke="#666666" points="135.25,-122.5 0,-122.5 0,-92 135.25,-92 135.25,-122.5"/>
<text xml:space="preserve" text-anchor="start" x="8" y="-109" font-family="Helvetica,sans-Serif" font-size="10.00">ImFusion::SequentialImage</text>
<text xml:space="preserve" text-anchor="middle" x="67.62" y="-97.75" font-family="Helvetica,sans-Serif" font-size="10.00">Processor</text>
</a>
</g>
</g>
<!-- Node2 -->
<g id="Node000002" class="node">
<title>Node2</title>
<g id="a_Node000002"><a xlink:href="class_im_fusion_1_1_apply_mask_algorithm.html" target="_top" xlink:title="Algorithm for applying a mask and a cropping to an image.">
<polygon fill="white" stroke="#666666" points="332.38,-190.88 179.88,-190.88 179.88,-171.62 332.38,-171.62 332.38,-190.88"/>
<text xml:space="preserve" text-anchor="middle" x="256.12" y="-177.38" font-family="Helvetica,sans-Serif" font-size="10.00">ImFusion::ApplyMaskAlgorithm</text>
</a>
</g>
</g>
<!-- Node1&#45;&gt;Node2 -->
<g id="edge1_Node000001_Node000002" class="edge">
<title>Node1&#45;&gt;Node2</title>
<g id="a_edge1_Node000001_Node000002"><a xlink:title=" ">
<path fill="none" stroke="#63b8ff" d="M102.18,-128.78C121.69,-140.45 147.11,-154.29 171.25,-163.25 179.63,-166.36 188.69,-169 197.64,-171.22"/>
<polygon fill="#63b8ff" stroke="#63b8ff" points="104.22,-125.92 93.86,-123.69 100.57,-131.89 104.22,-125.92"/>
</a>
</g>
</g>
<!-- Node3 -->
<g id="Node000003" class="node">
<title>Node3</title>
<g id="a_Node000003"><a xlink:href="class_im_fusion_1_1_basic_image_processing.html" target="_top" xlink:title="Basic image processing such as downsample, flip, rotate or data type change.">
<polygon fill="white" stroke="#666666" points="337.62,-153.88 174.62,-153.88 174.62,-134.62 337.62,-134.62 337.62,-153.88"/>
<text xml:space="preserve" text-anchor="middle" x="256.12" y="-140.38" font-family="Helvetica,sans-Serif" font-size="10.00">ImFusion::BasicImageProcessing</text>
</a>
</g>
</g>
<!-- Node1&#45;&gt;Node3 -->
<g id="edge2_Node000001_Node000003" class="edge">
<title>Node1&#45;&gt;Node3</title>
<g id="a_edge2_Node000001_Node000003"><a xlink:title=" ">
<path fill="none" stroke="#63b8ff" d="M146.95,-122.79C166.28,-126.62 186.49,-130.63 204.14,-134.14"/>
<polygon fill="#63b8ff" stroke="#63b8ff" points="147.67,-119.36 137.18,-120.85 146.3,-126.23 147.67,-119.36"/>
</a>
</g>
</g>
<!-- Node4 -->
<g id="Node000004" class="node">
<title>Node4</title>
<g id="a_Node000004"><a xlink:href="class_im_fusion_1_1_gl_filter_set.html" target="_top" xlink:title="Processing multiple images with a standard filter.">
<polygon fill="white" stroke="#666666" points="310.62,-116.88 201.62,-116.88 201.62,-97.62 310.62,-97.62 310.62,-116.88"/>
<text xml:space="preserve" text-anchor="middle" x="256.12" y="-103.38" font-family="Helvetica,sans-Serif" font-size="10.00">ImFusion::GlFilterSet</text>
</a>
</g>
</g>
<!-- Node1&#45;&gt;Node4 -->
<g id="edge3_Node000001_Node000004" class="edge">
<title>Node1&#45;&gt;Node4</title>
<g id="a_edge3_Node000001_Node000004"><a xlink:title=" ">
<path fill="none" stroke="#63b8ff" d="M147.2,-107.25C165.38,-107.25 184.33,-107.25 201.19,-107.25"/>
<polygon fill="#63b8ff" stroke="#63b8ff" points="147.21,-103.75 137.21,-107.25 147.21,-110.75 147.21,-103.75"/>
</a>
</g>
</g>
<!-- Node5 -->
<g id="Node000005" class="node">
<title>Node5</title>
<g id="a_Node000005"><a xlink:href="class_im_fusion_1_1_image_resampling_algorithm.html" target="_top" xlink:title="Algorithm for resampling an image to a target dimension or resolution, optionally with respect to ano...">
<polygon fill="white" stroke="#666666" points="326.75,-79.5 185.5,-79.5 185.5,-49 326.75,-49 326.75,-79.5"/>
<text xml:space="preserve" text-anchor="start" x="193.5" y="-66" font-family="Helvetica,sans-Serif" font-size="10.00">ImFusion::ImageResampling</text>
<text xml:space="preserve" text-anchor="middle" x="256.12" y="-54.75" font-family="Helvetica,sans-Serif" font-size="10.00">Algorithm</text>
</a>
</g>
</g>
<!-- Node1&#45;&gt;Node5 -->
<g id="edge4_Node000001_Node000005" class="edge">
<title>Node1&#45;&gt;Node5</title>
<g id="a_edge4_Node000001_Node000005"><a xlink:title=" ">
<path fill="none" stroke="#63b8ff" d="M146.81,-89.22C160.19,-86.14 174,-82.96 187.09,-79.94"/>
<polygon fill="#63b8ff" stroke="#63b8ff" points="146.13,-85.79 137.17,-91.45 147.7,-92.61 146.13,-85.79"/>
</a>
</g>
</g>
<!-- Node6 -->
<g id="Node000006" class="node">
<title>Node6</title>
<g id="a_Node000006"><a xlink:href="class_im_fusion_1_1_morphological_operations_algorithm.html" target="_top" xlink:title="Algorithm for performing morphological operations on images.">
<polygon fill="white" stroke="#666666" points="341,-30.5 171.25,-30.5 171.25,0 341,0 341,-30.5"/>
<text xml:space="preserve" text-anchor="start" x="179.25" y="-17" font-family="Helvetica,sans-Serif" font-size="10.00">ImFusion::MorphologicalOperations</text>
<text xml:space="preserve" text-anchor="middle" x="256.12" y="-5.75" font-family="Helvetica,sans-Serif" font-size="10.00">Algorithm</text>
</a>
</g>
</g>
<!-- Node1&#45;&gt;Node6 -->
<g id="edge5_Node000001_Node000006" class="edge">
<title>Node1&#45;&gt;Node6</title>
<g id="a_edge5_Node000001_Node000006"><a xlink:title=" ">
<path fill="none" stroke="#63b8ff" d="M97.92,-84.84C117.76,-70.51 145.04,-52.4 171.25,-40.25 178.69,-36.8 186.73,-33.69 194.78,-30.94"/>
<polygon fill="#63b8ff" stroke="#63b8ff" points="96.03,-81.89 90.04,-90.63 100.17,-87.53 96.03,-81.89"/>
</a>
</g>
</g>
</g>
</svg>
