<?xml version="1.0" encoding="UTF-8" standalone="no"?>
<!DOCTYPE svg PUBLIC "-//W3C//DTD SVG 1.1//EN"
 "http://www.w3.org/Graphics/SVG/1.1/DTD/svg11.dtd">
<!-- Generated by graphviz version 14.1.4 (20260321.0153)
 -->
<!-- Title: ImFusion::Tree Pages: 1 -->
<svg width="563pt" height="125pt"
 viewBox="0.00 0.00 563.00 125.00" xmlns="http://www.w3.org/2000/svg" xmlns:xlink="http://www.w3.org/1999/xlink">
<g id="graph0" class="graph" transform="scale(1 1) rotate(0) translate(4 120.88)">
<title>ImFusion::Tree</title>
<!-- Node1 -->
<g id="Node000001" class="node">
<title>Node1</title>
<g id="a_Node000001"><a xlink:title="Data structure for trees.">
<polygon fill="#999999" stroke="#666666" points="235.25,-62.25 153.25,-62.25 153.25,-43 235.25,-43 235.25,-62.25"/>
<text xml:space="preserve" text-anchor="middle" x="194.25" y="-48.75" font-family="Helvetica,sans-Serif" font-size="10.00">ImFusion::Tree</text>
</a>
</g>
</g>
<!-- Node4 -->
<g id="Node000004" class="node">
<title>Node4</title>
<g id="a_Node000004"><a xlink:href="class_im_fusion_1_1_typed_tree.html" target="_top" xlink:title=" ">
<polygon fill="white" stroke="#666666" points="391.88,-116.88 282.88,-116.88 282.88,-86.38 391.88,-86.38 391.88,-116.88"/>
<text xml:space="preserve" text-anchor="start" x="290.88" y="-103.38" font-family="Helvetica,sans-Serif" font-size="10.00">ImFusion::TypedTree</text>
<text xml:space="preserve" text-anchor="middle" x="337.38" y="-92.12" font-family="Helvetica,sans-Serif" font-size="10.00">&lt; std::vector&lt; int &gt; &gt;</text>
</a>
</g>
</g>
<!-- Node1&#45;&gt;Node4 -->
<g id="edge3_Node000001_Node000004" class="edge">
<title>Node1&#45;&gt;Node4</title>
<g id="a_edge3_Node000001_Node000004"><a xlink:title=" ">
<path fill="none" stroke="#63b8ff" d="M234.61,-66.29C252.16,-72.38 272.93,-79.6 291.12,-85.91"/>
<polygon fill="#63b8ff" stroke="#63b8ff" points="236.17,-63.13 225.58,-63.16 233.88,-69.74 236.17,-63.13"/>
</a>
</g>
</g>
<!-- Node6 -->
<g id="Node000006" class="node">
<title>Node6</title>
<g id="a_Node000006"><a xlink:href="class_im_fusion_1_1_typed_tree.html" target="_top" xlink:title=" ">
<polygon fill="white" stroke="#666666" points="391.5,-67.88 283.25,-67.88 283.25,-37.38 391.5,-37.38 391.5,-67.88"/>
<text xml:space="preserve" text-anchor="start" x="291.25" y="-54.38" font-family="Helvetica,sans-Serif" font-size="10.00">ImFusion::TypedTree</text>
<text xml:space="preserve" text-anchor="middle" x="337.38" y="-43.12" font-family="Helvetica,sans-Serif" font-size="10.00">&lt; vec3 &gt;</text>
</a>
</g>
</g>
<!-- Node1&#45;&gt;Node6 -->
<g id="edge5_Node000001_Node000006" class="edge">
<title>Node1&#45;&gt;Node6</title>
<g id="a_edge5_Node000001_Node000006"><a xlink:title=" ">
<path fill="none" stroke="#63b8ff" d="M247.04,-52.62C258.68,-52.62 271.05,-52.62 282.77,-52.62"/>
<polygon fill="#63b8ff" stroke="#63b8ff" points="247.2,-49.13 237.2,-52.63 247.2,-56.13 247.2,-49.13"/>
</a>
</g>
</g>
<!-- Node8 -->
<g id="Node000008" class="node">
<title>Node8</title>
<g id="a_Node000008"><a xlink:href="class_im_fusion_1_1_typed_tree.html" target="_top" xlink:title="Data structure for typed trees.">
<polygon fill="white" stroke="#666666" points="403.5,-19.25 271.25,-19.25 271.25,0 403.5,0 403.5,-19.25"/>
<text xml:space="preserve" text-anchor="middle" x="337.38" y="-5.75" font-family="Helvetica,sans-Serif" font-size="10.00">ImFusion::TypedTree&lt; T &gt;</text>
</a>
</g>
</g>
<!-- Node1&#45;&gt;Node8 -->
<g id="edge7_Node000001_Node000008" class="edge">
<title>Node1&#45;&gt;Node8</title>
<g id="a_edge7_Node000001_Node000008"><a xlink:title=" ">
<path fill="none" stroke="#63b8ff" d="M237.31,-39.16C248.34,-35.68 260.23,-31.97 271.25,-28.62 280.94,-25.68 291.47,-22.57 301.18,-19.74"/>
<polygon fill="#63b8ff" stroke="#63b8ff" points="236.55,-35.73 228.07,-42.09 238.66,-42.4 236.55,-35.73"/>
</a>
</g>
</g>
<!-- Node2 -->
<g id="Node000002" class="node">
<title>Node2</title>
<g id="a_Node000002"><a xlink:href="class_im_fusion_1_1_data.html" target="_top" xlink:title="Virtual base class for representing data from which all concrete data class such as images need to de...">
<polygon fill="white" stroke="#666666" points="100.38,-81.25 16.88,-81.25 16.88,-62 100.38,-62 100.38,-81.25"/>
<text xml:space="preserve" text-anchor="middle" x="58.62" y="-67.75" font-family="Helvetica,sans-Serif" font-size="10.00">ImFusion::Data</text>
</a>
</g>
</g>
<!-- Node2&#45;&gt;Node1 -->
<g id="edge1_Node000001_Node000002" class="edge">
<title>Node2&#45;&gt;Node1</title>
<g id="a_edge1_Node000001_Node000002"><a xlink:title=" ">
<path fill="none" stroke="#63b8ff" d="M111.98,-64.18C125.58,-62.25 140.02,-60.19 152.89,-58.36"/>
<polygon fill="#63b8ff" stroke="#63b8ff" points="111.71,-60.68 102.31,-65.56 112.7,-67.61 111.71,-60.68"/>
</a>
</g>
</g>
<!-- Node3 -->
<g id="Node000003" class="node">
<title>Node3</title>
<g id="a_Node000003"><a xlink:href="class_im_fusion_1_1_configurable.html" target="_top" xlink:title="Base interface for classes that support object serialization from/to Properties objects.">
<polygon fill="white" stroke="#666666" points="117.25,-44.25 0,-44.25 0,-25 117.25,-25 117.25,-44.25"/>
<text xml:space="preserve" text-anchor="middle" x="58.62" y="-30.75" font-family="Helvetica,sans-Serif" font-size="10.00">ImFusion::Configurable</text>
</a>
</g>
</g>
<!-- Node3&#45;&gt;Node1 -->
<g id="edge2_Node000001_Node000003" class="edge">
<title>Node3&#45;&gt;Node1</title>
<g id="a_edge2_Node000001_Node000003"><a xlink:title=" ">
<path fill="none" stroke="#63b8ff" d="M128.77,-43.94C137.07,-45.06 145.33,-46.17 153.03,-47.21"/>
<polygon fill="#63b8ff" stroke="#63b8ff" points="129.34,-40.48 118.96,-42.62 128.4,-47.42 129.34,-40.48"/>
</a>
</g>
</g>
<!-- Node5 -->
<g id="Node000005" class="node">
<title>Node5</title>
<g id="a_Node000005"><a xlink:href="class_im_fusion_1_1_mesh_octree.html" target="_top" xlink:title="Class representing a mesh octree. Faces of the mesh are split between the nodes of the tree,...">
<polygon fill="white" stroke="#666666" points="555.25,-111.25 439.5,-111.25 439.5,-92 555.25,-92 555.25,-111.25"/>
<text xml:space="preserve" text-anchor="middle" x="497.38" y="-97.75" font-family="Helvetica,sans-Serif" font-size="10.00">ImFusion::MeshOctree</text>
</a>
</g>
</g>
<!-- Node4&#45;&gt;Node5 -->
<g id="edge4_Node000004_Node000005" class="edge">
<title>Node4&#45;&gt;Node5</title>
<g id="a_edge4_Node000004_Node000005"><a xlink:title=" ">
<path fill="none" stroke="#63b8ff" d="M403.49,-101.62C415.33,-101.62 427.59,-101.62 439.18,-101.62"/>
<polygon fill="#63b8ff" stroke="#63b8ff" points="403.82,-98.13 393.82,-101.63 403.82,-105.13 403.82,-98.13"/>
</a>
</g>
</g>
<!-- Node7 -->
<g id="Node000007" class="node">
<title>Node7</title>
<g id="a_Node000007"><a xlink:href="class_im_fusion_1_1_point_tree.html" target="_top" xlink:title="Data structure for trees with nodes containing a 3D point.">
<polygon fill="white" stroke="#666666" points="549.62,-62.25 445.12,-62.25 445.12,-43 549.62,-43 549.62,-62.25"/>
<text xml:space="preserve" text-anchor="middle" x="497.38" y="-48.75" font-family="Helvetica,sans-Serif" font-size="10.00">ImFusion::PointTree</text>
</a>
</g>
</g>
<!-- Node6&#45;&gt;Node7 -->
<g id="edge6_Node000006_Node000007" class="edge">
<title>Node6&#45;&gt;Node7</title>
<g id="a_edge6_Node000006_Node000007"><a xlink:title=" ">
<path fill="none" stroke="#63b8ff" d="M403.31,-52.62C417.14,-52.62 431.56,-52.62 444.81,-52.62"/>
<polygon fill="#63b8ff" stroke="#63b8ff" points="403.38,-49.13 393.38,-52.63 403.38,-56.13 403.38,-49.13"/>
</a>
</g>
</g>
</g>
</svg>
