<?xml version="1.0" encoding="UTF-8" standalone="no"?>
<!-- Created with Inkscape (http://www.inkscape.org/) -->

<svg
   xmlns:dc="http://purl.org/dc/elements/1.1/"
   xmlns:cc="http://creativecommons.org/ns#"
   xmlns:rdf="http://www.w3.org/1999/02/22-rdf-syntax-ns#"
   xmlns:svg="http://www.w3.org/2000/svg"
   xmlns="http://www.w3.org/2000/svg"
   xmlns:sodipodi="http://sodipodi.sourceforge.net/DTD/sodipodi-0.dtd"
   xmlns:inkscape="http://www.inkscape.org/namespaces/inkscape"
   width="400"
   height="400"
   id="svg4654"
   version="1.1"
   inkscape:version="0.48.4 r9939"
   sodipodi:docname="FFD_grid.svg">
  <sodipodi:namedview
     id="base"
     pagecolor="#ffffff"
     bordercolor="#666666"
     borderopacity="1.0"
     inkscape:pageopacity="0.0"
     inkscape:pageshadow="2"
     inkscape:zoom="1.4"
     inkscape:cx="405.24674"
     inkscape:cy="238.48537"
     inkscape:document-units="px"
     inkscape:current-layer="layer1"
     showgrid="true"
     width="64px"
     showborder="true"
     borderlayer="false"
     inkscape:showpageshadow="true"
     inkscape:window-width="2495"
     inkscape:window-height="1416"
     inkscape:window-x="65"
     inkscape:window-y="24"
     inkscape:window-maximized="1"
     inkscape:snap-bbox="true"
     inkscape:snap-bbox-midpoints="true"
     fit-margin-left="0"
     showguides="true"
     inkscape:guide-bbox="true">
    <inkscape:grid
       spacingy="2px"
       spacingx="2px"
       snapvisiblegridlinesonly="true"
       enabled="true"
       visible="true"
       empspacing="4"
       id="grid4662"
       type="xygrid" />
    <sodipodi:guide
       orientation="1,0"
       position="200,296"
       id="guide6032" />
    <sodipodi:guide
       orientation="0,1"
       position="240,200"
       id="guide6034" />
  </sodipodi:namedview>
  <defs
     id="defs4656">
    <marker
       style="overflow:visible"
       id="TriangleOutM"
       refX="0"
       refY="0"
       orient="auto"
       inkscape:stockid="TriangleOutM">
      <path
         transform="scale(0.4,0.4)"
         style="fill-rule:evenodd;stroke:#000000;stroke-width:1pt"
         d="m 5.77,0 -8.65,5 0,-10 8.65,5 z"
         id="path4343"
         inkscape:connector-curvature="0" />
    </marker>
    <marker
       style="overflow:visible"
       id="TriangleOutL"
       refX="0"
       refY="0"
       orient="auto"
       inkscape:stockid="TriangleOutL">
      <path
         transform="scale(0.8,0.8)"
         style="fill-rule:evenodd;stroke:#000000;stroke-width:1pt"
         d="m 5.77,0 -8.65,5 0,-10 8.65,5 z"
         id="path4340"
         inkscape:connector-curvature="0" />
    </marker>
    <marker
       style="overflow:visible"
       id="Arrow2Send"
       refX="0"
       refY="0"
       orient="auto"
       inkscape:stockid="Arrow2Send">
      <path
         transform="matrix(-0.3,0,0,-0.3,0.69,0)"
         d="M 8.7185878,4.0337352 -2.2072895,0.01601326 8.7185884,-4.0017078 c -1.7454984,2.3720609 -1.7354408,5.6174519 -6e-7,8.035443 z"
         style="fill-rule:evenodd;stroke-width:0.625;stroke-linejoin:round"
         id="path4231"
         inkscape:connector-curvature="0" />
    </marker>
    <marker
       style="overflow:visible"
       id="Arrow2Lend"
       refX="0"
       refY="0"
       orient="auto"
       inkscape:stockid="Arrow2Lend">
      <path
         transform="matrix(-1.1,0,0,-1.1,-1.1,0)"
         d="M 8.7185878,4.0337352 -2.2072895,0.01601326 8.7185884,-4.0017078 c -1.7454984,2.3720609 -1.7354408,5.6174519 -6e-7,8.035443 z"
         style="fill-rule:evenodd;stroke-width:0.625;stroke-linejoin:round"
         id="path4219"
         inkscape:connector-curvature="0" />
    </marker>
    <marker
       style="overflow:visible"
       id="Arrow2Lend-4"
       refX="0"
       refY="0"
       orient="auto"
       inkscape:stockid="Arrow2Lend">
      <path
         transform="matrix(-1.1,0,0,-1.1,-1.1,0)"
         d="M 8.7185878,4.0337352 -2.2072895,0.01601326 8.7185884,-4.0017078 c -1.7454984,2.3720609 -1.7354408,5.6174519 -6e-7,8.035443 z"
         style="fill-rule:evenodd;stroke-width:0.625;stroke-linejoin:round"
         id="path4219-7"
         inkscape:connector-curvature="0" />
    </marker>
    <marker
       style="overflow:visible"
       id="Arrow2Lend-43"
       refX="0"
       refY="0"
       orient="auto"
       inkscape:stockid="Arrow2Lend">
      <path
         transform="matrix(-1.1,0,0,-1.1,-1.1,0)"
         d="M 8.7185878,4.0337352 -2.2072895,0.01601326 8.7185884,-4.0017078 c -1.7454984,2.3720609 -1.7354408,5.6174519 -6e-7,8.035443 z"
         style="fill-rule:evenodd;stroke-width:0.625;stroke-linejoin:round"
         id="path4219-2"
         inkscape:connector-curvature="0" />
    </marker>
    <marker
       style="overflow:visible"
       id="marker4699"
       refX="0"
       refY="0"
       orient="auto"
       inkscape:stockid="Arrow2Lend">
      <path
         transform="matrix(-1.1,0,0,-1.1,-1.1,0)"
         d="M 8.7185878,4.0337352 -2.2072895,0.01601326 8.7185884,-4.0017078 c -1.7454984,2.3720609 -1.7354408,5.6174519 -6e-7,8.035443 z"
         style="fill-rule:evenodd;stroke-width:0.625;stroke-linejoin:round"
         id="path4701"
         inkscape:connector-curvature="0" />
    </marker>
    <marker
       style="overflow:visible"
       id="TriangleOutM6"
       refX="0"
       refY="0"
       orient="auto"
       inkscape:stockid="TriangleOutM6">
      <path
         transform="scale(0.4,0.4)"
         style="fill:#0000ff;fill-rule:evenodd;stroke:#0000ff;stroke-width:1pt"
         d="m 5.77,0 -8.65,5 0,-10 8.65,5 z"
         id="path5751"
         inkscape:connector-curvature="0" />
    </marker>
    <marker
       style="overflow:visible"
       id="TriangleOutM6-1"
       refX="0"
       refY="0"
       orient="auto"
       inkscape:stockid="TriangleOutM6">
      <path
         inkscape:connector-curvature="0"
         transform="scale(0.4,0.4)"
         style="fill:#0000ff;fill-rule:evenodd;stroke:#0000ff;stroke-width:1pt"
         d="m 5.77,0 -8.65,5 0,-10 8.65,5 z"
         id="path5751-3" />
    </marker>
    <marker
       style="overflow:visible"
       id="TriangleOutM6-7"
       refX="0"
       refY="0"
       orient="auto"
       inkscape:stockid="TriangleOutM6">
      <path
         inkscape:connector-curvature="0"
         transform="scale(0.4,0.4)"
         style="fill:#0000ff;fill-rule:evenodd;stroke:#0000ff;stroke-width:1pt"
         d="m 5.77,0 -8.65,5 0,-10 8.65,5 z"
         id="path5751-5" />
    </marker>
    <marker
       style="overflow:visible"
       id="TriangleOutM6-5"
       refX="0"
       refY="0"
       orient="auto"
       inkscape:stockid="TriangleOutM6">
      <path
         inkscape:connector-curvature="0"
         transform="scale(0.4,0.4)"
         style="fill:#0000ff;fill-rule:evenodd;stroke:#0000ff;stroke-width:1pt"
         d="m 5.77,0 -8.65,5 0,-10 8.65,5 z"
         id="path5751-6" />
    </marker>
    <marker
       style="overflow:visible"
       id="marker5902"
       refX="0"
       refY="0"
       orient="auto"
       inkscape:stockid="TriangleOutM6">
      <path
         inkscape:connector-curvature="0"
         transform="scale(0.4,0.4)"
         style="fill:#0000ff;fill-rule:evenodd;stroke:#0000ff;stroke-width:1pt"
         d="m 5.77,0 -8.65,5 0,-10 8.65,5 z"
         id="path5904" />
    </marker>
    <marker
       style="overflow:visible"
       id="marker5906"
       refX="0"
       refY="0"
       orient="auto"
       inkscape:stockid="TriangleOutM6">
      <path
         inkscape:connector-curvature="0"
         transform="scale(0.4,0.4)"
         style="fill:#0000ff;fill-rule:evenodd;stroke:#0000ff;stroke-width:1pt"
         d="m 5.77,0 -8.65,5 0,-10 8.65,5 z"
         id="path5908" />
    </marker>
    <marker
       style="overflow:visible"
       id="TriangleOutM6-10"
       refX="0"
       refY="0"
       orient="auto"
       inkscape:stockid="TriangleOutM6">
      <path
         inkscape:connector-curvature="0"
         transform="scale(0.4,0.4)"
         style="fill:#0000ff;fill-rule:evenodd;stroke:#0000ff;stroke-width:1pt"
         d="m 5.77,0 -8.65,5 0,-10 8.65,5 z"
         id="path5751-1" />
    </marker>
    <marker
       style="overflow:visible"
       id="marker5902-9"
       refX="0"
       refY="0"
       orient="auto"
       inkscape:stockid="TriangleOutM6">
      <path
         inkscape:connector-curvature="0"
         transform="scale(0.4,0.4)"
         style="fill:#0000ff;fill-rule:evenodd;stroke:#0000ff;stroke-width:1pt"
         d="m 5.77,0 -8.65,5 0,-10 8.65,5 z"
         id="path5904-7" />
    </marker>
    <marker
       style="overflow:visible"
       id="marker5906-5"
       refX="0"
       refY="0"
       orient="auto"
       inkscape:stockid="TriangleOutM6">
      <path
         inkscape:connector-curvature="0"
         transform="scale(0.4,0.4)"
         style="fill:#0000ff;fill-rule:evenodd;stroke:#0000ff;stroke-width:1pt"
         d="m 5.77,0 -8.65,5 0,-10 8.65,5 z"
         id="path5908-2" />
    </marker>
    <marker
       style="overflow:visible"
       id="Arrow2Lend-0"
       refX="0"
       refY="0"
       orient="auto"
       inkscape:stockid="Arrow2Lend">
      <path
         inkscape:connector-curvature="0"
         transform="matrix(-1.1,0,0,-1.1,-1.1,0)"
         d="M 8.7185878,4.0337352 -2.2072895,0.01601326 8.7185884,-4.0017078 c -1.7454984,2.3720609 -1.7354408,5.6174519 -6e-7,8.035443 z"
         style="fill-rule:evenodd;stroke-width:0.625;stroke-linejoin:round"
         id="path4219-73" />
    </marker>
    <marker
       style="overflow:visible"
       id="marker5971"
       refX="0"
       refY="0"
       orient="auto"
       inkscape:stockid="Arrow2Lend">
      <path
         inkscape:connector-curvature="0"
         transform="matrix(-1.1,0,0,-1.1,-1.1,0)"
         d="M 8.7185878,4.0337352 -2.2072895,0.01601326 8.7185884,-4.0017078 c -1.7454984,2.3720609 -1.7354408,5.6174519 -6e-7,8.035443 z"
         style="fill-rule:evenodd;stroke-width:0.625;stroke-linejoin:round"
         id="path5973" />
    </marker>
    <marker
       style="overflow:visible"
       id="TriangleOutM6-2"
       refX="0"
       refY="0"
       orient="auto"
       inkscape:stockid="TriangleOutM6">
      <path
         inkscape:connector-curvature="0"
         transform="scale(0.4,0.4)"
         style="fill:#0000ff;fill-rule:evenodd;stroke:#0000ff;stroke-width:1pt"
         d="m 5.77,0 -8.65,5 0,-10 8.65,5 z"
         id="path5751-7" />
    </marker>
  </defs>
  <metadata
     id="metadata4659">
    <rdf:RDF>
      <cc:Work
         rdf:about="">
        <dc:format>image/svg+xml</dc:format>
        <dc:type
           rdf:resource="http://purl.org/dc/dcmitype/StillImage" />
        <dc:title />
      </cc:Work>
    </rdf:RDF>
  </metadata>
  <g
     transform="translate(0,-652.3622)"
     id="layer1"
     inkscape:groupmode="layer"
     inkscape:label="Layer 1">
    <rect
       ry="0"
       y="764.70923"
       x="112.34956"
       height="175.76434"
       width="175.76404"
       id="rect2983"
       style="fill:#f2f2f2;fill-opacity:1;stroke:none" />
    <path
       transform="matrix(5.4926294,0,0,5.4926294,24.466993,852.59373)"
       d="m 18,16 a 2,2 0 1 1 -4,0 2,2 0 1 1 4,0 z"
       sodipodi:ry="2"
       sodipodi:rx="2"
       sodipodi:cy="16"
       sodipodi:cx="16"
       id="path3758-5"
       style="fill:#00ff00;fill-opacity:1;stroke:#000000;stroke-width:0.2;stroke-miterlimit:4;stroke-opacity:1;stroke-dasharray:none"
       sodipodi:type="arc" />
    <path
       transform="matrix(5.4926294,0,0,5.4926294,200.23153,852.59373)"
       d="m 18,16 a 2,2 0 1 1 -4,0 2,2 0 1 1 4,0 z"
       sodipodi:ry="2"
       sodipodi:rx="2"
       sodipodi:cy="16"
       sodipodi:cx="16"
       id="path3758-4-7"
       style="fill:#00ff00;fill-opacity:1;stroke:#000000;stroke-width:0.2;stroke-miterlimit:4;stroke-opacity:1;stroke-dasharray:none"
       sodipodi:type="arc" />
    <path
       transform="matrix(5.4926294,0,0,5.4926294,-63.414356,588.94773)"
       d="m 18,16 a 2,2 0 1 1 -4,0 2,2 0 1 1 4,0 z"
       sodipodi:ry="2"
       sodipodi:rx="2"
       sodipodi:cy="16"
       sodipodi:cx="16"
       id="path3758-3"
       style="fill:#ffff00;fill-opacity:1;stroke:#000000;stroke-width:0.2;stroke-miterlimit:4;stroke-opacity:1;stroke-dasharray:none"
       sodipodi:type="arc" />
    <path
       transform="matrix(5.4926294,0,0,5.4926294,-63.414356,852.59373)"
       d="m 18,16 a 2,2 0 1 1 -4,0 2,2 0 1 1 4,0 z"
       sodipodi:ry="2"
       sodipodi:rx="2"
       sodipodi:cy="16"
       sodipodi:cx="16"
       id="path3758-3-8"
       style="fill:#ffff00;fill-opacity:1;stroke:#000000;stroke-width:0.2;stroke-miterlimit:4;stroke-opacity:1;stroke-dasharray:none"
       sodipodi:type="arc" />
    <path
       transform="matrix(5.4926294,0,0,5.4926294,-63.414356,940.4763)"
       d="m 18,16 a 2,2 0 1 1 -4,0 2,2 0 1 1 4,0 z"
       sodipodi:ry="2"
       sodipodi:rx="2"
       sodipodi:cy="16"
       sodipodi:cx="16"
       id="path3758-5-6-6"
       style="fill:#ffff00;fill-opacity:1;stroke:none"
       sodipodi:type="arc" />
    <path
       transform="matrix(5.4926294,0,0,5.4926294,288.1141,588.94773)"
       d="m 18,16 a 2,2 0 1 1 -4,0 2,2 0 1 1 4,0 z"
       sodipodi:ry="2"
       sodipodi:rx="2"
       sodipodi:cy="16"
       sodipodi:cx="16"
       id="path3758-3-6"
       style="fill:#ffff00;fill-opacity:1;stroke:none"
       sodipodi:type="arc" />
    <path
       transform="matrix(5.4926294,0,0,5.4926294,288.1141,676.82915)"
       d="m 18,16 a 2,2 0 1 1 -4,0 2,2 0 1 1 4,0 z"
       sodipodi:ry="2"
       sodipodi:rx="2"
       sodipodi:cy="16"
       sodipodi:cx="16"
       id="path3758-5-6-8"
       style="fill:#ffff00;fill-opacity:1;stroke:none"
       sodipodi:type="arc" />
    <path
       transform="matrix(5.4926294,0,0,5.4926294,288.1141,852.59373)"
       d="m 18,16 a 2,2 0 1 1 -4,0 2,2 0 1 1 4,0 z"
       sodipodi:ry="2"
       sodipodi:rx="2"
       sodipodi:cy="16"
       sodipodi:cx="16"
       id="path3758-3-8-6"
       style="fill:#ffff00;fill-opacity:1;stroke:none"
       sodipodi:type="arc" />
    <path
       transform="matrix(5.4926294,0,0,5.4926294,288.1141,940.4763)"
       d="m 18,16 a 2,2 0 1 1 -4,0 2,2 0 1 1 4,0 z"
       sodipodi:ry="2"
       sodipodi:rx="2"
       sodipodi:cy="16"
       sodipodi:cx="16"
       id="path3758-5-6-6-2"
       style="fill:#ffff00;fill-opacity:1;stroke:none"
       sodipodi:type="arc" />
    <path
       inkscape:connector-curvature="0"
       id="path4004"
       d="m 199.96784,923.29127 0,-5.04955 88.40882,0 0,5.04955"
       style="fill:none;stroke:#000000;stroke-width:1.12047112;stroke-linecap:butt;stroke-linejoin:miter;stroke-miterlimit:4;stroke-opacity:1;stroke-dasharray:none" />
    <text
       sodipodi:linespacing="125%"
       id="text4006"
       y="910.54773"
       x="222.44673"
       style="font-size:21.97050667px;font-style:normal;font-weight:normal;line-height:125%;letter-spacing:0px;word-spacing:0px;fill:#000000;fill-opacity:1;stroke:none;font-family:Sans"
       xml:space="preserve"><tspan
         style="font-size:10.98525333px;line-height:125%;writing-mode:lr-tb"
         y="910.54773"
         x="222.44673"
         id="tspan4008"
         sodipodi:role="line">Spacing</tspan></text>
    <path
       sodipodi:nodetypes="cc"
       inkscape:connector-curvature="0"
       id="path4012"
       d="m 167.27599,698.80062 21.97034,-10.98575"
       style="fill:none;stroke:#000000;stroke-width:1.09852457;stroke-linecap:butt;stroke-linejoin:miter;stroke-miterlimit:4;stroke-opacity:1;stroke-dasharray:none;marker-mid:none;marker-end:url(#Arrow2Lend)" />
    <text
       sodipodi:linespacing="125%"
       id="text4006-9"
       y="712.81616"
       x="101.21982"
       style="font-size:21.97050667px;font-style:normal;font-weight:normal;line-height:125%;letter-spacing:0px;word-spacing:0px;fill:#000000;fill-opacity:1;stroke:none;font-family:Sans"
       xml:space="preserve"><tspan
         id="tspan4659"
         style="font-size:10.98525333px;line-height:125%;writing-mode:lr-tb"
         y="712.81616"
         x="101.21982"
         sodipodi:role="line">Outer control points</tspan></text>
    <path
       sodipodi:nodetypes="cc"
       inkscape:connector-curvature="0"
       id="path4012-6"
       d="M 145.30506,698.80062 123.33471,687.81487"
       style="fill:none;stroke:#000000;stroke-width:1.09852457;stroke-linecap:butt;stroke-linejoin:miter;stroke-miterlimit:4;stroke-opacity:1;stroke-dasharray:none;marker-mid:none;marker-end:url(#Arrow2Lend)" />
    <path
       sodipodi:nodetypes="cc"
       inkscape:connector-curvature="0"
       id="path4012-1"
       d="M 164.29107,962.44663 186.26141,951.4609"
       style="fill:none;stroke:#000000;stroke-width:1.09852457;stroke-linecap:butt;stroke-linejoin:miter;stroke-miterlimit:4;stroke-opacity:1;stroke-dasharray:none;marker-mid:none;marker-end:url(#Arrow2Lend)" />
    <text
       sodipodi:linespacing="125%"
       id="text4006-9-8"
       y="976.45844"
       x="98.234825"
       style="font-size:21.97050667px;font-style:normal;font-weight:normal;line-height:125%;letter-spacing:0px;word-spacing:0px;fill:#000000;fill-opacity:1;stroke:none;font-family:Sans"
       xml:space="preserve"><tspan
         id="tspan4728"
         style="font-size:10.98525333px;line-height:125%;writing-mode:lr-tb"
         y="976.45844"
         x="98.234825"
         sodipodi:role="line">(inner) control points</tspan></text>
    <path
       sodipodi:nodetypes="cc"
       inkscape:connector-curvature="0"
       id="path4012-6-6"
       d="M 142.32013,962.44663 120.3498,951.4609"
       style="fill:none;stroke:#000000;stroke-width:1.09852457;stroke-linecap:butt;stroke-linejoin:miter;stroke-miterlimit:4;stroke-opacity:1;stroke-dasharray:none;marker-mid:none;marker-end:url(#Arrow2Lend)" />
    <path
       transform="matrix(5.4926294,0,0,5.4926294,-63.414356,764.71171)"
       d="m 18,16 a 2,2 0 1 1 -4,0 2,2 0 1 1 4,0 z"
       sodipodi:ry="2"
       sodipodi:rx="2"
       sodipodi:cy="16"
       sodipodi:cx="16"
       id="path3758-3-8-4"
       style="fill:#ffff00;fill-opacity:1;stroke:#000000;stroke-width:0.2;stroke-miterlimit:4;stroke-opacity:1;stroke-dasharray:none"
       sodipodi:type="arc" />
    <path
       transform="matrix(5.4926294,0,0,5.4926294,288.1141,764.71171)"
       d="m 18,16 a 2,2 0 1 1 -4,0 2,2 0 1 1 4,0 z"
       sodipodi:ry="2"
       sodipodi:rx="2"
       sodipodi:cy="16"
       sodipodi:cx="16"
       id="path3758-3-8-6-7"
       style="fill:#ffff00;fill-opacity:1;stroke:none"
       sodipodi:type="arc" />
    <path
       transform="matrix(5.4926294,0,0,5.4926294,24.466993,940.4763)"
       d="m 18,16 a 2,2 0 1 1 -4,0 2,2 0 1 1 4,0 z"
       sodipodi:ry="2"
       sodipodi:rx="2"
       sodipodi:cy="16"
       sodipodi:cx="16"
       id="path3758-5-6-6-15"
       style="fill:#ffff00;fill-opacity:1;stroke:none"
       sodipodi:type="arc" />
    <path
       transform="matrix(5.4926294,0,0,5.4926294,200.23153,940.4763)"
       d="m 18,16 a 2,2 0 1 1 -4,0 2,2 0 1 1 4,0 z"
       sodipodi:ry="2"
       sodipodi:rx="2"
       sodipodi:cy="16"
       sodipodi:cx="16"
       id="path3758-5-6-6-2-5-0"
       style="fill:#ffff00;fill-opacity:1;stroke:none"
       sodipodi:type="arc" />
    <path
       transform="matrix(5.4926294,0,0,5.4926294,24.466993,588.94773)"
       d="m 18,16 a 2,2 0 1 1 -4,0 2,2 0 1 1 4,0 z"
       sodipodi:ry="2"
       sodipodi:rx="2"
       sodipodi:cy="16"
       sodipodi:cx="16"
       id="path3758-5-6-6-9"
       style="fill:#ffff00;fill-opacity:1;stroke:#000000;stroke-width:0.2;stroke-miterlimit:4;stroke-opacity:1;stroke-dasharray:none"
       sodipodi:type="arc" />
    <path
       transform="matrix(5.4926294,0,0,5.4926294,200.23153,588.94773)"
       d="m 18,16 a 2,2 0 1 1 -4,0 2,2 0 1 1 4,0 z"
       sodipodi:ry="2"
       sodipodi:rx="2"
       sodipodi:cy="16"
       sodipodi:cx="16"
       id="path3758-5-6-6-2-5-37"
       style="fill:#ffff00;fill-opacity:1;stroke:#000000;stroke-width:0.2;stroke-miterlimit:4;stroke-opacity:1;stroke-dasharray:none"
       sodipodi:type="arc" />
    <path
       transform="matrix(5.4926294,0,0,5.4926294,112.34951,588.94773)"
       d="m 18,16 a 2,2 0 1 1 -4,0 2,2 0 1 1 4,0 z"
       sodipodi:ry="2"
       sodipodi:rx="2"
       sodipodi:cy="16"
       sodipodi:cx="16"
       id="path3758-5-6-6-2-5-4-7-2"
       style="fill:#ffff00;fill-opacity:1;stroke:#000000;stroke-width:0.2;stroke-miterlimit:4;stroke-opacity:1;stroke-dasharray:none"
       sodipodi:type="arc" />
    <path
       transform="matrix(5.4926294,0,0,5.4926294,112.34951,940.4763)"
       d="m 18,16 a 2,2 0 1 1 -4,0 2,2 0 1 1 4,0 z"
       sodipodi:ry="2"
       sodipodi:rx="2"
       sodipodi:cy="16"
       sodipodi:cx="16"
       id="path3758-5-6-6-2-5-1"
       style="fill:#ffff00;fill-opacity:1;stroke:none"
       sodipodi:type="arc" />
    <path
       transform="matrix(5.4926294,0,0,5.4926294,112.34951,852.59373)"
       d="m 18,16 a 2,2 0 1 1 -4,0 2,2 0 1 1 4,0 z"
       sodipodi:ry="2"
       sodipodi:rx="2"
       sodipodi:cy="16"
       sodipodi:cx="16"
       id="path3758-5-3"
       style="fill:#00ff00;fill-opacity:1;stroke:#000000;stroke-width:0.2;stroke-miterlimit:4;stroke-opacity:1;stroke-dasharray:none"
       sodipodi:type="arc" />
    <path
       transform="matrix(5.4926294,0,0,5.4926294,24.466993,764.71171)"
       d="m 18,16 a 2,2 0 1 1 -4,0 2,2 0 1 1 4,0 z"
       sodipodi:ry="2"
       sodipodi:rx="2"
       sodipodi:cy="16"
       sodipodi:cx="16"
       id="path3758-5-7"
       style="fill:#00ff00;fill-opacity:1;stroke:#000000;stroke-width:0.2;stroke-miterlimit:4;stroke-opacity:1;stroke-dasharray:none"
       sodipodi:type="arc" />
    <path
       transform="matrix(5.4926294,0,0,5.4926294,200.23153,764.71171)"
       d="m 18,16 a 2,2 0 1 1 -4,0 2,2 0 1 1 4,0 z"
       sodipodi:ry="2"
       sodipodi:rx="2"
       sodipodi:cy="16"
       sodipodi:cx="16"
       id="path3758-5-0"
       style="fill:#00ff00;fill-opacity:1;stroke:#000000;stroke-width:0.2;stroke-miterlimit:4;stroke-opacity:1;stroke-dasharray:none"
       sodipodi:type="arc" />
    <path
       transform="matrix(5.4926294,0,0,5.4926294,112.34951,764.71171)"
       d="m 18,16 a 2,2 0 1 1 -4,0 2,2 0 1 1 4,0 z"
       sodipodi:ry="2"
       sodipodi:rx="2"
       sodipodi:cy="16"
       sodipodi:cx="16"
       id="path3758-5-2"
       style="fill:#00ff00;fill-opacity:1;stroke:#000000;stroke-width:0.2;stroke-miterlimit:4;stroke-opacity:1;stroke-dasharray:none"
       sodipodi:type="arc" />
    <path
       transform="matrix(5.4926294,0,0,5.4926294,24.466993,676.82915)"
       d="m 18,16 a 2,2 0 1 1 -4,0 2,2 0 1 1 4,0 z"
       sodipodi:ry="2"
       sodipodi:rx="2"
       sodipodi:cy="16"
       sodipodi:cx="16"
       id="path3758"
       style="fill:#00ff00;fill-opacity:1;stroke:#000000;stroke-width:0.2;stroke-miterlimit:4;stroke-opacity:1;stroke-dasharray:none"
       sodipodi:type="arc" />
    <path
       transform="matrix(5.4926294,0,0,5.4926294,200.23153,676.82915)"
       d="m 18,16 a 2,2 0 1 1 -4,0 2,2 0 1 1 4,0 z"
       sodipodi:ry="2"
       sodipodi:rx="2"
       sodipodi:cy="16"
       sodipodi:cx="16"
       id="path3758-4"
       style="fill:#00ff00;fill-opacity:1;stroke:#000000;stroke-width:0.2;stroke-miterlimit:4;stroke-opacity:1;stroke-dasharray:none"
       sodipodi:type="arc" />
    <path
       transform="matrix(5.4926294,0,0,5.4926294,-63.414356,676.82915)"
       d="m 18,16 a 2,2 0 1 1 -4,0 2,2 0 1 1 4,0 z"
       sodipodi:ry="2"
       sodipodi:rx="2"
       sodipodi:cy="16"
       sodipodi:cx="16"
       id="path3758-5-6"
       style="fill:#ffff00;fill-opacity:1;stroke:#000000;stroke-width:0.2;stroke-miterlimit:4;stroke-opacity:1;stroke-dasharray:none"
       sodipodi:type="arc" />
    <path
       transform="matrix(5.4926294,0,0,5.4926294,112.34951,676.82915)"
       d="m 18,16 a 2,2 0 1 1 -4,0 2,2 0 1 1 4,0 z"
       sodipodi:ry="2"
       sodipodi:rx="2"
       sodipodi:cy="16"
       sodipodi:cx="16"
       id="path3758-5-74"
       style="fill:#00ff00;fill-opacity:1;stroke:#000000;stroke-width:0.2;stroke-miterlimit:4;stroke-opacity:1;stroke-dasharray:none"
       sodipodi:type="arc" />
    <path
       transform="matrix(5.4926294,0,0,5.4926294,40.945509,726.2633)"
       d="m 20,11 a 1,1 0 1 1 -2,0 1,1 0 1 1 2,0 z"
       sodipodi:ry="1"
       sodipodi:rx="1"
       sodipodi:cy="11"
       sodipodi:cx="19"
       id="path4960"
       style="fill:#000000;fill-opacity:1;stroke:none"
       sodipodi:type="arc" />
    <path
       sodipodi:nodetypes="cc"
       inkscape:connector-curvature="0"
       id="path4962"
       d="m 112.34951,764.71171 32.95555,-32.95555"
       style="fill:#0000ff;stroke:#0000ff;stroke-width:1.64778924;stroke-linecap:butt;stroke-linejoin:miter;stroke-miterlimit:4;stroke-opacity:1;stroke-dasharray:none;marker-end:url(#TriangleOutM6)" />
    <path
       sodipodi:nodetypes="cc"
       inkscape:connector-curvature="0"
       id="path4962-0"
       d="m 201.05509,763.88816 21.14679,-10.1622"
       style="fill:#0000ff;stroke:#0000ff;stroke-width:1.64778924;stroke-linecap:butt;stroke-linejoin:miter;stroke-miterlimit:4;stroke-opacity:1;stroke-dasharray:none;marker-end:url(#TriangleOutM6)" />
    <path
       sodipodi:nodetypes="cc"
       inkscape:connector-curvature="0"
       id="path4962-1"
       d="m 288.93763,763.88816 -22.79449,-21.1468"
       style="fill:#0000ff;stroke:#0000ff;stroke-width:1.64778924;stroke-linecap:butt;stroke-linejoin:miter;stroke-miterlimit:4;stroke-opacity:1;stroke-dasharray:none;marker-end:url(#TriangleOutM6)" />
    <path
       sodipodi:nodetypes="cc"
       inkscape:connector-curvature="0"
       id="path4962-8"
       d="m 113.17364,851.76959 21.14567,-10.16106"
       style="fill:#0000ff;stroke:#0000ff;stroke-width:1.64778924;stroke-linecap:butt;stroke-linejoin:miter;stroke-miterlimit:4;stroke-opacity:1;stroke-dasharray:none;marker-end:url(#TriangleOutM6)" />
    <path
       sodipodi:nodetypes="cc"
       inkscape:connector-curvature="0"
       id="path4962-0-4"
       d="m 201.87975,850.94605 9.33638,-31.30786"
       style="fill:#0000ff;stroke:#0000ff;stroke-width:1.64778924;stroke-linecap:butt;stroke-linejoin:miter;stroke-miterlimit:4;stroke-opacity:1;stroke-dasharray:none;marker-end:url(#TriangleOutM6)" />
    <path
       sodipodi:nodetypes="cc"
       inkscape:connector-curvature="0"
       id="path4962-1-2"
       d="m 289.76179,850.94605 -12.63344,23.61803"
       style="fill:#0000ff;stroke:#0000ff;stroke-width:1.64778924;stroke-linecap:butt;stroke-linejoin:miter;stroke-miterlimit:4;stroke-opacity:1;stroke-dasharray:none;marker-end:url(#TriangleOutM6)" />
    <path
       sodipodi:nodetypes="cc"
       inkscape:connector-curvature="0"
       id="path4962-5"
       d="M 113.17364,939.65214 90.379092,929.49055"
       style="fill:#0000ff;stroke:#0000ff;stroke-width:1.64778924;stroke-linecap:butt;stroke-linejoin:miter;stroke-miterlimit:4;stroke-opacity:1;stroke-dasharray:none;marker-end:url(#TriangleOutM6)" />
    <path
       sodipodi:nodetypes="cc"
       inkscape:connector-curvature="0"
       id="path4962-1-1"
       d="m 289.76179,938.82746 9.33691,-20.32212"
       style="fill:#0000ff;stroke:#0000ff;stroke-width:1.64778924;stroke-linecap:butt;stroke-linejoin:miter;stroke-miterlimit:4;stroke-opacity:1;stroke-dasharray:none;marker-end:url(#TriangleOutM6)" />
    <path
       sodipodi:nodetypes="cc"
       inkscape:connector-curvature="0"
       id="path4012-1-1"
       d="m 255.15742,786.68151 10.98572,-32.95555"
       style="fill:none;stroke:#000000;stroke-width:1.09852457;stroke-linecap:butt;stroke-linejoin:miter;stroke-miterlimit:4;stroke-opacity:1;stroke-dasharray:none;marker-mid:none;marker-end:url(#Arrow2Lend)" />
    <text
       sodipodi:linespacing="125%"
       id="text4006-9-8-0"
       y="800.70013"
       x="204.24356"
       style="font-size:21.97050667px;font-style:normal;font-weight:normal;line-height:125%;letter-spacing:0px;word-spacing:0px;fill:#000000;fill-opacity:1;stroke:none;font-family:Sans"
       xml:space="preserve"><tspan
         style="font-size:10.98525333px;line-height:125%;writing-mode:lr-tb"
         y="800.70013"
         x="204.24356"
         sodipodi:role="line"
         id="tspan6000">displacements</tspan></text>
    <path
       sodipodi:nodetypes="cc"
       inkscape:connector-curvature="0"
       id="path4012-6-6-1"
       d="m 233.1876,786.68151 -10.98572,-21.9698"
       style="fill:none;stroke:#000000;stroke-width:1.09852457;stroke-linecap:butt;stroke-linejoin:miter;stroke-miterlimit:4;stroke-opacity:1;stroke-dasharray:none;marker-mid:none;marker-end:url(#Arrow2Lend)" />
    <text
       xml:space="preserve"
       style="font-size:16.47787857px;font-style:normal;font-weight:normal;line-height:125%;letter-spacing:0px;word-spacing:0px;fill:#000000;fill-opacity:1;stroke:none;font-family:Sans"
       x="150.79541"
       y="803.66907"
       id="text6004"
       sodipodi:linespacing="125%"><tspan
         sodipodi:role="line"
         id="tspan6006"
         x="150.79541"
         y="803.66907">P</tspan></text>
    <path
       sodipodi:nodetypes="cc"
       inkscape:connector-curvature="0"
       id="path4962-5-7"
       d="m 199.40739,939.65214 11.80874,-10.16159"
       style="fill:#0000ff;stroke:#0000ff;stroke-width:1.64778924;stroke-linecap:butt;stroke-linejoin:miter;stroke-miterlimit:4;stroke-opacity:1;stroke-dasharray:none;marker-end:url(#TriangleOutM6)" />
  </g>
</svg>
