<?xml version="1.0" encoding="UTF-8" standalone="no"?>
<!DOCTYPE svg PUBLIC "-//W3C//DTD SVG 1.1//EN"
 "http://www.w3.org/Graphics/SVG/1.1/DTD/svg11.dtd">
<!-- Generated by graphviz version 14.1.4 (20260321.0153)
 -->
<!-- Title: Visualization and Views Pages: 1 -->
<svg width="504pt" height="185pt"
 viewBox="0.00 0.00 504.00 185.00" xmlns="http://www.w3.org/2000/svg" xmlns:xlink="http://www.w3.org/1999/xlink">
<g id="graph0" class="graph" transform="scale(1 1) rotate(0) translate(4 181.25)">
<title>Visualization and Views</title>
<!-- Node5 -->
<g id="Node000005" class="node">
<title>Node5</title>
<g id="a_Node000005"><a xlink:href="group___annotations.html" target="_top" xlink:title="Augmenting visualizations with annotations.">
<polygon fill="white" stroke="#666666" points="481,-177.25 413.25,-177.25 413.25,-158 481,-158 481,-177.25"/>
<text xml:space="preserve" text-anchor="middle" x="447.12" y="-163.75" font-family="Helvetica,sans-Serif" font-size="10.00">Annotations</text>
</a>
</g>
</g>
<!-- Node2 -->
<g id="Node000002" class="node">
<title>Node2</title>
<g id="a_Node000002"><a xlink:href="group___im_fusion_lib.html" target="_top" xlink:title="General infrastructure for the development of (medical) imaging algorithms and software.">
<polygon fill="white" stroke="#666666" points="70.75,-91.25 0,-91.25 0,-72 70.75,-72 70.75,-91.25"/>
<text xml:space="preserve" text-anchor="middle" x="35.38" y="-77.75" font-family="Helvetica,sans-Serif" font-size="10.00">Base Library</text>
</a>
</g>
</g>
<!-- Node1 -->
<g id="Node000001" class="node">
<title>Node1</title>
<g id="a_Node000001"><a xlink:title=" ">
<polygon fill="#999999" stroke="#666666" points="228,-91.25 107.75,-91.25 107.75,-72 228,-72 228,-91.25"/>
<text xml:space="preserve" text-anchor="middle" x="167.88" y="-77.75" font-family="Helvetica,sans-Serif" font-size="10.00">Visualization and Views</text>
</a>
</g>
</g>
<!-- Node2&#45;&gt;Node1 -->
<g id="edge1" class="edge">
<title>Node2&#45;&gt;Node1</title>
<path fill="none" stroke="black" d="M82.44,-81.62C90.5,-81.62 98.99,-81.62 107.35,-81.62"/>
<polygon fill="black" stroke="black" points="82.52,-78.13 72.52,-81.63 82.52,-85.13 82.52,-78.13"/>
</g>
<!-- Node6 -->
<g id="Node000006" class="node">
<title>Node6</title>
<g id="a_Node000006"><a xlink:href="group___interactions.html" target="_top" xlink:title="User interaction with views and overlays.">
<polygon fill="white" stroke="#666666" points="480.62,-140.25 413.62,-140.25 413.62,-121 480.62,-121 480.62,-140.25"/>
<text xml:space="preserve" text-anchor="middle" x="447.12" y="-126.75" font-family="Helvetica,sans-Serif" font-size="10.00">Interactions</text>
</a>
</g>
</g>
<!-- Node7 -->
<g id="Node000007" class="node">
<title>Node7</title>
<g id="a_Node000007"><a xlink:href="group___plugin_architecture.html" target="_top" xlink:title="Infrastructure and functionality to dynamically extend application functionality via shared libraries...">
<polygon fill="white" stroke="#666666" points="496,-93.25 398.25,-93.25 398.25,-74 496,-74 496,-93.25"/>
<text xml:space="preserve" text-anchor="middle" x="447.12" y="-79.75" font-family="Helvetica,sans-Serif" font-size="10.00">Plugin Architecture</text>
</a>
</g>
</g>
<!-- Node1&#45;&gt;Node5 -->
<g id="edge4" class="edge">
<title>Node1&#45;&gt;Node5</title>
<path fill="none" stroke="black" d="M186.98,-99.1C201.67,-112.2 223.56,-129.39 246,-138.62 301.52,-161.46 372.16,-166.73 412.95,-167.71"/>
<polygon fill="black" stroke="black" points="189.66,-96.81 179.94,-92.61 184.92,-101.96 189.66,-96.81"/>
</g>
<!-- Node1&#45;&gt;Node6 -->
<g id="edge5" class="edge">
<title>Node1&#45;&gt;Node6</title>
<path fill="none" stroke="black" d="M196.45,-97.04C210.78,-104.29 228.85,-112.28 246,-116.62 303.57,-131.2 373.22,-132.57 413.33,-131.86"/>
<polygon fill="black" stroke="black" points="198.11,-93.96 187.63,-92.41 194.86,-100.16 198.11,-93.96"/>
</g>
<!-- Node1&#45;&gt;Node7 -->
<g id="edge6" class="edge">
<title>Node1&#45;&gt;Node7</title>
<path fill="none" stroke="orange" stroke-dasharray="5,2" d="M228.1,-81.89C270.48,-82.1 328.88,-82.43 380.25,-82.88 385.97,-82.92 391.97,-82.98 397.92,-83.05"/>
<text xml:space="preserve" text-anchor="middle" x="313.12" y="-107.12" font-family="Helvetica,sans-Serif" font-size="10.00">ImFusion::RendererFactory</text>
<text xml:space="preserve" text-anchor="start" x="246" y="-95.88" font-family="Helvetica,sans-Serif" font-size="10.00">ImFusion::DataDisplayHandler</text>
<text xml:space="preserve" text-anchor="middle" x="313.12" y="-84.62" font-family="Helvetica,sans-Serif" font-size="10.00">Factory</text>
</g>
<!-- Node3 -->
<g id="Node000003" class="node">
<title>Node3</title>
<g id="a_Node000003"><a xlink:href="group___visualization2_d.html" target="_top" xlink:title="Tools and classes for 2D visualization.">
<polygon fill="white" stroke="#666666" points="490.75,-56.25 403.5,-56.25 403.5,-37 490.75,-37 490.75,-56.25"/>
<text xml:space="preserve" text-anchor="middle" x="447.12" y="-42.75" font-family="Helvetica,sans-Serif" font-size="10.00">2D Visualization</text>
</a>
</g>
</g>
<!-- Node1&#45;&gt;Node3 -->
<g id="edge2" class="edge">
<title>Node1&#45;&gt;Node3</title>
<path fill="none" stroke="black" d="M239.75,-72.68C291.31,-66.17 359.45,-57.57 403.04,-52.06"/>
<polygon fill="black" stroke="black" points="239.34,-69.2 229.85,-73.93 240.21,-76.15 239.34,-69.2"/>
</g>
<!-- Node4 -->
<g id="Node000004" class="node">
<title>Node4</title>
<g id="a_Node000004"><a xlink:href="group___visualization3_d.html" target="_top" xlink:title="Tools and classes for 3D visualization.">
<polygon fill="white" stroke="#666666" points="490.75,-19.25 403.5,-19.25 403.5,0 490.75,0 490.75,-19.25"/>
<text xml:space="preserve" text-anchor="middle" x="447.12" y="-5.75" font-family="Helvetica,sans-Serif" font-size="10.00">3D Visualization</text>
</a>
</g>
</g>
<!-- Node1&#45;&gt;Node4 -->
<g id="edge3" class="edge">
<title>Node1&#45;&gt;Node4</title>
<path fill="none" stroke="black" d="M201.1,-67.16C214.75,-61.43 230.95,-55.15 246,-50.62 299.15,-34.64 362.11,-22.88 403.02,-16.15"/>
<polygon fill="black" stroke="black" points="199.97,-63.84 192.16,-71 202.73,-70.27 199.97,-63.84"/>
</g>
</g>
</svg>
