<?xml version="1.0" encoding="UTF-8" standalone="no"?>
<!DOCTYPE svg PUBLIC "-//W3C//DTD SVG 1.1//EN"
 "http://www.w3.org/Graphics/SVG/1.1/DTD/svg11.dtd">
<!-- Generated by graphviz version 14.1.4 (20260321.0153)
 -->
<!-- Title: Segmentation Plugin Pages: 1 -->
<svg width="295pt" height="64pt"
 viewBox="0.00 0.00 295.00 64.00" xmlns="http://www.w3.org/2000/svg" xmlns:xlink="http://www.w3.org/1999/xlink">

<svg id="main" version="1.1" xmlns="http://www.w3.org/2000/svg" xmlns:xlink="http://www.w3.org/1999/xlink" xml:space="preserve">

<style type="text/css"><![CDATA[
.node, .edge {opacity: 0.7;}
.node.selected, .edge.selected {opacity: 1;}
.edge:hover path { stroke: red; }
.edge:hover polygon { stroke: red; fill: red; }
]]></style>
<script type="application/ecmascript" xlink:href="svg.min.js"/>
<svg id="graph" class="graph">
<g id="graph0" class="graph" transform="scale(1 1) rotate(0) translate(4 60.25)">
<title>Segmentation Plugin</title>
<!-- Node2 -->
<g id="Node000002" class="node">
<title>Node2</title>
<g id="a_Node000002"><a xlink:href="group___im_fusion_plugins.html" target="_top" xlink:title="List of plugins shipped with this version of the SDK.">
<polygon fill="white" stroke="#666666" points="48.25,-37.25 0,-37.25 0,-18 48.25,-18 48.25,-37.25"/>
<text xml:space="preserve" text-anchor="middle" x="24.12" y="-23.75" font-family="Helvetica,sans-Serif" font-size="10.00">Plugins</text>
</a>
</g>
</g>
<!-- Node1 -->
<g id="Node000001" class="node">
<title>Node1</title>
<g id="a_Node000001"><a xlink:title="Plugin providing functionality for manual and automatic segmentation of images.">
<polygon fill="#999999" stroke="#666666" points="190.25,-37.25 84.25,-37.25 84.25,-18 190.25,-18 190.25,-37.25"/>
<text xml:space="preserve" text-anchor="middle" x="137.25" y="-23.75" font-family="Helvetica,sans-Serif" font-size="10.00">Segmentation Plugin</text>
</a>
</g>
</g>
<!-- Node2&#45;&gt;Node1 -->
<g id="edge1" class="edge">
<title>Node2&#45;&gt;Node1</title>
<path fill="none" stroke="black" d="M60.03,-27.62C67.62,-27.62 75.81,-27.62 83.91,-27.62"/>
<polygon fill="black" stroke="black" points="60.21,-24.13 50.21,-27.63 60.21,-31.13 60.21,-24.13"/>
</g>
<!-- Node4 -->
<g id="Node000004" class="node">
<title>Node4</title>
<g id="a_Node000004"><a xlink:href="group___im_fusion_seg_structures.html" target="_top" xlink:title="High&#45;level algorithms and classes for working with multiple label maps.">
<polygon fill="white" stroke="#666666" points="287.25,-56.25 226.25,-56.25 226.25,-37 287.25,-37 287.25,-56.25"/>
<text xml:space="preserve" text-anchor="middle" x="256.75" y="-42.75" font-family="Helvetica,sans-Serif" font-size="10.00">Structures</text>
</a>
</g>
</g>
<!-- Node1&#45;&gt;Node4 -->
<g id="edge3" class="edge">
<title>Node1&#45;&gt;Node4</title>
<path fill="none" stroke="black" d="M201.61,-37.87C210.07,-39.24 218.4,-40.59 225.9,-41.8"/>
<polygon fill="black" stroke="black" points="202.4,-34.45 191.97,-36.31 201.28,-41.36 202.4,-34.45"/>
</g>
<!-- Node3 -->
<g id="Node000003" class="node">
<title>Node3</title>
<g id="a_Node000003"><a xlink:href="group___labeling.html" target="_top" xlink:title="Algorithms and classes for handling label maps.">
<polygon fill="white" stroke="#666666" points="282.75,-19.25 230.75,-19.25 230.75,0 282.75,0 282.75,-19.25"/>
<text xml:space="preserve" text-anchor="middle" x="256.75" y="-5.75" font-family="Helvetica,sans-Serif" font-size="10.00">Labeling</text>
</a>
</g>
</g>
<!-- Node1&#45;&gt;Node3 -->
<g id="edge2" class="edge">
<title>Node1&#45;&gt;Node3</title>
<path fill="none" stroke="black" d="M201.55,-17.93C211.76,-16.36 221.77,-14.83 230.37,-13.51"/>
<polygon fill="black" stroke="black" points="201.32,-14.42 191.97,-19.4 202.38,-21.34 201.32,-14.42"/>
</g>
</g>
</svg>
</svg>

<style type='text/css'>
<![CDATA[
[data-mouse-over-selected='false'] { opacity: 0.7; }
[data-mouse-over-selected='true']  { opacity: 1.0; }
]]>
</style>
<script type="application/ecmascript"><![CDATA[
document.addEventListener('DOMContentLoaded', (event) => {
  highlightEdges();
  highlightAdjacentNodes();
});
]]></script>
</svg>
