<?xml version="1.0" encoding="UTF-8" standalone="no"?>
<!DOCTYPE svg PUBLIC "-//W3C//DTD SVG 1.1//EN"
 "http://www.w3.org/Graphics/SVG/1.1/DTD/svg11.dtd">
<!-- Generated by graphviz version 14.1.4 (20260321.0153)
 -->
<!-- Title: Registration Plugin Pages: 1 -->
<svg width="335pt" height="101pt"
 viewBox="0.00 0.00 335.00 101.00" xmlns="http://www.w3.org/2000/svg" xmlns:xlink="http://www.w3.org/1999/xlink">

<svg id="main" version="1.1" xmlns="http://www.w3.org/2000/svg" xmlns:xlink="http://www.w3.org/1999/xlink" xml:space="preserve">

<style type="text/css"><![CDATA[
.node, .edge {opacity: 0.7;}
.node.selected, .edge.selected {opacity: 1;}
.edge:hover path { stroke: red; }
.edge:hover polygon { stroke: red; fill: red; }
]]></style>
<script type="application/ecmascript" xlink:href="svg.min.js"/>
<svg id="graph" class="graph">
<g id="graph0" class="graph" transform="scale(1 1) rotate(0) translate(4 97.25)">
<title>Registration Plugin</title>
<!-- Node2 -->
<g id="Node000002" class="node">
<title>Node2</title>
<g id="a_Node000002"><a xlink:href="group___im_fusion_plugins.html" target="_top" xlink:title="List of plugins shipped with this version of the SDK.">
<polygon fill="white" stroke="#666666" points="48.25,-56.25 0,-56.25 0,-37 48.25,-37 48.25,-56.25"/>
<text xml:space="preserve" text-anchor="middle" x="24.12" y="-42.75" font-family="Helvetica,sans-Serif" font-size="10.00">Plugins</text>
</a>
</g>
</g>
<!-- Node1 -->
<g id="Node000001" class="node">
<title>Node1</title>
<g id="a_Node000001"><a xlink:title="Plugin providing functionality for registering medical images.">
<polygon fill="#999999" stroke="#666666" points="182.75,-56.25 84.25,-56.25 84.25,-37 182.75,-37 182.75,-56.25"/>
<text xml:space="preserve" text-anchor="middle" x="133.5" y="-42.75" font-family="Helvetica,sans-Serif" font-size="10.00">Registration Plugin</text>
</a>
</g>
</g>
<!-- Node2&#45;&gt;Node1 -->
<g id="edge1" class="edge">
<title>Node2&#45;&gt;Node1</title>
<path fill="none" stroke="black" d="M60.07,-46.62C67.67,-46.62 75.85,-46.62 83.88,-46.62"/>
<polygon fill="black" stroke="black" points="60.2,-43.13 50.2,-46.63 60.2,-50.13 60.2,-43.13"/>
</g>
<!-- Node3 -->
<g id="Node000003" class="node">
<title>Node3</title>
<g id="a_Node000003"><a xlink:href="group___im_fusion_reg_image_registration.html" target="_top" xlink:title="Rigid and non&#45;rigid registration of images.">
<polygon fill="white" stroke="#666666" points="322.12,-93.25 223.62,-93.25 223.62,-74 322.12,-74 322.12,-93.25"/>
<text xml:space="preserve" text-anchor="middle" x="272.88" y="-79.75" font-family="Helvetica,sans-Serif" font-size="10.00">Image Registration</text>
</a>
</g>
</g>
<!-- Node1&#45;&gt;Node3 -->
<g id="edge2" class="edge">
<title>Node1&#45;&gt;Node3</title>
<path fill="none" stroke="black" d="M182.85,-59.65C199.76,-64.2 218.49,-69.25 234.38,-73.53"/>
<polygon fill="black" stroke="black" points="184.07,-56.35 173.5,-57.13 182.25,-63.11 184.07,-56.35"/>
</g>
<!-- Node4 -->
<g id="Node000004" class="node">
<title>Node4</title>
<g id="a_Node000004"><a xlink:href="group___im_fusion_reg_similarity_measures.html" target="_top" xlink:title="Similarity Measures.">
<polygon fill="white" stroke="#666666" points="324,-56.25 221.75,-56.25 221.75,-37 324,-37 324,-56.25"/>
<text xml:space="preserve" text-anchor="middle" x="272.88" y="-42.75" font-family="Helvetica,sans-Serif" font-size="10.00">Similarity Measures</text>
</a>
</g>
</g>
<!-- Node1&#45;&gt;Node4 -->
<g id="edge3" class="edge">
<title>Node1&#45;&gt;Node4</title>
<path fill="none" stroke="black" d="M194.29,-46.62C203.38,-46.62 212.69,-46.62 221.55,-46.62"/>
<polygon fill="black" stroke="black" points="194.45,-43.13 184.45,-46.63 194.45,-50.13 194.45,-43.13"/>
</g>
<!-- Node5 -->
<g id="Node000005" class="node">
<title>Node5</title>
<g id="a_Node000005"><a xlink:href="group___im_fusion_reg_visualization.html" target="_top" xlink:title="Tools to visualize registration results.">
<polygon fill="white" stroke="#666666" points="327,-19.25 218.75,-19.25 218.75,0 327,0 327,-19.25"/>
<text xml:space="preserve" text-anchor="middle" x="272.88" y="-5.75" font-family="Helvetica,sans-Serif" font-size="10.00">Visualization Helpers</text>
</a>
</g>
</g>
<!-- Node1&#45;&gt;Node5 -->
<g id="edge4" class="edge">
<title>Node1&#45;&gt;Node5</title>
<path fill="none" stroke="black" d="M182.85,-33.6C199.76,-29.05 218.49,-24 234.38,-19.72"/>
<polygon fill="black" stroke="black" points="182.25,-30.14 173.5,-36.12 184.07,-36.9 182.25,-30.14"/>
</g>
</g>
</svg>
</svg>

<style type='text/css'>
<![CDATA[
[data-mouse-over-selected='false'] { opacity: 0.7; }
[data-mouse-over-selected='true']  { opacity: 1.0; }
]]>
</style>
<script type="application/ecmascript"><![CDATA[
document.addEventListener('DOMContentLoaded', (event) => {
  highlightEdges();
  highlightAdjacentNodes();
});
]]></script>
</svg>
