<?xml version="1.0" encoding="UTF-8" standalone="no"?>
<!DOCTYPE svg PUBLIC "-//W3C//DTD SVG 1.1//EN"
 "http://www.w3.org/Graphics/SVG/1.1/DTD/svg11.dtd">
<!-- Generated by graphviz version 14.1.4 (20260321.0153)
 -->
<!-- Title: Annotations Pages: 1 -->
<svg width="458pt" height="40pt"
 viewBox="0.00 0.00 458.00 40.00" xmlns="http://www.w3.org/2000/svg" xmlns:xlink="http://www.w3.org/1999/xlink">
<g id="graph0" class="graph" transform="scale(1 1) rotate(0) translate(4 36.12)">
<title>Annotations</title>
<!-- Node1 -->
<g id="Node000001" class="node">
<title>Node1</title>
<g id="a_Node000001"><a xlink:title="Augmenting visualizations with annotations.">
<polygon fill="#999999" stroke="#666666" points="225,-19.25 157.25,-19.25 157.25,0 225,0 225,-19.25"/>
<text xml:space="preserve" text-anchor="middle" x="191.12" y="-5.75" font-family="Helvetica,sans-Serif" font-size="10.00">Annotations</text>
</a>
</g>
</g>
<!-- Node3 -->
<g id="Node000003" class="node">
<title>Node3</title>
<g id="a_Node000003"><a xlink:href="group___im_fusion_dicom.html" target="_top" xlink:title="Plugin for handling DICOM data.">
<polygon fill="white" stroke="#666666" points="450.25,-19.25 375.75,-19.25 375.75,0 450.25,0 450.25,-19.25"/>
<text xml:space="preserve" text-anchor="middle" x="413" y="-5.75" font-family="Helvetica,sans-Serif" font-size="10.00">Dicom Plugin</text>
</a>
</g>
</g>
<!-- Node1&#45;&gt;Node3 -->
<g id="edge2" class="edge">
<title>Node1&#45;&gt;Node3</title>
<path fill="none" stroke="orange" stroke-dasharray="5,2" d="M225.04,-9.62C265.42,-9.62 333.64,-9.62 375.56,-9.62"/>
<text xml:space="preserve" text-anchor="start" x="243" y="-22.62" font-family="Helvetica,sans-Serif" font-size="10.00">ImFusion::Dicom::Overlay</text>
<text xml:space="preserve" text-anchor="middle" x="300.38" y="-11.38" font-family="Helvetica,sans-Serif" font-size="10.00">Annotation</text>
</g>
<!-- Node2 -->
<g id="Node000002" class="node">
<title>Node2</title>
<g id="a_Node000002"><a xlink:href="group___visualization.html" target="_top" xlink:title=" ">
<polygon fill="white" stroke="#666666" points="120.25,-19.25 0,-19.25 0,0 120.25,0 120.25,-19.25"/>
<text xml:space="preserve" text-anchor="middle" x="60.12" y="-5.75" font-family="Helvetica,sans-Serif" font-size="10.00">Visualization and Views</text>
</a>
</g>
</g>
<!-- Node2&#45;&gt;Node1 -->
<g id="edge1" class="edge">
<title>Node2&#45;&gt;Node1</title>
<path fill="none" stroke="black" d="M132.08,-9.62C140.69,-9.62 149.15,-9.62 156.83,-9.62"/>
<polygon fill="black" stroke="black" points="132.23,-6.13 122.23,-9.63 132.23,-13.13 132.23,-6.13"/>
</g>
</g>
</svg>
