<?xml version="1.0" encoding="UTF-8" standalone="no"?>
<!DOCTYPE svg PUBLIC "-//W3C//DTD SVG 1.1//EN"
 "http://www.w3.org/Graphics/SVG/1.1/DTD/svg11.dtd">
<!-- Generated by graphviz version 14.1.4 (20260321.0153)
 -->
<!-- Title: Core Library Pages: 1 -->
<svg width="254pt" height="582pt"
 viewBox="0.00 0.00 254.00 582.00" xmlns="http://www.w3.org/2000/svg" xmlns:xlink="http://www.w3.org/1999/xlink">
<g id="graph0" class="graph" transform="scale(1 1) rotate(0) translate(4 578.25)">
<title>Core Library</title>
<!-- Node1 -->
<g id="Node000001" class="node">
<title>Node1</title>
<g id="a_Node000001"><a xlink:title="Essential support library.">
<polygon fill="#999999" stroke="#666666" points="69.25,-296.25 0,-296.25 0,-277 69.25,-277 69.25,-296.25"/>
<text xml:space="preserve" text-anchor="middle" x="34.62" y="-282.75" font-family="Helvetica,sans-Serif" font-size="10.00">Core Library</text>
</a>
</g>
</g>
<!-- Node2 -->
<g id="Node000002" class="node">
<title>Node2</title>
<g id="a_Node000002"><a xlink:href="group___im_fusion_core_assert.html" target="_top" xlink:title="Assertion library.">
<polygon fill="white" stroke="#666666" points="220.25,-574.25 130.75,-574.25 130.75,-555 220.25,-555 220.25,-574.25"/>
<text xml:space="preserve" text-anchor="middle" x="175.5" y="-560.75" font-family="Helvetica,sans-Serif" font-size="10.00">Assertion Library</text>
</a>
</g>
</g>
<!-- Node1&#45;&gt;Node2 -->
<g id="edge1" class="edge">
<title>Node1&#45;&gt;Node2</title>
<path fill="none" stroke="black" d="M38.54,-307.9C46.61,-363.75 70.94,-512.57 105.25,-546.62 112.13,-553.45 121.24,-557.79 130.59,-560.52"/>
<polygon fill="black" stroke="black" points="42.03,-307.55 37.17,-298.14 35.1,-308.53 42.03,-307.55"/>
</g>
<!-- Node5 -->
<g id="Node000005" class="node">
<title>Node5</title>
<g id="a_Node000005"><a xlink:href="group___im_fusion_core_compression.html" target="_top" xlink:title="Algorithms and classes for compressing arbitrary data.">
<polygon fill="white" stroke="#666666" points="242.75,-537.25 108.25,-537.25 108.25,-518 242.75,-518 242.75,-537.25"/>
<text xml:space="preserve" text-anchor="middle" x="175.5" y="-523.75" font-family="Helvetica,sans-Serif" font-size="10.00">Generic Data Compression</text>
</a>
</g>
</g>
<!-- Node1&#45;&gt;Node5 -->
<g id="edge4" class="edge">
<title>Node1&#45;&gt;Node5</title>
<path fill="none" stroke="black" d="M35.79,-307.58C37.3,-351.64 47.26,-454.37 105.25,-509.62 108.58,-512.8 112.39,-515.43 116.48,-517.61"/>
<polygon fill="black" stroke="black" points="39.29,-307.78 35.58,-297.86 32.29,-307.93 39.29,-307.78"/>
</g>
<!-- Node3 -->
<g id="Node000003" class="node">
<title>Node3</title>
<g id="a_Node000003"><a xlink:href="group___im_fusion_core_container.html" target="_top" xlink:title="Utility functions for (STL) container access and manipulation.">
<polygon fill="white" stroke="#666666" points="222.5,-500.25 128.5,-500.25 128.5,-481 222.5,-481 222.5,-500.25"/>
<text xml:space="preserve" text-anchor="middle" x="175.5" y="-486.75" font-family="Helvetica,sans-Serif" font-size="10.00">Container Utilities</text>
</a>
</g>
</g>
<!-- Node1&#45;&gt;Node3 -->
<g id="edge2" class="edge">
<title>Node1&#45;&gt;Node3</title>
<path fill="none" stroke="black" d="M37.32,-307.76C41.59,-346.38 56.23,-428.45 105.25,-472.62 111.71,-478.45 119.81,-482.43 128.18,-485.15"/>
<polygon fill="black" stroke="black" points="40.82,-307.57 36.38,-297.95 33.85,-308.24 40.82,-307.57"/>
</g>
<!-- Node10 -->
<g id="Node000010" class="node">
<title>Node10</title>
<g id="a_Node000010"><a xlink:href="group___im_fusion_core_hashing.html" target="_top" xlink:title="Tools and functions to compute non&#45;cryptographics hashes, for instance to use them in std::unordered_...">
<polygon fill="white" stroke="#666666" points="242.75,-463.25 108.25,-463.25 108.25,-444 242.75,-444 242.75,-463.25"/>
<text xml:space="preserve" text-anchor="middle" x="175.5" y="-449.75" font-family="Helvetica,sans-Serif" font-size="10.00">Non&#45;cryptographic Hashing</text>
</a>
</g>
</g>
<!-- Node1&#45;&gt;Node10 -->
<g id="edge9" class="edge">
<title>Node1&#45;&gt;Node10</title>
<path fill="none" stroke="black" d="M39.51,-307.58C46.64,-340 64.95,-402.09 105.25,-435.62 109.07,-438.8 113.39,-441.43 117.95,-443.59"/>
<polygon fill="black" stroke="black" points="42.95,-306.96 37.54,-297.85 36.09,-308.35 42.95,-306.96"/>
</g>
<!-- Node12 -->
<g id="Node000012" class="node">
<title>Node12</title>
<g id="a_Node000012"><a xlink:href="group___im_fusion_core_platform.html" target="_top" xlink:title="Selection of platform&#45;specific functions.">
<polygon fill="white" stroke="#666666" points="241.62,-426.25 109.38,-426.25 109.38,-407 241.62,-407 241.62,-426.25"/>
<text xml:space="preserve" text-anchor="middle" x="175.5" y="-412.75" font-family="Helvetica,sans-Serif" font-size="10.00">Platform&#45;specific functions</text>
</a>
</g>
</g>
<!-- Node1&#45;&gt;Node12 -->
<g id="edge11" class="edge">
<title>Node1&#45;&gt;Node12</title>
<path fill="none" stroke="black" d="M42.84,-307.06C52.85,-332.42 73.41,-375.19 105.25,-398.62 109.55,-401.79 114.36,-404.4 119.39,-406.55"/>
<polygon fill="black" stroke="black" points="46.18,-306.02 39.4,-297.88 39.63,-308.47 46.18,-306.02"/>
</g>
<!-- Node17 -->
<g id="Node000017" class="node">
<title>Node17</title>
<g id="a_Node000017"><a xlink:href="group___im_fusion_core_string.html" target="_top" xlink:title="Utility functions for working with std::string.">
<polygon fill="white" stroke="#666666" points="222.12,-389.25 128.88,-389.25 128.88,-370 222.12,-370 222.12,-389.25"/>
<text xml:space="preserve" text-anchor="middle" x="175.5" y="-375.75" font-family="Helvetica,sans-Serif" font-size="10.00">String Processing</text>
</a>
</g>
</g>
<!-- Node1&#45;&gt;Node17 -->
<g id="edge16" class="edge">
<title>Node1&#45;&gt;Node17</title>
<path fill="none" stroke="black" d="M48.43,-305.68C60.94,-322.83 81.53,-347.46 105.25,-361.62 112.4,-365.89 120.54,-369.16 128.68,-371.66"/>
<polygon fill="black" stroke="black" points="51.52,-303.99 42.9,-297.82 45.79,-308.01 51.52,-303.99"/>
</g>
<!-- Node9 -->
<g id="Node000009" class="node">
<title>Node9</title>
<g id="a_Node000009"><a xlink:href="group___im_fusion_core_threading.html" target="_top" xlink:title="Utility classes for multi&#45;threading.">
<polygon fill="white" stroke="#666666" points="234.88,-352.25 116.12,-352.25 116.12,-333 234.88,-333 234.88,-352.25"/>
<text xml:space="preserve" text-anchor="middle" x="175.5" y="-338.75" font-family="Helvetica,sans-Serif" font-size="10.00">Multi&#45;Threading Utilities</text>
</a>
</g>
</g>
<!-- Node1&#45;&gt;Node9 -->
<g id="edge8" class="edge">
<title>Node1&#45;&gt;Node9</title>
<path fill="none" stroke="black" d="M60.96,-302.42C73.86,-309.94 89.99,-318.59 105.25,-324.62 112.87,-327.64 121.17,-330.3 129.28,-332.58"/>
<polygon fill="black" stroke="black" points="63.08,-299.6 52.7,-297.47 59.48,-305.61 63.08,-299.6"/>
</g>
<!-- Node6 -->
<g id="Node000006" class="node">
<title>Node6</title>
<g id="a_Node000006"><a xlink:href="group___im_fusion_core_utils.html" target="_top" xlink:title="Generic utility classes and helper functions of the ImFusionCore library.">
<polygon fill="white" stroke="#666666" points="218.38,-315.25 132.62,-315.25 132.62,-296 218.38,-296 218.38,-315.25"/>
<text xml:space="preserve" text-anchor="middle" x="175.5" y="-301.75" font-family="Helvetica,sans-Serif" font-size="10.00">Generic Utilities</text>
</a>
</g>
</g>
<!-- Node1&#45;&gt;Node6 -->
<g id="edge5" class="edge">
<title>Node1&#45;&gt;Node6</title>
<path fill="none" stroke="black" d="M80.66,-292.79C97.21,-295.05 115.88,-297.6 132.18,-299.83"/>
<polygon fill="black" stroke="black" points="81.48,-289.37 71.1,-291.48 80.53,-296.3 81.48,-289.37"/>
</g>
<!-- Node4 -->
<g id="Node000004" class="node">
<title>Node4</title>
<g id="a_Node000004"><a xlink:href="group___im_fusion_filesystem.html" target="_top" xlink:title="Lightweight filesystem library.">
<polygon fill="white" stroke="#666666" points="223.62,-278.25 127.38,-278.25 127.38,-259 223.62,-259 223.62,-278.25"/>
<text xml:space="preserve" text-anchor="middle" x="175.5" y="-264.75" font-family="Helvetica,sans-Serif" font-size="10.00">Filesystem Library</text>
</a>
</g>
</g>
<!-- Node1&#45;&gt;Node4 -->
<g id="edge3" class="edge">
<title>Node1&#45;&gt;Node4</title>
<path fill="none" stroke="black" d="M81,-280.74C95.73,-278.84 112.1,-276.71 126.98,-274.78"/>
<polygon fill="black" stroke="black" points="80.57,-277.27 71.1,-282.03 81.47,-284.21 80.57,-277.27"/>
</g>
<!-- Node7 -->
<g id="Node000007" class="node">
<title>Node7</title>
<g id="a_Node000007"><a xlink:href="group___im_fusion_geometry.html" target="_top" xlink:title="Basic geometry library.">
<polygon fill="white" stroke="#666666" points="221,-241.25 130,-241.25 130,-222 221,-222 221,-241.25"/>
<text xml:space="preserve" text-anchor="middle" x="175.5" y="-227.75" font-family="Helvetica,sans-Serif" font-size="10.00">Geometry Library</text>
</a>
</g>
</g>
<!-- Node1&#45;&gt;Node7 -->
<g id="edge6" class="edge">
<title>Node1&#45;&gt;Node7</title>
<path fill="none" stroke="black" d="M61.91,-270.78C74.66,-263.58 90.4,-255.41 105.25,-249.62 113.01,-246.6 121.44,-243.93 129.68,-241.63"/>
<polygon fill="black" stroke="black" points="60.2,-267.72 53.3,-275.76 63.71,-273.78 60.2,-267.72"/>
</g>
<!-- Node8 -->
<g id="Node000008" class="node">
<title>Node8</title>
<g id="a_Node000008"><a xlink:href="group___im_fusion_log.html" target="_top" xlink:title="Lightweight logging framework of the ImFusion SDK.">
<polygon fill="white" stroke="#666666" points="200.38,-204.25 150.62,-204.25 150.62,-185 200.38,-185 200.38,-204.25"/>
<text xml:space="preserve" text-anchor="middle" x="175.5" y="-190.75" font-family="Helvetica,sans-Serif" font-size="10.00">Logging</text>
</a>
</g>
</g>
<!-- Node1&#45;&gt;Node8 -->
<g id="edge7" class="edge">
<title>Node1&#45;&gt;Node8</title>
<path fill="none" stroke="black" d="M48.69,-267.55C61.26,-250.64 81.78,-226.54 105.25,-212.62 118.93,-204.52 136.24,-200.02 150.13,-197.54"/>
<polygon fill="black" stroke="black" points="46.11,-265.15 43.12,-275.32 51.8,-269.23 46.11,-265.15"/>
</g>
<!-- Node14 -->
<g id="Node000014" class="node">
<title>Node14</title>
<g id="a_Node000014"><a xlink:href="group___im_fusion_random.html" target="_top" xlink:title="Convenient random number generation that offers automatic seeding and works with standard distributio...">
<polygon fill="white" stroke="#666666" points="245.75,-167.25 105.25,-167.25 105.25,-148 245.75,-148 245.75,-167.25"/>
<text xml:space="preserve" text-anchor="middle" x="175.5" y="-153.75" font-family="Helvetica,sans-Serif" font-size="10.00">Random Number Generation</text>
</a>
</g>
</g>
<!-- Node1&#45;&gt;Node14 -->
<g id="edge13" class="edge">
<title>Node1&#45;&gt;Node14</title>
<path fill="none" stroke="black" d="M43.04,-265.99C53.16,-240.81 73.73,-198.73 105.25,-175.62 109.56,-172.47 114.37,-169.86 119.4,-167.71"/>
<polygon fill="black" stroke="black" points="39.85,-264.54 39.55,-275.13 46.39,-267.04 39.85,-264.54"/>
</g>
<!-- Node15 -->
<g id="Node000015" class="node">
<title>Node15</title>
<g id="a_Node000015"><a xlink:href="group___im_fusion_resource.html" target="_top" xlink:title="Resource system to retrieve at runtime binary data embedded into the application/library.">
<polygon fill="white" stroke="#666666" points="222.88,-130.25 128.12,-130.25 128.12,-111 222.88,-111 222.88,-130.25"/>
<text xml:space="preserve" text-anchor="middle" x="175.5" y="-116.75" font-family="Helvetica,sans-Serif" font-size="10.00">Resource System</text>
</a>
</g>
</g>
<!-- Node1&#45;&gt;Node15 -->
<g id="edge14" class="edge">
<title>Node1&#45;&gt;Node15</title>
<path fill="none" stroke="black" d="M39.66,-265.34C46.92,-233.01 65.32,-171.76 105.25,-138.62 111.75,-133.23 119.68,-129.43 127.83,-126.76"/>
<polygon fill="black" stroke="black" points="36.24,-264.58 37.64,-275.08 43.1,-266 36.24,-264.58"/>
</g>
<!-- Node13 -->
<g id="Node000013" class="node">
<title>Node13</title>
<g id="a_Node000013"><a xlink:href="group___plugin_architecture.html" target="_top" xlink:title="Infrastructure and functionality to dynamically extend application functionality via shared libraries...">
<polygon fill="white" stroke="#666666" points="224.38,-93.25 126.62,-93.25 126.62,-74 224.38,-74 224.38,-93.25"/>
<text xml:space="preserve" text-anchor="middle" x="175.5" y="-79.75" font-family="Helvetica,sans-Serif" font-size="10.00">Plugin Architecture</text>
</a>
</g>
</g>
<!-- Node1&#45;&gt;Node13 -->
<g id="edge12" class="edge">
<title>Node1&#45;&gt;Node13</title>
<path fill="none" stroke="black" d="M37.36,-265.6C41.69,-227.18 56.43,-145.55 105.25,-101.62 111.25,-96.23 118.67,-92.41 126.4,-89.72"/>
<polygon fill="black" stroke="black" points="33.9,-265.06 36.41,-275.35 40.86,-265.74 33.9,-265.06"/>
</g>
<!-- Node11 -->
<g id="Node000011" class="node">
<title>Node11</title>
<g id="a_Node000011"><a xlink:href="group___serialization_a_p_i.html" target="_top" xlink:title="Serialization of data structures to and from generic storage.">
<polygon fill="white" stroke="#666666" points="225.88,-56.25 125.12,-56.25 125.12,-37 225.88,-37 225.88,-56.25"/>
<text xml:space="preserve" text-anchor="middle" x="175.5" y="-42.75" font-family="Helvetica,sans-Serif" font-size="10.00">Object Serialization</text>
</a>
</g>
</g>
<!-- Node1&#45;&gt;Node11 -->
<g id="edge10" class="edge">
<title>Node1&#45;&gt;Node11</title>
<path fill="none" stroke="black" d="M35.83,-265.48C37.44,-221.46 47.58,-119.5 105.25,-64.62 110.74,-59.4 117.54,-55.65 124.73,-52.95"/>
<polygon fill="black" stroke="black" points="32.33,-265.35 35.59,-275.43 39.33,-265.52 32.33,-265.35"/>
</g>
<!-- Node16 -->
<g id="Node000016" class="node">
<title>Node16</title>
<g id="a_Node000016"><a xlink:href="group___signal_a_p_i.html" target="_top" xlink:title="Lightweight implementation of the signal&#45;slot design pattern.">
<polygon fill="white" stroke="#666666" points="221.75,-19.25 129.25,-19.25 129.25,0 221.75,0 221.75,-19.25"/>
<text xml:space="preserve" text-anchor="middle" x="175.5" y="-5.75" font-family="Helvetica,sans-Serif" font-size="10.00">Signals and Slots</text>
</a>
</g>
</g>
<!-- Node1&#45;&gt;Node16 -->
<g id="edge15" class="edge">
<title>Node1&#45;&gt;Node16</title>
<path fill="none" stroke="black" d="M38.55,-265.43C46.66,-209.79 71.05,-61.54 105.25,-27.62 111.69,-21.24 120.09,-17.03 128.8,-14.28"/>
<polygon fill="black" stroke="black" points="35.11,-264.75 37.17,-275.15 42.04,-265.74 35.11,-264.75"/>
</g>
</g>
</svg>
