<?xml version="1.0" encoding="UTF-8" standalone="no"?>
<!DOCTYPE svg PUBLIC "-//W3C//DTD SVG 1.1//EN"
 "http://www.w3.org/Graphics/SVG/1.1/DTD/svg11.dtd">
<!-- Generated by graphviz version 14.1.4 (20260321.0153)
 -->
<!-- Title: Base Library Pages: 1 -->
<svg width="248pt" height="520pt"
 viewBox="0.00 0.00 248.00 520.00" xmlns="http://www.w3.org/2000/svg" xmlns:xlink="http://www.w3.org/1999/xlink">
<g id="graph0" class="graph" transform="scale(1 1) rotate(0) translate(4 516.25)">
<title>Base Library</title>
<!-- Node2 -->
<g id="Node000002" class="node">
<title>Node2</title>
<g id="a_Node000002"><a xlink:href="group___animations_a_p_i.html" target="_top" xlink:title="Animating objects within the ImFusion SDK.">
<polygon fill="white" stroke="#666666" points="205.62,-512.25 140.88,-512.25 140.88,-493 205.62,-493 205.62,-512.25"/>
<text xml:space="preserve" text-anchor="middle" x="173.25" y="-498.75" font-family="Helvetica,sans-Serif" font-size="10.00">Animations</text>
</a>
</g>
</g>
<!-- Node4 -->
<g id="Node000004" class="node">
<title>Node4</title>
<g id="a_Node000004"><a xlink:href="group___data_components.html" target="_top" xlink:title="Extends ImFusion::Data with custom information in a type&#45;safe fashion.">
<polygon fill="white" stroke="#666666" points="226.25,-475.25 120.25,-475.25 120.25,-456 226.25,-456 226.25,-475.25"/>
<text xml:space="preserve" text-anchor="middle" x="173.25" y="-461.75" font-family="Helvetica,sans-Serif" font-size="10.00">DataComponent API</text>
</a>
</g>
</g>
<!-- Node3 -->
<g id="Node000003" class="node">
<title>Node3</title>
<g id="a_Node000003"><a xlink:href="group___data_model.html" target="_top" xlink:title="Storage and hierarchical organization of datasets.">
<polygon fill="white" stroke="#666666" points="206.38,-438.25 140.12,-438.25 140.12,-419 206.38,-419 206.38,-438.25"/>
<text xml:space="preserve" text-anchor="middle" x="173.25" y="-424.75" font-family="Helvetica,sans-Serif" font-size="10.00">Data Model</text>
</a>
</g>
</g>
<!-- Node8 -->
<g id="Node000008" class="node">
<title>Node8</title>
<g id="a_Node000008"><a xlink:href="group___display_layout.html" target="_top" xlink:title=" ">
<polygon fill="white" stroke="#666666" points="239.75,-400.88 106.75,-400.88 106.75,-370.38 239.75,-370.38 239.75,-400.88"/>
<text xml:space="preserve" text-anchor="start" x="114.75" y="-387.38" font-family="Helvetica,sans-Serif" font-size="10.00">Layouting a DisplayWidget</text>
<text xml:space="preserve" text-anchor="middle" x="173.25" y="-376.12" font-family="Helvetica,sans-Serif" font-size="10.00">Multi</text>
</a>
</g>
</g>
<!-- Node11 -->
<g id="Node000011" class="node">
<title>Node11</title>
<g id="a_Node000011"><a xlink:href="group___gl_image_processing.html" target="_top" xlink:title="Classes for high&#45;level image processing using OpenGL.">
<polygon fill="white" stroke="#666666" points="239.75,-352.25 106.75,-352.25 106.75,-333 239.75,-333 239.75,-352.25"/>
<text xml:space="preserve" text-anchor="middle" x="173.25" y="-338.75" font-family="Helvetica,sans-Serif" font-size="10.00">OpenGL Image Processing</text>
</a>
</g>
</g>
<!-- Node5 -->
<g id="Node000005" class="node">
<title>Node5</title>
<g id="a_Node000005"><a xlink:href="group___im_fusion_g_u_i.html" target="_top" xlink:title="Generic Abstraction Layer for Visualization and User Input Events.">
<polygon fill="white" stroke="#666666" points="210.5,-315.25 136,-315.25 136,-296 210.5,-296 210.5,-315.25"/>
<text xml:space="preserve" text-anchor="middle" x="173.25" y="-301.75" font-family="Helvetica,sans-Serif" font-size="10.00">ImFusionGUI</text>
</a>
</g>
</g>
<!-- Node1 -->
<g id="Node000001" class="node">
<title>Node1</title>
<g id="a_Node000001"><a xlink:title="General infrastructure for the development of (medical) imaging algorithms and software.">
<polygon fill="#999999" stroke="#666666" points="70.75,-259.25 0,-259.25 0,-240 70.75,-240 70.75,-259.25"/>
<text xml:space="preserve" text-anchor="middle" x="35.38" y="-245.75" font-family="Helvetica,sans-Serif" font-size="10.00">Base Library</text>
</a>
</g>
</g>
<!-- Node1&#45;&gt;Node2 -->
<g id="edge1" class="edge">
<title>Node1&#45;&gt;Node2</title>
<path fill="none" stroke="black" d="M36.28,-270.69C37.25,-316.42 46.19,-425.43 106.75,-484.62 115.77,-493.45 128.7,-498.04 140.68,-500.39"/>
<polygon fill="black" stroke="black" points="39.78,-270.81 36.19,-260.85 32.78,-270.88 39.78,-270.81"/>
</g>
<!-- Node1&#45;&gt;Node4 -->
<g id="edge3" class="edge">
<title>Node1&#45;&gt;Node4</title>
<path fill="none" stroke="black" d="M37.69,-270.92C41.35,-311.4 55.14,-399.67 106.75,-447.62 110.64,-451.24 115.18,-454.14 120.03,-456.46"/>
<polygon fill="black" stroke="black" points="41.19,-270.79 36.93,-261.08 34.21,-271.32 41.19,-270.79"/>
</g>
<!-- Node1&#45;&gt;Node3 -->
<g id="edge2" class="edge">
<title>Node1&#45;&gt;Node3</title>
<path fill="none" stroke="black" d="M39.74,-270.55C46.35,-304.72 64.26,-372.41 106.75,-409.62 115.92,-417.66 128.32,-422.31 139.86,-424.99"/>
<polygon fill="black" stroke="black" points="43.26,-270.32 38.06,-261.09 36.37,-271.55 43.26,-270.32"/>
</g>
<!-- Node1&#45;&gt;Node8 -->
<g id="edge7" class="edge">
<title>Node1&#45;&gt;Node8</title>
<path fill="none" stroke="black" d="M44.26,-269.95C54.89,-294.86 76.09,-336.8 106.75,-361.62 110.61,-364.75 114.91,-367.49 119.42,-369.89"/>
<polygon fill="black" stroke="black" points="47.6,-268.87 40.58,-260.93 41.11,-271.52 47.6,-268.87"/>
</g>
<!-- Node1&#45;&gt;Node11 -->
<g id="edge10" class="edge">
<title>Node1&#45;&gt;Node11</title>
<path fill="none" stroke="black" d="M49.41,-268.6C62.12,-285.7 82.98,-310.29 106.75,-324.62 112,-327.79 117.82,-330.42 123.76,-332.58"/>
<polygon fill="black" stroke="black" points="52.46,-266.85 43.79,-260.76 46.77,-270.93 52.46,-266.85"/>
</g>
<!-- Node1&#45;&gt;Node5 -->
<g id="edge4" class="edge">
<title>Node1&#45;&gt;Node5</title>
<path fill="none" stroke="black" d="M62.04,-265.31C75.09,-272.81 91.4,-281.46 106.75,-287.62 115.94,-291.31 126.16,-294.52 135.73,-297.16"/>
<polygon fill="black" stroke="black" points="64.06,-262.44 53.66,-260.38 60.51,-268.47 64.06,-262.44"/>
</g>
<!-- Node7 -->
<g id="Node000007" class="node">
<title>Node7</title>
<g id="a_Node000007"><a xlink:href="group___image_a_p_i.html" target="_top" xlink:title="Data structures and interfaces for working with image data.">
<polygon fill="white" stroke="#666666" points="197.38,-278.25 149.12,-278.25 149.12,-259 197.38,-259 197.38,-278.25"/>
<text xml:space="preserve" text-anchor="middle" x="173.25" y="-264.75" font-family="Helvetica,sans-Serif" font-size="10.00">Images</text>
</a>
</g>
</g>
<!-- Node1&#45;&gt;Node7 -->
<g id="edge6" class="edge">
<title>Node1&#45;&gt;Node7</title>
<path fill="none" stroke="black" d="M82.31,-256.05C104.65,-259.17 130.54,-262.79 148.79,-265.34"/>
<polygon fill="black" stroke="black" points="82.9,-252.6 72.51,-254.68 81.93,-259.53 82.9,-252.6"/>
</g>
<!-- Node6 -->
<g id="Node000006" class="node">
<title>Node6</title>
<g id="a_Node000006"><a xlink:href="group___image_masks.html" target="_top" xlink:title="On&#45;the&#45;fly pixel masking of images.">
<polygon fill="white" stroke="#666666" points="210.88,-241.25 135.62,-241.25 135.62,-222 210.88,-222 210.88,-241.25"/>
<text xml:space="preserve" text-anchor="middle" x="173.25" y="-227.75" font-family="Helvetica,sans-Serif" font-size="10.00">Image Masks</text>
</a>
</g>
</g>
<!-- Node1&#45;&gt;Node6 -->
<g id="edge5" class="edge">
<title>Node1&#45;&gt;Node6</title>
<path fill="none" stroke="black" d="M82.03,-243.58C99.36,-241.28 118.87,-238.7 135.29,-236.52"/>
<polygon fill="black" stroke="black" points="81.97,-240.05 72.51,-244.84 82.89,-246.99 81.97,-240.05"/>
</g>
<!-- Node9 -->
<g id="Node000009" class="node">
<title>Node9</title>
<g id="a_Node000009"><a xlink:href="group___license_system.html" target="_top" xlink:title="Interfaces and examples for interacting with the license system.">
<polygon fill="white" stroke="#666666" points="216.5,-204.25 130,-204.25 130,-185 216.5,-185 216.5,-204.25"/>
<text xml:space="preserve" text-anchor="middle" x="173.25" y="-190.75" font-family="Helvetica,sans-Serif" font-size="10.00">License System</text>
</a>
</g>
</g>
<!-- Node1&#45;&gt;Node9 -->
<g id="edge8" class="edge">
<title>Node1&#45;&gt;Node9</title>
<path fill="none" stroke="black" d="M62.61,-234.1C75.58,-226.88 91.66,-218.59 106.75,-212.62 114.21,-209.68 122.33,-207.03 130.23,-204.72"/>
<polygon fill="black" stroke="black" points="61.23,-230.86 54.27,-238.85 64.69,-236.94 61.23,-230.86"/>
</g>
<!-- Node10 -->
<g id="Node000010" class="node">
<title>Node10</title>
<g id="a_Node000010"><a xlink:href="group___open_g_l.html" target="_top" xlink:title="Using OpenGL within the ImFusion SDK.">
<polygon fill="white" stroke="#666666" points="199.25,-167.25 147.25,-167.25 147.25,-148 199.25,-148 199.25,-167.25"/>
<text xml:space="preserve" text-anchor="middle" x="173.25" y="-153.75" font-family="Helvetica,sans-Serif" font-size="10.00">OpenGL</text>
</a>
</g>
</g>
<!-- Node1&#45;&gt;Node10 -->
<g id="edge9" class="edge">
<title>Node1&#45;&gt;Node10</title>
<path fill="none" stroke="black" d="M49.67,-230.63C62.44,-213.78 83.22,-189.71 106.75,-175.62 118.99,-168.3 134.3,-163.87 147.03,-161.25"/>
<polygon fill="black" stroke="black" points="47.09,-228.23 44.01,-238.37 52.74,-232.37 47.09,-228.23"/>
</g>
<!-- Node12 -->
<g id="Node000012" class="node">
<title>Node12</title>
<g id="a_Node000012"><a xlink:href="group___poses.html" target="_top" xlink:title="Using Poses within the ImFusion SDK.">
<polygon fill="white" stroke="#666666" points="195.12,-130.25 151.38,-130.25 151.38,-111 195.12,-111 195.12,-130.25"/>
<text xml:space="preserve" text-anchor="middle" x="173.25" y="-116.75" font-family="Helvetica,sans-Serif" font-size="10.00">Poses</text>
</a>
</g>
</g>
<!-- Node1&#45;&gt;Node12 -->
<g id="edge11" class="edge">
<title>Node1&#45;&gt;Node12</title>
<path fill="none" stroke="black" d="M43.98,-229.06C54.33,-203.95 75.24,-161.94 106.75,-138.62 119.64,-129.09 137.32,-124.6 151.07,-122.49"/>
<polygon fill="black" stroke="black" points="40.8,-227.59 40.41,-238.17 47.32,-230.14 40.8,-227.59"/>
</g>
<!-- Node13 -->
<g id="Node000013" class="node">
<title>Node13</title>
<g id="a_Node000013"><a xlink:href="group___progress_a_p_i.html" target="_top" xlink:title="Reporting progress of long&#45;standing tasks/algorithms.">
<polygon fill="white" stroke="#666666" points="223.25,-93.25 123.25,-93.25 123.25,-74 223.25,-74 223.25,-93.25"/>
<text xml:space="preserve" text-anchor="middle" x="173.25" y="-79.75" font-family="Helvetica,sans-Serif" font-size="10.00">Progress Reporting</text>
</a>
</g>
</g>
<!-- Node1&#45;&gt;Node13 -->
<g id="edge12" class="edge">
<title>Node1&#45;&gt;Node13</title>
<path fill="none" stroke="black" d="M40.58,-228.41C48.08,-196.15 66.9,-135.02 106.75,-101.62 111.54,-97.61 117.15,-94.49 123.05,-92.06"/>
<polygon fill="black" stroke="black" points="37.17,-227.6 38.48,-238.11 44.01,-229.08 37.17,-227.6"/>
</g>
<!-- Node14 -->
<g id="Node000014" class="node">
<title>Node14</title>
<g id="a_Node000014"><a xlink:href="group___visualization.html" target="_top" xlink:title=" ">
<polygon fill="white" stroke="#666666" points="233.38,-56.25 113.12,-56.25 113.12,-37 233.38,-37 233.38,-56.25"/>
<text xml:space="preserve" text-anchor="middle" x="173.25" y="-42.75" font-family="Helvetica,sans-Serif" font-size="10.00">Visualization and Views</text>
</a>
</g>
</g>
<!-- Node1&#45;&gt;Node14 -->
<g id="edge13" class="edge">
<title>Node1&#45;&gt;Node14</title>
<path fill="none" stroke="black" d="M38.26,-228.66C42.85,-190.34 58.09,-108.86 106.75,-64.62 110.24,-61.45 114.24,-58.83 118.5,-56.67"/>
<polygon fill="black" stroke="black" points="34.8,-228.07 37.24,-238.38 41.77,-228.8 34.8,-228.07"/>
</g>
<!-- Node15 -->
<g id="Node000015" class="node">
<title>Node15</title>
<g id="a_Node000015"><a xlink:href="group___workspace_a_p_i.html" target="_top" xlink:title="Basic scripting and snapshot functionality.">
<polygon fill="white" stroke="#666666" points="217.62,-19.25 128.88,-19.25 128.88,0 217.62,0 217.62,-19.25"/>
<text xml:space="preserve" text-anchor="middle" x="173.25" y="-5.75" font-family="Helvetica,sans-Serif" font-size="10.00">Workspaces API</text>
</a>
</g>
</g>
<!-- Node1&#45;&gt;Node15 -->
<g id="edge14" class="edge">
<title>Node1&#45;&gt;Node15</title>
<path fill="none" stroke="black" d="M36.72,-228.54C38.61,-184.62 49.32,-82.87 106.75,-27.62 112.78,-21.82 120.51,-17.85 128.52,-15.15"/>
<polygon fill="black" stroke="black" points="33.22,-228.36 36.42,-238.46 40.22,-228.57 33.22,-228.36"/>
</g>
</g>
</svg>
