<?xml version="1.0" encoding="UTF-8" standalone="no"?>
<!DOCTYPE svg PUBLIC "-//W3C//DTD SVG 1.1//EN"
 "http://www.w3.org/Graphics/SVG/1.1/DTD/svg11.dtd">
<!-- Generated by graphviz version 14.1.4 (20260321.0153)
 -->
<!-- Title: ImFusionGUI Pages: 1 -->
<svg width="333pt" height="150pt"
 viewBox="0.00 0.00 333.00 150.00" xmlns="http://www.w3.org/2000/svg" xmlns:xlink="http://www.w3.org/1999/xlink">
<g id="graph0" class="graph" transform="scale(1 1) rotate(0) translate(4 145.88)">
<title>ImFusionGUI</title>
<!-- Node1 -->
<g id="Node000001" class="node">
<title>Node1</title>
<g id="a_Node000001"><a xlink:title="Generic Abstraction Layer for Visualization and User Input Events.">
<polygon fill="#999999" stroke="#666666" points="181.25,-85.88 106.75,-85.88 106.75,-66.62 181.25,-66.62 181.25,-85.88"/>
<text xml:space="preserve" text-anchor="middle" x="144" y="-72.38" font-family="Helvetica,sans-Serif" font-size="10.00">ImFusionGUI</text>
</a>
</g>
</g>
<!-- Node3 -->
<g id="Node000003" class="node">
<title>Node3</title>
<g id="a_Node000003"><a xlink:href="group___im_fusion_g_u_i_display_framework.html" target="_top" xlink:title="Interfaces and base classes for building a visualization viewport.">
<polygon fill="white" stroke="#666666" points="319.12,-141.88 222.88,-141.88 222.88,-122.62 319.12,-122.62 319.12,-141.88"/>
<text xml:space="preserve" text-anchor="middle" x="271" y="-128.38" font-family="Helvetica,sans-Serif" font-size="10.00">Display and views</text>
</a>
</g>
</g>
<!-- Node1&#45;&gt;Node3 -->
<g id="edge2" class="edge">
<title>Node1&#45;&gt;Node3</title>
<path fill="none" stroke="black" d="M172.11,-91.79C185.46,-99.11 201.95,-107.66 217.25,-114.25 223.83,-117.08 231.01,-119.78 237.9,-122.19"/>
<polygon fill="black" stroke="black" points="173.91,-88.79 163.47,-86.98 170.5,-94.9 173.91,-88.79"/>
</g>
<!-- Node5 -->
<g id="Node000005" class="node">
<title>Node5</title>
<g id="a_Node000005"><a xlink:href="group___im_fusion_g_u_i_event_handling.html" target="_top" xlink:title="Platform&#45;agnostic abstraction layer for input event handling.">
<polygon fill="white" stroke="#666666" points="324.75,-104.88 217.25,-104.88 217.25,-85.62 324.75,-85.62 324.75,-104.88"/>
<text xml:space="preserve" text-anchor="middle" x="271" y="-91.38" font-family="Helvetica,sans-Serif" font-size="10.00">Input Event Handling</text>
</a>
</g>
</g>
<!-- Node1&#45;&gt;Node5 -->
<g id="edge4" class="edge">
<title>Node1&#45;&gt;Node5</title>
<path fill="none" stroke="black" d="M192.78,-83.51C200.69,-84.72 208.94,-85.97 216.97,-87.19"/>
<polygon fill="black" stroke="black" points="193.4,-80.07 182.99,-82.02 192.35,-86.99 193.4,-80.07"/>
</g>
<!-- Node6 -->
<g id="Node000006" class="node">
<title>Node6</title>
<g id="a_Node000006"><a xlink:href="group___im_fusion_g_u_i_qt.html" target="_top" xlink:title="Wrappers for usage in Qt&#45;based Applications.">
<polygon fill="white" stroke="#666666" points="306.38,-67.88 235.62,-67.88 235.62,-48.62 306.38,-48.62 306.38,-67.88"/>
<text xml:space="preserve" text-anchor="middle" x="271" y="-54.38" font-family="Helvetica,sans-Serif" font-size="10.00">Qt Wrappers</text>
</a>
</g>
</g>
<!-- Node1&#45;&gt;Node6 -->
<g id="edge5" class="edge">
<title>Node1&#45;&gt;Node6</title>
<path fill="none" stroke="black" d="M192.61,-69.39C206.84,-67.34 222.17,-65.14 235.4,-63.23"/>
<polygon fill="black" stroke="black" points="192.39,-65.89 182.99,-70.78 193.39,-72.82 192.39,-65.89"/>
</g>
<!-- Node4 -->
<g id="Node000004" class="node">
<title>Node4</title>
<g id="a_Node000004"><a xlink:href="group___im_fusion_g_u_i_utilities.html" target="_top" xlink:title="High&#45;level classes and helpers to build a radiology workstation software.">
<polygon fill="white" stroke="#666666" points="317.62,-30.5 224.38,-30.5 224.38,0 317.62,0 317.62,-30.5"/>
<text xml:space="preserve" text-anchor="start" x="232.38" y="-17" font-family="Helvetica,sans-Serif" font-size="10.00">High&#45;level display</text>
<text xml:space="preserve" text-anchor="middle" x="271" y="-5.75" font-family="Helvetica,sans-Serif" font-size="10.00"> classes</text>
</a>
</g>
</g>
<!-- Node1&#45;&gt;Node4 -->
<g id="edge3" class="edge">
<title>Node1&#45;&gt;Node4</title>
<path fill="none" stroke="black" d="M173.81,-61.11C186.98,-54.29 202.83,-46.22 217.25,-39.25 222.96,-36.49 229.05,-33.64 234.99,-30.9"/>
<polygon fill="black" stroke="black" points="172.49,-57.85 165.24,-65.57 175.72,-64.06 172.49,-57.85"/>
</g>
<!-- Node2 -->
<g id="Node000002" class="node">
<title>Node2</title>
<g id="a_Node000002"><a xlink:href="group___im_fusion_lib.html" target="_top" xlink:title="General infrastructure for the development of (medical) imaging algorithms and software.">
<polygon fill="white" stroke="#666666" points="70.75,-85.88 0,-85.88 0,-66.62 70.75,-66.62 70.75,-85.88"/>
<text xml:space="preserve" text-anchor="middle" x="35.38" y="-72.38" font-family="Helvetica,sans-Serif" font-size="10.00">Base Library</text>
</a>
</g>
</g>
<!-- Node2&#45;&gt;Node1 -->
<g id="edge1" class="edge">
<title>Node2&#45;&gt;Node1</title>
<path fill="none" stroke="black" d="M82.46,-76.25C90.45,-76.25 98.66,-76.25 106.35,-76.25"/>
<polygon fill="black" stroke="black" points="82.51,-72.75 72.51,-76.25 82.51,-79.75 82.51,-72.75"/>
</g>
</g>
</svg>
