<?xml version="1.0" encoding="UTF-8" standalone="no"?>
<!DOCTYPE svg PUBLIC "-//W3C//DTD SVG 1.1//EN"
 "http://www.w3.org/Graphics/SVG/1.1/DTD/svg11.dtd">
<!-- Generated by graphviz version 14.1.4 (20260321.0153)
 -->
<!-- Title: DataComponent API Pages: 1 -->
<svg width="506pt" height="29pt"
 viewBox="0.00 0.00 506.00 29.00" xmlns="http://www.w3.org/2000/svg" xmlns:xlink="http://www.w3.org/1999/xlink">
<g id="graph0" class="graph" transform="scale(1 1) rotate(0) translate(4 24.88)">
<title>DataComponent API</title>
<!-- Node1 -->
<g id="Node000001" class="node">
<title>Node1</title>
<g id="a_Node000001"><a xlink:title="Extends ImFusion::Data with custom information in a type&#45;safe fashion.">
<polygon fill="#999999" stroke="#666666" points="213.75,-19.25 107.75,-19.25 107.75,0 213.75,0 213.75,-19.25"/>
<text xml:space="preserve" text-anchor="middle" x="160.75" y="-5.75" font-family="Helvetica,sans-Serif" font-size="10.00">DataComponent API</text>
</a>
</g>
</g>
<!-- Node3 -->
<g id="Node000003" class="node">
<title>Node3</title>
<g id="a_Node000003"><a xlink:href="group___plugin_architecture.html" target="_top" xlink:title="Infrastructure and functionality to dynamically extend application functionality via shared libraries...">
<polygon fill="white" stroke="#666666" points="498.25,-19.25 400.5,-19.25 400.5,0 498.25,0 498.25,-19.25"/>
<text xml:space="preserve" text-anchor="middle" x="449.38" y="-5.75" font-family="Helvetica,sans-Serif" font-size="10.00">Plugin Architecture</text>
</a>
</g>
</g>
<!-- Node1&#45;&gt;Node3 -->
<g id="edge2" class="edge">
<title>Node1&#45;&gt;Node3</title>
<path fill="none" stroke="orange" stroke-dasharray="5,2" d="M213.99,-9.62C267.11,-9.62 348.74,-9.62 400.31,-9.62"/>
<text xml:space="preserve" text-anchor="middle" x="307.12" y="-11.38" font-family="Helvetica,sans-Serif" font-size="10.00">ImFusion::DataComponentFactory</text>
</g>
<!-- Node2 -->
<g id="Node000002" class="node">
<title>Node2</title>
<g id="a_Node000002"><a xlink:href="group___im_fusion_lib.html" target="_top" xlink:title="General infrastructure for the development of (medical) imaging algorithms and software.">
<polygon fill="white" stroke="#666666" points="70.75,-19.25 0,-19.25 0,0 70.75,0 70.75,-19.25"/>
<text xml:space="preserve" text-anchor="middle" x="35.38" y="-5.75" font-family="Helvetica,sans-Serif" font-size="10.00">Base Library</text>
</a>
</g>
</g>
<!-- Node2&#45;&gt;Node1 -->
<g id="edge1" class="edge">
<title>Node2&#45;&gt;Node1</title>
<path fill="none" stroke="black" d="M82.57,-9.62C90.65,-9.62 99.11,-9.62 107.34,-9.62"/>
<polygon fill="black" stroke="black" points="82.58,-6.13 72.58,-9.63 82.58,-13.13 82.58,-6.13"/>
</g>
</g>
</svg>
