<?xml version="1.0" encoding="UTF-8" standalone="no"?>
<!DOCTYPE svg PUBLIC "-//W3C//DTD SVG 1.1//EN"
 "http://www.w3.org/Graphics/SVG/1.1/DTD/svg11.dtd">
<!-- Generated by graphviz version 14.1.4 (20260321.0153)
 -->
<!-- Title: Plugin Architecture Pages: 1 -->
<!--zoomable 219 -->

<svg id="main" version="1.1" xmlns="http://www.w3.org/2000/svg" xmlns:xlink="http://www.w3.org/1999/xlink" xml:space="preserve" onload="init(evt)">

<style type="text/css"><![CDATA[
.node, .edge {opacity: 0.7;}
.node.selected, .edge.selected {opacity: 1;}
.edge:hover path { stroke: red; }
.edge:hover polygon { stroke: red; fill: red; }
]]></style>

<defs>
  <circle id="rim" cx="0" cy="0" r="7"/>
  <circle id="rim2" cx="0" cy="0" r="3.5"/>
  <g id="zoomPlus">
    <use xlink:href="#rim" fill="#404040"><set attributeName="fill" to="#808080" begin="zoomplus.mouseover" end="zoomplus.mouseout"/></use>
    <path d="M-4,0h8M0,-4v8" fill="none" stroke="white" stroke-width="1.5" pointer-events="none"/>
  </g>
  <g id="zoomMin">
    <use xlink:href="#rim" fill="#404040"><set attributeName="fill" to="#808080" begin="zoomminus.mouseover" end="zoomminus.mouseout"/></use>
    <path d="M-4,0h8" fill="none" stroke="white" stroke-width="1.5" pointer-events="none"/>
  </g>
  <g id="arrowUp" transform="translate(30 24)">
    <use xlink:href="#rim"/>
    <path pointer-events="none" fill="none" stroke="white" stroke-width="1.5" d="M0,-3.0v7 M-2.5,-0.5L0,-3.0L2.5,-0.5"/>
  </g>
  <g id="arrowRight" transform="rotate(90) translate(36 -43)">
    <use xlink:href="#rim"/>
    <path pointer-events="none" fill="none" stroke="white" stroke-width="1.5" d="M0,-3.0v7 M-2.5,-0.5L0,-3.0L2.5,-0.5"/>
  </g>
  <g id="arrowDown" transform="rotate(180) translate(-30 -48)">
    <use xlink:href="#rim"/>
    <path pointer-events="none" fill="none" stroke="white" stroke-width="1.5" d="M0,-3.0v7 M-2.5,-0.5L0,-3.0L2.5,-0.5"/>
  </g>
  <g id="arrowLeft" transform="rotate(270) translate(-36 17)">
    <use xlink:href="#rim"/>
    <path pointer-events="none" fill="none" stroke="white" stroke-width="1.5" d="M0,-3.0v7 M-2.5,-0.5L0,-3.0L2.5,-0.5"/>
  </g>
  <g id="resetDef">
    <use xlink:href="#rim2" fill="#404040"><set attributeName="fill" to="#808080" begin="reset.mouseover" end="reset.mouseout"/></use>
  </g>
</defs>
<script type="application/ecmascript">
var viewWidth = 519;
var viewHeight = 219;
var sectionId = 'dynsection-0';
</script>
<script type="application/ecmascript" xlink:href="svg.min.js"/>
<svg id="graph" class="graph">
<g id="viewport">
<title>Plugin Architecture</title>
<!-- Node4 -->
<g id="Node000004" class="node">
<title>Node4</title>
<g id="a_Node000004"><a xlink:href="group___data_components.html" target="_top" xlink:title="Extends ImFusion::Data with custom information in a type&#45;safe fashion.">
<polygon fill="white" stroke="#666666" points="503.88,-203.25 397.88,-203.25 397.88,-184 503.88,-184 503.88,-203.25"/>
<text xml:space="preserve" text-anchor="middle" x="450.88" y="-189.75" font-family="Helvetica,sans-Serif" font-size="10.00">DataComponent API</text>
</a>
</g>
</g>
<!-- Node6 -->
<g id="Node000006" class="node">
<title>Node6</title>
<g id="a_Node000006"><a xlink:href="group___dicom_core_a_p_i.html" target="_top" xlink:title="Low&#45;level data structures for handling DICOM data.">
<polygon fill="white" stroke="#666666" points="500.88,-157.25 400.88,-157.25 400.88,-138 500.88,-138 500.88,-157.25"/>
<text xml:space="preserve" text-anchor="middle" x="450.88" y="-143.75" font-family="Helvetica,sans-Serif" font-size="10.00">Low&#45;level/Core API</text>
</a>
</g>
</g>
<!-- Node2 -->
<g id="Node000002" class="node">
<title>Node2</title>
<g id="a_Node000002"><a xlink:href="group___im_fusion_core.html" target="_top" xlink:title="Essential support library.">
<polygon fill="white" stroke="#666666" points="69.25,-111.25 0,-111.25 0,-92 69.25,-92 69.25,-111.25"/>
<text xml:space="preserve" text-anchor="middle" x="34.62" y="-97.75" font-family="Helvetica,sans-Serif" font-size="10.00">Core Library</text>
</a>
</g>
</g>
<!-- Node1 -->
<g id="Node000001" class="node">
<title>Node1</title>
<g id="a_Node000001"><a xlink:title="Infrastructure and functionality to dynamically extend application functionality via shared libraries...">
<polygon fill="#999999" stroke="#666666" points="204,-111.25 106.25,-111.25 106.25,-92 204,-92 204,-111.25"/>
<text xml:space="preserve" text-anchor="middle" x="155.12" y="-97.75" font-family="Helvetica,sans-Serif" font-size="10.00">Plugin Architecture</text>
</a>
</g>
</g>
<!-- Node2&#45;&gt;Node1 -->
<g id="edge1" class="edge">
<title>Node2&#45;&gt;Node1</title>
<path fill="none" stroke="black" d="M80.89,-101.62C89.12,-101.62 97.73,-101.62 106.03,-101.62"/>
<polygon fill="black" stroke="black" points="81.1,-98.13 71.1,-101.63 81.1,-105.13 81.1,-98.13"/>
</g>
<!-- Node7 -->
<g id="Node000007" class="node">
<title>Node7</title>
<g id="a_Node000007"><a xlink:href="group___im_fusion_reg_similarity_measures.html" target="_top" xlink:title="Similarity Measures.">
<polygon fill="white" stroke="#666666" points="502,-112.25 399.75,-112.25 399.75,-93 502,-93 502,-112.25"/>
<text xml:space="preserve" text-anchor="middle" x="450.88" y="-98.75" font-family="Helvetica,sans-Serif" font-size="10.00">Similarity Measures</text>
</a>
</g>
</g>
<!-- Node3 -->
<g id="Node000003" class="node">
<title>Node3</title>
<g id="a_Node000003"><a xlink:href="group___image_a_p_i.html" target="_top" xlink:title="Data structures and interfaces for working with image data.">
<polygon fill="white" stroke="#666666" points="475,-75.25 426.75,-75.25 426.75,-56 475,-56 475,-75.25"/>
<text xml:space="preserve" text-anchor="middle" x="450.88" y="-61.75" font-family="Helvetica,sans-Serif" font-size="10.00">Images</text>
</a>
</g>
</g>
<!-- Node1&#45;&gt;Node4 -->
<g id="edge3" class="edge">
<title>Node1&#45;&gt;Node4</title>
<path fill="none" stroke="orange" stroke-dasharray="5,2" d="M162.12,-111.65C172.22,-127.53 194.28,-158.03 222,-171.62 277.49,-198.84 349.64,-201.11 397.75,-198.7"/>
<text xml:space="preserve" text-anchor="middle" x="297.38" y="-201.18" font-family="Helvetica,sans-Serif" font-size="10.00">ImFusion::DataComponentFactory</text>
</g>
<!-- Node1&#45;&gt;Node6 -->
<g id="edge5" class="edge">
<title>Node1&#45;&gt;Node6</title>
<path fill="none" stroke="orange" stroke-dasharray="5,2" d="M179.17,-111.65C191.62,-116.65 207.4,-122.32 222,-125.62 282.47,-139.33 353.86,-144.5 400.41,-146.45"/>
<text xml:space="preserve" text-anchor="start" x="247.88" y="-157.72" font-family="Helvetica,sans-Serif" font-size="10.00">ImFusion::Dicom::IOD</text>
<text xml:space="preserve" text-anchor="middle" x="297.38" y="-146.47" font-family="Helvetica,sans-Serif" font-size="10.00">_Registry</text>
</g>
<!-- Node1&#45;&gt;Node7 -->
<g id="edge6" class="edge">
<title>Node1&#45;&gt;Node7</title>
<path fill="none" stroke="orange" stroke-dasharray="5,2" d="M204.3,-101.79C258.18,-101.97 345.03,-102.27 399.7,-102.45"/>
<text xml:space="preserve" text-anchor="start" x="235.12" y="-115.36" font-family="Helvetica,sans-Serif" font-size="10.00">ImFusion::SimilarityMeasure</text>
<text xml:space="preserve" text-anchor="middle" x="297.38" y="-104.11" font-family="Helvetica,sans-Serif" font-size="10.00">Factory</text>
</g>
<!-- Node1&#45;&gt;Node3 -->
<g id="edge2" class="edge">
<title>Node1&#45;&gt;Node3</title>
<path fill="none" stroke="orange" stroke-dasharray="5,2" d="M195.66,-91.55C204.3,-89.61 213.42,-87.75 222,-86.38 296.13,-74.48 385.01,-68.84 426.45,-66.7"/>
<text xml:space="preserve" text-anchor="middle" x="297.38" y="-88.12" font-family="Helvetica,sans-Serif" font-size="10.00">ImFusion::CustomImage</text>
</g>
<!-- Node5 -->
<g id="Node000005" class="node">
<title>Node5</title>
<g id="a_Node000005"><a xlink:href="group___visualization.html" target="_top" xlink:title=" ">
<polygon fill="white" stroke="#666666" points="511,-19.25 390.75,-19.25 390.75,0 511,0 511,-19.25"/>
<text xml:space="preserve" text-anchor="middle" x="450.88" y="-5.75" font-family="Helvetica,sans-Serif" font-size="10.00">Visualization and Views</text>
</a>
</g>
</g>
<!-- Node1&#45;&gt;Node5 -->
<g id="edge4" class="edge">
<title>Node1&#45;&gt;Node5</title>
<path fill="none" stroke="orange" stroke-dasharray="5,2" d="M162.34,-91.54C172.59,-75.9 194.67,-46.22 222,-32.88 274.89,-7.05 342.79,-3.32 390.66,-4.76"/>
<text xml:space="preserve" text-anchor="middle" x="297.38" y="-57.12" font-family="Helvetica,sans-Serif" font-size="10.00">ImFusion::RendererFactory</text>
<text xml:space="preserve" text-anchor="start" x="230.25" y="-45.88" font-family="Helvetica,sans-Serif" font-size="10.00">ImFusion::DataDisplayHandler</text>
<text xml:space="preserve" text-anchor="middle" x="297.38" y="-34.62" font-family="Helvetica,sans-Serif" font-size="10.00">Factory</text>
</g>
</g>
</svg>

<g id="navigator" transform="translate(0 0)" fill="#404254">
  <rect fill="#f2f5e9" fill-opacity="0.5" stroke="#606060" stroke-width=".5" x="0" y="0" width="60" height="60"/>
  <use id="zoomplus" xlink:href="#zoomPlus" x="17" y="9" onmousedown="handleZoom(evt,'in')"/>
  <use id="zoomminus" xlink:href="#zoomMin" x="42" y="9" onmousedown="handleZoom(evt,'out')"/>
  <use id="reset" xlink:href="#resetDef" x="30" y="36" onmousedown="handleReset()"/>
   <use id="arrowup" xlink:href="#arrowUp" x="0" y="0" onmousedown="handlePan(0,-1)"/>
  <use id="arrowright" xlink:href="#arrowRight" x="0" y="0" onmousedown="handlePan(1,0)"/>
  <use id="arrowdown" xlink:href="#arrowDown" x="0" y="0" onmousedown="handlePan(0,1)"/>
  <use id="arrowleft" xlink:href="#arrowLeft" x="0" y="0" onmousedown="handlePan(-1,0)"/>
</g>
<svg viewBox="0 0 15 15" width="100%" height="30px" preserveAspectRatio="xMaxYMin meet">
 <g id="arrow_out" transform="scale(0.3 0.3)">
  <a xlink:href="group___plugin_architecture_org.svg" target="_base">
   <rect id="button" ry="5" rx="5" y="6" x="6" height="38" width="38"
        fill="#f2f5e9" fill-opacity="0.5" stroke="#606060" stroke-width="1.0"/>
   <path id="arrow"
     d="M 11.500037,31.436501 C 11.940474,20.09759 22.043105,11.32322 32.158766,21.979434 L 37.068811,17.246167 C 37.068811,17.246167 37.088388,32 37.088388,32 L 22.160133,31.978069 C 22.160133,31.978069 26.997745,27.140456 26.997745,27.140456 C 18.528582,18.264221 13.291696,25.230495 11.500037,31.436501 z"
     style="fill:#404040;"/>
  </a>
 </g>
</svg>

<style type='text/css'>
<![CDATA[
[data-mouse-over-selected='false'] { opacity: 0.7; }
[data-mouse-over-selected='true']  { opacity: 1.0; }
]]>
</style>
<script type="application/ecmascript"><![CDATA[
document.addEventListener('DOMContentLoaded', (event) => {
  highlightEdges();
  highlightAdjacentNodes();
});
]]></script>
</svg>
