<?xml version="1.0" encoding="UTF-8" standalone="no"?>
<!DOCTYPE svg PUBLIC "-//W3C//DTD SVG 1.1//EN"
 "http://www.w3.org/Graphics/SVG/1.1/DTD/svg11.dtd">
<!-- Generated by graphviz version 14.1.4 (20260321.0153)
 -->
<!-- Title: Dicom Plugin Pages: 1 -->
<svg width="431pt" height="234pt"
 viewBox="0.00 0.00 431.00 234.00" xmlns="http://www.w3.org/2000/svg" xmlns:xlink="http://www.w3.org/1999/xlink">

<svg id="main" version="1.1" xmlns="http://www.w3.org/2000/svg" xmlns:xlink="http://www.w3.org/1999/xlink" xml:space="preserve">

<style type="text/css"><![CDATA[
.node, .edge {opacity: 0.7;}
.node.selected, .edge.selected {opacity: 1;}
.edge:hover path { stroke: red; }
.edge:hover polygon { stroke: red; fill: red; }
]]></style>
<script type="application/ecmascript" xlink:href="svg.min.js"/>
<svg id="graph" class="graph">
<g id="graph0" class="graph" transform="scale(1 1) rotate(0) translate(4 229.7)">
<title>Dicom Plugin</title>
<!-- Node8 -->
<g id="Node000008" class="node">
<title>Node8</title>
<g id="a_Node000008"><a xlink:href="group___annotations.html" target="_top" xlink:title="Augmenting visualizations with annotations.">
<polygon fill="white" stroke="#666666" points="400.38,-210.25 332.62,-210.25 332.62,-191 400.38,-191 400.38,-210.25"/>
<text xml:space="preserve" text-anchor="middle" x="366.5" y="-196.75" font-family="Helvetica,sans-Serif" font-size="10.00">Annotations</text>
</a>
</g>
</g>
<!-- Node7 -->
<g id="Node000007" class="node">
<title>Node7</title>
<g id="a_Node000007"><a xlink:href="group___dicom_core_a_p_i.html" target="_top" xlink:title="Low&#45;level data structures for handling DICOM data.">
<polygon fill="white" stroke="#666666" points="416.5,-170.25 316.5,-170.25 316.5,-151 416.5,-151 416.5,-170.25"/>
<text xml:space="preserve" text-anchor="middle" x="366.5" y="-156.75" font-family="Helvetica,sans-Serif" font-size="10.00">Low&#45;level/Core API</text>
</a>
</g>
</g>
<!-- Node3 -->
<g id="Node000003" class="node">
<title>Node3</title>
<g id="a_Node000003"><a xlink:href="group___dicom_data_components.html" target="_top" xlink:title="DICOM&#45;specific or related DataComponents.">
<polygon fill="white" stroke="#666666" points="412.75,-130.25 320.25,-130.25 320.25,-111 412.75,-111 412.75,-130.25"/>
<text xml:space="preserve" text-anchor="middle" x="366.5" y="-116.75" font-family="Helvetica,sans-Serif" font-size="10.00">DataComponents</text>
</a>
</g>
</g>
<!-- Node4 -->
<g id="Node000004" class="node">
<title>Node4</title>
<g id="a_Node000004"><a xlink:href="group___dicom_extensions.html" target="_top" xlink:title="Extending the default DICOM import/export with custom functionality.">
<polygon fill="white" stroke="#666666" points="398.88,-93.25 334.12,-93.25 334.12,-74 398.88,-74 398.88,-93.25"/>
<text xml:space="preserve" text-anchor="middle" x="366.5" y="-79.75" font-family="Helvetica,sans-Serif" font-size="10.00">Extensions</text>
</a>
</g>
</g>
<!-- Node5 -->
<g id="Node000005" class="node">
<title>Node5</title>
<g id="a_Node000005"><a xlink:href="group___dicom_g_u_i.html" target="_top" xlink:title="Qt GUI classes for DICOM data.">
<polygon fill="white" stroke="#666666" points="401.88,-56.25 331.12,-56.25 331.12,-37 401.88,-37 401.88,-56.25"/>
<text xml:space="preserve" text-anchor="middle" x="366.5" y="-42.75" font-family="Helvetica,sans-Serif" font-size="10.00">GUI classes</text>
</a>
</g>
</g>
<!-- Node6 -->
<g id="Node000006" class="node">
<title>Node6</title>
<g id="a_Node000006"><a xlink:href="group___dicom_intermediate_a_p_i.html" target="_top" xlink:title="Intermediate&#45;level API for loading/storing DICOM data.">
<polygon fill="white" stroke="#666666" points="422.5,-19.25 310.5,-19.25 310.5,0 422.5,0 422.5,-19.25"/>
<text xml:space="preserve" text-anchor="middle" x="366.5" y="-5.75" font-family="Helvetica,sans-Serif" font-size="10.00">Intermediate&#45;level API</text>
</a>
</g>
</g>
<!-- Node1 -->
<g id="Node000001" class="node">
<title>Node1</title>
<g id="a_Node000001"><a xlink:title="Plugin for handling DICOM data.">
<polygon fill="#999999" stroke="#666666" points="159.75,-118.25 85.25,-118.25 85.25,-99 159.75,-99 159.75,-118.25"/>
<text xml:space="preserve" text-anchor="middle" x="122.5" y="-104.75" font-family="Helvetica,sans-Serif" font-size="10.00">Dicom Plugin</text>
</a>
</g>
</g>
<!-- Node1&#45;&gt;Node8 -->
<g id="edge7" class="edge">
<title>Node1&#45;&gt;Node8</title>
<path fill="none" stroke="orange" stroke-dasharray="5,2" d="M128.39,-118.59C136.41,-133.74 153.86,-162.22 177.75,-175.62 226.36,-202.9 292.91,-205.01 332.33,-203.33"/>
<text xml:space="preserve" text-anchor="start" x="177.75" y="-216.2" font-family="Helvetica,sans-Serif" font-size="10.00">ImFusion::Dicom::Overlay</text>
<text xml:space="preserve" text-anchor="middle" x="235.12" y="-204.95" font-family="Helvetica,sans-Serif" font-size="10.00">Annotation</text>
</g>
<!-- Node1&#45;&gt;Node7 -->
<g id="edge6" class="edge">
<title>Node1&#45;&gt;Node7</title>
<path fill="none" stroke="black" d="M139.56,-126.84C149.47,-136.72 163.07,-148.02 177.75,-153.62 222.39,-170.68 277.42,-170.5 316.34,-167.24"/>
<polygon fill="black" stroke="black" points="142.32,-124.67 132.91,-119.81 137.24,-129.48 142.32,-124.67"/>
</g>
<!-- Node1&#45;&gt;Node7 -->
<g id="edge8" class="edge">
<title>Node1&#45;&gt;Node7</title>
<path fill="none" stroke="blueviolet" stroke-dasharray="5,2" d="M160.25,-116.19C166.1,-117.36 172.09,-118.54 177.75,-119.62 228.65,-129.39 241.98,-128.82 292.5,-140.38 305.45,-143.34 319.54,-147.11 331.86,-150.6"/>
<text xml:space="preserve" text-anchor="middle" x="235.12" y="-142.12" font-family="Helvetica,sans-Serif" font-size="10.00">ImFusion::Dicom</text>
</g>
<!-- Node1&#45;&gt;Node3 -->
<g id="edge2" class="edge">
<title>Node1&#45;&gt;Node3</title>
<path fill="none" stroke="black" d="M171.34,-111C214.51,-113.14 277.6,-116.27 320.03,-118.37"/>
<polygon fill="black" stroke="black" points="171.66,-107.51 161.5,-110.51 171.32,-114.5 171.66,-107.51"/>
</g>
<!-- Node1&#45;&gt;Node4 -->
<g id="edge3" class="edge">
<title>Node1&#45;&gt;Node4</title>
<path fill="none" stroke="black" d="M171.36,-103.68C219.49,-98.71 292.32,-91.19 333.74,-86.91"/>
<polygon fill="black" stroke="black" points="171.08,-100.19 161.5,-104.7 171.8,-107.15 171.08,-100.19"/>
</g>
<!-- Node1&#45;&gt;Node5 -->
<g id="edge4" class="edge">
<title>Node1&#45;&gt;Node5</title>
<path fill="none" stroke="black" d="M157.87,-94.4C164.41,-91.96 171.24,-89.58 177.75,-87.62 230.31,-71.82 292.84,-59.4 330.83,-52.54"/>
<polygon fill="black" stroke="black" points="156.73,-91.09 148.67,-97.97 159.26,-97.62 156.73,-91.09"/>
</g>
<!-- Node1&#45;&gt;Node6 -->
<g id="edge5" class="edge">
<title>Node1&#45;&gt;Node6</title>
<path fill="none" stroke="black" d="M138.56,-89.91C148.55,-78.69 162.58,-65 177.75,-56.62 218.93,-33.88 271.22,-21.95 310.15,-15.82"/>
<polygon fill="black" stroke="black" points="135.97,-87.55 132.16,-97.44 141.3,-92.09 135.97,-87.55"/>
</g>
<!-- Node2 -->
<g id="Node000002" class="node">
<title>Node2</title>
<g id="a_Node000002"><a xlink:href="group___im_fusion_plugins.html" target="_top" xlink:title="List of plugins shipped with this version of the SDK.">
<polygon fill="white" stroke="#666666" points="48.25,-118.25 0,-118.25 0,-99 48.25,-99 48.25,-118.25"/>
<text xml:space="preserve" text-anchor="middle" x="24.12" y="-104.75" font-family="Helvetica,sans-Serif" font-size="10.00">Plugins</text>
</a>
</g>
</g>
<!-- Node2&#45;&gt;Node1 -->
<g id="edge1" class="edge">
<title>Node2&#45;&gt;Node1</title>
<path fill="none" stroke="black" d="M59.84,-108.62C67.96,-108.62 76.64,-108.62 84.85,-108.62"/>
<polygon fill="black" stroke="black" points="59.97,-105.13 49.97,-108.63 59.97,-112.13 59.97,-105.13"/>
</g>
</g>
</svg>
</svg>

<style type='text/css'>
<![CDATA[
[data-mouse-over-selected='false'] { opacity: 0.7; }
[data-mouse-over-selected='true']  { opacity: 1.0; }
]]>
</style>
<script type="application/ecmascript"><![CDATA[
document.addEventListener('DOMContentLoaded', (event) => {
  highlightEdges();
  highlightAdjacentNodes();
});
]]></script>
</svg>
