<?xml version="1.0" encoding="UTF-8" standalone="no"?>
<!DOCTYPE svg PUBLIC "-//W3C//DTD SVG 1.1//EN"
 "http://www.w3.org/Graphics/SVG/1.1/DTD/svg11.dtd">
<!-- Generated by graphviz version 14.1.4 (20260321.0153)
 -->
<!-- Title: 2D Visualization Pages: 1 -->
<svg width="496pt" height="51pt"
 viewBox="0.00 0.00 496.00 51.00" xmlns="http://www.w3.org/2000/svg" xmlns:xlink="http://www.w3.org/1999/xlink">
<g id="graph0" class="graph" transform="scale(1 1) rotate(0) translate(4 47.38)">
<title>2D Visualization</title>
<!-- Node2 -->
<g id="Node000002" class="node">
<title>Node2</title>
<g id="a_Node000002"><a xlink:href="group___visualization.html" target="_top" xlink:title=" ">
<polygon fill="white" stroke="#666666" points="120.25,-19.25 0,-19.25 0,0 120.25,0 120.25,-19.25"/>
<text xml:space="preserve" text-anchor="middle" x="60.12" y="-5.75" font-family="Helvetica,sans-Serif" font-size="10.00">Visualization and Views</text>
</a>
</g>
</g>
<!-- Node1 -->
<g id="Node000001" class="node">
<title>Node1</title>
<g id="a_Node000001"><a xlink:title="Tools and classes for 2D visualization.">
<polygon fill="#999999" stroke="#666666" points="244.5,-19.25 157.25,-19.25 157.25,0 244.5,0 244.5,-19.25"/>
<text xml:space="preserve" text-anchor="middle" x="200.88" y="-5.75" font-family="Helvetica,sans-Serif" font-size="10.00">2D Visualization</text>
</a>
</g>
</g>
<!-- Node2&#45;&gt;Node1 -->
<g id="edge1" class="edge">
<title>Node2&#45;&gt;Node1</title>
<path fill="none" stroke="black" d="M131.62,-9.62C140.2,-9.62 148.76,-9.62 156.77,-9.62"/>
<polygon fill="black" stroke="black" points="131.88,-6.13 121.88,-9.63 131.88,-13.13 131.88,-6.13"/>
</g>
<!-- Node3 -->
<g id="Node000003" class="node">
<title>Node3</title>
<g id="a_Node000003"><a xlink:href="group___visualization3_d.html" target="_top" xlink:title="Tools and classes for 3D visualization.">
<polygon fill="white" stroke="#666666" points="487.75,-19.25 400.5,-19.25 400.5,0 487.75,0 487.75,-19.25"/>
<text xml:space="preserve" text-anchor="middle" x="444.12" y="-5.75" font-family="Helvetica,sans-Serif" font-size="10.00">3D Visualization</text>
</a>
</g>
</g>
<!-- Node1&#45;&gt;Node3 -->
<g id="edge2" class="edge">
<title>Node1&#45;&gt;Node3</title>
<path fill="none" stroke="orange" stroke-dasharray="5,2" d="M244.73,-9.62C288.6,-9.62 356.39,-9.62 400.27,-9.62"/>
<text xml:space="preserve" text-anchor="middle" x="322.5" y="-33.88" font-family="Helvetica,sans-Serif" font-size="10.00">ImFusion::TransferFunction</text>
<text xml:space="preserve" text-anchor="start" x="262.5" y="-22.62" font-family="Helvetica,sans-Serif" font-size="10.00">ImFusion::TransferFunction</text>
<text xml:space="preserve" text-anchor="middle" x="322.5" y="-11.38" font-family="Helvetica,sans-Serif" font-size="10.00">Factory</text>
</g>
</g>
</svg>
