<?xml version="1.0" encoding="UTF-8" standalone="no"?>
<!DOCTYPE svg PUBLIC "-//W3C//DTD SVG 1.1//EN"
 "http://www.w3.org/Graphics/SVG/1.1/DTD/svg11.dtd">
<!-- Generated by graphviz version 14.1.4 (20260321.0153)
 -->
<!-- Title: Plugins Pages: 1 -->
<svg width="198pt" height="101pt"
 viewBox="0.00 0.00 198.00 101.00" xmlns="http://www.w3.org/2000/svg" xmlns:xlink="http://www.w3.org/1999/xlink">

<svg id="main" version="1.1" xmlns="http://www.w3.org/2000/svg" xmlns:xlink="http://www.w3.org/1999/xlink" xml:space="preserve">

<style type="text/css"><![CDATA[
.node, .edge {opacity: 0.7;}
.node.selected, .edge.selected {opacity: 1;}
.edge:hover path { stroke: red; }
.edge:hover polygon { stroke: red; fill: red; }
]]></style>
<script type="application/ecmascript" xlink:href="svg.min.js"/>
<svg id="graph" class="graph">
<g id="graph0" class="graph" transform="scale(1 1) rotate(0) translate(4 97.25)">
<title>Plugins</title>
<!-- Node2 -->
<g id="Node000002" class="node">
<title>Node2</title>
<g id="a_Node000002"><a xlink:href="group___im_fusion_dicom.html" target="_top" xlink:title="Plugin for handling DICOM data.">
<polygon fill="white" stroke="#666666" points="174.5,-93.25 100,-93.25 100,-74 174.5,-74 174.5,-93.25"/>
<text xml:space="preserve" text-anchor="middle" x="137.25" y="-79.75" font-family="Helvetica,sans-Serif" font-size="10.00">Dicom Plugin</text>
</a>
</g>
</g>
<!-- Node1 -->
<g id="Node000001" class="node">
<title>Node1</title>
<g id="a_Node000001"><a xlink:title="List of plugins shipped with this version of the SDK.">
<polygon fill="#999999" stroke="#666666" points="48.25,-56.25 0,-56.25 0,-37 48.25,-37 48.25,-56.25"/>
<text xml:space="preserve" text-anchor="middle" x="24.12" y="-42.75" font-family="Helvetica,sans-Serif" font-size="10.00">Plugins</text>
</a>
</g>
</g>
<!-- Node1&#45;&gt;Node2 -->
<g id="edge1" class="edge">
<title>Node1&#45;&gt;Node2</title>
<path fill="none" stroke="black" d="M59.5,-58.07C74.35,-63.02 91.58,-68.75 105.95,-73.54"/>
<polygon fill="black" stroke="black" points="60.72,-54.79 50.13,-54.95 58.51,-61.43 60.72,-54.79"/>
</g>
<!-- Node3 -->
<g id="Node000003" class="node">
<title>Node3</title>
<g id="a_Node000003"><a xlink:href="group___im_fusion_reg.html" target="_top" xlink:title="Plugin providing functionality for registering medical images.">
<polygon fill="white" stroke="#666666" points="186.5,-56.25 88,-56.25 88,-37 186.5,-37 186.5,-56.25"/>
<text xml:space="preserve" text-anchor="middle" x="137.25" y="-42.75" font-family="Helvetica,sans-Serif" font-size="10.00">Registration Plugin</text>
</a>
</g>
</g>
<!-- Node1&#45;&gt;Node3 -->
<g id="edge2" class="edge">
<title>Node1&#45;&gt;Node3</title>
<path fill="none" stroke="black" d="M60.01,-46.62C68.75,-46.62 78.29,-46.62 87.56,-46.62"/>
<polygon fill="black" stroke="black" points="60.21,-43.13 50.21,-46.63 60.21,-50.13 60.21,-43.13"/>
</g>
<!-- Node4 -->
<g id="Node000004" class="node">
<title>Node4</title>
<g id="a_Node000004"><a xlink:href="group___im_fusion_seg.html" target="_top" xlink:title="Plugin providing functionality for manual and automatic segmentation of images.">
<polygon fill="white" stroke="#666666" points="190.25,-19.25 84.25,-19.25 84.25,0 190.25,0 190.25,-19.25"/>
<text xml:space="preserve" text-anchor="middle" x="137.25" y="-5.75" font-family="Helvetica,sans-Serif" font-size="10.00">Segmentation Plugin</text>
</a>
</g>
</g>
<!-- Node1&#45;&gt;Node4 -->
<g id="edge3" class="edge">
<title>Node1&#45;&gt;Node4</title>
<path fill="none" stroke="black" d="M59.5,-35.18C74.35,-30.23 91.58,-24.5 105.95,-19.71"/>
<polygon fill="black" stroke="black" points="58.51,-31.82 50.13,-38.3 60.72,-38.46 58.51,-31.82"/>
</g>
</g>
</svg>
</svg>

<style type='text/css'>
<![CDATA[
[data-mouse-over-selected='false'] { opacity: 0.7; }
[data-mouse-over-selected='true']  { opacity: 1.0; }
]]>
</style>
<script type="application/ecmascript"><![CDATA[
document.addEventListener('DOMContentLoaded', (event) => {
  highlightEdges();
  highlightAdjacentNodes();
});
]]></script>
</svg>
