<?xml version="1.0" encoding="UTF-8" standalone="no"?>
<!DOCTYPE svg PUBLIC "-//W3C//DTD SVG 1.1//EN"
 "http://www.w3.org/Graphics/SVG/1.1/DTD/svg11.dtd">
<!-- Generated by graphviz version 14.1.4 (20260321.0153)
 -->
<!-- Title: Plugin Architecture Pages: 1 -->
<svg width="519pt" height="219pt"
 viewBox="0.00 0.00 519.00 219.00" xmlns="http://www.w3.org/2000/svg" xmlns:xlink="http://www.w3.org/1999/xlink">
<g id="graph0" class="graph" transform="scale(1 1) rotate(0) translate(4 214.68)">
<title>Plugin Architecture</title>
<!-- Node4 -->
<g id="Node000004" class="node">
<title>Node4</title>
<g id="a_Node000004"><a xlink:href="group___data_components.html" target="_top" xlink:title="Extends ImFusion::Data with custom information in a type&#45;safe fashion.">
<polygon fill="white" stroke="#666666" points="503.88,-203.25 397.88,-203.25 397.88,-184 503.88,-184 503.88,-203.25"/>
<text xml:space="preserve" text-anchor="middle" x="450.88" y="-189.75" font-family="Helvetica,sans-Serif" font-size="10.00">DataComponent API</text>
</a>
</g>
</g>
<!-- Node6 -->
<g id="Node000006" class="node">
<title>Node6</title>
<g id="a_Node000006"><a xlink:href="group___dicom_core_a_p_i.html" target="_top" xlink:title="Low&#45;level data structures for handling DICOM data.">
<polygon fill="white" stroke="#666666" points="500.88,-157.25 400.88,-157.25 400.88,-138 500.88,-138 500.88,-157.25"/>
<text xml:space="preserve" text-anchor="middle" x="450.88" y="-143.75" font-family="Helvetica,sans-Serif" font-size="10.00">Low&#45;level/Core API</text>
</a>
</g>
</g>
<!-- Node2 -->
<g id="Node000002" class="node">
<title>Node2</title>
<g id="a_Node000002"><a xlink:href="group___im_fusion_core.html" target="_top" xlink:title="Essential support library.">
<polygon fill="white" stroke="#666666" points="69.25,-111.25 0,-111.25 0,-92 69.25,-92 69.25,-111.25"/>
<text xml:space="preserve" text-anchor="middle" x="34.62" y="-97.75" font-family="Helvetica,sans-Serif" font-size="10.00">Core Library</text>
</a>
</g>
</g>
<!-- Node1 -->
<g id="Node000001" class="node">
<title>Node1</title>
<g id="a_Node000001"><a xlink:title="Infrastructure and functionality to dynamically extend application functionality via shared libraries...">
<polygon fill="#999999" stroke="#666666" points="204,-111.25 106.25,-111.25 106.25,-92 204,-92 204,-111.25"/>
<text xml:space="preserve" text-anchor="middle" x="155.12" y="-97.75" font-family="Helvetica,sans-Serif" font-size="10.00">Plugin Architecture</text>
</a>
</g>
</g>
<!-- Node2&#45;&gt;Node1 -->
<g id="edge1" class="edge">
<title>Node2&#45;&gt;Node1</title>
<path fill="none" stroke="black" d="M80.89,-101.62C89.12,-101.62 97.73,-101.62 106.03,-101.62"/>
<polygon fill="black" stroke="black" points="81.1,-98.13 71.1,-101.63 81.1,-105.13 81.1,-98.13"/>
</g>
<!-- Node7 -->
<g id="Node000007" class="node">
<title>Node7</title>
<g id="a_Node000007"><a xlink:href="group___im_fusion_reg_similarity_measures.html" target="_top" xlink:title="Similarity Measures.">
<polygon fill="white" stroke="#666666" points="502,-112.25 399.75,-112.25 399.75,-93 502,-93 502,-112.25"/>
<text xml:space="preserve" text-anchor="middle" x="450.88" y="-98.75" font-family="Helvetica,sans-Serif" font-size="10.00">Similarity Measures</text>
</a>
</g>
</g>
<!-- Node3 -->
<g id="Node000003" class="node">
<title>Node3</title>
<g id="a_Node000003"><a xlink:href="group___image_a_p_i.html" target="_top" xlink:title="Data structures and interfaces for working with image data.">
<polygon fill="white" stroke="#666666" points="475,-75.25 426.75,-75.25 426.75,-56 475,-56 475,-75.25"/>
<text xml:space="preserve" text-anchor="middle" x="450.88" y="-61.75" font-family="Helvetica,sans-Serif" font-size="10.00">Images</text>
</a>
</g>
</g>
<!-- Node1&#45;&gt;Node4 -->
<g id="edge3" class="edge">
<title>Node1&#45;&gt;Node4</title>
<path fill="none" stroke="orange" stroke-dasharray="5,2" d="M162.12,-111.65C172.22,-127.53 194.28,-158.03 222,-171.62 277.49,-198.84 349.64,-201.11 397.75,-198.7"/>
<text xml:space="preserve" text-anchor="middle" x="297.38" y="-201.18" font-family="Helvetica,sans-Serif" font-size="10.00">ImFusion::DataComponentFactory</text>
</g>
<!-- Node1&#45;&gt;Node6 -->
<g id="edge5" class="edge">
<title>Node1&#45;&gt;Node6</title>
<path fill="none" stroke="orange" stroke-dasharray="5,2" d="M179.17,-111.65C191.62,-116.65 207.4,-122.32 222,-125.62 282.47,-139.33 353.86,-144.5 400.41,-146.45"/>
<text xml:space="preserve" text-anchor="start" x="247.88" y="-157.72" font-family="Helvetica,sans-Serif" font-size="10.00">ImFusion::Dicom::IOD</text>
<text xml:space="preserve" text-anchor="middle" x="297.38" y="-146.47" font-family="Helvetica,sans-Serif" font-size="10.00">_Registry</text>
</g>
<!-- Node1&#45;&gt;Node7 -->
<g id="edge6" class="edge">
<title>Node1&#45;&gt;Node7</title>
<path fill="none" stroke="orange" stroke-dasharray="5,2" d="M204.3,-101.79C258.18,-101.97 345.03,-102.27 399.7,-102.45"/>
<text xml:space="preserve" text-anchor="start" x="235.12" y="-115.36" font-family="Helvetica,sans-Serif" font-size="10.00">ImFusion::SimilarityMeasure</text>
<text xml:space="preserve" text-anchor="middle" x="297.38" y="-104.11" font-family="Helvetica,sans-Serif" font-size="10.00">Factory</text>
</g>
<!-- Node1&#45;&gt;Node3 -->
<g id="edge2" class="edge">
<title>Node1&#45;&gt;Node3</title>
<path fill="none" stroke="orange" stroke-dasharray="5,2" d="M195.66,-91.55C204.3,-89.61 213.42,-87.75 222,-86.38 296.13,-74.48 385.01,-68.84 426.45,-66.7"/>
<text xml:space="preserve" text-anchor="middle" x="297.38" y="-88.12" font-family="Helvetica,sans-Serif" font-size="10.00">ImFusion::CustomImage</text>
</g>
<!-- Node5 -->
<g id="Node000005" class="node">
<title>Node5</title>
<g id="a_Node000005"><a xlink:href="group___visualization.html" target="_top" xlink:title=" ">
<polygon fill="white" stroke="#666666" points="511,-19.25 390.75,-19.25 390.75,0 511,0 511,-19.25"/>
<text xml:space="preserve" text-anchor="middle" x="450.88" y="-5.75" font-family="Helvetica,sans-Serif" font-size="10.00">Visualization and Views</text>
</a>
</g>
</g>
<!-- Node1&#45;&gt;Node5 -->
<g id="edge4" class="edge">
<title>Node1&#45;&gt;Node5</title>
<path fill="none" stroke="orange" stroke-dasharray="5,2" d="M162.34,-91.54C172.59,-75.9 194.67,-46.22 222,-32.88 274.89,-7.05 342.79,-3.32 390.66,-4.76"/>
<text xml:space="preserve" text-anchor="middle" x="297.38" y="-57.12" font-family="Helvetica,sans-Serif" font-size="10.00">ImFusion::RendererFactory</text>
<text xml:space="preserve" text-anchor="start" x="230.25" y="-45.88" font-family="Helvetica,sans-Serif" font-size="10.00">ImFusion::DataDisplayHandler</text>
<text xml:space="preserve" text-anchor="middle" x="297.38" y="-34.62" font-family="Helvetica,sans-Serif" font-size="10.00">Factory</text>
</g>
</g>
</svg>
