<?xml version="1.0" encoding="UTF-8" standalone="no"?>
<!DOCTYPE svg PUBLIC "-//W3C//DTD SVG 1.1//EN"
 "http://www.w3.org/Graphics/SVG/1.1/DTD/svg11.dtd">
<!-- Generated by graphviz version 14.1.4 (20260321.0153)
 -->
<!-- Title: OpenGL Wrapper Library Pages: 1 -->
<svg width="276pt" height="249pt"
 viewBox="0.00 0.00 276.00 249.00" xmlns="http://www.w3.org/2000/svg" xmlns:xlink="http://www.w3.org/1999/xlink">
<g id="graph0" class="graph" transform="scale(1 1) rotate(0) translate(4 245.25)">
<title>OpenGL Wrapper Library</title>
<!-- Node1 -->
<g id="Node000001" class="node">
<title>Node1</title>
<g id="a_Node000001"><a xlink:title="Low&#45;level OpenGL Wrappers.">
<polygon fill="#999999" stroke="#666666" points="122.5,-130.25 0,-130.25 0,-111 122.5,-111 122.5,-130.25"/>
<text xml:space="preserve" text-anchor="middle" x="61.25" y="-116.75" font-family="Helvetica,sans-Serif" font-size="10.00">OpenGL Wrapper Library</text>
</a>
</g>
</g>
<!-- Node2 -->
<g id="Node000002" class="node">
<title>Node2</title>
<g id="a_Node000002"><a xlink:href="group___im_fusion_g_l_buffers.html" target="_top" xlink:title="Interfaces and wrapper classes for working with OpenGL buffers.">
<polygon fill="white" stroke="#666666" points="237.12,-241.25 189.62,-241.25 189.62,-222 237.12,-222 237.12,-241.25"/>
<text xml:space="preserve" text-anchor="middle" x="213.38" y="-227.75" font-family="Helvetica,sans-Serif" font-size="10.00">Buffers</text>
</a>
</g>
</g>
<!-- Node1&#45;&gt;Node2 -->
<g id="edge1" class="edge">
<title>Node1&#45;&gt;Node2</title>
<path fill="none" stroke="black" d="M77.15,-139.38C94.62,-160.21 125.4,-193.54 158.5,-213.62 167.94,-219.35 179.44,-223.52 189.38,-226.38"/>
<polygon fill="black" stroke="black" points="79.91,-137.21 70.86,-131.69 74.49,-141.65 79.91,-137.21"/>
</g>
<!-- Node3 -->
<g id="Node000003" class="node">
<title>Node3</title>
<g id="a_Node000003"><a xlink:href="group___im_fusion_g_l_context.html" target="_top" xlink:title="Interfaces and wrapper classes for managing OpenGL contexts.">
<polygon fill="white" stroke="#666666" points="268.25,-204.25 158.5,-204.25 158.5,-185 268.25,-185 268.25,-204.25"/>
<text xml:space="preserve" text-anchor="middle" x="213.38" y="-190.75" font-family="Helvetica,sans-Serif" font-size="10.00">Context management</text>
</a>
</g>
</g>
<!-- Node1&#45;&gt;Node3 -->
<g id="edge2" class="edge">
<title>Node1&#45;&gt;Node3</title>
<path fill="none" stroke="black" d="M86.72,-136.75C105.74,-148.81 133.08,-165.13 158.5,-176.62 164.88,-179.51 171.86,-182.18 178.63,-184.53"/>
<polygon fill="black" stroke="black" points="88.65,-133.82 78.35,-131.36 84.87,-139.71 88.65,-133.82"/>
</g>
<!-- Node4 -->
<g id="Node000004" class="node">
<title>Node4</title>
<g id="a_Node000004"><a xlink:href="group___im_fusion_g_l_debug.html" target="_top" xlink:title="Access to OpenGL Debug context facilities.">
<polygon fill="white" stroke="#666666" points="244.62,-167.25 182.12,-167.25 182.12,-148 244.62,-148 244.62,-167.25"/>
<text xml:space="preserve" text-anchor="middle" x="213.38" y="-153.75" font-family="Helvetica,sans-Serif" font-size="10.00">Debugging</text>
</a>
</g>
</g>
<!-- Node1&#45;&gt;Node4 -->
<g id="edge3" class="edge">
<title>Node1&#45;&gt;Node4</title>
<path fill="none" stroke="black" d="M114.39,-133.48C136.92,-139.03 162.51,-145.33 181.88,-150.11"/>
<polygon fill="black" stroke="black" points="115.29,-130.09 104.74,-131.1 113.61,-136.89 115.29,-130.09"/>
</g>
<!-- Node6 -->
<g id="Node000006" class="node">
<title>Node6</title>
<g id="a_Node000006"><a xlink:href="group___im_fusion_g_l_renderers.html" target="_top" xlink:title="High&#45;level classes for Rendering.">
<polygon fill="white" stroke="#666666" points="267.12,-130.25 159.62,-130.25 159.62,-111 267.12,-111 267.12,-130.25"/>
<text xml:space="preserve" text-anchor="middle" x="213.38" y="-116.75" font-family="Helvetica,sans-Serif" font-size="10.00">High&#45;level Renderers</text>
</a>
</g>
</g>
<!-- Node1&#45;&gt;Node6 -->
<g id="edge5" class="edge">
<title>Node1&#45;&gt;Node6</title>
<path fill="none" stroke="black" d="M134.28,-120.62C142.7,-120.62 151.16,-120.62 159.25,-120.62"/>
<polygon fill="black" stroke="black" points="134.39,-117.13 124.39,-120.63 134.39,-124.13 134.39,-117.13"/>
</g>
<!-- Node5 -->
<g id="Node000005" class="node">
<title>Node5</title>
<g id="a_Node000005"><a xlink:href="group___im_fusion_g_l_shaders.html" target="_top" xlink:title="Interfaces and wrapper classes for working with OpenGL/GLSL shaders.">
<polygon fill="white" stroke="#666666" points="252.88,-93.25 173.88,-93.25 173.88,-74 252.88,-74 252.88,-93.25"/>
<text xml:space="preserve" text-anchor="middle" x="213.38" y="-79.75" font-family="Helvetica,sans-Serif" font-size="10.00">GLSL Shaders</text>
</a>
</g>
</g>
<!-- Node1&#45;&gt;Node5 -->
<g id="edge4" class="edge">
<title>Node1&#45;&gt;Node5</title>
<path fill="none" stroke="black" d="M114.39,-107.77C133.79,-102.99 155.46,-97.65 173.47,-93.21"/>
<polygon fill="black" stroke="black" points="113.61,-104.36 104.74,-110.15 115.29,-111.16 113.61,-104.36"/>
</g>
<!-- Node7 -->
<g id="Node000007" class="node">
<title>Node7</title>
<g id="a_Node000007"><a xlink:href="group___im_fusion_g_l_textures.html" target="_top" xlink:title="Interfaces and wrapper classes for working with OpenGL textures/images.">
<polygon fill="white" stroke="#666666" points="267.12,-56.25 159.62,-56.25 159.62,-37 267.12,-37 267.12,-56.25"/>
<text xml:space="preserve" text-anchor="middle" x="213.38" y="-42.75" font-family="Helvetica,sans-Serif" font-size="10.00">Texture management</text>
</a>
</g>
</g>
<!-- Node1&#45;&gt;Node7 -->
<g id="edge6" class="edge">
<title>Node1&#45;&gt;Node7</title>
<path fill="none" stroke="black" d="M86.72,-104.5C105.74,-92.44 133.08,-76.12 158.5,-64.62 164.88,-61.74 171.86,-59.07 178.63,-56.72"/>
<polygon fill="black" stroke="black" points="84.87,-101.54 78.35,-109.89 88.65,-107.43 84.87,-101.54"/>
</g>
<!-- Node8 -->
<g id="Node000008" class="node">
<title>Node8</title>
<g id="a_Node000008"><a xlink:href="group___im_fusion_g_l_utils.html" target="_top" xlink:title="Helper classes and functions for working with OpenGL.">
<polygon fill="white" stroke="#666666" points="237.88,-19.25 188.88,-19.25 188.88,0 237.88,0 237.88,-19.25"/>
<text xml:space="preserve" text-anchor="middle" x="213.38" y="-5.75" font-family="Helvetica,sans-Serif" font-size="10.00">Utilities</text>
</a>
</g>
</g>
<!-- Node1&#45;&gt;Node8 -->
<g id="edge7" class="edge">
<title>Node1&#45;&gt;Node8</title>
<path fill="none" stroke="black" d="M77.15,-101.87C94.62,-81.04 125.4,-47.71 158.5,-27.62 167.69,-22.05 178.82,-17.96 188.57,-15.1"/>
<polygon fill="black" stroke="black" points="74.49,-99.6 70.86,-109.56 79.91,-104.04 74.49,-99.6"/>
</g>
</g>
</svg>
