<?xml version="1.0" encoding="UTF-8" standalone="no"?>
<!DOCTYPE svg PUBLIC "-//W3C//DTD SVG 1.1//EN"
 "http://www.w3.org/Graphics/SVG/1.1/DTD/svg11.dtd">
<!-- Generated by graphviz version 14.1.4 (20260321.0153)
 -->
<!-- Title: Interactions Pages: 1 -->
<svg width="482pt" height="29pt"
 viewBox="0.00 0.00 482.00 29.00" xmlns="http://www.w3.org/2000/svg" xmlns:xlink="http://www.w3.org/1999/xlink">
<g id="graph0" class="graph" transform="scale(1 1) rotate(0) translate(4 24.88)">
<title>Interactions</title>
<!-- Node1 -->
<g id="Node000001" class="node">
<title>Node1</title>
<g id="a_Node000001"><a xlink:title="User interaction with views and overlays.">
<polygon fill="#999999" stroke="#666666" points="224.25,-19.25 157.25,-19.25 157.25,0 224.25,0 224.25,-19.25"/>
<text xml:space="preserve" text-anchor="middle" x="190.75" y="-5.75" font-family="Helvetica,sans-Serif" font-size="10.00">Interactions</text>
</a>
</g>
</g>
<!-- Node3 -->
<g id="Node000003" class="node">
<title>Node3</title>
<g id="a_Node000003"><a xlink:href="group___visualization3_d.html" target="_top" xlink:title="Tools and classes for 3D visualization.">
<polygon fill="white" stroke="#666666" points="474.25,-19.25 387,-19.25 387,0 474.25,0 474.25,-19.25"/>
<text xml:space="preserve" text-anchor="middle" x="430.62" y="-5.75" font-family="Helvetica,sans-Serif" font-size="10.00">3D Visualization</text>
</a>
</g>
</g>
<!-- Node1&#45;&gt;Node3 -->
<g id="edge2" class="edge">
<title>Node1&#45;&gt;Node3</title>
<path fill="none" stroke="orange" stroke-dasharray="5,2" d="M224.33,-9.62C266.44,-9.62 339.91,-9.62 386.59,-9.62"/>
<text xml:space="preserve" text-anchor="middle" x="305.62" y="-11.38" font-family="Helvetica,sans-Serif" font-size="10.00">ImFusion::InteractionView3D</text>
</g>
<!-- Node2 -->
<g id="Node000002" class="node">
<title>Node2</title>
<g id="a_Node000002"><a xlink:href="group___visualization.html" target="_top" xlink:title=" ">
<polygon fill="white" stroke="#666666" points="120.25,-19.25 0,-19.25 0,0 120.25,0 120.25,-19.25"/>
<text xml:space="preserve" text-anchor="middle" x="60.12" y="-5.75" font-family="Helvetica,sans-Serif" font-size="10.00">Visualization and Views</text>
</a>
</g>
</g>
<!-- Node2&#45;&gt;Node1 -->
<g id="edge1" class="edge">
<title>Node2&#45;&gt;Node1</title>
<path fill="none" stroke="black" d="M131.99,-9.62C140.67,-9.62 149.19,-9.62 156.9,-9.62"/>
<polygon fill="black" stroke="black" points="132.06,-6.13 122.06,-9.63 132.06,-13.13 132.06,-6.13"/>
</g>
</g>
</svg>
