<?xml version="1.0" encoding="UTF-8" standalone="no"?>
<!DOCTYPE svg PUBLIC "-//W3C//DTD SVG 1.1//EN"
 "http://www.w3.org/Graphics/SVG/1.1/DTD/svg11.dtd">
<!-- Generated by graphviz version 14.1.4 (20260321.0153)
 -->
<!-- Title: 3D Visualization Pages: 1 -->
<svg width="503pt" height="84pt"
 viewBox="0.00 0.00 503.00 84.00" xmlns="http://www.w3.org/2000/svg" xmlns:xlink="http://www.w3.org/1999/xlink">
<g id="graph0" class="graph" transform="scale(1 1) rotate(0) translate(4 80.25)">
<title>3D Visualization</title>
<!-- Node4 -->
<g id="Node000004" class="node">
<title>Node4</title>
<g id="a_Node000004"><a xlink:href="group___interactions.html" target="_top" xlink:title="User interaction with views and overlays.">
<polygon fill="white" stroke="#666666" points="484.38,-76.25 417.38,-76.25 417.38,-57 484.38,-57 484.38,-76.25"/>
<text xml:space="preserve" text-anchor="middle" x="450.88" y="-62.75" font-family="Helvetica,sans-Serif" font-size="10.00">Interactions</text>
</a>
</g>
</g>
<!-- Node2 -->
<g id="Node000002" class="node">
<title>Node2</title>
<g id="a_Node000002"><a xlink:href="group___visualization.html" target="_top" xlink:title=" ">
<polygon fill="white" stroke="#666666" points="120.25,-47.25 0,-47.25 0,-28 120.25,-28 120.25,-47.25"/>
<text xml:space="preserve" text-anchor="middle" x="60.12" y="-33.75" font-family="Helvetica,sans-Serif" font-size="10.00">Visualization and Views</text>
</a>
</g>
</g>
<!-- Node1 -->
<g id="Node000001" class="node">
<title>Node1</title>
<g id="a_Node000001"><a xlink:title="Tools and classes for 3D visualization.">
<polygon fill="#999999" stroke="#666666" points="244.5,-47.25 157.25,-47.25 157.25,-28 244.5,-28 244.5,-47.25"/>
<text xml:space="preserve" text-anchor="middle" x="200.88" y="-33.75" font-family="Helvetica,sans-Serif" font-size="10.00">3D Visualization</text>
</a>
</g>
</g>
<!-- Node2&#45;&gt;Node1 -->
<g id="edge1" class="edge">
<title>Node2&#45;&gt;Node1</title>
<path fill="none" stroke="black" d="M131.62,-37.62C140.2,-37.62 148.76,-37.62 156.77,-37.62"/>
<polygon fill="black" stroke="black" points="131.88,-34.13 121.88,-37.63 131.88,-41.13 131.88,-34.13"/>
</g>
<!-- Node3 -->
<g id="Node000003" class="node">
<title>Node3</title>
<g id="a_Node000003"><a xlink:href="group___visualization2_d.html" target="_top" xlink:title="Tools and classes for 2D visualization.">
<polygon fill="white" stroke="#666666" points="494.5,-19.25 407.25,-19.25 407.25,0 494.5,0 494.5,-19.25"/>
<text xml:space="preserve" text-anchor="middle" x="450.88" y="-5.75" font-family="Helvetica,sans-Serif" font-size="10.00">2D Visualization</text>
</a>
</g>
</g>
<!-- Node1&#45;&gt;Node4 -->
<g id="edge3" class="edge">
<title>Node1&#45;&gt;Node4</title>
<path fill="none" stroke="orange" stroke-dasharray="5,2" d="M244.79,-42.64C293.73,-48.37 372.67,-57.6 416.98,-62.78"/>
<text xml:space="preserve" text-anchor="middle" x="325.88" y="-60.6" font-family="Helvetica,sans-Serif" font-size="10.00">ImFusion::InteractionView3D</text>
</g>
<!-- Node1&#45;&gt;Node3 -->
<g id="edge2" class="edge">
<title>Node1&#45;&gt;Node3</title>
<path fill="none" stroke="orange" stroke-dasharray="5,2" d="M219.53,-27.53C231.29,-21.39 247.31,-14.13 262.5,-10.88 311.17,-0.45 368.59,-2.04 406.92,-5"/>
<text xml:space="preserve" text-anchor="middle" x="325.88" y="-35.12" font-family="Helvetica,sans-Serif" font-size="10.00">ImFusion::TransferFunction</text>
<text xml:space="preserve" text-anchor="start" x="265.88" y="-23.88" font-family="Helvetica,sans-Serif" font-size="10.00">ImFusion::TransferFunction</text>
<text xml:space="preserve" text-anchor="middle" x="325.88" y="-12.62" font-family="Helvetica,sans-Serif" font-size="10.00">Factory</text>
</g>
</g>
</svg>
