<?xml version="1.0" encoding="UTF-8" standalone="no"?>
<!DOCTYPE svg PUBLIC "-//W3C//DTD SVG 1.1//EN"
 "http://www.w3.org/Graphics/SVG/1.1/DTD/svg11.dtd">
<!-- Generated by graphviz version 14.1.4 (20260321.0153)
 -->
<!-- Title: Visualization and Views Pages: 1 -->
<!--zoomable 185 -->

<svg id="main" version="1.1" xmlns="http://www.w3.org/2000/svg" xmlns:xlink="http://www.w3.org/1999/xlink" xml:space="preserve" onload="init(evt)">

<style type="text/css"><![CDATA[
.node, .edge {opacity: 0.7;}
.node.selected, .edge.selected {opacity: 1;}
.edge:hover path { stroke: red; }
.edge:hover polygon { stroke: red; fill: red; }
]]></style>

<defs>
  <circle id="rim" cx="0" cy="0" r="7"/>
  <circle id="rim2" cx="0" cy="0" r="3.5"/>
  <g id="zoomPlus">
    <use xlink:href="#rim" fill="#404040"><set attributeName="fill" to="#808080" begin="zoomplus.mouseover" end="zoomplus.mouseout"/></use>
    <path d="M-4,0h8M0,-4v8" fill="none" stroke="white" stroke-width="1.5" pointer-events="none"/>
  </g>
  <g id="zoomMin">
    <use xlink:href="#rim" fill="#404040"><set attributeName="fill" to="#808080" begin="zoomminus.mouseover" end="zoomminus.mouseout"/></use>
    <path d="M-4,0h8" fill="none" stroke="white" stroke-width="1.5" pointer-events="none"/>
  </g>
  <g id="arrowUp" transform="translate(30 24)">
    <use xlink:href="#rim"/>
    <path pointer-events="none" fill="none" stroke="white" stroke-width="1.5" d="M0,-3.0v7 M-2.5,-0.5L0,-3.0L2.5,-0.5"/>
  </g>
  <g id="arrowRight" transform="rotate(90) translate(36 -43)">
    <use xlink:href="#rim"/>
    <path pointer-events="none" fill="none" stroke="white" stroke-width="1.5" d="M0,-3.0v7 M-2.5,-0.5L0,-3.0L2.5,-0.5"/>
  </g>
  <g id="arrowDown" transform="rotate(180) translate(-30 -48)">
    <use xlink:href="#rim"/>
    <path pointer-events="none" fill="none" stroke="white" stroke-width="1.5" d="M0,-3.0v7 M-2.5,-0.5L0,-3.0L2.5,-0.5"/>
  </g>
  <g id="arrowLeft" transform="rotate(270) translate(-36 17)">
    <use xlink:href="#rim"/>
    <path pointer-events="none" fill="none" stroke="white" stroke-width="1.5" d="M0,-3.0v7 M-2.5,-0.5L0,-3.0L2.5,-0.5"/>
  </g>
  <g id="resetDef">
    <use xlink:href="#rim2" fill="#404040"><set attributeName="fill" to="#808080" begin="reset.mouseover" end="reset.mouseout"/></use>
  </g>
</defs>
<script type="application/ecmascript">
var viewWidth = 504;
var viewHeight = 185;
var sectionId = 'dynsection-0';
</script>
<script type="application/ecmascript" xlink:href="svg.min.js"/>
<svg id="graph" class="graph">
<g id="viewport">
<title>Visualization and Views</title>
<!-- Node5 -->
<g id="Node000005" class="node">
<title>Node5</title>
<g id="a_Node000005"><a xlink:href="group___annotations.html" target="_top" xlink:title="Augmenting visualizations with annotations.">
<polygon fill="white" stroke="#666666" points="481,-177.25 413.25,-177.25 413.25,-158 481,-158 481,-177.25"/>
<text xml:space="preserve" text-anchor="middle" x="447.12" y="-163.75" font-family="Helvetica,sans-Serif" font-size="10.00">Annotations</text>
</a>
</g>
</g>
<!-- Node2 -->
<g id="Node000002" class="node">
<title>Node2</title>
<g id="a_Node000002"><a xlink:href="group___im_fusion_lib.html" target="_top" xlink:title="General infrastructure for the development of (medical) imaging algorithms and software.">
<polygon fill="white" stroke="#666666" points="70.75,-91.25 0,-91.25 0,-72 70.75,-72 70.75,-91.25"/>
<text xml:space="preserve" text-anchor="middle" x="35.38" y="-77.75" font-family="Helvetica,sans-Serif" font-size="10.00">Base Library</text>
</a>
</g>
</g>
<!-- Node1 -->
<g id="Node000001" class="node">
<title>Node1</title>
<g id="a_Node000001"><a xlink:title=" ">
<polygon fill="#999999" stroke="#666666" points="228,-91.25 107.75,-91.25 107.75,-72 228,-72 228,-91.25"/>
<text xml:space="preserve" text-anchor="middle" x="167.88" y="-77.75" font-family="Helvetica,sans-Serif" font-size="10.00">Visualization and Views</text>
</a>
</g>
</g>
<!-- Node2&#45;&gt;Node1 -->
<g id="edge1" class="edge">
<title>Node2&#45;&gt;Node1</title>
<path fill="none" stroke="black" d="M82.44,-81.62C90.5,-81.62 98.99,-81.62 107.35,-81.62"/>
<polygon fill="black" stroke="black" points="82.52,-78.13 72.52,-81.63 82.52,-85.13 82.52,-78.13"/>
</g>
<!-- Node6 -->
<g id="Node000006" class="node">
<title>Node6</title>
<g id="a_Node000006"><a xlink:href="group___interactions.html" target="_top" xlink:title="User interaction with views and overlays.">
<polygon fill="white" stroke="#666666" points="480.62,-140.25 413.62,-140.25 413.62,-121 480.62,-121 480.62,-140.25"/>
<text xml:space="preserve" text-anchor="middle" x="447.12" y="-126.75" font-family="Helvetica,sans-Serif" font-size="10.00">Interactions</text>
</a>
</g>
</g>
<!-- Node7 -->
<g id="Node000007" class="node">
<title>Node7</title>
<g id="a_Node000007"><a xlink:href="group___plugin_architecture.html" target="_top" xlink:title="Infrastructure and functionality to dynamically extend application functionality via shared libraries...">
<polygon fill="white" stroke="#666666" points="496,-93.25 398.25,-93.25 398.25,-74 496,-74 496,-93.25"/>
<text xml:space="preserve" text-anchor="middle" x="447.12" y="-79.75" font-family="Helvetica,sans-Serif" font-size="10.00">Plugin Architecture</text>
</a>
</g>
</g>
<!-- Node1&#45;&gt;Node5 -->
<g id="edge4" class="edge">
<title>Node1&#45;&gt;Node5</title>
<path fill="none" stroke="black" d="M186.98,-99.1C201.67,-112.2 223.56,-129.39 246,-138.62 301.52,-161.46 372.16,-166.73 412.95,-167.71"/>
<polygon fill="black" stroke="black" points="189.66,-96.81 179.94,-92.61 184.92,-101.96 189.66,-96.81"/>
</g>
<!-- Node1&#45;&gt;Node6 -->
<g id="edge5" class="edge">
<title>Node1&#45;&gt;Node6</title>
<path fill="none" stroke="black" d="M196.45,-97.04C210.78,-104.29 228.85,-112.28 246,-116.62 303.57,-131.2 373.22,-132.57 413.33,-131.86"/>
<polygon fill="black" stroke="black" points="198.11,-93.96 187.63,-92.41 194.86,-100.16 198.11,-93.96"/>
</g>
<!-- Node1&#45;&gt;Node7 -->
<g id="edge6" class="edge">
<title>Node1&#45;&gt;Node7</title>
<path fill="none" stroke="orange" stroke-dasharray="5,2" d="M228.1,-81.89C270.48,-82.1 328.88,-82.43 380.25,-82.88 385.97,-82.92 391.97,-82.98 397.92,-83.05"/>
<text xml:space="preserve" text-anchor="middle" x="313.12" y="-107.12" font-family="Helvetica,sans-Serif" font-size="10.00">ImFusion::RendererFactory</text>
<text xml:space="preserve" text-anchor="start" x="246" y="-95.88" font-family="Helvetica,sans-Serif" font-size="10.00">ImFusion::DataDisplayHandler</text>
<text xml:space="preserve" text-anchor="middle" x="313.12" y="-84.62" font-family="Helvetica,sans-Serif" font-size="10.00">Factory</text>
</g>
<!-- Node3 -->
<g id="Node000003" class="node">
<title>Node3</title>
<g id="a_Node000003"><a xlink:href="group___visualization2_d.html" target="_top" xlink:title="Tools and classes for 2D visualization.">
<polygon fill="white" stroke="#666666" points="490.75,-56.25 403.5,-56.25 403.5,-37 490.75,-37 490.75,-56.25"/>
<text xml:space="preserve" text-anchor="middle" x="447.12" y="-42.75" font-family="Helvetica,sans-Serif" font-size="10.00">2D Visualization</text>
</a>
</g>
</g>
<!-- Node1&#45;&gt;Node3 -->
<g id="edge2" class="edge">
<title>Node1&#45;&gt;Node3</title>
<path fill="none" stroke="black" d="M239.75,-72.68C291.31,-66.17 359.45,-57.57 403.04,-52.06"/>
<polygon fill="black" stroke="black" points="239.34,-69.2 229.85,-73.93 240.21,-76.15 239.34,-69.2"/>
</g>
<!-- Node4 -->
<g id="Node000004" class="node">
<title>Node4</title>
<g id="a_Node000004"><a xlink:href="group___visualization3_d.html" target="_top" xlink:title="Tools and classes for 3D visualization.">
<polygon fill="white" stroke="#666666" points="490.75,-19.25 403.5,-19.25 403.5,0 490.75,0 490.75,-19.25"/>
<text xml:space="preserve" text-anchor="middle" x="447.12" y="-5.75" font-family="Helvetica,sans-Serif" font-size="10.00">3D Visualization</text>
</a>
</g>
</g>
<!-- Node1&#45;&gt;Node4 -->
<g id="edge3" class="edge">
<title>Node1&#45;&gt;Node4</title>
<path fill="none" stroke="black" d="M201.1,-67.16C214.75,-61.43 230.95,-55.15 246,-50.62 299.15,-34.64 362.11,-22.88 403.02,-16.15"/>
<polygon fill="black" stroke="black" points="199.97,-63.84 192.16,-71 202.73,-70.27 199.97,-63.84"/>
</g>
</g>
</svg>

<g id="navigator" transform="translate(0 0)" fill="#404254">
  <rect fill="#f2f5e9" fill-opacity="0.5" stroke="#606060" stroke-width=".5" x="0" y="0" width="60" height="60"/>
  <use id="zoomplus" xlink:href="#zoomPlus" x="17" y="9" onmousedown="handleZoom(evt,'in')"/>
  <use id="zoomminus" xlink:href="#zoomMin" x="42" y="9" onmousedown="handleZoom(evt,'out')"/>
  <use id="reset" xlink:href="#resetDef" x="30" y="36" onmousedown="handleReset()"/>
   <use id="arrowup" xlink:href="#arrowUp" x="0" y="0" onmousedown="handlePan(0,-1)"/>
  <use id="arrowright" xlink:href="#arrowRight" x="0" y="0" onmousedown="handlePan(1,0)"/>
  <use id="arrowdown" xlink:href="#arrowDown" x="0" y="0" onmousedown="handlePan(0,1)"/>
  <use id="arrowleft" xlink:href="#arrowLeft" x="0" y="0" onmousedown="handlePan(-1,0)"/>
</g>
<svg viewBox="0 0 15 15" width="100%" height="30px" preserveAspectRatio="xMaxYMin meet">
 <g id="arrow_out" transform="scale(0.3 0.3)">
  <a xlink:href="group___visualization_org.svg" target="_base">
   <rect id="button" ry="5" rx="5" y="6" x="6" height="38" width="38"
        fill="#f2f5e9" fill-opacity="0.5" stroke="#606060" stroke-width="1.0"/>
   <path id="arrow"
     d="M 11.500037,31.436501 C 11.940474,20.09759 22.043105,11.32322 32.158766,21.979434 L 37.068811,17.246167 C 37.068811,17.246167 37.088388,32 37.088388,32 L 22.160133,31.978069 C 22.160133,31.978069 26.997745,27.140456 26.997745,27.140456 C 18.528582,18.264221 13.291696,25.230495 11.500037,31.436501 z"
     style="fill:#404040;"/>
  </a>
 </g>
</svg>

<style type='text/css'>
<![CDATA[
[data-mouse-over-selected='false'] { opacity: 0.7; }
[data-mouse-over-selected='true']  { opacity: 1.0; }
]]>
</style>
<script type="application/ecmascript"><![CDATA[
document.addEventListener('DOMContentLoaded', (event) => {
  highlightEdges();
  highlightAdjacentNodes();
});
]]></script>
</svg>
