<?xml version="1.0" encoding="UTF-8" standalone="no"?>
<!DOCTYPE svg PUBLIC "-//W3C//DTD SVG 1.1//EN"
 "http://www.w3.org/Graphics/SVG/1.1/DTD/svg11.dtd">
<!-- Generated by graphviz version 14.1.4 (20260321.0153)
 -->
<!-- Title: Similarity Measures Pages: 1 -->
<svg width="504pt" height="40pt"
 viewBox="0.00 0.00 504.00 40.00" xmlns="http://www.w3.org/2000/svg" xmlns:xlink="http://www.w3.org/1999/xlink">
<g id="graph0" class="graph" transform="scale(1 1) rotate(0) translate(4 36.12)">
<title>Similarity Measures</title>
<!-- Node2 -->
<g id="Node000002" class="node">
<title>Node2</title>
<g id="a_Node000002"><a xlink:href="group___im_fusion_reg.html" target="_top" xlink:title="Plugin providing functionality for registering medical images.">
<polygon fill="white" stroke="#666666" points="98.5,-19.25 0,-19.25 0,0 98.5,0 98.5,-19.25"/>
<text xml:space="preserve" text-anchor="middle" x="49.25" y="-5.75" font-family="Helvetica,sans-Serif" font-size="10.00">Registration Plugin</text>
</a>
</g>
</g>
<!-- Node1 -->
<g id="Node000001" class="node">
<title>Node1</title>
<g id="a_Node000001"><a xlink:title="Similarity Measures.">
<polygon fill="#999999" stroke="#666666" points="237.75,-19.25 135.5,-19.25 135.5,0 237.75,0 237.75,-19.25"/>
<text xml:space="preserve" text-anchor="middle" x="186.62" y="-5.75" font-family="Helvetica,sans-Serif" font-size="10.00">Similarity Measures</text>
</a>
</g>
</g>
<!-- Node2&#45;&gt;Node1 -->
<g id="edge1" class="edge">
<title>Node2&#45;&gt;Node1</title>
<path fill="none" stroke="black" d="M110.04,-9.62C118.43,-9.62 126.99,-9.62 135.19,-9.62"/>
<polygon fill="black" stroke="black" points="110.25,-6.13 100.25,-9.63 110.25,-13.13 110.25,-6.13"/>
</g>
<!-- Node3 -->
<g id="Node000003" class="node">
<title>Node3</title>
<g id="a_Node000003"><a xlink:href="group___plugin_architecture.html" target="_top" xlink:title="Infrastructure and functionality to dynamically extend application functionality via shared libraries...">
<polygon fill="white" stroke="#666666" points="496,-19.25 398.25,-19.25 398.25,0 496,0 496,-19.25"/>
<text xml:space="preserve" text-anchor="middle" x="447.12" y="-5.75" font-family="Helvetica,sans-Serif" font-size="10.00">Plugin Architecture</text>
</a>
</g>
</g>
<!-- Node1&#45;&gt;Node3 -->
<g id="edge2" class="edge">
<title>Node1&#45;&gt;Node3</title>
<path fill="none" stroke="orange" stroke-dasharray="5,2" d="M238.08,-9.62C284.36,-9.62 352.44,-9.62 397.98,-9.62"/>
<text xml:space="preserve" text-anchor="start" x="255.75" y="-22.62" font-family="Helvetica,sans-Serif" font-size="10.00">ImFusion::SimilarityMeasure</text>
<text xml:space="preserve" text-anchor="middle" x="318" y="-11.38" font-family="Helvetica,sans-Serif" font-size="10.00">Factory</text>
</g>
</g>
</svg>
