<?xml version="1.0" encoding="UTF-8" standalone="no"?>
<!DOCTYPE svg PUBLIC "-//W3C//DTD SVG 1.1//EN"
 "http://www.w3.org/Graphics/SVG/1.1/DTD/svg11.dtd">
<!-- Generated by graphviz version 14.1.4 (20260321.0153)
 -->
<!-- Title: Graphical Class Hierarchy Pages: 1 -->
<svg width="483pt" height="253pt"
 viewBox="0.00 0.00 483.00 253.00" xmlns="http://www.w3.org/2000/svg" xmlns:xlink="http://www.w3.org/1999/xlink">
<g id="graph0" class="graph" transform="scale(1 1) rotate(0) translate(4 248.5)">
<title>Graphical Class Hierarchy</title>
<!-- Node0 -->
<g id="Node000000" class="node">
<title>Node0</title>
<g id="a_Node000000"><a target="_parent" xlink:href="http://en.cppreference.com/w/cpp/error/exception.html" xlink:title=" ">
<polygon fill="white" stroke="#666666" points="77.5,-164.88 0,-164.88 0,-145.62 77.5,-145.62 77.5,-164.88"/>
<text xml:space="preserve" text-anchor="middle" x="38.75" y="-151.38" font-family="Helvetica,sans-Serif" font-size="10.00">std::exception</text>
</a>
</g>
</g>
<!-- Node1 -->
<g id="Node000001" class="node">
<title>Node1</title>
<g id="a_Node000001"><a xlink:href="class_im_fusion_1_1_assert_1_1_contract_violation.html" target="_top" xlink:title="Represents a violation of a contract assertion.">
<polygon fill="white" stroke="#666666" points="263.38,-244.5 128.88,-244.5 128.88,-214 263.38,-214 263.38,-244.5"/>
<text xml:space="preserve" text-anchor="start" x="136.88" y="-231" font-family="Helvetica,sans-Serif" font-size="10.00">ImFusion::Assert::Contract</text>
<text xml:space="preserve" text-anchor="middle" x="196.12" y="-219.75" font-family="Helvetica,sans-Serif" font-size="10.00">Violation</text>
</a>
</g>
</g>
<!-- Node0&#45;&gt;Node1 -->
<g id="edge1579_Node000000_Node000001" class="edge">
<title>Node0&#45;&gt;Node1</title>
<g id="a_edge1579_Node000000_Node000001"><a xlink:title=" ">
<path fill="none" stroke="#63b8ff" d="M61.33,-172.01C75.53,-182.42 94.87,-195.44 113.5,-204.25 120.73,-207.67 128.55,-210.76 136.38,-213.51"/>
<polygon fill="#63b8ff" stroke="#63b8ff" points="63.7,-169.42 53.6,-166.22 59.5,-175.02 63.7,-169.42"/>
</a>
</g>
</g>
<!-- Node2 -->
<g id="Node000002" class="node">
<title>Node2</title>
<g id="a_Node000002"><a xlink:href="struct_im_fusion_1_1_threading_1_1_stoppable_thread_1_1_stop_exception.html" target="_top" xlink:title="Special exception type that is thrown by throwIfStopRequested() if abortion was requested.">
<polygon fill="white" stroke="#666666" points="278.75,-195.5 113.5,-195.5 113.5,-165 278.75,-165 278.75,-195.5"/>
<text xml:space="preserve" text-anchor="start" x="121.5" y="-182" font-family="Helvetica,sans-Serif" font-size="10.00">ImFusion::Threading</text>
<text xml:space="preserve" text-anchor="middle" x="196.12" y="-170.75" font-family="Helvetica,sans-Serif" font-size="10.00">::StoppableThread::StopException</text>
</a>
</g>
</g>
<!-- Node0&#45;&gt;Node2 -->
<g id="edge1580_Node000000_Node000002" class="edge">
<title>Node0&#45;&gt;Node2</title>
<g id="a_edge1580_Node000000_Node000002"><a xlink:title=" ">
<path fill="none" stroke="#63b8ff" d="M89.05,-163.18C96.74,-164.42 104.85,-165.73 113.04,-167.04"/>
<polygon fill="#63b8ff" stroke="#63b8ff" points="89.68,-159.74 79.25,-161.61 88.57,-166.65 89.68,-159.74"/>
</a>
</g>
</g>
<!-- Node3 -->
<g id="Node000003" class="node">
<title>Node3</title>
<g id="a_Node000003"><a xlink:href="class_im_fusion_1_1_utils_1_1bad__expected__access.html" target="_top" xlink:title=" ">
<polygon fill="white" stroke="#666666" points="257.38,-146.5 134.88,-146.5 134.88,-116 257.38,-116 257.38,-146.5"/>
<text xml:space="preserve" text-anchor="start" x="142.88" y="-133" font-family="Helvetica,sans-Serif" font-size="10.00">ImFusion::Utils::bad</text>
<text xml:space="preserve" text-anchor="middle" x="196.12" y="-121.75" font-family="Helvetica,sans-Serif" font-size="10.00">_expected_access&lt; E &gt;</text>
</a>
</g>
</g>
<!-- Node0&#45;&gt;Node3 -->
<g id="edge1581_Node000000_Node000003" class="edge">
<title>Node0&#45;&gt;Node3</title>
<g id="a_edge1581_Node000000_Node000003"><a xlink:title=" ">
<path fill="none" stroke="#63b8ff" d="M88.98,-147.65C103.44,-145.41 119.42,-142.94 134.51,-140.61"/>
<polygon fill="#63b8ff" stroke="#63b8ff" points="88.6,-144.16 79.25,-149.15 89.67,-151.08 88.6,-144.16"/>
</a>
</g>
</g>
<!-- Node4 -->
<g id="Node000004" class="node">
<title>Node4</title>
<g id="a_Node000004"><a target="_parent" xlink:href="http://en.cppreference.com/w/cpp/error/runtime_error.html" xlink:title=" ">
<polygon fill="white" stroke="#666666" points="242.38,-97.88 149.88,-97.88 149.88,-78.62 242.38,-78.62 242.38,-97.88"/>
<text xml:space="preserve" text-anchor="middle" x="196.12" y="-84.38" font-family="Helvetica,sans-Serif" font-size="10.00">std::runtime_error</text>
</a>
</g>
</g>
<!-- Node0&#45;&gt;Node4 -->
<g id="edge1582_Node000000_Node000004" class="edge">
<title>Node0&#45;&gt;Node4</title>
<g id="a_edge1582_Node000000_Node000004"><a xlink:title=" ">
<path fill="none" stroke="#63b8ff" d="M60.93,-138.61C75.09,-128.22 94.54,-115.33 113.5,-107.25 124.88,-102.4 137.7,-98.68 149.75,-95.87"/>
<polygon fill="#63b8ff" stroke="#63b8ff" points="59.12,-135.58 53.24,-144.4 63.34,-141.17 59.12,-135.58"/>
</a>
</g>
</g>
<!-- Node5 -->
<g id="Node000005" class="node">
<title>Node5</title>
<g id="a_Node000005"><a xlink:href="class_im_fusion_1_1_dicom_1_1value__error.html" target="_top" xlink:title="Exception specialization for DICOM element retrieval.">
<polygon fill="white" stroke="#666666" points="454.88,-177.5 334.62,-177.5 334.62,-147 454.88,-147 454.88,-177.5"/>
<text xml:space="preserve" text-anchor="start" x="342.62" y="-164" font-family="Helvetica,sans-Serif" font-size="10.00">ImFusion::Dicom::value</text>
<text xml:space="preserve" text-anchor="middle" x="394.75" y="-152.75" font-family="Helvetica,sans-Serif" font-size="10.00">_error</text>
</a>
</g>
</g>
<!-- Node4&#45;&gt;Node5 -->
<g id="edge1583_Node000004_Node000005" class="edge">
<title>Node4&#45;&gt;Node5</title>
<g id="a_edge1583_Node000004_Node000005"><a xlink:title=" ">
<path fill="none" stroke="#63b8ff" d="M253.45,-97.71C262.16,-100.2 270.87,-103.33 278.75,-107.25 297.4,-116.53 296.48,-127.25 314.75,-137.25 321.19,-140.77 328.19,-143.88 335.29,-146.61"/>
<polygon fill="#63b8ff" stroke="#63b8ff" points="254.51,-94.37 243.95,-95.26 252.76,-101.15 254.51,-94.37"/>
</a>
</g>
</g>
<!-- Node6 -->
<g id="Node000006" class="node">
<title>Node6</title>
<g id="a_Node000006"><a xlink:href="class_im_fusion_1_1_g_l_1_1_debug_1_1_open_gl_exception.html" target="_top" xlink:title="Specialization of std::runtime_error that also stores the original OpenGL error code.">
<polygon fill="white" stroke="#666666" points="449.62,-128.5 339.88,-128.5 339.88,-98 449.62,-98 449.62,-128.5"/>
<text xml:space="preserve" text-anchor="start" x="347.88" y="-115" font-family="Helvetica,sans-Serif" font-size="10.00">ImFusion::GL::Debug</text>
<text xml:space="preserve" text-anchor="middle" x="394.75" y="-103.75" font-family="Helvetica,sans-Serif" font-size="10.00">::OpenGlException</text>
</a>
</g>
</g>
<!-- Node4&#45;&gt;Node6 -->
<g id="edge1584_Node000004_Node000006" class="edge">
<title>Node4&#45;&gt;Node6</title>
<g id="a_edge1584_Node000004_Node000006"><a xlink:title=" ">
<path fill="none" stroke="#63b8ff" d="M253.95,-95.48C280.94,-98.91 313.04,-102.99 339.66,-106.37"/>
<polygon fill="#63b8ff" stroke="#63b8ff" points="254.59,-92.03 244.23,-94.24 253.71,-98.97 254.59,-92.03"/>
</a>
</g>
</g>
<!-- Node7 -->
<g id="Node000007" class="node">
<title>Node7</title>
<g id="a_Node000007"><a xlink:href="class_im_fusion_1_1_g_l_1_1_open_g_l_not_found_exception.html" target="_top" xlink:title="Specialization of std::runtime_error indicating that OpenGL was not able to initialize correctly.">
<polygon fill="white" stroke="#666666" points="474.75,-79.5 314.75,-79.5 314.75,-49 474.75,-49 474.75,-79.5"/>
<text xml:space="preserve" text-anchor="start" x="322.75" y="-66" font-family="Helvetica,sans-Serif" font-size="10.00">ImFusion::GL::OpenGLNotFound</text>
<text xml:space="preserve" text-anchor="middle" x="394.75" y="-54.75" font-family="Helvetica,sans-Serif" font-size="10.00">Exception</text>
</a>
</g>
</g>
<!-- Node4&#45;&gt;Node7 -->
<g id="edge1585_Node000004_Node000007" class="edge">
<title>Node4&#45;&gt;Node7</title>
<g id="a_edge1585_Node000004_Node000007"><a xlink:title=" ">
<path fill="none" stroke="#63b8ff" d="M254.11,-81.29C272.96,-78.99 294.28,-76.39 314.48,-73.93"/>
<polygon fill="#63b8ff" stroke="#63b8ff" points="253.73,-77.81 244.23,-82.5 254.58,-84.76 253.73,-77.81"/>
</a>
</g>
</g>
<!-- Node8 -->
<g id="Node000008" class="node">
<title>Node8</title>
<g id="a_Node000008"><a xlink:href="class_im_fusion_1_1_missing_license_exception.html" target="_top" xlink:title="Exception thrown in case a suitable license could not be found or activated.">
<polygon fill="white" stroke="#666666" points="459.75,-30.5 329.75,-30.5 329.75,0 459.75,0 459.75,-30.5"/>
<text xml:space="preserve" text-anchor="start" x="337.75" y="-17" font-family="Helvetica,sans-Serif" font-size="10.00">ImFusion::MissingLicense</text>
<text xml:space="preserve" text-anchor="middle" x="394.75" y="-5.75" font-family="Helvetica,sans-Serif" font-size="10.00">Exception</text>
</a>
</g>
</g>
<!-- Node4&#45;&gt;Node8 -->
<g id="edge1586_Node000004_Node000008" class="edge">
<title>Node4&#45;&gt;Node8</title>
<g id="a_edge1586_Node000004_Node000008"><a xlink:title=" ">
<path fill="none" stroke="#63b8ff" d="M230.75,-73.68C254.12,-63.76 286.1,-50.61 314.75,-40.25 323.54,-37.07 332.96,-33.89 342.13,-30.92"/>
<polygon fill="#63b8ff" stroke="#63b8ff" points="229.56,-70.39 221.73,-77.53 232.3,-76.82 229.56,-70.39"/>
</a>
</g>
</g>
</g>
</svg>
