<?xml version="1.0" encoding="UTF-8" standalone="no"?>
<!DOCTYPE svg PUBLIC "-//W3C//DTD SVG 1.1//EN"
 "http://www.w3.org/Graphics/SVG/1.1/DTD/svg11.dtd">
<!-- Generated by graphviz version 14.1.4 (20260321.0153)
 -->
<!-- Title: Graphical Class Hierarchy Pages: 1 -->
<svg width="310pt" height="745pt"
 viewBox="0.00 0.00 310.00 745.00" xmlns="http://www.w3.org/2000/svg" xmlns:xlink="http://www.w3.org/1999/xlink">
<g id="graph0" class="graph" transform="scale(1 1) rotate(0) translate(4 740.5)">
<title>Graphical Class Hierarchy</title>
<!-- Node0 -->
<g id="Node000000" class="node">
<title>Node0</title>
<g id="a_Node000000"><a xlink:title=" ">
<polygon fill="#e0e0e0" stroke="#999999" points="67.78,-730.88 38.98,-730.88 38.98,-711.62 67.78,-711.62 67.78,-730.88"/>
<text xml:space="preserve" text-anchor="middle" x="53.38" y="-717.38" font-family="Helvetica,sans-Serif" font-size="10.00">B</text>
</a>
</g>
</g>
<!-- Node1 -->
<g id="Node000001" class="node">
<title>Node1</title>
<g id="a_Node000001"><a xlink:href="struct_im_fusion_1_1_utils_1_1detail_1_1conjunction_3_01_b_01_4.html" target="_top" xlink:title=" ">
<polygon fill="white" stroke="#666666" points="278.38,-736.5 166.38,-736.5 166.38,-706 278.38,-706 278.38,-736.5"/>
<text xml:space="preserve" text-anchor="start" x="174.38" y="-723" font-family="Helvetica,sans-Serif" font-size="10.00">ImFusion::Utils::detail</text>
<text xml:space="preserve" text-anchor="middle" x="222.38" y="-711.75" font-family="Helvetica,sans-Serif" font-size="10.00">::conjunction&lt; B &gt;</text>
</a>
</g>
</g>
<!-- Node0&#45;&gt;Node1 -->
<g id="edge1_Node000000_Node000001" class="edge">
<title>Node0&#45;&gt;Node1</title>
<g id="a_edge1_Node000000_Node000001"><a xlink:title=" ">
<path fill="none" stroke="#63b8ff" d="M79.43,-721.25C102.31,-721.25 136.92,-721.25 166.24,-721.25"/>
<polygon fill="#63b8ff" stroke="#63b8ff" points="79.55,-717.75 69.55,-721.25 79.55,-724.75 79.55,-717.75"/>
</a>
</g>
</g>
<!-- Node6 -->
<g id="Node000006" class="node">
<title>Node6</title>
<g id="a_Node000006"><a target="_parent" xlink:href="http://en.cppreference.com/w/cpp/types/integral_constant.html" xlink:title=" ">
<polygon fill="white" stroke="#666666" points="93.62,-292.88 13.12,-292.88 13.12,-273.62 93.62,-273.62 93.62,-292.88"/>
<text xml:space="preserve" text-anchor="middle" x="53.38" y="-279.38" font-family="Helvetica,sans-Serif" font-size="10.00">std::false_type</text>
</a>
</g>
</g>
<!-- Node5 -->
<g id="Node000005" class="node">
<title>Node5</title>
<g id="a_Node000005"><a xlink:href="struct_im_fusion_1_1_threading_1_1detail_1_1_is_protected_3_01_protected_3_01_t_01_4_01_4.html" target="_top" xlink:title=" ">
<polygon fill="white" stroke="#666666" points="275,-394.12 169.75,-394.12 169.75,-352.38 275,-352.38 275,-394.12"/>
<text xml:space="preserve" text-anchor="start" x="177.75" y="-380.62" font-family="Helvetica,sans-Serif" font-size="10.00">ImFusion::Threading</text>
<text xml:space="preserve" text-anchor="start" x="177.75" y="-369.38" font-family="Helvetica,sans-Serif" font-size="10.00">::detail::IsProtected</text>
<text xml:space="preserve" text-anchor="middle" x="222.38" y="-358.12" font-family="Helvetica,sans-Serif" font-size="10.00">&lt; Protected&lt; T &gt; &gt;</text>
</a>
</g>
</g>
<!-- Node6&#45;&gt;Node5 -->
<g id="edge2_Node000006_Node000005" class="edge">
<title>Node6&#45;&gt;Node5</title>
<g id="a_edge2_Node000006_Node000005"><a xlink:title=" ">
<path fill="none" stroke="#63b8ff" d="M75.72,-299.82C93.09,-312.78 118.61,-330.67 142.75,-343.25 151.17,-347.64 160.38,-351.73 169.45,-355.4"/>
<polygon fill="#63b8ff" stroke="#63b8ff" points="78.25,-297.35 68.17,-294.1 74.02,-302.93 78.25,-297.35"/>
</a>
</g>
</g>
<!-- Node7 -->
<g id="Node000007" class="node">
<title>Node7</title>
<g id="a_Node000007"><a xlink:href="struct_im_fusion_1_1_utils_1_1detail_1_1is__expected__impl.html" target="_top" xlink:title=" ">
<polygon fill="white" stroke="#666666" points="288.88,-274.12 155.88,-274.12 155.88,-232.38 288.88,-232.38 288.88,-274.12"/>
<text xml:space="preserve" text-anchor="start" x="163.88" y="-260.62" font-family="Helvetica,sans-Serif" font-size="10.00">ImFusion::Utils::detail</text>
<text xml:space="preserve" text-anchor="start" x="163.88" y="-249.38" font-family="Helvetica,sans-Serif" font-size="10.00">::is_expected_impl&lt; decay</text>
<text xml:space="preserve" text-anchor="middle" x="222.38" y="-238.12" font-family="Helvetica,sans-Serif" font-size="10.00">_t&lt; T &gt; &gt;</text>
</a>
</g>
</g>
<!-- Node6&#45;&gt;Node7 -->
<g id="edge3_Node000006_Node000007" class="edge">
<title>Node6&#45;&gt;Node7</title>
<g id="a_edge3_Node000006_Node000007"><a xlink:title=" ">
<path fill="none" stroke="#63b8ff" d="M105.16,-274.13C121.07,-271.27 138.86,-268.07 155.64,-265.06"/>
<polygon fill="#63b8ff" stroke="#63b8ff" points="104.66,-270.66 95.44,-275.87 105.9,-277.55 104.66,-270.66"/>
</a>
</g>
</g>
<!-- Node8 -->
<g id="Node000008" class="node">
<title>Node8</title>
<g id="a_Node000008"><a xlink:href="struct_im_fusion_1_1_utils_1_1detail_1_1is__expected__impl_3_01_expected_3_01_t_00_01_e_01_4_01_4.html" target="_top" xlink:title=" ">
<polygon fill="white" stroke="#666666" points="296.38,-334.12 148.38,-334.12 148.38,-292.38 296.38,-292.38 296.38,-334.12"/>
<text xml:space="preserve" text-anchor="start" x="156.38" y="-320.62" font-family="Helvetica,sans-Serif" font-size="10.00">ImFusion::Utils::detail</text>
<text xml:space="preserve" text-anchor="start" x="156.38" y="-309.38" font-family="Helvetica,sans-Serif" font-size="10.00">::is_expected_impl&lt; Expected</text>
<text xml:space="preserve" text-anchor="middle" x="222.38" y="-298.12" font-family="Helvetica,sans-Serif" font-size="10.00">&lt; T, E &gt; &gt;</text>
</a>
</g>
</g>
<!-- Node6&#45;&gt;Node8 -->
<g id="edge4_Node000006_Node000008" class="edge">
<title>Node6&#45;&gt;Node8</title>
<g id="a_edge4_Node000006_Node000008"><a xlink:title=" ">
<path fill="none" stroke="#63b8ff" d="M104.99,-292.34C118.56,-294.78 133.52,-297.47 148.05,-300.08"/>
<polygon fill="#63b8ff" stroke="#63b8ff" points="105.9,-288.95 95.44,-290.63 104.66,-295.84 105.9,-288.95"/>
</a>
</g>
</g>
<!-- Node9 -->
<g id="Node000009" class="node">
<title>Node9</title>
<g id="a_Node000009"><a xlink:href="struct_im_fusion_1_1detail_1_1_is_nullable_3_01std_1_1optional_3_01_s_01_4_01_4.html" target="_top" xlink:title=" ">
<polygon fill="white" stroke="#666666" points="290,-589.5 154.75,-589.5 154.75,-559 290,-559 290,-589.5"/>
<text xml:space="preserve" text-anchor="start" x="162.75" y="-576" font-family="Helvetica,sans-Serif" font-size="10.00">ImFusion::detail::IsNullable</text>
<text xml:space="preserve" text-anchor="middle" x="222.38" y="-564.75" font-family="Helvetica,sans-Serif" font-size="10.00">&lt; std::optional&lt; S &gt; &gt;</text>
</a>
</g>
</g>
<!-- Node6&#45;&gt;Node9 -->
<g id="edge5_Node000006_Node000009" class="edge">
<title>Node6&#45;&gt;Node9</title>
<g id="a_edge5_Node000006_Node000009"><a xlink:title=" ">
<path fill="none" stroke="#63b8ff" d="M55.18,-304.6C58.23,-354.6 72.82,-480.22 142.75,-549.25 146.42,-552.87 150.61,-555.97 155.11,-558.62"/>
<polygon fill="#63b8ff" stroke="#63b8ff" points="58.69,-304.68 54.69,-294.87 51.7,-305.03 58.69,-304.68"/>
</a>
</g>
</g>
<!-- Node10 -->
<g id="Node000010" class="node">
<title>Node10</title>
<g id="a_Node000010"><a xlink:href="struct_im_fusion_1_1detail_1_1_is_nullable_3_01std_1_1unique__ptr_3_01_s_01_4_01_4.html" target="_top" xlink:title=" ">
<polygon fill="white" stroke="#666666" points="290,-540.5 154.75,-540.5 154.75,-510 290,-510 290,-540.5"/>
<text xml:space="preserve" text-anchor="start" x="162.75" y="-527" font-family="Helvetica,sans-Serif" font-size="10.00">ImFusion::detail::IsNullable</text>
<text xml:space="preserve" text-anchor="middle" x="222.38" y="-515.75" font-family="Helvetica,sans-Serif" font-size="10.00">&lt; std::unique_ptr&lt; S &gt; &gt;</text>
</a>
</g>
</g>
<!-- Node6&#45;&gt;Node10 -->
<g id="edge6_Node000006_Node000010" class="edge">
<title>Node6&#45;&gt;Node10</title>
<g id="a_edge6_Node000006_Node000010"><a xlink:title=" ">
<path fill="none" stroke="#63b8ff" d="M57,-304.39C63.46,-347.51 84.14,-446.09 142.75,-500.25 146.64,-503.85 151.05,-506.93 155.75,-509.56"/>
<polygon fill="#63b8ff" stroke="#63b8ff" points="60.48,-304.05 55.65,-294.62 53.55,-305 60.48,-304.05"/>
</a>
</g>
</g>
<!-- Node11 -->
<g id="Node000011" class="node">
<title>Node11</title>
<g id="a_Node000011"><a xlink:href="struct_im_fusion_1_1detail_1_1_is_shared_ptr_3_01std_1_1shared__ptr_3_01_s_01_4_01_4.html" target="_top" xlink:title=" ">
<polygon fill="white" stroke="#666666" points="290.75,-491.5 154,-491.5 154,-461 290.75,-461 290.75,-491.5"/>
<text xml:space="preserve" text-anchor="start" x="162" y="-478" font-family="Helvetica,sans-Serif" font-size="10.00">ImFusion::detail::IsShared</text>
<text xml:space="preserve" text-anchor="middle" x="222.38" y="-466.75" font-family="Helvetica,sans-Serif" font-size="10.00">Ptr&lt; std::shared_ptr&lt; S &gt; &gt;</text>
</a>
</g>
</g>
<!-- Node6&#45;&gt;Node11 -->
<g id="edge7_Node000006_Node000011" class="edge">
<title>Node6&#45;&gt;Node11</title>
<g id="a_edge7_Node000006_Node000011"><a xlink:title=" ">
<path fill="none" stroke="#63b8ff" d="M59.74,-304.18C69.89,-339.63 95.29,-411.5 142.75,-451.25 147.03,-454.84 151.84,-457.91 156.9,-460.55"/>
<polygon fill="#63b8ff" stroke="#63b8ff" points="63.17,-303.46 57.17,-294.73 56.42,-305.3 63.17,-303.46"/>
</a>
</g>
</g>
<!-- Node12 -->
<g id="Node000012" class="node">
<title>Node12</title>
<g id="a_Node000012"><a xlink:href="struct_im_fusion_1_1detail_1_1_is_unique_ptr_3_01std_1_1unique__ptr_3_01_s_01_4_01_4.html" target="_top" xlink:title=" ">
<polygon fill="white" stroke="#666666" points="290.38,-442.5 154.38,-442.5 154.38,-412 290.38,-412 290.38,-442.5"/>
<text xml:space="preserve" text-anchor="start" x="162.38" y="-429" font-family="Helvetica,sans-Serif" font-size="10.00">ImFusion::detail::IsUnique</text>
<text xml:space="preserve" text-anchor="middle" x="222.38" y="-417.75" font-family="Helvetica,sans-Serif" font-size="10.00">Ptr&lt; std::unique_ptr&lt; S &gt; &gt;</text>
</a>
</g>
</g>
<!-- Node6&#45;&gt;Node12 -->
<g id="edge8_Node000006_Node000012" class="edge">
<title>Node6&#45;&gt;Node12</title>
<g id="a_edge8_Node000006_Node000012"><a xlink:title=" ">
<path fill="none" stroke="#63b8ff" d="M64.01,-303.43C77.79,-330.15 105.61,-376.95 142.75,-403.25 147.29,-406.47 152.28,-409.26 157.46,-411.68"/>
<polygon fill="#63b8ff" stroke="#63b8ff" points="67.25,-302.07 59.66,-294.68 60.98,-305.19 67.25,-302.07"/>
</a>
</g>
</g>
<!-- Node13 -->
<g id="Node000013" class="node">
<title>Node13</title>
<g id="a_Node000013"><a xlink:href="struct_im_fusion_1_1_threading_1_1detail_1_1_is_protected.html" target="_top" xlink:title=" ">
<polygon fill="white" stroke="#666666" points="285.12,-214.5 159.62,-214.5 159.62,-184 285.12,-184 285.12,-214.5"/>
<text xml:space="preserve" text-anchor="start" x="167.62" y="-201" font-family="Helvetica,sans-Serif" font-size="10.00">ImFusion::Threading</text>
<text xml:space="preserve" text-anchor="middle" x="222.38" y="-189.75" font-family="Helvetica,sans-Serif" font-size="10.00">::detail::IsProtected&lt; T &gt;</text>
</a>
</g>
</g>
<!-- Node6&#45;&gt;Node13 -->
<g id="edge9_Node000006_Node000013" class="edge">
<title>Node6&#45;&gt;Node13</title>
<g id="a_edge9_Node000006_Node000013"><a xlink:title=" ">
<path fill="none" stroke="#63b8ff" d="M75.19,-266.46C92.44,-253.22 118.05,-235.07 142.75,-223.25 149.19,-220.17 156.11,-217.38 163.08,-214.88"/>
<polygon fill="#63b8ff" stroke="#63b8ff" points="73.44,-263.39 67.72,-272.31 77.75,-268.9 73.44,-263.39"/>
</a>
</g>
</g>
<!-- Node14 -->
<g id="Node000014" class="node">
<title>Node14</title>
<g id="a_Node000014"><a xlink:href="struct_im_fusion_1_1_utils_1_1detail_1_1is__expected__impl.html" target="_top" xlink:title=" ">
<polygon fill="white" stroke="#666666" points="283.25,-165.5 161.5,-165.5 161.5,-135 283.25,-135 283.25,-165.5"/>
<text xml:space="preserve" text-anchor="start" x="169.5" y="-152" font-family="Helvetica,sans-Serif" font-size="10.00">ImFusion::Utils::detail</text>
<text xml:space="preserve" text-anchor="middle" x="222.38" y="-140.75" font-family="Helvetica,sans-Serif" font-size="10.00">::is_expected_impl&lt; T &gt;</text>
</a>
</g>
</g>
<!-- Node6&#45;&gt;Node14 -->
<g id="edge10_Node000006_Node000014" class="edge">
<title>Node6&#45;&gt;Node14</title>
<g id="a_edge10_Node000006_Node000014"><a xlink:title=" ">
<path fill="none" stroke="#63b8ff" d="M65.62,-263.43C80.33,-239.22 108.33,-198.62 142.75,-175.25 148.44,-171.39 154.76,-168.1 161.27,-165.29"/>
<polygon fill="#63b8ff" stroke="#63b8ff" points="62.64,-261.58 60.58,-271.98 68.68,-265.13 62.64,-261.58"/>
</a>
</g>
</g>
<!-- Node15 -->
<g id="Node000015" class="node">
<title>Node15</title>
<g id="a_Node000015"><a xlink:href="struct_im_fusion_1_1detail_1_1_is_nullable.html" target="_top" xlink:title=" ">
<polygon fill="white" stroke="#666666" points="302,-116.88 142.75,-116.88 142.75,-97.62 302,-97.62 302,-116.88"/>
<text xml:space="preserve" text-anchor="middle" x="222.38" y="-103.38" font-family="Helvetica,sans-Serif" font-size="10.00">ImFusion::detail::IsNullable&lt; T &gt;</text>
</a>
</g>
</g>
<!-- Node6&#45;&gt;Node15 -->
<g id="edge11_Node000006_Node000015" class="edge">
<title>Node6&#45;&gt;Node15</title>
<g id="a_edge11_Node000006_Node000015"><a xlink:title=" ">
<path fill="none" stroke="#63b8ff" d="M60.15,-262.4C70.68,-228.42 96.32,-161.37 142.75,-126.25 147.57,-122.61 152.98,-119.65 158.66,-117.26"/>
<polygon fill="#63b8ff" stroke="#63b8ff" points="56.84,-261.27 57.37,-271.85 63.55,-263.25 56.84,-261.27"/>
</a>
</g>
</g>
<!-- Node16 -->
<g id="Node000016" class="node">
<title>Node16</title>
<g id="a_Node000016"><a xlink:href="struct_im_fusion_1_1detail_1_1_is_shared_ptr.html" target="_top" xlink:title=" ">
<polygon fill="white" stroke="#666666" points="287.75,-79.5 157,-79.5 157,-49 287.75,-49 287.75,-79.5"/>
<text xml:space="preserve" text-anchor="start" x="165" y="-66" font-family="Helvetica,sans-Serif" font-size="10.00">ImFusion::detail::IsShared</text>
<text xml:space="preserve" text-anchor="middle" x="222.38" y="-54.75" font-family="Helvetica,sans-Serif" font-size="10.00">Ptr&lt; T &gt;</text>
</a>
</g>
</g>
<!-- Node6&#45;&gt;Node16 -->
<g id="edge12_Node000006_Node000016" class="edge">
<title>Node6&#45;&gt;Node16</title>
<g id="a_edge12_Node000006_Node000016"><a xlink:title=" ">
<path fill="none" stroke="#63b8ff" d="M57.99,-262.3C65.97,-222.48 88.83,-135.62 142.75,-88.25 146.93,-84.58 151.66,-81.47 156.68,-78.83"/>
<polygon fill="#63b8ff" stroke="#63b8ff" points="54.58,-261.5 56.18,-271.98 61.46,-262.79 54.58,-261.5"/>
</a>
</g>
</g>
<!-- Node17 -->
<g id="Node000017" class="node">
<title>Node17</title>
<g id="a_Node000017"><a xlink:href="struct_im_fusion_1_1detail_1_1_is_unique_ptr.html" target="_top" xlink:title=" ">
<polygon fill="white" stroke="#666666" points="287.75,-30.5 157,-30.5 157,0 287.75,0 287.75,-30.5"/>
<text xml:space="preserve" text-anchor="start" x="165" y="-17" font-family="Helvetica,sans-Serif" font-size="10.00">ImFusion::detail::IsUnique</text>
<text xml:space="preserve" text-anchor="middle" x="222.38" y="-5.75" font-family="Helvetica,sans-Serif" font-size="10.00">Ptr&lt; T &gt;</text>
</a>
</g>
</g>
<!-- Node6&#45;&gt;Node17 -->
<g id="edge13_Node000006_Node000017" class="edge">
<title>Node6&#45;&gt;Node17</title>
<g id="a_edge13_Node000006_Node000017"><a xlink:title=" ">
<path fill="none" stroke="#63b8ff" d="M55.96,-261.86C60.6,-214.93 78.22,-102.19 142.75,-40.25 146.88,-36.28 151.64,-32.94 156.74,-30.14"/>
<polygon fill="#63b8ff" stroke="#63b8ff" points="52.48,-261.48 55.1,-271.75 59.46,-262.09 52.48,-261.48"/>
</a>
</g>
</g>
<!-- Node2 -->
<g id="Node000002" class="node">
<title>Node2</title>
<g id="a_Node000002"><a target="_parent" xlink:href="http://en.cppreference.com/w/cpp/types/integral_constant.html" xlink:title=" ">
<polygon fill="white" stroke="#666666" points="91.38,-534.88 15.38,-534.88 15.38,-515.62 91.38,-515.62 91.38,-534.88"/>
<text xml:space="preserve" text-anchor="middle" x="53.38" y="-521.38" font-family="Helvetica,sans-Serif" font-size="10.00">std::true_type</text>
</a>
</g>
</g>
<!-- Node2&#45;&gt;Node1 -->
<g id="edge14_Node000002_Node000001" class="edge">
<title>Node2&#45;&gt;Node1</title>
<g id="a_edge14_Node000002_Node000001"><a xlink:title=" ">
<path fill="none" stroke="#63b8ff" d="M62.62,-545.74C79.34,-586.4 117.76,-675.17 142.75,-696.25 149.54,-701.98 157.65,-706.4 166.05,-709.8"/>
<polygon fill="#63b8ff" stroke="#63b8ff" points="65.92,-544.57 58.91,-536.62 59.44,-547.2 65.92,-544.57"/>
</a>
</g>
</g>
<!-- Node2&#45;&gt;Node5 -->
<g id="edge16_Node000002_Node000005" class="edge">
<title>Node2&#45;&gt;Node5</title>
<g id="a_edge16_Node000002_Node000005"><a xlink:title=" ">
<path fill="none" stroke="#63b8ff" d="M64.2,-505.1C78.19,-478.35 106.25,-431.24 142.75,-403.25 150.75,-397.12 160.15,-392.11 169.61,-388.07"/>
<polygon fill="#63b8ff" stroke="#63b8ff" points="61.16,-503.35 59.77,-513.86 67.41,-506.52 61.16,-503.35"/>
</a>
</g>
</g>
<!-- Node2&#45;&gt;Node8 -->
<g id="edge18_Node000002_Node000008" class="edge">
<title>Node2&#45;&gt;Node8</title>
<g id="a_edge18_Node000002_Node000008"><a xlink:title=" ">
<path fill="none" stroke="#63b8ff" d="M59.09,-504.46C68.57,-467.14 93.42,-388.44 142.75,-343.25 146.31,-339.99 150.25,-337.08 154.43,-334.47"/>
<polygon fill="#63b8ff" stroke="#63b8ff" points="55.74,-503.41 56.8,-513.96 62.54,-505.05 55.74,-503.41"/>
</a>
</g>
</g>
<!-- Node2&#45;&gt;Node9 -->
<g id="edge19_Node000002_Node000009" class="edge">
<title>Node2&#45;&gt;Node9</title>
<g id="a_edge19_Node000002_Node000009"><a xlink:title=" ">
<path fill="none" stroke="#63b8ff" d="M99.49,-538.49C120.55,-544.67 145.79,-552.07 167.82,-558.54"/>
<polygon fill="#63b8ff" stroke="#63b8ff" points="100.61,-535.17 90.03,-535.71 98.64,-541.88 100.61,-535.17"/>
</a>
</g>
</g>
<!-- Node2&#45;&gt;Node10 -->
<g id="edge20_Node000002_Node000010" class="edge">
<title>Node2&#45;&gt;Node10</title>
<g id="a_edge20_Node000002_Node000010"><a xlink:title=" ">
<path fill="none" stroke="#63b8ff" d="M103.13,-525.25C119.18,-525.25 137.31,-525.25 154.47,-525.25"/>
<polygon fill="#63b8ff" stroke="#63b8ff" points="103.37,-521.75 93.37,-525.25 103.37,-528.75 103.37,-521.75"/>
</a>
</g>
</g>
<!-- Node2&#45;&gt;Node11 -->
<g id="edge21_Node000002_Node000011" class="edge">
<title>Node2&#45;&gt;Node11</title>
<g id="a_edge21_Node000002_Node000011"><a xlink:title=" ">
<path fill="none" stroke="#63b8ff" d="M99.49,-512.01C120.55,-505.83 145.79,-498.43 167.82,-491.96"/>
<polygon fill="#63b8ff" stroke="#63b8ff" points="98.64,-508.62 90.03,-514.79 100.61,-515.33 98.64,-508.62"/>
</a>
</g>
</g>
<!-- Node2&#45;&gt;Node12 -->
<g id="edge22_Node000002_Node000012" class="edge">
<title>Node2&#45;&gt;Node12</title>
<g id="a_edge22_Node000002_Node000012"><a xlink:title=" ">
<path fill="none" stroke="#63b8ff" d="M71.6,-507.55C88.4,-491.18 115.37,-467.18 142.75,-452.25 149.16,-448.75 156.14,-445.66 163.21,-442.94"/>
<polygon fill="#63b8ff" stroke="#63b8ff" points="69.47,-504.73 64.86,-514.27 74.41,-509.69 69.47,-504.73"/>
</a>
</g>
</g>
<!-- Node3 -->
<g id="Node000003" class="node">
<title>Node3</title>
<g id="a_Node000003"><a xlink:href="struct_im_fusion_1_1_utils_1_1detail_1_1conjunction_3_01_b_00_01_bs_8_8_8_01_4.html" target="_top" xlink:title=" ">
<polygon fill="white" stroke="#666666" points="284,-687.5 160.75,-687.5 160.75,-657 284,-657 284,-687.5"/>
<text xml:space="preserve" text-anchor="start" x="168.75" y="-674" font-family="Helvetica,sans-Serif" font-size="10.00">ImFusion::Utils::detail</text>
<text xml:space="preserve" text-anchor="middle" x="222.38" y="-662.75" font-family="Helvetica,sans-Serif" font-size="10.00">::conjunction&lt; B, Bs... &gt;</text>
</a>
</g>
</g>
<!-- Node2&#45;&gt;Node3 -->
<g id="edge15_Node000002_Node000003" class="edge">
<title>Node2&#45;&gt;Node3</title>
<g id="a_edge15_Node000002_Node000003"><a xlink:title=" ">
<path fill="none" stroke="#63b8ff" d="M63.77,-545.3C77.43,-572.33 105.29,-620.17 142.75,-647.25 148.21,-651.19 154.31,-654.53 160.64,-657.35"/>
<polygon fill="#63b8ff" stroke="#63b8ff" points="66.99,-543.93 59.46,-536.47 60.7,-547 66.99,-543.93"/>
</a>
</g>
</g>
<!-- Node18 -->
<g id="Node000018" class="node">
<title>Node18</title>
<g id="a_Node000018"><a xlink:href="struct_im_fusion_1_1_utils_1_1detail_1_1conjunction.html" target="_top" xlink:title=" ">
<polygon fill="white" stroke="#666666" points="278.38,-638.5 166.38,-638.5 166.38,-608 278.38,-608 278.38,-638.5"/>
<text xml:space="preserve" text-anchor="start" x="174.38" y="-625" font-family="Helvetica,sans-Serif" font-size="10.00">ImFusion::Utils::detail</text>
<text xml:space="preserve" text-anchor="middle" x="222.38" y="-613.75" font-family="Helvetica,sans-Serif" font-size="10.00">::conjunction&lt;... &gt;</text>
</a>
</g>
</g>
<!-- Node2&#45;&gt;Node18 -->
<g id="edge17_Node000002_Node000018" class="edge">
<title>Node2&#45;&gt;Node18</title>
<g id="a_edge17_Node000002_Node000018"><a xlink:title=" ">
<path fill="none" stroke="#63b8ff" d="M71.6,-542.95C88.4,-559.32 115.37,-583.32 142.75,-598.25 150.04,-602.23 158.07,-605.68 166.12,-608.65"/>
<polygon fill="#63b8ff" stroke="#63b8ff" points="74.41,-540.81 64.86,-536.23 69.47,-545.77 74.41,-540.81"/>
</a>
</g>
</g>
<!-- Node4 -->
<g id="Node000004" class="node">
<title>Node4</title>
<g id="a_Node000004"><a xlink:title=" ">
<polygon fill="#e0e0e0" stroke="#999999" points="106.75,-681.88 0,-681.88 0,-662.62 106.75,-662.62 106.75,-681.88"/>
<text xml:space="preserve" text-anchor="middle" x="53.38" y="-668.38" font-family="Helvetica,sans-Serif" font-size="10.00">std::conditional::type</text>
</a>
</g>
</g>
<!-- Node4&#45;&gt;Node3 -->
<g id="edge23_Node000004_Node000003" class="edge">
<title>Node4&#45;&gt;Node3</title>
<g id="a_edge23_Node000004_Node000003"><a xlink:title=" ">
<path fill="none" stroke="#63b8ff" d="M118.56,-672.25C132.31,-672.25 146.81,-672.25 160.43,-672.25"/>
<polygon fill="#63b8ff" stroke="#63b8ff" points="118.73,-668.75 108.73,-672.25 118.73,-675.75 118.73,-668.75"/>
</a>
</g>
</g>
</g>
</svg>
