<?xml version="1.0" encoding="UTF-8" standalone="no"?>
<!DOCTYPE svg PUBLIC "-//W3C//DTD SVG 1.1//EN"
 "http://www.w3.org/Graphics/SVG/1.1/DTD/svg11.dtd">
<!-- Generated by graphviz version 14.1.4 (20260321.0153)
 -->
<!-- Title: Graphical Class Hierarchy Pages: 1 -->
<svg width="250pt" height="64pt"
 viewBox="0.00 0.00 250.00 64.00" xmlns="http://www.w3.org/2000/svg" xmlns:xlink="http://www.w3.org/1999/xlink">
<g id="graph0" class="graph" transform="scale(1 1) rotate(0) translate(4 60.25)">
<title>Graphical Class Hierarchy</title>
<!-- Node0 -->
<g id="Node000000" class="node">
<title>Node0</title>
<g id="a_Node000000"><a xlink:title=" ">
<polygon fill="#e0e0e0" stroke="#999999" points="63.25,-37.25 0,-37.25 0,-18 63.25,-18 63.25,-37.25"/>
<text xml:space="preserve" text-anchor="middle" x="31.62" y="-23.75" font-family="Helvetica,sans-Serif" font-size="10.00">QScrollBar</text>
</a>
</g>
</g>
<!-- Node1 -->
<g id="Node000001" class="node">
<title>Node1</title>
<g id="a_Node000001"><a xlink:href="class_im_fusion_1_1_notched_scroll_bar.html" target="_top" xlink:title=" ">
<polygon fill="white" stroke="#666666" points="240.12,-56.25 101.12,-56.25 101.12,-37 240.12,-37 240.12,-56.25"/>
<text xml:space="preserve" text-anchor="middle" x="170.62" y="-42.75" font-family="Helvetica,sans-Serif" font-size="10.00">ImFusion::NotchedScrollBar</text>
</a>
</g>
</g>
<!-- Node0&#45;&gt;Node1 -->
<g id="edge1565_Node000000_Node000001" class="edge">
<title>Node0&#45;&gt;Node1</title>
<g id="a_edge1565_Node000000_Node000001"><a xlink:title=" ">
<path fill="none" stroke="#63b8ff" d="M74.85,-33.48C83.05,-34.62 91.84,-35.84 100.64,-37.06"/>
<polygon fill="#63b8ff" stroke="#63b8ff" points="75.6,-30.05 65.21,-32.14 74.64,-36.98 75.6,-30.05"/>
</a>
</g>
</g>
<!-- Node2 -->
<g id="Node000002" class="node">
<title>Node2</title>
<g id="a_Node000002"><a xlink:href="class_im_fusion_1_1_selection_scroll_bar.html" target="_top" xlink:title="Custom scrollbar to visualize data selection.">
<polygon fill="white" stroke="#666666" points="242,-19.25 99.25,-19.25 99.25,0 242,0 242,-19.25"/>
<text xml:space="preserve" text-anchor="middle" x="170.62" y="-5.75" font-family="Helvetica,sans-Serif" font-size="10.00">ImFusion::SelectionScrollBar</text>
</a>
</g>
</g>
<!-- Node0&#45;&gt;Node2 -->
<g id="edge1566_Node000000_Node000002" class="edge">
<title>Node0&#45;&gt;Node2</title>
<g id="a_edge1566_Node000000_Node000002"><a xlink:title=" ">
<path fill="none" stroke="#63b8ff" d="M74.89,-22.07C82.56,-21.06 90.75,-19.99 98.98,-18.91"/>
<polygon fill="#63b8ff" stroke="#63b8ff" points="74.67,-18.57 65.21,-23.34 75.58,-25.51 74.67,-18.57"/>
</a>
</g>
</g>
</g>
</svg>
