<?xml version="1.0" encoding="UTF-8" standalone="no"?>
<!DOCTYPE svg PUBLIC "-//W3C//DTD SVG 1.1//EN"
 "http://www.w3.org/Graphics/SVG/1.1/DTD/svg11.dtd">
<!-- Generated by graphviz version 14.1.4 (20260321.0153)
 -->
<!-- Title: Graphical Class Hierarchy Pages: 1 -->
<svg width="487pt" height="898pt"
 viewBox="0.00 0.00 487.00 898.00" xmlns="http://www.w3.org/2000/svg" xmlns:xlink="http://www.w3.org/1999/xlink">
<g id="graph0" class="graph" transform="scale(1 1) rotate(0) translate(4 893.88)">
<title>Graphical Class Hierarchy</title>
<!-- Node0 -->
<g id="Node000000" class="node">
<title>Node0</title>
<g id="a_Node000000"><a target="_parent" xlink:href="http://en.cppreference.com/w/cpp/utility/variant.html" xlink:title=" ">
<polygon fill="white" stroke="#666666" points="118,-381.88 0,-381.88 0,-362.62 118,-362.62 118,-381.88"/>
<text xml:space="preserve" text-anchor="middle" x="59" y="-368.38" font-family="Helvetica,sans-Serif" font-size="10.00">std::variant&lt; Types... &gt;</text>
</a>
</g>
</g>
<!-- Node1 -->
<g id="Node000001" class="node">
<title>Node1</title>
<g id="a_Node000001"><a xlink:href="struct_im_fusion_1_1_utils_1_1_variant.html" target="_top" xlink:title=" ">
<polygon fill="white" stroke="#666666" points="409.25,-889.88 223.75,-889.88 223.75,-780.62 409.25,-780.62 409.25,-889.88"/>
<text xml:space="preserve" text-anchor="start" x="231.75" y="-876.38" font-family="Helvetica,sans-Serif" font-size="10.00">ImFusion::Utils::Variant</text>
<text xml:space="preserve" text-anchor="start" x="231.75" y="-865.12" font-family="Helvetica,sans-Serif" font-size="10.00">&lt; TypedImage&lt; char &gt; *,</text>
<text xml:space="preserve" text-anchor="start" x="231.75" y="-853.88" font-family="Helvetica,sans-Serif" font-size="10.00"> TypedImage&lt; signed char</text>
<text xml:space="preserve" text-anchor="start" x="231.75" y="-842.62" font-family="Helvetica,sans-Serif" font-size="10.00"> &gt; *, TypedImage&lt; unsigned</text>
<text xml:space="preserve" text-anchor="start" x="231.75" y="-831.38" font-family="Helvetica,sans-Serif" font-size="10.00"> char &gt; *, TypedImage&lt; short</text>
<text xml:space="preserve" text-anchor="start" x="231.75" y="-820.12" font-family="Helvetica,sans-Serif" font-size="10.00"> &gt; *, TypedImage&lt; unsigned short</text>
<text xml:space="preserve" text-anchor="start" x="231.75" y="-808.88" font-family="Helvetica,sans-Serif" font-size="10.00"> &gt; *, TypedImage&lt; int &gt; *, TypedImage</text>
<text xml:space="preserve" text-anchor="start" x="231.75" y="-797.62" font-family="Helvetica,sans-Serif" font-size="10.00">&lt; unsigned int &gt; *, TypedImage&lt; float</text>
<text xml:space="preserve" text-anchor="middle" x="316.5" y="-786.38" font-family="Helvetica,sans-Serif" font-size="10.00"> &gt; *, TypedImage&lt; double &gt; * &gt;</text>
</a>
</g>
</g>
<!-- Node0&#45;&gt;Node1 -->
<g id="edge1601_Node000000_Node000001" class="edge">
<title>Node0&#45;&gt;Node1</title>
<g id="a_edge1601_Node000000_Node000001"><a xlink:title=" ">
<path fill="none" stroke="#63b8ff" d="M62.35,-393.25C71.02,-467.15 103.28,-713.81 154,-772.25 172.05,-793.05 197.83,-807.03 223.51,-816.4"/>
<polygon fill="#63b8ff" stroke="#63b8ff" points="65.88,-393.27 61.26,-383.74 58.92,-394.07 65.88,-393.27"/>
</a>
</g>
</g>
<!-- Node2 -->
<g id="Node000002" class="node">
<title>Node2</title>
<g id="a_Node000002"><a xlink:href="struct_im_fusion_1_1_utils_1_1_variant.html" target="_top" xlink:title=" ">
<polygon fill="white" stroke="#666666" points="448.62,-762.88 184.38,-762.88 184.38,-653.62 448.62,-653.62 448.62,-762.88"/>
<text xml:space="preserve" text-anchor="start" x="192.38" y="-749.38" font-family="Helvetica,sans-Serif" font-size="10.00">ImFusion::Utils::Variant</text>
<text xml:space="preserve" text-anchor="start" x="192.38" y="-738.12" font-family="Helvetica,sans-Serif" font-size="10.00">&lt; const TypedImage&lt; char</text>
<text xml:space="preserve" text-anchor="start" x="192.38" y="-726.88" font-family="Helvetica,sans-Serif" font-size="10.00"> &gt; *, const TypedImage&lt; signed</text>
<text xml:space="preserve" text-anchor="start" x="192.38" y="-715.62" font-family="Helvetica,sans-Serif" font-size="10.00"> char &gt; *, const TypedImage&lt;</text>
<text xml:space="preserve" text-anchor="start" x="192.38" y="-704.38" font-family="Helvetica,sans-Serif" font-size="10.00"> unsigned char &gt; *, const TypedImage</text>
<text xml:space="preserve" text-anchor="start" x="192.38" y="-693.12" font-family="Helvetica,sans-Serif" font-size="10.00">&lt; short &gt; *, const TypedImage&lt; unsigned</text>
<text xml:space="preserve" text-anchor="start" x="192.38" y="-681.88" font-family="Helvetica,sans-Serif" font-size="10.00"> short &gt; *, const TypedImage&lt; int &gt; *,</text>
<text xml:space="preserve" text-anchor="start" x="192.38" y="-670.62" font-family="Helvetica,sans-Serif" font-size="10.00"> const TypedImage&lt; unsigned int &gt; *, const</text>
<text xml:space="preserve" text-anchor="middle" x="316.5" y="-659.38" font-family="Helvetica,sans-Serif" font-size="10.00"> TypedImage&lt; float &gt; *, const TypedImage&lt; double &gt; * &gt;</text>
</a>
</g>
</g>
<!-- Node0&#45;&gt;Node2 -->
<g id="edge1602_Node000000_Node000002" class="edge">
<title>Node0&#45;&gt;Node2</title>
<g id="a_edge1602_Node000000_Node000002"><a xlink:title=" ">
<path fill="none" stroke="#63b8ff" d="M61.45,-393.43C65.98,-443.65 84.11,-571.18 154,-644.25 162.76,-653.4 172.98,-661.28 183.97,-668.04"/>
<polygon fill="#63b8ff" stroke="#63b8ff" points="64.95,-393.36 60.67,-383.67 57.97,-393.92 64.95,-393.36"/>
</a>
</g>
</g>
<!-- Node3 -->
<g id="Node000003" class="node">
<title>Node3</title>
<g id="a_Node000003"><a xlink:href="struct_im_fusion_1_1_utils_1_1_variant.html" target="_top" xlink:title=" ">
<polygon fill="white" stroke="#666666" points="385.62,-635.5 247.38,-635.5 247.38,-605 385.62,-605 385.62,-635.5"/>
<text xml:space="preserve" text-anchor="start" x="255.38" y="-622" font-family="Helvetica,sans-Serif" font-size="10.00">ImFusion::Utils::Variant</text>
<text xml:space="preserve" text-anchor="middle" x="316.5" y="-610.75" font-family="Helvetica,sans-Serif" font-size="10.00">&lt; Action, Separator, Menu &gt;</text>
</a>
</g>
</g>
<!-- Node0&#45;&gt;Node3 -->
<g id="edge1603_Node000000_Node000003" class="edge">
<title>Node0&#45;&gt;Node3</title>
<g id="a_edge1603_Node000000_Node000003"><a xlink:title=" ">
<path fill="none" stroke="#63b8ff" d="M62.14,-393.69C67.9,-439.12 88.08,-545.04 154,-596.25 180.08,-616.51 215.87,-623.3 247.13,-624.69"/>
<polygon fill="#63b8ff" stroke="#63b8ff" points="65.63,-393.4 61.02,-383.86 58.67,-394.19 65.63,-393.4"/>
</a>
</g>
</g>
<!-- Node4 -->
<g id="Node000004" class="node">
<title>Node4</title>
<g id="a_Node000004"><a xlink:href="struct_im_fusion_1_1_utils_1_1_variant.html" target="_top" xlink:title=" ">
<polygon fill="white" stroke="#666666" points="396.5,-586.75 236.5,-586.75 236.5,-533.75 396.5,-533.75 396.5,-586.75"/>
<text xml:space="preserve" text-anchor="start" x="244.5" y="-573.25" font-family="Helvetica,sans-Serif" font-size="10.00">ImFusion::Utils::Variant</text>
<text xml:space="preserve" text-anchor="start" x="244.5" y="-562" font-family="Helvetica,sans-Serif" font-size="10.00">&lt; std::monostate, ImFusion</text>
<text xml:space="preserve" text-anchor="start" x="244.5" y="-550.75" font-family="Helvetica,sans-Serif" font-size="10.00">::DisplayWidgetMulti *, ImFusion</text>
<text xml:space="preserve" text-anchor="middle" x="316.5" y="-539.5" font-family="Helvetica,sans-Serif" font-size="10.00">::GUI::RadiologyDisplay * &gt;</text>
</a>
</g>
</g>
<!-- Node0&#45;&gt;Node4 -->
<g id="edge1604_Node000000_Node000004" class="edge">
<title>Node0&#45;&gt;Node4</title>
<g id="a_edge1604_Node000000_Node000004"><a xlink:title=" ">
<path fill="none" stroke="#63b8ff" d="M66.6,-392.72C78.46,-426.04 106.66,-491.69 154,-525.25 177.87,-542.17 208.36,-551.17 236.4,-555.86"/>
<polygon fill="#63b8ff" stroke="#63b8ff" points="69.99,-391.79 63.45,-383.45 63.36,-394.04 69.99,-391.79"/>
</a>
</g>
</g>
<!-- Node5 -->
<g id="Node000005" class="node">
<title>Node5</title>
<g id="a_Node000005"><a xlink:href="struct_im_fusion_1_1_utils_1_1_variant.html" target="_top" xlink:title=" ">
<polygon fill="white" stroke="#666666" points="395.75,-516.12 237.25,-516.12 237.25,-474.38 395.75,-474.38 395.75,-516.12"/>
<text xml:space="preserve" text-anchor="start" x="245.25" y="-502.62" font-family="Helvetica,sans-Serif" font-size="10.00">ImFusion::Utils::Variant</text>
<text xml:space="preserve" text-anchor="start" x="245.25" y="-491.38" font-family="Helvetica,sans-Serif" font-size="10.00">&lt; ImFusion::ImageView2D</text>
<text xml:space="preserve" text-anchor="middle" x="316.5" y="-480.12" font-family="Helvetica,sans-Serif" font-size="10.00"> *, ImFusion::GUI::SliceView * &gt;</text>
</a>
</g>
</g>
<!-- Node0&#45;&gt;Node5 -->
<g id="edge1605_Node000000_Node000005" class="edge">
<title>Node0&#45;&gt;Node5</title>
<g id="a_edge1605_Node000000_Node000005"><a xlink:title=" ">
<path fill="none" stroke="#63b8ff" d="M73.72,-391.53C90.21,-413.13 119.93,-447.43 154,-465.25 179.27,-478.47 209.44,-485.93 236.83,-490.13"/>
<polygon fill="#63b8ff" stroke="#63b8ff" points="76.59,-389.51 67.83,-383.56 70.96,-393.68 76.59,-389.51"/>
</a>
</g>
</g>
<!-- Node6 -->
<g id="Node000006" class="node">
<title>Node6</title>
<g id="a_Node000006"><a xlink:href="struct_im_fusion_1_1_utils_1_1_variant.html" target="_top" xlink:title=" ">
<polygon fill="white" stroke="#666666" points="479,-456.62 154,-456.62 154,-369.88 479,-369.88 479,-456.62"/>
<text xml:space="preserve" text-anchor="start" x="162" y="-443.12" font-family="Helvetica,sans-Serif" font-size="10.00">ImFusion::Utils::Variant</text>
<text xml:space="preserve" text-anchor="start" x="162" y="-431.88" font-family="Helvetica,sans-Serif" font-size="10.00">&lt; ImFusion::GUI::PointBasedAnnotation</text>
<text xml:space="preserve" text-anchor="start" x="162" y="-420.62" font-family="Helvetica,sans-Serif" font-size="10.00">EventHandler::RegularMode, ImFusion</text>
<text xml:space="preserve" text-anchor="start" x="162" y="-409.38" font-family="Helvetica,sans-Serif" font-size="10.00">::GUI::PointBasedAnnotationEventHandler</text>
<text xml:space="preserve" text-anchor="start" x="162" y="-398.12" font-family="Helvetica,sans-Serif" font-size="10.00">::CreateMode, ImFusion::GUI::PointBasedAnnotationEvent</text>
<text xml:space="preserve" text-anchor="start" x="162" y="-386.88" font-family="Helvetica,sans-Serif" font-size="10.00">Handler::MovePointMode, ImFusion::GUI::PointBasedAnnotationEvent</text>
<text xml:space="preserve" text-anchor="middle" x="316.5" y="-375.62" font-family="Helvetica,sans-Serif" font-size="10.00">Handler::MoveAnnotationMode &gt;</text>
</a>
</g>
</g>
<!-- Node0&#45;&gt;Node6 -->
<g id="edge1606_Node000000_Node000006" class="edge">
<title>Node0&#45;&gt;Node6</title>
<g id="a_edge1606_Node000000_Node000006"><a xlink:title=" ">
<path fill="none" stroke="#63b8ff" d="M129.4,-383.39C137.16,-384.63 145.3,-385.94 153.64,-387.28"/>
<polygon fill="#63b8ff" stroke="#63b8ff" points="130.22,-379.97 119.79,-381.84 129.11,-386.88 130.22,-379.97"/>
</a>
</g>
</g>
<!-- Node7 -->
<g id="Node000007" class="node">
<title>Node7</title>
<g id="a_Node000007"><a xlink:href="struct_im_fusion_1_1_utils_1_1_variant.html" target="_top" xlink:title=" ">
<polygon fill="white" stroke="#666666" points="401.38,-352.12 231.62,-352.12 231.62,-310.38 401.38,-310.38 401.38,-352.12"/>
<text xml:space="preserve" text-anchor="start" x="239.62" y="-338.62" font-family="Helvetica,sans-Serif" font-size="10.00">ImFusion::Utils::Variant</text>
<text xml:space="preserve" text-anchor="start" x="239.62" y="-327.38" font-family="Helvetica,sans-Serif" font-size="10.00">&lt; ImFusion::ImageView3D</text>
<text xml:space="preserve" text-anchor="middle" x="316.5" y="-316.12" font-family="Helvetica,sans-Serif" font-size="10.00"> *, ImFusion::GUI::VolumeView * &gt;</text>
</a>
</g>
</g>
<!-- Node0&#45;&gt;Node7 -->
<g id="edge1607_Node000000_Node000007" class="edge">
<title>Node0&#45;&gt;Node7</title>
<g id="a_edge1607_Node000000_Node000007"><a xlink:title=" ">
<path fill="none" stroke="#63b8ff" d="M129.57,-361.09C160.97,-356.05 198.33,-350.05 231.29,-344.76"/>
<polygon fill="#63b8ff" stroke="#63b8ff" points="129.11,-357.62 119.79,-362.66 130.22,-364.53 129.11,-357.62"/>
</a>
</g>
</g>
<!-- Node8 -->
<g id="Node000008" class="node">
<title>Node8</title>
<g id="a_Node000008"><a xlink:href="struct_im_fusion_1_1_utils_1_1_variant.html" target="_top" xlink:title=" ">
<polygon fill="white" stroke="#666666" points="386,-292.12 247,-292.12 247,-250.38 386,-250.38 386,-292.12"/>
<text xml:space="preserve" text-anchor="start" x="255" y="-278.62" font-family="Helvetica,sans-Serif" font-size="10.00">ImFusion::Utils::Variant</text>
<text xml:space="preserve" text-anchor="start" x="255" y="-267.38" font-family="Helvetica,sans-Serif" font-size="10.00">&lt; ImFusion::InteractiveView</text>
<text xml:space="preserve" text-anchor="middle" x="316.5" y="-256.12" font-family="Helvetica,sans-Serif" font-size="10.00"> *, ImFusion::GUI::View * &gt;</text>
</a>
</g>
</g>
<!-- Node0&#45;&gt;Node8 -->
<g id="edge1608_Node000000_Node000008" class="edge">
<title>Node0&#45;&gt;Node8</title>
<g id="a_edge1608_Node000000_Node000008"><a xlink:title=" ">
<path fill="none" stroke="#63b8ff" d="M78.23,-354.32C96.04,-337.88 124.68,-314.18 154,-301.25 182.96,-288.48 217.17,-281.14 246.63,-276.93"/>
<polygon fill="#63b8ff" stroke="#63b8ff" points="75.9,-351.7 71.05,-361.12 80.72,-356.78 75.9,-351.7"/>
</a>
</g>
</g>
<!-- Node9 -->
<g id="Node000009" class="node">
<title>Node9</title>
<g id="a_Node000009"><a xlink:href="struct_im_fusion_1_1_utils_1_1_variant.html" target="_top" xlink:title=" ">
<polygon fill="white" stroke="#666666" points="385.25,-232.5 247.75,-232.5 247.75,-202 385.25,-202 385.25,-232.5"/>
<text xml:space="preserve" text-anchor="start" x="255.75" y="-219" font-family="Helvetica,sans-Serif" font-size="10.00">ImFusion::Utils::Variant</text>
<text xml:space="preserve" text-anchor="middle" x="316.5" y="-207.75" font-family="Helvetica,sans-Serif" font-size="10.00">&lt; None, Regular, Irregular &gt;</text>
</a>
</g>
</g>
<!-- Node0&#45;&gt;Node9 -->
<g id="edge1609_Node000000_Node000009" class="edge">
<title>Node0&#45;&gt;Node9</title>
<g id="a_edge1609_Node000000_Node000009"><a xlink:title=" ">
<path fill="none" stroke="#63b8ff" d="M68.35,-351.89C81.68,-322.19 110.76,-267.64 154,-241.25 181.7,-224.34 216.93,-217.76 247.41,-215.64"/>
<polygon fill="#63b8ff" stroke="#63b8ff" points="65.21,-350.32 64.47,-360.89 71.64,-353.09 65.21,-350.32"/>
</a>
</g>
</g>
<!-- Node10 -->
<g id="Node000010" class="node">
<title>Node10</title>
<g id="a_Node000010"><a xlink:href="struct_im_fusion_1_1_utils_1_1_variant.html" target="_top" xlink:title=" ">
<polygon fill="white" stroke="#666666" points="409.62,-184.38 223.38,-184.38 223.38,-120.12 409.62,-120.12 409.62,-184.38"/>
<text xml:space="preserve" text-anchor="start" x="231.38" y="-170.88" font-family="Helvetica,sans-Serif" font-size="10.00">ImFusion::Utils::Variant</text>
<text xml:space="preserve" text-anchor="start" x="231.38" y="-159.62" font-family="Helvetica,sans-Serif" font-size="10.00">&lt; std::unique_ptr&lt; ImFusion</text>
<text xml:space="preserve" text-anchor="start" x="231.38" y="-148.38" font-family="Helvetica,sans-Serif" font-size="10.00">::PropertiesWidget &gt;, std</text>
<text xml:space="preserve" text-anchor="start" x="231.38" y="-137.12" font-family="Helvetica,sans-Serif" font-size="10.00">::unique_ptr&lt; ImFusion::SettingsDialog</text>
<text xml:space="preserve" text-anchor="middle" x="316.5" y="-125.88" font-family="Helvetica,sans-Serif" font-size="10.00">::CustomSettingsWidget &gt; &gt;</text>
</a>
</g>
</g>
<!-- Node0&#45;&gt;Node10 -->
<g id="edge1610_Node000000_Node000010" class="edge">
<title>Node0&#45;&gt;Node10</title>
<g id="a_edge1610_Node000000_Node000010"><a xlink:title=" ">
<path fill="none" stroke="#63b8ff" d="M65.01,-351.21C75.09,-313.54 101.51,-234.66 154,-193.25 173.76,-177.66 198.74,-167.93 223.11,-161.88"/>
<polygon fill="#63b8ff" stroke="#63b8ff" points="61.63,-350.27 62.57,-360.82 68.42,-351.99 61.63,-350.27"/>
</a>
</g>
</g>
<!-- Node11 -->
<g id="Node000011" class="node">
<title>Node11</title>
<g id="a_Node000011"><a xlink:href="struct_im_fusion_1_1_utils_1_1_variant.html" target="_top" xlink:title=" ">
<polygon fill="white" stroke="#666666" points="390.12,-101.75 242.88,-101.75 242.88,-48.75 390.12,-48.75 390.12,-101.75"/>
<text xml:space="preserve" text-anchor="start" x="250.88" y="-88.25" font-family="Helvetica,sans-Serif" font-size="10.00">ImFusion::Utils::Variant</text>
<text xml:space="preserve" text-anchor="start" x="250.88" y="-77" font-family="Helvetica,sans-Serif" font-size="10.00">&lt; std::monostate, ImFusion</text>
<text xml:space="preserve" text-anchor="start" x="250.88" y="-65.75" font-family="Helvetica,sans-Serif" font-size="10.00">::ViewGroup *, ImFusion::GUI</text>
<text xml:space="preserve" text-anchor="middle" x="316.5" y="-54.5" font-family="Helvetica,sans-Serif" font-size="10.00">::RadiologyViewGroup * &gt;</text>
</a>
</g>
</g>
<!-- Node0&#45;&gt;Node11 -->
<g id="edge1611_Node000000_Node000011" class="edge">
<title>Node0&#45;&gt;Node11</title>
<g id="a_edge1611_Node000000_Node000011"><a xlink:title=" ">
<path fill="none" stroke="#63b8ff" d="M61.02,-351.18C64.62,-301.36 80.86,-175.68 154,-111.25 178.14,-89.98 212.07,-80.43 242.6,-76.42"/>
<polygon fill="#63b8ff" stroke="#63b8ff" points="57.54,-350.67 60.43,-360.86 64.53,-351.09 57.54,-350.67"/>
</a>
</g>
</g>
<!-- Node12 -->
<g id="Node000012" class="node">
<title>Node12</title>
<g id="a_Node000012"><a xlink:href="struct_im_fusion_1_1_utils_1_1_variant.html" target="_top" xlink:title="Specialization of std::variant offering additional convenience member functions for functionality tha...">
<polygon fill="white" stroke="#666666" points="375.88,-30.5 257.12,-30.5 257.12,0 375.88,0 375.88,-30.5"/>
<text xml:space="preserve" text-anchor="start" x="265.12" y="-17" font-family="Helvetica,sans-Serif" font-size="10.00">ImFusion::Utils::Variant</text>
<text xml:space="preserve" text-anchor="middle" x="316.5" y="-5.75" font-family="Helvetica,sans-Serif" font-size="10.00">&lt; Types &gt;</text>
</a>
</g>
</g>
<!-- Node0&#45;&gt;Node12 -->
<g id="edge1612_Node000000_Node000012" class="edge">
<title>Node0&#45;&gt;Node12</title>
<g id="a_edge1612_Node000000_Node000012"><a xlink:title=" ">
<path fill="none" stroke="#63b8ff" d="M62.99,-351.11C72.79,-284.77 106.16,-82.57 154,-40.25 181.63,-15.81 222.84,-9.75 256.72,-9.7"/>
<polygon fill="#63b8ff" stroke="#63b8ff" points="59.57,-350.27 61.6,-360.67 66.5,-351.27 59.57,-350.27"/>
</a>
</g>
</g>
</g>
</svg>
