<?xml version="1.0" encoding="UTF-8" standalone="no"?>
<!DOCTYPE svg PUBLIC "-//W3C//DTD SVG 1.1//EN"
 "http://www.w3.org/Graphics/SVG/1.1/DTD/svg11.dtd">
<!-- Generated by graphviz version 14.1.4 (20260321.0153)
 -->
<!-- Title: Graphical Class Hierarchy Pages: 1 -->
<svg width="647pt" height="39pt"
 viewBox="0.00 0.00 647.00 39.00" xmlns="http://www.w3.org/2000/svg" xmlns:xlink="http://www.w3.org/1999/xlink">
<g id="graph0" class="graph" transform="scale(1 1) rotate(0) translate(4 34.5)">
<title>Graphical Class Hierarchy</title>
<!-- Node0 -->
<g id="Node000000" class="node">
<title>Node0</title>
<g id="a_Node000000"><a target="_parent" xlink:href="http://en.cppreference.com/w/cpp/io/ios_base.html" xlink:title=" ">
<polygon fill="white" stroke="#666666" points="74.5,-24.88 0,-24.88 0,-5.63 74.5,-5.63 74.5,-24.88"/>
<text xml:space="preserve" text-anchor="middle" x="37.25" y="-11.38" font-family="Helvetica,sans-Serif" font-size="10.00">std::ios_base</text>
</a>
</g>
</g>
<!-- Node1 -->
<g id="Node000001" class="node">
<title>Node1</title>
<g id="a_Node000001"><a target="_parent" xlink:href="http://en.cppreference.com/w/cpp/io/basic_ios.html" xlink:title=" ">
<polygon fill="white" stroke="#666666" points="226.25,-24.88 110.5,-24.88 110.5,-5.63 226.25,-5.63 226.25,-24.88"/>
<text xml:space="preserve" text-anchor="middle" x="168.38" y="-11.38" font-family="Helvetica,sans-Serif" font-size="10.00">std::basic_ios&lt; Char &gt;</text>
</a>
</g>
</g>
<!-- Node0&#45;&gt;Node1 -->
<g id="edge1597_Node000000_Node000001" class="edge">
<title>Node0&#45;&gt;Node1</title>
<g id="a_edge1597_Node000000_Node000001"><a xlink:title=" ">
<path fill="none" stroke="#63b8ff" d="M86.42,-15.25C94.22,-15.25 102.36,-15.25 110.35,-15.25"/>
<polygon fill="#63b8ff" stroke="#63b8ff" points="86.42,-11.75 76.42,-15.25 86.42,-18.75 86.42,-11.75"/>
</a>
</g>
</g>
<!-- Node2 -->
<g id="Node000002" class="node">
<title>Node2</title>
<g id="a_Node000002"><a target="_parent" xlink:href="http://en.cppreference.com/w/cpp/io/basic_istream.html" xlink:title=" ">
<polygon fill="white" stroke="#666666" points="358.5,-30.5 262.25,-30.5 262.25,0 358.5,0 358.5,-30.5"/>
<text xml:space="preserve" text-anchor="start" x="270.25" y="-17" font-family="Helvetica,sans-Serif" font-size="10.00">std::basic_istream</text>
<text xml:space="preserve" text-anchor="middle" x="310.38" y="-5.75" font-family="Helvetica,sans-Serif" font-size="10.00">&lt; Char &gt;</text>
</a>
</g>
</g>
<!-- Node1&#45;&gt;Node2 -->
<g id="edge1598_Node000001_Node000002" class="edge">
<title>Node1&#45;&gt;Node2</title>
<g id="a_edge1598_Node000001_Node000002"><a xlink:title=" ">
<path fill="none" stroke="#63b8ff" d="M238.15,-15.25C246.27,-15.25 254.42,-15.25 262.15,-15.25"/>
<polygon fill="#63b8ff" stroke="#63b8ff" points="238.24,-11.75 228.24,-15.25 238.24,-18.75 238.24,-11.75"/>
</a>
</g>
</g>
<!-- Node3 -->
<g id="Node000003" class="node">
<title>Node3</title>
<g id="a_Node000003"><a target="_parent" xlink:href="http://en.cppreference.com/w/cpp/io/basic_istream.html" xlink:title=" ">
<polygon fill="white" stroke="#666666" points="462.25,-24.88 394.5,-24.88 394.5,-5.63 462.25,-5.63 462.25,-24.88"/>
<text xml:space="preserve" text-anchor="middle" x="428.38" y="-11.38" font-family="Helvetica,sans-Serif" font-size="10.00">std::istream</text>
</a>
</g>
</g>
<!-- Node2&#45;&gt;Node3 -->
<g id="edge1599_Node000002_Node000003" class="edge">
<title>Node2&#45;&gt;Node3</title>
<g id="a_edge1599_Node000002_Node000003"><a xlink:title=" ">
<path fill="none" stroke="#63b8ff" d="M370.15,-15.25C378.44,-15.25 386.72,-15.25 394.29,-15.25"/>
<polygon fill="#63b8ff" stroke="#63b8ff" points="370.4,-11.75 360.4,-15.25 370.4,-18.75 370.4,-11.75"/>
</a>
</g>
</g>
<!-- Node4 -->
<g id="Node000004" class="node">
<title>Node4</title>
<g id="a_Node000004"><a xlink:href="class_im_fusion_1_1_byte_buffer_stream.html" target="_top" xlink:title="Specialization of std::istream to easily extract data from a ByteBufferView.">
<polygon fill="white" stroke="#666666" points="638.75,-24.88 498.25,-24.88 498.25,-5.63 638.75,-5.63 638.75,-24.88"/>
<text xml:space="preserve" text-anchor="middle" x="568.5" y="-11.38" font-family="Helvetica,sans-Serif" font-size="10.00">ImFusion::ByteBufferStream</text>
</a>
</g>
</g>
<!-- Node3&#45;&gt;Node4 -->
<g id="edge1600_Node000003_Node000004" class="edge">
<title>Node3&#45;&gt;Node4</title>
<g id="a_edge1600_Node000003_Node000004"><a xlink:title=" ">
<path fill="none" stroke="#63b8ff" d="M473.72,-15.25C481.42,-15.25 489.58,-15.25 497.77,-15.25"/>
<polygon fill="#63b8ff" stroke="#63b8ff" points="473.97,-11.75 463.97,-15.25 473.97,-18.75 473.97,-11.75"/>
</a>
</g>
</g>
</g>
</svg>
