<?xml version="1.0" encoding="UTF-8" standalone="no"?>
<!DOCTYPE svg PUBLIC "-//W3C//DTD SVG 1.1//EN"
 "http://www.w3.org/Graphics/SVG/1.1/DTD/svg11.dtd">
<!-- Generated by graphviz version 14.1.4 (20260321.0153)
 -->
<!-- Title: Graphical Class Hierarchy Pages: 1 -->
<svg width="231pt" height="64pt"
 viewBox="0.00 0.00 231.00 64.00" xmlns="http://www.w3.org/2000/svg" xmlns:xlink="http://www.w3.org/1999/xlink">
<g id="graph0" class="graph" transform="scale(1 1) rotate(0) translate(4 60.25)">
<title>Graphical Class Hierarchy</title>
<!-- Node0 -->
<g id="Node000000" class="node">
<title>Node0</title>
<g id="a_Node000000"><a xlink:title=" ">
<polygon fill="#e0e0e0" stroke="#999999" points="47.5,-37.25 0,-37.25 0,-18 47.5,-18 47.5,-37.25"/>
<text xml:space="preserve" text-anchor="middle" x="23.75" y="-23.75" font-family="Helvetica,sans-Serif" font-size="10.00">QMenu</text>
</a>
</g>
</g>
<!-- Node1 -->
<g id="Node000001" class="node">
<title>Node1</title>
<g id="a_Node000001"><a xlink:href="class_im_fusion_1_1_data_widget_menu.html" target="_top" xlink:title="Context menu of the DataWidget.">
<polygon fill="white" stroke="#666666" points="222.12,-56.25 83.88,-56.25 83.88,-37 222.12,-37 222.12,-56.25"/>
<text xml:space="preserve" text-anchor="middle" x="153" y="-42.75" font-family="Helvetica,sans-Serif" font-size="10.00">ImFusion::DataWidgetMenu</text>
</a>
</g>
</g>
<!-- Node0&#45;&gt;Node1 -->
<g id="edge1563_Node000000_Node000001" class="edge">
<title>Node0&#45;&gt;Node1</title>
<g id="a_edge1563_Node000000_Node000001"><a xlink:title=" ">
<path fill="none" stroke="#63b8ff" d="M59.1,-32.75C66.99,-33.93 75.65,-35.22 84.41,-36.53"/>
<polygon fill="#63b8ff" stroke="#63b8ff" points="59.7,-29.3 49.29,-31.29 58.66,-36.23 59.7,-29.3"/>
</a>
</g>
</g>
<!-- Node2 -->
<g id="Node000002" class="node">
<title>Node2</title>
<g id="a_Node000002"><a xlink:href="class_im_fusion_1_1_recent_files_menu.html" target="_top" xlink:title="QtMenu that displays recent files and favourites.">
<polygon fill="white" stroke="#666666" points="222.5,-19.25 83.5,-19.25 83.5,0 222.5,0 222.5,-19.25"/>
<text xml:space="preserve" text-anchor="middle" x="153" y="-5.75" font-family="Helvetica,sans-Serif" font-size="10.00">ImFusion::RecentFilesMenu</text>
</a>
</g>
</g>
<!-- Node0&#45;&gt;Node2 -->
<g id="edge1564_Node000000_Node000002" class="edge">
<title>Node0&#45;&gt;Node2</title>
<g id="a_edge1564_Node000000_Node000002"><a xlink:title=" ">
<path fill="none" stroke="#63b8ff" d="M58.95,-22.79C66.48,-21.72 74.71,-20.56 83.06,-19.38"/>
<polygon fill="#63b8ff" stroke="#63b8ff" points="58.7,-19.29 49.29,-24.15 59.68,-26.22 58.7,-19.29"/>
</a>
</g>
</g>
</g>
</svg>
