<?xml version="1.0" encoding="UTF-8" standalone="no"?>
<!DOCTYPE svg PUBLIC "-//W3C//DTD SVG 1.1//EN"
 "http://www.w3.org/Graphics/SVG/1.1/DTD/svg11.dtd">
<!-- Generated by graphviz version 14.1.4 (20260321.0153)
 -->
<!-- Title: Graphical Class Hierarchy Pages: 1 -->
<svg width="336pt" height="188pt"
 viewBox="0.00 0.00 336.00 188.00" xmlns="http://www.w3.org/2000/svg" xmlns:xlink="http://www.w3.org/1999/xlink">
<g id="graph0" class="graph" transform="scale(1 1) rotate(0) translate(4 183.5)">
<title>Graphical Class Hierarchy</title>
<!-- Node0 -->
<g id="Node000000" class="node">
<title>Node0</title>
<g id="a_Node000000"><a xlink:href="class_im_fusion_1_1_signal_base.html" target="_top" xlink:title="Base interface for Signals.">
<polygon fill="white" stroke="#666666" points="127,-70.88 15,-70.88 15,-51.62 127,-51.62 127,-70.88"/>
<text xml:space="preserve" text-anchor="middle" x="71" y="-57.38" font-family="Helvetica,sans-Serif" font-size="10.00">ImFusion::SignalBase</text>
</a>
</g>
</g>
<!-- Node1 -->
<g id="Node000001" class="node">
<title>Node1</title>
<g id="a_Node000001"><a xlink:href="class_im_fusion_1_1_signal_impl.html" target="_top" xlink:title=" ">
<polygon fill="white" stroke="#666666" points="308,-177.5 197.5,-177.5 197.5,-147 308,-147 308,-177.5"/>
<text xml:space="preserve" text-anchor="start" x="205.5" y="-164" font-family="Helvetica,sans-Serif" font-size="10.00">ImFusion::SignalImpl</text>
<text xml:space="preserve" text-anchor="middle" x="252.75" y="-152.75" font-family="Helvetica,sans-Serif" font-size="10.00">&lt; false, ArgTypes... &gt;</text>
</a>
</g>
</g>
<!-- Node0&#45;&gt;Node1 -->
<g id="edge1518_Node000000_Node000001" class="edge">
<title>Node0&#45;&gt;Node1</title>
<g id="a_edge1518_Node000000_Node000001"><a xlink:title=" ">
<path fill="none" stroke="#63b8ff" d="M135.91,-76.27C138.02,-77.49 140.06,-78.82 142,-80.25 166.1,-98.05 154.46,-118.71 178,-137.25 183.74,-141.77 190.33,-145.49 197.17,-148.56"/>
<polygon fill="#63b8ff" stroke="#63b8ff" points="137.44,-73.12 126.91,-71.9 134.38,-79.42 137.44,-73.12"/>
</a>
</g>
</g>
<!-- Node3 -->
<g id="Node000003" class="node">
<title>Node3</title>
<g id="a_Node000003"><a xlink:href="class_im_fusion_1_1_signal_impl.html" target="_top" xlink:title=" ">
<polygon fill="white" stroke="#666666" points="306.88,-128.5 198.62,-128.5 198.62,-98 306.88,-98 306.88,-128.5"/>
<text xml:space="preserve" text-anchor="start" x="206.62" y="-115" font-family="Helvetica,sans-Serif" font-size="10.00">ImFusion::SignalImpl</text>
<text xml:space="preserve" text-anchor="middle" x="252.75" y="-103.75" font-family="Helvetica,sans-Serif" font-size="10.00">&lt; true, ArgTypes... &gt;</text>
</a>
</g>
</g>
<!-- Node0&#45;&gt;Node3 -->
<g id="edge1519_Node000000_Node000003" class="edge">
<title>Node0&#45;&gt;Node3</title>
<g id="a_edge1519_Node000000_Node000003"><a xlink:title=" ">
<path fill="none" stroke="#63b8ff" d="M120.84,-74.32C127.94,-76.28 135.17,-78.3 142,-80.25 161.13,-85.72 182.06,-91.95 200.47,-97.52"/>
<polygon fill="#63b8ff" stroke="#63b8ff" points="121.86,-70.98 111.29,-71.72 120.02,-77.73 121.86,-70.98"/>
</a>
</g>
</g>
<!-- Node6 -->
<g id="Node000006" class="node">
<title>Node6</title>
<g id="a_Node000006"><a xlink:href="class_im_fusion_1_1_deprecated_signal.html" target="_top" xlink:title="Deprecation layer for signals.">
<polygon fill="white" stroke="#666666" points="327.5,-30.5 178,-30.5 178,0 327.5,0 327.5,-30.5"/>
<text xml:space="preserve" text-anchor="start" x="186" y="-17" font-family="Helvetica,sans-Serif" font-size="10.00">ImFusion::DeprecatedSignal</text>
<text xml:space="preserve" text-anchor="middle" x="252.75" y="-5.75" font-family="Helvetica,sans-Serif" font-size="10.00">&lt; MainSignalType, ArgTypes &gt;</text>
</a>
</g>
</g>
<!-- Node0&#45;&gt;Node6 -->
<g id="edge1520_Node000000_Node000006" class="edge">
<title>Node0&#45;&gt;Node6</title>
<g id="a_edge1520_Node000000_Node000006"><a xlink:title=" ">
<path fill="none" stroke="#63b8ff" d="M122.45,-48.34C143.58,-42.93 168.33,-36.6 190.49,-30.93"/>
<polygon fill="#63b8ff" stroke="#63b8ff" points="121.73,-44.91 112.91,-50.78 123.47,-51.69 121.73,-44.91"/>
</a>
</g>
</g>
<!-- Node5 -->
<g id="Node000005" class="node">
<title>Node5</title>
<g id="a_Node000005"><a xlink:href="class_im_fusion_1_1_signal_impl.html" target="_top" xlink:title="Implementation for a specific signal with the given signature.">
<polygon fill="white" stroke="#666666" points="315.5,-79.5 190,-79.5 190,-49 315.5,-49 315.5,-79.5"/>
<text xml:space="preserve" text-anchor="start" x="198" y="-66" font-family="Helvetica,sans-Serif" font-size="10.00">ImFusion::SignalImpl</text>
<text xml:space="preserve" text-anchor="middle" x="252.75" y="-54.75" font-family="Helvetica,sans-Serif" font-size="10.00">&lt; UseMutex, ArgTypes &gt;</text>
</a>
</g>
</g>
<!-- Node0&#45;&gt;Node5 -->
<g id="edge1521_Node000000_Node000005" class="edge">
<title>Node0&#45;&gt;Node5</title>
<g id="a_edge1521_Node000000_Node000005"><a xlink:title=" ">
<path fill="none" stroke="#63b8ff" d="M138.72,-62.36C155.39,-62.64 173.2,-62.94 189.64,-63.21"/>
<polygon fill="#63b8ff" stroke="#63b8ff" points="138.97,-58.87 128.91,-62.2 138.85,-65.87 138.97,-58.87"/>
</a>
</g>
</g>
<!-- Node2 -->
<g id="Node000002" class="node">
<title>Node2</title>
<g id="a_Node000002"><a xlink:href="class_im_fusion_1_1_signal_debouncer.html" target="_top" xlink:title=" ">
<polygon fill="white" stroke="#666666" points="142,-131.12 0,-131.12 0,-89.38 142,-89.38 142,-131.12"/>
<text xml:space="preserve" text-anchor="start" x="8" y="-117.62" font-family="Helvetica,sans-Serif" font-size="10.00">ImFusion::SignalDebouncer</text>
<text xml:space="preserve" text-anchor="start" x="8" y="-106.38" font-family="Helvetica,sans-Serif" font-size="10.00">&lt; SignalImpl&lt; UseMutex,</text>
<text xml:space="preserve" text-anchor="middle" x="71" y="-95.12" font-family="Helvetica,sans-Serif" font-size="10.00"> ArgTypes... &gt;, ArgTypes... &gt;</text>
</a>
</g>
</g>
<!-- Node2&#45;&gt;Node1 -->
<g id="edge1522_Node000002_Node000001" class="edge">
<title>Node2&#45;&gt;Node1</title>
<g id="a_edge1522_Node000002_Node000001"><a xlink:title=" ">
<path fill="none" stroke="#63b8ff" d="M153.11,-133.71C168.1,-138.05 183.43,-142.49 197.39,-146.52"/>
<polygon fill="#63b8ff" stroke="#63b8ff" points="154.3,-130.42 143.72,-131 152.36,-137.14 154.3,-130.42"/>
</a>
</g>
</g>
<!-- Node2&#45;&gt;Node3 -->
<g id="edge1523_Node000002_Node000003" class="edge">
<title>Node2&#45;&gt;Node3</title>
<g id="a_edge1523_Node000002_Node000003"><a xlink:title=" ">
<path fill="none" stroke="#63b8ff" d="M153.73,-111.61C168.83,-111.87 184.23,-112.12 198.23,-112.36"/>
<polygon fill="#63b8ff" stroke="#63b8ff" points="153.84,-108.12 143.78,-111.45 153.72,-115.11 153.84,-108.12"/>
</a>
</g>
</g>
<!-- Node2&#45;&gt;Node5 -->
<g id="edge1524_Node000002_Node000005" class="edge">
<title>Node2&#45;&gt;Node5</title>
<g id="a_edge1524_Node000002_Node000005"><a xlink:title=" ">
<path fill="none" stroke="#63b8ff" d="M153.15,-89.48C165.63,-86.29 178.33,-83.04 190.29,-79.98"/>
<polygon fill="#63b8ff" stroke="#63b8ff" points="152.55,-86.02 143.73,-91.89 154.29,-92.8 152.55,-86.02"/>
</a>
</g>
</g>
<!-- Node4 -->
<g id="Node000004" class="node">
<title>Node4</title>
<g id="a_Node000004"><a xlink:href="struct_im_fusion_1_1_signal_mutex_proxy.html" target="_top" xlink:title=" ">
<polygon fill="white" stroke="#666666" points="142,-179.5 0,-179.5 0,-149 142,-149 142,-179.5"/>
<text xml:space="preserve" text-anchor="start" x="8" y="-166" font-family="Helvetica,sans-Serif" font-size="10.00">ImFusion::SignalMutexProxy</text>
<text xml:space="preserve" text-anchor="middle" x="71" y="-154.75" font-family="Helvetica,sans-Serif" font-size="10.00">&lt; UseMutex &gt;</text>
</a>
</g>
</g>
<!-- Node4&#45;&gt;Node1 -->
<g id="edge1525_Node000004_Node000001" class="edge">
<title>Node4&#45;&gt;Node1</title>
<g id="a_edge1525_Node000004_Node000001"><a xlink:title=" ">
<path fill="none" stroke="#8b1a1a" d="M153.48,-163.34C168.26,-163.18 183.34,-163.01 197.11,-162.86"/>
<polygon fill="#8b1a1a" stroke="#8b1a1a" points="153.74,-159.84 143.78,-163.45 153.82,-166.84 153.74,-159.84"/>
</a>
</g>
</g>
<!-- Node4&#45;&gt;Node3 -->
<g id="edge1526_Node000004_Node000003" class="edge">
<title>Node4&#45;&gt;Node3</title>
<g id="a_edge1526_Node000004_Node000003"><a xlink:title=" ">
<path fill="none" stroke="#8b1a1a" d="M138.21,-145.46C158.03,-139.84 179.5,-133.75 198.38,-128.39"/>
<polygon fill="#8b1a1a" stroke="#8b1a1a" points="137.52,-142.02 128.85,-148.12 139.43,-148.76 137.52,-142.02"/>
</a>
</g>
</g>
<!-- Node4&#45;&gt;Node5 -->
<g id="edge1527_Node000004_Node000005" class="edge">
<title>Node4&#45;&gt;Node5</title>
<g id="a_edge1527_Node000004_Node000005"><a xlink:title=" ">
<path fill="none" stroke="#8b1a1a" d="M137.93,-143.1C139.32,-142.19 140.68,-141.24 142,-140.25 164.2,-123.61 155.77,-105.85 178,-89.25 182.77,-85.69 188.07,-82.62 193.59,-79.97"/>
<polygon fill="#8b1a1a" stroke="#8b1a1a" points="136.55,-139.85 129.59,-147.84 140.01,-145.94 136.55,-139.85"/>
</a>
</g>
</g>
</g>
</svg>
