<?xml version="1.0" encoding="UTF-8" standalone="no"?>
<!DOCTYPE svg PUBLIC "-//W3C//DTD SVG 1.1//EN"
 "http://www.w3.org/Graphics/SVG/1.1/DTD/svg11.dtd">
<!-- Generated by graphviz version 14.1.4 (20260321.0153)
 -->
<!-- Title: Graphical Class Hierarchy Pages: 1 -->
<svg width="255pt" height="88pt"
 viewBox="0.00 0.00 255.00 88.00" xmlns="http://www.w3.org/2000/svg" xmlns:xlink="http://www.w3.org/1999/xlink">
<g id="graph0" class="graph" transform="scale(1 1) rotate(0) translate(4 83.5)">
<title>Graphical Class Hierarchy</title>
<!-- Node0 -->
<g id="Node000000" class="node">
<title>Node0</title>
<g id="a_Node000000"><a xlink:href="class_im_fusion_1_1_geometry_1_1_line_base.html" target="_top" xlink:title="Common interface of Line and LineSegment.">
<polygon fill="white" stroke="#666666" points="105.25,-54.5 0,-54.5 0,-24 105.25,-24 105.25,-54.5"/>
<text xml:space="preserve" text-anchor="start" x="8" y="-41" font-family="Helvetica,sans-Serif" font-size="10.00">ImFusion::Geometry</text>
<text xml:space="preserve" text-anchor="middle" x="52.62" y="-29.75" font-family="Helvetica,sans-Serif" font-size="10.00">::LineBase</text>
</a>
</g>
</g>
<!-- Node1 -->
<g id="Node000001" class="node">
<title>Node1</title>
<g id="a_Node000001"><a xlink:href="class_im_fusion_1_1_geometry_1_1_line.html" target="_top" xlink:title="Class representing a full line, i.e.">
<polygon fill="white" stroke="#666666" points="246.5,-79.5 141.25,-79.5 141.25,-49 246.5,-49 246.5,-79.5"/>
<text xml:space="preserve" text-anchor="start" x="149.25" y="-66" font-family="Helvetica,sans-Serif" font-size="10.00">ImFusion::Geometry</text>
<text xml:space="preserve" text-anchor="middle" x="193.88" y="-54.75" font-family="Helvetica,sans-Serif" font-size="10.00">::Line</text>
</a>
</g>
</g>
<!-- Node0&#45;&gt;Node1 -->
<g id="edge1481_Node000000_Node000001" class="edge">
<title>Node0&#45;&gt;Node1</title>
<g id="a_edge1481_Node000000_Node000001"><a xlink:title=" ">
<path fill="none" stroke="#63b8ff" d="M116.79,-50.59C124.89,-52.04 133.1,-53.52 140.98,-54.93"/>
<polygon fill="#63b8ff" stroke="#63b8ff" points="117.43,-47.15 106.97,-48.83 116.19,-54.04 117.43,-47.15"/>
</a>
</g>
</g>
<!-- Node2 -->
<g id="Node000002" class="node">
<title>Node2</title>
<g id="a_Node000002"><a xlink:href="class_im_fusion_1_1_geometry_1_1_line_segment.html" target="_top" xlink:title="Class representing a line segment, i.e.">
<polygon fill="white" stroke="#666666" points="246.5,-30.5 141.25,-30.5 141.25,0 246.5,0 246.5,-30.5"/>
<text xml:space="preserve" text-anchor="start" x="149.25" y="-17" font-family="Helvetica,sans-Serif" font-size="10.00">ImFusion::Geometry</text>
<text xml:space="preserve" text-anchor="middle" x="193.88" y="-5.75" font-family="Helvetica,sans-Serif" font-size="10.00">::LineSegment</text>
</a>
</g>
</g>
<!-- Node0&#45;&gt;Node2 -->
<g id="edge1482_Node000000_Node000002" class="edge">
<title>Node0&#45;&gt;Node2</title>
<g id="a_edge1482_Node000000_Node000002"><a xlink:title=" ">
<path fill="none" stroke="#63b8ff" d="M116.79,-28.36C124.89,-26.97 133.1,-25.55 140.98,-24.19"/>
<polygon fill="#63b8ff" stroke="#63b8ff" points="116.23,-24.91 106.97,-30.06 117.42,-31.81 116.23,-24.91"/>
</a>
</g>
</g>
</g>
</svg>
