<?xml version="1.0" encoding="UTF-8" standalone="no"?>
<!DOCTYPE svg PUBLIC "-//W3C//DTD SVG 1.1//EN"
 "http://www.w3.org/Graphics/SVG/1.1/DTD/svg11.dtd">
<!-- Generated by graphviz version 14.1.4 (20260321.0153)
 -->
<!-- Title: Graphical Class Hierarchy Pages: 1 -->
<svg width="232pt" height="113pt"
 viewBox="0.00 0.00 232.00 113.00" xmlns="http://www.w3.org/2000/svg" xmlns:xlink="http://www.w3.org/1999/xlink">
<g id="graph0" class="graph" transform="scale(1 1) rotate(0) translate(4 109.25)">
<title>Graphical Class Hierarchy</title>
<!-- Node0 -->
<g id="Node000000" class="node">
<title>Node0</title>
<g id="a_Node000000"><a xlink:title=" ">
<polygon fill="#e0e0e0" stroke="#999999" points="46.75,-62.25 0,-62.25 0,-43 46.75,-43 46.75,-62.25"/>
<text xml:space="preserve" text-anchor="middle" x="23.38" y="-48.75" font-family="Helvetica,sans-Serif" font-size="10.00">QLabel</text>
</a>
</g>
</g>
<!-- Node1 -->
<g id="Node000001" class="node">
<title>Node1</title>
<g id="a_Node000001"><a xlink:href="class_im_fusion_1_1_auto_stretch_image.html" target="_top" xlink:title=" ">
<polygon fill="white" stroke="#666666" points="224,-105.25 82.75,-105.25 82.75,-86 224,-86 224,-105.25"/>
<text xml:space="preserve" text-anchor="middle" x="153.38" y="-91.75" font-family="Helvetica,sans-Serif" font-size="10.00">ImFusion::AutoStretchImage</text>
</a>
</g>
</g>
<!-- Node0&#45;&gt;Node1 -->
<g id="edge1559_Node000000_Node000001" class="edge">
<title>Node0&#45;&gt;Node1</title>
<g id="a_edge1559_Node000000_Node000001"><a xlink:title=" ">
<path fill="none" stroke="#63b8ff" d="M57.73,-67.17C65.85,-70.48 74.55,-73.83 82.75,-76.62 92.12,-79.82 102.34,-82.85 111.99,-85.51"/>
<polygon fill="#63b8ff" stroke="#63b8ff" points="59.11,-63.95 48.53,-63.33 56.42,-70.41 59.11,-63.95"/>
</a>
</g>
</g>
<!-- Node2 -->
<g id="Node000002" class="node">
<title>Node2</title>
<g id="a_Node000002"><a xlink:href="class_im_fusion_1_1_dicom_1_1_dataset_preview_label.html" target="_top" xlink:title="A widget that shows a preview image of a DICOM dataset.">
<polygon fill="white" stroke="#666666" points="219.12,-67.88 87.62,-67.88 87.62,-37.38 219.12,-37.38 219.12,-67.88"/>
<text xml:space="preserve" text-anchor="start" x="95.62" y="-54.38" font-family="Helvetica,sans-Serif" font-size="10.00">ImFusion::Dicom::Dataset</text>
<text xml:space="preserve" text-anchor="middle" x="153.38" y="-43.12" font-family="Helvetica,sans-Serif" font-size="10.00">PreviewLabel</text>
</a>
</g>
</g>
<!-- Node0&#45;&gt;Node2 -->
<g id="edge1560_Node000000_Node000002" class="edge">
<title>Node0&#45;&gt;Node2</title>
<g id="a_edge1560_Node000000_Node000002"><a xlink:title=" ">
<path fill="none" stroke="#63b8ff" d="M58.4,-52.62C67.3,-52.62 77.2,-52.62 87.15,-52.62"/>
<polygon fill="#63b8ff" stroke="#63b8ff" points="58.48,-49.13 48.48,-52.63 58.48,-56.13 58.48,-49.13"/>
</a>
</g>
</g>
<!-- Node3 -->
<g id="Node000003" class="node">
<title>Node3</title>
<g id="a_Node000003"><a xlink:href="class_im_fusion_1_1_label_overlay.html" target="_top" xlink:title=" ">
<polygon fill="white" stroke="#666666" points="213.12,-19.25 93.62,-19.25 93.62,0 213.12,0 213.12,-19.25"/>
<text xml:space="preserve" text-anchor="middle" x="153.38" y="-5.75" font-family="Helvetica,sans-Serif" font-size="10.00">ImFusion::LabelOverlay</text>
</a>
</g>
</g>
<!-- Node0&#45;&gt;Node3 -->
<g id="edge1561_Node000000_Node000003" class="edge">
<title>Node0&#45;&gt;Node3</title>
<g id="a_edge1561_Node000000_Node000003"><a xlink:title=" ">
<path fill="none" stroke="#63b8ff" d="M57.73,-38.08C65.85,-34.77 74.55,-31.42 82.75,-28.62 92.12,-25.43 102.34,-22.4 111.99,-19.74"/>
<polygon fill="#63b8ff" stroke="#63b8ff" points="56.42,-34.84 48.53,-41.92 59.11,-41.3 56.42,-34.84"/>
</a>
</g>
</g>
</g>
</svg>
