<?xml version="1.0" encoding="UTF-8" standalone="no"?>
<!DOCTYPE svg PUBLIC "-//W3C//DTD SVG 1.1//EN"
 "http://www.w3.org/Graphics/SVG/1.1/DTD/svg11.dtd">
<!-- Generated by graphviz version 14.1.4 (20260321.0153)
 -->
<!-- Title: Graphical Class Hierarchy Pages: 1 -->
<svg width="264pt" height="76pt"
 viewBox="0.00 0.00 264.00 76.00" xmlns="http://www.w3.org/2000/svg" xmlns:xlink="http://www.w3.org/1999/xlink">
<g id="graph0" class="graph" transform="scale(1 1) rotate(0) translate(4 71.88)">
<title>Graphical Class Hierarchy</title>
<!-- Node0 -->
<g id="Node000000" class="node">
<title>Node0</title>
<g id="a_Node000000"><a xlink:title=" ">
<polygon fill="#e0e0e0" stroke="#999999" points="77.5,-45.88 0,-45.88 0,-26.62 77.5,-26.62 77.5,-45.88"/>
<text xml:space="preserve" text-anchor="middle" x="38.75" y="-32.38" font-family="Helvetica,sans-Serif" font-size="10.00">QTableWidget</text>
</a>
</g>
</g>
<!-- Node1 -->
<g id="Node000001" class="node">
<title>Node1</title>
<g id="a_Node000001"><a xlink:href="class_im_fusion_1_1_label_selector.html" target="_top" xlink:title=" ">
<polygon fill="white" stroke="#666666" points="245.38,-67.88 123.62,-67.88 123.62,-48.62 245.38,-48.62 245.38,-67.88"/>
<text xml:space="preserve" text-anchor="middle" x="184.5" y="-54.38" font-family="Helvetica,sans-Serif" font-size="10.00">ImFusion::LabelSelector</text>
</a>
</g>
</g>
<!-- Node0&#45;&gt;Node1 -->
<g id="edge1575_Node000000_Node000001" class="edge">
<title>Node0&#45;&gt;Node1</title>
<g id="a_edge1575_Node000000_Node000001"><a xlink:title=" ">
<path fill="none" stroke="#63b8ff" d="M89.02,-43.79C100.02,-45.47 111.81,-47.28 123.19,-49.02"/>
<polygon fill="#63b8ff" stroke="#63b8ff" points="89.81,-40.37 79.39,-42.32 88.75,-47.29 89.81,-40.37"/>
</a>
</g>
</g>
<!-- Node2 -->
<g id="Node000002" class="node">
<title>Node2</title>
<g id="a_Node000002"><a xlink:href="class_im_fusion_1_1_recent_items_table_widget.html" target="_top" xlink:title="This widget is a table showing a list of items recently used.">
<polygon fill="white" stroke="#666666" points="255.5,-30.5 113.5,-30.5 113.5,0 255.5,0 255.5,-30.5"/>
<text xml:space="preserve" text-anchor="start" x="121.5" y="-17" font-family="Helvetica,sans-Serif" font-size="10.00">ImFusion::RecentItemsTable</text>
<text xml:space="preserve" text-anchor="middle" x="184.5" y="-5.75" font-family="Helvetica,sans-Serif" font-size="10.00">Widget</text>
</a>
</g>
</g>
<!-- Node0&#45;&gt;Node2 -->
<g id="edge1576_Node000000_Node000002" class="edge">
<title>Node0&#45;&gt;Node2</title>
<g id="a_edge1576_Node000000_Node000002"><a xlink:title=" ">
<path fill="none" stroke="#63b8ff" d="M89.28,-29.01C97,-27.89 105.11,-26.7 113.2,-25.52"/>
<polygon fill="#63b8ff" stroke="#63b8ff" points="88.78,-25.55 79.39,-30.46 89.79,-32.48 88.78,-25.55"/>
</a>
</g>
</g>
</g>
</svg>
