<?xml version="1.0" encoding="UTF-8" standalone="no"?>
<!DOCTYPE svg PUBLIC "-//W3C//DTD SVG 1.1//EN"
 "http://www.w3.org/Graphics/SVG/1.1/DTD/svg11.dtd">
<!-- Generated by graphviz version 14.1.4 (20260321.0153)
 -->
<!-- Title: Graphical Class Hierarchy Pages: 1 -->
<svg width="323pt" height="150pt"
 viewBox="0.00 0.00 323.00 150.00" xmlns="http://www.w3.org/2000/svg" xmlns:xlink="http://www.w3.org/1999/xlink">
<g id="graph0" class="graph" transform="scale(1 1) rotate(0) translate(4 145.88)">
<title>Graphical Class Hierarchy</title>
<!-- Node0 -->
<g id="Node000000" class="node">
<title>Node0</title>
<g id="a_Node000000"><a xlink:href="class_im_fusion_1_1_g_u_i_1_1_input_event.html" target="_top" xlink:title="Base class for user input events in a graphical user interface (GUI).">
<polygon fill="white" stroke="#666666" points="133.75,-74.25 0,-74.25 0,-55 133.75,-55 133.75,-74.25"/>
<text xml:space="preserve" text-anchor="middle" x="66.88" y="-60.75" font-family="Helvetica,sans-Serif" font-size="10.00">ImFusion::GUI::InputEvent</text>
</a>
</g>
</g>
<!-- Node1 -->
<g id="Node000001" class="node">
<title>Node1</title>
<g id="a_Node000001"><a xlink:href="class_im_fusion_1_1_g_u_i_1_1_context_menu_event.html" target="_top" xlink:title="A ContextMenuEvent signals that a context&#45;sensitive popup menu was requested by the user,...">
<polygon fill="white" stroke="#666666" points="314.75,-141.88 169.75,-141.88 169.75,-111.38 314.75,-111.38 314.75,-141.88"/>
<text xml:space="preserve" text-anchor="start" x="177.75" y="-128.38" font-family="Helvetica,sans-Serif" font-size="10.00">ImFusion::GUI::ContextMenu</text>
<text xml:space="preserve" text-anchor="middle" x="242.25" y="-117.12" font-family="Helvetica,sans-Serif" font-size="10.00">Event</text>
</a>
</g>
</g>
<!-- Node0&#45;&gt;Node1 -->
<g id="edge1483_Node000000_Node000001" class="edge">
<title>Node0&#45;&gt;Node1</title>
<g id="a_edge1483_Node000000_Node000001"><a xlink:title=" ">
<path fill="none" stroke="#63b8ff" d="M104.92,-78.78C124.2,-86.06 148.18,-94.99 169.75,-102.62 177.53,-105.38 185.8,-108.23 193.87,-110.97"/>
<polygon fill="#63b8ff" stroke="#63b8ff" points="106.18,-75.51 95.59,-75.24 103.7,-82.06 106.18,-75.51"/>
</a>
</g>
</g>
<!-- Node2 -->
<g id="Node000002" class="node">
<title>Node2</title>
<g id="a_Node000002"><a xlink:href="class_im_fusion_1_1_g_u_i_1_1_key_event.html" target="_top" xlink:title="Key events are triggered when a keyboard key was pressed or released on the GUI.">
<polygon fill="white" stroke="#666666" points="306.88,-93.25 177.62,-93.25 177.62,-74 306.88,-74 306.88,-93.25"/>
<text xml:space="preserve" text-anchor="middle" x="242.25" y="-79.75" font-family="Helvetica,sans-Serif" font-size="10.00">ImFusion::GUI::KeyEvent</text>
</a>
</g>
</g>
<!-- Node0&#45;&gt;Node2 -->
<g id="edge1484_Node000000_Node000002" class="edge">
<title>Node0&#45;&gt;Node2</title>
<g id="a_edge1484_Node000000_Node000002"><a xlink:title=" ">
<path fill="none" stroke="#63b8ff" d="M145.07,-73.09C155.88,-74.27 166.88,-75.47 177.4,-76.63"/>
<polygon fill="#63b8ff" stroke="#63b8ff" points="145.74,-69.64 135.42,-72.03 144.98,-76.6 145.74,-69.64"/>
</a>
</g>
</g>
<!-- Node3 -->
<g id="Node000003" class="node">
<title>Node3</title>
<g id="a_Node000003"><a xlink:href="class_im_fusion_1_1_g_u_i_1_1_mouse_event.html" target="_top" xlink:title="Mouse events are triggered whenever the status of the mouse has changed wrt.">
<polygon fill="white" stroke="#666666" points="312.88,-56.25 171.62,-56.25 171.62,-37 312.88,-37 312.88,-56.25"/>
<text xml:space="preserve" text-anchor="middle" x="242.25" y="-42.75" font-family="Helvetica,sans-Serif" font-size="10.00">ImFusion::GUI::MouseEvent</text>
</a>
</g>
</g>
<!-- Node0&#45;&gt;Node3 -->
<g id="edge1485_Node000000_Node000003" class="edge">
<title>Node0&#45;&gt;Node3</title>
<g id="a_edge1485_Node000000_Node000003"><a xlink:title=" ">
<path fill="none" stroke="#63b8ff" d="M145.24,-56.59C153.94,-55.69 162.76,-54.77 171.36,-53.88"/>
<polygon fill="#63b8ff" stroke="#63b8ff" points="145.01,-53.1 135.42,-57.61 145.73,-60.06 145.01,-53.1"/>
</a>
</g>
</g>
<!-- Node4 -->
<g id="Node000004" class="node">
<title>Node4</title>
<g id="a_Node000004"><a xlink:href="class_im_fusion_1_1_g_u_i_1_1_touch_event.html" target="_top" xlink:title="Touch events occur when pressing, releasing, or moving one ore multiple touch points on a touch devic...">
<polygon fill="white" stroke="#666666" points="311.38,-19.25 173.12,-19.25 173.12,0 311.38,0 311.38,-19.25"/>
<text xml:space="preserve" text-anchor="middle" x="242.25" y="-5.75" font-family="Helvetica,sans-Serif" font-size="10.00">ImFusion::GUI::TouchEvent</text>
</a>
</g>
</g>
<!-- Node0&#45;&gt;Node4 -->
<g id="edge1486_Node000000_Node000004" class="edge">
<title>Node0&#45;&gt;Node4</title>
<g id="a_edge1486_Node000000_Node000004"><a xlink:title=" ">
<path fill="none" stroke="#63b8ff" d="M103.66,-50.62C123.06,-43.28 147.54,-34.43 169.75,-27.62 178.93,-24.81 188.87,-22.1 198.33,-19.68"/>
<polygon fill="#63b8ff" stroke="#63b8ff" points="102.68,-47.25 94.59,-54.08 105.18,-53.79 102.68,-47.25"/>
</a>
</g>
</g>
</g>
</svg>
