<?xml version="1.0" encoding="UTF-8" standalone="no"?>
<!DOCTYPE svg PUBLIC "-//W3C//DTD SVG 1.1//EN"
 "http://www.w3.org/Graphics/SVG/1.1/DTD/svg11.dtd">
<!-- Generated by graphviz version 14.1.4 (20260321.0153)
 -->
<!-- Title: Graphical Class Hierarchy Pages: 1 -->
<svg width="532pt" height="88pt"
 viewBox="0.00 0.00 532.00 88.00" xmlns="http://www.w3.org/2000/svg" xmlns:xlink="http://www.w3.org/1999/xlink">
<g id="graph0" class="graph" transform="scale(1 1) rotate(0) translate(4 83.5)">
<title>Graphical Class Hierarchy</title>
<!-- Node0 -->
<g id="Node000000" class="node">
<title>Node0</title>
<g id="a_Node000000"><a xlink:href="class_im_fusion_1_1_seg_1_1_reference_shape.html" target="_top" xlink:title="Abstract class defining a reference shape which has been fitted to a segmentation map.">
<polygon fill="white" stroke="#666666" points="130.75,-54.5 0,-54.5 0,-24 130.75,-24 130.75,-54.5"/>
<text xml:space="preserve" text-anchor="start" x="8" y="-41" font-family="Helvetica,sans-Serif" font-size="10.00">ImFusion::Seg::Reference</text>
<text xml:space="preserve" text-anchor="middle" x="65.38" y="-29.75" font-family="Helvetica,sans-Serif" font-size="10.00">Shape</text>
</a>
</g>
</g>
<!-- Node1 -->
<g id="Node000001" class="node">
<title>Node1</title>
<g id="a_Node000001"><a xlink:href="class_im_fusion_1_1_seg_1_1_ellipse_reference_shape.html" target="_top" xlink:title="Reference with an ellipse section shape.">
<polygon fill="white" stroke="#666666" points="326.75,-79.5 166.75,-79.5 166.75,-49 326.75,-49 326.75,-79.5"/>
<text xml:space="preserve" text-anchor="start" x="174.75" y="-66" font-family="Helvetica,sans-Serif" font-size="10.00">ImFusion::Seg::EllipseReference</text>
<text xml:space="preserve" text-anchor="middle" x="246.75" y="-54.75" font-family="Helvetica,sans-Serif" font-size="10.00">Shape</text>
</a>
</g>
</g>
<!-- Node0&#45;&gt;Node1 -->
<g id="edge1511_Node000000_Node000001" class="edge">
<title>Node0&#45;&gt;Node1</title>
<g id="a_edge1511_Node000000_Node000001"><a xlink:title=" ">
<path fill="none" stroke="#63b8ff" d="M142.28,-49.83C150.25,-50.94 158.38,-52.07 166.39,-53.19"/>
<polygon fill="#63b8ff" stroke="#63b8ff" points="143.02,-46.4 132.63,-48.48 142.05,-53.33 143.02,-46.4"/>
</a>
</g>
</g>
<!-- Node2 -->
<g id="Node000002" class="node">
<title>Node2</title>
<g id="a_Node000002"><a xlink:href="class_im_fusion_1_1_seg_1_1_linear_reference_shape.html" target="_top" xlink:title="Class defining a reference shape for which the conversion between local and world coordinates is a li...">
<polygon fill="white" stroke="#666666" points="325.25,-30.5 168.25,-30.5 168.25,0 325.25,0 325.25,-30.5"/>
<text xml:space="preserve" text-anchor="start" x="176.25" y="-17" font-family="Helvetica,sans-Serif" font-size="10.00">ImFusion::Seg::LinearReference</text>
<text xml:space="preserve" text-anchor="middle" x="246.75" y="-5.75" font-family="Helvetica,sans-Serif" font-size="10.00">Shape</text>
</a>
</g>
</g>
<!-- Node0&#45;&gt;Node2 -->
<g id="edge1512_Node000000_Node000002" class="edge">
<title>Node0&#45;&gt;Node2</title>
<g id="a_edge1512_Node000000_Node000002"><a xlink:title=" ">
<path fill="none" stroke="#63b8ff" d="M142.49,-29.07C150.91,-27.94 159.5,-26.79 167.94,-25.66"/>
<polygon fill="#63b8ff" stroke="#63b8ff" points="142.08,-25.59 132.63,-30.38 143.01,-32.53 142.08,-25.59"/>
</a>
</g>
</g>
<!-- Node3 -->
<g id="Node000003" class="node">
<title>Node3</title>
<g id="a_Node000003"><a xlink:href="class_im_fusion_1_1_seg_1_1_line2_d_reference_shape.html" target="_top" xlink:title="Reference with a line shape.">
<polygon fill="white" stroke="#666666" points="524.25,-30.5 362.75,-30.5 362.75,0 524.25,0 524.25,-30.5"/>
<text xml:space="preserve" text-anchor="start" x="370.75" y="-17" font-family="Helvetica,sans-Serif" font-size="10.00">ImFusion::Seg::Line2DReference</text>
<text xml:space="preserve" text-anchor="middle" x="443.5" y="-5.75" font-family="Helvetica,sans-Serif" font-size="10.00">Shape</text>
</a>
</g>
</g>
<!-- Node2&#45;&gt;Node3 -->
<g id="edge1513_Node000002_Node000003" class="edge">
<title>Node2&#45;&gt;Node3</title>
<g id="a_edge1513_Node000002_Node000003"><a xlink:title=" ">
<path fill="none" stroke="#63b8ff" d="M336.98,-15.25C345.41,-15.25 353.93,-15.25 362.27,-15.25"/>
<polygon fill="#63b8ff" stroke="#63b8ff" points="337.07,-11.75 327.07,-15.25 337.07,-18.75 337.07,-11.75"/>
</a>
</g>
</g>
</g>
</svg>
