<?xml version="1.0" encoding="UTF-8" standalone="no"?>
<!DOCTYPE svg PUBLIC "-//W3C//DTD SVG 1.1//EN"
 "http://www.w3.org/Graphics/SVG/1.1/DTD/svg11.dtd">
<!-- Generated by graphviz version 14.1.4 (20260321.0153)
 -->
<!-- Title: Graphical Class Hierarchy Pages: 1 -->
<svg width="521pt" height="199pt"
 viewBox="0.00 0.00 521.00 199.00" xmlns="http://www.w3.org/2000/svg" xmlns:xlink="http://www.w3.org/1999/xlink">
<g id="graph0" class="graph" transform="scale(1 1) rotate(0) translate(4 195.25)">
<title>Graphical Class Hierarchy</title>
<!-- Node0 -->
<g id="Node000000" class="node">
<title>Node0</title>
<g id="a_Node000000"><a xlink:href="class_im_fusion_1_1_linear_system_solver.html" target="_top" xlink:title="Interface for linear system solvers.">
<polygon fill="white" stroke="#666666" points="150.25,-68.25 0,-68.25 0,-49 150.25,-49 150.25,-68.25"/>
<text xml:space="preserve" text-anchor="middle" x="75.12" y="-54.75" font-family="Helvetica,sans-Serif" font-size="10.00">ImFusion::LinearSystemSolver</text>
</a>
</g>
</g>
<!-- Node1 -->
<g id="Node000001" class="node">
<title>Node1</title>
<g id="a_Node000001"><a xlink:href="class_im_fusion_1_1_iterative_linear_system_solver.html" target="_top" xlink:title="Interface for iterative linear system solvers.">
<polygon fill="white" stroke="#666666" points="314,-116.88 190,-116.88 190,-86.38 314,-86.38 314,-116.88"/>
<text xml:space="preserve" text-anchor="start" x="198" y="-103.38" font-family="Helvetica,sans-Serif" font-size="10.00">ImFusion::IterativeLinear</text>
<text xml:space="preserve" text-anchor="middle" x="252" y="-92.12" font-family="Helvetica,sans-Serif" font-size="10.00">SystemSolver</text>
</a>
</g>
</g>
<!-- Node0&#45;&gt;Node1 -->
<g id="edge1491_Node000000_Node000001" class="edge">
<title>Node0&#45;&gt;Node1</title>
<g id="a_edge1491_Node000000_Node000001"><a xlink:title=" ">
<path fill="none" stroke="#63b8ff" d="M128.15,-71.42C147.49,-76.17 169.6,-81.61 189.69,-86.55"/>
<polygon fill="#63b8ff" stroke="#63b8ff" points="129.14,-68.06 118.6,-69.07 127.47,-74.85 129.14,-68.06"/>
</a>
</g>
</g>
<!-- Node7 -->
<g id="Node000007" class="node">
<title>Node7</title>
<g id="a_Node000007"><a xlink:href="class_im_fusion_1_1_l_l_t_eigen_solver.html" target="_top" xlink:title="Solver using Cholesky decomposition of the matrix (Eigen implementation).">
<polygon fill="white" stroke="#666666" points="317.75,-68.25 186.25,-68.25 186.25,-49 317.75,-49 317.75,-68.25"/>
<text xml:space="preserve" text-anchor="middle" x="252" y="-54.75" font-family="Helvetica,sans-Serif" font-size="10.00">ImFusion::LLTEigenSolver</text>
</a>
</g>
</g>
<!-- Node0&#45;&gt;Node7 -->
<g id="edge1497_Node000000_Node000007" class="edge">
<title>Node0&#45;&gt;Node7</title>
<g id="a_edge1497_Node000000_Node000007"><a xlink:title=" ">
<path fill="none" stroke="#63b8ff" d="M161.87,-58.62C169.91,-58.62 177.97,-58.62 185.77,-58.62"/>
<polygon fill="#63b8ff" stroke="#63b8ff" points="162.05,-55.13 152.05,-58.63 162.05,-62.13 162.05,-55.13"/>
</a>
</g>
</g>
<!-- Node8 -->
<g id="Node000008" class="node">
<title>Node8</title>
<g id="a_Node000008"><a xlink:href="class_im_fusion_1_1_l_l_t_float_solver.html" target="_top" xlink:title="Solver using Cholesky decomposition of the matrix.">
<polygon fill="white" stroke="#666666" points="316.25,-31.25 187.75,-31.25 187.75,-12 316.25,-12 316.25,-31.25"/>
<text xml:space="preserve" text-anchor="middle" x="252" y="-17.75" font-family="Helvetica,sans-Serif" font-size="10.00">ImFusion::LLTFloatSolver</text>
</a>
</g>
</g>
<!-- Node0&#45;&gt;Node8 -->
<g id="edge1498_Node000000_Node000008" class="edge">
<title>Node0&#45;&gt;Node8</title>
<g id="a_edge1498_Node000000_Node000008"><a xlink:title=" ">
<path fill="none" stroke="#63b8ff" d="M134.91,-46.19C157.15,-41.48 182.17,-36.19 203.27,-31.72"/>
<polygon fill="#63b8ff" stroke="#63b8ff" points="134.45,-42.71 125.39,-48.2 135.9,-49.56 134.45,-42.71"/>
</a>
</g>
</g>
<!-- Node2 -->
<g id="Node000002" class="node">
<title>Node2</title>
<g id="a_Node000002"><a xlink:href="class_im_fusion_1_1_bi_c_g_stab_eigen_solver.html" target="_top" xlink:title="Bi&#45;conjugate gradient solver with stabilization (Eigen implementation).">
<polygon fill="white" stroke="#666666" points="513,-191.25 353.75,-191.25 353.75,-172 513,-172 513,-191.25"/>
<text xml:space="preserve" text-anchor="middle" x="433.38" y="-177.75" font-family="Helvetica,sans-Serif" font-size="10.00">ImFusion::BiCGStabEigenSolver</text>
</a>
</g>
</g>
<!-- Node1&#45;&gt;Node2 -->
<g id="edge1492_Node000001_Node000002" class="edge">
<title>Node1&#45;&gt;Node2</title>
<g id="a_edge1492_Node000001_Node000002"><a xlink:title=" ">
<path fill="none" stroke="#63b8ff" d="M283.09,-123.77C302.42,-137.05 328.55,-153.31 353.75,-163.62 361.4,-166.75 369.7,-169.4 377.94,-171.61"/>
<polygon fill="#63b8ff" stroke="#63b8ff" points="285.35,-121.08 275.15,-118.2 281.33,-126.81 285.35,-121.08"/>
</a>
</g>
</g>
<!-- Node3 -->
<g id="Node000003" class="node">
<title>Node3</title>
<g id="a_Node000003"><a xlink:href="class_im_fusion_1_1_bi_c_g_stab_solver.html" target="_top" xlink:title="Bi&#45;conjugate gradient solver with stabilization.">
<polygon fill="white" stroke="#666666" points="500.62,-154.25 366.12,-154.25 366.12,-135 500.62,-135 500.62,-154.25"/>
<text xml:space="preserve" text-anchor="middle" x="433.38" y="-140.75" font-family="Helvetica,sans-Serif" font-size="10.00">ImFusion::BiCGStabSolver</text>
</a>
</g>
</g>
<!-- Node1&#45;&gt;Node3 -->
<g id="edge1493_Node000001_Node000003" class="edge">
<title>Node1&#45;&gt;Node3</title>
<g id="a_edge1493_Node000001_Node000003"><a xlink:title=" ">
<path fill="none" stroke="#63b8ff" d="M325.47,-119C347.46,-124.27 370.88,-129.88 390.18,-134.51"/>
<polygon fill="#63b8ff" stroke="#63b8ff" points="326.49,-115.64 315.95,-116.72 324.86,-122.45 326.49,-115.64"/>
</a>
</g>
</g>
<!-- Node4 -->
<g id="Node000004" class="node">
<title>Node4</title>
<g id="a_Node000004"><a xlink:href="class_im_fusion_1_1_bi_c_g_stab_vienna_c_p_u_solver.html" target="_top" xlink:title="Bi&#45;conjugate gradient solver with stabilization (Vienna CPU implementation).">
<polygon fill="white" stroke="#666666" points="501.75,-116.88 365,-116.88 365,-86.38 501.75,-86.38 501.75,-116.88"/>
<text xml:space="preserve" text-anchor="start" x="373" y="-103.38" font-family="Helvetica,sans-Serif" font-size="10.00">ImFusion::BiCGStabVienna</text>
<text xml:space="preserve" text-anchor="middle" x="433.38" y="-92.12" font-family="Helvetica,sans-Serif" font-size="10.00">CPUSolver</text>
</a>
</g>
</g>
<!-- Node1&#45;&gt;Node4 -->
<g id="edge1494_Node000001_Node000004" class="edge">
<title>Node1&#45;&gt;Node4</title>
<g id="a_edge1494_Node000001_Node000004"><a xlink:title=" ">
<path fill="none" stroke="#63b8ff" d="M325.62,-101.62C338.47,-101.62 351.81,-101.62 364.52,-101.62"/>
<polygon fill="#63b8ff" stroke="#63b8ff" points="325.99,-98.13 315.99,-101.63 325.99,-105.13 325.99,-98.13"/>
</a>
</g>
</g>
<!-- Node5 -->
<g id="Node000005" class="node">
<title>Node5</title>
<g id="a_Node000005"><a xlink:href="class_im_fusion_1_1_bi_c_g_stab_vienna_g_p_u_solver.html" target="_top" xlink:title="Bi&#45;conjugate gradient solver with stabilization (Vienna GPU implementation).">
<polygon fill="white" stroke="#666666" points="501.75,-67.88 365,-67.88 365,-37.38 501.75,-37.38 501.75,-67.88"/>
<text xml:space="preserve" text-anchor="start" x="373" y="-54.38" font-family="Helvetica,sans-Serif" font-size="10.00">ImFusion::BiCGStabVienna</text>
<text xml:space="preserve" text-anchor="middle" x="433.38" y="-43.12" font-family="Helvetica,sans-Serif" font-size="10.00">GPUSolver</text>
</a>
</g>
</g>
<!-- Node1&#45;&gt;Node5 -->
<g id="edge1495_Node000001_Node000005" class="edge">
<title>Node1&#45;&gt;Node5</title>
<g id="a_edge1495_Node000001_Node000005"><a xlink:title=" ">
<path fill="none" stroke="#63b8ff" d="M321.33,-82.96C338.95,-78.15 357.73,-73.01 374.75,-68.37"/>
<polygon fill="#63b8ff" stroke="#63b8ff" points="320.43,-79.58 311.71,-85.59 322.28,-86.33 320.43,-79.58"/>
</a>
</g>
</g>
<!-- Node6 -->
<g id="Node000006" class="node">
<title>Node6</title>
<g id="a_Node000006"><a xlink:href="class_im_fusion_1_1_c_g_solver.html" target="_top" xlink:title="Conjugate gradient solver (Eigen implementation).">
<polygon fill="white" stroke="#666666" points="486,-19.25 380.75,-19.25 380.75,0 486,0 486,-19.25"/>
<text xml:space="preserve" text-anchor="middle" x="433.38" y="-5.75" font-family="Helvetica,sans-Serif" font-size="10.00">ImFusion::CGSolver</text>
</a>
</g>
</g>
<!-- Node1&#45;&gt;Node6 -->
<g id="edge1496_Node000001_Node000006" class="edge">
<title>Node1&#45;&gt;Node6</title>
<g id="a_edge1496_Node000001_Node000006"><a xlink:title=" ">
<path fill="none" stroke="#63b8ff" d="M313.67,-80.49C315.07,-79.57 316.43,-78.62 317.75,-77.62 339.33,-61.36 331.25,-43.6 353.75,-28.62 361.7,-23.33 370.97,-19.51 380.31,-16.76"/>
<polygon fill="#63b8ff" stroke="#63b8ff" points="312.25,-77.27 305.32,-85.29 315.73,-83.35 312.25,-77.27"/>
</a>
</g>
</g>
</g>
</svg>
