<?xml version="1.0" encoding="UTF-8" standalone="no"?>
<!DOCTYPE svg PUBLIC "-//W3C//DTD SVG 1.1//EN"
 "http://www.w3.org/Graphics/SVG/1.1/DTD/svg11.dtd">
<!-- Generated by graphviz version 14.1.4 (20260321.0153)
 -->
<!-- Title: Graphical Class Hierarchy Pages: 1 -->
<svg width="485pt" height="27pt"
 viewBox="0.00 0.00 485.00 27.00" xmlns="http://www.w3.org/2000/svg" xmlns:xlink="http://www.w3.org/1999/xlink">
<g id="graph0" class="graph" transform="scale(1 1) rotate(0) translate(4 23.25)">
<title>Graphical Class Hierarchy</title>
<!-- Node0 -->
<g id="Node000000" class="node">
<title>Node0</title>
<g id="a_Node000000"><a xlink:href="class_im_fusion_1_1_byte_buffer_view.html" target="_top" xlink:title="Const view onto a sized buffer of raw binary data.">
<polygon fill="white" stroke="#666666" points="130.75,-19.25 0,-19.25 0,0 130.75,0 130.75,-19.25"/>
<text xml:space="preserve" text-anchor="middle" x="65.38" y="-5.75" font-family="Helvetica,sans-Serif" font-size="10.00">ImFusion::ByteBufferView</text>
</a>
</g>
</g>
<!-- Node1 -->
<g id="Node000001" class="node">
<title>Node1</title>
<g id="a_Node000001"><a xlink:href="class_im_fusion_1_1_byte_buffer_mutable_view.html" target="_top" xlink:title="Specialization of a ByteBufferView that additionally provides non&#45;const access to the underlying data...">
<polygon fill="white" stroke="#666666" points="332,-19.25 166.75,-19.25 166.75,0 332,0 332,-19.25"/>
<text xml:space="preserve" text-anchor="middle" x="249.38" y="-5.75" font-family="Helvetica,sans-Serif" font-size="10.00">ImFusion::ByteBufferMutableView</text>
</a>
</g>
</g>
<!-- Node0&#45;&gt;Node1 -->
<g id="edge1466_Node000000_Node000001" class="edge">
<title>Node0&#45;&gt;Node1</title>
<g id="a_edge1466_Node000000_Node000001"><a xlink:title=" ">
<path fill="none" stroke="#63b8ff" d="M142.49,-9.62C150.38,-9.62 158.43,-9.62 166.39,-9.62"/>
<polygon fill="#63b8ff" stroke="#63b8ff" points="142.57,-6.13 132.57,-9.63 142.57,-13.13 142.57,-6.13"/>
</a>
</g>
</g>
<!-- Node2 -->
<g id="Node000002" class="node">
<title>Node2</title>
<g id="a_Node000002"><a xlink:href="class_im_fusion_1_1_byte_buffer.html" target="_top" xlink:title="Specialization of the ByteBufferView class that has ownership of the underlying data.">
<polygon fill="white" stroke="#666666" points="477,-19.25 368,-19.25 368,0 477,0 477,-19.25"/>
<text xml:space="preserve" text-anchor="middle" x="422.5" y="-5.75" font-family="Helvetica,sans-Serif" font-size="10.00">ImFusion::ByteBuffer</text>
</a>
</g>
</g>
<!-- Node1&#45;&gt;Node2 -->
<g id="edge1467_Node000001_Node000002" class="edge">
<title>Node1&#45;&gt;Node2</title>
<g id="a_edge1467_Node000001_Node000002"><a xlink:title=" ">
<path fill="none" stroke="#63b8ff" d="M343.69,-9.62C351.92,-9.62 360.05,-9.62 367.78,-9.62"/>
<polygon fill="#63b8ff" stroke="#63b8ff" points="343.94,-6.13 333.94,-9.63 343.94,-13.13 343.94,-6.13"/>
</a>
</g>
</g>
</g>
</svg>
