<?xml version="1.0" encoding="UTF-8" standalone="no"?>
<!DOCTYPE svg PUBLIC "-//W3C//DTD SVG 1.1//EN"
 "http://www.w3.org/Graphics/SVG/1.1/DTD/svg11.dtd">
<!-- Generated by graphviz version 14.1.4 (20260321.0153)
 -->
<!-- Title: Graphical Class Hierarchy Pages: 1 -->
<svg width="362pt" height="235pt"
 viewBox="0.00 0.00 362.00 235.00" xmlns="http://www.w3.org/2000/svg" xmlns:xlink="http://www.w3.org/1999/xlink">
<g id="graph0" class="graph" transform="scale(1 1) rotate(0) translate(4 230.5)">
<title>Graphical Class Hierarchy</title>
<!-- Node0 -->
<g id="Node000000" class="node">
<title>Node0</title>
<g id="a_Node000000"><a xlink:href="class_im_fusion_1_1_parameter_wrapper_base.html" target="_top" xlink:title="Base class for classes that wish to expose zero or more optimization parameters.">
<polygon fill="white" stroke="#666666" points="166,-122.88 0,-122.88 0,-103.62 166,-103.62 166,-122.88"/>
<text xml:space="preserve" text-anchor="middle" x="83" y="-109.38" font-family="Helvetica,sans-Serif" font-size="10.00">ImFusion::ParameterWrapperBase</text>
</a>
</g>
</g>
<!-- Node1 -->
<g id="Node000001" class="node">
<title>Node1</title>
<g id="a_Node000001"><a xlink:href="class_im_fusion_1_1_affine_rescaled_parameter_optimization.html" target="_top" xlink:title="Decorator that subtracts shift, then multiplies by scale to every value before it is passed to the op...">
<polygon fill="white" stroke="#666666" points="342.5,-226.5 213.25,-226.5 213.25,-196 342.5,-196 342.5,-226.5"/>
<text xml:space="preserve" text-anchor="start" x="221.25" y="-213" font-family="Helvetica,sans-Serif" font-size="10.00">ImFusion::AffineRescaled</text>
<text xml:space="preserve" text-anchor="middle" x="277.88" y="-201.75" font-family="Helvetica,sans-Serif" font-size="10.00">ParameterOptimization</text>
</a>
</g>
</g>
<!-- Node0&#45;&gt;Node1 -->
<g id="edge1505_Node000000_Node000001" class="edge">
<title>Node0&#45;&gt;Node1</title>
<g id="a_edge1505_Node000000_Node000001"><a xlink:title=" ">
<path fill="none" stroke="#63b8ff" d="M107.25,-129.89C130.41,-145.92 167.42,-170.05 202,-186.25 209.2,-189.62 216.98,-192.75 224.71,-195.57"/>
<polygon fill="#63b8ff" stroke="#63b8ff" points="109.37,-127.1 99.17,-124.23 105.35,-132.83 109.37,-127.1"/>
</a>
</g>
</g>
<!-- Node2 -->
<g id="Node000002" class="node">
<title>Node2</title>
<g id="a_Node000002"><a xlink:href="class_im_fusion_1_1_combined_parameter_wrapper.html" target="_top" xlink:title="Implementation of the ParameterOptimization interface to a combination of other ParameterOptimization...">
<polygon fill="white" stroke="#666666" points="353.75,-177.5 202,-177.5 202,-147 353.75,-147 353.75,-177.5"/>
<text xml:space="preserve" text-anchor="start" x="210" y="-164" font-family="Helvetica,sans-Serif" font-size="10.00">ImFusion::CombinedParameter</text>
<text xml:space="preserve" text-anchor="middle" x="277.88" y="-152.75" font-family="Helvetica,sans-Serif" font-size="10.00">Wrapper</text>
</a>
</g>
</g>
<!-- Node0&#45;&gt;Node2 -->
<g id="edge1506_Node000000_Node000002" class="edge">
<title>Node0&#45;&gt;Node2</title>
<g id="a_edge1506_Node000000_Node000002"><a xlink:title=" ">
<path fill="none" stroke="#63b8ff" d="M134.43,-126.06C159.09,-132.33 188.99,-139.92 215.02,-146.54"/>
<polygon fill="#63b8ff" stroke="#63b8ff" points="135.52,-122.73 124.96,-123.66 133.79,-129.51 135.52,-122.73"/>
</a>
</g>
</g>
<!-- Node3 -->
<g id="Node000003" class="node">
<title>Node3</title>
<g id="a_Node000003"><a xlink:href="class_im_fusion_1_1_matrix_parameter_wrapper.html" target="_top" xlink:title="Wrap a matrix into a ParameterWrapperBase instance.">
<polygon fill="white" stroke="#666666" points="345.12,-128.5 210.62,-128.5 210.62,-98 345.12,-98 345.12,-128.5"/>
<text xml:space="preserve" text-anchor="start" x="218.62" y="-115" font-family="Helvetica,sans-Serif" font-size="10.00">ImFusion::MatrixParameter</text>
<text xml:space="preserve" text-anchor="middle" x="277.88" y="-103.75" font-family="Helvetica,sans-Serif" font-size="10.00">Wrapper&lt; T &gt;</text>
</a>
</g>
</g>
<!-- Node0&#45;&gt;Node3 -->
<g id="edge1507_Node000000_Node000003" class="edge">
<title>Node0&#45;&gt;Node3</title>
<g id="a_edge1507_Node000000_Node000003"><a xlink:title=" ">
<path fill="none" stroke="#63b8ff" d="M177.74,-113.25C188.71,-113.25 199.73,-113.25 210.22,-113.25"/>
<polygon fill="#63b8ff" stroke="#63b8ff" points="177.87,-109.75 167.87,-113.25 177.87,-116.75 177.87,-109.75"/>
</a>
</g>
</g>
<!-- Node4 -->
<g id="Node000004" class="node">
<title>Node4</title>
<g id="a_Node000004"><a xlink:href="class_im_fusion_1_1_scalar_parameter_wrapper.html" target="_top" xlink:title="Wrap a single scalar into a ParameterWrapperBase instance.">
<polygon fill="white" stroke="#666666" points="345.5,-79.5 210.25,-79.5 210.25,-49 345.5,-49 345.5,-79.5"/>
<text xml:space="preserve" text-anchor="start" x="218.25" y="-66" font-family="Helvetica,sans-Serif" font-size="10.00">ImFusion::ScalarParameter</text>
<text xml:space="preserve" text-anchor="middle" x="277.88" y="-54.75" font-family="Helvetica,sans-Serif" font-size="10.00">Wrapper&lt; T &gt;</text>
</a>
</g>
</g>
<!-- Node0&#45;&gt;Node4 -->
<g id="edge1508_Node000000_Node000004" class="edge">
<title>Node0&#45;&gt;Node4</title>
<g id="a_edge1508_Node000000_Node000004"><a xlink:title=" ">
<path fill="none" stroke="#63b8ff" d="M134.43,-100.44C159.09,-94.17 188.99,-86.58 215.02,-79.96"/>
<polygon fill="#63b8ff" stroke="#63b8ff" points="133.79,-96.99 124.96,-102.84 135.52,-103.77 133.79,-96.99"/>
</a>
</g>
</g>
<!-- Node5 -->
<g id="Node000005" class="node">
<title>Node5</title>
<g id="a_Node000005"><a xlink:href="class_im_fusion_1_1_vector_parameter_wrapper.html" target="_top" xlink:title="Wrap a vector into a ParameterWrapperBase instance.">
<polygon fill="white" stroke="#666666" points="345.88,-30.5 209.88,-30.5 209.88,0 345.88,0 345.88,-30.5"/>
<text xml:space="preserve" text-anchor="start" x="217.88" y="-17" font-family="Helvetica,sans-Serif" font-size="10.00">ImFusion::VectorParameter</text>
<text xml:space="preserve" text-anchor="middle" x="277.88" y="-5.75" font-family="Helvetica,sans-Serif" font-size="10.00">Wrapper&lt; T &gt;</text>
</a>
</g>
</g>
<!-- Node0&#45;&gt;Node5 -->
<g id="edge1509_Node000000_Node000005" class="edge">
<title>Node0&#45;&gt;Node5</title>
<g id="a_edge1509_Node000000_Node000005"><a xlink:title=" ">
<path fill="none" stroke="#63b8ff" d="M107.25,-96.61C130.41,-80.58 167.42,-56.45 202,-40.25 209.2,-36.88 216.98,-33.75 224.71,-30.93"/>
<polygon fill="#63b8ff" stroke="#63b8ff" points="105.35,-93.67 99.17,-102.27 109.37,-99.4 105.35,-93.67"/>
</a>
</g>
</g>
</g>
</svg>
