<?xml version="1.0" encoding="UTF-8" standalone="no"?>
<!DOCTYPE svg PUBLIC "-//W3C//DTD SVG 1.1//EN"
 "http://www.w3.org/Graphics/SVG/1.1/DTD/svg11.dtd">
<!-- Generated by graphviz version 14.1.4 (20260321.0153)
 -->
<!-- Title: Graphical Class Hierarchy Pages: 1 -->
<svg width="386pt" height="64pt"
 viewBox="0.00 0.00 386.00 64.00" xmlns="http://www.w3.org/2000/svg" xmlns:xlink="http://www.w3.org/1999/xlink">
<g id="graph0" class="graph" transform="scale(1 1) rotate(0) translate(4 60.25)">
<title>Graphical Class Hierarchy</title>
<!-- Node0 -->
<g id="Node000000" class="node">
<title>Node0</title>
<g id="a_Node000000"><a xlink:title=" ">
<polygon fill="#e0e0e0" stroke="#999999" points="48.25,-37.25 0,-37.25 0,-18 48.25,-18 48.25,-37.25"/>
<text xml:space="preserve" text-anchor="middle" x="24.12" y="-23.75" font-family="Helvetica,sans-Serif" font-size="10.00">QSlider</text>
</a>
</g>
</g>
<!-- Node1 -->
<g id="Node000001" class="node">
<title>Node1</title>
<g id="a_Node000001"><a xlink:href="class_im_fusion_1_1_composite_slider.html" target="_top" xlink:title="QSlider which adds the possibility of painting a background for the slider.">
<polygon fill="white" stroke="#666666" points="218.75,-37.25 84.25,-37.25 84.25,-18 218.75,-18 218.75,-37.25"/>
<text xml:space="preserve" text-anchor="middle" x="151.5" y="-23.75" font-family="Helvetica,sans-Serif" font-size="10.00">ImFusion::CompositeSlider</text>
</a>
</g>
</g>
<!-- Node0&#45;&gt;Node1 -->
<g id="edge1567_Node000000_Node000001" class="edge">
<title>Node0&#45;&gt;Node1</title>
<g id="a_edge1567_Node000000_Node000001"><a xlink:title=" ">
<path fill="none" stroke="#63b8ff" d="M60.16,-27.62C67.61,-27.62 75.71,-27.62 83.9,-27.62"/>
<polygon fill="#63b8ff" stroke="#63b8ff" points="60.22,-24.13 50.22,-27.63 60.22,-31.13 60.22,-24.13"/>
</a>
</g>
</g>
<!-- Node2 -->
<g id="Node000002" class="node">
<title>Node2</title>
<g id="a_Node000002"><a xlink:href="class_im_fusion_1_1_hsv_hue_slider.html" target="_top" xlink:title="Specialized version of a CompositeSlider that renders the HSV hue color map as background.">
<polygon fill="white" stroke="#666666" points="378,-56.25 254.75,-56.25 254.75,-37 378,-37 378,-56.25"/>
<text xml:space="preserve" text-anchor="middle" x="316.38" y="-42.75" font-family="Helvetica,sans-Serif" font-size="10.00">ImFusion::HsvHueSlider</text>
</a>
</g>
</g>
<!-- Node1&#45;&gt;Node2 -->
<g id="edge1568_Node000001_Node000002" class="edge">
<title>Node1&#45;&gt;Node2</title>
<g id="a_edge1568_Node000001_Node000002"><a xlink:title=" ">
<path fill="none" stroke="#63b8ff" d="M230.46,-36.72C238.45,-37.65 246.49,-38.59 254.26,-39.5"/>
<polygon fill="#63b8ff" stroke="#63b8ff" points="231.06,-33.27 220.72,-35.58 230.25,-40.22 231.06,-33.27"/>
</a>
</g>
</g>
<!-- Node3 -->
<g id="Node000003" class="node">
<title>Node3</title>
<g id="a_Node000003"><a xlink:href="class_im_fusion_1_1_opacity_slider.html" target="_top" xlink:title="Specialized version of a CompositeSlider that renders a checkerboard blended with the given color as ...">
<polygon fill="white" stroke="#666666" points="376.88,-19.25 255.88,-19.25 255.88,0 376.88,0 376.88,-19.25"/>
<text xml:space="preserve" text-anchor="middle" x="316.38" y="-5.75" font-family="Helvetica,sans-Serif" font-size="10.00">ImFusion::OpacitySlider</text>
</a>
</g>
</g>
<!-- Node1&#45;&gt;Node3 -->
<g id="edge1569_Node000001_Node000003" class="edge">
<title>Node1&#45;&gt;Node3</title>
<g id="a_edge1569_Node000001_Node000003"><a xlink:title=" ">
<path fill="none" stroke="#63b8ff" d="M230.6,-18.99C238.99,-18.07 247.43,-17.13 255.56,-16.24"/>
<polygon fill="#63b8ff" stroke="#63b8ff" points="230.28,-15.51 220.72,-20.09 231.05,-22.47 230.28,-15.51"/>
</a>
</g>
</g>
</g>
</svg>
