<?xml version="1.0" encoding="UTF-8" standalone="no"?>
<!DOCTYPE svg PUBLIC "-//W3C//DTD SVG 1.1//EN"
 "http://www.w3.org/Graphics/SVG/1.1/DTD/svg11.dtd">
<!-- Generated by graphviz version 14.1.4 (20260321.0153)
 -->
<!-- Title: Graphical Class Hierarchy Pages: 1 -->
<svg width="308pt" height="76pt"
 viewBox="0.00 0.00 308.00 76.00" xmlns="http://www.w3.org/2000/svg" xmlns:xlink="http://www.w3.org/1999/xlink">
<g id="graph0" class="graph" transform="scale(1 1) rotate(0) translate(4 71.88)">
<title>Graphical Class Hierarchy</title>
<!-- Node0 -->
<g id="Node000000" class="node">
<title>Node0</title>
<g id="a_Node000000"><a xlink:title=" ">
<polygon fill="#e0e0e0" stroke="#999999" points="115,-45.88 0,-45.88 0,-26.62 115,-26.62 115,-45.88"/>
<text xml:space="preserve" text-anchor="middle" x="57.5" y="-32.38" font-family="Helvetica,sans-Serif" font-size="10.00">QSortFilterProxyModel</text>
</a>
</g>
</g>
<!-- Node1 -->
<g id="Node000001" class="node">
<title>Node1</title>
<g id="a_Node000001"><a xlink:href="class_im_fusion_1_1_data_filter_model.html" target="_top" xlink:title="The DataFilterModel class is a proxy model to filter a DataItemModel.">
<polygon fill="white" stroke="#666666" points="291.12,-67.88 159.62,-67.88 159.62,-48.62 291.12,-48.62 291.12,-67.88"/>
<text xml:space="preserve" text-anchor="middle" x="225.38" y="-54.38" font-family="Helvetica,sans-Serif" font-size="10.00">ImFusion::DataFilterModel</text>
</a>
</g>
</g>
<!-- Node0&#45;&gt;Node1 -->
<g id="edge1570_Node000000_Node000001" class="edge">
<title>Node0&#45;&gt;Node1</title>
<g id="a_edge1570_Node000000_Node000001"><a xlink:title=" ">
<path fill="none" stroke="#63b8ff" d="M126.28,-45.24C137.14,-46.68 148.36,-48.17 159.16,-49.6"/>
<polygon fill="#63b8ff" stroke="#63b8ff" points="126.99,-41.8 116.62,-43.96 126.07,-48.74 126.99,-41.8"/>
</a>
</g>
</g>
<!-- Node2 -->
<g id="Node000002" class="node">
<title>Node2</title>
<g id="a_Node000002"><a xlink:href="class_im_fusion_1_1_dicom_browser_filter_model.html" target="_top" xlink:title="A QSortFilterProxyModel specifically for a DicomBrowserModel.">
<polygon fill="white" stroke="#666666" points="299.75,-30.5 151,-30.5 151,0 299.75,0 299.75,-30.5"/>
<text xml:space="preserve" text-anchor="start" x="159" y="-17" font-family="Helvetica,sans-Serif" font-size="10.00">ImFusion::DicomBrowserFilter</text>
<text xml:space="preserve" text-anchor="middle" x="225.38" y="-5.75" font-family="Helvetica,sans-Serif" font-size="10.00">Model</text>
</a>
</g>
</g>
<!-- Node0&#45;&gt;Node2 -->
<g id="edge1571_Node000000_Node000002" class="edge">
<title>Node0&#45;&gt;Node2</title>
<g id="a_edge1571_Node000000_Node000002"><a xlink:title=" ">
<path fill="none" stroke="#63b8ff" d="M126.32,-27.66C134.36,-26.65 142.59,-25.6 150.7,-24.58"/>
<polygon fill="#63b8ff" stroke="#63b8ff" points="126.1,-24.16 116.62,-28.89 126.98,-31.11 126.1,-24.16"/>
</a>
</g>
</g>
</g>
</svg>
