<?xml version="1.0" encoding="UTF-8" standalone="no"?>
<!DOCTYPE svg PUBLIC "-//W3C//DTD SVG 1.1//EN"
 "http://www.w3.org/Graphics/SVG/1.1/DTD/svg11.dtd">
<!-- Generated by graphviz version 14.1.4 (20260321.0153)
 -->
<!-- Title: Graphical Class Hierarchy Pages: 1 -->
<svg width="1114pt" height="331pt"
 viewBox="0.00 0.00 1114.00 331.00" xmlns="http://www.w3.org/2000/svg" xmlns:xlink="http://www.w3.org/1999/xlink">
<g id="graph0" class="graph" transform="scale(1 1) rotate(0) translate(4 326.75)">
<title>Graphical Class Hierarchy</title>
<!-- Node0 -->
<g id="Node000000" class="node">
<title>Node0</title>
<g id="a_Node000000"><a xlink:href="struct_im_fusion_1_1_utils_1_1detail_1_1expected__default__ctor__base.html" target="_top" xlink:title=" ">
<polygon fill="white" stroke="#666666" points="906.38,-322.75 788.38,-322.75 788.38,-281 906.38,-281 906.38,-322.75"/>
<text xml:space="preserve" text-anchor="start" x="796.38" y="-309.25" font-family="Helvetica,sans-Serif" font-size="10.00">ImFusion::Utils::detail</text>
<text xml:space="preserve" text-anchor="start" x="796.38" y="-298" font-family="Helvetica,sans-Serif" font-size="10.00">::expected_default_ctor</text>
<text xml:space="preserve" text-anchor="middle" x="847.38" y="-286.75" font-family="Helvetica,sans-Serif" font-size="10.00">_base&lt; T, E, Enable &gt;</text>
</a>
</g>
</g>
<!-- Node1 -->
<g id="Node000001" class="node">
<title>Node1</title>
<g id="a_Node000001"><a xlink:href="class_im_fusion_1_1_utils_1_1_expected.html" target="_top" xlink:title=" ">
<polygon fill="white" stroke="#666666" points="1091.88,-200.12 961.88,-200.12 961.88,-169.62 1091.88,-169.62 1091.88,-200.12"/>
<text xml:space="preserve" text-anchor="start" x="969.88" y="-186.62" font-family="Helvetica,sans-Serif" font-size="10.00">ImFusion::Utils::Expected</text>
<text xml:space="preserve" text-anchor="middle" x="1026.88" y="-175.38" font-family="Helvetica,sans-Serif" font-size="10.00">&lt; Ret, err_t&lt; Exp &gt; &gt;</text>
</a>
</g>
</g>
<!-- Node0&#45;&gt;Node1 -->
<g id="edge1529_Node000000_Node000001" class="edge">
<title>Node0&#45;&gt;Node1</title>
<g id="a_edge1529_Node000000_Node000001"><a xlink:title=" ">
<path fill="none" stroke="#8b1a1a" d="M909.64,-273.95C910.45,-273.27 911.23,-272.58 912,-271.88 935.47,-250.33 923.18,-229.85 948,-209.88 952.54,-206.22 957.62,-203.1 962.95,-200.43"/>
<polygon fill="#8b1a1a" stroke="#8b1a1a" points="907.66,-271.06 901.68,-279.8 911.81,-276.7 907.66,-271.06"/>
</a>
</g>
</g>
<!-- Node3 -->
<g id="Node000003" class="node">
<title>Node3</title>
<g id="a_Node000003"><a xlink:href="class_im_fusion_1_1_utils_1_1_expected.html" target="_top" xlink:title=" ">
<polygon fill="white" stroke="#666666" points="1091.88,-151.75 961.88,-151.75 961.88,-110 1091.88,-110 1091.88,-151.75"/>
<text xml:space="preserve" text-anchor="start" x="969.88" y="-138.25" font-family="Helvetica,sans-Serif" font-size="10.00">ImFusion::Utils::Expected</text>
<text xml:space="preserve" text-anchor="start" x="969.88" y="-127" font-family="Helvetica,sans-Serif" font-size="10.00">&lt; std::vector&lt; DcmItem</text>
<text xml:space="preserve" text-anchor="middle" x="1026.88" y="-115.75" font-family="Helvetica,sans-Serif" font-size="10.00"> &gt;, Network::HttpError &gt;</text>
</a>
</g>
</g>
<!-- Node0&#45;&gt;Node3 -->
<g id="edge1530_Node000000_Node000003" class="edge">
<title>Node0&#45;&gt;Node3</title>
<g id="a_edge1530_Node000000_Node000003"><a xlink:title=" ">
<path fill="none" stroke="#8b1a1a" d="M910.92,-273.06C911.29,-272.67 911.65,-272.28 912,-271.88 946.27,-232.95 912.33,-198.53 948,-160.88 951.99,-156.67 956.63,-153.04 961.62,-149.92"/>
<polygon fill="#8b1a1a" stroke="#8b1a1a" points="908.74,-270.32 903.58,-279.57 913.38,-275.56 908.74,-270.32"/>
</a>
</g>
</g>
<!-- Node5 -->
<g id="Node000005" class="node">
<title>Node5</title>
<g id="a_Node000005"><a xlink:href="class_im_fusion_1_1_utils_1_1_expected.html" target="_top" xlink:title=" ">
<polygon fill="white" stroke="#666666" points="1105.75,-320.38 948,-320.38 948,-267.38 1105.75,-267.38 1105.75,-320.38"/>
<text xml:space="preserve" text-anchor="start" x="956" y="-306.88" font-family="Helvetica,sans-Serif" font-size="10.00">ImFusion::Utils::Expected</text>
<text xml:space="preserve" text-anchor="start" x="956" y="-295.62" font-family="Helvetica,sans-Serif" font-size="10.00">&lt; std::vector&lt; std::shared</text>
<text xml:space="preserve" text-anchor="start" x="956" y="-284.38" font-family="Helvetica,sans-Serif" font-size="10.00">_ptr&lt; DcmDataset &gt; &gt;, Network</text>
<text xml:space="preserve" text-anchor="middle" x="1026.88" y="-273.12" font-family="Helvetica,sans-Serif" font-size="10.00">::HttpError &gt;</text>
</a>
</g>
</g>
<!-- Node0&#45;&gt;Node5 -->
<g id="edge1531_Node000000_Node000005" class="edge">
<title>Node0&#45;&gt;Node5</title>
<g id="a_edge1531_Node000000_Node000005"><a xlink:title=" ">
<path fill="none" stroke="#8b1a1a" d="M917.8,-298.75C927.58,-298.31 937.69,-297.85 947.63,-297.4"/>
<polygon fill="#8b1a1a" stroke="#8b1a1a" points="917.84,-295.24 908.01,-299.19 918.15,-302.23 917.84,-295.24"/>
</a>
</g>
</g>
<!-- Node7 -->
<g id="Node000007" class="node">
<title>Node7</title>
<g id="a_Node000007"><a xlink:href="class_im_fusion_1_1_utils_1_1_expected.html" target="_top" xlink:title="An Expected&lt;T, E&gt; object is an object that contains the storage for another object and manages the li...">
<polygon fill="white" stroke="#666666" points="1091.88,-249.12 961.88,-249.12 961.88,-218.62 1091.88,-218.62 1091.88,-249.12"/>
<text xml:space="preserve" text-anchor="start" x="969.88" y="-235.62" font-family="Helvetica,sans-Serif" font-size="10.00">ImFusion::Utils::Expected</text>
<text xml:space="preserve" text-anchor="middle" x="1026.88" y="-224.38" font-family="Helvetica,sans-Serif" font-size="10.00">&lt; T, E &gt;</text>
</a>
</g>
</g>
<!-- Node0&#45;&gt;Node7 -->
<g id="edge1532_Node000000_Node000007" class="edge">
<title>Node0&#45;&gt;Node7</title>
<g id="a_edge1532_Node000000_Node000007"><a xlink:title=" ">
<path fill="none" stroke="#8b1a1a" d="M905.47,-276.11C919.29,-270.18 934.09,-264.1 948,-258.88 956.51,-255.68 965.63,-252.52 974.53,-249.58"/>
<polygon fill="#8b1a1a" stroke="#8b1a1a" points="904.3,-272.8 896.51,-279.99 907.08,-279.22 904.3,-272.8"/>
</a>
</g>
</g>
<!-- Node2 -->
<g id="Node000002" class="node">
<title>Node2</title>
<g id="a_Node000002"><a xlink:href="struct_im_fusion_1_1_utils_1_1detail_1_1expected__delete__assign__base.html" target="_top" xlink:title=" ">
<polygon fill="white" stroke="#666666" points="912,-203.38 782.75,-203.38 782.75,-150.38 912,-150.38 912,-203.38"/>
<text xml:space="preserve" text-anchor="start" x="790.75" y="-189.88" font-family="Helvetica,sans-Serif" font-size="10.00">ImFusion::Utils::detail</text>
<text xml:space="preserve" text-anchor="start" x="790.75" y="-178.62" font-family="Helvetica,sans-Serif" font-size="10.00">::expected_delete_assign</text>
<text xml:space="preserve" text-anchor="start" x="790.75" y="-167.38" font-family="Helvetica,sans-Serif" font-size="10.00">_base&lt; T, E, EnableCopy,</text>
<text xml:space="preserve" text-anchor="middle" x="847.38" y="-156.12" font-family="Helvetica,sans-Serif" font-size="10.00"> EnableMove &gt;</text>
</a>
</g>
</g>
<!-- Node2&#45;&gt;Node1 -->
<g id="edge1533_Node000002_Node000001" class="edge">
<title>Node2&#45;&gt;Node1</title>
<g id="a_edge1533_Node000002_Node000001"><a xlink:title=" ">
<path fill="none" stroke="#8b1a1a" d="M923.86,-180.28C936.42,-180.84 949.34,-181.43 961.59,-181.98"/>
<polygon fill="#8b1a1a" stroke="#8b1a1a" points="924.12,-176.79 913.97,-179.83 923.8,-183.78 924.12,-176.79"/>
</a>
</g>
</g>
<!-- Node2&#45;&gt;Node3 -->
<g id="edge1534_Node000002_Node000003" class="edge">
<title>Node2&#45;&gt;Node3</title>
<g id="a_edge1534_Node000002_Node000003"><a xlink:title=" ">
<path fill="none" stroke="#8b1a1a" d="M923.47,-157.41C936.16,-154.13 949.22,-150.74 961.59,-147.53"/>
<polygon fill="#8b1a1a" stroke="#8b1a1a" points="922.72,-153.99 913.92,-159.89 924.48,-160.77 922.72,-153.99"/>
</a>
</g>
</g>
<!-- Node2&#45;&gt;Node5 -->
<g id="edge1535_Node000002_Node000005" class="edge">
<title>Node2&#45;&gt;Node5</title>
<g id="a_edge1535_Node000002_Node000005"><a xlink:title=" ">
<path fill="none" stroke="#8b1a1a" d="M910.41,-210.54C910.94,-210.98 911.47,-211.43 912,-211.88 931.78,-228.7 927.65,-241.76 948,-257.88 952.09,-261.11 956.51,-264.14 961.11,-266.95"/>
<polygon fill="#8b1a1a" stroke="#8b1a1a" points="912.56,-207.79 902.46,-204.61 908.37,-213.39 912.56,-207.79"/>
</a>
</g>
</g>
<!-- Node2&#45;&gt;Node7 -->
<g id="edge1536_Node000002_Node000007" class="edge">
<title>Node2&#45;&gt;Node7</title>
<g id="a_edge1536_Node000002_Node000007"><a xlink:title=" ">
<path fill="none" stroke="#8b1a1a" d="M923.31,-200.94C941.44,-206.76 960.35,-212.83 976.93,-218.16"/>
<polygon fill="#8b1a1a" stroke="#8b1a1a" points="924.49,-197.64 913.9,-197.92 922.35,-204.31 924.49,-197.64"/>
</a>
</g>
</g>
<!-- Node4 -->
<g id="Node000004" class="node">
<title>Node4</title>
<g id="a_Node000004"><a xlink:href="struct_im_fusion_1_1_utils_1_1detail_1_1expected__delete__ctor__base.html" target="_top" xlink:title=" ">
<polygon fill="white" stroke="#666666" points="912,-132.38 782.75,-132.38 782.75,-79.38 912,-79.38 912,-132.38"/>
<text xml:space="preserve" text-anchor="start" x="790.75" y="-118.88" font-family="Helvetica,sans-Serif" font-size="10.00">ImFusion::Utils::detail</text>
<text xml:space="preserve" text-anchor="start" x="790.75" y="-107.62" font-family="Helvetica,sans-Serif" font-size="10.00">::expected_delete_ctor</text>
<text xml:space="preserve" text-anchor="start" x="790.75" y="-96.38" font-family="Helvetica,sans-Serif" font-size="10.00">_base&lt; T, E, EnableCopy,</text>
<text xml:space="preserve" text-anchor="middle" x="847.38" y="-85.12" font-family="Helvetica,sans-Serif" font-size="10.00"> EnableMove &gt;</text>
</a>
</g>
</g>
<!-- Node4&#45;&gt;Node1 -->
<g id="edge1537_Node000004_Node000001" class="edge">
<title>Node4&#45;&gt;Node1</title>
<g id="a_edge1537_Node000004_Node000001"><a xlink:title=" ">
<path fill="none" stroke="#8b1a1a" d="M905.9,-138.26C925.25,-149.03 943.18,-158.83 948,-160.88 955.03,-163.86 962.56,-166.66 970.07,-169.21"/>
<polygon fill="#8b1a1a" stroke="#8b1a1a" points="907.79,-135.31 897.35,-133.49 904.37,-141.42 907.79,-135.31"/>
</a>
</g>
</g>
<!-- Node4&#45;&gt;Node3 -->
<g id="edge1538_Node000004_Node000003" class="edge">
<title>Node4&#45;&gt;Node3</title>
<g id="a_edge1538_Node000004_Node000003"><a xlink:title=" ">
<path fill="none" stroke="#8b1a1a" d="M923.47,-116.45C936.16,-118.24 949.22,-120.08 961.59,-121.82"/>
<polygon fill="#8b1a1a" stroke="#8b1a1a" points="924.35,-113.04 913.96,-115.11 923.37,-119.97 924.35,-113.04"/>
</a>
</g>
</g>
<!-- Node4&#45;&gt;Node5 -->
<g id="edge1539_Node000004_Node000005" class="edge">
<title>Node4&#45;&gt;Node5</title>
<g id="a_edge1539_Node000004_Node000005"><a xlink:title=" ">
<path fill="none" stroke="#8b1a1a" d="M911,-140.66C911.34,-141.06 911.67,-141.47 912,-141.88 945.88,-183.9 912.43,-217.27 948,-257.88 950.94,-261.24 954.27,-264.3 957.84,-267.1"/>
<polygon fill="#8b1a1a" stroke="#8b1a1a" points="913.74,-138.46 904.19,-133.88 908.8,-143.42 913.74,-138.46"/>
</a>
</g>
</g>
<!-- Node4&#45;&gt;Node7 -->
<g id="edge1540_Node000004_Node000007" class="edge">
<title>Node4&#45;&gt;Node7</title>
<g id="a_edge1540_Node000004_Node000007"><a xlink:title=" ">
<path fill="none" stroke="#8b1a1a" d="M910.17,-140.06C910.79,-140.66 911.4,-141.26 912,-141.88 935.64,-166.04 922.02,-187.25 948,-208.88 952.37,-212.51 957.27,-215.62 962.43,-218.28"/>
<polygon fill="#8b1a1a" stroke="#8b1a1a" points="912.54,-137.49 902.65,-133.68 908.01,-142.82 912.54,-137.49"/>
</a>
</g>
</g>
<!-- Node16 -->
<g id="Node000016" class="node">
<title>Node16</title>
<g id="a_Node000016"><a xlink:href="struct_im_fusion_1_1_utils_1_1detail_1_1expected__storage__base.html" target="_top" xlink:title=" ">
<polygon fill="white" stroke="#666666" points="125.5,-71.75 0,-71.75 0,-30 125.5,-30 125.5,-71.75"/>
<text xml:space="preserve" text-anchor="start" x="8" y="-58.25" font-family="Helvetica,sans-Serif" font-size="10.00">ImFusion::Utils::detail</text>
<text xml:space="preserve" text-anchor="start" x="8" y="-47" font-family="Helvetica,sans-Serif" font-size="10.00">::expected_storage_base</text>
<text xml:space="preserve" text-anchor="middle" x="62.75" y="-35.75" font-family="Helvetica,sans-Serif" font-size="10.00">&lt; T, E, bool, bool &gt;</text>
</a>
</g>
</g>
<!-- Node14 -->
<g id="Node000014" class="node">
<title>Node14</title>
<g id="a_Node000014"><a xlink:href="struct_im_fusion_1_1_utils_1_1detail_1_1expected__operations__base.html" target="_top" xlink:title=" ">
<polygon fill="white" stroke="#666666" points="273.5,-71.75 161.5,-71.75 161.5,-30 273.5,-30 273.5,-71.75"/>
<text xml:space="preserve" text-anchor="start" x="169.5" y="-58.25" font-family="Helvetica,sans-Serif" font-size="10.00">ImFusion::Utils::detail</text>
<text xml:space="preserve" text-anchor="start" x="169.5" y="-47" font-family="Helvetica,sans-Serif" font-size="10.00">::expected_operations</text>
<text xml:space="preserve" text-anchor="middle" x="217.5" y="-35.75" font-family="Helvetica,sans-Serif" font-size="10.00">_base&lt; T, E &gt;</text>
</a>
</g>
</g>
<!-- Node16&#45;&gt;Node14 -->
<g id="edge1541_Node000016_Node000014" class="edge">
<title>Node16&#45;&gt;Node14</title>
<g id="a_edge1541_Node000016_Node000014"><a xlink:title=" ">
<path fill="none" stroke="#63b8ff" d="M137.25,-50.88C145.35,-50.88 153.48,-50.88 161.3,-50.88"/>
<polygon fill="#63b8ff" stroke="#63b8ff" points="137.39,-47.38 127.39,-50.88 137.39,-54.38 137.39,-47.38"/>
</a>
</g>
</g>
<!-- Node15 -->
<g id="Node000015" class="node">
<title>Node15</title>
<g id="a_Node000015"><a xlink:href="struct_im_fusion_1_1_utils_1_1detail_1_1expected__copy__base_3_01_t_00_01_e_00_01false_01_4.html" target="_top" xlink:title=" ">
<polygon fill="white" stroke="#666666" points="429.75,-41.75 309.5,-41.75 309.5,0 429.75,0 429.75,-41.75"/>
<text xml:space="preserve" text-anchor="start" x="317.5" y="-28.25" font-family="Helvetica,sans-Serif" font-size="10.00">ImFusion::Utils::detail</text>
<text xml:space="preserve" text-anchor="start" x="317.5" y="-17" font-family="Helvetica,sans-Serif" font-size="10.00">::expected_copy_base&lt;</text>
<text xml:space="preserve" text-anchor="middle" x="369.62" y="-5.75" font-family="Helvetica,sans-Serif" font-size="10.00"> T, E, false &gt;</text>
</a>
</g>
</g>
<!-- Node14&#45;&gt;Node15 -->
<g id="edge1542_Node000014_Node000015" class="edge">
<title>Node14&#45;&gt;Node15</title>
<g id="a_edge1542_Node000014_Node000015"><a xlink:title=" ">
<path fill="none" stroke="#63b8ff" d="M285.13,-37.56C293.11,-35.96 301.22,-34.34 309.09,-32.77"/>
<polygon fill="#63b8ff" stroke="#63b8ff" points="284.58,-34.1 275.46,-39.49 285.95,-40.97 284.58,-34.1"/>
</a>
</g>
</g>
<!-- Node12 -->
<g id="Node000012" class="node">
<title>Node12</title>
<g id="a_Node000012"><a xlink:href="struct_im_fusion_1_1_utils_1_1detail_1_1expected__copy__base.html" target="_top" xlink:title=" ">
<polygon fill="white" stroke="#666666" points="429.75,-101.75 309.5,-101.75 309.5,-60 429.75,-60 429.75,-101.75"/>
<text xml:space="preserve" text-anchor="start" x="317.5" y="-88.25" font-family="Helvetica,sans-Serif" font-size="10.00">ImFusion::Utils::detail</text>
<text xml:space="preserve" text-anchor="start" x="317.5" y="-77" font-family="Helvetica,sans-Serif" font-size="10.00">::expected_copy_base&lt;</text>
<text xml:space="preserve" text-anchor="middle" x="369.62" y="-65.75" font-family="Helvetica,sans-Serif" font-size="10.00"> T, E, bool &gt;</text>
</a>
</g>
</g>
<!-- Node14&#45;&gt;Node12 -->
<g id="edge1543_Node000014_Node000012" class="edge">
<title>Node14&#45;&gt;Node12</title>
<g id="a_edge1543_Node000014_Node000012"><a xlink:title=" ">
<path fill="none" stroke="#63b8ff" d="M285.13,-64.19C293.11,-65.79 301.22,-67.41 309.09,-68.98"/>
<polygon fill="#63b8ff" stroke="#63b8ff" points="285.95,-60.78 275.46,-62.26 284.58,-67.65 285.95,-60.78"/>
</a>
</g>
</g>
<!-- Node13 -->
<g id="Node000013" class="node">
<title>Node13</title>
<g id="a_Node000013"><a xlink:href="struct_im_fusion_1_1_utils_1_1detail_1_1expected__move__base_3_01_t_00_01_e_00_01false_01_4.html" target="_top" xlink:title=" ">
<polygon fill="white" stroke="#666666" points="589,-71.75 465.75,-71.75 465.75,-30 589,-30 589,-71.75"/>
<text xml:space="preserve" text-anchor="start" x="473.75" y="-58.25" font-family="Helvetica,sans-Serif" font-size="10.00">ImFusion::Utils::detail</text>
<text xml:space="preserve" text-anchor="start" x="473.75" y="-47" font-family="Helvetica,sans-Serif" font-size="10.00">::expected_move_base&lt;</text>
<text xml:space="preserve" text-anchor="middle" x="527.38" y="-35.75" font-family="Helvetica,sans-Serif" font-size="10.00"> T, E, false &gt;</text>
</a>
</g>
</g>
<!-- Node12&#45;&gt;Node13 -->
<g id="edge1544_Node000012_Node000013" class="edge">
<title>Node12&#45;&gt;Node13</title>
<g id="a_edge1544_Node000012_Node000013"><a xlink:title=" ">
<path fill="none" stroke="#63b8ff" d="M441.25,-67.27C449.31,-65.72 457.48,-64.15 465.4,-62.62"/>
<polygon fill="#63b8ff" stroke="#63b8ff" points="440.6,-63.83 431.44,-69.16 441.92,-70.71 440.6,-63.83"/>
</a>
</g>
</g>
<!-- Node10 -->
<g id="Node000010" class="node">
<title>Node10</title>
<g id="a_Node000010"><a xlink:href="struct_im_fusion_1_1_utils_1_1detail_1_1expected__move__base.html" target="_top" xlink:title=" ">
<polygon fill="white" stroke="#666666" points="589,-131.75 465.75,-131.75 465.75,-90 589,-90 589,-131.75"/>
<text xml:space="preserve" text-anchor="start" x="473.75" y="-118.25" font-family="Helvetica,sans-Serif" font-size="10.00">ImFusion::Utils::detail</text>
<text xml:space="preserve" text-anchor="start" x="473.75" y="-107" font-family="Helvetica,sans-Serif" font-size="10.00">::expected_move_base&lt;</text>
<text xml:space="preserve" text-anchor="middle" x="527.38" y="-95.75" font-family="Helvetica,sans-Serif" font-size="10.00"> T, E, bool &gt;</text>
</a>
</g>
</g>
<!-- Node12&#45;&gt;Node10 -->
<g id="edge1545_Node000012_Node000010" class="edge">
<title>Node12&#45;&gt;Node10</title>
<g id="a_edge1545_Node000012_Node000010"><a xlink:title=" ">
<path fill="none" stroke="#63b8ff" d="M441.25,-94.48C449.31,-96.03 457.48,-97.6 465.4,-99.13"/>
<polygon fill="#63b8ff" stroke="#63b8ff" points="441.92,-91.04 431.44,-92.59 440.6,-97.92 441.92,-91.04"/>
</a>
</g>
</g>
<!-- Node11 -->
<g id="Node000011" class="node">
<title>Node11</title>
<g id="a_Node000011"><a xlink:href="struct_im_fusion_1_1_utils_1_1detail_1_1expected__copy__assign__base_3_01_t_00_01_e_00_01false_01_4.html" target="_top" xlink:title=" ">
<polygon fill="white" stroke="#666666" points="746.75,-101.75 625,-101.75 625,-60 746.75,-60 746.75,-101.75"/>
<text xml:space="preserve" text-anchor="start" x="633" y="-88.25" font-family="Helvetica,sans-Serif" font-size="10.00">ImFusion::Utils::detail</text>
<text xml:space="preserve" text-anchor="start" x="633" y="-77" font-family="Helvetica,sans-Serif" font-size="10.00">::expected_copy_assign</text>
<text xml:space="preserve" text-anchor="middle" x="685.88" y="-65.75" font-family="Helvetica,sans-Serif" font-size="10.00">_base&lt; T, E, false &gt;</text>
</a>
</g>
</g>
<!-- Node10&#45;&gt;Node11 -->
<g id="edge1546_Node000010_Node000011" class="edge">
<title>Node10&#45;&gt;Node11</title>
<g id="a_edge1546_Node000010_Node000011"><a xlink:title=" ">
<path fill="none" stroke="#63b8ff" d="M600.59,-97.03C608.62,-95.49 616.74,-93.94 624.6,-92.43"/>
<polygon fill="#63b8ff" stroke="#63b8ff" points="599.98,-93.59 590.82,-98.91 601.3,-100.46 599.98,-93.59"/>
</a>
</g>
</g>
<!-- Node8 -->
<g id="Node000008" class="node">
<title>Node8</title>
<g id="a_Node000008"><a xlink:href="struct_im_fusion_1_1_utils_1_1detail_1_1expected__copy__assign__base.html" target="_top" xlink:title=" ">
<polygon fill="white" stroke="#666666" points="746.75,-161.75 625,-161.75 625,-120 746.75,-120 746.75,-161.75"/>
<text xml:space="preserve" text-anchor="start" x="633" y="-148.25" font-family="Helvetica,sans-Serif" font-size="10.00">ImFusion::Utils::detail</text>
<text xml:space="preserve" text-anchor="start" x="633" y="-137" font-family="Helvetica,sans-Serif" font-size="10.00">::expected_copy_assign</text>
<text xml:space="preserve" text-anchor="middle" x="685.88" y="-125.75" font-family="Helvetica,sans-Serif" font-size="10.00">_base&lt; T, E, bool &gt;</text>
</a>
</g>
</g>
<!-- Node10&#45;&gt;Node8 -->
<g id="edge1547_Node000010_Node000008" class="edge">
<title>Node10&#45;&gt;Node8</title>
<g id="a_edge1547_Node000010_Node000008"><a xlink:title=" ">
<path fill="none" stroke="#63b8ff" d="M600.59,-124.72C608.62,-126.26 616.74,-127.81 624.6,-129.32"/>
<polygon fill="#63b8ff" stroke="#63b8ff" points="601.3,-121.29 590.82,-122.84 599.98,-128.16 601.3,-121.29"/>
</a>
</g>
</g>
<!-- Node9 -->
<g id="Node000009" class="node">
<title>Node9</title>
<g id="a_Node000009"><a xlink:href="struct_im_fusion_1_1_utils_1_1detail_1_1expected__move__assign__base_3_01_t_00_01_e_00_01false_01_4.html" target="_top" xlink:title=" ">
<polygon fill="white" stroke="#666666" points="909.75,-61.75 785,-61.75 785,-20 909.75,-20 909.75,-61.75"/>
<text xml:space="preserve" text-anchor="start" x="793" y="-48.25" font-family="Helvetica,sans-Serif" font-size="10.00">ImFusion::Utils::detail</text>
<text xml:space="preserve" text-anchor="start" x="793" y="-37" font-family="Helvetica,sans-Serif" font-size="10.00">::expected_move_assign</text>
<text xml:space="preserve" text-anchor="middle" x="847.38" y="-25.75" font-family="Helvetica,sans-Serif" font-size="10.00">_base&lt; T, E, false &gt;</text>
</a>
</g>
</g>
<!-- Node8&#45;&gt;Node9 -->
<g id="edge1548_Node000008_Node000009" class="edge">
<title>Node8&#45;&gt;Node9</title>
<g id="a_edge1548_Node000008_Node000009"><a xlink:title=" ">
<path fill="none" stroke="#63b8ff" d="M743.25,-113.47C744.44,-112.62 745.61,-111.75 746.75,-110.88 765.95,-96.06 763.28,-84.34 782.75,-69.88 786.45,-67.12 790.46,-64.55 794.6,-62.16"/>
<polygon fill="#63b8ff" stroke="#63b8ff" points="741.47,-110.45 734.99,-118.84 745.28,-116.32 741.47,-110.45"/>
</a>
</g>
</g>
<!-- Node6 -->
<g id="Node000006" class="node">
<title>Node6</title>
<g id="a_Node000006"><a xlink:href="struct_im_fusion_1_1_utils_1_1detail_1_1expected__move__assign__base.html" target="_top" xlink:title=" ">
<polygon fill="white" stroke="#666666" points="909.75,-262.75 785,-262.75 785,-221 909.75,-221 909.75,-262.75"/>
<text xml:space="preserve" text-anchor="start" x="793" y="-249.25" font-family="Helvetica,sans-Serif" font-size="10.00">ImFusion::Utils::detail</text>
<text xml:space="preserve" text-anchor="start" x="793" y="-238" font-family="Helvetica,sans-Serif" font-size="10.00">::expected_move_assign</text>
<text xml:space="preserve" text-anchor="middle" x="847.38" y="-226.75" font-family="Helvetica,sans-Serif" font-size="10.00">_base&lt; T, E, bool &gt;</text>
</a>
</g>
</g>
<!-- Node8&#45;&gt;Node6 -->
<g id="edge1549_Node000008_Node000006" class="edge">
<title>Node8&#45;&gt;Node6</title>
<g id="a_edge1549_Node000008_Node000006"><a xlink:title=" ">
<path fill="none" stroke="#63b8ff" d="M720.71,-169.12C738.52,-183.25 761.11,-200.02 782.75,-212.88 787.24,-215.54 792.01,-218.13 796.85,-220.59"/>
<polygon fill="#63b8ff" stroke="#63b8ff" points="723.03,-166.5 713.04,-162.96 718.64,-171.95 723.03,-166.5"/>
</a>
</g>
</g>
<!-- Node6&#45;&gt;Node1 -->
<g id="edge1550_Node000006_Node000001" class="edge">
<title>Node6&#45;&gt;Node1</title>
<g id="a_edge1550_Node000006_Node000001"><a xlink:title=" ">
<path fill="none" stroke="#8b1a1a" d="M920.66,-218.66C939.6,-212.58 959.58,-206.16 976.98,-200.58"/>
<polygon fill="#8b1a1a" stroke="#8b1a1a" points="919.85,-215.25 911.4,-221.64 921.99,-221.91 919.85,-215.25"/>
</a>
</g>
</g>
<!-- Node6&#45;&gt;Node3 -->
<g id="edge1551_Node000006_Node000003" class="edge">
<title>Node6&#45;&gt;Node3</title>
<g id="a_edge1551_Node000006_Node000003"><a xlink:title=" ">
<path fill="none" stroke="#8b1a1a" d="M910.41,-214.17C910.94,-213.75 911.48,-213.31 912,-212.88 933.56,-194.84 925.91,-178.25 948,-160.88 952.21,-157.56 956.84,-154.58 961.66,-151.9"/>
<polygon fill="#8b1a1a" stroke="#8b1a1a" points="908.58,-211.18 902.39,-219.78 912.59,-216.92 908.58,-211.18"/>
</a>
</g>
</g>
<!-- Node6&#45;&gt;Node5 -->
<g id="edge1552_Node000006_Node000005" class="edge">
<title>Node6&#45;&gt;Node5</title>
<g id="a_edge1552_Node000006_Node000005"><a xlink:title=" ">
<path fill="none" stroke="#8b1a1a" d="M920.92,-263.13C929.69,-265.7 938.67,-268.33 947.52,-270.92"/>
<polygon fill="#8b1a1a" stroke="#8b1a1a" points="921.99,-259.79 911.41,-260.34 920.02,-266.51 921.99,-259.79"/>
</a>
</g>
</g>
<!-- Node6&#45;&gt;Node7 -->
<g id="edge1553_Node000006_Node000007" class="edge">
<title>Node6&#45;&gt;Node7</title>
<g id="a_edge1553_Node000006_Node000007"><a xlink:title=" ">
<path fill="none" stroke="#8b1a1a" d="M921.44,-238.58C934.68,-237.99 948.41,-237.37 961.38,-236.78"/>
<polygon fill="#8b1a1a" stroke="#8b1a1a" points="921.3,-235.08 911.47,-239.03 921.62,-242.08 921.3,-235.08"/>
</a>
</g>
</g>
</g>
</svg>
