<?xml version="1.0" encoding="UTF-8" standalone="no"?>
<!DOCTYPE svg PUBLIC "-//W3C//DTD SVG 1.1//EN"
 "http://www.w3.org/Graphics/SVG/1.1/DTD/svg11.dtd">
<!-- Generated by graphviz version 14.1.4 (20260321.0153)
 -->
<!-- Title: Graphical Class Hierarchy Pages: 1 -->
<svg width="484pt" height="88pt"
 viewBox="0.00 0.00 484.00 88.00" xmlns="http://www.w3.org/2000/svg" xmlns:xlink="http://www.w3.org/1999/xlink">
<g id="graph0" class="graph" transform="scale(1 1) rotate(0) translate(4 83.5)">
<title>Graphical Class Hierarchy</title>
<!-- Node0 -->
<g id="Node000000" class="node">
<title>Node0</title>
<g id="a_Node000000"><a xlink:title=" ">
<polygon fill="#e0e0e0" stroke="#999999" points="109.75,-48.88 0,-48.88 0,-29.62 109.75,-29.62 109.75,-48.88"/>
<text xml:space="preserve" text-anchor="middle" x="54.88" y="-35.38" font-family="Helvetica,sans-Serif" font-size="10.00">QStyledItemDelegate</text>
</a>
</g>
</g>
<!-- Node1 -->
<g id="Node000001" class="node">
<title>Node1</title>
<g id="a_Node000001"><a xlink:href="class_im_fusion_1_1_data_widget_item_delegate.html" target="_top" xlink:title="Base interface for a Qt item delegate that defines how the entries in a DataWidget are supposed to be...">
<polygon fill="white" stroke="#666666" points="287,-79.5 153.25,-79.5 153.25,-49 287,-49 287,-79.5"/>
<text xml:space="preserve" text-anchor="start" x="161.25" y="-66" font-family="Helvetica,sans-Serif" font-size="10.00">ImFusion::DataWidgetItem</text>
<text xml:space="preserve" text-anchor="middle" x="220.12" y="-54.75" font-family="Helvetica,sans-Serif" font-size="10.00">Delegate</text>
</a>
</g>
</g>
<!-- Node0&#45;&gt;Node1 -->
<g id="edge1572_Node000000_Node000001" class="edge">
<title>Node0&#45;&gt;Node1</title>
<g id="a_edge1572_Node000000_Node000001"><a xlink:title=" ">
<path fill="none" stroke="#63b8ff" d="M121.31,-49.27C131.68,-50.86 142.41,-52.5 152.8,-54.09"/>
<polygon fill="#63b8ff" stroke="#63b8ff" points="122.15,-45.86 111.73,-47.8 121.09,-52.78 122.15,-45.86"/>
</a>
</g>
</g>
<!-- Node3 -->
<g id="Node000003" class="node">
<title>Node3</title>
<g id="a_Node000003"><a xlink:href="class_im_fusion_1_1_registration_results_controller_1_1_list_item_delegate.html" target="_top" xlink:title="Custom Item Delegate that paints an item in the results list If data(Qt::UserRole + 1)....">
<polygon fill="white" stroke="#666666" points="294.5,-30.5 145.75,-30.5 145.75,0 294.5,0 294.5,-30.5"/>
<text xml:space="preserve" text-anchor="start" x="153.75" y="-17" font-family="Helvetica,sans-Serif" font-size="10.00">ImFusion::RegistrationResults</text>
<text xml:space="preserve" text-anchor="middle" x="220.12" y="-5.75" font-family="Helvetica,sans-Serif" font-size="10.00">Controller::ListItemDelegate</text>
</a>
</g>
</g>
<!-- Node0&#45;&gt;Node3 -->
<g id="edge1574_Node000000_Node000003" class="edge">
<title>Node0&#45;&gt;Node3</title>
<g id="a_edge1574_Node000000_Node000003"><a xlink:title=" ">
<path fill="none" stroke="#63b8ff" d="M121.59,-29.59C129.47,-28.43 137.55,-27.24 145.53,-26.07"/>
<polygon fill="#63b8ff" stroke="#63b8ff" points="121.12,-26.12 111.73,-31.04 122.14,-33.05 121.12,-26.12"/>
</a>
</g>
</g>
<!-- Node2 -->
<g id="Node000002" class="node">
<title>Node2</title>
<g id="a_Node000002"><a xlink:href="class_im_fusion_1_1_default_data_widget_item_delegate.html" target="_top" xlink:title="Default implementation of the DataWidgetDelegate that is used for instance in the ImFusion Suite.">
<polygon fill="white" stroke="#666666" points="476.25,-79.5 330.5,-79.5 330.5,-49 476.25,-49 476.25,-79.5"/>
<text xml:space="preserve" text-anchor="start" x="338.5" y="-66" font-family="Helvetica,sans-Serif" font-size="10.00">ImFusion::DefaultDataWidget</text>
<text xml:space="preserve" text-anchor="middle" x="403.38" y="-54.75" font-family="Helvetica,sans-Serif" font-size="10.00">ItemDelegate</text>
</a>
</g>
</g>
<!-- Node1&#45;&gt;Node2 -->
<g id="edge1573_Node000001_Node000002" class="edge">
<title>Node1&#45;&gt;Node2</title>
<g id="a_edge1573_Node000001_Node000002"><a xlink:title=" ">
<path fill="none" stroke="#63b8ff" d="M298.6,-64.25C309.1,-64.25 319.84,-64.25 330.24,-64.25"/>
<polygon fill="#63b8ff" stroke="#63b8ff" points="298.84,-60.75 288.84,-64.25 298.84,-67.75 298.84,-60.75"/>
</a>
</g>
</g>
</g>
</svg>
