<?xml version="1.0" encoding="UTF-8" standalone="no"?>
<!DOCTYPE svg PUBLIC "-//W3C//DTD SVG 1.1//EN"
 "http://www.w3.org/Graphics/SVG/1.1/DTD/svg11.dtd">
<!-- Generated by graphviz version 14.1.4 (20260321.0153)
 -->
<!-- Title: Graphical Class Hierarchy Pages: 1 -->
<svg width="505pt" height="100pt"
 viewBox="0.00 0.00 505.00 100.00" xmlns="http://www.w3.org/2000/svg" xmlns:xlink="http://www.w3.org/1999/xlink">
<g id="graph0" class="graph" transform="scale(1 1) rotate(0) translate(4 95.88)">
<title>Graphical Class Hierarchy</title>
<!-- Node0 -->
<g id="Node000000" class="node">
<title>Node0</title>
<g id="a_Node000000"><a xlink:href="class_im_fusion_1_1_seg_1_1_segmented_structure.html" target="_top" xlink:title="Interface class that offers methods to obtain measuring markers on a segmented object.">
<polygon fill="white" stroke="#666666" points="135.25,-75.5 0,-75.5 0,-45 135.25,-45 135.25,-75.5"/>
<text xml:space="preserve" text-anchor="start" x="8" y="-62" font-family="Helvetica,sans-Serif" font-size="10.00">ImFusion::Seg::Segmented</text>
<text xml:space="preserve" text-anchor="middle" x="67.62" y="-50.75" font-family="Helvetica,sans-Serif" font-size="10.00">Structure</text>
</a>
</g>
</g>
<!-- Node1 -->
<g id="Node000001" class="node">
<title>Node1</title>
<g id="a_Node000001"><a xlink:href="class_im_fusion_1_1_seg_1_1_segmented_blob.html" target="_top" xlink:title=" ">
<polygon fill="white" stroke="#666666" points="326,-91.88 171.25,-91.88 171.25,-72.62 326,-72.62 326,-91.88"/>
<text xml:space="preserve" text-anchor="middle" x="248.62" y="-78.38" font-family="Helvetica,sans-Serif" font-size="10.00">ImFusion::Seg::SegmentedBlob</text>
</a>
</g>
</g>
<!-- Node0&#45;&gt;Node1 -->
<g id="edge1514_Node000000_Node000001" class="edge">
<title>Node0&#45;&gt;Node1</title>
<g id="a_edge1514_Node000000_Node000001"><a xlink:title=" ">
<path fill="none" stroke="#63b8ff" d="M146.74,-69.85C154.74,-70.83 162.87,-71.83 170.86,-72.82"/>
<polygon fill="#63b8ff" stroke="#63b8ff" points="147.39,-66.4 137.03,-68.66 146.53,-73.35 147.39,-66.4"/>
</a>
</g>
</g>
<!-- Node2 -->
<g id="Node000002" class="node">
<title>Node2</title>
<g id="a_Node000002"><a xlink:href="class_im_fusion_1_1_seg_1_1_segmented_structure_with_reference.html" target="_top" xlink:title=" ">
<polygon fill="white" stroke="#666666" points="316.25,-54.5 181,-54.5 181,-24 316.25,-24 316.25,-54.5"/>
<text xml:space="preserve" text-anchor="start" x="189" y="-41" font-family="Helvetica,sans-Serif" font-size="10.00">ImFusion::Seg::Segmented</text>
<text xml:space="preserve" text-anchor="middle" x="248.62" y="-29.75" font-family="Helvetica,sans-Serif" font-size="10.00">StructureWithReference</text>
</a>
</g>
</g>
<!-- Node0&#45;&gt;Node2 -->
<g id="edge1515_Node000000_Node000002" class="edge">
<title>Node0&#45;&gt;Node2</title>
<g id="a_edge1515_Node000000_Node000002"><a xlink:title=" ">
<path fill="none" stroke="#63b8ff" d="M146.69,-51.09C157.96,-49.77 169.47,-48.42 180.5,-47.12"/>
<polygon fill="#63b8ff" stroke="#63b8ff" points="146.56,-47.58 137.04,-52.22 147.38,-54.54 146.56,-47.58"/>
</a>
</g>
</g>
<!-- Node3 -->
<g id="Node000003" class="node">
<title>Node3</title>
<g id="a_Node000003"><a xlink:href="class_im_fusion_1_1_seg_1_1_segmented_ellipse_structure.html" target="_top" xlink:title=" ">
<polygon fill="white" stroke="#666666" points="497.25,-79.5 362,-79.5 362,-49 497.25,-49 497.25,-79.5"/>
<text xml:space="preserve" text-anchor="start" x="370" y="-66" font-family="Helvetica,sans-Serif" font-size="10.00">ImFusion::Seg::Segmented</text>
<text xml:space="preserve" text-anchor="middle" x="429.62" y="-54.75" font-family="Helvetica,sans-Serif" font-size="10.00">EllipseStructure</text>
</a>
</g>
</g>
<!-- Node2&#45;&gt;Node3 -->
<g id="edge1516_Node000002_Node000003" class="edge">
<title>Node2&#45;&gt;Node3</title>
<g id="a_edge1516_Node000002_Node000003"><a xlink:title=" ">
<path fill="none" stroke="#63b8ff" d="M327.69,-50.15C338.96,-51.73 350.47,-53.33 361.5,-54.88"/>
<polygon fill="#63b8ff" stroke="#63b8ff" points="328.42,-46.72 318.03,-48.8 327.45,-53.65 328.42,-46.72"/>
</a>
</g>
</g>
<!-- Node4 -->
<g id="Node000004" class="node">
<title>Node4</title>
<g id="a_Node000004"><a xlink:href="class_im_fusion_1_1_seg_1_1_segmented_line2_d_structure.html" target="_top" xlink:title=" ">
<polygon fill="white" stroke="#666666" points="497.25,-30.5 362,-30.5 362,0 497.25,0 497.25,-30.5"/>
<text xml:space="preserve" text-anchor="start" x="370" y="-17" font-family="Helvetica,sans-Serif" font-size="10.00">ImFusion::Seg::Segmented</text>
<text xml:space="preserve" text-anchor="middle" x="429.62" y="-5.75" font-family="Helvetica,sans-Serif" font-size="10.00">Line2DStructure</text>
</a>
</g>
</g>
<!-- Node2&#45;&gt;Node4 -->
<g id="edge1517_Node000002_Node000004" class="edge">
<title>Node2&#45;&gt;Node4</title>
<g id="a_edge1517_Node000002_Node000004"><a xlink:title=" ">
<path fill="none" stroke="#63b8ff" d="M327.69,-28.78C338.96,-27.27 350.47,-25.73 361.5,-24.25"/>
<polygon fill="#63b8ff" stroke="#63b8ff" points="327.48,-25.28 318.03,-30.08 328.41,-32.22 327.48,-25.28"/>
</a>
</g>
</g>
</g>
</svg>
