<?xml version="1.0" encoding="UTF-8" standalone="no"?>
<!DOCTYPE svg PUBLIC "-//W3C//DTD SVG 1.1//EN"
 "http://www.w3.org/Graphics/SVG/1.1/DTD/svg11.dtd">
<!-- Generated by graphviz version 14.1.4 (20260321.0153)
 -->
<!-- Title: Graphical Class Hierarchy Pages: 1 -->
<svg width="291pt" height="101pt"
 viewBox="0.00 0.00 291.00 101.00" xmlns="http://www.w3.org/2000/svg" xmlns:xlink="http://www.w3.org/1999/xlink">
<g id="graph0" class="graph" transform="scale(1 1) rotate(0) translate(4 97.25)">
<title>Graphical Class Hierarchy</title>
<!-- Node0 -->
<g id="Node000000" class="node">
<title>Node0</title>
<g id="a_Node000000"><a xlink:href="class_im_fusion_1_1_live_sensor_fusion.html" target="_top" xlink:title="Abstract base class for 9DOF sensor fusion algorithms.">
<polygon fill="white" stroke="#666666" points="140.5,-56.25 0,-56.25 0,-37 140.5,-37 140.5,-56.25"/>
<text xml:space="preserve" text-anchor="middle" x="70.25" y="-42.75" font-family="Helvetica,sans-Serif" font-size="10.00">ImFusion::LiveSensorFusion</text>
</a>
</g>
</g>
<!-- Node1 -->
<g id="Node000001" class="node">
<title>Node1</title>
<g id="a_Node000001"><a xlink:href="class_im_fusion_1_1_madgwick.html" target="_top" xlink:title="Madgwick sensor fusion.">
<polygon fill="white" stroke="#666666" points="283.25,-93.25 176.5,-93.25 176.5,-74 283.25,-74 283.25,-93.25"/>
<text xml:space="preserve" text-anchor="middle" x="229.88" y="-79.75" font-family="Helvetica,sans-Serif" font-size="10.00">ImFusion::Madgwick</text>
</a>
</g>
</g>
<!-- Node0&#45;&gt;Node1 -->
<g id="edge1499_Node000000_Node000001" class="edge">
<title>Node0&#45;&gt;Node1</title>
<g id="a_edge1499_Node000000_Node000001"><a xlink:title=" ">
<path fill="none" stroke="#63b8ff" d="M125.34,-59.32C145.11,-63.96 167.18,-69.14 185.86,-73.53"/>
<polygon fill="#63b8ff" stroke="#63b8ff" points="126.33,-55.96 115.8,-57.08 124.73,-62.77 126.33,-55.96"/>
</a>
</g>
</g>
<!-- Node2 -->
<g id="Node000002" class="node">
<title>Node2</title>
<g id="a_Node000002"><a xlink:href="class_im_fusion_1_1_mahony.html" target="_top" xlink:title="Mahony sensor fusion.">
<polygon fill="white" stroke="#666666" points="278.38,-56.25 181.38,-56.25 181.38,-37 278.38,-37 278.38,-56.25"/>
<text xml:space="preserve" text-anchor="middle" x="229.88" y="-42.75" font-family="Helvetica,sans-Serif" font-size="10.00">ImFusion::Mahony</text>
</a>
</g>
</g>
<!-- Node0&#45;&gt;Node2 -->
<g id="edge1500_Node000000_Node000002" class="edge">
<title>Node0&#45;&gt;Node2</title>
<g id="a_edge1500_Node000000_Node000002"><a xlink:title=" ">
<path fill="none" stroke="#63b8ff" d="M152.31,-46.62C162.09,-46.62 171.82,-46.62 180.9,-46.62"/>
<polygon fill="#63b8ff" stroke="#63b8ff" points="152.36,-43.13 142.36,-46.63 152.36,-50.13 152.36,-43.13"/>
</a>
</g>
</g>
<!-- Node3 -->
<g id="Node000003" class="node">
<title>Node3</title>
<g id="a_Node000003"><a xlink:href="class_im_fusion_1_1_pure_gyro.html" target="_top" xlink:title="Basic sensor fusion.">
<polygon fill="white" stroke="#666666" points="281.75,-19.25 178,-19.25 178,0 281.75,0 281.75,-19.25"/>
<text xml:space="preserve" text-anchor="middle" x="229.88" y="-5.75" font-family="Helvetica,sans-Serif" font-size="10.00">ImFusion::PureGyro</text>
</a>
</g>
</g>
<!-- Node0&#45;&gt;Node3 -->
<g id="edge1501_Node000000_Node000003" class="edge">
<title>Node0&#45;&gt;Node3</title>
<g id="a_edge1501_Node000000_Node000003"><a xlink:title=" ">
<path fill="none" stroke="#63b8ff" d="M125.34,-33.93C145.11,-29.29 167.18,-24.11 185.86,-19.72"/>
<polygon fill="#63b8ff" stroke="#63b8ff" points="124.73,-30.48 115.8,-36.17 126.33,-37.29 124.73,-30.48"/>
</a>
</g>
</g>
</g>
</svg>
