<?xml version="1.0" encoding="UTF-8" standalone="no"?>
<!-- Created with Inkscape (http://www.inkscape.org/) -->

<svg
   xmlns:osb="http://www.openswatchbook.org/uri/2009/osb"
   xmlns:dc="http://purl.org/dc/elements/1.1/"
   xmlns:cc="http://creativecommons.org/ns#"
   xmlns:rdf="http://www.w3.org/1999/02/22-rdf-syntax-ns#"
   xmlns:svg="http://www.w3.org/2000/svg"
   xmlns="http://www.w3.org/2000/svg"
   xmlns:sodipodi="http://sodipodi.sourceforge.net/DTD/sodipodi-0.dtd"
   xmlns:inkscape="http://www.inkscape.org/namespaces/inkscape"
   sodipodi:docname="layoutUnite02.svg"
   inkscape:version="0.48.4 r9939"
   version="1.1"
   id="svg2985"
   height="250.36107"
   width="817.09399">
  <sodipodi:namedview
     id="base"
     pagecolor="#ffffff"
     bordercolor="#666666"
     borderopacity="1.0"
     inkscape:pageopacity="0.0"
     inkscape:pageshadow="2"
     inkscape:zoom="1.5494505"
     inkscape:cx="361.51923"
     inkscape:cy="115.44796"
     inkscape:current-layer="layer1"
     inkscape:document-units="px"
     showgrid="false"
     inkscape:window-width="1408"
     inkscape:window-height="938"
     inkscape:window-x="188"
     inkscape:window-y="47"
     inkscape:window-maximized="0"
     fit-margin-top="0"
     fit-margin-left="0"
     fit-margin-right="0"
     fit-margin-bottom="0"
     showguides="true"
     inkscape:guide-bbox="true" />
  <defs
     id="defs2987">
    <marker
       inkscape:stockid="DotM"
       orient="auto"
       refY="0"
       refX="0"
       id="DotM"
       style="overflow:visible">
      <path
         id="path4026"
         d="m -2.5,-1 c 0,2.76 -2.24,5 -5,5 -2.76,0 -5,-2.24 -5,-5 0,-2.76 2.24,-5 5,-5 2.76,0 5,2.24 5,5 z"
         style="fill-rule:evenodd;stroke:#000000;stroke-width:1pt"
         transform="matrix(0.4,0,0,0.4,2.96,0.4)"
         inkscape:connector-curvature="0" />
    </marker>
    <marker
       inkscape:stockid="DotL"
       orient="auto"
       refY="0"
       refX="0"
       id="DotL"
       style="overflow:visible">
      <path
         id="path4023"
         d="m -2.5,-1 c 0,2.76 -2.24,5 -5,5 -2.76,0 -5,-2.24 -5,-5 0,-2.76 2.24,-5 5,-5 2.76,0 5,2.24 5,5 z"
         style="fill-rule:evenodd;stroke:#000000;stroke-width:1pt"
         transform="matrix(0.8,0,0,0.8,5.92,0.8)"
         inkscape:connector-curvature="0" />
    </marker>
    <marker
       style="overflow:visible"
       id="Arrow2Lstart"
       refX="0"
       refY="0"
       orient="auto"
       inkscape:stockid="Arrow2Lstart">
      <path
         transform="matrix(1.1,0,0,1.1,1.1,0)"
         d="M 8.7185878,4.0337352 -2.2072895,0.01601326 8.7185884,-4.0017078 c -1.7454984,2.3720609 -1.7354408,5.6174519 -6e-7,8.035443 z"
         style="fill-rule:evenodd;stroke-width:0.625;stroke-linejoin:round"
         id="path3980"
         inkscape:connector-curvature="0" />
    </marker>
    <linearGradient
       osb:paint="solid"
       id="linearGradient6819">
      <stop
         id="stop6821"
         offset="0"
         style="stop-color:#0000ff;stop-opacity:1;" />
    </linearGradient>
    <marker
       style="overflow:visible"
       id="Arrow2Lend"
       refX="0"
       refY="0"
       orient="auto"
       inkscape:stockid="Arrow2Lend">
      <path
         inkscape:connector-curvature="0"
         transform="matrix(-1.1,0,0,-1.1,-1.1,0)"
         d="M 8.7185878,4.0337352 -2.2072895,0.01601326 8.7185884,-4.0017078 c -1.7454984,2.3720609 -1.7354408,5.6174519 -6e-7,8.035443 z"
         style="fill-rule:evenodd;stroke-width:0.625;stroke-linejoin:round"
         id="path3984" />
    </marker>
    <marker
       style="overflow:visible"
       id="Arrow1Lend"
       refX="0"
       refY="0"
       orient="auto"
       inkscape:stockid="Arrow1Lend">
      <path
         inkscape:connector-curvature="0"
         transform="matrix(-0.8,0,0,-0.8,-10,0)"
         style="fill-rule:evenodd;stroke:#000000;stroke-width:1pt"
         d="M 0,0 5,-5 -12.5,0 5,5 0,0 z"
         id="path3966" />
    </marker>
    <marker
       style="overflow:visible"
       id="Arrow2Lend2"
       refX="0"
       refY="0"
       orient="auto"
       inkscape:stockid="Arrow2Lend2">
      <path
         inkscape:connector-curvature="0"
         transform="matrix(-1.1,0,0,-1.1,-1.1,0)"
         d="M 8.7185878,4.0337352 -2.2072895,0.01601326 8.7185884,-4.0017078 c -1.7454984,2.3720609 -1.7354408,5.6174519 -6e-7,8.035443 z"
         style="fill:#0000ff;fill-rule:evenodd;stroke:#0000ff;stroke-width:0.625;stroke-linejoin:round"
         id="path5183" />
    </marker>
    <marker
       style="overflow:visible"
       id="Arrow2Lend2-3"
       refX="0"
       refY="0"
       orient="auto"
       inkscape:stockid="Arrow2Lend2">
      <path
         transform="matrix(-1.1,0,0,-1.1,-1.1,0)"
         d="M 8.7185878,4.0337352 -2.2072895,0.01601326 8.7185884,-4.0017078 c -1.7454984,2.3720609 -1.7354408,5.6174519 -6e-7,8.035443 z"
         style="fill:#0000ff;fill-rule:evenodd;stroke:#0000ff;stroke-width:0.625;stroke-linejoin:round"
         id="path5183-1"
         inkscape:connector-curvature="0" />
    </marker>
    <marker
       style="overflow:visible"
       id="Arrow2Lend2r"
       refX="0"
       refY="0"
       orient="auto"
       inkscape:stockid="Arrow2Lend2r">
      <path
         inkscape:connector-curvature="0"
         transform="matrix(-1.1,0,0,-1.1,-1.1,0)"
         d="M 8.7185878,4.0337352 -2.2072895,0.01601326 8.7185884,-4.0017078 c -1.7454984,2.3720609 -1.7354408,5.6174519 -6e-7,8.035443 z"
         style="fill:#0000ff;fill-rule:evenodd;stroke:#0000ff;stroke-width:0.625;stroke-linejoin:round"
         id="path6871" />
    </marker>
    <marker
       style="overflow:visible"
       id="Arrow2LendY"
       refX="0"
       refY="0"
       orient="auto"
       inkscape:stockid="Arrow2LendY">
      <path
         inkscape:connector-curvature="0"
         transform="matrix(-1.1,0,0,-1.1,-1.1,0)"
         d="M 8.7185878,4.0337352 -2.2072895,0.01601326 8.7185884,-4.0017078 c -1.7454984,2.3720609 -1.7354408,5.6174519 -6e-7,8.035443 z"
         style="fill:#ff0000;fill-rule:evenodd;stroke:#ff0000;stroke-width:0.625;stroke-linejoin:round"
         id="path4011" />
    </marker>
    <marker
       style="overflow:visible"
       id="Arrow2Lstarte"
       refX="0"
       refY="0"
       orient="auto"
       inkscape:stockid="Arrow2Lstarte">
      <path
         transform="matrix(1.1,0,0,1.1,1.1,0)"
         d="M 8.7185878,4.0337352 -2.2072895,0.01601326 8.7185884,-4.0017078 c -1.7454984,2.3720609 -1.7354408,5.6174519 -6e-7,8.035443 z"
         style="fill:#ff0000;fill-rule:evenodd;stroke:#ff0000;stroke-width:0.625;stroke-linejoin:round"
         id="path5022"
         inkscape:connector-curvature="0" />
    </marker>
    <marker
       style="overflow:visible"
       id="Arrow2Lendk"
       refX="0"
       refY="0"
       orient="auto"
       inkscape:stockid="Arrow2Lendk">
      <path
         inkscape:connector-curvature="0"
         transform="matrix(-1.1,0,0,-1.1,-1.1,0)"
         d="M 8.7185878,4.0337352 -2.2072895,0.01601326 8.7185884,-4.0017078 c -1.7454984,2.3720609 -1.7354408,5.6174519 -6e-7,8.035443 z"
         style="fill:#ff0000;fill-rule:evenodd;stroke:#ff0000;stroke-width:0.625;stroke-linejoin:round"
         id="path5025" />
    </marker>
    <marker
       style="overflow:visible"
       id="Arrow2Lstartef"
       refX="0"
       refY="0"
       orient="auto"
       inkscape:stockid="Arrow2Lstartef">
      <path
         transform="matrix(1.1,0,0,1.1,1.1,0)"
         d="M 8.7185878,4.0337352 -2.2072895,0.01601326 8.7185884,-4.0017078 c -1.7454984,2.3720609 -1.7354408,5.6174519 -6e-7,8.035443 z"
         style="fill:#ff00ff;fill-rule:evenodd;stroke:#ff00ff;stroke-width:0.625;stroke-linejoin:round"
         id="path5140"
         inkscape:connector-curvature="0" />
    </marker>
    <marker
       style="overflow:visible"
       id="Arrow2LendkM"
       refX="0"
       refY="0"
       orient="auto"
       inkscape:stockid="Arrow2LendkM">
      <path
         inkscape:connector-curvature="0"
         transform="matrix(-1.1,0,0,-1.1,-1.1,0)"
         d="M 8.7185878,4.0337352 -2.2072895,0.01601326 8.7185884,-4.0017078 c -1.7454984,2.3720609 -1.7354408,5.6174519 -6e-7,8.035443 z"
         style="fill:#ff00ff;fill-rule:evenodd;stroke:#ff00ff;stroke-width:0.625;stroke-linejoin:round"
         id="path5143" />
    </marker>
    <marker
       style="overflow:visible"
       id="Arrow2LendJ"
       refX="0"
       refY="0"
       orient="auto"
       inkscape:stockid="Arrow2LendJ">
      <path
         inkscape:connector-curvature="0"
         transform="matrix(-1.1,0,0,-1.1,-1.1,0)"
         d="M 8.7185878,4.0337352 -2.2072895,0.01601326 8.7185884,-4.0017078 c -1.7454984,2.3720609 -1.7354408,5.6174519 -6e-7,8.035443 z"
         style="fill:#ffff00;fill-rule:evenodd;stroke:#ffff00;stroke-width:0.625;stroke-linejoin:round"
         id="path5700" />
    </marker>
    <marker
       style="overflow:visible"
       id="Arrow2LendJ-5"
       refX="0"
       refY="0"
       orient="auto"
       inkscape:stockid="Arrow2LendJ">
      <path
         inkscape:connector-curvature="0"
         transform="matrix(-1.1,0,0,-1.1,-1.1,0)"
         d="M 8.7185878,4.0337352 -2.2072895,0.01601326 8.7185884,-4.0017078 c -1.7454984,2.3720609 -1.7354408,5.6174519 -6e-7,8.035443 z"
         style="fill:#ffff00;fill-rule:evenodd;stroke:#ffff00;stroke-width:0.625;stroke-linejoin:round"
         id="path5700-1" />
    </marker>
    <marker
       inkscape:stockid="DotMo"
       orient="auto"
       refY="0"
       refX="0"
       id="DotMo"
       style="overflow:visible">
      <path
         id="path7772"
         d="m -2.5,-1 c 0,2.76 -2.24,5 -5,5 -2.76,0 -5,-2.24 -5,-5 0,-2.76 2.24,-5 5,-5 2.76,0 5,2.24 5,5 z"
         style="fill:#0000ff;fill-rule:evenodd;stroke:#0000ff;stroke-width:1pt"
         transform="matrix(0.4,0,0,0.4,2.96,0.4)"
         inkscape:connector-curvature="0" />
    </marker>
    <marker
       inkscape:stockid="DotM4"
       orient="auto"
       refY="0"
       refX="0"
       id="DotM4"
       style="overflow:visible">
      <path
         id="path8343"
         d="m -2.5,-1 c 0,2.76 -2.24,5 -5,5 -2.76,0 -5,-2.24 -5,-5 0,-2.76 2.24,-5 5,-5 2.76,0 5,2.24 5,5 z"
         style="fill:#0000ff;fill-rule:evenodd;stroke:#0000ff;stroke-width:1pt"
         transform="matrix(0.4,0,0,0.4,2.96,0.4)"
         inkscape:connector-curvature="0" />
    </marker>
    <marker
       inkscape:stockid="DotMo"
       orient="auto"
       refY="0"
       refX="0"
       id="DotMo-6"
       style="overflow:visible">
      <path
         inkscape:connector-curvature="0"
         id="path7772-1"
         d="m -2.5,-1 c 0,2.76 -2.24,5 -5,5 -2.76,0 -5,-2.24 -5,-5 0,-2.76 2.24,-5 5,-5 2.76,0 5,2.24 5,5 z"
         style="fill:#0000ff;fill-rule:evenodd;stroke:#0000ff;stroke-width:1pt"
         transform="matrix(0.4,0,0,0.4,2.96,0.4)" />
    </marker>
    <marker
       style="overflow:visible"
       id="Arrow2Lstartk"
       refX="0"
       refY="0"
       orient="auto"
       inkscape:stockid="Arrow2Lstartk">
      <path
         transform="matrix(1.1,0,0,1.1,1.1,0)"
         d="M 8.7185878,4.0337352 -2.2072895,0.01601326 8.7185884,-4.0017078 c -1.7454984,2.3720609 -1.7354408,5.6174519 -6e-7,8.035443 z"
         style="stroke-linejoin:round;stroke:#0000ff;stroke-width:0.625;fill:#0000ff;fill-rule:evenodd"
         id="path5107"
         inkscape:connector-curvature="0" />
    </marker>
    <marker
       style="overflow:visible"
       id="Arrow2Lendz"
       refX="0"
       refY="0"
       orient="auto"
       inkscape:stockid="Arrow2Lendz">
      <path
         inkscape:connector-curvature="0"
         transform="matrix(-1.1,0,0,-1.1,-1.1,0)"
         d="M 8.7185878,4.0337352 -2.2072895,0.01601326 8.7185884,-4.0017078 c -1.7454984,2.3720609 -1.7354408,5.6174519 -6e-7,8.035443 z"
         style="stroke-linejoin:round;stroke:#0000ff;stroke-width:0.625;fill:#0000ff;fill-rule:evenodd"
         id="path5110" />
    </marker>
    <marker
       style="overflow:visible"
       id="Arrow2Lstarts"
       refX="0"
       refY="0"
       orient="auto"
       inkscape:stockid="Arrow2Lstarts">
      <path
         transform="matrix(1.1,0,0,1.1,1.1,0)"
         d="M 8.7185878,4.0337352 -2.2072895,0.01601326 8.7185884,-4.0017078 c -1.7454984,2.3720609 -1.7354408,5.6174519 -6e-7,8.035443 z"
         style="stroke-linejoin:round;stroke:#0000ff;stroke-width:0.625;fill:#0000ff;fill-rule:evenodd"
         id="path5909"
         inkscape:connector-curvature="0" />
    </marker>
    <marker
       style="overflow:visible"
       id="Arrow2Lenda"
       refX="0"
       refY="0"
       orient="auto"
       inkscape:stockid="Arrow2Lenda">
      <path
         inkscape:connector-curvature="0"
         transform="matrix(-1.1,0,0,-1.1,-1.1,0)"
         d="M 8.7185878,4.0337352 -2.2072895,0.01601326 8.7185884,-4.0017078 c -1.7454984,2.3720609 -1.7354408,5.6174519 -6e-7,8.035443 z"
         style="stroke-linejoin:round;stroke:#0000ff;stroke-width:0.625;fill:#0000ff;fill-rule:evenodd"
         id="path5912" />
    </marker>
    <marker
       style="overflow:visible"
       id="Arrow2Lstarts-5"
       refX="0"
       refY="0"
       orient="auto"
       inkscape:stockid="Arrow2Lstarts">
      <path
         transform="matrix(1.1,0,0,1.1,1.1,0)"
         d="M 8.7185878,4.0337352 -2.2072895,0.01601326 8.7185884,-4.0017078 c -1.7454984,2.3720609 -1.7354408,5.6174519 -6e-7,8.035443 z"
         style="fill:#0000ff;fill-rule:evenodd;stroke:#0000ff;stroke-width:0.625;stroke-linejoin:round"
         id="path5909-4"
         inkscape:connector-curvature="0" />
    </marker>
    <marker
       style="overflow:visible"
       id="Arrow2Lenda-3"
       refX="0"
       refY="0"
       orient="auto"
       inkscape:stockid="Arrow2Lenda">
      <path
         inkscape:connector-curvature="0"
         transform="matrix(-1.1,0,0,-1.1,-1.1,0)"
         d="M 8.7185878,4.0337352 -2.2072895,0.01601326 8.7185884,-4.0017078 c -1.7454984,2.3720609 -1.7354408,5.6174519 -6e-7,8.035443 z"
         style="fill:#0000ff;fill-rule:evenodd;stroke:#0000ff;stroke-width:0.625;stroke-linejoin:round"
         id="path5912-1" />
    </marker>
    <marker
       style="overflow:visible"
       id="Arrow2LendR"
       refX="0"
       refY="0"
       orient="auto"
       inkscape:stockid="Arrow2LendR">
      <path
         inkscape:connector-curvature="0"
         transform="matrix(-1.1,0,0,-1.1,-1.1,0)"
         d="M 8.7185878,4.0337352 -2.2072895,0.01601326 8.7185884,-4.0017078 c -1.7454984,2.3720609 -1.7354408,5.6174519 -6e-7,8.035443 z"
         style="stroke-linejoin:round;stroke:#ff0000;stroke-width:0.625;fill:#ff0000;fill-rule:evenodd"
         id="path6561" />
    </marker>
    <marker
       style="overflow:visible"
       id="Arrow2LendX"
       refX="0"
       refY="0"
       orient="auto"
       inkscape:stockid="Arrow2LendX">
      <path
         inkscape:connector-curvature="0"
         transform="matrix(-1.1,0,0,-1.1,-1.1,0)"
         d="M 8.7185878,4.0337352 -2.2072895,0.01601326 8.7185884,-4.0017078 c -1.7454984,2.3720609 -1.7354408,5.6174519 -6e-7,8.035443 z"
         style="stroke-linejoin:round;stroke:#00ff00;stroke-width:0.625;fill:#00ff00;fill-rule:evenodd"
         id="path6968" />
    </marker>
    <marker
       style="overflow:visible"
       id="Arrow2LendR-3"
       refX="0"
       refY="0"
       orient="auto"
       inkscape:stockid="Arrow2LendR">
      <path
         inkscape:connector-curvature="0"
         transform="matrix(-1.1,0,0,-1.1,-1.1,0)"
         d="M 8.7185878,4.0337352 -2.2072895,0.01601326 8.7185884,-4.0017078 c -1.7454984,2.3720609 -1.7354408,5.6174519 -6e-7,8.035443 z"
         style="fill:#ff0000;fill-rule:evenodd;stroke:#ff0000;stroke-width:0.625;stroke-linejoin:round"
         id="path6561-8" />
    </marker>
    <marker
       style="overflow:visible"
       id="Arrow2LendX-7"
       refX="0"
       refY="0"
       orient="auto"
       inkscape:stockid="Arrow2LendX">
      <path
         inkscape:connector-curvature="0"
         transform="matrix(-1.1,0,0,-1.1,-1.1,0)"
         d="M 8.7185878,4.0337352 -2.2072895,0.01601326 8.7185884,-4.0017078 c -1.7454984,2.3720609 -1.7354408,5.6174519 -6e-7,8.035443 z"
         style="fill:#00ff00;fill-rule:evenodd;stroke:#00ff00;stroke-width:0.625;stroke-linejoin:round"
         id="path6968-4" />
    </marker>
    <marker
       style="overflow:visible"
       id="Arrow2Lstart3"
       refX="0"
       refY="0"
       orient="auto"
       inkscape:stockid="Arrow2Lstart3">
      <path
         transform="matrix(1.1,0,0,1.1,1.1,0)"
         d="M 8.7185878,4.0337352 -2.2072895,0.01601326 8.7185884,-4.0017078 c -1.7454984,2.3720609 -1.7354408,5.6174519 -6e-7,8.035443 z"
         style="stroke-linejoin:round;stroke:#ff0000;stroke-width:0.625;fill:#ff0000;fill-rule:evenodd"
         id="path7771"
         inkscape:connector-curvature="0" />
    </marker>
    <marker
       style="overflow:visible"
       id="Arrow2LendK"
       refX="0"
       refY="0"
       orient="auto"
       inkscape:stockid="Arrow2LendK">
      <path
         inkscape:connector-curvature="0"
         transform="matrix(-1.1,0,0,-1.1,-1.1,0)"
         d="M 8.7185878,4.0337352 -2.2072895,0.01601326 8.7185884,-4.0017078 c -1.7454984,2.3720609 -1.7354408,5.6174519 -6e-7,8.035443 z"
         style="stroke-linejoin:round;stroke:#ff0000;stroke-width:0.625;fill:#ff0000;fill-rule:evenodd"
         id="path7774" />
    </marker>
    <marker
       style="overflow:visible"
       id="Arrow2Lstart3a"
       refX="0"
       refY="0"
       orient="auto"
       inkscape:stockid="Arrow2Lstart3a">
      <path
         transform="matrix(1.1,0,0,1.1,1.1,0)"
         d="M 8.7185878,4.0337352 -2.2072895,0.01601326 8.7185884,-4.0017078 c -1.7454984,2.3720609 -1.7354408,5.6174519 -6e-7,8.035443 z"
         style="stroke-linejoin:round;fill-rule:evenodd;stroke:#00ffff;stroke-width:0.625;fill:#00ffff"
         id="path8015"
         inkscape:connector-curvature="0" />
    </marker>
    <marker
       style="overflow:visible"
       id="Arrow2LendKg"
       refX="0"
       refY="0"
       orient="auto"
       inkscape:stockid="Arrow2LendKg">
      <path
         inkscape:connector-curvature="0"
         transform="matrix(-1.1,0,0,-1.1,-1.1,0)"
         d="M 8.7185878,4.0337352 -2.2072895,0.01601326 8.7185884,-4.0017078 c -1.7454984,2.3720609 -1.7354408,5.6174519 -6e-7,8.035443 z"
         style="stroke-linejoin:round;fill-rule:evenodd;stroke:#00ffff;stroke-width:0.625;fill:#00ffff"
         id="path8018" />
    </marker>
  </defs>
  <metadata
     id="metadata2990">
    <rdf:RDF>
      <cc:Work
         rdf:about="">
        <dc:format>image/svg+xml</dc:format>
        <dc:type
           rdf:resource="http://purl.org/dc/dcmitype/StillImage" />
        <dc:title></dc:title>
      </cc:Work>
    </rdf:RDF>
  </metadata>
  <g
     transform="translate(-6.6785384,-7.6677072)"
     inkscape:groupmode="layer"
     inkscape:label="Layer 1"
     id="layer1">
    <rect
       style="opacity:0.3;fill:#ccffaa;stroke:none"
       id="rect6043-4"
       width="120.04256"
       height="139.40425"
       x="67.022514"
       y="10.521674" />
    <rect
       style="opacity:0.29999999999999999;fill:#ffd5d5;stroke:none;stroke-width:1;stroke-linejoin:miter;stroke-miterlimit:4;stroke-opacity:1;stroke-dasharray:none;stroke-dashoffset:0"
       id="rect6043"
       width="178.77306"
       height="98.744682"
       x="2.5815604"
       y="147.74405"
       transform="translate(6.6785384,7.6677072)" />
    <path
       sodipodi:nodetypes="ccccc"
       inkscape:connector-curvature="0"
       id="path3765"
       d="m 7.3017484,256.38375 389.7311916,0 0,-247.3469607 c -130.21464,0 88.01702,0 -389.7311916,0.02852 z"
       style="fill:none;stroke:#000000;stroke-width:1px;stroke-linecap:butt;stroke-linejoin:miter;stroke-opacity:1" />
    <path
       id="path5244"
       d="m 190.46932,10.476363 0,141.752067"
       style="fill:none;stroke:#00ff00;stroke-width:1px;stroke-linecap:butt;stroke-linejoin:miter;stroke-opacity:1"
       inkscape:connector-curvature="0" />
    <path
       id="path3767"
       d="m 190.46932,152.97002 0,104.55875"
       style="fill:none;stroke:#ff0000;stroke-width:1px;stroke-linecap:butt;stroke-linejoin:miter;stroke-opacity:1"
       inkscape:connector-curvature="0" />
    <path
       inkscape:connector-curvature="0"
       id="path3769"
       d="m 7.1785384,152.65289 183.2907816,0"
       style="fill:none;stroke:#00ffff;stroke-width:1px;stroke-linecap:butt;stroke-linejoin:miter;stroke-opacity:1" />
    <path
       inkscape:connector-curvature="0"
       id="path3771"
       d="m 189.9578,152.6529 208.00086,0"
       style="fill:none;stroke:#000000;stroke-width:1.0035671px;stroke-linecap:butt;stroke-linejoin:miter;stroke-opacity:1" />
    <path
       inkscape:connector-curvature="0"
       id="path3775"
       d="m 65.263648,152.65289 0,-143.9219867"
       style="fill:none;stroke:#000000;stroke-width:1px;stroke-linecap:butt;stroke-linejoin:miter;stroke-opacity:1" />
    <path
       inkscape:connector-curvature="0"
       id="path5250"
       d="m 191.07583,65.669032 205.30593,0"
       style="fill:none;stroke:#000000;stroke-width:1.43326008px;stroke-linecap:butt;stroke-linejoin:miter;stroke-opacity:1" />
    <path
       style="fill:none;stroke:#000000;stroke-width:1px;stroke-linecap:butt;stroke-linejoin:miter;stroke-opacity:1"
       d="m 278.83578,-0.06319607 0,57.04496407"
       id="path4265"
       inkscape:connector-curvature="0"
       transform="translate(6.6785384,8.2309033)" />
    <path
       style="fill:none;stroke:#000000;stroke-width:1.3394326px;stroke-linecap:butt;stroke-linejoin:miter;stroke-opacity:1"
       d="m 285.51432,153.45896 0,102.34321"
       id="path4265-1"
       inkscape:connector-curvature="0" />
    <path
       sodipodi:nodetypes="ccccc"
       inkscape:connector-curvature="0"
       id="path3765-5"
       d="m 432.61382,256.38375 389.73119,0 0,-247.3469573 c -130.21464,0 88.01702,0 -389.73119,0.02852 z"
       style="fill:none;stroke:#000000;stroke-width:1px;stroke-linecap:butt;stroke-linejoin:miter;stroke-opacity:1" />
    <path
       inkscape:connector-curvature="0"
       id="path5244-7"
       d="m 615.78139,10.476366 0,141.752064"
       style="fill:none;stroke:#000000;stroke-width:1px;stroke-linecap:butt;stroke-linejoin:miter;stroke-opacity:1" />
    <path
       inkscape:connector-curvature="0"
       id="path3767-6"
       d="m 615.78139,152.97002 0,104.55875"
       style="fill:none;stroke:#000000;stroke-width:1px;stroke-linecap:butt;stroke-linejoin:miter;stroke-opacity:1" />
    <path
       inkscape:connector-curvature="0"
       id="path3769-1"
       d="m 432.49061,152.65289 183.29078,0"
       style="fill:none;stroke:#000000;stroke-width:1px;stroke-linecap:butt;stroke-linejoin:miter;stroke-opacity:1" />
    <path
       inkscape:connector-curvature="0"
       id="path3771-8"
       d="m 615.26987,152.6529 208.00086,0"
       style="fill:none;stroke:#00ffff;stroke-width:1.00356709999999990px;stroke-linecap:butt;stroke-linejoin:miter;stroke-opacity:1" />
    <path
       inkscape:connector-curvature="0"
       id="path3775-9"
       d="m 490.57572,152.65289 0,-143.9219833"
       style="fill:none;stroke:#000000;stroke-width:1px;stroke-linecap:butt;stroke-linejoin:miter;stroke-opacity:1" />
    <path
       inkscape:connector-curvature="0"
       id="path5250-2"
       d="m 616.3879,65.669035 205.30593,0"
       style="fill:none;stroke:#00ffff;stroke-width:1.43326007999999990px;stroke-linecap:butt;stroke-linejoin:miter;stroke-opacity:1" />
    <path
       style="fill:none;stroke:#00ff00;stroke-width:1px;stroke-linecap:butt;stroke-linejoin:miter;stroke-opacity:1"
       d="m 710.82639,8.1677106 0,57.0449634"
       id="path4265-7"
       inkscape:connector-curvature="0" />
    <path
       style="fill:none;stroke:#ff0000;stroke-width:1.33943260000000010px;stroke-linecap:butt;stroke-linejoin:miter;stroke-opacity:1"
       d="m 710.82639,153.45896 0,102.34321"
       id="path4265-1-9"
       inkscape:connector-curvature="0" />
    <text
       sodipodi:linespacing="125%"
       id="text5197"
       y="157.74429"
       x="175.4684"
       style="font-size:18px;font-style:normal;font-weight:normal;line-height:125%;letter-spacing:0px;word-spacing:0px;fill:#0000ff;fill-opacity:1;stroke:none;font-family:Sans"
       xml:space="preserve"><tspan
         y="157.74429"
         x="175.4684"
         id="tspan5199"
         sodipodi:role="line">1</tspan></text>
    <path
       inkscape:connector-curvature="0"
       id="path5201"
       d="m 190.5915,127.92039 c -6.38623,17.29065 -9.00742,34.16296 0,49.7432"
       style="fill:none;stroke:#0000ff;stroke-width:1;stroke-linecap:butt;stroke-linejoin:miter;stroke-miterlimit:4;stroke-opacity:1;stroke-dasharray:none;marker-start:url(#Arrow2Lstarts);marker-end:url(#Arrow2Lenda)"
       sodipodi:nodetypes="cc" />
    <text
       sodipodi:linespacing="125%"
       id="text5197-2"
       y="115.12054"
       x="694.88965"
       style="font-size:18px;font-style:normal;font-weight:normal;line-height:125%;letter-spacing:0px;word-spacing:0px;fill:#0000ff;fill-opacity:1;stroke:none;font-family:Sans"
       xml:space="preserve"><tspan
         y="115.12054"
         x="694.88965"
         id="tspan5199-3"
         sodipodi:role="line">1</tspan></text>
    <path
       inkscape:connector-curvature="0"
       id="path5201-3"
       d="m 710.92548,68.337123 c -6.75613,27.354986 -7.01122,54.709967 0,82.064957"
       style="fill:none;stroke:#0000ff;stroke-width:1.26573372;stroke-linecap:butt;stroke-linejoin:miter;stroke-miterlimit:4;stroke-opacity:1;stroke-dasharray:none;marker-start:url(#Arrow2Lstarts);marker-end:url(#Arrow2Lenda)"
       sodipodi:nodetypes="cc" />
    <text
       xml:space="preserve"
       style="font-size:18px;font-style:normal;font-weight:normal;line-height:125%;letter-spacing:0px;word-spacing:0px;fill:#000000;fill-opacity:1;stroke:none;font-family:Sans"
       x="74.444496"
       y="214.14226"
       id="text6045"
       sodipodi:linespacing="125%"><tspan
         sodipodi:role="line"
         id="tspan6047"
         x="74.444496"
         y="214.14226">node1</tspan></text>
    <path
       style="fill:none;stroke:#ff0000;stroke-width:1.09019518;stroke-linecap:butt;stroke-linejoin:miter;stroke-miterlimit:4;stroke-opacity:1;stroke-dasharray:none;marker-end:url(#Arrow2LendR)"
       d="m 190.56962,208.97931 -59.69529,0"
       id="path6049"
       inkscape:connector-curvature="0" />
    <text
       sodipodi:linespacing="125%"
       id="text6676"
       y="224.46848"
       x="157.05443"
       style="font-size:18px;font-style:normal;font-weight:normal;line-height:125%;letter-spacing:0px;word-spacing:0px;fill:#ff0000;fill-opacity:1;stroke:none;font-family:Sans"
       xml:space="preserve"><tspan
         y="224.46848"
         x="157.05443"
         id="tspan6678"
         sodipodi:role="line">2</tspan></text>
    <path
       transform="translate(6.6785384,7.6677072)"
       inkscape:connector-curvature="0"
       id="path6680"
       d="m 183.93618,78.041913 -54.85816,0"
       style="stroke-linejoin:miter;marker-end:url(#Arrow2LendX);stroke-opacity:1;stroke:#00ff00;stroke-linecap:butt;stroke-width:1px;fill:none" />
    <text
       xml:space="preserve"
       style="font-size:18px;font-style:normal;font-weight:normal;line-height:125%;letter-spacing:0px;word-spacing:0px;fill:#000000;fill-opacity:1;stroke:none;font-family:Sans"
       x="81.437874"
       y="91.427513"
       id="text6045-1"
       sodipodi:linespacing="125%"><tspan
         sodipodi:role="line"
         id="tspan6047-1"
         x="81.437874"
         y="91.427513">node2</tspan></text>
    <text
       xml:space="preserve"
       style="font-size:18px;font-style:normal;font-weight:normal;line-height:125%;letter-spacing:0px;word-spacing:0px;fill:#00ffff;fill-opacity:1;stroke:none;font-family:Sans"
       x="66.054428"
       y="170.90112"
       id="text7130"
       sodipodi:linespacing="125%"><tspan
         sodipodi:role="line"
         id="tspan7132"
         x="66.054428"
         y="170.90112">4</tspan></text>
    <rect
       style="opacity:0.3;fill:#ccffaa;stroke:none"
       id="rect6043-4-2"
       width="88.418442"
       height="50.985809"
       x="618.2583"
       y="11.651106" />
    <rect
       style="opacity:0.3;fill:#ffd5d5;stroke:none"
       id="rect6043-7"
       width="88.418442"
       height="98.744682"
       x="619.22644"
       y="156.54118" />
    <text
       xml:space="preserve"
       style="font-size:18px;font-style:normal;font-weight:normal;line-height:125%;letter-spacing:0px;word-spacing:0px;fill:#000000;fill-opacity:1;stroke:none;font-family:Sans"
       x="631.48883"
       y="216.5625"
       id="text6045-7"
       sodipodi:linespacing="125%"><tspan
         sodipodi:role="line"
         id="tspan6047-9"
         x="631.48883"
         y="216.5625">node1</tspan></text>
    <path
       style="fill:none;stroke:#ff0000;stroke-width:0.68829435;stroke-linecap:butt;stroke-linejoin:miter;stroke-miterlimit:4;stroke-opacity:1;stroke-dasharray:none;marker-end:url(#Arrow2LendR)"
       d="m 710.38229,210.10792 -22.80854,0"
       id="path6049-3"
       inkscape:connector-curvature="0" />
    <path
       inkscape:connector-curvature="0"
       id="path6680-1"
       d="m 710.3486,32.625779 -30.45355,0"
       style="fill:none;stroke:#00ff00;stroke-width:0.75567192px;stroke-linecap:butt;stroke-linejoin:miter;stroke-opacity:1;marker-end:url(#Arrow2LendX)" />
    <text
       xml:space="preserve"
       style="font-size:18px;font-style:normal;font-weight:normal;line-height:125%;letter-spacing:0px;word-spacing:0px;fill:#000000;fill-opacity:1;stroke:none;font-family:Sans"
       x="620.41125"
       y="39.634956"
       id="text6045-1-9"
       sodipodi:linespacing="125%"><tspan
         sodipodi:role="line"
         id="tspan6047-1-8"
         x="620.41125"
         y="39.634956">node2</tspan></text>
    <text
       sodipodi:linespacing="125%"
       id="text6676-6"
       y="230.36871"
       x="687.79218"
       style="font-size:18px;font-style:normal;font-weight:normal;line-height:125%;letter-spacing:0px;word-spacing:0px;fill:#ff0000;fill-opacity:1;stroke:none;font-family:Sans"
       xml:space="preserve"><tspan
         y="230.36871"
         x="687.79218"
         id="tspan6678-5"
         sodipodi:role="line">2</tspan></text>
    <text
       xml:space="preserve"
       style="font-size:18px;font-style:normal;font-weight:normal;line-height:125%;letter-spacing:0px;word-spacing:0px;fill:#00ff00;fill-opacity:1;stroke:none;font-family:Sans"
       x="160.28139"
       y="101.84438"
       id="text7206"
       sodipodi:linespacing="125%"><tspan
         sodipodi:role="line"
         id="tspan7208"
         x="160.28139"
         y="101.84438">3</tspan></text>
    <text
       xml:space="preserve"
       style="font-size:18px;font-style:normal;font-weight:normal;line-height:125%;letter-spacing:0px;word-spacing:0px;fill:#00ff00;fill-opacity:1;stroke:none;font-family:Sans"
       x="689.56958"
       y="51.4814"
       id="text7206-0"
       sodipodi:linespacing="125%"><tspan
         sodipodi:role="line"
         id="tspan7208-2"
         x="689.56958"
         y="51.4814">3</tspan></text>
    <path
       style="fill:none;stroke:#00ffff;stroke-width:1px;stroke-linecap:butt;stroke-linejoin:miter;stroke-opacity:1;marker-start:url(#Arrow2Lstart3a);marker-end:url(#Arrow2LendKg)"
       d="m 613.99061,67.638698 c -21.28747,24.418677 -16.44348,52.400732 0,81.964542"
       id="path7231"
       inkscape:connector-curvature="0"
       sodipodi:nodetypes="cc" />
    <text
       xml:space="preserve"
       style="font-size:18px;font-style:normal;font-weight:normal;line-height:125%;letter-spacing:0px;word-spacing:0px;fill:#00ffff;fill-opacity:1;stroke:none;font-family:Sans"
       x="583.01196"
       y="112.17062"
       id="text7705"
       sodipodi:linespacing="125%"><tspan
         sodipodi:role="line"
         id="tspan7707"
         x="583.01196"
         y="112.17062">!4</tspan></text>
  </g>
</svg>
