<?xml version="1.0" encoding="UTF-8" standalone="no"?>
<!-- Created with Inkscape (http://www.inkscape.org/) -->

<svg
   xmlns:osb="http://www.openswatchbook.org/uri/2009/osb"
   xmlns:dc="http://purl.org/dc/elements/1.1/"
   xmlns:cc="http://creativecommons.org/ns#"
   xmlns:rdf="http://www.w3.org/1999/02/22-rdf-syntax-ns#"
   xmlns:svg="http://www.w3.org/2000/svg"
   xmlns="http://www.w3.org/2000/svg"
   xmlns:sodipodi="http://sodipodi.sourceforge.net/DTD/sodipodi-0.dtd"
   xmlns:inkscape="http://www.inkscape.org/namespaces/inkscape"
   sodipodi:docname="layoutSplit01.svg"
   inkscape:version="0.48.4 r9939"
   version="1.1"
   id="svg2985"
   height="250.36107"
   width="817.09399">
  <sodipodi:namedview
     id="base"
     pagecolor="#ffffff"
     bordercolor="#666666"
     borderopacity="1.0"
     inkscape:pageopacity="0.0"
     inkscape:pageshadow="2"
     inkscape:zoom="1.5494505"
     inkscape:cx="255.5198"
     inkscape:cy="110.16081"
     inkscape:current-layer="layer1"
     inkscape:document-units="px"
     showgrid="false"
     inkscape:window-width="1408"
     inkscape:window-height="938"
     inkscape:window-x="188"
     inkscape:window-y="47"
     inkscape:window-maximized="0"
     fit-margin-top="0"
     fit-margin-left="0"
     fit-margin-right="0"
     fit-margin-bottom="0"
     showguides="true"
     inkscape:guide-bbox="true" />
  <defs
     id="defs2987">
    <marker
       style="overflow:visible"
       id="DotM"
       refX="0"
       refY="0"
       orient="auto"
       inkscape:stockid="DotM">
      <path
         inkscape:connector-curvature="0"
         transform="matrix(0.4,0,0,0.4,2.96,0.4)"
         style="fill-rule:evenodd;stroke:#000000;stroke-width:1pt"
         d="m -2.5,-1 c 0,2.76 -2.24,5 -5,5 -2.76,0 -5,-2.24 -5,-5 0,-2.76 2.24,-5 5,-5 2.76,0 5,2.24 5,5 z"
         id="path4026" />
    </marker>
    <marker
       style="overflow:visible"
       id="DotL"
       refX="0"
       refY="0"
       orient="auto"
       inkscape:stockid="DotL">
      <path
         inkscape:connector-curvature="0"
         transform="matrix(0.8,0,0,0.8,5.92,0.8)"
         style="fill-rule:evenodd;stroke:#000000;stroke-width:1pt"
         d="m -2.5,-1 c 0,2.76 -2.24,5 -5,5 -2.76,0 -5,-2.24 -5,-5 0,-2.76 2.24,-5 5,-5 2.76,0 5,2.24 5,5 z"
         id="path4023" />
    </marker>
    <marker
       inkscape:stockid="Arrow2Lstart"
       orient="auto"
       refY="0"
       refX="0"
       id="Arrow2Lstart"
       style="overflow:visible">
      <path
         inkscape:connector-curvature="0"
         id="path3980"
         style="fill-rule:evenodd;stroke-width:0.625;stroke-linejoin:round"
         d="M 8.7185878,4.0337352 -2.2072895,0.01601326 8.7185884,-4.0017078 c -1.7454984,2.3720609 -1.7354408,5.6174519 -6e-7,8.035443 z"
         transform="matrix(1.1,0,0,1.1,1.1,0)" />
    </marker>
    <linearGradient
       id="linearGradient6819"
       osb:paint="solid">
      <stop
         style="stop-color:#0000ff;stop-opacity:1;"
         offset="0"
         id="stop6821" />
    </linearGradient>
    <marker
       inkscape:stockid="Arrow2Lend"
       orient="auto"
       refY="0"
       refX="0"
       id="Arrow2Lend"
       style="overflow:visible">
      <path
         id="path3984"
         style="fill-rule:evenodd;stroke-width:0.625;stroke-linejoin:round"
         d="M 8.7185878,4.0337352 -2.2072895,0.01601326 8.7185884,-4.0017078 c -1.7454984,2.3720609 -1.7354408,5.6174519 -6e-7,8.035443 z"
         transform="matrix(-1.1,0,0,-1.1,-1.1,0)"
         inkscape:connector-curvature="0" />
    </marker>
    <marker
       inkscape:stockid="Arrow1Lend"
       orient="auto"
       refY="0"
       refX="0"
       id="Arrow1Lend"
       style="overflow:visible">
      <path
         id="path3966"
         d="M 0,0 5,-5 -12.5,0 5,5 0,0 z"
         style="fill-rule:evenodd;stroke:#000000;stroke-width:1pt"
         transform="matrix(-0.8,0,0,-0.8,-10,0)"
         inkscape:connector-curvature="0" />
    </marker>
    <marker
       inkscape:stockid="Arrow2Lend2"
       orient="auto"
       refY="0"
       refX="0"
       id="Arrow2Lend2"
       style="overflow:visible">
      <path
         id="path5183"
         style="fill:#0000ff;fill-rule:evenodd;stroke:#0000ff;stroke-width:0.625;stroke-linejoin:round"
         d="M 8.7185878,4.0337352 -2.2072895,0.01601326 8.7185884,-4.0017078 c -1.7454984,2.3720609 -1.7354408,5.6174519 -6e-7,8.035443 z"
         transform="matrix(-1.1,0,0,-1.1,-1.1,0)"
         inkscape:connector-curvature="0" />
    </marker>
    <marker
       inkscape:stockid="Arrow2Lend2"
       orient="auto"
       refY="0"
       refX="0"
       id="Arrow2Lend2-3"
       style="overflow:visible">
      <path
         inkscape:connector-curvature="0"
         id="path5183-1"
         style="fill:#0000ff;fill-rule:evenodd;stroke:#0000ff;stroke-width:0.625;stroke-linejoin:round"
         d="M 8.7185878,4.0337352 -2.2072895,0.01601326 8.7185884,-4.0017078 c -1.7454984,2.3720609 -1.7354408,5.6174519 -6e-7,8.035443 z"
         transform="matrix(-1.1,0,0,-1.1,-1.1,0)" />
    </marker>
    <marker
       inkscape:stockid="Arrow2Lend2r"
       orient="auto"
       refY="0"
       refX="0"
       id="Arrow2Lend2r"
       style="overflow:visible">
      <path
         id="path6871"
         style="fill:#0000ff;fill-rule:evenodd;stroke:#0000ff;stroke-width:0.625;stroke-linejoin:round"
         d="M 8.7185878,4.0337352 -2.2072895,0.01601326 8.7185884,-4.0017078 c -1.7454984,2.3720609 -1.7354408,5.6174519 -6e-7,8.035443 z"
         transform="matrix(-1.1,0,0,-1.1,-1.1,0)"
         inkscape:connector-curvature="0" />
    </marker>
    <marker
       inkscape:stockid="Arrow2LendY"
       orient="auto"
       refY="0"
       refX="0"
       id="Arrow2LendY"
       style="overflow:visible">
      <path
         id="path4011"
         style="fill:#ff0000;fill-rule:evenodd;stroke:#ff0000;stroke-width:0.625;stroke-linejoin:round"
         d="M 8.7185878,4.0337352 -2.2072895,0.01601326 8.7185884,-4.0017078 c -1.7454984,2.3720609 -1.7354408,5.6174519 -6e-7,8.035443 z"
         transform="matrix(-1.1,0,0,-1.1,-1.1,0)"
         inkscape:connector-curvature="0" />
    </marker>
    <marker
       inkscape:stockid="Arrow2Lstarte"
       orient="auto"
       refY="0"
       refX="0"
       id="Arrow2Lstarte"
       style="overflow:visible">
      <path
         inkscape:connector-curvature="0"
         id="path5022"
         style="fill:#ff0000;fill-rule:evenodd;stroke:#ff0000;stroke-width:0.625;stroke-linejoin:round"
         d="M 8.7185878,4.0337352 -2.2072895,0.01601326 8.7185884,-4.0017078 c -1.7454984,2.3720609 -1.7354408,5.6174519 -6e-7,8.035443 z"
         transform="matrix(1.1,0,0,1.1,1.1,0)" />
    </marker>
    <marker
       inkscape:stockid="Arrow2Lendk"
       orient="auto"
       refY="0"
       refX="0"
       id="Arrow2Lendk"
       style="overflow:visible">
      <path
         id="path5025"
         style="fill:#ff0000;fill-rule:evenodd;stroke:#ff0000;stroke-width:0.625;stroke-linejoin:round"
         d="M 8.7185878,4.0337352 -2.2072895,0.01601326 8.7185884,-4.0017078 c -1.7454984,2.3720609 -1.7354408,5.6174519 -6e-7,8.035443 z"
         transform="matrix(-1.1,0,0,-1.1,-1.1,0)"
         inkscape:connector-curvature="0" />
    </marker>
    <marker
       inkscape:stockid="Arrow2Lstartef"
       orient="auto"
       refY="0"
       refX="0"
       id="Arrow2Lstartef"
       style="overflow:visible">
      <path
         inkscape:connector-curvature="0"
         id="path5140"
         style="fill:#ff00ff;fill-rule:evenodd;stroke:#ff00ff;stroke-width:0.625;stroke-linejoin:round"
         d="M 8.7185878,4.0337352 -2.2072895,0.01601326 8.7185884,-4.0017078 c -1.7454984,2.3720609 -1.7354408,5.6174519 -6e-7,8.035443 z"
         transform="matrix(1.1,0,0,1.1,1.1,0)" />
    </marker>
    <marker
       inkscape:stockid="Arrow2LendkM"
       orient="auto"
       refY="0"
       refX="0"
       id="Arrow2LendkM"
       style="overflow:visible">
      <path
         id="path5143"
         style="fill:#ff00ff;fill-rule:evenodd;stroke:#ff00ff;stroke-width:0.625;stroke-linejoin:round"
         d="M 8.7185878,4.0337352 -2.2072895,0.01601326 8.7185884,-4.0017078 c -1.7454984,2.3720609 -1.7354408,5.6174519 -6e-7,8.035443 z"
         transform="matrix(-1.1,0,0,-1.1,-1.1,0)"
         inkscape:connector-curvature="0" />
    </marker>
    <marker
       inkscape:stockid="Arrow2LendJ"
       orient="auto"
       refY="0"
       refX="0"
       id="Arrow2LendJ"
       style="overflow:visible">
      <path
         id="path5700"
         style="fill:#ffff00;fill-rule:evenodd;stroke:#ffff00;stroke-width:0.625;stroke-linejoin:round"
         d="M 8.7185878,4.0337352 -2.2072895,0.01601326 8.7185884,-4.0017078 c -1.7454984,2.3720609 -1.7354408,5.6174519 -6e-7,8.035443 z"
         transform="matrix(-1.1,0,0,-1.1,-1.1,0)"
         inkscape:connector-curvature="0" />
    </marker>
    <marker
       inkscape:stockid="Arrow2LendJ"
       orient="auto"
       refY="0"
       refX="0"
       id="Arrow2LendJ-5"
       style="overflow:visible">
      <path
         id="path5700-1"
         style="fill:#ffff00;fill-rule:evenodd;stroke:#ffff00;stroke-width:0.625;stroke-linejoin:round"
         d="M 8.7185878,4.0337352 -2.2072895,0.01601326 8.7185884,-4.0017078 c -1.7454984,2.3720609 -1.7354408,5.6174519 -6e-7,8.035443 z"
         transform="matrix(-1.1,0,0,-1.1,-1.1,0)"
         inkscape:connector-curvature="0" />
    </marker>
    <marker
       style="overflow:visible"
       id="DotMo"
       refX="0"
       refY="0"
       orient="auto"
       inkscape:stockid="DotMo">
      <path
         inkscape:connector-curvature="0"
         transform="matrix(0.4,0,0,0.4,2.96,0.4)"
         style="fill:#0000ff;fill-rule:evenodd;stroke:#0000ff;stroke-width:1pt"
         d="m -2.5,-1 c 0,2.76 -2.24,5 -5,5 -2.76,0 -5,-2.24 -5,-5 0,-2.76 2.24,-5 5,-5 2.76,0 5,2.24 5,5 z"
         id="path7772" />
    </marker>
    <marker
       style="overflow:visible"
       id="DotM4"
       refX="0"
       refY="0"
       orient="auto"
       inkscape:stockid="DotM4">
      <path
         inkscape:connector-curvature="0"
         transform="matrix(0.4,0,0,0.4,2.96,0.4)"
         style="fill:#0000ff;fill-rule:evenodd;stroke:#0000ff;stroke-width:1pt"
         d="m -2.5,-1 c 0,2.76 -2.24,5 -5,5 -2.76,0 -5,-2.24 -5,-5 0,-2.76 2.24,-5 5,-5 2.76,0 5,2.24 5,5 z"
         id="path8343" />
    </marker>
    <marker
       style="overflow:visible"
       id="DotMo-6"
       refX="0"
       refY="0"
       orient="auto"
       inkscape:stockid="DotMo">
      <path
         transform="matrix(0.4,0,0,0.4,2.96,0.4)"
         style="fill:#0000ff;fill-rule:evenodd;stroke:#0000ff;stroke-width:1pt"
         d="m -2.5,-1 c 0,2.76 -2.24,5 -5,5 -2.76,0 -5,-2.24 -5,-5 0,-2.76 2.24,-5 5,-5 2.76,0 5,2.24 5,5 z"
         id="path7772-1"
         inkscape:connector-curvature="0" />
    </marker>
    <marker
       inkscape:stockid="Arrow2Lstartk"
       orient="auto"
       refY="0"
       refX="0"
       id="Arrow2Lstartk"
       style="overflow:visible">
      <path
         inkscape:connector-curvature="0"
         id="path5107"
         style="stroke-linejoin:round;stroke:#0000ff;stroke-width:0.625;fill:#0000ff;fill-rule:evenodd"
         d="M 8.7185878,4.0337352 -2.2072895,0.01601326 8.7185884,-4.0017078 c -1.7454984,2.3720609 -1.7354408,5.6174519 -6e-7,8.035443 z"
         transform="matrix(1.1,0,0,1.1,1.1,0)" />
    </marker>
    <marker
       inkscape:stockid="Arrow2Lendz"
       orient="auto"
       refY="0"
       refX="0"
       id="Arrow2Lendz"
       style="overflow:visible">
      <path
         id="path5110"
         style="stroke-linejoin:round;stroke:#0000ff;stroke-width:0.625;fill:#0000ff;fill-rule:evenodd"
         d="M 8.7185878,4.0337352 -2.2072895,0.01601326 8.7185884,-4.0017078 c -1.7454984,2.3720609 -1.7354408,5.6174519 -6e-7,8.035443 z"
         transform="matrix(-1.1,0,0,-1.1,-1.1,0)"
         inkscape:connector-curvature="0" />
    </marker>
    <marker
       inkscape:stockid="Arrow2Lstarts"
       orient="auto"
       refY="0"
       refX="0"
       id="Arrow2Lstarts"
       style="overflow:visible">
      <path
         inkscape:connector-curvature="0"
         id="path5909"
         style="stroke-linejoin:round;stroke:#0000ff;stroke-width:0.625;fill:#0000ff;fill-rule:evenodd"
         d="M 8.7185878,4.0337352 -2.2072895,0.01601326 8.7185884,-4.0017078 c -1.7454984,2.3720609 -1.7354408,5.6174519 -6e-7,8.035443 z"
         transform="matrix(1.1,0,0,1.1,1.1,0)" />
    </marker>
    <marker
       inkscape:stockid="Arrow2Lenda"
       orient="auto"
       refY="0"
       refX="0"
       id="Arrow2Lenda"
       style="overflow:visible">
      <path
         id="path5912"
         style="stroke-linejoin:round;stroke:#0000ff;stroke-width:0.625;fill:#0000ff;fill-rule:evenodd"
         d="M 8.7185878,4.0337352 -2.2072895,0.01601326 8.7185884,-4.0017078 c -1.7454984,2.3720609 -1.7354408,5.6174519 -6e-7,8.035443 z"
         transform="matrix(-1.1,0,0,-1.1,-1.1,0)"
         inkscape:connector-curvature="0" />
    </marker>
    <marker
       inkscape:stockid="Arrow2Lstarts"
       orient="auto"
       refY="0"
       refX="0"
       id="Arrow2Lstarts-5"
       style="overflow:visible">
      <path
         inkscape:connector-curvature="0"
         id="path5909-4"
         style="fill:#0000ff;fill-rule:evenodd;stroke:#0000ff;stroke-width:0.625;stroke-linejoin:round"
         d="M 8.7185878,4.0337352 -2.2072895,0.01601326 8.7185884,-4.0017078 c -1.7454984,2.3720609 -1.7354408,5.6174519 -6e-7,8.035443 z"
         transform="matrix(1.1,0,0,1.1,1.1,0)" />
    </marker>
    <marker
       inkscape:stockid="Arrow2Lenda"
       orient="auto"
       refY="0"
       refX="0"
       id="Arrow2Lenda-3"
       style="overflow:visible">
      <path
         id="path5912-1"
         style="fill:#0000ff;fill-rule:evenodd;stroke:#0000ff;stroke-width:0.625;stroke-linejoin:round"
         d="M 8.7185878,4.0337352 -2.2072895,0.01601326 8.7185884,-4.0017078 c -1.7454984,2.3720609 -1.7354408,5.6174519 -6e-7,8.035443 z"
         transform="matrix(-1.1,0,0,-1.1,-1.1,0)"
         inkscape:connector-curvature="0" />
    </marker>
    <marker
       inkscape:stockid="Arrow2LendR"
       orient="auto"
       refY="0"
       refX="0"
       id="Arrow2LendR"
       style="overflow:visible">
      <path
         id="path6561"
         style="stroke-linejoin:round;stroke:#ff0000;stroke-width:0.625;fill:#ff0000;fill-rule:evenodd"
         d="M 8.7185878,4.0337352 -2.2072895,0.01601326 8.7185884,-4.0017078 c -1.7454984,2.3720609 -1.7354408,5.6174519 -6e-7,8.035443 z"
         transform="matrix(-1.1,0,0,-1.1,-1.1,0)"
         inkscape:connector-curvature="0" />
    </marker>
    <marker
       inkscape:stockid="Arrow2LendX"
       orient="auto"
       refY="0"
       refX="0"
       id="Arrow2LendX"
       style="overflow:visible">
      <path
         id="path6968"
         style="stroke-linejoin:round;stroke:#00ff00;stroke-width:0.625;fill:#00ff00;fill-rule:evenodd"
         d="M 8.7185878,4.0337352 -2.2072895,0.01601326 8.7185884,-4.0017078 c -1.7454984,2.3720609 -1.7354408,5.6174519 -6e-7,8.035443 z"
         transform="matrix(-1.1,0,0,-1.1,-1.1,0)"
         inkscape:connector-curvature="0" />
    </marker>
    <marker
       inkscape:stockid="Arrow2LendR"
       orient="auto"
       refY="0"
       refX="0"
       id="Arrow2LendR-3"
       style="overflow:visible">
      <path
         id="path6561-8"
         style="fill:#ff0000;fill-rule:evenodd;stroke:#ff0000;stroke-width:0.625;stroke-linejoin:round"
         d="M 8.7185878,4.0337352 -2.2072895,0.01601326 8.7185884,-4.0017078 c -1.7454984,2.3720609 -1.7354408,5.6174519 -6e-7,8.035443 z"
         transform="matrix(-1.1,0,0,-1.1,-1.1,0)"
         inkscape:connector-curvature="0" />
    </marker>
    <marker
       inkscape:stockid="Arrow2LendX"
       orient="auto"
       refY="0"
       refX="0"
       id="Arrow2LendX-7"
       style="overflow:visible">
      <path
         id="path6968-4"
         style="fill:#00ff00;fill-rule:evenodd;stroke:#00ff00;stroke-width:0.625;stroke-linejoin:round"
         d="M 8.7185878,4.0337352 -2.2072895,0.01601326 8.7185884,-4.0017078 c -1.7454984,2.3720609 -1.7354408,5.6174519 -6e-7,8.035443 z"
         transform="matrix(-1.1,0,0,-1.1,-1.1,0)"
         inkscape:connector-curvature="0" />
    </marker>
    <marker
       inkscape:stockid="Arrow2Lstart3"
       orient="auto"
       refY="0"
       refX="0"
       id="Arrow2Lstart3"
       style="overflow:visible">
      <path
         inkscape:connector-curvature="0"
         id="path7771"
         style="stroke-linejoin:round;stroke:#ff0000;stroke-width:0.625;fill:#ff0000;fill-rule:evenodd"
         d="M 8.7185878,4.0337352 -2.2072895,0.01601326 8.7185884,-4.0017078 c -1.7454984,2.3720609 -1.7354408,5.6174519 -6e-7,8.035443 z"
         transform="matrix(1.1,0,0,1.1,1.1,0)" />
    </marker>
    <marker
       inkscape:stockid="Arrow2LendK"
       orient="auto"
       refY="0"
       refX="0"
       id="Arrow2LendK"
       style="overflow:visible">
      <path
         id="path7774"
         style="stroke-linejoin:round;stroke:#ff0000;stroke-width:0.625;fill:#ff0000;fill-rule:evenodd"
         d="M 8.7185878,4.0337352 -2.2072895,0.01601326 8.7185884,-4.0017078 c -1.7454984,2.3720609 -1.7354408,5.6174519 -6e-7,8.035443 z"
         transform="matrix(-1.1,0,0,-1.1,-1.1,0)"
         inkscape:connector-curvature="0" />
    </marker>
    <marker
       inkscape:stockid="Arrow2Lstart3a"
       orient="auto"
       refY="0"
       refX="0"
       id="Arrow2Lstart3a"
       style="overflow:visible">
      <path
         inkscape:connector-curvature="0"
         id="path8015"
         style="stroke-linejoin:round;fill-rule:evenodd;stroke:#00ffff;stroke-width:0.625;fill:#00ffff"
         d="M 8.7185878,4.0337352 -2.2072895,0.01601326 8.7185884,-4.0017078 c -1.7454984,2.3720609 -1.7354408,5.6174519 -6e-7,8.035443 z"
         transform="matrix(1.1,0,0,1.1,1.1,0)" />
    </marker>
    <marker
       inkscape:stockid="Arrow2LendKg"
       orient="auto"
       refY="0"
       refX="0"
       id="Arrow2LendKg"
       style="overflow:visible">
      <path
         id="path8018"
         style="stroke-linejoin:round;fill-rule:evenodd;stroke:#00ffff;stroke-width:0.625;fill:#00ffff"
         d="M 8.7185878,4.0337352 -2.2072895,0.01601326 8.7185884,-4.0017078 c -1.7454984,2.3720609 -1.7354408,5.6174519 -6e-7,8.035443 z"
         transform="matrix(-1.1,0,0,-1.1,-1.1,0)"
         inkscape:connector-curvature="0" />
    </marker>
    <marker
       inkscape:stockid="Arrow2LendXZ"
       orient="auto"
       refY="0"
       refX="0"
       id="Arrow2LendXZ"
       style="overflow:visible">
      <path
         id="path3171"
         style="stroke-linejoin:round;fill-rule:evenodd;stroke:#ff0000;stroke-width:0.625;fill:#ff0000"
         d="M 8.7185878,4.0337352 -2.2072895,0.01601326 8.7185884,-4.0017078 c -1.7454984,2.3720609 -1.7354408,5.6174519 -6e-7,8.035443 z"
         transform="matrix(-1.1,0,0,-1.1,-1.1,0)"
         inkscape:connector-curvature="0" />
    </marker>
    <marker
       inkscape:stockid="Arrow2LendXZ"
       orient="auto"
       refY="0"
       refX="0"
       id="Arrow2LendXZ-7"
       style="overflow:visible">
      <path
         id="path3171-4"
         style="fill:#ff0000;fill-rule:evenodd;stroke:#ff0000;stroke-width:0.625;stroke-linejoin:round"
         d="M 8.7185878,4.0337352 -2.2072895,0.01601326 8.7185884,-4.0017078 c -1.7454984,2.3720609 -1.7354408,5.6174519 -6e-7,8.035443 z"
         transform="matrix(-1.1,0,0,-1.1,-1.1,0)"
         inkscape:connector-curvature="0" />
    </marker>
    <marker
       inkscape:stockid="Arrow2LendR"
       orient="auto"
       refY="0"
       refX="0"
       id="Arrow2LendR-0"
       style="overflow:visible">
      <path
         id="path6561-9"
         style="fill:#ff0000;fill-rule:evenodd;stroke:#ff0000;stroke-width:0.625;stroke-linejoin:round"
         d="M 8.7185878,4.0337352 -2.2072895,0.01601326 8.7185884,-4.0017078 c -1.7454984,2.3720609 -1.7354408,5.6174519 -6e-7,8.035443 z"
         transform="matrix(-1.1,0,0,-1.1,-1.1,0)"
         inkscape:connector-curvature="0" />
    </marker>
  </defs>
  <metadata
     id="metadata2990">
    <rdf:RDF>
      <cc:Work
         rdf:about="">
        <dc:format>image/svg+xml</dc:format>
        <dc:type
           rdf:resource="http://purl.org/dc/dcmitype/StillImage" />
        <dc:title></dc:title>
      </cc:Work>
    </rdf:RDF>
  </metadata>
  <g
     id="layer1"
     inkscape:label="Layer 1"
     inkscape:groupmode="layer"
     transform="translate(-6.6785384,-7.6677072)">
    <rect
       y="10.521674"
       x="67.022514"
       height="139.40425"
       width="120.04256"
       id="rect6043-4"
       style="opacity:0.29999999999999999;fill:#ffd5d5;stroke:none" />
    <rect
       y="147.74405"
       x="2.5815604"
       height="98.744682"
       width="178.77306"
       id="rect6043"
       style="opacity:0.29999999999999999;fill:#ffd5d5;stroke:none;stroke-width:1;stroke-linejoin:miter;stroke-miterlimit:4;stroke-opacity:1;stroke-dasharray:none;stroke-dashoffset:0"
       transform="translate(6.6785384,7.6677072)" />
    <path
       style="fill:none;stroke:#000000;stroke-width:1px;stroke-linecap:butt;stroke-linejoin:miter;stroke-opacity:1"
       d="m 7.3017484,256.38375 389.7311916,0 0,-247.3469607 c -130.21464,0 88.01702,0 -389.7311916,0.02852 z"
       id="path3765"
       inkscape:connector-curvature="0"
       sodipodi:nodetypes="ccccc" />
    <path
       inkscape:connector-curvature="0"
       style="fill:none;stroke:#ff0000;stroke-width:1px;stroke-linecap:butt;stroke-linejoin:miter;stroke-opacity:1"
       d="m 190.46932,10.476363 0,141.752067"
       id="path5244" />
    <path
       inkscape:connector-curvature="0"
       style="fill:none;stroke:#ff0000;stroke-width:1px;stroke-linecap:butt;stroke-linejoin:miter;stroke-opacity:1"
       d="m 190.46932,152.97002 0,104.55875"
       id="path3767" />
    <path
       style="fill:none;stroke:#00ffff;stroke-width:1px;stroke-linecap:butt;stroke-linejoin:miter;stroke-opacity:1"
       d="m 7.1785384,152.65289 183.2907816,0"
       id="path3769"
       inkscape:connector-curvature="0" />
    <path
       style="fill:none;stroke:#000000;stroke-width:1.0035671px;stroke-linecap:butt;stroke-linejoin:miter;stroke-opacity:1"
       d="m 189.9578,152.6529 208.00086,0"
       id="path3771"
       inkscape:connector-curvature="0" />
    <path
       style="fill:none;stroke:#000000;stroke-width:1px;stroke-linecap:butt;stroke-linejoin:miter;stroke-opacity:1"
       d="m 65.263648,152.65289 0,-143.9219867"
       id="path3775"
       inkscape:connector-curvature="0" />
    <path
       style="fill:none;stroke:#000000;stroke-width:1.43326008px;stroke-linecap:butt;stroke-linejoin:miter;stroke-opacity:1"
       d="m 191.07583,65.669032 205.30593,0"
       id="path5250"
       inkscape:connector-curvature="0" />
    <path
       transform="translate(6.6785384,8.2309033)"
       inkscape:connector-curvature="0"
       id="path4265"
       d="m 278.83578,-0.06319607 0,57.04496407"
       style="fill:none;stroke:#000000;stroke-width:1px;stroke-linecap:butt;stroke-linejoin:miter;stroke-opacity:1" />
    <path
       inkscape:connector-curvature="0"
       id="path4265-1"
       d="m 285.51432,153.45896 0,102.34321"
       style="fill:none;stroke:#000000;stroke-width:1.3394326px;stroke-linecap:butt;stroke-linejoin:miter;stroke-opacity:1" />
    <path
       style="fill:none;stroke:#000000;stroke-width:1px;stroke-linecap:butt;stroke-linejoin:miter;stroke-opacity:1"
       d="m 432.61382,256.38375 389.73119,0 0,-247.3469573 c -130.21464,0 88.01702,0 -389.73119,0.02852 z"
       id="path3765-5"
       inkscape:connector-curvature="0"
       sodipodi:nodetypes="ccccc" />
    <path
       style="fill:none;stroke:#ff0000;stroke-width:1.00678158000000000px;stroke-linecap:butt;stroke-linejoin:miter;stroke-opacity:1"
       d="m 615.78139,10.479757 0,142.713363"
       id="path5244-7"
       inkscape:connector-curvature="0" />
    <path
       style="fill:none;stroke:#ff0000;stroke-width:1px;stroke-linecap:butt;stroke-linejoin:miter;stroke-opacity:1"
       d="m 615.78139,152.97002 0,104.55875"
       id="path3767-6"
       inkscape:connector-curvature="0" />
    <path
       style="fill:none;stroke:#00ffff;stroke-width:1px;stroke-linecap:butt;stroke-linejoin:miter;stroke-opacity:1"
       d="m 432.49061,152.65289 183.29078,0"
       id="path3769-1"
       inkscape:connector-curvature="0" />
    <path
       style="fill:none;stroke:#000000;stroke-width:1.0035671px;stroke-linecap:butt;stroke-linejoin:miter;stroke-opacity:1"
       d="m 615.26987,132.64581 208.00086,0"
       id="path3771-8"
       inkscape:connector-curvature="0" />
    <path
       style="fill:none;stroke:#000000;stroke-width:1px;stroke-linecap:butt;stroke-linejoin:miter;stroke-opacity:1"
       d="m 490.57572,152.65289 0,-143.9219833"
       id="path3775-9"
       inkscape:connector-curvature="0" />
    <path
       style="fill:none;stroke:#000000;stroke-width:1.43326007999999990px;stroke-linecap:butt;stroke-linejoin:miter;stroke-opacity:1"
       d="m 616.3879,65.669035 205.30593,0"
       id="path5250-2"
       inkscape:connector-curvature="0" />
    <path
       inkscape:connector-curvature="0"
       id="path4265-7"
       d="m 710.82639,8.1677106 0,57.0449634"
       style="fill:none;stroke:#000000;stroke-width:1px;stroke-linecap:butt;stroke-linejoin:miter;stroke-opacity:1" />
    <path
       inkscape:connector-curvature="0"
       id="path4265-1-9"
       d="m 710.82639,132.61628 0,123.05339"
       style="fill:none;stroke:#000000;stroke-width:1.4687171px;stroke-linecap:butt;stroke-linejoin:miter;stroke-opacity:1" />
    <text
       sodipodi:linespacing="125%"
       id="text6045"
       y="72.801826"
       x="84.125343"
       style="font-size:18px;font-style:normal;font-weight:normal;line-height:125%;letter-spacing:0px;word-spacing:0px;fill:#000000;fill-opacity:1;stroke:none;font-family:Sans"
       xml:space="preserve"><tspan
         y="72.801826"
         x="84.125343"
         id="tspan6047"
         sodipodi:role="line">leftNode</tspan></text>
    <path
       inkscape:connector-curvature="0"
       id="path6049"
       d="m 190.56962,208.97931 -59.69529,0"
       style="fill:none;stroke:#ff0000;stroke-width:1.09019518;stroke-linecap:butt;stroke-linejoin:miter;stroke-miterlimit:4;stroke-opacity:1;stroke-dasharray:none;marker-end:url(#Arrow2LendR)" />
    <text
       xml:space="preserve"
       style="font-size:18px;font-style:normal;font-weight:normal;line-height:125%;letter-spacing:0px;word-spacing:0px;fill:#ff0000;fill-opacity:1;stroke:none;font-family:Sans"
       x="160.28139"
       y="104.42592"
       id="text6676"
       sodipodi:linespacing="125%"><tspan
         sodipodi:role="line"
         id="tspan6678"
         x="160.28139"
         y="104.42592">1</tspan></text>
    <path
       style="stroke-linejoin:miter;marker-end:url(#Arrow2LendXZ);stroke-opacity:1;stroke:#ff0000;stroke-linecap:butt;stroke-width:1px;fill:none"
       d="m 183.93618,78.041913 -54.85816,0"
       id="path6680"
       inkscape:connector-curvature="0"
       transform="translate(6.6785384,7.6677072)" />
    <text
       sodipodi:linespacing="125%"
       id="text6045-1"
       y="215.98779"
       x="24.643543"
       style="font-size:18px;font-style:normal;font-weight:normal;line-height:125%;letter-spacing:0px;word-spacing:0px;fill:#000000;fill-opacity:1;stroke:none;font-family:Sans"
       xml:space="preserve"><tspan
         y="215.98779"
         x="24.643543"
         id="tspan6047-1"
         sodipodi:role="line">leftNeighbor</tspan></text>
    <text
       sodipodi:linespacing="125%"
       id="text7130"
       y="170.90112"
       x="66.054428"
       style="font-size:18px;font-style:normal;font-weight:normal;line-height:125%;letter-spacing:0px;word-spacing:0px;fill:#00ffff;fill-opacity:1;stroke:none;font-family:Sans"
       xml:space="preserve"><tspan
         y="170.90112"
         x="66.054428"
         id="tspan7132"
         sodipodi:role="line">3</tspan></text>
    <text
       sodipodi:linespacing="125%"
       id="text7206"
       y="227.05006"
       x="160.28139"
       style="font-size:18px;font-style:normal;font-weight:normal;line-height:125%;letter-spacing:0px;word-spacing:0px;fill:#ff0000;fill-opacity:1;stroke:none;font-family:Sans"
       xml:space="preserve"><tspan
         y="227.05006"
         x="160.28139"
         id="tspan7208"
         sodipodi:role="line">2</tspan></text>
    <rect
       y="11.312192"
       x="492.32898"
       height="139.40425"
       width="120.04256"
       id="rect6043-4-4"
       style="opacity:0.3;fill:#ffd5d5;stroke:none" />
    <rect
       y="155.97409"
       x="434.1102"
       height="98.744682"
       width="178.77306"
       id="rect6043-8"
       style="opacity:0.3;fill:#ffd5d5;stroke:none" />
    <text
       sodipodi:linespacing="125%"
       id="text6045-2"
       y="73.285873"
       x="507.57391"
       style="font-size:18px;font-style:normal;font-weight:normal;line-height:125%;letter-spacing:0px;word-spacing:0px;fill:#000000;fill-opacity:1;stroke:none;font-family:Sans"
       xml:space="preserve"><tspan
         y="73.285873"
         x="507.57391"
         id="tspan6047-4"
         sodipodi:role="line">leftNode</tspan></text>
    <path
       inkscape:connector-curvature="0"
       id="path6049-5"
       d="m 615.87608,207.9444 -59.69529,0"
       style="fill:none;stroke:#ff0000;stroke-width:1.09019518;stroke-linecap:butt;stroke-linejoin:miter;stroke-miterlimit:4;stroke-opacity:1;stroke-dasharray:none;marker-end:url(#Arrow2LendR)" />
    <text
       xml:space="preserve"
       style="font-size:18px;font-style:normal;font-weight:normal;line-height:125%;letter-spacing:0px;word-spacing:0px;fill:#ff0000;fill-opacity:1;stroke:none;font-family:Sans"
       x="590.1839"
       y="102.32841"
       id="text6676-5"
       sodipodi:linespacing="125%"><tspan
         sodipodi:role="line"
         id="tspan6678-1"
         x="590.1839"
         y="102.32841">1</tspan></text>
    <path
       style="fill:none;stroke:#ff0000;stroke-width:1px;stroke-linecap:butt;stroke-linejoin:miter;stroke-opacity:1;marker-end:url(#Arrow2LendXZ)"
       d="m 615.92118,84.674701 -54.85816,0"
       id="path6680-7"
       inkscape:connector-curvature="0" />
    <text
       sodipodi:linespacing="125%"
       id="text6045-1-1"
       y="213.89029"
       x="452.60986"
       style="font-size:18px;font-style:normal;font-weight:normal;line-height:125%;letter-spacing:0px;word-spacing:0px;fill:#000000;fill-opacity:1;stroke:none;font-family:Sans"
       xml:space="preserve"><tspan
         y="213.89029"
         x="452.60986"
         id="tspan6047-1-1"
         sodipodi:role="line">leftNeighbor</tspan></text>
    <text
       sodipodi:linespacing="125%"
       id="text7206-5"
       y="226.24332"
       x="590.1839"
       style="font-size:18px;font-style:normal;font-weight:normal;line-height:125%;letter-spacing:0px;word-spacing:0px;fill:#ff0000;fill-opacity:1;stroke:none;font-family:Sans"
       xml:space="preserve"><tspan
         y="226.24332"
         x="590.1839"
         id="tspan7208-2"
         sodipodi:role="line">2</tspan></text>
    <text
       sodipodi:linespacing="125%"
       id="text7130-7"
       y="167.63501"
       x="500.96146"
       style="font-size:18px;font-style:normal;font-weight:normal;line-height:125%;letter-spacing:0px;word-spacing:0px;fill:#00ffff;fill-opacity:1;stroke:none;font-family:Sans"
       xml:space="preserve"><tspan
         y="167.63501"
         x="500.96146"
         id="tspan7132-6"
         sodipodi:role="line">3</tspan></text>
  </g>
</svg>
