<?xml version="1.0" encoding="UTF-8" standalone="no"?>
<!-- Created with Inkscape (http://www.inkscape.org/) -->

<svg
   xmlns:osb="http://www.openswatchbook.org/uri/2009/osb"
   xmlns:dc="http://purl.org/dc/elements/1.1/"
   xmlns:cc="http://creativecommons.org/ns#"
   xmlns:rdf="http://www.w3.org/1999/02/22-rdf-syntax-ns#"
   xmlns:svg="http://www.w3.org/2000/svg"
   xmlns="http://www.w3.org/2000/svg"
   xmlns:sodipodi="http://sodipodi.sourceforge.net/DTD/sodipodi-0.dtd"
   xmlns:inkscape="http://www.inkscape.org/namespaces/inkscape"
   sodipodi:docname="layoutUnite03.svg"
   inkscape:version="0.48.4 r9939"
   version="1.1"
   id="svg2985"
   height="250.36107"
   width="391.78189">
  <sodipodi:namedview
     id="base"
     pagecolor="#ffffff"
     bordercolor="#666666"
     borderopacity="1.0"
     inkscape:pageopacity="0.0"
     inkscape:pageshadow="2"
     inkscape:zoom="2.4629178"
     inkscape:cx="160.42531"
     inkscape:cy="165.94533"
     inkscape:current-layer="svg2985"
     inkscape:document-units="px"
     showgrid="false"
     inkscape:window-width="1408"
     inkscape:window-height="938"
     inkscape:window-x="188"
     inkscape:window-y="47"
     inkscape:window-maximized="0"
     fit-margin-top="0"
     fit-margin-left="0"
     fit-margin-right="0"
     fit-margin-bottom="0"
     showguides="true"
     inkscape:guide-bbox="true" />
  <defs
     id="defs2987">
    <marker
       inkscape:stockid="DotM"
       orient="auto"
       refY="0"
       refX="0"
       id="DotM"
       style="overflow:visible">
      <path
         id="path4026"
         d="m -2.5,-1 c 0,2.76 -2.24,5 -5,5 -2.76,0 -5,-2.24 -5,-5 0,-2.76 2.24,-5 5,-5 2.76,0 5,2.24 5,5 z"
         style="fill-rule:evenodd;stroke:#000000;stroke-width:1pt"
         transform="matrix(0.4,0,0,0.4,2.96,0.4)"
         inkscape:connector-curvature="0" />
    </marker>
    <marker
       inkscape:stockid="DotL"
       orient="auto"
       refY="0"
       refX="0"
       id="DotL"
       style="overflow:visible">
      <path
         id="path4023"
         d="m -2.5,-1 c 0,2.76 -2.24,5 -5,5 -2.76,0 -5,-2.24 -5,-5 0,-2.76 2.24,-5 5,-5 2.76,0 5,2.24 5,5 z"
         style="fill-rule:evenodd;stroke:#000000;stroke-width:1pt"
         transform="matrix(0.8,0,0,0.8,5.92,0.8)"
         inkscape:connector-curvature="0" />
    </marker>
    <marker
       style="overflow:visible"
       id="Arrow2Lstart"
       refX="0"
       refY="0"
       orient="auto"
       inkscape:stockid="Arrow2Lstart">
      <path
         transform="matrix(1.1,0,0,1.1,1.1,0)"
         d="M 8.7185878,4.0337352 -2.2072895,0.01601326 8.7185884,-4.0017078 c -1.7454984,2.3720609 -1.7354408,5.6174519 -6e-7,8.035443 z"
         style="fill-rule:evenodd;stroke-width:0.625;stroke-linejoin:round"
         id="path3980"
         inkscape:connector-curvature="0" />
    </marker>
    <linearGradient
       osb:paint="solid"
       id="linearGradient6819">
      <stop
         id="stop6821"
         offset="0"
         style="stop-color:#0000ff;stop-opacity:1;" />
    </linearGradient>
    <marker
       style="overflow:visible"
       id="Arrow2Lend"
       refX="0"
       refY="0"
       orient="auto"
       inkscape:stockid="Arrow2Lend">
      <path
         inkscape:connector-curvature="0"
         transform="matrix(-1.1,0,0,-1.1,-1.1,0)"
         d="M 8.7185878,4.0337352 -2.2072895,0.01601326 8.7185884,-4.0017078 c -1.7454984,2.3720609 -1.7354408,5.6174519 -6e-7,8.035443 z"
         style="fill-rule:evenodd;stroke-width:0.625;stroke-linejoin:round"
         id="path3984" />
    </marker>
    <marker
       style="overflow:visible"
       id="Arrow1Lend"
       refX="0"
       refY="0"
       orient="auto"
       inkscape:stockid="Arrow1Lend">
      <path
         inkscape:connector-curvature="0"
         transform="matrix(-0.8,0,0,-0.8,-10,0)"
         style="fill-rule:evenodd;stroke:#000000;stroke-width:1pt"
         d="M 0,0 5,-5 -12.5,0 5,5 0,0 z"
         id="path3966" />
    </marker>
    <marker
       style="overflow:visible"
       id="Arrow2Lend2"
       refX="0"
       refY="0"
       orient="auto"
       inkscape:stockid="Arrow2Lend2">
      <path
         inkscape:connector-curvature="0"
         transform="matrix(-1.1,0,0,-1.1,-1.1,0)"
         d="M 8.7185878,4.0337352 -2.2072895,0.01601326 8.7185884,-4.0017078 c -1.7454984,2.3720609 -1.7354408,5.6174519 -6e-7,8.035443 z"
         style="fill:#0000ff;fill-rule:evenodd;stroke:#0000ff;stroke-width:0.625;stroke-linejoin:round"
         id="path5183" />
    </marker>
    <marker
       style="overflow:visible"
       id="Arrow2Lend2-3"
       refX="0"
       refY="0"
       orient="auto"
       inkscape:stockid="Arrow2Lend2">
      <path
         transform="matrix(-1.1,0,0,-1.1,-1.1,0)"
         d="M 8.7185878,4.0337352 -2.2072895,0.01601326 8.7185884,-4.0017078 c -1.7454984,2.3720609 -1.7354408,5.6174519 -6e-7,8.035443 z"
         style="fill:#0000ff;fill-rule:evenodd;stroke:#0000ff;stroke-width:0.625;stroke-linejoin:round"
         id="path5183-1"
         inkscape:connector-curvature="0" />
    </marker>
    <marker
       style="overflow:visible"
       id="Arrow2Lend2r"
       refX="0"
       refY="0"
       orient="auto"
       inkscape:stockid="Arrow2Lend2r">
      <path
         inkscape:connector-curvature="0"
         transform="matrix(-1.1,0,0,-1.1,-1.1,0)"
         d="M 8.7185878,4.0337352 -2.2072895,0.01601326 8.7185884,-4.0017078 c -1.7454984,2.3720609 -1.7354408,5.6174519 -6e-7,8.035443 z"
         style="fill:#0000ff;fill-rule:evenodd;stroke:#0000ff;stroke-width:0.625;stroke-linejoin:round"
         id="path6871" />
    </marker>
    <marker
       style="overflow:visible"
       id="Arrow2LendY"
       refX="0"
       refY="0"
       orient="auto"
       inkscape:stockid="Arrow2LendY">
      <path
         inkscape:connector-curvature="0"
         transform="matrix(-1.1,0,0,-1.1,-1.1,0)"
         d="M 8.7185878,4.0337352 -2.2072895,0.01601326 8.7185884,-4.0017078 c -1.7454984,2.3720609 -1.7354408,5.6174519 -6e-7,8.035443 z"
         style="fill:#ff0000;fill-rule:evenodd;stroke:#ff0000;stroke-width:0.625;stroke-linejoin:round"
         id="path4011" />
    </marker>
    <marker
       style="overflow:visible"
       id="Arrow2Lstarte"
       refX="0"
       refY="0"
       orient="auto"
       inkscape:stockid="Arrow2Lstarte">
      <path
         transform="matrix(1.1,0,0,1.1,1.1,0)"
         d="M 8.7185878,4.0337352 -2.2072895,0.01601326 8.7185884,-4.0017078 c -1.7454984,2.3720609 -1.7354408,5.6174519 -6e-7,8.035443 z"
         style="fill:#ff0000;fill-rule:evenodd;stroke:#ff0000;stroke-width:0.625;stroke-linejoin:round"
         id="path5022"
         inkscape:connector-curvature="0" />
    </marker>
    <marker
       style="overflow:visible"
       id="Arrow2Lendk"
       refX="0"
       refY="0"
       orient="auto"
       inkscape:stockid="Arrow2Lendk">
      <path
         inkscape:connector-curvature="0"
         transform="matrix(-1.1,0,0,-1.1,-1.1,0)"
         d="M 8.7185878,4.0337352 -2.2072895,0.01601326 8.7185884,-4.0017078 c -1.7454984,2.3720609 -1.7354408,5.6174519 -6e-7,8.035443 z"
         style="fill:#ff0000;fill-rule:evenodd;stroke:#ff0000;stroke-width:0.625;stroke-linejoin:round"
         id="path5025" />
    </marker>
    <marker
       style="overflow:visible"
       id="Arrow2Lstartef"
       refX="0"
       refY="0"
       orient="auto"
       inkscape:stockid="Arrow2Lstartef">
      <path
         transform="matrix(1.1,0,0,1.1,1.1,0)"
         d="M 8.7185878,4.0337352 -2.2072895,0.01601326 8.7185884,-4.0017078 c -1.7454984,2.3720609 -1.7354408,5.6174519 -6e-7,8.035443 z"
         style="fill:#ff00ff;fill-rule:evenodd;stroke:#ff00ff;stroke-width:0.625;stroke-linejoin:round"
         id="path5140"
         inkscape:connector-curvature="0" />
    </marker>
    <marker
       style="overflow:visible"
       id="Arrow2LendkM"
       refX="0"
       refY="0"
       orient="auto"
       inkscape:stockid="Arrow2LendkM">
      <path
         inkscape:connector-curvature="0"
         transform="matrix(-1.1,0,0,-1.1,-1.1,0)"
         d="M 8.7185878,4.0337352 -2.2072895,0.01601326 8.7185884,-4.0017078 c -1.7454984,2.3720609 -1.7354408,5.6174519 -6e-7,8.035443 z"
         style="fill:#ff00ff;fill-rule:evenodd;stroke:#ff00ff;stroke-width:0.625;stroke-linejoin:round"
         id="path5143" />
    </marker>
    <marker
       style="overflow:visible"
       id="Arrow2LendJ"
       refX="0"
       refY="0"
       orient="auto"
       inkscape:stockid="Arrow2LendJ">
      <path
         inkscape:connector-curvature="0"
         transform="matrix(-1.1,0,0,-1.1,-1.1,0)"
         d="M 8.7185878,4.0337352 -2.2072895,0.01601326 8.7185884,-4.0017078 c -1.7454984,2.3720609 -1.7354408,5.6174519 -6e-7,8.035443 z"
         style="fill:#ffff00;fill-rule:evenodd;stroke:#ffff00;stroke-width:0.625;stroke-linejoin:round"
         id="path5700" />
    </marker>
    <marker
       style="overflow:visible"
       id="Arrow2LendJ-5"
       refX="0"
       refY="0"
       orient="auto"
       inkscape:stockid="Arrow2LendJ">
      <path
         inkscape:connector-curvature="0"
         transform="matrix(-1.1,0,0,-1.1,-1.1,0)"
         d="M 8.7185878,4.0337352 -2.2072895,0.01601326 8.7185884,-4.0017078 c -1.7454984,2.3720609 -1.7354408,5.6174519 -6e-7,8.035443 z"
         style="fill:#ffff00;fill-rule:evenodd;stroke:#ffff00;stroke-width:0.625;stroke-linejoin:round"
         id="path5700-1" />
    </marker>
    <marker
       inkscape:stockid="DotMo"
       orient="auto"
       refY="0"
       refX="0"
       id="DotMo"
       style="overflow:visible">
      <path
         id="path7772"
         d="m -2.5,-1 c 0,2.76 -2.24,5 -5,5 -2.76,0 -5,-2.24 -5,-5 0,-2.76 2.24,-5 5,-5 2.76,0 5,2.24 5,5 z"
         style="fill:#0000ff;fill-rule:evenodd;stroke:#0000ff;stroke-width:1pt"
         transform="matrix(0.4,0,0,0.4,2.96,0.4)"
         inkscape:connector-curvature="0" />
    </marker>
    <marker
       inkscape:stockid="DotM4"
       orient="auto"
       refY="0"
       refX="0"
       id="DotM4"
       style="overflow:visible">
      <path
         id="path8343"
         d="m -2.5,-1 c 0,2.76 -2.24,5 -5,5 -2.76,0 -5,-2.24 -5,-5 0,-2.76 2.24,-5 5,-5 2.76,0 5,2.24 5,5 z"
         style="fill:#0000ff;fill-rule:evenodd;stroke:#0000ff;stroke-width:1pt"
         transform="matrix(0.4,0,0,0.4,2.96,0.4)"
         inkscape:connector-curvature="0" />
    </marker>
    <marker
       inkscape:stockid="DotMo"
       orient="auto"
       refY="0"
       refX="0"
       id="DotMo-6"
       style="overflow:visible">
      <path
         inkscape:connector-curvature="0"
         id="path7772-1"
         d="m -2.5,-1 c 0,2.76 -2.24,5 -5,5 -2.76,0 -5,-2.24 -5,-5 0,-2.76 2.24,-5 5,-5 2.76,0 5,2.24 5,5 z"
         style="fill:#0000ff;fill-rule:evenodd;stroke:#0000ff;stroke-width:1pt"
         transform="matrix(0.4,0,0,0.4,2.96,0.4)" />
    </marker>
    <marker
       style="overflow:visible"
       id="Arrow2Lstartk"
       refX="0"
       refY="0"
       orient="auto"
       inkscape:stockid="Arrow2Lstartk">
      <path
         transform="matrix(1.1,0,0,1.1,1.1,0)"
         d="M 8.7185878,4.0337352 -2.2072895,0.01601326 8.7185884,-4.0017078 c -1.7454984,2.3720609 -1.7354408,5.6174519 -6e-7,8.035443 z"
         style="fill:#0000ff;fill-rule:evenodd;stroke:#0000ff;stroke-width:0.625;stroke-linejoin:round"
         id="path5107"
         inkscape:connector-curvature="0" />
    </marker>
    <marker
       style="overflow:visible"
       id="Arrow2Lendz"
       refX="0"
       refY="0"
       orient="auto"
       inkscape:stockid="Arrow2Lendz">
      <path
         inkscape:connector-curvature="0"
         transform="matrix(-1.1,0,0,-1.1,-1.1,0)"
         d="M 8.7185878,4.0337352 -2.2072895,0.01601326 8.7185884,-4.0017078 c -1.7454984,2.3720609 -1.7354408,5.6174519 -6e-7,8.035443 z"
         style="fill:#0000ff;fill-rule:evenodd;stroke:#0000ff;stroke-width:0.625;stroke-linejoin:round"
         id="path5110" />
    </marker>
    <marker
       style="overflow:visible"
       id="Arrow2Lstarts"
       refX="0"
       refY="0"
       orient="auto"
       inkscape:stockid="Arrow2Lstarts">
      <path
         transform="matrix(1.1,0,0,1.1,1.1,0)"
         d="M 8.7185878,4.0337352 -2.2072895,0.01601326 8.7185884,-4.0017078 c -1.7454984,2.3720609 -1.7354408,5.6174519 -6e-7,8.035443 z"
         style="fill:#0000ff;fill-rule:evenodd;stroke:#0000ff;stroke-width:0.625;stroke-linejoin:round"
         id="path5909"
         inkscape:connector-curvature="0" />
    </marker>
    <marker
       style="overflow:visible"
       id="Arrow2Lenda"
       refX="0"
       refY="0"
       orient="auto"
       inkscape:stockid="Arrow2Lenda">
      <path
         inkscape:connector-curvature="0"
         transform="matrix(-1.1,0,0,-1.1,-1.1,0)"
         d="M 8.7185878,4.0337352 -2.2072895,0.01601326 8.7185884,-4.0017078 c -1.7454984,2.3720609 -1.7354408,5.6174519 -6e-7,8.035443 z"
         style="fill:#0000ff;fill-rule:evenodd;stroke:#0000ff;stroke-width:0.625;stroke-linejoin:round"
         id="path5912" />
    </marker>
    <marker
       style="overflow:visible"
       id="Arrow2Lstarts-5"
       refX="0"
       refY="0"
       orient="auto"
       inkscape:stockid="Arrow2Lstarts">
      <path
         transform="matrix(1.1,0,0,1.1,1.1,0)"
         d="M 8.7185878,4.0337352 -2.2072895,0.01601326 8.7185884,-4.0017078 c -1.7454984,2.3720609 -1.7354408,5.6174519 -6e-7,8.035443 z"
         style="fill:#0000ff;fill-rule:evenodd;stroke:#0000ff;stroke-width:0.625;stroke-linejoin:round"
         id="path5909-4"
         inkscape:connector-curvature="0" />
    </marker>
    <marker
       style="overflow:visible"
       id="Arrow2Lenda-3"
       refX="0"
       refY="0"
       orient="auto"
       inkscape:stockid="Arrow2Lenda">
      <path
         inkscape:connector-curvature="0"
         transform="matrix(-1.1,0,0,-1.1,-1.1,0)"
         d="M 8.7185878,4.0337352 -2.2072895,0.01601326 8.7185884,-4.0017078 c -1.7454984,2.3720609 -1.7354408,5.6174519 -6e-7,8.035443 z"
         style="fill:#0000ff;fill-rule:evenodd;stroke:#0000ff;stroke-width:0.625;stroke-linejoin:round"
         id="path5912-1" />
    </marker>
    <marker
       style="overflow:visible"
       id="Arrow2LendR"
       refX="0"
       refY="0"
       orient="auto"
       inkscape:stockid="Arrow2LendR">
      <path
         inkscape:connector-curvature="0"
         transform="matrix(-1.1,0,0,-1.1,-1.1,0)"
         d="M 8.7185878,4.0337352 -2.2072895,0.01601326 8.7185884,-4.0017078 c -1.7454984,2.3720609 -1.7354408,5.6174519 -6e-7,8.035443 z"
         style="fill:#ff0000;fill-rule:evenodd;stroke:#ff0000;stroke-width:0.625;stroke-linejoin:round"
         id="path6561" />
    </marker>
    <marker
       style="overflow:visible"
       id="Arrow2LendX"
       refX="0"
       refY="0"
       orient="auto"
       inkscape:stockid="Arrow2LendX">
      <path
         inkscape:connector-curvature="0"
         transform="matrix(-1.1,0,0,-1.1,-1.1,0)"
         d="M 8.7185878,4.0337352 -2.2072895,0.01601326 8.7185884,-4.0017078 c -1.7454984,2.3720609 -1.7354408,5.6174519 -6e-7,8.035443 z"
         style="fill:#00ff00;fill-rule:evenodd;stroke:#00ff00;stroke-width:0.625;stroke-linejoin:round"
         id="path6968" />
    </marker>
    <marker
       style="overflow:visible"
       id="Arrow2LendR-3"
       refX="0"
       refY="0"
       orient="auto"
       inkscape:stockid="Arrow2LendR">
      <path
         inkscape:connector-curvature="0"
         transform="matrix(-1.1,0,0,-1.1,-1.1,0)"
         d="M 8.7185878,4.0337352 -2.2072895,0.01601326 8.7185884,-4.0017078 c -1.7454984,2.3720609 -1.7354408,5.6174519 -6e-7,8.035443 z"
         style="fill:#ff0000;fill-rule:evenodd;stroke:#ff0000;stroke-width:0.625;stroke-linejoin:round"
         id="path6561-8" />
    </marker>
    <marker
       style="overflow:visible"
       id="Arrow2LendX-7"
       refX="0"
       refY="0"
       orient="auto"
       inkscape:stockid="Arrow2LendX">
      <path
         inkscape:connector-curvature="0"
         transform="matrix(-1.1,0,0,-1.1,-1.1,0)"
         d="M 8.7185878,4.0337352 -2.2072895,0.01601326 8.7185884,-4.0017078 c -1.7454984,2.3720609 -1.7354408,5.6174519 -6e-7,8.035443 z"
         style="fill:#00ff00;fill-rule:evenodd;stroke:#00ff00;stroke-width:0.625;stroke-linejoin:round"
         id="path6968-4" />
    </marker>
    <marker
       style="overflow:visible"
       id="Arrow2Lstart3"
       refX="0"
       refY="0"
       orient="auto"
       inkscape:stockid="Arrow2Lstart3">
      <path
         transform="matrix(1.1,0,0,1.1,1.1,0)"
         d="M 8.7185878,4.0337352 -2.2072895,0.01601326 8.7185884,-4.0017078 c -1.7454984,2.3720609 -1.7354408,5.6174519 -6e-7,8.035443 z"
         style="fill:#ff0000;fill-rule:evenodd;stroke:#ff0000;stroke-width:0.625;stroke-linejoin:round"
         id="path7771"
         inkscape:connector-curvature="0" />
    </marker>
    <marker
       style="overflow:visible"
       id="Arrow2LendK"
       refX="0"
       refY="0"
       orient="auto"
       inkscape:stockid="Arrow2LendK">
      <path
         inkscape:connector-curvature="0"
         transform="matrix(-1.1,0,0,-1.1,-1.1,0)"
         d="M 8.7185878,4.0337352 -2.2072895,0.01601326 8.7185884,-4.0017078 c -1.7454984,2.3720609 -1.7354408,5.6174519 -6e-7,8.035443 z"
         style="fill:#ff0000;fill-rule:evenodd;stroke:#ff0000;stroke-width:0.625;stroke-linejoin:round"
         id="path7774" />
    </marker>
    <marker
       style="overflow:visible"
       id="Arrow2Lstart3a"
       refX="0"
       refY="0"
       orient="auto"
       inkscape:stockid="Arrow2Lstart3a">
      <path
         transform="matrix(1.1,0,0,1.1,1.1,0)"
         d="M 8.7185878,4.0337352 -2.2072895,0.01601326 8.7185884,-4.0017078 c -1.7454984,2.3720609 -1.7354408,5.6174519 -6e-7,8.035443 z"
         style="fill:#00ffff;fill-rule:evenodd;stroke:#00ffff;stroke-width:0.625;stroke-linejoin:round"
         id="path8015"
         inkscape:connector-curvature="0" />
    </marker>
    <marker
       style="overflow:visible"
       id="Arrow2LendKg"
       refX="0"
       refY="0"
       orient="auto"
       inkscape:stockid="Arrow2LendKg">
      <path
         inkscape:connector-curvature="0"
         transform="matrix(-1.1,0,0,-1.1,-1.1,0)"
         d="M 8.7185878,4.0337352 -2.2072895,0.01601326 8.7185884,-4.0017078 c -1.7454984,2.3720609 -1.7354408,5.6174519 -6e-7,8.035443 z"
         style="fill:#00ffff;fill-rule:evenodd;stroke:#00ffff;stroke-width:0.625;stroke-linejoin:round"
         id="path8018" />
    </marker>
    <marker
       inkscape:stockid="DotMY"
       orient="auto"
       refY="0"
       refX="0"
       id="DotMY"
       style="overflow:visible">
      <path
         id="path4337"
         d="m -2.5,-1 c 0,2.76 -2.24,5 -5,5 -2.76,0 -5,-2.24 -5,-5 0,-2.76 2.24,-5 5,-5 2.76,0 5,2.24 5,5 z"
         style="stroke:#0000ff;stroke-width:1pt;fill:#0000ff;fill-rule:evenodd"
         transform="matrix(0.4,0,0,0.4,2.96,0.4)"
         inkscape:connector-curvature="0" />
    </marker>
    <marker
       style="overflow:visible"
       id="Arrow2Lends"
       refX="0"
       refY="0"
       orient="auto"
       inkscape:stockid="Arrow2Lends">
      <path
         inkscape:connector-curvature="0"
         transform="matrix(-1.1,0,0,-1.1,-1.1,0)"
         d="M 8.7185878,4.0337352 -2.2072895,0.01601326 8.7185884,-4.0017078 c -1.7454984,2.3720609 -1.7354408,5.6174519 -6e-7,8.035443 z"
         style="stroke-linejoin:round;stroke:#ff0000;stroke-width:0.625;fill:#ff0000;fill-rule:evenodd"
         id="path4794" />
    </marker>
    <marker
       style="overflow:visible"
       id="Arrow2Lends-8"
       refX="0"
       refY="0"
       orient="auto"
       inkscape:stockid="Arrow2Lends">
      <path
         inkscape:connector-curvature="0"
         transform="matrix(-1.1,0,0,-1.1,-1.1,0)"
         d="M 8.7185878,4.0337352 -2.2072895,0.01601326 8.7185884,-4.0017078 c -1.7454984,2.3720609 -1.7354408,5.6174519 -6e-7,8.035443 z"
         style="fill:#ff0000;fill-rule:evenodd;stroke:#ff0000;stroke-width:0.625;stroke-linejoin:round"
         id="path4794-8" />
    </marker>
    <marker
       style="overflow:visible"
       id="Arrow2Lends-4"
       refX="0"
       refY="0"
       orient="auto"
       inkscape:stockid="Arrow2Lends">
      <path
         inkscape:connector-curvature="0"
         transform="matrix(-1.1,0,0,-1.1,-1.1,0)"
         d="M 8.7185878,4.0337352 -2.2072895,0.01601326 8.7185884,-4.0017078 c -1.7454984,2.3720609 -1.7354408,5.6174519 -6e-7,8.035443 z"
         style="fill:#ff0000;fill-rule:evenodd;stroke:#ff0000;stroke-width:0.625;stroke-linejoin:round"
         id="path4794-5" />
    </marker>
    <marker
       inkscape:stockid="DotMY"
       orient="auto"
       refY="0"
       refX="0"
       id="DotMY-2"
       style="overflow:visible">
      <path
         id="path4337-7"
         d="m -2.5,-1 c 0,2.76 -2.24,5 -5,5 -2.76,0 -5,-2.24 -5,-5 0,-2.76 2.24,-5 5,-5 2.76,0 5,2.24 5,5 z"
         style="fill:#0000ff;fill-rule:evenodd;stroke:#0000ff;stroke-width:1pt"
         transform="matrix(0.4,0,0,0.4,2.96,0.4)"
         inkscape:connector-curvature="0" />
    </marker>
    <marker
       inkscape:stockid="DotMY"
       orient="auto"
       refY="0"
       refX="0"
       id="DotMY-1"
       style="overflow:visible">
      <path
         id="path4337-4"
         d="m -2.5,-1 c 0,2.76 -2.24,5 -5,5 -2.76,0 -5,-2.24 -5,-5 0,-2.76 2.24,-5 5,-5 2.76,0 5,2.24 5,5 z"
         style="fill:#0000ff;fill-rule:evenodd;stroke:#0000ff;stroke-width:1pt"
         transform="matrix(0.4,0,0,0.4,2.96,0.4)"
         inkscape:connector-curvature="0" />
    </marker>
  </defs>
  <metadata
     id="metadata2990">
    <rdf:RDF>
      <cc:Work
         rdf:about="">
        <dc:format>image/svg+xml</dc:format>
        <dc:type
           rdf:resource="http://purl.org/dc/dcmitype/StillImage" />
        <dc:title />
      </cc:Work>
    </rdf:RDF>
  </metadata>
  <rect
     y="59.602707"
     x="185.51021"
     height="83.513832"
     width="202.62372"
     id="rect4447-7"
     style="opacity:0.3;fill:#ffd5d5;stroke:none" />
  <rect
     y="2.5577459"
     x="60.239483"
     height="140.55879"
     width="121.84805"
     id="rect4447"
     style="opacity:0.29999999999999999;fill:#ffd5d5;stroke:none;stroke-width:1;stroke-linejoin:miter;stroke-miterlimit:4;stroke-opacity:1;stroke-dasharray:3, 1;stroke-dashoffset:0" />
  <g
     transform="translate(-6.6785384,-7.6677072)"
     inkscape:groupmode="layer"
     inkscape:label="Layer 1"
     id="layer1">
    <path
       sodipodi:nodetypes="ccccc"
       inkscape:connector-curvature="0"
       id="path3765"
       d="m 7.3017484,256.38375 389.7311916,0 0,-247.3469607 c -130.21464,0 88.01702,0 -389.7311916,0.02852 z"
       style="fill:none;stroke:#000000;stroke-width:1px;stroke-linecap:butt;stroke-linejoin:miter;stroke-opacity:1" />
    <path
       id="path5244"
       d="m 190.46932,10.476363 0,141.752067"
       style="fill:none;stroke:#ff0000;stroke-width:1px;stroke-linecap:butt;stroke-linejoin:miter;stroke-opacity:1"
       inkscape:connector-curvature="0" />
    <path
       id="path3767"
       d="m 190.46932,152.97002 0,104.55875"
       style="fill:none;stroke:#ff0000;stroke-width:1px;stroke-linecap:butt;stroke-linejoin:miter;stroke-opacity:1"
       inkscape:connector-curvature="0" />
    <path
       inkscape:connector-curvature="0"
       id="path3769"
       d="m 7.1785384,152.65289 183.2907816,0"
       style="fill:none;stroke:#000000;stroke-width:1px;stroke-linecap:butt;stroke-linejoin:miter;stroke-opacity:1" />
    <path
       inkscape:connector-curvature="0"
       id="path3771"
       d="m 189.9578,152.6529 208.00086,0"
       style="fill:none;stroke:#000000;stroke-width:1.0035671px;stroke-linecap:butt;stroke-linejoin:miter;stroke-opacity:1" />
    <path
       inkscape:connector-curvature="0"
       id="path3775"
       d="m 65.263648,152.65289 0,-143.9219867"
       style="fill:none;stroke:#000000;stroke-width:0.95209211px;stroke-linecap:butt;stroke-linejoin:miter;stroke-opacity:1" />
    <path
       inkscape:connector-curvature="0"
       id="path5250"
       d="m 191.07583,65.669032 205.30593,0"
       style="fill:none;stroke:#000000;stroke-width:1.43326008px;stroke-linecap:butt;stroke-linejoin:miter;stroke-opacity:1" />
    <path
       style="fill:none;stroke:#000000;stroke-width:1px;stroke-linecap:butt;stroke-linejoin:miter;stroke-opacity:1"
       d="m 278.83578,-0.06319607 0,57.04496407"
       id="path4265"
       inkscape:connector-curvature="0"
       transform="translate(6.6785384,8.2309033)" />
    <path
       style="fill:none;stroke:#000000;stroke-width:1.3394326px;stroke-linecap:butt;stroke-linejoin:miter;stroke-opacity:1"
       d="m 285.51432,153.45896 0,102.34321"
       id="path4265-1"
       inkscape:connector-curvature="0" />
    <path
       style="fill:none;stroke:#0000ff;stroke-width:0.94914198;stroke-linecap:butt;stroke-linejoin:miter;stroke-miterlimit:4;stroke-opacity:1;stroke-dasharray:2.84742594, 0.94914198;stroke-dashoffset:0;marker-end:url(#DotMY)"
       d="m 131.23932,86.893884 59.56918,0"
       id="path3061"
       inkscape:connector-curvature="0" />
    <path
       style="fill:none;stroke:#0000ff;stroke-width:0.94914198;stroke-linecap:butt;stroke-linejoin:miter;stroke-miterlimit:4;stroke-opacity:1;stroke-dasharray:2.84742594, 0.94914198;stroke-dashoffset:0;marker-end:url(#DotMY)"
       d="m 249.6244,103.33421 -59.56918,0"
       id="path3061-6"
       inkscape:connector-curvature="0" />
    <path
       style="fill:none;stroke:#0000ff;stroke-width:0.94914198;stroke-linecap:butt;stroke-linejoin:miter;stroke-miterlimit:4;stroke-opacity:1;stroke-dasharray:2.84742594, 0.94914198;stroke-dashoffset:0;marker-end:url(#DotMY)"
       d="m 250.43644,45.272994 -59.56918,0"
       id="path3061-6-2"
       inkscape:connector-curvature="0" />
  </g>
  <rect
     y="3.4704647"
     x="185.51022"
     height="52.481369"
     width="90.81559"
     id="rect4447-1"
     style="opacity:0.3;fill:#ffd5d5;stroke:none" />
  <path
     inkscape:connector-curvature="0"
     id="path4474"
     d="m 184.36932,50.535826 -53.39408,0"
     style="fill:none;stroke:#ff0000;stroke-width:1px;stroke-linecap:butt;stroke-linejoin:miter;stroke-opacity:1;marker-end:url(#Arrow2Lends)" />
  <text
     xml:space="preserve"
     style="font-size:18px;font-style:normal;font-weight:normal;line-height:125%;letter-spacing:0px;word-spacing:0px;fill:#000000;fill-opacity:1;stroke:none;font-family:Sans"
     x="85.946632"
     y="56.468502"
     id="text4899"
     sodipodi:linespacing="125%"><tspan
       sodipodi:role="line"
       id="tspan4901"
       x="85.946632"
       y="56.468502">node</tspan></text>
  <text
     xml:space="preserve"
     style="font-size:18px;font-style:normal;font-weight:normal;line-height:125%;letter-spacing:0px;word-spacing:0px;fill:#000000;fill-opacity:1;stroke:none;font-family:Sans"
     x="213.85814"
     y="35.363525"
     id="text4899-4"
     sodipodi:linespacing="125%"><tspan
       sodipodi:role="line"
       id="tspan4901-0"
       x="213.85814"
       y="35.363525">node</tspan></text>
  <text
     xml:space="preserve"
     style="font-size:18px;font-style:normal;font-weight:normal;line-height:125%;letter-spacing:0px;word-spacing:0px;fill:#000000;fill-opacity:1;stroke:none;font-family:Sans"
     x="253.56143"
     y="111.11924"
     id="text4899-9"
     sodipodi:linespacing="125%"><tspan
       sodipodi:role="line"
       id="tspan4901-4"
       x="253.56143"
       y="111.11924">node</tspan></text>
  <path
     inkscape:connector-curvature="0"
     id="path4474-2"
     d="m 184.51832,105.71266 53.39408,0"
     style="fill:none;stroke:#ff0000;stroke-width:1px;stroke-linecap:butt;stroke-linejoin:miter;stroke-opacity:1;marker-end:url(#Arrow2Lends)" />
  <path
     inkscape:connector-curvature="0"
     id="path4474-2-5"
     d="m 184.32272,30.413899 25.99166,0"
     style="fill:none;stroke:#ff0000;stroke-width:0.70948905px;stroke-linecap:butt;stroke-linejoin:miter;stroke-opacity:1;marker-end:url(#Arrow2Lends)" />
  <text
     xml:space="preserve"
     style="font-size:18px;font-style:normal;font-weight:normal;line-height:125%;letter-spacing:0px;word-spacing:0px;fill:#ff0000;fill-opacity:1;stroke:none;font-family:Sans"
     x="151.51143"
     y="65.139343"
     id="text4981"
     sodipodi:linespacing="125%"><tspan
       sodipodi:role="line"
       id="tspan4983"
       x="151.51143"
       y="65.139343">1</tspan></text>
  <text
     xml:space="preserve"
     style="font-size:18px;font-style:normal;font-weight:normal;line-height:125%;letter-spacing:0px;word-spacing:0px;fill:#ff0000;fill-opacity:1;stroke:none;font-family:Sans"
     x="205.59247"
     y="121.29099"
     id="text4981-1"
     sodipodi:linespacing="125%"><tspan
       sodipodi:role="line"
       id="tspan4983-7"
       x="205.59247"
       y="121.29099">3</tspan></text>
  <text
     xml:space="preserve"
     style="font-size:18px;font-style:normal;font-weight:normal;line-height:125%;letter-spacing:0px;word-spacing:0px;fill:#ff0000;fill-opacity:1;stroke:none;font-family:Sans"
     x="189.17323"
     y="25.713314"
     id="text4981-11"
     sodipodi:linespacing="125%"><tspan
       sodipodi:role="line"
       id="tspan4983-5"
       x="189.17323"
       y="25.713314">5</tspan></text>
  <text
     xml:space="preserve"
     style="font-size:18px;font-style:normal;font-weight:normal;line-height:125%;letter-spacing:0px;word-spacing:0px;fill:#0000ff;fill-opacity:1;stroke:none;font-family:Sans"
     x="143.32594"
     y="95.666504"
     id="text5087"
     sodipodi:linespacing="125%"><tspan
       sodipodi:role="line"
       id="tspan5089"
       x="143.32594"
       y="95.666504">2</tspan></text>
  <text
     xml:space="preserve"
     style="font-size:18px;font-style:normal;font-weight:normal;line-height:125%;letter-spacing:0px;word-spacing:0px;fill:#0000ff;fill-opacity:1;stroke:none;font-family:Sans"
     x="209.99146"
     y="52.194492"
     id="text5087-3"
     sodipodi:linespacing="125%"><tspan
       sodipodi:role="line"
       id="tspan5089-2"
       x="209.99146"
       y="52.194492">6</tspan></text>
  <text
     xml:space="preserve"
     style="font-size:18px;font-style:normal;font-weight:normal;line-height:125%;letter-spacing:0px;word-spacing:0px;fill:#0000ff;fill-opacity:1;stroke:none;font-family:Sans"
     x="207.96135"
     y="93.202766"
     id="text5087-2"
     sodipodi:linespacing="125%"><tspan
       sodipodi:role="line"
       id="tspan5089-1"
       x="207.96135"
       y="93.202766">4</tspan></text>
</svg>
