<?xml version="1.0" encoding="UTF-8" standalone="no"?>
<!DOCTYPE svg PUBLIC "-//W3C//DTD SVG 1.1//EN"
 "http://www.w3.org/Graphics/SVG/1.1/DTD/svg11.dtd">
<!-- Generated by graphviz version 14.1.4 (20260321.0153)
 -->
<!-- Title: ImFusion::Utils::detail::conjunction&lt; B &gt; Pages: 1 -->
<svg width="137pt" height="94pt"
 viewBox="0.00 0.00 137.00 94.00" xmlns="http://www.w3.org/2000/svg" xmlns:xlink="http://www.w3.org/1999/xlink">
<g id="graph0" class="graph" transform="scale(1 1) rotate(0) translate(4 89.75)">
<title>ImFusion::Utils::detail::conjunction&lt; B &gt;</title>
<!-- Node1 -->
<g id="Node000001" class="node">
<title>Node1</title>
<g id="a_Node000001"><a xlink:title=" ">
<polygon fill="#999999" stroke="#666666" points="129,-30.5 17,-30.5 17,0 129,0 129,-30.5"/>
<text xml:space="preserve" text-anchor="start" x="25" y="-17" font-family="Helvetica,sans-Serif" font-size="10.00">ImFusion::Utils::detail</text>
<text xml:space="preserve" text-anchor="middle" x="73" y="-5.75" font-family="Helvetica,sans-Serif" font-size="10.00">::conjunction&lt; B &gt;</text>
</a>
</g>
</g>
<!-- Node2 -->
<g id="Node000002" class="node">
<title>Node2</title>
<g id="a_Node000002"><a target="_parent" xlink:href="http://en.cppreference.com/w/cpp/types/integral_constant.html" xlink:title=" ">
<polygon fill="white" stroke="#bfbfbf" points="76,-85.75 0,-85.75 0,-66.5 76,-66.5 76,-85.75"/>
<text xml:space="preserve" text-anchor="middle" x="38" y="-72.25" font-family="Helvetica,sans-Serif" font-size="10.00">std::true_type</text>
</a>
</g>
</g>
<!-- Node2&#45;&gt;Node1 -->
<g id="edge1_Node000001_Node000002" class="edge">
<title>Node2&#45;&gt;Node1</title>
<g id="a_edge1_Node000001_Node000002"><a xlink:title=" ">
<path fill="none" stroke="#63b8ff" d="M49.18,-56.32C54.09,-48.05 59.78,-38.49 64.36,-30.78"/>
<polygon fill="#63b8ff" stroke="#63b8ff" points="46.19,-54.5 44.09,-64.88 52.21,-58.07 46.19,-54.5"/>
</a>
</g>
</g>
<!-- Node3 -->
<g id="Node000003" class="node">
<title>Node3</title>
<g id="a_Node000003"><a xlink:title=" ">
<polygon fill="white" stroke="#bfbfbf" points="122.4,-85.75 93.6,-85.75 93.6,-66.5 122.4,-66.5 122.4,-85.75"/>
<text xml:space="preserve" text-anchor="middle" x="108" y="-72.25" font-family="Helvetica,sans-Serif" font-size="10.00">B</text>
</a>
</g>
</g>
<!-- Node3&#45;&gt;Node1 -->
<g id="edge2_Node000001_Node000003" class="edge">
<title>Node3&#45;&gt;Node1</title>
<g id="a_edge2_Node000001_Node000003"><a xlink:title=" ">
<path fill="none" stroke="#63b8ff" d="M96.82,-56.32C91.91,-48.05 86.22,-38.49 81.64,-30.78"/>
<polygon fill="#63b8ff" stroke="#63b8ff" points="93.79,-58.07 101.91,-64.88 99.81,-54.5 93.79,-58.07"/>
</a>
</g>
</g>
</g>
</svg>
