<?xml version="1.0" encoding="UTF-8" standalone="no"?>
<!DOCTYPE svg PUBLIC "-//W3C//DTD SVG 1.1//EN"
 "http://www.w3.org/Graphics/SVG/1.1/DTD/svg11.dtd">
<!-- Generated by graphviz version 14.1.4 (20260321.0153)
 -->
<!-- Title: ImFusion::Utils::detail::expected_delete_assign_base&lt; T, E, EnableCopy, EnableMove &gt; Pages: 1 -->
<svg width="331pt" height="218pt"
 viewBox="0.00 0.00 331.00 218.00" xmlns="http://www.w3.org/2000/svg" xmlns:xlink="http://www.w3.org/1999/xlink">
<g id="graph0" class="graph" transform="scale(1 1) rotate(0) translate(4 213.5)">
<title>ImFusion::Utils::detail::expected_delete_assign_base&lt; T, E, EnableCopy, EnableMove &gt;</title>
<!-- Node1 -->
<g id="Node000001" class="node">
<title>Node1</title>
<g id="a_Node000001"><a xlink:title=" ">
<polygon fill="#999999" stroke="#666666" points="129.25,-133.75 0,-133.75 0,-80.75 129.25,-80.75 129.25,-133.75"/>
<text xml:space="preserve" text-anchor="start" x="8" y="-120.25" font-family="Helvetica,sans-Serif" font-size="10.00">ImFusion::Utils::detail</text>
<text xml:space="preserve" text-anchor="start" x="8" y="-109" font-family="Helvetica,sans-Serif" font-size="10.00">::expected_delete_assign</text>
<text xml:space="preserve" text-anchor="start" x="8" y="-97.75" font-family="Helvetica,sans-Serif" font-size="10.00">_base&lt; T, E, EnableCopy,</text>
<text xml:space="preserve" text-anchor="middle" x="64.62" y="-86.5" font-family="Helvetica,sans-Serif" font-size="10.00"> EnableMove &gt;</text>
</a>
</g>
</g>
<!-- Node2 -->
<g id="Node000002" class="node">
<title>Node2</title>
<g id="a_Node000002"><a xlink:href="class_im_fusion_1_1_utils_1_1_expected.html" target="_top" xlink:title=" ">
<polygon fill="white" stroke="#666666" points="309.12,-209.5 179.12,-209.5 179.12,-179 309.12,-179 309.12,-209.5"/>
<text xml:space="preserve" text-anchor="start" x="187.12" y="-196" font-family="Helvetica,sans-Serif" font-size="10.00">ImFusion::Utils::Expected</text>
<text xml:space="preserve" text-anchor="middle" x="244.12" y="-184.75" font-family="Helvetica,sans-Serif" font-size="10.00">&lt; Ret, err_t&lt; Exp &gt; &gt;</text>
</a>
</g>
</g>
<!-- Node1&#45;&gt;Node2 -->
<g id="edge1_Node000001_Node000002" class="edge">
<title>Node1&#45;&gt;Node2</title>
<g id="a_edge1_Node000001_Node000002"><a xlink:title=" ">
<path fill="none" stroke="#8b1a1a" d="M111.91,-140.1C128.24,-150.71 147.07,-161.88 165.25,-170.25 171.8,-173.27 178.84,-176.03 185.9,-178.53"/>
<polygon fill="#8b1a1a" stroke="#8b1a1a" points="114.14,-137.38 103.87,-134.78 110.28,-143.22 114.14,-137.38"/>
</a>
</g>
</g>
<!-- Node3 -->
<g id="Node000003" class="node">
<title>Node3</title>
<g id="a_Node000003"><a xlink:href="class_im_fusion_1_1_utils_1_1_expected.html" target="_top" xlink:title=" ">
<polygon fill="white" stroke="#666666" points="309.12,-161.12 179.12,-161.12 179.12,-119.38 309.12,-119.38 309.12,-161.12"/>
<text xml:space="preserve" text-anchor="start" x="187.12" y="-147.62" font-family="Helvetica,sans-Serif" font-size="10.00">ImFusion::Utils::Expected</text>
<text xml:space="preserve" text-anchor="start" x="187.12" y="-136.38" font-family="Helvetica,sans-Serif" font-size="10.00">&lt; std::vector&lt; DcmItem</text>
<text xml:space="preserve" text-anchor="middle" x="244.12" y="-125.12" font-family="Helvetica,sans-Serif" font-size="10.00"> &gt;, Network::HttpError &gt;</text>
</a>
</g>
</g>
<!-- Node1&#45;&gt;Node3 -->
<g id="edge2_Node000001_Node000003" class="edge">
<title>Node1&#45;&gt;Node3</title>
<g id="a_edge2_Node000001_Node000003"><a xlink:title=" ">
<path fill="none" stroke="#8b1a1a" d="M140.72,-121.21C153.41,-123.57 166.47,-126 178.84,-128.3"/>
<polygon fill="#8b1a1a" stroke="#8b1a1a" points="141.67,-117.83 131.19,-119.44 140.39,-124.71 141.67,-117.83"/>
</a>
</g>
</g>
<!-- Node4 -->
<g id="Node000004" class="node">
<title>Node4</title>
<g id="a_Node000004"><a xlink:href="class_im_fusion_1_1_utils_1_1_expected.html" target="_top" xlink:title=" ">
<polygon fill="white" stroke="#666666" points="323,-101.75 165.25,-101.75 165.25,-48.75 323,-48.75 323,-101.75"/>
<text xml:space="preserve" text-anchor="start" x="173.25" y="-88.25" font-family="Helvetica,sans-Serif" font-size="10.00">ImFusion::Utils::Expected</text>
<text xml:space="preserve" text-anchor="start" x="173.25" y="-77" font-family="Helvetica,sans-Serif" font-size="10.00">&lt; std::vector&lt; std::shared</text>
<text xml:space="preserve" text-anchor="start" x="173.25" y="-65.75" font-family="Helvetica,sans-Serif" font-size="10.00">_ptr&lt; DcmDataset &gt; &gt;, Network</text>
<text xml:space="preserve" text-anchor="middle" x="244.12" y="-54.5" font-family="Helvetica,sans-Serif" font-size="10.00">::HttpError &gt;</text>
</a>
</g>
</g>
<!-- Node1&#45;&gt;Node4 -->
<g id="edge3_Node000001_Node000004" class="edge">
<title>Node1&#45;&gt;Node4</title>
<g id="a_edge3_Node000001_Node000004"><a xlink:title=" ">
<path fill="none" stroke="#8b1a1a" d="M140.83,-93.69C148.8,-92.26 156.91,-90.79 164.9,-89.35"/>
<polygon fill="#8b1a1a" stroke="#8b1a1a" points="140.42,-90.21 131.2,-95.43 141.66,-97.1 140.42,-90.21"/>
</a>
</g>
</g>
<!-- Node5 -->
<g id="Node000005" class="node">
<title>Node5</title>
<g id="a_Node000005"><a xlink:href="class_im_fusion_1_1_utils_1_1_expected.html" target="_top" xlink:title="An Expected&lt;T, E&gt; object is an object that contains the storage for another object and manages the li...">
<polygon fill="white" stroke="#666666" points="309.12,-30.5 179.12,-30.5 179.12,0 309.12,0 309.12,-30.5"/>
<text xml:space="preserve" text-anchor="start" x="187.12" y="-17" font-family="Helvetica,sans-Serif" font-size="10.00">ImFusion::Utils::Expected</text>
<text xml:space="preserve" text-anchor="middle" x="244.12" y="-5.75" font-family="Helvetica,sans-Serif" font-size="10.00">&lt; T, E &gt;</text>
</a>
</g>
</g>
<!-- Node1&#45;&gt;Node5 -->
<g id="edge4_Node000001_Node000005" class="edge">
<title>Node1&#45;&gt;Node5</title>
<g id="a_edge4_Node000001_Node000005"><a xlink:title=" ">
<path fill="none" stroke="#8b1a1a" d="M109.17,-74.07C126.05,-62.27 145.94,-49.61 165.25,-40.25 172.28,-36.84 179.88,-33.75 187.49,-30.98"/>
<polygon fill="#8b1a1a" stroke="#8b1a1a" points="107.48,-70.98 101.36,-79.64 111.54,-76.69 107.48,-70.98"/>
</a>
</g>
</g>
</g>
</svg>
