<?xml version="1.0" encoding="UTF-8" standalone="no"?>
<!DOCTYPE svg PUBLIC "-//W3C//DTD SVG 1.1//EN"
 "http://www.w3.org/Graphics/SVG/1.1/DTD/svg11.dtd">
<!-- Generated by graphviz version 14.1.4 (20260321.0153)
 -->
<!-- Title: ImFusion::Utils::detail::conjunction&lt; B, Bs... &gt; Pages: 1 -->
<svg width="216pt" height="116pt"
 viewBox="0.00 0.00 216.00 116.00" xmlns="http://www.w3.org/2000/svg" xmlns:xlink="http://www.w3.org/1999/xlink">
<g id="graph0" class="graph" transform="scale(1 1) rotate(0) translate(4 112.25)">
<title>ImFusion::Utils::detail::conjunction&lt; B, Bs... &gt;</title>
<!-- Node1 -->
<g id="Node000001" class="node">
<title>Node1</title>
<g id="a_Node000001"><a xlink:title=" ">
<polygon fill="#999999" stroke="#666666" points="155.62,-30.5 32.38,-30.5 32.38,0 155.62,0 155.62,-30.5"/>
<text xml:space="preserve" text-anchor="start" x="40.38" y="-17" font-family="Helvetica,sans-Serif" font-size="10.00">ImFusion::Utils::detail</text>
<text xml:space="preserve" text-anchor="middle" x="94" y="-5.75" font-family="Helvetica,sans-Serif" font-size="10.00">::conjunction&lt; B, Bs... &gt;</text>
</a>
</g>
</g>
<!-- Node2 -->
<g id="Node000002" class="node">
<title>Node2</title>
<g id="a_Node000002"><a target="_parent" xlink:href="http://en.cppreference.com/w/cpp/types/integral_constant.html" xlink:title=" ">
<polygon fill="white" stroke="#bfbfbf" points="76,-97 0,-97 0,-77.75 76,-77.75 76,-97"/>
<text xml:space="preserve" text-anchor="middle" x="38" y="-83.5" font-family="Helvetica,sans-Serif" font-size="10.00">std::true_type</text>
</a>
</g>
</g>
<!-- Node2&#45;&gt;Node1 -->
<g id="edge1_Node000001_Node000002" class="edge">
<title>Node2&#45;&gt;Node1</title>
<g id="a_edge1_Node000001_Node000002"><a xlink:title=" ">
<path fill="none" stroke="#63b8ff" d="M52.14,-68.67C61.46,-57 73.51,-41.91 82.29,-30.92"/>
<polygon fill="#63b8ff" stroke="#63b8ff" points="49.54,-66.31 46.04,-76.31 55.01,-70.68 49.54,-66.31"/>
</a>
</g>
</g>
<!-- Node3 -->
<g id="Node000003" class="node">
<title>Node3</title>
<g id="a_Node000003"><a xlink:title=" ">
<polygon fill="white" stroke="#bfbfbf" points="207.75,-108.25 94.25,-108.25 94.25,-66.5 207.75,-66.5 207.75,-108.25"/>
<text xml:space="preserve" text-anchor="start" x="102.25" y="-94.75" font-family="Helvetica,sans-Serif" font-size="10.00">std::conditional&lt; bool</text>
<text xml:space="preserve" text-anchor="start" x="102.25" y="-83.5" font-family="Helvetica,sans-Serif" font-size="10.00">(B::value), conjunction</text>
<text xml:space="preserve" text-anchor="middle" x="151" y="-72.25" font-family="Helvetica,sans-Serif" font-size="10.00">&lt; Bs... &gt;, B &gt;::type</text>
</a>
</g>
</g>
<!-- Node3&#45;&gt;Node1 -->
<g id="edge2_Node000001_Node000003" class="edge">
<title>Node3&#45;&gt;Node1</title>
<g id="a_edge2_Node000001_Node000003"><a xlink:title=" ">
<path fill="none" stroke="#63b8ff" d="M127.3,-57.22C119.86,-48.07 111.98,-38.37 105.75,-30.7"/>
<polygon fill="#63b8ff" stroke="#63b8ff" points="124.54,-59.37 133.56,-64.92 129.97,-54.95 124.54,-59.37"/>
</a>
</g>
</g>
</g>
</svg>
