<?xml version="1.0" encoding="UTF-8" standalone="no"?>
<!DOCTYPE svg PUBLIC "-//W3C//DTD SVG 1.1//EN"
 "http://www.w3.org/Graphics/SVG/1.1/DTD/svg11.dtd">
<!-- Generated by graphviz version 14.1.4 (20260321.0153)
 -->
<!-- Title: ImFusion::Utils::detail::expected_move_base&lt; T, E, bool &gt; Pages: 1 -->
<svg width="1109pt" height="256pt"
 viewBox="0.00 0.00 1109.00 256.00" xmlns="http://www.w3.org/2000/svg" xmlns:xlink="http://www.w3.org/1999/xlink">
<g id="graph0" class="graph" transform="scale(1 1) rotate(0) translate(4 252.12)">
<title>ImFusion::Utils::detail::expected_move_base&lt; T, E, bool &gt;</title>
<!-- Node1 -->
<g id="Node000001" class="node">
<title>Node1</title>
<g id="a_Node000001"><a xlink:title=" ">
<polygon fill="#999999" stroke="#666666" points="589,-248.12 465.75,-248.12 465.75,-206.38 589,-206.38 589,-248.12"/>
<text xml:space="preserve" text-anchor="start" x="473.75" y="-234.62" font-family="Helvetica,sans-Serif" font-size="10.00">ImFusion::Utils::detail</text>
<text xml:space="preserve" text-anchor="start" x="473.75" y="-223.38" font-family="Helvetica,sans-Serif" font-size="10.00">::expected_move_base&lt;</text>
<text xml:space="preserve" text-anchor="middle" x="527.38" y="-212.12" font-family="Helvetica,sans-Serif" font-size="10.00"> T, E, bool &gt;</text>
</a>
</g>
</g>
<!-- Node5 -->
<g id="Node000005" class="node">
<title>Node5</title>
<g id="a_Node000005"><a xlink:href="struct_im_fusion_1_1_utils_1_1detail_1_1expected__copy__assign__base_3_01_t_00_01_e_00_01false_01_4.html" target="_top" xlink:title=" ">
<polygon fill="white" stroke="#bfbfbf" points="746.75,-248.12 625,-248.12 625,-206.38 746.75,-206.38 746.75,-248.12"/>
<text xml:space="preserve" text-anchor="start" x="633" y="-234.62" font-family="Helvetica,sans-Serif" font-size="10.00">ImFusion::Utils::detail</text>
<text xml:space="preserve" text-anchor="start" x="633" y="-223.38" font-family="Helvetica,sans-Serif" font-size="10.00">::expected_copy_assign</text>
<text xml:space="preserve" text-anchor="middle" x="685.88" y="-212.12" font-family="Helvetica,sans-Serif" font-size="10.00">_base&lt; T, E, false &gt;</text>
</a>
</g>
</g>
<!-- Node1&#45;&gt;Node5 -->
<g id="edge4_Node000001_Node000005" class="edge">
<title>Node1&#45;&gt;Node5</title>
<g id="a_edge4_Node000001_Node000005"><a xlink:title=" ">
<path fill="none" stroke="#63b8ff" d="M600.59,-220.52C608.62,-220.47 616.74,-220.52 624.6,-220.66"/>
<polygon fill="#63b8ff" stroke="#63b8ff" points="600.8,-217.02 590.84,-220.63 600.88,-224.01 600.8,-217.02"/>
</a>
</g>
</g>
<!-- Node1&#45;&gt;Node5 -->
<g id="edge13_Node000001_Node000005" class="edge">
<title>Node1&#45;&gt;Node5</title>
<g id="a_edge13_Node000001_Node000005"><a xlink:title=" ">
<path fill="none" stroke="#63b8ff" d="M600.59,-233.98C608.62,-234.03 616.74,-233.98 624.6,-233.84"/>
<polygon fill="#63b8ff" stroke="#63b8ff" points="600.88,-230.49 590.84,-233.87 600.8,-237.48 600.88,-230.49"/>
</a>
</g>
</g>
<!-- Node6 -->
<g id="Node000006" class="node">
<title>Node6</title>
<g id="a_Node000006"><a xlink:href="struct_im_fusion_1_1_utils_1_1detail_1_1expected__copy__assign__base.html" target="_top" xlink:title=" ">
<polygon fill="white" stroke="#bfbfbf" points="746.75,-188.12 625,-188.12 625,-146.38 746.75,-146.38 746.75,-188.12"/>
<text xml:space="preserve" text-anchor="start" x="633" y="-174.62" font-family="Helvetica,sans-Serif" font-size="10.00">ImFusion::Utils::detail</text>
<text xml:space="preserve" text-anchor="start" x="633" y="-163.38" font-family="Helvetica,sans-Serif" font-size="10.00">::expected_copy_assign</text>
<text xml:space="preserve" text-anchor="middle" x="685.88" y="-152.12" font-family="Helvetica,sans-Serif" font-size="10.00">_base&lt; T, E, bool &gt;</text>
</a>
</g>
</g>
<!-- Node1&#45;&gt;Node6 -->
<g id="edge5_Node000001_Node000006" class="edge">
<title>Node1&#45;&gt;Node6</title>
<g id="a_edge5_Node000001_Node000006"><a xlink:title=" ">
<path fill="none" stroke="#63b8ff" d="M594.47,-201.91C606.02,-197.48 617.94,-192.91 629.17,-188.61"/>
<polygon fill="#63b8ff" stroke="#63b8ff" points="593.49,-198.54 585.4,-205.39 596,-205.07 593.49,-198.54"/>
</a>
</g>
</g>
<!-- Node2 -->
<g id="Node000002" class="node">
<title>Node2</title>
<g id="a_Node000002"><a xlink:href="struct_im_fusion_1_1_utils_1_1detail_1_1expected__copy__base.html" target="_top" xlink:title=" ">
<polygon fill="white" stroke="#bfbfbf" points="429.75,-248.12 309.5,-248.12 309.5,-206.38 429.75,-206.38 429.75,-248.12"/>
<text xml:space="preserve" text-anchor="start" x="317.5" y="-234.62" font-family="Helvetica,sans-Serif" font-size="10.00">ImFusion::Utils::detail</text>
<text xml:space="preserve" text-anchor="start" x="317.5" y="-223.38" font-family="Helvetica,sans-Serif" font-size="10.00">::expected_copy_base&lt;</text>
<text xml:space="preserve" text-anchor="middle" x="369.62" y="-212.12" font-family="Helvetica,sans-Serif" font-size="10.00"> T, E, bool &gt;</text>
</a>
</g>
</g>
<!-- Node2&#45;&gt;Node1 -->
<g id="edge1_Node000001_Node000002" class="edge">
<title>Node2&#45;&gt;Node1</title>
<g id="a_edge1_Node000001_Node000002"><a xlink:title=" ">
<path fill="none" stroke="#63b8ff" d="M441.25,-227.25C449.31,-227.25 457.48,-227.25 465.4,-227.25"/>
<polygon fill="#63b8ff" stroke="#63b8ff" points="441.47,-223.75 431.47,-227.25 441.47,-230.75 441.47,-223.75"/>
</a>
</g>
</g>
<!-- Node3 -->
<g id="Node000003" class="node">
<title>Node3</title>
<g id="a_Node000003"><a xlink:href="struct_im_fusion_1_1_utils_1_1detail_1_1expected__operations__base.html" target="_top" xlink:title=" ">
<polygon fill="white" stroke="#bfbfbf" points="273.5,-248.12 161.5,-248.12 161.5,-206.38 273.5,-206.38 273.5,-248.12"/>
<text xml:space="preserve" text-anchor="start" x="169.5" y="-234.62" font-family="Helvetica,sans-Serif" font-size="10.00">ImFusion::Utils::detail</text>
<text xml:space="preserve" text-anchor="start" x="169.5" y="-223.38" font-family="Helvetica,sans-Serif" font-size="10.00">::expected_operations</text>
<text xml:space="preserve" text-anchor="middle" x="217.5" y="-212.12" font-family="Helvetica,sans-Serif" font-size="10.00">_base&lt; T, E &gt;</text>
</a>
</g>
</g>
<!-- Node3&#45;&gt;Node2 -->
<g id="edge2_Node000002_Node000003" class="edge">
<title>Node3&#45;&gt;Node2</title>
<g id="a_edge2_Node000002_Node000003"><a xlink:title=" ">
<path fill="none" stroke="#63b8ff" d="M285.41,-227.25C293.3,-227.25 301.31,-227.25 309.09,-227.25"/>
<polygon fill="#63b8ff" stroke="#63b8ff" points="285.49,-223.75 275.49,-227.25 285.49,-230.75 285.49,-223.75"/>
</a>
</g>
</g>
<!-- Node4 -->
<g id="Node000004" class="node">
<title>Node4</title>
<g id="a_Node000004"><a xlink:href="struct_im_fusion_1_1_utils_1_1detail_1_1expected__storage__base.html" target="_top" xlink:title=" ">
<polygon fill="white" stroke="#bfbfbf" points="125.5,-248.12 0,-248.12 0,-206.38 125.5,-206.38 125.5,-248.12"/>
<text xml:space="preserve" text-anchor="start" x="8" y="-234.62" font-family="Helvetica,sans-Serif" font-size="10.00">ImFusion::Utils::detail</text>
<text xml:space="preserve" text-anchor="start" x="8" y="-223.38" font-family="Helvetica,sans-Serif" font-size="10.00">::expected_storage_base</text>
<text xml:space="preserve" text-anchor="middle" x="62.75" y="-212.12" font-family="Helvetica,sans-Serif" font-size="10.00">&lt; T, E, bool, bool &gt;</text>
</a>
</g>
</g>
<!-- Node4&#45;&gt;Node3 -->
<g id="edge3_Node000003_Node000004" class="edge">
<title>Node4&#45;&gt;Node3</title>
<g id="a_edge3_Node000003_Node000004"><a xlink:title=" ">
<path fill="none" stroke="#63b8ff" d="M137.25,-227.25C145.35,-227.25 153.48,-227.25 161.3,-227.25"/>
<polygon fill="#63b8ff" stroke="#63b8ff" points="137.39,-223.75 127.39,-227.25 137.39,-230.75 137.39,-223.75"/>
</a>
</g>
</g>
<!-- Node7 -->
<g id="Node000007" class="node">
<title>Node7</title>
<g id="a_Node000007"><a xlink:href="struct_im_fusion_1_1_utils_1_1detail_1_1expected__move__assign__base_3_01_t_00_01_e_00_01false_01_4.html" target="_top" xlink:title=" ">
<polygon fill="white" stroke="#bfbfbf" points="907.5,-188.12 782.75,-188.12 782.75,-146.38 907.5,-146.38 907.5,-188.12"/>
<text xml:space="preserve" text-anchor="start" x="790.75" y="-174.62" font-family="Helvetica,sans-Serif" font-size="10.00">ImFusion::Utils::detail</text>
<text xml:space="preserve" text-anchor="start" x="790.75" y="-163.38" font-family="Helvetica,sans-Serif" font-size="10.00">::expected_move_assign</text>
<text xml:space="preserve" text-anchor="middle" x="845.12" y="-152.12" font-family="Helvetica,sans-Serif" font-size="10.00">_base&lt; T, E, false &gt;</text>
</a>
</g>
</g>
<!-- Node6&#45;&gt;Node7 -->
<g id="edge6_Node000006_Node000007" class="edge">
<title>Node6&#45;&gt;Node7</title>
<g id="a_edge6_Node000006_Node000007"><a xlink:title=" ">
<path fill="none" stroke="#63b8ff" d="M758.7,-160.52C766.61,-160.47 774.61,-160.51 782.38,-160.64"/>
<polygon fill="#63b8ff" stroke="#63b8ff" points="758.69,-157.02 748.74,-160.65 758.78,-164.02 758.69,-157.02"/>
</a>
</g>
</g>
<!-- Node6&#45;&gt;Node7 -->
<g id="edge12_Node000006_Node000007" class="edge">
<title>Node6&#45;&gt;Node7</title>
<g id="a_edge12_Node000006_Node000007"><a xlink:title=" ">
<path fill="none" stroke="#63b8ff" d="M758.7,-173.98C766.61,-174.03 774.61,-173.99 782.38,-173.86"/>
<polygon fill="#63b8ff" stroke="#63b8ff" points="758.78,-170.48 748.74,-173.85 758.69,-177.48 758.78,-170.48"/>
</a>
</g>
</g>
<!-- Node8 -->
<g id="Node000008" class="node">
<title>Node8</title>
<g id="a_Node000008"><a xlink:href="struct_im_fusion_1_1_utils_1_1detail_1_1expected__move__assign__base.html" target="_top" xlink:title=" ">
<polygon fill="white" stroke="#bfbfbf" points="907.5,-128.12 782.75,-128.12 782.75,-86.38 907.5,-86.38 907.5,-128.12"/>
<text xml:space="preserve" text-anchor="start" x="790.75" y="-114.62" font-family="Helvetica,sans-Serif" font-size="10.00">ImFusion::Utils::detail</text>
<text xml:space="preserve" text-anchor="start" x="790.75" y="-103.38" font-family="Helvetica,sans-Serif" font-size="10.00">::expected_move_assign</text>
<text xml:space="preserve" text-anchor="middle" x="845.12" y="-92.12" font-family="Helvetica,sans-Serif" font-size="10.00">_base&lt; T, E, bool &gt;</text>
</a>
</g>
</g>
<!-- Node6&#45;&gt;Node8 -->
<g id="edge7_Node000006_Node000008" class="edge">
<title>Node6&#45;&gt;Node8</title>
<g id="a_edge7_Node000006_Node000008"><a xlink:title=" ">
<path fill="none" stroke="#63b8ff" d="M753.29,-141.91C764.89,-137.48 776.87,-132.91 788.16,-128.61"/>
<polygon fill="#63b8ff" stroke="#63b8ff" points="752.27,-138.55 744.17,-145.39 754.76,-145.09 752.27,-138.55"/>
</a>
</g>
</g>
<!-- Node9 -->
<g id="Node000009" class="node">
<title>Node9</title>
<g id="a_Node000009"><a xlink:href="class_im_fusion_1_1_utils_1_1_expected.html" target="_top" xlink:title=" ">
<polygon fill="white" stroke="#666666" points="1087.38,-209.5 957.38,-209.5 957.38,-179 1087.38,-179 1087.38,-209.5"/>
<text xml:space="preserve" text-anchor="start" x="965.38" y="-196" font-family="Helvetica,sans-Serif" font-size="10.00">ImFusion::Utils::Expected</text>
<text xml:space="preserve" text-anchor="middle" x="1022.38" y="-184.75" font-family="Helvetica,sans-Serif" font-size="10.00">&lt; Ret, err_t&lt; Exp &gt; &gt;</text>
</a>
</g>
</g>
<!-- Node8&#45;&gt;Node9 -->
<g id="edge8_Node000008_Node000009" class="edge">
<title>Node8&#45;&gt;Node9</title>
<g id="a_edge8_Node000008_Node000009"><a xlink:title=" ">
<path fill="none" stroke="#8b1a1a" d="M902.73,-134.13C904.36,-135.15 905.95,-136.19 907.5,-137.25 925.43,-149.48 924.67,-159.46 943.5,-170.25 948.9,-173.35 954.75,-176.09 960.72,-178.5"/>
<polygon fill="#8b1a1a" stroke="#8b1a1a" points="904.86,-131.32 894.47,-129.26 901.31,-137.35 904.86,-131.32"/>
</a>
</g>
</g>
<!-- Node10 -->
<g id="Node000010" class="node">
<title>Node10</title>
<g id="a_Node000010"><a xlink:href="class_im_fusion_1_1_utils_1_1_expected.html" target="_top" xlink:title=" ">
<polygon fill="white" stroke="#666666" points="1087.38,-161.12 957.38,-161.12 957.38,-119.38 1087.38,-119.38 1087.38,-161.12"/>
<text xml:space="preserve" text-anchor="start" x="965.38" y="-147.62" font-family="Helvetica,sans-Serif" font-size="10.00">ImFusion::Utils::Expected</text>
<text xml:space="preserve" text-anchor="start" x="965.38" y="-136.38" font-family="Helvetica,sans-Serif" font-size="10.00">&lt; std::vector&lt; DcmItem</text>
<text xml:space="preserve" text-anchor="middle" x="1022.38" y="-125.12" font-family="Helvetica,sans-Serif" font-size="10.00"> &gt;, Network::HttpError &gt;</text>
</a>
</g>
</g>
<!-- Node8&#45;&gt;Node10 -->
<g id="edge9_Node000008_Node000010" class="edge">
<title>Node8&#45;&gt;Node10</title>
<g id="a_edge9_Node000008_Node000010"><a xlink:title=" ">
<path fill="none" stroke="#8b1a1a" d="M918.86,-120.95C931.47,-123.32 944.51,-125.78 956.88,-128.11"/>
<polygon fill="#8b1a1a" stroke="#8b1a1a" points="919.87,-117.58 909.4,-119.16 918.58,-124.45 919.87,-117.58"/>
</a>
</g>
</g>
<!-- Node11 -->
<g id="Node000011" class="node">
<title>Node11</title>
<g id="a_Node000011"><a xlink:href="class_im_fusion_1_1_utils_1_1_expected.html" target="_top" xlink:title=" ">
<polygon fill="white" stroke="#666666" points="1101.25,-101.75 943.5,-101.75 943.5,-48.75 1101.25,-48.75 1101.25,-101.75"/>
<text xml:space="preserve" text-anchor="start" x="951.5" y="-88.25" font-family="Helvetica,sans-Serif" font-size="10.00">ImFusion::Utils::Expected</text>
<text xml:space="preserve" text-anchor="start" x="951.5" y="-77" font-family="Helvetica,sans-Serif" font-size="10.00">&lt; std::vector&lt; std::shared</text>
<text xml:space="preserve" text-anchor="start" x="951.5" y="-65.75" font-family="Helvetica,sans-Serif" font-size="10.00">_ptr&lt; DcmDataset &gt; &gt;, Network</text>
<text xml:space="preserve" text-anchor="middle" x="1022.38" y="-54.5" font-family="Helvetica,sans-Serif" font-size="10.00">::HttpError &gt;</text>
</a>
</g>
</g>
<!-- Node8&#45;&gt;Node11 -->
<g id="edge10_Node000008_Node000011" class="edge">
<title>Node8&#45;&gt;Node11</title>
<g id="a_edge10_Node000008_Node000011"><a xlink:title=" ">
<path fill="none" stroke="#8b1a1a" d="M919.07,-93.93C927.05,-92.47 935.21,-90.98 943.26,-89.51"/>
<polygon fill="#8b1a1a" stroke="#8b1a1a" points="918.61,-90.46 909.4,-95.7 919.87,-97.34 918.61,-90.46"/>
</a>
</g>
</g>
<!-- Node12 -->
<g id="Node000012" class="node">
<title>Node12</title>
<g id="a_Node000012"><a xlink:href="class_im_fusion_1_1_utils_1_1_expected.html" target="_top" xlink:title="An Expected&lt;T, E&gt; object is an object that contains the storage for another object and manages the li...">
<polygon fill="white" stroke="#666666" points="1087.38,-30.5 957.38,-30.5 957.38,0 1087.38,0 1087.38,-30.5"/>
<text xml:space="preserve" text-anchor="start" x="965.38" y="-17" font-family="Helvetica,sans-Serif" font-size="10.00">ImFusion::Utils::Expected</text>
<text xml:space="preserve" text-anchor="middle" x="1022.38" y="-5.75" font-family="Helvetica,sans-Serif" font-size="10.00">&lt; T, E &gt;</text>
</a>
</g>
</g>
<!-- Node8&#45;&gt;Node12 -->
<g id="edge11_Node000008_Node000012" class="edge">
<title>Node8&#45;&gt;Node12</title>
<g id="a_edge11_Node000008_Node000012"><a xlink:title=" ">
<path fill="none" stroke="#8b1a1a" d="M880.51,-79.28C898.45,-65.75 921.25,-50.11 943.5,-39.25 949.73,-36.21 956.43,-33.45 963.19,-30.98"/>
<polygon fill="#8b1a1a" stroke="#8b1a1a" points="878.6,-76.34 872.8,-85.21 882.87,-81.89 878.6,-76.34"/>
</a>
</g>
</g>
</g>
</svg>
