<?xml version="1.0" encoding="UTF-8" standalone="no"?>
<!DOCTYPE svg PUBLIC "-//W3C//DTD SVG 1.1//EN"
 "http://www.w3.org/Graphics/SVG/1.1/DTD/svg11.dtd">
<!-- Generated by graphviz version 14.1.4 (20260321.0153)
 -->
<!-- Title: ImFusion::Utils::detail::expected_move_assign_base&lt; T, E, bool &gt; Pages: 1 -->
<svg width="1109pt" height="218pt"
 viewBox="0.00 0.00 1109.00 218.00" xmlns="http://www.w3.org/2000/svg" xmlns:xlink="http://www.w3.org/1999/xlink">
<g id="graph0" class="graph" transform="scale(1 1) rotate(0) translate(4 213.5)">
<title>ImFusion::Utils::detail::expected_move_assign_base&lt; T, E, bool &gt;</title>
<!-- Node1 -->
<g id="Node000001" class="node">
<title>Node1</title>
<g id="a_Node000001"><a xlink:title=" ">
<polygon fill="#999999" stroke="#666666" points="907.5,-128.12 782.75,-128.12 782.75,-86.38 907.5,-86.38 907.5,-128.12"/>
<text xml:space="preserve" text-anchor="start" x="790.75" y="-114.62" font-family="Helvetica,sans-Serif" font-size="10.00">ImFusion::Utils::detail</text>
<text xml:space="preserve" text-anchor="start" x="790.75" y="-103.38" font-family="Helvetica,sans-Serif" font-size="10.00">::expected_move_assign</text>
<text xml:space="preserve" text-anchor="middle" x="845.12" y="-92.12" font-family="Helvetica,sans-Serif" font-size="10.00">_base&lt; T, E, bool &gt;</text>
</a>
</g>
</g>
<!-- Node7 -->
<g id="Node000007" class="node">
<title>Node7</title>
<g id="a_Node000007"><a xlink:href="class_im_fusion_1_1_utils_1_1_expected.html" target="_top" xlink:title=" ">
<polygon fill="white" stroke="#666666" points="1087.38,-209.5 957.38,-209.5 957.38,-179 1087.38,-179 1087.38,-209.5"/>
<text xml:space="preserve" text-anchor="start" x="965.38" y="-196" font-family="Helvetica,sans-Serif" font-size="10.00">ImFusion::Utils::Expected</text>
<text xml:space="preserve" text-anchor="middle" x="1022.38" y="-184.75" font-family="Helvetica,sans-Serif" font-size="10.00">&lt; Ret, err_t&lt; Exp &gt; &gt;</text>
</a>
</g>
</g>
<!-- Node1&#45;&gt;Node7 -->
<g id="edge6_Node000001_Node000007" class="edge">
<title>Node1&#45;&gt;Node7</title>
<g id="a_edge6_Node000001_Node000007"><a xlink:title=" ">
<path fill="none" stroke="#8b1a1a" d="M883.61,-134.97C901.15,-147.01 922.72,-160.55 943.5,-170.25 950.04,-173.3 957.06,-176.09 964.12,-178.6"/>
<polygon fill="#8b1a1a" stroke="#8b1a1a" points="885.75,-132.2 875.55,-129.33 881.74,-137.93 885.75,-132.2"/>
</a>
</g>
</g>
<!-- Node8 -->
<g id="Node000008" class="node">
<title>Node8</title>
<g id="a_Node000008"><a xlink:href="class_im_fusion_1_1_utils_1_1_expected.html" target="_top" xlink:title=" ">
<polygon fill="white" stroke="#666666" points="1087.38,-161.12 957.38,-161.12 957.38,-119.38 1087.38,-119.38 1087.38,-161.12"/>
<text xml:space="preserve" text-anchor="start" x="965.38" y="-147.62" font-family="Helvetica,sans-Serif" font-size="10.00">ImFusion::Utils::Expected</text>
<text xml:space="preserve" text-anchor="start" x="965.38" y="-136.38" font-family="Helvetica,sans-Serif" font-size="10.00">&lt; std::vector&lt; DcmItem</text>
<text xml:space="preserve" text-anchor="middle" x="1022.38" y="-125.12" font-family="Helvetica,sans-Serif" font-size="10.00"> &gt;, Network::HttpError &gt;</text>
</a>
</g>
</g>
<!-- Node1&#45;&gt;Node8 -->
<g id="edge7_Node000001_Node000008" class="edge">
<title>Node1&#45;&gt;Node8</title>
<g id="a_edge7_Node000001_Node000008"><a xlink:title=" ">
<path fill="none" stroke="#8b1a1a" d="M918.86,-120.95C931.47,-123.32 944.51,-125.78 956.88,-128.11"/>
<polygon fill="#8b1a1a" stroke="#8b1a1a" points="919.87,-117.58 909.4,-119.16 918.58,-124.45 919.87,-117.58"/>
</a>
</g>
</g>
<!-- Node9 -->
<g id="Node000009" class="node">
<title>Node9</title>
<g id="a_Node000009"><a xlink:href="class_im_fusion_1_1_utils_1_1_expected.html" target="_top" xlink:title=" ">
<polygon fill="white" stroke="#666666" points="1101.25,-101.75 943.5,-101.75 943.5,-48.75 1101.25,-48.75 1101.25,-101.75"/>
<text xml:space="preserve" text-anchor="start" x="951.5" y="-88.25" font-family="Helvetica,sans-Serif" font-size="10.00">ImFusion::Utils::Expected</text>
<text xml:space="preserve" text-anchor="start" x="951.5" y="-77" font-family="Helvetica,sans-Serif" font-size="10.00">&lt; std::vector&lt; std::shared</text>
<text xml:space="preserve" text-anchor="start" x="951.5" y="-65.75" font-family="Helvetica,sans-Serif" font-size="10.00">_ptr&lt; DcmDataset &gt; &gt;, Network</text>
<text xml:space="preserve" text-anchor="middle" x="1022.38" y="-54.5" font-family="Helvetica,sans-Serif" font-size="10.00">::HttpError &gt;</text>
</a>
</g>
</g>
<!-- Node1&#45;&gt;Node9 -->
<g id="edge8_Node000001_Node000009" class="edge">
<title>Node1&#45;&gt;Node9</title>
<g id="a_edge8_Node000001_Node000009"><a xlink:title=" ">
<path fill="none" stroke="#8b1a1a" d="M919.07,-93.93C927.05,-92.47 935.21,-90.98 943.26,-89.51"/>
<polygon fill="#8b1a1a" stroke="#8b1a1a" points="918.61,-90.46 909.4,-95.7 919.87,-97.34 918.61,-90.46"/>
</a>
</g>
</g>
<!-- Node10 -->
<g id="Node000010" class="node">
<title>Node10</title>
<g id="a_Node000010"><a xlink:href="class_im_fusion_1_1_utils_1_1_expected.html" target="_top" xlink:title="An Expected&lt;T, E&gt; object is an object that contains the storage for another object and manages the li...">
<polygon fill="white" stroke="#666666" points="1087.38,-30.5 957.38,-30.5 957.38,0 1087.38,0 1087.38,-30.5"/>
<text xml:space="preserve" text-anchor="start" x="965.38" y="-17" font-family="Helvetica,sans-Serif" font-size="10.00">ImFusion::Utils::Expected</text>
<text xml:space="preserve" text-anchor="middle" x="1022.38" y="-5.75" font-family="Helvetica,sans-Serif" font-size="10.00">&lt; T, E &gt;</text>
</a>
</g>
</g>
<!-- Node1&#45;&gt;Node10 -->
<g id="edge9_Node000001_Node000010" class="edge">
<title>Node1&#45;&gt;Node10</title>
<g id="a_edge9_Node000001_Node000010"><a xlink:title=" ">
<path fill="none" stroke="#8b1a1a" d="M880.51,-79.28C898.45,-65.75 921.25,-50.11 943.5,-39.25 949.73,-36.21 956.43,-33.45 963.19,-30.98"/>
<polygon fill="#8b1a1a" stroke="#8b1a1a" points="878.6,-76.34 872.8,-85.21 882.87,-81.89 878.6,-76.34"/>
</a>
</g>
</g>
<!-- Node2 -->
<g id="Node000002" class="node">
<title>Node2</title>
<g id="a_Node000002"><a xlink:href="struct_im_fusion_1_1_utils_1_1detail_1_1expected__copy__assign__base.html" target="_top" xlink:title=" ">
<polygon fill="white" stroke="#bfbfbf" points="746.75,-128.12 625,-128.12 625,-86.38 746.75,-86.38 746.75,-128.12"/>
<text xml:space="preserve" text-anchor="start" x="633" y="-114.62" font-family="Helvetica,sans-Serif" font-size="10.00">ImFusion::Utils::detail</text>
<text xml:space="preserve" text-anchor="start" x="633" y="-103.38" font-family="Helvetica,sans-Serif" font-size="10.00">::expected_copy_assign</text>
<text xml:space="preserve" text-anchor="middle" x="685.88" y="-92.12" font-family="Helvetica,sans-Serif" font-size="10.00">_base&lt; T, E, bool &gt;</text>
</a>
</g>
</g>
<!-- Node2&#45;&gt;Node1 -->
<g id="edge1_Node000001_Node000002" class="edge">
<title>Node2&#45;&gt;Node1</title>
<g id="a_edge1_Node000001_Node000002"><a xlink:title=" ">
<path fill="none" stroke="#63b8ff" d="M758.7,-107.25C766.61,-107.25 774.61,-107.25 782.38,-107.25"/>
<polygon fill="#63b8ff" stroke="#63b8ff" points="758.74,-103.75 748.74,-107.25 758.74,-110.75 758.74,-103.75"/>
</a>
</g>
</g>
<!-- Node3 -->
<g id="Node000003" class="node">
<title>Node3</title>
<g id="a_Node000003"><a xlink:href="struct_im_fusion_1_1_utils_1_1detail_1_1expected__move__base.html" target="_top" xlink:title=" ">
<polygon fill="white" stroke="#bfbfbf" points="589,-128.12 465.75,-128.12 465.75,-86.38 589,-86.38 589,-128.12"/>
<text xml:space="preserve" text-anchor="start" x="473.75" y="-114.62" font-family="Helvetica,sans-Serif" font-size="10.00">ImFusion::Utils::detail</text>
<text xml:space="preserve" text-anchor="start" x="473.75" y="-103.38" font-family="Helvetica,sans-Serif" font-size="10.00">::expected_move_base&lt;</text>
<text xml:space="preserve" text-anchor="middle" x="527.38" y="-92.12" font-family="Helvetica,sans-Serif" font-size="10.00"> T, E, bool &gt;</text>
</a>
</g>
</g>
<!-- Node3&#45;&gt;Node2 -->
<g id="edge2_Node000002_Node000003" class="edge">
<title>Node3&#45;&gt;Node2</title>
<g id="a_edge2_Node000002_Node000003"><a xlink:title=" ">
<path fill="none" stroke="#63b8ff" d="M600.59,-107.25C608.62,-107.25 616.74,-107.25 624.6,-107.25"/>
<polygon fill="#63b8ff" stroke="#63b8ff" points="600.84,-103.75 590.84,-107.25 600.84,-110.75 600.84,-103.75"/>
</a>
</g>
</g>
<!-- Node4 -->
<g id="Node000004" class="node">
<title>Node4</title>
<g id="a_Node000004"><a xlink:href="struct_im_fusion_1_1_utils_1_1detail_1_1expected__copy__base.html" target="_top" xlink:title=" ">
<polygon fill="white" stroke="#bfbfbf" points="429.75,-128.12 309.5,-128.12 309.5,-86.38 429.75,-86.38 429.75,-128.12"/>
<text xml:space="preserve" text-anchor="start" x="317.5" y="-114.62" font-family="Helvetica,sans-Serif" font-size="10.00">ImFusion::Utils::detail</text>
<text xml:space="preserve" text-anchor="start" x="317.5" y="-103.38" font-family="Helvetica,sans-Serif" font-size="10.00">::expected_copy_base&lt;</text>
<text xml:space="preserve" text-anchor="middle" x="369.62" y="-92.12" font-family="Helvetica,sans-Serif" font-size="10.00"> T, E, bool &gt;</text>
</a>
</g>
</g>
<!-- Node4&#45;&gt;Node3 -->
<g id="edge3_Node000003_Node000004" class="edge">
<title>Node4&#45;&gt;Node3</title>
<g id="a_edge3_Node000003_Node000004"><a xlink:title=" ">
<path fill="none" stroke="#63b8ff" d="M441.25,-107.25C449.31,-107.25 457.48,-107.25 465.4,-107.25"/>
<polygon fill="#63b8ff" stroke="#63b8ff" points="441.47,-103.75 431.47,-107.25 441.47,-110.75 441.47,-103.75"/>
</a>
</g>
</g>
<!-- Node5 -->
<g id="Node000005" class="node">
<title>Node5</title>
<g id="a_Node000005"><a xlink:href="struct_im_fusion_1_1_utils_1_1detail_1_1expected__operations__base.html" target="_top" xlink:title=" ">
<polygon fill="white" stroke="#bfbfbf" points="273.5,-128.12 161.5,-128.12 161.5,-86.38 273.5,-86.38 273.5,-128.12"/>
<text xml:space="preserve" text-anchor="start" x="169.5" y="-114.62" font-family="Helvetica,sans-Serif" font-size="10.00">ImFusion::Utils::detail</text>
<text xml:space="preserve" text-anchor="start" x="169.5" y="-103.38" font-family="Helvetica,sans-Serif" font-size="10.00">::expected_operations</text>
<text xml:space="preserve" text-anchor="middle" x="217.5" y="-92.12" font-family="Helvetica,sans-Serif" font-size="10.00">_base&lt; T, E &gt;</text>
</a>
</g>
</g>
<!-- Node5&#45;&gt;Node4 -->
<g id="edge4_Node000004_Node000005" class="edge">
<title>Node5&#45;&gt;Node4</title>
<g id="a_edge4_Node000004_Node000005"><a xlink:title=" ">
<path fill="none" stroke="#63b8ff" d="M285.41,-107.25C293.3,-107.25 301.31,-107.25 309.09,-107.25"/>
<polygon fill="#63b8ff" stroke="#63b8ff" points="285.49,-103.75 275.49,-107.25 285.49,-110.75 285.49,-103.75"/>
</a>
</g>
</g>
<!-- Node6 -->
<g id="Node000006" class="node">
<title>Node6</title>
<g id="a_Node000006"><a xlink:href="struct_im_fusion_1_1_utils_1_1detail_1_1expected__storage__base.html" target="_top" xlink:title=" ">
<polygon fill="white" stroke="#bfbfbf" points="125.5,-128.12 0,-128.12 0,-86.38 125.5,-86.38 125.5,-128.12"/>
<text xml:space="preserve" text-anchor="start" x="8" y="-114.62" font-family="Helvetica,sans-Serif" font-size="10.00">ImFusion::Utils::detail</text>
<text xml:space="preserve" text-anchor="start" x="8" y="-103.38" font-family="Helvetica,sans-Serif" font-size="10.00">::expected_storage_base</text>
<text xml:space="preserve" text-anchor="middle" x="62.75" y="-92.12" font-family="Helvetica,sans-Serif" font-size="10.00">&lt; T, E, bool, bool &gt;</text>
</a>
</g>
</g>
<!-- Node6&#45;&gt;Node5 -->
<g id="edge5_Node000005_Node000006" class="edge">
<title>Node6&#45;&gt;Node5</title>
<g id="a_edge5_Node000005_Node000006"><a xlink:title=" ">
<path fill="none" stroke="#63b8ff" d="M137.25,-107.25C145.35,-107.25 153.48,-107.25 161.3,-107.25"/>
<polygon fill="#63b8ff" stroke="#63b8ff" points="137.39,-103.75 127.39,-107.25 137.39,-110.75 137.39,-103.75"/>
</a>
</g>
</g>
</g>
</svg>
