<?xml version="1.0" encoding="UTF-8" standalone="no"?>
<!DOCTYPE svg PUBLIC "-//W3C//DTD SVG 1.1//EN"
 "http://www.w3.org/Graphics/SVG/1.1/DTD/svg11.dtd">
<!-- Generated by graphviz version 14.1.4 (20260321.0153)
 -->
<!-- Title: ImFusion::Utils::detail::expected_default_ctor_base&lt; T, E, Enable &gt; Pages: 1 -->
<svg width="320pt" height="218pt"
 viewBox="0.00 0.00 320.00 218.00" xmlns="http://www.w3.org/2000/svg" xmlns:xlink="http://www.w3.org/1999/xlink">
<g id="graph0" class="graph" transform="scale(1 1) rotate(0) translate(4 213.5)">
<title>ImFusion::Utils::detail::expected_default_ctor_base&lt; T, E, Enable &gt;</title>
<!-- Node1 -->
<g id="Node000001" class="node">
<title>Node1</title>
<g id="a_Node000001"><a xlink:title=" ">
<polygon fill="#999999" stroke="#666666" points="118,-128.12 0,-128.12 0,-86.38 118,-86.38 118,-128.12"/>
<text xml:space="preserve" text-anchor="start" x="8" y="-114.62" font-family="Helvetica,sans-Serif" font-size="10.00">ImFusion::Utils::detail</text>
<text xml:space="preserve" text-anchor="start" x="8" y="-103.38" font-family="Helvetica,sans-Serif" font-size="10.00">::expected_default_ctor</text>
<text xml:space="preserve" text-anchor="middle" x="59" y="-92.12" font-family="Helvetica,sans-Serif" font-size="10.00">_base&lt; T, E, Enable &gt;</text>
</a>
</g>
</g>
<!-- Node2 -->
<g id="Node000002" class="node">
<title>Node2</title>
<g id="a_Node000002"><a xlink:href="class_im_fusion_1_1_utils_1_1_expected.html" target="_top" xlink:title=" ">
<polygon fill="white" stroke="#666666" points="297.88,-209.5 167.88,-209.5 167.88,-179 297.88,-179 297.88,-209.5"/>
<text xml:space="preserve" text-anchor="start" x="175.88" y="-196" font-family="Helvetica,sans-Serif" font-size="10.00">ImFusion::Utils::Expected</text>
<text xml:space="preserve" text-anchor="middle" x="232.88" y="-184.75" font-family="Helvetica,sans-Serif" font-size="10.00">&lt; Ret, err_t&lt; Exp &gt; &gt;</text>
</a>
</g>
</g>
<!-- Node1&#45;&gt;Node2 -->
<g id="edge1_Node000001_Node000002" class="edge">
<title>Node1&#45;&gt;Node2</title>
<g id="a_edge1_Node000001_Node000002"><a xlink:title=" ">
<path fill="none" stroke="#8b1a1a" d="M96.06,-135.03C112.96,-147.09 133.8,-160.62 154,-170.25 160.39,-173.29 167.25,-176.06 174.16,-178.55"/>
<polygon fill="#8b1a1a" stroke="#8b1a1a" points="98.47,-132.46 88.33,-129.41 94.36,-138.12 98.47,-132.46"/>
</a>
</g>
</g>
<!-- Node3 -->
<g id="Node000003" class="node">
<title>Node3</title>
<g id="a_Node000003"><a xlink:href="class_im_fusion_1_1_utils_1_1_expected.html" target="_top" xlink:title=" ">
<polygon fill="white" stroke="#666666" points="297.88,-161.12 167.88,-161.12 167.88,-119.38 297.88,-119.38 297.88,-161.12"/>
<text xml:space="preserve" text-anchor="start" x="175.88" y="-147.62" font-family="Helvetica,sans-Serif" font-size="10.00">ImFusion::Utils::Expected</text>
<text xml:space="preserve" text-anchor="start" x="175.88" y="-136.38" font-family="Helvetica,sans-Serif" font-size="10.00">&lt; std::vector&lt; DcmItem</text>
<text xml:space="preserve" text-anchor="middle" x="232.88" y="-125.12" font-family="Helvetica,sans-Serif" font-size="10.00"> &gt;, Network::HttpError &gt;</text>
</a>
</g>
</g>
<!-- Node1&#45;&gt;Node3 -->
<g id="edge2_Node000001_Node000003" class="edge">
<title>Node1&#45;&gt;Node3</title>
<g id="a_edge2_Node000001_Node000003"><a xlink:title=" ">
<path fill="none" stroke="#8b1a1a" d="M129.17,-120.53C141.84,-122.96 155.02,-125.49 167.55,-127.9"/>
<polygon fill="#8b1a1a" stroke="#8b1a1a" points="130.16,-117.16 119.68,-118.71 128.84,-124.03 130.16,-117.16"/>
</a>
</g>
</g>
<!-- Node4 -->
<g id="Node000004" class="node">
<title>Node4</title>
<g id="a_Node000004"><a xlink:href="class_im_fusion_1_1_utils_1_1_expected.html" target="_top" xlink:title=" ">
<polygon fill="white" stroke="#666666" points="311.75,-101.75 154,-101.75 154,-48.75 311.75,-48.75 311.75,-101.75"/>
<text xml:space="preserve" text-anchor="start" x="162" y="-88.25" font-family="Helvetica,sans-Serif" font-size="10.00">ImFusion::Utils::Expected</text>
<text xml:space="preserve" text-anchor="start" x="162" y="-77" font-family="Helvetica,sans-Serif" font-size="10.00">&lt; std::vector&lt; std::shared</text>
<text xml:space="preserve" text-anchor="start" x="162" y="-65.75" font-family="Helvetica,sans-Serif" font-size="10.00">_ptr&lt; DcmDataset &gt; &gt;, Network</text>
<text xml:space="preserve" text-anchor="middle" x="232.88" y="-54.5" font-family="Helvetica,sans-Serif" font-size="10.00">::HttpError &gt;</text>
</a>
</g>
</g>
<!-- Node1&#45;&gt;Node4 -->
<g id="edge3_Node000001_Node000004" class="edge">
<title>Node1&#45;&gt;Node4</title>
<g id="a_edge3_Node000001_Node000004"><a xlink:title=" ">
<path fill="none" stroke="#8b1a1a" d="M129.33,-94.34C137.33,-92.85 145.53,-91.33 153.63,-89.82"/>
<polygon fill="#8b1a1a" stroke="#8b1a1a" points="128.87,-90.87 119.68,-96.14 130.15,-97.75 128.87,-90.87"/>
</a>
</g>
</g>
<!-- Node5 -->
<g id="Node000005" class="node">
<title>Node5</title>
<g id="a_Node000005"><a xlink:href="class_im_fusion_1_1_utils_1_1_expected.html" target="_top" xlink:title="An Expected&lt;T, E&gt; object is an object that contains the storage for another object and manages the li...">
<polygon fill="white" stroke="#666666" points="297.88,-30.5 167.88,-30.5 167.88,0 297.88,0 297.88,-30.5"/>
<text xml:space="preserve" text-anchor="start" x="175.88" y="-17" font-family="Helvetica,sans-Serif" font-size="10.00">ImFusion::Utils::Expected</text>
<text xml:space="preserve" text-anchor="middle" x="232.88" y="-5.75" font-family="Helvetica,sans-Serif" font-size="10.00">&lt; T, E &gt;</text>
</a>
</g>
</g>
<!-- Node1&#45;&gt;Node5 -->
<g id="edge4_Node000001_Node000005" class="edge">
<title>Node1&#45;&gt;Node5</title>
<g id="a_edge4_Node000001_Node000005"><a xlink:title=" ">
<path fill="none" stroke="#8b1a1a" d="M94.38,-78.83C111.5,-65.73 132.99,-50.79 154,-40.25 160.85,-36.81 168.28,-33.71 175.74,-30.96"/>
<polygon fill="#8b1a1a" stroke="#8b1a1a" points="92.28,-76.04 86.55,-84.95 96.58,-81.56 92.28,-76.04"/>
</a>
</g>
</g>
</g>
</svg>
