<?xml version="1.0" encoding="UTF-8" standalone="no"?>
<!DOCTYPE svg PUBLIC "-//W3C//DTD SVG 1.1//EN"
 "http://www.w3.org/Graphics/SVG/1.1/DTD/svg11.dtd">
<!-- Generated by graphviz version 14.1.4 (20260321.0153)
 -->
<!-- Title: ImFusion::Utils::OptionalOutputEigenVectorWrapper&lt; InsideScalar, InsideDimension, FillValue &gt; Pages: 1 -->
<!--zoomable 135 -->

<svg id="main" version="1.1" xmlns="http://www.w3.org/2000/svg" xmlns:xlink="http://www.w3.org/1999/xlink" xml:space="preserve" onload="init(evt)">

<style type="text/css"><![CDATA[
.node, .edge {opacity: 0.7;}
.node.selected, .edge.selected {opacity: 1;}
.edge:hover path { stroke: red; }
.edge:hover polygon { stroke: red; fill: red; }
]]></style>

<defs>
  <circle id="rim" cx="0" cy="0" r="7"/>
  <circle id="rim2" cx="0" cy="0" r="3.5"/>
  <g id="zoomPlus">
    <use xlink:href="#rim" fill="#404040"><set attributeName="fill" to="#808080" begin="zoomplus.mouseover" end="zoomplus.mouseout"/></use>
    <path d="M-4,0h8M0,-4v8" fill="none" stroke="white" stroke-width="1.5" pointer-events="none"/>
  </g>
  <g id="zoomMin">
    <use xlink:href="#rim" fill="#404040"><set attributeName="fill" to="#808080" begin="zoomminus.mouseover" end="zoomminus.mouseout"/></use>
    <path d="M-4,0h8" fill="none" stroke="white" stroke-width="1.5" pointer-events="none"/>
  </g>
  <g id="arrowUp" transform="translate(30 24)">
    <use xlink:href="#rim"/>
    <path pointer-events="none" fill="none" stroke="white" stroke-width="1.5" d="M0,-3.0v7 M-2.5,-0.5L0,-3.0L2.5,-0.5"/>
  </g>
  <g id="arrowRight" transform="rotate(90) translate(36 -43)">
    <use xlink:href="#rim"/>
    <path pointer-events="none" fill="none" stroke="white" stroke-width="1.5" d="M0,-3.0v7 M-2.5,-0.5L0,-3.0L2.5,-0.5"/>
  </g>
  <g id="arrowDown" transform="rotate(180) translate(-30 -48)">
    <use xlink:href="#rim"/>
    <path pointer-events="none" fill="none" stroke="white" stroke-width="1.5" d="M0,-3.0v7 M-2.5,-0.5L0,-3.0L2.5,-0.5"/>
  </g>
  <g id="arrowLeft" transform="rotate(270) translate(-36 17)">
    <use xlink:href="#rim"/>
    <path pointer-events="none" fill="none" stroke="white" stroke-width="1.5" d="M0,-3.0v7 M-2.5,-0.5L0,-3.0L2.5,-0.5"/>
  </g>
  <g id="resetDef">
    <use xlink:href="#rim2" fill="#404040"><set attributeName="fill" to="#808080" begin="reset.mouseover" end="reset.mouseout"/></use>
  </g>
</defs>
<script type="application/ecmascript">
var viewWidth = 833;
var viewHeight = 135;
var sectionId = 'dynsection-0';
</script>
<script type="application/ecmascript" xlink:href="svg.min.js"/>
<svg id="graph" class="graph">
<g id="viewport">
<title>ImFusion::Utils::OptionalOutputEigenVectorWrapper&lt; InsideScalar, InsideDimension, FillValue &gt;</title>
<!-- Node1 -->
<g id="Node000001" class="node">
<title>Node1</title>
<g id="a_Node000001"><a xlink:title="Optional output argument.">
<polygon fill="#999999" stroke="#666666" points="825.25,-77.38 665.25,-77.38 665.25,-24.38 825.25,-24.38 825.25,-77.38"/>
<text xml:space="preserve" text-anchor="start" x="673.25" y="-63.88" font-family="Helvetica,sans-Serif" font-size="10.00">ImFusion::Utils::Optional</text>
<text xml:space="preserve" text-anchor="start" x="673.25" y="-52.62" font-family="Helvetica,sans-Serif" font-size="10.00">OutputEigenVectorWrapper</text>
<text xml:space="preserve" text-anchor="start" x="673.25" y="-41.38" font-family="Helvetica,sans-Serif" font-size="10.00">&lt; InsideScalar, InsideDimension,</text>
<text xml:space="preserve" text-anchor="middle" x="745.25" y="-30.12" font-family="Helvetica,sans-Serif" font-size="10.00"> FillValue &gt;</text>
</a>
</g>
</g>
<!-- Node2 -->
<g id="Node000002" class="node">
<title>Node2</title>
<g id="a_Node000002"><a xlink:href="struct_im_fusion_1_1_utils_1_1_eigen_vector_wrapper_impl_1_1_eigen_vector_wrapper_output_base.html" target="_top" xlink:title=" ">
<polygon fill="white" stroke="#bfbfbf" points="629.25,-101.75 400.25,-101.75 400.25,-60 629.25,-60 629.25,-101.75"/>
<text xml:space="preserve" text-anchor="start" x="408.25" y="-88.25" font-family="Helvetica,sans-Serif" font-size="10.00">ImFusion::Utils::EigenVector</text>
<text xml:space="preserve" text-anchor="start" x="408.25" y="-77" font-family="Helvetica,sans-Serif" font-size="10.00">WrapperImpl::EigenVectorWrapper</text>
<text xml:space="preserve" text-anchor="middle" x="514.75" y="-65.75" font-family="Helvetica,sans-Serif" font-size="10.00">OutputBase&lt; InsideScalar, InsideDimension, 1 &gt;</text>
</a>
</g>
</g>
<!-- Node2&#45;&gt;Node1 -->
<g id="edge1_Node000001_Node000002" class="edge">
<title>Node2&#45;&gt;Node1</title>
<g id="a_edge1_Node000001_Node000002"><a xlink:title=" ">
<path fill="none" stroke="#63b8ff" d="M640.86,-64.45C649.06,-63.37 657.17,-62.31 665.04,-61.27"/>
<polygon fill="#63b8ff" stroke="#63b8ff" points="640.63,-60.95 631.17,-65.72 641.54,-67.89 640.63,-60.95"/>
</a>
</g>
</g>
<!-- Node3 -->
<g id="Node000003" class="node">
<title>Node3</title>
<g id="a_Node000003"><a xlink:href="struct_im_fusion_1_1_utils_1_1_eigen_vector_wrapper_impl_1_1_eigen_vector_wrapper_base.html" target="_top" xlink:title=" ">
<polygon fill="white" stroke="#bfbfbf" points="364.25,-107.38 181.75,-107.38 181.75,-54.38 364.25,-54.38 364.25,-107.38"/>
<text xml:space="preserve" text-anchor="start" x="189.75" y="-93.88" font-family="Helvetica,sans-Serif" font-size="10.00">ImFusion::Utils::EigenVector</text>
<text xml:space="preserve" text-anchor="start" x="189.75" y="-82.62" font-family="Helvetica,sans-Serif" font-size="10.00">WrapperImpl::EigenVectorWrapper</text>
<text xml:space="preserve" text-anchor="start" x="189.75" y="-71.38" font-family="Helvetica,sans-Serif" font-size="10.00">Base&lt; InsideScalar, InsideDimension,</text>
<text xml:space="preserve" text-anchor="middle" x="273" y="-60.12" font-family="Helvetica,sans-Serif" font-size="10.00"> FillValue &gt;</text>
</a>
</g>
</g>
<!-- Node3&#45;&gt;Node2 -->
<g id="edge2_Node000002_Node000003" class="edge">
<title>Node3&#45;&gt;Node2</title>
<g id="a_edge2_Node000002_Node000003"><a xlink:title=" ">
<path fill="none" stroke="#63b8ff" d="M376.1,-80.88C383.99,-80.88 391.98,-80.88 399.94,-80.88"/>
<polygon fill="#63b8ff" stroke="#63b8ff" points="376.15,-77.38 366.15,-80.88 376.15,-84.38 376.15,-77.38"/>
</a>
</g>
</g>
<!-- Node4 -->
<g id="Node000004" class="node">
<title>Node4</title>
<g id="a_Node000004"><a target="_parent" xlink:href="http://en.cppreference.com/w/cpp/container/vector.html" xlink:title=" ">
<polygon fill="white" stroke="#666666" points="133.38,-126.75 12.38,-126.75 12.38,-85 133.38,-85 133.38,-126.75"/>
<text xml:space="preserve" text-anchor="start" x="20.38" y="-113.25" font-family="Helvetica,sans-Serif" font-size="10.00">std::vector&lt; Eigen</text>
<text xml:space="preserve" text-anchor="start" x="20.38" y="-102" font-family="Helvetica,sans-Serif" font-size="10.00">::Matrix&lt; InsideScalar,</text>
<text xml:space="preserve" text-anchor="middle" x="72.88" y="-90.75" font-family="Helvetica,sans-Serif" font-size="10.00"> InsideDimension, 1 &gt; &gt;</text>
</a>
</g>
</g>
<!-- Node4&#45;&gt;Node3 -->
<g id="edge3_Node000003_Node000004" class="edge">
<title>Node4&#45;&gt;Node3</title>
<g id="a_edge3_Node000003_Node000004"><a xlink:title=" ">
<path fill="none" stroke="#63b8ff" d="M145.01,-96.9C156.85,-95.41 169.27,-93.84 181.51,-92.29"/>
<polygon fill="#63b8ff" stroke="#63b8ff" points="144.84,-93.39 135.36,-98.12 145.72,-100.34 144.84,-93.39"/>
</a>
</g>
</g>
<!-- Node5 -->
<g id="Node000005" class="node">
<title>Node5</title>
<g id="a_Node000005"><a xlink:href="class_im_fusion_1_1_utils_1_1_not_copyable.html" target="_top" xlink:title="Inherit from this class if your class should be neither copy&#45;constructible nor assignable.">
<polygon fill="white" stroke="#666666" points="145.75,-66.5 0,-66.5 0,-47.25 145.75,-47.25 145.75,-66.5"/>
<text xml:space="preserve" text-anchor="middle" x="72.88" y="-53" font-family="Helvetica,sans-Serif" font-size="10.00">ImFusion::Utils::NotCopyable</text>
</a>
</g>
</g>
<!-- Node5&#45;&gt;Node3 -->
<g id="edge4_Node000003_Node000005" class="edge">
<title>Node5&#45;&gt;Node3</title>
<g id="a_edge4_Node000003_Node000005"><a xlink:title=" ">
<path fill="none" stroke="#63b8ff" d="M157.59,-67.02C165.42,-67.96 173.37,-68.93 181.26,-69.88"/>
<polygon fill="#63b8ff" stroke="#63b8ff" points="158.09,-63.55 147.75,-65.82 157.25,-70.5 158.09,-63.55"/>
</a>
</g>
</g>
<!-- Node6 -->
<g id="Node000006" class="node">
<title>Node6</title>
<g id="a_Node000006"><a xlink:href="struct_im_fusion_1_1_utils_1_1_eigen_vector_wrapper_impl_1_1_eigen_vector_wrapper_optional_base.html" target="_top" xlink:title=" ">
<polygon fill="white" stroke="#bfbfbf" points="597.75,-41.75 431.75,-41.75 431.75,0 597.75,0 597.75,-41.75"/>
<text xml:space="preserve" text-anchor="start" x="439.75" y="-28.25" font-family="Helvetica,sans-Serif" font-size="10.00">ImFusion::Utils::EigenVector</text>
<text xml:space="preserve" text-anchor="start" x="439.75" y="-17" font-family="Helvetica,sans-Serif" font-size="10.00">WrapperImpl::EigenVectorWrapper</text>
<text xml:space="preserve" text-anchor="middle" x="514.75" y="-5.75" font-family="Helvetica,sans-Serif" font-size="10.00">OptionalBase</text>
</a>
</g>
</g>
<!-- Node6&#45;&gt;Node1 -->
<g id="edge5_Node000001_Node000006" class="edge">
<title>Node6&#45;&gt;Node1</title>
<g id="a_edge5_Node000001_Node000006"><a xlink:title=" ">
<path fill="none" stroke="#63b8ff" d="M609.58,-33.19C627.96,-35.61 647.08,-38.12 664.93,-40.46"/>
<polygon fill="#63b8ff" stroke="#63b8ff" points="610.11,-29.73 599.74,-31.9 609.2,-36.67 610.11,-29.73"/>
</a>
</g>
</g>
</g>
</svg>

<g id="navigator" transform="translate(0 0)" fill="#404254">
  <rect fill="#f2f5e9" fill-opacity="0.5" stroke="#606060" stroke-width=".5" x="0" y="0" width="60" height="60"/>
  <use id="zoomplus" xlink:href="#zoomPlus" x="17" y="9" onmousedown="handleZoom(evt,'in')"/>
  <use id="zoomminus" xlink:href="#zoomMin" x="42" y="9" onmousedown="handleZoom(evt,'out')"/>
  <use id="reset" xlink:href="#resetDef" x="30" y="36" onmousedown="handleReset()"/>
   <use id="arrowup" xlink:href="#arrowUp" x="0" y="0" onmousedown="handlePan(0,-1)"/>
  <use id="arrowright" xlink:href="#arrowRight" x="0" y="0" onmousedown="handlePan(1,0)"/>
  <use id="arrowdown" xlink:href="#arrowDown" x="0" y="0" onmousedown="handlePan(0,1)"/>
  <use id="arrowleft" xlink:href="#arrowLeft" x="0" y="0" onmousedown="handlePan(-1,0)"/>
</g>
<svg viewBox="0 0 15 15" width="100%" height="30px" preserveAspectRatio="xMaxYMin meet">
 <g id="arrow_out" transform="scale(0.3 0.3)">
  <a xlink:href="struct_im_fusion_1_1_utils_1_1_optional_output_eigen_vector_wrapper__inherit__graph_org.svg" target="_base">
   <rect id="button" ry="5" rx="5" y="6" x="6" height="38" width="38"
        fill="#f2f5e9" fill-opacity="0.5" stroke="#606060" stroke-width="1.0"/>
   <path id="arrow"
     d="M 11.500037,31.436501 C 11.940474,20.09759 22.043105,11.32322 32.158766,21.979434 L 37.068811,17.246167 C 37.068811,17.246167 37.088388,32 37.088388,32 L 22.160133,31.978069 C 22.160133,31.978069 26.997745,27.140456 26.997745,27.140456 C 18.528582,18.264221 13.291696,25.230495 11.500037,31.436501 z"
     style="fill:#404040;"/>
  </a>
 </g>
</svg>

<style type='text/css'>
<![CDATA[
[data-mouse-over-selected='false'] { opacity: 0.7; }
[data-mouse-over-selected='true']  { opacity: 1.0; }
]]>
</style>
<script type="application/ecmascript"><![CDATA[
document.addEventListener('DOMContentLoaded', (event) => {
  highlightEdges();
  highlightAdjacentNodes();
});
]]></script>
</svg>
