<?xml version="1.0" encoding="UTF-8" standalone="no"?>
<!DOCTYPE svg PUBLIC "-//W3C//DTD SVG 1.1//EN"
 "http://www.w3.org/Graphics/SVG/1.1/DTD/svg11.dtd">
<!-- Generated by graphviz version 14.1.4 (20260321.0153)
 -->
<!-- Title: ImFusion::Utils::OptionalEigenVectorWrapper&lt; InsideScalar, InsideDimension, FillValue &gt; Pages: 1 -->
<!--zoomable 134 -->

<svg id="main" version="1.1" xmlns="http://www.w3.org/2000/svg" xmlns:xlink="http://www.w3.org/1999/xlink" xml:space="preserve" onload="init(evt)">

<style type="text/css"><![CDATA[
.node, .edge {opacity: 0.7;}
.node.selected, .edge.selected {opacity: 1;}
.edge:hover path { stroke: red; }
.edge:hover polygon { stroke: red; fill: red; }
]]></style>

<defs>
  <circle id="rim" cx="0" cy="0" r="7"/>
  <circle id="rim2" cx="0" cy="0" r="3.5"/>
  <g id="zoomPlus">
    <use xlink:href="#rim" fill="#404040"><set attributeName="fill" to="#808080" begin="zoomplus.mouseover" end="zoomplus.mouseout"/></use>
    <path d="M-4,0h8M0,-4v8" fill="none" stroke="white" stroke-width="1.5" pointer-events="none"/>
  </g>
  <g id="zoomMin">
    <use xlink:href="#rim" fill="#404040"><set attributeName="fill" to="#808080" begin="zoomminus.mouseover" end="zoomminus.mouseout"/></use>
    <path d="M-4,0h8" fill="none" stroke="white" stroke-width="1.5" pointer-events="none"/>
  </g>
  <g id="arrowUp" transform="translate(30 24)">
    <use xlink:href="#rim"/>
    <path pointer-events="none" fill="none" stroke="white" stroke-width="1.5" d="M0,-3.0v7 M-2.5,-0.5L0,-3.0L2.5,-0.5"/>
  </g>
  <g id="arrowRight" transform="rotate(90) translate(36 -43)">
    <use xlink:href="#rim"/>
    <path pointer-events="none" fill="none" stroke="white" stroke-width="1.5" d="M0,-3.0v7 M-2.5,-0.5L0,-3.0L2.5,-0.5"/>
  </g>
  <g id="arrowDown" transform="rotate(180) translate(-30 -48)">
    <use xlink:href="#rim"/>
    <path pointer-events="none" fill="none" stroke="white" stroke-width="1.5" d="M0,-3.0v7 M-2.5,-0.5L0,-3.0L2.5,-0.5"/>
  </g>
  <g id="arrowLeft" transform="rotate(270) translate(-36 17)">
    <use xlink:href="#rim"/>
    <path pointer-events="none" fill="none" stroke="white" stroke-width="1.5" d="M0,-3.0v7 M-2.5,-0.5L0,-3.0L2.5,-0.5"/>
  </g>
  <g id="resetDef">
    <use xlink:href="#rim2" fill="#404040"><set attributeName="fill" to="#808080" begin="reset.mouseover" end="reset.mouseout"/></use>
  </g>
</defs>
<script type="application/ecmascript">
var viewWidth = 596;
var viewHeight = 134;
var sectionId = 'dynsection-0';
</script>
<script type="application/ecmascript" xlink:href="svg.min.js"/>
<svg id="graph" class="graph">
<g id="viewport">
<title>ImFusion::Utils::OptionalEigenVectorWrapper&lt; InsideScalar, InsideDimension, FillValue &gt;</title>
<!-- Node1 -->
<g id="Node000001" class="node">
<title>Node1</title>
<g id="a_Node000001"><a xlink:title="Optional input argument.">
<polygon fill="#999999" stroke="#666666" points="588,-71.75 417.5,-71.75 417.5,-30 588,-30 588,-71.75"/>
<text xml:space="preserve" text-anchor="start" x="425.5" y="-58.25" font-family="Helvetica,sans-Serif" font-size="10.00">ImFusion::Utils::Optional</text>
<text xml:space="preserve" text-anchor="start" x="425.5" y="-47" font-family="Helvetica,sans-Serif" font-size="10.00">EigenVectorWrapper&lt; InsideScalar,</text>
<text xml:space="preserve" text-anchor="middle" x="502.75" y="-35.75" font-family="Helvetica,sans-Serif" font-size="10.00"> InsideDimension, FillValue &gt;</text>
</a>
</g>
</g>
<!-- Node2 -->
<g id="Node000002" class="node">
<title>Node2</title>
<g id="a_Node000002"><a xlink:href="struct_im_fusion_1_1_utils_1_1_eigen_vector_wrapper_impl_1_1_eigen_vector_wrapper_base.html" target="_top" xlink:title=" ">
<polygon fill="white" stroke="#bfbfbf" points="381.5,-101.75 181.75,-101.75 181.75,-60 381.5,-60 381.5,-101.75"/>
<text xml:space="preserve" text-anchor="start" x="189.75" y="-88.25" font-family="Helvetica,sans-Serif" font-size="10.00">ImFusion::Utils::EigenVector</text>
<text xml:space="preserve" text-anchor="start" x="189.75" y="-77" font-family="Helvetica,sans-Serif" font-size="10.00">WrapperImpl::EigenVectorWrapper</text>
<text xml:space="preserve" text-anchor="middle" x="281.62" y="-65.75" font-family="Helvetica,sans-Serif" font-size="10.00">Base&lt; InsideScalar, InsideDimension, 1 &gt;</text>
</a>
</g>
</g>
<!-- Node2&#45;&gt;Node1 -->
<g id="edge1_Node000001_Node000002" class="edge">
<title>Node2&#45;&gt;Node1</title>
<g id="a_edge1_Node000001_Node000002"><a xlink:title=" ">
<path fill="none" stroke="#63b8ff" d="M393.28,-65.73C401.31,-64.63 409.34,-63.53 417.19,-62.45"/>
<polygon fill="#63b8ff" stroke="#63b8ff" points="392.86,-62.25 383.43,-67.07 393.81,-69.19 392.86,-62.25"/>
</a>
</g>
</g>
<!-- Node3 -->
<g id="Node000003" class="node">
<title>Node3</title>
<g id="a_Node000003"><a target="_parent" xlink:href="http://en.cppreference.com/w/cpp/container/vector.html" xlink:title=" ">
<polygon fill="white" stroke="#666666" points="133.38,-125.75 12.38,-125.75 12.38,-84 133.38,-84 133.38,-125.75"/>
<text xml:space="preserve" text-anchor="start" x="20.38" y="-112.25" font-family="Helvetica,sans-Serif" font-size="10.00">std::vector&lt; Eigen</text>
<text xml:space="preserve" text-anchor="start" x="20.38" y="-101" font-family="Helvetica,sans-Serif" font-size="10.00">::Matrix&lt; InsideScalar,</text>
<text xml:space="preserve" text-anchor="middle" x="72.88" y="-89.75" font-family="Helvetica,sans-Serif" font-size="10.00"> InsideDimension, 1 &gt; &gt;</text>
</a>
</g>
</g>
<!-- Node3&#45;&gt;Node2 -->
<g id="edge2_Node000002_Node000003" class="edge">
<title>Node3&#45;&gt;Node2</title>
<g id="a_edge2_Node000002_Node000003"><a xlink:title=" ">
<path fill="none" stroke="#63b8ff" d="M144.83,-96.64C156.7,-95.26 169.2,-93.81 181.62,-92.37"/>
<polygon fill="#63b8ff" stroke="#63b8ff" points="144.71,-93.13 135.18,-97.76 145.52,-100.08 144.71,-93.13"/>
</a>
</g>
</g>
<!-- Node4 -->
<g id="Node000004" class="node">
<title>Node4</title>
<g id="a_Node000004"><a xlink:href="class_im_fusion_1_1_utils_1_1_not_copyable.html" target="_top" xlink:title="Inherit from this class if your class should be neither copy&#45;constructible nor assignable.">
<polygon fill="white" stroke="#666666" points="145.75,-65.5 0,-65.5 0,-46.25 145.75,-46.25 145.75,-65.5"/>
<text xml:space="preserve" text-anchor="middle" x="72.88" y="-52" font-family="Helvetica,sans-Serif" font-size="10.00">ImFusion::Utils::NotCopyable</text>
</a>
</g>
</g>
<!-- Node4&#45;&gt;Node2 -->
<g id="edge3_Node000002_Node000004" class="edge">
<title>Node4&#45;&gt;Node2</title>
<g id="a_edge3_Node000002_Node000004"><a xlink:title=" ">
<path fill="none" stroke="#63b8ff" d="M157.58,-66C165.44,-66.95 173.47,-67.92 181.46,-68.88"/>
<polygon fill="#63b8ff" stroke="#63b8ff" points="158.04,-62.53 147.69,-64.8 157.2,-69.48 158.04,-62.53"/>
</a>
</g>
</g>
<!-- Node5 -->
<g id="Node000005" class="node">
<title>Node5</title>
<g id="a_Node000005"><a xlink:href="struct_im_fusion_1_1_utils_1_1_eigen_vector_wrapper_impl_1_1_eigen_vector_wrapper_optional_base.html" target="_top" xlink:title=" ">
<polygon fill="white" stroke="#bfbfbf" points="364.62,-41.75 198.62,-41.75 198.62,0 364.62,0 364.62,-41.75"/>
<text xml:space="preserve" text-anchor="start" x="206.62" y="-28.25" font-family="Helvetica,sans-Serif" font-size="10.00">ImFusion::Utils::EigenVector</text>
<text xml:space="preserve" text-anchor="start" x="206.62" y="-17" font-family="Helvetica,sans-Serif" font-size="10.00">WrapperImpl::EigenVectorWrapper</text>
<text xml:space="preserve" text-anchor="middle" x="281.62" y="-5.75" font-family="Helvetica,sans-Serif" font-size="10.00">OptionalBase</text>
</a>
</g>
</g>
<!-- Node5&#45;&gt;Node1 -->
<g id="edge4_Node000001_Node000005" class="edge">
<title>Node5&#45;&gt;Node1</title>
<g id="a_edge4_Node000001_Node000005"><a xlink:title=" ">
<path fill="none" stroke="#63b8ff" d="M376.2,-33.69C389.83,-35.55 403.8,-37.47 417.24,-39.31"/>
<polygon fill="#63b8ff" stroke="#63b8ff" points="376.72,-30.23 366.34,-32.34 375.77,-37.16 376.72,-30.23"/>
</a>
</g>
</g>
</g>
</svg>

<g id="navigator" transform="translate(0 0)" fill="#404254">
  <rect fill="#f2f5e9" fill-opacity="0.5" stroke="#606060" stroke-width=".5" x="0" y="0" width="60" height="60"/>
  <use id="zoomplus" xlink:href="#zoomPlus" x="17" y="9" onmousedown="handleZoom(evt,'in')"/>
  <use id="zoomminus" xlink:href="#zoomMin" x="42" y="9" onmousedown="handleZoom(evt,'out')"/>
  <use id="reset" xlink:href="#resetDef" x="30" y="36" onmousedown="handleReset()"/>
   <use id="arrowup" xlink:href="#arrowUp" x="0" y="0" onmousedown="handlePan(0,-1)"/>
  <use id="arrowright" xlink:href="#arrowRight" x="0" y="0" onmousedown="handlePan(1,0)"/>
  <use id="arrowdown" xlink:href="#arrowDown" x="0" y="0" onmousedown="handlePan(0,1)"/>
  <use id="arrowleft" xlink:href="#arrowLeft" x="0" y="0" onmousedown="handlePan(-1,0)"/>
</g>
<svg viewBox="0 0 15 15" width="100%" height="30px" preserveAspectRatio="xMaxYMin meet">
 <g id="arrow_out" transform="scale(0.3 0.3)">
  <a xlink:href="struct_im_fusion_1_1_utils_1_1_optional_eigen_vector_wrapper__inherit__graph_org.svg" target="_base">
   <rect id="button" ry="5" rx="5" y="6" x="6" height="38" width="38"
        fill="#f2f5e9" fill-opacity="0.5" stroke="#606060" stroke-width="1.0"/>
   <path id="arrow"
     d="M 11.500037,31.436501 C 11.940474,20.09759 22.043105,11.32322 32.158766,21.979434 L 37.068811,17.246167 C 37.068811,17.246167 37.088388,32 37.088388,32 L 22.160133,31.978069 C 22.160133,31.978069 26.997745,27.140456 26.997745,27.140456 C 18.528582,18.264221 13.291696,25.230495 11.500037,31.436501 z"
     style="fill:#404040;"/>
  </a>
 </g>
</svg>

<style type='text/css'>
<![CDATA[
[data-mouse-over-selected='false'] { opacity: 0.7; }
[data-mouse-over-selected='true']  { opacity: 1.0; }
]]>
</style>
<script type="application/ecmascript"><![CDATA[
document.addEventListener('DOMContentLoaded', (event) => {
  highlightEdges();
  highlightAdjacentNodes();
});
]]></script>
</svg>
