<?xml version="1.0" encoding="UTF-8" standalone="no"?>
<!DOCTYPE svg PUBLIC "-//W3C//DTD SVG 1.1//EN"
 "http://www.w3.org/Graphics/SVG/1.1/DTD/svg11.dtd">
<!-- Generated by graphviz version 14.1.4 (20260321.0153)
 -->
<!-- Title: ImFusion::Dicom::Base Pages: 1 -->
<svg width="311pt" height="187pt"
 viewBox="0.00 0.00 311.00 187.00" xmlns="http://www.w3.org/2000/svg" xmlns:xlink="http://www.w3.org/1999/xlink">
<g id="graph0" class="graph" transform="scale(1 1) rotate(0) translate(4 183.25)">
<title>ImFusion::Dicom::Base</title>
<!-- Node1 -->
<g id="Node000001" class="node">
<title>Node1</title>
<g id="a_Node000001"><a xlink:title=" ">
<polygon fill="#999999" stroke="#666666" points="119.5,-93.25 0,-93.25 0,-74 119.5,-74 119.5,-93.25"/>
<text xml:space="preserve" text-anchor="middle" x="59.75" y="-79.75" font-family="Helvetica,sans-Serif" font-size="10.00">ImFusion::Dicom::Base</text>
</a>
</g>
</g>
<!-- Node2 -->
<g id="Node000002" class="node">
<title>Node2</title>
<g id="a_Node000002"><a xlink:href="struct_im_fusion_1_1_dicom_1_1_image.html" target="_top" xlink:title=" ">
<polygon fill="white" stroke="#bfbfbf" points="291.12,-179.25 167.12,-179.25 167.12,-160 291.12,-160 291.12,-179.25"/>
<text xml:space="preserve" text-anchor="middle" x="229.12" y="-165.75" font-family="Helvetica,sans-Serif" font-size="10.00">ImFusion::Dicom::Image</text>
</a>
</g>
</g>
<!-- Node1&#45;&gt;Node2 -->
<g id="edge1_Node000001_Node000002" class="edge">
<title>Node1&#45;&gt;Node2</title>
<g id="a_edge1_Node000001_Node000002"><a xlink:title=" ">
<path fill="none" stroke="#63b8ff" d="M80.45,-100.78C98.75,-115.91 127.35,-137.52 155.5,-150.62 163.06,-154.15 171.38,-157.09 179.61,-159.53"/>
<polygon fill="#63b8ff" stroke="#63b8ff" points="82.93,-98.3 73.03,-94.52 78.41,-103.65 82.93,-98.3"/>
</a>
</g>
</g>
<!-- Node3 -->
<g id="Node000003" class="node">
<title>Node3</title>
<g id="a_Node000003"><a xlink:href="struct_im_fusion_1_1_dicom_1_1_pacs_series_proxy.html" target="_top" xlink:title="Proxy item to represent Series that exist on the PACS but have not yet been downloaded completely.">
<polygon fill="white" stroke="#666666" points="302.75,-141.88 155.5,-141.88 155.5,-111.38 302.75,-111.38 302.75,-141.88"/>
<text xml:space="preserve" text-anchor="start" x="163.5" y="-128.38" font-family="Helvetica,sans-Serif" font-size="10.00">ImFusion::Dicom::PacsSeries</text>
<text xml:space="preserve" text-anchor="middle" x="229.12" y="-117.12" font-family="Helvetica,sans-Serif" font-size="10.00">Proxy</text>
</a>
</g>
</g>
<!-- Node1&#45;&gt;Node3 -->
<g id="edge2_Node000001_Node000003" class="edge">
<title>Node1&#45;&gt;Node3</title>
<g id="a_edge2_Node000001_Node000003"><a xlink:title=" ">
<path fill="none" stroke="#63b8ff" d="M111.14,-96.57C128.67,-101.08 148.54,-106.18 166.86,-110.88"/>
<polygon fill="#63b8ff" stroke="#63b8ff" points="112.01,-93.18 101.46,-94.08 110.27,-99.96 112.01,-93.18"/>
</a>
</g>
</g>
<!-- Node4 -->
<g id="Node000004" class="node">
<title>Node4</title>
<g id="a_Node000004"><a xlink:href="struct_im_fusion_1_1_dicom_1_1_patient.html" target="_top" xlink:title=" ">
<polygon fill="white" stroke="#bfbfbf" points="293,-93.25 165.25,-93.25 165.25,-74 293,-74 293,-93.25"/>
<text xml:space="preserve" text-anchor="middle" x="229.12" y="-79.75" font-family="Helvetica,sans-Serif" font-size="10.00">ImFusion::Dicom::Patient</text>
</a>
</g>
</g>
<!-- Node1&#45;&gt;Node4 -->
<g id="edge3_Node000001_Node000004" class="edge">
<title>Node1&#45;&gt;Node4</title>
<g id="a_edge3_Node000001_Node000004"><a xlink:title=" ">
<path fill="none" stroke="#63b8ff" d="M131.23,-83.62C142.38,-83.62 153.85,-83.62 164.82,-83.62"/>
<polygon fill="#63b8ff" stroke="#63b8ff" points="131.27,-80.13 121.27,-83.63 131.27,-87.13 131.27,-80.13"/>
</a>
</g>
</g>
<!-- Node5 -->
<g id="Node000005" class="node">
<title>Node5</title>
<g id="a_Node000005"><a xlink:href="struct_im_fusion_1_1_dicom_1_1_series.html" target="_top" xlink:title=" ">
<polygon fill="white" stroke="#bfbfbf" points="291.5,-56.25 166.75,-56.25 166.75,-37 291.5,-37 291.5,-56.25"/>
<text xml:space="preserve" text-anchor="middle" x="229.12" y="-42.75" font-family="Helvetica,sans-Serif" font-size="10.00">ImFusion::Dicom::Series</text>
</a>
</g>
</g>
<!-- Node1&#45;&gt;Node5 -->
<g id="edge4_Node000001_Node000005" class="edge">
<title>Node1&#45;&gt;Node5</title>
<g id="a_edge4_Node000001_Node000005"><a xlink:title=" ">
<path fill="none" stroke="#63b8ff" d="M117.6,-71.06C138.74,-66.38 162.43,-61.15 182.44,-56.72"/>
<polygon fill="#63b8ff" stroke="#63b8ff" points="116.97,-67.61 107.96,-73.19 118.48,-74.45 116.97,-67.61"/>
</a>
</g>
</g>
<!-- Node6 -->
<g id="Node000006" class="node">
<title>Node6</title>
<g id="a_Node000006"><a xlink:href="struct_im_fusion_1_1_dicom_1_1_study.html" target="_top" xlink:title=" ">
<polygon fill="white" stroke="#bfbfbf" points="290.38,-19.25 167.88,-19.25 167.88,0 290.38,0 290.38,-19.25"/>
<text xml:space="preserve" text-anchor="middle" x="229.12" y="-5.75" font-family="Helvetica,sans-Serif" font-size="10.00">ImFusion::Dicom::Study</text>
</a>
</g>
</g>
<!-- Node1&#45;&gt;Node6 -->
<g id="edge5_Node000001_Node000006" class="edge">
<title>Node1&#45;&gt;Node6</title>
<g id="a_edge5_Node000001_Node000006"><a xlink:title=" ">
<path fill="none" stroke="#63b8ff" d="M84.23,-67.12C102.82,-54.72 129.83,-38.13 155.5,-27.62 162.95,-24.58 171.06,-21.95 179.06,-19.71"/>
<polygon fill="#63b8ff" stroke="#63b8ff" points="82.38,-64.14 76.09,-72.66 86.32,-69.93 82.38,-64.14"/>
</a>
</g>
</g>
</g>
</svg>
