<?xml version="1.0" encoding="UTF-8" standalone="no"?>
<!DOCTYPE svg PUBLIC "-//W3C//DTD SVG 1.1//EN"
 "http://www.w3.org/Graphics/SVG/1.1/DTD/svg11.dtd">
<!-- Generated by graphviz version 14.1.4 (20260321.0153)
 -->
<!-- Title: ImFusion::PersistentDataComponent Pages: 1 -->
<svg width="602pt" height="327pt"
 viewBox="0.00 0.00 602.00 327.00" xmlns="http://www.w3.org/2000/svg" xmlns:xlink="http://www.w3.org/1999/xlink">
<g id="graph0" class="graph" transform="scale(1 1) rotate(0) translate(4 323.12)">
<title>ImFusion::PersistentDataComponent</title>
<!-- Node1 -->
<g id="Node000001" class="node">
<title>Node1</title>
<g id="a_Node000001"><a xlink:title="Base class for DataComponents that must never be deleted from a DataComponentList.">
<polygon fill="#999999" stroke="#666666" points="127.75,-186.12 0,-186.12 0,-155.62 127.75,-155.62 127.75,-186.12"/>
<text xml:space="preserve" text-anchor="start" x="8" y="-172.62" font-family="Helvetica,sans-Serif" font-size="10.00">ImFusion::PersistentData</text>
<text xml:space="preserve" text-anchor="middle" x="63.88" y="-161.38" font-family="Helvetica,sans-Serif" font-size="10.00">Component</text>
</a>
</g>
</g>
<!-- Node2 -->
<g id="Node000002" class="node">
<title>Node2</title>
<g id="a_Node000002"><a xlink:href="class_im_fusion_1_1_lazy_instantiated_data_component.html" target="_top" xlink:title=" ">
<polygon fill="white" stroke="#666666" points="362.75,-319.12 180.25,-319.12 180.25,-288.62 362.75,-288.62 362.75,-319.12"/>
<text xml:space="preserve" text-anchor="start" x="188.25" y="-305.62" font-family="Helvetica,sans-Serif" font-size="10.00">ImFusion::LazyInstantiated</text>
<text xml:space="preserve" text-anchor="middle" x="271.5" y="-294.38" font-family="Helvetica,sans-Serif" font-size="10.00">DataComponent&lt; DisplayOptions2d &gt;</text>
</a>
</g>
</g>
<!-- Node1&#45;&gt;Node2 -->
<g id="edge1_Node000001_Node000002" class="edge">
<title>Node1&#45;&gt;Node2</title>
<g id="a_edge1_Node000001_Node000002"><a xlink:title=" ">
<path fill="none" stroke="#63b8ff" d="M81.08,-195.98C98.49,-220.88 128.47,-258.21 163.75,-278.88 169.91,-282.48 176.56,-285.57 183.41,-288.21"/>
<polygon fill="#63b8ff" stroke="#63b8ff" points="83.98,-194.03 75.47,-187.73 78.19,-197.97 83.98,-194.03"/>
</a>
</g>
</g>
<!-- Node4 -->
<g id="Node000004" class="node">
<title>Node4</title>
<g id="a_Node000004"><a xlink:href="class_im_fusion_1_1_lazy_instantiated_data_component.html" target="_top" xlink:title=" ">
<polygon fill="white" stroke="#666666" points="362.75,-270.12 180.25,-270.12 180.25,-239.62 362.75,-239.62 362.75,-270.12"/>
<text xml:space="preserve" text-anchor="start" x="188.25" y="-256.62" font-family="Helvetica,sans-Serif" font-size="10.00">ImFusion::LazyInstantiated</text>
<text xml:space="preserve" text-anchor="middle" x="271.5" y="-245.38" font-family="Helvetica,sans-Serif" font-size="10.00">DataComponent&lt; DisplayOptions3d &gt;</text>
</a>
</g>
</g>
<!-- Node1&#45;&gt;Node4 -->
<g id="edge3_Node000001_Node000004" class="edge">
<title>Node1&#45;&gt;Node4</title>
<g id="a_edge3_Node000001_Node000004"><a xlink:title=" ">
<path fill="none" stroke="#63b8ff" d="M95.43,-192.99C114.31,-205.73 139.49,-221.09 163.75,-230.88 171.5,-234 179.74,-236.76 188.07,-239.19"/>
<polygon fill="#63b8ff" stroke="#63b8ff" points="97.64,-190.26 87.42,-187.48 93.67,-196.03 97.64,-190.26"/>
</a>
</g>
</g>
<!-- Node6 -->
<g id="Node000006" class="node">
<title>Node6</title>
<g id="a_Node000006"><a xlink:href="class_im_fusion_1_1_lazy_instantiated_data_component.html" target="_top" xlink:title=" ">
<polygon fill="white" stroke="#666666" points="379.25,-221.75 163.75,-221.75 163.75,-180 379.25,-180 379.25,-221.75"/>
<text xml:space="preserve" text-anchor="start" x="171.75" y="-208.25" font-family="Helvetica,sans-Serif" font-size="10.00">ImFusion::LazyInstantiated</text>
<text xml:space="preserve" text-anchor="start" x="171.75" y="-197" font-family="Helvetica,sans-Serif" font-size="10.00">DataComponent&lt; HistogramDataComponent,</text>
<text xml:space="preserve" text-anchor="middle" x="271.5" y="-185.75" font-family="Helvetica,sans-Serif" font-size="10.00"> SharedImageSet &gt;</text>
</a>
</g>
</g>
<!-- Node1&#45;&gt;Node6 -->
<g id="edge5_Node000001_Node000006" class="edge">
<title>Node1&#45;&gt;Node6</title>
<g id="a_edge5_Node000001_Node000006"><a xlink:title=" ">
<path fill="none" stroke="#63b8ff" d="M139.5,-181.76C147.31,-182.9 155.35,-184.08 163.43,-185.25"/>
<polygon fill="#63b8ff" stroke="#63b8ff" points="140.15,-178.32 129.74,-180.34 139.13,-185.25 140.15,-178.32"/>
</a>
</g>
</g>
<!-- Node8 -->
<g id="Node000008" class="node">
<title>Node8</title>
<g id="a_Node000008"><a xlink:href="class_im_fusion_1_1_lazy_instantiated_data_component.html" target="_top" xlink:title=" ">
<polygon fill="white" stroke="#666666" points="368.38,-161.75 174.62,-161.75 174.62,-120 368.38,-120 368.38,-161.75"/>
<text xml:space="preserve" text-anchor="start" x="182.62" y="-148.25" font-family="Helvetica,sans-Serif" font-size="10.00">ImFusion::LazyInstantiated</text>
<text xml:space="preserve" text-anchor="start" x="182.62" y="-137" font-family="Helvetica,sans-Serif" font-size="10.00">DataComponent&lt; LabelDataComponent,</text>
<text xml:space="preserve" text-anchor="middle" x="271.5" y="-125.75" font-family="Helvetica,sans-Serif" font-size="10.00"> SharedImageSet &gt;</text>
</a>
</g>
</g>
<!-- Node1&#45;&gt;Node8 -->
<g id="edge7_Node000001_Node000008" class="edge">
<title>Node1&#45;&gt;Node8</title>
<g id="a_edge7_Node000001_Node000008"><a xlink:title=" ">
<path fill="none" stroke="#63b8ff" d="M139.43,-160C150.81,-158.34 162.69,-156.6 174.45,-154.89"/>
<polygon fill="#63b8ff" stroke="#63b8ff" points="139.13,-156.5 129.74,-161.41 140.15,-163.43 139.13,-156.5"/>
</a>
</g>
</g>
<!-- Node10 -->
<g id="Node000010" class="node">
<title>Node10</title>
<g id="a_Node000010"><a xlink:href="class_im_fusion_1_1_lazy_instantiated_data_component.html" target="_top" xlink:title=" ">
<polygon fill="white" stroke="#666666" points="371.38,-101.75 171.62,-101.75 171.62,-60 371.38,-60 371.38,-101.75"/>
<text xml:space="preserve" text-anchor="start" x="179.62" y="-88.25" font-family="Helvetica,sans-Serif" font-size="10.00">ImFusion::LazyInstantiated</text>
<text xml:space="preserve" text-anchor="start" x="179.62" y="-77" font-family="Helvetica,sans-Serif" font-size="10.00">DataComponent&lt; OctreeDataComponent,</text>
<text xml:space="preserve" text-anchor="middle" x="271.5" y="-65.75" font-family="Helvetica,sans-Serif" font-size="10.00"> SharedImageSet &gt;</text>
</a>
</g>
</g>
<!-- Node1&#45;&gt;Node10 -->
<g id="edge9_Node000001_Node000010" class="edge">
<title>Node1&#45;&gt;Node10</title>
<g id="a_edge9_Node000001_Node000010"><a xlink:title=" ">
<path fill="none" stroke="#63b8ff" d="M96,-148.97C114.9,-136.45 139.91,-121.23 163.75,-110.88 170.99,-107.73 178.65,-104.82 186.41,-102.16"/>
<polygon fill="#63b8ff" stroke="#63b8ff" points="94.3,-145.9 87.97,-154.39 98.21,-151.7 94.3,-145.9"/>
</a>
</g>
</g>
<!-- Node12 -->
<g id="Node000012" class="node">
<title>Node12</title>
<g id="a_Node000012"><a xlink:href="class_im_fusion_1_1_lazy_instantiated_data_component.html" target="_top" xlink:title="Extended interface for DataComponents that support lazy instantiation / lazy retrieval.">
<polygon fill="white" stroke="#666666" points="356.75,-41.75 186.25,-41.75 186.25,0 356.75,0 356.75,-41.75"/>
<text xml:space="preserve" text-anchor="start" x="194.25" y="-28.25" font-family="Helvetica,sans-Serif" font-size="10.00">ImFusion::LazyInstantiated</text>
<text xml:space="preserve" text-anchor="start" x="194.25" y="-17" font-family="Helvetica,sans-Serif" font-size="10.00">DataComponent&lt; ComponentType,</text>
<text xml:space="preserve" text-anchor="middle" x="271.5" y="-5.75" font-family="Helvetica,sans-Serif" font-size="10.00"> DataType &gt;</text>
</a>
</g>
</g>
<!-- Node1&#45;&gt;Node12 -->
<g id="edge11_Node000001_Node000012" class="edge">
<title>Node1&#45;&gt;Node12</title>
<g id="a_edge11_Node000001_Node000012"><a xlink:title=" ">
<path fill="none" stroke="#63b8ff" d="M79.08,-145.79C95.85,-118.44 126.25,-75.32 163.75,-50.88 170.6,-46.41 178.12,-42.59 185.9,-39.34"/>
<polygon fill="#63b8ff" stroke="#63b8ff" points="76.23,-143.75 74.11,-154.13 82.24,-147.33 76.23,-143.75"/>
</a>
</g>
</g>
<!-- Node3 -->
<g id="Node000003" class="node">
<title>Node3</title>
<g id="a_Node000003"><a xlink:href="class_im_fusion_1_1_display_options2d.html" target="_top" xlink:title="Configures the display options for 2D slice rendering of images.">
<polygon fill="white" stroke="#666666" points="574.5,-313.5 434.75,-313.5 434.75,-294.25 574.5,-294.25 574.5,-313.5"/>
<text xml:space="preserve" text-anchor="middle" x="504.62" y="-300" font-family="Helvetica,sans-Serif" font-size="10.00">ImFusion::DisplayOptions2d</text>
</a>
</g>
</g>
<!-- Node2&#45;&gt;Node3 -->
<g id="edge2_Node000002_Node000003" class="edge">
<title>Node2&#45;&gt;Node3</title>
<g id="a_edge2_Node000002_Node000003"><a xlink:title=" ">
<path fill="none" stroke="#63b8ff" d="M374.64,-303.88C394.8,-303.88 415.52,-303.88 434.29,-303.88"/>
<polygon fill="#63b8ff" stroke="#63b8ff" points="374.7,-300.38 364.7,-303.88 374.7,-307.38 374.7,-300.38"/>
</a>
</g>
</g>
<!-- Node5 -->
<g id="Node000005" class="node">
<title>Node5</title>
<g id="a_Node000005"><a xlink:href="class_im_fusion_1_1_display_options3d.html" target="_top" xlink:title="Configures the display options for 3D volume rendering of images.">
<polygon fill="white" stroke="#666666" points="574.5,-264.5 434.75,-264.5 434.75,-245.25 574.5,-245.25 574.5,-264.5"/>
<text xml:space="preserve" text-anchor="middle" x="504.62" y="-251" font-family="Helvetica,sans-Serif" font-size="10.00">ImFusion::DisplayOptions3d</text>
</a>
</g>
</g>
<!-- Node4&#45;&gt;Node5 -->
<g id="edge4_Node000004_Node000005" class="edge">
<title>Node4&#45;&gt;Node5</title>
<g id="a_edge4_Node000004_Node000005"><a xlink:title=" ">
<path fill="none" stroke="#63b8ff" d="M374.64,-254.88C394.8,-254.88 415.52,-254.88 434.29,-254.88"/>
<polygon fill="#63b8ff" stroke="#63b8ff" points="374.7,-251.38 364.7,-254.88 374.7,-258.38 374.7,-251.38"/>
</a>
</g>
</g>
<!-- Node7 -->
<g id="Node000007" class="node">
<title>Node7</title>
<g id="a_Node000007"><a xlink:href="class_im_fusion_1_1_histogram_data_component.html" target="_top" xlink:title="DataComponent storing information on the intensity distribution of the image they are attached to.">
<polygon fill="white" stroke="#666666" points="594,-210.5 415.25,-210.5 415.25,-191.25 594,-191.25 594,-210.5"/>
<text xml:space="preserve" text-anchor="middle" x="504.62" y="-197" font-family="Helvetica,sans-Serif" font-size="10.00">ImFusion::HistogramDataComponent</text>
</a>
</g>
</g>
<!-- Node6&#45;&gt;Node7 -->
<g id="edge6_Node000006_Node000007" class="edge">
<title>Node6&#45;&gt;Node7</title>
<g id="a_edge6_Node000006_Node000007"><a xlink:title=" ">
<path fill="none" stroke="#63b8ff" d="M390.97,-200.88C399.02,-200.88 407.04,-200.88 414.89,-200.88"/>
<polygon fill="#63b8ff" stroke="#63b8ff" points="391.12,-197.38 381.12,-200.88 391.12,-204.38 391.12,-197.38"/>
</a>
</g>
</g>
<!-- Node9 -->
<g id="Node000009" class="node">
<title>Node9</title>
<g id="a_Node000009"><a xlink:href="class_im_fusion_1_1_label_data_component.html" target="_top" xlink:title="DataComponent to store meta data of a label map.">
<polygon fill="white" stroke="#666666" points="583.12,-150.5 426.12,-150.5 426.12,-131.25 583.12,-131.25 583.12,-150.5"/>
<text xml:space="preserve" text-anchor="middle" x="504.62" y="-137" font-family="Helvetica,sans-Serif" font-size="10.00">ImFusion::LabelDataComponent</text>
</a>
</g>
</g>
<!-- Node8&#45;&gt;Node9 -->
<g id="edge8_Node000008_Node000009" class="edge">
<title>Node8&#45;&gt;Node9</title>
<g id="a_edge8_Node000008_Node000009"><a xlink:title=" ">
<path fill="none" stroke="#63b8ff" d="M380.01,-140.88C395.42,-140.88 411.02,-140.88 425.71,-140.88"/>
<polygon fill="#63b8ff" stroke="#63b8ff" points="380.36,-137.38 370.36,-140.88 380.36,-144.38 380.36,-137.38"/>
</a>
</g>
</g>
<!-- Node11 -->
<g id="Node000011" class="node">
<title>Node11</title>
<g id="a_Node000011"><a xlink:href="class_im_fusion_1_1_octree_data_component.html" target="_top" xlink:title="DataComponent to store Octrees directly with their SharedImageSet.">
<polygon fill="white" stroke="#666666" points="586.12,-90.5 423.12,-90.5 423.12,-71.25 586.12,-71.25 586.12,-90.5"/>
<text xml:space="preserve" text-anchor="middle" x="504.62" y="-77" font-family="Helvetica,sans-Serif" font-size="10.00">ImFusion::OctreeDataComponent</text>
</a>
</g>
</g>
<!-- Node10&#45;&gt;Node11 -->
<g id="edge10_Node000010_Node000011" class="edge">
<title>Node10&#45;&gt;Node11</title>
<g id="a_edge10_Node000010_Node000011"><a xlink:title=" ">
<path fill="none" stroke="#63b8ff" d="M383.07,-80.88C396.47,-80.88 409.95,-80.88 422.8,-80.88"/>
<polygon fill="#63b8ff" stroke="#63b8ff" points="383.37,-77.38 373.37,-80.88 383.37,-84.38 383.37,-77.38"/>
</a>
</g>
</g>
</g>
</svg>
