<?xml version="1.0" encoding="UTF-8" standalone="no"?>
<!DOCTYPE svg PUBLIC "-//W3C//DTD SVG 1.1//EN"
 "http://www.w3.org/Graphics/SVG/1.1/DTD/svg11.dtd">
<!-- Generated by graphviz version 14.1.4 (20260321.0153)
 -->
<!-- Title: ImFusion::SignalMutexProxy&lt; UseMutex &gt; Pages: 1 -->
<svg width="312pt" height="137pt"
 viewBox="0.00 0.00 312.00 137.00" xmlns="http://www.w3.org/2000/svg" xmlns:xlink="http://www.w3.org/1999/xlink">
<g id="graph0" class="graph" transform="scale(1 1) rotate(0) translate(4 132.5)">
<title>ImFusion::SignalMutexProxy&lt; UseMutex &gt;</title>
<!-- Node1 -->
<g id="Node000001" class="node">
<title>Node1</title>
<g id="a_Node000001"><a xlink:title=" ">
<polygon fill="#999999" stroke="#666666" points="142,-79.5 0,-79.5 0,-49 142,-49 142,-79.5"/>
<text xml:space="preserve" text-anchor="start" x="8" y="-66" font-family="Helvetica,sans-Serif" font-size="10.00">ImFusion::SignalMutexProxy</text>
<text xml:space="preserve" text-anchor="middle" x="71" y="-54.75" font-family="Helvetica,sans-Serif" font-size="10.00">&lt; UseMutex &gt;</text>
</a>
</g>
</g>
<!-- Node2 -->
<g id="Node000002" class="node">
<title>Node2</title>
<g id="a_Node000002"><a xlink:href="class_im_fusion_1_1_signal_impl.html" target="_top" xlink:title=" ">
<polygon fill="white" stroke="#666666" points="296,-128.5 185.5,-128.5 185.5,-98 296,-98 296,-128.5"/>
<text xml:space="preserve" text-anchor="start" x="193.5" y="-115" font-family="Helvetica,sans-Serif" font-size="10.00">ImFusion::SignalImpl</text>
<text xml:space="preserve" text-anchor="middle" x="240.75" y="-103.75" font-family="Helvetica,sans-Serif" font-size="10.00">&lt; false, ArgTypes... &gt;</text>
</a>
</g>
</g>
<!-- Node1&#45;&gt;Node2 -->
<g id="edge1_Node000001_Node000002" class="edge">
<title>Node1&#45;&gt;Node2</title>
<g id="a_edge1_Node000001_Node000002"><a xlink:title=" ">
<path fill="none" stroke="#8b1a1a" d="M136.14,-82.98C152.55,-87.78 170.02,-92.88 185.86,-97.51"/>
<polygon fill="#8b1a1a" stroke="#8b1a1a" points="137.57,-79.76 126.99,-80.31 135.61,-86.48 137.57,-79.76"/>
</a>
</g>
</g>
<!-- Node3 -->
<g id="Node000003" class="node">
<title>Node3</title>
<g id="a_Node000003"><a xlink:href="class_im_fusion_1_1_signal_impl.html" target="_top" xlink:title=" ">
<polygon fill="white" stroke="#666666" points="294.88,-79.5 186.62,-79.5 186.62,-49 294.88,-49 294.88,-79.5"/>
<text xml:space="preserve" text-anchor="start" x="194.62" y="-66" font-family="Helvetica,sans-Serif" font-size="10.00">ImFusion::SignalImpl</text>
<text xml:space="preserve" text-anchor="middle" x="240.75" y="-54.75" font-family="Helvetica,sans-Serif" font-size="10.00">&lt; true, ArgTypes... &gt;</text>
</a>
</g>
</g>
<!-- Node1&#45;&gt;Node3 -->
<g id="edge2_Node000001_Node000003" class="edge">
<title>Node1&#45;&gt;Node3</title>
<g id="a_edge2_Node000001_Node000003"><a xlink:title=" ">
<path fill="none" stroke="#8b1a1a" d="M153.64,-64.25C164.7,-64.25 175.81,-64.25 186.2,-64.25"/>
<polygon fill="#8b1a1a" stroke="#8b1a1a" points="153.68,-60.75 143.68,-64.25 153.68,-67.75 153.68,-60.75"/>
</a>
</g>
</g>
<!-- Node4 -->
<g id="Node000004" class="node">
<title>Node4</title>
<g id="a_Node000004"><a xlink:href="class_im_fusion_1_1_signal_impl.html" target="_top" xlink:title="Implementation for a specific signal with the given signature.">
<polygon fill="white" stroke="#666666" points="303.5,-30.5 178,-30.5 178,0 303.5,0 303.5,-30.5"/>
<text xml:space="preserve" text-anchor="start" x="186" y="-17" font-family="Helvetica,sans-Serif" font-size="10.00">ImFusion::SignalImpl</text>
<text xml:space="preserve" text-anchor="middle" x="240.75" y="-5.75" font-family="Helvetica,sans-Serif" font-size="10.00">&lt; UseMutex, ArgTypes &gt;</text>
</a>
</g>
</g>
<!-- Node1&#45;&gt;Node4 -->
<g id="edge3_Node000001_Node000004" class="edge">
<title>Node1&#45;&gt;Node4</title>
<g id="a_edge3_Node000001_Node000004"><a xlink:title=" ">
<path fill="none" stroke="#8b1a1a" d="M136.14,-45.52C152.55,-40.72 170.02,-35.62 185.86,-30.99"/>
<polygon fill="#8b1a1a" stroke="#8b1a1a" points="135.61,-42.02 126.99,-48.19 137.57,-48.74 135.61,-42.02"/>
</a>
</g>
</g>
</g>
</svg>
