<?xml version="1.0" encoding="UTF-8" standalone="no"?>
<!DOCTYPE svg PUBLIC "-//W3C//DTD SVG 1.1//EN"
 "http://www.w3.org/Graphics/SVG/1.1/DTD/svg11.dtd">
<!-- Generated by graphviz version 14.1.4 (20260321.0153)
 -->
<!-- Title: ImFusion::PersistentDataComponent Pages: 1 -->
<!--zoomable 327 -->

<svg id="main" version="1.1" xmlns="http://www.w3.org/2000/svg" xmlns:xlink="http://www.w3.org/1999/xlink" xml:space="preserve" onload="init(evt)">

<style type="text/css"><![CDATA[
.node, .edge {opacity: 0.7;}
.node.selected, .edge.selected {opacity: 1;}
.edge:hover path { stroke: red; }
.edge:hover polygon { stroke: red; fill: red; }
]]></style>

<defs>
  <circle id="rim" cx="0" cy="0" r="7"/>
  <circle id="rim2" cx="0" cy="0" r="3.5"/>
  <g id="zoomPlus">
    <use xlink:href="#rim" fill="#404040"><set attributeName="fill" to="#808080" begin="zoomplus.mouseover" end="zoomplus.mouseout"/></use>
    <path d="M-4,0h8M0,-4v8" fill="none" stroke="white" stroke-width="1.5" pointer-events="none"/>
  </g>
  <g id="zoomMin">
    <use xlink:href="#rim" fill="#404040"><set attributeName="fill" to="#808080" begin="zoomminus.mouseover" end="zoomminus.mouseout"/></use>
    <path d="M-4,0h8" fill="none" stroke="white" stroke-width="1.5" pointer-events="none"/>
  </g>
  <g id="arrowUp" transform="translate(30 24)">
    <use xlink:href="#rim"/>
    <path pointer-events="none" fill="none" stroke="white" stroke-width="1.5" d="M0,-3.0v7 M-2.5,-0.5L0,-3.0L2.5,-0.5"/>
  </g>
  <g id="arrowRight" transform="rotate(90) translate(36 -43)">
    <use xlink:href="#rim"/>
    <path pointer-events="none" fill="none" stroke="white" stroke-width="1.5" d="M0,-3.0v7 M-2.5,-0.5L0,-3.0L2.5,-0.5"/>
  </g>
  <g id="arrowDown" transform="rotate(180) translate(-30 -48)">
    <use xlink:href="#rim"/>
    <path pointer-events="none" fill="none" stroke="white" stroke-width="1.5" d="M0,-3.0v7 M-2.5,-0.5L0,-3.0L2.5,-0.5"/>
  </g>
  <g id="arrowLeft" transform="rotate(270) translate(-36 17)">
    <use xlink:href="#rim"/>
    <path pointer-events="none" fill="none" stroke="white" stroke-width="1.5" d="M0,-3.0v7 M-2.5,-0.5L0,-3.0L2.5,-0.5"/>
  </g>
  <g id="resetDef">
    <use xlink:href="#rim2" fill="#404040"><set attributeName="fill" to="#808080" begin="reset.mouseover" end="reset.mouseout"/></use>
  </g>
</defs>
<script type="application/ecmascript">
var viewWidth = 602;
var viewHeight = 327;
var sectionId = 'dynsection-0';
</script>
<script type="application/ecmascript" xlink:href="svg.min.js"/>
<svg id="graph" class="graph">
<g id="viewport">
<title>ImFusion::PersistentDataComponent</title>
<!-- Node1 -->
<g id="Node000001" class="node">
<title>Node1</title>
<g id="a_Node000001"><a xlink:title="Base class for DataComponents that must never be deleted from a DataComponentList.">
<polygon fill="#999999" stroke="#666666" points="127.75,-186.12 0,-186.12 0,-155.62 127.75,-155.62 127.75,-186.12"/>
<text xml:space="preserve" text-anchor="start" x="8" y="-172.62" font-family="Helvetica,sans-Serif" font-size="10.00">ImFusion::PersistentData</text>
<text xml:space="preserve" text-anchor="middle" x="63.88" y="-161.38" font-family="Helvetica,sans-Serif" font-size="10.00">Component</text>
</a>
</g>
</g>
<!-- Node2 -->
<g id="Node000002" class="node">
<title>Node2</title>
<g id="a_Node000002"><a xlink:href="class_im_fusion_1_1_lazy_instantiated_data_component.html" target="_top" xlink:title=" ">
<polygon fill="white" stroke="#666666" points="362.75,-319.12 180.25,-319.12 180.25,-288.62 362.75,-288.62 362.75,-319.12"/>
<text xml:space="preserve" text-anchor="start" x="188.25" y="-305.62" font-family="Helvetica,sans-Serif" font-size="10.00">ImFusion::LazyInstantiated</text>
<text xml:space="preserve" text-anchor="middle" x="271.5" y="-294.38" font-family="Helvetica,sans-Serif" font-size="10.00">DataComponent&lt; DisplayOptions2d &gt;</text>
</a>
</g>
</g>
<!-- Node1&#45;&gt;Node2 -->
<g id="edge1_Node000001_Node000002" class="edge">
<title>Node1&#45;&gt;Node2</title>
<g id="a_edge1_Node000001_Node000002"><a xlink:title=" ">
<path fill="none" stroke="#63b8ff" d="M81.08,-195.98C98.49,-220.88 128.47,-258.21 163.75,-278.88 169.91,-282.48 176.56,-285.57 183.41,-288.21"/>
<polygon fill="#63b8ff" stroke="#63b8ff" points="83.98,-194.03 75.47,-187.73 78.19,-197.97 83.98,-194.03"/>
</a>
</g>
</g>
<!-- Node4 -->
<g id="Node000004" class="node">
<title>Node4</title>
<g id="a_Node000004"><a xlink:href="class_im_fusion_1_1_lazy_instantiated_data_component.html" target="_top" xlink:title=" ">
<polygon fill="white" stroke="#666666" points="362.75,-270.12 180.25,-270.12 180.25,-239.62 362.75,-239.62 362.75,-270.12"/>
<text xml:space="preserve" text-anchor="start" x="188.25" y="-256.62" font-family="Helvetica,sans-Serif" font-size="10.00">ImFusion::LazyInstantiated</text>
<text xml:space="preserve" text-anchor="middle" x="271.5" y="-245.38" font-family="Helvetica,sans-Serif" font-size="10.00">DataComponent&lt; DisplayOptions3d &gt;</text>
</a>
</g>
</g>
<!-- Node1&#45;&gt;Node4 -->
<g id="edge3_Node000001_Node000004" class="edge">
<title>Node1&#45;&gt;Node4</title>
<g id="a_edge3_Node000001_Node000004"><a xlink:title=" ">
<path fill="none" stroke="#63b8ff" d="M95.43,-192.99C114.31,-205.73 139.49,-221.09 163.75,-230.88 171.5,-234 179.74,-236.76 188.07,-239.19"/>
<polygon fill="#63b8ff" stroke="#63b8ff" points="97.64,-190.26 87.42,-187.48 93.67,-196.03 97.64,-190.26"/>
</a>
</g>
</g>
<!-- Node6 -->
<g id="Node000006" class="node">
<title>Node6</title>
<g id="a_Node000006"><a xlink:href="class_im_fusion_1_1_lazy_instantiated_data_component.html" target="_top" xlink:title=" ">
<polygon fill="white" stroke="#666666" points="379.25,-221.75 163.75,-221.75 163.75,-180 379.25,-180 379.25,-221.75"/>
<text xml:space="preserve" text-anchor="start" x="171.75" y="-208.25" font-family="Helvetica,sans-Serif" font-size="10.00">ImFusion::LazyInstantiated</text>
<text xml:space="preserve" text-anchor="start" x="171.75" y="-197" font-family="Helvetica,sans-Serif" font-size="10.00">DataComponent&lt; HistogramDataComponent,</text>
<text xml:space="preserve" text-anchor="middle" x="271.5" y="-185.75" font-family="Helvetica,sans-Serif" font-size="10.00"> SharedImageSet &gt;</text>
</a>
</g>
</g>
<!-- Node1&#45;&gt;Node6 -->
<g id="edge5_Node000001_Node000006" class="edge">
<title>Node1&#45;&gt;Node6</title>
<g id="a_edge5_Node000001_Node000006"><a xlink:title=" ">
<path fill="none" stroke="#63b8ff" d="M139.5,-181.76C147.31,-182.9 155.35,-184.08 163.43,-185.25"/>
<polygon fill="#63b8ff" stroke="#63b8ff" points="140.15,-178.32 129.74,-180.34 139.13,-185.25 140.15,-178.32"/>
</a>
</g>
</g>
<!-- Node8 -->
<g id="Node000008" class="node">
<title>Node8</title>
<g id="a_Node000008"><a xlink:href="class_im_fusion_1_1_lazy_instantiated_data_component.html" target="_top" xlink:title=" ">
<polygon fill="white" stroke="#666666" points="368.38,-161.75 174.62,-161.75 174.62,-120 368.38,-120 368.38,-161.75"/>
<text xml:space="preserve" text-anchor="start" x="182.62" y="-148.25" font-family="Helvetica,sans-Serif" font-size="10.00">ImFusion::LazyInstantiated</text>
<text xml:space="preserve" text-anchor="start" x="182.62" y="-137" font-family="Helvetica,sans-Serif" font-size="10.00">DataComponent&lt; LabelDataComponent,</text>
<text xml:space="preserve" text-anchor="middle" x="271.5" y="-125.75" font-family="Helvetica,sans-Serif" font-size="10.00"> SharedImageSet &gt;</text>
</a>
</g>
</g>
<!-- Node1&#45;&gt;Node8 -->
<g id="edge7_Node000001_Node000008" class="edge">
<title>Node1&#45;&gt;Node8</title>
<g id="a_edge7_Node000001_Node000008"><a xlink:title=" ">
<path fill="none" stroke="#63b8ff" d="M139.43,-160C150.81,-158.34 162.69,-156.6 174.45,-154.89"/>
<polygon fill="#63b8ff" stroke="#63b8ff" points="139.13,-156.5 129.74,-161.41 140.15,-163.43 139.13,-156.5"/>
</a>
</g>
</g>
<!-- Node10 -->
<g id="Node000010" class="node">
<title>Node10</title>
<g id="a_Node000010"><a xlink:href="class_im_fusion_1_1_lazy_instantiated_data_component.html" target="_top" xlink:title=" ">
<polygon fill="white" stroke="#666666" points="371.38,-101.75 171.62,-101.75 171.62,-60 371.38,-60 371.38,-101.75"/>
<text xml:space="preserve" text-anchor="start" x="179.62" y="-88.25" font-family="Helvetica,sans-Serif" font-size="10.00">ImFusion::LazyInstantiated</text>
<text xml:space="preserve" text-anchor="start" x="179.62" y="-77" font-family="Helvetica,sans-Serif" font-size="10.00">DataComponent&lt; OctreeDataComponent,</text>
<text xml:space="preserve" text-anchor="middle" x="271.5" y="-65.75" font-family="Helvetica,sans-Serif" font-size="10.00"> SharedImageSet &gt;</text>
</a>
</g>
</g>
<!-- Node1&#45;&gt;Node10 -->
<g id="edge9_Node000001_Node000010" class="edge">
<title>Node1&#45;&gt;Node10</title>
<g id="a_edge9_Node000001_Node000010"><a xlink:title=" ">
<path fill="none" stroke="#63b8ff" d="M96,-148.97C114.9,-136.45 139.91,-121.23 163.75,-110.88 170.99,-107.73 178.65,-104.82 186.41,-102.16"/>
<polygon fill="#63b8ff" stroke="#63b8ff" points="94.3,-145.9 87.97,-154.39 98.21,-151.7 94.3,-145.9"/>
</a>
</g>
</g>
<!-- Node12 -->
<g id="Node000012" class="node">
<title>Node12</title>
<g id="a_Node000012"><a xlink:href="class_im_fusion_1_1_lazy_instantiated_data_component.html" target="_top" xlink:title="Extended interface for DataComponents that support lazy instantiation / lazy retrieval.">
<polygon fill="white" stroke="#666666" points="356.75,-41.75 186.25,-41.75 186.25,0 356.75,0 356.75,-41.75"/>
<text xml:space="preserve" text-anchor="start" x="194.25" y="-28.25" font-family="Helvetica,sans-Serif" font-size="10.00">ImFusion::LazyInstantiated</text>
<text xml:space="preserve" text-anchor="start" x="194.25" y="-17" font-family="Helvetica,sans-Serif" font-size="10.00">DataComponent&lt; ComponentType,</text>
<text xml:space="preserve" text-anchor="middle" x="271.5" y="-5.75" font-family="Helvetica,sans-Serif" font-size="10.00"> DataType &gt;</text>
</a>
</g>
</g>
<!-- Node1&#45;&gt;Node12 -->
<g id="edge11_Node000001_Node000012" class="edge">
<title>Node1&#45;&gt;Node12</title>
<g id="a_edge11_Node000001_Node000012"><a xlink:title=" ">
<path fill="none" stroke="#63b8ff" d="M79.08,-145.79C95.85,-118.44 126.25,-75.32 163.75,-50.88 170.6,-46.41 178.12,-42.59 185.9,-39.34"/>
<polygon fill="#63b8ff" stroke="#63b8ff" points="76.23,-143.75 74.11,-154.13 82.24,-147.33 76.23,-143.75"/>
</a>
</g>
</g>
<!-- Node3 -->
<g id="Node000003" class="node">
<title>Node3</title>
<g id="a_Node000003"><a xlink:href="class_im_fusion_1_1_display_options2d.html" target="_top" xlink:title="Configures the display options for 2D slice rendering of images.">
<polygon fill="white" stroke="#666666" points="574.5,-313.5 434.75,-313.5 434.75,-294.25 574.5,-294.25 574.5,-313.5"/>
<text xml:space="preserve" text-anchor="middle" x="504.62" y="-300" font-family="Helvetica,sans-Serif" font-size="10.00">ImFusion::DisplayOptions2d</text>
</a>
</g>
</g>
<!-- Node2&#45;&gt;Node3 -->
<g id="edge2_Node000002_Node000003" class="edge">
<title>Node2&#45;&gt;Node3</title>
<g id="a_edge2_Node000002_Node000003"><a xlink:title=" ">
<path fill="none" stroke="#63b8ff" d="M374.64,-303.88C394.8,-303.88 415.52,-303.88 434.29,-303.88"/>
<polygon fill="#63b8ff" stroke="#63b8ff" points="374.7,-300.38 364.7,-303.88 374.7,-307.38 374.7,-300.38"/>
</a>
</g>
</g>
<!-- Node5 -->
<g id="Node000005" class="node">
<title>Node5</title>
<g id="a_Node000005"><a xlink:href="class_im_fusion_1_1_display_options3d.html" target="_top" xlink:title="Configures the display options for 3D volume rendering of images.">
<polygon fill="white" stroke="#666666" points="574.5,-264.5 434.75,-264.5 434.75,-245.25 574.5,-245.25 574.5,-264.5"/>
<text xml:space="preserve" text-anchor="middle" x="504.62" y="-251" font-family="Helvetica,sans-Serif" font-size="10.00">ImFusion::DisplayOptions3d</text>
</a>
</g>
</g>
<!-- Node4&#45;&gt;Node5 -->
<g id="edge4_Node000004_Node000005" class="edge">
<title>Node4&#45;&gt;Node5</title>
<g id="a_edge4_Node000004_Node000005"><a xlink:title=" ">
<path fill="none" stroke="#63b8ff" d="M374.64,-254.88C394.8,-254.88 415.52,-254.88 434.29,-254.88"/>
<polygon fill="#63b8ff" stroke="#63b8ff" points="374.7,-251.38 364.7,-254.88 374.7,-258.38 374.7,-251.38"/>
</a>
</g>
</g>
<!-- Node7 -->
<g id="Node000007" class="node">
<title>Node7</title>
<g id="a_Node000007"><a xlink:href="class_im_fusion_1_1_histogram_data_component.html" target="_top" xlink:title="DataComponent storing information on the intensity distribution of the image they are attached to.">
<polygon fill="white" stroke="#666666" points="594,-210.5 415.25,-210.5 415.25,-191.25 594,-191.25 594,-210.5"/>
<text xml:space="preserve" text-anchor="middle" x="504.62" y="-197" font-family="Helvetica,sans-Serif" font-size="10.00">ImFusion::HistogramDataComponent</text>
</a>
</g>
</g>
<!-- Node6&#45;&gt;Node7 -->
<g id="edge6_Node000006_Node000007" class="edge">
<title>Node6&#45;&gt;Node7</title>
<g id="a_edge6_Node000006_Node000007"><a xlink:title=" ">
<path fill="none" stroke="#63b8ff" d="M390.97,-200.88C399.02,-200.88 407.04,-200.88 414.89,-200.88"/>
<polygon fill="#63b8ff" stroke="#63b8ff" points="391.12,-197.38 381.12,-200.88 391.12,-204.38 391.12,-197.38"/>
</a>
</g>
</g>
<!-- Node9 -->
<g id="Node000009" class="node">
<title>Node9</title>
<g id="a_Node000009"><a xlink:href="class_im_fusion_1_1_label_data_component.html" target="_top" xlink:title="DataComponent to store meta data of a label map.">
<polygon fill="white" stroke="#666666" points="583.12,-150.5 426.12,-150.5 426.12,-131.25 583.12,-131.25 583.12,-150.5"/>
<text xml:space="preserve" text-anchor="middle" x="504.62" y="-137" font-family="Helvetica,sans-Serif" font-size="10.00">ImFusion::LabelDataComponent</text>
</a>
</g>
</g>
<!-- Node8&#45;&gt;Node9 -->
<g id="edge8_Node000008_Node000009" class="edge">
<title>Node8&#45;&gt;Node9</title>
<g id="a_edge8_Node000008_Node000009"><a xlink:title=" ">
<path fill="none" stroke="#63b8ff" d="M380.01,-140.88C395.42,-140.88 411.02,-140.88 425.71,-140.88"/>
<polygon fill="#63b8ff" stroke="#63b8ff" points="380.36,-137.38 370.36,-140.88 380.36,-144.38 380.36,-137.38"/>
</a>
</g>
</g>
<!-- Node11 -->
<g id="Node000011" class="node">
<title>Node11</title>
<g id="a_Node000011"><a xlink:href="class_im_fusion_1_1_octree_data_component.html" target="_top" xlink:title="DataComponent to store Octrees directly with their SharedImageSet.">
<polygon fill="white" stroke="#666666" points="586.12,-90.5 423.12,-90.5 423.12,-71.25 586.12,-71.25 586.12,-90.5"/>
<text xml:space="preserve" text-anchor="middle" x="504.62" y="-77" font-family="Helvetica,sans-Serif" font-size="10.00">ImFusion::OctreeDataComponent</text>
</a>
</g>
</g>
<!-- Node10&#45;&gt;Node11 -->
<g id="edge10_Node000010_Node000011" class="edge">
<title>Node10&#45;&gt;Node11</title>
<g id="a_edge10_Node000010_Node000011"><a xlink:title=" ">
<path fill="none" stroke="#63b8ff" d="M383.07,-80.88C396.47,-80.88 409.95,-80.88 422.8,-80.88"/>
<polygon fill="#63b8ff" stroke="#63b8ff" points="383.37,-77.38 373.37,-80.88 383.37,-84.38 383.37,-77.38"/>
</a>
</g>
</g>
</g>
</svg>

<g id="navigator" transform="translate(0 0)" fill="#404254">
  <rect fill="#f2f5e9" fill-opacity="0.5" stroke="#606060" stroke-width=".5" x="0" y="0" width="60" height="60"/>
  <use id="zoomplus" xlink:href="#zoomPlus" x="17" y="9" onmousedown="handleZoom(evt,'in')"/>
  <use id="zoomminus" xlink:href="#zoomMin" x="42" y="9" onmousedown="handleZoom(evt,'out')"/>
  <use id="reset" xlink:href="#resetDef" x="30" y="36" onmousedown="handleReset()"/>
   <use id="arrowup" xlink:href="#arrowUp" x="0" y="0" onmousedown="handlePan(0,-1)"/>
  <use id="arrowright" xlink:href="#arrowRight" x="0" y="0" onmousedown="handlePan(1,0)"/>
  <use id="arrowdown" xlink:href="#arrowDown" x="0" y="0" onmousedown="handlePan(0,1)"/>
  <use id="arrowleft" xlink:href="#arrowLeft" x="0" y="0" onmousedown="handlePan(-1,0)"/>
</g>
<svg viewBox="0 0 15 15" width="100%" height="30px" preserveAspectRatio="xMaxYMin meet">
 <g id="arrow_out" transform="scale(0.3 0.3)">
  <a xlink:href="struct_im_fusion_1_1_persistent_data_component__inherit__graph_org.svg" target="_base">
   <rect id="button" ry="5" rx="5" y="6" x="6" height="38" width="38"
        fill="#f2f5e9" fill-opacity="0.5" stroke="#606060" stroke-width="1.0"/>
   <path id="arrow"
     d="M 11.500037,31.436501 C 11.940474,20.09759 22.043105,11.32322 32.158766,21.979434 L 37.068811,17.246167 C 37.068811,17.246167 37.088388,32 37.088388,32 L 22.160133,31.978069 C 22.160133,31.978069 26.997745,27.140456 26.997745,27.140456 C 18.528582,18.264221 13.291696,25.230495 11.500037,31.436501 z"
     style="fill:#404040;"/>
  </a>
 </g>
</svg>

<style type='text/css'>
<![CDATA[
[data-mouse-over-selected='false'] { opacity: 0.7; }
[data-mouse-over-selected='true']  { opacity: 1.0; }
]]>
</style>
<script type="application/ecmascript"><![CDATA[
document.addEventListener('DOMContentLoaded', (event) => {
  highlightEdges();
  highlightAdjacentNodes();
});
]]></script>
</svg>
